<?xml version="1.0" encoding="UTF-8"?>
<svg xmlns="http://www.w3.org/2000/svg" xmlns:xlink="http://www.w3.org/1999/xlink"
     width="2550" height="2550" viewBox="0 0 2550 2550">
<defs>
</defs>
<path d="M871.6098954365974,1140.2969588128951 C863.7816612806719,1148.1251929688208,848.1251929688206,1163.7816612806716,840.296958812895,1171.6098954365973" close="False" data-weight="0.0" stroke-width="6" fill="none" stroke="#ffff33" />
<path d="M865.953041187105,871.6098954365974 C858.1248070311793,863.7816612806718,842.4683387193282,848.1251929688207,834.6401045634026,840.296958812895" close="False" data-weight="0.0" stroke-width="6" fill="none" stroke="#ffff33" />
<path d="M790.953041187105,796.6098954365974 C783.1248070311793,788.7816612806718,767.4683387193282,773.1251929688207,759.6401045634026,765.296958812895" close="False" data-weight="0.0" stroke-width="6" fill="none" stroke="#ffff33" />
<path d="M650.2665898254845,707.125 C639.1957949127423,707.125,617.0542050872577,707.125,605.9834101745155,707.125" close="False" data-weight="0.0" stroke-width="6" fill="none" stroke="#ffff33" />
<path d="M575.2665898254845,707.125 C564.1957949127423,707.125,542.0542050872577,707.125,530.9834101745155,707.125" close="False" data-weight="0.0" stroke-width="6" fill="none" stroke="#ffff33" />
<path d="M500.2665898254845,707.125 C489.19579491274226,707.125,467.05420508725774,707.125,455.9834101745155,707.125" close="False" data-weight="0.0" stroke-width="6" fill="none" stroke="#ffff33" />
<path d="M425.2665898254845,707.125 A57.45452644917998,57.45452644917998,0,0,1,403.27969443899684,702.7515345873438 M403.27969443899684,702.7515345873438 A57.454526449206384,57.454526449206384,0,0,1,384.6401045633989,690.2969588128914 M384.6401045633989,690.2969588128914" close="False" data-weight="1.0" stroke-width="6" fill="none" stroke="#ffff33" />
<path d="M328.125,830.625 A54.319805153393474,54.319805153393474,0,0,1,323.99015103782773,851.4122894815039 M323.99015103782773,851.4122894815039 A54.319805153395706,54.319805153395706,0,0,1,312.21509742330267,869.0349025766973 M312.21509742330267,869.0349025766973" close="False" data-weight="1.0" stroke-width="6" fill="none" stroke="#ffff33" />
<path d="M328.125,755.625 C328.125,766.875,328.125,789.375,328.125,800.625" close="False" data-weight="0.0" stroke-width="6" fill="none" stroke="#ffff33" />
<path d="M328.125,680.625 C328.125,691.875,328.125,714.375,328.125,725.625" close="False" data-weight="0.0" stroke-width="6" fill="none" stroke="#ffff33" />
<path d="M269.03490257669733,912.2150974233027 C261.0799512883487,920.1700487116514,245.1700487116513,936.0799512883486,237.21509742330267,944.0349025766973" close="False" data-weight="0.0" stroke-width="6" fill="none" stroke="#ffff33" />
<path d="M932.125,1025.2665898254845 L932.125,1055.9834101745155" close="False" data-weight="1.75" stroke-width="6" fill="none" stroke="#ffff33" />
<path d="M924.125,950.2665898254845 L924.125,980.9834101745155" close="False" data-weight="1.75" stroke-width="6" fill="none" stroke="#ffff33" />
<path d="M871.6098954365974,1140.2969588128951 L915.296958812895,1096.6098954365973" close="False" data-weight="2.060660171779821" stroke-width="6" fill="none" stroke="#ffff33" />
<path d="M875.2665898254845,999.125 L905.9834101745155,999.125" close="False" data-weight="1.75" stroke-width="6" fill="none" stroke="#ffff33" />
<path d="M865.953041187105,871.6098954365974 L909.6401045634026,915.296958812895" close="False" data-weight="2.060660171779821" stroke-width="6" fill="none" stroke="#ffff33" />
<path d="M796.6098954365974,1215.2969588128951 L840.296958812895,1171.6098954365973" close="False" data-weight="2.060660171779821" stroke-width="6" fill="none" stroke="#ffff33" />
<path d="M790.953041187105,796.6098954365974 L834.6401045634026,840.296958812895" close="False" data-weight="2.060660171779821" stroke-width="6" fill="none" stroke="#ffff33" />
<path d="M715.953041187105,721.6098954365974 L759.6401045634026,765.296958812895" close="False" data-weight="2.060660171779821" stroke-width="6" fill="none" stroke="#ffff33" />
<path d="M650.2665898254845,707.125 L680.9834101745155,707.125" close="False" data-weight="1.75" stroke-width="6" fill="none" stroke="#ffff33" />
<path d="M575.2665898254845,707.125 L605.9834101745155,707.125" close="False" data-weight="1.75" stroke-width="6" fill="none" stroke="#ffff33" />
<path d="M500.2665898254845,707.125 L530.9834101745155,707.125" close="False" data-weight="1.75" stroke-width="6" fill="none" stroke="#ffff33" />
<path d="M425.2665898254845,707.125 L455.9834101745155,707.125" close="False" data-weight="1.75" stroke-width="6" fill="none" stroke="#ffff33" />
<path d="M328.125,800.625 L328.125,830.625" close="False" data-weight="1.75" stroke-width="6" fill="none" stroke="#ffff33" />
<path d="M328.125,725.625 L328.125,755.625" close="False" data-weight="1.75" stroke-width="6" fill="none" stroke="#ffff33" />
<path d="M328.125,650.625 L328.125,680.625" close="False" data-weight="1.75" stroke-width="6" fill="none" stroke="#ffff33" />
<path d="M340.9530411871068,646.6098954365992 L384.6401045633989,690.2969588128913" close="False" data-weight="2.060660171779821" stroke-width="6" fill="none" stroke="#ffff33" />
<path d="M269.03490257669733,912.2150974233027 L312.21509742330267,869.0349025766973" close="False" data-weight="2.060660171779821" stroke-width="6" fill="none" stroke="#ffff33" />
<path d="M178.125,1175.625 L178.125,1205.625" close="False" data-weight="1.75" stroke-width="6" fill="none" stroke="#ffff33" />
<path d="M200.625,1153.125 L230.625,1153.125" close="False" data-weight="1.75" stroke-width="6" fill="none" stroke="#ffff33" />
<path d="M178.125,1100.625 L178.125,1130.625" close="False" data-weight="1.75" stroke-width="6" fill="none" stroke="#ffff33" />
<path d="M178.125,1025.625 L178.125,1055.625" close="False" data-weight="1.75" stroke-width="6" fill="none" stroke="#ffff33" />
<path d="M194.03490257669733,987.2150974233027 L237.2150974233027,944.0349025766973" close="False" data-weight="2.060660171779821" stroke-width="6" fill="none" stroke="#ffff33" />
<path d="M1978.125,2105.625 A54.31980515339296,54.31980515339296,0,0,1,1973.9901510378277,2126.4122894815036 M1973.9901510378277,2126.4122894815036 A54.31980515340005,54.31980515340005,0,0,1,1962.2150974233027,2144.0349025766973 M1962.2150974233027,2144.0349025766973" close="False" data-weight="1.0" stroke-width="6" fill="none" stroke="#984ea3" />
<path d="M1978.125,2030.625 C1978.125,2041.875,1978.125,2064.375,1978.125,2075.625" close="False" data-weight="0.0" stroke-width="6" fill="none" stroke="#984ea3" />
<path d="M1978.125,1955.625 C1978.125,1966.875,1978.125,1989.375,1978.125,2000.625" close="False" data-weight="0.0" stroke-width="6" fill="none" stroke="#984ea3" />
<path d="M1978.125,1880.625 C1978.125,1891.875,1978.125,1914.375,1978.125,1925.625" close="False" data-weight="0.0" stroke-width="6" fill="none" stroke="#984ea3" />
<path d="M1978.125,1805.625 C1978.125,1816.875,1978.125,1839.375,1978.125,1850.625" close="False" data-weight="0.0" stroke-width="6" fill="none" stroke="#984ea3" />
<path d="M1978.125,1730.625 C1978.125,1741.875,1978.125,1764.375,1978.125,1775.625" close="False" data-weight="0.0" stroke-width="6" fill="none" stroke="#984ea3" />
<path d="M1978.125,1655.625 C1978.125,1666.875,1978.125,1689.375,1978.125,1700.625" close="False" data-weight="0.0" stroke-width="6" fill="none" stroke="#984ea3" />
<path d="M1978.125,1580.625 C1978.125,1591.875,1978.125,1614.375,1978.125,1625.625" close="False" data-weight="0.0" stroke-width="6" fill="none" stroke="#984ea3" />
<path d="M1978.125,1505.625 C1978.125,1516.875,1978.125,1539.375,1978.125,1550.625" close="False" data-weight="0.0" stroke-width="6" fill="none" stroke="#984ea3" />
<path d="M1978.125,1430.625 C1978.125,1441.875,1978.125,1464.375,1978.125,1475.625" close="False" data-weight="0.0" stroke-width="6" fill="none" stroke="#984ea3" />
<path d="M1978.125,1355.625 C1978.125,1366.875,1978.125,1389.375,1978.125,1400.625" close="False" data-weight="0.0" stroke-width="6" fill="none" stroke="#984ea3" />
<path d="M1978.125,1280.625 C1978.125,1291.875,1978.125,1314.375,1978.125,1325.625" close="False" data-weight="0.0" stroke-width="6" fill="none" stroke="#984ea3" />
<path d="M1978.125,1205.625 C1978.125,1216.875,1978.125,1239.375,1978.125,1250.625" close="False" data-weight="0.0" stroke-width="6" fill="none" stroke="#984ea3" />
<path d="M1919.0349025766973,2187.2150974233027 C1911.0799512883486,2195.1700487116514,1895.1700487116514,2211.0799512883486,1887.2150974233027,2219.0349025766973" close="False" data-weight="0.0" stroke-width="6" fill="none" stroke="#984ea3" />
<path d="M1919.0349025766973,1212.2150974233027 C1911.0799512883486,1220.1700487116514,1895.1700487116514,1236.0799512883486,1887.2150974233027,1244.0349025766973" close="False" data-weight="0.0" stroke-width="6" fill="none" stroke="#984ea3" />
<path d="M1844.0349025766973,2262.2150974233027 C1836.0799512883486,2270.1700487116514,1820.1700487116514,2286.0799512883486,1812.2150974233027,2294.0349025766973" close="False" data-weight="0.0" stroke-width="6" fill="none" stroke="#984ea3" />
<path d="M1844.0349025766973,1287.2150974233027 A54.3198051533949,54.3198051533949,0,0,1,1826.412289481504,1298.9901510378277 M1826.412289481504,1298.9901510378277 A54.3198051533941,54.3198051533941,0,0,1,1805.625,1303.125 M1805.625,1303.125" close="False" data-weight="1.0" stroke-width="6" fill="none" stroke="#984ea3" />
<path d="M1769.0349025766973,2337.2150974233027 C1761.0799512883486,2345.1700487116514,1745.1700487116514,2361.0799512883486,1737.2150974233027,2369.0349025766973" close="False" data-weight="0.0" stroke-width="6" fill="none" stroke="#984ea3" />
<path d="M1775.625,1303.125 C1764.375,1303.125,1741.875,1303.125,1730.625,1303.125" close="False" data-weight="0.0" stroke-width="6" fill="none" stroke="#984ea3" />
<path d="M1700.625,1303.125 C1689.375,1303.125,1666.875,1303.125,1655.625,1303.125" close="False" data-weight="0.0" stroke-width="6" fill="none" stroke="#984ea3" />
<path d="M1625.625,1303.125 A54.31980515339569,54.31980515339569,0,0,1,1604.837710518496,1298.9901510378277 M1604.837710518496,1298.9901510378277 A54.3198051533933,54.3198051533933,0,0,1,1587.2150974233027,1287.2150974233027 M1587.2150974233027,1287.2150974233027" close="False" data-weight="1.0" stroke-width="6" fill="none" stroke="#984ea3" />
<path d="M1544.0349025766973,1244.0349025766973 C1536.0799512883486,1236.0799512883486,1520.1700487116514,1220.1700487116514,1512.2150974233027,1212.2150974233027" close="False" data-weight="0.0" stroke-width="6" fill="none" stroke="#984ea3" />
<path d="M1469.0349025766973,1169.0349025766973 C1461.0799512883486,1161.0799512883486,1445.1700487116514,1145.1700487116514,1437.2150974233027,1137.2150974233027" close="False" data-weight="0.0" stroke-width="6" fill="none" stroke="#984ea3" />
<path d="M1394.0349025766973,1094.0349025766973 C1386.0799512883486,1086.0799512883486,1370.1700487116514,1070.1700487116514,1362.2150974233027,1062.2150974233027" close="False" data-weight="0.0" stroke-width="6" fill="none" stroke="#984ea3" />
<path d="M1319.0349025766973,1019.0349025766973 C1311.0799512883486,1011.0799512883486,1295.1700487116514,995.1700487116514,1287.2150974233027,987.2150974233027" close="False" data-weight="0.0" stroke-width="6" fill="none" stroke="#984ea3" />
<path d="M1244.0349025766973,944.0349025766973 C1236.0799512883486,936.0799512883486,1220.1700487116514,920.1700487116514,1212.2150974233027,912.2150974233027" close="False" data-weight="0.0" stroke-width="6" fill="none" stroke="#984ea3" />
<path d="M1169.0349025766973,869.0349025766973 C1161.0799512883486,861.0799512883486,1145.1700487116514,845.1700487116514,1137.2150974233027,837.2150974233027" close="False" data-weight="0.0" stroke-width="6" fill="none" stroke="#984ea3" />
<path d="M1094.0349025766973,794.0349025766973 C1086.0799512883486,786.0799512883486,1070.1700487116514,770.1700487116514,1062.2150974233027,762.2150974233027" close="False" data-weight="0.0" stroke-width="6" fill="none" stroke="#984ea3" />
<path d="M1019.0349025766973,719.0349025766973 A54.3198051533949,54.3198051533949,0,0,0,1001.4122894815039,707.2598489621721 M1001.4122894815039,707.2598489621721 A54.31980515339421,54.31980515339421,0,0,0,980.625,703.125 M980.625,703.125" close="False" data-weight="1.0" stroke-width="6" fill="none" stroke="#984ea3" />
<path d="M950.625,703.125 C939.375,703.125,916.875,703.125,905.625,703.125" close="False" data-weight="0.0" stroke-width="6" fill="none" stroke="#984ea3" />
<path d="M875.625,703.125 C864.375,703.125,841.875,703.125,830.625,703.125" close="False" data-weight="0.0" stroke-width="6" fill="none" stroke="#984ea3" />
<path d="M800.625,703.125 C789.375,703.125,766.875,703.125,755.625,703.125" close="False" data-weight="0.0" stroke-width="6" fill="none" stroke="#984ea3" />
<path d="M703.125,1205.625 A54.31980515339285,54.31980515339285,0,0,1,698.9901510378276,1226.412289481504 M698.9901510378276,1226.412289481504 A54.31980515339619,54.31980515339619,0,0,1,687.2150974233027,1244.0349025766973 M687.2150974233027,1244.0349025766973" close="False" data-weight="1.0" stroke-width="6" fill="none" stroke="#984ea3" />
<path d="M703.125,1130.625 C703.125,1141.875,703.125,1164.375,703.125,1175.625" close="False" data-weight="0.0" stroke-width="6" fill="none" stroke="#984ea3" />
<path d="M703.125,1055.625 C703.125,1066.875,703.125,1089.375,703.125,1100.625" close="False" data-weight="0.0" stroke-width="6" fill="none" stroke="#984ea3" />
<path d="M703.125,980.625 C703.125,991.875,703.125,1014.375,703.125,1025.625" close="False" data-weight="0.0" stroke-width="6" fill="none" stroke="#984ea3" />
<path d="M703.125,905.625 C703.125,916.875,703.125,939.375,703.125,950.625" close="False" data-weight="0.0" stroke-width="6" fill="none" stroke="#984ea3" />
<path d="M703.125,830.625 C703.125,841.875,703.125,864.375,703.125,875.625" close="False" data-weight="0.0" stroke-width="6" fill="none" stroke="#984ea3" />
<path d="M703.125,755.625 C703.125,766.875,703.125,789.375,703.125,800.625" close="False" data-weight="0.0" stroke-width="6" fill="none" stroke="#984ea3" />
<path d="M644.0349025766973,1287.2150974233027 C636.0799512883486,1295.1700487116514,620.1700487116514,1311.0799512883486,612.2150974233027,1319.0349025766973" close="False" data-weight="0.0" stroke-width="6" fill="none" stroke="#984ea3" />
<path d="M569.0349025766973,1362.2150974233027 C561.0799512883486,1370.1700487116514,545.1700487116514,1386.0799512883486,537.2150974233027,1394.0349025766973" close="False" data-weight="0.0" stroke-width="6" fill="none" stroke="#984ea3" />
<path d="M494.03490257669733,1437.2150974233027 C486.0799512883487,1445.1700487116514,470.1700487116513,1461.0799512883486,462.21509742330267,1469.0349025766973" close="False" data-weight="0.0" stroke-width="6" fill="none" stroke="#984ea3" />
<path d="M419.03490257669733,1512.2150974233027 C411.0799512883487,1520.1700487116514,395.1700487116513,1536.0799512883486,387.21509742330267,1544.0349025766973" close="False" data-weight="0.0" stroke-width="6" fill="none" stroke="#984ea3" />
<path d="M344.03490257669733,1587.2150974233027 C336.0799512883487,1595.1700487116514,320.1700487116513,1611.0799512883486,312.21509742330267,1619.0349025766973" close="False" data-weight="0.0" stroke-width="6" fill="none" stroke="#984ea3" />
<path d="M269.03490257669733,1662.2150974233027 C261.0799512883487,1670.1700487116514,245.1700487116513,1686.0799512883486,237.21509742330267,1694.0349025766973" close="False" data-weight="0.0" stroke-width="6" fill="none" stroke="#984ea3" />
<path d="M194.0349025766973,1737.2150974233027 C186.07995128834867,1745.1700487116514,170.1700487116513,1761.0799512883486,162.21509742330267,1769.0349025766973" close="False" data-weight="0.0" stroke-width="6" fill="none" stroke="#984ea3" />
<path d="M1978.125,2075.625 L1978.125,2105.625" close="False" data-weight="1.75" stroke-width="6" fill="none" stroke="#984ea3" />
<path d="M1978.125,2000.625 L1978.125,2030.625" close="False" data-weight="1.75" stroke-width="6" fill="none" stroke="#984ea3" />
<path d="M1978.125,1925.625 L1978.125,1955.625" close="False" data-weight="1.75" stroke-width="6" fill="none" stroke="#984ea3" />
<path d="M1978.125,1850.625 L1978.125,1880.625" close="False" data-weight="1.75" stroke-width="6" fill="none" stroke="#984ea3" />
<path d="M1978.125,1775.625 L1978.125,1805.625" close="False" data-weight="1.75" stroke-width="6" fill="none" stroke="#984ea3" />
<path d="M1978.125,1700.625 L1978.125,1730.625" close="False" data-weight="1.75" stroke-width="6" fill="none" stroke="#984ea3" />
<path d="M1978.125,1625.625 L1978.125,1655.625" close="False" data-weight="1.75" stroke-width="6" fill="none" stroke="#984ea3" />
<path d="M1978.125,1550.625 L1978.125,1580.625" close="False" data-weight="1.75" stroke-width="6" fill="none" stroke="#984ea3" />
<path d="M1978.125,1475.625 L1978.125,1505.625" close="False" data-weight="1.75" stroke-width="6" fill="none" stroke="#984ea3" />
<path d="M1978.125,1400.625 L1978.125,1430.625" close="False" data-weight="1.75" stroke-width="6" fill="none" stroke="#984ea3" />
<path d="M1978.125,1325.625 L1978.125,1355.625" close="False" data-weight="1.75" stroke-width="6" fill="none" stroke="#984ea3" />
<path d="M1978.125,1250.625 L1978.125,1280.625" close="False" data-weight="1.75" stroke-width="6" fill="none" stroke="#984ea3" />
<path d="M1978.125,1175.625 L1978.125,1205.625" close="False" data-weight="1.75" stroke-width="6" fill="none" stroke="#984ea3" />
<path d="M1919.0349025766973,2187.2150974233027 L1962.2150974233027,2144.0349025766973" close="False" data-weight="2.060660171779821" stroke-width="6" fill="none" stroke="#984ea3" />
<path d="M1919.0349025766973,1212.2150974233027 L1962.2150974233027,1169.0349025766973" close="False" data-weight="2.060660171779821" stroke-width="6" fill="none" stroke="#984ea3" />
<path d="M1844.0349025766973,2262.2150974233027 L1887.2150974233027,2219.0349025766973" close="False" data-weight="2.060660171779821" stroke-width="6" fill="none" stroke="#984ea3" />
<path d="M1844.0349025766973,1287.2150974233027 L1887.2150974233027,1244.0349025766973" close="False" data-weight="2.060660171779821" stroke-width="6" fill="none" stroke="#984ea3" />
<path d="M1769.0349025766973,2337.2150974233027 L1812.2150974233027,2294.0349025766973" close="False" data-weight="2.060660171779821" stroke-width="6" fill="none" stroke="#984ea3" />
<path d="M1775.625,1303.125 L1805.625,1303.125" close="False" data-weight="1.75" stroke-width="6" fill="none" stroke="#984ea3" />
<path d="M1694.0349025766973,2412.2150974233027 L1737.2150974233027,2369.0349025766973" close="False" data-weight="2.060660171779821" stroke-width="6" fill="none" stroke="#984ea3" />
<path d="M1700.625,1303.125 L1730.625,1303.125" close="False" data-weight="1.75" stroke-width="6" fill="none" stroke="#984ea3" />
<path d="M1625.625,1303.125 L1655.625,1303.125" close="False" data-weight="1.75" stroke-width="6" fill="none" stroke="#984ea3" />
<path d="M1544.0349025766973,1244.0349025766973 L1587.2150974233027,1287.2150974233027" close="False" data-weight="2.060660171779821" stroke-width="6" fill="none" stroke="#984ea3" />
<path d="M1469.0349025766973,1169.0349025766973 L1512.2150974233027,1212.2150974233027" close="False" data-weight="2.060660171779821" stroke-width="6" fill="none" stroke="#984ea3" />
<path d="M1394.0349025766973,1094.0349025766973 L1437.2150974233027,1137.2150974233027" close="False" data-weight="2.060660171779821" stroke-width="6" fill="none" stroke="#984ea3" />
<path d="M1319.0349025766973,1019.0349025766973 L1362.2150974233027,1062.2150974233027" close="False" data-weight="2.060660171779821" stroke-width="6" fill="none" stroke="#984ea3" />
<path d="M1244.0349025766973,944.0349025766973 L1287.2150974233027,987.2150974233027" close="False" data-weight="2.060660171779821" stroke-width="6" fill="none" stroke="#984ea3" />
<path d="M1169.0349025766973,869.0349025766973 L1212.2150974233027,912.2150974233027" close="False" data-weight="2.060660171779821" stroke-width="6" fill="none" stroke="#984ea3" />
<path d="M1094.0349025766973,794.0349025766973 L1137.2150974233027,837.2150974233027" close="False" data-weight="2.060660171779821" stroke-width="6" fill="none" stroke="#984ea3" />
<path d="M1019.0349025766973,719.0349025766973 L1062.2150974233027,762.2150974233027" close="False" data-weight="2.060660171779821" stroke-width="6" fill="none" stroke="#984ea3" />
<path d="M950.625,703.125 L980.625,703.125" close="False" data-weight="1.75" stroke-width="6" fill="none" stroke="#984ea3" />
<path d="M875.625,703.125 L905.625,703.125" close="False" data-weight="1.75" stroke-width="6" fill="none" stroke="#984ea3" />
<path d="M800.625,703.125 L830.625,703.125" close="False" data-weight="1.75" stroke-width="6" fill="none" stroke="#984ea3" />
<path d="M703.125,1175.625 L703.125,1205.625" close="False" data-weight="1.75" stroke-width="6" fill="none" stroke="#984ea3" />
<path d="M703.125,1100.625 L703.125,1130.625" close="False" data-weight="1.75" stroke-width="6" fill="none" stroke="#984ea3" />
<path d="M703.125,1025.625 L703.125,1055.625" close="False" data-weight="1.75" stroke-width="6" fill="none" stroke="#984ea3" />
<path d="M703.125,950.625 L703.125,980.625" close="False" data-weight="1.75" stroke-width="6" fill="none" stroke="#984ea3" />
<path d="M703.125,875.625 L703.125,905.625" close="False" data-weight="1.75" stroke-width="6" fill="none" stroke="#984ea3" />
<path d="M703.125,800.625 L703.125,830.625" close="False" data-weight="1.75" stroke-width="6" fill="none" stroke="#984ea3" />
<path d="M703.125,725.625 L703.125,755.625" close="False" data-weight="1.75" stroke-width="6" fill="none" stroke="#984ea3" />
<path d="M725.625,703.125 L755.625,703.125" close="False" data-weight="1.75" stroke-width="6" fill="none" stroke="#984ea3" />
<path d="M644.0349025766973,1287.2150974233027 L687.2150974233027,1244.0349025766973" close="False" data-weight="2.060660171779821" stroke-width="6" fill="none" stroke="#984ea3" />
<path d="M569.0349025766973,1362.2150974233027 L612.2150974233027,1319.0349025766973" close="False" data-weight="2.060660171779821" stroke-width="6" fill="none" stroke="#984ea3" />
<path d="M494.03490257669733,1437.2150974233027 L537.2150974233027,1394.0349025766973" close="False" data-weight="2.060660171779821" stroke-width="6" fill="none" stroke="#984ea3" />
<path d="M419.03490257669733,1512.2150974233027 L462.21509742330267,1469.0349025766973" close="False" data-weight="2.060660171779821" stroke-width="6" fill="none" stroke="#984ea3" />
<path d="M344.03490257669733,1587.2150974233027 L387.21509742330267,1544.0349025766973" close="False" data-weight="2.060660171779821" stroke-width="6" fill="none" stroke="#984ea3" />
<path d="M269.03490257669733,1662.2150974233027 L312.21509742330267,1619.0349025766973" close="False" data-weight="2.060660171779821" stroke-width="6" fill="none" stroke="#984ea3" />
<path d="M194.03490257669733,1737.2150974233027 L237.2150974233027,1694.0349025766973" close="False" data-weight="2.060660171779821" stroke-width="6" fill="none" stroke="#984ea3" />
<path d="M119.03490257669732,1812.2150974233027 L162.2150974233027,1769.0349025766973" close="False" data-weight="2.060660171779821" stroke-width="6" fill="none" stroke="#984ea3" />
<path d="M2369.0349025766973,1212.2150974233027 C2361.0799512883486,1220.1700487116514,2345.1700487116514,1236.0799512883486,2337.2150974233027,1244.0349025766973" close="False" data-weight="0.0" stroke-width="6" fill="none" stroke="#ff7f00" />
<path d="M2294.0349025766973,1287.2150974233027 C2286.0799512883486,1295.1700487116514,2270.1700487116514,1311.0799512883486,2262.2150974233027,1319.0349025766973" close="False" data-weight="0.0" stroke-width="6" fill="none" stroke="#ff7f00" />
<path d="M2219.0349025766973,1362.2150974233027 C2211.0799512883486,1370.1700487116514,2195.1700487116514,1386.0799512883486,2187.2150974233027,1394.0349025766973" close="False" data-weight="0.0" stroke-width="6" fill="none" stroke="#ff7f00" />
<path d="M2144.0349025766973,1437.2150974233027 C2136.0799512883486,1445.1700487116514,2120.1700487116514,1461.0799512883486,2112.2150974233027,1469.0349025766973" close="False" data-weight="0.0" stroke-width="6" fill="none" stroke="#ff7f00" />
<path d="M2069.0349025766973,1512.2150974233027 C2061.0799512883486,1520.1700487116514,2045.1700487116514,1536.0799512883486,2037.2150974233027,1544.0349025766973" close="False" data-weight="0.0" stroke-width="6" fill="none" stroke="#ff7f00" />
<path d="M1994.0349025766973,1587.2150974233027 C1986.0799512883486,1595.1700487116514,1970.1700487116514,1611.0799512883486,1962.2150974233027,1619.0349025766973" close="False" data-weight="0.0" stroke-width="6" fill="none" stroke="#ff7f00" />
<path d="M1919.0349025766973,1662.2150974233027 C1911.0799512883486,1670.1700487116514,1895.1700487116514,1686.0799512883486,1887.2150974233027,1694.0349025766973" close="False" data-weight="0.0" stroke-width="6" fill="none" stroke="#ff7f00" />
<path d="M1844.0349025766973,1737.2150974233027 C1836.0799512883486,1745.1700487116514,1820.1700487116514,1761.0799512883486,1812.2150974233027,1769.0349025766973" close="False" data-weight="0.0" stroke-width="6" fill="none" stroke="#ff7f00" />
<path d="M1769.0349025766973,1812.2150974233027 C1761.0799512883486,1820.1700487116514,1745.1700487116514,1836.0799512883486,1737.2150974233027,1844.0349025766973" close="False" data-weight="0.0" stroke-width="6" fill="none" stroke="#ff7f00" />
<path d="M1678.125,2330.625 C1678.125,2341.875,1678.125,2364.375,1678.125,2375.625" close="False" data-weight="0.0" stroke-width="6" fill="none" stroke="#ff7f00" />
<path d="M1678.125,2255.625 C1678.125,2266.875,1678.125,2289.375,1678.125,2300.625" close="False" data-weight="0.0" stroke-width="6" fill="none" stroke="#ff7f00" />
<path d="M1678.125,2180.625 C1678.125,2191.875,1678.125,2214.375,1678.125,2225.625" close="False" data-weight="0.0" stroke-width="6" fill="none" stroke="#ff7f00" />
<path d="M1678.125,2105.625 C1678.125,2116.875,1678.125,2139.375,1678.125,2150.625" close="False" data-weight="0.0" stroke-width="6" fill="none" stroke="#ff7f00" />
<path d="M1678.125,2030.625 C1678.125,2041.875,1678.125,2064.375,1678.125,2075.625" close="False" data-weight="0.0" stroke-width="6" fill="none" stroke="#ff7f00" />
<path d="M1678.125,1955.625 C1678.125,1966.875,1678.125,1989.375,1678.125,2000.625" close="False" data-weight="0.0" stroke-width="6" fill="none" stroke="#ff7f00" />
<path d="M1694.0349025766973,1887.2150974233027 A54.3198051533949,54.3198051533949,0,0,0,1682.2598489621723,1904.837710518496 M1682.2598489621723,1904.837710518496 A54.3198051533941,54.3198051533941,0,0,0,1678.125,1925.625 M1678.125,1925.625" close="False" data-weight="1.0" stroke-width="6" fill="none" stroke="#ff7f00" />
<path d="M1619.0349025766973,2369.0349025766973 C1611.0799512883486,2361.0799512883486,1595.1700487116514,2345.1700487116514,1587.2150974233027,2337.2150974233027" close="False" data-weight="0.0" stroke-width="6" fill="none" stroke="#ff7f00" />
<path d="M1544.0349025766973,2294.0349025766973 C1536.0799512883486,2286.0799512883486,1520.1700487116514,2270.1700487116514,1512.2150974233027,2262.2150974233027" close="False" data-weight="0.0" stroke-width="6" fill="none" stroke="#ff7f00" />
<path d="M1469.0349025766973,2219.0349025766973 C1461.0799512883486,2211.0799512883486,1445.1700487116514,2195.1700487116514,1437.2150974233027,2187.2150974233027" close="False" data-weight="0.0" stroke-width="6" fill="none" stroke="#ff7f00" />
<path d="M1394.0349025766973,2144.0349025766973 C1386.0799512883486,2136.0799512883486,1370.1700487116514,2120.1700487116514,1362.2150974233027,2112.2150974233027" close="False" data-weight="0.0" stroke-width="6" fill="none" stroke="#ff7f00" />
<path d="M1319.0349025766973,2069.0349025766973 A54.319805153391044,54.319805153391044,0,0,0,1301.4122894815043,2057.259848962172 M1301.4122894815043,2057.259848962172 A54.3198051533941,54.3198051533941,0,0,0,1280.625,2053.125 M1280.625,2053.125" close="False" data-weight="1.0" stroke-width="6" fill="none" stroke="#ff7f00" />
<path d="M1250.625,2053.125 C1239.375,2053.125,1216.875,2053.125,1205.625,2053.125" close="False" data-weight="0.0" stroke-width="6" fill="none" stroke="#ff7f00" />
<path d="M1175.625,2053.125 C1164.375,2053.125,1141.875,2053.125,1130.625,2053.125" close="False" data-weight="0.0" stroke-width="6" fill="none" stroke="#ff7f00" />
<path d="M1100.625,2053.125 C1089.375,2053.125,1066.875,2053.125,1055.625,2053.125" close="False" data-weight="0.0" stroke-width="6" fill="none" stroke="#ff7f00" />
<path d="M1025.625,2053.125 C1014.375,2053.125,991.875,2053.125,980.625,2053.125" close="False" data-weight="0.0" stroke-width="6" fill="none" stroke="#ff7f00" />
<path d="M950.625,2053.125 C939.375,2053.125,916.875,2053.125,905.625,2053.125" close="False" data-weight="0.0" stroke-width="6" fill="none" stroke="#ff7f00" />
<path d="M875.625,2053.125 C864.375,2053.125,841.875,2053.125,830.625,2053.125" close="False" data-weight="0.0" stroke-width="6" fill="none" stroke="#ff7f00" />
<path d="M800.625,2053.125 C789.375,2053.125,766.875,2053.125,755.625,2053.125" close="False" data-weight="0.0" stroke-width="6" fill="none" stroke="#ff7f00" />
<path d="M725.625,2053.125 C714.375,2053.125,691.875,2053.125,680.625,2053.125" close="False" data-weight="0.0" stroke-width="6" fill="none" stroke="#ff7f00" />
<path d="M719.0349025766973,1287.2150974233027 C711.0799512883486,1295.1700487116514,695.1700487116514,1311.0799512883486,687.2150974233027,1319.0349025766973" close="False" data-weight="0.0" stroke-width="6" fill="none" stroke="#ff7f00" />
<path d="M650.625,2053.125 C639.375,2053.125,616.875,2053.125,605.625,2053.125" close="False" data-weight="0.0" stroke-width="6" fill="none" stroke="#ff7f00" />
<path d="M644.0349025766973,1362.2150974233027 C636.0799512883486,1370.1700487116514,620.1700487116514,1386.0799512883486,612.2150974233027,1394.0349025766973" close="False" data-weight="0.0" stroke-width="6" fill="none" stroke="#ff7f00" />
<path d="M575.625,2053.125 C564.375,2053.125,541.875,2053.125,530.625,2053.125" close="False" data-weight="0.0" stroke-width="6" fill="none" stroke="#ff7f00" />
<path d="M569.0349025766973,1437.2150974233027 C561.0799512883486,1445.1700487116514,545.1700487116514,1461.0799512883486,537.2150974233027,1469.0349025766973" close="False" data-weight="0.0" stroke-width="6" fill="none" stroke="#ff7f00" />
<path d="M500.625,2053.125 C489.375,2053.125,466.875,2053.125,455.625,2053.125" close="False" data-weight="0.0" stroke-width="6" fill="none" stroke="#ff7f00" />
<path d="M494.03490257669733,1512.2150974233027 C486.0799512883487,1520.1700487116514,470.1700487116513,1536.0799512883486,462.21509742330267,1544.0349025766973" close="False" data-weight="0.0" stroke-width="6" fill="none" stroke="#ff7f00" />
<path d="M425.625,2053.125 C414.375,2053.125,391.875,2053.125,380.625,2053.125" close="False" data-weight="0.0" stroke-width="6" fill="none" stroke="#ff7f00" />
<path d="M419.03490257669733,1587.2150974233027 C411.0799512883487,1595.1700487116514,395.1700487116513,1611.0799512883486,387.21509742330267,1619.0349025766973" close="False" data-weight="0.0" stroke-width="6" fill="none" stroke="#ff7f00" />
<path d="M350.625,2053.125 C339.375,2053.125,316.875,2053.125,305.625,2053.125" close="False" data-weight="0.0" stroke-width="6" fill="none" stroke="#ff7f00" />
<path d="M344.03490257669733,1662.2150974233027 C336.0799512883487,1670.1700487116514,320.1700487116513,1686.0799512883486,312.21509742330267,1694.0349025766973" close="False" data-weight="0.0" stroke-width="6" fill="none" stroke="#ff7f00" />
<path d="M253.125,1955.625 C253.125,1966.875,253.125,1989.375,253.125,2000.625" close="False" data-weight="0.0" stroke-width="6" fill="none" stroke="#ff7f00" />
<path d="M253.125,1880.625 C253.125,1891.875,253.125,1914.375,253.125,1925.625" close="False" data-weight="0.0" stroke-width="6" fill="none" stroke="#ff7f00" />
<path d="M253.125,1805.625 C253.125,1816.875,253.125,1839.375,253.125,1850.625" close="False" data-weight="0.0" stroke-width="6" fill="none" stroke="#ff7f00" />
<path d="M269.03490257669733,1737.2150974233027 A54.31980515339522,54.31980515339522,0,0,0,257.25984896217227,1754.837710518496 M257.25984896217227,1754.837710518496 A54.319805153393986,54.319805153393986,0,0,0,253.125,1775.625 M253.125,1775.625" close="False" data-weight="1.0" stroke-width="6" fill="none" stroke="#ff7f00" />
<path d="M2369.0349025766973,1212.2150974233027 L2412.2150974233027,1169.0349025766973" close="False" data-weight="2.060660171779821" stroke-width="6" fill="none" stroke="#ff7f00" />
<path d="M2294.0349025766973,1287.2150974233027 L2337.2150974233027,1244.0349025766973" close="False" data-weight="2.060660171779821" stroke-width="6" fill="none" stroke="#ff7f00" />
<path d="M2219.0349025766973,1362.2150974233027 L2262.2150974233027,1319.0349025766973" close="False" data-weight="2.060660171779821" stroke-width="6" fill="none" stroke="#ff7f00" />
<path d="M2144.0349025766973,1437.2150974233027 L2187.2150974233027,1394.0349025766973" close="False" data-weight="2.060660171779821" stroke-width="6" fill="none" stroke="#ff7f00" />
<path d="M2069.0349025766973,1512.2150974233027 L2112.2150974233027,1469.0349025766973" close="False" data-weight="2.060660171779821" stroke-width="6" fill="none" stroke="#ff7f00" />
<path d="M1994.0349025766973,1587.2150974233027 L2037.2150974233027,1544.0349025766973" close="False" data-weight="2.060660171779821" stroke-width="6" fill="none" stroke="#ff7f00" />
<path d="M1919.0349025766973,1662.2150974233027 L1962.2150974233027,1619.0349025766973" close="False" data-weight="2.060660171779821" stroke-width="6" fill="none" stroke="#ff7f00" />
<path d="M1844.0349025766973,1737.2150974233027 L1887.2150974233027,1694.0349025766973" close="False" data-weight="2.060660171779821" stroke-width="6" fill="none" stroke="#ff7f00" />
<path d="M1769.0349025766973,1812.2150974233027 L1812.2150974233027,1769.0349025766973" close="False" data-weight="2.060660171779821" stroke-width="6" fill="none" stroke="#ff7f00" />
<path d="M1678.125,2375.625 L1678.125,2405.625" close="False" data-weight="1.75" stroke-width="6" fill="none" stroke="#ff7f00" />
<path d="M1678.125,2300.625 L1678.125,2330.625" close="False" data-weight="1.75" stroke-width="6" fill="none" stroke="#ff7f00" />
<path d="M1678.125,2225.625 L1678.125,2255.625" close="False" data-weight="1.75" stroke-width="6" fill="none" stroke="#ff7f00" />
<path d="M1678.125,2150.625 L1678.125,2180.625" close="False" data-weight="1.75" stroke-width="6" fill="none" stroke="#ff7f00" />
<path d="M1678.125,2075.625 L1678.125,2105.625" close="False" data-weight="1.75" stroke-width="6" fill="none" stroke="#ff7f00" />
<path d="M1678.125,2000.625 L1678.125,2030.625" close="False" data-weight="1.75" stroke-width="6" fill="none" stroke="#ff7f00" />
<path d="M1678.125,1925.625 L1678.125,1955.625" close="False" data-weight="1.75" stroke-width="6" fill="none" stroke="#ff7f00" />
<path d="M1694.0349025766973,1887.2150974233027 L1737.2150974233027,1844.0349025766973" close="False" data-weight="2.060660171779821" stroke-width="6" fill="none" stroke="#ff7f00" />
<path d="M1619.0349025766973,2369.0349025766973 L1662.2150974233027,2412.2150974233027" close="False" data-weight="2.060660171779821" stroke-width="6" fill="none" stroke="#ff7f00" />
<path d="M1544.0349025766973,2294.0349025766973 L1587.2150974233027,2337.2150974233027" close="False" data-weight="2.060660171779821" stroke-width="6" fill="none" stroke="#ff7f00" />
<path d="M1469.0349025766973,2219.0349025766973 L1512.2150974233027,2262.2150974233027" close="False" data-weight="2.060660171779821" stroke-width="6" fill="none" stroke="#ff7f00" />
<path d="M1394.0349025766973,2144.0349025766973 L1437.2150974233027,2187.2150974233027" close="False" data-weight="2.060660171779821" stroke-width="6" fill="none" stroke="#ff7f00" />
<path d="M1319.0349025766973,2069.0349025766973 L1362.2150974233027,2112.2150974233027" close="False" data-weight="2.060660171779821" stroke-width="6" fill="none" stroke="#ff7f00" />
<path d="M1250.625,2053.125 L1280.625,2053.125" close="False" data-weight="1.75" stroke-width="6" fill="none" stroke="#ff7f00" />
<path d="M1175.625,2053.125 L1205.625,2053.125" close="False" data-weight="1.75" stroke-width="6" fill="none" stroke="#ff7f00" />
<path d="M1100.625,2053.125 L1130.625,2053.125" close="False" data-weight="1.75" stroke-width="6" fill="none" stroke="#ff7f00" />
<path d="M1025.625,2053.125 L1055.625,2053.125" close="False" data-weight="1.75" stroke-width="6" fill="none" stroke="#ff7f00" />
<path d="M950.625,2053.125 L980.625,2053.125" close="False" data-weight="1.75" stroke-width="6" fill="none" stroke="#ff7f00" />
<path d="M875.625,2053.125 L905.625,2053.125" close="False" data-weight="1.75" stroke-width="6" fill="none" stroke="#ff7f00" />
<path d="M800.625,2053.125 L830.625,2053.125" close="False" data-weight="1.75" stroke-width="6" fill="none" stroke="#ff7f00" />
<path d="M725.625,2053.125 L755.625,2053.125" close="False" data-weight="1.75" stroke-width="6" fill="none" stroke="#ff7f00" />
<path d="M719.0349025766973,1287.2150974233027 L762.2150974233027,1244.0349025766973" close="False" data-weight="2.060660171779821" stroke-width="6" fill="none" stroke="#ff7f00" />
<path d="M650.625,2053.125 L680.625,2053.125" close="False" data-weight="1.75" stroke-width="6" fill="none" stroke="#ff7f00" />
<path d="M644.0349025766973,1362.2150974233027 L687.2150974233027,1319.0349025766973" close="False" data-weight="2.060660171779821" stroke-width="6" fill="none" stroke="#ff7f00" />
<path d="M575.625,2053.125 L605.625,2053.125" close="False" data-weight="1.75" stroke-width="6" fill="none" stroke="#ff7f00" />
<path d="M569.0349025766973,1437.2150974233027 L612.2150974233027,1394.0349025766973" close="False" data-weight="2.060660171779821" stroke-width="6" fill="none" stroke="#ff7f00" />
<path d="M500.625,2053.125 L530.625,2053.125" close="False" data-weight="1.75" stroke-width="6" fill="none" stroke="#ff7f00" />
<path d="M494.03490257669733,1512.2150974233027 L537.2150974233027,1469.0349025766973" close="False" data-weight="2.060660171779821" stroke-width="6" fill="none" stroke="#ff7f00" />
<path d="M425.625,2053.125 L455.625,2053.125" close="False" data-weight="1.75" stroke-width="6" fill="none" stroke="#ff7f00" />
<path d="M419.03490257669733,1587.2150974233027 L462.21509742330267,1544.0349025766973" close="False" data-weight="2.060660171779821" stroke-width="6" fill="none" stroke="#ff7f00" />
<path d="M350.625,2053.125 L380.625,2053.125" close="False" data-weight="1.75" stroke-width="6" fill="none" stroke="#ff7f00" />
<path d="M344.03490257669733,1662.2150974233027 L387.21509742330267,1619.0349025766973" close="False" data-weight="2.060660171779821" stroke-width="6" fill="none" stroke="#ff7f00" />
<path d="M275.625,2053.125 L305.625,2053.125" close="False" data-weight="1.75" stroke-width="6" fill="none" stroke="#ff7f00" />
<path d="M253.125,2000.625 L253.125,2030.625" close="False" data-weight="1.75" stroke-width="6" fill="none" stroke="#ff7f00" />
<path d="M253.125,1925.625 L253.125,1955.625" close="False" data-weight="1.75" stroke-width="6" fill="none" stroke="#ff7f00" />
<path d="M253.125,1850.625 L253.125,1880.625" close="False" data-weight="1.75" stroke-width="6" fill="none" stroke="#ff7f00" />
<path d="M253.125,1775.625 L253.125,1805.625" close="False" data-weight="1.75" stroke-width="6" fill="none" stroke="#ff7f00" />
<path d="M269.03490257669733,1737.2150974233027 L312.21509742330267,1694.0349025766973" close="False" data-weight="2.060660171779821" stroke-width="6" fill="none" stroke="#ff7f00" />
<path d="M2369.0349025766973,1094.0349025766973 C2361.0799512883486,1086.0799512883486,2345.1700487116514,1070.1700487116514,2337.2150974233027,1062.2150974233027" close="False" data-weight="0.0" stroke-width="6" fill="none" stroke="#4daf4a" />
<path d="M2294.0349025766973,1019.0349025766973 C2286.0799512883486,1011.0799512883486,2270.1700487116514,995.1700487116514,2262.2150974233027,987.2150974233027" close="False" data-weight="0.0" stroke-width="6" fill="none" stroke="#4daf4a" />
<path d="M2219.0349025766973,944.0349025766973 C2211.0799512883486,936.0799512883486,2195.1700487116514,920.1700487116514,2187.2150974233027,912.2150974233027" close="False" data-weight="0.0" stroke-width="6" fill="none" stroke="#4daf4a" />
<path d="M2144.0349025766973,869.0349025766973 C2136.0799512883486,861.0799512883486,2120.1700487116514,845.1700487116514,2112.2150974233027,837.2150974233027" close="False" data-weight="0.0" stroke-width="6" fill="none" stroke="#4daf4a" />
<path d="M2069.0349025766973,794.0349025766973 C2061.0799512883486,786.0799512883486,2045.1700487116514,770.1700487116514,2037.2150974233027,762.2150974233027" close="False" data-weight="0.0" stroke-width="6" fill="none" stroke="#4daf4a" />
<path d="M1994.0349025766973,719.0349025766973 C1986.0799512883486,711.0799512883486,1970.1700487116514,695.1700487116514,1962.2150974233027,687.2150974233027" close="False" data-weight="0.0" stroke-width="6" fill="none" stroke="#4daf4a" />
<path d="M1919.0349025766973,644.0349025766973 C1911.0799512883486,636.0799512883486,1895.1700487116514,620.1700487116514,1887.2150974233027,612.2150974233027" close="False" data-weight="0.0" stroke-width="6" fill="none" stroke="#4daf4a" />
<path d="M1844.0349025766973,569.0349025766973 A54.31980515339514,54.31980515339514,0,0,0,1826.412289481504,557.2598489621722 M1826.412289481504,557.2598489621722 A54.319805153393986,54.319805153393986,0,0,0,1805.625,553.125 M1805.625,553.125" close="False" data-weight="1.0" stroke-width="6" fill="none" stroke="#4daf4a" />
<path d="M1775.625,553.125 C1764.375,553.125,1741.875,553.125,1730.625,553.125" close="False" data-weight="0.0" stroke-width="6" fill="none" stroke="#4daf4a" />
<path d="M1700.625,553.125 C1689.375,553.125,1666.875,553.125,1655.625,553.125" close="False" data-weight="0.0" stroke-width="6" fill="none" stroke="#4daf4a" />
<path d="M1625.625,553.125 C1614.375,553.125,1591.875,553.125,1580.625,553.125" close="False" data-weight="0.0" stroke-width="6" fill="none" stroke="#4daf4a" />
<path d="M1550.625,553.125 C1539.375,553.125,1516.875,553.125,1505.625,553.125" close="False" data-weight="0.0" stroke-width="6" fill="none" stroke="#4daf4a" />
<path d="M1475.625,553.125 C1464.375,553.125,1441.875,553.125,1430.625,553.125" close="False" data-weight="0.0" stroke-width="6" fill="none" stroke="#4daf4a" />
<path d="M1250.2665898254845,624.125 C1239.0614806611713,624.125,1216.8301091643132,628.125,1205.625,628.125" close="False" data-weight="0.0" stroke-width="6" fill="none" stroke="#4daf4a" />
<path d="M1175.625,628.125 C1164.375,628.125,1141.875,628.125,1130.625,628.125" close="False" data-weight="0.0" stroke-width="6" fill="none" stroke="#4daf4a" />
<path d="M1100.625,628.125 C1089.375,628.125,1066.875,628.125,1055.625,628.125" close="False" data-weight="0.0" stroke-width="6" fill="none" stroke="#4daf4a" />
<path d="M1025.625,628.125 C1014.375,628.125,991.875,628.125,980.625,628.125" close="False" data-weight="0.0" stroke-width="6" fill="none" stroke="#4daf4a" />
<path d="M950.625,628.125 C939.375,628.125,916.875,628.125,905.625,628.125" close="False" data-weight="0.0" stroke-width="6" fill="none" stroke="#4daf4a" />
<path d="M875.625,628.125 C864.375,628.125,841.875,628.125,830.625,628.125" close="False" data-weight="0.0" stroke-width="6" fill="none" stroke="#4daf4a" />
<path d="M800.625,628.125 A54.31980515339478,54.31980515339478,0,0,0,779.8377105184961,632.2598489621722 M779.8377105184961,632.2598489621722 A54.319805153394256,54.319805153394256,0,0,0,762.2150974233027,644.0349025766973 M762.2150974233027,644.0349025766973" close="False" data-weight="1.0" stroke-width="6" fill="none" stroke="#4daf4a" />
<path d="M703.125,605.625 C703.125,616.875,703.125,639.375,703.125,650.625" close="False" data-weight="0.0" stroke-width="6" fill="none" stroke="#4daf4a" />
<path d="M703.125,530.625 C703.125,541.875,703.125,564.375,703.125,575.625" close="False" data-weight="0.0" stroke-width="6" fill="none" stroke="#4daf4a" />
<path d="M703.125,455.625 C703.125,466.875,703.125,489.375,703.125,500.625" close="False" data-weight="0.0" stroke-width="6" fill="none" stroke="#4daf4a" />
<path d="M703.125,380.625 C703.125,391.875,703.125,414.375,703.125,425.625" close="False" data-weight="0.0" stroke-width="6" fill="none" stroke="#4daf4a" />
<path d="M703.125,305.625 C703.125,316.875,703.125,339.375,703.125,350.625" close="False" data-weight="0.0" stroke-width="6" fill="none" stroke="#4daf4a" />
<path d="M703.125,230.625 C703.125,241.875,703.125,264.375,703.125,275.625" close="False" data-weight="0.0" stroke-width="6" fill="none" stroke="#4daf4a" />
<path d="M650.2665898254845,699.125 C639.1957949127423,699.125,617.0542050872577,699.125,605.9834101745155,699.125" close="False" data-weight="0.0" stroke-width="6" fill="none" stroke="#4daf4a" />
<path d="M575.2665898254845,699.125 C564.1957949127423,699.125,542.0542050872577,699.125,530.9834101745155,699.125" close="False" data-weight="0.0" stroke-width="6" fill="none" stroke="#4daf4a" />
<path d="M500.2665898254845,699.125 C489.19579491274226,699.125,467.05420508725774,699.125,455.9834101745155,699.125" close="False" data-weight="0.0" stroke-width="6" fill="none" stroke="#4daf4a" />
<path d="M425.2665898254845,699.125 A49.454526449193395,49.454526449193395,0,0,1,406.34116189792167,695.3604983272564 M406.34116189792167,695.3604983272564 A49.454526449166565,49.454526449166565,0,0,1,390.29695881289877,684.6401045634063 M390.29695881289877,684.6401045634063" close="False" data-weight="1.0" stroke-width="6" fill="none" stroke="#4daf4a" />
<path d="M2369.0349025766973,1094.0349025766973 L2412.2150974233027,1137.2150974233027" close="False" data-weight="2.060660171779821" stroke-width="6" fill="none" stroke="#4daf4a" />
<path d="M2294.0349025766973,1019.0349025766973 L2337.2150974233027,1062.2150974233027" close="False" data-weight="2.060660171779821" stroke-width="6" fill="none" stroke="#4daf4a" />
<path d="M2219.0349025766973,944.0349025766973 L2262.2150974233027,987.2150974233027" close="False" data-weight="2.060660171779821" stroke-width="6" fill="none" stroke="#4daf4a" />
<path d="M2144.0349025766973,869.0349025766973 L2187.2150974233027,912.2150974233027" close="False" data-weight="2.060660171779821" stroke-width="6" fill="none" stroke="#4daf4a" />
<path d="M2069.0349025766973,794.0349025766973 L2112.2150974233027,837.2150974233027" close="False" data-weight="2.060660171779821" stroke-width="6" fill="none" stroke="#4daf4a" />
<path d="M1994.0349025766973,719.0349025766973 L2037.2150974233027,762.2150974233027" close="False" data-weight="2.060660171779821" stroke-width="6" fill="none" stroke="#4daf4a" />
<path d="M1919.0349025766973,644.0349025766973 L1962.2150974233027,687.2150974233027" close="False" data-weight="2.060660171779821" stroke-width="6" fill="none" stroke="#4daf4a" />
<path d="M1844.0349025766973,569.0349025766973 L1887.2150974233027,612.2150974233027" close="False" data-weight="2.060660171779821" stroke-width="6" fill="none" stroke="#4daf4a" />
<path d="M1775.625,553.125 L1805.625,553.125" close="False" data-weight="1.75" stroke-width="6" fill="none" stroke="#4daf4a" />
<path d="M1700.625,553.125 L1730.625,553.125" close="False" data-weight="1.75" stroke-width="6" fill="none" stroke="#4daf4a" />
<path d="M1625.625,553.125 L1655.625,553.125" close="False" data-weight="1.75" stroke-width="6" fill="none" stroke="#4daf4a" />
<path d="M1550.625,553.125 L1580.625,553.125" close="False" data-weight="1.75" stroke-width="6" fill="none" stroke="#4daf4a" />
<path d="M1475.625,553.125 L1505.625,553.125" close="False" data-weight="1.75" stroke-width="6" fill="none" stroke="#4daf4a" />
<path d="M1400.625,553.125 L1430.625,553.125" close="False" data-weight="1.75" stroke-width="6" fill="none" stroke="#4daf4a" />
<path d="M1299.125,575.2665898254845 L1299.125,605.9834101745155" close="False" data-weight="1.75" stroke-width="6" fill="none" stroke="#4daf4a" />
<path d="M1325.2665898254845,549.125 L1355.9834101745155,549.125" close="False" data-weight="1.75" stroke-width="6" fill="none" stroke="#4daf4a" />
<path d="M1250.2665898254845,624.125 L1280.9834101745155,624.125" close="False" data-weight="1.75" stroke-width="6" fill="none" stroke="#4daf4a" />
<path d="M1175.625,628.125 L1205.625,628.125" close="False" data-weight="1.75" stroke-width="6" fill="none" stroke="#4daf4a" />
<path d="M1100.625,628.125 L1130.625,628.125" close="False" data-weight="1.75" stroke-width="6" fill="none" stroke="#4daf4a" />
<path d="M1025.625,628.125 L1055.625,628.125" close="False" data-weight="1.75" stroke-width="6" fill="none" stroke="#4daf4a" />
<path d="M950.625,628.125 L980.625,628.125" close="False" data-weight="1.75" stroke-width="6" fill="none" stroke="#4daf4a" />
<path d="M875.625,628.125 L905.625,628.125" close="False" data-weight="1.75" stroke-width="6" fill="none" stroke="#4daf4a" />
<path d="M800.625,628.125 L830.625,628.125" close="False" data-weight="1.75" stroke-width="6" fill="none" stroke="#4daf4a" />
<path d="M778.125,125.625 L778.125,155.625" close="False" data-weight="1.75" stroke-width="6" fill="none" stroke="#4daf4a" />
<path d="M719.0349025766973,687.2150974233027 L762.2150974233027,644.0349025766973" close="False" data-weight="2.060660171779821" stroke-width="6" fill="none" stroke="#4daf4a" />
<path d="M703.125,650.625 L703.125,680.625" close="False" data-weight="1.75" stroke-width="6" fill="none" stroke="#4daf4a" />
<path d="M703.125,575.625 L703.125,605.625" close="False" data-weight="1.75" stroke-width="6" fill="none" stroke="#4daf4a" />
<path d="M703.125,500.625 L703.125,530.625" close="False" data-weight="1.75" stroke-width="6" fill="none" stroke="#4daf4a" />
<path d="M703.125,425.625 L703.125,455.625" close="False" data-weight="1.75" stroke-width="6" fill="none" stroke="#4daf4a" />
<path d="M703.125,350.625 L703.125,380.625" close="False" data-weight="1.75" stroke-width="6" fill="none" stroke="#4daf4a" />
<path d="M703.125,275.625 L703.125,305.625" close="False" data-weight="1.75" stroke-width="6" fill="none" stroke="#4daf4a" />
<path d="M703.125,200.625 L703.125,230.625" close="False" data-weight="1.75" stroke-width="6" fill="none" stroke="#4daf4a" />
<path d="M725.625,178.125 L755.625,178.125" close="False" data-weight="1.75" stroke-width="6" fill="none" stroke="#4daf4a" />
<path d="M650.2665898254845,699.125 L680.9834101745155,699.125" close="False" data-weight="1.75" stroke-width="6" fill="none" stroke="#4daf4a" />
<path d="M575.2665898254845,699.125 L605.9834101745155,699.125" close="False" data-weight="1.75" stroke-width="6" fill="none" stroke="#4daf4a" />
<path d="M500.2665898254845,699.125 L530.9834101745155,699.125" close="False" data-weight="1.75" stroke-width="6" fill="none" stroke="#4daf4a" />
<path d="M425.2665898254845,699.125 L455.9834101745155,699.125" close="False" data-weight="1.75" stroke-width="6" fill="none" stroke="#4daf4a" />
<path d="M346.60989543659554,640.953041187103 L390.29695881289877,684.6401045634063" close="False" data-weight="2.060660171779821" stroke-width="6" fill="none" stroke="#4daf4a" />
<path d="M1625.625,2428.125 C1614.375,2428.125,1591.875,2428.125,1580.625,2428.125" close="False" data-weight="0.0" stroke-width="6" fill="none" stroke="#377eb8" />
<path d="M1550.625,2428.125 C1539.375,2428.125,1516.875,2428.125,1505.625,2428.125" close="False" data-weight="0.0" stroke-width="6" fill="none" stroke="#377eb8" />
<path d="M1475.625,2428.125 C1464.375,2428.125,1441.875,2428.125,1430.625,2428.125" close="False" data-weight="0.0" stroke-width="6" fill="none" stroke="#377eb8" />
<path d="M1453.125,1880.625 A54.31980515339569,54.31980515339569,0,0,1,1448.9901510378277,1901.412289481504 M1448.9901510378277,1901.412289481504 A54.3198051533933,54.3198051533933,0,0,1,1437.2150974233027,1919.0349025766973 M1437.2150974233027,1919.0349025766973" close="False" data-weight="1.0" stroke-width="6" fill="none" stroke="#377eb8" />
<path d="M1400.625,2428.125 C1389.375,2428.125,1366.875,2428.125,1355.625,2428.125" close="False" data-weight="0.0" stroke-width="6" fill="none" stroke="#377eb8" />
<path d="M1394.0349025766973,1962.2150974233027 C1386.0799512883486,1970.1700487116514,1370.1700487116514,1986.0799512883486,1362.2150974233027,1994.0349025766973" close="False" data-weight="0.0" stroke-width="6" fill="none" stroke="#377eb8" />
<path d="M1325.625,2428.125 C1314.375,2428.125,1291.875,2428.125,1280.625,2428.125" close="False" data-weight="0.0" stroke-width="6" fill="none" stroke="#377eb8" />
<path d="M1319.0349025766973,2037.2150974233027 C1311.0799512883486,2045.1700487116514,1295.1700487116514,2061.0799512883486,1287.2150974233027,2069.0349025766973" close="False" data-weight="0.0" stroke-width="6" fill="none" stroke="#377eb8" />
<path d="M1250.625,2428.125 A54.31980515339728,54.31980515339728,0,0,1,1229.837710518496,2423.9901510378277 M1229.837710518496,2423.9901510378277 A54.319805153387826,54.319805153387826,0,0,1,1212.2150974233027,2412.2150974233027 M1212.2150974233027,2412.2150974233027" close="False" data-weight="1.0" stroke-width="6" fill="none" stroke="#377eb8" />
<path d="M1244.0349025766973,2112.2150974233027 C1236.0799512883486,2120.1700487116514,1220.1700487116514,2136.0799512883486,1212.2150974233027,2144.0349025766973" close="False" data-weight="0.0" stroke-width="6" fill="none" stroke="#377eb8" />
<path d="M1625.625,2428.125 L1655.625,2428.125" close="False" data-weight="1.75" stroke-width="6" fill="none" stroke="#377eb8" />
<path d="M1550.625,2428.125 L1580.625,2428.125" close="False" data-weight="1.75" stroke-width="6" fill="none" stroke="#377eb8" />
<path d="M1532.125,1775.2665898254845 L1532.125,1805.9834101745155" close="False" data-weight="1.75" stroke-width="6" fill="none" stroke="#377eb8" />
<path d="M1524.125,1700.2665898254845 L1524.125,1730.9834101745155" close="False" data-weight="1.75" stroke-width="6" fill="none" stroke="#377eb8" />
<path d="M1524.125,1625.2665898254845 L1524.125,1655.9834101745155" close="False" data-weight="1.75" stroke-width="6" fill="none" stroke="#377eb8" />
<path d="M1475.625,2428.125 L1505.625,2428.125" close="False" data-weight="1.75" stroke-width="6" fill="none" stroke="#377eb8" />
<path d="M1453.125,1850.625 L1453.125,1880.625" close="False" data-weight="1.75" stroke-width="6" fill="none" stroke="#377eb8" />
<path d="M1475.2665898254845,1832.125 L1505.9834101745155,1832.125" close="False" data-weight="1.75" stroke-width="6" fill="none" stroke="#377eb8" />
<path d="M1475.2665898254845,1749.125 L1505.9834101745155,1749.125" close="False" data-weight="1.75" stroke-width="6" fill="none" stroke="#377eb8" />
<path d="M1475.2665898254845,1682.125 L1505.9834101745155,1682.125" close="False" data-weight="1.75" stroke-width="6" fill="none" stroke="#377eb8" />
<path d="M1475.2665898254845,1607.125 L1505.9834101745155,1607.125" close="False" data-weight="1.75" stroke-width="6" fill="none" stroke="#377eb8" />
<path d="M1400.625,2428.125 L1430.625,2428.125" close="False" data-weight="1.75" stroke-width="6" fill="none" stroke="#377eb8" />
<path d="M1394.0349025766973,1962.2150974233027 L1437.2150974233027,1919.0349025766973" close="False" data-weight="2.060660171779821" stroke-width="6" fill="none" stroke="#377eb8" />
<path d="M1400.2665898254845,1682.125 L1430.9834101745155,1682.125" close="False" data-weight="1.75" stroke-width="6" fill="none" stroke="#377eb8" />
<path d="M1400.625,1603.125 L1430.625,1603.125" close="False" data-weight="1.75" stroke-width="6" fill="none" stroke="#377eb8" />
<path d="M1325.625,2428.125 L1355.625,2428.125" close="False" data-weight="1.75" stroke-width="6" fill="none" stroke="#377eb8" />
<path d="M1319.0349025766973,2037.2150974233027 L1362.2150974233027,1994.0349025766973" close="False" data-weight="2.060660171779821" stroke-width="6" fill="none" stroke="#377eb8" />
<path d="M1325.2665898254845,1682.125 L1355.9834101745155,1682.125" close="False" data-weight="1.75" stroke-width="6" fill="none" stroke="#377eb8" />
<path d="M1250.625,2428.125 L1280.625,2428.125" close="False" data-weight="1.75" stroke-width="6" fill="none" stroke="#377eb8" />
<path d="M1244.0349025766973,2112.2150974233027 L1287.2150974233027,2069.0349025766973" close="False" data-weight="2.060660171779821" stroke-width="6" fill="none" stroke="#377eb8" />
<path d="M1169.0349025766973,2369.0349025766973 L1212.2150974233027,2412.2150974233027" close="False" data-weight="2.060660171779821" stroke-width="6" fill="none" stroke="#377eb8" />
<path d="M1153.125,2300.625 L1153.125,2330.625" close="False" data-weight="1.75" stroke-width="6" fill="none" stroke="#377eb8" />
<path d="M1153.125,2225.625 L1153.125,2255.625" close="False" data-weight="1.75" stroke-width="6" fill="none" stroke="#377eb8" />
<path d="M1169.0349025766973,2187.2150974233027 L1212.2150974233027,2144.0349025766973" close="False" data-weight="2.060660171779821" stroke-width="6" fill="none" stroke="#377eb8" />
<path d="M1078.125,2375.625 L1078.125,2405.625" close="False" data-weight="1.75" stroke-width="6" fill="none" stroke="#377eb8" />
<path d="M1100.625,2353.125 L1130.625,2353.125" close="False" data-weight="1.75" stroke-width="6" fill="none" stroke="#377eb8" />
<path d="M1078.125,2225.625 L1078.125,2255.625" close="False" data-weight="1.75" stroke-width="6" fill="none" stroke="#377eb8" />
<path d="M1100.625,2203.125 L1130.625,2203.125" close="False" data-weight="1.75" stroke-width="6" fill="none" stroke="#377eb8" />
<path d="M1025.625,2278.125 L1055.625,2278.125" close="False" data-weight="1.75" stroke-width="6" fill="none" stroke="#377eb8" />
<path d="M1925.625,1153.125 A54.31980515339569,54.31980515339569,0,0,1,1904.837710518496,1148.9901510378277 M1904.837710518496,1148.9901510378277 A54.3198051533933,54.3198051533933,0,0,1,1887.2150974233027,1137.2150974233027 M1887.2150974233027,1137.2150974233027" close="False" data-weight="1.0" stroke-width="6" fill="none" stroke="#e41a1c" />
<path d="M1619.0349025766973,1287.2150974233027 C1611.0799512883486,1295.1700487116514,1595.1700487116514,1311.0799512883486,1587.2150974233027,1319.0349025766973" close="False" data-weight="0.0" stroke-width="6" fill="none" stroke="#e41a1c" />
<path d="M1625.625,703.125 C1614.375,703.125,1591.875,703.125,1580.625,703.125" close="False" data-weight="0.0" stroke-width="6" fill="none" stroke="#e41a1c" />
<path d="M1528.125,1505.625 C1528.125,1516.875,1528.125,1539.375,1528.125,1550.625" close="False" data-weight="0.0" stroke-width="6" fill="none" stroke="#e41a1c" />
<path d="M1528.125,1430.625 C1528.125,1441.875,1528.125,1464.375,1528.125,1475.625" close="False" data-weight="0.0" stroke-width="6" fill="none" stroke="#e41a1c" />
<path d="M1544.0349025766973,1362.2150974233027 A54.3198051533949,54.3198051533949,0,0,0,1532.2598489621723,1379.837710518496 M1532.2598489621723,1379.837710518496 A54.3198051533941,54.3198051533941,0,0,0,1528.125,1400.625 M1528.125,1400.625" close="False" data-weight="1.0" stroke-width="6" fill="none" stroke="#e41a1c" />
<path d="M1550.625,703.125 A54.31980515339285,54.31980515339285,0,0,1,1529.837710518496,698.9901510378276 M1529.837710518496,698.9901510378276 A54.31980515339619,54.31980515339619,0,0,1,1512.2150974233027,687.2150974233027 M1512.2150974233027,687.2150974233027" close="False" data-weight="1.0" stroke-width="6" fill="none" stroke="#e41a1c" />
<path d="M1469.0349025766973,644.0349025766973 C1461.0799512883486,636.0799512883486,1445.1700487116514,620.1700487116514,1437.2150974233027,612.2150974233027" close="False" data-weight="0.0" stroke-width="6" fill="none" stroke="#e41a1c" />
<path d="M1250.2665898254845,632.125 A93.83039863674537,93.83039863674537,0,0,0,1229.7176985548367,634.4027538039627 M1229.7176985548367,634.4027538039627 A35.85816626156056,35.85816626156056,0,0,0,1212.2150974233027,644.0349025766973 M1212.2150974233027,644.0349025766973" close="False" data-weight="1.0" stroke-width="6" fill="none" stroke="#e41a1c" />
<path d="M1169.0349025766973,687.2150974233027 C1161.0799512883486,695.1700487116514,1145.1700487116514,711.0799512883486,1137.2150974233027,719.0349025766973" close="False" data-weight="0.0" stroke-width="6" fill="none" stroke="#e41a1c" />
<path d="M1094.0349025766973,762.2150974233027 C1086.0799512883486,770.1700487116514,1070.1700487116514,786.0799512883486,1062.2150974233027,794.0349025766973" close="False" data-weight="0.0" stroke-width="6" fill="none" stroke="#e41a1c" />
<path d="M1019.0349025766973,837.2150974233027 C1011.0799512883486,845.1700487116514,995.1700487116514,861.0799512883486,987.2150974233027,869.0349025766973" close="False" data-weight="0.0" stroke-width="6" fill="none" stroke="#e41a1c" />
<path d="M865.953041187105,1134.6401045634027 C858.1248070311794,1142.4683387193284,842.4683387193281,1158.1248070311792,834.6401045634026,1165.9530411871049" close="False" data-weight="0.0" stroke-width="6" fill="none" stroke="#e41a1c" />
<path d="M871.6098954365974,865.953041187105 C863.7816612806718,858.1248070311793,848.1251929688207,842.4683387193282,840.296958812895,834.6401045634026" close="False" data-weight="0.0" stroke-width="6" fill="none" stroke="#e41a1c" />
<path d="M796.6098954365974,790.953041187105 C788.7816612806718,783.1248070311793,773.1251929688207,767.4683387193282,765.296958812895,759.6401045634026" close="False" data-weight="0.0" stroke-width="6" fill="none" stroke="#e41a1c" />
<path d="M1925.625,1153.125 L1955.625,1153.125" close="False" data-weight="1.75" stroke-width="6" fill="none" stroke="#e41a1c" />
<path d="M1844.0349025766973,1094.0349025766973 L1887.2150974233027,1137.2150974233027" close="False" data-weight="2.060660171779821" stroke-width="6" fill="none" stroke="#e41a1c" />
<path d="M1828.125,1025.625 L1828.125,1055.625" close="False" data-weight="1.75" stroke-width="6" fill="none" stroke="#e41a1c" />
<path d="M1753.125,1025.625 L1753.125,1055.625" close="False" data-weight="1.75" stroke-width="6" fill="none" stroke="#e41a1c" />
<path d="M1775.625,1003.125 L1805.625,1003.125" close="False" data-weight="1.75" stroke-width="6" fill="none" stroke="#e41a1c" />
<path d="M1678.125,1175.625 L1678.125,1205.625" close="False" data-weight="1.75" stroke-width="6" fill="none" stroke="#e41a1c" />
<path d="M1678.125,1100.625 L1678.125,1130.625" close="False" data-weight="1.75" stroke-width="6" fill="none" stroke="#e41a1c" />
<path d="M1678.125,1025.625 L1678.125,1055.625" close="False" data-weight="1.75" stroke-width="6" fill="none" stroke="#e41a1c" />
<path d="M1700.625,1003.125 L1730.625,1003.125" close="False" data-weight="1.75" stroke-width="6" fill="none" stroke="#e41a1c" />
<path d="M1678.125,950.625 L1678.125,980.625" close="False" data-weight="1.75" stroke-width="6" fill="none" stroke="#e41a1c" />
<path d="M1700.625,928.125 L1730.625,928.125" close="False" data-weight="1.75" stroke-width="6" fill="none" stroke="#e41a1c" />
<path d="M1678.125,875.625 L1678.125,905.625" close="False" data-weight="1.75" stroke-width="6" fill="none" stroke="#e41a1c" />
<path d="M1678.125,800.625 L1678.125,830.625" close="False" data-weight="1.75" stroke-width="6" fill="none" stroke="#e41a1c" />
<path d="M1678.125,725.625 L1678.125,755.625" close="False" data-weight="1.75" stroke-width="6" fill="none" stroke="#e41a1c" />
<path d="M1619.0349025766973,1287.2150974233027 L1662.2150974233027,1244.0349025766973" close="False" data-weight="2.060660171779821" stroke-width="6" fill="none" stroke="#e41a1c" />
<path d="M1603.125,1100.625 L1603.125,1130.625" close="False" data-weight="1.75" stroke-width="6" fill="none" stroke="#e41a1c" />
<path d="M1603.125,1025.625 L1603.125,1055.625" close="False" data-weight="1.75" stroke-width="6" fill="none" stroke="#e41a1c" />
<path d="M1625.625,1003.125 L1655.625,1003.125" close="False" data-weight="1.75" stroke-width="6" fill="none" stroke="#e41a1c" />
<path d="M1603.125,950.625 L1603.125,980.625" close="False" data-weight="1.75" stroke-width="6" fill="none" stroke="#e41a1c" />
<path d="M1603.125,875.625 L1603.125,905.625" close="False" data-weight="1.75" stroke-width="6" fill="none" stroke="#e41a1c" />
<path d="M1625.625,703.125 L1655.625,703.125" close="False" data-weight="1.75" stroke-width="6" fill="none" stroke="#e41a1c" />
<path d="M1524.125,1775.2665898254845 L1524.125,1805.9834101745155" close="False" data-weight="1.75" stroke-width="6" fill="none" stroke="#e41a1c" />
<path d="M1532.125,1700.2665898254845 L1532.125,1730.9834101745155" close="False" data-weight="1.75" stroke-width="6" fill="none" stroke="#e41a1c" />
<path d="M1532.125,1625.2665898254845 L1532.125,1655.9834101745155" close="False" data-weight="1.75" stroke-width="6" fill="none" stroke="#e41a1c" />
<path d="M1528.125,1550.625 L1528.125,1580.625" close="False" data-weight="1.75" stroke-width="6" fill="none" stroke="#e41a1c" />
<path d="M1528.125,1475.625 L1528.125,1505.625" close="False" data-weight="1.75" stroke-width="6" fill="none" stroke="#e41a1c" />
<path d="M1528.125,1400.625 L1528.125,1430.625" close="False" data-weight="1.75" stroke-width="6" fill="none" stroke="#e41a1c" />
<path d="M1544.0349025766973,1362.2150974233027 L1587.2150974233027,1319.0349025766973" close="False" data-weight="2.060660171779821" stroke-width="6" fill="none" stroke="#e41a1c" />
<path d="M1550.625,703.125 L1580.625,703.125" close="False" data-weight="1.75" stroke-width="6" fill="none" stroke="#e41a1c" />
<path d="M1475.2665898254845,1824.125 L1505.9834101745155,1824.125" close="False" data-weight="1.75" stroke-width="6" fill="none" stroke="#e41a1c" />
<path d="M1475.2665898254845,1757.125 L1505.9834101745155,1757.125" close="False" data-weight="1.75" stroke-width="6" fill="none" stroke="#e41a1c" />
<path d="M1475.2665898254845,1674.125 L1505.9834101745155,1674.125" close="False" data-weight="1.75" stroke-width="6" fill="none" stroke="#e41a1c" />
<path d="M1475.2665898254845,1599.125 L1505.9834101745155,1599.125" close="False" data-weight="1.75" stroke-width="6" fill="none" stroke="#e41a1c" />
<path d="M1469.0349025766973,644.0349025766973 L1512.2150974233027,687.2150974233027" close="False" data-weight="2.060660171779821" stroke-width="6" fill="none" stroke="#e41a1c" />
<path d="M1400.2665898254845,1674.125 L1430.9834101745155,1674.125" close="False" data-weight="1.75" stroke-width="6" fill="none" stroke="#e41a1c" />
<path d="M1378.125,1625.625 L1378.125,1655.625" close="False" data-weight="1.75" stroke-width="6" fill="none" stroke="#e41a1c" />
<path d="M1394.0349025766973,569.0349025766973 L1437.2150974233027,612.2150974233027" close="False" data-weight="2.060660171779821" stroke-width="6" fill="none" stroke="#e41a1c" />
<path d="M1325.2665898254845,1674.125 L1355.9834101745155,1674.125" close="False" data-weight="1.75" stroke-width="6" fill="none" stroke="#e41a1c" />
<path d="M1307.125,575.2665898254845 L1307.125,605.9834101745155" close="False" data-weight="1.75" stroke-width="6" fill="none" stroke="#e41a1c" />
<path d="M1325.2665898254845,557.125 L1355.9834101745155,557.125" close="False" data-weight="1.75" stroke-width="6" fill="none" stroke="#e41a1c" />
<path d="M1250.2665898254845,632.125 L1280.9834101745155,632.125" close="False" data-weight="1.75" stroke-width="6" fill="none" stroke="#e41a1c" />
<path d="M1169.0349025766973,687.2150974233027 L1212.2150974233027,644.0349025766973" close="False" data-weight="2.060660171779821" stroke-width="6" fill="none" stroke="#e41a1c" />
<path d="M1094.0349025766973,762.2150974233027 L1137.2150974233027,719.0349025766973" close="False" data-weight="2.060660171779821" stroke-width="6" fill="none" stroke="#e41a1c" />
<path d="M1019.0349025766973,837.2150974233027 L1062.2150974233027,794.0349025766973" close="False" data-weight="2.060660171779821" stroke-width="6" fill="none" stroke="#e41a1c" />
<path d="M924.125,1025.2665898254845 L924.125,1055.9834101745155" close="False" data-weight="1.75" stroke-width="6" fill="none" stroke="#e41a1c" />
<path d="M932.125,950.2665898254845 L932.125,980.9834101745155" close="False" data-weight="1.75" stroke-width="6" fill="none" stroke="#e41a1c" />
<path d="M944.0349025766973,912.2150974233027 L987.2150974233027,869.0349025766973" close="False" data-weight="2.060660171779821" stroke-width="6" fill="none" stroke="#e41a1c" />
<path d="M865.953041187105,1134.6401045634027 L909.6401045634026,1090.9530411871049" close="False" data-weight="2.060660171779821" stroke-width="6" fill="none" stroke="#e41a1c" />
<path d="M875.2665898254845,1007.125 L905.9834101745155,1007.125" close="False" data-weight="1.75" stroke-width="6" fill="none" stroke="#e41a1c" />
<path d="M871.6098954365974,865.953041187105 L915.296958812895,909.6401045634026" close="False" data-weight="2.060660171779821" stroke-width="6" fill="none" stroke="#e41a1c" />
<path d="M790.953041187105,1209.6401045634027 L834.6401045634026,1165.9530411871049" close="False" data-weight="2.060660171779821" stroke-width="6" fill="none" stroke="#e41a1c" />
<path d="M796.6098954365974,790.953041187105 L840.296958812895,834.6401045634026" close="False" data-weight="2.060660171779821" stroke-width="6" fill="none" stroke="#e41a1c" />
<path d="M721.6098954365974,715.953041187105 L765.296958812895,759.6401045634026" close="False" data-weight="2.060660171779821" stroke-width="6" fill="none" stroke="#e41a1c" />
<image x="2395.625" y="1120.625" width="65" height="65" xlink:href="designspace-test/./img/ds_dataset2_60_28_thumb.png">
<title>28</title>
</image>
<image x="1945.625" y="1120.625" width="65" height="65" xlink:href="designspace-test/./img/ds_dataset2_60_31_thumb.png">
<title>31</title>
</image>
<image x="1795.625" y="1045.625" width="65" height="65" xlink:href="designspace-test/./img/ds_dataset2_60_58_thumb.png">
<title>58</title>
</image>
<image x="1795.625" y="970.625" width="65" height="65" xlink:href="designspace-test/./img/ds_dataset2_60_54_thumb.png">
<title>54</title>
</image>
<image x="1720.625" y="1045.625" width="65" height="65" xlink:href="designspace-test/./img/ds_dataset2_60_46_thumb.png">
<title>46</title>
</image>
<image x="1720.625" y="970.625" width="65" height="65" xlink:href="designspace-test/./img/ds_dataset2_60_44_thumb.png">
<title>44</title>
</image>
<image x="1720.625" y="895.625" width="65" height="65" xlink:href="designspace-test/./img/ds_dataset2_60_56_thumb.png">
<title>56</title>
</image>
<image x="1645.625" y="2395.625" width="65" height="65" xlink:href="designspace-test/./img/ds_dataset2_60_57_thumb.png">
<title>57</title>
</image>
<image x="1645.625" y="1195.625" width="65" height="65" xlink:href="designspace-test/./img/ds_dataset2_60_43_thumb.png">
<title>43</title>
</image>
<image x="1645.625" y="1120.625" width="65" height="65" xlink:href="designspace-test/./img/ds_dataset2_60_32_thumb.png">
<title>32</title>
</image>
<image x="1645.625" y="1045.625" width="65" height="65" xlink:href="designspace-test/./img/ds_dataset2_60_20_thumb.png">
<title>20</title>
</image>
<image x="1645.625" y="970.625" width="65" height="65" xlink:href="designspace-test/./img/ds_dataset2_60_8_thumb.png">
<title>8</title>
</image>
<image x="1645.625" y="895.625" width="65" height="65" xlink:href="designspace-test/./img/ds_dataset2_60_53_thumb.png">
<title>53</title>
</image>
<image x="1645.625" y="820.625" width="65" height="65" xlink:href="designspace-test/./img/ds_dataset2_60_49_thumb.png">
<title>49</title>
</image>
<image x="1645.625" y="745.625" width="65" height="65" xlink:href="designspace-test/./img/ds_dataset2_60_36_thumb.png">
<title>36</title>
</image>
<image x="1645.625" y="670.625" width="65" height="65" xlink:href="designspace-test/./img/ds_dataset2_60_17_thumb.png">
<title>17</title>
</image>
<image x="1570.625" y="1120.625" width="65" height="65" xlink:href="designspace-test/./img/ds_dataset2_60_30_thumb.png">
<title>30</title>
</image>
<image x="1570.625" y="1045.625" width="65" height="65" xlink:href="designspace-test/./img/ds_dataset2_60_1_thumb.png">
<title>1</title>
</image>
<image x="1570.625" y="970.625" width="65" height="65" xlink:href="designspace-test/./img/ds_dataset2_60_9_thumb.png">
<title>9</title>
</image>
<image x="1570.625" y="895.625" width="65" height="65" xlink:href="designspace-test/./img/ds_dataset2_60_41_thumb.png">
<title>41</title>
</image>
<image x="1570.625" y="820.625" width="65" height="65" xlink:href="designspace-test/./img/ds_dataset2_60_37_thumb.png">
<title>37</title>
</image>
<image x="1495.625" y="1795.625" width="65" height="65" xlink:href="designspace-test/./img/ds_dataset2_60_13_thumb.png">
<title>13</title>
</image>
<image x="1495.625" y="1720.625" width="65" height="65" xlink:href="designspace-test/./img/ds_dataset2_60_11_thumb.png">
<title>11</title>
</image>
<image x="1495.625" y="1645.625" width="65" height="65" xlink:href="designspace-test/./img/ds_dataset2_60_39_thumb.png">
<title>39</title>
</image>
<image x="1495.625" y="1570.625" width="65" height="65" xlink:href="designspace-test/./img/ds_dataset2_60_51_thumb.png">
<title>51</title>
</image>
<image x="1420.625" y="1795.625" width="65" height="65" xlink:href="designspace-test/./img/ds_dataset2_60_19_thumb.png">
<title>19</title>
</image>
<image x="1420.625" y="1720.625" width="65" height="65" xlink:href="designspace-test/./img/ds_dataset2_60_38_thumb.png">
<title>38</title>
</image>
<image x="1420.625" y="1645.625" width="65" height="65" xlink:href="designspace-test/./img/ds_dataset2_60_55_thumb.png">
<title>55</title>
</image>
<image x="1420.625" y="1570.625" width="65" height="65" xlink:href="designspace-test/./img/ds_dataset2_60_24_thumb.png">
<title>24</title>
</image>
<image x="1345.625" y="1645.625" width="65" height="65" xlink:href="designspace-test/./img/ds_dataset2_60_16_thumb.png">
<title>16</title>
</image>
<image x="1345.625" y="1570.625" width="65" height="65" xlink:href="designspace-test/./img/ds_dataset2_60_18_thumb.png">
<title>18</title>
</image>
<image x="1345.625" y="520.625" width="65" height="65" xlink:href="designspace-test/./img/ds_dataset2_60_12_thumb.png">
<title>12</title>
</image>
<image x="1270.625" y="1645.625" width="65" height="65" xlink:href="designspace-test/./img/ds_dataset2_60_26_thumb.png">
<title>26</title>
</image>
<image x="1270.625" y="595.625" width="65" height="65" xlink:href="designspace-test/./img/ds_dataset2_60_29_thumb.png">
<title>29</title>
</image>
<image x="1270.625" y="520.625" width="65" height="65" xlink:href="designspace-test/./img/ds_dataset2_60_50_thumb.png">
<title>50</title>
</image>
<image x="1120.625" y="2320.625" width="65" height="65" xlink:href="designspace-test/./img/ds_dataset2_60_45_thumb.png">
<title>45</title>
</image>
<image x="1120.625" y="2245.625" width="65" height="65" xlink:href="designspace-test/./img/ds_dataset2_60_22_thumb.png">
<title>22</title>
</image>
<image x="1120.625" y="2170.625" width="65" height="65" xlink:href="designspace-test/./img/ds_dataset2_60_0_thumb.png">
<title>0</title>
</image>
<image x="1045.625" y="2395.625" width="65" height="65" xlink:href="designspace-test/./img/ds_dataset2_60_25_thumb.png">
<title>25</title>
</image>
<image x="1045.625" y="2320.625" width="65" height="65" xlink:href="designspace-test/./img/ds_dataset2_60_40_thumb.png">
<title>40</title>
</image>
<image x="1045.625" y="2245.625" width="65" height="65" xlink:href="designspace-test/./img/ds_dataset2_60_7_thumb.png">
<title>7</title>
</image>
<image x="1045.625" y="2170.625" width="65" height="65" xlink:href="designspace-test/./img/ds_dataset2_60_27_thumb.png">
<title>27</title>
</image>
<image x="970.625" y="2245.625" width="65" height="65" xlink:href="designspace-test/./img/ds_dataset2_60_2_thumb.png">
<title>2</title>
</image>
<image x="895.625" y="1045.625" width="65" height="65" xlink:href="designspace-test/./img/ds_dataset2_60_34_thumb.png">
<title>34</title>
</image>
<image x="895.625" y="970.625" width="65" height="65" xlink:href="designspace-test/./img/ds_dataset2_60_4_thumb.png">
<title>4</title>
</image>
<image x="895.625" y="895.625" width="65" height="65" xlink:href="designspace-test/./img/ds_dataset2_60_23_thumb.png">
<title>23</title>
</image>
<image x="820.625" y="970.625" width="65" height="65" xlink:href="designspace-test/./img/ds_dataset2_60_14_thumb.png">
<title>14</title>
</image>
<image x="745.625" y="1195.625" width="65" height="65" xlink:href="designspace-test/./img/ds_dataset2_60_6_thumb.png">
<title>6</title>
</image>
<image x="745.625" y="145.625" width="65" height="65" xlink:href="designspace-test/./img/ds_dataset2_60_15_thumb.png">
<title>15</title>
</image>
<image x="745.625" y="70.625" width="65" height="65" xlink:href="designspace-test/./img/ds_dataset2_60_21_thumb.png">
<title>21</title>
</image>
<image x="670.625" y="670.625" width="65" height="65" xlink:href="designspace-test/./img/ds_dataset2_60_10_thumb.png">
<title>10</title>
</image>
<image x="670.625" y="145.625" width="65" height="65" xlink:href="designspace-test/./img/ds_dataset2_60_5_thumb.png">
<title>5</title>
</image>
<image x="295.625" y="595.625" width="65" height="65" xlink:href="designspace-test/./img/ds_dataset2_60_48_thumb.png">
<title>48</title>
</image>
<image x="220.625" y="2020.625" width="65" height="65" xlink:href="designspace-test/./img/ds_dataset2_60_33_thumb.png">
<title>33</title>
</image>
<image x="220.625" y="1120.625" width="65" height="65" xlink:href="designspace-test/./img/ds_dataset2_60_35_thumb.png">
<title>35</title>
</image>
<image x="145.625" y="1195.625" width="65" height="65" xlink:href="designspace-test/./img/ds_dataset2_60_59_thumb.png">
<title>59</title>
</image>
<image x="145.625" y="1120.625" width="65" height="65" xlink:href="designspace-test/./img/ds_dataset2_60_47_thumb.png">
<title>47</title>
</image>
<image x="145.625" y="1045.625" width="65" height="65" xlink:href="designspace-test/./img/ds_dataset2_60_42_thumb.png">
<title>42</title>
</image>
<image x="145.625" y="970.625" width="65" height="65" xlink:href="designspace-test/./img/ds_dataset2_60_52_thumb.png">
<title>52</title>
</image>
<image x="70.625" y="1795.625" width="65" height="65" xlink:href="designspace-test/./img/ds_dataset2_60_3_thumb.png">
<title>3</title>
</image>
</svg>