<?xml version="1.0" encoding="UTF-8"?>
<svg xmlns="http://www.w3.org/2000/svg" xmlns:xlink="http://www.w3.org/1999/xlink"
     viewBox="0 0 2550 2550" preserveAspectRatio="xMidYMid meet">
<defs>
</defs>
<circle cx="178.125" cy="1378.125" r="22.5" fill="white">
<title>44</title>
</circle>
<circle cx="253.125" cy="778.125" r="22.5" fill="white">
<title>18</title>
</circle>
<circle cx="253.125" cy="2053.125" r="22.5" fill="white">
<title>27</title>
</circle>
<circle cx="328.125" cy="778.125" r="22.5" fill="white">
<title>45</title>
</circle>
<circle cx="403.125" cy="103.125" r="22.5" fill="white">
<title>24</title>
</circle>
<circle cx="403.125" cy="328.125" r="22.5" fill="white">
<title>38</title>
</circle>
<circle cx="403.125" cy="1678.125" r="22.5" fill="white">
<title>13</title>
</circle>
<circle cx="403.125" cy="1978.125" r="22.5" fill="white">
<title>53</title>
</circle>
<circle cx="478.125" cy="1978.125" r="22.5" fill="white">
<title>59</title>
</circle>
<circle cx="553.125" cy="1903.125" r="22.5" fill="white">
<title>58</title>
</circle>
<circle cx="553.125" cy="1978.125" r="22.5" fill="white">
<title>56</title>
</circle>
<circle cx="628.125" cy="1003.125" r="22.5" fill="white">
<title>26</title>
</circle>
<circle cx="703.125" cy="328.125" r="22.5" fill="white">
<title>0</title>
</circle>
<circle cx="703.125" cy="703.125" r="22.5" fill="white">
<title>28</title>
</circle>
<circle cx="703.125" cy="928.125" r="22.5" fill="white">
<title>14</title>
</circle>
<circle cx="703.125" cy="1228.125" r="22.5" fill="white">
<title>7</title>
</circle>
<circle cx="703.125" cy="1978.125" r="22.5" fill="white">
<title>49</title>
</circle>
<circle cx="778.125" cy="1078.125" r="22.5" fill="white">
<title>48</title>
</circle>
<circle cx="853.125" cy="778.125" r="22.5" fill="white">
<title>16</title>
</circle>
<circle cx="853.125" cy="928.125" r="22.5" fill="white">
<title>15</title>
</circle>
<circle cx="853.125" cy="1303.125" r="22.5" fill="white">
<title>35</title>
</circle>
<circle cx="853.125" cy="1678.125" r="22.5" fill="white">
<title>30</title>
</circle>
<circle cx="853.125" cy="2203.125" r="22.5" fill="white">
<title>47</title>
</circle>
<circle cx="928.125" cy="328.125" r="22.5" fill="white">
<title>19</title>
</circle>
<circle cx="928.125" cy="2353.125" r="22.5" fill="white">
<title>55</title>
</circle>
<circle cx="1003.125" cy="1978.125" r="22.5" fill="white">
<title>51</title>
</circle>
<circle cx="1003.125" cy="2053.125" r="22.5" fill="white">
<title>52</title>
</circle>
<circle cx="1153.125" cy="1453.125" r="22.5" fill="white">
<title>21</title>
</circle>
<circle cx="1228.125" cy="703.125" r="22.5" fill="white">
<title>34</title>
</circle>
<circle cx="1228.125" cy="853.125" r="22.5" fill="white">
<title>20</title>
</circle>
<circle cx="1228.125" cy="1078.125" r="22.5" fill="white">
<title>9</title>
</circle>
<circle cx="1303.125" cy="1003.125" r="22.5" fill="white">
<title>12</title>
</circle>
<circle cx="1378.125" cy="1903.125" r="22.5" fill="white">
<title>42</title>
</circle>
<circle cx="1378.125" cy="2353.125" r="22.5" fill="white">
<title>57</title>
</circle>
<circle cx="1453.125" cy="178.125" r="22.5" fill="white">
<title>25</title>
</circle>
<circle cx="1453.125" cy="478.125" r="22.5" fill="white">
<title>39</title>
</circle>
<circle cx="1453.125" cy="1003.125" r="22.5" fill="white">
<title>33</title>
</circle>
<circle cx="1528.125" cy="553.125" r="22.5" fill="white">
<title>22</title>
</circle>
<circle cx="1528.125" cy="1078.125" r="22.5" fill="white">
<title>2</title>
</circle>
<circle cx="1528.125" cy="2428.125" r="22.5" fill="white">
<title>37</title>
</circle>
<circle cx="1603.125" cy="478.125" r="22.5" fill="white">
<title>29</title>
</circle>
<circle cx="1603.125" cy="1453.125" r="22.5" fill="white">
<title>4</title>
</circle>
<circle cx="1678.125" cy="553.125" r="22.5" fill="white">
<title>32</title>
</circle>
<circle cx="1678.125" cy="2203.125" r="22.5" fill="white">
<title>54</title>
</circle>
<circle cx="1753.125" cy="778.125" r="22.5" fill="white">
<title>10</title>
</circle>
<circle cx="1753.125" cy="2278.125" r="22.5" fill="white">
<title>50</title>
</circle>
<circle cx="1828.125" cy="1153.125" r="22.5" fill="white">
<title>23</title>
</circle>
<circle cx="1828.125" cy="1828.125" r="22.5" fill="white">
<title>5</title>
</circle>
<circle cx="1903.125" cy="1453.125" r="22.5" fill="white">
<title>17</title>
</circle>
<circle cx="1978.125" cy="1003.125" r="22.5" fill="white">
<title>41</title>
</circle>
<circle cx="1978.125" cy="2203.125" r="22.5" fill="white">
<title>6</title>
</circle>
<circle cx="2053.125" cy="403.125" r="22.5" fill="white">
<title>36</title>
</circle>
<circle cx="2053.125" cy="1978.125" r="22.5" fill="white">
<title>1</title>
</circle>
<circle cx="2128.125" cy="1003.125" r="22.5" fill="white">
<title>40</title>
</circle>
<circle cx="2128.125" cy="1303.125" r="22.5" fill="white">
<title>46</title>
</circle>
<circle cx="2128.125" cy="1753.125" r="22.5" fill="white">
<title>43</title>
</circle>
<circle cx="2203.125" cy="1603.125" r="22.5" fill="white">
<title>3</title>
</circle>
<circle cx="2353.125" cy="403.125" r="22.5" fill="white">
<title>8</title>
</circle>
<circle cx="2353.125" cy="1603.125" r="22.5" fill="white">
<title>11</title>
</circle>
<circle cx="2428.125" cy="1153.125" r="22.5" fill="white">
<title>31</title>
</circle>
<path d="M178.125,1378.125 L253.125,1303.125" data-sets="{'S0'}" stroke-width="7" stroke="white" />
<path d="M178.125,1378.125 L178.125,1453.125" data-sets="{'S0'}" stroke-width="7" stroke="white" />
<path d="M178.125,1453.125 L253.125,1528.125" data-sets="{'S0'}" stroke-width="7" stroke="white" />
<path d="M253.125,478.125 L328.125,403.125" data-sets="{'S0'}" stroke-width="7" stroke="white" />
<path d="M253.125,478.125 L253.125,553.125" data-sets="{'S0'}" stroke-width="7" stroke="white" />
<path d="M253.125,553.125 L253.125,628.125" data-sets="{'S0'}" stroke-width="7" stroke="white" />
<path d="M253.125,628.125 L253.125,703.125" data-sets="{'S0'}" stroke-width="7" stroke="white" />
<path d="M253.125,703.125 L253.125,778.125" data-sets="{'S0'}" stroke-width="7" stroke="white" />
<path d="M253.125,778.125 L328.125,778.125" data-sets="{'S1'}" stroke-width="7" stroke="white" />
<path d="M253.125,778.125 L328.125,853.125" data-sets="{'S0'}" stroke-width="7" stroke="white" />
<path d="M253.125,1303.125 L328.125,1228.125" data-sets="{'S0'}" stroke-width="7" stroke="white" />
<path d="M253.125,1528.125 L328.125,1603.125" data-sets="{'S0'}" stroke-width="7" stroke="white" />
<path d="M253.125,1828.125 L328.125,1753.125" data-sets="{'S1'}" stroke-width="7" stroke="white" />
<path d="M253.125,1828.125 L253.125,1903.125" data-sets="{'S1'}" stroke-width="7" stroke="white" />
<path d="M253.125,1903.125 L253.125,1978.125" data-sets="{'S1'}" stroke-width="7" stroke="white" />
<path d="M253.125,1978.125 L253.125,2053.125" data-sets="{'S1'}" stroke-width="7" stroke="white" />
<path d="M328.125,403.125 L403.125,328.125" data-sets="{'S0'}" stroke-width="7" stroke="white" />
<path d="M328.125,778.125 L403.125,778.125" data-sets="{'S1'}" stroke-width="7" stroke="white" />
<path d="M328.125,853.125 L403.125,928.125" data-sets="{'S0'}" stroke-width="7" stroke="white" />
<path d="M328.125,1228.125 L403.125,1153.125" data-sets="{'S0'}" stroke-width="7" stroke="white" />
<path d="M328.125,1603.125 L403.125,1678.125" data-sets="{'S0'}" stroke-width="7" stroke="white" />
<path d="M328.125,1753.125 L403.125,1678.125" data-sets="{'S1'}" stroke-width="7" stroke="white" />
<path d="M403.125,103.125 L403.125,178.125" data-sets="{'S0', 'S1'}" stroke-width="7" stroke="white" />
<path d="M403.125,178.125 L403.125,253.125" data-sets="{'S0', 'S1'}" stroke-width="7" stroke="white" />
<path d="M403.125,253.125 L403.125,328.125" data-sets="{'S0', 'S1'}" stroke-width="7" stroke="white" />
<path d="M403.125,328.125 L478.125,328.125" data-sets="{'S1'}" stroke-width="7" stroke="white" />
<path d="M403.125,778.125 L478.125,853.125" data-sets="{'S1'}" stroke-width="7" stroke="white" />
<path d="M403.125,928.125 L478.125,928.125" data-sets="{'S0'}" stroke-width="7" stroke="white" />
<path d="M403.125,1153.125 L478.125,1078.125" data-sets="{'S0'}" stroke-width="7" stroke="white" />
<path d="M403.125,1528.125 L478.125,1453.125" data-sets="{'S1'}" stroke-width="7" stroke="white" />
<path d="M403.125,1528.125 L403.125,1603.125" data-sets="{'S1'}" stroke-width="7" stroke="white" />
<path d="M403.125,1603.125 L403.125,1678.125" data-sets="{'S1'}" stroke-width="7" stroke="white" />
<path d="M403.125,1678.125 L478.125,1678.125" data-sets="{'S1'}" stroke-width="7" stroke="white" />
<path d="M403.125,1678.125 L403.125,1753.125" data-sets="{'S0'}" stroke-width="7" stroke="white" />
<path d="M403.125,1753.125 L478.125,1828.125" data-sets="{'S0'}" stroke-width="7" stroke="white" />
<path d="M403.125,1978.125 L478.125,1903.125" data-sets="{'S0'}" stroke-width="7" stroke="white" />
<path d="M478.125,328.125 L553.125,328.125" data-sets="{'S1'}" stroke-width="7" stroke="white" />
<path d="M478.125,853.125 L553.125,928.125" data-sets="{'S1'}" stroke-width="7" stroke="white" />
<path d="M478.125,928.125 L553.125,928.125" data-sets="{'S0'}" stroke-width="7" stroke="white" />
<path d="M478.125,1078.125 L553.125,1003.125" data-sets="{'S0'}" stroke-width="7" stroke="white" />
<path d="M478.125,1453.125 L553.125,1378.125" data-sets="{'S1'}" stroke-width="7" stroke="white" />
<path d="M478.125,1678.125 L553.125,1678.125" data-sets="{'S1'}" stroke-width="7" stroke="white" />
<path d="M478.125,1828.125 L553.125,1903.125" data-sets="{'S0'}" stroke-width="7" stroke="white" />
<path d="M478.125,1903.125 L553.125,1978.125" data-sets="{'S0'}" stroke-width="7" stroke="white" />
<path d="M478.125,1978.125 L553.125,2053.125" data-sets="{'S5'}" stroke-width="7" stroke="white" />
<path d="M553.125,328.125 L628.125,328.125" data-sets="{'S1'}" stroke-width="7" stroke="white" />
<path d="M553.125,928.125 L628.125,1003.125" data-sets="{'S0', 'S1'}" stroke-width="7" stroke="white" />
<path d="M553.125,1003.125 L628.125,1003.125" data-sets="{'S0'}" stroke-width="7" stroke="white" />
<path d="M553.125,1378.125 L628.125,1303.125" data-sets="{'S1'}" stroke-width="7" stroke="white" />
<path d="M553.125,1678.125 L628.125,1678.125" data-sets="{'S1'}" stroke-width="7" stroke="white" />
<path d="M553.125,1903.125 L553.125,1978.125" data-sets="{'S0'}" stroke-width="7" stroke="white" />
<path d="M553.125,1978.125 L628.125,1978.125" data-sets="{'S0'}" stroke-width="7" stroke="white" />
<path d="M553.125,2053.125 L628.125,2128.125" data-sets="{'S5'}" stroke-width="7" stroke="white" />
<path d="M628.125,328.125 L703.125,328.125" data-sets="{'S1'}" stroke-width="7" stroke="white" />
<path d="M628.125,928.125 L703.125,853.125" data-sets="{'S1'}" stroke-width="7" stroke="white" />
<path d="M628.125,928.125 L628.125,1003.125" data-sets="{'S1'}" stroke-width="7" stroke="white" />
<path d="M628.125,1003.125 L703.125,928.125" data-sets="{'S0'}" stroke-width="7" stroke="white" />
<path d="M628.125,1003.125 L703.125,1078.125" data-sets="{'S1'}" stroke-width="7" stroke="white" />
<path d="M628.125,1303.125 L703.125,1228.125" data-sets="{'S1'}" stroke-width="7" stroke="white" />
<path d="M628.125,1678.125 L703.125,1678.125" data-sets="{'S1'}" stroke-width="7" stroke="white" />
<path d="M628.125,1978.125 L703.125,1978.125" data-sets="{'S0'}" stroke-width="7" stroke="white" />
<path d="M628.125,2128.125 L703.125,2203.125" data-sets="{'S5'}" stroke-width="7" stroke="white" />
<path d="M703.125,328.125 L778.125,328.125" data-sets="{'S1'}" stroke-width="7" stroke="white" />
<path d="M703.125,703.125 L778.125,703.125" data-sets="{'S3'}" stroke-width="7" stroke="white" />
<path d="M703.125,703.125 L703.125,778.125" data-sets="{'S2'}" stroke-width="7" stroke="white" />
<path d="M703.125,778.125 L778.125,853.125" data-sets="{'S2'}" stroke-width="7" stroke="white" />
<path d="M703.125,853.125 L778.125,778.125" data-sets="{'S1'}" stroke-width="7" stroke="white" />
<path d="M703.125,928.125 L778.125,853.125" data-sets="{'S0'}" stroke-width="7" stroke="white" />
<path d="M703.125,928.125 L778.125,928.125" data-sets="{'S5'}" stroke-width="7" stroke="white" />
<path d="M703.125,928.125 L778.125,1003.125" data-sets="{'S5'}" stroke-width="7" stroke="white" />
<path d="M703.125,1078.125 L703.125,1153.125" data-sets="{'S1'}" stroke-width="7" stroke="white" />
<path d="M703.125,1153.125 L703.125,1228.125" data-sets="{'S1'}" stroke-width="7" stroke="white" />
<path d="M703.125,1678.125 L778.125,1753.125" data-sets="{'S1'}" stroke-width="7" stroke="white" />
<path d="M703.125,1828.125 L778.125,1753.125" data-sets="{'S0'}" stroke-width="7" stroke="white" />
<path d="M703.125,1828.125 L703.125,1903.125" data-sets="{'S0'}" stroke-width="7" stroke="white" />
<path d="M703.125,1903.125 L703.125,1978.125" data-sets="{'S0'}" stroke-width="7" stroke="white" />
<path d="M703.125,1978.125 L778.125,1978.125" data-sets="{'S0'}" stroke-width="7" stroke="white" />
<path d="M703.125,2203.125 L778.125,2203.125" data-sets="{'S5'}" stroke-width="7" stroke="white" />
<path d="M778.125,328.125 L853.125,328.125" data-sets="{'S1'}" stroke-width="7" stroke="white" />
<path d="M778.125,703.125 L853.125,703.125" data-sets="{'S3'}" stroke-width="7" stroke="white" />
<path d="M778.125,778.125 L853.125,778.125" data-sets="{'S1'}" stroke-width="7" stroke="white" />
<path d="M778.125,853.125 L853.125,778.125" data-sets="{'S0'}" stroke-width="7" stroke="white" />
<path d="M778.125,853.125 L853.125,928.125" data-sets="{'S2'}" stroke-width="7" stroke="white" />
<path d="M778.125,928.125 L853.125,853.125" data-sets="{'S5'}" stroke-width="7" stroke="white" />
<path d="M778.125,1003.125 L853.125,928.125" data-sets="{'S2'}" stroke-width="7" stroke="white" />
<path d="M778.125,1003.125 L778.125,1078.125" data-sets="{'S5', 'S2'}" stroke-width="7" stroke="white" />
<path d="M778.125,1078.125 L853.125,1153.125" data-sets="{'S5'}" stroke-width="7" stroke="white" />
<path d="M778.125,1753.125 L853.125,1678.125" data-sets="{'S0'}" stroke-width="7" stroke="white" />
<path d="M778.125,1753.125 L853.125,1828.125" data-sets="{'S1'}" stroke-width="7" stroke="white" />
<path d="M778.125,1978.125 L853.125,1978.125" data-sets="{'S0'}" stroke-width="7" stroke="white" />
<path d="M778.125,2203.125 L853.125,2203.125" data-sets="{'S5'}" stroke-width="7" stroke="white" />
<path d="M853.125,328.125 L928.125,328.125" data-sets="{'S1'}" stroke-width="7" stroke="white" />
<path d="M853.125,403.125 L928.125,328.125" data-sets="{'S0', 'S1'}" stroke-width="7" stroke="white" />
<path d="M853.125,403.125 L853.125,478.125" data-sets="{'S0', 'S1'}" stroke-width="7" stroke="white" />
<path d="M853.125,478.125 L853.125,553.125" data-sets="{'S0', 'S1'}" stroke-width="7" stroke="white" />
<path d="M853.125,553.125 L853.125,628.125" data-sets="{'S0', 'S1'}" stroke-width="7" stroke="white" />
<path d="M853.125,628.125 L853.125,703.125" data-sets="{'S0', 'S1'}" stroke-width="7" stroke="white" />
<path d="M853.125,703.125 L928.125,703.125" data-sets="{'S3'}" stroke-width="7" stroke="white" />
<path d="M853.125,703.125 L853.125,778.125" data-sets="{'S0', 'S1'}" stroke-width="7" stroke="white" />
<path d="M853.125,778.125 L928.125,853.125" data-sets="{'S0'}" stroke-width="7" stroke="white" />
<path d="M853.125,853.125 L928.125,778.125" data-sets="{'S5'}" stroke-width="7" stroke="white" />
<path d="M853.125,928.125 L928.125,1003.125" data-sets="{'S2'}" stroke-width="7" stroke="white" />
<path d="M853.125,1153.125 L853.125,1228.125" data-sets="{'S5'}" stroke-width="7" stroke="white" />
<path d="M853.125,1228.125 L853.125,1303.125" data-sets="{'S5'}" stroke-width="7" stroke="white" />
<path d="M853.125,1828.125 L928.125,1903.125" data-sets="{'S1'}" stroke-width="7" stroke="white" />
<path d="M853.125,1978.125 L928.125,1978.125" data-sets="{'S0'}" stroke-width="7" stroke="white" />
<path d="M853.125,2203.125 L928.125,2128.125" data-sets="{'S5'}" stroke-width="7" stroke="white" />
<path d="M928.125,328.125 L1003.125,253.125" data-sets="{'S1'}" stroke-width="7" stroke="white" />
<path d="M928.125,703.125 L1003.125,703.125" data-sets="{'S3'}" stroke-width="7" stroke="white" />
<path d="M928.125,778.125 L1003.125,703.125" data-sets="{'S5'}" stroke-width="7" stroke="white" />
<path d="M928.125,853.125 L1003.125,853.125" data-sets="{'S0'}" stroke-width="7" stroke="white" />
<path d="M928.125,1003.125 L1003.125,1003.125" data-sets="{'S2'}" stroke-width="7" stroke="white" />
<path d="M928.125,1903.125 L1003.125,1978.125" data-sets="{'S1'}" stroke-width="7" stroke="white" />
<path d="M928.125,1978.125 L1003.125,1978.125" data-sets="{'S0'}" stroke-width="7" stroke="white" />
<path d="M928.125,2053.125 L1003.125,1978.125" data-sets="{'S0', 'S1'}" stroke-width="7" stroke="white" />
<path d="M928.125,2053.125 L928.125,2128.125" data-sets="{'S0', 'S1'}" stroke-width="7" stroke="white" />
<path d="M928.125,2128.125 L1003.125,2053.125" data-sets="{'S5'}" stroke-width="7" stroke="white" />
<path d="M928.125,2128.125 L928.125,2203.125" data-sets="{'S0', 'S1'}" stroke-width="7" stroke="white" />
<path d="M928.125,2203.125 L928.125,2278.125" data-sets="{'S0', 'S1'}" stroke-width="7" stroke="white" />
<path d="M928.125,2278.125 L928.125,2353.125" data-sets="{'S0', 'S1'}" stroke-width="7" stroke="white" />
<path d="M928.125,2353.125 L1003.125,2353.125" data-sets="{'S1'}" stroke-width="7" stroke="white" />
<path d="M1003.125,253.125 L1078.125,178.125" data-sets="{'S1'}" stroke-width="7" stroke="white" />
<path d="M1003.125,703.125 L1078.125,703.125" data-sets="{'S5', 'S3'}" stroke-width="7" stroke="white" />
<path d="M1003.125,853.125 L1078.125,853.125" data-sets="{'S0'}" stroke-width="7" stroke="white" />
<path d="M1003.125,1003.125 L1078.125,1003.125" data-sets="{'S2'}" stroke-width="7" stroke="white" />
<path d="M1003.125,2053.125 L1078.125,2053.125" data-sets="{'S5'}" stroke-width="7" stroke="white" />
<path d="M1003.125,2353.125 L1078.125,2353.125" data-sets="{'S1'}" stroke-width="7" stroke="white" />
<path d="M1078.125,178.125 L1153.125,178.125" data-sets="{'S1'}" stroke-width="7" stroke="white" />
<path d="M1078.125,703.125 L1153.125,703.125" data-sets="{'S5', 'S3'}" stroke-width="7" stroke="white" />
<path d="M1078.125,853.125 L1153.125,853.125" data-sets="{'S0'}" stroke-width="7" stroke="white" />
<path d="M1078.125,1003.125 L1153.125,1003.125" data-sets="{'S2'}" stroke-width="7" stroke="white" />
<path d="M1078.125,2053.125 L1153.125,2053.125" data-sets="{'S5'}" stroke-width="7" stroke="white" />
<path d="M1078.125,2353.125 L1153.125,2353.125" data-sets="{'S1'}" stroke-width="7" stroke="white" />
<path d="M1153.125,178.125 L1228.125,178.125" data-sets="{'S1'}" stroke-width="7" stroke="white" />
<path d="M1153.125,703.125 L1228.125,703.125" data-sets="{'S5'}" stroke-width="7" stroke="white" />
<path d="M1153.125,703.125 L1228.125,778.125" data-sets="{'S3'}" stroke-width="7" stroke="white" />
<path d="M1153.125,853.125 L1228.125,853.125" data-sets="{'S0'}" stroke-width="7" stroke="white" />
<path d="M1153.125,1003.125 L1228.125,1003.125" data-sets="{'S2'}" stroke-width="7" stroke="white" />
<path d="M1153.125,1453.125 L1228.125,1378.125" data-sets="{'S2'}" stroke-width="7" stroke="white" />
<path d="M1153.125,1453.125 L1228.125,1453.125" data-sets="{'S2'}" stroke-width="7" stroke="white" />
<path d="M1153.125,2053.125 L1228.125,2053.125" data-sets="{'S5'}" stroke-width="7" stroke="white" />
<path d="M1153.125,2353.125 L1228.125,2353.125" data-sets="{'S1'}" stroke-width="7" stroke="white" />
<path d="M1228.125,178.125 L1303.125,178.125" data-sets="{'S1'}" stroke-width="7" stroke="white" />
<path d="M1228.125,703.125 L1303.125,628.125" data-sets="{'S0'}" stroke-width="7" stroke="white" />
<path d="M1228.125,703.125 L1303.125,703.125" data-sets="{'S5'}" stroke-width="7" stroke="white" />
<path d="M1228.125,703.125 L1228.125,778.125" data-sets="{'S0'}" stroke-width="7" stroke="white" />
<path d="M1228.125,778.125 L1303.125,853.125" data-sets="{'S3'}" stroke-width="7" stroke="white" />
<path d="M1228.125,778.125 L1228.125,853.125" data-sets="{'S0'}" stroke-width="7" stroke="white" />
<path d="M1228.125,853.125 L1303.125,928.125" data-sets="{'S0'}" stroke-width="7" stroke="white" />
<path d="M1228.125,1003.125 L1303.125,1003.125" data-sets="{'S2'}" stroke-width="7" stroke="white" />
<path d="M1228.125,1078.125 L1303.125,1003.125" data-sets="{'S0'}" stroke-width="7" stroke="white" />
<path d="M1228.125,1378.125 L1303.125,1303.125" data-sets="{'S2'}" stroke-width="7" stroke="white" />
<path d="M1228.125,1453.125 L1303.125,1453.125" data-sets="{'S2'}" stroke-width="7" stroke="white" />
<path d="M1228.125,2053.125 L1303.125,1978.125" data-sets="{'S5'}" stroke-width="7" stroke="white" />
<path d="M1228.125,2353.125 L1303.125,2353.125" data-sets="{'S1'}" stroke-width="7" stroke="white" />
<path d="M1303.125,178.125 L1378.125,178.125" data-sets="{'S1'}" stroke-width="7" stroke="white" />
<path d="M1303.125,628.125 L1378.125,553.125" data-sets="{'S0'}" stroke-width="7" stroke="white" />
<path d="M1303.125,703.125 L1378.125,703.125" data-sets="{'S5'}" stroke-width="7" stroke="white" />
<path d="M1303.125,853.125 L1378.125,928.125" data-sets="{'S3'}" stroke-width="7" stroke="white" />
<path d="M1303.125,928.125 L1303.125,1003.125" data-sets="{'S0'}" stroke-width="7" stroke="white" />
<path d="M1303.125,1003.125 L1378.125,928.125" data-sets="{'S2'}" stroke-width="7" stroke="white" />
<path d="M1303.125,1003.125 L1303.125,1078.125" data-sets="{'S2'}" stroke-width="7" stroke="white" />
<path d="M1303.125,1078.125 L1303.125,1153.125" data-sets="{'S2'}" stroke-width="7" stroke="white" />
<path d="M1303.125,1153.125 L1303.125,1228.125" data-sets="{'S2'}" stroke-width="7" stroke="white" />
<path d="M1303.125,1228.125 L1303.125,1303.125" data-sets="{'S2'}" stroke-width="7" stroke="white" />
<path d="M1303.125,1453.125 L1378.125,1453.125" data-sets="{'S2'}" stroke-width="7" stroke="white" />
<path d="M1303.125,1978.125 L1378.125,1903.125" data-sets="{'S5'}" stroke-width="7" stroke="white" />
<path d="M1303.125,2353.125 L1378.125,2353.125" data-sets="{'S1'}" stroke-width="7" stroke="white" />
<path d="M1378.125,178.125 L1453.125,178.125" data-sets="{'S1'}" stroke-width="7" stroke="white" />
<path d="M1378.125,553.125 L1453.125,478.125" data-sets="{'S0'}" stroke-width="7" stroke="white" />
<path d="M1378.125,703.125 L1453.125,703.125" data-sets="{'S5'}" stroke-width="7" stroke="white" />
<path d="M1378.125,928.125 L1453.125,853.125" data-sets="{'S2'}" stroke-width="7" stroke="white" />
<path d="M1378.125,928.125 L1453.125,1003.125" data-sets="{'S3'}" stroke-width="7" stroke="white" />
<path d="M1378.125,1453.125 L1453.125,1453.125" data-sets="{'S2'}" stroke-width="7" stroke="white" />
<path d="M1378.125,1678.125 L1453.125,1603.125" data-sets="{'S5'}" stroke-width="7" stroke="white" />
<path d="M1378.125,1678.125 L1378.125,1753.125" data-sets="{'S5'}" stroke-width="7" stroke="white" />
<path d="M1378.125,1753.125 L1378.125,1828.125" data-sets="{'S5'}" stroke-width="7" stroke="white" />
<path d="M1378.125,1828.125 L1378.125,1903.125" data-sets="{'S5'}" stroke-width="7" stroke="white" />
<path d="M1378.125,1903.125 L1453.125,1903.125" data-sets="{'S5'}" stroke-width="7" stroke="white" />
<path d="M1378.125,2353.125 L1453.125,2353.125" data-sets="{'S3', 'S4'}" stroke-width="7" stroke="white" />
<path d="M1453.125,178.125 L1453.125,253.125" data-sets="{'S1'}" stroke-width="7" stroke="white" />
<path d="M1453.125,253.125 L1453.125,328.125" data-sets="{'S1'}" stroke-width="7" stroke="white" />
<path d="M1453.125,328.125 L1453.125,403.125" data-sets="{'S1'}" stroke-width="7" stroke="white" />
<path d="M1453.125,403.125 L1453.125,478.125" data-sets="{'S1'}" stroke-width="7" stroke="white" />
<path d="M1453.125,478.125 L1528.125,478.125" data-sets="{'S0'}" stroke-width="7" stroke="white" />
<path d="M1453.125,478.125 L1528.125,553.125" data-sets="{'S1'}" stroke-width="7" stroke="white" />
<path d="M1453.125,703.125 L1528.125,703.125" data-sets="{'S5'}" stroke-width="7" stroke="white" />
<path d="M1453.125,853.125 L1528.125,778.125" data-sets="{'S2'}" stroke-width="7" stroke="white" />
<path d="M1453.125,1003.125 L1453.125,1078.125" data-sets="{'S3'}" stroke-width="7" stroke="white" />
<path d="M1453.125,1078.125 L1453.125,1153.125" data-sets="{'S3'}" stroke-width="7" stroke="white" />
<path d="M1453.125,1153.125 L1453.125,1228.125" data-sets="{'S3'}" stroke-width="7" stroke="white" />
<path d="M1453.125,1228.125 L1453.125,1303.125" data-sets="{'S3'}" stroke-width="7" stroke="white" />
<path d="M1453.125,1303.125 L1453.125,1378.125" data-sets="{'S3'}" stroke-width="7" stroke="white" />
<path d="M1453.125,1378.125 L1453.125,1453.125" data-sets="{'S3'}" stroke-width="7" stroke="white" />
<path d="M1453.125,1453.125 L1528.125,1528.125" data-sets="{'S2'}" stroke-width="7" stroke="white" />
<path d="M1453.125,1453.125 L1453.125,1528.125" data-sets="{'S3'}" stroke-width="7" stroke="white" />
<path d="M1453.125,1528.125 L1453.125,1603.125" data-sets="{'S3'}" stroke-width="7" stroke="white" />
<path d="M1453.125,1603.125 L1528.125,1528.125" data-sets="{'S5'}" stroke-width="7" stroke="white" />
<path d="M1453.125,1603.125 L1453.125,1678.125" data-sets="{'S3'}" stroke-width="7" stroke="white" />
<path d="M1453.125,1678.125 L1528.125,1753.125" data-sets="{'S3'}" stroke-width="7" stroke="white" />
<path d="M1453.125,1903.125 L1528.125,1903.125" data-sets="{'S5'}" stroke-width="7" stroke="white" />
<path d="M1453.125,2353.125 L1528.125,2278.125" data-sets="{'S4'}" stroke-width="7" stroke="white" />
<path d="M1453.125,2353.125 L1528.125,2353.125" data-sets="{'S3'}" stroke-width="7" stroke="white" />
<path d="M1528.125,478.125 L1603.125,478.125" data-sets="{'S0'}" stroke-width="7" stroke="white" />
<path d="M1528.125,553.125 L1528.125,628.125" data-sets="{'S1'}" stroke-width="7" stroke="white" />
<path d="M1528.125,628.125 L1528.125,703.125" data-sets="{'S1'}" stroke-width="7" stroke="white" />
<path d="M1528.125,703.125 L1603.125,703.125" data-sets="{'S5'}" stroke-width="7" stroke="white" />
<path d="M1528.125,703.125 L1528.125,778.125" data-sets="{'S1'}" stroke-width="7" stroke="white" />
<path d="M1528.125,778.125 L1603.125,778.125" data-sets="{'S2'}" stroke-width="7" stroke="white" />
<path d="M1528.125,778.125 L1528.125,853.125" data-sets="{'S1'}" stroke-width="7" stroke="white" />
<path d="M1528.125,853.125 L1528.125,928.125" data-sets="{'S1'}" stroke-width="7" stroke="white" />
<path d="M1528.125,928.125 L1528.125,1003.125" data-sets="{'S1'}" stroke-width="7" stroke="white" />
<path d="M1528.125,1003.125 L1528.125,1078.125" data-sets="{'S1'}" stroke-width="7" stroke="white" />
<path d="M1528.125,1078.125 L1603.125,1078.125" data-sets="{'S1'}" stroke-width="7" stroke="white" />
<path d="M1528.125,1528.125 L1603.125,1453.125" data-sets="{'S5'}" stroke-width="7" stroke="white" />
<path d="M1528.125,1528.125 L1603.125,1603.125" data-sets="{'S2'}" stroke-width="7" stroke="white" />
<path d="M1528.125,1753.125 L1603.125,1828.125" data-sets="{'S3'}" stroke-width="7" stroke="white" />
<path d="M1528.125,1903.125 L1603.125,1903.125" data-sets="{'S5'}" stroke-width="7" stroke="white" />
<path d="M1528.125,2278.125 L1603.125,2203.125" data-sets="{'S4'}" stroke-width="7" stroke="white" />
<path d="M1528.125,2353.125 L1603.125,2353.125" data-sets="{'S3'}" stroke-width="7" stroke="white" />
<path d="M1528.125,2428.125 L1603.125,2353.125" data-sets="{'S0'}" stroke-width="7" stroke="white" />
<path d="M1603.125,478.125 L1678.125,553.125" data-sets="{'S0'}" stroke-width="7" stroke="white" />
<path d="M1603.125,478.125 L1603.125,553.125" data-sets="{'S2'}" stroke-width="7" stroke="white" />
<path d="M1603.125,553.125 L1603.125,628.125" data-sets="{'S2'}" stroke-width="7" stroke="white" />
<path d="M1603.125,628.125 L1678.125,703.125" data-sets="{'S2'}" stroke-width="7" stroke="white" />
<path d="M1603.125,703.125 L1678.125,703.125" data-sets="{'S5'}" stroke-width="7" stroke="white" />
<path d="M1603.125,778.125 L1678.125,778.125" data-sets="{'S2'}" stroke-width="7" stroke="white" />
<path d="M1603.125,1078.125 L1678.125,1078.125" data-sets="{'S1'}" stroke-width="7" stroke="white" />
<path d="M1603.125,1453.125 L1678.125,1378.125" data-sets="{'S5'}" stroke-width="7" stroke="white" />
<path d="M1603.125,1453.125 L1678.125,1453.125" data-sets="{'S0'}" stroke-width="7" stroke="white" />
<path d="M1603.125,1603.125 L1678.125,1678.125" data-sets="{'S2'}" stroke-width="7" stroke="white" />
<path d="M1603.125,1828.125 L1678.125,1903.125" data-sets="{'S3'}" stroke-width="7" stroke="white" />
<path d="M1603.125,1903.125 L1678.125,1903.125" data-sets="{'S5'}" stroke-width="7" stroke="white" />
<path d="M1603.125,2203.125 L1678.125,2128.125" data-sets="{'S4'}" stroke-width="7" stroke="white" />
<path d="M1603.125,2353.125 L1678.125,2278.125" data-sets="{'S0'}" stroke-width="7" stroke="white" />
<path d="M1603.125,2353.125 L1678.125,2353.125" data-sets="{'S3'}" stroke-width="7" stroke="white" />
<path d="M1678.125,553.125 L1753.125,478.125" data-sets="{'S0'}" stroke-width="7" stroke="white" />
<path d="M1678.125,553.125 L1753.125,628.125" data-sets="{'S0'}" stroke-width="7" stroke="white" />
<path d="M1678.125,703.125 L1753.125,778.125" data-sets="{'S5', 'S2'}" stroke-width="7" stroke="white" />
<path d="M1678.125,778.125 L1753.125,778.125" data-sets="{'S2'}" stroke-width="7" stroke="white" />
<path d="M1678.125,1078.125 L1753.125,1078.125" data-sets="{'S1'}" stroke-width="7" stroke="white" />
<path d="M1678.125,1378.125 L1753.125,1303.125" data-sets="{'S5'}" stroke-width="7" stroke="white" />
<path d="M1678.125,1453.125 L1753.125,1453.125" data-sets="{'S0'}" stroke-width="7" stroke="white" />
<path d="M1678.125,1678.125 L1753.125,1753.125" data-sets="{'S2'}" stroke-width="7" stroke="white" />
<path d="M1678.125,1903.125 L1753.125,1978.125" data-sets="{'S5', 'S3'}" stroke-width="7" stroke="white" />
<path d="M1678.125,2128.125 L1753.125,2053.125" data-sets="{'S4'}" stroke-width="7" stroke="white" />
<path d="M1678.125,2203.125 L1753.125,2278.125" data-sets="{'S0'}" stroke-width="7" stroke="white" />
<path d="M1678.125,2278.125 L1753.125,2278.125" data-sets="{'S0'}" stroke-width="7" stroke="white" />
<path d="M1678.125,2353.125 L1753.125,2353.125" data-sets="{'S3'}" stroke-width="7" stroke="white" />
<path d="M1753.125,478.125 L1828.125,403.125" data-sets="{'S0'}" stroke-width="7" stroke="white" />
<path d="M1753.125,628.125 L1753.125,703.125" data-sets="{'S0'}" stroke-width="7" stroke="white" />
<path d="M1753.125,703.125 L1753.125,778.125" data-sets="{'S0'}" stroke-width="7" stroke="white" />
<path d="M1753.125,778.125 L1828.125,778.125" data-sets="{'S4'}" stroke-width="7" stroke="white" />
<path d="M1753.125,778.125 L1828.125,853.125" data-sets="{'S0'}" stroke-width="7" stroke="white" />
<path d="M1753.125,778.125 L1753.125,853.125" data-sets="{'S5'}" stroke-width="7" stroke="white" />
<path d="M1753.125,853.125 L1753.125,928.125" data-sets="{'S5'}" stroke-width="7" stroke="white" />
<path d="M1753.125,928.125 L1753.125,1003.125" data-sets="{'S5'}" stroke-width="7" stroke="white" />
<path d="M1753.125,1003.125 L1753.125,1078.125" data-sets="{'S5'}" stroke-width="7" stroke="white" />
<path d="M1753.125,1078.125 L1828.125,1078.125" data-sets="{'S1'}" stroke-width="7" stroke="white" />
<path d="M1753.125,1078.125 L1828.125,1153.125" data-sets="{'S5'}" stroke-width="7" stroke="white" />
<path d="M1753.125,1303.125 L1828.125,1228.125" data-sets="{'S5'}" stroke-width="7" stroke="white" />
<path d="M1753.125,1453.125 L1828.125,1453.125" data-sets="{'S0'}" stroke-width="7" stroke="white" />
<path d="M1753.125,1753.125 L1828.125,1828.125" data-sets="{'S2'}" stroke-width="7" stroke="white" />
<path d="M1753.125,1903.125 L1828.125,1828.125" data-sets="{'S2'}" stroke-width="7" stroke="white" />
<path d="M1753.125,1903.125 L1753.125,1978.125" data-sets="{'S2'}" stroke-width="7" stroke="white" />
<path d="M1753.125,1978.125 L1828.125,2053.125" data-sets="{'S5', 'S3'}" stroke-width="7" stroke="white" />
<path d="M1753.125,1978.125 L1753.125,2053.125" data-sets="{'S2'}" stroke-width="7" stroke="white" />
<path d="M1753.125,2053.125 L1828.125,1978.125" data-sets="{'S4'}" stroke-width="7" stroke="white" />
<path d="M1753.125,2053.125 L1753.125,2128.125" data-sets="{'S2'}" stroke-width="7" stroke="white" />
<path d="M1753.125,2128.125 L1753.125,2203.125" data-sets="{'S2'}" stroke-width="7" stroke="white" />
<path d="M1753.125,2203.125 L1753.125,2278.125" data-sets="{'S2'}" stroke-width="7" stroke="white" />
<path d="M1753.125,2278.125 L1828.125,2203.125" data-sets="{'S0'}" stroke-width="7" stroke="white" />
<path d="M1753.125,2353.125 L1828.125,2353.125" data-sets="{'S3'}" stroke-width="7" stroke="white" />
<path d="M1828.125,403.125 L1903.125,403.125" data-sets="{'S0'}" stroke-width="7" stroke="white" />
<path d="M1828.125,778.125 L1903.125,778.125" data-sets="{'S4'}" stroke-width="7" stroke="white" />
<path d="M1828.125,853.125 L1903.125,928.125" data-sets="{'S0'}" stroke-width="7" stroke="white" />
<path d="M1828.125,1078.125 L1903.125,1078.125" data-sets="{'S1'}" stroke-width="7" stroke="white" />
<path d="M1828.125,1153.125 L1903.125,1078.125" data-sets="{'S0'}" stroke-width="7" stroke="white" />
<path d="M1828.125,1153.125 L1903.125,1228.125" data-sets="{'S0'}" stroke-width="7" stroke="white" />
<path d="M1828.125,1153.125 L1828.125,1228.125" data-sets="{'S5'}" stroke-width="7" stroke="white" />
<path d="M1828.125,1453.125 L1903.125,1453.125" data-sets="{'S0'}" stroke-width="7" stroke="white" />
<path d="M1828.125,1978.125 L1903.125,1903.125" data-sets="{'S4'}" stroke-width="7" stroke="white" />
<path d="M1828.125,2053.125 L1903.125,2128.125" data-sets="{'S5', 'S3'}" stroke-width="7" stroke="white" />
<path d="M1828.125,2203.125 L1903.125,2203.125" data-sets="{'S0'}" stroke-width="7" stroke="white" />
<path d="M1828.125,2353.125 L1903.125,2278.125" data-sets="{'S3'}" stroke-width="7" stroke="white" />
<path d="M1903.125,403.125 L1978.125,403.125" data-sets="{'S0'}" stroke-width="7" stroke="white" />
<path d="M1903.125,778.125 L1978.125,778.125" data-sets="{'S4'}" stroke-width="7" stroke="white" />
<path d="M1903.125,928.125 L1978.125,1003.125" data-sets="{'S0'}" stroke-width="7" stroke="white" />
<path d="M1903.125,1078.125 L1978.125,1003.125" data-sets="{'S0'}" stroke-width="7" stroke="white" />
<path d="M1903.125,1078.125 L1978.125,1078.125" data-sets="{'S1'}" stroke-width="7" stroke="white" />
<path d="M1903.125,1228.125 L1903.125,1303.125" data-sets="{'S0'}" stroke-width="7" stroke="white" />
<path d="M1903.125,1303.125 L1903.125,1378.125" data-sets="{'S0'}" stroke-width="7" stroke="white" />
<path d="M1903.125,1378.125 L1903.125,1453.125" data-sets="{'S0'}" stroke-width="7" stroke="white" />
<path d="M1903.125,1453.125 L1978.125,1378.125" data-sets="{'S0'}" stroke-width="7" stroke="white" />
<path d="M1903.125,1903.125 L1978.125,1828.125" data-sets="{'S4'}" stroke-width="7" stroke="white" />
<path d="M1903.125,2128.125 L1978.125,2203.125" data-sets="{'S5', 'S3'}" stroke-width="7" stroke="white" />
<path d="M1903.125,2203.125 L1978.125,2203.125" data-sets="{'S0'}" stroke-width="7" stroke="white" />
<path d="M1903.125,2278.125 L1978.125,2203.125" data-sets="{'S3'}" stroke-width="7" stroke="white" />
<path d="M1978.125,403.125 L2053.125,403.125" data-sets="{'S0'}" stroke-width="7" stroke="white" />
<path d="M1978.125,778.125 L2053.125,778.125" data-sets="{'S4'}" stroke-width="7" stroke="white" />
<path d="M1978.125,1078.125 L2053.125,1078.125" data-sets="{'S1'}" stroke-width="7" stroke="white" />
<path d="M1978.125,1378.125 L2053.125,1303.125" data-sets="{'S0'}" stroke-width="7" stroke="white" />
<path d="M1978.125,1828.125 L2053.125,1753.125" data-sets="{'S4'}" stroke-width="7" stroke="white" />
<path d="M1978.125,2203.125 L2053.125,2128.125" data-sets="{'S0'}" stroke-width="7" stroke="white" />
<path d="M2053.125,403.125 L2128.125,403.125" data-sets="{'S0'}" stroke-width="7" stroke="white" />
<path d="M2053.125,778.125 L2128.125,853.125" data-sets="{'S4'}" stroke-width="7" stroke="white" />
<path d="M2053.125,1078.125 L2128.125,1003.125" data-sets="{'S1'}" stroke-width="7" stroke="white" />
<path d="M2053.125,1303.125 L2128.125,1303.125" data-sets="{'S0'}" stroke-width="7" stroke="white" />
<path d="M2053.125,1753.125 L2128.125,1678.125" data-sets="{'S4'}" stroke-width="7" stroke="white" />
<path d="M2053.125,1978.125 L2128.125,1903.125" data-sets="{'S0'}" stroke-width="7" stroke="white" />
<path d="M2053.125,1978.125 L2053.125,2053.125" data-sets="{'S0'}" stroke-width="7" stroke="white" />
<path d="M2053.125,2053.125 L2053.125,2128.125" data-sets="{'S0'}" stroke-width="7" stroke="white" />
<path d="M2128.125,403.125 L2203.125,403.125" data-sets="{'S0'}" stroke-width="7" stroke="white" />
<path d="M2128.125,853.125 L2203.125,928.125" data-sets="{'S4'}" stroke-width="7" stroke="white" />
<path d="M2128.125,1003.125 L2203.125,1078.125" data-sets="{'S1'}" stroke-width="7" stroke="white" />
<path d="M2128.125,1303.125 L2203.125,1303.125" data-sets="{'S0'}" stroke-width="7" stroke="white" />
<path d="M2128.125,1303.125 L2203.125,1378.125" data-sets="{'S0'}" stroke-width="7" stroke="white" />
<path d="M2128.125,1678.125 L2203.125,1603.125" data-sets="{'S4'}" stroke-width="7" stroke="white" />
<path d="M2128.125,1753.125 L2203.125,1678.125" data-sets="{'S0'}" stroke-width="7" stroke="white" />
<path d="M2128.125,1753.125 L2128.125,1828.125" data-sets="{'S0'}" stroke-width="7" stroke="white" />
<path d="M2128.125,1828.125 L2128.125,1903.125" data-sets="{'S0'}" stroke-width="7" stroke="white" />
<path d="M2203.125,403.125 L2278.125,403.125" data-sets="{'S0'}" stroke-width="7" stroke="white" />
<path d="M2203.125,928.125 L2278.125,1003.125" data-sets="{'S4'}" stroke-width="7" stroke="white" />
<path d="M2203.125,1078.125 L2278.125,1153.125" data-sets="{'S1'}" stroke-width="7" stroke="white" />
<path d="M2203.125,1303.125 L2278.125,1303.125" data-sets="{'S0'}" stroke-width="7" stroke="white" />
<path d="M2203.125,1378.125 L2278.125,1453.125" data-sets="{'S0'}" stroke-width="7" stroke="white" />
<path d="M2203.125,1603.125 L2278.125,1528.125" data-sets="{'S4'}" stroke-width="7" stroke="white" />
<path d="M2203.125,1678.125 L2278.125,1603.125" data-sets="{'S0'}" stroke-width="7" stroke="white" />
<path d="M2278.125,403.125 L2353.125,403.125" data-sets="{'S0'}" stroke-width="7" stroke="white" />
<path d="M2278.125,1003.125 L2353.125,1078.125" data-sets="{'S4'}" stroke-width="7" stroke="white" />
<path d="M2278.125,1153.125 L2353.125,1228.125" data-sets="{'S1'}" stroke-width="7" stroke="white" />
<path d="M2278.125,1303.125 L2353.125,1228.125" data-sets="{'S0'}" stroke-width="7" stroke="white" />
<path d="M2278.125,1453.125 L2353.125,1528.125" data-sets="{'S0'}" stroke-width="7" stroke="white" />
<path d="M2278.125,1528.125 L2353.125,1453.125" data-sets="{'S4'}" stroke-width="7" stroke="white" />
<path d="M2278.125,1603.125 L2353.125,1603.125" data-sets="{'S0'}" stroke-width="7" stroke="white" />
<path d="M2353.125,1078.125 L2428.125,1153.125" data-sets="{'S4'}" stroke-width="7" stroke="white" />
<path d="M2353.125,1228.125 L2428.125,1153.125" data-sets="{'S0'}" stroke-width="7" stroke="white" />
<path d="M2353.125,1228.125 L2353.125,1303.125" data-sets="{'S1'}" stroke-width="7" stroke="white" />
<path d="M2353.125,1303.125 L2353.125,1378.125" data-sets="{'S1'}" stroke-width="7" stroke="white" />
<path d="M2353.125,1378.125 L2353.125,1453.125" data-sets="{'S1'}" stroke-width="7" stroke="white" />
<path d="M2353.125,1453.125 L2428.125,1378.125" data-sets="{'S4'}" stroke-width="7" stroke="white" />
<path d="M2353.125,1453.125 L2353.125,1528.125" data-sets="{'S1'}" stroke-width="7" stroke="white" />
<path d="M2353.125,1528.125 L2353.125,1603.125" data-sets="{'S0', 'S1'}" stroke-width="7" stroke="white" />
<path d="M2428.125,1153.125 L2428.125,1228.125" data-sets="{'S4'}" stroke-width="7" stroke="white" />
<path d="M2428.125,1228.125 L2428.125,1303.125" data-sets="{'S4'}" stroke-width="7" stroke="white" />
<path d="M2428.125,1303.125 L2428.125,1378.125" data-sets="{'S4'}" stroke-width="7" stroke="white" />
</svg>