<?xml version="1.0" encoding="UTF-8"?>
<svg xmlns="http://www.w3.org/2000/svg" xmlns:xlink="http://www.w3.org/1999/xlink"
     width="2550" height="2550" viewBox="0 0 2550 2550">
<defs>
</defs>
<path d="M2137.3384181084707,757.5978733925446 C2129.9032819294894,765.0330095715261,2115.033009571526,779.903281929489,2107.5978733925444,787.3384181084706" close="False" data-weight="0.0" stroke-width="6" fill="none" stroke="#ffff33" />
<path d="M2062.3384181084707,832.5978733925446 C2054.514499776649,840.4217917243665,2045.0390157551246,861.2109842448754,2037.2150974233027,869.0349025766973" close="False" data-weight="0.0" stroke-width="6" fill="none" stroke="#ffff33" />
<path d="M1994.0349025766973,912.2150974233027 C1986.0799512883486,920.1700487116514,1970.1700487116514,936.0799512883486,1962.2150974233027,944.0349025766973" close="False" data-weight="0.0" stroke-width="6" fill="none" stroke="#ffff33" />
<path d="M1919.0349025766973,987.2150974233027 C1911.0799512883486,995.1700487116514,1895.1700487116514,1011.0799512883486,1887.2150974233027,1019.0349025766973" close="False" data-weight="0.0" stroke-width="6" fill="none" stroke="#ffff33" />
<path d="M1844.0349025766973,1062.2150974233027 C1836.0799512883486,1070.1700487116514,1820.1700487116514,1086.0799512883486,1812.2150974233027,1094.0349025766973" close="False" data-weight="0.0" stroke-width="6" fill="none" stroke="#ffff33" />
<path d="M1769.0349025766973,1137.2150974233027 C1761.0799512883486,1145.1700487116514,1745.1700487116514,1161.0799512883486,1737.2150974233027,1169.0349025766973" close="False" data-weight="0.0" stroke-width="6" fill="none" stroke="#ffff33" />
<path d="M1694.0349025766973,1212.2150974233027 C1686.0799512883486,1220.1700487116514,1670.1700487116514,1236.0799512883486,1662.2150974233027,1244.0349025766973" close="False" data-weight="0.0" stroke-width="6" fill="none" stroke="#ffff33" />
<path d="M1619.0349025766973,1287.2150974233027 C1611.0799512883486,1295.1700487116514,1595.1700487116514,1311.0799512883486,1587.2150974233027,1319.0349025766973" close="False" data-weight="0.0" stroke-width="6" fill="none" stroke="#ffff33" />
<path d="M1544.0349025766973,1362.2150974233027 C1536.0799512883486,1370.1700487116514,1520.1700487116514,1386.0799512883486,1512.2150974233027,1394.0349025766973" close="False" data-weight="0.0" stroke-width="6" fill="none" stroke="#ffff33" />
<path d="M1469.0349025766973,1437.2150974233027 C1461.0799512883486,1445.1700487116514,1445.1700487116514,1461.0799512883486,1437.2150974233027,1469.0349025766973" close="False" data-weight="0.0" stroke-width="6" fill="none" stroke="#ffff33" />
<path d="M1382.125,2180.9834101745155 A57.45452644913189,57.45452644913189,0,0,1,1377.751534587334,2202.9703055610175 M1377.751534587334,2202.9703055610175 A57.454526449343206,57.454526449343206,0,0,1,1365.2969588128653,2221.609895436627 M1365.2969588128653,2221.609895436627" close="False" data-weight="1.0" stroke-width="6" fill="none" stroke="#ffff33" />
<path d="M1382.125,2105.9834101745155 C1382.125,2117.0542050872577,1382.125,2139.1957949127423,1382.125,2150.2665898254845" close="False" data-weight="0.0" stroke-width="6" fill="none" stroke="#ffff33" />
<path d="M1382.125,2030.9834101745155 C1382.125,2042.0542050872577,1382.125,2064.1957949127423,1382.125,2075.2665898254845" close="False" data-weight="0.0" stroke-width="6" fill="none" stroke="#ffff33" />
<path d="M1382.125,1955.9834101745155 C1382.125,1967.0542050872577,1382.125,1989.1957949127423,1382.125,2000.2665898254845" close="False" data-weight="0.0" stroke-width="6" fill="none" stroke="#ffff33" />
<path d="M1394.0349025766973,1512.2150974233027 C1386.0799512883486,1520.1700487116514,1370.1700487116514,1536.0799512883486,1362.2150974233027,1544.0349025766973" close="False" data-weight="0.0" stroke-width="6" fill="none" stroke="#ffff33" />
<path d="M1307.125,1775.2665898254845 A57.45452644918714,57.45452644918714,0,0,0,1302.7515345873453,1753.2796944389988 M1302.7515345873453,1753.2796944389988 A57.454526449186446,57.454526449186446,0,0,0,1290.2969588128951,1734.6401045634027 M1290.2969588128951,1734.6401045634027" close="False" data-weight="1.0" stroke-width="6" fill="none" stroke="#ffff33" />
<path d="M1250.625,2278.125 C1239.375,2278.125,1216.875,2278.125,1205.625,2278.125" close="False" data-weight="0.0" stroke-width="6" fill="none" stroke="#ffff33" />
<path d="M1175.625,2278.125 C1164.375,2278.125,1141.875,2278.125,1130.625,2278.125" close="False" data-weight="0.0" stroke-width="6" fill="none" stroke="#ffff33" />
<path d="M1100.625,2278.125 C1089.375,2278.125,1066.875,2278.125,1055.625,2278.125" close="False" data-weight="0.0" stroke-width="6" fill="none" stroke="#ffff33" />
<path d="M1025.625,2278.125 C1014.375,2278.125,991.875,2278.125,980.625,2278.125" close="False" data-weight="0.0" stroke-width="6" fill="none" stroke="#ffff33" />
<path d="M950.625,2278.125 C939.375,2278.125,916.875,2278.125,905.625,2278.125" close="False" data-weight="0.0" stroke-width="6" fill="none" stroke="#ffff33" />
<path d="M875.625,2278.125 C864.375,2278.125,841.875,2278.125,830.625,2278.125" close="False" data-weight="0.0" stroke-width="6" fill="none" stroke="#ffff33" />
<path d="M719.0349025766973,2069.0349025766973 A54.319805153391684,54.319805153391684,0,0,0,701.4122894815041,2057.259848962172 M701.4122894815041,2057.259848962172 A54.319805153393645,54.319805153393645,0,0,0,680.625,2053.125 M680.625,2053.125" close="False" data-weight="1.0" stroke-width="6" fill="none" stroke="#ffff33" />
<path d="M628.125,1880.625 C628.125,1891.875,628.125,1914.375,628.125,1925.625" close="False" data-weight="0.0" stroke-width="6" fill="none" stroke="#ffff33" />
<path d="M628.125,1805.625 C628.125,1816.875,628.125,1839.375,628.125,1850.625" close="False" data-weight="0.0" stroke-width="6" fill="none" stroke="#ffff33" />
<path d="M628.125,1730.625 C628.125,1741.875,628.125,1764.375,628.125,1775.625" close="False" data-weight="0.0" stroke-width="6" fill="none" stroke="#ffff33" />
<path d="M628.125,1655.625 C628.125,1666.875,628.125,1689.375,628.125,1700.625" close="False" data-weight="0.0" stroke-width="6" fill="none" stroke="#ffff33" />
<path d="M628.125,1580.625 C628.125,1591.875,628.125,1614.375,628.125,1625.625" close="False" data-weight="0.0" stroke-width="6" fill="none" stroke="#ffff33" />
<path d="M624.125,1505.9834101745155 C624.125,1517.1885193388287,628.125,1539.4198908356868,628.125,1550.625" close="False" data-weight="0.0" stroke-width="6" fill="none" stroke="#ffff33" />
<path d="M624.125,1430.9834101745155 C624.125,1442.0542050872577,624.125,1464.1957949127423,624.125,1475.2665898254845" close="False" data-weight="0.0" stroke-width="6" fill="none" stroke="#ffff33" />
<path d="M2137.3384181084393,757.5978733925758 L2182.597873392576,712.3384181084393" close="False" data-weight="2.060660171779821" stroke-width="6" fill="none" stroke="#ffff33" />
<path d="M2062.3384181084707,832.5978733925446 L2107.5978733925444,787.3384181084706" close="False" data-weight="2.060660171779821" stroke-width="6" fill="none" stroke="#ffff33" />
<path d="M1994.0349025766973,912.2150974233027 L2037.2150974233027,869.0349025766973" close="False" data-weight="2.060660171779821" stroke-width="6" fill="none" stroke="#ffff33" />
<path d="M1919.0349025766973,987.2150974233027 L1962.2150974233027,944.0349025766973" close="False" data-weight="2.060660171779821" stroke-width="6" fill="none" stroke="#ffff33" />
<path d="M1844.0349025766973,1062.2150974233027 L1887.2150974233027,1019.0349025766973" close="False" data-weight="2.060660171779821" stroke-width="6" fill="none" stroke="#ffff33" />
<path d="M1769.0349025766973,1137.2150974233027 L1812.2150974233027,1094.0349025766973" close="False" data-weight="2.060660171779821" stroke-width="6" fill="none" stroke="#ffff33" />
<path d="M1694.0349025766973,1212.2150974233027 L1737.2150974233027,1169.0349025766973" close="False" data-weight="2.060660171779821" stroke-width="6" fill="none" stroke="#ffff33" />
<path d="M1619.0349025766973,1287.2150974233027 L1662.2150974233027,1244.0349025766973" close="False" data-weight="2.060660171779821" stroke-width="6" fill="none" stroke="#ffff33" />
<path d="M1544.0349025766973,1362.2150974233027 L1587.2150974233027,1319.0349025766973" close="False" data-weight="2.060660171779821" stroke-width="6" fill="none" stroke="#ffff33" />
<path d="M1469.0349025766973,1437.2150974233027 L1512.2150974233027,1394.0349025766973" close="False" data-weight="2.060660171779821" stroke-width="6" fill="none" stroke="#ffff33" />
<path d="M1382.125,2150.2665898254845 L1382.125,2180.9834101745155" close="False" data-weight="1.75" stroke-width="6" fill="none" stroke="#ffff33" />
<path d="M1382.125,2075.2665898254845 L1382.125,2105.9834101745155" close="False" data-weight="1.75" stroke-width="6" fill="none" stroke="#ffff33" />
<path d="M1382.125,2000.2665898254845 L1382.125,2030.9834101745155" close="False" data-weight="1.75" stroke-width="6" fill="none" stroke="#ffff33" />
<path d="M1382.125,1925.2665898254845 L1382.125,1955.9834101745155" close="False" data-weight="1.75" stroke-width="6" fill="none" stroke="#ffff33" />
<path d="M1394.0349025766973,1512.2150974233027 L1437.2150974233027,1469.0349025766973" close="False" data-weight="2.060660171779821" stroke-width="6" fill="none" stroke="#ffff33" />
<path d="M1321.6098954365973,2265.296958812895 L1365.2969588128653,2221.609895436627" close="False" data-weight="2.060660171779821" stroke-width="6" fill="none" stroke="#ffff33" />
<path d="M1321.6098954365973,1840.9530411871049 L1365.2969588128951,1884.6401045634027" close="False" data-weight="2.060660171779821" stroke-width="6" fill="none" stroke="#ffff33" />
<path d="M1307.125,1775.2665898254845 L1307.125,1805.9834101745155" close="False" data-weight="1.75" stroke-width="6" fill="none" stroke="#ffff33" />
<path d="M1319.0349025766973,1587.2150974233027 L1362.2150974233027,1544.0349025766973" close="False" data-weight="2.060660171779821" stroke-width="6" fill="none" stroke="#ffff33" />
<path d="M1250.625,2278.125 L1280.625,2278.125" close="False" data-weight="1.75" stroke-width="6" fill="none" stroke="#ffff33" />
<path d="M1246.6098954365973,1690.9530411871049 L1290.2969588128653,1734.640104563373" close="False" data-weight="2.060660171779821" stroke-width="6" fill="none" stroke="#ffff33" />
<path d="M1246.6098954365973,1665.2969588128951 L1290.2969588129247,1621.6098954365677" close="False" data-weight="2.060660171779821" stroke-width="6" fill="none" stroke="#ffff33" />
<path d="M1175.625,2278.125 L1205.625,2278.125" close="False" data-weight="1.75" stroke-width="6" fill="none" stroke="#ffff33" />
<path d="M1100.625,2278.125 L1130.625,2278.125" close="False" data-weight="1.75" stroke-width="6" fill="none" stroke="#ffff33" />
<path d="M1025.625,2278.125 L1055.625,2278.125" close="False" data-weight="1.75" stroke-width="6" fill="none" stroke="#ffff33" />
<path d="M950.625,2278.125 L980.625,2278.125" close="False" data-weight="1.75" stroke-width="6" fill="none" stroke="#ffff33" />
<path d="M875.625,2278.125 L905.625,2278.125" close="False" data-weight="1.75" stroke-width="6" fill="none" stroke="#ffff33" />
<path d="M800.625,2278.125 L830.625,2278.125" close="False" data-weight="1.75" stroke-width="6" fill="none" stroke="#ffff33" />
<path d="M719.0349025766973,2219.0349025766973 L762.2150974233027,2262.2150974233027" close="False" data-weight="2.060660171779821" stroke-width="6" fill="none" stroke="#ffff33" />
<path d="M719.0349025766973,2187.2150974233027 L762.2150974233027,2144.0349025766973" close="False" data-weight="2.060660171779821" stroke-width="6" fill="none" stroke="#ffff33" />
<path d="M719.0349025766973,2069.0349025766973 L762.2150974233027,2112.2150974233027" close="False" data-weight="2.060660171779821" stroke-width="6" fill="none" stroke="#ffff33" />
<path d="M650.625,2053.125 L680.625,2053.125" close="False" data-weight="1.75" stroke-width="6" fill="none" stroke="#ffff33" />
<path d="M628.125,2000.625 L628.125,2030.625" close="False" data-weight="1.75" stroke-width="6" fill="none" stroke="#ffff33" />
<path d="M628.125,1925.625 L628.125,1955.625" close="False" data-weight="1.75" stroke-width="6" fill="none" stroke="#ffff33" />
<path d="M628.125,1850.625 L628.125,1880.625" close="False" data-weight="1.75" stroke-width="6" fill="none" stroke="#ffff33" />
<path d="M628.125,1775.625 L628.125,1805.625" close="False" data-weight="1.75" stroke-width="6" fill="none" stroke="#ffff33" />
<path d="M628.125,1700.625 L628.125,1730.625" close="False" data-weight="1.75" stroke-width="6" fill="none" stroke="#ffff33" />
<path d="M628.125,1625.625 L628.125,1655.625" close="False" data-weight="1.75" stroke-width="6" fill="none" stroke="#ffff33" />
<path d="M628.125,1550.625 L628.125,1580.625" close="False" data-weight="1.75" stroke-width="6" fill="none" stroke="#ffff33" />
<path d="M624.125,1475.2665898254845 L624.125,1505.9834101745155" close="False" data-weight="1.75" stroke-width="6" fill="none" stroke="#ffff33" />
<path d="M624.125,1400.2665898254845 L624.125,1430.9834101745155" close="False" data-weight="1.75" stroke-width="6" fill="none" stroke="#ffff33" />
<path d="M2300.2665898254845,624.125 A57.45452644924342,57.45452644924342,0,0,0,2278.2796944390157,628.4984654126432 M2278.2796944390157,628.4984654126432 A57.45452644902832,57.45452644902832,0,0,0,2259.6401045634325,640.9530411870752 M2259.6401045634325,640.9530411870752" close="False" data-weight="1.0" stroke-width="6" fill="none" stroke="#984ea3" />
<path d="M2150.625,703.125 C2139.375,703.125,2116.875,703.125,2105.625,703.125" close="False" data-weight="0.0" stroke-width="6" fill="none" stroke="#984ea3" />
<path d="M2075.625,703.125 C2064.375,703.125,2041.875,703.125,2030.625,703.125" close="False" data-weight="0.0" stroke-width="6" fill="none" stroke="#984ea3" />
<path d="M2000.625,703.125 A54.31980515339285,54.31980515339285,0,0,0,1979.837710518496,707.2598489621724 M1979.837710518496,707.2598489621724 A54.31980515339619,54.31980515339619,0,0,0,1962.2150974233027,719.0349025766973 M1962.2150974233027,719.0349025766973" close="False" data-weight="1.0" stroke-width="6" fill="none" stroke="#984ea3" />
<path d="M1919.0349025766973,762.2150974233027 C1911.0799512883486,770.1700487116514,1895.1700487116514,786.0799512883486,1887.2150974233027,794.0349025766973" close="False" data-weight="0.0" stroke-width="6" fill="none" stroke="#984ea3" />
<path d="M1844.0349025766973,837.2150974233027 C1836.0799512883486,845.1700487116514,1820.1700487116514,861.0799512883486,1812.2150974233027,869.0349025766973" close="False" data-weight="0.0" stroke-width="6" fill="none" stroke="#984ea3" />
<path d="M1769.0349025766973,912.2150974233027 C1761.0799512883486,920.1700487116514,1745.1700487116514,936.0799512883486,1737.2150974233027,944.0349025766973" close="False" data-weight="0.0" stroke-width="6" fill="none" stroke="#984ea3" />
<path d="M1694.0349025766973,987.2150974233027 C1686.0799512883486,995.1700487116514,1670.1700487116514,1011.0799512883486,1662.2150974233027,1019.0349025766973" close="False" data-weight="0.0" stroke-width="6" fill="none" stroke="#984ea3" />
<path d="M1619.0349025766973,1062.2150974233027 C1611.0799512883486,1070.1700487116514,1595.1700487116514,1086.0799512883486,1587.2150974233027,1094.0349025766973" close="False" data-weight="0.0" stroke-width="6" fill="none" stroke="#984ea3" />
<path d="M1544.0349025766973,1137.2150974233027 C1536.0799512883486,1145.1700487116514,1520.1700487116514,1161.0799512883486,1512.2150974233027,1169.0349025766973" close="False" data-weight="0.0" stroke-width="6" fill="none" stroke="#984ea3" />
<path d="M1469.0349025766973,1212.2150974233027 C1461.0799512883486,1220.1700487116514,1445.1700487116514,1236.0799512883486,1437.2150974233027,1244.0349025766973" close="False" data-weight="0.0" stroke-width="6" fill="none" stroke="#984ea3" />
<path d="M1394.0349025766973,1287.2150974233027 C1386.0799512883486,1295.1700487116514,1370.1700487116514,1311.0799512883486,1362.2150974233027,1319.0349025766973" close="False" data-weight="0.0" stroke-width="6" fill="none" stroke="#984ea3" />
<path d="M1319.0349025766973,1362.2150974233027 C1311.0799512883486,1370.1700487116514,1295.1700487116514,1386.0799512883486,1287.2150974233027,1394.0349025766973" close="False" data-weight="0.0" stroke-width="6" fill="none" stroke="#984ea3" />
<path d="M1244.0349025766973,1437.2150974233027 C1236.0799512883486,1445.1700487116514,1220.1700487116514,1461.0799512883486,1212.2150974233027,1469.0349025766973" close="False" data-weight="0.0" stroke-width="6" fill="none" stroke="#984ea3" />
<path d="M1169.0349025766973,1512.2150974233027 C1161.0799512883486,1520.1700487116514,1145.1700487116514,1536.0799512883486,1137.2150974233027,1544.0349025766973" close="False" data-weight="0.0" stroke-width="6" fill="none" stroke="#984ea3" />
<path d="M1094.0349025766973,1587.2150974233027 A54.3198051533949,54.3198051533949,0,0,1,1076.412289481504,1598.9901510378277 M1076.412289481504,1598.9901510378277 A54.3198051533941,54.3198051533941,0,0,1,1055.625,1603.125 M1055.625,1603.125" close="False" data-weight="1.0" stroke-width="6" fill="none" stroke="#984ea3" />
<path d="M1025.625,1603.125 C1014.375,1603.125,991.875,1603.125,980.625,1603.125" close="False" data-weight="0.0" stroke-width="6" fill="none" stroke="#984ea3" />
<path d="M950.625,1603.125 C939.375,1603.125,916.875,1603.125,905.625,1603.125" close="False" data-weight="0.0" stroke-width="6" fill="none" stroke="#984ea3" />
<path d="M875.625,1603.125 C864.4198908356868,1603.125,842.1885193388287,1607.125,830.9834101745155,1607.125" close="False" data-weight="0.0" stroke-width="6" fill="none" stroke="#984ea3" />
<path d="M800.2665898254845,1607.125 C789.1957949127423,1607.125,767.0542050872577,1607.125,755.9834101745155,1607.125" close="False" data-weight="0.0" stroke-width="6" fill="none" stroke="#984ea3" />
<path d="M725.2665898254845,1607.125 C714.1957949127423,1607.125,692.0542050872577,1607.125,680.9834101745155,1607.125" close="False" data-weight="0.0" stroke-width="6" fill="none" stroke="#984ea3" />
<path d="M650.2665898254845,1607.125 C639.0614806611713,1607.125,616.8301091643132,1603.125,605.625,1603.125" close="False" data-weight="0.0" stroke-width="6" fill="none" stroke="#984ea3" />
<path d="M575.625,1603.125 C564.375,1603.125,541.875,1603.125,530.625,1603.125" close="False" data-weight="0.0" stroke-width="6" fill="none" stroke="#984ea3" />
<path d="M500.625,1603.125 C489.375,1603.125,466.875,1603.125,455.625,1603.125" close="False" data-weight="0.0" stroke-width="6" fill="none" stroke="#984ea3" />
<path d="M350.625,1603.125 C339.375,1603.125,316.875,1603.125,305.625,1603.125" close="False" data-weight="0.0" stroke-width="6" fill="none" stroke="#984ea3" />
<path d="M275.625,1603.125 C264.375,1603.125,241.875,1603.125,230.625,1603.125" close="False" data-weight="0.0" stroke-width="6" fill="none" stroke="#984ea3" />
<path d="M200.625,1603.125 A54.3198051533966,54.3198051533966,0,0,1,179.83771051849592,1598.990151037828 M179.83771051849592,1598.990151037828 A54.31980515339265,54.31980515339265,0,0,1,162.21509742330267,1587.2150974233027 M162.21509742330267,1587.2150974233027" close="False" data-weight="1.0" stroke-width="6" fill="none" stroke="#984ea3" />
<path d="M2300.2665898254845,624.125 L2330.9834101745155,624.125" close="False" data-weight="1.75" stroke-width="6" fill="none" stroke="#984ea3" />
<path d="M2215.953041187105,684.6401045634026 L2259.6401045634025,640.953041187105" close="False" data-weight="2.060660171779821" stroke-width="6" fill="none" stroke="#984ea3" />
<path d="M2150.625,703.125 L2180.625,703.125" close="False" data-weight="1.75" stroke-width="6" fill="none" stroke="#984ea3" />
<path d="M2075.625,703.125 L2105.625,703.125" close="False" data-weight="1.75" stroke-width="6" fill="none" stroke="#984ea3" />
<path d="M2000.625,703.125 L2030.625,703.125" close="False" data-weight="1.75" stroke-width="6" fill="none" stroke="#984ea3" />
<path d="M1919.0349025766973,762.2150974233027 L1962.2150974233027,719.0349025766973" close="False" data-weight="2.060660171779821" stroke-width="6" fill="none" stroke="#984ea3" />
<path d="M1844.0349025766973,837.2150974233027 L1887.2150974233027,794.0349025766973" close="False" data-weight="2.060660171779821" stroke-width="6" fill="none" stroke="#984ea3" />
<path d="M1769.0349025766973,912.2150974233027 L1812.2150974233027,869.0349025766973" close="False" data-weight="2.060660171779821" stroke-width="6" fill="none" stroke="#984ea3" />
<path d="M1694.0349025766973,987.2150974233027 L1737.2150974233027,944.0349025766973" close="False" data-weight="2.060660171779821" stroke-width="6" fill="none" stroke="#984ea3" />
<path d="M1619.0349025766973,1062.2150974233027 L1662.2150974233027,1019.0349025766973" close="False" data-weight="2.060660171779821" stroke-width="6" fill="none" stroke="#984ea3" />
<path d="M1544.0349025766973,1137.2150974233027 L1587.2150974233027,1094.0349025766973" close="False" data-weight="2.060660171779821" stroke-width="6" fill="none" stroke="#984ea3" />
<path d="M1469.0349025766973,1212.2150974233027 L1512.2150974233027,1169.0349025766973" close="False" data-weight="2.060660171779821" stroke-width="6" fill="none" stroke="#984ea3" />
<path d="M1394.0349025766973,1287.2150974233027 L1437.2150974233027,1244.0349025766973" close="False" data-weight="2.060660171779821" stroke-width="6" fill="none" stroke="#984ea3" />
<path d="M1319.0349025766973,1362.2150974233027 L1362.2150974233027,1319.0349025766973" close="False" data-weight="2.060660171779821" stroke-width="6" fill="none" stroke="#984ea3" />
<path d="M1244.0349025766973,1437.2150974233027 L1287.2150974233027,1394.0349025766973" close="False" data-weight="2.060660171779821" stroke-width="6" fill="none" stroke="#984ea3" />
<path d="M1169.0349025766973,1512.2150974233027 L1212.2150974233027,1469.0349025766973" close="False" data-weight="2.060660171779821" stroke-width="6" fill="none" stroke="#984ea3" />
<path d="M1094.0349025766973,1587.2150974233027 L1137.2150974233027,1544.0349025766973" close="False" data-weight="2.060660171779821" stroke-width="6" fill="none" stroke="#984ea3" />
<path d="M1025.625,1603.125 L1055.625,1603.125" close="False" data-weight="1.75" stroke-width="6" fill="none" stroke="#984ea3" />
<path d="M950.625,1603.125 L980.625,1603.125" close="False" data-weight="1.75" stroke-width="6" fill="none" stroke="#984ea3" />
<path d="M875.625,1603.125 L905.625,1603.125" close="False" data-weight="1.75" stroke-width="6" fill="none" stroke="#984ea3" />
<path d="M800.2665898254845,1607.125 L830.9834101745155,1607.125" close="False" data-weight="1.75" stroke-width="6" fill="none" stroke="#984ea3" />
<path d="M725.2665898254845,1607.125 L755.9834101745155,1607.125" close="False" data-weight="1.75" stroke-width="6" fill="none" stroke="#984ea3" />
<path d="M650.2665898254845,1607.125 L680.9834101745155,1607.125" close="False" data-weight="1.75" stroke-width="6" fill="none" stroke="#984ea3" />
<path d="M575.625,1603.125 L605.625,1603.125" close="False" data-weight="1.75" stroke-width="6" fill="none" stroke="#984ea3" />
<path d="M500.625,1603.125 L530.625,1603.125" close="False" data-weight="1.75" stroke-width="6" fill="none" stroke="#984ea3" />
<path d="M425.625,1603.125 L455.625,1603.125" close="False" data-weight="1.75" stroke-width="6" fill="none" stroke="#984ea3" />
<path d="M350.625,1603.125 L380.625,1603.125" close="False" data-weight="1.75" stroke-width="6" fill="none" stroke="#984ea3" />
<path d="M275.625,1603.125 L305.625,1603.125" close="False" data-weight="1.75" stroke-width="6" fill="none" stroke="#984ea3" />
<path d="M200.625,1603.125 L230.625,1603.125" close="False" data-weight="1.75" stroke-width="6" fill="none" stroke="#984ea3" />
<path d="M119.03490257669732,1544.0349025766973 L162.2150974233027,1587.2150974233027" close="False" data-weight="2.060660171779821" stroke-width="6" fill="none" stroke="#984ea3" />
<path d="M1244.0349025766973,2219.0349025766973 C1236.0799512883486,2211.0799512883486,1220.1700487116514,2195.1700487116514,1212.2150974233027,2187.2150974233027" close="False" data-weight="0.0" stroke-width="6" fill="none" stroke="#ff7f00" />
<path d="M1169.0349025766973,2144.0349025766973 C1161.0799512883486,2136.0799512883486,1145.1700487116514,2120.1700487116514,1137.2150974233027,2112.2150974233027" close="False" data-weight="0.0" stroke-width="6" fill="none" stroke="#ff7f00" />
<path d="M1094.0349025766973,2069.0349025766973 C1086.0799512883486,2061.0799512883486,1070.1700487116514,2045.1700487116514,1062.2150974233027,2037.2150974233027" close="False" data-weight="0.0" stroke-width="6" fill="none" stroke="#ff7f00" />
<path d="M1019.0349025766973,1994.0349025766973 C1011.0799512883486,1986.0799512883486,995.1700487116514,1970.1700487116514,987.2150974233027,1962.2150974233027" close="False" data-weight="0.0" stroke-width="6" fill="none" stroke="#ff7f00" />
<path d="M944.0349025766973,1919.0349025766973 C936.0799512883486,1911.0799512883486,920.1700487116514,1895.1700487116514,912.2150974233027,1887.2150974233027" close="False" data-weight="0.0" stroke-width="6" fill="none" stroke="#ff7f00" />
<path d="M869.0349025766973,1844.0349025766973 C861.0799512883486,1836.0799512883486,845.1700487116514,1820.1700487116514,837.2150974233027,1812.2150974233027" close="False" data-weight="0.0" stroke-width="6" fill="none" stroke="#ff7f00" />
<path d="M794.0349025766973,1769.0349025766973 C786.0799512883486,1761.0799512883486,770.1700487116514,1745.1700487116514,762.2150974233027,1737.2150974233027" close="False" data-weight="0.0" stroke-width="6" fill="none" stroke="#ff7f00" />
<path d="M719.0349025766973,1694.0349025766973 C711.0799512883486,1686.0799512883486,695.1700487116514,1670.1700487116514,687.2150974233027,1662.2150974233027" close="False" data-weight="0.0" stroke-width="6" fill="none" stroke="#ff7f00" />
<path d="M644.0349025766973,1619.0349025766973 A25.618833910302346,25.618833910302346,0,0,0,627.025088754549,1611.555180442502 M627.025088754549,1611.555180442502 A461.8796251652939,461.8796251652939,0,0,0,607.0952591551868,1611.125 M607.0952591551868,1611.125" close="False" data-weight="1.0" stroke-width="6" fill="none" stroke="#ff7f00" />
<path d="M574.1547408448131,1611.125 C563.6398704224066,1611.125,542.6101295775934,1611.125,532.0952591551869,1611.125" close="False" data-weight="0.0" stroke-width="6" fill="none" stroke="#ff7f00" />
<path d="M499.1547408448131,1611.125 C488.63987042240655,1611.125,467.61012957759345,1611.125,457.0952591551869,1611.125" close="False" data-weight="0.0" stroke-width="6" fill="none" stroke="#ff7f00" />
<path d="M328.125,1505.625 A54.31980515339285,54.31980515339285,0,0,0,332.2598489621724,1526.412289481504 M332.2598489621724,1526.412289481504 A54.31980515339627,54.31980515339627,0,0,0,344.03490257669733,1544.0349025766973 M344.03490257669733,1544.0349025766973" close="False" data-weight="1.0" stroke-width="6" fill="none" stroke="#ff7f00" />
<path d="M328.125,1430.625 C328.125,1441.875,328.125,1464.375,328.125,1475.625" close="False" data-weight="0.0" stroke-width="6" fill="none" stroke="#ff7f00" />
<path d="M328.125,1355.625 C328.125,1366.875,328.125,1389.375,328.125,1400.625" close="False" data-weight="0.0" stroke-width="6" fill="none" stroke="#ff7f00" />
<path d="M328.125,1280.625 C328.125,1291.875,328.125,1314.375,328.125,1325.625" close="False" data-weight="0.0" stroke-width="6" fill="none" stroke="#ff7f00" />
<path d="M328.125,1205.625 C328.125,1216.875,328.125,1239.375,328.125,1250.625" close="False" data-weight="0.0" stroke-width="6" fill="none" stroke="#ff7f00" />
<path d="M1244.0349025766973,2219.0349025766973 L1287.2150974233027,2262.2150974233027" close="False" data-weight="2.060660171779821" stroke-width="6" fill="none" stroke="#ff7f00" />
<path d="M1169.0349025766973,2144.0349025766973 L1212.2150974233027,2187.2150974233027" close="False" data-weight="2.060660171779821" stroke-width="6" fill="none" stroke="#ff7f00" />
<path d="M1094.0349025766973,2069.0349025766973 L1137.2150974233027,2112.2150974233027" close="False" data-weight="2.060660171779821" stroke-width="6" fill="none" stroke="#ff7f00" />
<path d="M1019.0349025766973,1994.0349025766973 L1062.2150974233027,2037.2150974233027" close="False" data-weight="2.060660171779821" stroke-width="6" fill="none" stroke="#ff7f00" />
<path d="M944.0349025766973,1919.0349025766973 L987.2150974233027,1962.2150974233027" close="False" data-weight="2.060660171779821" stroke-width="6" fill="none" stroke="#ff7f00" />
<path d="M869.0349025766973,1844.0349025766973 L912.2150974233027,1887.2150974233027" close="False" data-weight="2.060660171779821" stroke-width="6" fill="none" stroke="#ff7f00" />
<path d="M794.0349025766973,1769.0349025766973 L837.2150974233027,1812.2150974233027" close="False" data-weight="2.060660171779821" stroke-width="6" fill="none" stroke="#ff7f00" />
<path d="M719.0349025766973,1694.0349025766973 L762.2150974233027,1737.2150974233027" close="False" data-weight="2.060660171779821" stroke-width="6" fill="none" stroke="#ff7f00" />
<path d="M644.0349025766973,1619.0349025766973 L687.2150974233027,1662.2150974233027" close="False" data-weight="2.060660171779821" stroke-width="6" fill="none" stroke="#ff7f00" />
<path d="M574.1547408448131,1611.125 L607.0952591551869,1611.125" close="False" data-weight="1.75" stroke-width="6" fill="none" stroke="#ff7f00" />
<path d="M499.1547408448131,1611.125 L532.0952591551869,1611.125" close="False" data-weight="1.75" stroke-width="6" fill="none" stroke="#ff7f00" />
<path d="M424.1547408448131,1611.125 L457.0952591551869,1611.125" close="False" data-weight="1.75" stroke-width="6" fill="none" stroke="#ff7f00" />
<path d="M344.03490257669733,1544.0349025766973 L387.21509742330267,1587.2150974233027" close="False" data-weight="2.060660171779821" stroke-width="6" fill="none" stroke="#ff7f00" />
<path d="M328.125,1475.625 L328.125,1505.625" close="False" data-weight="1.75" stroke-width="6" fill="none" stroke="#ff7f00" />
<path d="M328.125,1400.625 L328.125,1430.625" close="False" data-weight="1.75" stroke-width="6" fill="none" stroke="#ff7f00" />
<path d="M328.125,1325.625 L328.125,1355.625" close="False" data-weight="1.75" stroke-width="6" fill="none" stroke="#ff7f00" />
<path d="M328.125,1250.625 L328.125,1280.625" close="False" data-weight="1.75" stroke-width="6" fill="none" stroke="#ff7f00" />
<path d="M328.125,1175.625 L328.125,1205.625" close="False" data-weight="1.75" stroke-width="6" fill="none" stroke="#ff7f00" />
<path d="M328.125,1100.625 L328.125,1130.625" close="False" data-weight="1.75" stroke-width="6" fill="none" stroke="#ff7f00" />
<path d="M2428.125,1280.625 A54.31980515339728,54.31980515339728,0,0,1,2423.9901510378277,1301.412289481504 M2423.9901510378277,1301.412289481504 A54.319805153387826,54.319805153387826,0,0,1,2412.2150974233027,1319.0349025766973 M2412.2150974233027,1319.0349025766973" close="False" data-weight="1.0" stroke-width="6" fill="none" stroke="#4daf4a" />
<path d="M2428.125,1205.625 C2428.125,1216.875,2428.125,1239.375,2428.125,1250.625" close="False" data-weight="0.0" stroke-width="6" fill="none" stroke="#4daf4a" />
<path d="M2424.125,1055.9834101745155 C2424.125,1067.0542050872577,2424.125,1089.1957949127423,2424.125,1100.2665898254845" close="False" data-weight="0.0" stroke-width="6" fill="none" stroke="#4daf4a" />
<path d="M2424.125,1025.2665898254845 A49.45452644918532,49.45452644918532,0,0,0,2420.360498327255,1006.3411618979196 M2420.360498327255,1006.3411618979196 A49.454526449188386,49.454526449188386,0,0,0,2409.6401045634025,990.296958812895 M2409.6401045634025,990.296958812895" close="False" data-weight="1.0" stroke-width="6" fill="none" stroke="#4daf4a" />
<path d="M2369.0349025766973,1362.2150974233027 C2361.0799512883486,1370.1700487116514,2345.1700487116514,1386.0799512883486,2337.2150974233027,1394.0349025766973" close="False" data-weight="0.0" stroke-width="6" fill="none" stroke="#4daf4a" />
<path d="M2294.0349025766973,1437.2150974233027 C2286.0799512883486,1445.1700487116514,2270.1700487116514,1461.0799512883486,2262.2150974233027,1469.0349025766973" close="False" data-weight="0.0" stroke-width="6" fill="none" stroke="#4daf4a" />
<path d="M2300.2665898254845,932.125 C2289.1957949127423,932.125,2267.0542050872577,932.125,2255.9834101745155,932.125" close="False" data-weight="0.0" stroke-width="6" fill="none" stroke="#4daf4a" />
<path d="M2219.0349025766973,1512.2150974233027 C2211.0799512883486,1520.1700487116514,2195.1700487116514,1536.0799512883486,2187.2150974233027,1544.0349025766973" close="False" data-weight="0.0" stroke-width="6" fill="none" stroke="#4daf4a" />
<path d="M2225.2665898254845,932.125 C2214.1957949127423,932.125,2192.0542050872577,932.125,2180.9834101745155,932.125" close="False" data-weight="0.0" stroke-width="6" fill="none" stroke="#4daf4a" />
<path d="M2203.125,605.625 C2203.125,616.875,2203.125,639.375,2203.125,650.625" close="False" data-weight="0.0" stroke-width="6" fill="none" stroke="#4daf4a" />
<path d="M2203.125,530.625 C2203.125,541.875,2203.125,564.375,2203.125,575.625" close="False" data-weight="0.0" stroke-width="6" fill="none" stroke="#4daf4a" />
<path d="M2203.125,455.625 C2203.125,466.875,2203.125,489.375,2203.125,500.625" close="False" data-weight="0.0" stroke-width="6" fill="none" stroke="#4daf4a" />
<path d="M2203.125,425.625 A54.31980515339956,54.31980515339956,0,0,0,2198.990151037828,404.83771051849584 M2198.990151037828,404.83771051849584 A54.31980515339,54.31980515339,0,0,0,2187.2150974233027,387.21509742330267 M2187.2150974233027,387.21509742330267" close="False" data-weight="1.0" stroke-width="6" fill="none" stroke="#4daf4a" />
<path d="M2144.0349025766973,1587.2150974233027 C2136.0799512883486,1595.1700487116514,2120.1700487116514,1611.0799512883486,2112.2150974233027,1619.0349025766973" close="False" data-weight="0.0" stroke-width="6" fill="none" stroke="#4daf4a" />
<path d="M2150.2665898254845,932.125 C2139.1957949127423,932.125,2117.0542050872577,932.125,2105.9834101745155,932.125" close="False" data-weight="0.0" stroke-width="6" fill="none" stroke="#4daf4a" />
<path d="M2144.0349025766973,762.2150974233027 C2136.0799512883486,770.1700487116514,2120.1700487116514,786.0799512883486,2112.2150974233027,794.0349025766973" close="False" data-weight="0.0" stroke-width="6" fill="none" stroke="#4daf4a" />
<path d="M2144.0349025766973,344.03490257669733 C2136.0799512883486,336.0799512883487,2120.1700487116514,320.1700487116513,2112.2150974233027,312.21509742330267" close="False" data-weight="0.0" stroke-width="6" fill="none" stroke="#4daf4a" />
<path d="M2069.0349025766973,1662.2150974233027 C2061.0799512883486,1670.1700487116514,2045.1700487116514,1686.0799512883486,2037.2150974233027,1694.0349025766973" close="False" data-weight="0.0" stroke-width="6" fill="none" stroke="#4daf4a" />
<path d="M2069.0349025766973,837.2150974233027 A101.06381732035837,101.06381732035837,0,0,0,2055.1192773467233,854.6002787616347 M2055.1192773467233,854.6002787616347 A38.62248500649957,38.62248500649957,0,0,0,2049.125,875.2665898254845 M2049.125,875.2665898254845" close="False" data-weight="1.0" stroke-width="6" fill="none" stroke="#4daf4a" />
<path d="M1994.0349025766973,1737.2150974233027 C1986.0799512883486,1745.1700487116514,1970.1700487116514,1761.0799512883486,1962.2150974233027,1769.0349025766973" close="False" data-weight="0.0" stroke-width="6" fill="none" stroke="#4daf4a" />
<path d="M2000.625,253.125 A54.31980515339285,54.31980515339285,0,0,1,1979.837710518496,248.99015103782762 M1979.837710518496,248.99015103782762 A54.319805153396246,54.319805153396246,0,0,1,1962.2150974233027,237.21509742330267 M1962.2150974233027,237.21509742330267" close="False" data-weight="1.0" stroke-width="6" fill="none" stroke="#4daf4a" />
<path d="M1919.0349025766973,1812.2150974233027 C1911.0799512883486,1820.1700487116514,1895.1700487116514,1836.0799512883486,1887.2150974233027,1844.0349025766973" close="False" data-weight="0.0" stroke-width="6" fill="none" stroke="#4daf4a" />
<path d="M1844.0349025766973,1887.2150974233027 C1836.0799512883486,1895.1700487116514,1820.1700487116514,1911.0799512883486,1812.2150974233027,1919.0349025766973" close="False" data-weight="0.0" stroke-width="6" fill="none" stroke="#4daf4a" />
<path d="M1769.0349025766973,1962.2150974233027 C1761.0799512883486,1970.1700487116514,1745.1700487116514,1986.0799512883486,1737.2150974233027,1994.0349025766973" close="False" data-weight="0.0" stroke-width="6" fill="none" stroke="#4daf4a" />
<path d="M1694.0349025766973,2037.2150974233027 C1686.0799512883486,2045.1700487116514,1670.1700487116514,2061.0799512883486,1662.2150974233027,2069.0349025766973" close="False" data-weight="0.0" stroke-width="6" fill="none" stroke="#4daf4a" />
<path d="M1619.0349025766973,2112.2150974233027 C1611.0799512883486,2120.1700487116514,1595.1700487116514,2136.0799512883486,1587.2150974233027,2144.0349025766973" close="False" data-weight="0.0" stroke-width="6" fill="none" stroke="#4daf4a" />
<path d="M1528.125,2330.625 C1528.125,2341.875,1528.125,2364.375,1528.125,2375.625" close="False" data-weight="0.0" stroke-width="6" fill="none" stroke="#4daf4a" />
<path d="M1528.125,2255.625 C1528.125,2266.875,1528.125,2289.375,1528.125,2300.625" close="False" data-weight="0.0" stroke-width="6" fill="none" stroke="#4daf4a" />
<path d="M1544.0349025766973,2187.2150974233027 A54.319805153402136,54.319805153402136,0,0,0,1532.259848962172,2204.8377105184964 M1532.259848962172,2204.8377105184964 A54.31980515339069,54.31980515339069,0,0,0,1528.125,2225.625 M1528.125,2225.625" close="False" data-weight="1.0" stroke-width="6" fill="none" stroke="#4daf4a" />
<path d="M1469.0349025766973,2369.0349025766973 C1461.0799512883486,2361.0799512883486,1445.1700487116514,2345.1700487116514,1437.2150974233027,2337.2150974233027" close="False" data-weight="0.0" stroke-width="6" fill="none" stroke="#4daf4a" />
<path d="M1394.0349025766973,2294.0349025766973 C1386.0799512883486,2286.0799512883486,1370.1700487116514,2270.1700487116514,1362.2150974233027,2262.2150974233027" close="False" data-weight="0.0" stroke-width="6" fill="none" stroke="#4daf4a" />
<path d="M1319.0349025766973,2219.0349025766973 C1311.0799512883486,2211.0799512883486,1295.1700487116514,2195.1700487116514,1287.2150974233027,2187.2150974233027" close="False" data-weight="0.0" stroke-width="6" fill="none" stroke="#4daf4a" />
<path d="M1244.0349025766973,2144.0349025766973 C1236.0799512883486,2136.0799512883486,1220.1700487116514,2120.1700487116514,1212.2150974233027,2112.2150974233027" close="False" data-weight="0.0" stroke-width="6" fill="none" stroke="#4daf4a" />
<path d="M1169.0349025766973,2069.0349025766973 C1161.0799512883486,2061.0799512883486,1145.1700487116514,2045.1700487116514,1137.2150974233027,2037.2150974233027" close="False" data-weight="0.0" stroke-width="6" fill="none" stroke="#4daf4a" />
<path d="M1094.0349025766973,1994.0349025766973 C1086.0799512883486,1986.0799512883486,1070.1700487116514,1970.1700487116514,1062.2150974233027,1962.2150974233027" close="False" data-weight="0.0" stroke-width="6" fill="none" stroke="#4daf4a" />
<path d="M1019.0349025766973,1919.0349025766973 C1011.0799512883486,1911.0799512883486,995.1700487116514,1895.1700487116514,987.2150974233027,1887.2150974233027" close="False" data-weight="0.0" stroke-width="6" fill="none" stroke="#4daf4a" />
<path d="M944.0349025766973,1844.0349025766973 C936.0799512883486,1836.0799512883486,920.1700487116514,1820.1700487116514,912.2150974233027,1812.2150974233027" close="False" data-weight="0.0" stroke-width="6" fill="none" stroke="#4daf4a" />
<path d="M869.0349025766973,1769.0349025766973 C861.0799512883486,1761.0799512883486,845.1700487116514,1745.1700487116514,837.2150974233027,1737.2150974233027" close="False" data-weight="0.0" stroke-width="6" fill="none" stroke="#4daf4a" />
<path d="M794.0349025766973,1694.0349025766973 C786.0799512883486,1686.0799512883486,770.1700487116514,1670.1700487116514,762.2150974233027,1662.2150974233027" close="False" data-weight="0.0" stroke-width="6" fill="none" stroke="#4daf4a" />
<path d="M719.0349025766973,1619.0349025766973 C711.0799512883486,1611.0799512883486,695.1700487116514,1595.1700487116514,687.2150974233027,1587.2150974233027" close="False" data-weight="0.0" stroke-width="6" fill="none" stroke="#4daf4a" />
<path d="M632.125,1505.9834101745155 A93.83039863674537,93.83039863674537,0,0,0,634.4027538039627,1526.5323014451633 M634.4027538039627,1526.5323014451633 A35.85816626156056,35.85816626156056,0,0,0,644.0349025766973,1544.0349025766973 M644.0349025766973,1544.0349025766973" close="False" data-weight="1.0" stroke-width="6" fill="none" stroke="#4daf4a" />
<path d="M632.125,1430.9834101745155 C632.125,1442.0542050872577,632.125,1464.1957949127423,632.125,1475.2665898254845" close="False" data-weight="0.0" stroke-width="6" fill="none" stroke="#4daf4a" />
<path d="M569.0349025766973,1319.0349025766973 C561.0799512883486,1311.0799512883486,545.1700487116514,1295.1700487116514,537.2150974233027,1287.2150974233027" close="False" data-weight="0.0" stroke-width="6" fill="none" stroke="#4daf4a" />
<path d="M494.03490257669733,1244.0349025766973 C486.0799512883487,1236.0799512883486,470.1700487116513,1220.1700487116514,462.21509742330267,1212.2150974233027" close="False" data-weight="0.0" stroke-width="6" fill="none" stroke="#4daf4a" />
<path d="M419.03490257669733,1169.0349025766973 A54.31980515339551,54.31980515339551,0,0,0,401.41228948150405,1157.259848962172 M401.41228948150405,1157.259848962172 A54.31980515339387,54.31980515339387,0,0,0,380.625,1153.125 M380.625,1153.125" close="False" data-weight="1.0" stroke-width="6" fill="none" stroke="#4daf4a" />
<path d="M2428.125,1250.625 L2428.125,1280.625" close="False" data-weight="1.75" stroke-width="6" fill="none" stroke="#4daf4a" />
<path d="M2428.125,1175.625 L2428.125,1205.625" close="False" data-weight="1.75" stroke-width="6" fill="none" stroke="#4daf4a" />
<path d="M2424.125,1100.2665898254845 L2424.125,1130.9834101745155" close="False" data-weight="1.75" stroke-width="6" fill="none" stroke="#4daf4a" />
<path d="M2424.125,1025.2665898254845 L2424.125,1055.9834101745155" close="False" data-weight="1.75" stroke-width="6" fill="none" stroke="#4daf4a" />
<path d="M2369.0349025766973,1362.2150974233027 L2412.2150974233027,1319.0349025766973" close="False" data-weight="2.060660171779821" stroke-width="6" fill="none" stroke="#4daf4a" />
<path d="M2365.953041187105,946.6098954365974 L2409.6401045634025,990.296958812895" close="False" data-weight="2.060660171779821" stroke-width="6" fill="none" stroke="#4daf4a" />
<path d="M2294.0349025766973,1437.2150974233027 L2337.2150974233027,1394.0349025766973" close="False" data-weight="2.060660171779821" stroke-width="6" fill="none" stroke="#4daf4a" />
<path d="M2300.2665898254845,932.125 L2330.9834101745155,932.125" close="False" data-weight="1.75" stroke-width="6" fill="none" stroke="#4daf4a" />
<path d="M2219.0349025766973,1512.2150974233027 L2262.2150974233027,1469.0349025766973" close="False" data-weight="2.060660171779821" stroke-width="6" fill="none" stroke="#4daf4a" />
<path d="M2225.2665898254845,932.125 L2255.9834101745155,932.125" close="False" data-weight="1.75" stroke-width="6" fill="none" stroke="#4daf4a" />
<path d="M2203.125,650.625 L2203.125,680.625" close="False" data-weight="1.75" stroke-width="6" fill="none" stroke="#4daf4a" />
<path d="M2203.125,575.625 L2203.125,605.625" close="False" data-weight="1.75" stroke-width="6" fill="none" stroke="#4daf4a" />
<path d="M2203.125,500.625 L2203.125,530.625" close="False" data-weight="1.75" stroke-width="6" fill="none" stroke="#4daf4a" />
<path d="M2203.125,425.625 L2203.125,455.625" close="False" data-weight="1.75" stroke-width="6" fill="none" stroke="#4daf4a" />
<path d="M2144.0349025766973,1587.2150974233027 L2187.2150974233027,1544.0349025766973" close="False" data-weight="2.060660171779821" stroke-width="6" fill="none" stroke="#4daf4a" />
<path d="M2150.2665898254845,932.125 L2180.9834101745155,932.125" close="False" data-weight="1.75" stroke-width="6" fill="none" stroke="#4daf4a" />
<path d="M2144.0349025766973,762.2150974233027 L2187.2150974233027,719.0349025766973" close="False" data-weight="2.060660171779821" stroke-width="6" fill="none" stroke="#4daf4a" />
<path d="M2144.0349025766973,344.03490257669733 L2187.2150974233027,387.21509742330267" close="False" data-weight="2.060660171779821" stroke-width="6" fill="none" stroke="#4daf4a" />
<path d="M2069.0349025766973,1662.2150974233027 L2112.2150974233027,1619.0349025766973" close="False" data-weight="2.060660171779821" stroke-width="6" fill="none" stroke="#4daf4a" />
<path d="M2075.2665898254845,932.125 L2105.9834101745155,932.125" close="False" data-weight="1.75" stroke-width="6" fill="none" stroke="#4daf4a" />
<path d="M2049.125,875.2665898254845 L2049.125,905.9834101745155" close="False" data-weight="1.75" stroke-width="6" fill="none" stroke="#4daf4a" />
<path d="M2069.0349025766973,837.2150974233027 L2112.2150974233027,794.0349025766973" close="False" data-weight="2.060660171779821" stroke-width="6" fill="none" stroke="#4daf4a" />
<path d="M2069.0349025766973,269.03490257669733 L2112.2150974233027,312.21509742330267" close="False" data-weight="2.060660171779821" stroke-width="6" fill="none" stroke="#4daf4a" />
<path d="M1994.0349025766973,1737.2150974233027 L2037.2150974233027,1694.0349025766973" close="False" data-weight="2.060660171779821" stroke-width="6" fill="none" stroke="#4daf4a" />
<path d="M2000.625,253.125 L2030.625,253.125" close="False" data-weight="1.75" stroke-width="6" fill="none" stroke="#4daf4a" />
<path d="M1919.0349025766973,1812.2150974233027 L1962.2150974233027,1769.0349025766973" close="False" data-weight="2.060660171779821" stroke-width="6" fill="none" stroke="#4daf4a" />
<path d="M1919.0349025766973,194.03490257669733 L1962.2150974233027,237.2150974233027" close="False" data-weight="2.060660171779821" stroke-width="6" fill="none" stroke="#4daf4a" />
<path d="M1844.0349025766973,1887.2150974233027 L1887.2150974233027,1844.0349025766973" close="False" data-weight="2.060660171779821" stroke-width="6" fill="none" stroke="#4daf4a" />
<path d="M1769.0349025766973,1962.2150974233027 L1812.2150974233027,1919.0349025766973" close="False" data-weight="2.060660171779821" stroke-width="6" fill="none" stroke="#4daf4a" />
<path d="M1694.0349025766973,2037.2150974233027 L1737.2150974233027,1994.0349025766973" close="False" data-weight="2.060660171779821" stroke-width="6" fill="none" stroke="#4daf4a" />
<path d="M1619.0349025766973,2112.2150974233027 L1662.2150974233027,2069.0349025766973" close="False" data-weight="2.060660171779821" stroke-width="6" fill="none" stroke="#4daf4a" />
<path d="M1528.125,2375.625 L1528.125,2405.625" close="False" data-weight="1.75" stroke-width="6" fill="none" stroke="#4daf4a" />
<path d="M1528.125,2300.625 L1528.125,2330.625" close="False" data-weight="1.75" stroke-width="6" fill="none" stroke="#4daf4a" />
<path d="M1528.125,2225.625 L1528.125,2255.625" close="False" data-weight="1.75" stroke-width="6" fill="none" stroke="#4daf4a" />
<path d="M1544.0349025766973,2187.2150974233027 L1587.2150974233027,2144.0349025766973" close="False" data-weight="2.060660171779821" stroke-width="6" fill="none" stroke="#4daf4a" />
<path d="M1469.0349025766973,2369.0349025766973 L1512.2150974233027,2412.2150974233027" close="False" data-weight="2.060660171779821" stroke-width="6" fill="none" stroke="#4daf4a" />
<path d="M1394.0349025766973,2294.0349025766973 L1437.2150974233027,2337.2150974233027" close="False" data-weight="2.060660171779821" stroke-width="6" fill="none" stroke="#4daf4a" />
<path d="M1319.0349025766973,2219.0349025766973 L1362.2150974233027,2262.2150974233027" close="False" data-weight="2.060660171779821" stroke-width="6" fill="none" stroke="#4daf4a" />
<path d="M1244.0349025766973,2144.0349025766973 L1287.2150974233027,2187.2150974233027" close="False" data-weight="2.060660171779821" stroke-width="6" fill="none" stroke="#4daf4a" />
<path d="M1169.0349025766973,2069.0349025766973 L1212.2150974233027,2112.2150974233027" close="False" data-weight="2.060660171779821" stroke-width="6" fill="none" stroke="#4daf4a" />
<path d="M1094.0349025766973,1994.0349025766973 L1137.2150974233027,2037.2150974233027" close="False" data-weight="2.060660171779821" stroke-width="6" fill="none" stroke="#4daf4a" />
<path d="M1019.0349025766973,1919.0349025766973 L1062.2150974233027,1962.2150974233027" close="False" data-weight="2.060660171779821" stroke-width="6" fill="none" stroke="#4daf4a" />
<path d="M944.0349025766973,1844.0349025766973 L987.2150974233027,1887.2150974233027" close="False" data-weight="2.060660171779821" stroke-width="6" fill="none" stroke="#4daf4a" />
<path d="M869.0349025766973,1769.0349025766973 L912.2150974233027,1812.2150974233027" close="False" data-weight="2.060660171779821" stroke-width="6" fill="none" stroke="#4daf4a" />
<path d="M794.0349025766973,1694.0349025766973 L837.2150974233027,1737.2150974233027" close="False" data-weight="2.060660171779821" stroke-width="6" fill="none" stroke="#4daf4a" />
<path d="M719.0349025766973,1619.0349025766973 L762.2150974233027,1662.2150974233027" close="False" data-weight="2.060660171779821" stroke-width="6" fill="none" stroke="#4daf4a" />
<path d="M644.0349025766973,1544.0349025766973 L687.2150974233027,1587.2150974233027" close="False" data-weight="2.060660171779821" stroke-width="6" fill="none" stroke="#4daf4a" />
<path d="M632.125,1475.2665898254845 L632.125,1505.9834101745155" close="False" data-weight="1.75" stroke-width="6" fill="none" stroke="#4daf4a" />
<path d="M632.125,1400.2665898254845 L632.125,1430.9834101745155" close="False" data-weight="1.75" stroke-width="6" fill="none" stroke="#4daf4a" />
<path d="M569.0349025766973,1319.0349025766973 L612.2150974233027,1362.2150974233027" close="False" data-weight="2.060660171779821" stroke-width="6" fill="none" stroke="#4daf4a" />
<path d="M494.03490257669733,1244.0349025766973 L537.2150974233027,1287.2150974233027" close="False" data-weight="2.060660171779821" stroke-width="6" fill="none" stroke="#4daf4a" />
<path d="M419.03490257669733,1169.0349025766973 L462.21509742330267,1212.2150974233027" close="False" data-weight="2.060660171779821" stroke-width="6" fill="none" stroke="#4daf4a" />
<path d="M350.625,1153.125 L380.625,1153.125" close="False" data-weight="1.75" stroke-width="6" fill="none" stroke="#4daf4a" />
<path d="M1599.125,830.9834101745155 A49.45452644918828,49.45452644918828,0,0,1,1595.360498327255,849.9088381020805 M1595.360498327255,849.9088381020805 A49.454526449185416,49.454526449185416,0,0,1,1584.6401045634027,865.953041187105 M1584.6401045634027,865.953041187105" close="False" data-weight="1.0" stroke-width="6" fill="none" stroke="#377eb8" />
<path d="M1550.2665898254845,782.125 C1539.1957949127423,782.125,1517.0542050872577,782.125,1505.9834101745155,782.125" close="False" data-weight="0.0" stroke-width="6" fill="none" stroke="#377eb8" />
<path d="M1524.125,605.9834101745155 A49.45452644918828,49.45452644918828,0,0,1,1520.360498327255,624.9088381020805 M1520.360498327255,624.9088381020805 A49.454526449185416,49.454526449185416,0,0,1,1509.6401045634027,640.953041187105 M1509.6401045634027,640.953041187105" close="False" data-weight="1.0" stroke-width="6" fill="none" stroke="#377eb8" />
<path d="M1544.0349025766973,419.03490257669733 C1536.0799512883486,411.0799512883487,1520.1700487116514,395.1700487116513,1512.2150974233027,387.21509742330267" close="False" data-weight="0.0" stroke-width="6" fill="none" stroke="#377eb8" />
<path d="M1475.2665898254845,924.125 C1464.1957949127423,924.125,1442.0542050872577,924.125,1430.9834101745155,924.125" close="False" data-weight="0.0" stroke-width="6" fill="none" stroke="#377eb8" />
<path d="M1475.2665898254845,782.125 C1464.1957949127423,782.125,1442.0542050872577,782.125,1430.9834101745155,782.125" close="False" data-weight="0.0" stroke-width="6" fill="none" stroke="#377eb8" />
<path d="M1469.0349025766973,344.03490257669733 C1461.0799512883486,336.0799512883487,1445.1700487116514,320.1700487116513,1437.2150974233027,312.21509742330267" close="False" data-weight="0.0" stroke-width="6" fill="none" stroke="#377eb8" />
<path d="M1374.125,1100.2665898254845 A49.45452644918828,49.45452644918828,0,0,0,1370.360498327255,1081.3411618979196 M1370.360498327255,1081.3411618979196 A49.454526449185096,49.454526449185096,0,0,0,1359.6401045634027,1065.2969588128951 M1359.6401045634027,1065.2969588128951" close="False" data-weight="1.0" stroke-width="6" fill="none" stroke="#377eb8" />
<path d="M1400.2665898254845,924.125 A57.45452644918703,57.45452644918703,0,0,0,1378.2796944389988,928.4984654126547 M1378.2796944389988,928.4984654126547 A57.454526449186446,57.454526449186446,0,0,0,1359.6401045634027,940.953041187105 M1359.6401045634027,940.953041187105" close="False" data-weight="1.0" stroke-width="6" fill="none" stroke="#377eb8" />
<path d="M1394.0349025766973,269.03490257669733 C1386.0799512883486,261.0799512883487,1370.1700487116514,245.1700487116513,1362.2150974233027,237.21509742330267" close="False" data-weight="0.0" stroke-width="6" fill="none" stroke="#377eb8" />
<path d="M1319.0349025766973,194.0349025766973 C1311.0799512883486,186.07995128834867,1295.1700487116514,170.1700487116513,1287.2150974233027,162.21509742330267" close="False" data-weight="0.0" stroke-width="6" fill="none" stroke="#377eb8" />
<path d="M1244.0349025766973,1212.2150974233027 C1236.0799512883486,1220.1700487116514,1220.1700487116514,1236.0799512883486,1212.2150974233027,1244.0349025766973" close="False" data-weight="0.0" stroke-width="6" fill="none" stroke="#377eb8" />
<path d="M1244.0349025766973,119.0349025766973 A54.3198051533952,54.3198051533952,0,0,0,1226.412289481504,107.25984896217221 M1226.412289481504,107.25984896217221 A54.319805153393986,54.319805153393986,0,0,0,1205.625,103.125 M1205.625,103.125" close="False" data-weight="1.0" stroke-width="6" fill="none" stroke="#377eb8" />
<path d="M1169.0349025766973,1287.2150974233027 C1161.0799512883486,1295.1700487116514,1145.1700487116514,1311.0799512883486,1137.2150974233027,1319.0349025766973" close="False" data-weight="0.0" stroke-width="6" fill="none" stroke="#377eb8" />
<path d="M1175.625,103.125 C1164.375,103.125,1141.875,103.125,1130.625,103.125" close="False" data-weight="0.0" stroke-width="6" fill="none" stroke="#377eb8" />
<path d="M1094.0349025766973,1362.2150974233027 C1086.0799512883486,1370.1700487116514,1070.1700487116514,1386.0799512883486,1062.2150974233027,1394.0349025766973" close="False" data-weight="0.0" stroke-width="6" fill="none" stroke="#377eb8" />
<path d="M1100.625,103.125 C1089.375,103.125,1066.875,103.125,1055.625,103.125" close="False" data-weight="0.0" stroke-width="6" fill="none" stroke="#377eb8" />
<path d="M1019.0349025766973,1437.2150974233027 C1011.0799512883486,1445.1700487116514,995.1700487116514,1461.0799512883486,987.2150974233027,1469.0349025766973" close="False" data-weight="0.0" stroke-width="6" fill="none" stroke="#377eb8" />
<path d="M1003.125,230.625 C1003.125,241.875,1003.125,264.375,1003.125,275.625" close="False" data-weight="0.0" stroke-width="6" fill="none" stroke="#377eb8" />
<path d="M944.0349025766973,1512.2150974233027 C936.0799512883486,1520.1700487116514,920.1700487116514,1536.0799512883486,912.2150974233027,1544.0349025766973" close="False" data-weight="0.0" stroke-width="6" fill="none" stroke="#377eb8" />
<path d="M869.0349025766973,1587.2150974233027 A35.85816626156056,35.85816626156056,0,0,1,851.5323014451633,1596.8472461960373 M851.5323014451633,1596.8472461960373 A93.83039863674549,93.83039863674549,0,0,1,830.9834101745155,1599.125 M830.9834101745155,1599.125" close="False" data-weight="1.0" stroke-width="6" fill="none" stroke="#377eb8" />
<path d="M800.2665898254845,1599.125 C789.1957949127423,1599.125,767.0542050872577,1599.125,755.9834101745155,1599.125" close="False" data-weight="0.0" stroke-width="6" fill="none" stroke="#377eb8" />
<path d="M778.125,380.625 C778.125,391.875,778.125,414.375,778.125,425.625" close="False" data-weight="0.0" stroke-width="6" fill="none" stroke="#377eb8" />
<path d="M778.125,350.625 A54.319805153394555,54.319805153394555,0,0,0,773.9901510378278,329.837710518496 M773.9901510378278,329.837710518496 A54.31980515339474,54.31980515339474,0,0,0,762.2150974233027,312.21509742330267 M762.2150974233027,312.21509742330267" close="False" data-weight="1.0" stroke-width="6" fill="none" stroke="#377eb8" />
<path d="M725.2665898254845,1599.125 C714.1957949127423,1599.125,692.0542050872577,1599.125,680.9834101745155,1599.125" close="False" data-weight="0.0" stroke-width="6" fill="none" stroke="#377eb8" />
<path d="M650.2665898254845,1599.125 C639.4275291193965,1599.125,617.934319861275,1595.125,607.0952591551869,1595.125" close="False" data-weight="0.0" stroke-width="6" fill="none" stroke="#377eb8" />
<path d="M644.0349025766973,312.21509742330267 C636.0799512883486,320.1700487116513,620.1700487116514,336.0799512883487,612.2150974233027,344.03490257669733" close="False" data-weight="0.0" stroke-width="6" fill="none" stroke="#377eb8" />
<path d="M574.1547408448131,1595.125 C563.6398704224066,1595.125,542.6101295775934,1595.125,532.0952591551869,1595.125" close="False" data-weight="0.0" stroke-width="6" fill="none" stroke="#377eb8" />
<path d="M553.125,455.625 C553.125,466.875,553.125,489.375,553.125,500.625" close="False" data-weight="0.0" stroke-width="6" fill="none" stroke="#377eb8" />
<path d="M569.0349025766973,387.21509742330267 A54.31980515339474,54.31980515339474,0,0,0,557.2598489621722,404.837710518496 M557.2598489621722,404.837710518496 A54.319805153394555,54.319805153394555,0,0,0,553.125,425.625 M553.125,425.625" close="False" data-weight="1.0" stroke-width="6" fill="none" stroke="#377eb8" />
<path d="M499.1547408448131,1595.125 C488.63987042240655,1595.125,467.61012957759345,1595.125,457.0952591551869,1595.125" close="False" data-weight="0.0" stroke-width="6" fill="none" stroke="#377eb8" />
<path d="M1599.125,800.2665898254845 L1599.125,830.9834101745155" close="False" data-weight="1.75" stroke-width="6" fill="none" stroke="#377eb8" />
<path d="M1540.9530411871049,909.6401045634026 L1584.6401045634027,865.953041187105" close="False" data-weight="2.060660171779821" stroke-width="6" fill="none" stroke="#377eb8" />
<path d="M1550.2665898254845,782.125 L1580.9834101745155,782.125" close="False" data-weight="1.75" stroke-width="6" fill="none" stroke="#377eb8" />
<path d="M1524.125,575.2665898254845 L1524.125,605.9834101745155" close="False" data-weight="1.75" stroke-width="6" fill="none" stroke="#377eb8" />
<path d="M1524.125,500.2665898254845 L1524.125,530.9834101745155" close="False" data-weight="1.75" stroke-width="6" fill="none" stroke="#377eb8" />
<path d="M1550.2665898254845,474.125 L1580.9834101745155,474.125" close="False" data-weight="1.75" stroke-width="6" fill="none" stroke="#377eb8" />
<path d="M1544.0349025766973,419.03490257669733 L1587.2150974233027,462.21509742330267" close="False" data-weight="2.060660171779821" stroke-width="6" fill="none" stroke="#377eb8" />
<path d="M1475.2665898254845,924.125 L1505.9834101745155,924.125" close="False" data-weight="1.75" stroke-width="6" fill="none" stroke="#377eb8" />
<path d="M1475.2665898254845,782.125 L1505.9834101745155,782.125" close="False" data-weight="1.75" stroke-width="6" fill="none" stroke="#377eb8" />
<path d="M1465.9530411871199,684.6401045633877 L1509.6401045634027,640.953041187105" close="False" data-weight="2.060660171779821" stroke-width="6" fill="none" stroke="#377eb8" />
<path d="M1469.0349025766973,344.03490257669733 L1512.2150974233027,387.21509742330267" close="False" data-weight="2.060660171779821" stroke-width="6" fill="none" stroke="#377eb8" />
<path d="M1374.125,1100.2665898254845 L1374.125,1130.9834101745155" close="False" data-weight="1.75" stroke-width="6" fill="none" stroke="#377eb8" />
<path d="M1400.2665898254845,924.125 L1430.9834101745155,924.125" close="False" data-weight="1.75" stroke-width="6" fill="none" stroke="#377eb8" />
<path d="M1400.2665898254845,782.125 L1430.9834101745155,782.125" close="False" data-weight="1.75" stroke-width="6" fill="none" stroke="#377eb8" />
<path d="M1374.125,725.2665898254845 L1374.125,755.9834101745155" close="False" data-weight="1.75" stroke-width="6" fill="none" stroke="#377eb8" />
<path d="M1400.2665898254845,699.125 L1430.9834101745155,699.125" close="False" data-weight="1.75" stroke-width="6" fill="none" stroke="#377eb8" />
<path d="M1394.0349025766973,269.03490257669733 L1437.2150974233027,312.21509742330267" close="False" data-weight="2.060660171779821" stroke-width="6" fill="none" stroke="#377eb8" />
<path d="M1325.2665898254845,1149.125 L1355.9834101745155,1149.125" close="False" data-weight="1.75" stroke-width="6" fill="none" stroke="#377eb8" />
<path d="M1315.9530411871049,1021.6098954365974 L1359.6401045634027,1065.2969588128951" close="False" data-weight="2.060660171779821" stroke-width="6" fill="none" stroke="#377eb8" />
<path d="M1315.9530411871049,984.6401045634026 L1359.6401045634027,940.953041187105" close="False" data-weight="2.060660171779821" stroke-width="6" fill="none" stroke="#377eb8" />
<path d="M1319.0349025766973,194.03490257669733 L1362.2150974233027,237.2150974233027" close="False" data-weight="2.060660171779821" stroke-width="6" fill="none" stroke="#377eb8" />
<path d="M1244.0349025766973,1212.2150974233027 L1287.2150974233027,1169.0349025766973" close="False" data-weight="2.060660171779821" stroke-width="6" fill="none" stroke="#377eb8" />
<path d="M1244.0349025766973,119.03490257669732 L1287.2150974233027,162.2150974233027" close="False" data-weight="2.060660171779821" stroke-width="6" fill="none" stroke="#377eb8" />
<path d="M1169.0349025766973,1287.2150974233027 L1212.2150974233027,1244.0349025766973" close="False" data-weight="2.060660171779821" stroke-width="6" fill="none" stroke="#377eb8" />
<path d="M1175.625,103.125 L1205.625,103.125" close="False" data-weight="1.75" stroke-width="6" fill="none" stroke="#377eb8" />
<path d="M1094.0349025766973,1362.2150974233027 L1137.2150974233027,1319.0349025766973" close="False" data-weight="2.060660171779821" stroke-width="6" fill="none" stroke="#377eb8" />
<path d="M1100.625,103.125 L1130.625,103.125" close="False" data-weight="1.75" stroke-width="6" fill="none" stroke="#377eb8" />
<path d="M1019.0349025766973,1437.2150974233027 L1062.2150974233027,1394.0349025766973" close="False" data-weight="2.060660171779821" stroke-width="6" fill="none" stroke="#377eb8" />
<path d="M1003.125,275.625 L1003.125,305.625" close="False" data-weight="1.75" stroke-width="6" fill="none" stroke="#377eb8" />
<path d="M1003.125,200.625 L1003.125,230.625" close="False" data-weight="1.75" stroke-width="6" fill="none" stroke="#377eb8" />
<path d="M1003.125,125.625 L1003.125,155.625" close="False" data-weight="1.75" stroke-width="6" fill="none" stroke="#377eb8" />
<path d="M1025.625,103.125 L1055.625,103.125" close="False" data-weight="1.75" stroke-width="6" fill="none" stroke="#377eb8" />
<path d="M944.0349025766973,1512.2150974233027 L987.2150974233027,1469.0349025766973" close="False" data-weight="2.060660171779821" stroke-width="6" fill="none" stroke="#377eb8" />
<path d="M950.625,328.125 L980.625,328.125" close="False" data-weight="1.75" stroke-width="6" fill="none" stroke="#377eb8" />
<path d="M869.0349025766973,1587.2150974233027 L912.2150974233027,1544.0349025766973" close="False" data-weight="2.060660171779821" stroke-width="6" fill="none" stroke="#377eb8" />
<path d="M869.0349025766973,387.21509742330267 L912.2150974233027,344.03490257669733" close="False" data-weight="2.060660171779821" stroke-width="6" fill="none" stroke="#377eb8" />
<path d="M800.2665898254845,1599.125 L830.9834101745155,1599.125" close="False" data-weight="1.75" stroke-width="6" fill="none" stroke="#377eb8" />
<path d="M794.0349025766973,462.21509742330267 L837.2150974233027,419.03490257669733" close="False" data-weight="2.060660171779821" stroke-width="6" fill="none" stroke="#377eb8" />
<path d="M778.125,425.625 L778.125,455.625" close="False" data-weight="1.75" stroke-width="6" fill="none" stroke="#377eb8" />
<path d="M778.125,350.625 L778.125,380.625" close="False" data-weight="1.75" stroke-width="6" fill="none" stroke="#377eb8" />
<path d="M725.2665898254845,1599.125 L755.9834101745155,1599.125" close="False" data-weight="1.75" stroke-width="6" fill="none" stroke="#377eb8" />
<path d="M719.0349025766973,269.03490257669733 L762.2150974233027,312.21509742330267" close="False" data-weight="2.060660171779821" stroke-width="6" fill="none" stroke="#377eb8" />
<path d="M650.2665898254845,1599.125 L680.9834101745155,1599.125" close="False" data-weight="1.75" stroke-width="6" fill="none" stroke="#377eb8" />
<path d="M644.0349025766973,312.21509742330267 L687.2150974233027,269.03490257669733" close="False" data-weight="2.060660171779821" stroke-width="6" fill="none" stroke="#377eb8" />
<path d="M574.1547408448131,1595.125 L607.0952591551869,1595.125" close="False" data-weight="1.75" stroke-width="6" fill="none" stroke="#377eb8" />
<path d="M553.125,500.625 L553.125,530.625" close="False" data-weight="1.75" stroke-width="6" fill="none" stroke="#377eb8" />
<path d="M553.125,425.625 L553.125,455.625" close="False" data-weight="1.75" stroke-width="6" fill="none" stroke="#377eb8" />
<path d="M569.0349025766973,387.21509742330267 L612.2150974233027,344.03490257669733" close="False" data-weight="2.060660171779821" stroke-width="6" fill="none" stroke="#377eb8" />
<path d="M499.1547408448131,1595.125 L532.0952591551869,1595.125" close="False" data-weight="1.75" stroke-width="6" fill="none" stroke="#377eb8" />
<path d="M424.1547408448131,1595.125 L457.0952591551869,1595.125" close="False" data-weight="1.75" stroke-width="6" fill="none" stroke="#377eb8" />
<path d="M2432.125,1055.9834101745155 C2432.125,1067.0542050872577,2432.125,1089.1957949127423,2432.125,1100.2665898254845" close="False" data-weight="0.0" stroke-width="6" fill="none" stroke="#e41a1c" />
<path d="M2432.125,1025.2665898254845 A57.45452644918714,57.45452644918714,0,0,0,2427.7515345873453,1003.2796944389988 M2427.7515345873453,1003.2796944389988 A57.45452644918701,57.45452644918701,0,0,0,2415.296958812895,984.6401045634026 M2415.296958812895,984.6401045634026" close="False" data-weight="1.0" stroke-width="6" fill="none" stroke="#e41a1c" />
<path d="M2369.0349025766973,1662.2150974233027 C2361.0799512883486,1670.1700487116514,2345.1700487116514,1686.0799512883486,2337.2150974233027,1694.0349025766973" close="False" data-weight="0.0" stroke-width="6" fill="none" stroke="#e41a1c" />
<path d="M2369.0349025766973,1212.2150974233027 C2361.0799512883486,1220.1700487116514,2345.1700487116514,1236.0799512883486,2337.2150974233027,1244.0349025766973" close="False" data-weight="0.0" stroke-width="6" fill="none" stroke="#e41a1c" />
<path d="M2294.0349025766973,1394.0349025766973 C2286.0799512883486,1386.0799512883486,2270.1700487116514,1370.1700487116514,2262.2150974233027,1362.2150974233027" close="False" data-weight="0.0" stroke-width="6" fill="none" stroke="#e41a1c" />
<path d="M2294.0349025766973,1287.2150974233027 A54.319805153402136,54.319805153402136,0,0,1,2276.4122894815036,1298.990151037828 M2276.4122894815036,1298.990151037828 A54.31980515339069,54.31980515339069,0,0,1,2255.625,1303.125 M2255.625,1303.125" close="False" data-weight="1.0" stroke-width="6" fill="none" stroke="#e41a1c" />
<path d="M2300.2665898254845,924.125 C2289.1957949127423,924.125,2267.0542050872577,924.125,2255.9834101745155,924.125" close="False" data-weight="0.0" stroke-width="6" fill="none" stroke="#e41a1c" />
<path d="M2300.2665898254845,632.125 A49.45452644912962,49.45452644912962,0,0,0,2281.3411618979035,635.8895016727564 M2281.3411618979035,635.8895016727564 A49.45452644934539,49.45452644934539,0,0,0,2265.2969588128653,646.6098954366271 M2265.2969588128653,646.6098954366271" close="False" data-weight="1.0" stroke-width="6" fill="none" stroke="#e41a1c" />
<path d="M2294.0349025766973,569.0349025766973 C2286.0799512883486,561.0799512883486,2270.1700487116514,545.1700487116514,2262.2150974233027,537.2150974233027" close="False" data-weight="0.0" stroke-width="6" fill="none" stroke="#e41a1c" />
<path d="M2225.2665898254845,924.125 C2214.1957949127423,924.125,2192.0542050872577,924.125,2180.9834101745155,924.125" close="False" data-weight="0.0" stroke-width="6" fill="none" stroke="#e41a1c" />
<path d="M2219.0349025766973,494.03490257669733 A54.319805153402584,54.319805153402584,0,0,0,2201.4122894815036,482.2598489621721 M2201.4122894815036,482.2598489621721 A54.319805153390575,54.319805153390575,0,0,0,2180.625,478.125 M2180.625,478.125" close="False" data-weight="1.0" stroke-width="6" fill="none" stroke="#e41a1c" />
<path d="M2150.2665898254845,924.125 C2139.1957949127423,924.125,2117.0542050872577,924.125,2105.9834101745155,924.125" close="False" data-weight="0.0" stroke-width="6" fill="none" stroke="#e41a1c" />
<path d="M2148.6521266074556,768.9115818915294 C2141.216990428474,776.346718070511,2126.3467180705106,791.2169904284739,2118.9115818915293,798.6521266074554" close="False" data-weight="0.0" stroke-width="6" fill="none" stroke="#e41a1c" />
<path d="M2150.625,478.125 C2139.375,478.125,2116.875,478.125,2105.625,478.125" close="False" data-weight="0.0" stroke-width="6" fill="none" stroke="#e41a1c" />
<path d="M2073.6521266074556,843.9115818915294 A85.70913402490062,85.70913402490062,0,0,0,2062.118884045306,858.2347403650584 M2062.118884045306,858.2347403650584 A31.540857881620923,31.540857881620923,0,0,0,2057.125,875.2665898254845 M2057.125,875.2665898254845" close="False" data-weight="1.0" stroke-width="6" fill="none" stroke="#e41a1c" />
<path d="M2075.625,478.125 C2064.375,478.125,2041.875,478.125,2030.625,478.125" close="False" data-weight="0.0" stroke-width="6" fill="none" stroke="#e41a1c" />
<path d="M2000.625,478.125 C1989.375,478.125,1966.875,478.125,1955.625,478.125" close="False" data-weight="0.0" stroke-width="6" fill="none" stroke="#e41a1c" />
<path d="M1925.625,1828.125 C1914.375,1828.125,1891.875,1828.125,1880.625,1828.125" close="False" data-weight="0.0" stroke-width="6" fill="none" stroke="#e41a1c" />
<path d="M1925.625,478.125 C1914.375,478.125,1891.875,478.125,1880.625,478.125" close="False" data-weight="0.0" stroke-width="6" fill="none" stroke="#e41a1c" />
<path d="M1828.125,1505.625 C1828.125,1516.875,1828.125,1539.375,1828.125,1550.625" close="False" data-weight="0.0" stroke-width="6" fill="none" stroke="#e41a1c" />
<path d="M1850.625,478.125 C1839.375,478.125,1816.875,478.125,1805.625,478.125" close="False" data-weight="0.0" stroke-width="6" fill="none" stroke="#e41a1c" />
<path d="M1775.625,478.125 C1764.375,478.125,1741.875,478.125,1730.625,478.125" close="False" data-weight="0.0" stroke-width="6" fill="none" stroke="#e41a1c" />
<path d="M1700.625,478.125 C1689.375,478.125,1666.875,478.125,1655.625,478.125" close="False" data-weight="0.0" stroke-width="6" fill="none" stroke="#e41a1c" />
<path d="M1607.125,830.9834101745155 A57.45452644918714,57.45452644918714,0,0,1,1602.7515345873453,852.9703055610012 M1602.7515345873453,852.9703055610012 A57.45452644918669,57.45452644918669,0,0,1,1590.2969588128951,871.6098954365974 M1590.2969588128951,871.6098954365974" close="False" data-weight="1.0" stroke-width="6" fill="none" stroke="#e41a1c" />
<path d="M1550.2665898254845,774.125 C1539.1957949127423,774.125,1517.0542050872577,774.125,1505.9834101745155,774.125" close="False" data-weight="0.0" stroke-width="6" fill="none" stroke="#e41a1c" />
<path d="M1532.125,605.9834101745155 A57.45452644918714,57.45452644918714,0,0,1,1527.7515345873453,627.9703055610012 M1527.7515345873453,627.9703055610012 A57.45452644918669,57.45452644918669,0,0,1,1515.2969588128951,646.6098954365974 M1515.2969588128951,646.6098954365974" close="False" data-weight="1.0" stroke-width="6" fill="none" stroke="#e41a1c" />
<path d="M1475.2665898254845,932.125 C1464.1957949127423,932.125,1442.0542050872577,932.125,1430.9834101745155,932.125" close="False" data-weight="0.0" stroke-width="6" fill="none" stroke="#e41a1c" />
<path d="M1475.2665898254845,774.125 C1464.1957949127423,774.125,1442.0542050872577,774.125,1430.9834101745155,774.125" close="False" data-weight="0.0" stroke-width="6" fill="none" stroke="#e41a1c" />
<path d="M1374.125,2180.9834101745155 A49.45452644924217,49.45452644924217,0,0,1,1370.3604983272664,2199.908838102064 M1370.3604983272664,2199.908838102064 A49.45452644902962,49.45452644902962,0,0,1,1359.6401045634323,2215.953041187075 M1359.6401045634323,2215.953041187075" close="False" data-weight="1.0" stroke-width="6" fill="none" stroke="#e41a1c" />
<path d="M1374.125,2105.9834101745155 C1374.125,2117.0542050872577,1374.125,2139.1957949127423,1374.125,2150.2665898254845" close="False" data-weight="0.0" stroke-width="6" fill="none" stroke="#e41a1c" />
<path d="M1374.125,2030.9834101745155 C1374.125,2042.0542050872577,1374.125,2064.1957949127423,1374.125,2075.2665898254845" close="False" data-weight="0.0" stroke-width="6" fill="none" stroke="#e41a1c" />
<path d="M1374.125,1955.9834101745155 C1374.125,1967.0542050872577,1374.125,1989.1957949127423,1374.125,2000.2665898254845" close="False" data-weight="0.0" stroke-width="6" fill="none" stroke="#e41a1c" />
<path d="M1382.125,1100.2665898254845 A57.45452644918714,57.45452644918714,0,0,0,1377.7515345873453,1078.2796944389988 M1377.7515345873453,1078.2796944389988 A57.454526449186446,57.454526449186446,0,0,0,1365.2969588128951,1059.6401045634027 M1365.2969588128951,1059.6401045634027" close="False" data-weight="1.0" stroke-width="6" fill="none" stroke="#e41a1c" />
<path d="M1400.2665898254845,932.125 A49.454526449188165,49.454526449188165,0,0,0,1381.3411618979196,935.8895016727449 M1381.3411618979196,935.8895016727449 A49.45452644918534,49.45452644918534,0,0,0,1365.2969588128951,946.6098954365974 M1365.2969588128951,946.6098954365974" close="False" data-weight="1.0" stroke-width="6" fill="none" stroke="#e41a1c" />
<path d="M1299.125,1775.2665898254845 A49.45452644918828,49.45452644918828,0,0,0,1295.360498327255,1756.3411618979196 M1295.360498327255,1756.3411618979196 A49.454526449185096,49.454526449185096,0,0,0,1284.6401045634027,1740.2969588128951 M1284.6401045634027,1740.2969588128951" close="False" data-weight="1.0" stroke-width="6" fill="none" stroke="#e41a1c" />
<path d="M1303.125,1505.625 C1303.125,1516.875,1303.125,1539.375,1303.125,1550.625" close="False" data-weight="0.0" stroke-width="6" fill="none" stroke="#e41a1c" />
<path d="M1303.125,1430.625 C1303.125,1441.875,1303.125,1464.375,1303.125,1475.625" close="False" data-weight="0.0" stroke-width="6" fill="none" stroke="#e41a1c" />
<path d="M1303.125,1355.625 C1303.125,1366.875,1303.125,1389.375,1303.125,1400.625" close="False" data-weight="0.0" stroke-width="6" fill="none" stroke="#e41a1c" />
<path d="M1303.125,1280.625 C1303.125,1291.875,1303.125,1314.375,1303.125,1325.625" close="False" data-weight="0.0" stroke-width="6" fill="none" stroke="#e41a1c" />
<path d="M1303.125,1205.625 C1303.125,1216.875,1303.125,1239.375,1303.125,1250.625" close="False" data-weight="0.0" stroke-width="6" fill="none" stroke="#e41a1c" />
<path d="M2432.125,1100.2665898254845 L2432.125,1130.9834101745155" close="False" data-weight="1.75" stroke-width="6" fill="none" stroke="#e41a1c" />
<path d="M2432.125,1025.2665898254845 L2432.125,1055.9834101745155" close="False" data-weight="1.75" stroke-width="6" fill="none" stroke="#e41a1c" />
<path d="M2369.0349025766973,1662.2150974233027 L2412.2150974233027,1619.0349025766973" close="False" data-weight="2.060660171779821" stroke-width="6" fill="none" stroke="#e41a1c" />
<path d="M2369.0349025766973,1544.0349025766973 L2412.2150974233027,1587.2150974233027" close="False" data-weight="2.060660171779821" stroke-width="6" fill="none" stroke="#e41a1c" />
<path d="M2353.125,1475.625 L2353.125,1505.625" close="False" data-weight="1.75" stroke-width="6" fill="none" stroke="#e41a1c" />
<path d="M2369.0349025766973,1212.2150974233027 L2412.2150974233027,1169.0349025766973" close="False" data-weight="2.060660171779821" stroke-width="6" fill="none" stroke="#e41a1c" />
<path d="M2371.6098954365975,940.953041187105 L2415.296958812895,984.6401045634026" close="False" data-weight="2.060660171779821" stroke-width="6" fill="none" stroke="#e41a1c" />
<path d="M2294.0349025766973,1737.2150974233027 L2337.2150974233027,1694.0349025766973" close="False" data-weight="2.060660171779821" stroke-width="6" fill="none" stroke="#e41a1c" />
<path d="M2294.0349025766973,1394.0349025766973 L2337.2150974233027,1437.2150974233027" close="False" data-weight="2.060660171779821" stroke-width="6" fill="none" stroke="#e41a1c" />
<path d="M2294.0349025766973,1287.2150974233027 L2337.2150974233027,1244.0349025766973" close="False" data-weight="2.060660171779821" stroke-width="6" fill="none" stroke="#e41a1c" />
<path d="M2300.2665898254845,924.125 L2330.9834101745155,924.125" close="False" data-weight="1.75" stroke-width="6" fill="none" stroke="#e41a1c" />
<path d="M2300.2665898254845,632.125 L2330.9834101745155,632.125" close="False" data-weight="1.75" stroke-width="6" fill="none" stroke="#e41a1c" />
<path d="M2294.0349025766973,569.0349025766973 L2337.2150974233027,612.2150974233027" close="False" data-weight="2.060660171779821" stroke-width="6" fill="none" stroke="#e41a1c" />
<path d="M2225.625,1753.125 L2255.625,1753.125" close="False" data-weight="1.75" stroke-width="6" fill="none" stroke="#e41a1c" />
<path d="M2219.0349025766973,1319.0349025766973 L2262.2150974233027,1362.2150974233027" close="False" data-weight="2.060660171779821" stroke-width="6" fill="none" stroke="#e41a1c" />
<path d="M2225.625,1303.125 L2255.625,1303.125" close="False" data-weight="1.75" stroke-width="6" fill="none" stroke="#e41a1c" />
<path d="M2225.2665898254845,924.125 L2255.9834101745155,924.125" close="False" data-weight="1.75" stroke-width="6" fill="none" stroke="#e41a1c" />
<path d="M2221.6098954365975,690.296958812895 L2265.296958812895,646.6098954365974" close="False" data-weight="2.060660171779821" stroke-width="6" fill="none" stroke="#e41a1c" />
<path d="M2219.0349025766973,494.03490257669733 L2262.2150974233027,537.2150974233027" close="False" data-weight="2.060660171779821" stroke-width="6" fill="none" stroke="#e41a1c" />
<path d="M2144.0349025766973,1812.2150974233027 L2187.2150974233027,1769.0349025766973" close="False" data-weight="2.060660171779821" stroke-width="6" fill="none" stroke="#e41a1c" />
<path d="M2150.2665898254845,924.125 L2180.9834101745155,924.125" close="False" data-weight="1.75" stroke-width="6" fill="none" stroke="#e41a1c" />
<path d="M2148.652126607487,768.911581891498 L2193.911581891498,723.6521266074868" close="False" data-weight="2.060660171779821" stroke-width="6" fill="none" stroke="#e41a1c" />
<path d="M2150.625,478.125 L2180.625,478.125" close="False" data-weight="1.75" stroke-width="6" fill="none" stroke="#e41a1c" />
<path d="M2069.0349025766973,1887.2150974233027 L2112.2150974233027,1844.0349025766973" close="False" data-weight="2.060660171779821" stroke-width="6" fill="none" stroke="#e41a1c" />
<path d="M2075.2665898254845,924.125 L2105.9834101745155,924.125" close="False" data-weight="1.75" stroke-width="6" fill="none" stroke="#e41a1c" />
<path d="M2057.125,875.2665898254845 L2057.125,905.9834101745155" close="False" data-weight="1.75" stroke-width="6" fill="none" stroke="#e41a1c" />
<path d="M2073.6521266074556,843.9115818915294 L2118.9115818915293,798.6521266074554" close="False" data-weight="2.060660171779821" stroke-width="6" fill="none" stroke="#e41a1c" />
<path d="M2075.625,478.125 L2105.625,478.125" close="False" data-weight="1.75" stroke-width="6" fill="none" stroke="#e41a1c" />
<path d="M1994.0349025766973,1844.0349025766973 L2037.2150974233027,1887.2150974233027" close="False" data-weight="2.060660171779821" stroke-width="6" fill="none" stroke="#e41a1c" />
<path d="M1994.0349025766973,1469.0349025766973 L2037.2150974233027,1512.2150974233027" close="False" data-weight="2.060660171779821" stroke-width="6" fill="none" stroke="#e41a1c" />
<path d="M2000.625,478.125 L2030.625,478.125" close="False" data-weight="1.75" stroke-width="6" fill="none" stroke="#e41a1c" />
<path d="M1925.625,1828.125 L1955.625,1828.125" close="False" data-weight="1.75" stroke-width="6" fill="none" stroke="#e41a1c" />
<path d="M1903.125,1700.625 L1903.125,1730.625" close="False" data-weight="1.75" stroke-width="6" fill="none" stroke="#e41a1c" />
<path d="M1919.0349025766973,1394.0349025766973 L1962.2150974233027,1437.2150974233027" close="False" data-weight="2.060660171779821" stroke-width="6" fill="none" stroke="#e41a1c" />
<path d="M1925.625,478.125 L1955.625,478.125" close="False" data-weight="1.75" stroke-width="6" fill="none" stroke="#e41a1c" />
<path d="M1850.625,1828.125 L1880.625,1828.125" close="False" data-weight="1.75" stroke-width="6" fill="none" stroke="#e41a1c" />
<path d="M1828.125,1775.625 L1828.125,1805.625" close="False" data-weight="1.75" stroke-width="6" fill="none" stroke="#e41a1c" />
<path d="M1850.625,1753.125 L1880.625,1753.125" close="False" data-weight="1.75" stroke-width="6" fill="none" stroke="#e41a1c" />
<path d="M1844.0349025766973,1619.0349025766973 L1887.2150974233027,1662.2150974233027" close="False" data-weight="2.060660171779821" stroke-width="6" fill="none" stroke="#e41a1c" />
<path d="M1828.125,1550.625 L1828.125,1580.625" close="False" data-weight="1.75" stroke-width="6" fill="none" stroke="#e41a1c" />
<path d="M1828.125,1475.625 L1828.125,1505.625" close="False" data-weight="1.75" stroke-width="6" fill="none" stroke="#e41a1c" />
<path d="M1844.0349025766973,1437.2150974233027 L1887.2150974233027,1394.0349025766973" close="False" data-weight="2.060660171779821" stroke-width="6" fill="none" stroke="#e41a1c" />
<path d="M1850.625,478.125 L1880.625,478.125" close="False" data-weight="1.75" stroke-width="6" fill="none" stroke="#e41a1c" />
<path d="M1775.625,478.125 L1805.625,478.125" close="False" data-weight="1.75" stroke-width="6" fill="none" stroke="#e41a1c" />
<path d="M1700.625,478.125 L1730.625,478.125" close="False" data-weight="1.75" stroke-width="6" fill="none" stroke="#e41a1c" />
<path d="M1607.125,800.2665898254845 L1607.125,830.9834101745155" close="False" data-weight="1.75" stroke-width="6" fill="none" stroke="#e41a1c" />
<path d="M1625.625,478.125 L1655.625,478.125" close="False" data-weight="1.75" stroke-width="6" fill="none" stroke="#e41a1c" />
<path d="M1546.6098954365973,915.296958812895 L1590.2969588128951,871.6098954365974" close="False" data-weight="2.060660171779821" stroke-width="6" fill="none" stroke="#e41a1c" />
<path d="M1550.2665898254845,774.125 L1580.9834101745155,774.125" close="False" data-weight="1.75" stroke-width="6" fill="none" stroke="#e41a1c" />
<path d="M1532.125,575.2665898254845 L1532.125,605.9834101745155" close="False" data-weight="1.75" stroke-width="6" fill="none" stroke="#e41a1c" />
<path d="M1532.125,500.2665898254845 L1532.125,530.9834101745155" close="False" data-weight="1.75" stroke-width="6" fill="none" stroke="#e41a1c" />
<path d="M1550.2665898254845,482.125 L1580.9834101745155,482.125" close="False" data-weight="1.75" stroke-width="6" fill="none" stroke="#e41a1c" />
<path d="M1475.2665898254845,932.125 L1505.9834101745155,932.125" close="False" data-weight="1.75" stroke-width="6" fill="none" stroke="#e41a1c" />
<path d="M1475.2665898254845,774.125 L1505.9834101745155,774.125" close="False" data-weight="1.75" stroke-width="6" fill="none" stroke="#e41a1c" />
<path d="M1471.6098954365825,690.2969588129099 L1515.2969588128951,646.6098954365974" close="False" data-weight="2.060660171779821" stroke-width="6" fill="none" stroke="#e41a1c" />
<path d="M1374.125,2150.2665898254845 L1374.125,2180.9834101745155" close="False" data-weight="1.75" stroke-width="6" fill="none" stroke="#e41a1c" />
<path d="M1374.125,2075.2665898254845 L1374.125,2105.9834101745155" close="False" data-weight="1.75" stroke-width="6" fill="none" stroke="#e41a1c" />
<path d="M1374.125,2000.2665898254845 L1374.125,2030.9834101745155" close="False" data-weight="1.75" stroke-width="6" fill="none" stroke="#e41a1c" />
<path d="M1374.125,1925.2665898254845 L1374.125,1955.9834101745155" close="False" data-weight="1.75" stroke-width="6" fill="none" stroke="#e41a1c" />
<path d="M1382.125,1100.2665898254845 L1382.125,1130.9834101745155" close="False" data-weight="1.75" stroke-width="6" fill="none" stroke="#e41a1c" />
<path d="M1400.2665898254845,932.125 L1430.9834101745155,932.125" close="False" data-weight="1.75" stroke-width="6" fill="none" stroke="#e41a1c" />
<path d="M1400.2665898254845,774.125 L1430.9834101745155,774.125" close="False" data-weight="1.75" stroke-width="6" fill="none" stroke="#e41a1c" />
<path d="M1382.125,725.2665898254845 L1382.125,755.9834101745155" close="False" data-weight="1.75" stroke-width="6" fill="none" stroke="#e41a1c" />
<path d="M1400.2665898254845,707.125 L1430.9834101745155,707.125" close="False" data-weight="1.75" stroke-width="6" fill="none" stroke="#e41a1c" />
<path d="M1315.9530411871049,2259.6401045634025 L1359.6401045634323,2215.953041187075" close="False" data-weight="2.060660171779821" stroke-width="6" fill="none" stroke="#e41a1c" />
<path d="M1315.9530411871049,1846.6098954365973 L1359.6401045634027,1890.2969588128951" close="False" data-weight="2.060660171779821" stroke-width="6" fill="none" stroke="#e41a1c" />
<path d="M1299.125,1775.2665898254845 L1299.125,1805.9834101745155" close="False" data-weight="1.75" stroke-width="6" fill="none" stroke="#e41a1c" />
<path d="M1303.125,1550.625 L1303.125,1580.625" close="False" data-weight="1.75" stroke-width="6" fill="none" stroke="#e41a1c" />
<path d="M1303.125,1475.625 L1303.125,1505.625" close="False" data-weight="1.75" stroke-width="6" fill="none" stroke="#e41a1c" />
<path d="M1303.125,1400.625 L1303.125,1430.625" close="False" data-weight="1.75" stroke-width="6" fill="none" stroke="#e41a1c" />
<path d="M1303.125,1325.625 L1303.125,1355.625" close="False" data-weight="1.75" stroke-width="6" fill="none" stroke="#e41a1c" />
<path d="M1303.125,1250.625 L1303.125,1280.625" close="False" data-weight="1.75" stroke-width="6" fill="none" stroke="#e41a1c" />
<path d="M1303.125,1175.625 L1303.125,1205.625" close="False" data-weight="1.75" stroke-width="6" fill="none" stroke="#e41a1c" />
<path d="M1325.2665898254845,1157.125 L1355.9834101745155,1157.125" close="False" data-weight="1.75" stroke-width="6" fill="none" stroke="#e41a1c" />
<path d="M1321.6098954365973,1015.953041187105 L1365.2969588128951,1059.6401045634027" close="False" data-weight="2.060660171779821" stroke-width="6" fill="none" stroke="#e41a1c" />
<path d="M1321.6098954365973,990.296958812895 L1365.2969588128951,946.6098954365974" close="False" data-weight="2.060660171779821" stroke-width="6" fill="none" stroke="#e41a1c" />
<path d="M1240.9530411871049,1696.6098954365973 L1284.6401045634323,1740.2969588129247" close="False" data-weight="2.060660171779821" stroke-width="6" fill="none" stroke="#e41a1c" />
<path d="M1240.9530411871049,1659.6401045634027 L1284.640104563373,1615.9530411871347" close="False" data-weight="2.060660171779821" stroke-width="6" fill="none" stroke="#e41a1c" />
<image x="2395.625" y="1570.625" width="65" height="65" xlink:href="designspace-test/./img/ds_dataset2_60_8_thumb.png">
<title>8</title>
</image>
<image x="2395.625" y="1120.625" width="65" height="65" xlink:href="designspace-test/./img/ds_dataset2_60_50_thumb.png">
<title>50</title>
</image>
<image x="2320.625" y="1495.625" width="65" height="65" xlink:href="designspace-test/./img/ds_dataset2_60_36_thumb.png">
<title>36</title>
</image>
<image x="2320.625" y="1420.625" width="65" height="65" xlink:href="designspace-test/./img/ds_dataset2_60_41_thumb.png">
<title>41</title>
</image>
<image x="2320.625" y="895.625" width="65" height="65" xlink:href="designspace-test/./img/ds_dataset2_60_29_thumb.png">
<title>29</title>
</image>
<image x="2320.625" y="595.625" width="65" height="65" xlink:href="designspace-test/./img/ds_dataset2_60_31_thumb.png">
<title>31</title>
</image>
<image x="2245.625" y="1720.625" width="65" height="65" xlink:href="designspace-test/./img/ds_dataset2_60_46_thumb.png">
<title>46</title>
</image>
<image x="2170.625" y="1720.625" width="65" height="65" xlink:href="designspace-test/./img/ds_dataset2_60_17_thumb.png">
<title>17</title>
</image>
<image x="2170.625" y="1270.625" width="65" height="65" xlink:href="designspace-test/./img/ds_dataset2_60_32_thumb.png">
<title>32</title>
</image>
<image x="2170.625" y="670.625" width="65" height="65" xlink:href="designspace-test/./img/ds_dataset2_60_10_thumb.png">
<title>10</title>
</image>
<image x="2095.625" y="1795.625" width="65" height="65" xlink:href="designspace-test/./img/ds_dataset2_60_1_thumb.png">
<title>1</title>
</image>
<image x="2020.625" y="1870.625" width="65" height="65" xlink:href="designspace-test/./img/ds_dataset2_60_37_thumb.png">
<title>37</title>
</image>
<image x="2020.625" y="1495.625" width="65" height="65" xlink:href="designspace-test/./img/ds_dataset2_60_43_thumb.png">
<title>43</title>
</image>
<image x="2020.625" y="895.625" width="65" height="65" xlink:href="designspace-test/./img/ds_dataset2_60_12_thumb.png">
<title>12</title>
</image>
<image x="2020.625" y="220.625" width="65" height="65" xlink:href="designspace-test/./img/ds_dataset2_60_21_thumb.png">
<title>21</title>
</image>
<image x="1945.625" y="1795.625" width="65" height="65" xlink:href="designspace-test/./img/ds_dataset2_60_54_thumb.png">
<title>54</title>
</image>
<image x="1945.625" y="1420.625" width="65" height="65" xlink:href="designspace-test/./img/ds_dataset2_60_44_thumb.png">
<title>44</title>
</image>
<image x="1870.625" y="1720.625" width="65" height="65" xlink:href="designspace-test/./img/ds_dataset2_60_56_thumb.png">
<title>56</title>
</image>
<image x="1870.625" y="1645.625" width="65" height="65" xlink:href="designspace-test/./img/ds_dataset2_60_49_thumb.png">
<title>49</title>
</image>
<image x="1870.625" y="1345.625" width="65" height="65" xlink:href="designspace-test/./img/ds_dataset2_60_9_thumb.png">
<title>9</title>
</image>
<image x="1870.625" y="145.625" width="65" height="65" xlink:href="designspace-test/./img/ds_dataset2_60_15_thumb.png">
<title>15</title>
</image>
<image x="1795.625" y="1795.625" width="65" height="65" xlink:href="designspace-test/./img/ds_dataset2_60_53_thumb.png">
<title>53</title>
</image>
<image x="1795.625" y="1720.625" width="65" height="65" xlink:href="designspace-test/./img/ds_dataset2_60_58_thumb.png">
<title>58</title>
</image>
<image x="1795.625" y="1570.625" width="65" height="65" xlink:href="designspace-test/./img/ds_dataset2_60_30_thumb.png">
<title>30</title>
</image>
<image x="1795.625" y="1420.625" width="65" height="65" xlink:href="designspace-test/./img/ds_dataset2_60_20_thumb.png">
<title>20</title>
</image>
<image x="1570.625" y="745.625" width="65" height="65" xlink:href="designspace-test/./img/ds_dataset2_60_39_thumb.png">
<title>39</title>
</image>
<image x="1570.625" y="445.625" width="65" height="65" xlink:href="designspace-test/./img/ds_dataset2_60_26_thumb.png">
<title>26</title>
</image>
<image x="1495.625" y="2395.625" width="65" height="65" xlink:href="designspace-test/./img/ds_dataset2_60_5_thumb.png">
<title>5</title>
</image>
<image x="1495.625" y="895.625" width="65" height="65" xlink:href="designspace-test/./img/ds_dataset2_60_11_thumb.png">
<title>11</title>
</image>
<image x="1495.625" y="520.625" width="65" height="65" xlink:href="designspace-test/./img/ds_dataset2_60_24_thumb.png">
<title>24</title>
</image>
<image x="1495.625" y="445.625" width="65" height="65" xlink:href="designspace-test/./img/ds_dataset2_60_38_thumb.png">
<title>38</title>
</image>
<image x="1420.625" y="670.625" width="65" height="65" xlink:href="designspace-test/./img/ds_dataset2_60_18_thumb.png">
<title>18</title>
</image>
<image x="1345.625" y="1870.625" width="65" height="65" xlink:href="designspace-test/./img/ds_dataset2_60_4_thumb.png">
<title>4</title>
</image>
<image x="1345.625" y="1120.625" width="65" height="65" xlink:href="designspace-test/./img/ds_dataset2_60_51_thumb.png">
<title>51</title>
</image>
<image x="1345.625" y="745.625" width="65" height="65" xlink:href="designspace-test/./img/ds_dataset2_60_16_thumb.png">
<title>16</title>
</image>
<image x="1345.625" y="670.625" width="65" height="65" xlink:href="designspace-test/./img/ds_dataset2_60_19_thumb.png">
<title>19</title>
</image>
<image x="1270.625" y="2245.625" width="65" height="65" xlink:href="designspace-test/./img/ds_dataset2_60_6_thumb.png">
<title>6</title>
</image>
<image x="1270.625" y="1795.625" width="65" height="65" xlink:href="designspace-test/./img/ds_dataset2_60_34_thumb.png">
<title>34</title>
</image>
<image x="1270.625" y="1570.625" width="65" height="65" xlink:href="designspace-test/./img/ds_dataset2_60_23_thumb.png">
<title>23</title>
</image>
<image x="1270.625" y="1120.625" width="65" height="65" xlink:href="designspace-test/./img/ds_dataset2_60_55_thumb.png">
<title>55</title>
</image>
<image x="1270.625" y="970.625" width="65" height="65" xlink:href="designspace-test/./img/ds_dataset2_60_13_thumb.png">
<title>13</title>
</image>
<image x="1195.625" y="1645.625" width="65" height="65" xlink:href="designspace-test/./img/ds_dataset2_60_14_thumb.png">
<title>14</title>
</image>
<image x="970.625" y="295.625" width="65" height="65" xlink:href="designspace-test/./img/ds_dataset2_60_22_thumb.png">
<title>22</title>
</image>
<image x="970.625" y="145.625" width="65" height="65" xlink:href="designspace-test/./img/ds_dataset2_60_25_thumb.png">
<title>25</title>
</image>
<image x="970.625" y="70.625" width="65" height="65" xlink:href="designspace-test/./img/ds_dataset2_60_40_thumb.png">
<title>40</title>
</image>
<image x="895.625" y="295.625" width="65" height="65" xlink:href="designspace-test/./img/ds_dataset2_60_45_thumb.png">
<title>45</title>
</image>
<image x="820.625" y="370.625" width="65" height="65" xlink:href="designspace-test/./img/ds_dataset2_60_7_thumb.png">
<title>7</title>
</image>
<image x="745.625" y="2245.625" width="65" height="65" xlink:href="designspace-test/./img/ds_dataset2_60_47_thumb.png">
<title>47</title>
</image>
<image x="745.625" y="2095.625" width="65" height="65" xlink:href="designspace-test/./img/ds_dataset2_60_52_thumb.png">
<title>52</title>
</image>
<image x="745.625" y="445.625" width="65" height="65" xlink:href="designspace-test/./img/ds_dataset2_60_2_thumb.png">
<title>2</title>
</image>
<image x="670.625" y="2170.625" width="65" height="65" xlink:href="designspace-test/./img/ds_dataset2_60_59_thumb.png">
<title>59</title>
</image>
<image x="670.625" y="220.625" width="65" height="65" xlink:href="designspace-test/./img/ds_dataset2_60_0_thumb.png">
<title>0</title>
</image>
<image x="595.625" y="2020.625" width="65" height="65" xlink:href="designspace-test/./img/ds_dataset2_60_42_thumb.png">
<title>42</title>
</image>
<image x="595.625" y="1945.625" width="65" height="65" xlink:href="designspace-test/./img/ds_dataset2_60_35_thumb.png">
<title>35</title>
</image>
<image x="595.625" y="1345.625" width="65" height="65" xlink:href="designspace-test/./img/ds_dataset2_60_48_thumb.png">
<title>48</title>
</image>
<image x="520.625" y="520.625" width="65" height="65" xlink:href="designspace-test/./img/ds_dataset2_60_27_thumb.png">
<title>27</title>
</image>
<image x="370.625" y="1570.625" width="65" height="65" xlink:href="designspace-test/./img/ds_dataset2_60_57_thumb.png">
<title>57</title>
</image>
<image x="295.625" y="1120.625" width="65" height="65" xlink:href="designspace-test/./img/ds_dataset2_60_28_thumb.png">
<title>28</title>
</image>
<image x="295.625" y="1045.625" width="65" height="65" xlink:href="designspace-test/./img/ds_dataset2_60_33_thumb.png">
<title>33</title>
</image>
<image x="70.625" y="1495.625" width="65" height="65" xlink:href="designspace-test/./img/ds_dataset2_60_3_thumb.png">
<title>3</title>
</image>
</svg>