<?xml version="1.0" encoding="UTF-8"?>
<svg xmlns="http://www.w3.org/2000/svg" xmlns:xlink="http://www.w3.org/1999/xlink"
     width="2550" height="2550" viewBox="0 0 2550 2550">
<defs>
</defs>
<path d="M2133.097987459456,756.1814497920669 C2126.3688530426084,762.9105842089142,2112.9105842089143,776.368853042609,2106.181449792067,783.0979874594562" close="False" data-weight="0.0" stroke-width="6" fill="none" stroke="#ffff33" />
<path d="M2058.097987459456,831.1814497920669 C2050.683188410197,838.5962488413256,2042.0549036126615,858.5382421378463,2034.6401045634027,865.953041187105" close="False" data-weight="0.0" stroke-width="6" fill="none" stroke="#ffff33" />
<path d="M1990.9530411871347,909.6401045633729 C1983.1248070311942,917.4683387193134,1967.4683387193134,933.1248070311942,1959.640104563373,940.9530411871347" close="False" data-weight="0.0" stroke-width="6" fill="none" stroke="#ffff33" />
<path d="M1915.9530411871049,984.6401045634026 C1908.1248070311792,992.4683387193281,1892.4683387193284,1008.1248070311794,1884.6401045634027,1015.953041187105" close="False" data-weight="0.0" stroke-width="6" fill="none" stroke="#ffff33" />
<path d="M1840.9530411871049,1059.6401045634027 C1833.1248070311792,1067.4683387193284,1817.4683387193284,1083.1248070311792,1809.6401045634027,1090.9530411871049" close="False" data-weight="0.0" stroke-width="6" fill="none" stroke="#ffff33" />
<path d="M1765.9530411871049,1134.6401045634027 C1758.1248070311792,1142.4683387193284,1742.4683387193284,1158.1248070311792,1734.6401045634027,1165.9530411871049" close="False" data-weight="0.0" stroke-width="6" fill="none" stroke="#ffff33" />
<path d="M1690.9530411871049,1209.6401045634027 C1683.1248070311792,1217.4683387193284,1667.4683387193284,1233.1248070311792,1659.6401045634027,1240.9530411871049" close="False" data-weight="0.0" stroke-width="6" fill="none" stroke="#ffff33" />
<path d="M1615.9530411871347,1284.640104563373 C1608.1248070311942,1292.4683387193134,1592.4683387193134,1308.1248070311942,1584.640104563373,1315.9530411871347" close="False" data-weight="0.0" stroke-width="6" fill="none" stroke="#ffff33" />
<path d="M1540.9530411871049,1359.6401045634027 C1533.1248070311792,1367.4683387193284,1517.4683387193284,1383.1248070311792,1509.6401045634027,1390.9530411871049" close="False" data-weight="0.0" stroke-width="6" fill="none" stroke="#ffff33" />
<path d="M1465.9530411871347,1434.640104563373 C1458.029832513106,1442.5633132374016,1445.1383060973315,1461.1116939026685,1437.2150974233027,1469.0349025766973" close="False" data-weight="0.0" stroke-width="6" fill="none" stroke="#ffff33" />
<path d="M1394.0349025766973,1512.2150974233027 C1386.1116939026758,1520.1383060973242,1373.2201674869166,1538.6866867625758,1365.2969588128951,1546.6098954365973" close="False" data-weight="0.0" stroke-width="6" fill="none" stroke="#ffff33" />
<path d="M1307.125,2180.9834101745155 C1307.125,2192.0542050872577,1307.125,2214.1957949127423,1307.125,2225.2665898254845" close="False" data-weight="0.0" stroke-width="6" fill="none" stroke="#ffff33" />
<path d="M1307.125,2105.9834101745155 C1307.125,2117.0542050872577,1307.125,2139.1957949127423,1307.125,2150.2665898254845" close="False" data-weight="0.0" stroke-width="6" fill="none" stroke="#ffff33" />
<path d="M1307.125,2030.9834101745155 C1307.125,2042.0542050872577,1307.125,2064.1957949127423,1307.125,2075.2665898254845" close="False" data-weight="0.0" stroke-width="6" fill="none" stroke="#ffff33" />
<path d="M1321.6098954365973,1965.2969588128951 A49.45452644918799,49.45452644918799,0,0,0,1310.889501672745,1981.3411618979196 M1310.889501672745,1981.3411618979196 A49.45452644918555,49.45452644918555,0,0,0,1307.125,2000.2665898254845 M1307.125,2000.2665898254845" close="False" data-weight="1.0" stroke-width="6" fill="none" stroke="#ffff33" />
<path d="M1307.125,1775.2665898254845 A57.45452644918714,57.45452644918714,0,0,0,1302.7515345873453,1753.2796944389988 M1302.7515345873453,1753.2796944389988 A57.454526449186446,57.454526449186446,0,0,0,1290.2969588128951,1734.6401045634027 M1290.2969588128951,1734.6401045634027" close="False" data-weight="1.0" stroke-width="6" fill="none" stroke="#ffff33" />
<path d="M1250.625,2278.125 C1239.375,2278.125,1216.875,2278.125,1205.625,2278.125" close="False" data-weight="0.0" stroke-width="6" fill="none" stroke="#ffff33" />
<path d="M1175.625,2278.125 C1164.375,2278.125,1141.875,2278.125,1130.625,2278.125" close="False" data-weight="0.0" stroke-width="6" fill="none" stroke="#ffff33" />
<path d="M1100.625,2278.125 C1089.375,2278.125,1066.875,2278.125,1055.625,2278.125" close="False" data-weight="0.0" stroke-width="6" fill="none" stroke="#ffff33" />
<path d="M1025.625,2278.125 C1014.375,2278.125,991.875,2278.125,980.625,2278.125" close="False" data-weight="0.0" stroke-width="6" fill="none" stroke="#ffff33" />
<path d="M950.625,2278.125 C939.375,2278.125,916.875,2278.125,905.625,2278.125" close="False" data-weight="0.0" stroke-width="6" fill="none" stroke="#ffff33" />
<path d="M875.625,2278.125 C864.375,2278.125,841.875,2278.125,830.625,2278.125" close="False" data-weight="0.0" stroke-width="6" fill="none" stroke="#ffff33" />
<path d="M719.0349025766973,2069.0349025766973 A54.319805153391684,54.319805153391684,0,0,0,701.4122894815041,2057.259848962172 M701.4122894815041,2057.259848962172 A54.319805153393645,54.319805153393645,0,0,0,680.625,2053.125 M680.625,2053.125" close="False" data-weight="1.0" stroke-width="6" fill="none" stroke="#ffff33" />
<path d="M628.125,1880.625 C628.125,1891.875,628.125,1914.375,628.125,1925.625" close="False" data-weight="0.0" stroke-width="6" fill="none" stroke="#ffff33" />
<path d="M628.125,1805.625 C628.125,1816.875,628.125,1839.375,628.125,1850.625" close="False" data-weight="0.0" stroke-width="6" fill="none" stroke="#ffff33" />
<path d="M628.125,1730.625 C628.125,1741.875,628.125,1764.375,628.125,1775.625" close="False" data-weight="0.0" stroke-width="6" fill="none" stroke="#ffff33" />
<path d="M628.125,1655.625 C628.125,1666.875,628.125,1689.375,628.125,1700.625" close="False" data-weight="0.0" stroke-width="6" fill="none" stroke="#ffff33" />
<path d="M628.125,1580.625 C628.125,1591.875,628.125,1614.375,628.125,1625.625" close="False" data-weight="0.0" stroke-width="6" fill="none" stroke="#ffff33" />
<path d="M624.125,1505.9834101745155 C624.125,1517.1885193388287,628.125,1539.4198908356868,628.125,1550.625" close="False" data-weight="0.0" stroke-width="6" fill="none" stroke="#ffff33" />
<path d="M624.125,1430.9834101745155 C624.125,1442.0542050872577,624.125,1464.1957949127423,624.125,1475.2665898254845" close="False" data-weight="0.0" stroke-width="6" fill="none" stroke="#ffff33" />
<path d="M2133.0979874594564,756.1814497920667 L2181.1814497920664,708.0979874594565" close="False" data-weight="2.060660171779821" stroke-width="6" fill="none" stroke="#ffff33" />
<path d="M2058.0979874594564,831.1814497920667 L2106.1814497920664,783.0979874594565" close="False" data-weight="2.060660171779821" stroke-width="6" fill="none" stroke="#ffff33" />
<path d="M1990.9530411871347,909.6401045633729 L2034.6401045634027,865.953041187105" close="False" data-weight="2.060660171779821" stroke-width="6" fill="none" stroke="#ffff33" />
<path d="M1915.9530411871049,984.6401045634026 L1959.640104563373,940.9530411871347" close="False" data-weight="2.060660171779821" stroke-width="6" fill="none" stroke="#ffff33" />
<path d="M1840.9530411871049,1059.6401045634027 L1884.6401045634027,1015.953041187105" close="False" data-weight="2.060660171779821" stroke-width="6" fill="none" stroke="#ffff33" />
<path d="M1765.9530411871049,1134.6401045634027 L1809.6401045634027,1090.9530411871049" close="False" data-weight="2.060660171779821" stroke-width="6" fill="none" stroke="#ffff33" />
<path d="M1690.9530411871049,1209.6401045634027 L1734.6401045634027,1165.9530411871049" close="False" data-weight="2.060660171779821" stroke-width="6" fill="none" stroke="#ffff33" />
<path d="M1615.9530411871347,1284.640104563373 L1659.6401045634027,1240.9530411871049" close="False" data-weight="2.060660171779821" stroke-width="6" fill="none" stroke="#ffff33" />
<path d="M1540.9530411871049,1359.6401045634027 L1584.640104563373,1315.9530411871347" close="False" data-weight="2.060660171779821" stroke-width="6" fill="none" stroke="#ffff33" />
<path d="M1465.9530411871347,1434.640104563373 L1509.6401045634027,1390.9530411871049" close="False" data-weight="2.060660171779821" stroke-width="6" fill="none" stroke="#ffff33" />
<path d="M1394.0349025766973,1512.2150974233027 L1437.2150974233027,1469.0349025766973" close="False" data-weight="2.060660171779821" stroke-width="6" fill="none" stroke="#ffff33" />
<path d="M1307.125,2225.2665898254845 L1307.125,2255.9834101745155" close="False" data-weight="1.75" stroke-width="6" fill="none" stroke="#ffff33" />
<path d="M1307.125,2150.2665898254845 L1307.125,2180.9834101745155" close="False" data-weight="1.75" stroke-width="6" fill="none" stroke="#ffff33" />
<path d="M1307.125,2075.2665898254845 L1307.125,2105.9834101745155" close="False" data-weight="1.75" stroke-width="6" fill="none" stroke="#ffff33" />
<path d="M1307.125,2000.2665898254845 L1307.125,2030.9834101745155" close="False" data-weight="1.75" stroke-width="6" fill="none" stroke="#ffff33" />
<path d="M1321.6098954365973,1965.2969588128951 L1365.2969588128951,1921.6098954365973" close="False" data-weight="2.060660171779821" stroke-width="6" fill="none" stroke="#ffff33" />
<path d="M1321.6098954365973,1840.9530411871049 L1365.2969588128951,1884.6401045634027" close="False" data-weight="2.060660171779821" stroke-width="6" fill="none" stroke="#ffff33" />
<path d="M1307.125,1775.2665898254845 L1307.125,1805.9834101745155" close="False" data-weight="1.75" stroke-width="6" fill="none" stroke="#ffff33" />
<path d="M1321.6098954365677,1590.2969588129247 L1365.2969588128951,1546.6098954365973" close="False" data-weight="2.060660171779821" stroke-width="6" fill="none" stroke="#ffff33" />
<path d="M1250.625,2278.125 L1280.625,2278.125" close="False" data-weight="1.75" stroke-width="6" fill="none" stroke="#ffff33" />
<path d="M1246.6098954365973,1690.9530411871049 L1290.2969588128653,1734.640104563373" close="False" data-weight="2.060660171779821" stroke-width="6" fill="none" stroke="#ffff33" />
<path d="M1246.6098954365973,1665.2969588128951 L1290.2969588129247,1621.6098954365677" close="False" data-weight="2.060660171779821" stroke-width="6" fill="none" stroke="#ffff33" />
<path d="M1175.625,2278.125 L1205.625,2278.125" close="False" data-weight="1.75" stroke-width="6" fill="none" stroke="#ffff33" />
<path d="M1100.625,2278.125 L1130.625,2278.125" close="False" data-weight="1.75" stroke-width="6" fill="none" stroke="#ffff33" />
<path d="M1025.625,2278.125 L1055.625,2278.125" close="False" data-weight="1.75" stroke-width="6" fill="none" stroke="#ffff33" />
<path d="M950.625,2278.125 L980.625,2278.125" close="False" data-weight="1.75" stroke-width="6" fill="none" stroke="#ffff33" />
<path d="M875.625,2278.125 L905.625,2278.125" close="False" data-weight="1.75" stroke-width="6" fill="none" stroke="#ffff33" />
<path d="M800.625,2278.125 L830.625,2278.125" close="False" data-weight="1.75" stroke-width="6" fill="none" stroke="#ffff33" />
<path d="M719.0349025766973,2219.0349025766973 L762.2150974233027,2262.2150974233027" close="False" data-weight="2.060660171779821" stroke-width="6" fill="none" stroke="#ffff33" />
<path d="M719.0349025766973,2187.2150974233027 L762.2150974233027,2144.0349025766973" close="False" data-weight="2.060660171779821" stroke-width="6" fill="none" stroke="#ffff33" />
<path d="M719.0349025766973,2069.0349025766973 L762.2150974233027,2112.2150974233027" close="False" data-weight="2.060660171779821" stroke-width="6" fill="none" stroke="#ffff33" />
<path d="M650.625,2053.125 L680.625,2053.125" close="False" data-weight="1.75" stroke-width="6" fill="none" stroke="#ffff33" />
<path d="M628.125,2000.625 L628.125,2030.625" close="False" data-weight="1.75" stroke-width="6" fill="none" stroke="#ffff33" />
<path d="M628.125,1925.625 L628.125,1955.625" close="False" data-weight="1.75" stroke-width="6" fill="none" stroke="#ffff33" />
<path d="M628.125,1850.625 L628.125,1880.625" close="False" data-weight="1.75" stroke-width="6" fill="none" stroke="#ffff33" />
<path d="M628.125,1775.625 L628.125,1805.625" close="False" data-weight="1.75" stroke-width="6" fill="none" stroke="#ffff33" />
<path d="M628.125,1700.625 L628.125,1730.625" close="False" data-weight="1.75" stroke-width="6" fill="none" stroke="#ffff33" />
<path d="M628.125,1625.625 L628.125,1655.625" close="False" data-weight="1.75" stroke-width="6" fill="none" stroke="#ffff33" />
<path d="M628.125,1550.625 L628.125,1580.625" close="False" data-weight="1.75" stroke-width="6" fill="none" stroke="#ffff33" />
<path d="M624.125,1475.2665898254845 L624.125,1505.9834101745155" close="False" data-weight="1.75" stroke-width="6" fill="none" stroke="#ffff33" />
<path d="M624.125,1400.2665898254845 L624.125,1430.9834101745155" close="False" data-weight="1.75" stroke-width="6" fill="none" stroke="#ffff33" />
<path d="M2300.2665898254845,624.125 A57.45452644924342,57.45452644924342,0,0,0,2278.2796944390157,628.4984654126432 M2278.2796944390157,628.4984654126432 A57.45452644902832,57.45452644902832,0,0,0,2259.6401045634325,640.9530411870752 M2259.6401045634325,640.9530411870752" close="False" data-weight="1.0" stroke-width="6" fill="none" stroke="#984ea3" />
<path d="M2140.953041187105,759.6401045634026 C2133.1248070311794,767.4683387193282,2117.468338719328,783.1248070311793,2109.6401045634025,790.953041187105" close="False" data-weight="0.0" stroke-width="6" fill="none" stroke="#984ea3" />
<path d="M2065.9530411871347,834.6401045633729 C2057.998089898786,842.5950558517216,2048.251910101273,863.654944148219,2040.2969588129247,871.6098954365676" close="False" data-weight="0.0" stroke-width="6" fill="none" stroke="#984ea3" />
<path d="M1996.6098954365677,915.2969588129248 C1988.781661280657,923.1251929688356,1973.1251929688353,938.7816612806569,1965.2969588129247,946.6098954365676" close="False" data-weight="0.0" stroke-width="6" fill="none" stroke="#984ea3" />
<path d="M1921.6098954365973,990.296958812895 C1913.7816612806716,998.1251929688206,1898.1251929688208,1013.7816612806719,1890.2969588128951,1021.6098954365974" close="False" data-weight="0.0" stroke-width="6" fill="none" stroke="#984ea3" />
<path d="M1846.6098954365973,1065.2969588128951 C1838.7816612806716,1073.1251929688208,1823.1251929688208,1088.7816612806716,1815.2969588128951,1096.6098954365973" close="False" data-weight="0.0" stroke-width="6" fill="none" stroke="#984ea3" />
<path d="M1771.6098954365973,1140.2969588128951 C1763.7816612806716,1148.1251929688208,1748.1251929688208,1163.7816612806716,1740.2969588128951,1171.6098954365973" close="False" data-weight="0.0" stroke-width="6" fill="none" stroke="#984ea3" />
<path d="M1696.6098954365973,1215.2969588128951 C1688.7816612806716,1223.1251929688208,1673.1251929688208,1238.7816612806716,1665.2969588128951,1246.6098954365973" close="False" data-weight="0.0" stroke-width="6" fill="none" stroke="#984ea3" />
<path d="M1621.6098954365677,1290.2969588129247 C1613.7816612806569,1298.1251929688356,1598.1251929688356,1313.7816612806569,1590.2969588129247,1321.6098954365677" close="False" data-weight="0.0" stroke-width="6" fill="none" stroke="#984ea3" />
<path d="M1546.6098954365973,1365.2969588128951 C1538.7816612806716,1373.1251929688208,1523.1251929688208,1388.7816612806716,1515.2969588128951,1396.6098954365973" close="False" data-weight="0.0" stroke-width="6" fill="none" stroke="#984ea3" />
<path d="M1471.6098954365677,1440.2969588129247 A38.622485006404375,38.622485006404375,0,0,1,1452.7580125810414,1450.6716533480844 M1452.7580125810414,1450.6716533480844 A101.06381732068076,101.06381732068076,0,0,1,1430.625,1453.125 M1430.625,1453.125" close="False" data-weight="1.0" stroke-width="6" fill="none" stroke="#984ea3" />
<path d="M1400.625,1453.125 C1389.375,1453.125,1366.875,1453.125,1355.625,1453.125" close="False" data-weight="0.0" stroke-width="6" fill="none" stroke="#984ea3" />
<path d="M1325.625,1453.125 C1314.375,1453.125,1291.875,1453.125,1280.625,1453.125" close="False" data-weight="0.0" stroke-width="6" fill="none" stroke="#984ea3" />
<path d="M1250.625,1453.125 C1239.375,1453.125,1216.875,1453.125,1205.625,1453.125" close="False" data-weight="0.0" stroke-width="6" fill="none" stroke="#984ea3" />
<path d="M1175.625,1453.125 C1164.375,1453.125,1141.875,1453.125,1130.625,1453.125" close="False" data-weight="0.0" stroke-width="6" fill="none" stroke="#984ea3" />
<path d="M1100.625,1453.125 C1089.375,1453.125,1066.875,1453.125,1055.625,1453.125" close="False" data-weight="0.0" stroke-width="6" fill="none" stroke="#984ea3" />
<path d="M1025.625,1453.125 C1014.375,1453.125,991.875,1453.125,980.625,1453.125" close="False" data-weight="0.0" stroke-width="6" fill="none" stroke="#984ea3" />
<path d="M950.625,1453.125 C939.375,1453.125,916.875,1453.125,905.625,1453.125" close="False" data-weight="0.0" stroke-width="6" fill="none" stroke="#984ea3" />
<path d="M875.625,1453.125 C864.375,1453.125,841.875,1453.125,830.625,1453.125" close="False" data-weight="0.0" stroke-width="6" fill="none" stroke="#984ea3" />
<path d="M800.625,1453.125 C789.375,1453.125,766.875,1453.125,755.625,1453.125" close="False" data-weight="0.0" stroke-width="6" fill="none" stroke="#984ea3" />
<path d="M725.625,1453.125 C714.375,1453.125,691.875,1453.125,680.625,1453.125" close="False" data-weight="0.0" stroke-width="6" fill="none" stroke="#984ea3" />
<path d="M650.625,1453.125 C639.375,1453.125,616.875,1453.125,605.625,1453.125" close="False" data-weight="0.0" stroke-width="6" fill="none" stroke="#984ea3" />
<path d="M575.625,1453.125 A54.31980515339637,54.31980515339637,0,0,0,554.837710518496,1457.259848962172 M554.837710518496,1457.259848962172 A54.31980515339273,54.31980515339273,0,0,0,537.2150974233027,1469.0349025766973 M537.2150974233027,1469.0349025766973" close="False" data-weight="1.0" stroke-width="6" fill="none" stroke="#984ea3" />
<path d="M494.03490257669733,1512.2150974233027 C486.0799512883487,1520.1700487116514,470.1700487116513,1536.0799512883486,462.21509742330267,1544.0349025766973" close="False" data-weight="0.0" stroke-width="6" fill="none" stroke="#984ea3" />
<path d="M340.9530411871198,1546.6098954366123 A93.83039863693433,93.83039863693433,0,0,0,324.8121656631176,1533.6902502339185 M324.8121656631176,1533.6902502339185 A35.85816626155838,35.85816626155838,0,0,0,305.625,1528.125 M305.625,1528.125" close="False" data-weight="1.0" stroke-width="6" fill="none" stroke="#984ea3" />
<path d="M275.625,1528.125 C264.375,1528.125,241.875,1528.125,230.625,1528.125" close="False" data-weight="0.0" stroke-width="6" fill="none" stroke="#984ea3" />
<path d="M200.625,1528.125 C189.375,1528.125,166.875,1528.125,155.625,1528.125" close="False" data-weight="0.0" stroke-width="6" fill="none" stroke="#984ea3" />
<path d="M2300.2665898254845,624.125 L2330.9834101745155,624.125" close="False" data-weight="1.75" stroke-width="6" fill="none" stroke="#984ea3" />
<path d="M2215.953041187105,684.6401045634026 L2259.6401045634025,640.953041187105" close="False" data-weight="2.060660171779821" stroke-width="6" fill="none" stroke="#984ea3" />
<path d="M2140.953041187105,759.6401045634026 L2184.6401045634025,715.953041187105" close="False" data-weight="2.060660171779821" stroke-width="6" fill="none" stroke="#984ea3" />
<path d="M2065.9530411871347,834.6401045633729 L2109.6401045634025,790.953041187105" close="False" data-weight="2.060660171779821" stroke-width="6" fill="none" stroke="#984ea3" />
<path d="M1996.6098954365677,915.2969588129248 L2040.2969588128951,871.6098954365974" close="False" data-weight="2.060660171779821" stroke-width="6" fill="none" stroke="#984ea3" />
<path d="M1921.6098954365973,990.296958812895 L1965.2969588129247,946.6098954365676" close="False" data-weight="2.060660171779821" stroke-width="6" fill="none" stroke="#984ea3" />
<path d="M1846.6098954365973,1065.2969588128951 L1890.2969588128951,1021.6098954365974" close="False" data-weight="2.060660171779821" stroke-width="6" fill="none" stroke="#984ea3" />
<path d="M1771.6098954365973,1140.2969588128951 L1815.2969588128951,1096.6098954365973" close="False" data-weight="2.060660171779821" stroke-width="6" fill="none" stroke="#984ea3" />
<path d="M1696.6098954365973,1215.2969588128951 L1740.2969588128951,1171.6098954365973" close="False" data-weight="2.060660171779821" stroke-width="6" fill="none" stroke="#984ea3" />
<path d="M1621.6098954365677,1290.2969588129247 L1665.2969588128951,1246.6098954365973" close="False" data-weight="2.060660171779821" stroke-width="6" fill="none" stroke="#984ea3" />
<path d="M1546.6098954365973,1365.2969588128951 L1590.2969588129247,1321.6098954365677" close="False" data-weight="2.060660171779821" stroke-width="6" fill="none" stroke="#984ea3" />
<path d="M1471.6098954365677,1440.2969588129247 L1515.2969588128951,1396.6098954365973" close="False" data-weight="2.060660171779821" stroke-width="6" fill="none" stroke="#984ea3" />
<path d="M1400.625,1453.125 L1430.625,1453.125" close="False" data-weight="1.75" stroke-width="6" fill="none" stroke="#984ea3" />
<path d="M1325.625,1453.125 L1355.625,1453.125" close="False" data-weight="1.75" stroke-width="6" fill="none" stroke="#984ea3" />
<path d="M1250.625,1453.125 L1280.625,1453.125" close="False" data-weight="1.75" stroke-width="6" fill="none" stroke="#984ea3" />
<path d="M1175.625,1453.125 L1205.625,1453.125" close="False" data-weight="1.75" stroke-width="6" fill="none" stroke="#984ea3" />
<path d="M1100.625,1453.125 L1130.625,1453.125" close="False" data-weight="1.75" stroke-width="6" fill="none" stroke="#984ea3" />
<path d="M1025.625,1453.125 L1055.625,1453.125" close="False" data-weight="1.75" stroke-width="6" fill="none" stroke="#984ea3" />
<path d="M950.625,1453.125 L980.625,1453.125" close="False" data-weight="1.75" stroke-width="6" fill="none" stroke="#984ea3" />
<path d="M875.625,1453.125 L905.625,1453.125" close="False" data-weight="1.75" stroke-width="6" fill="none" stroke="#984ea3" />
<path d="M800.625,1453.125 L830.625,1453.125" close="False" data-weight="1.75" stroke-width="6" fill="none" stroke="#984ea3" />
<path d="M725.625,1453.125 L755.625,1453.125" close="False" data-weight="1.75" stroke-width="6" fill="none" stroke="#984ea3" />
<path d="M650.625,1453.125 L680.625,1453.125" close="False" data-weight="1.75" stroke-width="6" fill="none" stroke="#984ea3" />
<path d="M575.625,1453.125 L605.625,1453.125" close="False" data-weight="1.75" stroke-width="6" fill="none" stroke="#984ea3" />
<path d="M494.03490257669733,1512.2150974233027 L537.2150974233027,1469.0349025766973" close="False" data-weight="2.060660171779821" stroke-width="6" fill="none" stroke="#984ea3" />
<path d="M419.03490257669733,1587.2150974233027 L462.21509742330267,1544.0349025766973" close="False" data-weight="2.060660171779821" stroke-width="6" fill="none" stroke="#984ea3" />
<path d="M340.9530411871198,1546.6098954366123 L384.6401045634026,1590.2969588128951" close="False" data-weight="2.060660171779821" stroke-width="6" fill="none" stroke="#984ea3" />
<path d="M275.625,1528.125 L305.625,1528.125" close="False" data-weight="1.75" stroke-width="6" fill="none" stroke="#984ea3" />
<path d="M200.625,1528.125 L230.625,1528.125" close="False" data-weight="1.75" stroke-width="6" fill="none" stroke="#984ea3" />
<path d="M125.625,1528.125 L155.625,1528.125" close="False" data-weight="1.75" stroke-width="6" fill="none" stroke="#984ea3" />
<path d="M1244.0349025766973,2219.0349025766973 C1236.0799512883486,2211.0799512883486,1220.1700487116514,2195.1700487116514,1212.2150974233027,2187.2150974233027" close="False" data-weight="0.0" stroke-width="6" fill="none" stroke="#ff7f00" />
<path d="M1169.0349025766973,2144.0349025766973 C1161.0799512883486,2136.0799512883486,1145.1700487116514,2120.1700487116514,1137.2150974233027,2112.2150974233027" close="False" data-weight="0.0" stroke-width="6" fill="none" stroke="#ff7f00" />
<path d="M1094.0349025766973,2069.0349025766973 C1086.0799512883486,2061.0799512883486,1070.1700487116514,2045.1700487116514,1062.2150974233027,2037.2150974233027" close="False" data-weight="0.0" stroke-width="6" fill="none" stroke="#ff7f00" />
<path d="M1019.0349025766973,1994.0349025766973 C1011.0799512883486,1986.0799512883486,995.1700487116514,1970.1700487116514,987.2150974233027,1962.2150974233027" close="False" data-weight="0.0" stroke-width="6" fill="none" stroke="#ff7f00" />
<path d="M944.0349025766973,1919.0349025766973 C936.0799512883486,1911.0799512883486,920.1700487116514,1895.1700487116514,912.2150974233027,1887.2150974233027" close="False" data-weight="0.0" stroke-width="6" fill="none" stroke="#ff7f00" />
<path d="M869.0349025766973,1844.0349025766973 C861.0799512883486,1836.0799512883486,845.1700487116514,1820.1700487116514,837.2150974233027,1812.2150974233027" close="False" data-weight="0.0" stroke-width="6" fill="none" stroke="#ff7f00" />
<path d="M794.0349025766973,1769.0349025766973 C786.0799512883486,1761.0799512883486,770.1700487116514,1745.1700487116514,762.2150974233027,1737.2150974233027" close="False" data-weight="0.0" stroke-width="6" fill="none" stroke="#ff7f00" />
<path d="M719.0349025766973,1694.0349025766973 C711.0799512883486,1686.0799512883486,695.1700487116514,1670.1700487116514,687.2150974233027,1662.2150974233027" close="False" data-weight="0.0" stroke-width="6" fill="none" stroke="#ff7f00" />
<path d="M644.0349025766973,1619.0349025766973 A35.85816626156056,35.85816626156056,0,0,0,626.5323014451633,1609.4027538039627 M626.5323014451633,1609.4027538039627 A93.83039863674549,93.83039863674549,0,0,0,605.9834101745155,1607.125 M605.9834101745155,1607.125" close="False" data-weight="1.0" stroke-width="6" fill="none" stroke="#ff7f00" />
<path d="M575.2665898254845,1607.125 C564.1957949127423,1607.125,542.0542050872577,1607.125,530.9834101745155,1607.125" close="False" data-weight="0.0" stroke-width="6" fill="none" stroke="#ff7f00" />
<path d="M500.2665898254845,1607.125 C489.19579491274226,1607.125,467.05420508725774,1607.125,455.9834101745155,1607.125" close="False" data-weight="0.0" stroke-width="6" fill="none" stroke="#ff7f00" />
<path d="M328.125,1505.625 A35.85816626156327,35.85816626156327,0,0,0,333.69025023390714,1524.812165663101 M333.69025023390714,1524.812165663101 A93.83039863656118,93.83039863656118,0,0,0,346.6098954365825,1540.95304118709 M346.6098954365825,1540.95304118709" close="False" data-weight="1.0" stroke-width="6" fill="none" stroke="#ff7f00" />
<path d="M328.125,1430.625 C328.125,1441.875,328.125,1464.375,328.125,1475.625" close="False" data-weight="0.0" stroke-width="6" fill="none" stroke="#ff7f00" />
<path d="M328.125,1355.625 C328.125,1366.875,328.125,1389.375,328.125,1400.625" close="False" data-weight="0.0" stroke-width="6" fill="none" stroke="#ff7f00" />
<path d="M328.125,1280.625 C328.125,1291.875,328.125,1314.375,328.125,1325.625" close="False" data-weight="0.0" stroke-width="6" fill="none" stroke="#ff7f00" />
<path d="M328.125,1205.625 C328.125,1216.875,328.125,1239.375,328.125,1250.625" close="False" data-weight="0.0" stroke-width="6" fill="none" stroke="#ff7f00" />
<path d="M1244.0349025766973,2219.0349025766973 L1287.2150974233027,2262.2150974233027" close="False" data-weight="2.060660171779821" stroke-width="6" fill="none" stroke="#ff7f00" />
<path d="M1169.0349025766973,2144.0349025766973 L1212.2150974233027,2187.2150974233027" close="False" data-weight="2.060660171779821" stroke-width="6" fill="none" stroke="#ff7f00" />
<path d="M1094.0349025766973,2069.0349025766973 L1137.2150974233027,2112.2150974233027" close="False" data-weight="2.060660171779821" stroke-width="6" fill="none" stroke="#ff7f00" />
<path d="M1019.0349025766973,1994.0349025766973 L1062.2150974233027,2037.2150974233027" close="False" data-weight="2.060660171779821" stroke-width="6" fill="none" stroke="#ff7f00" />
<path d="M944.0349025766973,1919.0349025766973 L987.2150974233027,1962.2150974233027" close="False" data-weight="2.060660171779821" stroke-width="6" fill="none" stroke="#ff7f00" />
<path d="M869.0349025766973,1844.0349025766973 L912.2150974233027,1887.2150974233027" close="False" data-weight="2.060660171779821" stroke-width="6" fill="none" stroke="#ff7f00" />
<path d="M794.0349025766973,1769.0349025766973 L837.2150974233027,1812.2150974233027" close="False" data-weight="2.060660171779821" stroke-width="6" fill="none" stroke="#ff7f00" />
<path d="M719.0349025766973,1694.0349025766973 L762.2150974233027,1737.2150974233027" close="False" data-weight="2.060660171779821" stroke-width="6" fill="none" stroke="#ff7f00" />
<path d="M644.0349025766973,1619.0349025766973 L687.2150974233027,1662.2150974233027" close="False" data-weight="2.060660171779821" stroke-width="6" fill="none" stroke="#ff7f00" />
<path d="M575.2665898254845,1607.125 L605.9834101745155,1607.125" close="False" data-weight="1.75" stroke-width="6" fill="none" stroke="#ff7f00" />
<path d="M500.2665898254845,1607.125 L530.9834101745155,1607.125" close="False" data-weight="1.75" stroke-width="6" fill="none" stroke="#ff7f00" />
<path d="M425.2665898254845,1607.125 L455.9834101745155,1607.125" close="False" data-weight="1.75" stroke-width="6" fill="none" stroke="#ff7f00" />
<path d="M346.6098954365825,1540.95304118709 L390.296958812895,1584.6401045634027" close="False" data-weight="2.060660171779821" stroke-width="6" fill="none" stroke="#ff7f00" />
<path d="M328.125,1475.625 L328.125,1505.625" close="False" data-weight="1.75" stroke-width="6" fill="none" stroke="#ff7f00" />
<path d="M328.125,1400.625 L328.125,1430.625" close="False" data-weight="1.75" stroke-width="6" fill="none" stroke="#ff7f00" />
<path d="M328.125,1325.625 L328.125,1355.625" close="False" data-weight="1.75" stroke-width="6" fill="none" stroke="#ff7f00" />
<path d="M328.125,1250.625 L328.125,1280.625" close="False" data-weight="1.75" stroke-width="6" fill="none" stroke="#ff7f00" />
<path d="M328.125,1175.625 L328.125,1205.625" close="False" data-weight="1.75" stroke-width="6" fill="none" stroke="#ff7f00" />
<path d="M328.125,1100.625 L328.125,1130.625" close="False" data-weight="1.75" stroke-width="6" fill="none" stroke="#ff7f00" />
<path d="M2428.125,1280.625 A54.31980515339728,54.31980515339728,0,0,1,2423.9901510378277,1301.412289481504 M2423.9901510378277,1301.412289481504 A54.319805153387826,54.319805153387826,0,0,1,2412.2150974233027,1319.0349025766973 M2412.2150974233027,1319.0349025766973" close="False" data-weight="1.0" stroke-width="6" fill="none" stroke="#4daf4a" />
<path d="M2428.125,1205.625 C2428.125,1216.875,2428.125,1239.375,2428.125,1250.625" close="False" data-weight="0.0" stroke-width="6" fill="none" stroke="#4daf4a" />
<path d="M2369.0349025766973,1362.2150974233027 C2361.0799512883486,1370.1700487116514,2345.1700487116514,1386.0799512883486,2337.2150974233027,1394.0349025766973" close="False" data-weight="0.0" stroke-width="6" fill="none" stroke="#4daf4a" />
<path d="M2349.125,1055.9834101745155 A57.45452644913212,57.45452644913212,0,0,0,2353.498465412666,1077.9703055610175 M2353.498465412666,1077.9703055610175 A57.454526449343206,57.454526449343206,0,0,0,2365.9530411871347,1096.609895436627 M2365.9530411871347,1096.609895436627" close="False" data-weight="1.0" stroke-width="6" fill="none" stroke="#4daf4a" />
<path d="M2349.125,980.9834101745155 C2349.125,992.0542050872577,2349.125,1014.1957949127423,2349.125,1025.2665898254845" close="False" data-weight="0.0" stroke-width="6" fill="none" stroke="#4daf4a" />
<path d="M2294.0349025766973,1437.2150974233027 C2286.0799512883486,1445.1700487116514,2270.1700487116514,1461.0799512883486,2262.2150974233027,1469.0349025766973" close="False" data-weight="0.0" stroke-width="6" fill="none" stroke="#4daf4a" />
<path d="M2300.625,928.125 C2289.375,928.125,2266.875,928.125,2255.625,928.125" close="False" data-weight="0.0" stroke-width="6" fill="none" stroke="#4daf4a" />
<path d="M2219.0349025766973,1512.2150974233027 C2211.0799512883486,1520.1700487116514,2195.1700487116514,1536.0799512883486,2187.2150974233027,1544.0349025766973" close="False" data-weight="0.0" stroke-width="6" fill="none" stroke="#4daf4a" />
<path d="M2225.625,928.125 C2214.375,928.125,2191.875,928.125,2180.625,928.125" close="False" data-weight="0.0" stroke-width="6" fill="none" stroke="#4daf4a" />
<path d="M2144.0349025766973,1587.2150974233027 C2136.0799512883486,1595.1700487116514,2120.1700487116514,1611.0799512883486,2112.2150974233027,1619.0349025766973" close="False" data-weight="0.0" stroke-width="6" fill="none" stroke="#4daf4a" />
<path d="M2150.625,928.125 C2139.375,928.125,2116.875,928.125,2105.625,928.125" close="False" data-weight="0.0" stroke-width="6" fill="none" stroke="#4daf4a" />
<path d="M2150.0685502079336,773.1520125405435 C2143.339415791086,779.881146957391,2129.881146957391,793.3394157910858,2123.1520125405436,800.0685502079333" close="False" data-weight="0.0" stroke-width="6" fill="none" stroke="#4daf4a" />
<path d="M2144.0349025766973,644.0349025766973 C2136.0799512883486,636.0799512883486,2120.1700487116514,620.1700487116514,2112.2150974233027,612.2150974233027" close="False" data-weight="0.0" stroke-width="6" fill="none" stroke="#4daf4a" />
<path d="M2069.0349025766973,1662.2150974233027 C2061.0799512883486,1670.1700487116514,2045.1700487116514,1686.0799512883486,2037.2150974233027,1694.0349025766973" close="False" data-weight="0.0" stroke-width="6" fill="none" stroke="#4daf4a" />
<path d="M2075.0685502079336,848.1520125405435 A726.5857905097807,726.5857905097807,0,0,0,2063.057684594123,860.4504686765576 M2063.057684594123,860.4504686765576 A21.467026297446864,21.467026297446864,0,0,0,2057.125,875.2665898254845 M2057.125,875.2665898254845" close="False" data-weight="1.0" stroke-width="6" fill="none" stroke="#4daf4a" />
<path d="M2053.125,530.625 A54.3198051533991,54.3198051533991,0,0,0,2057.259848962172,551.4122894815041 M2057.259848962172,551.4122894815041 A54.319805153386056,54.319805153386056,0,0,0,2069.0349025766973,569.0349025766973 M2069.0349025766973,569.0349025766973" close="False" data-weight="1.0" stroke-width="6" fill="none" stroke="#4daf4a" />
<path d="M2053.125,455.625 C2053.125,466.875,2053.125,489.375,2053.125,500.625" close="False" data-weight="0.0" stroke-width="6" fill="none" stroke="#4daf4a" />
<path d="M2053.125,380.625 C2053.125,391.875,2053.125,414.375,2053.125,425.625" close="False" data-weight="0.0" stroke-width="6" fill="none" stroke="#4daf4a" />
<path d="M2053.125,305.625 C2053.125,316.875,2053.125,339.375,2053.125,350.625" close="False" data-weight="0.0" stroke-width="6" fill="none" stroke="#4daf4a" />
<path d="M1994.0349025766973,1737.2150974233027 C1986.0799512883486,1745.1700487116514,1970.1700487116514,1761.0799512883486,1962.2150974233027,1769.0349025766973" close="False" data-weight="0.0" stroke-width="6" fill="none" stroke="#4daf4a" />
<path d="M2000.625,253.125 A54.31980515339285,54.31980515339285,0,0,1,1979.837710518496,248.99015103782762 M1979.837710518496,248.99015103782762 A54.319805153396246,54.319805153396246,0,0,1,1962.2150974233027,237.21509742330267 M1962.2150974233027,237.21509742330267" close="False" data-weight="1.0" stroke-width="6" fill="none" stroke="#4daf4a" />
<path d="M1919.0349025766973,1812.2150974233027 C1911.0799512883486,1820.1700487116514,1895.1700487116514,1836.0799512883486,1887.2150974233027,1844.0349025766973" close="False" data-weight="0.0" stroke-width="6" fill="none" stroke="#4daf4a" />
<path d="M1844.0349025766973,1887.2150974233027 C1836.0799512883486,1895.1700487116514,1820.1700487116514,1911.0799512883486,1812.2150974233027,1919.0349025766973" close="False" data-weight="0.0" stroke-width="6" fill="none" stroke="#4daf4a" />
<path d="M1769.0349025766973,1962.2150974233027 C1761.0799512883486,1970.1700487116514,1745.1700487116514,1986.0799512883486,1737.2150974233027,1994.0349025766973" close="False" data-weight="0.0" stroke-width="6" fill="none" stroke="#4daf4a" />
<path d="M1694.0349025766973,2037.2150974233027 C1686.0799512883486,2045.1700487116514,1670.1700487116514,2061.0799512883486,1662.2150974233027,2069.0349025766973" close="False" data-weight="0.0" stroke-width="6" fill="none" stroke="#4daf4a" />
<path d="M1619.0349025766973,2112.2150974233027 C1611.0799512883486,2120.1700487116514,1595.1700487116514,2136.0799512883486,1587.2150974233027,2144.0349025766973" close="False" data-weight="0.0" stroke-width="6" fill="none" stroke="#4daf4a" />
<path d="M1528.125,2330.625 C1528.125,2341.875,1528.125,2364.375,1528.125,2375.625" close="False" data-weight="0.0" stroke-width="6" fill="none" stroke="#4daf4a" />
<path d="M1528.125,2255.625 C1528.125,2266.875,1528.125,2289.375,1528.125,2300.625" close="False" data-weight="0.0" stroke-width="6" fill="none" stroke="#4daf4a" />
<path d="M1544.0349025766973,2187.2150974233027 A54.319805153402136,54.319805153402136,0,0,0,1532.259848962172,2204.8377105184964 M1532.259848962172,2204.8377105184964 A54.31980515339069,54.31980515339069,0,0,0,1528.125,2225.625 M1528.125,2225.625" close="False" data-weight="1.0" stroke-width="6" fill="none" stroke="#4daf4a" />
<path d="M1469.0349025766973,2369.0349025766973 C1461.0799512883486,2361.0799512883486,1445.1700487116514,2345.1700487116514,1437.2150974233027,2337.2150974233027" close="False" data-weight="0.0" stroke-width="6" fill="none" stroke="#4daf4a" />
<path d="M1394.0349025766973,2294.0349025766973 C1386.0799512883486,2286.0799512883486,1370.1700487116514,2270.1700487116514,1362.2150974233027,2262.2150974233027" close="False" data-weight="0.0" stroke-width="6" fill="none" stroke="#4daf4a" />
<path d="M1319.0349025766973,2219.0349025766973 C1311.0799512883486,2211.0799512883486,1295.1700487116514,2195.1700487116514,1287.2150974233027,2187.2150974233027" close="False" data-weight="0.0" stroke-width="6" fill="none" stroke="#4daf4a" />
<path d="M1244.0349025766973,2144.0349025766973 C1236.0799512883486,2136.0799512883486,1220.1700487116514,2120.1700487116514,1212.2150974233027,2112.2150974233027" close="False" data-weight="0.0" stroke-width="6" fill="none" stroke="#4daf4a" />
<path d="M1169.0349025766973,2069.0349025766973 C1161.0799512883486,2061.0799512883486,1145.1700487116514,2045.1700487116514,1137.2150974233027,2037.2150974233027" close="False" data-weight="0.0" stroke-width="6" fill="none" stroke="#4daf4a" />
<path d="M1094.0349025766973,1994.0349025766973 C1086.0799512883486,1986.0799512883486,1070.1700487116514,1970.1700487116514,1062.2150974233027,1962.2150974233027" close="False" data-weight="0.0" stroke-width="6" fill="none" stroke="#4daf4a" />
<path d="M1019.0349025766973,1919.0349025766973 C1011.0799512883486,1911.0799512883486,995.1700487116514,1895.1700487116514,987.2150974233027,1887.2150974233027" close="False" data-weight="0.0" stroke-width="6" fill="none" stroke="#4daf4a" />
<path d="M944.0349025766973,1844.0349025766973 C936.0799512883486,1836.0799512883486,920.1700487116514,1820.1700487116514,912.2150974233027,1812.2150974233027" close="False" data-weight="0.0" stroke-width="6" fill="none" stroke="#4daf4a" />
<path d="M869.0349025766973,1769.0349025766973 C861.0799512883486,1761.0799512883486,845.1700487116514,1745.1700487116514,837.2150974233027,1737.2150974233027" close="False" data-weight="0.0" stroke-width="6" fill="none" stroke="#4daf4a" />
<path d="M794.0349025766973,1694.0349025766973 C786.0799512883486,1686.0799512883486,770.1700487116514,1670.1700487116514,762.2150974233027,1662.2150974233027" close="False" data-weight="0.0" stroke-width="6" fill="none" stroke="#4daf4a" />
<path d="M719.0349025766973,1619.0349025766973 C711.0799512883486,1611.0799512883486,695.1700487116514,1595.1700487116514,687.2150974233027,1587.2150974233027" close="False" data-weight="0.0" stroke-width="6" fill="none" stroke="#4daf4a" />
<path d="M632.125,1505.9834101745155 A93.83039863674537,93.83039863674537,0,0,0,634.4027538039627,1526.5323014451633 M634.4027538039627,1526.5323014451633 A35.85816626156056,35.85816626156056,0,0,0,644.0349025766973,1544.0349025766973 M644.0349025766973,1544.0349025766973" close="False" data-weight="1.0" stroke-width="6" fill="none" stroke="#4daf4a" />
<path d="M632.125,1430.9834101745155 C632.125,1442.0542050872577,632.125,1464.1957949127423,632.125,1475.2665898254845" close="False" data-weight="0.0" stroke-width="6" fill="none" stroke="#4daf4a" />
<path d="M569.0349025766973,1319.0349025766973 C561.0799512883486,1311.0799512883486,545.1700487116514,1295.1700487116514,537.2150974233027,1287.2150974233027" close="False" data-weight="0.0" stroke-width="6" fill="none" stroke="#4daf4a" />
<path d="M494.03490257669733,1244.0349025766973 C486.0799512883487,1236.0799512883486,470.1700487116513,1220.1700487116514,462.21509742330267,1212.2150974233027" close="False" data-weight="0.0" stroke-width="6" fill="none" stroke="#4daf4a" />
<path d="M419.03490257669733,1169.0349025766973 A54.31980515339551,54.31980515339551,0,0,0,401.41228948150405,1157.259848962172 M401.41228948150405,1157.259848962172 A54.31980515339387,54.31980515339387,0,0,0,380.625,1153.125 M380.625,1153.125" close="False" data-weight="1.0" stroke-width="6" fill="none" stroke="#4daf4a" />
<path d="M2428.125,1250.625 L2428.125,1280.625" close="False" data-weight="1.75" stroke-width="6" fill="none" stroke="#4daf4a" />
<path d="M2428.125,1175.625 L2428.125,1205.625" close="False" data-weight="1.75" stroke-width="6" fill="none" stroke="#4daf4a" />
<path d="M2369.0349025766973,1362.2150974233027 L2412.2150974233027,1319.0349025766973" close="False" data-weight="2.060660171779821" stroke-width="6" fill="none" stroke="#4daf4a" />
<path d="M2365.9530411871347,1096.609895436627 L2409.640104563373,1140.2969588128653" close="False" data-weight="2.060660171779821" stroke-width="6" fill="none" stroke="#4daf4a" />
<path d="M2349.125,1025.2665898254845 L2349.125,1055.9834101745155" close="False" data-weight="1.75" stroke-width="6" fill="none" stroke="#4daf4a" />
<path d="M2349.125,950.2665898254845 L2349.125,980.9834101745155" close="False" data-weight="1.75" stroke-width="6" fill="none" stroke="#4daf4a" />
<path d="M2294.0349025766973,1437.2150974233027 L2337.2150974233027,1394.0349025766973" close="False" data-weight="2.060660171779821" stroke-width="6" fill="none" stroke="#4daf4a" />
<path d="M2300.625,928.125 L2330.625,928.125" close="False" data-weight="1.75" stroke-width="6" fill="none" stroke="#4daf4a" />
<path d="M2219.0349025766973,1512.2150974233027 L2262.2150974233027,1469.0349025766973" close="False" data-weight="2.060660171779821" stroke-width="6" fill="none" stroke="#4daf4a" />
<path d="M2225.625,928.125 L2255.625,928.125" close="False" data-weight="1.75" stroke-width="6" fill="none" stroke="#4daf4a" />
<path d="M2144.0349025766973,1587.2150974233027 L2187.2150974233027,1544.0349025766973" close="False" data-weight="2.060660171779821" stroke-width="6" fill="none" stroke="#4daf4a" />
<path d="M2150.625,928.125 L2180.625,928.125" close="False" data-weight="1.75" stroke-width="6" fill="none" stroke="#4daf4a" />
<path d="M2150.068550207933,773.1520125405438 L2198.152012540544,725.0685502079331" close="False" data-weight="2.060660171779821" stroke-width="6" fill="none" stroke="#4daf4a" />
<path d="M2144.0349025766973,644.0349025766973 L2187.2150974233027,687.2150974233027" close="False" data-weight="2.060660171779821" stroke-width="6" fill="none" stroke="#4daf4a" />
<path d="M2069.0349025766973,1662.2150974233027 L2112.2150974233027,1619.0349025766973" close="False" data-weight="2.060660171779821" stroke-width="6" fill="none" stroke="#4daf4a" />
<path d="M2075.625,928.125 L2105.625,928.125" close="False" data-weight="1.75" stroke-width="6" fill="none" stroke="#4daf4a" />
<path d="M2057.125,875.2665898254845 L2057.125,905.9834101745155" close="False" data-weight="1.75" stroke-width="6" fill="none" stroke="#4daf4a" />
<path d="M2075.068550207933,848.1520125405438 L2123.152012540544,800.0685502079331" close="False" data-weight="2.060660171779821" stroke-width="6" fill="none" stroke="#4daf4a" />
<path d="M2069.0349025766973,569.0349025766973 L2112.2150974233027,612.2150974233027" close="False" data-weight="2.060660171779821" stroke-width="6" fill="none" stroke="#4daf4a" />
<path d="M2053.125,500.625 L2053.125,530.625" close="False" data-weight="1.75" stroke-width="6" fill="none" stroke="#4daf4a" />
<path d="M2053.125,425.625 L2053.125,455.625" close="False" data-weight="1.75" stroke-width="6" fill="none" stroke="#4daf4a" />
<path d="M2053.125,350.625 L2053.125,380.625" close="False" data-weight="1.75" stroke-width="6" fill="none" stroke="#4daf4a" />
<path d="M2053.125,275.625 L2053.125,305.625" close="False" data-weight="1.75" stroke-width="6" fill="none" stroke="#4daf4a" />
<path d="M1994.0349025766973,1737.2150974233027 L2037.2150974233027,1694.0349025766973" close="False" data-weight="2.060660171779821" stroke-width="6" fill="none" stroke="#4daf4a" />
<path d="M2000.625,253.125 L2030.625,253.125" close="False" data-weight="1.75" stroke-width="6" fill="none" stroke="#4daf4a" />
<path d="M1919.0349025766973,1812.2150974233027 L1962.2150974233027,1769.0349025766973" close="False" data-weight="2.060660171779821" stroke-width="6" fill="none" stroke="#4daf4a" />
<path d="M1919.0349025766973,194.03490257669733 L1962.2150974233027,237.2150974233027" close="False" data-weight="2.060660171779821" stroke-width="6" fill="none" stroke="#4daf4a" />
<path d="M1844.0349025766973,1887.2150974233027 L1887.2150974233027,1844.0349025766973" close="False" data-weight="2.060660171779821" stroke-width="6" fill="none" stroke="#4daf4a" />
<path d="M1769.0349025766973,1962.2150974233027 L1812.2150974233027,1919.0349025766973" close="False" data-weight="2.060660171779821" stroke-width="6" fill="none" stroke="#4daf4a" />
<path d="M1694.0349025766973,2037.2150974233027 L1737.2150974233027,1994.0349025766973" close="False" data-weight="2.060660171779821" stroke-width="6" fill="none" stroke="#4daf4a" />
<path d="M1619.0349025766973,2112.2150974233027 L1662.2150974233027,2069.0349025766973" close="False" data-weight="2.060660171779821" stroke-width="6" fill="none" stroke="#4daf4a" />
<path d="M1528.125,2375.625 L1528.125,2405.625" close="False" data-weight="1.75" stroke-width="6" fill="none" stroke="#4daf4a" />
<path d="M1528.125,2300.625 L1528.125,2330.625" close="False" data-weight="1.75" stroke-width="6" fill="none" stroke="#4daf4a" />
<path d="M1528.125,2225.625 L1528.125,2255.625" close="False" data-weight="1.75" stroke-width="6" fill="none" stroke="#4daf4a" />
<path d="M1544.0349025766973,2187.2150974233027 L1587.2150974233027,2144.0349025766973" close="False" data-weight="2.060660171779821" stroke-width="6" fill="none" stroke="#4daf4a" />
<path d="M1469.0349025766973,2369.0349025766973 L1512.2150974233027,2412.2150974233027" close="False" data-weight="2.060660171779821" stroke-width="6" fill="none" stroke="#4daf4a" />
<path d="M1394.0349025766973,2294.0349025766973 L1437.2150974233027,2337.2150974233027" close="False" data-weight="2.060660171779821" stroke-width="6" fill="none" stroke="#4daf4a" />
<path d="M1319.0349025766973,2219.0349025766973 L1362.2150974233027,2262.2150974233027" close="False" data-weight="2.060660171779821" stroke-width="6" fill="none" stroke="#4daf4a" />
<path d="M1244.0349025766973,2144.0349025766973 L1287.2150974233027,2187.2150974233027" close="False" data-weight="2.060660171779821" stroke-width="6" fill="none" stroke="#4daf4a" />
<path d="M1169.0349025766973,2069.0349025766973 L1212.2150974233027,2112.2150974233027" close="False" data-weight="2.060660171779821" stroke-width="6" fill="none" stroke="#4daf4a" />
<path d="M1094.0349025766973,1994.0349025766973 L1137.2150974233027,2037.2150974233027" close="False" data-weight="2.060660171779821" stroke-width="6" fill="none" stroke="#4daf4a" />
<path d="M1019.0349025766973,1919.0349025766973 L1062.2150974233027,1962.2150974233027" close="False" data-weight="2.060660171779821" stroke-width="6" fill="none" stroke="#4daf4a" />
<path d="M944.0349025766973,1844.0349025766973 L987.2150974233027,1887.2150974233027" close="False" data-weight="2.060660171779821" stroke-width="6" fill="none" stroke="#4daf4a" />
<path d="M869.0349025766973,1769.0349025766973 L912.2150974233027,1812.2150974233027" close="False" data-weight="2.060660171779821" stroke-width="6" fill="none" stroke="#4daf4a" />
<path d="M794.0349025766973,1694.0349025766973 L837.2150974233027,1737.2150974233027" close="False" data-weight="2.060660171779821" stroke-width="6" fill="none" stroke="#4daf4a" />
<path d="M719.0349025766973,1619.0349025766973 L762.2150974233027,1662.2150974233027" close="False" data-weight="2.060660171779821" stroke-width="6" fill="none" stroke="#4daf4a" />
<path d="M644.0349025766973,1544.0349025766973 L687.2150974233027,1587.2150974233027" close="False" data-weight="2.060660171779821" stroke-width="6" fill="none" stroke="#4daf4a" />
<path d="M632.125,1475.2665898254845 L632.125,1505.9834101745155" close="False" data-weight="1.75" stroke-width="6" fill="none" stroke="#4daf4a" />
<path d="M632.125,1400.2665898254845 L632.125,1430.9834101745155" close="False" data-weight="1.75" stroke-width="6" fill="none" stroke="#4daf4a" />
<path d="M569.0349025766973,1319.0349025766973 L612.2150974233027,1362.2150974233027" close="False" data-weight="2.060660171779821" stroke-width="6" fill="none" stroke="#4daf4a" />
<path d="M494.03490257669733,1244.0349025766973 L537.2150974233027,1287.2150974233027" close="False" data-weight="2.060660171779821" stroke-width="6" fill="none" stroke="#4daf4a" />
<path d="M419.03490257669733,1169.0349025766973 L462.21509742330267,1212.2150974233027" close="False" data-weight="2.060660171779821" stroke-width="6" fill="none" stroke="#4daf4a" />
<path d="M350.625,1153.125 L380.625,1153.125" close="False" data-weight="1.75" stroke-width="6" fill="none" stroke="#4daf4a" />
<path d="M1603.125,830.625 A54.31980515339637,54.31980515339637,0,0,1,1598.990151037828,851.412289481504 M1598.990151037828,851.412289481504 A54.31980515339273,54.31980515339273,0,0,1,1587.2150974233027,869.0349025766973 M1587.2150974233027,869.0349025766973" close="False" data-weight="1.0" stroke-width="6" fill="none" stroke="#377eb8" />
<path d="M1550.625,778.125 C1539.375,778.125,1516.875,778.125,1505.625,778.125" close="False" data-weight="0.0" stroke-width="6" fill="none" stroke="#377eb8" />
<path d="M1475.2665898254845,932.125 C1464.1957949127423,932.125,1442.0542050872577,932.125,1430.9834101745155,932.125" close="False" data-weight="0.0" stroke-width="6" fill="none" stroke="#377eb8" />
<path d="M1475.625,778.125 C1464.375,778.125,1441.875,778.125,1430.625,778.125" close="False" data-weight="0.0" stroke-width="6" fill="none" stroke="#377eb8" />
<path d="M1471.6098954365973,615.296958812895 A49.45452644918823,49.45452644918823,0,0,0,1460.889501672745,631.3411618979195 M1460.889501672745,631.3411618979195 A49.45452644918555,49.45452644918555,0,0,0,1457.125,650.2665898254845 M1457.125,650.2665898254845" close="False" data-weight="1.0" stroke-width="6" fill="none" stroke="#377eb8" />
<path d="M1469.0349025766973,419.03490257669733 C1461.0799512883486,411.0799512883487,1445.1700487116514,395.1700487116513,1437.2150974233027,387.21509742330267" close="False" data-weight="0.0" stroke-width="6" fill="none" stroke="#377eb8" />
<path d="M1400.2665898254845,932.125 A49.454526449188165,49.454526449188165,0,0,0,1381.3411618979196,935.8895016727449 M1381.3411618979196,935.8895016727449 A49.45452644918534,49.45452644918534,0,0,0,1365.2969588128951,946.6098954365974 M1365.2969588128951,946.6098954365974" close="False" data-weight="1.0" stroke-width="6" fill="none" stroke="#377eb8" />
<path d="M1394.0349025766973,344.03490257669733 C1386.0799512883486,336.0799512883487,1370.1700487116514,320.1700487116513,1362.2150974233027,312.21509742330267" close="False" data-weight="0.0" stroke-width="6" fill="none" stroke="#377eb8" />
<path d="M1307.125,1055.9834101745155 A93.83039863674549,93.83039863674549,0,0,0,1309.4027538039627,1076.5323014451633 M1309.4027538039627,1076.5323014451633 A35.85816626156064,35.85816626156064,0,0,0,1319.0349025766973,1094.0349025766973 M1319.0349025766973,1094.0349025766973" close="False" data-weight="1.0" stroke-width="6" fill="none" stroke="#377eb8" />
<path d="M1319.0349025766973,269.03490257669733 C1311.0799512883486,261.0799512883487,1295.1700487116514,245.1700487116513,1287.2150974233027,237.21509742330267" close="False" data-weight="0.0" stroke-width="6" fill="none" stroke="#377eb8" />
<path d="M1244.0349025766973,1212.2150974233027 C1236.0799512883486,1220.1700487116514,1220.1700487116514,1236.0799512883486,1212.2150974233027,1244.0349025766973" close="False" data-weight="0.0" stroke-width="6" fill="none" stroke="#377eb8" />
<path d="M1244.0349025766973,194.0349025766973 C1236.0799512883486,186.07995128834867,1220.1700487116514,170.1700487116513,1212.2150974233027,162.21509742330267" close="False" data-weight="0.0" stroke-width="6" fill="none" stroke="#377eb8" />
<path d="M1169.0349025766973,1287.2150974233027 C1161.0799512883486,1295.1700487116514,1145.1700487116514,1311.0799512883486,1137.2150974233027,1319.0349025766973" close="False" data-weight="0.0" stroke-width="6" fill="none" stroke="#377eb8" />
<path d="M1169.0349025766973,119.0349025766973 A54.3198051533952,54.3198051533952,0,0,0,1151.412289481504,107.25984896217221 M1151.412289481504,107.25984896217221 A54.319805153393986,54.319805153393986,0,0,0,1130.625,103.125 M1130.625,103.125" close="False" data-weight="1.0" stroke-width="6" fill="none" stroke="#377eb8" />
<path d="M1094.0349025766973,1362.2150974233027 C1086.0799512883486,1370.1700487116514,1070.1700487116514,1386.0799512883486,1062.2150974233027,1394.0349025766973" close="False" data-weight="0.0" stroke-width="6" fill="none" stroke="#377eb8" />
<path d="M1100.625,103.125 C1089.375,103.125,1066.875,103.125,1055.625,103.125" close="False" data-weight="0.0" stroke-width="6" fill="none" stroke="#377eb8" />
<path d="M1019.0349025766973,1437.2150974233027 C1011.0799512883486,1445.1700487116514,995.1700487116514,1461.0799512883486,987.2150974233027,1469.0349025766973" close="False" data-weight="0.0" stroke-width="6" fill="none" stroke="#377eb8" />
<path d="M1003.125,230.625 C1003.125,241.875,1003.125,264.375,1003.125,275.625" close="False" data-weight="0.0" stroke-width="6" fill="none" stroke="#377eb8" />
<path d="M944.0349025766973,1512.2150974233027 C936.0799512883486,1520.1700487116514,920.1700487116514,1536.0799512883486,912.2150974233027,1544.0349025766973" close="False" data-weight="0.0" stroke-width="6" fill="none" stroke="#377eb8" />
<path d="M869.0349025766973,1587.2150974233027 A54.31980515339554,54.31980515339554,0,0,1,851.412289481504,1598.990151037828 M851.412289481504,1598.990151037828 A54.319805153393645,54.319805153393645,0,0,1,830.625,1603.125 M830.625,1603.125" close="False" data-weight="1.0" stroke-width="6" fill="none" stroke="#377eb8" />
<path d="M800.625,1603.125 C789.375,1603.125,766.875,1603.125,755.625,1603.125" close="False" data-weight="0.0" stroke-width="6" fill="none" stroke="#377eb8" />
<path d="M725.625,1603.125 C714.375,1603.125,691.875,1603.125,680.625,1603.125" close="False" data-weight="0.0" stroke-width="6" fill="none" stroke="#377eb8" />
<path d="M719.0349025766973,537.2150974233027 A54.3198051533949,54.3198051533949,0,0,1,701.4122894815039,548.9901510378279 M701.4122894815039,548.9901510378279 A54.31980515339427,54.31980515339427,0,0,1,680.625,553.125 M680.625,553.125" close="False" data-weight="1.0" stroke-width="6" fill="none" stroke="#377eb8" />
<path d="M703.125,380.625 A54.319805153394555,54.319805153394555,0,0,1,698.9901510378278,401.412289481504 M698.9901510378278,401.412289481504 A54.31980515339474,54.31980515339474,0,0,1,687.2150974233027,419.03490257669733 M687.2150974233027,419.03490257669733" close="False" data-weight="1.0" stroke-width="6" fill="none" stroke="#377eb8" />
<path d="M703.125,305.625 C703.125,316.875,703.125,339.375,703.125,350.625" close="False" data-weight="0.0" stroke-width="6" fill="none" stroke="#377eb8" />
<path d="M650.625,1603.125 C639.4198908356868,1603.125,617.1885193388287,1599.125,605.9834101745155,1599.125" close="False" data-weight="0.0" stroke-width="6" fill="none" stroke="#377eb8" />
<path d="M650.625,553.125 C639.375,553.125,616.875,553.125,605.625,553.125" close="False" data-weight="0.0" stroke-width="6" fill="none" stroke="#377eb8" />
<path d="M644.0349025766973,462.21509742330267 C636.0799512883486,470.1700487116513,620.1700487116514,486.0799512883487,612.2150974233027,494.03490257669733" close="False" data-weight="0.0" stroke-width="6" fill="none" stroke="#377eb8" />
<path d="M575.2665898254845,1599.125 C564.1957949127423,1599.125,542.0542050872577,1599.125,530.9834101745155,1599.125" close="False" data-weight="0.0" stroke-width="6" fill="none" stroke="#377eb8" />
<path d="M500.2665898254845,1599.125 C489.19579491274226,1599.125,467.05420508725774,1599.125,455.9834101745155,1599.125" close="False" data-weight="0.0" stroke-width="6" fill="none" stroke="#377eb8" />
<path d="M1603.125,800.625 L1603.125,830.625" close="False" data-weight="1.75" stroke-width="6" fill="none" stroke="#377eb8" />
<path d="M1544.0349025766973,912.2150974233027 L1587.2150974233027,869.0349025766973" close="False" data-weight="2.060660171779821" stroke-width="6" fill="none" stroke="#377eb8" />
<path d="M1550.625,778.125 L1580.625,778.125" close="False" data-weight="1.75" stroke-width="6" fill="none" stroke="#377eb8" />
<path d="M1544.0349025766973,537.2150974233027 L1587.2150974233027,494.03490257669733" close="False" data-weight="2.060660171779821" stroke-width="6" fill="none" stroke="#377eb8" />
<path d="M1550.2665898254845,482.125 L1580.9834101745155,482.125" close="False" data-weight="1.75" stroke-width="6" fill="none" stroke="#377eb8" />
<path d="M1475.2665898254845,932.125 L1505.9834101745155,932.125" close="False" data-weight="1.75" stroke-width="6" fill="none" stroke="#377eb8" />
<path d="M1475.625,778.125 L1505.625,778.125" close="False" data-weight="1.75" stroke-width="6" fill="none" stroke="#377eb8" />
<path d="M1457.125,650.2665898254845 L1457.125,680.9834101745155" close="False" data-weight="1.75" stroke-width="6" fill="none" stroke="#377eb8" />
<path d="M1471.6098954365973,615.296958812895 L1515.2969588128951,571.6098954365974" close="False" data-weight="2.060660171779821" stroke-width="6" fill="none" stroke="#377eb8" />
<path d="M1469.0349025766973,419.03490257669733 L1512.2150974233027,462.21509742330267" close="False" data-weight="2.060660171779821" stroke-width="6" fill="none" stroke="#377eb8" />
<path d="M1400.2665898254845,932.125 L1430.9834101745155,932.125" close="False" data-weight="1.75" stroke-width="6" fill="none" stroke="#377eb8" />
<path d="M1400.625,778.125 L1430.625,778.125" close="False" data-weight="1.75" stroke-width="6" fill="none" stroke="#377eb8" />
<path d="M1382.125,725.2665898254845 L1382.125,755.9834101745155" close="False" data-weight="1.75" stroke-width="6" fill="none" stroke="#377eb8" />
<path d="M1400.2665898254845,707.125 L1430.9834101745155,707.125" close="False" data-weight="1.75" stroke-width="6" fill="none" stroke="#377eb8" />
<path d="M1394.0349025766973,344.03490257669733 L1437.2150974233027,387.21509742330267" close="False" data-weight="2.060660171779821" stroke-width="6" fill="none" stroke="#377eb8" />
<path d="M1325.2665898254845,1149.125 L1355.9834101745155,1149.125" close="False" data-weight="1.75" stroke-width="6" fill="none" stroke="#377eb8" />
<path d="M1319.0349025766973,1094.0349025766973 L1362.2150974233027,1137.2150974233027" close="False" data-weight="2.060660171779821" stroke-width="6" fill="none" stroke="#377eb8" />
<path d="M1307.125,1025.2665898254845 L1307.125,1055.9834101745155" close="False" data-weight="1.75" stroke-width="6" fill="none" stroke="#377eb8" />
<path d="M1321.6098954365973,990.296958812895 L1365.2969588128951,946.6098954365974" close="False" data-weight="2.060660171779821" stroke-width="6" fill="none" stroke="#377eb8" />
<path d="M1319.0349025766973,269.03490257669733 L1362.2150974233027,312.21509742330267" close="False" data-weight="2.060660171779821" stroke-width="6" fill="none" stroke="#377eb8" />
<path d="M1244.0349025766973,1212.2150974233027 L1287.2150974233027,1169.0349025766973" close="False" data-weight="2.060660171779821" stroke-width="6" fill="none" stroke="#377eb8" />
<path d="M1244.0349025766973,194.03490257669733 L1287.2150974233027,237.2150974233027" close="False" data-weight="2.060660171779821" stroke-width="6" fill="none" stroke="#377eb8" />
<path d="M1169.0349025766973,1287.2150974233027 L1212.2150974233027,1244.0349025766973" close="False" data-weight="2.060660171779821" stroke-width="6" fill="none" stroke="#377eb8" />
<path d="M1169.0349025766973,119.03490257669732 L1212.2150974233027,162.2150974233027" close="False" data-weight="2.060660171779821" stroke-width="6" fill="none" stroke="#377eb8" />
<path d="M1094.0349025766973,1362.2150974233027 L1137.2150974233027,1319.0349025766973" close="False" data-weight="2.060660171779821" stroke-width="6" fill="none" stroke="#377eb8" />
<path d="M1100.625,103.125 L1130.625,103.125" close="False" data-weight="1.75" stroke-width="6" fill="none" stroke="#377eb8" />
<path d="M1019.0349025766973,1437.2150974233027 L1062.2150974233027,1394.0349025766973" close="False" data-weight="2.060660171779821" stroke-width="6" fill="none" stroke="#377eb8" />
<path d="M1003.125,275.625 L1003.125,305.625" close="False" data-weight="1.75" stroke-width="6" fill="none" stroke="#377eb8" />
<path d="M1003.125,200.625 L1003.125,230.625" close="False" data-weight="1.75" stroke-width="6" fill="none" stroke="#377eb8" />
<path d="M1003.125,125.625 L1003.125,155.625" close="False" data-weight="1.75" stroke-width="6" fill="none" stroke="#377eb8" />
<path d="M1025.625,103.125 L1055.625,103.125" close="False" data-weight="1.75" stroke-width="6" fill="none" stroke="#377eb8" />
<path d="M944.0349025766973,1512.2150974233027 L987.2150974233027,1469.0349025766973" close="False" data-weight="2.060660171779821" stroke-width="6" fill="none" stroke="#377eb8" />
<path d="M950.625,328.125 L980.625,328.125" close="False" data-weight="1.75" stroke-width="6" fill="none" stroke="#377eb8" />
<path d="M869.0349025766973,1587.2150974233027 L912.2150974233027,1544.0349025766973" close="False" data-weight="2.060660171779821" stroke-width="6" fill="none" stroke="#377eb8" />
<path d="M869.0349025766973,387.21509742330267 L912.2150974233027,344.03490257669733" close="False" data-weight="2.060660171779821" stroke-width="6" fill="none" stroke="#377eb8" />
<path d="M800.625,1603.125 L830.625,1603.125" close="False" data-weight="1.75" stroke-width="6" fill="none" stroke="#377eb8" />
<path d="M794.0349025766973,462.21509742330267 L837.2150974233027,419.03490257669733" close="False" data-weight="2.060660171779821" stroke-width="6" fill="none" stroke="#377eb8" />
<path d="M725.625,1603.125 L755.625,1603.125" close="False" data-weight="1.75" stroke-width="6" fill="none" stroke="#377eb8" />
<path d="M719.0349025766973,537.2150974233027 L762.2150974233027,494.03490257669733" close="False" data-weight="2.060660171779821" stroke-width="6" fill="none" stroke="#377eb8" />
<path d="M703.125,350.625 L703.125,380.625" close="False" data-weight="1.75" stroke-width="6" fill="none" stroke="#377eb8" />
<path d="M703.125,275.625 L703.125,305.625" close="False" data-weight="1.75" stroke-width="6" fill="none" stroke="#377eb8" />
<path d="M650.625,1603.125 L680.625,1603.125" close="False" data-weight="1.75" stroke-width="6" fill="none" stroke="#377eb8" />
<path d="M650.625,553.125 L680.625,553.125" close="False" data-weight="1.75" stroke-width="6" fill="none" stroke="#377eb8" />
<path d="M644.0349025766973,462.21509742330267 L687.2150974233027,419.03490257669733" close="False" data-weight="2.060660171779821" stroke-width="6" fill="none" stroke="#377eb8" />
<path d="M575.2665898254845,1599.125 L605.9834101745155,1599.125" close="False" data-weight="1.75" stroke-width="6" fill="none" stroke="#377eb8" />
<path d="M575.625,553.125 L605.625,553.125" close="False" data-weight="1.75" stroke-width="6" fill="none" stroke="#377eb8" />
<path d="M569.0349025766973,537.2150974233027 L612.2150974233027,494.03490257669733" close="False" data-weight="2.060660171779821" stroke-width="6" fill="none" stroke="#377eb8" />
<path d="M500.2665898254845,1599.125 L530.9834101745155,1599.125" close="False" data-weight="1.75" stroke-width="6" fill="none" stroke="#377eb8" />
<path d="M425.2665898254845,1599.125 L455.9834101745155,1599.125" close="False" data-weight="1.75" stroke-width="6" fill="none" stroke="#377eb8" />
<path d="M2369.0349025766973,1662.2150974233027 C2361.0799512883486,1670.1700487116514,2345.1700487116514,1686.0799512883486,2337.2150974233027,1694.0349025766973" close="False" data-weight="0.0" stroke-width="6" fill="none" stroke="#e41a1c" />
<path d="M2375.625,1153.125 A54.31980515339296,54.31980515339296,0,0,0,2354.8377105184964,1157.2598489621723 M2354.8377105184964,1157.2598489621723 A54.31980515340005,54.31980515340005,0,0,0,2337.2150974233027,1169.0349025766973 M2337.2150974233027,1169.0349025766973" close="False" data-weight="1.0" stroke-width="6" fill="none" stroke="#e41a1c" />
<path d="M2357.125,1055.9834101745155 A49.454526449246714,49.454526449246714,0,0,0,2360.8895016727333,1074.9088381020645 M2360.8895016727333,1074.9088381020645 A49.454526449021586,49.454526449021586,0,0,0,2371.6098954365675,1090.9530411870753 M2371.6098954365675,1090.9530411870753" close="False" data-weight="1.0" stroke-width="6" fill="none" stroke="#e41a1c" />
<path d="M2357.125,980.9834101745155 C2357.125,992.0542050872577,2357.125,1014.1957949127423,2357.125,1025.2665898254845" close="False" data-weight="0.0" stroke-width="6" fill="none" stroke="#e41a1c" />
<path d="M2353.125,830.625 C2353.125,841.875,2353.125,864.375,2353.125,875.625" close="False" data-weight="0.0" stroke-width="6" fill="none" stroke="#e41a1c" />
<path d="M2353.125,755.625 C2353.125,766.875,2353.125,789.375,2353.125,800.625" close="False" data-weight="0.0" stroke-width="6" fill="none" stroke="#e41a1c" />
<path d="M2353.125,680.625 C2353.125,691.875,2353.125,714.375,2353.125,725.625" close="False" data-weight="0.0" stroke-width="6" fill="none" stroke="#e41a1c" />
<path d="M2294.0349025766973,1394.0349025766973 C2286.0799512883486,1386.0799512883486,2270.1700487116514,1370.1700487116514,2262.2150974233027,1362.2150974233027" close="False" data-weight="0.0" stroke-width="6" fill="none" stroke="#e41a1c" />
<path d="M2294.0349025766973,1212.2150974233027 C2286.0799512883486,1220.1700487116514,2270.1700487116514,1236.0799512883486,2262.2150974233027,1244.0349025766973" close="False" data-weight="0.0" stroke-width="6" fill="none" stroke="#e41a1c" />
<path d="M2300.2665898254845,632.125 A49.45452644912962,49.45452644912962,0,0,0,2281.3411618979035,635.8895016727564 M2281.3411618979035,635.8895016727564 A49.45452644934539,49.45452644934539,0,0,0,2265.2969588128653,646.6098954366271 M2265.2969588128653,646.6098954366271" close="False" data-weight="1.0" stroke-width="6" fill="none" stroke="#e41a1c" />
<path d="M2146.6098954365975,765.296958812895 C2138.781661280672,773.1251929688207,2123.1251929688206,788.7816612806718,2115.296958812895,796.6098954365974" close="False" data-weight="0.0" stroke-width="6" fill="none" stroke="#e41a1c" />
<path d="M2071.6098954365675,840.2969588129248 A447.70631264302193,447.70631264302193,0,0,0,2056.4903188932267,856.1758149767984 M2056.4903188932267,856.1758149767984 A28.424132939253468,28.424132939253468,0,0,0,2049.125,875.2665898254845 M2049.125,875.2665898254845" close="False" data-weight="1.0" stroke-width="6" fill="none" stroke="#e41a1c" />
<path d="M1994.0349025766973,869.0349025766973 C1986.0799512883486,861.0799512883486,1970.1700487116514,845.1700487116514,1962.2150974233027,837.2150974233027" close="False" data-weight="0.0" stroke-width="6" fill="none" stroke="#e41a1c" />
<path d="M1925.625,1828.125 C1914.375,1828.125,1891.875,1828.125,1880.625,1828.125" close="False" data-weight="0.0" stroke-width="6" fill="none" stroke="#e41a1c" />
<path d="M1919.0349025766973,794.0349025766973 A54.31980515339514,54.31980515339514,0,0,0,1901.412289481504,782.2598489621722 M1901.412289481504,782.2598489621722 A54.319805153393986,54.319805153393986,0,0,0,1880.625,778.125 M1880.625,778.125" close="False" data-weight="1.0" stroke-width="6" fill="none" stroke="#e41a1c" />
<path d="M1828.125,1505.625 C1828.125,1516.875,1828.125,1539.375,1828.125,1550.625" close="False" data-weight="0.0" stroke-width="6" fill="none" stroke="#e41a1c" />
<path d="M1850.625,778.125 C1839.375,778.125,1816.875,778.125,1805.625,778.125" close="False" data-weight="0.0" stroke-width="6" fill="none" stroke="#e41a1c" />
<path d="M1775.625,778.125 C1764.375,778.125,1741.875,778.125,1730.625,778.125" close="False" data-weight="0.0" stroke-width="6" fill="none" stroke="#e41a1c" />
<path d="M1700.625,778.125 C1689.375,778.125,1666.875,778.125,1655.625,778.125" close="False" data-weight="0.0" stroke-width="6" fill="none" stroke="#e41a1c" />
<path d="M1603.125,680.625 C1603.125,691.875,1603.125,714.375,1603.125,725.625" close="False" data-weight="0.0" stroke-width="6" fill="none" stroke="#e41a1c" />
<path d="M1603.125,605.625 C1603.125,616.875,1603.125,639.375,1603.125,650.625" close="False" data-weight="0.0" stroke-width="6" fill="none" stroke="#e41a1c" />
<path d="M1603.125,530.625 C1603.125,541.875,1603.125,564.375,1603.125,575.625" close="False" data-weight="0.0" stroke-width="6" fill="none" stroke="#e41a1c" />
<path d="M1475.2665898254845,924.125 C1464.1957949127423,924.125,1442.0542050872577,924.125,1430.9834101745155,924.125" close="False" data-weight="0.0" stroke-width="6" fill="none" stroke="#e41a1c" />
<path d="M1469.0349025766973,869.0349025766973 C1461.0799512883486,861.0799512883486,1445.1700487116514,845.1700487116514,1437.2150974233027,837.2150974233027" close="False" data-weight="0.0" stroke-width="6" fill="none" stroke="#e41a1c" />
<path d="M1465.9530411871049,609.6401045634026 A57.45452644918669,57.45452644918669,0,0,0,1453.4984654126547,628.2796944389988 M1453.4984654126547,628.2796944389988 A57.45452644918714,57.45452644918714,0,0,0,1449.125,650.2665898254845 M1449.125,650.2665898254845" close="False" data-weight="1.0" stroke-width="6" fill="none" stroke="#e41a1c" />
<path d="M1378.125,1505.625 A35.85816626155997,35.85816626155997,0,0,1,1372.5597497660872,1524.8121656631092 M1372.5597497660872,1524.8121656631092 A93.8303986367474,93.8303986367474,0,0,1,1359.6401045634027,1540.9530411871049 M1359.6401045634027,1540.9530411871049" close="False" data-weight="1.0" stroke-width="6" fill="none" stroke="#e41a1c" />
<path d="M1378.125,1430.625 C1378.125,1441.875,1378.125,1464.375,1378.125,1475.625" close="False" data-weight="0.0" stroke-width="6" fill="none" stroke="#e41a1c" />
<path d="M1378.125,1355.625 C1378.125,1366.875,1378.125,1389.375,1378.125,1400.625" close="False" data-weight="0.0" stroke-width="6" fill="none" stroke="#e41a1c" />
<path d="M1378.125,1280.625 C1378.125,1291.875,1378.125,1314.375,1378.125,1325.625" close="False" data-weight="0.0" stroke-width="6" fill="none" stroke="#e41a1c" />
<path d="M1378.125,1205.625 C1378.125,1216.875,1378.125,1239.375,1378.125,1250.625" close="False" data-weight="0.0" stroke-width="6" fill="none" stroke="#e41a1c" />
<path d="M1400.2665898254845,924.125 A57.45452644918703,57.45452644918703,0,0,0,1378.2796944389988,928.4984654126547 M1378.2796944389988,928.4984654126547 A57.454526449186446,57.454526449186446,0,0,0,1359.6401045634027,940.953041187105 M1359.6401045634027,940.953041187105" close="False" data-weight="1.0" stroke-width="6" fill="none" stroke="#e41a1c" />
<path d="M1299.125,2180.9834101745155 C1299.125,2192.0542050872577,1299.125,2214.1957949127423,1299.125,2225.2665898254845" close="False" data-weight="0.0" stroke-width="6" fill="none" stroke="#e41a1c" />
<path d="M1299.125,2105.9834101745155 C1299.125,2117.0542050872577,1299.125,2139.1957949127423,1299.125,2150.2665898254845" close="False" data-weight="0.0" stroke-width="6" fill="none" stroke="#e41a1c" />
<path d="M1299.125,2030.9834101745155 C1299.125,2042.0542050872577,1299.125,2064.1957949127423,1299.125,2075.2665898254845" close="False" data-weight="0.0" stroke-width="6" fill="none" stroke="#e41a1c" />
<path d="M1315.9530411871049,1959.6401045634027 A57.45452644918516,57.45452644918516,0,0,0,1303.4984654126547,1978.2796944389988 M1303.4984654126547,1978.2796944389988 A57.45452644918828,57.45452644918828,0,0,0,1299.125,2000.2665898254845 M1299.125,2000.2665898254845" close="False" data-weight="1.0" stroke-width="6" fill="none" stroke="#e41a1c" />
<path d="M1299.125,1775.2665898254845 A49.45452644918828,49.45452644918828,0,0,0,1295.360498327255,1756.3411618979196 M1295.360498327255,1756.3411618979196 A49.454526449185096,49.454526449185096,0,0,0,1284.6401045634027,1740.2969588128951 M1284.6401045634027,1740.2969588128951" close="False" data-weight="1.0" stroke-width="6" fill="none" stroke="#e41a1c" />
<path d="M1299.125,1055.9834101745155 C1299.125,1067.1885193388287,1303.125,1089.4198908356868,1303.125,1100.625" close="False" data-weight="0.0" stroke-width="6" fill="none" stroke="#e41a1c" />
<path d="M2369.0349025766973,1662.2150974233027 L2412.2150974233027,1619.0349025766973" close="False" data-weight="2.060660171779821" stroke-width="6" fill="none" stroke="#e41a1c" />
<path d="M2369.0349025766973,1544.0349025766973 L2412.2150974233027,1587.2150974233027" close="False" data-weight="2.060660171779821" stroke-width="6" fill="none" stroke="#e41a1c" />
<path d="M2353.125,1475.625 L2353.125,1505.625" close="False" data-weight="1.75" stroke-width="6" fill="none" stroke="#e41a1c" />
<path d="M2375.625,1153.125 L2405.625,1153.125" close="False" data-weight="1.75" stroke-width="6" fill="none" stroke="#e41a1c" />
<path d="M2371.6098954365675,1090.9530411870753 L2415.296958812925,1134.6401045634323" close="False" data-weight="2.060660171779821" stroke-width="6" fill="none" stroke="#e41a1c" />
<path d="M2357.125,1025.2665898254845 L2357.125,1055.9834101745155" close="False" data-weight="1.75" stroke-width="6" fill="none" stroke="#e41a1c" />
<path d="M2357.125,950.2665898254845 L2357.125,980.9834101745155" close="False" data-weight="1.75" stroke-width="6" fill="none" stroke="#e41a1c" />
<path d="M2353.125,875.625 L2353.125,905.625" close="False" data-weight="1.75" stroke-width="6" fill="none" stroke="#e41a1c" />
<path d="M2353.125,800.625 L2353.125,830.625" close="False" data-weight="1.75" stroke-width="6" fill="none" stroke="#e41a1c" />
<path d="M2353.125,725.625 L2353.125,755.625" close="False" data-weight="1.75" stroke-width="6" fill="none" stroke="#e41a1c" />
<path d="M2353.125,650.625 L2353.125,680.625" close="False" data-weight="1.75" stroke-width="6" fill="none" stroke="#e41a1c" />
<path d="M2294.0349025766973,1737.2150974233027 L2337.2150974233027,1694.0349025766973" close="False" data-weight="2.060660171779821" stroke-width="6" fill="none" stroke="#e41a1c" />
<path d="M2294.0349025766973,1394.0349025766973 L2337.2150974233027,1437.2150974233027" close="False" data-weight="2.060660171779821" stroke-width="6" fill="none" stroke="#e41a1c" />
<path d="M2294.0349025766973,1212.2150974233027 L2337.2150974233027,1169.0349025766973" close="False" data-weight="2.060660171779821" stroke-width="6" fill="none" stroke="#e41a1c" />
<path d="M2300.2665898254845,632.125 L2330.9834101745155,632.125" close="False" data-weight="1.75" stroke-width="6" fill="none" stroke="#e41a1c" />
<path d="M2225.625,1753.125 L2255.625,1753.125" close="False" data-weight="1.75" stroke-width="6" fill="none" stroke="#e41a1c" />
<path d="M2219.0349025766973,1319.0349025766973 L2262.2150974233027,1362.2150974233027" close="False" data-weight="2.060660171779821" stroke-width="6" fill="none" stroke="#e41a1c" />
<path d="M2219.0349025766973,1287.2150974233027 L2262.2150974233027,1244.0349025766973" close="False" data-weight="2.060660171779821" stroke-width="6" fill="none" stroke="#e41a1c" />
<path d="M2221.6098954365975,690.296958812895 L2265.296958812895,646.6098954365974" close="False" data-weight="2.060660171779821" stroke-width="6" fill="none" stroke="#e41a1c" />
<path d="M2144.0349025766973,1812.2150974233027 L2187.2150974233027,1769.0349025766973" close="False" data-weight="2.060660171779821" stroke-width="6" fill="none" stroke="#e41a1c" />
<path d="M2146.6098954365975,765.296958812895 L2190.296958812895,721.6098954365974" close="False" data-weight="2.060660171779821" stroke-width="6" fill="none" stroke="#e41a1c" />
<path d="M2069.0349025766973,1887.2150974233027 L2112.2150974233027,1844.0349025766973" close="False" data-weight="2.060660171779821" stroke-width="6" fill="none" stroke="#e41a1c" />
<path d="M2049.125,875.2665898254845 L2049.125,905.9834101745155" close="False" data-weight="1.75" stroke-width="6" fill="none" stroke="#e41a1c" />
<path d="M2071.6098954365675,840.2969588129248 L2115.296958812895,796.6098954365974" close="False" data-weight="2.060660171779821" stroke-width="6" fill="none" stroke="#e41a1c" />
<path d="M1994.0349025766973,1844.0349025766973 L2037.2150974233027,1887.2150974233027" close="False" data-weight="2.060660171779821" stroke-width="6" fill="none" stroke="#e41a1c" />
<path d="M1994.0349025766973,1469.0349025766973 L2037.2150974233027,1512.2150974233027" close="False" data-weight="2.060660171779821" stroke-width="6" fill="none" stroke="#e41a1c" />
<path d="M1994.0349025766973,869.0349025766973 L2037.2150974233027,912.2150974233027" close="False" data-weight="2.060660171779821" stroke-width="6" fill="none" stroke="#e41a1c" />
<path d="M1925.625,1828.125 L1955.625,1828.125" close="False" data-weight="1.75" stroke-width="6" fill="none" stroke="#e41a1c" />
<path d="M1903.125,1700.625 L1903.125,1730.625" close="False" data-weight="1.75" stroke-width="6" fill="none" stroke="#e41a1c" />
<path d="M1919.0349025766973,1394.0349025766973 L1962.2150974233027,1437.2150974233027" close="False" data-weight="2.060660171779821" stroke-width="6" fill="none" stroke="#e41a1c" />
<path d="M1919.0349025766973,794.0349025766973 L1962.2150974233027,837.2150974233027" close="False" data-weight="2.060660171779821" stroke-width="6" fill="none" stroke="#e41a1c" />
<path d="M1850.625,1828.125 L1880.625,1828.125" close="False" data-weight="1.75" stroke-width="6" fill="none" stroke="#e41a1c" />
<path d="M1828.125,1775.625 L1828.125,1805.625" close="False" data-weight="1.75" stroke-width="6" fill="none" stroke="#e41a1c" />
<path d="M1850.625,1753.125 L1880.625,1753.125" close="False" data-weight="1.75" stroke-width="6" fill="none" stroke="#e41a1c" />
<path d="M1844.0349025766973,1619.0349025766973 L1887.2150974233027,1662.2150974233027" close="False" data-weight="2.060660171779821" stroke-width="6" fill="none" stroke="#e41a1c" />
<path d="M1828.125,1550.625 L1828.125,1580.625" close="False" data-weight="1.75" stroke-width="6" fill="none" stroke="#e41a1c" />
<path d="M1828.125,1475.625 L1828.125,1505.625" close="False" data-weight="1.75" stroke-width="6" fill="none" stroke="#e41a1c" />
<path d="M1844.0349025766973,1437.2150974233027 L1887.2150974233027,1394.0349025766973" close="False" data-weight="2.060660171779821" stroke-width="6" fill="none" stroke="#e41a1c" />
<path d="M1850.625,778.125 L1880.625,778.125" close="False" data-weight="1.75" stroke-width="6" fill="none" stroke="#e41a1c" />
<path d="M1775.625,778.125 L1805.625,778.125" close="False" data-weight="1.75" stroke-width="6" fill="none" stroke="#e41a1c" />
<path d="M1700.625,778.125 L1730.625,778.125" close="False" data-weight="1.75" stroke-width="6" fill="none" stroke="#e41a1c" />
<path d="M1625.625,778.125 L1655.625,778.125" close="False" data-weight="1.75" stroke-width="6" fill="none" stroke="#e41a1c" />
<path d="M1603.125,725.625 L1603.125,755.625" close="False" data-weight="1.75" stroke-width="6" fill="none" stroke="#e41a1c" />
<path d="M1603.125,650.625 L1603.125,680.625" close="False" data-weight="1.75" stroke-width="6" fill="none" stroke="#e41a1c" />
<path d="M1603.125,575.625 L1603.125,605.625" close="False" data-weight="1.75" stroke-width="6" fill="none" stroke="#e41a1c" />
<path d="M1603.125,500.625 L1603.125,530.625" close="False" data-weight="1.75" stroke-width="6" fill="none" stroke="#e41a1c" />
<path d="M1528.125,500.625 L1528.125,530.625" close="False" data-weight="1.75" stroke-width="6" fill="none" stroke="#e41a1c" />
<path d="M1550.2665898254845,474.125 L1580.9834101745155,474.125" close="False" data-weight="1.75" stroke-width="6" fill="none" stroke="#e41a1c" />
<path d="M1475.2665898254845,924.125 L1505.9834101745155,924.125" close="False" data-weight="1.75" stroke-width="6" fill="none" stroke="#e41a1c" />
<path d="M1469.0349025766973,869.0349025766973 L1512.2150974233027,912.2150974233027" close="False" data-weight="2.060660171779821" stroke-width="6" fill="none" stroke="#e41a1c" />
<path d="M1449.125,650.2665898254845 L1449.125,680.9834101745155" close="False" data-weight="1.75" stroke-width="6" fill="none" stroke="#e41a1c" />
<path d="M1465.9530411871049,609.6401045634026 L1509.6401045634027,565.953041187105" close="False" data-weight="2.060660171779821" stroke-width="6" fill="none" stroke="#e41a1c" />
<path d="M1378.125,1475.625 L1378.125,1505.625" close="False" data-weight="1.75" stroke-width="6" fill="none" stroke="#e41a1c" />
<path d="M1378.125,1400.625 L1378.125,1430.625" close="False" data-weight="1.75" stroke-width="6" fill="none" stroke="#e41a1c" />
<path d="M1378.125,1325.625 L1378.125,1355.625" close="False" data-weight="1.75" stroke-width="6" fill="none" stroke="#e41a1c" />
<path d="M1378.125,1250.625 L1378.125,1280.625" close="False" data-weight="1.75" stroke-width="6" fill="none" stroke="#e41a1c" />
<path d="M1378.125,1175.625 L1378.125,1205.625" close="False" data-weight="1.75" stroke-width="6" fill="none" stroke="#e41a1c" />
<path d="M1400.2665898254845,924.125 L1430.9834101745155,924.125" close="False" data-weight="1.75" stroke-width="6" fill="none" stroke="#e41a1c" />
<path d="M1394.0349025766973,794.0349025766973 L1437.2150974233027,837.2150974233027" close="False" data-weight="2.060660171779821" stroke-width="6" fill="none" stroke="#e41a1c" />
<path d="M1374.125,725.2665898254845 L1374.125,755.9834101745155" close="False" data-weight="1.75" stroke-width="6" fill="none" stroke="#e41a1c" />
<path d="M1400.2665898254845,699.125 L1430.9834101745155,699.125" close="False" data-weight="1.75" stroke-width="6" fill="none" stroke="#e41a1c" />
<path d="M1299.125,2225.2665898254845 L1299.125,2255.9834101745155" close="False" data-weight="1.75" stroke-width="6" fill="none" stroke="#e41a1c" />
<path d="M1299.125,2150.2665898254845 L1299.125,2180.9834101745155" close="False" data-weight="1.75" stroke-width="6" fill="none" stroke="#e41a1c" />
<path d="M1299.125,2075.2665898254845 L1299.125,2105.9834101745155" close="False" data-weight="1.75" stroke-width="6" fill="none" stroke="#e41a1c" />
<path d="M1299.125,2000.2665898254845 L1299.125,2030.9834101745155" close="False" data-weight="1.75" stroke-width="6" fill="none" stroke="#e41a1c" />
<path d="M1315.9530411871049,1959.6401045634027 L1359.6401045634027,1915.9530411871049" close="False" data-weight="2.060660171779821" stroke-width="6" fill="none" stroke="#e41a1c" />
<path d="M1315.9530411871049,1846.6098954365973 L1359.6401045634027,1890.2969588128951" close="False" data-weight="2.060660171779821" stroke-width="6" fill="none" stroke="#e41a1c" />
<path d="M1299.125,1775.2665898254845 L1299.125,1805.9834101745155" close="False" data-weight="1.75" stroke-width="6" fill="none" stroke="#e41a1c" />
<path d="M1315.9530411871347,1584.640104563373 L1359.6401045634027,1540.9530411871049" close="False" data-weight="2.060660171779821" stroke-width="6" fill="none" stroke="#e41a1c" />
<path d="M1325.2665898254845,1157.125 L1355.9834101745155,1157.125" close="False" data-weight="1.75" stroke-width="6" fill="none" stroke="#e41a1c" />
<path d="M1303.125,1100.625 L1303.125,1130.625" close="False" data-weight="1.75" stroke-width="6" fill="none" stroke="#e41a1c" />
<path d="M1299.125,1025.2665898254845 L1299.125,1055.9834101745155" close="False" data-weight="1.75" stroke-width="6" fill="none" stroke="#e41a1c" />
<path d="M1315.9530411871049,984.6401045634026 L1359.6401045634027,940.953041187105" close="False" data-weight="2.060660171779821" stroke-width="6" fill="none" stroke="#e41a1c" />
<path d="M1240.9530411871049,1696.6098954365973 L1284.6401045634323,1740.2969588129247" close="False" data-weight="2.060660171779821" stroke-width="6" fill="none" stroke="#e41a1c" />
<path d="M1240.9530411871049,1659.6401045634027 L1284.640104563373,1615.9530411871347" close="False" data-weight="2.060660171779821" stroke-width="6" fill="none" stroke="#e41a1c" />
<image x="2395.625" y="1570.625" width="65" height="65" xlink:href="designspace-test/./img/ds_dataset2_60_8_thumb.png">
<title>8</title>
</image>
<image x="2395.625" y="1120.625" width="65" height="65" xlink:href="designspace-test/./img/ds_dataset2_60_50_thumb.png">
<title>50</title>
</image>
<image x="2320.625" y="1495.625" width="65" height="65" xlink:href="designspace-test/./img/ds_dataset2_60_36_thumb.png">
<title>36</title>
</image>
<image x="2320.625" y="1420.625" width="65" height="65" xlink:href="designspace-test/./img/ds_dataset2_60_41_thumb.png">
<title>41</title>
</image>
<image x="2320.625" y="895.625" width="65" height="65" xlink:href="designspace-test/./img/ds_dataset2_60_29_thumb.png">
<title>29</title>
</image>
<image x="2320.625" y="595.625" width="65" height="65" xlink:href="designspace-test/./img/ds_dataset2_60_31_thumb.png">
<title>31</title>
</image>
<image x="2245.625" y="1720.625" width="65" height="65" xlink:href="designspace-test/./img/ds_dataset2_60_46_thumb.png">
<title>46</title>
</image>
<image x="2170.625" y="1720.625" width="65" height="65" xlink:href="designspace-test/./img/ds_dataset2_60_17_thumb.png">
<title>17</title>
</image>
<image x="2170.625" y="1270.625" width="65" height="65" xlink:href="designspace-test/./img/ds_dataset2_60_32_thumb.png">
<title>32</title>
</image>
<image x="2170.625" y="670.625" width="65" height="65" xlink:href="designspace-test/./img/ds_dataset2_60_10_thumb.png">
<title>10</title>
</image>
<image x="2095.625" y="1795.625" width="65" height="65" xlink:href="designspace-test/./img/ds_dataset2_60_1_thumb.png">
<title>1</title>
</image>
<image x="2020.625" y="1870.625" width="65" height="65" xlink:href="designspace-test/./img/ds_dataset2_60_37_thumb.png">
<title>37</title>
</image>
<image x="2020.625" y="1495.625" width="65" height="65" xlink:href="designspace-test/./img/ds_dataset2_60_43_thumb.png">
<title>43</title>
</image>
<image x="2020.625" y="895.625" width="65" height="65" xlink:href="designspace-test/./img/ds_dataset2_60_12_thumb.png">
<title>12</title>
</image>
<image x="2020.625" y="220.625" width="65" height="65" xlink:href="designspace-test/./img/ds_dataset2_60_21_thumb.png">
<title>21</title>
</image>
<image x="1945.625" y="1795.625" width="65" height="65" xlink:href="designspace-test/./img/ds_dataset2_60_54_thumb.png">
<title>54</title>
</image>
<image x="1945.625" y="1420.625" width="65" height="65" xlink:href="designspace-test/./img/ds_dataset2_60_44_thumb.png">
<title>44</title>
</image>
<image x="1870.625" y="1720.625" width="65" height="65" xlink:href="designspace-test/./img/ds_dataset2_60_56_thumb.png">
<title>56</title>
</image>
<image x="1870.625" y="1645.625" width="65" height="65" xlink:href="designspace-test/./img/ds_dataset2_60_49_thumb.png">
<title>49</title>
</image>
<image x="1870.625" y="1345.625" width="65" height="65" xlink:href="designspace-test/./img/ds_dataset2_60_9_thumb.png">
<title>9</title>
</image>
<image x="1870.625" y="145.625" width="65" height="65" xlink:href="designspace-test/./img/ds_dataset2_60_15_thumb.png">
<title>15</title>
</image>
<image x="1795.625" y="1795.625" width="65" height="65" xlink:href="designspace-test/./img/ds_dataset2_60_53_thumb.png">
<title>53</title>
</image>
<image x="1795.625" y="1720.625" width="65" height="65" xlink:href="designspace-test/./img/ds_dataset2_60_58_thumb.png">
<title>58</title>
</image>
<image x="1795.625" y="1570.625" width="65" height="65" xlink:href="designspace-test/./img/ds_dataset2_60_30_thumb.png">
<title>30</title>
</image>
<image x="1795.625" y="1420.625" width="65" height="65" xlink:href="designspace-test/./img/ds_dataset2_60_20_thumb.png">
<title>20</title>
</image>
<image x="1570.625" y="745.625" width="65" height="65" xlink:href="designspace-test/./img/ds_dataset2_60_39_thumb.png">
<title>39</title>
</image>
<image x="1570.625" y="445.625" width="65" height="65" xlink:href="designspace-test/./img/ds_dataset2_60_26_thumb.png">
<title>26</title>
</image>
<image x="1495.625" y="2395.625" width="65" height="65" xlink:href="designspace-test/./img/ds_dataset2_60_5_thumb.png">
<title>5</title>
</image>
<image x="1495.625" y="895.625" width="65" height="65" xlink:href="designspace-test/./img/ds_dataset2_60_11_thumb.png">
<title>11</title>
</image>
<image x="1495.625" y="520.625" width="65" height="65" xlink:href="designspace-test/./img/ds_dataset2_60_24_thumb.png">
<title>24</title>
</image>
<image x="1495.625" y="445.625" width="65" height="65" xlink:href="designspace-test/./img/ds_dataset2_60_38_thumb.png">
<title>38</title>
</image>
<image x="1420.625" y="670.625" width="65" height="65" xlink:href="designspace-test/./img/ds_dataset2_60_18_thumb.png">
<title>18</title>
</image>
<image x="1345.625" y="1870.625" width="65" height="65" xlink:href="designspace-test/./img/ds_dataset2_60_4_thumb.png">
<title>4</title>
</image>
<image x="1345.625" y="1120.625" width="65" height="65" xlink:href="designspace-test/./img/ds_dataset2_60_51_thumb.png">
<title>51</title>
</image>
<image x="1345.625" y="745.625" width="65" height="65" xlink:href="designspace-test/./img/ds_dataset2_60_16_thumb.png">
<title>16</title>
</image>
<image x="1345.625" y="670.625" width="65" height="65" xlink:href="designspace-test/./img/ds_dataset2_60_19_thumb.png">
<title>19</title>
</image>
<image x="1270.625" y="2245.625" width="65" height="65" xlink:href="designspace-test/./img/ds_dataset2_60_6_thumb.png">
<title>6</title>
</image>
<image x="1270.625" y="1795.625" width="65" height="65" xlink:href="designspace-test/./img/ds_dataset2_60_34_thumb.png">
<title>34</title>
</image>
<image x="1270.625" y="1570.625" width="65" height="65" xlink:href="designspace-test/./img/ds_dataset2_60_23_thumb.png">
<title>23</title>
</image>
<image x="1270.625" y="1120.625" width="65" height="65" xlink:href="designspace-test/./img/ds_dataset2_60_55_thumb.png">
<title>55</title>
</image>
<image x="1270.625" y="970.625" width="65" height="65" xlink:href="designspace-test/./img/ds_dataset2_60_13_thumb.png">
<title>13</title>
</image>
<image x="1195.625" y="1645.625" width="65" height="65" xlink:href="designspace-test/./img/ds_dataset2_60_14_thumb.png">
<title>14</title>
</image>
<image x="970.625" y="295.625" width="65" height="65" xlink:href="designspace-test/./img/ds_dataset2_60_22_thumb.png">
<title>22</title>
</image>
<image x="970.625" y="145.625" width="65" height="65" xlink:href="designspace-test/./img/ds_dataset2_60_25_thumb.png">
<title>25</title>
</image>
<image x="970.625" y="70.625" width="65" height="65" xlink:href="designspace-test/./img/ds_dataset2_60_40_thumb.png">
<title>40</title>
</image>
<image x="895.625" y="295.625" width="65" height="65" xlink:href="designspace-test/./img/ds_dataset2_60_45_thumb.png">
<title>45</title>
</image>
<image x="820.625" y="370.625" width="65" height="65" xlink:href="designspace-test/./img/ds_dataset2_60_7_thumb.png">
<title>7</title>
</image>
<image x="745.625" y="2245.625" width="65" height="65" xlink:href="designspace-test/./img/ds_dataset2_60_47_thumb.png">
<title>47</title>
</image>
<image x="745.625" y="2095.625" width="65" height="65" xlink:href="designspace-test/./img/ds_dataset2_60_52_thumb.png">
<title>52</title>
</image>
<image x="745.625" y="445.625" width="65" height="65" xlink:href="designspace-test/./img/ds_dataset2_60_2_thumb.png">
<title>2</title>
</image>
<image x="670.625" y="2170.625" width="65" height="65" xlink:href="designspace-test/./img/ds_dataset2_60_59_thumb.png">
<title>59</title>
</image>
<image x="670.625" y="220.625" width="65" height="65" xlink:href="designspace-test/./img/ds_dataset2_60_0_thumb.png">
<title>0</title>
</image>
<image x="595.625" y="2020.625" width="65" height="65" xlink:href="designspace-test/./img/ds_dataset2_60_42_thumb.png">
<title>42</title>
</image>
<image x="595.625" y="1945.625" width="65" height="65" xlink:href="designspace-test/./img/ds_dataset2_60_35_thumb.png">
<title>35</title>
</image>
<image x="595.625" y="1345.625" width="65" height="65" xlink:href="designspace-test/./img/ds_dataset2_60_48_thumb.png">
<title>48</title>
</image>
<image x="520.625" y="520.625" width="65" height="65" xlink:href="designspace-test/./img/ds_dataset2_60_27_thumb.png">
<title>27</title>
</image>
<image x="370.625" y="1570.625" width="65" height="65" xlink:href="designspace-test/./img/ds_dataset2_60_57_thumb.png">
<title>57</title>
</image>
<image x="295.625" y="1120.625" width="65" height="65" xlink:href="designspace-test/./img/ds_dataset2_60_28_thumb.png">
<title>28</title>
</image>
<image x="295.625" y="1045.625" width="65" height="65" xlink:href="designspace-test/./img/ds_dataset2_60_33_thumb.png">
<title>33</title>
</image>
<image x="70.625" y="1495.625" width="65" height="65" xlink:href="designspace-test/./img/ds_dataset2_60_3_thumb.png">
<title>3</title>
</image>
</svg>