<?xml version="1.0" encoding="UTF-8"?>
<svg xmlns="http://www.w3.org/2000/svg" xmlns:xlink="http://www.w3.org/1999/xlink"
     viewBox="0 0 1350 1350" preserveAspectRatio="xMidYMid meet">
<defs>
</defs>
<path d="M644.0349025766973,387.21509742330267 C636.0799512883486,395.1700487116513,620.1700487116514,411.0799512883487,612.2150974233027,419.03490257669733" close="False" data-weight="0.0" stroke-width="7" fill="none" stroke="#1fa562" />
<path d="M569.0349025766973,462.21509742330267 C561.0799512883486,470.1700487116513,545.1700487116514,486.0799512883487,537.2150974233027,494.03490257669733" close="False" data-weight="0.0" stroke-width="7" fill="none" stroke="#1fa562" />
<path d="M494.03490257669733,537.2150974233027 C486.0799512883487,545.1700487116514,470.1700487116513,561.0799512883486,462.21509742330267,569.0349025766973" close="False" data-weight="0.0" stroke-width="7" fill="none" stroke="#1fa562" />
<path d="M419.03490257669733,612.2150974233027 C411.0799512883487,620.1700487116514,395.1700487116513,636.0799512883486,387.21509742330267,644.0349025766973" close="False" data-weight="0.0" stroke-width="7" fill="none" stroke="#1fa562" />
<path d="M344.03490257669733,687.2150974233027 C336.0799512883487,695.1700487116514,320.1700487116513,711.0799512883486,312.21509742330267,719.0349025766973" close="False" data-weight="0.0" stroke-width="7" fill="none" stroke="#1fa562" />
<path d="M269.03490257669733,762.2150974233027 C261.0799512883487,770.1700487116514,245.1700487116513,786.0799512883486,237.21509742330267,794.0349025766973" close="False" data-weight="0.0" stroke-width="7" fill="none" stroke="#1fa562" />
<path d="M178.125,1055.625 C178.125,1066.875,178.125,1089.375,178.125,1100.625" close="False" data-weight="0.0" stroke-width="7" fill="none" stroke="#1fa562" />
<path d="M178.125,980.625 C178.125,991.875,178.125,1014.375,178.125,1025.625" close="False" data-weight="0.0" stroke-width="7" fill="none" stroke="#1fa562" />
<path d="M178.125,905.625 C178.125,916.875,178.125,939.375,178.125,950.625" close="False" data-weight="0.0" stroke-width="7" fill="none" stroke="#1fa562" />
<path d="M194.0349025766973,837.2150974233027 A54.3198051533949,54.3198051533949,0,0,0,182.25984896217216,854.8377105184961 M182.25984896217216,854.8377105184961 A54.31980515339427,54.31980515339427,0,0,0,178.125,875.625 M178.125,875.625" close="False" data-weight="1.0" stroke-width="7" fill="none" stroke="#1fa562" />
<path d="M644.0349025766973,387.21509742330267 L687.2150974233027,344.03490257669733" close="False" data-weight="2.060660171779821" stroke-width="7" fill="none" stroke="#1fa562" />
<path d="M569.0349025766973,462.21509742330267 L612.2150974233027,419.03490257669733" close="False" data-weight="2.060660171779821" stroke-width="7" fill="none" stroke="#1fa562" />
<path d="M494.03490257669733,537.2150974233027 L537.2150974233027,494.03490257669733" close="False" data-weight="2.060660171779821" stroke-width="7" fill="none" stroke="#1fa562" />
<path d="M419.03490257669733,612.2150974233027 L462.21509742330267,569.0349025766973" close="False" data-weight="2.060660171779821" stroke-width="7" fill="none" stroke="#1fa562" />
<path d="M344.03490257669733,687.2150974233027 L387.21509742330267,644.0349025766973" close="False" data-weight="2.060660171779821" stroke-width="7" fill="none" stroke="#1fa562" />
<path d="M269.03490257669733,762.2150974233027 L312.21509742330267,719.0349025766973" close="False" data-weight="2.060660171779821" stroke-width="7" fill="none" stroke="#1fa562" />
<path d="M178.125,1100.625 L178.125,1130.625" close="False" data-weight="1.75" stroke-width="7" fill="none" stroke="#1fa562" />
<path d="M178.125,1025.625 L178.125,1055.625" close="False" data-weight="1.75" stroke-width="7" fill="none" stroke="#1fa562" />
<path d="M178.125,950.625 L178.125,980.625" close="False" data-weight="1.75" stroke-width="7" fill="none" stroke="#1fa562" />
<path d="M178.125,875.625 L178.125,905.625" close="False" data-weight="1.75" stroke-width="7" fill="none" stroke="#1fa562" />
<path d="M194.03490257669733,837.2150974233027 L237.2150974233027,794.0349025766973" close="False" data-weight="2.060660171779821" stroke-width="7" fill="none" stroke="#1fa562" />
<path d="M1078.125,1130.625 A54.31980515339569,54.31980515339569,0,0,1,1073.9901510378277,1151.412289481504 M1073.9901510378277,1151.412289481504 A54.319805153393375,54.319805153393375,0,0,1,1062.2150974233027,1169.0349025766973 M1062.2150974233027,1169.0349025766973" close="False" data-weight="1.0" stroke-width="7" fill="none" stroke="#ff1c5d" />
<path d="M1078.125,1055.625 C1078.125,1066.875,1078.125,1089.375,1078.125,1100.625" close="False" data-weight="0.0" stroke-width="7" fill="none" stroke="#ff1c5d" />
<path d="M1078.125,980.625 C1078.125,991.875,1078.125,1014.375,1078.125,1025.625" close="False" data-weight="0.0" stroke-width="7" fill="none" stroke="#ff1c5d" />
<path d="M1078.125,950.625 A54.31980515339637,54.31980515339637,0,0,0,1073.990151037828,929.837710518496 M1073.990151037828,929.837710518496 A54.319805153392814,54.319805153392814,0,0,0,1062.2150974233027,912.2150974233027 M1062.2150974233027,912.2150974233027" close="False" data-weight="1.0" stroke-width="7" fill="none" stroke="#ff1c5d" />
<path d="M1078.125,605.625 C1078.125,616.875,1078.125,639.375,1078.125,650.625" close="False" data-weight="0.0" stroke-width="7" fill="none" stroke="#ff1c5d" />
<path d="M1078.125,530.625 C1078.125,541.875,1078.125,564.375,1078.125,575.625" close="False" data-weight="0.0" stroke-width="7" fill="none" stroke="#ff1c5d" />
<path d="M1094.0349025766973,462.21509742330267 A54.31980515339551,54.31980515339551,0,0,0,1082.259848962172,479.83771051849595 M1082.259848962172,479.83771051849595 A54.31980515339387,54.31980515339387,0,0,0,1078.125,500.625 M1078.125,500.625" close="False" data-weight="1.0" stroke-width="7" fill="none" stroke="#ff1c5d" />
<path d="M1003.125,1130.625 C1003.125,1141.875,1003.125,1164.375,1003.125,1175.625" close="False" data-weight="0.0" stroke-width="7" fill="none" stroke="#ff1c5d" />
<path d="M1003.125,1055.625 C1003.125,1066.875,1003.125,1089.375,1003.125,1100.625" close="False" data-weight="0.0" stroke-width="7" fill="none" stroke="#ff1c5d" />
<path d="M1019.0349025766973,869.0349025766973 C1011.0799512883486,861.0799512883486,995.1700487116514,845.1700487116514,987.2150974233027,837.2150974233027" close="False" data-weight="0.0" stroke-width="7" fill="none" stroke="#ff1c5d" />
<path d="M1019.0349025766973,644.0349025766973 A54.3198051533949,54.3198051533949,0,0,0,1001.4122894815039,632.2598489621721 M1001.4122894815039,632.2598489621721 A54.31980515339421,54.31980515339421,0,0,0,980.625,628.125 M980.625,628.125" close="False" data-weight="1.0" stroke-width="7" fill="none" stroke="#ff1c5d" />
<path d="M950.625,1003.125 C939.375,1003.125,916.875,1003.125,905.625,1003.125" close="False" data-weight="0.0" stroke-width="7" fill="none" stroke="#ff1c5d" />
<path d="M928.125,725.625 A54.31980515339478,54.31980515339478,0,0,0,923.9901510378278,704.8377105184961 M923.9901510378278,704.8377105184961 A54.319805153394256,54.319805153394256,0,0,0,912.2150974233027,687.2150974233027 M912.2150974233027,687.2150974233027" close="False" data-weight="1.0" stroke-width="7" fill="none" stroke="#ff1c5d" />
<path d="M950.625,628.125 C939.375,628.125,916.875,628.125,905.625,628.125" close="False" data-weight="0.0" stroke-width="7" fill="none" stroke="#ff1c5d" />
<path d="M875.625,1003.125 C864.375,1003.125,841.875,1003.125,830.625,1003.125" close="False" data-weight="0.0" stroke-width="7" fill="none" stroke="#ff1c5d" />
<path d="M698.625,531.0795923149514 A48.72232222128889,48.72232222128889,0,0,1,694.9162340553798,549.7248178153919 M694.9162340553798,549.7248178153919 A48.72232222128802,48.72232222128802,0,0,1,684.3545622165407,565.5314767527805 M684.3545622165407,565.5314767527805" close="False" data-weight="1.0" stroke-width="7" fill="none" stroke="#ff1c5d" />
<path d="M698.625,456.0795923149514 C698.625,467.10229615747573,698.625,489.14770384252427,698.625,500.1704076850486" close="False" data-weight="0.0" stroke-width="7" fill="none" stroke="#ff1c5d" />
<path d="M698.625,381.0795923149514 C698.625,392.10229615747573,698.625,414.14770384252427,698.625,425.1704076850486" close="False" data-weight="0.0" stroke-width="7" fill="none" stroke="#ff1c5d" />
<path d="M650.1704076850486,1007.625 C639.1477038425244,1007.625,617.1022961574756,1007.625,606.0795923149514,1007.625" close="False" data-weight="0.0" stroke-width="7" fill="none" stroke="#ff1c5d" />
<path d="M640.5314767527805,609.3545622165407 C632.7372481187206,617.1487908506006,617.1487908506006,632.7372481187206,609.3545622165407,640.5314767527805" close="False" data-weight="0.0" stroke-width="7" fill="none" stroke="#ff1c5d" />
<path d="M553.125,830.625 A34.28043425550459,34.28043425550459,0,0,1,547.3986142187177,849.5937766732 M547.3986142187177,849.5937766732 A103.64933488295175,103.64933488295175,0,0,1,534.3545622165369,865.5314767527842 M534.3545622165369,865.5314767527842" close="False" data-weight="1.0" stroke-width="7" fill="none" stroke="#ff1c5d" />
<path d="M553.125,755.625 C553.125,766.875,553.125,789.375,553.125,800.625" close="False" data-weight="0.0" stroke-width="7" fill="none" stroke="#ff1c5d" />
<path d="M1078.125,1100.625 L1078.125,1130.625" close="False" data-weight="1.75" stroke-width="7" fill="none" stroke="#ff1c5d" />
<path d="M1078.125,1025.625 L1078.125,1055.625" close="False" data-weight="1.75" stroke-width="7" fill="none" stroke="#ff1c5d" />
<path d="M1078.125,950.625 L1078.125,980.625" close="False" data-weight="1.75" stroke-width="7" fill="none" stroke="#ff1c5d" />
<path d="M1078.125,650.625 L1078.125,680.625" close="False" data-weight="1.75" stroke-width="7" fill="none" stroke="#ff1c5d" />
<path d="M1078.125,575.625 L1078.125,605.625" close="False" data-weight="1.75" stroke-width="7" fill="none" stroke="#ff1c5d" />
<path d="M1078.125,500.625 L1078.125,530.625" close="False" data-weight="1.75" stroke-width="7" fill="none" stroke="#ff1c5d" />
<path d="M1094.0349025766973,462.21509742330267 L1137.2150974233027,419.03490257669733" close="False" data-weight="2.060660171779821" stroke-width="7" fill="none" stroke="#ff1c5d" />
<path d="M1019.0349025766973,1212.2150974233027 L1062.2150974233027,1169.0349025766973" close="False" data-weight="2.060660171779821" stroke-width="7" fill="none" stroke="#ff1c5d" />
<path d="M1003.125,1175.625 L1003.125,1205.625" close="False" data-weight="1.75" stroke-width="7" fill="none" stroke="#ff1c5d" />
<path d="M1003.125,1100.625 L1003.125,1130.625" close="False" data-weight="1.75" stroke-width="7" fill="none" stroke="#ff1c5d" />
<path d="M1003.125,1025.625 L1003.125,1055.625" close="False" data-weight="1.75" stroke-width="7" fill="none" stroke="#ff1c5d" />
<path d="M1019.0349025766973,869.0349025766973 L1062.2150974233027,912.2150974233027" close="False" data-weight="2.060660171779821" stroke-width="7" fill="none" stroke="#ff1c5d" />
<path d="M1019.0349025766973,644.0349025766973 L1062.2150974233027,687.2150974233027" close="False" data-weight="2.060660171779821" stroke-width="7" fill="none" stroke="#ff1c5d" />
<path d="M950.625,1003.125 L980.625,1003.125" close="False" data-weight="1.75" stroke-width="7" fill="none" stroke="#ff1c5d" />
<path d="M944.0349025766973,794.0349025766973 L987.2150974233027,837.2150974233027" close="False" data-weight="2.060660171779821" stroke-width="7" fill="none" stroke="#ff1c5d" />
<path d="M928.125,725.625 L928.125,755.625" close="False" data-weight="1.75" stroke-width="7" fill="none" stroke="#ff1c5d" />
<path d="M950.625,628.125 L980.625,628.125" close="False" data-weight="1.75" stroke-width="7" fill="none" stroke="#ff1c5d" />
<path d="M875.625,1003.125 L905.625,1003.125" close="False" data-weight="1.75" stroke-width="7" fill="none" stroke="#ff1c5d" />
<path d="M869.0349025766973,644.0349025766973 L912.2150974233027,687.2150974233027" close="False" data-weight="2.060660171779821" stroke-width="7" fill="none" stroke="#ff1c5d" />
<path d="M875.625,628.125 L905.625,628.125" close="False" data-weight="1.75" stroke-width="7" fill="none" stroke="#ff1c5d" />
<path d="M800.625,1003.125 L830.625,1003.125" close="False" data-weight="1.75" stroke-width="7" fill="none" stroke="#ff1c5d" />
<path d="M725.1704076850486,1007.625 L756.0795923149514,1007.625" close="False" data-weight="1.75" stroke-width="7" fill="none" stroke="#ff1c5d" />
<path d="M698.625,500.1704076850486 L698.625,531.0795923149514" close="False" data-weight="1.75" stroke-width="7" fill="none" stroke="#ff1c5d" />
<path d="M698.625,425.1704076850486 L698.625,456.0795923149514" close="False" data-weight="1.75" stroke-width="7" fill="none" stroke="#ff1c5d" />
<path d="M698.625,350.1704076850486 L698.625,381.0795923149514" close="False" data-weight="1.75" stroke-width="7" fill="none" stroke="#ff1c5d" />
<path d="M650.1704076850486,1007.625 L681.0795923149514,1007.625" close="False" data-weight="1.75" stroke-width="7" fill="none" stroke="#ff1c5d" />
<path d="M640.5314767527805,609.3545622165407 L684.3545622165407,565.5314767527805" close="False" data-weight="2.060660171779821" stroke-width="7" fill="none" stroke="#ff1c5d" />
<path d="M575.1704076850486,1007.625 L606.0795923149514,1007.625" close="False" data-weight="1.75" stroke-width="7" fill="none" stroke="#ff1c5d" />
<path d="M553.125,800.625 L553.125,830.625" close="False" data-weight="1.75" stroke-width="7" fill="none" stroke="#ff1c5d" />
<path d="M553.125,725.625 L553.125,755.625" close="False" data-weight="1.75" stroke-width="7" fill="none" stroke="#ff1c5d" />
<path d="M565.5314767527805,684.3545622165407 L609.3545622165407,640.5314767527805" close="False" data-weight="2.060660171779821" stroke-width="7" fill="none" stroke="#ff1c5d" />
<path d="M494.03490257669733,944.0349025766973 L537.2150974233027,987.2150974233027" close="False" data-weight="2.060660171779821" stroke-width="7" fill="none" stroke="#ff1c5d" />
<path d="M490.5314767527804,909.3545622165407 L534.3545622165406,865.5314767527806" close="False" data-weight="2.060660171779821" stroke-width="7" fill="none" stroke="#ff1c5d" />
<path d="M1100.1704076850485,398.625 A57.722322221289005,57.722322221289005,0,0,0,1078.0810312933222,403.01885015201856 M1078.0810312933222,403.01885015201856 A57.72232222128757,57.72232222128757,0,0,0,1059.3545622165407,415.5314767527804 M1059.3545622165407,415.5314767527804" close="False" data-weight="1.0" stroke-width="7" fill="none" stroke="#7cd3eb" />
<path d="M1015.5314767527803,459.3545622165408 C1007.7372481187205,467.14879085060073,992.1487908506006,482.73724811872046,984.3545622165407,490.5314767527804" close="False" data-weight="0.0" stroke-width="7" fill="none" stroke="#7cd3eb" />
<path d="M940.5314767527806,534.3545622165406 C932.7372481187206,542.1487908506006,917.1487908506007,557.7372481187205,909.3545622165407,565.5314767527805" close="False" data-weight="0.0" stroke-width="7" fill="none" stroke="#7cd3eb" />
<path d="M794.0349025766973,687.2150974233027 A54.3198051533949,54.3198051533949,0,0,1,776.4122894815039,698.9901510378279 M776.4122894815039,698.9901510378279 A54.31980515339421,54.31980515339421,0,0,1,755.625,703.125 M755.625,703.125" close="False" data-weight="1.0" stroke-width="7" fill="none" stroke="#7cd3eb" />
<path d="M725.625,703.125 C714.375,703.125,691.875,703.125,680.625,703.125" close="False" data-weight="0.0" stroke-width="7" fill="none" stroke="#7cd3eb" />
<path d="M650.625,703.125 C639.375,703.125,616.875,703.125,605.625,703.125" close="False" data-weight="0.0" stroke-width="7" fill="none" stroke="#7cd3eb" />
<path d="M562.125,832.5034093726987 A38.20881930137557,38.20881930137557,0,0,1,555.562332095819,853.9145040236269 M555.562332095819,853.9145040236269 A122.53910164171467,122.53910164171467,0,0,1,540.7185232472233,871.8954377834556 M540.7185232472233,871.8954377834556" close="False" data-weight="1.0" stroke-width="7" fill="none" stroke="#7cd3eb" />
<path d="M562.125,757.5034093726987 C562.125,767.8142046863493,562.125,788.4357953136507,562.125,798.7465906273013" close="False" data-weight="0.0" stroke-width="7" fill="none" stroke="#7cd3eb" />
<path d="M419.03490257669733,869.0349025766973 C411.0799512883487,861.0799512883486,395.1700487116513,845.1700487116514,387.21509742330267,837.2150974233027" close="False" data-weight="0.0" stroke-width="7" fill="none" stroke="#7cd3eb" />
<path d="M425.625,103.125 C414.375,103.125,391.875,103.125,380.625,103.125" close="False" data-weight="0.0" stroke-width="7" fill="none" stroke="#7cd3eb" />
<path d="M344.03490257669733,794.0349025766973 C336.0799512883487,786.0799512883486,320.1700487116513,770.1700487116514,312.21509742330267,762.2150974233027" close="False" data-weight="0.0" stroke-width="7" fill="none" stroke="#7cd3eb" />
<path d="M328.125,530.625 C328.125,541.875,328.125,564.375,328.125,575.625" close="False" data-weight="0.0" stroke-width="7" fill="none" stroke="#7cd3eb" />
<path d="M328.125,455.625 C328.125,466.875,328.125,489.375,328.125,500.625" close="False" data-weight="0.0" stroke-width="7" fill="none" stroke="#7cd3eb" />
<path d="M344.03490257669733,387.21509742330267 A54.3198051533945,54.3198051533945,0,0,0,332.2598489621722,404.837710518496 M332.2598489621722,404.837710518496 A54.31980515339484,54.31980515339484,0,0,0,328.125,425.625 M328.125,425.625" close="False" data-weight="1.0" stroke-width="7" fill="none" stroke="#7cd3eb" />
<path d="M344.03490257669733,269.03490257669733 C336.07995128834864,261.07995128834864,320.17004871165136,245.17004871165133,312.21509742330267,237.21509742330267" close="False" data-weight="0.0" stroke-width="7" fill="none" stroke="#7cd3eb" />
<path d="M350.625,103.125 A54.319805153394526,54.319805153394526,0,0,0,329.837710518496,107.25984896217224 M329.837710518496,107.25984896217224 A54.31980515339479,54.31980515339479,0,0,0,312.21509742330267,119.03490257669732 M312.21509742330267,119.03490257669732" close="False" data-weight="1.0" stroke-width="7" fill="none" stroke="#7cd3eb" />
<path d="M269.03490257669733,719.0349025766973 A34.28043425550426,34.28043425550426,0,0,0,251.572785742632,709.6711181778998 M251.572785742632,709.6711181778998 A103.6493348828991,103.6493348828991,0,0,0,231.07959231495136,707.625 M231.07959231495136,707.625" close="False" data-weight="1.0" stroke-width="7" fill="none" stroke="#7cd3eb" />
<path d="M275.625,628.125 C264.375,628.125,241.875,628.125,230.625,628.125" close="False" data-weight="0.0" stroke-width="7" fill="none" stroke="#7cd3eb" />
<path d="M200.17040768504862,707.625 C189.14770384252432,707.625,167.10229615747568,707.625,156.07959231495138,707.625" close="False" data-weight="0.0" stroke-width="7" fill="none" stroke="#7cd3eb" />
<path d="M200.625,628.125 A54.319805153394555,54.319805153394555,0,0,0,179.837710518496,632.2598489621722 M179.837710518496,632.2598489621722 A54.31980515339474,54.31980515339474,0,0,0,162.21509742330267,644.0349025766973 M162.21509742330267,644.0349025766973" close="False" data-weight="1.0" stroke-width="7" fill="none" stroke="#7cd3eb" />
<path d="M1100.1704076850485,398.625 L1131.0795923149515,398.625" close="False" data-weight="1.75" stroke-width="7" fill="none" stroke="#7cd3eb" />
<path d="M1015.5314767527805,459.3545622165406 L1059.3545622165407,415.53147675278024" close="False" data-weight="2.060660171779821" stroke-width="7" fill="none" stroke="#7cd3eb" />
<path d="M940.5314767527805,534.3545622165407 L984.3545622165481,490.53147675277296" close="False" data-weight="2.060660171779821" stroke-width="7" fill="none" stroke="#7cd3eb" />
<path d="M865.531476752788,609.3545622165332 L909.3545622165332,565.531476752788" close="False" data-weight="2.060660171779821" stroke-width="7" fill="none" stroke="#7cd3eb" />
<path d="M794.0349025766973,687.2150974233027 L837.2150974233027,644.0349025766973" close="False" data-weight="2.060660171779821" stroke-width="7" fill="none" stroke="#7cd3eb" />
<path d="M725.625,703.125 L755.625,703.125" close="False" data-weight="1.75" stroke-width="7" fill="none" stroke="#7cd3eb" />
<path d="M650.625,703.125 L680.625,703.125" close="False" data-weight="1.75" stroke-width="7" fill="none" stroke="#7cd3eb" />
<path d="M562.125,798.7465906273013 L562.125,832.5034093726987" close="False" data-weight="1.75" stroke-width="7" fill="none" stroke="#7cd3eb" />
<path d="M562.125,723.7465906273013 L562.125,757.5034093726987" close="False" data-weight="1.75" stroke-width="7" fill="none" stroke="#7cd3eb" />
<path d="M575.625,703.125 L605.625,703.125" close="False" data-weight="1.75" stroke-width="7" fill="none" stroke="#7cd3eb" />
<path d="M496.8954377834594,915.7185232472195 L540.7185232472197,871.8954377834592" close="False" data-weight="2.060660171779821" stroke-width="7" fill="none" stroke="#7cd3eb" />
<path d="M419.03490257669733,869.0349025766973 L462.21509742330267,912.2150974233027" close="False" data-weight="2.060660171779821" stroke-width="7" fill="none" stroke="#7cd3eb" />
<path d="M425.625,103.125 L455.625,103.125" close="False" data-weight="1.75" stroke-width="7" fill="none" stroke="#7cd3eb" />
<path d="M344.03490257669733,794.0349025766973 L387.21509742330267,837.2150974233027" close="False" data-weight="2.060660171779821" stroke-width="7" fill="none" stroke="#7cd3eb" />
<path d="M328.125,575.625 L328.125,605.625" close="False" data-weight="1.75" stroke-width="7" fill="none" stroke="#7cd3eb" />
<path d="M328.125,500.625 L328.125,530.625" close="False" data-weight="1.75" stroke-width="7" fill="none" stroke="#7cd3eb" />
<path d="M328.125,425.625 L328.125,455.625" close="False" data-weight="1.75" stroke-width="7" fill="none" stroke="#7cd3eb" />
<path d="M344.03490257669733,387.21509742330267 L387.21509742330267,344.03490257669733" close="False" data-weight="2.060660171779821" stroke-width="7" fill="none" stroke="#7cd3eb" />
<path d="M344.03490257669733,269.03490257669733 L387.21509742330267,312.21509742330267" close="False" data-weight="2.060660171779821" stroke-width="7" fill="none" stroke="#7cd3eb" />
<path d="M350.625,103.125 L380.625,103.125" close="False" data-weight="1.75" stroke-width="7" fill="none" stroke="#7cd3eb" />
<path d="M269.03490257669733,719.0349025766973 L312.21509742330267,762.2150974233027" close="False" data-weight="2.060660171779821" stroke-width="7" fill="none" stroke="#7cd3eb" />
<path d="M275.625,628.125 L305.625,628.125" close="False" data-weight="1.75" stroke-width="7" fill="none" stroke="#7cd3eb" />
<path d="M269.03490257669733,194.03490257669733 L312.21509742330267,237.2150974233027" close="False" data-weight="2.060660171779821" stroke-width="7" fill="none" stroke="#7cd3eb" />
<path d="M269.03490257669733,162.21509742330267 L312.21509742330267,119.0349025766973" close="False" data-weight="2.060660171779821" stroke-width="7" fill="none" stroke="#7cd3eb" />
<path d="M200.17040768504862,707.625 L231.07959231495138,707.625" close="False" data-weight="1.75" stroke-width="7" fill="none" stroke="#7cd3eb" />
<path d="M200.625,628.125 L230.625,628.125" close="False" data-weight="1.75" stroke-width="7" fill="none" stroke="#7cd3eb" />
<path d="M125.1704076850486,707.625 L156.07959231495138,707.625" close="False" data-weight="1.75" stroke-width="7" fill="none" stroke="#7cd3eb" />
<path d="M119.03490257669732,687.2150974233027 L162.2150974233027,644.0349025766973" close="False" data-weight="2.060660171779821" stroke-width="7" fill="none" stroke="#7cd3eb" />
<path d="M928.125,830.625 A54.31980515339478,54.31980515339478,0,0,1,923.9901510378278,851.4122894815039 M923.9901510378278,851.4122894815039 A54.319805153394256,54.319805153394256,0,0,1,912.2150974233027,869.0349025766973 M912.2150974233027,869.0349025766973" close="False" data-weight="1.0" stroke-width="7" fill="none" stroke="#8f0f12" />
<path d="M869.0349025766973,912.2150974233027 C861.0799512883486,920.1700487116514,845.1700487116514,936.0799512883486,837.2150974233027,944.0349025766973" close="False" data-weight="0.0" stroke-width="7" fill="none" stroke="#8f0f12" />
<path d="M650.1704076850486,998.625 C639.1477038425244,998.625,617.1022961574756,998.625,606.0795923149514,998.625" close="False" data-weight="0.0" stroke-width="7" fill="none" stroke="#8f0f12" />
<path d="M553.125,905.625 C553.125,916.875,553.125,939.375,553.125,950.625" close="False" data-weight="0.0" stroke-width="7" fill="none" stroke="#8f0f12" />
<path d="M544.125,832.5034093726987 C544.125,843.5161053931691,553.125,864.6123039795295,553.125,875.625" close="False" data-weight="0.0" stroke-width="7" fill="none" stroke="#8f0f12" />
<path d="M544.125,757.5034093726987 C544.125,767.8142046863493,544.125,788.4357953136507,544.125,798.7465906273013" close="False" data-weight="0.0" stroke-width="7" fill="none" stroke="#8f0f12" />
<path d="M500.625,703.125 C489.375,703.125,466.875,703.125,455.625,703.125" close="False" data-weight="0.0" stroke-width="7" fill="none" stroke="#8f0f12" />
<path d="M425.625,703.125 C414.375,703.125,391.875,703.125,380.625,703.125" close="False" data-weight="0.0" stroke-width="7" fill="none" stroke="#8f0f12" />
<path d="M350.625,703.125 C339.375,703.125,316.875,703.125,305.625,703.125" close="False" data-weight="0.0" stroke-width="7" fill="none" stroke="#8f0f12" />
<path d="M275.625,703.125 C264.43196827869235,703.125,242.27262403625903,698.625,231.07959231495138,698.625" close="False" data-weight="0.0" stroke-width="7" fill="none" stroke="#8f0f12" />
<path d="M200.17040768504862,698.625 C189.14770384252432,698.625,167.10229615747568,698.625,156.07959231495138,698.625" close="False" data-weight="0.0" stroke-width="7" fill="none" stroke="#8f0f12" />
<path d="M928.125,800.625 L928.125,830.625" close="False" data-weight="1.75" stroke-width="7" fill="none" stroke="#8f0f12" />
<path d="M869.0349025766973,912.2150974233027 L912.2150974233027,869.0349025766973" close="False" data-weight="2.060660171779821" stroke-width="7" fill="none" stroke="#8f0f12" />
<path d="M794.0349025766973,987.2150974233027 L837.2150974233027,944.0349025766973" close="False" data-weight="2.060660171779821" stroke-width="7" fill="none" stroke="#8f0f12" />
<path d="M725.1704076850486,998.625 L756.0795923149514,998.625" close="False" data-weight="1.75" stroke-width="7" fill="none" stroke="#8f0f12" />
<path d="M650.1704076850486,998.625 L681.0795923149514,998.625" close="False" data-weight="1.75" stroke-width="7" fill="none" stroke="#8f0f12" />
<path d="M575.1704076850486,998.625 L606.0795923149514,998.625" close="False" data-weight="1.75" stroke-width="7" fill="none" stroke="#8f0f12" />
<path d="M553.125,950.625 L553.125,980.625" close="False" data-weight="1.75" stroke-width="7" fill="none" stroke="#8f0f12" />
<path d="M553.125,875.625 L553.125,905.625" close="False" data-weight="1.75" stroke-width="7" fill="none" stroke="#8f0f12" />
<path d="M544.125,798.7465906273013 L544.125,832.5034093726987" close="False" data-weight="1.75" stroke-width="7" fill="none" stroke="#8f0f12" />
<path d="M544.125,723.7465906273013 L544.125,757.5034093726987" close="False" data-weight="1.75" stroke-width="7" fill="none" stroke="#8f0f12" />
<path d="M500.625,703.125 L530.625,703.125" close="False" data-weight="1.75" stroke-width="7" fill="none" stroke="#8f0f12" />
<path d="M425.625,703.125 L455.625,703.125" close="False" data-weight="1.75" stroke-width="7" fill="none" stroke="#8f0f12" />
<path d="M350.625,703.125 L380.625,703.125" close="False" data-weight="1.75" stroke-width="7" fill="none" stroke="#8f0f12" />
<path d="M275.625,703.125 L305.625,703.125" close="False" data-weight="1.75" stroke-width="7" fill="none" stroke="#8f0f12" />
<path d="M200.17040768504862,698.625 L231.07959231495138,698.625" close="False" data-weight="1.75" stroke-width="7" fill="none" stroke="#8f0f12" />
<path d="M125.1704076850486,698.625 L156.07959231495138,698.625" close="False" data-weight="1.75" stroke-width="7" fill="none" stroke="#8f0f12" />
<path d="M707.625,531.0795923149514 A57.72232222128764,57.72232222128764,0,0,1,703.2311498479813,553.1689687066777 M703.2311498479813,553.1689687066777 A57.72232222128921,57.72232222128921,0,0,1,690.7185232472195,571.8954377834593 M690.7185232472195,571.8954377834593" close="False" data-weight="1.0" stroke-width="7" fill="none" stroke="#90ea66" />
<path d="M707.625,456.0795923149514 C707.625,467.10229615747573,707.625,489.14770384252427,707.625,500.1704076850486" close="False" data-weight="0.0" stroke-width="7" fill="none" stroke="#90ea66" />
<path d="M707.625,381.0795923149514 C707.625,392.10229615747573,707.625,414.14770384252427,707.625,425.1704076850486" close="False" data-weight="0.0" stroke-width="7" fill="none" stroke="#90ea66" />
<path d="M646.8954377834593,615.7185232472195 C639.1012091493994,623.5127518812794,623.5127518812794,639.1012091493994,615.7185232472195,646.8954377834593" close="False" data-weight="0.0" stroke-width="7" fill="none" stroke="#90ea66" />
<path d="M644.0349025766973,269.03490257669733 C636.0799512883486,261.0799512883487,620.1700487116514,245.1700487116513,612.2150974233027,237.21509742330267" close="False" data-weight="0.0" stroke-width="7" fill="none" stroke="#90ea66" />
<path d="M569.0349025766973,194.0349025766973 C561.0799512883486,186.07995128834867,545.1700487116514,170.1700487116513,537.2150974233027,162.21509742330267" close="False" data-weight="0.0" stroke-width="7" fill="none" stroke="#90ea66" />
<path d="M707.625,500.1704076850486 L707.625,531.0795923149514" close="False" data-weight="1.75" stroke-width="7" fill="none" stroke="#90ea66" />
<path d="M707.625,425.1704076850486 L707.625,456.0795923149514" close="False" data-weight="1.75" stroke-width="7" fill="none" stroke="#90ea66" />
<path d="M707.625,350.1704076850486 L707.625,381.0795923149514" close="False" data-weight="1.75" stroke-width="7" fill="none" stroke="#90ea66" />
<path d="M646.8954377834593,615.7185232472195 L690.7185232472195,571.8954377834593" close="False" data-weight="2.060660171779821" stroke-width="7" fill="none" stroke="#90ea66" />
<path d="M644.0349025766973,269.03490257669733 L687.2150974233027,312.21509742330267" close="False" data-weight="2.060660171779821" stroke-width="7" fill="none" stroke="#90ea66" />
<path d="M571.8954377834593,690.7185232472195 L615.7185232472195,646.8954377834593" close="False" data-weight="2.060660171779821" stroke-width="7" fill="none" stroke="#90ea66" />
<path d="M569.0349025766973,194.03490257669733 L612.2150974233027,237.2150974233027" close="False" data-weight="2.060660171779821" stroke-width="7" fill="none" stroke="#90ea66" />
<path d="M494.03490257669733,119.03490257669732 L537.2150974233027,162.2150974233027" close="False" data-weight="2.060660171779821" stroke-width="7" fill="none" stroke="#90ea66" />
<path d="M1153.125,305.625 C1153.125,316.875,1153.125,339.375,1153.125,350.625" close="False" data-weight="0.0" stroke-width="7" fill="none" stroke="#35618f" />
<path d="M1153.125,230.625 C1153.125,241.875,1153.125,264.375,1153.125,275.625" close="False" data-weight="0.0" stroke-width="7" fill="none" stroke="#35618f" />
<path d="M1100.1704076850485,407.625 A48.72232222128889,48.72232222128889,0,0,0,1081.5251821846082,411.3337659446201 M1081.5251821846082,411.3337659446201 A48.72232222128773,48.72232222128773,0,0,0,1065.7185232472195,421.8954377834594 M1065.7185232472195,421.8954377834594" close="False" data-weight="1.0" stroke-width="7" fill="none" stroke="#35618f" />
<path d="M1021.8954377834594,465.7185232472194 C1014.1012091493994,473.51275188127937,998.5127518812795,489.10120914939944,990.7185232472195,496.8954377834594" close="False" data-weight="0.0" stroke-width="7" fill="none" stroke="#35618f" />
<path d="M946.8954377834592,540.7185232472197 C939.1012091493993,548.5127518812795,923.5127518812794,564.1012091493994,915.7185232472195,571.8954377834593" close="False" data-weight="0.0" stroke-width="7" fill="none" stroke="#35618f" />
<path d="M1153.125,350.625 L1153.125,380.625" close="False" data-weight="1.75" stroke-width="7" fill="none" stroke="#35618f" />
<path d="M1153.125,275.625 L1153.125,305.625" close="False" data-weight="1.75" stroke-width="7" fill="none" stroke="#35618f" />
<path d="M1153.125,200.625 L1153.125,230.625" close="False" data-weight="1.75" stroke-width="7" fill="none" stroke="#35618f" />
<path d="M1100.1704076850485,407.625 L1131.0795923149515,407.625" close="False" data-weight="1.75" stroke-width="7" fill="none" stroke="#35618f" />
<path d="M1100.625,178.125 L1130.625,178.125" close="False" data-weight="1.75" stroke-width="7" fill="none" stroke="#35618f" />
<path d="M1021.8954377834593,465.7185232472196 L1065.7185232472195,421.8954377834595" close="False" data-weight="2.060660171779821" stroke-width="7" fill="none" stroke="#35618f" />
<path d="M946.8954377834593,540.7185232472195 L990.7185232472121,496.89543778346683" close="False" data-weight="2.060660171779821" stroke-width="7" fill="none" stroke="#35618f" />
<path d="M871.8954377834518,615.718523247227 L915.718523247227,571.8954377834518" close="False" data-weight="2.060660171779821" stroke-width="7" fill="none" stroke="#35618f" />
<image x="1120.625" y="370.625" width="65" height="65" xlink:href="designspace-test/./img/ds_dataset0_20_15_thumb.png" data-node="True" data-id="15" />
<image x="1120.625" y="145.625" width="65" height="65" xlink:href="designspace-test/./img/ds_dataset0_20_9_thumb.png" data-node="True" data-id="9" />
<image x="1045.625" y="670.625" width="65" height="65" xlink:href="designspace-test/./img/ds_dataset0_20_10_thumb.png" data-node="True" data-id="10" />
<image x="1045.625" y="145.625" width="65" height="65" xlink:href="designspace-test/./img/ds_dataset0_20_1_thumb.png" data-node="True" data-id="1" />
<image x="970.625" y="1195.625" width="65" height="65" xlink:href="designspace-test/./img/ds_dataset0_20_5_thumb.png" data-node="True" data-id="5" />
<image x="970.625" y="970.625" width="65" height="65" xlink:href="designspace-test/./img/ds_dataset0_20_17_thumb.png" data-node="True" data-id="17" />
<image x="895.625" y="745.625" width="65" height="65" xlink:href="designspace-test/./img/ds_dataset0_20_0_thumb.png" data-node="True" data-id="0" />
<image x="820.625" y="595.625" width="65" height="65" xlink:href="designspace-test/./img/ds_dataset0_20_4_thumb.png" data-node="True" data-id="4" />
<image x="745.625" y="970.625" width="65" height="65" xlink:href="designspace-test/./img/ds_dataset0_20_12_thumb.png" data-node="True" data-id="12" />
<image x="670.625" y="970.625" width="65" height="65" xlink:href="designspace-test/./img/ds_dataset0_20_8_thumb.png" data-node="True" data-id="8" />
<image x="670.625" y="295.625" width="65" height="65" xlink:href="designspace-test/./img/ds_dataset0_20_18_thumb.png" data-node="True" data-id="18" />
<image x="520.625" y="970.625" width="65" height="65" xlink:href="designspace-test/./img/ds_dataset0_20_14_thumb.png" data-node="True" data-id="14" />
<image x="520.625" y="670.625" width="65" height="65" xlink:href="designspace-test/./img/ds_dataset0_20_19_thumb.png" data-node="True" data-id="19" />
<image x="445.625" y="895.625" width="65" height="65" xlink:href="designspace-test/./img/ds_dataset0_20_7_thumb.png" data-node="True" data-id="7" />
<image x="445.625" y="70.625" width="65" height="65" xlink:href="designspace-test/./img/ds_dataset0_20_2_thumb.png" data-node="True" data-id="2" />
<image x="370.625" y="295.625" width="65" height="65" xlink:href="designspace-test/./img/ds_dataset0_20_16_thumb.png" data-node="True" data-id="16" />
<image x="295.625" y="595.625" width="65" height="65" xlink:href="designspace-test/./img/ds_dataset0_20_11_thumb.png" data-node="True" data-id="11" />
<image x="220.625" y="145.625" width="65" height="65" xlink:href="designspace-test/./img/ds_dataset0_20_13_thumb.png" data-node="True" data-id="13" />
<image x="145.625" y="1120.625" width="65" height="65" xlink:href="designspace-test/./img/ds_dataset0_20_6_thumb.png" data-node="True" data-id="6" />
<image x="70.625" y="670.625" width="65" height="65" xlink:href="designspace-test/./img/ds_dataset0_20_3_thumb.png" data-node="True" data-id="3" />
</svg>