<?xml version="1.0" encoding="UTF-8"?>
<svg xmlns="http://www.w3.org/2000/svg" xmlns:xlink="http://www.w3.org/1999/xlink"
     viewBox="0 0 1350 1350" preserveAspectRatio="xMidYMid meet">
<defs>
</defs>
<path d="M944.0349025766973,869.0349025766973 C936.0799512883486,861.0799512883486,920.1700487116514,845.1700487116514,912.2150974233027,837.2150974233027" close="False" data-weight="0.0" stroke-width="7" fill="none" stroke="#1fa562" />
<path d="M869.0349025766973,794.0349025766973 C861.0799512883486,786.0799512883486,845.1700487116514,770.1700487116514,837.2150974233027,762.2150974233027" close="False" data-weight="0.0" stroke-width="7" fill="none" stroke="#1fa562" />
<path d="M794.0349025766973,719.0349025766973 C786.0799512883486,711.0799512883486,770.1700487116514,695.1700487116514,762.2150974233027,687.2150974233027" close="False" data-weight="0.0" stroke-width="7" fill="none" stroke="#1fa562" />
<path d="M719.0349025766973,644.0349025766973 C711.0799512883486,636.0799512883486,695.1700487116514,620.1700487116514,687.2150974233027,612.2150974233027" close="False" data-weight="0.0" stroke-width="7" fill="none" stroke="#1fa562" />
<path d="M644.0349025766973,569.0349025766973 C636.0799512883486,561.0799512883486,620.1700487116514,545.1700487116514,612.2150974233027,537.2150974233027" close="False" data-weight="0.0" stroke-width="7" fill="none" stroke="#1fa562" />
<path d="M569.0349025766973,494.03490257669733 A54.31980515339494,54.31980515339494,0,0,0,551.4122894815039,482.2598489621722 M551.4122894815039,482.2598489621722 A54.31980515339421,54.31980515339421,0,0,0,530.625,478.125 M530.625,478.125" close="False" data-weight="1.0" stroke-width="7" fill="none" stroke="#1fa562" />
<path d="M500.625,478.125 C489.375,478.125,466.875,478.125,455.625,478.125" close="False" data-weight="0.0" stroke-width="7" fill="none" stroke="#1fa562" />
<path d="M944.0349025766973,869.0349025766973 L987.2150974233027,912.2150974233027" close="False" data-weight="2.060660171779821" stroke-width="7" fill="none" stroke="#1fa562" />
<path d="M869.0349025766973,794.0349025766973 L912.2150974233027,837.2150974233027" close="False" data-weight="2.060660171779821" stroke-width="7" fill="none" stroke="#1fa562" />
<path d="M794.0349025766973,719.0349025766973 L837.2150974233027,762.2150974233027" close="False" data-weight="2.060660171779821" stroke-width="7" fill="none" stroke="#1fa562" />
<path d="M719.0349025766973,644.0349025766973 L762.2150974233027,687.2150974233027" close="False" data-weight="2.060660171779821" stroke-width="7" fill="none" stroke="#1fa562" />
<path d="M644.0349025766973,569.0349025766973 L687.2150974233027,612.2150974233027" close="False" data-weight="2.060660171779821" stroke-width="7" fill="none" stroke="#1fa562" />
<path d="M569.0349025766973,494.03490257669733 L612.2150974233027,537.2150974233027" close="False" data-weight="2.060660171779821" stroke-width="7" fill="none" stroke="#1fa562" />
<path d="M500.625,478.125 L530.625,478.125" close="False" data-weight="1.75" stroke-width="7" fill="none" stroke="#1fa562" />
<path d="M425.625,478.125 L455.625,478.125" close="False" data-weight="1.75" stroke-width="7" fill="none" stroke="#1fa562" />
<path d="M1228.125,1175.625 A54.31980515339569,54.31980515339569,0,0,0,1223.9901510378277,1154.837710518496 M1223.9901510378277,1154.837710518496 A54.3198051533933,54.3198051533933,0,0,0,1212.2150974233027,1137.2150974233027 M1212.2150974233027,1137.2150974233027" close="False" data-weight="1.0" stroke-width="7" fill="none" stroke="#ff1c5d" />
<path d="M1169.0349025766973,1094.0349025766973 C1161.0799512883486,1086.0799512883486,1145.1700487116514,1070.1700487116514,1137.2150974233027,1062.2150974233027" close="False" data-weight="0.0" stroke-width="7" fill="none" stroke="#ff1c5d" />
<path d="M1094.0349025766973,312.21509742330267 C1086.0799512883486,320.1700487116513,1070.1700487116514,336.0799512883487,1062.2150974233027,344.03490257669733" close="False" data-weight="0.0" stroke-width="7" fill="none" stroke="#ff1c5d" />
<path d="M1025.1704076850485,998.625 C1014.1477038425243,998.625,992.1022961574756,998.625,981.0795923149514,998.625" close="False" data-weight="0.0" stroke-width="7" fill="none" stroke="#ff1c5d" />
<path d="M1003.125,530.625 C1003.125,541.875,1003.125,564.375,1003.125,575.625" close="False" data-weight="0.0" stroke-width="7" fill="none" stroke="#ff1c5d" />
<path d="M1003.125,455.625 C1003.125,466.875,1003.125,489.375,1003.125,500.625" close="False" data-weight="0.0" stroke-width="7" fill="none" stroke="#ff1c5d" />
<path d="M1019.0349025766973,387.21509742330267 A54.31980515339466,54.31980515339466,0,0,0,1007.2598489621721,404.837710518496 M1007.2598489621721,404.837710518496 A54.319805153394555,54.319805153394555,0,0,0,1003.125,425.625 M1003.125,425.625" close="False" data-weight="1.0" stroke-width="7" fill="none" stroke="#ff1c5d" />
<path d="M950.1704076850486,998.625 C939.1477038425244,998.625,917.1022961574756,998.625,906.0795923149514,998.625" close="False" data-weight="0.0" stroke-width="7" fill="none" stroke="#ff1c5d" />
<path d="M940.5314767527805,684.3545622165407 A57.722322221287925,57.722322221287925,0,0,0,928.0188501520187,703.0810312933224 M928.0188501520187,703.0810312933224 A57.722322221289005,57.722322221289005,0,0,0,923.625,725.1704076850486 M923.625,725.1704076850486" close="False" data-weight="1.0" stroke-width="7" fill="none" stroke="#ff1c5d" />
<path d="M875.1704076850486,998.625 C864.1477038425244,998.625,842.1022961574756,998.625,831.0795923149514,998.625" close="False" data-weight="0.0" stroke-width="7" fill="none" stroke="#ff1c5d" />
<path d="M871.8954377834593,715.5314767527805 A57.722322221287925,57.722322221287925,0,0,0,853.1689687066777,703.0188501520187 M853.1689687066777,703.0188501520187 A57.722322221289005,57.722322221289005,0,0,0,831.0795923149514,698.625 M831.0795923149514,698.625" close="False" data-weight="1.0" stroke-width="7" fill="none" stroke="#ff1c5d" />
<path d="M800.1704076850486,998.625 C789.1477038425244,998.625,767.1022961574756,998.625,756.0795923149514,998.625" close="False" data-weight="0.0" stroke-width="7" fill="none" stroke="#ff1c5d" />
<path d="M800.1704076850486,698.625 C789.1477038425244,698.625,767.1022961574756,698.625,756.0795923149514,698.625" close="False" data-weight="0.0" stroke-width="7" fill="none" stroke="#ff1c5d" />
<path d="M725.1704076850486,998.625 A48.72232222128889,48.72232222128889,0,0,1,706.5251821846081,994.9162340553798 M706.5251821846081,994.9162340553798 A48.72232222128802,48.72232222128802,0,0,1,690.7185232472195,984.3545622165407 M690.7185232472195,984.3545622165407" close="False" data-weight="1.0" stroke-width="7" fill="none" stroke="#ff1c5d" />
<path d="M725.1704076850486,698.625 C714.1477038425244,698.625,692.1022961574756,698.625,681.0795923149514,698.625" close="False" data-weight="0.0" stroke-width="7" fill="none" stroke="#ff1c5d" />
<path d="M646.8954377834593,940.5314767527805 C639.1012091493994,932.7372481187206,623.5127518812794,917.1487908506006,615.7185232472195,909.3545622165407" close="False" data-weight="0.0" stroke-width="7" fill="none" stroke="#ff1c5d" />
<path d="M650.1704076850486,698.625 C639.1477038425244,698.625,617.1022961574756,698.625,606.0795923149514,698.625" close="False" data-weight="0.0" stroke-width="7" fill="none" stroke="#ff1c5d" />
<path d="M650.625,328.125 C639.375,328.125,616.875,328.125,605.625,328.125" close="False" data-weight="0.0" stroke-width="7" fill="none" stroke="#ff1c5d" />
<path d="M571.8954377834593,865.5314767527805 C564.1012091493994,857.7372481187206,548.5127518812794,842.1487908506006,540.7185232472195,834.3545622165407" close="False" data-weight="0.0" stroke-width="7" fill="none" stroke="#ff1c5d" />
<path d="M575.1704076850486,698.625 C564.1477038425244,698.625,542.1022961574756,698.625,531.0795923149514,698.625" close="False" data-weight="0.0" stroke-width="7" fill="none" stroke="#ff1c5d" />
<path d="M575.625,328.125 C564.375,328.125,541.875,328.125,530.625,328.125" close="False" data-weight="0.0" stroke-width="7" fill="none" stroke="#ff1c5d" />
<path d="M496.89543778345563,790.5314767527767 C489.10120914939756,782.7372481187186,473.51275188128136,767.1487908506025,465.7185232472233,759.3545622165444" close="False" data-weight="0.0" stroke-width="7" fill="none" stroke="#ff1c5d" />
<path d="M500.1704076850486,698.625 C489.14770384252427,698.625,467.10229615747573,698.625,456.0795923149514,698.625" close="False" data-weight="0.0" stroke-width="7" fill="none" stroke="#ff1c5d" />
<path d="M407.625,606.0795923149514 C407.625,617.1022961574756,407.625,639.1477038425244,407.625,650.1704076850486" close="False" data-weight="0.0" stroke-width="7" fill="none" stroke="#ff1c5d" />
<path d="M407.625,531.0795923149514 C407.625,542.1022961574756,407.625,564.1477038425244,407.625,575.1704076850486" close="False" data-weight="0.0" stroke-width="7" fill="none" stroke="#ff1c5d" />
<path d="M419.03490257669733,387.21509742330267 A54.3198051533945,54.3198051533945,0,0,0,407.2598489621722,404.837710518496 M407.2598489621722,404.837710518496 A54.31980515339484,54.31980515339484,0,0,0,403.125,425.625 M403.125,425.625" close="False" data-weight="1.0" stroke-width="7" fill="none" stroke="#ff1c5d" />
<path d="M350.625,928.125 C339.375,928.125,316.875,928.125,305.625,928.125" close="False" data-weight="0.0" stroke-width="7" fill="none" stroke="#ff1c5d" />
<path d="M340.5314767527803,871.8954377834592 C332.73724811872034,864.1012091493993,317.14879085060056,848.5127518812794,309.3545622165406,840.7185232472195" close="False" data-weight="0.0" stroke-width="7" fill="none" stroke="#ff1c5d" />
<path d="M340.5314767527766,759.3545622165445 A48.72232222126977,48.72232222126977,0,0,1,324.7248178153899,769.9162340553813 M324.7248178153899,769.9162340553813 A48.7223222212948,48.7223222212948,0,0,1,306.0795923149514,773.625 M306.0795923149514,773.625" close="False" data-weight="1.0" stroke-width="7" fill="none" stroke="#ff1c5d" />
<path d="M1228.125,1175.625 L1228.125,1205.625" close="False" data-weight="1.75" stroke-width="7" fill="none" stroke="#ff1c5d" />
<path d="M1169.0349025766973,1094.0349025766973 L1212.2150974233027,1137.2150974233027" close="False" data-weight="2.060660171779821" stroke-width="7" fill="none" stroke="#ff1c5d" />
<path d="M1094.0349025766973,1019.0349025766973 L1137.2150974233027,1062.2150974233027" close="False" data-weight="2.060660171779821" stroke-width="7" fill="none" stroke="#ff1c5d" />
<path d="M1094.0349025766973,312.21509742330267 L1137.2150974233027,269.03490257669733" close="False" data-weight="2.060660171779821" stroke-width="7" fill="none" stroke="#ff1c5d" />
<path d="M1025.1704076850485,998.625 L1056.0795923149515,998.625" close="False" data-weight="1.75" stroke-width="7" fill="none" stroke="#ff1c5d" />
<path d="M1003.125,575.625 L1003.125,605.625" close="False" data-weight="1.75" stroke-width="7" fill="none" stroke="#ff1c5d" />
<path d="M1003.125,500.625 L1003.125,530.625" close="False" data-weight="1.75" stroke-width="7" fill="none" stroke="#ff1c5d" />
<path d="M1003.125,425.625 L1003.125,455.625" close="False" data-weight="1.75" stroke-width="7" fill="none" stroke="#ff1c5d" />
<path d="M1019.0349025766973,387.21509742330267 L1062.2150974233027,344.03490257669733" close="False" data-weight="2.060660171779821" stroke-width="7" fill="none" stroke="#ff1c5d" />
<path d="M950.1704076850486,998.625 L981.0795923149514,998.625" close="False" data-weight="1.75" stroke-width="7" fill="none" stroke="#ff1c5d" />
<path d="M923.625,725.1704076850486 L923.625,756.0795923149514" close="False" data-weight="1.75" stroke-width="7" fill="none" stroke="#ff1c5d" />
<path d="M940.5314767527805,684.3545622165407 L984.3545622165407,640.5314767527805" close="False" data-weight="2.060660171779821" stroke-width="7" fill="none" stroke="#ff1c5d" />
<path d="M875.1704076850486,998.625 L906.0795923149514,998.625" close="False" data-weight="1.75" stroke-width="7" fill="none" stroke="#ff1c5d" />
<path d="M871.8954377834593,715.5314767527805 L915.7185232472195,759.3545622165407" close="False" data-weight="2.060660171779821" stroke-width="7" fill="none" stroke="#ff1c5d" />
<path d="M800.1704076850486,998.625 L831.0795923149514,998.625" close="False" data-weight="1.75" stroke-width="7" fill="none" stroke="#ff1c5d" />
<path d="M800.1704076850486,698.625 L831.0795923149514,698.625" close="False" data-weight="1.75" stroke-width="7" fill="none" stroke="#ff1c5d" />
<path d="M725.1704076850486,998.625 L756.0795923149514,998.625" close="False" data-weight="1.75" stroke-width="7" fill="none" stroke="#ff1c5d" />
<path d="M725.1704076850486,698.625 L756.0795923149514,698.625" close="False" data-weight="1.75" stroke-width="7" fill="none" stroke="#ff1c5d" />
<path d="M646.8954377834593,940.5314767527805 L690.7185232472195,984.3545622165407" close="False" data-weight="2.060660171779821" stroke-width="7" fill="none" stroke="#ff1c5d" />
<path d="M650.1704076850486,698.625 L681.0795923149514,698.625" close="False" data-weight="1.75" stroke-width="7" fill="none" stroke="#ff1c5d" />
<path d="M650.625,328.125 L680.625,328.125" close="False" data-weight="1.75" stroke-width="7" fill="none" stroke="#ff1c5d" />
<path d="M571.8954377834631,865.5314767527842 L615.7185232472195,909.3545622165407" close="False" data-weight="2.060660171779821" stroke-width="7" fill="none" stroke="#ff1c5d" />
<path d="M575.1704076850486,698.625 L606.0795923149514,698.625" close="False" data-weight="1.75" stroke-width="7" fill="none" stroke="#ff1c5d" />
<path d="M575.625,328.125 L605.625,328.125" close="False" data-weight="1.75" stroke-width="7" fill="none" stroke="#ff1c5d" />
<path d="M496.89543778345563,790.5314767527767 L540.7185232472159,834.354562216537" close="False" data-weight="2.060660171779821" stroke-width="7" fill="none" stroke="#ff1c5d" />
<path d="M500.1704076850486,698.625 L531.0795923149514,698.625" close="False" data-weight="1.75" stroke-width="7" fill="none" stroke="#ff1c5d" />
<path d="M500.625,328.125 L530.625,328.125" close="False" data-weight="1.75" stroke-width="7" fill="none" stroke="#ff1c5d" />
<path d="M421.8954377834594,715.5314767527805 L465.7185232472234,759.3545622165445" close="False" data-weight="2.060660171779821" stroke-width="7" fill="none" stroke="#ff1c5d" />
<path d="M425.1704076850486,698.625 L456.0795923149514,698.625" close="False" data-weight="1.75" stroke-width="7" fill="none" stroke="#ff1c5d" />
<path d="M407.625,650.1704076850486 L407.625,681.0795923149514" close="False" data-weight="1.75" stroke-width="7" fill="none" stroke="#ff1c5d" />
<path d="M407.625,575.1704076850486 L407.625,606.0795923149514" close="False" data-weight="1.75" stroke-width="7" fill="none" stroke="#ff1c5d" />
<path d="M407.625,500.1704076850486 L407.625,531.0795923149514" close="False" data-weight="1.75" stroke-width="7" fill="none" stroke="#ff1c5d" />
<path d="M403.125,425.625 L403.125,455.625" close="False" data-weight="1.75" stroke-width="7" fill="none" stroke="#ff1c5d" />
<path d="M419.03490257669733,387.21509742330267 L462.21509742330267,344.03490257669733" close="False" data-weight="2.060660171779821" stroke-width="7" fill="none" stroke="#ff1c5d" />
<path d="M350.625,928.125 L380.625,928.125" close="False" data-weight="1.75" stroke-width="7" fill="none" stroke="#ff1c5d" />
<path d="M340.5314767527804,871.8954377834593 L384.3545622165405,915.7185232472194" close="False" data-weight="2.060660171779821" stroke-width="7" fill="none" stroke="#ff1c5d" />
<path d="M340.5314767527767,759.3545622165444 L384.35456221654425,715.5314767527768" close="False" data-weight="2.060660171779821" stroke-width="7" fill="none" stroke="#ff1c5d" />
<path d="M275.625,928.125 L305.625,928.125" close="False" data-weight="1.75" stroke-width="7" fill="none" stroke="#ff1c5d" />
<path d="M265.53147675278416,796.8954377834631 L309.3545622165405,840.7185232472194" close="False" data-weight="2.060660171779821" stroke-width="7" fill="none" stroke="#ff1c5d" />
<path d="M275.1704076850486,773.625 L306.0795923149514,773.625" close="False" data-weight="1.75" stroke-width="7" fill="none" stroke="#ff1c5d" />
<path d="M1025.1704076850485,1007.625 C1014.1477038425243,1007.625,992.1022961574756,1007.625,981.0795923149514,1007.625" close="False" data-weight="0.0" stroke-width="7" fill="none" stroke="#7cd3eb" />
<path d="M1025.625,103.125 C1014.375,103.125,991.875,103.125,980.625,103.125" close="False" data-weight="0.0" stroke-width="7" fill="none" stroke="#7cd3eb" />
<path d="M950.1704076850486,1007.625 C939.1477038425244,1007.625,917.1022961574756,1007.625,906.0795923149514,1007.625" close="False" data-weight="0.0" stroke-width="7" fill="none" stroke="#7cd3eb" />
<path d="M950.625,103.125 A54.31980515339484,54.31980515339484,0,0,0,929.8377105184961,107.25984896217217 M929.8377105184961,107.25984896217217 A54.319805153394384,54.319805153394384,0,0,0,912.2150974233027,119.03490257669732 M912.2150974233027,119.03490257669732" close="False" data-weight="1.0" stroke-width="7" fill="none" stroke="#7cd3eb" />
<path d="M875.1704076850486,1007.625 C864.1477038425244,1007.625,842.1022961574756,1007.625,831.0795923149514,1007.625" close="False" data-weight="0.0" stroke-width="7" fill="none" stroke="#7cd3eb" />
<path d="M869.0349025766973,162.2150974233027 C861.0799512883486,170.17004871165133,845.1700487116514,186.0799512883487,837.2150974233027,194.03490257669733" close="False" data-weight="0.0" stroke-width="7" fill="none" stroke="#7cd3eb" />
<path d="M800.1704076850486,1007.625 C789.1477038425244,1007.625,767.1022961574756,1007.625,756.0795923149514,1007.625" close="False" data-weight="0.0" stroke-width="7" fill="none" stroke="#7cd3eb" />
<path d="M794.0349025766973,237.2150974233027 C786.0799512883486,245.17004871165133,770.1700487116514,261.0799512883487,762.2150974233027,269.03490257669733" close="False" data-weight="0.0" stroke-width="7" fill="none" stroke="#7cd3eb" />
<path d="M725.1704076850486,1007.625 A57.72232222128764,57.72232222128764,0,0,1,703.0810312933223,1003.2311498479813 M703.0810312933223,1003.2311498479813 A57.72232222128921,57.72232222128921,0,0,1,684.3545622165407,990.7185232472195 M684.3545622165407,990.7185232472195" close="False" data-weight="1.0" stroke-width="7" fill="none" stroke="#7cd3eb" />
<path d="M640.5314767527805,946.8954377834593 C632.7372481187206,939.1012091493994,617.1487908506006,923.5127518812794,609.3545622165407,915.7185232472195" close="False" data-weight="0.0" stroke-width="7" fill="none" stroke="#7cd3eb" />
<path d="M648.7465906273013,319.125 C638.4357953136507,319.125,617.8142046863493,319.125,607.5034093726987,319.125" close="False" data-weight="0.0" stroke-width="7" fill="none" stroke="#7cd3eb" />
<path d="M565.5314767527805,871.8954377834593 C557.7372481187206,864.1012091493994,542.1487908506006,848.5127518812794,534.3545622165407,840.7185232472195" close="False" data-weight="0.0" stroke-width="7" fill="none" stroke="#7cd3eb" />
<path d="M573.7465906273013,319.125 C563.4357953136507,319.125,542.8142046863493,319.125,532.5034093726987,319.125" close="False" data-weight="0.0" stroke-width="7" fill="none" stroke="#7cd3eb" />
<path d="M490.53147675278416,796.8954377834631 C482.73724811872233,789.1012091494013,467.14879085059874,773.5127518812776,459.3545622165369,765.7185232472158" close="False" data-weight="0.0" stroke-width="7" fill="none" stroke="#7cd3eb" />
<path d="M425.625,328.125 A54.319805153394555,54.319805153394555,0,0,0,404.837710518496,332.2598489621722 M404.837710518496,332.2598489621722 A54.319805153394825,54.319805153394825,0,0,0,387.21509742330267,344.03490257669733 M387.21509742330267,344.03490257669733" close="False" data-weight="1.0" stroke-width="7" fill="none" stroke="#7cd3eb" />
<path d="M328.125,1055.625 A54.31980515339285,54.31980515339285,0,0,0,332.2598489621724,1076.412289481504 M332.2598489621724,1076.412289481504 A54.31980515339627,54.31980515339627,0,0,0,344.03490257669733,1094.0349025766973 M344.03490257669733,1094.0349025766973" close="False" data-weight="1.0" stroke-width="7" fill="none" stroke="#7cd3eb" />
<path d="M328.125,980.625 C328.125,991.875,328.125,1014.375,328.125,1025.625" close="False" data-weight="0.0" stroke-width="7" fill="none" stroke="#7cd3eb" />
<path d="M328.125,905.625 C328.125,916.875,328.125,939.375,328.125,950.625" close="False" data-weight="0.0" stroke-width="7" fill="none" stroke="#7cd3eb" />
<path d="M344.03490257669733,837.2150974233027 A54.3198051533949,54.3198051533949,0,0,0,332.2598489621722,854.8377105184961 M332.2598489621722,854.8377105184961 A54.31980515339427,54.31980515339427,0,0,0,328.125,875.625 M328.125,875.625" close="False" data-weight="1.0" stroke-width="7" fill="none" stroke="#7cd3eb" />
<path d="M350.1704076850486,707.625 A57.722322221287754,57.722322221287754,0,0,1,328.08103129332227,703.2311498479813 M328.08103129332227,703.2311498479813 A57.72232222128817,57.72232222128817,0,0,1,309.3545622165406,690.7185232472195 M309.3545622165406,690.7185232472195" close="False" data-weight="1.0" stroke-width="7" fill="none" stroke="#7cd3eb" />
<path d="M344.03490257669733,387.21509742330267 C336.07995128834864,395.17004871165136,320.17004871165136,411.07995128834864,312.21509742330267,419.03490257669733" close="False" data-weight="0.0" stroke-width="7" fill="none" stroke="#7cd3eb" />
<path d="M265.5314767527803,646.8954377834592 C257.7372481187204,639.1012091493993,242.14879085060056,623.5127518812794,234.35456221654064,615.7185232472195" close="False" data-weight="0.0" stroke-width="7" fill="none" stroke="#7cd3eb" />
<path d="M269.03490257669733,462.21509742330267 C261.07995128834864,470.17004871165136,245.17004871165133,486.07995128834864,237.21509742330267,494.03490257669733" close="False" data-weight="0.0" stroke-width="7" fill="none" stroke="#7cd3eb" />
<path d="M103.125,455.625 A54.319805153394526,54.319805153394526,0,0,0,107.25984896217224,476.412289481504 M107.25984896217224,476.412289481504 A54.31980515339479,54.31980515339479,0,0,0,119.03490257669732,494.03490257669733 M119.03490257669732,494.03490257669733" close="False" data-weight="1.0" stroke-width="7" fill="none" stroke="#7cd3eb" />
<path d="M103.125,380.625 C103.125,391.875,103.125,414.375,103.125,425.625" close="False" data-weight="0.0" stroke-width="7" fill="none" stroke="#7cd3eb" />
<path d="M103.125,305.625 C103.125,316.875,103.125,339.375,103.125,350.625" close="False" data-weight="0.0" stroke-width="7" fill="none" stroke="#7cd3eb" />
<path d="M1025.1704076850485,1007.625 L1056.0795923149515,1007.625" close="False" data-weight="1.75" stroke-width="7" fill="none" stroke="#7cd3eb" />
<path d="M1025.625,103.125 L1055.625,103.125" close="False" data-weight="1.75" stroke-width="7" fill="none" stroke="#7cd3eb" />
<path d="M950.1704076850486,1007.625 L981.0795923149514,1007.625" close="False" data-weight="1.75" stroke-width="7" fill="none" stroke="#7cd3eb" />
<path d="M950.625,103.125 L980.625,103.125" close="False" data-weight="1.75" stroke-width="7" fill="none" stroke="#7cd3eb" />
<path d="M875.1704076850486,1007.625 L906.0795923149514,1007.625" close="False" data-weight="1.75" stroke-width="7" fill="none" stroke="#7cd3eb" />
<path d="M869.0349025766973,162.21509742330267 L912.2150974233027,119.0349025766973" close="False" data-weight="2.060660171779821" stroke-width="7" fill="none" stroke="#7cd3eb" />
<path d="M800.1704076850486,1007.625 L831.0795923149514,1007.625" close="False" data-weight="1.75" stroke-width="7" fill="none" stroke="#7cd3eb" />
<path d="M794.0349025766973,237.21509742330267 L837.2150974233027,194.0349025766973" close="False" data-weight="2.060660171779821" stroke-width="7" fill="none" stroke="#7cd3eb" />
<path d="M725.1704076850486,1007.625 L756.0795923149514,1007.625" close="False" data-weight="1.75" stroke-width="7" fill="none" stroke="#7cd3eb" />
<path d="M719.0349025766973,312.21509742330267 L762.2150974233027,269.03490257669733" close="False" data-weight="2.060660171779821" stroke-width="7" fill="none" stroke="#7cd3eb" />
<path d="M640.5314767527805,946.8954377834593 L684.3545622165407,990.7185232472195" close="False" data-weight="2.060660171779821" stroke-width="7" fill="none" stroke="#7cd3eb" />
<path d="M648.7465906273013,319.125 L682.5034093726987,319.125" close="False" data-weight="1.75" stroke-width="7" fill="none" stroke="#7cd3eb" />
<path d="M565.5314767527767,871.8954377834556 L609.3545622165407,915.7185232472195" close="False" data-weight="2.060660171779821" stroke-width="7" fill="none" stroke="#7cd3eb" />
<path d="M573.7465906273013,319.125 L607.5034093726987,319.125" close="False" data-weight="1.75" stroke-width="7" fill="none" stroke="#7cd3eb" />
<path d="M490.53147675278416,796.8954377834631 L534.3545622165443,840.7185232472232" close="False" data-weight="2.060660171779821" stroke-width="7" fill="none" stroke="#7cd3eb" />
<path d="M498.74659062730126,319.125 L532.5034093726987,319.125" close="False" data-weight="1.75" stroke-width="7" fill="none" stroke="#7cd3eb" />
<path d="M403.125,725.625 L403.125,755.625" close="False" data-weight="1.75" stroke-width="7" fill="none" stroke="#7cd3eb" />
<path d="M415.5314767527804,721.8954377834593 L459.3545622165368,765.7185232472157" close="False" data-weight="2.060660171779821" stroke-width="7" fill="none" stroke="#7cd3eb" />
<path d="M425.625,328.125 L455.625,328.125" close="False" data-weight="1.75" stroke-width="7" fill="none" stroke="#7cd3eb" />
<path d="M344.03490257669733,1094.0349025766973 L387.21509742330267,1137.2150974233027" close="False" data-weight="2.060660171779821" stroke-width="7" fill="none" stroke="#7cd3eb" />
<path d="M328.125,1025.625 L328.125,1055.625" close="False" data-weight="1.75" stroke-width="7" fill="none" stroke="#7cd3eb" />
<path d="M328.125,950.625 L328.125,980.625" close="False" data-weight="1.75" stroke-width="7" fill="none" stroke="#7cd3eb" />
<path d="M328.125,875.625 L328.125,905.625" close="False" data-weight="1.75" stroke-width="7" fill="none" stroke="#7cd3eb" />
<path d="M344.03490257669733,837.2150974233027 L387.21509742330267,794.0349025766973" close="False" data-weight="2.060660171779821" stroke-width="7" fill="none" stroke="#7cd3eb" />
<path d="M350.1704076850486,707.625 L381.0795923149514,707.625" close="False" data-weight="1.75" stroke-width="7" fill="none" stroke="#7cd3eb" />
<path d="M344.03490257669733,387.21509742330267 L387.21509742330267,344.03490257669733" close="False" data-weight="2.060660171779821" stroke-width="7" fill="none" stroke="#7cd3eb" />
<path d="M265.5314767527804,646.8954377834593 L309.3545622165405,690.7185232472194" close="False" data-weight="2.060660171779821" stroke-width="7" fill="none" stroke="#7cd3eb" />
<path d="M269.03490257669733,462.21509742330267 L312.21509742330267,419.03490257669733" close="False" data-weight="2.060660171779821" stroke-width="7" fill="none" stroke="#7cd3eb" />
<path d="M190.53147675278043,571.8954377834593 L234.3545622165406,615.7185232472195" close="False" data-weight="2.060660171779821" stroke-width="7" fill="none" stroke="#7cd3eb" />
<path d="M194.03490257669733,537.2150974233027 L237.2150974233027,494.03490257669733" close="False" data-weight="2.060660171779821" stroke-width="7" fill="none" stroke="#7cd3eb" />
<path d="M119.03490257669732,494.03490257669733 L162.2150974233027,537.2150974233027" close="False" data-weight="2.060660171779821" stroke-width="7" fill="none" stroke="#7cd3eb" />
<path d="M103.125,425.625 L103.125,455.625" close="False" data-weight="1.75" stroke-width="7" fill="none" stroke="#7cd3eb" />
<path d="M103.125,350.625 L103.125,380.625" close="False" data-weight="1.75" stroke-width="7" fill="none" stroke="#7cd3eb" />
<path d="M103.125,275.625 L103.125,305.625" close="False" data-weight="1.75" stroke-width="7" fill="none" stroke="#7cd3eb" />
<path d="M946.8954377834593,690.7185232472195 A48.72232222128802,48.72232222128802,0,0,0,936.3337659446202,706.5251821846081 M936.3337659446202,706.5251821846081 A48.72232222128889,48.72232222128889,0,0,0,932.625,725.1704076850486 M932.625,725.1704076850486" close="False" data-weight="1.0" stroke-width="7" fill="none" stroke="#8f0f12" />
<path d="M865.5314767527805,721.8954377834593 A48.72232222128802,48.72232222128802,0,0,0,849.7248178153919,711.3337659446202 M849.7248178153919,711.3337659446202 A48.72232222128889,48.72232222128889,0,0,0,831.0795923149514,707.625 M831.0795923149514,707.625" close="False" data-weight="1.0" stroke-width="7" fill="none" stroke="#8f0f12" />
<path d="M800.1704076850486,707.625 C789.1477038425244,707.625,767.1022961574756,707.625,756.0795923149514,707.625" close="False" data-weight="0.0" stroke-width="7" fill="none" stroke="#8f0f12" />
<path d="M725.1704076850486,707.625 C714.1477038425244,707.625,692.1022961574756,707.625,681.0795923149514,707.625" close="False" data-weight="0.0" stroke-width="7" fill="none" stroke="#8f0f12" />
<path d="M650.1704076850486,707.625 C639.1477038425244,707.625,617.1022961574756,707.625,606.0795923149514,707.625" close="False" data-weight="0.0" stroke-width="7" fill="none" stroke="#8f0f12" />
<path d="M575.1704076850486,707.625 C564.1477038425244,707.625,542.1022961574756,707.625,531.0795923149514,707.625" close="False" data-weight="0.0" stroke-width="7" fill="none" stroke="#8f0f12" />
<path d="M500.1704076850486,707.625 C489.14770384252427,707.625,467.10229615747573,707.625,456.0795923149514,707.625" close="False" data-weight="0.0" stroke-width="7" fill="none" stroke="#8f0f12" />
<path d="M403.125,1055.625 C403.125,1066.875,403.125,1089.375,403.125,1100.625" close="False" data-weight="0.0" stroke-width="7" fill="none" stroke="#8f0f12" />
<path d="M403.125,980.625 C403.125,991.875,403.125,1014.375,403.125,1025.625" close="False" data-weight="0.0" stroke-width="7" fill="none" stroke="#8f0f12" />
<path d="M346.8954377834595,865.5314767527806 C339.10120914939955,857.7372481187206,323.51275188127954,842.1487908506007,315.7185232472196,834.3545622165407" close="False" data-weight="0.0" stroke-width="7" fill="none" stroke="#8f0f12" />
<path d="M346.8954377834632,765.7185232472157 A57.72232222130963,57.72232222130963,0,0,1,328.1689687066799,778.23114984798 M328.1689687066799,778.23114984798 A57.722322221280365,57.722322221280365,0,0,1,306.0795923149514,782.625 M306.0795923149514,782.625" close="False" data-weight="1.0" stroke-width="7" fill="none" stroke="#8f0f12" />
<path d="M932.625,725.1704076850486 L932.625,756.0795923149514" close="False" data-weight="1.75" stroke-width="7" fill="none" stroke="#8f0f12" />
<path d="M946.8954377834593,690.7185232472195 L990.7185232472195,646.8954377834593" close="False" data-weight="2.060660171779821" stroke-width="7" fill="none" stroke="#8f0f12" />
<path d="M865.5314767527805,721.8954377834593 L909.3545622165407,765.7185232472195" close="False" data-weight="2.060660171779821" stroke-width="7" fill="none" stroke="#8f0f12" />
<path d="M800.1704076850486,707.625 L831.0795923149514,707.625" close="False" data-weight="1.75" stroke-width="7" fill="none" stroke="#8f0f12" />
<path d="M725.1704076850486,707.625 L756.0795923149514,707.625" close="False" data-weight="1.75" stroke-width="7" fill="none" stroke="#8f0f12" />
<path d="M650.1704076850486,707.625 L681.0795923149514,707.625" close="False" data-weight="1.75" stroke-width="7" fill="none" stroke="#8f0f12" />
<path d="M575.1704076850486,707.625 L606.0795923149514,707.625" close="False" data-weight="1.75" stroke-width="7" fill="none" stroke="#8f0f12" />
<path d="M500.1704076850486,707.625 L531.0795923149514,707.625" close="False" data-weight="1.75" stroke-width="7" fill="none" stroke="#8f0f12" />
<path d="M403.125,1100.625 L403.125,1130.625" close="False" data-weight="1.75" stroke-width="7" fill="none" stroke="#8f0f12" />
<path d="M403.125,1025.625 L403.125,1055.625" close="False" data-weight="1.75" stroke-width="7" fill="none" stroke="#8f0f12" />
<path d="M403.125,950.625 L403.125,980.625" close="False" data-weight="1.75" stroke-width="7" fill="none" stroke="#8f0f12" />
<path d="M425.1704076850486,707.625 L456.0795923149514,707.625" close="False" data-weight="1.75" stroke-width="7" fill="none" stroke="#8f0f12" />
<path d="M346.8954377834594,865.5314767527805 L390.7185232472197,909.3545622165408" close="False" data-weight="2.060660171779821" stroke-width="7" fill="none" stroke="#8f0f12" />
<path d="M346.8954377834631,765.7185232472158 L390.71852324721596,721.895437783463" close="False" data-weight="2.060660171779821" stroke-width="7" fill="none" stroke="#8f0f12" />
<path d="M271.89543778345563,790.5314767527767 L315.7185232472197,834.3545622165408" close="False" data-weight="2.060660171779821" stroke-width="7" fill="none" stroke="#8f0f12" />
<path d="M275.1704076850486,782.625 L306.0795923149514,782.625" close="False" data-weight="1.75" stroke-width="7" fill="none" stroke="#8f0f12" />
<path d="M398.625,606.0795923149514 C398.625,617.1022961574756,398.625,639.1477038425244,398.625,650.1704076850486" close="False" data-weight="0.0" stroke-width="7" fill="none" stroke="#90ea66" />
<path d="M398.625,531.0795923149514 C398.625,542.1022961574756,398.625,564.1477038425244,398.625,575.1704076850486" close="False" data-weight="0.0" stroke-width="7" fill="none" stroke="#90ea66" />
<path d="M350.1704076850486,698.625 A48.722322221288664,48.722322221288664,0,0,1,331.52518218460807,694.9162340553798 M331.52518218460807,694.9162340553798 A48.722322221287975,48.722322221287975,0,0,1,315.7185232472196,684.3545622165407 M315.7185232472196,684.3545622165407" close="False" data-weight="1.0" stroke-width="7" fill="none" stroke="#90ea66" />
<path d="M271.8954377834595,640.5314767527806 C264.1012091493995,632.7372481187206,248.51275188127954,617.1487908506007,240.71852324721957,609.3545622165407" close="False" data-weight="0.0" stroke-width="7" fill="none" stroke="#90ea66" />
<path d="M398.625,650.1704076850486 L398.625,681.0795923149514" close="False" data-weight="1.75" stroke-width="7" fill="none" stroke="#90ea66" />
<path d="M398.625,575.1704076850486 L398.625,606.0795923149514" close="False" data-weight="1.75" stroke-width="7" fill="none" stroke="#90ea66" />
<path d="M398.625,500.1704076850486 L398.625,531.0795923149514" close="False" data-weight="1.75" stroke-width="7" fill="none" stroke="#90ea66" />
<path d="M350.1704076850486,698.625 L381.0795923149514,698.625" close="False" data-weight="1.75" stroke-width="7" fill="none" stroke="#90ea66" />
<path d="M271.8954377834594,640.5314767527805 L315.7185232472197,684.3545622165408" close="False" data-weight="2.060660171779821" stroke-width="7" fill="none" stroke="#90ea66" />
<path d="M196.89543778345936,565.5314767527805 L240.71852324721962,609.3545622165408" close="False" data-weight="2.060660171779821" stroke-width="7" fill="none" stroke="#90ea66" />
<path d="M1169.0349025766973,569.0349025766973 A54.31980515339514,54.31980515339514,0,0,0,1151.412289481504,557.2598489621722 M1151.412289481504,557.2598489621722 A54.319805153393986,54.319805153393986,0,0,0,1130.625,553.125 M1130.625,553.125" close="False" data-weight="1.0" stroke-width="7" fill="none" stroke="#35618f" />
<path d="M1100.625,553.125 C1089.375,553.125,1066.875,553.125,1055.625,553.125" close="False" data-weight="0.0" stroke-width="7" fill="none" stroke="#35618f" />
<path d="M1025.625,553.125 C1014.375,553.125,991.875,553.125,980.625,553.125" close="False" data-weight="0.0" stroke-width="7" fill="none" stroke="#35618f" />
<path d="M869.0349025766973,494.03490257669733 C861.0799512883486,486.0799512883487,845.1700487116514,470.1700487116513,837.2150974233027,462.21509742330267" close="False" data-weight="0.0" stroke-width="7" fill="none" stroke="#35618f" />
<path d="M794.0349025766973,419.03490257669733 C786.0799512883486,411.0799512883487,770.1700487116514,395.1700487116513,762.2150974233027,387.21509742330267" close="False" data-weight="0.0" stroke-width="7" fill="none" stroke="#35618f" />
<path d="M648.7465906273013,337.125 C638.4357953136507,337.125,617.8142046863493,337.125,607.5034093726987,337.125" close="False" data-weight="0.0" stroke-width="7" fill="none" stroke="#35618f" />
<path d="M573.7465906273013,337.125 C563.4357953136507,337.125,542.8142046863493,337.125,532.5034093726987,337.125" close="False" data-weight="0.0" stroke-width="7" fill="none" stroke="#35618f" />
<path d="M1169.0349025766973,569.0349025766973 L1212.2150974233027,612.2150974233027" close="False" data-weight="2.060660171779821" stroke-width="7" fill="none" stroke="#35618f" />
<path d="M1100.625,553.125 L1130.625,553.125" close="False" data-weight="1.75" stroke-width="7" fill="none" stroke="#35618f" />
<path d="M1025.625,553.125 L1055.625,553.125" close="False" data-weight="1.75" stroke-width="7" fill="none" stroke="#35618f" />
<path d="M950.625,553.125 L980.625,553.125" close="False" data-weight="1.75" stroke-width="7" fill="none" stroke="#35618f" />
<path d="M869.0349025766973,494.03490257669733 L912.2150974233027,537.2150974233027" close="False" data-weight="2.060660171779821" stroke-width="7" fill="none" stroke="#35618f" />
<path d="M794.0349025766973,419.03490257669733 L837.2150974233027,462.21509742330267" close="False" data-weight="2.060660171779821" stroke-width="7" fill="none" stroke="#35618f" />
<path d="M719.0349025766973,344.03490257669733 L762.2150974233027,387.21509742330267" close="False" data-weight="2.060660171779821" stroke-width="7" fill="none" stroke="#35618f" />
<path d="M648.7465906273013,337.125 L682.5034093726987,337.125" close="False" data-weight="1.75" stroke-width="7" fill="none" stroke="#35618f" />
<path d="M573.7465906273013,337.125 L607.5034093726987,337.125" close="False" data-weight="1.75" stroke-width="7" fill="none" stroke="#35618f" />
<path d="M498.74659062730126,337.125 L532.5034093726987,337.125" close="False" data-weight="1.75" stroke-width="7" fill="none" stroke="#35618f" />
<image x="1195.625" y="1195.625" width="65" height="65" xlink:href="designspace-test/./img/ds_dataset0_20_5_thumb.png" data-node="True" data-id="5" />
<image x="1195.625" y="595.625" width="65" height="65" xlink:href="designspace-test/./img/ds_dataset0_20_9_thumb.png" data-node="True" data-id="9" />
<image x="1120.625" y="220.625" width="65" height="65" xlink:href="designspace-test/./img/ds_dataset0_20_10_thumb.png" data-node="True" data-id="10" />
<image x="1045.625" y="970.625" width="65" height="65" xlink:href="designspace-test/./img/ds_dataset0_20_7_thumb.png" data-node="True" data-id="7" />
<image x="1045.625" y="70.625" width="65" height="65" xlink:href="designspace-test/./img/ds_dataset0_20_11_thumb.png" data-node="True" data-id="11" />
<image x="970.625" y="895.625" width="65" height="65" xlink:href="designspace-test/./img/ds_dataset0_20_6_thumb.png" data-node="True" data-id="6" />
<image x="970.625" y="595.625" width="65" height="65" xlink:href="designspace-test/./img/ds_dataset0_20_0_thumb.png" data-node="True" data-id="0" />
<image x="895.625" y="745.625" width="65" height="65" xlink:href="designspace-test/./img/ds_dataset0_20_8_thumb.png" data-node="True" data-id="8" />
<image x="895.625" y="520.625" width="65" height="65" xlink:href="designspace-test/./img/ds_dataset0_20_1_thumb.png" data-node="True" data-id="1" />
<image x="670.625" y="295.625" width="65" height="65" xlink:href="designspace-test/./img/ds_dataset0_20_4_thumb.png" data-node="True" data-id="4" />
<image x="445.625" y="295.625" width="65" height="65" xlink:href="designspace-test/./img/ds_dataset0_20_15_thumb.png" data-node="True" data-id="15" />
<image x="370.625" y="1120.625" width="65" height="65" xlink:href="designspace-test/./img/ds_dataset0_20_3_thumb.png" data-node="True" data-id="3" />
<image x="370.625" y="895.625" width="65" height="65" xlink:href="designspace-test/./img/ds_dataset0_20_12_thumb.png" data-node="True" data-id="12" />
<image x="370.625" y="745.625" width="65" height="65" xlink:href="designspace-test/./img/ds_dataset0_20_16_thumb.png" data-node="True" data-id="16" />
<image x="370.625" y="670.625" width="65" height="65" xlink:href="designspace-test/./img/ds_dataset0_20_19_thumb.png" data-node="True" data-id="19" />
<image x="370.625" y="445.625" width="65" height="65" xlink:href="designspace-test/./img/ds_dataset0_20_18_thumb.png" data-node="True" data-id="18" />
<image x="220.625" y="895.625" width="65" height="65" xlink:href="designspace-test/./img/ds_dataset0_20_17_thumb.png" data-node="True" data-id="17" />
<image x="220.625" y="745.625" width="65" height="65" xlink:href="designspace-test/./img/ds_dataset0_20_14_thumb.png" data-node="True" data-id="14" />
<image x="145.625" y="520.625" width="65" height="65" xlink:href="designspace-test/./img/ds_dataset0_20_2_thumb.png" data-node="True" data-id="2" />
<image x="70.625" y="220.625" width="65" height="65" xlink:href="designspace-test/./img/ds_dataset0_20_13_thumb.png" data-node="True" data-id="13" />
</svg>