<?xml version="1.0" encoding="UTF-8"?>
<svg xmlns="http://www.w3.org/2000/svg" xmlns:xlink="http://www.w3.org/1999/xlink"
     width="2550" height="2550" viewBox="0 0 2550 2550">
<defs>
</defs>
<path d="M1844.0349025766973,1244.0349025766973 C1836.0799512883486,1236.0799512883486,1820.1700487116514,1220.1700487116514,1812.2150974233027,1212.2150974233027" close="False" data-weight="0.0" stroke-width="6" fill="none" stroke="#ffff33" />
<path d="M1769.0349025766973,1169.0349025766973 C1761.0799512883486,1161.0799512883486,1745.1700487116514,1145.1700487116514,1737.2150974233027,1137.2150974233027" close="False" data-weight="0.0" stroke-width="6" fill="none" stroke="#ffff33" />
<path d="M1694.0349025766973,1094.0349025766973 C1686.0799512883486,1086.0799512883486,1670.1700487116514,1070.1700487116514,1662.2150974233027,1062.2150974233027" close="False" data-weight="0.0" stroke-width="6" fill="none" stroke="#ffff33" />
<path d="M1619.0349025766973,1019.0349025766973 C1611.0799512883486,1011.0799512883486,1595.1700487116514,995.1700487116514,1587.2150974233027,987.2150974233027" close="False" data-weight="0.0" stroke-width="6" fill="none" stroke="#ffff33" />
<path d="M1544.0349025766973,944.0349025766973 C1536.0799512883486,936.0799512883486,1520.1700487116514,920.1700487116514,1512.2150974233027,912.2150974233027" close="False" data-weight="0.0" stroke-width="6" fill="none" stroke="#ffff33" />
<path d="M1469.0349025766973,869.0349025766973 C1461.0799512883486,861.0799512883486,1445.1700487116514,845.1700487116514,1437.2150974233027,837.2150974233027" close="False" data-weight="0.0" stroke-width="6" fill="none" stroke="#ffff33" />
<path d="M1378.125,755.625 A54.31980515339637,54.31980515339637,0,0,0,1382.259848962172,776.412289481504 M1382.259848962172,776.412289481504 A54.31980515339273,54.31980515339273,0,0,0,1394.0349025766973,794.0349025766973 M1394.0349025766973,794.0349025766973" close="False" data-weight="1.0" stroke-width="6" fill="none" stroke="#ffff33" />
<path d="M1378.125,680.625 C1378.125,691.875,1378.125,714.375,1378.125,725.625" close="False" data-weight="0.0" stroke-width="6" fill="none" stroke="#ffff33" />
<path d="M1382.125,605.9834101745155 C1382.125,617.1885193388287,1378.125,639.4198908356868,1378.125,650.625" close="False" data-weight="0.0" stroke-width="6" fill="none" stroke="#ffff33" />
<path d="M1382.125,530.9834101745155 C1382.125,542.0542050872577,1382.125,564.1957949127423,1382.125,575.2665898254845" close="False" data-weight="0.0" stroke-width="6" fill="none" stroke="#ffff33" />
<path d="M1319.0349025766973,537.2150974233027 C1311.0799512883486,545.1700487116514,1295.1700487116514,561.0799512883486,1287.2150974233027,569.0349025766973" close="False" data-weight="0.0" stroke-width="6" fill="none" stroke="#ffff33" />
<path d="M1244.0349025766973,612.2150974233027 C1236.0799512883486,620.1700487116514,1220.1700487116514,636.0799512883486,1212.2150974233027,644.0349025766973" close="False" data-weight="0.0" stroke-width="6" fill="none" stroke="#ffff33" />
<path d="M1169.0349025766973,687.2150974233027 C1161.0799512883486,695.1700487116514,1145.1700487116514,711.0799512883486,1137.2150974233027,719.0349025766973" close="False" data-weight="0.0" stroke-width="6" fill="none" stroke="#ffff33" />
<path d="M1078.125,830.625 A54.31980515339637,54.31980515339637,0,0,1,1073.990151037828,851.412289481504 M1073.990151037828,851.412289481504 A54.319805153392814,54.319805153392814,0,0,1,1062.2150974233027,869.0349025766973 M1062.2150974233027,869.0349025766973" close="False" data-weight="1.0" stroke-width="6" fill="none" stroke="#ffff33" />
<path d="M1094.0349025766973,762.2150974233027 A54.31980515339554,54.31980515339554,0,0,0,1082.259848962172,779.837710518496 M1082.259848962172,779.837710518496 A54.319805153393645,54.319805153393645,0,0,0,1078.125,800.625 M1078.125,800.625" close="False" data-weight="1.0" stroke-width="6" fill="none" stroke="#ffff33" />
<path d="M1019.0349025766973,912.2150974233027 C1011.0799512883486,920.1700487116514,995.1700487116514,936.0799512883486,987.2150974233027,944.0349025766973" close="False" data-weight="0.0" stroke-width="6" fill="none" stroke="#ffff33" />
<path d="M944.0349025766973,987.2150974233027 C936.0799512883486,995.1700487116514,920.1700487116514,1011.0799512883486,912.2150974233027,1019.0349025766973" close="False" data-weight="0.0" stroke-width="6" fill="none" stroke="#ffff33" />
<path d="M1844.0349025766973,1244.0349025766973 L1887.2150974233027,1287.2150974233027" close="False" data-weight="2.060660171779821" stroke-width="6" fill="none" stroke="#ffff33" />
<path d="M1769.0349025766973,1169.0349025766973 L1812.2150974233027,1212.2150974233027" close="False" data-weight="2.060660171779821" stroke-width="6" fill="none" stroke="#ffff33" />
<path d="M1694.0349025766973,1094.0349025766973 L1737.2150974233027,1137.2150974233027" close="False" data-weight="2.060660171779821" stroke-width="6" fill="none" stroke="#ffff33" />
<path d="M1619.0349025766973,1019.0349025766973 L1662.2150974233027,1062.2150974233027" close="False" data-weight="2.060660171779821" stroke-width="6" fill="none" stroke="#ffff33" />
<path d="M1544.0349025766973,944.0349025766973 L1587.2150974233027,987.2150974233027" close="False" data-weight="2.060660171779821" stroke-width="6" fill="none" stroke="#ffff33" />
<path d="M1469.0349025766973,869.0349025766973 L1512.2150974233027,912.2150974233027" close="False" data-weight="2.060660171779821" stroke-width="6" fill="none" stroke="#ffff33" />
<path d="M1394.0349025766973,794.0349025766973 L1437.2150974233027,837.2150974233027" close="False" data-weight="2.060660171779821" stroke-width="6" fill="none" stroke="#ffff33" />
<path d="M1378.125,725.625 L1378.125,755.625" close="False" data-weight="1.75" stroke-width="6" fill="none" stroke="#ffff33" />
<path d="M1378.125,650.625 L1378.125,680.625" close="False" data-weight="1.75" stroke-width="6" fill="none" stroke="#ffff33" />
<path d="M1382.125,575.2665898254845 L1382.125,605.9834101745155" close="False" data-weight="1.75" stroke-width="6" fill="none" stroke="#ffff33" />
<path d="M1382.125,500.2665898254845 L1382.125,530.9834101745155" close="False" data-weight="1.75" stroke-width="6" fill="none" stroke="#ffff33" />
<path d="M1319.0349025766973,537.2150974233027 L1362.2150974233027,494.03490257669733" close="False" data-weight="2.060660171779821" stroke-width="6" fill="none" stroke="#ffff33" />
<path d="M1244.0349025766973,612.2150974233027 L1287.2150974233027,569.0349025766973" close="False" data-weight="2.060660171779821" stroke-width="6" fill="none" stroke="#ffff33" />
<path d="M1169.0349025766973,687.2150974233027 L1212.2150974233027,644.0349025766973" close="False" data-weight="2.060660171779821" stroke-width="6" fill="none" stroke="#ffff33" />
<path d="M1078.125,800.625 L1078.125,830.625" close="False" data-weight="1.75" stroke-width="6" fill="none" stroke="#ffff33" />
<path d="M1094.0349025766973,762.2150974233027 L1137.2150974233027,719.0349025766973" close="False" data-weight="2.060660171779821" stroke-width="6" fill="none" stroke="#ffff33" />
<path d="M1019.0349025766973,912.2150974233027 L1062.2150974233027,869.0349025766973" close="False" data-weight="2.060660171779821" stroke-width="6" fill="none" stroke="#ffff33" />
<path d="M944.0349025766973,987.2150974233027 L987.2150974233027,944.0349025766973" close="False" data-weight="2.060660171779821" stroke-width="6" fill="none" stroke="#ffff33" />
<path d="M869.0349025766973,1062.2150974233027 L912.2150974233027,1019.0349025766973" close="False" data-weight="2.060660171779821" stroke-width="6" fill="none" stroke="#ffff33" />
<path d="M790.953041187105,1021.6098954365974 C783.1248070311793,1013.7816612806718,767.4683387193282,998.1251929688207,759.6401045634026,990.296958812895" close="False" data-weight="0.0" stroke-width="6" fill="none" stroke="#984ea3" />
<path d="M715.953041187105,946.6098954365974 A49.45452644918767,49.45452644918767,0,0,0,699.9088381020804,935.889501672745 M699.9088381020804,935.889501672745 A49.45452644918612,49.45452644918612,0,0,0,680.9834101745155,932.125 M680.9834101745155,932.125" close="False" data-weight="1.0" stroke-width="6" fill="none" stroke="#984ea3" />
<path d="M650.2665898254845,932.125 C639.1957949127423,932.125,617.0542050872577,932.125,605.9834101745155,932.125" close="False" data-weight="0.0" stroke-width="6" fill="none" stroke="#984ea3" />
<path d="M575.2665898254845,932.125 C564.1957949127423,932.125,542.0542050872577,932.125,530.9834101745155,932.125" close="False" data-weight="0.0" stroke-width="6" fill="none" stroke="#984ea3" />
<path d="M790.953041187105,1021.6098954365974 L834.6401045634026,1065.2969588128951" close="False" data-weight="2.060660171779821" stroke-width="6" fill="none" stroke="#984ea3" />
<path d="M715.953041187105,946.6098954365974 L759.6401045634026,990.296958812895" close="False" data-weight="2.060660171779821" stroke-width="6" fill="none" stroke="#984ea3" />
<path d="M650.2665898254845,932.125 L680.9834101745155,932.125" close="False" data-weight="1.75" stroke-width="6" fill="none" stroke="#984ea3" />
<path d="M575.2665898254845,932.125 L605.9834101745155,932.125" close="False" data-weight="1.75" stroke-width="6" fill="none" stroke="#984ea3" />
<path d="M500.2665898254845,932.125 L530.9834101745155,932.125" close="False" data-weight="1.75" stroke-width="6" fill="none" stroke="#984ea3" />
<path d="M2432.125,1355.9834101745155 A57.454526449181685,57.454526449181685,0,0,1,2427.751534587345,1377.970305561001 M2427.751534587345,1377.970305561001 A57.45452644919593,57.45452644919593,0,0,1,2415.296958812895,1396.6098954365973 M2415.296958812895,1396.6098954365973" close="False" data-weight="1.0" stroke-width="6" fill="none" stroke="#ff7f00" />
<path d="M2432.125,1280.9834101745155 C2432.125,1292.0542050872577,2432.125,1314.1957949127423,2432.125,1325.2665898254845" close="False" data-weight="0.0" stroke-width="6" fill="none" stroke="#ff7f00" />
<path d="M2432.125,1205.9834101745155 C2432.125,1217.0542050872577,2432.125,1239.1957949127423,2432.125,1250.2665898254845" close="False" data-weight="0.0" stroke-width="6" fill="none" stroke="#ff7f00" />
<path d="M2432.125,1130.9834101745155 C2432.125,1142.0542050872577,2432.125,1164.1957949127423,2432.125,1175.2665898254845" close="False" data-weight="0.0" stroke-width="6" fill="none" stroke="#ff7f00" />
<path d="M2432.125,1055.9834101745155 C2432.125,1067.0542050872577,2432.125,1089.1957949127423,2432.125,1100.2665898254845" close="False" data-weight="0.0" stroke-width="6" fill="none" stroke="#ff7f00" />
<path d="M2353.125,1655.625 A54.31980515339728,54.31980515339728,0,0,1,2348.9901510378277,1676.412289481504 M2348.9901510378277,1676.412289481504 A54.319805153387826,54.319805153387826,0,0,1,2337.2150974233027,1694.0349025766973 M2337.2150974233027,1694.0349025766973" close="False" data-weight="1.0" stroke-width="6" fill="none" stroke="#ff7f00" />
<path d="M2353.125,1580.625 C2353.125,1591.875,2353.125,1614.375,2353.125,1625.625" close="False" data-weight="0.0" stroke-width="6" fill="none" stroke="#ff7f00" />
<path d="M2353.125,1505.625 C2353.125,1516.875,2353.125,1539.375,2353.125,1550.625" close="False" data-weight="0.0" stroke-width="6" fill="none" stroke="#ff7f00" />
<path d="M2371.6098954365975,940.953041187105 A57.454526449187085,57.454526449187085,0,0,0,2352.970305561001,928.4984654126547 M2352.970305561001,928.4984654126547 A57.45452644918703,57.45452644918703,0,0,0,2330.9834101745155,924.125 M2330.9834101745155,924.125" close="False" data-weight="1.0" stroke-width="6" fill="none" stroke="#ff7f00" />
<path d="M2294.0349025766973,1394.0349025766973 C2286.0799512883486,1386.0799512883486,2270.1700487116514,1370.1700487116514,2262.2150974233027,1362.2150974233027" close="False" data-weight="0.0" stroke-width="6" fill="none" stroke="#ff7f00" />
<path d="M2300.2665898254845,924.125 C2289.1957949127423,924.125,2267.0542050872577,924.125,2255.9834101745155,924.125" close="False" data-weight="0.0" stroke-width="6" fill="none" stroke="#ff7f00" />
<path d="M2278.125,830.625 A54.3198051533991,54.3198051533991,0,0,1,2273.990151037828,851.4122894815041 M2273.990151037828,851.4122894815041 A54.319805153386056,54.319805153386056,0,0,1,2262.2150974233027,869.0349025766973 M2262.2150974233027,869.0349025766973" close="False" data-weight="1.0" stroke-width="6" fill="none" stroke="#ff7f00" />
<path d="M2278.125,755.625 C2278.125,766.875,2278.125,789.375,2278.125,800.625" close="False" data-weight="0.0" stroke-width="6" fill="none" stroke="#ff7f00" />
<path d="M2219.0349025766973,1319.0349025766973 A54.319805153402136,54.319805153402136,0,0,0,2201.4122894815036,1307.259848962172 M2201.4122894815036,1307.259848962172 A54.31980515339069,54.31980515339069,0,0,0,2180.625,1303.125 M2180.625,1303.125" close="False" data-weight="1.0" stroke-width="6" fill="none" stroke="#ff7f00" />
<path d="M2150.625,1303.125 C2139.375,1303.125,2116.875,1303.125,2105.625,1303.125" close="False" data-weight="0.0" stroke-width="6" fill="none" stroke="#ff7f00" />
<path d="M2150.625,928.125 C2139.375,928.125,2116.875,928.125,2105.625,928.125" close="False" data-weight="0.0" stroke-width="6" fill="none" stroke="#ff7f00" />
<path d="M2075.625,1303.125 C2064.375,1303.125,2041.875,1303.125,2030.625,1303.125" close="False" data-weight="0.0" stroke-width="6" fill="none" stroke="#ff7f00" />
<path d="M2075.625,928.125 C2064.375,928.125,2041.875,928.125,2030.625,928.125" close="False" data-weight="0.0" stroke-width="6" fill="none" stroke="#ff7f00" />
<path d="M2000.625,1303.125 C1989.375,1303.125,1966.875,1303.125,1955.625,1303.125" close="False" data-weight="0.0" stroke-width="6" fill="none" stroke="#ff7f00" />
<path d="M2000.625,928.125 A54.31980515339285,54.31980515339285,0,0,1,1979.837710518496,923.9901510378276 M1979.837710518496,923.9901510378276 A54.31980515339619,54.31980515339619,0,0,1,1962.2150974233027,912.2150974233027 M1962.2150974233027,912.2150974233027" close="False" data-weight="1.0" stroke-width="6" fill="none" stroke="#ff7f00" />
<path d="M1919.0349025766973,869.0349025766973 C1911.0799512883486,861.0799512883486,1895.1700487116514,845.1700487116514,1887.2150974233027,837.2150974233027" close="False" data-weight="0.0" stroke-width="6" fill="none" stroke="#ff7f00" />
<path d="M1844.0349025766973,794.0349025766973 C1836.0799512883486,786.0799512883486,1820.1700487116514,770.1700487116514,1812.2150974233027,762.2150974233027" close="False" data-weight="0.0" stroke-width="6" fill="none" stroke="#ff7f00" />
<path d="M1773.6521266074556,1443.9115818915293 C1766.216990428474,1451.3467180705109,1751.3467180705109,1466.216990428474,1743.9115818915293,1473.6521266074556" close="False" data-weight="0.0" stroke-width="6" fill="none" stroke="#ff7f00" />
<path d="M1769.0349025766973,1319.0349025766973 C1761.0799512883486,1311.0799512883486,1745.1700487116514,1295.1700487116514,1737.2150974233027,1287.2150974233027" close="False" data-weight="0.0" stroke-width="6" fill="none" stroke="#ff7f00" />
<path d="M1753.125,605.625 C1753.125,616.875,1753.125,639.375,1753.125,650.625" close="False" data-weight="0.0" stroke-width="6" fill="none" stroke="#ff7f00" />
<path d="M1753.125,530.625 C1753.125,541.875,1753.125,564.375,1753.125,575.625" close="False" data-weight="0.0" stroke-width="6" fill="none" stroke="#ff7f00" />
<path d="M1698.6521266074556,1518.9115818915293 C1691.216990428482,1526.346718070503,1676.3467180705345,1541.2169904284503,1668.9115818915607,1548.6521266074242" close="False" data-weight="0.0" stroke-width="6" fill="none" stroke="#ff7f00" />
<path d="M1694.0349025766973,1244.0349025766973 A54.3198051533949,54.3198051533949,0,0,0,1676.412289481504,1232.2598489621723 M1676.412289481504,1232.2598489621723 A54.3198051533941,54.3198051533941,0,0,0,1655.625,1228.125 M1655.625,1228.125" close="False" data-weight="1.0" stroke-width="6" fill="none" stroke="#ff7f00" />
<path d="M1700.625,478.125 C1689.375,478.125,1666.875,478.125,1655.625,478.125" close="False" data-weight="0.0" stroke-width="6" fill="none" stroke="#ff7f00" />
<path d="M1623.6521266074556,1593.9115818915293 C1616.2169904284663,1601.3467180705186,1601.3467180704874,1616.2169904284974,1593.9115818914981,1623.6521266074867" close="False" data-weight="0.0" stroke-width="6" fill="none" stroke="#ff7f00" />
<path d="M1625.625,1228.125 C1614.375,1228.125,1591.875,1228.125,1580.625,1228.125" close="False" data-weight="0.0" stroke-width="6" fill="none" stroke="#ff7f00" />
<path d="M1625.625,478.125 C1614.375,478.125,1591.875,478.125,1580.625,478.125" close="False" data-weight="0.0" stroke-width="6" fill="none" stroke="#ff7f00" />
<path d="M1528.125,1880.625 C1528.125,1891.875,1528.125,1914.375,1528.125,1925.625" close="False" data-weight="0.0" stroke-width="6" fill="none" stroke="#ff7f00" />
<path d="M1528.125,1805.625 C1528.125,1816.875,1528.125,1839.375,1528.125,1850.625" close="False" data-weight="0.0" stroke-width="6" fill="none" stroke="#ff7f00" />
<path d="M1528.125,1730.625 C1528.125,1741.875,1528.125,1764.375,1528.125,1775.625" close="False" data-weight="0.0" stroke-width="6" fill="none" stroke="#ff7f00" />
<path d="M1550.625,1228.125 C1539.375,1228.125,1516.875,1228.125,1505.625,1228.125" close="False" data-weight="0.0" stroke-width="6" fill="none" stroke="#ff7f00" />
<path d="M1550.625,478.125 C1539.375,478.125,1516.875,478.125,1505.625,478.125" close="False" data-weight="0.0" stroke-width="6" fill="none" stroke="#ff7f00" />
<path d="M1475.625,1978.125 A54.31980515339569,54.31980515339569,0,0,0,1454.837710518496,1982.2598489621723 M1454.837710518496,1982.2598489621723 A54.3198051533933,54.3198051533933,0,0,0,1437.2150974233027,1994.0349025766973 M1437.2150974233027,1994.0349025766973" close="False" data-weight="1.0" stroke-width="6" fill="none" stroke="#ff7f00" />
<path d="M1475.625,478.125 C1464.375,478.125,1441.875,478.125,1430.625,478.125" close="False" data-weight="0.0" stroke-width="6" fill="none" stroke="#ff7f00" />
<path d="M1394.0349025766973,2037.2150974233027 C1386.0799512883486,2045.1700487116514,1370.1700487116514,2061.0799512883486,1362.2150974233027,2069.0349025766973" close="False" data-weight="0.0" stroke-width="6" fill="none" stroke="#ff7f00" />
<path d="M1400.2665898254845,1232.125 C1389.1957949127423,1232.125,1367.0542050872577,1232.125,1355.9834101745155,1232.125" close="False" data-weight="0.0" stroke-width="6" fill="none" stroke="#ff7f00" />
<path d="M1374.125,605.9834101745155 A93.83039863674549,93.83039863674549,0,0,1,1371.8472461960373,626.5323014451633 M1371.8472461960373,626.5323014451633 A35.85816626156056,35.85816626156056,0,0,1,1362.2150974233027,644.0349025766973 M1362.2150974233027,644.0349025766973" close="False" data-weight="1.0" stroke-width="6" fill="none" stroke="#ff7f00" />
<path d="M1374.125,530.9834101745155 C1374.125,542.0542050872577,1374.125,564.1957949127423,1374.125,575.2665898254845" close="False" data-weight="0.0" stroke-width="6" fill="none" stroke="#ff7f00" />
<path d="M1325.2665898254845,1232.125 A93.83039863674549,93.83039863674549,0,0,0,1304.7176985548367,1234.4027538039627 M1304.7176985548367,1234.4027538039627 A35.85816626156064,35.85816626156064,0,0,0,1287.2150974233027,1244.0349025766973 M1287.2150974233027,1244.0349025766973" close="False" data-weight="1.0" stroke-width="6" fill="none" stroke="#ff7f00" />
<path d="M1244.0349025766973,2187.2150974233027 A54.319805153402136,54.319805153402136,0,0,0,1232.259848962172,2204.8377105184964 M1232.259848962172,2204.8377105184964 A54.31980515339069,54.31980515339069,0,0,0,1228.125,2225.625 M1228.125,2225.625" close="False" data-weight="1.0" stroke-width="6" fill="none" stroke="#ff7f00" />
<path d="M1244.0349025766973,1287.2150974233027 C1236.0799512883486,1295.1700487116514,1220.1700487116514,1311.0799512883486,1212.2150974233027,1319.0349025766973" close="False" data-weight="0.0" stroke-width="6" fill="none" stroke="#ff7f00" />
<path d="M1175.625,2278.125 C1164.375,2278.125,1141.875,2278.125,1130.625,2278.125" close="False" data-weight="0.0" stroke-width="6" fill="none" stroke="#ff7f00" />
<path d="M1169.0349025766973,1362.2150974233027 C1161.1116939026758,1370.1383060973242,1142.5633132374242,1383.0298325130834,1134.6401045634027,1390.9530411871049" close="False" data-weight="0.0" stroke-width="6" fill="none" stroke="#ff7f00" />
<path d="M1100.625,2278.125 C1089.375,2278.125,1066.875,2278.125,1055.625,2278.125" close="False" data-weight="0.0" stroke-width="6" fill="none" stroke="#ff7f00" />
<path d="M1078.125,1580.625 A54.31980515339569,54.31980515339569,0,0,1,1073.9901510378277,1601.412289481504 M1073.9901510378277,1601.412289481504 A54.319805153393375,54.319805153393375,0,0,1,1062.2150974233027,1619.0349025766973 M1062.2150974233027,1619.0349025766973" close="False" data-weight="1.0" stroke-width="6" fill="none" stroke="#ff7f00" />
<path d="M1078.125,1505.625 C1078.125,1516.875,1078.125,1539.375,1078.125,1550.625" close="False" data-weight="0.0" stroke-width="6" fill="none" stroke="#ff7f00" />
<path d="M1025.625,2278.125 C1014.375,2278.125,991.875,2278.125,980.625,2278.125" close="False" data-weight="0.0" stroke-width="6" fill="none" stroke="#ff7f00" />
<path d="M950.625,2278.125 C939.375,2278.125,916.875,2278.125,905.625,2278.125" close="False" data-weight="0.0" stroke-width="6" fill="none" stroke="#ff7f00" />
<path d="M950.625,1678.125 C939.375,1678.125,916.875,1678.125,905.625,1678.125" close="False" data-weight="0.0" stroke-width="6" fill="none" stroke="#ff7f00" />
<path d="M950.625,1378.125 C939.375,1378.125,916.875,1378.125,905.625,1378.125" close="False" data-weight="0.0" stroke-width="6" fill="none" stroke="#ff7f00" />
<path d="M944.0349025766973,1319.0349025766973 C936.0799512883486,1311.0799512883486,920.1700487116514,1295.1700487116514,912.2150974233027,1287.2150974233027" close="False" data-weight="0.0" stroke-width="6" fill="none" stroke="#ff7f00" />
<path d="M875.625,2278.125 C864.375,2278.125,841.875,2278.125,830.625,2278.125" close="False" data-weight="0.0" stroke-width="6" fill="none" stroke="#ff7f00" />
<path d="M875.625,1678.125 C864.375,1678.125,841.875,1678.125,830.625,1678.125" close="False" data-weight="0.0" stroke-width="6" fill="none" stroke="#ff7f00" />
<path d="M875.625,1378.125 C864.375,1378.125,841.875,1378.125,830.625,1378.125" close="False" data-weight="0.0" stroke-width="6" fill="none" stroke="#ff7f00" />
<path d="M853.125,1205.625 A54.31980515339285,54.31980515339285,0,0,0,857.2598489621724,1226.412289481504 M857.2598489621724,1226.412289481504 A54.31980515339619,54.31980515339619,0,0,0,869.0349025766973,1244.0349025766973 M869.0349025766973,1244.0349025766973" close="False" data-weight="1.0" stroke-width="6" fill="none" stroke="#ff7f00" />
<path d="M853.125,1130.625 C853.125,1141.875,853.125,1164.375,853.125,1175.625" close="False" data-weight="0.0" stroke-width="6" fill="none" stroke="#ff7f00" />
<path d="M800.625,2278.125 C789.375,2278.125,766.875,2278.125,755.625,2278.125" close="False" data-weight="0.0" stroke-width="6" fill="none" stroke="#ff7f00" />
<path d="M800.625,1678.125 C789.375,1678.125,766.875,1678.125,755.625,1678.125" close="False" data-weight="0.0" stroke-width="6" fill="none" stroke="#ff7f00" />
<path d="M800.625,1378.125 C789.375,1378.125,766.875,1378.125,755.625,1378.125" close="False" data-weight="0.0" stroke-width="6" fill="none" stroke="#ff7f00" />
<path d="M796.6098954365974,1015.953041187105 C788.7816612806718,1008.1248070311793,773.1251929688207,992.4683387193282,765.296958812895,984.6401045634026" close="False" data-weight="0.0" stroke-width="6" fill="none" stroke="#ff7f00" />
<path d="M725.625,2278.125 C714.375,2278.125,691.875,2278.125,680.625,2278.125" close="False" data-weight="0.0" stroke-width="6" fill="none" stroke="#ff7f00" />
<path d="M721.6098954365974,940.953041187105 A57.45452644918628,57.45452644918628,0,0,0,702.970305561001,928.4984654126548 M702.970305561001,928.4984654126548 A57.4545264491876,57.4545264491876,0,0,0,680.9834101745155,924.125 M680.9834101745155,924.125" close="False" data-weight="1.0" stroke-width="6" fill="none" stroke="#ff7f00" />
<path d="M650.625,2278.125 A54.3198051533991,54.3198051533991,0,0,0,629.8377105184959,2282.259848962172 M629.8377105184959,2282.259848962172 A54.319805153386056,54.319805153386056,0,0,0,612.2150974233027,2294.0349025766973 M612.2150974233027,2294.0349025766973" close="False" data-weight="1.0" stroke-width="6" fill="none" stroke="#ff7f00" />
<path d="M650.2665898254845,924.125 C639.1957949127423,924.125,617.0542050872577,924.125,605.9834101745155,924.125" close="False" data-weight="0.0" stroke-width="6" fill="none" stroke="#ff7f00" />
<path d="M575.2665898254845,924.125 C564.1957949127423,924.125,542.0542050872577,924.125,530.9834101745155,924.125" close="False" data-weight="0.0" stroke-width="6" fill="none" stroke="#ff7f00" />
<path d="M553.125,725.625 A54.31980515339484,54.31980515339484,0,0,0,548.9901510378278,704.8377105184961 M548.9901510378278,704.8377105184961 A54.3198051533943,54.3198051533943,0,0,0,537.2150974233027,687.2150974233027 M537.2150974233027,687.2150974233027" close="False" data-weight="1.0" stroke-width="6" fill="none" stroke="#ff7f00" />
<path d="M490.953041187105,834.6401045634026 A57.454526449186126,57.454526449186126,0,0,0,478.4984654126548,853.2796944389988 M478.4984654126548,853.2796944389988 A57.45452644918771,57.45452644918771,0,0,0,474.125,875.2665898254845 M474.125,875.2665898254845" close="False" data-weight="1.0" stroke-width="6" fill="none" stroke="#ff7f00" />
<path d="M415.95304118711243,984.6401045633952 C408.0298325130892,992.5633132374185,395.1383060973259,1011.111693902674,387.21509742330267,1019.0349025766973" close="False" data-weight="0.0" stroke-width="6" fill="none" stroke="#ff7f00" />
<path d="M425.625,628.125 A54.319805153394555,54.319805153394555,0,0,0,404.837710518496,632.2598489621722 M404.837710518496,632.2598489621722 A54.31980515339474,54.31980515339474,0,0,0,387.21509742330267,644.0349025766973 M387.21509742330267,644.0349025766973" close="False" data-weight="1.0" stroke-width="6" fill="none" stroke="#ff7f00" />
<path d="M344.03490257669733,1062.2150974233027 C336.0799512883487,1070.1700487116514,320.1700487116513,1086.0799512883486,312.21509742330267,1094.0349025766973" close="False" data-weight="0.0" stroke-width="6" fill="none" stroke="#ff7f00" />
<path d="M344.03490257669733,687.2150974233027 C336.0799512883487,695.1700487116514,320.1700487116513,711.0799512883486,312.21509742330267,719.0349025766973" close="False" data-weight="0.0" stroke-width="6" fill="none" stroke="#ff7f00" />
<path d="M269.03490257669733,1137.2150974233027 C261.0799512883487,1145.1700487116514,245.1700487116513,1161.0799512883486,237.21509742330267,1169.0349025766973" close="False" data-weight="0.0" stroke-width="6" fill="none" stroke="#ff7f00" />
<path d="M194.0349025766973,1212.2150974233027 C186.07995128834867,1220.1700487116514,170.1700487116513,1236.0799512883486,162.21509742330267,1244.0349025766973" close="False" data-weight="0.0" stroke-width="6" fill="none" stroke="#ff7f00" />
<path d="M2432.125,1325.2665898254845 L2432.125,1355.9834101745155" close="False" data-weight="1.75" stroke-width="6" fill="none" stroke="#ff7f00" />
<path d="M2432.125,1250.2665898254845 L2432.125,1280.9834101745155" close="False" data-weight="1.75" stroke-width="6" fill="none" stroke="#ff7f00" />
<path d="M2432.125,1175.2665898254845 L2432.125,1205.9834101745155" close="False" data-weight="1.75" stroke-width="6" fill="none" stroke="#ff7f00" />
<path d="M2432.125,1100.2665898254845 L2432.125,1130.9834101745155" close="False" data-weight="1.75" stroke-width="6" fill="none" stroke="#ff7f00" />
<path d="M2432.125,1025.2665898254845 L2432.125,1055.9834101745155" close="False" data-weight="1.75" stroke-width="6" fill="none" stroke="#ff7f00" />
<path d="M2353.125,1625.625 L2353.125,1655.625" close="False" data-weight="1.75" stroke-width="6" fill="none" stroke="#ff7f00" />
<path d="M2353.125,1550.625 L2353.125,1580.625" close="False" data-weight="1.75" stroke-width="6" fill="none" stroke="#ff7f00" />
<path d="M2353.125,1475.625 L2353.125,1505.625" close="False" data-weight="1.75" stroke-width="6" fill="none" stroke="#ff7f00" />
<path d="M2371.6098954365975,1440.2969588128951 L2415.296958812895,1396.6098954365973" close="False" data-weight="2.060660171779821" stroke-width="6" fill="none" stroke="#ff7f00" />
<path d="M2371.6098954365975,940.953041187105 L2415.296958812895,984.6401045634026" close="False" data-weight="2.060660171779821" stroke-width="6" fill="none" stroke="#ff7f00" />
<path d="M2294.0349025766973,1737.2150974233027 L2337.2150974233027,1694.0349025766973" close="False" data-weight="2.060660171779821" stroke-width="6" fill="none" stroke="#ff7f00" />
<path d="M2294.0349025766973,1394.0349025766973 L2337.2150974233027,1437.2150974233027" close="False" data-weight="2.060660171779821" stroke-width="6" fill="none" stroke="#ff7f00" />
<path d="M2300.2665898254845,924.125 L2330.9834101745155,924.125" close="False" data-weight="1.75" stroke-width="6" fill="none" stroke="#ff7f00" />
<path d="M2278.125,800.625 L2278.125,830.625" close="False" data-weight="1.75" stroke-width="6" fill="none" stroke="#ff7f00" />
<path d="M2278.125,725.625 L2278.125,755.625" close="False" data-weight="1.75" stroke-width="6" fill="none" stroke="#ff7f00" />
<path d="M2219.0349025766973,1319.0349025766973 L2262.2150974233027,1362.2150974233027" close="False" data-weight="2.060660171779821" stroke-width="6" fill="none" stroke="#ff7f00" />
<path d="M2225.2665898254845,924.125 L2255.9834101745155,924.125" close="False" data-weight="1.75" stroke-width="6" fill="none" stroke="#ff7f00" />
<path d="M2219.0349025766973,912.2150974233027 L2262.2150974233027,869.0349025766973" close="False" data-weight="2.060660171779821" stroke-width="6" fill="none" stroke="#ff7f00" />
<path d="M2150.625,1303.125 L2180.625,1303.125" close="False" data-weight="1.75" stroke-width="6" fill="none" stroke="#ff7f00" />
<path d="M2150.625,928.125 L2180.625,928.125" close="False" data-weight="1.75" stroke-width="6" fill="none" stroke="#ff7f00" />
<path d="M2075.625,1303.125 L2105.625,1303.125" close="False" data-weight="1.75" stroke-width="6" fill="none" stroke="#ff7f00" />
<path d="M2075.625,928.125 L2105.625,928.125" close="False" data-weight="1.75" stroke-width="6" fill="none" stroke="#ff7f00" />
<path d="M2000.625,1303.125 L2030.625,1303.125" close="False" data-weight="1.75" stroke-width="6" fill="none" stroke="#ff7f00" />
<path d="M2000.625,928.125 L2030.625,928.125" close="False" data-weight="1.75" stroke-width="6" fill="none" stroke="#ff7f00" />
<path d="M1925.625,1303.125 L1955.625,1303.125" close="False" data-weight="1.75" stroke-width="6" fill="none" stroke="#ff7f00" />
<path d="M1919.0349025766973,869.0349025766973 L1962.2150974233027,912.2150974233027" close="False" data-weight="2.060660171779821" stroke-width="6" fill="none" stroke="#ff7f00" />
<path d="M1844.0349025766973,1362.2150974233027 L1887.2150974233027,1319.0349025766973" close="False" data-weight="2.060660171779821" stroke-width="6" fill="none" stroke="#ff7f00" />
<path d="M1844.0349025766973,794.0349025766973 L1887.2150974233027,837.2150974233027" close="False" data-weight="2.060660171779821" stroke-width="6" fill="none" stroke="#ff7f00" />
<path d="M1773.6521266074242,1443.9115818915607 L1818.9115818915607,1398.6521266074242" close="False" data-weight="2.060660171779821" stroke-width="6" fill="none" stroke="#ff7f00" />
<path d="M1769.0349025766973,1319.0349025766973 L1812.2150974233027,1362.2150974233027" close="False" data-weight="2.060660171779821" stroke-width="6" fill="none" stroke="#ff7f00" />
<path d="M1769.0349025766973,719.0349025766973 L1812.2150974233027,762.2150974233027" close="False" data-weight="2.060660171779821" stroke-width="6" fill="none" stroke="#ff7f00" />
<path d="M1753.125,650.625 L1753.125,680.625" close="False" data-weight="1.75" stroke-width="6" fill="none" stroke="#ff7f00" />
<path d="M1753.125,575.625 L1753.125,605.625" close="False" data-weight="1.75" stroke-width="6" fill="none" stroke="#ff7f00" />
<path d="M1753.125,500.625 L1753.125,530.625" close="False" data-weight="1.75" stroke-width="6" fill="none" stroke="#ff7f00" />
<path d="M1698.6521266074556,1518.9115818915293 L1743.9115818915293,1473.6521266074556" close="False" data-weight="2.060660171779821" stroke-width="6" fill="none" stroke="#ff7f00" />
<path d="M1694.0349025766973,1244.0349025766973 L1737.2150974233027,1287.2150974233027" close="False" data-weight="2.060660171779821" stroke-width="6" fill="none" stroke="#ff7f00" />
<path d="M1700.625,478.125 L1730.625,478.125" close="False" data-weight="1.75" stroke-width="6" fill="none" stroke="#ff7f00" />
<path d="M1623.6521266074867,1593.9115818914981 L1668.9115818915293,1548.6521266074556" close="False" data-weight="2.060660171779821" stroke-width="6" fill="none" stroke="#ff7f00" />
<path d="M1625.625,1228.125 L1655.625,1228.125" close="False" data-weight="1.75" stroke-width="6" fill="none" stroke="#ff7f00" />
<path d="M1625.625,478.125 L1655.625,478.125" close="False" data-weight="1.75" stroke-width="6" fill="none" stroke="#ff7f00" />
<path d="M1528.125,1925.625 L1528.125,1955.625" close="False" data-weight="1.75" stroke-width="6" fill="none" stroke="#ff7f00" />
<path d="M1528.125,1850.625 L1528.125,1880.625" close="False" data-weight="1.75" stroke-width="6" fill="none" stroke="#ff7f00" />
<path d="M1528.125,1775.625 L1528.125,1805.625" close="False" data-weight="1.75" stroke-width="6" fill="none" stroke="#ff7f00" />
<path d="M1528.125,1700.625 L1528.125,1730.625" close="False" data-weight="1.75" stroke-width="6" fill="none" stroke="#ff7f00" />
<path d="M1548.6521266074242,1668.9115818915607 L1593.9115818915293,1623.6521266074556" close="False" data-weight="2.060660171779821" stroke-width="6" fill="none" stroke="#ff7f00" />
<path d="M1550.625,1228.125 L1580.625,1228.125" close="False" data-weight="1.75" stroke-width="6" fill="none" stroke="#ff7f00" />
<path d="M1550.625,478.125 L1580.625,478.125" close="False" data-weight="1.75" stroke-width="6" fill="none" stroke="#ff7f00" />
<path d="M1475.625,1978.125 L1505.625,1978.125" close="False" data-weight="1.75" stroke-width="6" fill="none" stroke="#ff7f00" />
<path d="M1475.625,1228.125 L1505.625,1228.125" close="False" data-weight="1.75" stroke-width="6" fill="none" stroke="#ff7f00" />
<path d="M1475.625,478.125 L1505.625,478.125" close="False" data-weight="1.75" stroke-width="6" fill="none" stroke="#ff7f00" />
<path d="M1394.0349025766973,2037.2150974233027 L1437.2150974233027,1994.0349025766973" close="False" data-weight="2.060660171779821" stroke-width="6" fill="none" stroke="#ff7f00" />
<path d="M1400.2665898254845,1232.125 L1430.9834101745155,1232.125" close="False" data-weight="1.75" stroke-width="6" fill="none" stroke="#ff7f00" />
<path d="M1374.125,575.2665898254845 L1374.125,605.9834101745155" close="False" data-weight="1.75" stroke-width="6" fill="none" stroke="#ff7f00" />
<path d="M1374.125,500.2665898254845 L1374.125,530.9834101745155" close="False" data-weight="1.75" stroke-width="6" fill="none" stroke="#ff7f00" />
<path d="M1400.625,478.125 L1430.625,478.125" close="False" data-weight="1.75" stroke-width="6" fill="none" stroke="#ff7f00" />
<path d="M1319.0349025766973,2112.2150974233027 L1362.2150974233027,2069.0349025766973" close="False" data-weight="2.060660171779821" stroke-width="6" fill="none" stroke="#ff7f00" />
<path d="M1325.2665898254845,1232.125 L1355.9834101745155,1232.125" close="False" data-weight="1.75" stroke-width="6" fill="none" stroke="#ff7f00" />
<path d="M1319.0349025766973,687.2150974233027 L1362.2150974233027,644.0349025766973" close="False" data-weight="2.060660171779821" stroke-width="6" fill="none" stroke="#ff7f00" />
<path d="M1228.125,2225.625 L1228.125,2255.625" close="False" data-weight="1.75" stroke-width="6" fill="none" stroke="#ff7f00" />
<path d="M1244.0349025766973,2187.2150974233027 L1287.2150974233027,2144.0349025766973" close="False" data-weight="2.060660171779821" stroke-width="6" fill="none" stroke="#ff7f00" />
<path d="M1244.0349025766973,1287.2150974233027 L1287.2150974233027,1244.0349025766973" close="False" data-weight="2.060660171779821" stroke-width="6" fill="none" stroke="#ff7f00" />
<path d="M1175.625,2278.125 L1205.625,2278.125" close="False" data-weight="1.75" stroke-width="6" fill="none" stroke="#ff7f00" />
<path d="M1169.0349025766973,1362.2150974233027 L1212.2150974233027,1319.0349025766973" close="False" data-weight="2.060660171779821" stroke-width="6" fill="none" stroke="#ff7f00" />
<path d="M1100.625,2278.125 L1130.625,2278.125" close="False" data-weight="1.75" stroke-width="6" fill="none" stroke="#ff7f00" />
<path d="M1078.125,1550.625 L1078.125,1580.625" close="False" data-weight="1.75" stroke-width="6" fill="none" stroke="#ff7f00" />
<path d="M1078.125,1475.625 L1078.125,1505.625" close="False" data-weight="1.75" stroke-width="6" fill="none" stroke="#ff7f00" />
<path d="M1090.9530411871049,1434.6401045634027 L1134.6401045634027,1390.9530411871049" close="False" data-weight="2.060660171779821" stroke-width="6" fill="none" stroke="#ff7f00" />
<path d="M1025.625,2278.125 L1055.625,2278.125" close="False" data-weight="1.75" stroke-width="6" fill="none" stroke="#ff7f00" />
<path d="M1019.0349025766973,1662.2150974233027 L1062.2150974233027,1619.0349025766973" close="False" data-weight="2.060660171779821" stroke-width="6" fill="none" stroke="#ff7f00" />
<path d="M1019.0349025766973,1394.0349025766973 L1062.2150974233027,1437.2150974233027" close="False" data-weight="2.060660171779821" stroke-width="6" fill="none" stroke="#ff7f00" />
<path d="M950.625,2278.125 L980.625,2278.125" close="False" data-weight="1.75" stroke-width="6" fill="none" stroke="#ff7f00" />
<path d="M950.625,1678.125 L980.625,1678.125" close="False" data-weight="1.75" stroke-width="6" fill="none" stroke="#ff7f00" />
<path d="M950.625,1378.125 L980.625,1378.125" close="False" data-weight="1.75" stroke-width="6" fill="none" stroke="#ff7f00" />
<path d="M944.0349025766973,1319.0349025766973 L987.2150974233027,1362.2150974233027" close="False" data-weight="2.060660171779821" stroke-width="6" fill="none" stroke="#ff7f00" />
<path d="M875.625,2278.125 L905.625,2278.125" close="False" data-weight="1.75" stroke-width="6" fill="none" stroke="#ff7f00" />
<path d="M875.625,1678.125 L905.625,1678.125" close="False" data-weight="1.75" stroke-width="6" fill="none" stroke="#ff7f00" />
<path d="M875.625,1378.125 L905.625,1378.125" close="False" data-weight="1.75" stroke-width="6" fill="none" stroke="#ff7f00" />
<path d="M869.0349025766973,1244.0349025766973 L912.2150974233027,1287.2150974233027" close="False" data-weight="2.060660171779821" stroke-width="6" fill="none" stroke="#ff7f00" />
<path d="M853.125,1175.625 L853.125,1205.625" close="False" data-weight="1.75" stroke-width="6" fill="none" stroke="#ff7f00" />
<path d="M853.125,1100.625 L853.125,1130.625" close="False" data-weight="1.75" stroke-width="6" fill="none" stroke="#ff7f00" />
<path d="M800.625,2278.125 L830.625,2278.125" close="False" data-weight="1.75" stroke-width="6" fill="none" stroke="#ff7f00" />
<path d="M800.625,1678.125 L830.625,1678.125" close="False" data-weight="1.75" stroke-width="6" fill="none" stroke="#ff7f00" />
<path d="M800.625,1378.125 L830.625,1378.125" close="False" data-weight="1.75" stroke-width="6" fill="none" stroke="#ff7f00" />
<path d="M796.6098954365974,1015.953041187105 L840.296958812895,1059.6401045634027" close="False" data-weight="2.060660171779821" stroke-width="6" fill="none" stroke="#ff7f00" />
<path d="M725.625,2278.125 L755.625,2278.125" close="False" data-weight="1.75" stroke-width="6" fill="none" stroke="#ff7f00" />
<path d="M725.625,1678.125 L755.625,1678.125" close="False" data-weight="1.75" stroke-width="6" fill="none" stroke="#ff7f00" />
<path d="M725.625,1378.125 L755.625,1378.125" close="False" data-weight="1.75" stroke-width="6" fill="none" stroke="#ff7f00" />
<path d="M721.6098954365974,940.953041187105 L765.296958812895,984.6401045634026" close="False" data-weight="2.060660171779821" stroke-width="6" fill="none" stroke="#ff7f00" />
<path d="M650.625,2278.125 L680.625,2278.125" close="False" data-weight="1.75" stroke-width="6" fill="none" stroke="#ff7f00" />
<path d="M650.2665898254845,924.125 L680.9834101745155,924.125" close="False" data-weight="1.75" stroke-width="6" fill="none" stroke="#ff7f00" />
<path d="M569.0349025766973,2337.2150974233027 L612.2150974233027,2294.0349025766973" close="False" data-weight="2.060660171779821" stroke-width="6" fill="none" stroke="#ff7f00" />
<path d="M575.2665898254845,924.125 L605.9834101745155,924.125" close="False" data-weight="1.75" stroke-width="6" fill="none" stroke="#ff7f00" />
<path d="M553.125,725.625 L553.125,755.625" close="False" data-weight="1.75" stroke-width="6" fill="none" stroke="#ff7f00" />
<path d="M500.2665898254845,924.125 L530.9834101745155,924.125" close="False" data-weight="1.75" stroke-width="6" fill="none" stroke="#ff7f00" />
<path d="M474.125,875.2665898254845 L474.125,905.9834101745155" close="False" data-weight="1.75" stroke-width="6" fill="none" stroke="#ff7f00" />
<path d="M490.95304118710123,834.6401045634063 L534.6401045634026,790.953041187105" close="False" data-weight="2.060660171779821" stroke-width="6" fill="none" stroke="#ff7f00" />
<path d="M494.03490257669733,644.0349025766973 L537.2150974233027,687.2150974233027" close="False" data-weight="2.060660171779821" stroke-width="6" fill="none" stroke="#ff7f00" />
<path d="M415.9530411871124,984.6401045633952 L459.64010456339514,940.9530411871124" close="False" data-weight="2.060660171779821" stroke-width="6" fill="none" stroke="#ff7f00" />
<path d="M425.625,628.125 L455.625,628.125" close="False" data-weight="1.75" stroke-width="6" fill="none" stroke="#ff7f00" />
<path d="M344.03490257669733,1062.2150974233027 L387.21509742330267,1019.0349025766973" close="False" data-weight="2.060660171779821" stroke-width="6" fill="none" stroke="#ff7f00" />
<path d="M344.03490257669733,687.2150974233027 L387.21509742330267,644.0349025766973" close="False" data-weight="2.060660171779821" stroke-width="6" fill="none" stroke="#ff7f00" />
<path d="M269.03490257669733,1137.2150974233027 L312.21509742330267,1094.0349025766973" close="False" data-weight="2.060660171779821" stroke-width="6" fill="none" stroke="#ff7f00" />
<path d="M269.03490257669733,762.2150974233027 L312.21509742330267,719.0349025766973" close="False" data-weight="2.060660171779821" stroke-width="6" fill="none" stroke="#ff7f00" />
<path d="M194.03490257669733,1212.2150974233027 L237.2150974233027,1169.0349025766973" close="False" data-weight="2.060660171779821" stroke-width="6" fill="none" stroke="#ff7f00" />
<path d="M119.03490257669732,1287.2150974233027 L162.2150974233027,1244.0349025766973" close="False" data-weight="2.060660171779821" stroke-width="6" fill="none" stroke="#ff7f00" />
<path d="M1769.0349025766973,1437.2150974233027 C1761.0799512883486,1445.1700487116514,1745.1700487116514,1461.0799512883486,1737.2150974233027,1469.0349025766973" close="False" data-weight="0.0" stroke-width="6" fill="none" stroke="#4daf4a" />
<path d="M1694.0349025766973,1512.2150974233027 C1686.0799512883486,1520.1700487116514,1670.1700487116514,1536.0799512883486,1662.2150974233027,1544.0349025766973" close="False" data-weight="0.0" stroke-width="6" fill="none" stroke="#4daf4a" />
<path d="M1619.0349025766973,1587.2150974233027 C1611.0799512883486,1595.1700487116514,1595.1700487116514,1611.0799512883486,1587.2150974233027,1619.0349025766973" close="False" data-weight="0.0" stroke-width="6" fill="none" stroke="#4daf4a" />
<path d="M1465.9530411871049,1734.6401045634027 C1458.0298325130834,1742.5633132374242,1445.1383060973242,1761.1116939026758,1437.2150974233027,1769.0349025766973" close="False" data-weight="0.0" stroke-width="6" fill="none" stroke="#4daf4a" />
<path d="M1475.2665898254845,1682.125 C1464.1957949127423,1682.125,1442.0542050872577,1682.125,1430.9834101745155,1682.125" close="False" data-weight="0.0" stroke-width="6" fill="none" stroke="#4daf4a" />
<path d="M1394.0349025766973,1812.2150974233027 C1386.0799512883486,1820.1700487116514,1370.1700487116514,1836.0799512883486,1362.2150974233027,1844.0349025766973" close="False" data-weight="0.0" stroke-width="6" fill="none" stroke="#4daf4a" />
<path d="M1400.2665898254845,1682.125 C1389.0614806611713,1682.125,1366.8301091643132,1678.125,1355.625,1678.125" close="False" data-weight="0.0" stroke-width="6" fill="none" stroke="#4daf4a" />
<path d="M1319.0349025766973,1887.2150974233027 C1311.0799512883486,1895.1700487116514,1295.1700487116514,1911.0799512883486,1287.2150974233027,1919.0349025766973" close="False" data-weight="0.0" stroke-width="6" fill="none" stroke="#4daf4a" />
<path d="M1325.625,1678.125 A54.31980515339569,54.31980515339569,0,0,1,1304.837710518496,1673.9901510378277 M1304.837710518496,1673.9901510378277 A54.3198051533933,54.3198051533933,0,0,1,1287.2150974233027,1662.2150974233027 M1287.2150974233027,1662.2150974233027" close="False" data-weight="1.0" stroke-width="6" fill="none" stroke="#4daf4a" />
<path d="M1303.125,905.625 A54.31980515339637,54.31980515339637,0,0,1,1298.990151037828,926.412289481504 M1298.990151037828,926.412289481504 A54.31980515339273,54.31980515339273,0,0,1,1287.2150974233027,944.0349025766973 M1287.2150974233027,944.0349025766973" close="False" data-weight="1.0" stroke-width="6" fill="none" stroke="#4daf4a" />
<path d="M1303.125,830.625 C1303.125,841.875,1303.125,864.375,1303.125,875.625" close="False" data-weight="0.0" stroke-width="6" fill="none" stroke="#4daf4a" />
<path d="M1303.125,755.625 C1303.125,766.875,1303.125,789.375,1303.125,800.625" close="False" data-weight="0.0" stroke-width="6" fill="none" stroke="#4daf4a" />
<path d="M1228.125,2030.625 C1228.125,2041.875,1228.125,2064.375,1228.125,2075.625" close="False" data-weight="0.0" stroke-width="6" fill="none" stroke="#4daf4a" />
<path d="M1244.0349025766973,1962.2150974233027 A54.3198051533949,54.3198051533949,0,0,0,1232.2598489621723,1979.837710518496 M1232.2598489621723,1979.837710518496 A54.3198051533941,54.3198051533941,0,0,0,1228.125,2000.625 M1228.125,2000.625" close="False" data-weight="1.0" stroke-width="6" fill="none" stroke="#4daf4a" />
<path d="M1244.0349025766973,1619.0349025766973 C1236.0799512883486,1611.0799512883486,1220.1700487116514,1595.1700487116514,1212.2150974233027,1587.2150974233027" close="False" data-weight="0.0" stroke-width="6" fill="none" stroke="#4daf4a" />
<path d="M1244.0349025766973,987.2150974233027 C1236.0799512883486,995.1700487116514,1220.1700487116514,1011.0799512883486,1212.2150974233027,1019.0349025766973" close="False" data-weight="0.0" stroke-width="6" fill="none" stroke="#4daf4a" />
<path d="M1169.0349025766973,1544.0349025766973 C1161.0799512883486,1536.0799512883486,1145.1700487116514,1520.1700487116514,1137.2150974233027,1512.2150974233027" close="False" data-weight="0.0" stroke-width="6" fill="none" stroke="#4daf4a" />
<path d="M1153.125,1355.625 A101.06381732036084,101.06381732036084,0,0,1,1150.6716533480728,1377.7580125810578 M1150.6716533480728,1377.7580125810578 A38.62248500649924,38.62248500649924,0,0,1,1140.2969588128951,1396.6098954365973 M1140.2969588128951,1396.6098954365973" close="False" data-weight="1.0" stroke-width="6" fill="none" stroke="#4daf4a" />
<path d="M1153.125,1280.625 C1153.125,1291.875,1153.125,1314.375,1153.125,1325.625" close="False" data-weight="0.0" stroke-width="6" fill="none" stroke="#4daf4a" />
<path d="M1153.125,1130.625 C1153.125,1141.875,1153.125,1164.375,1153.125,1175.625" close="False" data-weight="0.0" stroke-width="6" fill="none" stroke="#4daf4a" />
<path d="M1094.0349025766973,1137.2150974233027 A54.3198051533949,54.3198051533949,0,0,1,1076.412289481504,1148.9901510378277 M1076.412289481504,1148.9901510378277 A54.3198051533941,54.3198051533941,0,0,1,1055.625,1153.125 M1055.625,1153.125" close="False" data-weight="1.0" stroke-width="6" fill="none" stroke="#4daf4a" />
<path d="M1025.625,1153.125 C1014.375,1153.125,991.875,1153.125,980.625,1153.125" close="False" data-weight="0.0" stroke-width="6" fill="none" stroke="#4daf4a" />
<path d="M950.625,1153.125 C939.375,1153.125,916.875,1153.125,905.625,1153.125" close="False" data-weight="0.0" stroke-width="6" fill="none" stroke="#4daf4a" />
<path d="M875.625,1153.125 C864.375,1153.125,841.875,1153.125,830.625,1153.125" close="False" data-weight="0.0" stroke-width="6" fill="none" stroke="#4daf4a" />
<path d="M800.625,1153.125 C789.375,1153.125,766.875,1153.125,755.625,1153.125" close="False" data-weight="0.0" stroke-width="6" fill="none" stroke="#4daf4a" />
<path d="M725.625,1153.125 C714.375,1153.125,691.875,1153.125,680.625,1153.125" close="False" data-weight="0.0" stroke-width="6" fill="none" stroke="#4daf4a" />
<path d="M650.625,1153.125 C639.375,1153.125,616.875,1153.125,605.625,1153.125" close="False" data-weight="0.0" stroke-width="6" fill="none" stroke="#4daf4a" />
<path d="M575.625,1153.125 C564.375,1153.125,541.875,1153.125,530.625,1153.125" close="False" data-weight="0.0" stroke-width="6" fill="none" stroke="#4daf4a" />
<path d="M500.625,1153.125 A54.3198051533966,54.3198051533966,0,0,1,479.8377105184959,1148.990151037828 M479.8377105184959,1148.990151037828 A54.31980515339265,54.31980515339265,0,0,1,462.21509742330267,1137.2150974233027 M462.21509742330267,1137.2150974233027" close="False" data-weight="1.0" stroke-width="6" fill="none" stroke="#4daf4a" />
<path d="M403.125,980.625 C403.125,991.8301091643132,399.125,1014.0614806611713,399.125,1025.2665898254845" close="False" data-weight="0.0" stroke-width="6" fill="none" stroke="#4daf4a" />
<path d="M403.125,905.625 C403.125,916.875,403.125,939.375,403.125,950.625" close="False" data-weight="0.0" stroke-width="6" fill="none" stroke="#4daf4a" />
<path d="M403.125,830.625 C403.125,841.875,403.125,864.375,403.125,875.625" close="False" data-weight="0.0" stroke-width="6" fill="none" stroke="#4daf4a" />
<path d="M403.125,755.625 C403.125,766.875,403.125,789.375,403.125,800.625" close="False" data-weight="0.0" stroke-width="6" fill="none" stroke="#4daf4a" />
<path d="M419.03490257669733,687.2150974233027 A54.3198051533949,54.3198051533949,0,0,0,407.2598489621722,704.8377105184961 M407.2598489621722,704.8377105184961 A54.31980515339427,54.31980515339427,0,0,0,403.125,725.625 M403.125,725.625" close="False" data-weight="1.0" stroke-width="6" fill="none" stroke="#4daf4a" />
<path d="M328.125,1505.625 C328.125,1516.875,328.125,1539.375,328.125,1550.625" close="False" data-weight="0.0" stroke-width="6" fill="none" stroke="#4daf4a" />
<path d="M328.125,1430.625 C328.125,1441.875,328.125,1464.375,328.125,1475.625" close="False" data-weight="0.0" stroke-width="6" fill="none" stroke="#4daf4a" />
<path d="M328.125,1355.625 C328.125,1366.875,328.125,1389.375,328.125,1400.625" close="False" data-weight="0.0" stroke-width="6" fill="none" stroke="#4daf4a" />
<path d="M328.125,1280.625 C328.125,1291.875,328.125,1314.375,328.125,1325.625" close="False" data-weight="0.0" stroke-width="6" fill="none" stroke="#4daf4a" />
<path d="M328.125,1205.625 C328.125,1216.875,328.125,1239.375,328.125,1250.625" close="False" data-weight="0.0" stroke-width="6" fill="none" stroke="#4daf4a" />
<path d="M344.03490257669733,1137.2150974233027 A54.31980515339522,54.31980515339522,0,0,0,332.25984896217227,1154.837710518496 M332.25984896217227,1154.837710518496 A54.319805153393986,54.319805153393986,0,0,0,328.125,1175.625 M328.125,1175.625" close="False" data-weight="1.0" stroke-width="6" fill="none" stroke="#4daf4a" />
<path d="M1769.0349025766973,1437.2150974233027 L1812.2150974233027,1394.0349025766973" close="False" data-weight="2.060660171779821" stroke-width="6" fill="none" stroke="#4daf4a" />
<path d="M1694.0349025766973,1512.2150974233027 L1737.2150974233027,1469.0349025766973" close="False" data-weight="2.060660171779821" stroke-width="6" fill="none" stroke="#4daf4a" />
<path d="M1619.0349025766973,1587.2150974233027 L1662.2150974233027,1544.0349025766973" close="False" data-weight="2.060660171779821" stroke-width="6" fill="none" stroke="#4daf4a" />
<path d="M1544.0349025766973,1662.2150974233027 L1587.2150974233027,1619.0349025766973" close="False" data-weight="2.060660171779821" stroke-width="6" fill="none" stroke="#4daf4a" />
<path d="M1465.9530411871049,1734.6401045634027 L1509.6401045634027,1690.9530411871049" close="False" data-weight="2.060660171779821" stroke-width="6" fill="none" stroke="#4daf4a" />
<path d="M1475.2665898254845,1682.125 L1505.9834101745155,1682.125" close="False" data-weight="1.75" stroke-width="6" fill="none" stroke="#4daf4a" />
<path d="M1394.0349025766973,1812.2150974233027 L1437.2150974233027,1769.0349025766973" close="False" data-weight="2.060660171779821" stroke-width="6" fill="none" stroke="#4daf4a" />
<path d="M1400.2665898254845,1682.125 L1430.9834101745155,1682.125" close="False" data-weight="1.75" stroke-width="6" fill="none" stroke="#4daf4a" />
<path d="M1319.0349025766973,1887.2150974233027 L1362.2150974233027,1844.0349025766973" close="False" data-weight="2.060660171779821" stroke-width="6" fill="none" stroke="#4daf4a" />
<path d="M1325.625,1678.125 L1355.625,1678.125" close="False" data-weight="1.75" stroke-width="6" fill="none" stroke="#4daf4a" />
<path d="M1303.125,875.625 L1303.125,905.625" close="False" data-weight="1.75" stroke-width="6" fill="none" stroke="#4daf4a" />
<path d="M1303.125,800.625 L1303.125,830.625" close="False" data-weight="1.75" stroke-width="6" fill="none" stroke="#4daf4a" />
<path d="M1303.125,725.625 L1303.125,755.625" close="False" data-weight="1.75" stroke-width="6" fill="none" stroke="#4daf4a" />
<path d="M1228.125,2075.625 L1228.125,2105.625" close="False" data-weight="1.75" stroke-width="6" fill="none" stroke="#4daf4a" />
<path d="M1228.125,2000.625 L1228.125,2030.625" close="False" data-weight="1.75" stroke-width="6" fill="none" stroke="#4daf4a" />
<path d="M1244.0349025766973,1962.2150974233027 L1287.2150974233027,1919.0349025766973" close="False" data-weight="2.060660171779821" stroke-width="6" fill="none" stroke="#4daf4a" />
<path d="M1244.0349025766973,1619.0349025766973 L1287.2150974233027,1662.2150974233027" close="False" data-weight="2.060660171779821" stroke-width="6" fill="none" stroke="#4daf4a" />
<path d="M1244.0349025766973,987.2150974233027 L1287.2150974233027,944.0349025766973" close="False" data-weight="2.060660171779821" stroke-width="6" fill="none" stroke="#4daf4a" />
<path d="M1169.0349025766973,1544.0349025766973 L1212.2150974233027,1587.2150974233027" close="False" data-weight="2.060660171779821" stroke-width="6" fill="none" stroke="#4daf4a" />
<path d="M1153.125,1325.625 L1153.125,1355.625" close="False" data-weight="1.75" stroke-width="6" fill="none" stroke="#4daf4a" />
<path d="M1153.125,1250.625 L1153.125,1280.625" close="False" data-weight="1.75" stroke-width="6" fill="none" stroke="#4daf4a" />
<path d="M1153.125,1175.625 L1153.125,1205.625" close="False" data-weight="1.75" stroke-width="6" fill="none" stroke="#4daf4a" />
<path d="M1153.125,1100.625 L1153.125,1130.625" close="False" data-weight="1.75" stroke-width="6" fill="none" stroke="#4daf4a" />
<path d="M1169.0349025766973,1062.2150974233027 L1212.2150974233027,1019.0349025766973" close="False" data-weight="2.060660171779821" stroke-width="6" fill="none" stroke="#4daf4a" />
<path d="M1094.0349025766973,1469.0349025766973 L1137.2150974233027,1512.2150974233027" close="False" data-weight="2.060660171779821" stroke-width="6" fill="none" stroke="#4daf4a" />
<path d="M1096.6098954365825,1440.29695881291 L1140.2969588128951,1396.6098954365973" close="False" data-weight="2.060660171779821" stroke-width="6" fill="none" stroke="#4daf4a" />
<path d="M1094.0349025766973,1137.2150974233027 L1137.2150974233027,1094.0349025766973" close="False" data-weight="2.060660171779821" stroke-width="6" fill="none" stroke="#4daf4a" />
<path d="M1025.625,1153.125 L1055.625,1153.125" close="False" data-weight="1.75" stroke-width="6" fill="none" stroke="#4daf4a" />
<path d="M950.625,1153.125 L980.625,1153.125" close="False" data-weight="1.75" stroke-width="6" fill="none" stroke="#4daf4a" />
<path d="M875.625,1153.125 L905.625,1153.125" close="False" data-weight="1.75" stroke-width="6" fill="none" stroke="#4daf4a" />
<path d="M800.625,1153.125 L830.625,1153.125" close="False" data-weight="1.75" stroke-width="6" fill="none" stroke="#4daf4a" />
<path d="M725.625,1153.125 L755.625,1153.125" close="False" data-weight="1.75" stroke-width="6" fill="none" stroke="#4daf4a" />
<path d="M650.625,1153.125 L680.625,1153.125" close="False" data-weight="1.75" stroke-width="6" fill="none" stroke="#4daf4a" />
<path d="M575.625,1153.125 L605.625,1153.125" close="False" data-weight="1.75" stroke-width="6" fill="none" stroke="#4daf4a" />
<path d="M500.625,1153.125 L530.625,1153.125" close="False" data-weight="1.75" stroke-width="6" fill="none" stroke="#4daf4a" />
<path d="M419.03490257669733,1094.0349025766973 L462.21509742330267,1137.2150974233027" close="False" data-weight="2.060660171779821" stroke-width="6" fill="none" stroke="#4daf4a" />
<path d="M399.125,1025.2665898254845 L399.125,1055.9834101745155" close="False" data-weight="1.75" stroke-width="6" fill="none" stroke="#4daf4a" />
<path d="M403.125,950.625 L403.125,980.625" close="False" data-weight="1.75" stroke-width="6" fill="none" stroke="#4daf4a" />
<path d="M403.125,875.625 L403.125,905.625" close="False" data-weight="1.75" stroke-width="6" fill="none" stroke="#4daf4a" />
<path d="M403.125,800.625 L403.125,830.625" close="False" data-weight="1.75" stroke-width="6" fill="none" stroke="#4daf4a" />
<path d="M403.125,725.625 L403.125,755.625" close="False" data-weight="1.75" stroke-width="6" fill="none" stroke="#4daf4a" />
<path d="M419.03490257669733,687.2150974233027 L462.21509742330267,644.0349025766973" close="False" data-weight="2.060660171779821" stroke-width="6" fill="none" stroke="#4daf4a" />
<path d="M328.125,1550.625 L328.125,1580.625" close="False" data-weight="1.75" stroke-width="6" fill="none" stroke="#4daf4a" />
<path d="M328.125,1475.625 L328.125,1505.625" close="False" data-weight="1.75" stroke-width="6" fill="none" stroke="#4daf4a" />
<path d="M328.125,1400.625 L328.125,1430.625" close="False" data-weight="1.75" stroke-width="6" fill="none" stroke="#4daf4a" />
<path d="M328.125,1325.625 L328.125,1355.625" close="False" data-weight="1.75" stroke-width="6" fill="none" stroke="#4daf4a" />
<path d="M328.125,1250.625 L328.125,1280.625" close="False" data-weight="1.75" stroke-width="6" fill="none" stroke="#4daf4a" />
<path d="M328.125,1175.625 L328.125,1205.625" close="False" data-weight="1.75" stroke-width="6" fill="none" stroke="#4daf4a" />
<path d="M344.03490257669733,1137.2150974233027 L387.21509742330267,1094.0349025766973" close="False" data-weight="2.060660171779821" stroke-width="6" fill="none" stroke="#4daf4a" />
<path d="M2424.125,1355.9834101745155 A49.45452644918532,49.45452644918532,0,0,1,2420.360498327255,1374.9088381020804 M2420.360498327255,1374.9088381020804 A49.45452644918831,49.45452644918831,0,0,1,2409.6401045634025,1390.9530411871049 M2409.6401045634025,1390.9530411871049" close="False" data-weight="1.0" stroke-width="6" fill="none" stroke="#377eb8" />
<path d="M2424.125,1280.9834101745155 C2424.125,1292.0542050872577,2424.125,1314.1957949127423,2424.125,1325.2665898254845" close="False" data-weight="0.0" stroke-width="6" fill="none" stroke="#377eb8" />
<path d="M2424.125,1205.9834101745155 C2424.125,1217.0542050872577,2424.125,1239.1957949127423,2424.125,1250.2665898254845" close="False" data-weight="0.0" stroke-width="6" fill="none" stroke="#377eb8" />
<path d="M2424.125,1130.9834101745155 C2424.125,1142.0542050872577,2424.125,1164.1957949127423,2424.125,1175.2665898254845" close="False" data-weight="0.0" stroke-width="6" fill="none" stroke="#377eb8" />
<path d="M2424.125,1055.9834101745155 C2424.125,1067.0542050872577,2424.125,1089.1957949127423,2424.125,1100.2665898254845" close="False" data-weight="0.0" stroke-width="6" fill="none" stroke="#377eb8" />
<path d="M2365.953041187105,946.6098954365974 A49.45452644918823,49.45452644918823,0,0,0,2349.9088381020806,935.8895016727449 M2349.9088381020806,935.8895016727449 A49.45452644918589,49.45452644918589,0,0,0,2330.9834101745155,932.125 M2330.9834101745155,932.125" close="False" data-weight="1.0" stroke-width="6" fill="none" stroke="#377eb8" />
<path d="M2300.625,1453.125 C2289.375,1453.125,2266.875,1453.125,2255.625,1453.125" close="False" data-weight="0.0" stroke-width="6" fill="none" stroke="#377eb8" />
<path d="M2300.2665898254845,932.125 C2289.1957949127423,932.125,2267.0542050872577,932.125,2255.9834101745155,932.125" close="False" data-weight="0.0" stroke-width="6" fill="none" stroke="#377eb8" />
<path d="M2225.625,1453.125 C2214.375,1453.125,2191.875,1453.125,2180.625,1453.125" close="False" data-weight="0.0" stroke-width="6" fill="none" stroke="#377eb8" />
<path d="M2150.625,1453.125 C2139.375,1453.125,2116.875,1453.125,2105.625,1453.125" close="False" data-weight="0.0" stroke-width="6" fill="none" stroke="#377eb8" />
<path d="M2075.625,1453.125 C2064.375,1453.125,2041.875,1453.125,2030.625,1453.125" close="False" data-weight="0.0" stroke-width="6" fill="none" stroke="#377eb8" />
<path d="M2000.625,1453.125 C1989.375,1453.125,1966.875,1453.125,1955.625,1453.125" close="False" data-weight="0.0" stroke-width="6" fill="none" stroke="#377eb8" />
<path d="M1925.625,1453.125 A54.31980515339569,54.31980515339569,0,0,1,1904.837710518496,1448.9901510378277 M1904.837710518496,1448.9901510378277 A54.3198051533933,54.3198051533933,0,0,1,1887.2150974233027,1437.2150974233027 M1887.2150974233027,1437.2150974233027" close="False" data-weight="1.0" stroke-width="6" fill="none" stroke="#377eb8" />
<path d="M1762.3384181084707,1432.5978733925444 C1754.9032819294891,1440.033009571526,1740.033009571526,1454.9032819294891,1732.5978733925444,1462.3384181084707" close="False" data-weight="0.0" stroke-width="6" fill="none" stroke="#377eb8" />
<path d="M1687.3384181084707,1507.5978733925444 C1679.9032819294814,1515.0330095715337,1665.0330095715026,1529.9032819295126,1657.5978733925133,1537.3384181085019" close="False" data-weight="0.0" stroke-width="6" fill="none" stroke="#377eb8" />
<path d="M1612.3384181084707,1582.5978733925444 C1604.903281929497,1590.033009571518,1590.0330095715497,1604.9032819294655,1582.5978733925758,1612.3384181084393" close="False" data-weight="0.0" stroke-width="6" fill="none" stroke="#377eb8" />
<path d="M1550.625,2428.125 C1539.375,2428.125,1516.875,2428.125,1505.625,2428.125" close="False" data-weight="0.0" stroke-width="6" fill="none" stroke="#377eb8" />
<path d="M1475.625,2428.125 C1464.375,2428.125,1441.875,2428.125,1430.625,2428.125" close="False" data-weight="0.0" stroke-width="6" fill="none" stroke="#377eb8" />
<path d="M1453.125,2030.625 A54.31980515339296,54.31980515339296,0,0,1,1448.9901510378277,2051.4122894815036 M1448.9901510378277,2051.4122894815036 A54.31980515340005,54.31980515340005,0,0,1,1437.2150974233027,2069.0349025766973 M1437.2150974233027,2069.0349025766973" close="False" data-weight="1.0" stroke-width="6" fill="none" stroke="#377eb8" />
<path d="M1453.125,1955.625 C1453.125,1966.875,1453.125,1989.375,1453.125,2000.625" close="False" data-weight="0.0" stroke-width="6" fill="none" stroke="#377eb8" />
<path d="M1453.125,1880.625 C1453.125,1891.875,1453.125,1914.375,1453.125,1925.625" close="False" data-weight="0.0" stroke-width="6" fill="none" stroke="#377eb8" />
<path d="M1453.125,1805.625 C1453.125,1816.875,1453.125,1839.375,1453.125,1850.625" close="False" data-weight="0.0" stroke-width="6" fill="none" stroke="#377eb8" />
<path d="M1471.6098954365973,1740.2969588128951 A93.83039863673936,93.83039863673936,0,0,0,1458.6902502339128,1756.437834336891 M1458.6902502339128,1756.437834336891 A35.85816626156134,35.85816626156134,0,0,0,1453.125,1775.625 M1453.125,1775.625" close="False" data-weight="1.0" stroke-width="6" fill="none" stroke="#377eb8" />
<path d="M1475.2665898254845,1674.125 C1464.1957949127423,1674.125,1442.0542050872577,1674.125,1430.9834101745155,1674.125" close="False" data-weight="0.0" stroke-width="6" fill="none" stroke="#377eb8" />
<path d="M1400.625,2428.125 A54.31980515339728,54.31980515339728,0,0,1,1379.837710518496,2423.9901510378277 M1379.837710518496,2423.9901510378277 A54.319805153387826,54.319805153387826,0,0,1,1362.2150974233027,2412.2150974233027 M1362.2150974233027,2412.2150974233027" close="False" data-weight="1.0" stroke-width="6" fill="none" stroke="#377eb8" />
<path d="M1394.0349025766973,2112.2150974233027 C1386.0799512883486,2120.1700487116514,1370.1700487116514,2136.0799512883486,1362.2150974233027,2144.0349025766973" close="False" data-weight="0.0" stroke-width="6" fill="none" stroke="#377eb8" />
<path d="M1400.2665898254845,1674.125 A93.83039863674549,93.83039863674549,0,0,1,1379.7176985548367,1671.8472461960373 M1379.7176985548367,1671.8472461960373 A35.85816626156064,35.85816626156064,0,0,1,1362.2150974233027,1662.2150974233027 M1362.2150974233027,1662.2150974233027" close="False" data-weight="1.0" stroke-width="6" fill="none" stroke="#377eb8" />
<path d="M1319.0349025766973,2369.0349025766973 C1311.0799512883486,2361.0799512883486,1295.1700487116514,2345.1700487116514,1287.2150974233027,2337.2150974233027" close="False" data-weight="0.0" stroke-width="6" fill="none" stroke="#377eb8" />
<path d="M1319.0349025766973,2187.2150974233027 C1311.0799512883486,2195.1700487116514,1295.1700487116514,2211.0799512883486,1287.2150974233027,2219.0349025766973" close="False" data-weight="0.0" stroke-width="6" fill="none" stroke="#377eb8" />
<path d="M1319.0349025766973,1619.0349025766973 C1311.0799512883486,1611.0799512883486,1295.1700487116514,1595.1700487116514,1287.2150974233027,1587.2150974233027" close="False" data-weight="0.0" stroke-width="6" fill="none" stroke="#377eb8" />
<path d="M1244.0349025766973,1544.0349025766973 C1236.0799512883486,1536.0799512883486,1220.1700487116514,1520.1700487116514,1212.2150974233027,1512.2150974233027" close="False" data-weight="0.0" stroke-width="6" fill="none" stroke="#377eb8" />
<path d="M1169.0349025766973,1469.0349025766973 C1161.0799512883486,1461.0799512883486,1145.1700487116514,1445.1700487116514,1137.2150974233027,1437.2150974233027" close="False" data-weight="0.0" stroke-width="6" fill="none" stroke="#377eb8" />
<path d="M1094.0349025766973,1394.0349025766973 C1086.0799512883486,1386.0799512883486,1070.1700487116514,1370.1700487116514,1062.2150974233027,1362.2150974233027" close="False" data-weight="0.0" stroke-width="6" fill="none" stroke="#377eb8" />
<path d="M1019.0349025766973,1319.0349025766973 C1011.0799512883486,1311.0799512883486,995.1700487116514,1295.1700487116514,987.2150974233027,1287.2150974233027" close="False" data-weight="0.0" stroke-width="6" fill="none" stroke="#377eb8" />
<path d="M944.0349025766973,1244.0349025766973 C936.0799512883486,1236.0799512883486,920.1700487116514,1220.1700487116514,912.2150974233027,1212.2150974233027" close="False" data-weight="0.0" stroke-width="6" fill="none" stroke="#377eb8" />
<path d="M944.0349025766973,912.2150974233027 C936.0799512883486,920.1700487116514,920.1700487116514,936.0799512883486,912.2150974233027,944.0349025766973" close="False" data-weight="0.0" stroke-width="6" fill="none" stroke="#377eb8" />
<path d="M869.0349025766973,1169.0349025766973 C861.0799512883486,1161.0799512883486,845.1700487116514,1145.1700487116514,837.2150974233027,1137.2150974233027" close="False" data-weight="0.0" stroke-width="6" fill="none" stroke="#377eb8" />
<path d="M869.0349025766973,987.2150974233027 C861.0799512883486,995.1700487116514,845.1700487116514,1011.0799512883486,837.2150974233027,1019.0349025766973" close="False" data-weight="0.0" stroke-width="6" fill="none" stroke="#377eb8" />
<path d="M778.125,1130.625 A54.31980515339285,54.31980515339285,0,0,1,773.9901510378276,1151.412289481504 M773.9901510378276,1151.412289481504 A54.31980515339619,54.31980515339619,0,0,1,762.2150974233027,1169.0349025766973 M762.2150974233027,1169.0349025766973" close="False" data-weight="1.0" stroke-width="6" fill="none" stroke="#377eb8" />
<path d="M719.0349025766973,1212.2150974233027 C711.0799512883486,1220.1700487116514,695.1700487116514,1236.0799512883486,687.2150974233027,1244.0349025766973" close="False" data-weight="0.0" stroke-width="6" fill="none" stroke="#377eb8" />
<path d="M719.0349025766973,1019.0349025766973 C711.0799512883486,1011.0799512883486,695.1700487116514,995.1700487116514,687.2150974233027,987.2150974233027" close="False" data-weight="0.0" stroke-width="6" fill="none" stroke="#377eb8" />
<path d="M644.0349025766973,1287.2150974233027 C636.0799512883486,1295.1700487116514,620.1700487116514,1311.0799512883486,612.2150974233027,1319.0349025766973" close="False" data-weight="0.0" stroke-width="6" fill="none" stroke="#377eb8" />
<path d="M644.0349025766973,944.0349025766973 C636.0799512883486,936.0799512883486,620.1700487116514,920.1700487116514,612.2150974233027,912.2150974233027" close="False" data-weight="0.0" stroke-width="6" fill="none" stroke="#377eb8" />
<path d="M569.0349025766973,1362.2150974233027 C561.0799512883486,1370.1700487116514,545.1700487116514,1386.0799512883486,537.2150974233027,1394.0349025766973" close="False" data-weight="0.0" stroke-width="6" fill="none" stroke="#377eb8" />
<path d="M569.0349025766973,869.0349025766973 C561.0799512883486,861.0799512883486,545.1700487116514,845.1700487116514,537.2150974233027,837.2150974233027" close="False" data-weight="0.0" stroke-width="6" fill="none" stroke="#377eb8" />
<path d="M494.03490257669733,1437.2150974233027 C486.0799512883487,1445.1700487116514,470.1700487116513,1461.0799512883486,462.21509742330267,1469.0349025766973" close="False" data-weight="0.0" stroke-width="6" fill="none" stroke="#377eb8" />
<path d="M478.125,755.625 A54.31980515339342,54.31980515339342,0,0,0,482.25984896217227,776.4122894815039 M482.25984896217227,776.4122894815039 A54.31980515339574,54.31980515339574,0,0,0,494.03490257669733,794.0349025766973 M494.03490257669733,794.0349025766973" close="False" data-weight="1.0" stroke-width="6" fill="none" stroke="#377eb8" />
<path d="M478.125,680.625 C478.125,691.875,478.125,714.375,478.125,725.625" close="False" data-weight="0.0" stroke-width="6" fill="none" stroke="#377eb8" />
<path d="M419.03490257669733,1512.2150974233027 C411.0799512883487,1520.1700487116514,395.1700487116513,1536.0799512883486,387.21509742330267,1544.0349025766973" close="False" data-weight="0.0" stroke-width="6" fill="none" stroke="#377eb8" />
<path d="M328.125,1730.625 C328.125,1741.875,328.125,1764.375,328.125,1775.625" close="False" data-weight="0.0" stroke-width="6" fill="none" stroke="#377eb8" />
<path d="M328.125,1655.625 C328.125,1666.875,328.125,1689.375,328.125,1700.625" close="False" data-weight="0.0" stroke-width="6" fill="none" stroke="#377eb8" />
<path d="M269.03490257669733,1544.0349025766973 C261.0799512883487,1536.0799512883486,245.1700487116513,1520.1700487116514,237.21509742330267,1512.2150974233027" close="False" data-weight="0.0" stroke-width="6" fill="none" stroke="#377eb8" />
<path d="M194.0349025766973,1469.0349025766973 A54.31980515339553,54.31980515339553,0,0,0,176.412289481504,1457.259848962172 M176.412289481504,1457.259848962172 A54.319805153393645,54.319805153393645,0,0,0,155.625,1453.125 M155.625,1453.125" close="False" data-weight="1.0" stroke-width="6" fill="none" stroke="#377eb8" />
<path d="M2424.125,1325.2665898254845 L2424.125,1355.9834101745155" close="False" data-weight="1.75" stroke-width="6" fill="none" stroke="#377eb8" />
<path d="M2424.125,1250.2665898254845 L2424.125,1280.9834101745155" close="False" data-weight="1.75" stroke-width="6" fill="none" stroke="#377eb8" />
<path d="M2424.125,1175.2665898254845 L2424.125,1205.9834101745155" close="False" data-weight="1.75" stroke-width="6" fill="none" stroke="#377eb8" />
<path d="M2424.125,1100.2665898254845 L2424.125,1130.9834101745155" close="False" data-weight="1.75" stroke-width="6" fill="none" stroke="#377eb8" />
<path d="M2424.125,1025.2665898254845 L2424.125,1055.9834101745155" close="False" data-weight="1.75" stroke-width="6" fill="none" stroke="#377eb8" />
<path d="M2365.953041187105,1434.6401045634027 L2409.6401045634025,1390.9530411871049" close="False" data-weight="2.060660171779821" stroke-width="6" fill="none" stroke="#377eb8" />
<path d="M2365.953041187105,946.6098954365974 L2409.6401045634025,990.296958812895" close="False" data-weight="2.060660171779821" stroke-width="6" fill="none" stroke="#377eb8" />
<path d="M2300.625,1453.125 L2330.625,1453.125" close="False" data-weight="1.75" stroke-width="6" fill="none" stroke="#377eb8" />
<path d="M2300.2665898254845,932.125 L2330.9834101745155,932.125" close="False" data-weight="1.75" stroke-width="6" fill="none" stroke="#377eb8" />
<path d="M2225.625,1453.125 L2255.625,1453.125" close="False" data-weight="1.75" stroke-width="6" fill="none" stroke="#377eb8" />
<path d="M2225.2665898254845,932.125 L2255.9834101745155,932.125" close="False" data-weight="1.75" stroke-width="6" fill="none" stroke="#377eb8" />
<path d="M2150.625,1453.125 L2180.625,1453.125" close="False" data-weight="1.75" stroke-width="6" fill="none" stroke="#377eb8" />
<path d="M2075.625,1453.125 L2105.625,1453.125" close="False" data-weight="1.75" stroke-width="6" fill="none" stroke="#377eb8" />
<path d="M2000.625,1453.125 L2030.625,1453.125" close="False" data-weight="1.75" stroke-width="6" fill="none" stroke="#377eb8" />
<path d="M1925.625,1453.125 L1955.625,1453.125" close="False" data-weight="1.75" stroke-width="6" fill="none" stroke="#377eb8" />
<path d="M1844.0349025766973,1394.0349025766973 L1887.2150974233027,1437.2150974233027" close="False" data-weight="2.060660171779821" stroke-width="6" fill="none" stroke="#377eb8" />
<path d="M1762.3384181084707,1432.5978733925444 L1807.5978733925444,1387.3384181084707" close="False" data-weight="2.060660171779821" stroke-width="6" fill="none" stroke="#377eb8" />
<path d="M1687.3384181084707,1507.5978733925444 L1732.5978733925444,1462.3384181084707" close="False" data-weight="2.060660171779821" stroke-width="6" fill="none" stroke="#377eb8" />
<path d="M1612.3384181084393,1582.5978733925758 L1657.5978733925444,1537.3384181084707" close="False" data-weight="2.060660171779821" stroke-width="6" fill="none" stroke="#377eb8" />
<path d="M1550.625,2428.125 L1580.625,2428.125" close="False" data-weight="1.75" stroke-width="6" fill="none" stroke="#377eb8" />
<path d="M1537.3384181085019,1657.5978733925133 L1582.5978733925444,1612.3384181084707" close="False" data-weight="2.060660171779821" stroke-width="6" fill="none" stroke="#377eb8" />
<path d="M1475.625,2428.125 L1505.625,2428.125" close="False" data-weight="1.75" stroke-width="6" fill="none" stroke="#377eb8" />
<path d="M1453.125,2000.625 L1453.125,2030.625" close="False" data-weight="1.75" stroke-width="6" fill="none" stroke="#377eb8" />
<path d="M1453.125,1925.625 L1453.125,1955.625" close="False" data-weight="1.75" stroke-width="6" fill="none" stroke="#377eb8" />
<path d="M1453.125,1850.625 L1453.125,1880.625" close="False" data-weight="1.75" stroke-width="6" fill="none" stroke="#377eb8" />
<path d="M1453.125,1775.625 L1453.125,1805.625" close="False" data-weight="1.75" stroke-width="6" fill="none" stroke="#377eb8" />
<path d="M1471.6098954365973,1740.2969588128951 L1515.2969588128951,1696.6098954365973" close="False" data-weight="2.060660171779821" stroke-width="6" fill="none" stroke="#377eb8" />
<path d="M1475.2665898254845,1674.125 L1505.9834101745155,1674.125" close="False" data-weight="1.75" stroke-width="6" fill="none" stroke="#377eb8" />
<path d="M1400.625,2428.125 L1430.625,2428.125" close="False" data-weight="1.75" stroke-width="6" fill="none" stroke="#377eb8" />
<path d="M1394.0349025766973,2112.2150974233027 L1437.2150974233027,2069.0349025766973" close="False" data-weight="2.060660171779821" stroke-width="6" fill="none" stroke="#377eb8" />
<path d="M1400.2665898254845,1674.125 L1430.9834101745155,1674.125" close="False" data-weight="1.75" stroke-width="6" fill="none" stroke="#377eb8" />
<path d="M1319.0349025766973,2369.0349025766973 L1362.2150974233027,2412.2150974233027" close="False" data-weight="2.060660171779821" stroke-width="6" fill="none" stroke="#377eb8" />
<path d="M1319.0349025766973,2187.2150974233027 L1362.2150974233027,2144.0349025766973" close="False" data-weight="2.060660171779821" stroke-width="6" fill="none" stroke="#377eb8" />
<path d="M1319.0349025766973,1619.0349025766973 L1362.2150974233027,1662.2150974233027" close="False" data-weight="2.060660171779821" stroke-width="6" fill="none" stroke="#377eb8" />
<path d="M1244.0349025766973,2294.0349025766973 L1287.2150974233027,2337.2150974233027" close="False" data-weight="2.060660171779821" stroke-width="6" fill="none" stroke="#377eb8" />
<path d="M1244.0349025766973,2262.2150974233027 L1287.2150974233027,2219.0349025766973" close="False" data-weight="2.060660171779821" stroke-width="6" fill="none" stroke="#377eb8" />
<path d="M1244.0349025766973,1544.0349025766973 L1287.2150974233027,1587.2150974233027" close="False" data-weight="2.060660171779821" stroke-width="6" fill="none" stroke="#377eb8" />
<path d="M1169.0349025766973,1469.0349025766973 L1212.2150974233027,1512.2150974233027" close="False" data-weight="2.060660171779821" stroke-width="6" fill="none" stroke="#377eb8" />
<path d="M1094.0349025766973,1394.0349025766973 L1137.2150974233027,1437.2150974233027" close="False" data-weight="2.060660171779821" stroke-width="6" fill="none" stroke="#377eb8" />
<path d="M1019.0349025766973,1319.0349025766973 L1062.2150974233027,1362.2150974233027" close="False" data-weight="2.060660171779821" stroke-width="6" fill="none" stroke="#377eb8" />
<path d="M944.0349025766973,1244.0349025766973 L987.2150974233027,1287.2150974233027" close="False" data-weight="2.060660171779821" stroke-width="6" fill="none" stroke="#377eb8" />
<path d="M944.0349025766973,912.2150974233027 L987.2150974233027,869.0349025766973" close="False" data-weight="2.060660171779821" stroke-width="6" fill="none" stroke="#377eb8" />
<path d="M869.0349025766973,1169.0349025766973 L912.2150974233027,1212.2150974233027" close="False" data-weight="2.060660171779821" stroke-width="6" fill="none" stroke="#377eb8" />
<path d="M869.0349025766973,987.2150974233027 L912.2150974233027,944.0349025766973" close="False" data-weight="2.060660171779821" stroke-width="6" fill="none" stroke="#377eb8" />
<path d="M778.125,1100.625 L778.125,1130.625" close="False" data-weight="1.75" stroke-width="6" fill="none" stroke="#377eb8" />
<path d="M794.0349025766973,1094.0349025766973 L837.2150974233027,1137.2150974233027" close="False" data-weight="2.060660171779821" stroke-width="6" fill="none" stroke="#377eb8" />
<path d="M794.0349025766973,1062.2150974233027 L837.2150974233027,1019.0349025766973" close="False" data-weight="2.060660171779821" stroke-width="6" fill="none" stroke="#377eb8" />
<path d="M719.0349025766973,1212.2150974233027 L762.2150974233027,1169.0349025766973" close="False" data-weight="2.060660171779821" stroke-width="6" fill="none" stroke="#377eb8" />
<path d="M719.0349025766973,1019.0349025766973 L762.2150974233027,1062.2150974233027" close="False" data-weight="2.060660171779821" stroke-width="6" fill="none" stroke="#377eb8" />
<path d="M644.0349025766973,1287.2150974233027 L687.2150974233027,1244.0349025766973" close="False" data-weight="2.060660171779821" stroke-width="6" fill="none" stroke="#377eb8" />
<path d="M644.0349025766973,944.0349025766973 L687.2150974233027,987.2150974233027" close="False" data-weight="2.060660171779821" stroke-width="6" fill="none" stroke="#377eb8" />
<path d="M569.0349025766973,1362.2150974233027 L612.2150974233027,1319.0349025766973" close="False" data-weight="2.060660171779821" stroke-width="6" fill="none" stroke="#377eb8" />
<path d="M569.0349025766973,869.0349025766973 L612.2150974233027,912.2150974233027" close="False" data-weight="2.060660171779821" stroke-width="6" fill="none" stroke="#377eb8" />
<path d="M494.03490257669733,1437.2150974233027 L537.2150974233027,1394.0349025766973" close="False" data-weight="2.060660171779821" stroke-width="6" fill="none" stroke="#377eb8" />
<path d="M494.03490257669733,794.0349025766973 L537.2150974233027,837.2150974233027" close="False" data-weight="2.060660171779821" stroke-width="6" fill="none" stroke="#377eb8" />
<path d="M478.125,725.625 L478.125,755.625" close="False" data-weight="1.75" stroke-width="6" fill="none" stroke="#377eb8" />
<path d="M478.125,650.625 L478.125,680.625" close="False" data-weight="1.75" stroke-width="6" fill="none" stroke="#377eb8" />
<path d="M419.03490257669733,1512.2150974233027 L462.21509742330267,1469.0349025766973" close="False" data-weight="2.060660171779821" stroke-width="6" fill="none" stroke="#377eb8" />
<path d="M328.125,1775.625 L328.125,1805.625" close="False" data-weight="1.75" stroke-width="6" fill="none" stroke="#377eb8" />
<path d="M328.125,1700.625 L328.125,1730.625" close="False" data-weight="1.75" stroke-width="6" fill="none" stroke="#377eb8" />
<path d="M328.125,1625.625 L328.125,1655.625" close="False" data-weight="1.75" stroke-width="6" fill="none" stroke="#377eb8" />
<path d="M344.03490257669733,1587.2150974233027 L387.21509742330267,1544.0349025766973" close="False" data-weight="2.060660171779821" stroke-width="6" fill="none" stroke="#377eb8" />
<path d="M269.03490257669733,1544.0349025766973 L312.21509742330267,1587.2150974233027" close="False" data-weight="2.060660171779821" stroke-width="6" fill="none" stroke="#377eb8" />
<path d="M194.03490257669733,1469.0349025766973 L237.2150974233027,1512.2150974233027" close="False" data-weight="2.060660171779821" stroke-width="6" fill="none" stroke="#377eb8" />
<path d="M125.625,1453.125 L155.625,1453.125" close="False" data-weight="1.75" stroke-width="6" fill="none" stroke="#377eb8" />
<path d="M1603.125,1655.625 C1603.125,1666.875,1603.125,1689.375,1603.125,1700.625" close="False" data-weight="0.0" stroke-width="6" fill="none" stroke="#e41a1c" />
<path d="M1603.125,1580.625 C1603.125,1591.875,1603.125,1614.375,1603.125,1625.625" close="False" data-weight="0.0" stroke-width="6" fill="none" stroke="#e41a1c" />
<path d="M1603.125,1505.625 C1603.125,1516.875,1603.125,1539.375,1603.125,1550.625" close="False" data-weight="0.0" stroke-width="6" fill="none" stroke="#e41a1c" />
<path d="M1603.125,1430.625 C1603.125,1441.875,1603.125,1464.375,1603.125,1475.625" close="False" data-weight="0.0" stroke-width="6" fill="none" stroke="#e41a1c" />
<path d="M1603.125,1400.625 A54.31980515339569,54.31980515339569,0,0,0,1598.9901510378277,1379.837710518496 M1598.9901510378277,1379.837710518496 A54.3198051533933,54.3198051533933,0,0,0,1587.2150974233027,1362.2150974233027 M1587.2150974233027,1362.2150974233027" close="False" data-weight="1.0" stroke-width="6" fill="none" stroke="#e41a1c" />
<path d="M1544.0349025766973,1319.0349025766973 C1536.0799512883486,1311.0799512883486,1520.1700487116514,1295.1700487116514,1512.2150974233027,1287.2150974233027" close="False" data-weight="0.0" stroke-width="6" fill="none" stroke="#e41a1c" />
<path d="M1544.0349025766973,837.2150974233027 C1536.0799512883486,845.1700487116514,1520.1700487116514,861.0799512883486,1512.2150974233027,869.0349025766973" close="False" data-weight="0.0" stroke-width="6" fill="none" stroke="#e41a1c" />
<path d="M1453.125,1130.625 C1453.125,1141.875,1453.125,1164.375,1453.125,1175.625" close="False" data-weight="0.0" stroke-width="6" fill="none" stroke="#e41a1c" />
<path d="M1453.125,1055.625 C1453.125,1066.875,1453.125,1089.375,1453.125,1100.625" close="False" data-weight="0.0" stroke-width="6" fill="none" stroke="#e41a1c" />
<path d="M1453.125,980.625 C1453.125,991.875,1453.125,1014.375,1453.125,1025.625" close="False" data-weight="0.0" stroke-width="6" fill="none" stroke="#e41a1c" />
<path d="M1469.0349025766973,912.2150974233027 A54.31980515339554,54.31980515339554,0,0,0,1457.259848962172,929.837710518496 M1457.259848962172,929.837710518496 A54.319805153393645,54.319805153393645,0,0,0,1453.125,950.625 M1453.125,950.625" close="False" data-weight="1.0" stroke-width="6" fill="none" stroke="#e41a1c" />
<path d="M1400.2665898254845,1224.125 C1389.1957949127423,1224.125,1367.0542050872577,1224.125,1355.9834101745155,1224.125" close="False" data-weight="0.0" stroke-width="6" fill="none" stroke="#e41a1c" />
<path d="M1325.2665898254845,1224.125 A93.83039863674549,93.83039863674549,0,0,1,1304.7176985548367,1221.8472461960373 M1304.7176985548367,1221.8472461960373 A35.85816626156064,35.85816626156064,0,0,1,1287.2150974233027,1212.2150974233027 M1287.2150974233027,1212.2150974233027" close="False" data-weight="1.0" stroke-width="6" fill="none" stroke="#e41a1c" />
<path d="M1244.0349025766973,1169.0349025766973 C1236.0799512883486,1161.0799512883486,1220.1700487116514,1145.1700487116514,1212.2150974233027,1137.2150974233027" close="False" data-weight="0.0" stroke-width="6" fill="none" stroke="#e41a1c" />
<path d="M1153.125,1025.625 A54.31980515339637,54.31980515339637,0,0,0,1148.990151037828,1004.837710518496 M1148.990151037828,1004.837710518496 A54.31980515339265,54.31980515339265,0,0,0,1137.2150974233027,987.2150974233027 M1137.2150974233027,987.2150974233027" close="False" data-weight="1.0" stroke-width="6" fill="none" stroke="#e41a1c" />
<path d="M1094.0349025766973,944.0349025766973 C1086.0799512883486,936.0799512883486,1070.1700487116514,920.1700487116514,1062.2150974233027,912.2150974233027" close="False" data-weight="0.0" stroke-width="6" fill="none" stroke="#e41a1c" />
<path d="M944.0349025766973,794.0349025766973 A54.3198051533949,54.3198051533949,0,0,0,926.4122894815039,782.2598489621721 M926.4122894815039,782.2598489621721 A54.31980515339421,54.31980515339421,0,0,0,905.625,778.125 M905.625,778.125" close="False" data-weight="1.0" stroke-width="6" fill="none" stroke="#e41a1c" />
<path d="M875.625,778.125 C864.375,778.125,841.875,778.125,830.625,778.125" close="False" data-weight="0.0" stroke-width="6" fill="none" stroke="#e41a1c" />
<path d="M800.625,778.125 C789.375,778.125,766.875,778.125,755.625,778.125" close="False" data-weight="0.0" stroke-width="6" fill="none" stroke="#e41a1c" />
<path d="M725.625,778.125 C714.375,778.125,691.875,778.125,680.625,778.125" close="False" data-weight="0.0" stroke-width="6" fill="none" stroke="#e41a1c" />
<path d="M650.625,778.125 C639.375,778.125,616.875,778.125,605.625,778.125" close="False" data-weight="0.0" stroke-width="6" fill="none" stroke="#e41a1c" />
<path d="M496.6098954365974,840.296958812895 A49.45452644918767,49.45452644918767,0,0,0,485.889501672745,856.3411618979196 M485.889501672745,856.3411618979196 A49.45452644918612,49.45452644918612,0,0,0,482.125,875.2665898254845 M482.125,875.2665898254845" close="False" data-weight="1.0" stroke-width="6" fill="none" stroke="#e41a1c" />
<path d="M421.60989543658997,990.2969588129025 A49.454526449147636,49.454526449147636,0,0,0,410.88950167274226,1006.3411618979237 M410.88950167274226,1006.3411618979237 A49.45452644920056,49.45452644920056,0,0,0,407.125,1025.2665898254845 M407.125,1025.2665898254845" close="False" data-weight="1.0" stroke-width="6" fill="none" stroke="#e41a1c" />
<path d="M1603.125,1700.625 L1603.125,1730.625" close="False" data-weight="1.75" stroke-width="6" fill="none" stroke="#e41a1c" />
<path d="M1603.125,1625.625 L1603.125,1655.625" close="False" data-weight="1.75" stroke-width="6" fill="none" stroke="#e41a1c" />
<path d="M1603.125,1550.625 L1603.125,1580.625" close="False" data-weight="1.75" stroke-width="6" fill="none" stroke="#e41a1c" />
<path d="M1603.125,1475.625 L1603.125,1505.625" close="False" data-weight="1.75" stroke-width="6" fill="none" stroke="#e41a1c" />
<path d="M1603.125,1400.625 L1603.125,1430.625" close="False" data-weight="1.75" stroke-width="6" fill="none" stroke="#e41a1c" />
<path d="M1544.0349025766973,1319.0349025766973 L1587.2150974233027,1362.2150974233027" close="False" data-weight="2.060660171779821" stroke-width="6" fill="none" stroke="#e41a1c" />
<path d="M1544.0349025766973,837.2150974233027 L1587.2150974233027,794.0349025766973" close="False" data-weight="2.060660171779821" stroke-width="6" fill="none" stroke="#e41a1c" />
<path d="M1469.0349025766973,1244.0349025766973 L1512.2150974233027,1287.2150974233027" close="False" data-weight="2.060660171779821" stroke-width="6" fill="none" stroke="#e41a1c" />
<path d="M1453.125,1175.625 L1453.125,1205.625" close="False" data-weight="1.75" stroke-width="6" fill="none" stroke="#e41a1c" />
<path d="M1453.125,1100.625 L1453.125,1130.625" close="False" data-weight="1.75" stroke-width="6" fill="none" stroke="#e41a1c" />
<path d="M1453.125,1025.625 L1453.125,1055.625" close="False" data-weight="1.75" stroke-width="6" fill="none" stroke="#e41a1c" />
<path d="M1453.125,950.625 L1453.125,980.625" close="False" data-weight="1.75" stroke-width="6" fill="none" stroke="#e41a1c" />
<path d="M1469.0349025766973,912.2150974233027 L1512.2150974233027,869.0349025766973" close="False" data-weight="2.060660171779821" stroke-width="6" fill="none" stroke="#e41a1c" />
<path d="M1400.2665898254845,1224.125 L1430.9834101745155,1224.125" close="False" data-weight="1.75" stroke-width="6" fill="none" stroke="#e41a1c" />
<path d="M1325.2665898254845,1224.125 L1355.9834101745155,1224.125" close="False" data-weight="1.75" stroke-width="6" fill="none" stroke="#e41a1c" />
<path d="M1244.0349025766973,1169.0349025766973 L1287.2150974233027,1212.2150974233027" close="False" data-weight="2.060660171779821" stroke-width="6" fill="none" stroke="#e41a1c" />
<path d="M1169.0349025766973,1094.0349025766973 L1212.2150974233027,1137.2150974233027" close="False" data-weight="2.060660171779821" stroke-width="6" fill="none" stroke="#e41a1c" />
<path d="M1153.125,1025.625 L1153.125,1055.625" close="False" data-weight="1.75" stroke-width="6" fill="none" stroke="#e41a1c" />
<path d="M1094.0349025766973,944.0349025766973 L1137.2150974233027,987.2150974233027" close="False" data-weight="2.060660171779821" stroke-width="6" fill="none" stroke="#e41a1c" />
<path d="M1019.0349025766973,869.0349025766973 L1062.2150974233027,912.2150974233027" close="False" data-weight="2.060660171779821" stroke-width="6" fill="none" stroke="#e41a1c" />
<path d="M944.0349025766973,794.0349025766973 L987.2150974233027,837.2150974233027" close="False" data-weight="2.060660171779821" stroke-width="6" fill="none" stroke="#e41a1c" />
<path d="M875.625,778.125 L905.625,778.125" close="False" data-weight="1.75" stroke-width="6" fill="none" stroke="#e41a1c" />
<path d="M800.625,778.125 L830.625,778.125" close="False" data-weight="1.75" stroke-width="6" fill="none" stroke="#e41a1c" />
<path d="M725.625,778.125 L755.625,778.125" close="False" data-weight="1.75" stroke-width="6" fill="none" stroke="#e41a1c" />
<path d="M650.625,778.125 L680.625,778.125" close="False" data-weight="1.75" stroke-width="6" fill="none" stroke="#e41a1c" />
<path d="M575.625,778.125 L605.625,778.125" close="False" data-weight="1.75" stroke-width="6" fill="none" stroke="#e41a1c" />
<path d="M482.125,875.2665898254845 L482.125,905.9834101745155" close="False" data-weight="1.75" stroke-width="6" fill="none" stroke="#e41a1c" />
<path d="M496.6098954366011,840.2969588128914 L540.296958812895,796.6098954365974" close="False" data-weight="2.060660171779821" stroke-width="6" fill="none" stroke="#e41a1c" />
<path d="M407.125,1025.2665898254845 L407.125,1055.9834101745155" close="False" data-weight="1.75" stroke-width="6" fill="none" stroke="#e41a1c" />
<path d="M421.60989543658997,990.2969588129025 L465.29695881290246,946.6098954365899" close="False" data-weight="2.060660171779821" stroke-width="6" fill="none" stroke="#e41a1c" />
<image x="2395.625" y="970.625" width="65" height="65" xlink:href="designspace-test/./img/ds_dataset1_40_8_thumb.png">
<title>8</title>
</image>
<image x="2320.625" y="1420.625" width="65" height="65" xlink:href="designspace-test/./img/ds_dataset1_40_26_thumb.png">
<title>26</title>
</image>
<image x="2245.625" y="1720.625" width="65" height="65" xlink:href="designspace-test/./img/ds_dataset1_40_25_thumb.png">
<title>25</title>
</image>
<image x="2245.625" y="670.625" width="65" height="65" xlink:href="designspace-test/./img/ds_dataset1_40_16_thumb.png">
<title>16</title>
</image>
<image x="2170.625" y="895.625" width="65" height="65" xlink:href="designspace-test/./img/ds_dataset1_40_15_thumb.png">
<title>15</title>
</image>
<image x="1870.625" y="1270.625" width="65" height="65" xlink:href="designspace-test/./img/ds_dataset1_40_21_thumb.png">
<title>21</title>
</image>
<image x="1795.625" y="1345.625" width="65" height="65" xlink:href="designspace-test/./img/ds_dataset1_40_3_thumb.png">
<title>3</title>
</image>
<image x="1720.625" y="670.625" width="65" height="65" xlink:href="designspace-test/./img/ds_dataset1_40_11_thumb.png">
<title>11</title>
</image>
<image x="1720.625" y="445.625" width="65" height="65" xlink:href="designspace-test/./img/ds_dataset1_40_10_thumb.png">
<title>10</title>
</image>
<image x="1570.625" y="2395.625" width="65" height="65" xlink:href="designspace-test/./img/ds_dataset1_40_5_thumb.png">
<title>5</title>
</image>
<image x="1570.625" y="1720.625" width="65" height="65" xlink:href="designspace-test/./img/ds_dataset1_40_2_thumb.png">
<title>2</title>
</image>
<image x="1570.625" y="745.625" width="65" height="65" xlink:href="designspace-test/./img/ds_dataset1_40_12_thumb.png">
<title>12</title>
</image>
<image x="1495.625" y="1945.625" width="65" height="65" xlink:href="designspace-test/./img/ds_dataset1_40_30_thumb.png">
<title>30</title>
</image>
<image x="1495.625" y="1645.625" width="65" height="65" xlink:href="designspace-test/./img/ds_dataset1_40_29_thumb.png">
<title>29</title>
</image>
<image x="1420.625" y="1195.625" width="65" height="65" xlink:href="designspace-test/./img/ds_dataset1_40_4_thumb.png">
<title>4</title>
</image>
<image x="1345.625" y="445.625" width="65" height="65" xlink:href="designspace-test/./img/ds_dataset1_40_27_thumb.png">
<title>27</title>
</image>
<image x="1270.625" y="2095.625" width="65" height="65" xlink:href="designspace-test/./img/ds_dataset1_40_31_thumb.png">
<title>31</title>
</image>
<image x="1270.625" y="670.625" width="65" height="65" xlink:href="designspace-test/./img/ds_dataset1_40_1_thumb.png">
<title>1</title>
</image>
<image x="1195.625" y="2245.625" width="65" height="65" xlink:href="designspace-test/./img/ds_dataset1_40_6_thumb.png">
<title>6</title>
</image>
<image x="1195.625" y="2095.625" width="65" height="65" xlink:href="designspace-test/./img/ds_dataset1_40_23_thumb.png">
<title>23</title>
</image>
<image x="1120.625" y="1195.625" width="65" height="65" xlink:href="designspace-test/./img/ds_dataset1_40_35_thumb.png">
<title>35</title>
</image>
<image x="1120.625" y="1045.625" width="65" height="65" xlink:href="designspace-test/./img/ds_dataset1_40_38_thumb.png">
<title>38</title>
</image>
<image x="1045.625" y="1420.625" width="65" height="65" xlink:href="designspace-test/./img/ds_dataset1_40_36_thumb.png">
<title>36</title>
</image>
<image x="970.625" y="1645.625" width="65" height="65" xlink:href="designspace-test/./img/ds_dataset1_40_33_thumb.png">
<title>33</title>
</image>
<image x="970.625" y="1345.625" width="65" height="65" xlink:href="designspace-test/./img/ds_dataset1_40_39_thumb.png">
<title>39</title>
</image>
<image x="970.625" y="820.625" width="65" height="65" xlink:href="designspace-test/./img/ds_dataset1_40_18_thumb.png">
<title>18</title>
</image>
<image x="820.625" y="1045.625" width="65" height="65" xlink:href="designspace-test/./img/ds_dataset1_40_37_thumb.png">
<title>37</title>
</image>
<image x="745.625" y="1045.625" width="65" height="65" xlink:href="designspace-test/./img/ds_dataset1_40_34_thumb.png">
<title>34</title>
</image>
<image x="670.625" y="1645.625" width="65" height="65" xlink:href="designspace-test/./img/ds_dataset1_40_13_thumb.png">
<title>13</title>
</image>
<image x="670.625" y="1345.625" width="65" height="65" xlink:href="designspace-test/./img/ds_dataset1_40_24_thumb.png">
<title>24</title>
</image>
<image x="520.625" y="2320.625" width="65" height="65" xlink:href="designspace-test/./img/ds_dataset1_40_17_thumb.png">
<title>17</title>
</image>
<image x="520.625" y="745.625" width="65" height="65" xlink:href="designspace-test/./img/ds_dataset1_40_32_thumb.png">
<title>32</title>
</image>
<image x="445.625" y="895.625" width="65" height="65" xlink:href="designspace-test/./img/ds_dataset1_40_19_thumb.png">
<title>19</title>
</image>
<image x="445.625" y="595.625" width="65" height="65" xlink:href="designspace-test/./img/ds_dataset1_40_28_thumb.png">
<title>28</title>
</image>
<image x="370.625" y="1045.625" width="65" height="65" xlink:href="designspace-test/./img/ds_dataset1_40_22_thumb.png">
<title>22</title>
</image>
<image x="295.625" y="1795.625" width="65" height="65" xlink:href="designspace-test/./img/ds_dataset1_40_0_thumb.png">
<title>0</title>
</image>
<image x="295.625" y="1570.625" width="65" height="65" xlink:href="designspace-test/./img/ds_dataset1_40_20_thumb.png">
<title>20</title>
</image>
<image x="220.625" y="745.625" width="65" height="65" xlink:href="designspace-test/./img/ds_dataset1_40_9_thumb.png">
<title>9</title>
</image>
<image x="70.625" y="1420.625" width="65" height="65" xlink:href="designspace-test/./img/ds_dataset1_40_7_thumb.png">
<title>7</title>
</image>
<image x="70.625" y="1270.625" width="65" height="65" xlink:href="designspace-test/./img/ds_dataset1_40_14_thumb.png">
<title>14</title>
</image>
</svg>