<?xml version="1.0" encoding="UTF-8"?>
<svg xmlns="http://www.w3.org/2000/svg" xmlns:xlink="http://www.w3.org/1999/xlink"
     viewBox="0 0 1350 1350" preserveAspectRatio="xMidYMid meet">
<defs>
</defs>
<path d="M553.125,605.625 A54.31980515339484,54.31980515339484,0,0,1,548.9901510378278,626.4122894815039 M548.9901510378278,626.4122894815039 A54.3198051533943,54.3198051533943,0,0,1,537.2150974233027,644.0349025766973 M537.2150974233027,644.0349025766973" close="False" data-weight="1.0" stroke-width="7" fill="none" stroke="#1fa562" />
<path d="M553.125,530.625 C553.125,541.875,553.125,564.375,553.125,575.625" close="False" data-weight="0.0" stroke-width="7" fill="none" stroke="#1fa562" />
<path d="M553.125,455.625 C553.125,466.875,553.125,489.375,553.125,500.625" close="False" data-weight="0.0" stroke-width="7" fill="none" stroke="#1fa562" />
<path d="M553.125,380.625 C553.125,391.875,553.125,414.375,553.125,425.625" close="False" data-weight="0.0" stroke-width="7" fill="none" stroke="#1fa562" />
<path d="M553.125,305.625 C553.125,316.875,553.125,339.375,553.125,350.625" close="False" data-weight="0.0" stroke-width="7" fill="none" stroke="#1fa562" />
<path d="M553.125,230.625 C553.125,241.875,553.125,264.375,553.125,275.625" close="False" data-weight="0.0" stroke-width="7" fill="none" stroke="#1fa562" />
<path d="M553.125,155.625 C553.125,166.875,553.125,189.375,553.125,200.625" close="False" data-weight="0.0" stroke-width="7" fill="none" stroke="#1fa562" />
<path d="M494.03490257669733,687.2150974233027 C486.0799512883487,695.1700487116514,470.1700487116513,711.0799512883486,462.21509742330267,719.0349025766973" close="False" data-weight="0.0" stroke-width="7" fill="none" stroke="#1fa562" />
<path d="M419.03490257669733,762.2150974233027 C411.0799512883487,770.1700487116514,395.1700487116513,786.0799512883486,387.21509742330267,794.0349025766973" close="False" data-weight="0.0" stroke-width="7" fill="none" stroke="#1fa562" />
<path d="M344.03490257669733,837.2150974233027 C336.12023394452456,845.1297660554756,317.2692308487134,857.6168081206077,309.3545622165406,865.5314767527805" close="False" data-weight="0.0" stroke-width="7" fill="none" stroke="#1fa562" />
<path d="M553.125,575.625 L553.125,605.625" close="False" data-weight="1.75" stroke-width="7" fill="none" stroke="#1fa562" />
<path d="M553.125,500.625 L553.125,530.625" close="False" data-weight="1.75" stroke-width="7" fill="none" stroke="#1fa562" />
<path d="M553.125,425.625 L553.125,455.625" close="False" data-weight="1.75" stroke-width="7" fill="none" stroke="#1fa562" />
<path d="M553.125,350.625 L553.125,380.625" close="False" data-weight="1.75" stroke-width="7" fill="none" stroke="#1fa562" />
<path d="M553.125,275.625 L553.125,305.625" close="False" data-weight="1.75" stroke-width="7" fill="none" stroke="#1fa562" />
<path d="M553.125,200.625 L553.125,230.625" close="False" data-weight="1.75" stroke-width="7" fill="none" stroke="#1fa562" />
<path d="M553.125,125.625 L553.125,155.625" close="False" data-weight="1.75" stroke-width="7" fill="none" stroke="#1fa562" />
<path d="M494.03490257669733,687.2150974233027 L537.2150974233027,644.0349025766973" close="False" data-weight="2.060660171779821" stroke-width="7" fill="none" stroke="#1fa562" />
<path d="M419.03490257669733,762.2150974233027 L462.21509742330267,719.0349025766973" close="False" data-weight="2.060660171779821" stroke-width="7" fill="none" stroke="#1fa562" />
<path d="M344.03490257669733,837.2150974233027 L387.21509742330267,794.0349025766973" close="False" data-weight="2.060660171779821" stroke-width="7" fill="none" stroke="#1fa562" />
<path d="M265.5314767527804,909.3545622165407 L309.3545622165405,865.5314767527806" close="False" data-weight="2.060660171779821" stroke-width="7" fill="none" stroke="#1fa562" />
<path d="M1003.125,830.625 C1003.125,841.875,1003.125,864.375,1003.125,875.625" close="False" data-weight="0.0" stroke-width="7" fill="none" stroke="#ff1c5d" />
<path d="M1003.125,755.625 C1003.125,766.875,1003.125,789.375,1003.125,800.625" close="False" data-weight="0.0" stroke-width="7" fill="none" stroke="#ff1c5d" />
<path d="M1003.125,725.625 A34.280434255504815,34.280434255504815,0,0,0,997.3986142187191,706.6562233268021 M997.3986142187191,706.6562233268021 A103.64933488289789,103.64933488289789,0,0,0,984.3545622165407,690.7185232472195 M984.3545622165407,690.7185232472195" close="False" data-weight="1.0" stroke-width="7" fill="none" stroke="#ff1c5d" />
<path d="M950.1704076850486,923.625 C939.1477038425244,923.625,917.1022961574756,923.625,906.0795923149514,923.625" close="False" data-weight="0.0" stroke-width="7" fill="none" stroke="#ff1c5d" />
<path d="M875.1704076850486,923.625 C864.1477038425244,923.625,842.1022961574756,923.625,831.0795923149514,923.625" close="False" data-weight="0.0" stroke-width="7" fill="none" stroke="#ff1c5d" />
<path d="M719.0349025766973,1094.0349025766973 A54.31980515339554,54.31980515339554,0,0,0,701.412289481504,1082.259848962172 M701.412289481504,1082.259848962172 A54.319805153393645,54.319805153393645,0,0,0,680.625,1078.125 M680.625,1078.125" close="False" data-weight="1.0" stroke-width="7" fill="none" stroke="#ff1c5d" />
<path d="M725.625,928.125 C714.375,928.125,691.875,928.125,680.625,928.125" close="False" data-weight="0.0" stroke-width="7" fill="none" stroke="#ff1c5d" />
<path d="M650.625,1153.125 C639.375,1153.125,616.875,1153.125,605.625,1153.125" close="False" data-weight="0.0" stroke-width="7" fill="none" stroke="#ff1c5d" />
<path d="M650.625,928.125 A54.31980515339478,54.31980515339478,0,0,0,629.8377105184961,932.2598489621722 M629.8377105184961,932.2598489621722 A54.319805153394256,54.319805153394256,0,0,0,612.2150974233027,944.0349025766973 M612.2150974233027,944.0349025766973" close="False" data-weight="1.0" stroke-width="7" fill="none" stroke="#ff1c5d" />
<path d="M575.625,1153.125 C564.375,1153.125,541.875,1153.125,530.625,1153.125" close="False" data-weight="0.0" stroke-width="7" fill="none" stroke="#ff1c5d" />
<path d="M500.625,1153.125 A54.3198051533966,54.3198051533966,0,0,1,479.8377105184959,1148.990151037828 M479.8377105184959,1148.990151037828 A54.31980515339265,54.31980515339265,0,0,1,462.21509742330267,1137.2150974233027 M462.21509742330267,1137.2150974233027" close="False" data-weight="1.0" stroke-width="7" fill="none" stroke="#ff1c5d" />
<path d="M419.03490257669733,1094.0349025766973 C411.0799512883487,1086.0799512883486,395.1700487116513,1070.1700487116514,387.21509742330267,1062.2150974233027" close="False" data-weight="0.0" stroke-width="7" fill="none" stroke="#ff1c5d" />
<path d="M344.03490257669733,1019.0349025766973 C336.0799512883487,1011.0799512883486,320.1700487116513,995.1700487116514,312.21509742330267,987.2150974233027" close="False" data-weight="0.0" stroke-width="7" fill="none" stroke="#ff1c5d" />
<path d="M1003.125,875.625 L1003.125,905.625" close="False" data-weight="1.75" stroke-width="7" fill="none" stroke="#ff1c5d" />
<path d="M1003.125,800.625 L1003.125,830.625" close="False" data-weight="1.75" stroke-width="7" fill="none" stroke="#ff1c5d" />
<path d="M1003.125,725.625 L1003.125,755.625" close="False" data-weight="1.75" stroke-width="7" fill="none" stroke="#ff1c5d" />
<path d="M950.1704076850486,923.625 L981.0795923149514,923.625" close="False" data-weight="1.75" stroke-width="7" fill="none" stroke="#ff1c5d" />
<path d="M940.5314767527805,646.8954377834593 L984.3545622165407,690.7185232472195" close="False" data-weight="2.060660171779821" stroke-width="7" fill="none" stroke="#ff1c5d" />
<path d="M928.125,575.625 L928.125,605.625" close="False" data-weight="1.75" stroke-width="7" fill="none" stroke="#ff1c5d" />
<path d="M875.1704076850486,923.625 L906.0795923149514,923.625" close="False" data-weight="1.75" stroke-width="7" fill="none" stroke="#ff1c5d" />
<path d="M773.625,1175.1704076850485 L773.625,1206.0795923149515" close="False" data-weight="1.75" stroke-width="7" fill="none" stroke="#ff1c5d" />
<path d="M800.1704076850486,923.625 L831.0795923149514,923.625" close="False" data-weight="1.75" stroke-width="7" fill="none" stroke="#ff1c5d" />
<path d="M725.1704076850486,1223.625 L756.0795923149514,1223.625" close="False" data-weight="1.75" stroke-width="7" fill="none" stroke="#ff1c5d" />
<path d="M707.625,1175.1704076850485 L707.625,1206.0795923149515" close="False" data-weight="1.75" stroke-width="7" fill="none" stroke="#ff1c5d" />
<path d="M719.0349025766973,1094.0349025766973 L762.2150974233027,1137.2150974233027" close="False" data-weight="2.060660171779821" stroke-width="7" fill="none" stroke="#ff1c5d" />
<path d="M725.625,928.125 L755.625,928.125" close="False" data-weight="1.75" stroke-width="7" fill="none" stroke="#ff1c5d" />
<path d="M650.625,1153.125 L680.625,1153.125" close="False" data-weight="1.75" stroke-width="7" fill="none" stroke="#ff1c5d" />
<path d="M650.625,1078.125 L680.625,1078.125" close="False" data-weight="1.75" stroke-width="7" fill="none" stroke="#ff1c5d" />
<path d="M650.625,928.125 L680.625,928.125" close="False" data-weight="1.75" stroke-width="7" fill="none" stroke="#ff1c5d" />
<path d="M575.625,1153.125 L605.625,1153.125" close="False" data-weight="1.75" stroke-width="7" fill="none" stroke="#ff1c5d" />
<path d="M575.625,1078.125 L605.625,1078.125" close="False" data-weight="1.75" stroke-width="7" fill="none" stroke="#ff1c5d" />
<path d="M553.125,1025.625 L553.125,1055.625" close="False" data-weight="1.75" stroke-width="7" fill="none" stroke="#ff1c5d" />
<path d="M569.0349025766973,987.2150974233027 L612.2150974233027,944.0349025766973" close="False" data-weight="2.060660171779821" stroke-width="7" fill="none" stroke="#ff1c5d" />
<path d="M500.625,1153.125 L530.625,1153.125" close="False" data-weight="1.75" stroke-width="7" fill="none" stroke="#ff1c5d" />
<path d="M419.03490257669733,1094.0349025766973 L462.21509742330267,1137.2150974233027" close="False" data-weight="2.060660171779821" stroke-width="7" fill="none" stroke="#ff1c5d" />
<path d="M344.03490257669733,1019.0349025766973 L387.21509742330267,1062.2150974233027" close="False" data-weight="2.060660171779821" stroke-width="7" fill="none" stroke="#ff1c5d" />
<path d="M269.03490257669733,944.0349025766973 L312.21509742330267,987.2150974233027" close="False" data-weight="2.060660171779821" stroke-width="7" fill="none" stroke="#ff1c5d" />
<path d="M1169.0349025766973,837.2150974233027 C1161.0799512883486,845.1700487116514,1145.1700487116514,861.0799512883486,1137.2150974233027,869.0349025766973" close="False" data-weight="0.0" stroke-width="7" fill="none" stroke="#7cd3eb" />
<path d="M1094.0349025766973,912.2150974233027 C1086.0799512883486,920.1700487116514,1070.1700487116514,936.0799512883486,1062.2150974233027,944.0349025766973" close="False" data-weight="0.0" stroke-width="7" fill="none" stroke="#7cd3eb" />
<path d="M1019.0349025766973,987.2150974233027 A54.3198051533949,54.3198051533949,0,0,1,1001.4122894815039,998.9901510378279 M1001.4122894815039,998.9901510378279 A54.31980515339421,54.31980515339421,0,0,1,980.625,1003.125 M980.625,1003.125" close="False" data-weight="1.0" stroke-width="7" fill="none" stroke="#7cd3eb" />
<path d="M1012.125,832.5034093726987 C1012.125,842.8142046863493,1012.125,863.4357953136507,1012.125,873.7465906273013" close="False" data-weight="0.0" stroke-width="7" fill="none" stroke="#7cd3eb" />
<path d="M1012.125,757.5034093726987 C1012.125,767.8142046863493,1012.125,788.4357953136507,1012.125,798.7465906273013" close="False" data-weight="0.0" stroke-width="7" fill="none" stroke="#7cd3eb" />
<path d="M1012.125,723.7465906273013 A38.20881930137591,38.20881930137591,0,0,0,1005.5623320958176,702.3354959763708 M1005.5623320958176,702.3354959763708 A122.53910164176966,122.53910164176966,0,0,0,990.7185232472195,684.3545622165407 M990.7185232472195,684.3545622165407" close="False" data-weight="1.0" stroke-width="7" fill="none" stroke="#7cd3eb" />
<path d="M1025.625,103.125 C1014.375,103.125,991.875,103.125,980.625,103.125" close="False" data-weight="0.0" stroke-width="7" fill="none" stroke="#7cd3eb" />
<path d="M950.625,1003.125 C939.375,1003.125,916.875,1003.125,905.625,1003.125" close="False" data-weight="0.0" stroke-width="7" fill="none" stroke="#7cd3eb" />
<path d="M950.1704076850486,932.625 C939.1477038425244,932.625,917.1022961574756,932.625,906.0795923149514,932.625" close="False" data-weight="0.0" stroke-width="7" fill="none" stroke="#7cd3eb" />
<path d="M928.125,455.625 C928.125,466.875,928.125,489.375,928.125,500.625" close="False" data-weight="0.0" stroke-width="7" fill="none" stroke="#7cd3eb" />
<path d="M928.125,380.625 C928.125,391.875,928.125,414.375,928.125,425.625" close="False" data-weight="0.0" stroke-width="7" fill="none" stroke="#7cd3eb" />
<path d="M928.125,305.625 C928.125,316.875,928.125,339.375,928.125,350.625" close="False" data-weight="0.0" stroke-width="7" fill="none" stroke="#7cd3eb" />
<path d="M928.125,275.625 A54.319805153394555,54.319805153394555,0,0,0,923.9901510378278,254.837710518496 M923.9901510378278,254.837710518496 A54.31980515339474,54.31980515339474,0,0,0,912.2150974233027,237.21509742330267 M912.2150974233027,237.21509742330267" close="False" data-weight="1.0" stroke-width="7" fill="none" stroke="#7cd3eb" />
<path d="M950.625,103.125 C939.375,103.125,916.875,103.125,905.625,103.125" close="False" data-weight="0.0" stroke-width="7" fill="none" stroke="#7cd3eb" />
<path d="M875.625,1003.125 A54.31980515339478,54.31980515339478,0,0,1,854.8377105184961,998.9901510378278 M854.8377105184961,998.9901510378278 A54.319805153394256,54.319805153394256,0,0,1,837.2150974233027,987.2150974233027 M837.2150974233027,987.2150974233027" close="False" data-weight="1.0" stroke-width="7" fill="none" stroke="#7cd3eb" />
<path d="M875.1704076850486,932.625 C864.1477038425244,932.625,842.1022961574756,932.625,831.0795923149514,932.625" close="False" data-weight="0.0" stroke-width="7" fill="none" stroke="#7cd3eb" />
<path d="M1169.0349025766973,837.2150974233027 L1212.2150974233027,794.0349025766973" close="False" data-weight="2.060660171779821" stroke-width="7" fill="none" stroke="#7cd3eb" />
<path d="M1094.0349025766973,912.2150974233027 L1137.2150974233027,869.0349025766973" close="False" data-weight="2.060660171779821" stroke-width="7" fill="none" stroke="#7cd3eb" />
<path d="M1019.0349025766973,987.2150974233027 L1062.2150974233027,944.0349025766973" close="False" data-weight="2.060660171779821" stroke-width="7" fill="none" stroke="#7cd3eb" />
<path d="M1012.125,873.7465906273013 L1012.125,907.5034093726987" close="False" data-weight="1.75" stroke-width="7" fill="none" stroke="#7cd3eb" />
<path d="M1012.125,798.7465906273013 L1012.125,832.5034093726987" close="False" data-weight="1.75" stroke-width="7" fill="none" stroke="#7cd3eb" />
<path d="M1012.125,723.7465906273013 L1012.125,757.5034093726987" close="False" data-weight="1.75" stroke-width="7" fill="none" stroke="#7cd3eb" />
<path d="M1025.625,103.125 L1055.625,103.125" close="False" data-weight="1.75" stroke-width="7" fill="none" stroke="#7cd3eb" />
<path d="M950.625,1003.125 L980.625,1003.125" close="False" data-weight="1.75" stroke-width="7" fill="none" stroke="#7cd3eb" />
<path d="M950.1704076850486,932.625 L981.0795923149514,932.625" close="False" data-weight="1.75" stroke-width="7" fill="none" stroke="#7cd3eb" />
<path d="M946.8954377834593,640.5314767527805 L990.7185232472195,684.3545622165407" close="False" data-weight="2.060660171779821" stroke-width="7" fill="none" stroke="#7cd3eb" />
<path d="M937.125,573.7465906273013 L937.125,607.5034093726987" close="False" data-weight="1.75" stroke-width="7" fill="none" stroke="#7cd3eb" />
<path d="M928.125,500.625 L928.125,530.625" close="False" data-weight="1.75" stroke-width="7" fill="none" stroke="#7cd3eb" />
<path d="M928.125,425.625 L928.125,455.625" close="False" data-weight="1.75" stroke-width="7" fill="none" stroke="#7cd3eb" />
<path d="M928.125,350.625 L928.125,380.625" close="False" data-weight="1.75" stroke-width="7" fill="none" stroke="#7cd3eb" />
<path d="M928.125,275.625 L928.125,305.625" close="False" data-weight="1.75" stroke-width="7" fill="none" stroke="#7cd3eb" />
<path d="M950.625,103.125 L980.625,103.125" close="False" data-weight="1.75" stroke-width="7" fill="none" stroke="#7cd3eb" />
<path d="M875.625,1003.125 L905.625,1003.125" close="False" data-weight="1.75" stroke-width="7" fill="none" stroke="#7cd3eb" />
<path d="M875.1704076850486,932.625 L906.0795923149514,932.625" close="False" data-weight="1.75" stroke-width="7" fill="none" stroke="#7cd3eb" />
<path d="M869.0349025766973,194.03490257669733 L912.2150974233027,237.2150974233027" close="False" data-weight="2.060660171779821" stroke-width="7" fill="none" stroke="#7cd3eb" />
<path d="M875.625,103.125 L905.625,103.125" close="False" data-weight="1.75" stroke-width="7" fill="none" stroke="#7cd3eb" />
<path d="M794.0349025766973,944.0349025766973 L837.2150974233027,987.2150974233027" close="False" data-weight="2.060660171779821" stroke-width="7" fill="none" stroke="#7cd3eb" />
<path d="M800.1704076850486,932.625 L831.0795923149514,932.625" close="False" data-weight="1.75" stroke-width="7" fill="none" stroke="#7cd3eb" />
<path d="M794.0349025766973,119.03490257669732 L837.2150974233027,162.2150974233027" close="False" data-weight="2.060660171779821" stroke-width="7" fill="none" stroke="#7cd3eb" />
<path d="M800.625,103.125 L830.625,103.125" close="False" data-weight="1.75" stroke-width="7" fill="none" stroke="#7cd3eb" />
<path d="M1175.625,778.125 A54.31980515339285,54.31980515339285,0,0,0,1154.837710518496,782.2598489621724 M1154.837710518496,782.2598489621724 A54.31980515339619,54.31980515339619,0,0,0,1137.2150974233027,794.0349025766973 M1137.2150974233027,794.0349025766973" close="False" data-weight="1.0" stroke-width="7" fill="none" stroke="#8f0f12" />
<path d="M1094.0349025766973,837.2150974233027 C1086.0799512883486,845.1700487116514,1070.1700487116514,861.0799512883486,1062.2150974233027,869.0349025766973" close="False" data-weight="0.0" stroke-width="7" fill="none" stroke="#8f0f12" />
<path d="M944.0349025766973,987.2150974233027 C936.0799512883486,995.1700487116514,920.1700487116514,1011.0799512883486,912.2150974233027,1019.0349025766973" close="False" data-weight="0.0" stroke-width="7" fill="none" stroke="#8f0f12" />
<path d="M869.0349025766973,1062.2150974233027 C861.0799512883486,1070.1700487116514,845.1700487116514,1086.0799512883486,837.2150974233027,1094.0349025766973" close="False" data-weight="0.0" stroke-width="7" fill="none" stroke="#8f0f12" />
<path d="M1175.625,778.125 L1205.625,778.125" close="False" data-weight="1.75" stroke-width="7" fill="none" stroke="#8f0f12" />
<path d="M1094.0349025766973,837.2150974233027 L1137.2150974233027,794.0349025766973" close="False" data-weight="2.060660171779821" stroke-width="7" fill="none" stroke="#8f0f12" />
<path d="M1019.0349025766973,912.2150974233027 L1062.2150974233027,869.0349025766973" close="False" data-weight="2.060660171779821" stroke-width="7" fill="none" stroke="#8f0f12" />
<path d="M944.0349025766973,987.2150974233027 L987.2150974233027,944.0349025766973" close="False" data-weight="2.060660171779821" stroke-width="7" fill="none" stroke="#8f0f12" />
<path d="M869.0349025766973,1062.2150974233027 L912.2150974233027,1019.0349025766973" close="False" data-weight="2.060660171779821" stroke-width="7" fill="none" stroke="#8f0f12" />
<path d="M782.625,1175.1704076850485 L782.625,1206.0795923149515" close="False" data-weight="1.75" stroke-width="7" fill="none" stroke="#8f0f12" />
<path d="M794.0349025766973,1137.2150974233027 L837.2150974233027,1094.0349025766973" close="False" data-weight="2.060660171779821" stroke-width="7" fill="none" stroke="#8f0f12" />
<path d="M725.1704076850486,1232.625 L756.0795923149514,1232.625" close="False" data-weight="1.75" stroke-width="7" fill="none" stroke="#8f0f12" />
<path d="M698.625,1175.1704076850485 L698.625,1206.0795923149515" close="False" data-weight="1.75" stroke-width="7" fill="none" stroke="#8f0f12" />
<path d="M994.125,832.5034093726987 C994.125,842.8142046863493,994.125,863.4357953136507,994.125,873.7465906273013" close="False" data-weight="0.0" stroke-width="7" fill="none" stroke="#90ea66" />
<path d="M994.125,757.5034093726987 C994.125,767.8142046863493,994.125,788.4357953136507,994.125,798.7465906273013" close="False" data-weight="0.0" stroke-width="7" fill="none" stroke="#90ea66" />
<path d="M1003.125,680.625 C1003.125,691.6376960204705,994.125,712.7338946068309,994.125,723.7465906273013" close="False" data-weight="0.0" stroke-width="7" fill="none" stroke="#90ea66" />
<path d="M1003.125,605.625 C1003.125,616.875,1003.125,639.375,1003.125,650.625" close="False" data-weight="0.0" stroke-width="7" fill="none" stroke="#90ea66" />
<path d="M1003.125,530.625 C1003.125,541.875,1003.125,564.375,1003.125,575.625" close="False" data-weight="0.0" stroke-width="7" fill="none" stroke="#90ea66" />
<path d="M1003.125,455.625 C1003.125,466.875,1003.125,489.375,1003.125,500.625" close="False" data-weight="0.0" stroke-width="7" fill="none" stroke="#90ea66" />
<path d="M1003.125,380.625 C1003.125,391.875,1003.125,414.375,1003.125,425.625" close="False" data-weight="0.0" stroke-width="7" fill="none" stroke="#90ea66" />
<path d="M1003.125,305.625 C1003.125,316.875,1003.125,339.375,1003.125,350.625" close="False" data-weight="0.0" stroke-width="7" fill="none" stroke="#90ea66" />
<path d="M1003.125,230.625 C1003.125,241.875,1003.125,264.375,1003.125,275.625" close="False" data-weight="0.0" stroke-width="7" fill="none" stroke="#90ea66" />
<path d="M1019.0349025766973,162.2150974233027 A54.31980515339484,54.31980515339484,0,0,0,1007.2598489621722,179.83771051849607 M1007.2598489621722,179.83771051849607 A54.31980515339433,54.31980515339433,0,0,0,1003.125,200.625 M1003.125,200.625" close="False" data-weight="1.0" stroke-width="7" fill="none" stroke="#90ea66" />
<path d="M944.0349025766973,869.0349025766973 A54.3198051533949,54.3198051533949,0,0,0,926.4122894815039,857.2598489621721 M926.4122894815039,857.2598489621721 A54.31980515339421,54.31980515339421,0,0,0,905.625,853.125 M905.625,853.125" close="False" data-weight="1.0" stroke-width="7" fill="none" stroke="#90ea66" />
<path d="M875.625,853.125 C864.375,853.125,841.875,853.125,830.625,853.125" close="False" data-weight="0.0" stroke-width="7" fill="none" stroke="#90ea66" />
<path d="M800.625,853.125 C789.375,853.125,766.875,853.125,755.625,853.125" close="False" data-weight="0.0" stroke-width="7" fill="none" stroke="#90ea66" />
<path d="M725.625,853.125 C714.375,853.125,691.875,853.125,680.625,853.125" close="False" data-weight="0.0" stroke-width="7" fill="none" stroke="#90ea66" />
<path d="M650.625,853.125 C639.375,853.125,616.875,853.125,605.625,853.125" close="False" data-weight="0.0" stroke-width="7" fill="none" stroke="#90ea66" />
<path d="M575.625,853.125 C564.375,853.125,541.875,853.125,530.625,853.125" close="False" data-weight="0.0" stroke-width="7" fill="none" stroke="#90ea66" />
<path d="M500.625,853.125 C489.375,853.125,466.875,853.125,455.625,853.125" close="False" data-weight="0.0" stroke-width="7" fill="none" stroke="#90ea66" />
<path d="M425.625,853.125 C414.375,853.125,391.875,853.125,380.625,853.125" close="False" data-weight="0.0" stroke-width="7" fill="none" stroke="#90ea66" />
<path d="M350.625,853.125 A34.280434255504474,34.280434255504474,0,0,0,331.6562233268022,858.8513857812809 M331.6562233268022,858.8513857812809 A103.64933488289971,103.64933488289971,0,0,0,315.7185232472196,871.8954377834593 M315.7185232472196,871.8954377834593" close="False" data-weight="1.0" stroke-width="7" fill="none" stroke="#90ea66" />
<path d="M994.125,873.7465906273013 L994.125,907.5034093726987" close="False" data-weight="1.75" stroke-width="7" fill="none" stroke="#90ea66" />
<path d="M994.125,798.7465906273013 L994.125,832.5034093726987" close="False" data-weight="1.75" stroke-width="7" fill="none" stroke="#90ea66" />
<path d="M994.125,723.7465906273013 L994.125,757.5034093726987" close="False" data-weight="1.75" stroke-width="7" fill="none" stroke="#90ea66" />
<path d="M1003.125,650.625 L1003.125,680.625" close="False" data-weight="1.75" stroke-width="7" fill="none" stroke="#90ea66" />
<path d="M1003.125,575.625 L1003.125,605.625" close="False" data-weight="1.75" stroke-width="7" fill="none" stroke="#90ea66" />
<path d="M1003.125,500.625 L1003.125,530.625" close="False" data-weight="1.75" stroke-width="7" fill="none" stroke="#90ea66" />
<path d="M1003.125,425.625 L1003.125,455.625" close="False" data-weight="1.75" stroke-width="7" fill="none" stroke="#90ea66" />
<path d="M1003.125,350.625 L1003.125,380.625" close="False" data-weight="1.75" stroke-width="7" fill="none" stroke="#90ea66" />
<path d="M1003.125,275.625 L1003.125,305.625" close="False" data-weight="1.75" stroke-width="7" fill="none" stroke="#90ea66" />
<path d="M1003.125,200.625 L1003.125,230.625" close="False" data-weight="1.75" stroke-width="7" fill="none" stroke="#90ea66" />
<path d="M1019.0349025766973,162.21509742330267 L1062.2150974233027,119.0349025766973" close="False" data-weight="2.060660171779821" stroke-width="7" fill="none" stroke="#90ea66" />
<path d="M944.0349025766973,869.0349025766973 L987.2150974233027,912.2150974233027" close="False" data-weight="2.060660171779821" stroke-width="7" fill="none" stroke="#90ea66" />
<path d="M875.625,853.125 L905.625,853.125" close="False" data-weight="1.75" stroke-width="7" fill="none" stroke="#90ea66" />
<path d="M800.625,853.125 L830.625,853.125" close="False" data-weight="1.75" stroke-width="7" fill="none" stroke="#90ea66" />
<path d="M725.625,853.125 L755.625,853.125" close="False" data-weight="1.75" stroke-width="7" fill="none" stroke="#90ea66" />
<path d="M650.625,853.125 L680.625,853.125" close="False" data-weight="1.75" stroke-width="7" fill="none" stroke="#90ea66" />
<path d="M575.625,853.125 L605.625,853.125" close="False" data-weight="1.75" stroke-width="7" fill="none" stroke="#90ea66" />
<path d="M500.625,853.125 L530.625,853.125" close="False" data-weight="1.75" stroke-width="7" fill="none" stroke="#90ea66" />
<path d="M425.625,853.125 L455.625,853.125" close="False" data-weight="1.75" stroke-width="7" fill="none" stroke="#90ea66" />
<path d="M350.625,853.125 L380.625,853.125" close="False" data-weight="1.75" stroke-width="7" fill="none" stroke="#90ea66" />
<path d="M271.8954377834594,915.7185232472195 L315.7185232472197,871.8954377834592" close="False" data-weight="2.060660171779821" stroke-width="7" fill="none" stroke="#90ea66" />
<path d="M875.625,628.125 C864.375,628.125,841.875,628.125,830.625,628.125" close="False" data-weight="0.0" stroke-width="7" fill="none" stroke="#35618f" />
<path d="M800.625,628.125 C789.375,628.125,766.875,628.125,755.625,628.125" close="False" data-weight="0.0" stroke-width="7" fill="none" stroke="#35618f" />
<path d="M725.625,628.125 C714.375,628.125,691.875,628.125,680.625,628.125" close="False" data-weight="0.0" stroke-width="7" fill="none" stroke="#35618f" />
<path d="M650.625,628.125 C639.375,628.125,616.875,628.125,605.625,628.125" close="False" data-weight="0.0" stroke-width="7" fill="none" stroke="#35618f" />
<path d="M575.625,628.125 C564.375,628.125,541.875,628.125,530.625,628.125" close="False" data-weight="0.0" stroke-width="7" fill="none" stroke="#35618f" />
<path d="M500.625,628.125 C489.375,628.125,466.875,628.125,455.625,628.125" close="False" data-weight="0.0" stroke-width="7" fill="none" stroke="#35618f" />
<path d="M919.125,573.7465906273013 L919.125,607.5034093726987" close="False" data-weight="1.75" stroke-width="7" fill="none" stroke="#35618f" />
<path d="M875.625,628.125 L905.625,628.125" close="False" data-weight="1.75" stroke-width="7" fill="none" stroke="#35618f" />
<path d="M800.625,628.125 L830.625,628.125" close="False" data-weight="1.75" stroke-width="7" fill="none" stroke="#35618f" />
<path d="M725.625,628.125 L755.625,628.125" close="False" data-weight="1.75" stroke-width="7" fill="none" stroke="#35618f" />
<path d="M650.625,628.125 L680.625,628.125" close="False" data-weight="1.75" stroke-width="7" fill="none" stroke="#35618f" />
<path d="M575.625,628.125 L605.625,628.125" close="False" data-weight="1.75" stroke-width="7" fill="none" stroke="#35618f" />
<path d="M500.625,628.125 L530.625,628.125" close="False" data-weight="1.75" stroke-width="7" fill="none" stroke="#35618f" />
<path d="M425.625,628.125 L455.625,628.125" close="False" data-weight="1.75" stroke-width="7" fill="none" stroke="#35618f" />
<path d="M350.625,628.125 L380.625,628.125" close="False" data-weight="1.75" stroke-width="7" fill="none" stroke="#35618f" />
<image x="1195.625" y="745.625" width="65" height="65" xlink:href="designspace-test/./img/ds_dataset0_20_3_thumb.png" data-node="True" data-id="3" />
<image x="1045.625" y="70.625" width="65" height="65" xlink:href="designspace-test/./img/ds_dataset0_20_2_thumb.png" data-node="True" data-id="2" />
<image x="970.625" y="895.625" width="65" height="65" xlink:href="designspace-test/./img/ds_dataset0_20_19_thumb.png" data-node="True" data-id="19" />
<image x="895.625" y="595.625" width="65" height="65" xlink:href="designspace-test/./img/ds_dataset0_20_4_thumb.png" data-node="True" data-id="4" />
<image x="895.625" y="520.625" width="65" height="65" xlink:href="designspace-test/./img/ds_dataset0_20_15_thumb.png" data-node="True" data-id="15" />
<image x="820.625" y="145.625" width="65" height="65" xlink:href="designspace-test/./img/ds_dataset0_20_16_thumb.png" data-node="True" data-id="16" />
<image x="820.625" y="70.625" width="65" height="65" xlink:href="designspace-test/./img/ds_dataset0_20_11_thumb.png" data-node="True" data-id="11" />
<image x="745.625" y="1195.625" width="65" height="65" xlink:href="designspace-test/./img/ds_dataset0_20_8_thumb.png" data-node="True" data-id="8" />
<image x="745.625" y="1120.625" width="65" height="65" xlink:href="designspace-test/./img/ds_dataset0_20_14_thumb.png" data-node="True" data-id="14" />
<image x="745.625" y="895.625" width="65" height="65" xlink:href="designspace-test/./img/ds_dataset0_20_7_thumb.png" data-node="True" data-id="7" />
<image x="745.625" y="70.625" width="65" height="65" xlink:href="designspace-test/./img/ds_dataset0_20_13_thumb.png" data-node="True" data-id="13" />
<image x="670.625" y="1195.625" width="65" height="65" xlink:href="designspace-test/./img/ds_dataset0_20_12_thumb.png" data-node="True" data-id="12" />
<image x="670.625" y="1120.625" width="65" height="65" xlink:href="designspace-test/./img/ds_dataset0_20_0_thumb.png" data-node="True" data-id="0" />
<image x="595.625" y="1045.625" width="65" height="65" xlink:href="designspace-test/./img/ds_dataset0_20_10_thumb.png" data-node="True" data-id="10" />
<image x="520.625" y="1045.625" width="65" height="65" xlink:href="designspace-test/./img/ds_dataset0_20_17_thumb.png" data-node="True" data-id="17" />
<image x="520.625" y="970.625" width="65" height="65" xlink:href="designspace-test/./img/ds_dataset0_20_5_thumb.png" data-node="True" data-id="5" />
<image x="520.625" y="70.625" width="65" height="65" xlink:href="designspace-test/./img/ds_dataset0_20_6_thumb.png" data-node="True" data-id="6" />
<image x="370.625" y="595.625" width="65" height="65" xlink:href="designspace-test/./img/ds_dataset0_20_9_thumb.png" data-node="True" data-id="9" />
<image x="295.625" y="595.625" width="65" height="65" xlink:href="designspace-test/./img/ds_dataset0_20_1_thumb.png" data-node="True" data-id="1" />
<image x="220.625" y="895.625" width="65" height="65" xlink:href="designspace-test/./img/ds_dataset0_20_18_thumb.png" data-node="True" data-id="18" />
</svg>