<?xml version="1.0" encoding="UTF-8"?>
<svg xmlns="http://www.w3.org/2000/svg" xmlns:xlink="http://www.w3.org/1999/xlink"
     viewBox="0 0 1350 1350" preserveAspectRatio="xMidYMid meet">
<defs>
</defs>
<path d="M944.0349025766973,869.0349025766973 C936.0799512883486,861.0799512883486,920.1700487116514,845.1700487116514,912.2150974233027,837.2150974233027" close="False" data-weight="0.0" stroke-width="7" fill="none" stroke="#1fa562" />
<path d="M869.0349025766973,794.0349025766973 C861.0799512883486,786.0799512883486,845.1700487116514,770.1700487116514,837.2150974233027,762.2150974233027" close="False" data-weight="0.0" stroke-width="7" fill="none" stroke="#1fa562" />
<path d="M794.0349025766973,719.0349025766973 C786.0799512883486,711.0799512883486,770.1700487116514,695.1700487116514,762.2150974233027,687.2150974233027" close="False" data-weight="0.0" stroke-width="7" fill="none" stroke="#1fa562" />
<path d="M719.0349025766973,644.0349025766973 C711.0799512883486,636.0799512883486,695.1700487116514,620.1700487116514,687.2150974233027,612.2150974233027" close="False" data-weight="0.0" stroke-width="7" fill="none" stroke="#1fa562" />
<path d="M644.0349025766973,569.0349025766973 C636.0799512883486,561.0799512883486,620.1700487116514,545.1700487116514,612.2150974233027,537.2150974233027" close="False" data-weight="0.0" stroke-width="7" fill="none" stroke="#1fa562" />
<path d="M569.0349025766973,494.03490257669733 C561.0799512883486,486.0799512883487,545.1700487116514,470.1700487116513,537.2150974233027,462.21509742330267" close="False" data-weight="0.0" stroke-width="7" fill="none" stroke="#1fa562" />
<path d="M494.03490257669733,419.03490257669733 C486.07995128834864,411.07995128834864,470.17004871165136,395.17004871165136,462.21509742330267,387.21509742330267" close="False" data-weight="0.0" stroke-width="7" fill="none" stroke="#1fa562" />
<path d="M412.125,307.50340937269874 A6667.23513068648,6667.23513068648,0,0,1,412.0958693631346,327.21230996054067 M412.0958693631346,327.21230996054067 A23.691694727419073,23.691694727419073,0,0,0,419.03490257669733,344.03490257669733 M419.03490257669733,344.03490257669733" close="False" data-weight="1.0" stroke-width="7" fill="none" stroke="#1fa562" />
<path d="M944.0349025766973,869.0349025766973 L987.2150974233027,912.2150974233027" close="False" data-weight="2.060660171779821" stroke-width="7" fill="none" stroke="#1fa562" />
<path d="M869.0349025766973,794.0349025766973 L912.2150974233027,837.2150974233027" close="False" data-weight="2.060660171779821" stroke-width="7" fill="none" stroke="#1fa562" />
<path d="M794.0349025766973,719.0349025766973 L837.2150974233027,762.2150974233027" close="False" data-weight="2.060660171779821" stroke-width="7" fill="none" stroke="#1fa562" />
<path d="M719.0349025766973,644.0349025766973 L762.2150974233027,687.2150974233027" close="False" data-weight="2.060660171779821" stroke-width="7" fill="none" stroke="#1fa562" />
<path d="M644.0349025766973,569.0349025766973 L687.2150974233027,612.2150974233027" close="False" data-weight="2.060660171779821" stroke-width="7" fill="none" stroke="#1fa562" />
<path d="M569.0349025766973,494.03490257669733 L612.2150974233027,537.2150974233027" close="False" data-weight="2.060660171779821" stroke-width="7" fill="none" stroke="#1fa562" />
<path d="M494.03490257669733,419.03490257669733 L537.2150974233027,462.21509742330267" close="False" data-weight="2.060660171779821" stroke-width="7" fill="none" stroke="#1fa562" />
<path d="M419.03490257669733,344.03490257669733 L462.21509742330267,387.21509742330267" close="False" data-weight="2.060660171779821" stroke-width="7" fill="none" stroke="#1fa562" />
<path d="M412.125,273.74659062730126 L412.125,307.50340937269874" close="False" data-weight="1.75" stroke-width="7" fill="none" stroke="#1fa562" />
<path d="M1228.125,380.625 C1228.125,391.875,1228.125,414.375,1228.125,425.625" close="False" data-weight="0.0" stroke-width="7" fill="none" stroke="#ff1c5d" />
<path d="M1228.125,305.625 C1228.125,316.875,1228.125,339.375,1228.125,350.625" close="False" data-weight="0.0" stroke-width="7" fill="none" stroke="#ff1c5d" />
<path d="M1228.125,275.625 A54.3198051533966,54.3198051533966,0,0,0,1223.990151037828,254.8377105184959 M1223.990151037828,254.8377105184959 A54.31980515339265,54.31980515339265,0,0,0,1212.2150974233027,237.21509742330267 M1212.2150974233027,237.21509742330267" close="False" data-weight="1.0" stroke-width="7" fill="none" stroke="#ff1c5d" />
<path d="M1153.125,1130.625 C1153.125,1141.875,1153.125,1164.375,1153.125,1175.625" close="False" data-weight="0.0" stroke-width="7" fill="none" stroke="#ff1c5d" />
<path d="M1153.125,1055.625 C1153.125,1066.875,1153.125,1089.375,1153.125,1100.625" close="False" data-weight="0.0" stroke-width="7" fill="none" stroke="#ff1c5d" />
<path d="M1153.125,1025.625 A54.31980515339637,54.31980515339637,0,0,0,1148.990151037828,1004.837710518496 M1148.990151037828,1004.837710518496 A54.31980515339265,54.31980515339265,0,0,0,1137.2150974233027,987.2150974233027 M1137.2150974233027,987.2150974233027" close="False" data-weight="1.0" stroke-width="7" fill="none" stroke="#ff1c5d" />
<path d="M1171.8954377834596,540.7185232472194 C1164.1012091494015,548.5127518812775,1148.512751881285,564.1012091493936,1140.718523247227,571.8954377834518" close="False" data-weight="0.0" stroke-width="7" fill="none" stroke="#ff1c5d" />
<path d="M1094.0349025766973,944.0349025766973 C1086.0799512883486,936.0799512883486,1070.1700487116514,920.1700487116514,1062.2150974233027,912.2150974233027" close="False" data-weight="0.0" stroke-width="7" fill="none" stroke="#ff1c5d" />
<path d="M1096.895437783452,615.7185232472268 C1089.1012091493958,623.5127518812831,1073.5127518812833,639.1012091493956,1065.718523247227,646.8954377834518" close="False" data-weight="0.0" stroke-width="7" fill="none" stroke="#ff1c5d" />
<path d="M1094.0349025766973,237.2150974233027 C1086.0799512883486,245.17004871165133,1070.1700487116514,261.0799512883487,1062.2150974233027,269.03490257669733" close="False" data-weight="0.0" stroke-width="7" fill="none" stroke="#ff1c5d" />
<path d="M1007.625,756.0795923149514 C1007.625,767.1022961574756,1007.625,789.1477038425244,1007.625,800.1704076850486" close="False" data-weight="0.0" stroke-width="7" fill="none" stroke="#ff1c5d" />
<path d="M1021.8954377834522,690.7185232472267 A48.72232222124838,48.72232222124838,0,0,0,1011.3337659446173,706.525182184612 M1011.3337659446173,706.525182184612 A48.72232222130219,48.72232222130219,0,0,0,1007.625,725.1704076850486 M1007.625,725.1704076850486" close="False" data-weight="1.0" stroke-width="7" fill="none" stroke="#ff1c5d" />
<path d="M1019.0349025766973,312.21509742330267 A54.3198051533949,54.3198051533949,0,0,1,1001.4122894815039,323.9901510378278 M1001.4122894815039,323.9901510378278 A54.31980515339427,54.31980515339427,0,0,1,980.625,328.125 M980.625,328.125" close="False" data-weight="1.0" stroke-width="7" fill="none" stroke="#ff1c5d" />
<path d="M950.625,328.125 C939.375,328.125,916.875,328.125,905.625,328.125" close="False" data-weight="0.0" stroke-width="7" fill="none" stroke="#ff1c5d" />
<path d="M875.625,328.125 C864.375,328.125,841.875,328.125,830.625,328.125" close="False" data-weight="0.0" stroke-width="7" fill="none" stroke="#ff1c5d" />
<path d="M800.625,328.125 C789.375,328.125,766.875,328.125,755.625,328.125" close="False" data-weight="0.0" stroke-width="7" fill="none" stroke="#ff1c5d" />
<path d="M725.1704076850486,848.625 A57.72232222128764,57.72232222128764,0,0,0,703.0810312933223,853.0188501520187 M703.0810312933223,853.0188501520187 A57.72232222128921,57.72232222128921,0,0,0,684.3545622165407,865.5314767527805 M684.3545622165407,865.5314767527805" close="False" data-weight="1.0" stroke-width="7" fill="none" stroke="#ff1c5d" />
<path d="M698.625,756.0795923149514 A57.72232222128764,57.72232222128764,0,0,0,703.0188501520187,778.1689687066777 M703.0188501520187,778.1689687066777 A57.72232222128921,57.72232222128921,0,0,0,715.5314767527805,796.8954377834593 M715.5314767527805,796.8954377834593" close="False" data-weight="1.0" stroke-width="7" fill="none" stroke="#ff1c5d" />
<path d="M698.625,681.0795923149514 C698.625,692.1022961574756,698.625,714.1477038425244,698.625,725.1704076850486" close="False" data-weight="0.0" stroke-width="7" fill="none" stroke="#ff1c5d" />
<path d="M698.625,606.0795923149514 C698.625,617.1022961574756,698.625,639.1477038425244,698.625,650.1704076850486" close="False" data-weight="0.0" stroke-width="7" fill="none" stroke="#ff1c5d" />
<path d="M698.625,531.0795923149514 C698.625,542.1022961574756,698.625,564.1477038425244,698.625,575.1704076850486" close="False" data-weight="0.0" stroke-width="7" fill="none" stroke="#ff1c5d" />
<path d="M698.625,456.0795923149514 C698.625,467.10229615747573,698.625,489.14770384252427,698.625,500.1704076850486" close="False" data-weight="0.0" stroke-width="7" fill="none" stroke="#ff1c5d" />
<path d="M698.625,381.0795923149514 C698.625,392.10229615747573,698.625,414.14770384252427,698.625,425.1704076850486" close="False" data-weight="0.0" stroke-width="7" fill="none" stroke="#ff1c5d" />
<path d="M565.5314767527805,871.8954377834593 C557.7372481187206,864.1012091493994,542.1487908506006,848.5127518812794,534.3545622165407,840.7185232472195" close="False" data-weight="0.0" stroke-width="7" fill="none" stroke="#ff1c5d" />
<path d="M490.53147675278416,796.8954377834631 C482.73724811872233,789.1012091494013,467.14879085059874,773.5127518812776,459.3545622165369,765.7185232472158" close="False" data-weight="0.0" stroke-width="7" fill="none" stroke="#ff1c5d" />
<path d="M425.1704076850486,923.625 C414.14770384252427,923.625,392.10229615747573,923.625,381.0795923149514,923.625" close="False" data-weight="0.0" stroke-width="7" fill="none" stroke="#ff1c5d" />
<path d="M398.625,681.0795923149514 A57.72232222128764,57.72232222128764,0,0,0,403.0188501520187,703.1689687066777 M403.0188501520187,703.1689687066777 A57.7223222212901,57.7223222212901,0,0,0,415.5314767527804,721.8954377834593 M415.5314767527804,721.8954377834593" close="False" data-weight="1.0" stroke-width="7" fill="none" stroke="#ff1c5d" />
<path d="M398.625,606.0795923149514 C398.625,617.1022961574756,398.625,639.1477038425244,398.625,650.1704076850486" close="False" data-weight="0.0" stroke-width="7" fill="none" stroke="#ff1c5d" />
<path d="M398.625,531.0795923149514 C398.625,542.1022961574756,398.625,564.1477038425244,398.625,575.1704076850486" close="False" data-weight="0.0" stroke-width="7" fill="none" stroke="#ff1c5d" />
<path d="M398.625,456.0795923149514 C398.625,467.10229615747573,398.625,489.14770384252427,398.625,500.1704076850486" close="False" data-weight="0.0" stroke-width="7" fill="none" stroke="#ff1c5d" />
<path d="M398.625,381.0795923149514 C398.625,392.10229615747573,398.625,414.14770384252427,398.625,425.1704076850486" close="False" data-weight="0.0" stroke-width="7" fill="none" stroke="#ff1c5d" />
<path d="M394.125,307.50340937269874 C394.125,318.22932059560327,398.625,339.44449646214406,398.625,350.1704076850486" close="False" data-weight="0.0" stroke-width="7" fill="none" stroke="#ff1c5d" />
<path d="M350.1704076850486,923.625 A48.722322221288664,48.722322221288664,0,0,1,331.52518218460807,919.9162340553798 M331.52518218460807,919.9162340553798 A48.722322221287975,48.722322221287975,0,0,1,315.7185232472196,909.3545622165407 M315.7185232472196,909.3545622165407" close="False" data-weight="1.0" stroke-width="7" fill="none" stroke="#ff1c5d" />
<path d="M328.125,680.625 A54.319805153393474,54.319805153393474,0,0,1,323.99015103782773,701.4122894815039 M323.99015103782773,701.4122894815039 A54.319805153395706,54.319805153395706,0,0,1,312.21509742330267,719.0349025766973 M312.21509742330267,719.0349025766973" close="False" data-weight="1.0" stroke-width="7" fill="none" stroke="#ff1c5d" />
<path d="M328.125,605.625 C328.125,616.875,328.125,639.375,328.125,650.625" close="False" data-weight="0.0" stroke-width="7" fill="none" stroke="#ff1c5d" />
<path d="M328.125,530.625 C328.125,541.875,328.125,564.375,328.125,575.625" close="False" data-weight="0.0" stroke-width="7" fill="none" stroke="#ff1c5d" />
<path d="M328.125,380.625 C328.125,391.875,328.125,414.375,328.125,425.625" close="False" data-weight="0.0" stroke-width="7" fill="none" stroke="#ff1c5d" />
<path d="M344.03490257669733,312.21509742330267 A54.3198051533945,54.3198051533945,0,0,0,332.2598489621722,329.837710518496 M332.2598489621722,329.837710518496 A54.31980515339484,54.31980515339484,0,0,0,328.125,350.625 M328.125,350.625" close="False" data-weight="1.0" stroke-width="7" fill="none" stroke="#ff1c5d" />
<path d="M271.8954377834595,865.5314767527806 C264.1012091493995,857.7372481187206,248.51275188127954,842.1487908506007,240.71852324721957,834.3545622165407" close="False" data-weight="0.0" stroke-width="7" fill="none" stroke="#ff1c5d" />
<path d="M1228.125,425.625 L1228.125,455.625" close="False" data-weight="1.75" stroke-width="7" fill="none" stroke="#ff1c5d" />
<path d="M1228.125,350.625 L1228.125,380.625" close="False" data-weight="1.75" stroke-width="7" fill="none" stroke="#ff1c5d" />
<path d="M1228.125,275.625 L1228.125,305.625" close="False" data-weight="1.75" stroke-width="7" fill="none" stroke="#ff1c5d" />
<path d="M1153.125,1175.625 L1153.125,1205.625" close="False" data-weight="1.75" stroke-width="7" fill="none" stroke="#ff1c5d" />
<path d="M1153.125,1100.625 L1153.125,1130.625" close="False" data-weight="1.75" stroke-width="7" fill="none" stroke="#ff1c5d" />
<path d="M1153.125,1025.625 L1153.125,1055.625" close="False" data-weight="1.75" stroke-width="7" fill="none" stroke="#ff1c5d" />
<path d="M1171.895437783452,540.718523247227 L1215.7185232472198,496.89543778345916" close="False" data-weight="2.060660171779821" stroke-width="7" fill="none" stroke="#ff1c5d" />
<path d="M1169.0349025766973,194.03490257669733 L1212.2150974233027,237.2150974233027" close="False" data-weight="2.060660171779821" stroke-width="7" fill="none" stroke="#ff1c5d" />
<path d="M1094.0349025766973,944.0349025766973 L1137.2150974233027,987.2150974233027" close="False" data-weight="2.060660171779821" stroke-width="7" fill="none" stroke="#ff1c5d" />
<path d="M1096.895437783452,615.718523247227 L1140.7185232472273,571.8954377834517" close="False" data-weight="2.060660171779821" stroke-width="7" fill="none" stroke="#ff1c5d" />
<path d="M1094.0349025766973,237.21509742330267 L1137.2150974233027,194.0349025766973" close="False" data-weight="2.060660171779821" stroke-width="7" fill="none" stroke="#ff1c5d" />
<path d="M1019.0349025766973,869.0349025766973 L1062.2150974233027,912.2150974233027" close="False" data-weight="2.060660171779821" stroke-width="7" fill="none" stroke="#ff1c5d" />
<path d="M1007.625,800.1704076850486 L1007.625,831.0795923149514" close="False" data-weight="1.75" stroke-width="7" fill="none" stroke="#ff1c5d" />
<path d="M1007.625,725.1704076850486 L1007.625,756.0795923149514" close="False" data-weight="1.75" stroke-width="7" fill="none" stroke="#ff1c5d" />
<path d="M1021.8954377834593,690.7185232472195 L1065.7185232472195,646.8954377834593" close="False" data-weight="2.060660171779821" stroke-width="7" fill="none" stroke="#ff1c5d" />
<path d="M1019.0349025766973,312.21509742330267 L1062.2150974233027,269.03490257669733" close="False" data-weight="2.060660171779821" stroke-width="7" fill="none" stroke="#ff1c5d" />
<path d="M950.625,328.125 L980.625,328.125" close="False" data-weight="1.75" stroke-width="7" fill="none" stroke="#ff1c5d" />
<path d="M875.625,328.125 L905.625,328.125" close="False" data-weight="1.75" stroke-width="7" fill="none" stroke="#ff1c5d" />
<path d="M800.625,328.125 L830.625,328.125" close="False" data-weight="1.75" stroke-width="7" fill="none" stroke="#ff1c5d" />
<path d="M725.1704076850486,848.625 L756.0795923149514,848.625" close="False" data-weight="1.75" stroke-width="7" fill="none" stroke="#ff1c5d" />
<path d="M715.5314767527805,796.8954377834593 L759.3545622165407,840.7185232472195" close="False" data-weight="2.060660171779821" stroke-width="7" fill="none" stroke="#ff1c5d" />
<path d="M698.625,725.1704076850486 L698.625,756.0795923149514" close="False" data-weight="1.75" stroke-width="7" fill="none" stroke="#ff1c5d" />
<path d="M698.625,650.1704076850486 L698.625,681.0795923149514" close="False" data-weight="1.75" stroke-width="7" fill="none" stroke="#ff1c5d" />
<path d="M698.625,575.1704076850486 L698.625,606.0795923149514" close="False" data-weight="1.75" stroke-width="7" fill="none" stroke="#ff1c5d" />
<path d="M698.625,500.1704076850486 L698.625,531.0795923149514" close="False" data-weight="1.75" stroke-width="7" fill="none" stroke="#ff1c5d" />
<path d="M698.625,425.1704076850486 L698.625,456.0795923149514" close="False" data-weight="1.75" stroke-width="7" fill="none" stroke="#ff1c5d" />
<path d="M698.625,350.1704076850486 L698.625,381.0795923149514" close="False" data-weight="1.75" stroke-width="7" fill="none" stroke="#ff1c5d" />
<path d="M725.625,328.125 L755.625,328.125" close="False" data-weight="1.75" stroke-width="7" fill="none" stroke="#ff1c5d" />
<path d="M640.5314767527805,909.3545622165407 L684.3545622165407,865.5314767527805" close="False" data-weight="2.060660171779821" stroke-width="7" fill="none" stroke="#ff1c5d" />
<path d="M565.5314767527767,871.8954377834556 L609.3545622165407,915.7185232472195" close="False" data-weight="2.060660171779821" stroke-width="7" fill="none" stroke="#ff1c5d" />
<path d="M490.53147675278416,796.8954377834631 L534.3545622165443,840.7185232472232" close="False" data-weight="2.060660171779821" stroke-width="7" fill="none" stroke="#ff1c5d" />
<path d="M425.1704076850486,923.625 L456.0795923149514,923.625" close="False" data-weight="1.75" stroke-width="7" fill="none" stroke="#ff1c5d" />
<path d="M415.5314767527804,721.8954377834593 L459.3545622165368,765.7185232472157" close="False" data-weight="2.060660171779821" stroke-width="7" fill="none" stroke="#ff1c5d" />
<path d="M398.625,650.1704076850486 L398.625,681.0795923149514" close="False" data-weight="1.75" stroke-width="7" fill="none" stroke="#ff1c5d" />
<path d="M398.625,575.1704076850486 L398.625,606.0795923149514" close="False" data-weight="1.75" stroke-width="7" fill="none" stroke="#ff1c5d" />
<path d="M398.625,500.1704076850486 L398.625,531.0795923149514" close="False" data-weight="1.75" stroke-width="7" fill="none" stroke="#ff1c5d" />
<path d="M398.625,425.1704076850486 L398.625,456.0795923149514" close="False" data-weight="1.75" stroke-width="7" fill="none" stroke="#ff1c5d" />
<path d="M398.625,350.1704076850486 L398.625,381.0795923149514" close="False" data-weight="1.75" stroke-width="7" fill="none" stroke="#ff1c5d" />
<path d="M394.125,273.74659062730126 L394.125,307.50340937269874" close="False" data-weight="1.75" stroke-width="7" fill="none" stroke="#ff1c5d" />
<path d="M350.1704076850486,923.625 L381.0795923149514,923.625" close="False" data-weight="1.75" stroke-width="7" fill="none" stroke="#ff1c5d" />
<path d="M328.125,650.625 L328.125,680.625" close="False" data-weight="1.75" stroke-width="7" fill="none" stroke="#ff1c5d" />
<path d="M328.125,575.625 L328.125,605.625" close="False" data-weight="1.75" stroke-width="7" fill="none" stroke="#ff1c5d" />
<path d="M328.125,500.625 L328.125,530.625" close="False" data-weight="1.75" stroke-width="7" fill="none" stroke="#ff1c5d" />
<path d="M328.125,425.625 L328.125,455.625" close="False" data-weight="1.75" stroke-width="7" fill="none" stroke="#ff1c5d" />
<path d="M328.125,350.625 L328.125,380.625" close="False" data-weight="1.75" stroke-width="7" fill="none" stroke="#ff1c5d" />
<path d="M344.03490257669733,312.21509742330267 L387.21509742330267,269.03490257669733" close="False" data-weight="2.060660171779821" stroke-width="7" fill="none" stroke="#ff1c5d" />
<path d="M271.8954377834594,865.5314767527805 L315.7185232472197,909.3545622165408" close="False" data-weight="2.060660171779821" stroke-width="7" fill="none" stroke="#ff1c5d" />
<path d="M269.03490257669733,762.2150974233027 L312.21509742330267,719.0349025766973" close="False" data-weight="2.060660171779821" stroke-width="7" fill="none" stroke="#ff1c5d" />
<path d="M196.8954377834556,790.5314767527767 L240.71852324721962,834.3545622165408" close="False" data-weight="2.060660171779821" stroke-width="7" fill="none" stroke="#ff1c5d" />
<path d="M200.625,778.125 L230.625,778.125" close="False" data-weight="1.75" stroke-width="7" fill="none" stroke="#ff1c5d" />
<path d="M1165.5314767527802,534.3545622165407 C1157.7372481187185,542.1487908506024,1142.1487908505949,557.737248118726,1134.3545622165332,565.5314767527879" close="False" data-weight="0.0" stroke-width="7" fill="none" stroke="#7cd3eb" />
<path d="M1175.1704076850485,482.625 C1164.1477038425242,482.625,1142.1022961574758,482.625,1131.0795923149515,482.625" close="False" data-weight="0.0" stroke-width="7" fill="none" stroke="#7cd3eb" />
<path d="M1090.5314767527877,609.3545622165334 C1082.7372481187242,617.148790850597,1067.148790850597,632.7372481187243,1059.3545622165332,640.531476752788" close="False" data-weight="0.0" stroke-width="7" fill="none" stroke="#7cd3eb" />
<path d="M1100.1704076850485,482.625 C1089.1477038425242,482.625,1067.1022961574758,482.625,1056.0795923149515,482.625" close="False" data-weight="0.0" stroke-width="7" fill="none" stroke="#7cd3eb" />
<path d="M998.625,756.0795923149514 C998.625,767.1022961574756,998.625,789.1477038425244,998.625,800.1704076850486" close="False" data-weight="0.0" stroke-width="7" fill="none" stroke="#7cd3eb" />
<path d="M1015.5314767527877,684.3545622165334 A57.722322221327396,57.722322221327396,0,0,0,1003.0188501520214,703.0810312933183 M1003.0188501520214,703.0810312933183 A57.72232222127445,57.72232222127445,0,0,0,998.625,725.1704076850486 M998.625,725.1704076850486" close="False" data-weight="1.0" stroke-width="7" fill="none" stroke="#7cd3eb" />
<path d="M1025.1704076850485,482.625 C1014.1477038425243,482.625,992.1022961574756,482.625,981.0795923149514,482.625" close="False" data-weight="0.0" stroke-width="7" fill="none" stroke="#7cd3eb" />
<path d="M944.0349025766973,912.2150974233027 A54.3198051533949,54.3198051533949,0,0,1,926.4122894815039,923.9901510378279 M926.4122894815039,923.9901510378279 A54.31980515339421,54.31980515339421,0,0,1,905.625,928.125 M905.625,928.125" close="False" data-weight="1.0" stroke-width="7" fill="none" stroke="#7cd3eb" />
<path d="M950.1704076850486,482.625 C939.1477038425244,482.625,917.1022961574756,482.625,906.0795923149514,482.625" close="False" data-weight="0.0" stroke-width="7" fill="none" stroke="#7cd3eb" />
<path d="M950.625,178.125 C939.375,178.125,916.875,178.125,905.625,178.125" close="False" data-weight="0.0" stroke-width="7" fill="none" stroke="#7cd3eb" />
<path d="M875.625,928.125 C864.375,928.125,841.875,928.125,830.625,928.125" close="False" data-weight="0.0" stroke-width="7" fill="none" stroke="#7cd3eb" />
<path d="M875.1704076850486,482.625 C864.1477038425244,482.625,842.1022961574756,482.625,831.0795923149514,482.625" close="False" data-weight="0.0" stroke-width="7" fill="none" stroke="#7cd3eb" />
<path d="M875.625,178.125 C864.375,178.125,841.875,178.125,830.625,178.125" close="False" data-weight="0.0" stroke-width="7" fill="none" stroke="#7cd3eb" />
<path d="M800.625,928.125 C789.375,928.125,766.875,928.125,755.625,928.125" close="False" data-weight="0.0" stroke-width="7" fill="none" stroke="#7cd3eb" />
<path d="M800.1704076850486,482.625 C789.1477038425244,482.625,767.1022961574756,482.625,756.0795923149514,482.625" close="False" data-weight="0.0" stroke-width="7" fill="none" stroke="#7cd3eb" />
<path d="M800.625,178.125 C789.375,178.125,766.875,178.125,755.625,178.125" close="False" data-weight="0.0" stroke-width="7" fill="none" stroke="#7cd3eb" />
<path d="M725.625,928.125 A54.31980515339478,54.31980515339478,0,0,1,704.8377105184961,923.9901510378278 M704.8377105184961,923.9901510378278 A54.319805153394256,54.319805153394256,0,0,1,687.2150974233027,912.2150974233027 M687.2150974233027,912.2150974233027" close="False" data-weight="1.0" stroke-width="7" fill="none" stroke="#7cd3eb" />
<path d="M725.1704076850486,482.625 C714.1477038425244,482.625,692.1022961574756,482.625,681.0795923149514,482.625" close="False" data-weight="0.0" stroke-width="7" fill="none" stroke="#7cd3eb" />
<path d="M725.625,178.125 C714.375,178.125,691.875,178.125,680.625,178.125" close="False" data-weight="0.0" stroke-width="7" fill="none" stroke="#7cd3eb" />
<path d="M650.1704076850486,482.625 C639.1477038425244,482.625,617.1022961574756,482.625,606.0795923149514,482.625" close="False" data-weight="0.0" stroke-width="7" fill="none" stroke="#7cd3eb" />
<path d="M650.625,178.125 C639.375,178.125,616.875,178.125,605.625,178.125" close="False" data-weight="0.0" stroke-width="7" fill="none" stroke="#7cd3eb" />
<path d="M575.1704076850486,923.625 A57.72232222128764,57.72232222128764,0,0,0,553.0810312933223,928.0188501520187 M553.0810312933223,928.0188501520187 A57.72232222128921,57.72232222128921,0,0,0,534.3545622165407,940.5314767527805 M534.3545622165407,940.5314767527805" close="False" data-weight="1.0" stroke-width="7" fill="none" stroke="#7cd3eb" />
<path d="M575.1704076850486,482.625 C564.1477038425244,482.625,542.1022961574756,482.625,531.0795923149514,482.625" close="False" data-weight="0.0" stroke-width="7" fill="none" stroke="#7cd3eb" />
<path d="M575.625,178.125 C564.375,178.125,541.875,178.125,530.625,178.125" close="False" data-weight="0.0" stroke-width="7" fill="none" stroke="#7cd3eb" />
<path d="M490.53147675277296,984.3545622165481 C482.73724811871483,992.1487908506061,467.14879085059874,1007.7372481187224,459.3545622165406,1015.5314767527805" close="False" data-weight="0.0" stroke-width="7" fill="none" stroke="#7cd3eb" />
<path d="M500.1704076850486,482.625 C489.14770384252427,482.625,467.10229615747573,482.625,456.0795923149514,482.625" close="False" data-weight="0.0" stroke-width="7" fill="none" stroke="#7cd3eb" />
<path d="M500.625,178.125 C489.375,178.125,466.875,178.125,455.625,178.125" close="False" data-weight="0.0" stroke-width="7" fill="none" stroke="#7cd3eb" />
<path d="M415.53147675278024,1059.3545622165407 C407.7372481187203,1067.1487908506006,392.14879085060056,1082.7372481187206,384.3545622165406,1090.5314767527805" close="False" data-weight="0.0" stroke-width="7" fill="none" stroke="#7cd3eb" />
<path d="M425.1704076850486,482.625 C414.14770384252427,482.625,392.10229615747573,482.625,381.0795923149514,482.625" close="False" data-weight="0.0" stroke-width="7" fill="none" stroke="#7cd3eb" />
<path d="M350.625,178.125 C339.375,178.125,316.875,178.125,305.625,178.125" close="False" data-weight="0.0" stroke-width="7" fill="none" stroke="#7cd3eb" />
<path d="M269.03490257669733,419.03490257669733 C261.07995128834864,411.07995128834864,245.17004871165133,395.17004871165136,237.21509742330267,387.21509742330267" close="False" data-weight="0.0" stroke-width="7" fill="none" stroke="#7cd3eb" />
<path d="M275.625,178.125 A54.31980515339461,54.31980515339461,0,0,1,254.83771051849604,173.9901510378278 M254.83771051849604,173.9901510378278 A54.31980515339473,54.31980515339473,0,0,1,237.21509742330267,162.21509742330267 M237.21509742330267,162.21509742330267" close="False" data-weight="1.0" stroke-width="7" fill="none" stroke="#7cd3eb" />
<path d="M178.125,305.625 A54.319805153394526,54.319805153394526,0,0,0,182.25984896217224,326.412289481504 M182.25984896217224,326.412289481504 A54.3198051533948,54.3198051533948,0,0,0,194.03490257669733,344.03490257669733 M194.03490257669733,344.03490257669733" close="False" data-weight="1.0" stroke-width="7" fill="none" stroke="#7cd3eb" />
<path d="M178.125,230.625 C178.125,241.875,178.125,264.375,178.125,275.625" close="False" data-weight="0.0" stroke-width="7" fill="none" stroke="#7cd3eb" />
<path d="M178.125,155.625 C178.125,166.875,178.125,189.375,178.125,200.625" close="False" data-weight="0.0" stroke-width="7" fill="none" stroke="#7cd3eb" />
<path d="M1165.5314767527877,534.3545622165332 L1209.3545622165404,490.53147675278063" close="False" data-weight="2.060660171779821" stroke-width="7" fill="none" stroke="#7cd3eb" />
<path d="M1175.1704076850485,482.625 L1206.0795923149515,482.625" close="False" data-weight="1.75" stroke-width="7" fill="none" stroke="#7cd3eb" />
<path d="M1090.5314767527877,609.3545622165332 L1134.354562216533,565.5314767527882" close="False" data-weight="2.060660171779821" stroke-width="7" fill="none" stroke="#7cd3eb" />
<path d="M1100.1704076850485,482.625 L1131.0795923149515,482.625" close="False" data-weight="1.75" stroke-width="7" fill="none" stroke="#7cd3eb" />
<path d="M998.625,800.1704076850486 L998.625,831.0795923149514" close="False" data-weight="1.75" stroke-width="7" fill="none" stroke="#7cd3eb" />
<path d="M998.625,725.1704076850486 L998.625,756.0795923149514" close="False" data-weight="1.75" stroke-width="7" fill="none" stroke="#7cd3eb" />
<path d="M1015.5314767527805,684.3545622165407 L1059.3545622165407,640.5314767527805" close="False" data-weight="2.060660171779821" stroke-width="7" fill="none" stroke="#7cd3eb" />
<path d="M1025.1704076850485,482.625 L1056.0795923149515,482.625" close="False" data-weight="1.75" stroke-width="7" fill="none" stroke="#7cd3eb" />
<path d="M944.0349025766973,912.2150974233027 L987.2150974233027,869.0349025766973" close="False" data-weight="2.060660171779821" stroke-width="7" fill="none" stroke="#7cd3eb" />
<path d="M950.1704076850486,482.625 L981.0795923149514,482.625" close="False" data-weight="1.75" stroke-width="7" fill="none" stroke="#7cd3eb" />
<path d="M950.625,178.125 L980.625,178.125" close="False" data-weight="1.75" stroke-width="7" fill="none" stroke="#7cd3eb" />
<path d="M875.625,928.125 L905.625,928.125" close="False" data-weight="1.75" stroke-width="7" fill="none" stroke="#7cd3eb" />
<path d="M875.1704076850486,482.625 L906.0795923149514,482.625" close="False" data-weight="1.75" stroke-width="7" fill="none" stroke="#7cd3eb" />
<path d="M875.625,178.125 L905.625,178.125" close="False" data-weight="1.75" stroke-width="7" fill="none" stroke="#7cd3eb" />
<path d="M800.625,928.125 L830.625,928.125" close="False" data-weight="1.75" stroke-width="7" fill="none" stroke="#7cd3eb" />
<path d="M800.1704076850486,482.625 L831.0795923149514,482.625" close="False" data-weight="1.75" stroke-width="7" fill="none" stroke="#7cd3eb" />
<path d="M800.625,178.125 L830.625,178.125" close="False" data-weight="1.75" stroke-width="7" fill="none" stroke="#7cd3eb" />
<path d="M725.625,928.125 L755.625,928.125" close="False" data-weight="1.75" stroke-width="7" fill="none" stroke="#7cd3eb" />
<path d="M725.1704076850486,482.625 L756.0795923149514,482.625" close="False" data-weight="1.75" stroke-width="7" fill="none" stroke="#7cd3eb" />
<path d="M725.625,178.125 L755.625,178.125" close="False" data-weight="1.75" stroke-width="7" fill="none" stroke="#7cd3eb" />
<path d="M628.125,875.625 L628.125,905.625" close="False" data-weight="1.75" stroke-width="7" fill="none" stroke="#7cd3eb" />
<path d="M644.0349025766973,869.0349025766973 L687.2150974233027,912.2150974233027" close="False" data-weight="2.060660171779821" stroke-width="7" fill="none" stroke="#7cd3eb" />
<path d="M650.1704076850486,482.625 L681.0795923149514,482.625" close="False" data-weight="1.75" stroke-width="7" fill="none" stroke="#7cd3eb" />
<path d="M650.625,178.125 L680.625,178.125" close="False" data-weight="1.75" stroke-width="7" fill="none" stroke="#7cd3eb" />
<path d="M575.1704076850486,923.625 L606.0795923149514,923.625" close="False" data-weight="1.75" stroke-width="7" fill="none" stroke="#7cd3eb" />
<path d="M575.1704076850486,482.625 L606.0795923149514,482.625" close="False" data-weight="1.75" stroke-width="7" fill="none" stroke="#7cd3eb" />
<path d="M575.625,178.125 L605.625,178.125" close="False" data-weight="1.75" stroke-width="7" fill="none" stroke="#7cd3eb" />
<path d="M490.5314767527804,984.3545622165407 L534.3545622165406,940.5314767527806" close="False" data-weight="2.060660171779821" stroke-width="7" fill="none" stroke="#7cd3eb" />
<path d="M500.1704076850486,482.625 L531.0795923149514,482.625" close="False" data-weight="1.75" stroke-width="7" fill="none" stroke="#7cd3eb" />
<path d="M500.625,178.125 L530.625,178.125" close="False" data-weight="1.75" stroke-width="7" fill="none" stroke="#7cd3eb" />
<path d="M415.5314767527804,1059.3545622165407 L459.3545622165408,1015.5314767527803" close="False" data-weight="2.060660171779821" stroke-width="7" fill="none" stroke="#7cd3eb" />
<path d="M425.1704076850486,482.625 L456.0795923149514,482.625" close="False" data-weight="1.75" stroke-width="7" fill="none" stroke="#7cd3eb" />
<path d="M425.625,178.125 L455.625,178.125" close="False" data-weight="1.75" stroke-width="7" fill="none" stroke="#7cd3eb" />
<path d="M340.5314767527804,1134.3545622165407 L384.3545622165407,1090.5314767527802" close="False" data-weight="2.060660171779821" stroke-width="7" fill="none" stroke="#7cd3eb" />
<path d="M350.1704076850486,482.625 L381.0795923149514,482.625" close="False" data-weight="1.75" stroke-width="7" fill="none" stroke="#7cd3eb" />
<path d="M350.625,178.125 L380.625,178.125" close="False" data-weight="1.75" stroke-width="7" fill="none" stroke="#7cd3eb" />
<path d="M269.03490257669733,419.03490257669733 L312.21509742330267,462.21509742330267" close="False" data-weight="2.060660171779821" stroke-width="7" fill="none" stroke="#7cd3eb" />
<path d="M275.625,178.125 L305.625,178.125" close="False" data-weight="1.75" stroke-width="7" fill="none" stroke="#7cd3eb" />
<path d="M194.03490257669733,344.03490257669733 L237.2150974233027,387.21509742330267" close="False" data-weight="2.060660171779821" stroke-width="7" fill="none" stroke="#7cd3eb" />
<path d="M178.125,275.625 L178.125,305.625" close="False" data-weight="1.75" stroke-width="7" fill="none" stroke="#7cd3eb" />
<path d="M178.125,200.625 L178.125,230.625" close="False" data-weight="1.75" stroke-width="7" fill="none" stroke="#7cd3eb" />
<path d="M178.125,125.625 L178.125,155.625" close="False" data-weight="1.75" stroke-width="7" fill="none" stroke="#7cd3eb" />
<path d="M194.03490257669733,119.03490257669732 L237.2150974233027,162.2150974233027" close="False" data-weight="2.060660171779821" stroke-width="7" fill="none" stroke="#7cd3eb" />
<path d="M725.1704076850486,857.625 A48.72232222128889,48.72232222128889,0,0,0,706.5251821846081,861.3337659446202 M706.5251821846081,861.3337659446202 A48.72232222128802,48.72232222128802,0,0,0,690.7185232472195,871.8954377834593 M690.7185232472195,871.8954377834593" close="False" data-weight="1.0" stroke-width="7" fill="none" stroke="#8f0f12" />
<path d="M707.625,756.0795923149514 A48.72232222128889,48.72232222128889,0,0,0,711.3337659446202,774.7248178153919 M711.3337659446202,774.7248178153919 A48.72232222128802,48.72232222128802,0,0,0,721.8954377834593,790.5314767527805 M721.8954377834593,790.5314767527805" close="False" data-weight="1.0" stroke-width="7" fill="none" stroke="#8f0f12" />
<path d="M707.625,681.0795923149514 C707.625,692.1022961574756,707.625,714.1477038425244,707.625,725.1704076850486" close="False" data-weight="0.0" stroke-width="7" fill="none" stroke="#8f0f12" />
<path d="M707.625,606.0795923149514 C707.625,617.1022961574756,707.625,639.1477038425244,707.625,650.1704076850486" close="False" data-weight="0.0" stroke-width="7" fill="none" stroke="#8f0f12" />
<path d="M707.625,531.0795923149514 C707.625,542.1022961574756,707.625,564.1477038425244,707.625,575.1704076850486" close="False" data-weight="0.0" stroke-width="7" fill="none" stroke="#8f0f12" />
<path d="M707.625,456.0795923149514 C707.625,467.10229615747573,707.625,489.14770384252427,707.625,500.1704076850486" close="False" data-weight="0.0" stroke-width="7" fill="none" stroke="#8f0f12" />
<path d="M707.625,381.0795923149514 C707.625,392.10229615747573,707.625,414.14770384252427,707.625,425.1704076850486" close="False" data-weight="0.0" stroke-width="7" fill="none" stroke="#8f0f12" />
<path d="M575.1704076850486,932.625 A48.72232222128889,48.72232222128889,0,0,0,556.5251821846081,936.3337659446202 M556.5251821846081,936.3337659446202 A48.72232222128802,48.72232222128802,0,0,0,540.7185232472195,946.8954377834593 M540.7185232472195,946.8954377834593" close="False" data-weight="1.0" stroke-width="7" fill="none" stroke="#8f0f12" />
<path d="M496.89543778346683,990.7185232472121 C489.10120914940507,998.512751881274,473.51275188128136,1014.1012091493975,465.7185232472196,1021.8954377834593" close="False" data-weight="0.0" stroke-width="7" fill="none" stroke="#8f0f12" />
<path d="M421.8954377834595,1065.7185232472195 C414.10120914939955,1073.5127518812794,398.51275188127954,1089.1012091493994,390.7185232472196,1096.8954377834593" close="False" data-weight="0.0" stroke-width="7" fill="none" stroke="#8f0f12" />
<path d="M419.03490257669733,987.2150974233027 C411.0799512883487,995.1700487116514,395.1700487116513,1011.0799512883486,387.21509742330267,1019.0349025766973" close="False" data-weight="0.0" stroke-width="7" fill="none" stroke="#8f0f12" />
<path d="M425.1704076850486,932.625 C414.14770384252427,932.625,392.10229615747573,932.625,381.0795923149514,932.625" close="False" data-weight="0.0" stroke-width="7" fill="none" stroke="#8f0f12" />
<path d="M344.03490257669733,1062.2150974233027 A54.31980515339522,54.31980515339522,0,0,0,332.25984896217227,1079.837710518496 M332.25984896217227,1079.837710518496 A54.319805153393986,54.319805153393986,0,0,0,328.125,1100.625 M328.125,1100.625" close="False" data-weight="1.0" stroke-width="7" fill="none" stroke="#8f0f12" />
<path d="M350.1704076850486,932.625 A57.722322221287754,57.722322221287754,0,0,1,328.08103129332227,928.2311498479813 M328.08103129332227,928.2311498479813 A57.72232222128817,57.72232222128817,0,0,1,309.3545622165406,915.7185232472195 M309.3545622165406,915.7185232472195" close="False" data-weight="1.0" stroke-width="7" fill="none" stroke="#8f0f12" />
<path d="M265.5314767527803,871.8954377834592 C257.7372481187204,864.1012091493993,242.14879085060056,848.5127518812794,234.35456221654064,840.7185232472195" close="False" data-weight="0.0" stroke-width="7" fill="none" stroke="#8f0f12" />
<path d="M725.1704076850486,857.625 L756.0795923149514,857.625" close="False" data-weight="1.75" stroke-width="7" fill="none" stroke="#8f0f12" />
<path d="M721.8954377834593,790.5314767527805 L765.7185232472195,834.3545622165407" close="False" data-weight="2.060660171779821" stroke-width="7" fill="none" stroke="#8f0f12" />
<path d="M707.625,725.1704076850486 L707.625,756.0795923149514" close="False" data-weight="1.75" stroke-width="7" fill="none" stroke="#8f0f12" />
<path d="M707.625,650.1704076850486 L707.625,681.0795923149514" close="False" data-weight="1.75" stroke-width="7" fill="none" stroke="#8f0f12" />
<path d="M707.625,575.1704076850486 L707.625,606.0795923149514" close="False" data-weight="1.75" stroke-width="7" fill="none" stroke="#8f0f12" />
<path d="M707.625,500.1704076850486 L707.625,531.0795923149514" close="False" data-weight="1.75" stroke-width="7" fill="none" stroke="#8f0f12" />
<path d="M707.625,425.1704076850486 L707.625,456.0795923149514" close="False" data-weight="1.75" stroke-width="7" fill="none" stroke="#8f0f12" />
<path d="M707.625,350.1704076850486 L707.625,381.0795923149514" close="False" data-weight="1.75" stroke-width="7" fill="none" stroke="#8f0f12" />
<path d="M646.8954377834593,915.7185232472195 L690.7185232472195,871.8954377834593" close="False" data-weight="2.060660171779821" stroke-width="7" fill="none" stroke="#8f0f12" />
<path d="M575.1704076850486,932.625 L606.0795923149514,932.625" close="False" data-weight="1.75" stroke-width="7" fill="none" stroke="#8f0f12" />
<path d="M496.8954377834594,990.7185232472195 L540.7185232472197,946.8954377834592" close="False" data-weight="2.060660171779821" stroke-width="7" fill="none" stroke="#8f0f12" />
<path d="M421.8954377834594,1065.7185232472195 L465.7185232472194,1021.8954377834594" close="False" data-weight="2.060660171779821" stroke-width="7" fill="none" stroke="#8f0f12" />
<path d="M419.03490257669733,987.2150974233027 L462.21509742330267,944.0349025766973" close="False" data-weight="2.060660171779821" stroke-width="7" fill="none" stroke="#8f0f12" />
<path d="M425.1704076850486,932.625 L456.0795923149514,932.625" close="False" data-weight="1.75" stroke-width="7" fill="none" stroke="#8f0f12" />
<path d="M346.8954377834594,1140.7185232472195 L390.7185232472195,1096.8954377834596" close="False" data-weight="2.060660171779821" stroke-width="7" fill="none" stroke="#8f0f12" />
<path d="M328.125,1100.625 L328.125,1130.625" close="False" data-weight="1.75" stroke-width="7" fill="none" stroke="#8f0f12" />
<path d="M344.03490257669733,1062.2150974233027 L387.21509742330267,1019.0349025766973" close="False" data-weight="2.060660171779821" stroke-width="7" fill="none" stroke="#8f0f12" />
<path d="M350.1704076850486,932.625 L381.0795923149514,932.625" close="False" data-weight="1.75" stroke-width="7" fill="none" stroke="#8f0f12" />
<path d="M265.5314767527804,871.8954377834593 L309.3545622165405,915.7185232472194" close="False" data-weight="2.060660171779821" stroke-width="7" fill="none" stroke="#8f0f12" />
<path d="M190.5314767527842,796.8954377834631 L234.3545622165406,840.7185232472195" close="False" data-weight="2.060660171779821" stroke-width="7" fill="none" stroke="#8f0f12" />
<path d="M571.8954377834593,865.5314767527805 C564.1012091493994,857.7372481187206,548.5127518812794,842.1487908506006,540.7185232472195,834.3545622165407" close="False" data-weight="0.0" stroke-width="7" fill="none" stroke="#90ea66" />
<path d="M496.89543778345563,790.5314767527767 C489.10120914939756,782.7372481187186,473.51275188128136,767.1487908506025,465.7185232472233,759.3545622165444" close="False" data-weight="0.0" stroke-width="7" fill="none" stroke="#90ea66" />
<path d="M407.625,681.0795923149514 A48.72232222128753,48.72232222128753,0,0,0,411.33376594462027,699.7248178153919 M411.33376594462027,699.7248178153919 A48.72232222128946,48.72232222128946,0,0,0,421.8954377834594,715.5314767527805 M421.8954377834594,715.5314767527805" close="False" data-weight="1.0" stroke-width="7" fill="none" stroke="#90ea66" />
<path d="M407.625,606.0795923149514 C407.625,617.1022961574756,407.625,639.1477038425244,407.625,650.1704076850486" close="False" data-weight="0.0" stroke-width="7" fill="none" stroke="#90ea66" />
<path d="M407.625,531.0795923149514 C407.625,542.1022961574756,407.625,564.1477038425244,407.625,575.1704076850486" close="False" data-weight="0.0" stroke-width="7" fill="none" stroke="#90ea66" />
<path d="M407.625,456.0795923149514 C407.625,467.10229615747573,407.625,489.14770384252427,407.625,500.1704076850486" close="False" data-weight="0.0" stroke-width="7" fill="none" stroke="#90ea66" />
<path d="M407.625,381.0795923149514 C407.625,392.10229615747573,407.625,414.14770384252427,407.625,425.1704076850486" close="False" data-weight="0.0" stroke-width="7" fill="none" stroke="#90ea66" />
<path d="M403.125,305.625 C403.125,316.81803172130765,407.625,338.97737596374094,407.625,350.1704076850486" close="False" data-weight="0.0" stroke-width="7" fill="none" stroke="#90ea66" />
<path d="M571.8954377834631,865.5314767527842 L615.7185232472195,909.3545622165407" close="False" data-weight="2.060660171779821" stroke-width="7" fill="none" stroke="#90ea66" />
<path d="M496.89543778345563,790.5314767527767 L540.7185232472159,834.354562216537" close="False" data-weight="2.060660171779821" stroke-width="7" fill="none" stroke="#90ea66" />
<path d="M421.8954377834594,715.5314767527805 L465.7185232472234,759.3545622165445" close="False" data-weight="2.060660171779821" stroke-width="7" fill="none" stroke="#90ea66" />
<path d="M407.625,650.1704076850486 L407.625,681.0795923149514" close="False" data-weight="1.75" stroke-width="7" fill="none" stroke="#90ea66" />
<path d="M407.625,575.1704076850486 L407.625,606.0795923149514" close="False" data-weight="1.75" stroke-width="7" fill="none" stroke="#90ea66" />
<path d="M407.625,500.1704076850486 L407.625,531.0795923149514" close="False" data-weight="1.75" stroke-width="7" fill="none" stroke="#90ea66" />
<path d="M407.625,425.1704076850486 L407.625,456.0795923149514" close="False" data-weight="1.75" stroke-width="7" fill="none" stroke="#90ea66" />
<path d="M407.625,350.1704076850486 L407.625,381.0795923149514" close="False" data-weight="1.75" stroke-width="7" fill="none" stroke="#90ea66" />
<path d="M403.125,275.625 L403.125,305.625" close="False" data-weight="1.75" stroke-width="7" fill="none" stroke="#90ea66" />
<path d="M403.125,200.625 L403.125,230.625" close="False" data-weight="1.75" stroke-width="7" fill="none" stroke="#90ea66" />
<path d="M1175.1704076850485,473.625 C1164.1477038425242,473.625,1142.1022961574758,473.625,1131.0795923149515,473.625" close="False" data-weight="0.0" stroke-width="7" fill="none" stroke="#35618f" />
<path d="M1169.0349025766973,419.03490257669733 A54.31980515339522,54.31980515339522,0,0,0,1151.412289481504,407.25984896217227 M1151.412289481504,407.25984896217227 A54.319805153393986,54.319805153393986,0,0,0,1130.625,403.125 M1130.625,403.125" close="False" data-weight="1.0" stroke-width="7" fill="none" stroke="#35618f" />
<path d="M1100.1704076850485,473.625 C1089.1477038425242,473.625,1067.1022961574758,473.625,1056.0795923149515,473.625" close="False" data-weight="0.0" stroke-width="7" fill="none" stroke="#35618f" />
<path d="M1100.625,403.125 C1089.375,403.125,1066.875,403.125,1055.625,403.125" close="False" data-weight="0.0" stroke-width="7" fill="none" stroke="#35618f" />
<path d="M1025.1704076850485,473.625 C1014.1477038425243,473.625,992.1022961574756,473.625,981.0795923149514,473.625" close="False" data-weight="0.0" stroke-width="7" fill="none" stroke="#35618f" />
<path d="M1025.625,403.125 C1014.375,403.125,991.875,403.125,980.625,403.125" close="False" data-weight="0.0" stroke-width="7" fill="none" stroke="#35618f" />
<path d="M950.1704076850486,473.625 C939.1477038425244,473.625,917.1022961574756,473.625,906.0795923149514,473.625" close="False" data-weight="0.0" stroke-width="7" fill="none" stroke="#35618f" />
<path d="M950.625,403.125 C939.375,403.125,916.875,403.125,905.625,403.125" close="False" data-weight="0.0" stroke-width="7" fill="none" stroke="#35618f" />
<path d="M875.1704076850486,473.625 C864.1477038425244,473.625,842.1022961574756,473.625,831.0795923149514,473.625" close="False" data-weight="0.0" stroke-width="7" fill="none" stroke="#35618f" />
<path d="M875.625,403.125 C864.375,403.125,841.875,403.125,830.625,403.125" close="False" data-weight="0.0" stroke-width="7" fill="none" stroke="#35618f" />
<path d="M800.1704076850486,473.625 C789.1477038425244,473.625,767.1022961574756,473.625,756.0795923149514,473.625" close="False" data-weight="0.0" stroke-width="7" fill="none" stroke="#35618f" />
<path d="M778.125,305.625 C778.125,316.875,778.125,339.375,778.125,350.625" close="False" data-weight="0.0" stroke-width="7" fill="none" stroke="#35618f" />
<path d="M778.125,230.625 C778.125,241.875,778.125,264.375,778.125,275.625" close="False" data-weight="0.0" stroke-width="7" fill="none" stroke="#35618f" />
<path d="M778.125,155.625 C778.125,166.875,778.125,189.375,778.125,200.625" close="False" data-weight="0.0" stroke-width="7" fill="none" stroke="#35618f" />
<path d="M725.1704076850486,473.625 C714.1477038425244,473.625,692.1022961574756,473.625,681.0795923149514,473.625" close="False" data-weight="0.0" stroke-width="7" fill="none" stroke="#35618f" />
<path d="M650.1704076850486,473.625 C639.1477038425244,473.625,617.1022961574756,473.625,606.0795923149514,473.625" close="False" data-weight="0.0" stroke-width="7" fill="none" stroke="#35618f" />
<path d="M575.1704076850486,473.625 C564.1477038425244,473.625,542.1022961574756,473.625,531.0795923149514,473.625" close="False" data-weight="0.0" stroke-width="7" fill="none" stroke="#35618f" />
<path d="M500.1704076850486,473.625 C489.14770384252427,473.625,467.10229615747573,473.625,456.0795923149514,473.625" close="False" data-weight="0.0" stroke-width="7" fill="none" stroke="#35618f" />
<path d="M425.1704076850486,473.625 C414.14770384252427,473.625,392.10229615747573,473.625,381.0795923149514,473.625" close="False" data-weight="0.0" stroke-width="7" fill="none" stroke="#35618f" />
<path d="M1175.1704076850485,473.625 L1206.0795923149515,473.625" close="False" data-weight="1.75" stroke-width="7" fill="none" stroke="#35618f" />
<path d="M1169.0349025766973,419.03490257669733 L1212.2150974233027,462.21509742330267" close="False" data-weight="2.060660171779821" stroke-width="7" fill="none" stroke="#35618f" />
<path d="M1100.1704076850485,473.625 L1131.0795923149515,473.625" close="False" data-weight="1.75" stroke-width="7" fill="none" stroke="#35618f" />
<path d="M1100.625,403.125 L1130.625,403.125" close="False" data-weight="1.75" stroke-width="7" fill="none" stroke="#35618f" />
<path d="M1025.1704076850485,473.625 L1056.0795923149515,473.625" close="False" data-weight="1.75" stroke-width="7" fill="none" stroke="#35618f" />
<path d="M1025.625,403.125 L1055.625,403.125" close="False" data-weight="1.75" stroke-width="7" fill="none" stroke="#35618f" />
<path d="M950.1704076850486,473.625 L981.0795923149514,473.625" close="False" data-weight="1.75" stroke-width="7" fill="none" stroke="#35618f" />
<path d="M950.625,403.125 L980.625,403.125" close="False" data-weight="1.75" stroke-width="7" fill="none" stroke="#35618f" />
<path d="M875.1704076850486,473.625 L906.0795923149514,473.625" close="False" data-weight="1.75" stroke-width="7" fill="none" stroke="#35618f" />
<path d="M875.625,403.125 L905.625,403.125" close="False" data-weight="1.75" stroke-width="7" fill="none" stroke="#35618f" />
<path d="M800.1704076850486,473.625 L831.0795923149514,473.625" close="False" data-weight="1.75" stroke-width="7" fill="none" stroke="#35618f" />
<path d="M800.625,403.125 L830.625,403.125" close="False" data-weight="1.75" stroke-width="7" fill="none" stroke="#35618f" />
<path d="M778.125,350.625 L778.125,380.625" close="False" data-weight="1.75" stroke-width="7" fill="none" stroke="#35618f" />
<path d="M778.125,275.625 L778.125,305.625" close="False" data-weight="1.75" stroke-width="7" fill="none" stroke="#35618f" />
<path d="M778.125,200.625 L778.125,230.625" close="False" data-weight="1.75" stroke-width="7" fill="none" stroke="#35618f" />
<path d="M778.125,125.625 L778.125,155.625" close="False" data-weight="1.75" stroke-width="7" fill="none" stroke="#35618f" />
<path d="M725.1704076850486,473.625 L756.0795923149514,473.625" close="False" data-weight="1.75" stroke-width="7" fill="none" stroke="#35618f" />
<path d="M650.1704076850486,473.625 L681.0795923149514,473.625" close="False" data-weight="1.75" stroke-width="7" fill="none" stroke="#35618f" />
<path d="M575.1704076850486,473.625 L606.0795923149514,473.625" close="False" data-weight="1.75" stroke-width="7" fill="none" stroke="#35618f" />
<path d="M500.1704076850486,473.625 L531.0795923149514,473.625" close="False" data-weight="1.75" stroke-width="7" fill="none" stroke="#35618f" />
<path d="M425.1704076850486,473.625 L456.0795923149514,473.625" close="False" data-weight="1.75" stroke-width="7" fill="none" stroke="#35618f" />
<path d="M350.1704076850486,473.625 L381.0795923149514,473.625" close="False" data-weight="1.75" stroke-width="7" fill="none" stroke="#35618f" />
<image x="1195.625" y="445.625" width="65" height="65" xlink:href="designspace-test/./img/ds_dataset0_20_4_thumb.png" data-node="True" data-id="4" />
<image x="1120.625" y="1195.625" width="65" height="65" xlink:href="designspace-test/./img/ds_dataset0_20_5_thumb.png" data-node="True" data-id="5" />
<image x="1120.625" y="145.625" width="65" height="65" xlink:href="designspace-test/./img/ds_dataset0_20_10_thumb.png" data-node="True" data-id="10" />
<image x="970.625" y="895.625" width="65" height="65" xlink:href="designspace-test/./img/ds_dataset0_20_6_thumb.png" data-node="True" data-id="6" />
<image x="970.625" y="820.625" width="65" height="65" xlink:href="designspace-test/./img/ds_dataset0_20_7_thumb.png" data-node="True" data-id="7" />
<image x="970.625" y="145.625" width="65" height="65" xlink:href="designspace-test/./img/ds_dataset0_20_11_thumb.png" data-node="True" data-id="11" />
<image x="745.625" y="820.625" width="65" height="65" xlink:href="designspace-test/./img/ds_dataset0_20_8_thumb.png" data-node="True" data-id="8" />
<image x="745.625" y="370.625" width="65" height="65" xlink:href="designspace-test/./img/ds_dataset0_20_1_thumb.png" data-node="True" data-id="1" />
<image x="745.625" y="70.625" width="65" height="65" xlink:href="designspace-test/./img/ds_dataset0_20_9_thumb.png" data-node="True" data-id="9" />
<image x="670.625" y="295.625" width="65" height="65" xlink:href="designspace-test/./img/ds_dataset0_20_0_thumb.png" data-node="True" data-id="0" />
<image x="595.625" y="895.625" width="65" height="65" xlink:href="designspace-test/./img/ds_dataset0_20_19_thumb.png" data-node="True" data-id="19" />
<image x="595.625" y="820.625" width="65" height="65" xlink:href="designspace-test/./img/ds_dataset0_20_16_thumb.png" data-node="True" data-id="16" />
<image x="445.625" y="895.625" width="65" height="65" xlink:href="designspace-test/./img/ds_dataset0_20_12_thumb.png" data-node="True" data-id="12" />
<image x="370.625" y="220.625" width="65" height="65" xlink:href="designspace-test/./img/ds_dataset0_20_18_thumb.png" data-node="True" data-id="18" />
<image x="370.625" y="145.625" width="65" height="65" xlink:href="designspace-test/./img/ds_dataset0_20_2_thumb.png" data-node="True" data-id="2" />
<image x="295.625" y="1120.625" width="65" height="65" xlink:href="designspace-test/./img/ds_dataset0_20_3_thumb.png" data-node="True" data-id="3" />
<image x="295.625" y="445.625" width="65" height="65" xlink:href="designspace-test/./img/ds_dataset0_20_15_thumb.png" data-node="True" data-id="15" />
<image x="220.625" y="745.625" width="65" height="65" xlink:href="designspace-test/./img/ds_dataset0_20_17_thumb.png" data-node="True" data-id="17" />
<image x="145.625" y="745.625" width="65" height="65" xlink:href="designspace-test/./img/ds_dataset0_20_14_thumb.png" data-node="True" data-id="14" />
<image x="145.625" y="70.625" width="65" height="65" xlink:href="designspace-test/./img/ds_dataset0_20_13_thumb.png" data-node="True" data-id="13" />
</svg>