<?xml version="1.0" encoding="UTF-8"?>
<svg xmlns="http://www.w3.org/2000/svg" xmlns:xlink="http://www.w3.org/1999/xlink"
     width="2550" height="2550" viewBox="0 0 2550 2550">
<defs>
</defs>
<path d="M2432.125,1730.9834101745155 C2432.125,1742.0542050872577,2432.125,1764.1957949127423,2432.125,1775.2665898254845" close="False" data-weight="0.0" stroke-width="6" fill="none" stroke="#ffff33" />
<path d="M2432.125,1655.9834101745155 C2432.125,1667.0542050872577,2432.125,1689.1957949127423,2432.125,1700.2665898254845" close="False" data-weight="0.0" stroke-width="6" fill="none" stroke="#ffff33" />
<path d="M2428.125,1580.625 C2428.125,1591.8301091643132,2432.125,1614.0614806611713,2432.125,1625.2665898254845" close="False" data-weight="0.0" stroke-width="6" fill="none" stroke="#ffff33" />
<path d="M2428.125,1550.625 A54.31980515339728,54.31980515339728,0,0,0,2423.9901510378277,1529.837710518496 M2423.9901510378277,1529.837710518496 A54.319805153387826,54.319805153387826,0,0,0,2412.2150974233027,1512.2150974233027 M2412.2150974233027,1512.2150974233027" close="False" data-weight="1.0" stroke-width="6" fill="none" stroke="#ffff33" />
<path d="M2369.0349025766973,1469.0349025766973 C2361.0799512883486,1461.0799512883486,2345.1700487116514,1445.1700487116514,2337.2150974233027,1437.2150974233027" close="False" data-weight="0.0" stroke-width="6" fill="none" stroke="#ffff33" />
<path d="M2294.0349025766973,1394.0349025766973 C2286.0799512883486,1386.0799512883486,2270.1700487116514,1370.1700487116514,2262.2150974233027,1362.2150974233027" close="False" data-weight="0.0" stroke-width="6" fill="none" stroke="#ffff33" />
<path d="M2219.0349025766973,1319.0349025766973 C2211.0799512883486,1311.0799512883486,2195.1700487116514,1295.1700487116514,2187.2150974233027,1287.2150974233027" close="False" data-weight="0.0" stroke-width="6" fill="none" stroke="#ffff33" />
<path d="M2144.0349025766973,1244.0349025766973 C2136.0799512883486,1236.0799512883486,2120.1700487116514,1220.1700487116514,2112.2150974233027,1212.2150974233027" close="False" data-weight="0.0" stroke-width="6" fill="none" stroke="#ffff33" />
<path d="M1994.0349025766973,1094.0349025766973 C1986.0799512883486,1086.0799512883486,1970.1700487116514,1070.1700487116514,1962.2150974233027,1062.2150974233027" close="False" data-weight="0.0" stroke-width="6" fill="none" stroke="#ffff33" />
<path d="M1919.0349025766973,1019.0349025766973 C1911.0799512883486,1011.0799512883486,1895.1700487116514,995.1700487116514,1887.2150974233027,987.2150974233027" close="False" data-weight="0.0" stroke-width="6" fill="none" stroke="#ffff33" />
<path d="M1844.0349025766973,944.0349025766973 C1836.0799512883486,936.0799512883486,1820.1700487116514,920.1700487116514,1812.2150974233027,912.2150974233027" close="False" data-weight="0.0" stroke-width="6" fill="none" stroke="#ffff33" />
<path d="M1769.0349025766973,869.0349025766973 A54.31980515339514,54.31980515339514,0,0,0,1751.412289481504,857.2598489621722 M1751.412289481504,857.2598489621722 A54.319805153393986,54.319805153393986,0,0,0,1730.625,853.125 M1730.625,853.125" close="False" data-weight="1.0" stroke-width="6" fill="none" stroke="#ffff33" />
<path d="M1700.625,853.125 C1689.375,853.125,1666.875,853.125,1655.625,853.125" close="False" data-weight="0.0" stroke-width="6" fill="none" stroke="#ffff33" />
<path d="M1625.625,853.125 C1614.375,853.125,1591.875,853.125,1580.625,853.125" close="False" data-weight="0.0" stroke-width="6" fill="none" stroke="#ffff33" />
<path d="M1550.625,853.125 C1539.375,853.125,1516.875,853.125,1505.625,853.125" close="False" data-weight="0.0" stroke-width="6" fill="none" stroke="#ffff33" />
<path d="M1475.625,853.125 C1464.375,853.125,1441.875,853.125,1430.625,853.125" close="False" data-weight="0.0" stroke-width="6" fill="none" stroke="#ffff33" />
<path d="M1400.625,853.125 C1389.375,853.125,1366.875,853.125,1355.625,853.125" close="False" data-weight="0.0" stroke-width="6" fill="none" stroke="#ffff33" />
<path d="M1325.625,853.125 C1314.375,853.125,1291.875,853.125,1280.625,853.125" close="False" data-weight="0.0" stroke-width="6" fill="none" stroke="#ffff33" />
<path d="M1250.625,853.125 C1239.375,853.125,1216.875,853.125,1205.625,853.125" close="False" data-weight="0.0" stroke-width="6" fill="none" stroke="#ffff33" />
<path d="M1175.625,853.125 C1164.375,853.125,1141.875,853.125,1130.625,853.125" close="False" data-weight="0.0" stroke-width="6" fill="none" stroke="#ffff33" />
<path d="M2432.125,1775.2665898254845 L2432.125,1805.9834101745155" close="False" data-weight="1.75" stroke-width="6" fill="none" stroke="#ffff33" />
<path d="M2432.125,1700.2665898254845 L2432.125,1730.9834101745155" close="False" data-weight="1.75" stroke-width="6" fill="none" stroke="#ffff33" />
<path d="M2432.125,1625.2665898254845 L2432.125,1655.9834101745155" close="False" data-weight="1.75" stroke-width="6" fill="none" stroke="#ffff33" />
<path d="M2428.125,1550.625 L2428.125,1580.625" close="False" data-weight="1.75" stroke-width="6" fill="none" stroke="#ffff33" />
<path d="M2369.0349025766973,1469.0349025766973 L2412.2150974233027,1512.2150974233027" close="False" data-weight="2.060660171779821" stroke-width="6" fill="none" stroke="#ffff33" />
<path d="M2294.0349025766973,1394.0349025766973 L2337.2150974233027,1437.2150974233027" close="False" data-weight="2.060660171779821" stroke-width="6" fill="none" stroke="#ffff33" />
<path d="M2219.0349025766973,1319.0349025766973 L2262.2150974233027,1362.2150974233027" close="False" data-weight="2.060660171779821" stroke-width="6" fill="none" stroke="#ffff33" />
<path d="M2144.0349025766973,1244.0349025766973 L2187.2150974233027,1287.2150974233027" close="False" data-weight="2.060660171779821" stroke-width="6" fill="none" stroke="#ffff33" />
<path d="M2069.0349025766973,1169.0349025766973 L2112.2150974233027,1212.2150974233027" close="False" data-weight="2.060660171779821" stroke-width="6" fill="none" stroke="#ffff33" />
<path d="M1994.0349025766973,1094.0349025766973 L2037.2150974233027,1137.2150974233027" close="False" data-weight="2.060660171779821" stroke-width="6" fill="none" stroke="#ffff33" />
<path d="M1919.0349025766973,1019.0349025766973 L1962.2150974233027,1062.2150974233027" close="False" data-weight="2.060660171779821" stroke-width="6" fill="none" stroke="#ffff33" />
<path d="M1844.0349025766973,944.0349025766973 L1887.2150974233027,987.2150974233027" close="False" data-weight="2.060660171779821" stroke-width="6" fill="none" stroke="#ffff33" />
<path d="M1769.0349025766973,869.0349025766973 L1812.2150974233027,912.2150974233027" close="False" data-weight="2.060660171779821" stroke-width="6" fill="none" stroke="#ffff33" />
<path d="M1700.625,853.125 L1730.625,853.125" close="False" data-weight="1.75" stroke-width="6" fill="none" stroke="#ffff33" />
<path d="M1625.625,853.125 L1655.625,853.125" close="False" data-weight="1.75" stroke-width="6" fill="none" stroke="#ffff33" />
<path d="M1550.625,853.125 L1580.625,853.125" close="False" data-weight="1.75" stroke-width="6" fill="none" stroke="#ffff33" />
<path d="M1475.625,853.125 L1505.625,853.125" close="False" data-weight="1.75" stroke-width="6" fill="none" stroke="#ffff33" />
<path d="M1400.625,853.125 L1430.625,853.125" close="False" data-weight="1.75" stroke-width="6" fill="none" stroke="#ffff33" />
<path d="M1325.625,853.125 L1355.625,853.125" close="False" data-weight="1.75" stroke-width="6" fill="none" stroke="#ffff33" />
<path d="M1250.625,853.125 L1280.625,853.125" close="False" data-weight="1.75" stroke-width="6" fill="none" stroke="#ffff33" />
<path d="M1175.625,853.125 L1205.625,853.125" close="False" data-weight="1.75" stroke-width="6" fill="none" stroke="#ffff33" />
<path d="M1100.625,853.125 L1130.625,853.125" close="False" data-weight="1.75" stroke-width="6" fill="none" stroke="#ffff33" />
<path d="M1078.125,755.625 C1078.125,766.875,1078.125,789.375,1078.125,800.625" close="False" data-weight="0.0" stroke-width="6" fill="none" stroke="#984ea3" />
<path d="M1078.125,680.625 C1078.125,691.875,1078.125,714.375,1078.125,725.625" close="False" data-weight="0.0" stroke-width="6" fill="none" stroke="#984ea3" />
<path d="M1078.125,650.625 A54.31980515339637,54.31980515339637,0,0,0,1073.990151037828,629.837710518496 M1073.990151037828,629.837710518496 A54.319805153392814,54.319805153392814,0,0,0,1062.2150974233027,612.2150974233027 M1062.2150974233027,612.2150974233027" close="False" data-weight="1.0" stroke-width="6" fill="none" stroke="#984ea3" />
<path d="M1019.0349025766973,569.0349025766973 C1011.1116939026759,561.1116939026759,992.5633132374239,548.2201674869164,984.6401045634026,540.296958812895" close="False" data-weight="0.0" stroke-width="6" fill="none" stroke="#984ea3" />
<path d="M1078.125,800.625 L1078.125,830.625" close="False" data-weight="1.75" stroke-width="6" fill="none" stroke="#984ea3" />
<path d="M1078.125,725.625 L1078.125,755.625" close="False" data-weight="1.75" stroke-width="6" fill="none" stroke="#984ea3" />
<path d="M1078.125,650.625 L1078.125,680.625" close="False" data-weight="1.75" stroke-width="6" fill="none" stroke="#984ea3" />
<path d="M1019.0349025766973,569.0349025766973 L1062.2150974233027,612.2150974233027" close="False" data-weight="2.060660171779821" stroke-width="6" fill="none" stroke="#984ea3" />
<path d="M940.953041187105,496.6098954365974 L984.6401045634026,540.296958812895" close="False" data-weight="2.060660171779821" stroke-width="6" fill="none" stroke="#984ea3" />
<path d="M2424.125,1730.9834101745155 C2424.125,1742.0542050872577,2424.125,1764.1957949127423,2424.125,1775.2665898254845" close="False" data-weight="0.0" stroke-width="6" fill="none" stroke="#ff7f00" />
<path d="M2424.125,1655.9834101745155 C2424.125,1667.0542050872577,2424.125,1689.1957949127423,2424.125,1700.2665898254845" close="False" data-weight="0.0" stroke-width="6" fill="none" stroke="#ff7f00" />
<path d="M2424.125,1625.2665898254845 A93.83039863674549,93.83039863674549,0,0,0,2421.8472461960373,1604.7176985548367 M2421.8472461960373,1604.7176985548367 A35.85816626156064,35.85816626156064,0,0,0,2412.2150974233027,1587.2150974233027 M2412.2150974233027,1587.2150974233027" close="False" data-weight="1.0" stroke-width="6" fill="none" stroke="#ff7f00" />
<path d="M2300.2665898254845,1524.125 C2289.1957949127423,1524.125,2267.0542050872577,1524.125,2255.9834101745155,1524.125" close="False" data-weight="0.0" stroke-width="6" fill="none" stroke="#ff7f00" />
<path d="M2225.2665898254845,1524.125 C2214.1957949127423,1524.125,2192.0542050872577,1524.125,2180.9834101745155,1524.125" close="False" data-weight="0.0" stroke-width="6" fill="none" stroke="#ff7f00" />
<path d="M2150.2665898254845,1524.125 A93.83039863674549,93.83039863674549,0,0,1,2129.7176985548367,1521.8472461960373 M2129.7176985548367,1521.8472461960373 A35.85816626156064,35.85816626156064,0,0,1,2112.2150974233027,1512.2150974233027 M2112.2150974233027,1512.2150974233027" close="False" data-weight="1.0" stroke-width="6" fill="none" stroke="#ff7f00" />
<path d="M2053.125,1055.625 C2053.125,1066.875,2053.125,1089.375,2053.125,1100.625" close="False" data-weight="0.0" stroke-width="6" fill="none" stroke="#ff7f00" />
<path d="M2053.125,980.625 C2053.125,991.875,2053.125,1014.375,2053.125,1025.625" close="False" data-weight="0.0" stroke-width="6" fill="none" stroke="#ff7f00" />
<path d="M2053.125,905.625 C2053.125,916.875,2053.125,939.375,2053.125,950.625" close="False" data-weight="0.0" stroke-width="6" fill="none" stroke="#ff7f00" />
<path d="M1994.0349025766973,1394.0349025766973 C1986.0799512883486,1386.0799512883486,1970.1700487116514,1370.1700487116514,1962.2150974233027,1362.2150974233027" close="False" data-weight="0.0" stroke-width="6" fill="none" stroke="#ff7f00" />
<path d="M1994.0349025766973,1212.2150974233027 C1986.0799512883486,1220.1700487116514,1970.1700487116514,1236.0799512883486,1962.2150974233027,1244.0349025766973" close="False" data-weight="0.0" stroke-width="6" fill="none" stroke="#ff7f00" />
<path d="M2000.625,853.125 C1989.375,853.125,1966.875,853.125,1955.625,853.125" close="False" data-weight="0.0" stroke-width="6" fill="none" stroke="#ff7f00" />
<path d="M1925.625,853.125 A54.31980515339285,54.31980515339285,0,0,1,1904.837710518496,848.9901510378276 M1904.837710518496,848.9901510378276 A54.31980515339619,54.31980515339619,0,0,1,1887.2150974233027,837.2150974233027 M1887.2150974233027,837.2150974233027" close="False" data-weight="1.0" stroke-width="6" fill="none" stroke="#ff7f00" />
<path d="M1846.6098954365973,1365.2969588128951 C1838.7816612806716,1373.1251929688208,1823.1251929688208,1388.7816612806716,1815.2969588128951,1396.6098954365973" close="False" data-weight="0.0" stroke-width="6" fill="none" stroke="#ff7f00" />
<path d="M1771.6098954365973,1440.2969588128951 A57.45452644918516,57.45452644918516,0,0,1,1752.9703055610012,1452.7515345873453 M1752.9703055610012,1452.7515345873453 A57.45452644918828,57.45452644918828,0,0,1,1730.9834101745155,1457.125 M1730.9834101745155,1457.125" close="False" data-weight="1.0" stroke-width="6" fill="none" stroke="#ff7f00" />
<path d="M1769.0349025766973,719.0349025766973 C1761.0799512883486,711.0799512883486,1745.1700487116514,695.1700487116514,1737.2150974233027,687.2150974233027" close="False" data-weight="0.0" stroke-width="6" fill="none" stroke="#ff7f00" />
<path d="M1694.0349025766973,644.0349025766973 C1686.0799512883486,636.0799512883486,1670.1700487116514,620.1700487116514,1662.2150974233027,612.2150974233027" close="False" data-weight="0.0" stroke-width="6" fill="none" stroke="#ff7f00" />
<path d="M1603.125,530.625 A54.31980515339637,54.31980515339637,0,0,0,1607.259848962172,551.412289481504 M1607.259848962172,551.412289481504 A54.31980515339273,54.31980515339273,0,0,0,1619.0349025766973,569.0349025766973 M1619.0349025766973,569.0349025766973" close="False" data-weight="1.0" stroke-width="6" fill="none" stroke="#ff7f00" />
<path d="M1607.125,380.9834101745155 C1607.125,392.05420508725774,1607.125,414.19579491274226,1607.125,425.2665898254845" close="False" data-weight="0.0" stroke-width="6" fill="none" stroke="#ff7f00" />
<path d="M1607.125,305.9834101745155 C1607.125,317.05420508725774,1607.125,339.19579491274226,1607.125,350.2665898254845" close="False" data-weight="0.0" stroke-width="6" fill="none" stroke="#ff7f00" />
<path d="M1607.125,230.98341017451548 C1607.125,242.05420508725774,1607.125,264.19579491274226,1607.125,275.2665898254845" close="False" data-weight="0.0" stroke-width="6" fill="none" stroke="#ff7f00" />
<path d="M1607.125,155.98341017451548 C1607.125,167.05420508725774,1607.125,189.19579491274226,1607.125,200.26658982548452" close="False" data-weight="0.0" stroke-width="6" fill="none" stroke="#ff7f00" />
<path d="M1550.625,1978.125 A54.31980515339569,54.31980515339569,0,0,1,1529.837710518496,1973.9901510378277 M1529.837710518496,1973.9901510378277 A54.3198051533933,54.3198051533933,0,0,1,1512.2150974233027,1962.2150974233027 M1512.2150974233027,1962.2150974233027" close="False" data-weight="1.0" stroke-width="6" fill="none" stroke="#ff7f00" />
<path d="M1546.6098954365973,540.296958812895 C1538.7816612806716,548.1251929688206,1523.1251929688208,563.7816612806719,1515.2969588128951,571.6098954365974" close="False" data-weight="0.0" stroke-width="6" fill="none" stroke="#ff7f00" />
<path d="M1453.125,2105.625 A54.31980515339296,54.31980515339296,0,0,1,1448.9901510378277,2126.4122894815036 M1448.9901510378277,2126.4122894815036 A54.31980515340005,54.31980515340005,0,0,1,1437.2150974233027,2144.0349025766973 M1437.2150974233027,2144.0349025766973" close="False" data-weight="1.0" stroke-width="6" fill="none" stroke="#ff7f00" />
<path d="M1453.125,2030.625 C1453.125,2041.875,1453.125,2064.375,1453.125,2075.625" close="False" data-weight="0.0" stroke-width="6" fill="none" stroke="#ff7f00" />
<path d="M1453.125,1955.625 C1453.125,1966.875,1453.125,1989.375,1453.125,2000.625" close="False" data-weight="0.0" stroke-width="6" fill="none" stroke="#ff7f00" />
<path d="M1471.6098954365973,615.296958812895 A93.83039863672755,93.83039863672755,0,0,0,1458.6902502339128,631.4378343368907 M1458.6902502339128,631.4378343368907 A35.858166261562474,35.858166261562474,0,0,0,1453.125,650.625 M1453.125,650.625" close="False" data-weight="1.0" stroke-width="6" fill="none" stroke="#ff7f00" />
<path d="M1400.625,1903.125 C1389.375,1903.125,1366.875,1903.125,1355.625,1903.125" close="False" data-weight="0.0" stroke-width="6" fill="none" stroke="#ff7f00" />
<path d="M1374.125,1130.9834101745155 A93.83039863674549,93.83039863674549,0,0,1,1371.8472461960373,1151.5323014451633 M1371.8472461960373,1151.5323014451633 A35.85816626156064,35.85816626156064,0,0,1,1362.2150974233027,1169.0349025766973 M1362.2150974233027,1169.0349025766973" close="False" data-weight="1.0" stroke-width="6" fill="none" stroke="#ff7f00" />
<path d="M1394.0349025766973,644.0349025766973 C1386.0799512883486,636.0799512883486,1370.1700487116514,620.1700487116514,1362.2150974233027,612.2150974233027" close="False" data-weight="0.0" stroke-width="6" fill="none" stroke="#ff7f00" />
<path d="M1325.625,2203.125 C1314.375,2203.125,1291.875,2203.125,1280.625,2203.125" close="False" data-weight="0.0" stroke-width="6" fill="none" stroke="#ff7f00" />
<path d="M1325.625,1903.125 C1314.375,1903.125,1291.875,1903.125,1280.625,1903.125" close="False" data-weight="0.0" stroke-width="6" fill="none" stroke="#ff7f00" />
<path d="M1319.0349025766973,1212.2150974233027 C1311.0799512883486,1220.1700487116514,1295.1700487116514,1236.0799512883486,1287.2150974233027,1244.0349025766973" close="False" data-weight="0.0" stroke-width="6" fill="none" stroke="#ff7f00" />
<path d="M1325.2665898254845,1082.125 A28.42413293926552,28.42413293926552,0,0,1,1306.175814976782,1074.7596811067624 M1306.175814976782,1074.7596811067624 A447.70631264716883,447.70631264716883,0,0,1,1290.2969588128951,1059.6401045634025 M1290.2969588128951,1059.6401045634025" close="False" data-weight="1.0" stroke-width="6" fill="none" stroke="#ff7f00" />
<path d="M1319.0349025766973,569.0349025766973 A54.31980515339514,54.31980515339514,0,0,0,1301.412289481504,557.2598489621722 M1301.412289481504,557.2598489621722 A54.319805153393986,54.319805153393986,0,0,0,1280.625,553.125 M1280.625,553.125" close="False" data-weight="1.0" stroke-width="6" fill="none" stroke="#ff7f00" />
<path d="M1250.625,2203.125 C1239.375,2203.125,1216.875,2203.125,1205.625,2203.125" close="False" data-weight="0.0" stroke-width="6" fill="none" stroke="#ff7f00" />
<path d="M1244.0349025766973,1287.2150974233027 C1236.0799512883486,1295.1700487116514,1220.1700487116514,1311.0799512883486,1212.2150974233027,1319.0349025766973" close="False" data-weight="0.0" stroke-width="6" fill="none" stroke="#ff7f00" />
<path d="M1246.6098954365973,1015.953041187105 C1238.6866867625758,1008.0298325130836,1220.1383060973242,995.1383060973241,1212.2150974233027,987.2150974233027" close="False" data-weight="0.0" stroke-width="6" fill="none" stroke="#ff7f00" />
<path d="M1250.625,553.125 C1239.375,553.125,1216.875,553.125,1205.625,553.125" close="False" data-weight="0.0" stroke-width="6" fill="none" stroke="#ff7f00" />
<path d="M1175.625,1903.125 C1164.375,1903.125,1141.875,1903.125,1130.625,1903.125" close="False" data-weight="0.0" stroke-width="6" fill="none" stroke="#ff7f00" />
<path d="M1153.125,1430.625 C1153.125,1441.875,1153.125,1464.375,1153.125,1475.625" close="False" data-weight="0.0" stroke-width="6" fill="none" stroke="#ff7f00" />
<path d="M1169.0349025766973,944.0349025766973 C1161.0799512883486,936.0799512883486,1145.1700487116514,920.1700487116514,1137.2150974233027,912.2150974233027" close="False" data-weight="0.0" stroke-width="6" fill="none" stroke="#ff7f00" />
<path d="M1153.125,755.625 A54.31980515339637,54.31980515339637,0,0,1,1148.990151037828,776.412289481504 M1148.990151037828,776.412289481504 A54.31980515339273,54.31980515339273,0,0,1,1137.2150974233027,794.0349025766973 M1137.2150974233027,794.0349025766973" close="False" data-weight="1.0" stroke-width="6" fill="none" stroke="#ff7f00" />
<path d="M1153.125,680.625 C1153.125,691.875,1153.125,714.375,1153.125,725.625" close="False" data-weight="0.0" stroke-width="6" fill="none" stroke="#ff7f00" />
<path d="M1153.125,605.625 C1153.125,616.875,1153.125,639.375,1153.125,650.625" close="False" data-weight="0.0" stroke-width="6" fill="none" stroke="#ff7f00" />
<path d="M1100.625,1903.125 C1089.375,1903.125,1066.875,1903.125,1055.625,1903.125" close="False" data-weight="0.0" stroke-width="6" fill="none" stroke="#ff7f00" />
<path d="M1100.625,1528.125 C1089.375,1528.125,1066.875,1528.125,1055.625,1528.125" close="False" data-weight="0.0" stroke-width="6" fill="none" stroke="#ff7f00" />
<path d="M1100.625,553.125 C1089.375,553.125,1066.875,553.125,1055.625,553.125" close="False" data-weight="0.0" stroke-width="6" fill="none" stroke="#ff7f00" />
<path d="M1025.625,1903.125 C1014.375,1903.125,991.875,1903.125,980.625,1903.125" close="False" data-weight="0.0" stroke-width="6" fill="none" stroke="#ff7f00" />
<path d="M1025.625,1528.125 C1014.375,1528.125,991.875,1528.125,980.625,1528.125" close="False" data-weight="0.0" stroke-width="6" fill="none" stroke="#ff7f00" />
<path d="M1025.625,553.125 A35.858166261560655,35.858166261560655,0,0,1,1006.4378343368905,547.5597497660872 M1006.4378343368905,547.5597497660872 A93.8303986367466,93.8303986367466,0,0,1,990.296958812895,534.6401045634026 M990.296958812895,534.6401045634026" close="False" data-weight="1.0" stroke-width="6" fill="none" stroke="#ff7f00" />
<path d="M928.125,2030.625 A54.31980515339296,54.31980515339296,0,0,1,923.9901510378278,2051.4122894815036 M923.9901510378278,2051.4122894815036 A54.31980515340005,54.31980515340005,0,0,1,912.2150974233027,2069.0349025766973 M912.2150974233027,2069.0349025766973" close="False" data-weight="1.0" stroke-width="6" fill="none" stroke="#ff7f00" />
<path d="M928.125,1955.625 C928.125,1966.875,928.125,1989.375,928.125,2000.625" close="False" data-weight="0.0" stroke-width="6" fill="none" stroke="#ff7f00" />
<path d="M928.125,1805.625 C928.125,1816.875,928.125,1839.375,928.125,1850.625" close="False" data-weight="0.0" stroke-width="6" fill="none" stroke="#ff7f00" />
<path d="M928.125,1730.625 C928.125,1741.875,928.125,1764.375,928.125,1775.625" close="False" data-weight="0.0" stroke-width="6" fill="none" stroke="#ff7f00" />
<path d="M928.125,1655.625 C928.125,1666.875,928.125,1689.375,928.125,1700.625" close="False" data-weight="0.0" stroke-width="6" fill="none" stroke="#ff7f00" />
<path d="M928.125,1580.625 C928.125,1591.875,928.125,1614.375,928.125,1625.625" close="False" data-weight="0.0" stroke-width="6" fill="none" stroke="#ff7f00" />
<path d="M932.125,530.9834101745155 A57.45452644918623,57.45452644918623,0,0,1,927.7515345873452,552.9703055610012 M927.7515345873452,552.9703055610012 A57.45452644918757,57.45452644918757,0,0,1,915.296958812895,571.6098954365974 M915.296958812895,571.6098954365974" close="False" data-weight="1.0" stroke-width="6" fill="none" stroke="#ff7f00" />
<path d="M869.0349025766973,2112.2150974233027 C861.0799512883486,2120.1700487116514,845.1700487116514,2136.0799512883486,837.2150974233027,2144.0349025766973" close="False" data-weight="0.0" stroke-width="6" fill="none" stroke="#ff7f00" />
<path d="M794.0349025766973,2187.2150974233027 C786.0799512883486,2195.1700487116514,770.1700487116514,2211.0799512883486,762.2150974233027,2219.0349025766973" close="False" data-weight="0.0" stroke-width="6" fill="none" stroke="#ff7f00" />
<path d="M800.625,628.125 C789.375,628.125,766.875,628.125,755.625,628.125" close="False" data-weight="0.0" stroke-width="6" fill="none" stroke="#ff7f00" />
<path d="M719.0349025766973,2262.2150974233027 C711.0799512883486,2270.1700487116514,695.1700487116514,2286.0799512883486,687.2150974233027,2294.0349025766973" close="False" data-weight="0.0" stroke-width="6" fill="none" stroke="#ff7f00" />
<path d="M725.625,628.125 C714.375,628.125,691.875,628.125,680.625,628.125" close="False" data-weight="0.0" stroke-width="6" fill="none" stroke="#ff7f00" />
<path d="M650.625,628.125 C639.375,628.125,616.875,628.125,605.625,628.125" close="False" data-weight="0.0" stroke-width="6" fill="none" stroke="#ff7f00" />
<path d="M575.625,628.125 A101.0638173203613,101.0638173203613,0,0,0,553.4919874189422,630.5783466519272 M553.4919874189422,630.5783466519272 A38.622485006499396,38.622485006499396,0,0,0,534.6401045634026,640.953041187105 M534.6401045634026,640.953041187105" close="False" data-weight="1.0" stroke-width="6" fill="none" stroke="#ff7f00" />
<path d="M419.03490257669733,762.2150974233027 C411.0799512883487,770.1700487116514,395.1700487116513,786.0799512883486,387.21509742330267,794.0349025766973" close="False" data-weight="0.0" stroke-width="6" fill="none" stroke="#ff7f00" />
<path d="M344.03490257669733,837.2150974233027 C336.0799512883487,845.1700487116514,320.1700487116513,861.0799512883486,312.21509742330267,869.0349025766973" close="False" data-weight="0.0" stroke-width="6" fill="none" stroke="#ff7f00" />
<path d="M269.03490257669733,912.2150974233027 C261.0799512883487,920.1700487116514,245.1700487116513,936.0799512883486,237.21509742330267,944.0349025766973" close="False" data-weight="0.0" stroke-width="6" fill="none" stroke="#ff7f00" />
<path d="M178.125,1280.625 C178.125,1291.875,178.125,1314.375,178.125,1325.625" close="False" data-weight="0.0" stroke-width="6" fill="none" stroke="#ff7f00" />
<path d="M178.125,1205.625 C178.125,1216.875,178.125,1239.375,178.125,1250.625" close="False" data-weight="0.0" stroke-width="6" fill="none" stroke="#ff7f00" />
<path d="M178.125,1130.625 C178.125,1141.875,178.125,1164.375,178.125,1175.625" close="False" data-weight="0.0" stroke-width="6" fill="none" stroke="#ff7f00" />
<path d="M178.125,1055.625 C178.125,1066.875,178.125,1089.375,178.125,1100.625" close="False" data-weight="0.0" stroke-width="6" fill="none" stroke="#ff7f00" />
<path d="M194.0349025766973,987.2150974233027 A54.3198051533949,54.3198051533949,0,0,0,182.25984896217216,1004.8377105184961 M182.25984896217216,1004.8377105184961 A54.31980515339427,54.31980515339427,0,0,0,178.125,1025.625 M178.125,1025.625" close="False" data-weight="1.0" stroke-width="6" fill="none" stroke="#ff7f00" />
<path d="M2424.125,1775.2665898254845 L2424.125,1805.9834101745155" close="False" data-weight="1.75" stroke-width="6" fill="none" stroke="#ff7f00" />
<path d="M2424.125,1700.2665898254845 L2424.125,1730.9834101745155" close="False" data-weight="1.75" stroke-width="6" fill="none" stroke="#ff7f00" />
<path d="M2424.125,1625.2665898254845 L2424.125,1655.9834101745155" close="False" data-weight="1.75" stroke-width="6" fill="none" stroke="#ff7f00" />
<path d="M2369.0349025766973,1544.0349025766973 L2412.2150974233027,1587.2150974233027" close="False" data-weight="2.060660171779821" stroke-width="6" fill="none" stroke="#ff7f00" />
<path d="M2300.2665898254845,1524.125 L2330.9834101745155,1524.125" close="False" data-weight="1.75" stroke-width="6" fill="none" stroke="#ff7f00" />
<path d="M2225.2665898254845,1524.125 L2255.9834101745155,1524.125" close="False" data-weight="1.75" stroke-width="6" fill="none" stroke="#ff7f00" />
<path d="M2150.2665898254845,1524.125 L2180.9834101745155,1524.125" close="False" data-weight="1.75" stroke-width="6" fill="none" stroke="#ff7f00" />
<path d="M2069.0349025766973,1469.0349025766973 L2112.2150974233027,1512.2150974233027" close="False" data-weight="2.060660171779821" stroke-width="6" fill="none" stroke="#ff7f00" />
<path d="M2053.125,1100.625 L2053.125,1130.625" close="False" data-weight="1.75" stroke-width="6" fill="none" stroke="#ff7f00" />
<path d="M2053.125,1025.625 L2053.125,1055.625" close="False" data-weight="1.75" stroke-width="6" fill="none" stroke="#ff7f00" />
<path d="M2053.125,950.625 L2053.125,980.625" close="False" data-weight="1.75" stroke-width="6" fill="none" stroke="#ff7f00" />
<path d="M2053.125,875.625 L2053.125,905.625" close="False" data-weight="1.75" stroke-width="6" fill="none" stroke="#ff7f00" />
<path d="M1994.0349025766973,1394.0349025766973 L2037.2150974233027,1437.2150974233027" close="False" data-weight="2.060660171779821" stroke-width="6" fill="none" stroke="#ff7f00" />
<path d="M1994.0349025766973,1212.2150974233027 L2037.2150974233027,1169.0349025766973" close="False" data-weight="2.060660171779821" stroke-width="6" fill="none" stroke="#ff7f00" />
<path d="M2000.625,853.125 L2030.625,853.125" close="False" data-weight="1.75" stroke-width="6" fill="none" stroke="#ff7f00" />
<path d="M1919.0349025766973,1319.0349025766973 L1962.2150974233027,1362.2150974233027" close="False" data-weight="2.060660171779821" stroke-width="6" fill="none" stroke="#ff7f00" />
<path d="M1919.0349025766973,1287.2150974233027 L1962.2150974233027,1244.0349025766973" close="False" data-weight="2.060660171779821" stroke-width="6" fill="none" stroke="#ff7f00" />
<path d="M1925.625,853.125 L1955.625,853.125" close="False" data-weight="1.75" stroke-width="6" fill="none" stroke="#ff7f00" />
<path d="M1846.6098954365973,1365.2969588128951 L1890.2969588128951,1321.6098954365973" close="False" data-weight="2.060660171779821" stroke-width="6" fill="none" stroke="#ff7f00" />
<path d="M1844.0349025766973,794.0349025766973 L1887.2150974233027,837.2150974233027" close="False" data-weight="2.060660171779821" stroke-width="6" fill="none" stroke="#ff7f00" />
<path d="M1771.6098954365973,1440.2969588128951 L1815.2969588128951,1396.6098954365973" close="False" data-weight="2.060660171779821" stroke-width="6" fill="none" stroke="#ff7f00" />
<path d="M1769.0349025766973,719.0349025766973 L1812.2150974233027,762.2150974233027" close="False" data-weight="2.060660171779821" stroke-width="6" fill="none" stroke="#ff7f00" />
<path d="M1700.2665898254845,1457.125 L1730.9834101745155,1457.125" close="False" data-weight="1.75" stroke-width="6" fill="none" stroke="#ff7f00" />
<path d="M1694.0349025766973,644.0349025766973 L1737.2150974233027,687.2150974233027" close="False" data-weight="2.060660171779821" stroke-width="6" fill="none" stroke="#ff7f00" />
<path d="M1619.0349025766973,569.0349025766973 L1662.2150974233027,612.2150974233027" close="False" data-weight="2.060660171779821" stroke-width="6" fill="none" stroke="#ff7f00" />
<path d="M1603.125,500.625 L1603.125,530.625" close="False" data-weight="1.75" stroke-width="6" fill="none" stroke="#ff7f00" />
<path d="M1607.125,425.2665898254845 L1607.125,455.9834101745155" close="False" data-weight="1.75" stroke-width="6" fill="none" stroke="#ff7f00" />
<path d="M1607.125,350.2665898254845 L1607.125,380.9834101745155" close="False" data-weight="1.75" stroke-width="6" fill="none" stroke="#ff7f00" />
<path d="M1607.125,275.2665898254845 L1607.125,305.9834101745155" close="False" data-weight="1.75" stroke-width="6" fill="none" stroke="#ff7f00" />
<path d="M1607.125,200.26658982548452 L1607.125,230.98341017451548" close="False" data-weight="1.75" stroke-width="6" fill="none" stroke="#ff7f00" />
<path d="M1607.125,125.26658982548453 L1607.125,155.98341017451548" close="False" data-weight="1.75" stroke-width="6" fill="none" stroke="#ff7f00" />
<path d="M1550.625,1978.125 L1580.625,1978.125" close="False" data-weight="1.75" stroke-width="6" fill="none" stroke="#ff7f00" />
<path d="M1546.6098954365973,540.296958812895 L1590.2969588128951,496.6098954365974" close="False" data-weight="2.060660171779821" stroke-width="6" fill="none" stroke="#ff7f00" />
<path d="M1453.125,2075.625 L1453.125,2105.625" close="False" data-weight="1.75" stroke-width="6" fill="none" stroke="#ff7f00" />
<path d="M1453.125,2000.625 L1453.125,2030.625" close="False" data-weight="1.75" stroke-width="6" fill="none" stroke="#ff7f00" />
<path d="M1453.125,1925.625 L1453.125,1955.625" close="False" data-weight="1.75" stroke-width="6" fill="none" stroke="#ff7f00" />
<path d="M1469.0349025766973,1919.0349025766973 L1512.2150974233027,1962.2150974233027" close="False" data-weight="2.060660171779821" stroke-width="6" fill="none" stroke="#ff7f00" />
<path d="M1453.125,650.625 L1453.125,680.625" close="False" data-weight="1.75" stroke-width="6" fill="none" stroke="#ff7f00" />
<path d="M1471.6098954365973,615.296958812895 L1515.2969588128951,571.6098954365974" close="False" data-weight="2.060660171779821" stroke-width="6" fill="none" stroke="#ff7f00" />
<path d="M1394.0349025766973,2187.2150974233027 L1437.2150974233027,2144.0349025766973" close="False" data-weight="2.060660171779821" stroke-width="6" fill="none" stroke="#ff7f00" />
<path d="M1400.625,1903.125 L1430.625,1903.125" close="False" data-weight="1.75" stroke-width="6" fill="none" stroke="#ff7f00" />
<path d="M1374.125,1100.2665898254845 L1374.125,1130.9834101745155" close="False" data-weight="1.75" stroke-width="6" fill="none" stroke="#ff7f00" />
<path d="M1394.0349025766973,644.0349025766973 L1437.2150974233027,687.2150974233027" close="False" data-weight="2.060660171779821" stroke-width="6" fill="none" stroke="#ff7f00" />
<path d="M1325.625,2203.125 L1355.625,2203.125" close="False" data-weight="1.75" stroke-width="6" fill="none" stroke="#ff7f00" />
<path d="M1325.625,1903.125 L1355.625,1903.125" close="False" data-weight="1.75" stroke-width="6" fill="none" stroke="#ff7f00" />
<path d="M1319.0349025766973,1212.2150974233027 L1362.2150974233027,1169.0349025766973" close="False" data-weight="2.060660171779821" stroke-width="6" fill="none" stroke="#ff7f00" />
<path d="M1325.2665898254845,1082.125 L1355.9834101745155,1082.125" close="False" data-weight="1.75" stroke-width="6" fill="none" stroke="#ff7f00" />
<path d="M1319.0349025766973,569.0349025766973 L1362.2150974233027,612.2150974233027" close="False" data-weight="2.060660171779821" stroke-width="6" fill="none" stroke="#ff7f00" />
<path d="M1250.625,2203.125 L1280.625,2203.125" close="False" data-weight="1.75" stroke-width="6" fill="none" stroke="#ff7f00" />
<path d="M1250.625,1903.125 L1280.625,1903.125" close="False" data-weight="1.75" stroke-width="6" fill="none" stroke="#ff7f00" />
<path d="M1244.0349025766973,1287.2150974233027 L1287.2150974233027,1244.0349025766973" close="False" data-weight="2.060660171779821" stroke-width="6" fill="none" stroke="#ff7f00" />
<path d="M1246.6098954365973,1015.953041187105 L1290.2969588128951,1059.6401045634027" close="False" data-weight="2.060660171779821" stroke-width="6" fill="none" stroke="#ff7f00" />
<path d="M1250.625,553.125 L1280.625,553.125" close="False" data-weight="1.75" stroke-width="6" fill="none" stroke="#ff7f00" />
<path d="M1175.625,2203.125 L1205.625,2203.125" close="False" data-weight="1.75" stroke-width="6" fill="none" stroke="#ff7f00" />
<path d="M1175.625,1903.125 L1205.625,1903.125" close="False" data-weight="1.75" stroke-width="6" fill="none" stroke="#ff7f00" />
<path d="M1153.125,1475.625 L1153.125,1505.625" close="False" data-weight="1.75" stroke-width="6" fill="none" stroke="#ff7f00" />
<path d="M1153.125,1400.625 L1153.125,1430.625" close="False" data-weight="1.75" stroke-width="6" fill="none" stroke="#ff7f00" />
<path d="M1169.0349025766973,1362.2150974233027 L1212.2150974233027,1319.0349025766973" close="False" data-weight="2.060660171779821" stroke-width="6" fill="none" stroke="#ff7f00" />
<path d="M1169.0349025766973,944.0349025766973 L1212.2150974233027,987.2150974233027" close="False" data-weight="2.060660171779821" stroke-width="6" fill="none" stroke="#ff7f00" />
<path d="M1153.125,725.625 L1153.125,755.625" close="False" data-weight="1.75" stroke-width="6" fill="none" stroke="#ff7f00" />
<path d="M1153.125,650.625 L1153.125,680.625" close="False" data-weight="1.75" stroke-width="6" fill="none" stroke="#ff7f00" />
<path d="M1153.125,575.625 L1153.125,605.625" close="False" data-weight="1.75" stroke-width="6" fill="none" stroke="#ff7f00" />
<path d="M1175.625,553.125 L1205.625,553.125" close="False" data-weight="1.75" stroke-width="6" fill="none" stroke="#ff7f00" />
<path d="M1100.625,1903.125 L1130.625,1903.125" close="False" data-weight="1.75" stroke-width="6" fill="none" stroke="#ff7f00" />
<path d="M1100.625,1528.125 L1130.625,1528.125" close="False" data-weight="1.75" stroke-width="6" fill="none" stroke="#ff7f00" />
<path d="M1094.0349025766973,869.0349025766973 L1137.2150974233027,912.2150974233027" close="False" data-weight="2.060660171779821" stroke-width="6" fill="none" stroke="#ff7f00" />
<path d="M1094.0349025766973,837.2150974233027 L1137.2150974233027,794.0349025766973" close="False" data-weight="2.060660171779821" stroke-width="6" fill="none" stroke="#ff7f00" />
<path d="M1100.625,553.125 L1130.625,553.125" close="False" data-weight="1.75" stroke-width="6" fill="none" stroke="#ff7f00" />
<path d="M1025.625,1903.125 L1055.625,1903.125" close="False" data-weight="1.75" stroke-width="6" fill="none" stroke="#ff7f00" />
<path d="M1025.625,1528.125 L1055.625,1528.125" close="False" data-weight="1.75" stroke-width="6" fill="none" stroke="#ff7f00" />
<path d="M1025.625,553.125 L1055.625,553.125" close="False" data-weight="1.75" stroke-width="6" fill="none" stroke="#ff7f00" />
<path d="M928.125,2000.625 L928.125,2030.625" close="False" data-weight="1.75" stroke-width="6" fill="none" stroke="#ff7f00" />
<path d="M928.125,1925.625 L928.125,1955.625" close="False" data-weight="1.75" stroke-width="6" fill="none" stroke="#ff7f00" />
<path d="M950.625,1903.125 L980.625,1903.125" close="False" data-weight="1.75" stroke-width="6" fill="none" stroke="#ff7f00" />
<path d="M928.125,1850.625 L928.125,1880.625" close="False" data-weight="1.75" stroke-width="6" fill="none" stroke="#ff7f00" />
<path d="M928.125,1775.625 L928.125,1805.625" close="False" data-weight="1.75" stroke-width="6" fill="none" stroke="#ff7f00" />
<path d="M928.125,1700.625 L928.125,1730.625" close="False" data-weight="1.75" stroke-width="6" fill="none" stroke="#ff7f00" />
<path d="M928.125,1625.625 L928.125,1655.625" close="False" data-weight="1.75" stroke-width="6" fill="none" stroke="#ff7f00" />
<path d="M928.125,1550.625 L928.125,1580.625" close="False" data-weight="1.75" stroke-width="6" fill="none" stroke="#ff7f00" />
<path d="M950.625,1528.125 L980.625,1528.125" close="False" data-weight="1.75" stroke-width="6" fill="none" stroke="#ff7f00" />
<path d="M932.125,500.2665898254845 L932.125,530.9834101745155" close="False" data-weight="1.75" stroke-width="6" fill="none" stroke="#ff7f00" />
<path d="M946.6098954365974,490.953041187105 L990.296958812895,534.6401045634026" close="False" data-weight="2.060660171779821" stroke-width="6" fill="none" stroke="#ff7f00" />
<path d="M869.0349025766973,2112.2150974233027 L912.2150974233027,2069.0349025766973" close="False" data-weight="2.060660171779821" stroke-width="6" fill="none" stroke="#ff7f00" />
<path d="M871.6098954365974,615.296958812895 L915.296958812895,571.6098954365974" close="False" data-weight="2.060660171779821" stroke-width="6" fill="none" stroke="#ff7f00" />
<path d="M794.0349025766973,2187.2150974233027 L837.2150974233027,2144.0349025766973" close="False" data-weight="2.060660171779821" stroke-width="6" fill="none" stroke="#ff7f00" />
<path d="M800.625,628.125 L830.625,628.125" close="False" data-weight="1.75" stroke-width="6" fill="none" stroke="#ff7f00" />
<path d="M719.0349025766973,2262.2150974233027 L762.2150974233027,2219.0349025766973" close="False" data-weight="2.060660171779821" stroke-width="6" fill="none" stroke="#ff7f00" />
<path d="M725.625,628.125 L755.625,628.125" close="False" data-weight="1.75" stroke-width="6" fill="none" stroke="#ff7f00" />
<path d="M644.0349025766973,2337.2150974233027 L687.2150974233027,2294.0349025766973" close="False" data-weight="2.060660171779821" stroke-width="6" fill="none" stroke="#ff7f00" />
<path d="M650.625,628.125 L680.625,628.125" close="False" data-weight="1.75" stroke-width="6" fill="none" stroke="#ff7f00" />
<path d="M575.625,628.125 L605.625,628.125" close="False" data-weight="1.75" stroke-width="6" fill="none" stroke="#ff7f00" />
<path d="M490.953041187105,684.6401045634026 L534.6401045634026,640.953041187105" close="False" data-weight="2.060660171779821" stroke-width="6" fill="none" stroke="#ff7f00" />
<path d="M419.03490257669733,762.2150974233027 L462.21509742330267,719.0349025766973" close="False" data-weight="2.060660171779821" stroke-width="6" fill="none" stroke="#ff7f00" />
<path d="M344.03490257669733,837.2150974233027 L387.21509742330267,794.0349025766973" close="False" data-weight="2.060660171779821" stroke-width="6" fill="none" stroke="#ff7f00" />
<path d="M269.03490257669733,912.2150974233027 L312.21509742330267,869.0349025766973" close="False" data-weight="2.060660171779821" stroke-width="6" fill="none" stroke="#ff7f00" />
<path d="M178.125,1325.625 L178.125,1355.625" close="False" data-weight="1.75" stroke-width="6" fill="none" stroke="#ff7f00" />
<path d="M178.125,1250.625 L178.125,1280.625" close="False" data-weight="1.75" stroke-width="6" fill="none" stroke="#ff7f00" />
<path d="M178.125,1175.625 L178.125,1205.625" close="False" data-weight="1.75" stroke-width="6" fill="none" stroke="#ff7f00" />
<path d="M178.125,1100.625 L178.125,1130.625" close="False" data-weight="1.75" stroke-width="6" fill="none" stroke="#ff7f00" />
<path d="M178.125,1025.625 L178.125,1055.625" close="False" data-weight="1.75" stroke-width="6" fill="none" stroke="#ff7f00" />
<path d="M194.03490257669733,987.2150974233027 L237.2150974233027,944.0349025766973" close="False" data-weight="2.060660171779821" stroke-width="6" fill="none" stroke="#ff7f00" />
<path d="M1840.9530411871049,1359.6401045634027 C1833.1248070311792,1367.4683387193284,1817.4683387193284,1383.1248070311792,1809.6401045634027,1390.9530411871049" close="False" data-weight="0.0" stroke-width="6" fill="none" stroke="#4daf4a" />
<path d="M1765.9530411871049,1434.6401045634027 A49.45452644918799,49.45452644918799,0,0,1,1749.9088381020804,1445.360498327255 M1749.9088381020804,1445.360498327255 A49.45452644918555,49.45452644918555,0,0,1,1730.9834101745155,1449.125 M1730.9834101745155,1449.125" close="False" data-weight="1.0" stroke-width="6" fill="none" stroke="#4daf4a" />
<path d="M1615.9530411871049,1509.6401045634027 C1608.1248070311792,1517.4683387193284,1592.4683387193284,1533.1248070311792,1584.6401045634027,1540.9530411871049" close="False" data-weight="0.0" stroke-width="6" fill="none" stroke="#4daf4a" />
<path d="M1540.9530411871049,1584.6401045634027 C1533.1248070311792,1592.4683387193284,1517.4683387193284,1608.1248070311792,1509.6401045634027,1615.9530411871049" close="False" data-weight="0.0" stroke-width="6" fill="none" stroke="#4daf4a" />
<path d="M1449.125,1805.9834101745155 C1449.125,1817.0542050872577,1449.125,1839.1957949127423,1449.125,1850.2665898254845" close="False" data-weight="0.0" stroke-width="6" fill="none" stroke="#4daf4a" />
<path d="M1449.125,1730.9834101745155 C1449.125,1742.0542050872577,1449.125,1764.1957949127423,1449.125,1775.2665898254845" close="False" data-weight="0.0" stroke-width="6" fill="none" stroke="#4daf4a" />
<path d="M1465.9530411871049,1659.6401045634027 A57.45452644918516,57.45452644918516,0,0,0,1453.4984654126547,1678.2796944389988 M1453.4984654126547,1678.2796944389988 A57.45452644918828,57.45452644918828,0,0,0,1449.125,1700.2665898254845 M1449.125,1700.2665898254845" close="False" data-weight="1.0" stroke-width="6" fill="none" stroke="#4daf4a" />
<path d="M1390.9530411871347,1959.640104563373 A93.83039863710562,93.83039863710562,0,0,1,1374.8121656631258,1972.5597497660763 M1374.8121656631258,1972.5597497660763 A35.85816626155656,35.85816626155656,0,0,1,1355.625,1978.125 M1355.625,1978.125" close="False" data-weight="1.0" stroke-width="6" fill="none" stroke="#4daf4a" />
<path d="M1325.625,1978.125 C1314.375,1978.125,1291.875,1978.125,1280.625,1978.125" close="False" data-weight="0.0" stroke-width="6" fill="none" stroke="#4daf4a" />
<path d="M1250.625,1978.125 C1239.375,1978.125,1216.875,1978.125,1205.625,1978.125" close="False" data-weight="0.0" stroke-width="6" fill="none" stroke="#4daf4a" />
<path d="M1228.125,1430.625 A54.31980515339569,54.31980515339569,0,0,1,1223.9901510378277,1451.412289481504 M1223.9901510378277,1451.412289481504 A54.3198051533933,54.3198051533933,0,0,1,1212.2150974233027,1469.0349025766973 M1212.2150974233027,1469.0349025766973" close="False" data-weight="1.0" stroke-width="6" fill="none" stroke="#4daf4a" />
<path d="M1228.125,1355.625 C1228.125,1366.875,1228.125,1389.375,1228.125,1400.625" close="False" data-weight="0.0" stroke-width="6" fill="none" stroke="#4daf4a" />
<path d="M1228.125,1280.625 C1228.125,1291.875,1228.125,1314.375,1228.125,1325.625" close="False" data-weight="0.0" stroke-width="6" fill="none" stroke="#4daf4a" />
<path d="M1175.625,1978.125 C1164.375,1978.125,1141.875,1978.125,1130.625,1978.125" close="False" data-weight="0.0" stroke-width="6" fill="none" stroke="#4daf4a" />
<path d="M1175.625,1228.125 C1164.375,1228.125,1141.875,1228.125,1130.625,1228.125" close="False" data-weight="0.0" stroke-width="6" fill="none" stroke="#4daf4a" />
<path d="M1100.625,1978.125 C1089.375,1978.125,1066.875,1978.125,1055.625,1978.125" close="False" data-weight="0.0" stroke-width="6" fill="none" stroke="#4daf4a" />
<path d="M1094.0349025766973,1587.2150974233027 C1086.0799512883486,1595.1700487116514,1070.1700487116514,1611.0799512883486,1062.2150974233027,1619.0349025766973" close="False" data-weight="0.0" stroke-width="6" fill="none" stroke="#4daf4a" />
<path d="M1003.125,1880.625 C1003.125,1891.875,1003.125,1914.375,1003.125,1925.625" close="False" data-weight="0.0" stroke-width="6" fill="none" stroke="#4daf4a" />
<path d="M1003.125,1805.625 C1003.125,1816.875,1003.125,1839.375,1003.125,1850.625" close="False" data-weight="0.0" stroke-width="6" fill="none" stroke="#4daf4a" />
<path d="M1003.125,1730.625 C1003.125,1741.875,1003.125,1764.375,1003.125,1775.625" close="False" data-weight="0.0" stroke-width="6" fill="none" stroke="#4daf4a" />
<path d="M1019.0349025766973,1662.2150974233027 A54.31980515339522,54.31980515339522,0,0,0,1007.2598489621722,1679.837710518496 M1007.2598489621722,1679.837710518496 A54.3198051533941,54.3198051533941,0,0,0,1003.125,1700.625 M1003.125,1700.625" close="False" data-weight="1.0" stroke-width="6" fill="none" stroke="#4daf4a" />
<path d="M1019.0349025766973,1287.2150974233027 C1011.0799512883486,1295.1700487116514,995.1700487116514,1311.0799512883486,987.2150974233027,1319.0349025766973" close="False" data-weight="0.0" stroke-width="6" fill="none" stroke="#4daf4a" />
<path d="M1019.0349025766973,1169.0349025766973 C1011.0799512883486,1161.0799512883486,995.1700487116514,1145.1700487116514,987.2150974233027,1137.2150974233027" close="False" data-weight="0.0" stroke-width="6" fill="none" stroke="#4daf4a" />
<path d="M944.0349025766973,1362.2150974233027 C936.0799512883486,1370.1700487116514,920.1700487116514,1386.0799512883486,912.2150974233027,1394.0349025766973" close="False" data-weight="0.0" stroke-width="6" fill="none" stroke="#4daf4a" />
<path d="M944.0349025766973,1094.0349025766973 C936.0799512883486,1086.0799512883486,920.1700487116514,1070.1700487116514,912.2150974233027,1062.2150974233027" close="False" data-weight="0.0" stroke-width="6" fill="none" stroke="#4daf4a" />
<path d="M869.0349025766973,1437.2150974233027 C861.0799512883486,1445.1700487116514,845.1700487116514,1461.0799512883486,837.2150974233027,1469.0349025766973" close="False" data-weight="0.0" stroke-width="6" fill="none" stroke="#4daf4a" />
<path d="M869.0349025766973,1019.0349025766973 C861.0799512883486,1011.0799512883486,845.1700487116514,995.1700487116514,837.2150974233027,987.2150974233027" close="False" data-weight="0.0" stroke-width="6" fill="none" stroke="#4daf4a" />
<path d="M875.625,328.125 A54.319805153393474,54.319805153393474,0,0,0,854.8377105184961,332.25984896217227 M854.8377105184961,332.25984896217227 A54.319805153395706,54.319805153395706,0,0,0,837.2150974233027,344.03490257669733 M837.2150974233027,344.03490257669733" close="False" data-weight="1.0" stroke-width="6" fill="none" stroke="#4daf4a" />
<path d="M794.0349025766973,1512.2150974233027 A54.31980515339554,54.31980515339554,0,0,1,776.412289481504,1523.990151037828 M776.412289481504,1523.990151037828 A54.319805153393645,54.319805153393645,0,0,1,755.625,1528.125 M755.625,1528.125" close="False" data-weight="1.0" stroke-width="6" fill="none" stroke="#4daf4a" />
<path d="M794.0349025766973,944.0349025766973 C786.0799512883486,936.0799512883486,770.1700487116514,920.1700487116514,762.2150974233027,912.2150974233027" close="False" data-weight="0.0" stroke-width="6" fill="none" stroke="#4daf4a" />
<path d="M794.0349025766973,387.21509742330267 C786.0799512883486,395.1700487116513,770.1700487116514,411.0799512883487,762.2150974233027,419.03490257669733" close="False" data-weight="0.0" stroke-width="6" fill="none" stroke="#4daf4a" />
<path d="M725.625,1528.125 C714.375,1528.125,691.875,1528.125,680.625,1528.125" close="False" data-weight="0.0" stroke-width="6" fill="none" stroke="#4daf4a" />
<path d="M719.0349025766973,869.0349025766973 C711.0799512883486,861.0799512883486,695.1700487116514,845.1700487116514,687.2150974233027,837.2150974233027" close="False" data-weight="0.0" stroke-width="6" fill="none" stroke="#4daf4a" />
<path d="M719.0349025766973,462.21509742330267 C711.0799512883486,470.1700487116513,695.1700487116514,486.0799512883487,687.2150974233027,494.03490257669733" close="False" data-weight="0.0" stroke-width="6" fill="none" stroke="#4daf4a" />
<path d="M650.625,1528.125 C639.375,1528.125,616.875,1528.125,605.625,1528.125" close="False" data-weight="0.0" stroke-width="6" fill="none" stroke="#4daf4a" />
<path d="M644.0349025766973,794.0349025766973 C636.0799512883486,786.0799512883486,620.1700487116514,770.1700487116514,612.2150974233027,762.2150974233027" close="False" data-weight="0.0" stroke-width="6" fill="none" stroke="#4daf4a" />
<path d="M644.0349025766973,537.2150974233027 C636.0799512883486,545.1700487116514,620.1700487116514,561.0799512883486,612.2150974233027,569.0349025766973" close="False" data-weight="0.0" stroke-width="6" fill="none" stroke="#4daf4a" />
<path d="M575.625,1528.125 C564.375,1528.125,541.875,1528.125,530.625,1528.125" close="False" data-weight="0.0" stroke-width="6" fill="none" stroke="#4daf4a" />
<path d="M569.0349025766973,719.0349025766973 A54.3198051533949,54.3198051533949,0,0,0,551.4122894815039,707.2598489621721 M551.4122894815039,707.2598489621721 A54.31980515339421,54.31980515339421,0,0,0,530.625,703.125 M530.625,703.125" close="False" data-weight="1.0" stroke-width="6" fill="none" stroke="#4daf4a" />
<path d="M569.0349025766973,612.2150974233027 C561.1116939026759,620.1383060973241,548.2201674869164,638.6866867625761,540.296958812895,646.6098954365974" close="False" data-weight="0.0" stroke-width="6" fill="none" stroke="#4daf4a" />
<path d="M1840.9530411871049,1359.6401045634027 L1884.6401045634027,1315.9530411871049" close="False" data-weight="2.060660171779821" stroke-width="6" fill="none" stroke="#4daf4a" />
<path d="M1765.9530411871049,1434.6401045634027 L1809.6401045634027,1390.9530411871049" close="False" data-weight="2.060660171779821" stroke-width="6" fill="none" stroke="#4daf4a" />
<path d="M1700.2665898254845,1449.125 L1730.9834101745155,1449.125" close="False" data-weight="1.75" stroke-width="6" fill="none" stroke="#4daf4a" />
<path d="M1615.9530411871049,1509.6401045634027 L1659.6401045634027,1465.9530411871049" close="False" data-weight="2.060660171779821" stroke-width="6" fill="none" stroke="#4daf4a" />
<path d="M1540.9530411871049,1584.6401045634027 L1584.6401045634027,1540.9530411871049" close="False" data-weight="2.060660171779821" stroke-width="6" fill="none" stroke="#4daf4a" />
<path d="M1449.125,1850.2665898254845 L1449.125,1880.9834101745155" close="False" data-weight="1.75" stroke-width="6" fill="none" stroke="#4daf4a" />
<path d="M1449.125,1775.2665898254845 L1449.125,1805.9834101745155" close="False" data-weight="1.75" stroke-width="6" fill="none" stroke="#4daf4a" />
<path d="M1449.125,1700.2665898254845 L1449.125,1730.9834101745155" close="False" data-weight="1.75" stroke-width="6" fill="none" stroke="#4daf4a" />
<path d="M1465.9530411871049,1659.6401045634027 L1509.6401045634027,1615.9530411871049" close="False" data-weight="2.060660171779821" stroke-width="6" fill="none" stroke="#4daf4a" />
<path d="M1390.9530411871347,1959.640104563373 L1434.6401045634027,1915.9530411871049" close="False" data-weight="2.060660171779821" stroke-width="6" fill="none" stroke="#4daf4a" />
<path d="M1325.625,1978.125 L1355.625,1978.125" close="False" data-weight="1.75" stroke-width="6" fill="none" stroke="#4daf4a" />
<path d="M1250.625,1978.125 L1280.625,1978.125" close="False" data-weight="1.75" stroke-width="6" fill="none" stroke="#4daf4a" />
<path d="M1228.125,1400.625 L1228.125,1430.625" close="False" data-weight="1.75" stroke-width="6" fill="none" stroke="#4daf4a" />
<path d="M1228.125,1325.625 L1228.125,1355.625" close="False" data-weight="1.75" stroke-width="6" fill="none" stroke="#4daf4a" />
<path d="M1228.125,1250.625 L1228.125,1280.625" close="False" data-weight="1.75" stroke-width="6" fill="none" stroke="#4daf4a" />
<path d="M1175.625,1978.125 L1205.625,1978.125" close="False" data-weight="1.75" stroke-width="6" fill="none" stroke="#4daf4a" />
<path d="M1169.0349025766973,1512.2150974233027 L1212.2150974233027,1469.0349025766973" close="False" data-weight="2.060660171779821" stroke-width="6" fill="none" stroke="#4daf4a" />
<path d="M1175.625,1228.125 L1205.625,1228.125" close="False" data-weight="1.75" stroke-width="6" fill="none" stroke="#4daf4a" />
<path d="M1100.625,1978.125 L1130.625,1978.125" close="False" data-weight="1.75" stroke-width="6" fill="none" stroke="#4daf4a" />
<path d="M1094.0349025766973,1587.2150974233027 L1137.2150974233027,1544.0349025766973" close="False" data-weight="2.060660171779821" stroke-width="6" fill="none" stroke="#4daf4a" />
<path d="M1100.625,1228.125 L1130.625,1228.125" close="False" data-weight="1.75" stroke-width="6" fill="none" stroke="#4daf4a" />
<path d="M1025.625,1978.125 L1055.625,1978.125" close="False" data-weight="1.75" stroke-width="6" fill="none" stroke="#4daf4a" />
<path d="M1003.125,1925.625 L1003.125,1955.625" close="False" data-weight="1.75" stroke-width="6" fill="none" stroke="#4daf4a" />
<path d="M1003.125,1850.625 L1003.125,1880.625" close="False" data-weight="1.75" stroke-width="6" fill="none" stroke="#4daf4a" />
<path d="M1003.125,1775.625 L1003.125,1805.625" close="False" data-weight="1.75" stroke-width="6" fill="none" stroke="#4daf4a" />
<path d="M1003.125,1700.625 L1003.125,1730.625" close="False" data-weight="1.75" stroke-width="6" fill="none" stroke="#4daf4a" />
<path d="M1019.0349025766973,1662.2150974233027 L1062.2150974233027,1619.0349025766973" close="False" data-weight="2.060660171779821" stroke-width="6" fill="none" stroke="#4daf4a" />
<path d="M1019.0349025766973,1287.2150974233027 L1062.2150974233027,1244.0349025766973" close="False" data-weight="2.060660171779821" stroke-width="6" fill="none" stroke="#4daf4a" />
<path d="M1019.0349025766973,1169.0349025766973 L1062.2150974233027,1212.2150974233027" close="False" data-weight="2.060660171779821" stroke-width="6" fill="none" stroke="#4daf4a" />
<path d="M944.0349025766973,1362.2150974233027 L987.2150974233027,1319.0349025766973" close="False" data-weight="2.060660171779821" stroke-width="6" fill="none" stroke="#4daf4a" />
<path d="M944.0349025766973,1094.0349025766973 L987.2150974233027,1137.2150974233027" close="False" data-weight="2.060660171779821" stroke-width="6" fill="none" stroke="#4daf4a" />
<path d="M869.0349025766973,1437.2150974233027 L912.2150974233027,1394.0349025766973" close="False" data-weight="2.060660171779821" stroke-width="6" fill="none" stroke="#4daf4a" />
<path d="M869.0349025766973,1019.0349025766973 L912.2150974233027,1062.2150974233027" close="False" data-weight="2.060660171779821" stroke-width="6" fill="none" stroke="#4daf4a" />
<path d="M875.625,328.125 L905.625,328.125" close="False" data-weight="1.75" stroke-width="6" fill="none" stroke="#4daf4a" />
<path d="M794.0349025766973,1512.2150974233027 L837.2150974233027,1469.0349025766973" close="False" data-weight="2.060660171779821" stroke-width="6" fill="none" stroke="#4daf4a" />
<path d="M794.0349025766973,944.0349025766973 L837.2150974233027,987.2150974233027" close="False" data-weight="2.060660171779821" stroke-width="6" fill="none" stroke="#4daf4a" />
<path d="M794.0349025766973,387.21509742330267 L837.2150974233027,344.03490257669733" close="False" data-weight="2.060660171779821" stroke-width="6" fill="none" stroke="#4daf4a" />
<path d="M725.625,1528.125 L755.625,1528.125" close="False" data-weight="1.75" stroke-width="6" fill="none" stroke="#4daf4a" />
<path d="M719.0349025766973,869.0349025766973 L762.2150974233027,912.2150974233027" close="False" data-weight="2.060660171779821" stroke-width="6" fill="none" stroke="#4daf4a" />
<path d="M719.0349025766973,462.21509742330267 L762.2150974233027,419.03490257669733" close="False" data-weight="2.060660171779821" stroke-width="6" fill="none" stroke="#4daf4a" />
<path d="M650.625,1528.125 L680.625,1528.125" close="False" data-weight="1.75" stroke-width="6" fill="none" stroke="#4daf4a" />
<path d="M644.0349025766973,794.0349025766973 L687.2150974233027,837.2150974233027" close="False" data-weight="2.060660171779821" stroke-width="6" fill="none" stroke="#4daf4a" />
<path d="M644.0349025766973,537.2150974233027 L687.2150974233027,494.03490257669733" close="False" data-weight="2.060660171779821" stroke-width="6" fill="none" stroke="#4daf4a" />
<path d="M575.625,1528.125 L605.625,1528.125" close="False" data-weight="1.75" stroke-width="6" fill="none" stroke="#4daf4a" />
<path d="M569.0349025766973,719.0349025766973 L612.2150974233027,762.2150974233027" close="False" data-weight="2.060660171779821" stroke-width="6" fill="none" stroke="#4daf4a" />
<path d="M569.0349025766973,612.2150974233027 L612.2150974233027,569.0349025766973" close="False" data-weight="2.060660171779821" stroke-width="6" fill="none" stroke="#4daf4a" />
<path d="M500.625,1528.125 L530.625,1528.125" close="False" data-weight="1.75" stroke-width="6" fill="none" stroke="#4daf4a" />
<path d="M500.625,703.125 L530.625,703.125" close="False" data-weight="1.75" stroke-width="6" fill="none" stroke="#4daf4a" />
<path d="M496.6098954365974,690.296958812895 L540.296958812895,646.6098954365974" close="False" data-weight="2.060660171779821" stroke-width="6" fill="none" stroke="#4daf4a" />
<path d="M2300.2665898254845,1532.125 C2289.1957949127423,1532.125,2267.0542050872577,1532.125,2255.9834101745155,1532.125" close="False" data-weight="0.0" stroke-width="6" fill="none" stroke="#377eb8" />
<path d="M2225.2665898254845,1532.125 C2214.1957949127423,1532.125,2192.0542050872577,1532.125,2180.9834101745155,1532.125" close="False" data-weight="0.0" stroke-width="6" fill="none" stroke="#377eb8" />
<path d="M2150.2665898254845,1532.125 C2139.061480661171,1532.125,2116.8301091643134,1528.125,2105.625,1528.125" close="False" data-weight="0.0" stroke-width="6" fill="none" stroke="#377eb8" />
<path d="M2075.625,1528.125 C2064.375,1528.125,2041.875,1528.125,2030.625,1528.125" close="False" data-weight="0.0" stroke-width="6" fill="none" stroke="#377eb8" />
<path d="M2000.625,1528.125 C1989.375,1528.125,1966.875,1528.125,1955.625,1528.125" close="False" data-weight="0.0" stroke-width="6" fill="none" stroke="#377eb8" />
<path d="M1925.625,1528.125 C1914.375,1528.125,1891.875,1528.125,1880.625,1528.125" close="False" data-weight="0.0" stroke-width="6" fill="none" stroke="#377eb8" />
<path d="M1850.625,1528.125 C1839.375,1528.125,1816.875,1528.125,1805.625,1528.125" close="False" data-weight="0.0" stroke-width="6" fill="none" stroke="#377eb8" />
<path d="M1775.625,1528.125 A54.31980515339569,54.31980515339569,0,0,1,1754.837710518496,1523.9901510378277 M1754.837710518496,1523.9901510378277 A54.3198051533933,54.3198051533933,0,0,1,1737.2150974233027,1512.2150974233027 M1737.2150974233027,1512.2150974233027" close="False" data-weight="1.0" stroke-width="6" fill="none" stroke="#377eb8" />
<path d="M1621.6098954365973,1515.2969588128951 C1613.7816612806716,1523.1251929688208,1598.1251929688208,1538.7816612806716,1590.2969588128951,1546.6098954365973" close="False" data-weight="0.0" stroke-width="6" fill="none" stroke="#377eb8" />
<path d="M1619.0349025766973,1394.0349025766973 C1611.0799512883486,1386.0799512883486,1595.1700487116514,1370.1700487116514,1587.2150974233027,1362.2150974233027" close="False" data-weight="0.0" stroke-width="6" fill="none" stroke="#377eb8" />
<path d="M1599.125,380.9834101745155 C1599.125,392.05420508725774,1599.125,414.19579491274226,1599.125,425.2665898254845" close="False" data-weight="0.0" stroke-width="6" fill="none" stroke="#377eb8" />
<path d="M1599.125,305.9834101745155 C1599.125,317.05420508725774,1599.125,339.19579491274226,1599.125,350.2665898254845" close="False" data-weight="0.0" stroke-width="6" fill="none" stroke="#377eb8" />
<path d="M1599.125,230.98341017451548 C1599.125,242.05420508725774,1599.125,264.19579491274226,1599.125,275.2665898254845" close="False" data-weight="0.0" stroke-width="6" fill="none" stroke="#377eb8" />
<path d="M1599.125,155.98341017451548 C1599.125,167.05420508725774,1599.125,189.19579491274226,1599.125,200.26658982548452" close="False" data-weight="0.0" stroke-width="6" fill="none" stroke="#377eb8" />
<path d="M1550.625,2428.125 C1539.375,2428.125,1516.875,2428.125,1505.625,2428.125" close="False" data-weight="0.0" stroke-width="6" fill="none" stroke="#377eb8" />
<path d="M1546.6098954365973,1590.2969588128951 C1538.7816612806716,1598.1251929688208,1523.1251929688208,1613.7816612806716,1515.2969588128951,1621.6098954365973" close="False" data-weight="0.0" stroke-width="6" fill="none" stroke="#377eb8" />
<path d="M1544.0349025766973,1319.0349025766973 C1536.0799512883486,1311.0799512883486,1520.1700487116514,1295.1700487116514,1512.2150974233027,1287.2150974233027" close="False" data-weight="0.0" stroke-width="6" fill="none" stroke="#377eb8" />
<path d="M1540.9530411871049,534.6401045634026 C1533.1248070311792,542.4683387193281,1517.4683387193284,558.1248070311794,1509.6401045634027,565.953041187105" close="False" data-weight="0.0" stroke-width="6" fill="none" stroke="#377eb8" />
<path d="M1475.625,2428.125 C1464.375,2428.125,1441.875,2428.125,1430.625,2428.125" close="False" data-weight="0.0" stroke-width="6" fill="none" stroke="#377eb8" />
<path d="M1457.125,1805.9834101745155 C1457.125,1817.0542050872577,1457.125,1839.1957949127423,1457.125,1850.2665898254845" close="False" data-weight="0.0" stroke-width="6" fill="none" stroke="#377eb8" />
<path d="M1457.125,1730.9834101745155 C1457.125,1742.0542050872577,1457.125,1764.1957949127423,1457.125,1775.2665898254845" close="False" data-weight="0.0" stroke-width="6" fill="none" stroke="#377eb8" />
<path d="M1471.6098954365973,1665.2969588128951 A49.45452644918799,49.45452644918799,0,0,0,1460.889501672745,1681.3411618979196 M1460.889501672745,1681.3411618979196 A49.45452644918555,49.45452644918555,0,0,0,1457.125,1700.2665898254845 M1457.125,1700.2665898254845" close="False" data-weight="1.0" stroke-width="6" fill="none" stroke="#377eb8" />
<path d="M1469.0349025766973,1244.0349025766973 C1461.0799512883486,1236.0799512883486,1445.1700487116514,1220.1700487116514,1437.2150974233027,1212.2150974233027" close="False" data-weight="0.0" stroke-width="6" fill="none" stroke="#377eb8" />
<path d="M1465.9530411871049,609.6401045634026 C1458.0298325130834,617.5633132374239,1445.1383060973242,636.1116939026759,1437.2150974233027,644.0349025766973" close="False" data-weight="0.0" stroke-width="6" fill="none" stroke="#377eb8" />
<path d="M1400.625,2428.125 A54.31980515339728,54.31980515339728,0,0,1,1379.837710518496,2423.9901510378277 M1379.837710518496,2423.9901510378277 A54.319805153387826,54.319805153387826,0,0,1,1362.2150974233027,2412.2150974233027 M1362.2150974233027,2412.2150974233027" close="False" data-weight="1.0" stroke-width="6" fill="none" stroke="#377eb8" />
<path d="M1396.6098954365677,1965.2969588129247 C1388.6866867625538,1973.2201674869386,1370.1383060973167,1986.1116939026833,1362.2150974233027,1994.0349025766973" close="False" data-weight="0.0" stroke-width="6" fill="none" stroke="#377eb8" />
<path d="M1394.0349025766973,1169.0349025766973 C1386.0799512883486,1161.0799512883486,1370.1700487116514,1145.1700487116514,1362.2150974233027,1137.2150974233027" close="False" data-weight="0.0" stroke-width="6" fill="none" stroke="#377eb8" />
<path d="M1394.0349025766973,687.2150974233027 C1386.0799512883486,695.1700487116514,1370.1700487116514,711.0799512883486,1362.2150974233027,719.0349025766973" close="False" data-weight="0.0" stroke-width="6" fill="none" stroke="#377eb8" />
<path d="M1319.0349025766973,2369.0349025766973 C1311.0799512883486,2361.0799512883486,1295.1700487116514,2345.1700487116514,1287.2150974233027,2337.2150974233027" close="False" data-weight="0.0" stroke-width="6" fill="none" stroke="#377eb8" />
<path d="M1319.0349025766973,2037.2150974233027 C1311.0799512883486,2045.1700487116514,1295.1700487116514,2061.0799512883486,1287.2150974233027,2069.0349025766973" close="False" data-weight="0.0" stroke-width="6" fill="none" stroke="#377eb8" />
<path d="M1319.0349025766973,1094.0349025766973 C1311.1116939026758,1086.1116939026758,1292.5633132374242,1073.2201674869166,1284.6401045634027,1065.2969588128951" close="False" data-weight="0.0" stroke-width="6" fill="none" stroke="#377eb8" />
<path d="M1319.0349025766973,762.2150974233027 C1311.0799512883486,770.1700487116514,1295.1700487116514,786.0799512883486,1287.2150974233027,794.0349025766973" close="False" data-weight="0.0" stroke-width="6" fill="none" stroke="#377eb8" />
<path d="M1244.0349025766973,2294.0349025766973 C1236.0799512883486,2286.0799512883486,1220.1700487116514,2270.1700487116514,1212.2150974233027,2262.2150974233027" close="False" data-weight="0.0" stroke-width="6" fill="none" stroke="#377eb8" />
<path d="M1244.0349025766973,2112.2150974233027 C1236.0799512883486,2120.1700487116514,1220.1700487116514,2136.0799512883486,1212.2150974233027,2144.0349025766973" close="False" data-weight="0.0" stroke-width="6" fill="none" stroke="#377eb8" />
<path d="M1228.125,980.625 A101.06381732036016,101.06381732036016,0,0,0,1230.5783466519272,1002.7580125810575 M1230.5783466519272,1002.7580125810575 A38.622485006498195,38.622485006498195,0,0,0,1240.9530411871049,1021.6098954365974 M1240.9530411871049,1021.6098954365974" close="False" data-weight="1.0" stroke-width="6" fill="none" stroke="#377eb8" />
<path d="M1244.0349025766973,837.2150974233027 A54.31980515339554,54.31980515339554,0,0,0,1232.259848962172,854.837710518496 M1232.259848962172,854.837710518496 A54.319805153393645,54.319805153393645,0,0,0,1228.125,875.625 M1228.125,875.625" close="False" data-weight="1.0" stroke-width="6" fill="none" stroke="#377eb8" />
<path d="M1169.0349025766973,987.2150974233027 C1161.0799512883486,995.1700487116514,1145.1700487116514,1011.0799512883486,1137.2150974233027,1019.0349025766973" close="False" data-weight="0.0" stroke-width="6" fill="none" stroke="#377eb8" />
<path d="M1094.0349025766973,1062.2150974233027 C1086.0799512883486,1070.1700487116514,1070.1700487116514,1086.0799512883486,1062.2150974233027,1094.0349025766973" close="False" data-weight="0.0" stroke-width="6" fill="none" stroke="#377eb8" />
<path d="M1019.0349025766973,1137.2150974233027 A54.31980515339554,54.31980515339554,0,0,1,1001.412289481504,1148.990151037828 M1001.412289481504,1148.990151037828 A54.319805153393645,54.319805153393645,0,0,1,980.625,1153.125 M980.625,1153.125" close="False" data-weight="1.0" stroke-width="6" fill="none" stroke="#377eb8" />
<path d="M875.625,1153.125 C864.375,1153.125,841.875,1153.125,830.625,1153.125" close="False" data-weight="0.0" stroke-width="6" fill="none" stroke="#377eb8" />
<path d="M869.0349025766973,1094.0349025766973 C861.0799512883486,1086.0799512883486,845.1700487116514,1070.1700487116514,837.2150974233027,1062.2150974233027" close="False" data-weight="0.0" stroke-width="6" fill="none" stroke="#377eb8" />
<path d="M800.625,1153.125 C789.375,1153.125,766.875,1153.125,755.625,1153.125" close="False" data-weight="0.0" stroke-width="6" fill="none" stroke="#377eb8" />
<path d="M794.0349025766973,1019.0349025766973 C786.0799512883486,1011.0799512883486,770.1700487116514,995.1700487116514,762.2150974233027,987.2150974233027" close="False" data-weight="0.0" stroke-width="6" fill="none" stroke="#377eb8" />
<path d="M725.625,1153.125 A54.31980515339637,54.31980515339637,0,0,0,704.837710518496,1157.259848962172 M704.837710518496,1157.259848962172 A54.31980515339273,54.31980515339273,0,0,0,687.2150974233027,1169.0349025766973 M687.2150974233027,1169.0349025766973" close="False" data-weight="1.0" stroke-width="6" fill="none" stroke="#377eb8" />
<path d="M719.0349025766973,944.0349025766973 C711.0799512883486,936.0799512883486,695.1700487116514,920.1700487116514,687.2150974233027,912.2150974233027" close="False" data-weight="0.0" stroke-width="6" fill="none" stroke="#377eb8" />
<path d="M644.0349025766973,1212.2150974233027 C636.0799512883486,1220.1700487116514,620.1700487116514,1236.0799512883486,612.2150974233027,1244.0349025766973" close="False" data-weight="0.0" stroke-width="6" fill="none" stroke="#377eb8" />
<path d="M644.0349025766973,869.0349025766973 C636.0799512883486,861.0799512883486,620.1700487116514,845.1700487116514,612.2150974233027,837.2150974233027" close="False" data-weight="0.0" stroke-width="6" fill="none" stroke="#377eb8" />
<path d="M569.0349025766973,1287.2150974233027 C561.0799512883486,1295.1700487116514,545.1700487116514,1311.0799512883486,537.2150974233027,1319.0349025766973" close="False" data-weight="0.0" stroke-width="6" fill="none" stroke="#377eb8" />
<path d="M569.0349025766973,794.0349025766973 C561.0799512883486,786.0799512883486,545.1700487116514,770.1700487116514,537.2150974233027,762.2150974233027" close="False" data-weight="0.0" stroke-width="6" fill="none" stroke="#377eb8" />
<path d="M478.125,1430.625 C478.125,1441.875,478.125,1464.375,478.125,1475.625" close="False" data-weight="0.0" stroke-width="6" fill="none" stroke="#377eb8" />
<path d="M425.625,1528.125 C414.375,1528.125,391.875,1528.125,380.625,1528.125" close="False" data-weight="0.0" stroke-width="6" fill="none" stroke="#377eb8" />
<path d="M350.625,1528.125 C339.375,1528.125,316.875,1528.125,305.625,1528.125" close="False" data-weight="0.0" stroke-width="6" fill="none" stroke="#377eb8" />
<path d="M275.625,1528.125 C264.375,1528.125,241.875,1528.125,230.625,1528.125" close="False" data-weight="0.0" stroke-width="6" fill="none" stroke="#377eb8" />
<path d="M200.625,1528.125 C189.375,1528.125,166.875,1528.125,155.625,1528.125" close="False" data-weight="0.0" stroke-width="6" fill="none" stroke="#377eb8" />
<path d="M2300.2665898254845,1532.125 L2330.9834101745155,1532.125" close="False" data-weight="1.75" stroke-width="6" fill="none" stroke="#377eb8" />
<path d="M2225.2665898254845,1532.125 L2255.9834101745155,1532.125" close="False" data-weight="1.75" stroke-width="6" fill="none" stroke="#377eb8" />
<path d="M2150.2665898254845,1532.125 L2180.9834101745155,1532.125" close="False" data-weight="1.75" stroke-width="6" fill="none" stroke="#377eb8" />
<path d="M2075.625,1528.125 L2105.625,1528.125" close="False" data-weight="1.75" stroke-width="6" fill="none" stroke="#377eb8" />
<path d="M2000.625,1528.125 L2030.625,1528.125" close="False" data-weight="1.75" stroke-width="6" fill="none" stroke="#377eb8" />
<path d="M1925.625,1528.125 L1955.625,1528.125" close="False" data-weight="1.75" stroke-width="6" fill="none" stroke="#377eb8" />
<path d="M1850.625,1528.125 L1880.625,1528.125" close="False" data-weight="1.75" stroke-width="6" fill="none" stroke="#377eb8" />
<path d="M1775.625,1528.125 L1805.625,1528.125" close="False" data-weight="1.75" stroke-width="6" fill="none" stroke="#377eb8" />
<path d="M1694.0349025766973,1469.0349025766973 L1737.2150974233027,1512.2150974233027" close="False" data-weight="2.060660171779821" stroke-width="6" fill="none" stroke="#377eb8" />
<path d="M1621.6098954365973,1515.2969588128951 L1665.2969588128951,1471.6098954365973" close="False" data-weight="2.060660171779821" stroke-width="6" fill="none" stroke="#377eb8" />
<path d="M1619.0349025766973,1394.0349025766973 L1662.2150974233027,1437.2150974233027" close="False" data-weight="2.060660171779821" stroke-width="6" fill="none" stroke="#377eb8" />
<path d="M1599.125,425.2665898254845 L1599.125,455.9834101745155" close="False" data-weight="1.75" stroke-width="6" fill="none" stroke="#377eb8" />
<path d="M1599.125,350.2665898254845 L1599.125,380.9834101745155" close="False" data-weight="1.75" stroke-width="6" fill="none" stroke="#377eb8" />
<path d="M1599.125,275.2665898254845 L1599.125,305.9834101745155" close="False" data-weight="1.75" stroke-width="6" fill="none" stroke="#377eb8" />
<path d="M1599.125,200.26658982548452 L1599.125,230.98341017451548" close="False" data-weight="1.75" stroke-width="6" fill="none" stroke="#377eb8" />
<path d="M1599.125,125.26658982548453 L1599.125,155.98341017451548" close="False" data-weight="1.75" stroke-width="6" fill="none" stroke="#377eb8" />
<path d="M1550.625,2428.125 L1580.625,2428.125" close="False" data-weight="1.75" stroke-width="6" fill="none" stroke="#377eb8" />
<path d="M1546.6098954365973,1590.2969588128951 L1590.2969588128951,1546.6098954365973" close="False" data-weight="2.060660171779821" stroke-width="6" fill="none" stroke="#377eb8" />
<path d="M1544.0349025766973,1319.0349025766973 L1587.2150974233027,1362.2150974233027" close="False" data-weight="2.060660171779821" stroke-width="6" fill="none" stroke="#377eb8" />
<path d="M1540.9530411871049,534.6401045634026 L1584.6401045634027,490.953041187105" close="False" data-weight="2.060660171779821" stroke-width="6" fill="none" stroke="#377eb8" />
<path d="M1475.625,2428.125 L1505.625,2428.125" close="False" data-weight="1.75" stroke-width="6" fill="none" stroke="#377eb8" />
<path d="M1457.125,1850.2665898254845 L1457.125,1880.9834101745155" close="False" data-weight="1.75" stroke-width="6" fill="none" stroke="#377eb8" />
<path d="M1457.125,1775.2665898254845 L1457.125,1805.9834101745155" close="False" data-weight="1.75" stroke-width="6" fill="none" stroke="#377eb8" />
<path d="M1457.125,1700.2665898254845 L1457.125,1730.9834101745155" close="False" data-weight="1.75" stroke-width="6" fill="none" stroke="#377eb8" />
<path d="M1471.6098954365973,1665.2969588128951 L1515.2969588128951,1621.6098954365973" close="False" data-weight="2.060660171779821" stroke-width="6" fill="none" stroke="#377eb8" />
<path d="M1469.0349025766973,1244.0349025766973 L1512.2150974233027,1287.2150974233027" close="False" data-weight="2.060660171779821" stroke-width="6" fill="none" stroke="#377eb8" />
<path d="M1465.9530411871049,609.6401045634026 L1509.6401045634027,565.953041187105" close="False" data-weight="2.060660171779821" stroke-width="6" fill="none" stroke="#377eb8" />
<path d="M1400.625,2428.125 L1430.625,2428.125" close="False" data-weight="1.75" stroke-width="6" fill="none" stroke="#377eb8" />
<path d="M1396.6098954365677,1965.2969588129247 L1440.2969588128951,1921.6098954365973" close="False" data-weight="2.060660171779821" stroke-width="6" fill="none" stroke="#377eb8" />
<path d="M1394.0349025766973,1169.0349025766973 L1437.2150974233027,1212.2150974233027" close="False" data-weight="2.060660171779821" stroke-width="6" fill="none" stroke="#377eb8" />
<path d="M1394.0349025766973,687.2150974233027 L1437.2150974233027,644.0349025766973" close="False" data-weight="2.060660171779821" stroke-width="6" fill="none" stroke="#377eb8" />
<path d="M1319.0349025766973,2369.0349025766973 L1362.2150974233027,2412.2150974233027" close="False" data-weight="2.060660171779821" stroke-width="6" fill="none" stroke="#377eb8" />
<path d="M1319.0349025766973,2037.2150974233027 L1362.2150974233027,1994.0349025766973" close="False" data-weight="2.060660171779821" stroke-width="6" fill="none" stroke="#377eb8" />
<path d="M1319.0349025766973,1094.0349025766973 L1362.2150974233027,1137.2150974233027" close="False" data-weight="2.060660171779821" stroke-width="6" fill="none" stroke="#377eb8" />
<path d="M1319.0349025766973,762.2150974233027 L1362.2150974233027,719.0349025766973" close="False" data-weight="2.060660171779821" stroke-width="6" fill="none" stroke="#377eb8" />
<path d="M1244.0349025766973,2294.0349025766973 L1287.2150974233027,2337.2150974233027" close="False" data-weight="2.060660171779821" stroke-width="6" fill="none" stroke="#377eb8" />
<path d="M1244.0349025766973,2112.2150974233027 L1287.2150974233027,2069.0349025766973" close="False" data-weight="2.060660171779821" stroke-width="6" fill="none" stroke="#377eb8" />
<path d="M1240.9530411871049,1021.6098954365974 L1284.6401045634027,1065.2969588128951" close="False" data-weight="2.060660171779821" stroke-width="6" fill="none" stroke="#377eb8" />
<path d="M1228.125,950.625 L1228.125,980.625" close="False" data-weight="1.75" stroke-width="6" fill="none" stroke="#377eb8" />
<path d="M1228.125,875.625 L1228.125,905.625" close="False" data-weight="1.75" stroke-width="6" fill="none" stroke="#377eb8" />
<path d="M1244.0349025766973,837.2150974233027 L1287.2150974233027,794.0349025766973" close="False" data-weight="2.060660171779821" stroke-width="6" fill="none" stroke="#377eb8" />
<path d="M1169.0349025766973,2219.0349025766973 L1212.2150974233027,2262.2150974233027" close="False" data-weight="2.060660171779821" stroke-width="6" fill="none" stroke="#377eb8" />
<path d="M1169.0349025766973,2187.2150974233027 L1212.2150974233027,2144.0349025766973" close="False" data-weight="2.060660171779821" stroke-width="6" fill="none" stroke="#377eb8" />
<path d="M1169.0349025766973,987.2150974233027 L1212.2150974233027,944.0349025766973" close="False" data-weight="2.060660171779821" stroke-width="6" fill="none" stroke="#377eb8" />
<path d="M1094.0349025766973,1062.2150974233027 L1137.2150974233027,1019.0349025766973" close="False" data-weight="2.060660171779821" stroke-width="6" fill="none" stroke="#377eb8" />
<path d="M1019.0349025766973,1137.2150974233027 L1062.2150974233027,1094.0349025766973" close="False" data-weight="2.060660171779821" stroke-width="6" fill="none" stroke="#377eb8" />
<path d="M950.625,1153.125 L980.625,1153.125" close="False" data-weight="1.75" stroke-width="6" fill="none" stroke="#377eb8" />
<path d="M875.625,1153.125 L905.625,1153.125" close="False" data-weight="1.75" stroke-width="6" fill="none" stroke="#377eb8" />
<path d="M869.0349025766973,1094.0349025766973 L912.2150974233027,1137.2150974233027" close="False" data-weight="2.060660171779821" stroke-width="6" fill="none" stroke="#377eb8" />
<path d="M800.625,1153.125 L830.625,1153.125" close="False" data-weight="1.75" stroke-width="6" fill="none" stroke="#377eb8" />
<path d="M794.0349025766973,1019.0349025766973 L837.2150974233027,1062.2150974233027" close="False" data-weight="2.060660171779821" stroke-width="6" fill="none" stroke="#377eb8" />
<path d="M725.625,1153.125 L755.625,1153.125" close="False" data-weight="1.75" stroke-width="6" fill="none" stroke="#377eb8" />
<path d="M719.0349025766973,944.0349025766973 L762.2150974233027,987.2150974233027" close="False" data-weight="2.060660171779821" stroke-width="6" fill="none" stroke="#377eb8" />
<path d="M644.0349025766973,1212.2150974233027 L687.2150974233027,1169.0349025766973" close="False" data-weight="2.060660171779821" stroke-width="6" fill="none" stroke="#377eb8" />
<path d="M644.0349025766973,869.0349025766973 L687.2150974233027,912.2150974233027" close="False" data-weight="2.060660171779821" stroke-width="6" fill="none" stroke="#377eb8" />
<path d="M569.0349025766973,1287.2150974233027 L612.2150974233027,1244.0349025766973" close="False" data-weight="2.060660171779821" stroke-width="6" fill="none" stroke="#377eb8" />
<path d="M569.0349025766973,794.0349025766973 L612.2150974233027,837.2150974233027" close="False" data-weight="2.060660171779821" stroke-width="6" fill="none" stroke="#377eb8" />
<path d="M478.125,1475.625 L478.125,1505.625" close="False" data-weight="1.75" stroke-width="6" fill="none" stroke="#377eb8" />
<path d="M478.125,1400.625 L478.125,1430.625" close="False" data-weight="1.75" stroke-width="6" fill="none" stroke="#377eb8" />
<path d="M494.03490257669733,1362.2150974233027 L537.2150974233027,1319.0349025766973" close="False" data-weight="2.060660171779821" stroke-width="6" fill="none" stroke="#377eb8" />
<path d="M494.03490257669733,719.0349025766973 L537.2150974233027,762.2150974233027" close="False" data-weight="2.060660171779821" stroke-width="6" fill="none" stroke="#377eb8" />
<path d="M425.625,1528.125 L455.625,1528.125" close="False" data-weight="1.75" stroke-width="6" fill="none" stroke="#377eb8" />
<path d="M350.625,1528.125 L380.625,1528.125" close="False" data-weight="1.75" stroke-width="6" fill="none" stroke="#377eb8" />
<path d="M275.625,1528.125 L305.625,1528.125" close="False" data-weight="1.75" stroke-width="6" fill="none" stroke="#377eb8" />
<path d="M200.625,1528.125 L230.625,1528.125" close="False" data-weight="1.75" stroke-width="6" fill="none" stroke="#377eb8" />
<path d="M125.625,1528.125 L155.625,1528.125" close="False" data-weight="1.75" stroke-width="6" fill="none" stroke="#377eb8" />
<path d="M1844.0349025766973,1694.0349025766973 C1836.0799512883486,1686.0799512883486,1820.1700487116514,1670.1700487116514,1812.2150974233027,1662.2150974233027" close="False" data-weight="0.0" stroke-width="6" fill="none" stroke="#e41a1c" />
<path d="M1769.0349025766973,1619.0349025766973 C1761.0799512883486,1611.0799512883486,1745.1700487116514,1595.1700487116514,1737.2150974233027,1587.2150974233027" close="False" data-weight="0.0" stroke-width="6" fill="none" stroke="#e41a1c" />
<path d="M1694.0349025766973,1544.0349025766973 C1686.0799512883486,1536.0799512883486,1670.1700487116514,1520.1700487116514,1662.2150974233027,1512.2150974233027" close="False" data-weight="0.0" stroke-width="6" fill="none" stroke="#e41a1c" />
<path d="M1619.0349025766973,1469.0349025766973 C1611.0799512883486,1461.0799512883486,1595.1700487116514,1445.1700487116514,1587.2150974233027,1437.2150974233027" close="False" data-weight="0.0" stroke-width="6" fill="none" stroke="#e41a1c" />
<path d="M1619.0349025766973,837.2150974233027 C1611.0799512883486,845.1700487116514,1595.1700487116514,861.0799512883486,1587.2150974233027,869.0349025766973" close="False" data-weight="0.0" stroke-width="6" fill="none" stroke="#e41a1c" />
<path d="M1544.0349025766973,1394.0349025766973 C1536.0799512883486,1386.0799512883486,1520.1700487116514,1370.1700487116514,1512.2150974233027,1362.2150974233027" close="False" data-weight="0.0" stroke-width="6" fill="none" stroke="#e41a1c" />
<path d="M1544.0349025766973,912.2150974233027 C1536.0799512883486,920.1700487116514,1520.1700487116514,936.0799512883486,1512.2150974233027,944.0349025766973" close="False" data-weight="0.0" stroke-width="6" fill="none" stroke="#e41a1c" />
<path d="M1469.0349025766973,1319.0349025766973 C1461.0799512883486,1311.0799512883486,1445.1700487116514,1295.1700487116514,1437.2150974233027,1287.2150974233027" close="False" data-weight="0.0" stroke-width="6" fill="none" stroke="#e41a1c" />
<path d="M1469.0349025766973,987.2150974233027 C1461.0799512883486,995.1700487116514,1445.1700487116514,1011.0799512883486,1437.2150974233027,1019.0349025766973" close="False" data-weight="0.0" stroke-width="6" fill="none" stroke="#e41a1c" />
<path d="M1378.125,1205.625 A54.31980515339569,54.31980515339569,0,0,0,1382.2598489621723,1226.412289481504 M1382.2598489621723,1226.412289481504 A54.3198051533933,54.3198051533933,0,0,0,1394.0349025766973,1244.0349025766973 M1394.0349025766973,1244.0349025766973" close="False" data-weight="1.0" stroke-width="6" fill="none" stroke="#e41a1c" />
<path d="M1382.125,1130.9834101745155 C1382.125,1142.1885193388287,1378.125,1164.4198908356868,1378.125,1175.625" close="False" data-weight="0.0" stroke-width="6" fill="none" stroke="#e41a1c" />
<path d="M1325.2665898254845,1074.125 C1314.0614806611713,1074.125,1291.8301091643132,1078.125,1280.625,1078.125" close="False" data-weight="0.0" stroke-width="6" fill="none" stroke="#e41a1c" />
<path d="M1250.625,1078.125 A54.31980515339569,54.31980515339569,0,0,0,1229.837710518496,1082.2598489621723 M1229.837710518496,1082.2598489621723 A54.3198051533933,54.3198051533933,0,0,0,1212.2150974233027,1094.0349025766973 M1212.2150974233027,1094.0349025766973" close="False" data-weight="1.0" stroke-width="6" fill="none" stroke="#e41a1c" />
<path d="M1169.0349025766973,1137.2150974233027 C1161.0799512883486,1145.1700487116514,1145.1700487116514,1161.0799512883486,1137.2150974233027,1169.0349025766973" close="False" data-weight="0.0" stroke-width="6" fill="none" stroke="#e41a1c" />
<path d="M1025.625,1228.125 A54.31980515339637,54.31980515339637,0,0,1,1004.837710518496,1223.990151037828 M1004.837710518496,1223.990151037828 A54.31980515339265,54.31980515339265,0,0,1,987.2150974233027,1212.2150974233027 M987.2150974233027,1212.2150974233027" close="False" data-weight="1.0" stroke-width="6" fill="none" stroke="#e41a1c" />
<path d="M928.125,1055.625 C928.125,1066.875,928.125,1089.375,928.125,1100.625" close="False" data-weight="0.0" stroke-width="6" fill="none" stroke="#e41a1c" />
<path d="M928.125,980.625 C928.125,991.875,928.125,1014.375,928.125,1025.625" close="False" data-weight="0.0" stroke-width="6" fill="none" stroke="#e41a1c" />
<path d="M928.125,905.625 C928.125,916.875,928.125,939.375,928.125,950.625" close="False" data-weight="0.0" stroke-width="6" fill="none" stroke="#e41a1c" />
<path d="M928.125,830.625 C928.125,841.875,928.125,864.375,928.125,875.625" close="False" data-weight="0.0" stroke-width="6" fill="none" stroke="#e41a1c" />
<path d="M928.125,755.625 C928.125,766.875,928.125,789.375,928.125,800.625" close="False" data-weight="0.0" stroke-width="6" fill="none" stroke="#e41a1c" />
<path d="M928.125,725.625 A54.31980515339478,54.31980515339478,0,0,0,923.9901510378278,704.8377105184961 M923.9901510378278,704.8377105184961 A54.319805153394256,54.319805153394256,0,0,0,912.2150974233027,687.2150974233027 M912.2150974233027,687.2150974233027" close="False" data-weight="1.0" stroke-width="6" fill="none" stroke="#e41a1c" />
<path d="M924.125,530.9834101745155 A49.45452644918669,49.45452644918669,0,0,1,920.360498327255,549.9088381020804 M920.360498327255,549.9088381020804 A49.45452644918702,49.45452644918702,0,0,1,909.6401045634026,565.953041187105 M909.6401045634026,565.953041187105" close="False" data-weight="1.0" stroke-width="6" fill="none" stroke="#e41a1c" />
<path d="M928.125,380.625 C928.125,391.875,928.125,414.375,928.125,425.625" close="False" data-weight="0.0" stroke-width="6" fill="none" stroke="#e41a1c" />
<path d="M1844.0349025766973,1694.0349025766973 L1887.2150974233027,1737.2150974233027" close="False" data-weight="2.060660171779821" stroke-width="6" fill="none" stroke="#e41a1c" />
<path d="M1769.0349025766973,1619.0349025766973 L1812.2150974233027,1662.2150974233027" close="False" data-weight="2.060660171779821" stroke-width="6" fill="none" stroke="#e41a1c" />
<path d="M1694.0349025766973,1544.0349025766973 L1737.2150974233027,1587.2150974233027" close="False" data-weight="2.060660171779821" stroke-width="6" fill="none" stroke="#e41a1c" />
<path d="M1619.0349025766973,1469.0349025766973 L1662.2150974233027,1512.2150974233027" close="False" data-weight="2.060660171779821" stroke-width="6" fill="none" stroke="#e41a1c" />
<path d="M1619.0349025766973,837.2150974233027 L1662.2150974233027,794.0349025766973" close="False" data-weight="2.060660171779821" stroke-width="6" fill="none" stroke="#e41a1c" />
<path d="M1544.0349025766973,1394.0349025766973 L1587.2150974233027,1437.2150974233027" close="False" data-weight="2.060660171779821" stroke-width="6" fill="none" stroke="#e41a1c" />
<path d="M1544.0349025766973,912.2150974233027 L1587.2150974233027,869.0349025766973" close="False" data-weight="2.060660171779821" stroke-width="6" fill="none" stroke="#e41a1c" />
<path d="M1469.0349025766973,1319.0349025766973 L1512.2150974233027,1362.2150974233027" close="False" data-weight="2.060660171779821" stroke-width="6" fill="none" stroke="#e41a1c" />
<path d="M1469.0349025766973,987.2150974233027 L1512.2150974233027,944.0349025766973" close="False" data-weight="2.060660171779821" stroke-width="6" fill="none" stroke="#e41a1c" />
<path d="M1394.0349025766973,1244.0349025766973 L1437.2150974233027,1287.2150974233027" close="False" data-weight="2.060660171779821" stroke-width="6" fill="none" stroke="#e41a1c" />
<path d="M1378.125,1175.625 L1378.125,1205.625" close="False" data-weight="1.75" stroke-width="6" fill="none" stroke="#e41a1c" />
<path d="M1382.125,1100.2665898254845 L1382.125,1130.9834101745155" close="False" data-weight="1.75" stroke-width="6" fill="none" stroke="#e41a1c" />
<path d="M1394.0349025766973,1062.2150974233027 L1437.2150974233027,1019.0349025766973" close="False" data-weight="2.060660171779821" stroke-width="6" fill="none" stroke="#e41a1c" />
<path d="M1325.2665898254845,1074.125 L1355.9834101745155,1074.125" close="False" data-weight="1.75" stroke-width="6" fill="none" stroke="#e41a1c" />
<path d="M1250.625,1078.125 L1280.625,1078.125" close="False" data-weight="1.75" stroke-width="6" fill="none" stroke="#e41a1c" />
<path d="M1169.0349025766973,1137.2150974233027 L1212.2150974233027,1094.0349025766973" close="False" data-weight="2.060660171779821" stroke-width="6" fill="none" stroke="#e41a1c" />
<path d="M1094.0349025766973,1212.2150974233027 L1137.2150974233027,1169.0349025766973" close="False" data-weight="2.060660171779821" stroke-width="6" fill="none" stroke="#e41a1c" />
<path d="M1025.625,1228.125 L1055.625,1228.125" close="False" data-weight="1.75" stroke-width="6" fill="none" stroke="#e41a1c" />
<path d="M944.0349025766973,1169.0349025766973 L987.2150974233027,1212.2150974233027" close="False" data-weight="2.060660171779821" stroke-width="6" fill="none" stroke="#e41a1c" />
<path d="M928.125,1100.625 L928.125,1130.625" close="False" data-weight="1.75" stroke-width="6" fill="none" stroke="#e41a1c" />
<path d="M928.125,1025.625 L928.125,1055.625" close="False" data-weight="1.75" stroke-width="6" fill="none" stroke="#e41a1c" />
<path d="M928.125,950.625 L928.125,980.625" close="False" data-weight="1.75" stroke-width="6" fill="none" stroke="#e41a1c" />
<path d="M928.125,875.625 L928.125,905.625" close="False" data-weight="1.75" stroke-width="6" fill="none" stroke="#e41a1c" />
<path d="M928.125,800.625 L928.125,830.625" close="False" data-weight="1.75" stroke-width="6" fill="none" stroke="#e41a1c" />
<path d="M928.125,725.625 L928.125,755.625" close="False" data-weight="1.75" stroke-width="6" fill="none" stroke="#e41a1c" />
<path d="M924.125,500.2665898254845 L924.125,530.9834101745155" close="False" data-weight="1.75" stroke-width="6" fill="none" stroke="#e41a1c" />
<path d="M928.125,425.625 L928.125,455.625" close="False" data-weight="1.75" stroke-width="6" fill="none" stroke="#e41a1c" />
<path d="M928.125,350.625 L928.125,380.625" close="False" data-weight="1.75" stroke-width="6" fill="none" stroke="#e41a1c" />
<path d="M869.0349025766973,644.0349025766973 L912.2150974233027,687.2150974233027" close="False" data-weight="2.060660171779821" stroke-width="6" fill="none" stroke="#e41a1c" />
<path d="M865.953041187105,609.6401045634026 L909.6401045634026,565.953041187105" close="False" data-weight="2.060660171779821" stroke-width="6" fill="none" stroke="#e41a1c" />
<image x="2395.625" y="1795.625" width="65" height="65" xlink:href="designspace-test/./img/ds_dataset1_40_21_thumb.png">
<title>21</title>
</image>
<image x="2320.625" y="1495.625" width="65" height="65" xlink:href="designspace-test/./img/ds_dataset1_40_26_thumb.png">
<title>26</title>
</image>
<image x="2020.625" y="1420.625" width="65" height="65" xlink:href="designspace-test/./img/ds_dataset1_40_25_thumb.png">
<title>25</title>
</image>
<image x="2020.625" y="1120.625" width="65" height="65" xlink:href="designspace-test/./img/ds_dataset1_40_27_thumb.png">
<title>27</title>
</image>
<image x="2020.625" y="820.625" width="65" height="65" xlink:href="designspace-test/./img/ds_dataset1_40_10_thumb.png">
<title>10</title>
</image>
<image x="1870.625" y="1720.625" width="65" height="65" xlink:href="designspace-test/./img/ds_dataset1_40_2_thumb.png">
<title>2</title>
</image>
<image x="1870.625" y="1270.625" width="65" height="65" xlink:href="designspace-test/./img/ds_dataset1_40_1_thumb.png">
<title>1</title>
</image>
<image x="1795.625" y="745.625" width="65" height="65" xlink:href="designspace-test/./img/ds_dataset1_40_11_thumb.png">
<title>11</title>
</image>
<image x="1645.625" y="1420.625" width="65" height="65" xlink:href="designspace-test/./img/ds_dataset1_40_29_thumb.png">
<title>29</title>
</image>
<image x="1645.625" y="745.625" width="65" height="65" xlink:href="designspace-test/./img/ds_dataset1_40_12_thumb.png">
<title>12</title>
</image>
<image x="1570.625" y="2395.625" width="65" height="65" xlink:href="designspace-test/./img/ds_dataset1_40_5_thumb.png">
<title>5</title>
</image>
<image x="1570.625" y="1945.625" width="65" height="65" xlink:href="designspace-test/./img/ds_dataset1_40_31_thumb.png">
<title>31</title>
</image>
<image x="1570.625" y="445.625" width="65" height="65" xlink:href="designspace-test/./img/ds_dataset1_40_15_thumb.png">
<title>15</title>
</image>
<image x="1570.625" y="70.625" width="65" height="65" xlink:href="designspace-test/./img/ds_dataset1_40_8_thumb.png">
<title>8</title>
</image>
<image x="1420.625" y="1870.625" width="65" height="65" xlink:href="designspace-test/./img/ds_dataset1_40_3_thumb.png">
<title>3</title>
</image>
<image x="1420.625" y="670.625" width="65" height="65" xlink:href="designspace-test/./img/ds_dataset1_40_16_thumb.png">
<title>16</title>
</image>
<image x="1345.625" y="2170.625" width="65" height="65" xlink:href="designspace-test/./img/ds_dataset1_40_30_thumb.png">
<title>30</title>
</image>
<image x="1345.625" y="1045.625" width="65" height="65" xlink:href="designspace-test/./img/ds_dataset1_40_4_thumb.png">
<title>4</title>
</image>
<image x="1195.625" y="1870.625" width="65" height="65" xlink:href="designspace-test/./img/ds_dataset1_40_24_thumb.png">
<title>24</title>
</image>
<image x="1195.625" y="1195.625" width="65" height="65" xlink:href="designspace-test/./img/ds_dataset1_40_35_thumb.png">
<title>35</title>
</image>
<image x="1195.625" y="895.625" width="65" height="65" xlink:href="designspace-test/./img/ds_dataset1_40_34_thumb.png">
<title>34</title>
</image>
<image x="1120.625" y="2170.625" width="65" height="65" xlink:href="designspace-test/./img/ds_dataset1_40_6_thumb.png">
<title>6</title>
</image>
<image x="1120.625" y="1495.625" width="65" height="65" xlink:href="designspace-test/./img/ds_dataset1_40_36_thumb.png">
<title>36</title>
</image>
<image x="1120.625" y="1345.625" width="65" height="65" xlink:href="designspace-test/./img/ds_dataset1_40_39_thumb.png">
<title>39</title>
</image>
<image x="1120.625" y="520.625" width="65" height="65" xlink:href="designspace-test/./img/ds_dataset1_40_9_thumb.png">
<title>9</title>
</image>
<image x="1045.625" y="1195.625" width="65" height="65" xlink:href="designspace-test/./img/ds_dataset1_40_38_thumb.png">
<title>38</title>
</image>
<image x="1045.625" y="820.625" width="65" height="65" xlink:href="designspace-test/./img/ds_dataset1_40_37_thumb.png">
<title>37</title>
</image>
<image x="970.625" y="1945.625" width="65" height="65" xlink:href="designspace-test/./img/ds_dataset1_40_23_thumb.png">
<title>23</title>
</image>
<image x="895.625" y="1870.625" width="65" height="65" xlink:href="designspace-test/./img/ds_dataset1_40_13_thumb.png">
<title>13</title>
</image>
<image x="895.625" y="1495.625" width="65" height="65" xlink:href="designspace-test/./img/ds_dataset1_40_33_thumb.png">
<title>33</title>
</image>
<image x="895.625" y="1120.625" width="65" height="65" xlink:href="designspace-test/./img/ds_dataset1_40_18_thumb.png">
<title>18</title>
</image>
<image x="895.625" y="445.625" width="65" height="65" xlink:href="designspace-test/./img/ds_dataset1_40_19_thumb.png">
<title>19</title>
</image>
<image x="895.625" y="295.625" width="65" height="65" xlink:href="designspace-test/./img/ds_dataset1_40_22_thumb.png">
<title>22</title>
</image>
<image x="820.625" y="595.625" width="65" height="65" xlink:href="designspace-test/./img/ds_dataset1_40_32_thumb.png">
<title>32</title>
</image>
<image x="595.625" y="2320.625" width="65" height="65" xlink:href="designspace-test/./img/ds_dataset1_40_17_thumb.png">
<title>17</title>
</image>
<image x="445.625" y="1495.625" width="65" height="65" xlink:href="designspace-test/./img/ds_dataset1_40_20_thumb.png">
<title>20</title>
</image>
<image x="445.625" y="1345.625" width="65" height="65" xlink:href="designspace-test/./img/ds_dataset1_40_0_thumb.png">
<title>0</title>
</image>
<image x="445.625" y="670.625" width="65" height="65" xlink:href="designspace-test/./img/ds_dataset1_40_28_thumb.png">
<title>28</title>
</image>
<image x="145.625" y="1345.625" width="65" height="65" xlink:href="designspace-test/./img/ds_dataset1_40_14_thumb.png">
<title>14</title>
</image>
<image x="70.625" y="1495.625" width="65" height="65" xlink:href="designspace-test/./img/ds_dataset1_40_7_thumb.png">
<title>7</title>
</image>
</svg>