<?xml version="1.0" encoding="UTF-8"?>
<svg xmlns="http://www.w3.org/2000/svg" xmlns:xlink="http://www.w3.org/1999/xlink"
     viewBox="0 0 1350 1350" preserveAspectRatio="xMidYMid meet">
<defs>
</defs>
<path d="M703.125,605.625 A54.31980515339478,54.31980515339478,0,0,1,698.9901510378278,626.4122894815039 M698.9901510378278,626.4122894815039 A54.319805153394256,54.319805153394256,0,0,1,687.2150974233027,644.0349025766973 M687.2150974233027,644.0349025766973" close="False" data-weight="1.0" stroke-width="7" fill="none" stroke="#1fa562" />
<path d="M703.125,530.625 C703.125,541.875,703.125,564.375,703.125,575.625" close="False" data-weight="0.0" stroke-width="7" fill="none" stroke="#1fa562" />
<path d="M703.125,455.625 C703.125,466.875,703.125,489.375,703.125,500.625" close="False" data-weight="0.0" stroke-width="7" fill="none" stroke="#1fa562" />
<path d="M703.125,380.625 C703.125,391.875,703.125,414.375,703.125,425.625" close="False" data-weight="0.0" stroke-width="7" fill="none" stroke="#1fa562" />
<path d="M644.0349025766973,687.2150974233027 C636.0799512883486,695.1700487116514,620.1700487116514,711.0799512883486,612.2150974233027,719.0349025766973" close="False" data-weight="0.0" stroke-width="7" fill="none" stroke="#1fa562" />
<path d="M569.0349025766973,762.2150974233027 C561.0799512883486,770.1700487116514,545.1700487116514,786.0799512883486,537.2150974233027,794.0349025766973" close="False" data-weight="0.0" stroke-width="7" fill="none" stroke="#1fa562" />
<path d="M494.03490257669733,837.2150974233027 C486.0799512883487,845.1700487116514,470.1700487116513,861.0799512883486,462.21509742330267,869.0349025766973" close="False" data-weight="0.0" stroke-width="7" fill="none" stroke="#1fa562" />
<path d="M419.03490257669733,912.2150974233027 C411.0799512883487,920.1700487116514,395.1700487116513,936.0799512883486,387.21509742330267,944.0349025766973" close="False" data-weight="0.0" stroke-width="7" fill="none" stroke="#1fa562" />
<path d="M344.03490257669733,987.2150974233027 C336.0799512883487,995.1700487116514,320.1700487116513,1011.0799512883486,312.21509742330267,1019.0349025766973" close="False" data-weight="0.0" stroke-width="7" fill="none" stroke="#1fa562" />
<path d="M269.03490257669733,1062.2150974233027 C261.0799512883487,1070.1700487116514,245.1700487116513,1086.0799512883486,237.21509742330267,1094.0349025766973" close="False" data-weight="0.0" stroke-width="7" fill="none" stroke="#1fa562" />
<path d="M703.125,575.625 L703.125,605.625" close="False" data-weight="1.75" stroke-width="7" fill="none" stroke="#1fa562" />
<path d="M703.125,500.625 L703.125,530.625" close="False" data-weight="1.75" stroke-width="7" fill="none" stroke="#1fa562" />
<path d="M703.125,425.625 L703.125,455.625" close="False" data-weight="1.75" stroke-width="7" fill="none" stroke="#1fa562" />
<path d="M703.125,350.625 L703.125,380.625" close="False" data-weight="1.75" stroke-width="7" fill="none" stroke="#1fa562" />
<path d="M644.0349025766973,687.2150974233027 L687.2150974233027,644.0349025766973" close="False" data-weight="2.060660171779821" stroke-width="7" fill="none" stroke="#1fa562" />
<path d="M569.0349025766973,762.2150974233027 L612.2150974233027,719.0349025766973" close="False" data-weight="2.060660171779821" stroke-width="7" fill="none" stroke="#1fa562" />
<path d="M494.03490257669733,837.2150974233027 L537.2150974233027,794.0349025766973" close="False" data-weight="2.060660171779821" stroke-width="7" fill="none" stroke="#1fa562" />
<path d="M419.03490257669733,912.2150974233027 L462.21509742330267,869.0349025766973" close="False" data-weight="2.060660171779821" stroke-width="7" fill="none" stroke="#1fa562" />
<path d="M344.03490257669733,987.2150974233027 L387.21509742330267,944.0349025766973" close="False" data-weight="2.060660171779821" stroke-width="7" fill="none" stroke="#1fa562" />
<path d="M269.03490257669733,1062.2150974233027 L312.21509742330267,1019.0349025766973" close="False" data-weight="2.060660171779821" stroke-width="7" fill="none" stroke="#1fa562" />
<path d="M194.03490257669733,1137.2150974233027 L237.2150974233027,1094.0349025766973" close="False" data-weight="2.060660171779821" stroke-width="7" fill="none" stroke="#1fa562" />
<path d="M1153.125,605.625 A54.31980515339637,54.31980515339637,0,0,1,1148.990151037828,626.412289481504 M1148.990151037828,626.412289481504 A54.31980515339273,54.31980515339273,0,0,1,1137.2150974233027,644.0349025766973 M1137.2150974233027,644.0349025766973" close="False" data-weight="1.0" stroke-width="7" fill="none" stroke="#ff1c5d" />
<path d="M1153.125,530.625 C1153.125,541.875,1153.125,564.375,1153.125,575.625" close="False" data-weight="0.0" stroke-width="7" fill="none" stroke="#ff1c5d" />
<path d="M1153.125,455.625 C1153.125,466.875,1153.125,489.375,1153.125,500.625" close="False" data-weight="0.0" stroke-width="7" fill="none" stroke="#ff1c5d" />
<path d="M1099.0706276020965,469.9072944592613 C1091.7797943163896,477.19812774496813,1077.198127744976,491.7797943163818,1069.9072944592692,499.0706276020886" close="False" data-weight="0.0" stroke-width="7" fill="none" stroke="#ff1c5d" />
<path d="M1003.125,1130.625 C1003.125,1141.875,1003.125,1164.375,1003.125,1175.625" close="False" data-weight="0.0" stroke-width="7" fill="none" stroke="#ff1c5d" />
<path d="M1003.125,1055.625 C1003.125,1066.875,1003.125,1089.375,1003.125,1100.625" close="False" data-weight="0.0" stroke-width="7" fill="none" stroke="#ff1c5d" />
<path d="M1003.125,905.625 C1003.125,916.875,1003.125,939.375,1003.125,950.625" close="False" data-weight="0.0" stroke-width="7" fill="none" stroke="#ff1c5d" />
<path d="M1003.125,830.625 C1003.125,841.875,1003.125,864.375,1003.125,875.625" close="False" data-weight="0.0" stroke-width="7" fill="none" stroke="#ff1c5d" />
<path d="M1019.0349025766973,762.2150974233027 A54.3198051533949,54.3198051533949,0,0,0,1007.2598489621721,779.8377105184961 M1007.2598489621721,779.8377105184961 A54.31980515339433,54.31980515339433,0,0,0,1003.125,800.625 M1003.125,800.625" close="False" data-weight="1.0" stroke-width="7" fill="none" stroke="#ff1c5d" />
<path d="M1024.0706276020885,544.9072944592695 C1016.7797943163818,552.1981277449763,1002.1981277449681,566.7797943163898,994.9072944592613,574.0706276020967" close="False" data-weight="0.0" stroke-width="7" fill="none" stroke="#ff1c5d" />
<path d="M949.0706276020967,619.9072944592613 A58.78492377013665,58.78492377013665,0,0,1,929.9994257723747,632.6502641213289 M929.9994257723747,632.6502641213289 A58.78492377013686,58.78492377013686,0,0,1,907.5034093726987,637.125 M907.5034093726987,637.125" close="False" data-weight="1.0" stroke-width="7" fill="none" stroke="#ff1c5d" />
<path d="M871.8954377834593,840.7185232472195 C864.1012091493994,848.5127518812794,848.5127518812794,864.1012091493994,840.7185232472195,871.8954377834593" close="False" data-weight="0.0" stroke-width="7" fill="none" stroke="#ff1c5d" />
<path d="M853.125,680.625 A54.31980515339478,54.31980515339478,0,0,0,857.2598489621722,701.4122894815039 M857.2598489621722,701.4122894815039 A54.319805153394256,54.319805153394256,0,0,0,869.0349025766973,719.0349025766973 M869.0349025766973,719.0349025766973" close="False" data-weight="1.0" stroke-width="7" fill="none" stroke="#ff1c5d" />
<path d="M796.8954377834593,915.7185232472195 A48.72232222128802,48.72232222128802,0,0,0,786.3337659446202,931.5251821846081 M786.3337659446202,931.5251821846081 A48.72232222128889,48.72232222128889,0,0,0,782.625,950.1704076850486 M782.625,950.1704076850486" close="False" data-weight="1.0" stroke-width="7" fill="none" stroke="#ff1c5d" />
<path d="M650.1704076850486,1007.625 C639.1477038425244,1007.625,617.1022961574756,1007.625,606.0795923149514,1007.625" close="False" data-weight="0.0" stroke-width="7" fill="none" stroke="#ff1c5d" />
<path d="M646.895437783463,390.71852324721596 C639.1012091494011,398.5127518812777,623.5127518812776,414.10120914940126,615.7185232472158,421.8954377834631" close="False" data-weight="0.0" stroke-width="7" fill="none" stroke="#ff1c5d" />
<path d="M544.125,832.5034093726987 A94.14124779001713,94.14124779001713,0,0,1,542.4207940714283,850.3350617741669 M542.4207940714283,850.3350617741669 A29.354107198647515,29.354107198647515,0,0,1,534.3545622165369,865.5314767527842 M534.3545622165369,865.5314767527842" close="False" data-weight="1.0" stroke-width="7" fill="none" stroke="#ff1c5d" />
<path d="M544.125,757.5034093726987 C544.125,767.8142046863493,544.125,788.4357953136507,544.125,798.7465906273013" close="False" data-weight="0.0" stroke-width="7" fill="none" stroke="#ff1c5d" />
<path d="M557.625,606.0795923149514 C557.625,617.1022961574756,557.625,639.1477038425244,557.625,650.1704076850486" close="False" data-weight="0.0" stroke-width="7" fill="none" stroke="#ff1c5d" />
<path d="M557.625,531.0795923149514 C557.625,542.1022961574756,557.625,564.1477038425244,557.625,575.1704076850486" close="False" data-weight="0.0" stroke-width="7" fill="none" stroke="#ff1c5d" />
<path d="M571.8954377834592,465.7185232472197 A48.72232222128845,48.72232222128845,0,0,0,561.33376594462,481.5251821846082 M561.33376594462,481.5251821846082 A48.72232222128787,48.72232222128787,0,0,0,557.625,500.1704076850486 M557.625,500.1704076850486" close="False" data-weight="1.0" stroke-width="7" fill="none" stroke="#ff1c5d" />
<path d="M1153.125,575.625 L1153.125,605.625" close="False" data-weight="1.75" stroke-width="7" fill="none" stroke="#ff1c5d" />
<path d="M1153.125,500.625 L1153.125,530.625" close="False" data-weight="1.75" stroke-width="7" fill="none" stroke="#ff1c5d" />
<path d="M1153.125,425.625 L1153.125,455.625" close="False" data-weight="1.75" stroke-width="7" fill="none" stroke="#ff1c5d" />
<path d="M1094.0349025766973,687.2150974233027 L1137.2150974233027,644.0349025766973" close="False" data-weight="2.060660171779821" stroke-width="7" fill="none" stroke="#ff1c5d" />
<path d="M1099.0706276020885,469.9072944592692 L1144.907294459261,424.0706276020967" close="False" data-weight="2.060660171779821" stroke-width="7" fill="none" stroke="#ff1c5d" />
<path d="M1003.125,1175.625 L1003.125,1205.625" close="False" data-weight="1.75" stroke-width="7" fill="none" stroke="#ff1c5d" />
<path d="M1003.125,1100.625 L1003.125,1130.625" close="False" data-weight="1.75" stroke-width="7" fill="none" stroke="#ff1c5d" />
<path d="M1003.125,1025.625 L1003.125,1055.625" close="False" data-weight="1.75" stroke-width="7" fill="none" stroke="#ff1c5d" />
<path d="M1003.125,950.625 L1003.125,980.625" close="False" data-weight="1.75" stroke-width="7" fill="none" stroke="#ff1c5d" />
<path d="M1003.125,875.625 L1003.125,905.625" close="False" data-weight="1.75" stroke-width="7" fill="none" stroke="#ff1c5d" />
<path d="M1003.125,800.625 L1003.125,830.625" close="False" data-weight="1.75" stroke-width="7" fill="none" stroke="#ff1c5d" />
<path d="M1019.0349025766973,762.2150974233027 L1062.2150974233027,719.0349025766973" close="False" data-weight="2.060660171779821" stroke-width="7" fill="none" stroke="#ff1c5d" />
<path d="M1024.0706276020967,544.9072944592613 L1069.9072944592613,499.07062760209664" close="False" data-weight="2.060660171779821" stroke-width="7" fill="none" stroke="#ff1c5d" />
<path d="M949.0706276020967,619.9072944592613 L994.9072944592613,574.0706276020967" close="False" data-weight="2.060660171779821" stroke-width="7" fill="none" stroke="#ff1c5d" />
<path d="M871.8954377834593,840.7185232472195 L915.7185232472195,796.8954377834593" close="False" data-weight="2.060660171779821" stroke-width="7" fill="none" stroke="#ff1c5d" />
<path d="M869.0349025766973,719.0349025766973 L912.2150974233027,762.2150974233027" close="False" data-weight="2.060660171779821" stroke-width="7" fill="none" stroke="#ff1c5d" />
<path d="M853.125,650.625 L853.125,680.625" close="False" data-weight="1.75" stroke-width="7" fill="none" stroke="#ff1c5d" />
<path d="M873.7465906273013,637.125 L907.5034093726987,637.125" close="False" data-weight="1.75" stroke-width="7" fill="none" stroke="#ff1c5d" />
<path d="M782.625,950.1704076850486 L782.625,981.0795923149514" close="False" data-weight="1.75" stroke-width="7" fill="none" stroke="#ff1c5d" />
<path d="M796.8954377834593,915.7185232472195 L840.7185232472195,871.8954377834593" close="False" data-weight="2.060660171779821" stroke-width="7" fill="none" stroke="#ff1c5d" />
<path d="M725.1704076850486,1007.625 L756.0795923149514,1007.625" close="False" data-weight="1.75" stroke-width="7" fill="none" stroke="#ff1c5d" />
<path d="M650.1704076850486,1007.625 L681.0795923149514,1007.625" close="False" data-weight="1.75" stroke-width="7" fill="none" stroke="#ff1c5d" />
<path d="M646.8954377834593,390.7185232472196 L690.7185232472194,346.8954377834595" close="False" data-weight="2.060660171779821" stroke-width="7" fill="none" stroke="#ff1c5d" />
<path d="M575.1704076850486,1007.625 L606.0795923149514,1007.625" close="False" data-weight="1.75" stroke-width="7" fill="none" stroke="#ff1c5d" />
<path d="M544.125,798.7465906273013 L544.125,832.5034093726987" close="False" data-weight="1.75" stroke-width="7" fill="none" stroke="#ff1c5d" />
<path d="M544.125,723.7465906273013 L544.125,757.5034093726987" close="False" data-weight="1.75" stroke-width="7" fill="none" stroke="#ff1c5d" />
<path d="M557.625,650.1704076850486 L557.625,681.0795923149514" close="False" data-weight="1.75" stroke-width="7" fill="none" stroke="#ff1c5d" />
<path d="M557.625,575.1704076850486 L557.625,606.0795923149514" close="False" data-weight="1.75" stroke-width="7" fill="none" stroke="#ff1c5d" />
<path d="M557.625,500.1704076850486 L557.625,531.0795923149514" close="False" data-weight="1.75" stroke-width="7" fill="none" stroke="#ff1c5d" />
<path d="M571.8954377834593,465.7185232472196 L615.7185232472157,421.8954377834632" close="False" data-weight="2.060660171779821" stroke-width="7" fill="none" stroke="#ff1c5d" />
<path d="M494.03490257669733,944.0349025766973 L537.2150974233027,987.2150974233027" close="False" data-weight="2.060660171779821" stroke-width="7" fill="none" stroke="#ff1c5d" />
<path d="M490.5314767527804,909.3545622165407 L534.3545622165406,865.5314767527806" close="False" data-weight="2.060660171779821" stroke-width="7" fill="none" stroke="#ff1c5d" />
<path d="M1086.342705540739,457.1793723979033 C1079.051872255028,464.4702056836142,1064.4702056836063,479.05187225503585,1057.1793723978953,486.34270554074675" close="False" data-weight="0.0" stroke-width="7" fill="none" stroke="#7cd3eb" />
<path d="M1011.3427055407468,532.1793723978952 C1004.051872255036,539.4702056836061,989.4702056836142,554.0518722550279,982.1793723979033,561.3427055407387" close="False" data-weight="0.0" stroke-width="7" fill="none" stroke="#7cd3eb" />
<path d="M936.3427055407387,607.1793723979033 A40.784923770137475,40.784923770137475,0,0,1,923.1111239898032,616.0204325361256 M923.1111239898032,616.0204325361256 A40.78492377013595,40.78492377013595,0,0,1,907.5034093726987,619.125 M907.5034093726987,619.125" close="False" data-weight="1.0" stroke-width="7" fill="none" stroke="#7cd3eb" />
<path d="M794.0349025766973,687.2150974233027 C786.0799512883486,695.1700487116514,770.1700487116514,711.0799512883486,762.2150974233027,719.0349025766973" close="False" data-weight="0.0" stroke-width="7" fill="none" stroke="#7cd3eb" />
<path d="M719.0349025766973,762.2150974233027 C711.0799512883486,770.1700487116514,695.1700487116514,786.0799512883486,687.2150974233027,794.0349025766973" close="False" data-weight="0.0" stroke-width="7" fill="none" stroke="#7cd3eb" />
<path d="M644.0349025766973,837.2150974233027 C636.0799512883486,845.1700487116514,620.1700487116514,861.0799512883486,612.2150974233027,869.0349025766973" close="False" data-weight="0.0" stroke-width="7" fill="none" stroke="#7cd3eb" />
<path d="M569.0349025766973,912.2150974233027 A54.3198051533949,54.3198051533949,0,0,1,551.4122894815039,923.9901510378279 M551.4122894815039,923.9901510378279 A54.31980515339421,54.31980515339421,0,0,1,530.625,928.125 M530.625,928.125" close="False" data-weight="1.0" stroke-width="7" fill="none" stroke="#7cd3eb" />
<path d="M553.125,830.625 A112.70237015806822,112.70237015806822,0,0,1,550.9001678914959,852.9081287245156 M550.9001678914959,852.9081287245156 A37.274587386451834,37.274587386451834,0,0,1,540.7185232472233,871.8954377834556 M540.7185232472233,871.8954377834556" close="False" data-weight="1.0" stroke-width="7" fill="none" stroke="#7cd3eb" />
<path d="M553.125,755.625 C553.125,766.875,553.125,789.375,553.125,800.625" close="False" data-weight="0.0" stroke-width="7" fill="none" stroke="#7cd3eb" />
<path d="M500.1704076850486,707.625 C489.14770384252427,707.625,467.10229615747573,707.625,456.0795923149514,707.625" close="False" data-weight="0.0" stroke-width="7" fill="none" stroke="#7cd3eb" />
<path d="M425.1704076850486,707.625 C414.14770384252427,707.625,392.10229615747573,707.625,381.0795923149514,707.625" close="False" data-weight="0.0" stroke-width="7" fill="none" stroke="#7cd3eb" />
<path d="M425.625,103.125 C414.375,103.125,391.875,103.125,380.625,103.125" close="False" data-weight="0.0" stroke-width="7" fill="none" stroke="#7cd3eb" />
<path d="M350.1704076850486,707.625 C339.14770384252427,707.625,317.10229615747573,707.625,306.0795923149514,707.625" close="False" data-weight="0.0" stroke-width="7" fill="none" stroke="#7cd3eb" />
<path d="M328.125,530.625 C328.125,541.875,328.125,564.375,328.125,575.625" close="False" data-weight="0.0" stroke-width="7" fill="none" stroke="#7cd3eb" />
<path d="M328.125,455.625 C328.125,466.875,328.125,489.375,328.125,500.625" close="False" data-weight="0.0" stroke-width="7" fill="none" stroke="#7cd3eb" />
<path d="M344.03490257669733,387.21509742330267 A54.3198051533945,54.3198051533945,0,0,0,332.2598489621722,404.837710518496 M332.2598489621722,404.837710518496 A54.31980515339484,54.31980515339484,0,0,0,328.125,425.625 M328.125,425.625" close="False" data-weight="1.0" stroke-width="7" fill="none" stroke="#7cd3eb" />
<path d="M344.03490257669733,269.03490257669733 C336.07995128834864,261.07995128834864,320.17004871165136,245.17004871165133,312.21509742330267,237.21509742330267" close="False" data-weight="0.0" stroke-width="7" fill="none" stroke="#7cd3eb" />
<path d="M350.625,103.125 A54.319805153394526,54.319805153394526,0,0,0,329.837710518496,107.25984896217224 M329.837710518496,107.25984896217224 A54.31980515339479,54.31980515339479,0,0,0,312.21509742330267,119.03490257669732 M312.21509742330267,119.03490257669732" close="False" data-weight="1.0" stroke-width="7" fill="none" stroke="#7cd3eb" />
<path d="M275.1704076850486,707.625 C264.14770384252427,707.625,242.10229615747568,707.625,231.07959231495138,707.625" close="False" data-weight="0.0" stroke-width="7" fill="none" stroke="#7cd3eb" />
<path d="M275.625,628.125 C264.375,628.125,241.875,628.125,230.625,628.125" close="False" data-weight="0.0" stroke-width="7" fill="none" stroke="#7cd3eb" />
<path d="M200.17040768504862,707.625 C189.14770384252432,707.625,167.10229615747568,707.625,156.07959231495138,707.625" close="False" data-weight="0.0" stroke-width="7" fill="none" stroke="#7cd3eb" />
<path d="M200.625,628.125 A54.319805153394555,54.319805153394555,0,0,0,179.837710518496,632.2598489621722 M179.837710518496,632.2598489621722 A54.31980515339474,54.31980515339474,0,0,0,162.21509742330267,644.0349025766973 M162.21509742330267,644.0349025766973" close="False" data-weight="1.0" stroke-width="7" fill="none" stroke="#7cd3eb" />
<path d="M1086.3427055407467,457.1793723978954 L1132.1793723979035,411.3427055407387" close="False" data-weight="2.060660171779821" stroke-width="7" fill="none" stroke="#7cd3eb" />
<path d="M1011.3427055407387,532.1793723979033 L1057.1793723979033,486.3427055407388" close="False" data-weight="2.060660171779821" stroke-width="7" fill="none" stroke="#7cd3eb" />
<path d="M936.3427055407387,607.1793723979033 L982.1793723979033,561.3427055407387" close="False" data-weight="2.060660171779821" stroke-width="7" fill="none" stroke="#7cd3eb" />
<path d="M873.7465906273013,619.125 L907.5034093726987,619.125" close="False" data-weight="1.75" stroke-width="7" fill="none" stroke="#7cd3eb" />
<path d="M794.0349025766973,687.2150974233027 L837.2150974233027,644.0349025766973" close="False" data-weight="2.060660171779821" stroke-width="7" fill="none" stroke="#7cd3eb" />
<path d="M719.0349025766973,762.2150974233027 L762.2150974233027,719.0349025766973" close="False" data-weight="2.060660171779821" stroke-width="7" fill="none" stroke="#7cd3eb" />
<path d="M644.0349025766973,837.2150974233027 L687.2150974233027,794.0349025766973" close="False" data-weight="2.060660171779821" stroke-width="7" fill="none" stroke="#7cd3eb" />
<path d="M569.0349025766973,912.2150974233027 L612.2150974233027,869.0349025766973" close="False" data-weight="2.060660171779821" stroke-width="7" fill="none" stroke="#7cd3eb" />
<path d="M553.125,800.625 L553.125,830.625" close="False" data-weight="1.75" stroke-width="7" fill="none" stroke="#7cd3eb" />
<path d="M553.125,725.625 L553.125,755.625" close="False" data-weight="1.75" stroke-width="7" fill="none" stroke="#7cd3eb" />
<path d="M500.625,928.125 L530.625,928.125" close="False" data-weight="1.75" stroke-width="7" fill="none" stroke="#7cd3eb" />
<path d="M496.8954377834594,915.7185232472195 L540.7185232472197,871.8954377834592" close="False" data-weight="2.060660171779821" stroke-width="7" fill="none" stroke="#7cd3eb" />
<path d="M500.1704076850486,707.625 L531.0795923149514,707.625" close="False" data-weight="1.75" stroke-width="7" fill="none" stroke="#7cd3eb" />
<path d="M425.1704076850486,707.625 L456.0795923149514,707.625" close="False" data-weight="1.75" stroke-width="7" fill="none" stroke="#7cd3eb" />
<path d="M425.625,103.125 L455.625,103.125" close="False" data-weight="1.75" stroke-width="7" fill="none" stroke="#7cd3eb" />
<path d="M350.1704076850486,707.625 L381.0795923149514,707.625" close="False" data-weight="1.75" stroke-width="7" fill="none" stroke="#7cd3eb" />
<path d="M328.125,575.625 L328.125,605.625" close="False" data-weight="1.75" stroke-width="7" fill="none" stroke="#7cd3eb" />
<path d="M328.125,500.625 L328.125,530.625" close="False" data-weight="1.75" stroke-width="7" fill="none" stroke="#7cd3eb" />
<path d="M328.125,425.625 L328.125,455.625" close="False" data-weight="1.75" stroke-width="7" fill="none" stroke="#7cd3eb" />
<path d="M344.03490257669733,387.21509742330267 L387.21509742330267,344.03490257669733" close="False" data-weight="2.060660171779821" stroke-width="7" fill="none" stroke="#7cd3eb" />
<path d="M344.03490257669733,269.03490257669733 L387.21509742330267,312.21509742330267" close="False" data-weight="2.060660171779821" stroke-width="7" fill="none" stroke="#7cd3eb" />
<path d="M350.625,103.125 L380.625,103.125" close="False" data-weight="1.75" stroke-width="7" fill="none" stroke="#7cd3eb" />
<path d="M275.1704076850486,707.625 L306.0795923149514,707.625" close="False" data-weight="1.75" stroke-width="7" fill="none" stroke="#7cd3eb" />
<path d="M275.625,628.125 L305.625,628.125" close="False" data-weight="1.75" stroke-width="7" fill="none" stroke="#7cd3eb" />
<path d="M269.03490257669733,194.03490257669733 L312.21509742330267,237.2150974233027" close="False" data-weight="2.060660171779821" stroke-width="7" fill="none" stroke="#7cd3eb" />
<path d="M269.03490257669733,162.21509742330267 L312.21509742330267,119.0349025766973" close="False" data-weight="2.060660171779821" stroke-width="7" fill="none" stroke="#7cd3eb" />
<path d="M200.17040768504862,707.625 L231.07959231495138,707.625" close="False" data-weight="1.75" stroke-width="7" fill="none" stroke="#7cd3eb" />
<path d="M200.625,628.125 L230.625,628.125" close="False" data-weight="1.75" stroke-width="7" fill="none" stroke="#7cd3eb" />
<path d="M125.1704076850486,707.625 L156.07959231495138,707.625" close="False" data-weight="1.75" stroke-width="7" fill="none" stroke="#7cd3eb" />
<path d="M119.03490257669732,687.2150974233027 L162.2150974233027,644.0349025766973" close="False" data-weight="2.060660171779821" stroke-width="7" fill="none" stroke="#7cd3eb" />
<path d="M865.5314767527805,834.3545622165407 C857.7372481187206,842.1487908506006,842.1487908506006,857.7372481187206,834.3545622165407,865.5314767527805" close="False" data-weight="0.0" stroke-width="7" fill="none" stroke="#8f0f12" />
<path d="M790.5314767527805,909.3545622165407 A57.722322221287925,57.722322221287925,0,0,0,778.0188501520187,928.0810312933224 M778.0188501520187,928.0810312933224 A57.722322221289005,57.722322221289005,0,0,0,773.625,950.1704076850486 M773.625,950.1704076850486" close="False" data-weight="1.0" stroke-width="7" fill="none" stroke="#8f0f12" />
<path d="M650.1704076850486,998.625 C639.1477038425244,998.625,617.1022961574756,998.625,606.0795923149514,998.625" close="False" data-weight="0.0" stroke-width="7" fill="none" stroke="#8f0f12" />
<path d="M553.125,905.625 C553.125,916.875,553.125,939.375,553.125,950.625" close="False" data-weight="0.0" stroke-width="7" fill="none" stroke="#8f0f12" />
<path d="M562.125,832.5034093726987 C562.125,843.5161053931691,553.125,864.6123039795295,553.125,875.625" close="False" data-weight="0.0" stroke-width="7" fill="none" stroke="#8f0f12" />
<path d="M562.125,757.5034093726987 C562.125,767.8142046863493,562.125,788.4357953136507,562.125,798.7465906273013" close="False" data-weight="0.0" stroke-width="7" fill="none" stroke="#8f0f12" />
<path d="M500.1704076850486,698.625 C489.14770384252427,698.625,467.10229615747573,698.625,456.0795923149514,698.625" close="False" data-weight="0.0" stroke-width="7" fill="none" stroke="#8f0f12" />
<path d="M425.1704076850486,698.625 C414.14770384252427,698.625,392.10229615747573,698.625,381.0795923149514,698.625" close="False" data-weight="0.0" stroke-width="7" fill="none" stroke="#8f0f12" />
<path d="M350.1704076850486,698.625 C339.14770384252427,698.625,317.10229615747573,698.625,306.0795923149514,698.625" close="False" data-weight="0.0" stroke-width="7" fill="none" stroke="#8f0f12" />
<path d="M275.1704076850486,698.625 C264.14770384252427,698.625,242.10229615747568,698.625,231.07959231495138,698.625" close="False" data-weight="0.0" stroke-width="7" fill="none" stroke="#8f0f12" />
<path d="M200.17040768504862,698.625 C189.14770384252432,698.625,167.10229615747568,698.625,156.07959231495138,698.625" close="False" data-weight="0.0" stroke-width="7" fill="none" stroke="#8f0f12" />
<path d="M865.5314767527805,834.3545622165407 L909.3545622165407,790.5314767527805" close="False" data-weight="2.060660171779821" stroke-width="7" fill="none" stroke="#8f0f12" />
<path d="M773.625,950.1704076850486 L773.625,981.0795923149514" close="False" data-weight="1.75" stroke-width="7" fill="none" stroke="#8f0f12" />
<path d="M790.5314767527805,909.3545622165407 L834.3545622165407,865.5314767527805" close="False" data-weight="2.060660171779821" stroke-width="7" fill="none" stroke="#8f0f12" />
<path d="M725.1704076850486,998.625 L756.0795923149514,998.625" close="False" data-weight="1.75" stroke-width="7" fill="none" stroke="#8f0f12" />
<path d="M650.1704076850486,998.625 L681.0795923149514,998.625" close="False" data-weight="1.75" stroke-width="7" fill="none" stroke="#8f0f12" />
<path d="M575.1704076850486,998.625 L606.0795923149514,998.625" close="False" data-weight="1.75" stroke-width="7" fill="none" stroke="#8f0f12" />
<path d="M553.125,950.625 L553.125,980.625" close="False" data-weight="1.75" stroke-width="7" fill="none" stroke="#8f0f12" />
<path d="M553.125,875.625 L553.125,905.625" close="False" data-weight="1.75" stroke-width="7" fill="none" stroke="#8f0f12" />
<path d="M562.125,798.7465906273013 L562.125,832.5034093726987" close="False" data-weight="1.75" stroke-width="7" fill="none" stroke="#8f0f12" />
<path d="M562.125,723.7465906273013 L562.125,757.5034093726987" close="False" data-weight="1.75" stroke-width="7" fill="none" stroke="#8f0f12" />
<path d="M500.1704076850486,698.625 L531.0795923149514,698.625" close="False" data-weight="1.75" stroke-width="7" fill="none" stroke="#8f0f12" />
<path d="M425.1704076850486,698.625 L456.0795923149514,698.625" close="False" data-weight="1.75" stroke-width="7" fill="none" stroke="#8f0f12" />
<path d="M350.1704076850486,698.625 L381.0795923149514,698.625" close="False" data-weight="1.75" stroke-width="7" fill="none" stroke="#8f0f12" />
<path d="M275.1704076850486,698.625 L306.0795923149514,698.625" close="False" data-weight="1.75" stroke-width="7" fill="none" stroke="#8f0f12" />
<path d="M200.17040768504862,698.625 L231.07959231495138,698.625" close="False" data-weight="1.75" stroke-width="7" fill="none" stroke="#8f0f12" />
<path d="M125.1704076850486,698.625 L156.07959231495138,698.625" close="False" data-weight="1.75" stroke-width="7" fill="none" stroke="#8f0f12" />
<path d="M640.5314767527768,384.35456221654425 C632.7372481187188,392.1487908506024,617.1487908506025,407.73724811871864,609.3545622165444,415.5314767527767" close="False" data-weight="0.0" stroke-width="7" fill="none" stroke="#90ea66" />
<path d="M644.0349025766973,269.03490257669733 C636.0799512883486,261.0799512883487,620.1700487116514,245.1700487116513,612.2150974233027,237.21509742330267" close="False" data-weight="0.0" stroke-width="7" fill="none" stroke="#90ea66" />
<path d="M548.625,606.0795923149514 C548.625,617.1022961574756,548.625,639.1477038425244,548.625,650.1704076850486" close="False" data-weight="0.0" stroke-width="7" fill="none" stroke="#90ea66" />
<path d="M548.625,531.0795923149514 C548.625,542.1022961574756,548.625,564.1477038425244,548.625,575.1704076850486" close="False" data-weight="0.0" stroke-width="7" fill="none" stroke="#90ea66" />
<path d="M565.5314767527806,459.3545622165405 A57.722322221289375,57.722322221289375,0,0,0,553.0188501520187,478.0810312933222 M553.0188501520187,478.0810312933222 A57.72232222128787,57.72232222128787,0,0,0,548.625,500.1704076850486 M548.625,500.1704076850486" close="False" data-weight="1.0" stroke-width="7" fill="none" stroke="#90ea66" />
<path d="M569.0349025766973,194.0349025766973 C561.0799512883486,186.07995128834867,545.1700487116514,170.1700487116513,537.2150974233027,162.21509742330267" close="False" data-weight="0.0" stroke-width="7" fill="none" stroke="#90ea66" />
<path d="M640.5314767527805,384.3545622165406 L684.3545622165408,340.5314767527803" close="False" data-weight="2.060660171779821" stroke-width="7" fill="none" stroke="#90ea66" />
<path d="M644.0349025766973,269.03490257669733 L687.2150974233027,312.21509742330267" close="False" data-weight="2.060660171779821" stroke-width="7" fill="none" stroke="#90ea66" />
<path d="M548.625,650.1704076850486 L548.625,681.0795923149514" close="False" data-weight="1.75" stroke-width="7" fill="none" stroke="#90ea66" />
<path d="M548.625,575.1704076850486 L548.625,606.0795923149514" close="False" data-weight="1.75" stroke-width="7" fill="none" stroke="#90ea66" />
<path d="M548.625,500.1704076850486 L548.625,531.0795923149514" close="False" data-weight="1.75" stroke-width="7" fill="none" stroke="#90ea66" />
<path d="M565.5314767527805,459.3545622165406 L609.3545622165445,415.5314767527766" close="False" data-weight="2.060660171779821" stroke-width="7" fill="none" stroke="#90ea66" />
<path d="M569.0349025766973,194.03490257669733 L612.2150974233027,237.2150974233027" close="False" data-weight="2.060660171779821" stroke-width="7" fill="none" stroke="#90ea66" />
<path d="M494.03490257669733,119.03490257669732 L537.2150974233027,162.2150974233027" close="False" data-weight="2.060660171779821" stroke-width="7" fill="none" stroke="#90ea66" />
<path d="M1153.125,305.625 C1153.125,316.875,1153.125,339.375,1153.125,350.625" close="False" data-weight="0.0" stroke-width="7" fill="none" stroke="#35618f" />
<path d="M1153.125,230.625 C1153.125,241.875,1153.125,264.375,1153.125,275.625" close="False" data-weight="0.0" stroke-width="7" fill="none" stroke="#35618f" />
<path d="M1094.0349025766973,462.21509742330267 C1086.0799512883486,470.1700487116513,1070.1700487116514,486.0799512883487,1062.2150974233027,494.03490257669733" close="False" data-weight="0.0" stroke-width="7" fill="none" stroke="#35618f" />
<path d="M1019.0349025766973,537.2150974233027 C1011.0799512883486,545.1700487116514,995.1700487116514,561.0799512883486,987.2150974233027,569.0349025766973" close="False" data-weight="0.0" stroke-width="7" fill="none" stroke="#35618f" />
<path d="M944.0349025766973,612.2150974233027 A54.3198051533949,54.3198051533949,0,0,1,926.4122894815039,623.9901510378279 M926.4122894815039,623.9901510378279 A54.31980515339421,54.31980515339421,0,0,1,905.625,628.125 M905.625,628.125" close="False" data-weight="1.0" stroke-width="7" fill="none" stroke="#35618f" />
<path d="M1153.125,350.625 L1153.125,380.625" close="False" data-weight="1.75" stroke-width="7" fill="none" stroke="#35618f" />
<path d="M1153.125,275.625 L1153.125,305.625" close="False" data-weight="1.75" stroke-width="7" fill="none" stroke="#35618f" />
<path d="M1153.125,200.625 L1153.125,230.625" close="False" data-weight="1.75" stroke-width="7" fill="none" stroke="#35618f" />
<path d="M1094.0349025766973,462.21509742330267 L1137.2150974233027,419.03490257669733" close="False" data-weight="2.060660171779821" stroke-width="7" fill="none" stroke="#35618f" />
<path d="M1100.625,178.125 L1130.625,178.125" close="False" data-weight="1.75" stroke-width="7" fill="none" stroke="#35618f" />
<path d="M1019.0349025766973,537.2150974233027 L1062.2150974233027,494.03490257669733" close="False" data-weight="2.060660171779821" stroke-width="7" fill="none" stroke="#35618f" />
<path d="M944.0349025766973,612.2150974233027 L987.2150974233027,569.0349025766973" close="False" data-weight="2.060660171779821" stroke-width="7" fill="none" stroke="#35618f" />
<path d="M875.625,628.125 L905.625,628.125" close="False" data-weight="1.75" stroke-width="7" fill="none" stroke="#35618f" />
<image x="1120.625" y="370.625" width="65" height="65" xlink:href="designspace-test/./img/ds_dataset0_20_15_thumb.png" data-node="True" data-id="15" />
<image x="1120.625" y="145.625" width="65" height="65" xlink:href="designspace-test/./img/ds_dataset0_20_9_thumb.png" data-node="True" data-id="9" />
<image x="1045.625" y="670.625" width="65" height="65" xlink:href="designspace-test/./img/ds_dataset0_20_10_thumb.png" data-node="True" data-id="10" />
<image x="1045.625" y="145.625" width="65" height="65" xlink:href="designspace-test/./img/ds_dataset0_20_1_thumb.png" data-node="True" data-id="1" />
<image x="970.625" y="1195.625" width="65" height="65" xlink:href="designspace-test/./img/ds_dataset0_20_5_thumb.png" data-node="True" data-id="5" />
<image x="970.625" y="970.625" width="65" height="65" xlink:href="designspace-test/./img/ds_dataset0_20_17_thumb.png" data-node="True" data-id="17" />
<image x="895.625" y="745.625" width="65" height="65" xlink:href="designspace-test/./img/ds_dataset0_20_0_thumb.png" data-node="True" data-id="0" />
<image x="820.625" y="595.625" width="65" height="65" xlink:href="designspace-test/./img/ds_dataset0_20_4_thumb.png" data-node="True" data-id="4" />
<image x="745.625" y="970.625" width="65" height="65" xlink:href="designspace-test/./img/ds_dataset0_20_12_thumb.png" data-node="True" data-id="12" />
<image x="670.625" y="970.625" width="65" height="65" xlink:href="designspace-test/./img/ds_dataset0_20_8_thumb.png" data-node="True" data-id="8" />
<image x="670.625" y="295.625" width="65" height="65" xlink:href="designspace-test/./img/ds_dataset0_20_18_thumb.png" data-node="True" data-id="18" />
<image x="520.625" y="970.625" width="65" height="65" xlink:href="designspace-test/./img/ds_dataset0_20_14_thumb.png" data-node="True" data-id="14" />
<image x="520.625" y="670.625" width="65" height="65" xlink:href="designspace-test/./img/ds_dataset0_20_19_thumb.png" data-node="True" data-id="19" />
<image x="445.625" y="895.625" width="65" height="65" xlink:href="designspace-test/./img/ds_dataset0_20_7_thumb.png" data-node="True" data-id="7" />
<image x="445.625" y="70.625" width="65" height="65" xlink:href="designspace-test/./img/ds_dataset0_20_2_thumb.png" data-node="True" data-id="2" />
<image x="370.625" y="295.625" width="65" height="65" xlink:href="designspace-test/./img/ds_dataset0_20_16_thumb.png" data-node="True" data-id="16" />
<image x="295.625" y="595.625" width="65" height="65" xlink:href="designspace-test/./img/ds_dataset0_20_11_thumb.png" data-node="True" data-id="11" />
<image x="220.625" y="145.625" width="65" height="65" xlink:href="designspace-test/./img/ds_dataset0_20_13_thumb.png" data-node="True" data-id="13" />
<image x="145.625" y="1120.625" width="65" height="65" xlink:href="designspace-test/./img/ds_dataset0_20_6_thumb.png" data-node="True" data-id="6" />
<image x="70.625" y="670.625" width="65" height="65" xlink:href="designspace-test/./img/ds_dataset0_20_3_thumb.png" data-node="True" data-id="3" />
</svg>