<?xml version="1.0" encoding="UTF-8"?>
<svg xmlns="http://www.w3.org/2000/svg" xmlns:xlink="http://www.w3.org/1999/xlink"
     viewBox="0 0 2550 2550" preserveAspectRatio="xMidYMid meet">
<defs>
</defs>
<path d="M2423.625,1506.0795923149515 A48.72232222128787,48.72232222128787,0,0,1,2419.91623405538,1524.7248178153918 M2419.91623405538,1524.7248178153918 A48.72232222128834,48.72232222128834,0,0,1,2409.3545622165407,1540.5314767527802 M2409.3545622165407,1540.5314767527802" close="False" data-weight="1.0" stroke-width="7" fill="none" stroke="#1fa562" />
<path d="M2423.625,1431.0795923149515 C2423.625,1442.1022961574758,2423.625,1464.1477038425242,2423.625,1475.1704076850485" close="False" data-weight="0.0" stroke-width="7" fill="none" stroke="#1fa562" />
<path d="M2423.625,1356.0795923149515 C2423.625,1367.1022961574758,2423.625,1389.1477038425242,2423.625,1400.1704076850485" close="False" data-weight="0.0" stroke-width="7" fill="none" stroke="#1fa562" />
<path d="M2423.625,1281.0795923149515 C2423.625,1292.1022961574758,2423.625,1314.1477038425242,2423.625,1325.1704076850485" close="False" data-weight="0.0" stroke-width="7" fill="none" stroke="#1fa562" />
<path d="M2423.625,1206.0795923149515 C2423.625,1217.1022961574758,2423.625,1239.1477038425242,2423.625,1250.1704076850485" close="False" data-weight="0.0" stroke-width="7" fill="none" stroke="#1fa562" />
<path d="M2423.625,1475.1704076850485 L2423.625,1506.0795923149515" close="False" data-weight="1.75" stroke-width="7" fill="none" stroke="#1fa562" />
<path d="M2423.625,1400.1704076850485 L2423.625,1431.0795923149515" close="False" data-weight="1.75" stroke-width="7" fill="none" stroke="#1fa562" />
<path d="M2423.625,1325.1704076850485 L2423.625,1356.0795923149515" close="False" data-weight="1.75" stroke-width="7" fill="none" stroke="#1fa562" />
<path d="M2423.625,1250.1704076850485 L2423.625,1281.0795923149515" close="False" data-weight="1.75" stroke-width="7" fill="none" stroke="#1fa562" />
<path d="M2423.625,1175.1704076850485 L2423.625,1206.0795923149515" close="False" data-weight="1.75" stroke-width="7" fill="none" stroke="#1fa562" />
<path d="M2365.5314767527802,1621.8954377834593 L2409.3545622165407,1665.7185232472198" close="False" data-weight="2.060660171779821" stroke-width="7" fill="none" stroke="#1fa562" />
<path d="M2365.5314767527507,1584.3545622165705 L2409.3545622165407,1540.5314767527802" close="False" data-weight="2.060660171779821" stroke-width="7" fill="none" stroke="#1fa562" />
<path d="M2375.1704076850488,1148.625 C2364.1477038425246,1148.625,2342.1022961574754,1148.625,2331.0795923149512,1148.625" close="False" data-weight="0.0" stroke-width="7" fill="none" stroke="#ff1c5d" />
<path d="M2300.1704076850488,1148.625 A48.72232222128832,48.72232222128832,0,0,1,2281.525182184608,1144.9162340553798 M2281.525182184608,1144.9162340553798 A48.72232222128834,48.72232222128834,0,0,1,2265.7185232472198,1134.3545622165407 M2265.7185232472198,1134.3545622165407" close="False" data-weight="1.0" stroke-width="7" fill="none" stroke="#ff1c5d" />
<path d="M2221.8954377834893,1090.5314767528102 C2214.1012091494144,1082.7372481187354,2198.5127518812646,1067.1487908505856,2190.7185232471898,1059.3545622165107" close="False" data-weight="0.0" stroke-width="7" fill="none" stroke="#ff1c5d" />
<path d="M2146.8954377834593,1015.5314767527805 C2139.1012091493994,1007.7372481187206,2123.5127518812797,992.1487908506006,2115.7185232472198,984.3545622165407" close="False" data-weight="0.0" stroke-width="7" fill="none" stroke="#ff1c5d" />
<path d="M2071.8954377834893,940.5314767528105 C2064.1012091494144,932.7372481187356,2048.5127518812646,917.1487908505857,2040.7185232471898,909.3545622165108" close="False" data-weight="0.0" stroke-width="7" fill="none" stroke="#ff1c5d" />
<path d="M1996.8954377834596,865.5314767527807 C1989.1012091493994,857.7372481187207,1973.5127518812794,842.1487908506007,1965.7185232472195,834.3545622165407" close="False" data-weight="0.0" stroke-width="7" fill="none" stroke="#ff1c5d" />
<path d="M2375.1704076850488,1148.625 L2406.0795923149512,1148.625" close="False" data-weight="1.75" stroke-width="7" fill="none" stroke="#ff1c5d" />
<path d="M2300.1704076850488,1148.625 L2331.0795923149512,1148.625" close="False" data-weight="1.75" stroke-width="7" fill="none" stroke="#ff1c5d" />
<path d="M2221.8954377834893,1090.5314767528102 L2265.7185232472198,1134.3545622165407" close="False" data-weight="2.060660171779821" stroke-width="7" fill="none" stroke="#ff1c5d" />
<path d="M2146.8954377834593,1015.5314767527805 L2190.71852324719,1059.3545622165109" close="False" data-weight="2.060660171779821" stroke-width="7" fill="none" stroke="#ff1c5d" />
<path d="M2071.8954377834893,940.5314767528104 L2115.7185232472198,984.3545622165409" close="False" data-weight="2.060660171779821" stroke-width="7" fill="none" stroke="#ff1c5d" />
<path d="M1996.8954377834593,865.5314767527805 L2040.7185232472198,909.3545622165409" close="False" data-weight="2.060660171779821" stroke-width="7" fill="none" stroke="#ff1c5d" />
<path d="M1921.8954377834593,790.5314767527805 L1965.7185232472198,834.3545622165409" close="False" data-weight="2.060660171779821" stroke-width="7" fill="none" stroke="#ff1c5d" />
<path d="M2432.625,1506.0795923149515 A57.72232222129196,57.72232222129196,0,0,1,2428.2311498479817,1528.168968706678 M2428.2311498479817,1528.168968706678 A57.72232222128422,57.72232222128422,0,0,1,2415.7185232472198,1546.8954377834593 M2415.7185232472198,1546.8954377834593" close="False" data-weight="1.0" stroke-width="7" fill="none" stroke="#7cd3eb" />
<path d="M2432.625,1431.0795923149515 C2432.625,1442.1022961574758,2432.625,1464.1477038425242,2432.625,1475.1704076850485" close="False" data-weight="0.0" stroke-width="7" fill="none" stroke="#7cd3eb" />
<path d="M2432.625,1356.0795923149515 C2432.625,1367.1022961574758,2432.625,1389.1477038425242,2432.625,1400.1704076850485" close="False" data-weight="0.0" stroke-width="7" fill="none" stroke="#7cd3eb" />
<path d="M2432.625,1281.0795923149515 C2432.625,1292.1022961574758,2432.625,1314.1477038425242,2432.625,1325.1704076850485" close="False" data-weight="0.0" stroke-width="7" fill="none" stroke="#7cd3eb" />
<path d="M2432.625,1206.0795923149515 C2432.625,1217.1022961574758,2432.625,1239.1477038425242,2432.625,1250.1704076850485" close="False" data-weight="0.0" stroke-width="7" fill="none" stroke="#7cd3eb" />
<path d="M2369.0349025766973,1737.2150974233027 C2361.0799512883486,1745.1700487116514,2345.1700487116514,1761.0799512883486,2337.2150974233027,1769.0349025766973" close="False" data-weight="0.0" stroke-width="7" fill="none" stroke="#7cd3eb" />
<path d="M2375.1704076850488,1157.625 C2364.1477038425246,1157.625,2342.1022961574754,1157.625,2331.0795923149512,1157.625" close="False" data-weight="0.0" stroke-width="7" fill="none" stroke="#7cd3eb" />
<path d="M2294.0349025766973,1812.2150974233027 C2286.0799512883486,1820.1700487116514,2270.1700487116514,1836.0799512883486,2262.2150974233027,1844.0349025766973" close="False" data-weight="0.0" stroke-width="7" fill="none" stroke="#7cd3eb" />
<path d="M2300.1704076850488,1157.625 A57.72232222129219,57.72232222129219,0,0,1,2278.081031293322,1153.2311498479817 M2278.081031293322,1153.2311498479817 A57.72232222128471,57.72232222128471,0,0,1,2259.3545622165407,1140.7185232472198 M2259.3545622165407,1140.7185232472198" close="False" data-weight="1.0" stroke-width="7" fill="none" stroke="#7cd3eb" />
<path d="M2219.0349025766973,1887.2150974233027 C2211.0799512883486,1895.1700487116514,2195.1700487116514,1911.0799512883486,2187.2150974233027,1919.0349025766973" close="False" data-weight="0.0" stroke-width="7" fill="none" stroke="#7cd3eb" />
<path d="M2215.5314767527507,1096.8954377834295 C2207.737248118706,1089.1012091493844,2192.148790850615,1073.5127518812947,2184.3545622165702,1065.7185232472495" close="False" data-weight="0.0" stroke-width="7" fill="none" stroke="#7cd3eb" />
<path d="M2144.0349025766973,1962.2150974233027 A54.319805153391044,54.319805153391044,0,0,0,2132.259848962172,1979.8377105184957 M2132.259848962172,1979.8377105184957 A54.3198051533941,54.3198051533941,0,0,0,2128.125,2000.625 M2128.125,2000.625" close="False" data-weight="1.0" stroke-width="7" fill="none" stroke="#7cd3eb" />
<path d="M2140.5314767527802,1021.8954377834593 C2132.7372481187203,1014.1012091493994,2117.1487908506006,998.5127518812794,2109.3545622165407,990.7185232472195" close="False" data-weight="0.0" stroke-width="7" fill="none" stroke="#7cd3eb" />
<path d="M2065.53147675275,946.8954377834293 C2057.7372481186976,939.1012091493769,2042.148790850593,923.5127518812719,2034.3545622165407,915.7185232472195" close="False" data-weight="0.0" stroke-width="7" fill="none" stroke="#7cd3eb" />
<path d="M1990.5314767527802,871.8954377834591 C1982.7372481187203,864.1012091493992,1967.1487908506006,848.5127518812794,1959.3545622165407,840.7185232472195" close="False" data-weight="0.0" stroke-width="7" fill="none" stroke="#7cd3eb" />
<path d="M1907.625,981.0795923149514 A57.72232222134494,57.72232222134494,0,0,1,1903.2311498479928,1003.1689687066612 M1903.2311498479928,1003.1689687066612 A57.72232222112972,57.72232222112972,0,0,1,1890.7185232472495,1021.8954377834294 M1890.7185232472495,1021.8954377834294" close="False" data-weight="1.0" stroke-width="7" fill="none" stroke="#7cd3eb" />
<path d="M1907.625,906.0795923149514 C1907.625,917.1022961574756,1907.625,939.1477038425244,1907.625,950.1704076850486" close="False" data-weight="0.0" stroke-width="7" fill="none" stroke="#7cd3eb" />
<path d="M1907.625,831.0795923149514 C1907.625,842.1022961574756,1907.625,864.1477038425244,1907.625,875.1704076850486" close="False" data-weight="0.0" stroke-width="7" fill="none" stroke="#7cd3eb" />
<path d="M1694.0349025766973,1137.2150974233027 C1686.0799512883486,1145.1700487116514,1670.1700487116514,1161.0799512883486,1662.2150974233027,1169.0349025766973" close="False" data-weight="0.0" stroke-width="7" fill="none" stroke="#7cd3eb" />
<path d="M1619.0349025766973,1212.2150974233027 C1611.0799512883486,1220.1700487116514,1595.1700487116514,1236.0799512883486,1587.2150974233027,1244.0349025766973" close="False" data-weight="0.0" stroke-width="7" fill="none" stroke="#7cd3eb" />
<path d="M1544.0349025766973,1287.2150974233027 C1536.0799512883486,1295.1700487116514,1520.1700487116514,1311.0799512883486,1512.2150974233027,1319.0349025766973" close="False" data-weight="0.0" stroke-width="7" fill="none" stroke="#7cd3eb" />
<path d="M1469.0349025766973,1362.2150974233027 C1461.0799512883486,1370.1700487116514,1445.1700487116514,1386.0799512883486,1437.2150974233027,1394.0349025766973" close="False" data-weight="0.0" stroke-width="7" fill="none" stroke="#7cd3eb" />
<path d="M1394.0349025766973,1437.2150974233027 A54.3198051533949,54.3198051533949,0,0,1,1376.412289481504,1448.9901510378277 M1376.412289481504,1448.9901510378277 A54.3198051533941,54.3198051533941,0,0,1,1355.625,1453.125 M1355.625,1453.125" close="False" data-weight="1.0" stroke-width="7" fill="none" stroke="#7cd3eb" />
<path d="M1246.8954377834593,1590.7185232472198 C1239.1012091493994,1598.5127518812797,1223.5127518812797,1614.1012091493994,1215.7185232472198,1621.8954377834593" close="False" data-weight="0.0" stroke-width="7" fill="none" stroke="#7cd3eb" />
<path d="M1171.8954377834593,1665.7185232472198 C1164.1012091493994,1673.5127518812797,1148.5127518812797,1689.1012091493994,1140.7185232472198,1696.8954377834593" close="False" data-weight="0.0" stroke-width="7" fill="none" stroke="#7cd3eb" />
<path d="M1096.8954377834295,2215.5314767527507 C1089.1012091493844,2207.737248118706,1073.5127518812947,2192.148790850615,1065.7185232472495,2184.3545622165702" close="False" data-weight="0.0" stroke-width="7" fill="none" stroke="#7cd3eb" />
<path d="M1096.8954377834593,1740.7185232472198 C1089.1012091493994,1748.5127518812797,1073.5127518812794,1764.1012091493994,1065.7185232472195,1771.8954377834593" close="False" data-weight="0.0" stroke-width="7" fill="none" stroke="#7cd3eb" />
<path d="M1021.8954377834593,2140.5314767527802 C1014.1012091493994,2132.7372481187203,998.5127518812794,2117.1487908506006,990.7185232472195,2109.3545622165407" close="False" data-weight="0.0" stroke-width="7" fill="none" stroke="#7cd3eb" />
<path d="M1021.8954377834593,1815.7185232472195 C1014.1012091493993,1823.5127518812794,998.5127518812794,1839.1012091493994,990.7185232472195,1846.8954377834593" close="False" data-weight="0.0" stroke-width="7" fill="none" stroke="#7cd3eb" />
<path d="M946.8954377834293,2065.53147675275 C939.1012091493769,2057.7372481186976,923.5127518812719,2042.148790850593,915.7185232472195,2034.3545622165407" close="False" data-weight="0.0" stroke-width="7" fill="none" stroke="#7cd3eb" />
<path d="M2432.625,1475.1704076850485 L2432.625,1506.0795923149515" close="False" data-weight="1.75" stroke-width="7" fill="none" stroke="#7cd3eb" />
<path d="M2432.625,1400.1704076850485 L2432.625,1431.0795923149515" close="False" data-weight="1.75" stroke-width="7" fill="none" stroke="#7cd3eb" />
<path d="M2432.625,1325.1704076850485 L2432.625,1356.0795923149515" close="False" data-weight="1.75" stroke-width="7" fill="none" stroke="#7cd3eb" />
<path d="M2432.625,1250.1704076850485 L2432.625,1281.0795923149515" close="False" data-weight="1.75" stroke-width="7" fill="none" stroke="#7cd3eb" />
<path d="M2432.625,1175.1704076850485 L2432.625,1206.0795923149515" close="False" data-weight="1.75" stroke-width="7" fill="none" stroke="#7cd3eb" />
<path d="M2369.0349025766973,1737.2150974233027 L2412.2150974233027,1694.0349025766973" close="False" data-weight="2.060660171779821" stroke-width="7" fill="none" stroke="#7cd3eb" />
<path d="M2371.8954377834593,1615.5314767527802 L2415.7185232472198,1659.3545622165407" close="False" data-weight="2.060660171779821" stroke-width="7" fill="none" stroke="#7cd3eb" />
<path d="M2371.8954377834893,1590.7185232471898 L2415.7185232472198,1546.8954377834593" close="False" data-weight="2.060660171779821" stroke-width="7" fill="none" stroke="#7cd3eb" />
<path d="M2375.1704076850488,1157.625 L2406.0795923149512,1157.625" close="False" data-weight="1.75" stroke-width="7" fill="none" stroke="#7cd3eb" />
<path d="M2294.0349025766973,1812.2150974233027 L2337.2150974233027,1769.0349025766973" close="False" data-weight="2.060660171779821" stroke-width="7" fill="none" stroke="#7cd3eb" />
<path d="M2300.1704076850488,1157.625 L2331.0795923149512,1157.625" close="False" data-weight="1.75" stroke-width="7" fill="none" stroke="#7cd3eb" />
<path d="M2219.0349025766973,1887.2150974233027 L2262.2150974233027,1844.0349025766973" close="False" data-weight="2.060660171779821" stroke-width="7" fill="none" stroke="#7cd3eb" />
<path d="M2215.5314767527507,1096.8954377834295 L2259.3545622165407,1140.7185232472198" close="False" data-weight="2.060660171779821" stroke-width="7" fill="none" stroke="#7cd3eb" />
<path d="M2128.125,2300.625 L2128.125,2330.625" close="False" data-weight="1.75" stroke-width="7" fill="none" stroke="#7cd3eb" />
<path d="M2128.125,2225.625 L2128.125,2255.625" close="False" data-weight="1.75" stroke-width="7" fill="none" stroke="#7cd3eb" />
<path d="M2128.125,2150.625 L2128.125,2180.625" close="False" data-weight="1.75" stroke-width="7" fill="none" stroke="#7cd3eb" />
<path d="M2128.125,2075.625 L2128.125,2105.625" close="False" data-weight="1.75" stroke-width="7" fill="none" stroke="#7cd3eb" />
<path d="M2128.125,2000.625 L2128.125,2030.625" close="False" data-weight="1.75" stroke-width="7" fill="none" stroke="#7cd3eb" />
<path d="M2144.0349025766973,1962.2150974233027 L2187.2150974233027,1919.0349025766973" close="False" data-weight="2.060660171779821" stroke-width="7" fill="none" stroke="#7cd3eb" />
<path d="M2140.5314767527802,1021.8954377834593 L2184.3545622165702,1065.7185232472493" close="False" data-weight="2.060660171779821" stroke-width="7" fill="none" stroke="#7cd3eb" />
<path d="M2053.125,2375.625 L2053.125,2405.625" close="False" data-weight="1.75" stroke-width="7" fill="none" stroke="#7cd3eb" />
<path d="M2075.625,2353.125 L2105.625,2353.125" close="False" data-weight="1.75" stroke-width="7" fill="none" stroke="#7cd3eb" />
<path d="M2053.125,2225.625 L2053.125,2255.625" close="False" data-weight="1.75" stroke-width="7" fill="none" stroke="#7cd3eb" />
<path d="M2075.625,2203.125 L2105.625,2203.125" close="False" data-weight="1.75" stroke-width="7" fill="none" stroke="#7cd3eb" />
<path d="M2075.625,2128.125 L2105.625,2128.125" close="False" data-weight="1.75" stroke-width="7" fill="none" stroke="#7cd3eb" />
<path d="M2075.625,2053.125 L2105.625,2053.125" close="False" data-weight="1.75" stroke-width="7" fill="none" stroke="#7cd3eb" />
<path d="M2065.5314767527507,946.8954377834294 L2109.35456221654,990.7185232472193" close="False" data-weight="2.060660171779821" stroke-width="7" fill="none" stroke="#7cd3eb" />
<path d="M2000.625,2278.125 L2030.625,2278.125" close="False" data-weight="1.75" stroke-width="7" fill="none" stroke="#7cd3eb" />
<path d="M2000.625,2203.125 L2030.625,2203.125" close="False" data-weight="1.75" stroke-width="7" fill="none" stroke="#7cd3eb" />
<path d="M1990.5314767527805,871.8954377834593 L2034.3545622165404,915.7185232472193" close="False" data-weight="2.060660171779821" stroke-width="7" fill="none" stroke="#7cd3eb" />
<path d="M1907.625,950.1704076850486 L1907.625,981.0795923149514" close="False" data-weight="1.75" stroke-width="7" fill="none" stroke="#7cd3eb" />
<path d="M1907.625,875.1704076850486 L1907.625,906.0795923149514" close="False" data-weight="1.75" stroke-width="7" fill="none" stroke="#7cd3eb" />
<path d="M1907.625,800.1704076850486 L1907.625,831.0795923149514" close="False" data-weight="1.75" stroke-width="7" fill="none" stroke="#7cd3eb" />
<path d="M1915.5314767527805,796.8954377834593 L1959.3545622165404,840.7185232472193" close="False" data-weight="2.060660171779821" stroke-width="7" fill="none" stroke="#7cd3eb" />
<path d="M1846.8954377834295,1065.7185232472495 L1890.7185232472495,1021.8954377834295" close="False" data-weight="2.060660171779821" stroke-width="7" fill="none" stroke="#7cd3eb" />
<path d="M1775.1704076850485,1082.625 L1806.0795923149515,1082.625" close="False" data-weight="1.75" stroke-width="7" fill="none" stroke="#7cd3eb" />
<path d="M1694.0349025766973,1137.2150974233027 L1737.2150974233027,1094.0349025766973" close="False" data-weight="2.060660171779821" stroke-width="7" fill="none" stroke="#7cd3eb" />
<path d="M1619.0349025766973,1212.2150974233027 L1662.2150974233027,1169.0349025766973" close="False" data-weight="2.060660171779821" stroke-width="7" fill="none" stroke="#7cd3eb" />
<path d="M1544.0349025766973,1287.2150974233027 L1587.2150974233027,1244.0349025766973" close="False" data-weight="2.060660171779821" stroke-width="7" fill="none" stroke="#7cd3eb" />
<path d="M1469.0349025766973,1362.2150974233027 L1512.2150974233027,1319.0349025766973" close="False" data-weight="2.060660171779821" stroke-width="7" fill="none" stroke="#7cd3eb" />
<path d="M1394.0349025766973,1437.2150974233027 L1437.2150974233027,1394.0349025766973" close="False" data-weight="2.060660171779821" stroke-width="7" fill="none" stroke="#7cd3eb" />
<path d="M1307.625,1475.1704076850485 L1307.625,1506.0795923149515" close="False" data-weight="1.75" stroke-width="7" fill="none" stroke="#7cd3eb" />
<path d="M1325.625,1453.125 L1355.625,1453.125" close="False" data-weight="1.75" stroke-width="7" fill="none" stroke="#7cd3eb" />
<path d="M1232.625,2375.1704076850488 L1232.625,2406.0795923149512" close="False" data-weight="1.75" stroke-width="7" fill="none" stroke="#7cd3eb" />
<path d="M1246.8954377834593,1590.7185232472198 L1290.7185232472198,1546.8954377834593" close="False" data-weight="2.060660171779821" stroke-width="7" fill="none" stroke="#7cd3eb" />
<path d="M1175.1704076850485,2348.625 L1206.0795923149515,2348.625" close="False" data-weight="1.75" stroke-width="7" fill="none" stroke="#7cd3eb" />
<path d="M1157.625,2300.1704076850488 L1157.625,2331.0795923149512" close="False" data-weight="1.75" stroke-width="7" fill="none" stroke="#7cd3eb" />
<path d="M1171.8954377834593,1665.7185232472198 L1215.7185232472198,1621.8954377834593" close="False" data-weight="2.060660171779821" stroke-width="7" fill="none" stroke="#7cd3eb" />
<path d="M1096.8954377834295,2215.5314767527507 L1140.7185232472198,2259.3545622165407" close="False" data-weight="2.060660171779821" stroke-width="7" fill="none" stroke="#7cd3eb" />
<path d="M1096.8954377834593,1740.7185232472198 L1140.7185232472198,1696.8954377834593" close="False" data-weight="2.060660171779821" stroke-width="7" fill="none" stroke="#7cd3eb" />
<path d="M1021.8954377834593,2140.5314767527802 L1065.7185232472493,2184.3545622165702" close="False" data-weight="2.060660171779821" stroke-width="7" fill="none" stroke="#7cd3eb" />
<path d="M1021.8954377834593,1815.7185232472195 L1065.7185232472195,1771.8954377834596" close="False" data-weight="2.060660171779821" stroke-width="7" fill="none" stroke="#7cd3eb" />
<path d="M946.8954377834294,2065.5314767527507 L990.7185232472193,2109.35456221654" close="False" data-weight="2.060660171779821" stroke-width="7" fill="none" stroke="#7cd3eb" />
<path d="M946.8954377834593,1890.7185232472195 L990.7185232472193,1846.8954377834596" close="False" data-weight="2.060660171779821" stroke-width="7" fill="none" stroke="#7cd3eb" />
<path d="M871.8954377834593,1990.5314767527805 L915.7185232472193,2034.3545622165404" close="False" data-weight="2.060660171779821" stroke-width="7" fill="none" stroke="#7cd3eb" />
<path d="M862.125,1923.7465906273012 L862.125,1957.5034093726988" close="False" data-weight="1.75" stroke-width="7" fill="none" stroke="#7cd3eb" />
<path d="M873.7465906273013,1912.125 L907.5034093726987,1912.125" close="False" data-weight="1.75" stroke-width="7" fill="none" stroke="#7cd3eb" />
<path d="M1240.5314767527802,1584.3545622165407 C1232.7372481187203,1592.1487908506006,1217.1487908506006,1607.7372481187203,1209.3545622165407,1615.5314767527802" close="False" data-weight="0.0" stroke-width="7" fill="none" stroke="#8f0f12" />
<path d="M1165.5314767527802,1659.3545622165407 C1157.7372481187203,1667.1487908506006,1142.1487908506006,1682.7372481187203,1134.3545622165407,1690.5314767527802" close="False" data-weight="0.0" stroke-width="7" fill="none" stroke="#8f0f12" />
<path d="M1090.5314767527802,1734.3545622165407 C1082.7372481187203,1742.1487908506006,1067.1487908506006,1757.7372481187206,1059.3545622165407,1765.5314767527805" close="False" data-weight="0.0" stroke-width="7" fill="none" stroke="#8f0f12" />
<path d="M1015.5314767527805,1809.3545622165407 C1007.7372481187206,1817.1487908506006,992.1487908506007,1832.7372481187206,984.3545622165407,1840.5314767527805" close="False" data-weight="0.0" stroke-width="7" fill="none" stroke="#8f0f12" />
<path d="M800.1704076850486,1898.625 C789.1477038425244,1898.625,767.1022961574756,1898.625,756.0795923149514,1898.625" close="False" data-weight="0.0" stroke-width="7" fill="none" stroke="#8f0f12" />
<path d="M725.1704076850486,1898.625 C714.1477038425244,1898.625,692.1022961574756,1898.625,681.0795923149514,1898.625" close="False" data-weight="0.0" stroke-width="7" fill="none" stroke="#8f0f12" />
<path d="M725.625,478.125 C714.375,478.125,691.875,478.125,680.625,478.125" close="False" data-weight="0.0" stroke-width="7" fill="none" stroke="#8f0f12" />
<path d="M650.1704076850486,1898.625 C639.1477038425244,1898.625,617.1022961574756,1898.625,606.0795923149514,1898.625" close="False" data-weight="0.0" stroke-width="7" fill="none" stroke="#8f0f12" />
<path d="M650.625,478.125 C639.375,478.125,616.875,478.125,605.625,478.125" close="False" data-weight="0.0" stroke-width="7" fill="none" stroke="#8f0f12" />
<path d="M575.1704076850486,1898.625 C564.1477038425244,1898.625,542.1022961574756,1898.625,531.0795923149514,1898.625" close="False" data-weight="0.0" stroke-width="7" fill="none" stroke="#8f0f12" />
<path d="M575.625,478.125 A54.31980515339342,54.31980515339342,0,0,0,554.8377105184961,482.25984896217227 M554.8377105184961,482.25984896217227 A54.31980515339574,54.31980515339574,0,0,0,537.2150974233027,494.03490257669733 M537.2150974233027,494.03490257669733" close="False" data-weight="1.0" stroke-width="7" fill="none" stroke="#8f0f12" />
<path d="M500.1704076850486,1898.625 C489.14770384252427,1898.625,467.10229615747573,1898.625,456.0795923149514,1898.625" close="False" data-weight="0.0" stroke-width="7" fill="none" stroke="#8f0f12" />
<path d="M494.03490257669733,537.2150974233027 C486.0799512883487,545.1700487116514,470.1700487116513,561.0799512883486,462.21509742330267,569.0349025766973" close="False" data-weight="0.0" stroke-width="7" fill="none" stroke="#8f0f12" />
<path d="M425.1704076850486,1898.625 C414.14770384252427,1898.625,392.10229615747573,1898.625,381.0795923149514,1898.625" close="False" data-weight="0.0" stroke-width="7" fill="none" stroke="#8f0f12" />
<path d="M419.03490257669733,612.2150974233027 C411.0799512883487,620.1700487116514,395.1700487116513,636.0799512883486,387.21509742330267,644.0349025766973" close="False" data-weight="0.0" stroke-width="7" fill="none" stroke="#8f0f12" />
<path d="M350.1704076850486,1898.625 A48.722322221288096,48.722322221288096,0,0,1,331.52518218460807,1894.9162340553798 M331.52518218460807,1894.9162340553798 A48.72232222128858,48.72232222128858,0,0,1,315.7185232472196,1884.3545622165407 M315.7185232472196,1884.3545622165407" close="False" data-weight="1.0" stroke-width="7" fill="none" stroke="#8f0f12" />
<path d="M328.125,1430.625 A54.31980515339285,54.31980515339285,0,0,1,323.9901510378276,1451.412289481504 M323.9901510378276,1451.412289481504 A54.31980515339627,54.31980515339627,0,0,1,312.21509742330267,1469.0349025766973 M312.21509742330267,1469.0349025766973" close="False" data-weight="1.0" stroke-width="7" fill="none" stroke="#8f0f12" />
<path d="M328.125,1355.625 C328.125,1366.875,328.125,1389.375,328.125,1400.625" close="False" data-weight="0.0" stroke-width="7" fill="none" stroke="#8f0f12" />
<path d="M328.125,1280.625 C328.125,1291.875,328.125,1314.375,328.125,1325.625" close="False" data-weight="0.0" stroke-width="7" fill="none" stroke="#8f0f12" />
<path d="M328.125,1205.625 C328.125,1216.875,328.125,1239.375,328.125,1250.625" close="False" data-weight="0.0" stroke-width="7" fill="none" stroke="#8f0f12" />
<path d="M328.125,1130.625 C328.125,1141.875,328.125,1164.375,328.125,1175.625" close="False" data-weight="0.0" stroke-width="7" fill="none" stroke="#8f0f12" />
<path d="M328.125,1055.625 C328.125,1066.875,328.125,1089.375,328.125,1100.625" close="False" data-weight="0.0" stroke-width="7" fill="none" stroke="#8f0f12" />
<path d="M328.125,980.625 C328.125,991.875,328.125,1014.375,328.125,1025.625" close="False" data-weight="0.0" stroke-width="7" fill="none" stroke="#8f0f12" />
<path d="M328.125,905.625 C328.125,916.875,328.125,939.375,328.125,950.625" close="False" data-weight="0.0" stroke-width="7" fill="none" stroke="#8f0f12" />
<path d="M328.125,830.625 C328.125,841.875,328.125,864.375,328.125,875.625" close="False" data-weight="0.0" stroke-width="7" fill="none" stroke="#8f0f12" />
<path d="M271.8954377834593,1840.5314767527802 C264.1012091493994,1832.7372481187203,248.51275188127948,1817.1487908506006,240.7185232472196,1809.3545622165407" close="False" data-weight="0.0" stroke-width="7" fill="none" stroke="#8f0f12" />
<path d="M269.03490257669733,1512.2150974233027 C261.0799512883487,1520.1700487116514,245.1700487116513,1536.0799512883486,237.21509742330267,1544.0349025766973" close="False" data-weight="0.0" stroke-width="7" fill="none" stroke="#8f0f12" />
<path d="M196.89543778345924,1765.5314767527802 C189.10120914939935,1757.7372481187203,173.51275188127948,1742.1487908506006,165.7185232472196,1734.3545622165407" close="False" data-weight="0.0" stroke-width="7" fill="none" stroke="#8f0f12" />
<path d="M194.0349025766973,1587.2150974233027 C186.12023394452083,1595.1297660554792,173.63319187938112,1613.9807691512979,165.71852324720464,1621.8954377834743" close="False" data-weight="0.0" stroke-width="7" fill="none" stroke="#8f0f12" />
<path d="M1298.625,1475.1704076850485 L1298.625,1506.0795923149515" close="False" data-weight="1.75" stroke-width="7" fill="none" stroke="#8f0f12" />
<path d="M1240.5314767527802,1584.3545622165407 L1284.3545622165407,1540.5314767527802" close="False" data-weight="2.060660171779821" stroke-width="7" fill="none" stroke="#8f0f12" />
<path d="M1165.5314767527802,1659.3545622165407 L1209.3545622165407,1615.5314767527802" close="False" data-weight="2.060660171779821" stroke-width="7" fill="none" stroke="#8f0f12" />
<path d="M1090.5314767527802,1734.3545622165407 L1134.3545622165407,1690.5314767527802" close="False" data-weight="2.060660171779821" stroke-width="7" fill="none" stroke="#8f0f12" />
<path d="M1015.5314767527805,1809.3545622165407 L1059.354562216541,1765.53147675278" close="False" data-weight="2.060660171779821" stroke-width="7" fill="none" stroke="#8f0f12" />
<path d="M940.5314767527805,1884.3545622165407 L984.3545622165409,1840.5314767527802" close="False" data-weight="2.060660171779821" stroke-width="7" fill="none" stroke="#8f0f12" />
<path d="M853.125,1925.625 L853.125,1955.625" close="False" data-weight="1.75" stroke-width="7" fill="none" stroke="#8f0f12" />
<path d="M875.625,1903.125 L905.625,1903.125" close="False" data-weight="1.75" stroke-width="7" fill="none" stroke="#8f0f12" />
<path d="M800.1704076850486,1898.625 L831.0795923149514,1898.625" close="False" data-weight="1.75" stroke-width="7" fill="none" stroke="#8f0f12" />
<path d="M773.625,425.1704076850486 L773.625,456.0795923149514" close="False" data-weight="1.75" stroke-width="7" fill="none" stroke="#8f0f12" />
<path d="M725.1704076850486,1898.625 L756.0795923149514,1898.625" close="False" data-weight="1.75" stroke-width="7" fill="none" stroke="#8f0f12" />
<path d="M725.625,478.125 L755.625,478.125" close="False" data-weight="1.75" stroke-width="7" fill="none" stroke="#8f0f12" />
<path d="M650.1704076850486,1898.625 L681.0795923149514,1898.625" close="False" data-weight="1.75" stroke-width="7" fill="none" stroke="#8f0f12" />
<path d="M650.625,478.125 L680.625,478.125" close="False" data-weight="1.75" stroke-width="7" fill="none" stroke="#8f0f12" />
<path d="M575.1704076850486,1898.625 L606.0795923149514,1898.625" close="False" data-weight="1.75" stroke-width="7" fill="none" stroke="#8f0f12" />
<path d="M575.625,478.125 L605.625,478.125" close="False" data-weight="1.75" stroke-width="7" fill="none" stroke="#8f0f12" />
<path d="M500.1704076850486,1898.625 L531.0795923149514,1898.625" close="False" data-weight="1.75" stroke-width="7" fill="none" stroke="#8f0f12" />
<path d="M494.03490257669733,537.2150974233027 L537.2150974233027,494.03490257669733" close="False" data-weight="2.060660171779821" stroke-width="7" fill="none" stroke="#8f0f12" />
<path d="M425.1704076850486,1898.625 L456.0795923149514,1898.625" close="False" data-weight="1.75" stroke-width="7" fill="none" stroke="#8f0f12" />
<path d="M419.03490257669733,612.2150974233027 L462.21509742330267,569.0349025766973" close="False" data-weight="2.060660171779821" stroke-width="7" fill="none" stroke="#8f0f12" />
<path d="M350.1704076850486,1898.625 L381.0795923149514,1898.625" close="False" data-weight="1.75" stroke-width="7" fill="none" stroke="#8f0f12" />
<path d="M328.125,1400.625 L328.125,1430.625" close="False" data-weight="1.75" stroke-width="7" fill="none" stroke="#8f0f12" />
<path d="M328.125,1325.625 L328.125,1355.625" close="False" data-weight="1.75" stroke-width="7" fill="none" stroke="#8f0f12" />
<path d="M328.125,1250.625 L328.125,1280.625" close="False" data-weight="1.75" stroke-width="7" fill="none" stroke="#8f0f12" />
<path d="M328.125,1175.625 L328.125,1205.625" close="False" data-weight="1.75" stroke-width="7" fill="none" stroke="#8f0f12" />
<path d="M328.125,1100.625 L328.125,1130.625" close="False" data-weight="1.75" stroke-width="7" fill="none" stroke="#8f0f12" />
<path d="M328.125,1025.625 L328.125,1055.625" close="False" data-weight="1.75" stroke-width="7" fill="none" stroke="#8f0f12" />
<path d="M328.125,950.625 L328.125,980.625" close="False" data-weight="1.75" stroke-width="7" fill="none" stroke="#8f0f12" />
<path d="M328.125,875.625 L328.125,905.625" close="False" data-weight="1.75" stroke-width="7" fill="none" stroke="#8f0f12" />
<path d="M328.125,800.625 L328.125,830.625" close="False" data-weight="1.75" stroke-width="7" fill="none" stroke="#8f0f12" />
<path d="M328.125,725.625 L328.125,755.625" close="False" data-weight="1.75" stroke-width="7" fill="none" stroke="#8f0f12" />
<path d="M344.03490257669733,687.2150974233027 L387.21509742330267,644.0349025766973" close="False" data-weight="2.060660171779821" stroke-width="7" fill="none" stroke="#8f0f12" />
<path d="M271.8954377834594,1840.5314767527805 L315.7185232472195,1884.3545622165404" close="False" data-weight="2.060660171779821" stroke-width="7" fill="none" stroke="#8f0f12" />
<path d="M269.03490257669733,1512.2150974233027 L312.21509742330267,1469.0349025766973" close="False" data-weight="2.060660171779821" stroke-width="7" fill="none" stroke="#8f0f12" />
<path d="M196.89543778345939,1765.5314767527805 L240.71852324721942,1809.3545622165404" close="False" data-weight="2.060660171779821" stroke-width="7" fill="none" stroke="#8f0f12" />
<path d="M194.03490257669733,1587.2150974233027 L237.2150974233027,1544.0349025766973" close="False" data-weight="2.060660171779821" stroke-width="7" fill="none" stroke="#8f0f12" />
<path d="M121.89543778345937,1690.5314767527805 L165.71852324721942,1734.3545622165404" close="False" data-weight="2.060660171779821" stroke-width="7" fill="none" stroke="#8f0f12" />
<path d="M121.89543778345937,1665.7185232472195 L165.7185232472045,1621.8954377834746" close="False" data-weight="2.060660171779821" stroke-width="7" fill="none" stroke="#8f0f12" />
<path d="M1090.5314767528102,2221.8954377834893 C1082.7372481187354,2214.1012091494144,1067.1487908505856,2198.5127518812646,1059.3545622165107,2190.7185232471898" close="False" data-weight="0.0" stroke-width="7" fill="none" stroke="#90ea66" />
<path d="M1015.5314767527805,2146.8954377834593 C1007.7372481187206,2139.1012091493994,992.1487908506006,2123.5127518812797,984.3545622165407,2115.7185232472198" close="False" data-weight="0.0" stroke-width="7" fill="none" stroke="#90ea66" />
<path d="M940.5314767528105,2071.8954377834893 C932.7372481187356,2064.1012091494144,917.1487908505857,2048.5127518812646,909.3545622165108,2040.7185232471898" close="False" data-weight="0.0" stroke-width="7" fill="none" stroke="#90ea66" />
<path d="M800.1704076850486,1907.625 C789.1477038425244,1907.625,767.1022961574756,1907.625,756.0795923149514,1907.625" close="False" data-weight="0.0" stroke-width="7" fill="none" stroke="#90ea66" />
<path d="M725.1704076850486,1907.625 C714.1477038425244,1907.625,692.1022961574756,1907.625,681.0795923149514,1907.625" close="False" data-weight="0.0" stroke-width="7" fill="none" stroke="#90ea66" />
<path d="M650.1704076850486,1907.625 C639.1477038425244,1907.625,617.1022961574756,1907.625,606.0795923149514,1907.625" close="False" data-weight="0.0" stroke-width="7" fill="none" stroke="#90ea66" />
<path d="M575.1704076850486,1907.625 C564.1477038425244,1907.625,542.1022961574756,1907.625,531.0795923149514,1907.625" close="False" data-weight="0.0" stroke-width="7" fill="none" stroke="#90ea66" />
<path d="M500.1704076850486,1907.625 C489.14770384252427,1907.625,467.10229615747573,1907.625,456.0795923149514,1907.625" close="False" data-weight="0.0" stroke-width="7" fill="none" stroke="#90ea66" />
<path d="M425.1704076850486,1907.625 C414.14770384252427,1907.625,392.10229615747573,1907.625,381.0795923149514,1907.625" close="False" data-weight="0.0" stroke-width="7" fill="none" stroke="#90ea66" />
<path d="M350.1704076850486,1907.625 A57.72232222128923,57.72232222128923,0,0,1,328.0810312933222,1903.2311498479814 M328.0810312933222,1903.2311498479814 A57.72232222128965,57.72232222128965,0,0,1,309.3545622165406,1890.7185232472195 M309.3545622165406,1890.7185232472195" close="False" data-weight="1.0" stroke-width="7" fill="none" stroke="#90ea66" />
<path d="M265.5314767527805,1846.8954377834596 C257.7372481187205,1839.1012091493997,242.14879085060062,1823.5127518812794,234.35456221654061,1815.7185232472195" close="False" data-weight="0.0" stroke-width="7" fill="none" stroke="#90ea66" />
<path d="M190.53147675278058,1771.8954377834596 C182.73724811872057,1764.1012091493997,167.14879085060062,1748.5127518812794,159.35456221654061,1740.7185232472195" close="False" data-weight="0.0" stroke-width="7" fill="none" stroke="#90ea66" />
<path d="M178.125,1580.625 A34.280434255504616,34.280434255504616,0,0,1,172.39861421872467,1599.5937766731895 M172.39861421872467,1599.5937766731895 A103.64933488269179,103.64933488269179,0,0,1,159.35456221655556,1615.5314767527655 M159.35456221655556,1615.5314767527655" close="False" data-weight="1.0" stroke-width="7" fill="none" stroke="#90ea66" />
<path d="M178.125,1505.625 C178.125,1516.875,178.125,1539.375,178.125,1550.625" close="False" data-weight="0.0" stroke-width="7" fill="none" stroke="#90ea66" />
<path d="M178.125,1430.625 C178.125,1441.875,178.125,1464.375,178.125,1475.625" close="False" data-weight="0.0" stroke-width="7" fill="none" stroke="#90ea66" />
<path d="M103.125,2180.625 A54.319805153392906,54.319805153392906,0,0,0,107.25984896217224,2201.4122894815036 M107.25984896217224,2201.4122894815036 A54.319805153396395,54.319805153396395,0,0,0,119.0349025766973,2219.0349025766973 M119.0349025766973,2219.0349025766973" close="False" data-weight="1.0" stroke-width="7" fill="none" stroke="#90ea66" />
<path d="M103.125,2105.625 C103.125,2116.875,103.125,2139.375,103.125,2150.625" close="False" data-weight="0.0" stroke-width="7" fill="none" stroke="#90ea66" />
<path d="M103.125,2030.625 C103.125,2041.875,103.125,2064.375,103.125,2075.625" close="False" data-weight="0.0" stroke-width="7" fill="none" stroke="#90ea66" />
<path d="M103.125,1955.625 C103.125,1966.875,103.125,1989.375,103.125,2000.625" close="False" data-weight="0.0" stroke-width="7" fill="none" stroke="#90ea66" />
<path d="M103.125,1880.625 C103.125,1891.875,103.125,1914.375,103.125,1925.625" close="False" data-weight="0.0" stroke-width="7" fill="none" stroke="#90ea66" />
<path d="M103.125,1805.625 C103.125,1816.875,103.125,1839.375,103.125,1850.625" close="False" data-weight="0.0" stroke-width="7" fill="none" stroke="#90ea66" />
<path d="M103.125,1730.625 C103.125,1741.875,103.125,1764.375,103.125,1775.625" close="False" data-weight="0.0" stroke-width="7" fill="none" stroke="#90ea66" />
<path d="M1223.625,2375.1704076850488 L1223.625,2406.0795923149512" close="False" data-weight="1.75" stroke-width="7" fill="none" stroke="#90ea66" />
<path d="M1175.1704076850485,2357.625 L1206.0795923149515,2357.625" close="False" data-weight="1.75" stroke-width="7" fill="none" stroke="#90ea66" />
<path d="M1148.625,2300.1704076850488 L1148.625,2331.0795923149512" close="False" data-weight="1.75" stroke-width="7" fill="none" stroke="#90ea66" />
<path d="M1090.5314767528102,2221.8954377834893 L1134.3545622165407,2265.7185232472198" close="False" data-weight="2.060660171779821" stroke-width="7" fill="none" stroke="#90ea66" />
<path d="M1015.5314767527805,2146.8954377834593 L1059.3545622165109,2190.71852324719" close="False" data-weight="2.060660171779821" stroke-width="7" fill="none" stroke="#90ea66" />
<path d="M940.5314767528104,2071.8954377834893 L984.3545622165409,2115.7185232472198" close="False" data-weight="2.060660171779821" stroke-width="7" fill="none" stroke="#90ea66" />
<path d="M865.5314767527805,1996.8954377834593 L909.3545622165409,2040.7185232472198" close="False" data-weight="2.060660171779821" stroke-width="7" fill="none" stroke="#90ea66" />
<path d="M844.125,1923.7465906273012 L844.125,1957.5034093726988" close="False" data-weight="1.75" stroke-width="7" fill="none" stroke="#90ea66" />
<path d="M873.7465906273013,1894.125 L907.5034093726987,1894.125" close="False" data-weight="1.75" stroke-width="7" fill="none" stroke="#90ea66" />
<path d="M800.1704076850486,1907.625 L831.0795923149514,1907.625" close="False" data-weight="1.75" stroke-width="7" fill="none" stroke="#90ea66" />
<path d="M725.1704076850486,1907.625 L756.0795923149514,1907.625" close="False" data-weight="1.75" stroke-width="7" fill="none" stroke="#90ea66" />
<path d="M650.1704076850486,1907.625 L681.0795923149514,1907.625" close="False" data-weight="1.75" stroke-width="7" fill="none" stroke="#90ea66" />
<path d="M575.1704076850486,1907.625 L606.0795923149514,1907.625" close="False" data-weight="1.75" stroke-width="7" fill="none" stroke="#90ea66" />
<path d="M500.1704076850486,1907.625 L531.0795923149514,1907.625" close="False" data-weight="1.75" stroke-width="7" fill="none" stroke="#90ea66" />
<path d="M425.1704076850486,1907.625 L456.0795923149514,1907.625" close="False" data-weight="1.75" stroke-width="7" fill="none" stroke="#90ea66" />
<path d="M350.1704076850486,1907.625 L381.0795923149514,1907.625" close="False" data-weight="1.75" stroke-width="7" fill="none" stroke="#90ea66" />
<path d="M265.5314767527804,1846.8954377834593 L309.3545622165407,1890.7185232472198" close="False" data-weight="2.060660171779821" stroke-width="7" fill="none" stroke="#90ea66" />
<path d="M178.125,2375.625 L178.125,2405.625" close="False" data-weight="1.75" stroke-width="7" fill="none" stroke="#90ea66" />
<path d="M178.125,2300.625 L178.125,2330.625" close="False" data-weight="1.75" stroke-width="7" fill="none" stroke="#90ea66" />
<path d="M190.5314767527804,1771.8954377834593 L234.35456221654076,1815.7185232472198" close="False" data-weight="2.060660171779821" stroke-width="7" fill="none" stroke="#90ea66" />
<path d="M178.125,1550.625 L178.125,1580.625" close="False" data-weight="1.75" stroke-width="7" fill="none" stroke="#90ea66" />
<path d="M178.125,1475.625 L178.125,1505.625" close="False" data-weight="1.75" stroke-width="7" fill="none" stroke="#90ea66" />
<path d="M178.125,1400.625 L178.125,1430.625" close="False" data-weight="1.75" stroke-width="7" fill="none" stroke="#90ea66" />
<path d="M125.625,2353.125 L155.625,2353.125" close="False" data-weight="1.75" stroke-width="7" fill="none" stroke="#90ea66" />
<path d="M119.03490257669732,2219.0349025766973 L162.2150974233027,2262.2150974233027" close="False" data-weight="2.060660171779821" stroke-width="7" fill="none" stroke="#90ea66" />
<path d="M103.125,2150.625 L103.125,2180.625" close="False" data-weight="1.75" stroke-width="7" fill="none" stroke="#90ea66" />
<path d="M103.125,2075.625 L103.125,2105.625" close="False" data-weight="1.75" stroke-width="7" fill="none" stroke="#90ea66" />
<path d="M103.125,2000.625 L103.125,2030.625" close="False" data-weight="1.75" stroke-width="7" fill="none" stroke="#90ea66" />
<path d="M103.125,1925.625 L103.125,1955.625" close="False" data-weight="1.75" stroke-width="7" fill="none" stroke="#90ea66" />
<path d="M103.125,1850.625 L103.125,1880.625" close="False" data-weight="1.75" stroke-width="7" fill="none" stroke="#90ea66" />
<path d="M103.125,1775.625 L103.125,1805.625" close="False" data-weight="1.75" stroke-width="7" fill="none" stroke="#90ea66" />
<path d="M103.125,1700.625 L103.125,1730.625" close="False" data-weight="1.75" stroke-width="7" fill="none" stroke="#90ea66" />
<path d="M115.53147675278042,1696.8954377834593 L159.35456221654076,1740.7185232472198" close="False" data-weight="2.060660171779821" stroke-width="7" fill="none" stroke="#90ea66" />
<path d="M115.53147675278042,1659.3545622165407 L159.3545622165557,1615.5314767527652" close="False" data-weight="2.060660171779821" stroke-width="7" fill="none" stroke="#90ea66" />
<path d="M1898.625,981.0795923149514 A48.72232222123034,48.72232222123034,0,0,1,1894.9162340553682,999.7248178154082 M1894.9162340553682,999.7248178154082 A48.72232222145032,48.72232222145032,0,0,1,1884.3545622165107,1015.5314767528102 M1884.3545622165107,1015.5314767528102" close="False" data-weight="1.0" stroke-width="7" fill="none" stroke="#35618f" />
<path d="M1898.625,906.0795923149514 C1898.625,917.1022961574756,1898.625,939.1477038425244,1898.625,950.1704076850486" close="False" data-weight="0.0" stroke-width="7" fill="none" stroke="#35618f" />
<path d="M1898.625,831.0795923149514 C1898.625,842.1022961574756,1898.625,864.1477038425244,1898.625,875.1704076850486" close="False" data-weight="0.0" stroke-width="7" fill="none" stroke="#35618f" />
<path d="M1903.125,725.625 A54.31980515339637,54.31980515339637,0,0,0,1898.990151037828,704.837710518496 M1898.990151037828,704.837710518496 A54.31980515339273,54.31980515339273,0,0,0,1887.2150974233027,687.2150974233027 M1887.2150974233027,687.2150974233027" close="False" data-weight="1.0" stroke-width="7" fill="none" stroke="#35618f" />
<path d="M1844.0349025766973,644.0349025766973 C1836.0799512883486,636.0799512883486,1820.1700487116514,620.1700487116514,1812.2150974233027,612.2150974233027" close="False" data-weight="0.0" stroke-width="7" fill="none" stroke="#35618f" />
<path d="M1769.0349025766973,569.0349025766973 C1761.0799512883486,561.0799512883486,1745.1700487116514,545.1700487116514,1737.2150974233027,537.2150974233027" close="False" data-weight="0.0" stroke-width="7" fill="none" stroke="#35618f" />
<path d="M1694.0349025766973,494.03490257669733 C1686.0799512883486,486.0799512883487,1670.1700487116514,470.1700487116513,1662.2150974233027,462.21509742330267" close="False" data-weight="0.0" stroke-width="7" fill="none" stroke="#35618f" />
<path d="M1619.0349025766973,419.03490257669733 C1611.0799512883486,411.0799512883487,1595.1700487116514,395.1700487116513,1587.2150974233027,387.21509742330267" close="False" data-weight="0.0" stroke-width="7" fill="none" stroke="#35618f" />
<path d="M1544.0349025766973,344.03490257669733 C1536.0799512883486,336.0799512883487,1520.1700487116514,320.1700487116513,1512.2150974233027,312.21509742330267" close="False" data-weight="0.0" stroke-width="7" fill="none" stroke="#35618f" />
<path d="M1469.0349025766973,269.03490257669733 C1461.0799512883486,261.0799512883487,1445.1700487116514,245.1700487116513,1437.2150974233027,237.21509742330267" close="False" data-weight="0.0" stroke-width="7" fill="none" stroke="#35618f" />
<path d="M1325.625,178.125 C1314.375,178.125,1291.875,178.125,1280.625,178.125" close="False" data-weight="0.0" stroke-width="7" fill="none" stroke="#35618f" />
<path d="M1250.625,178.125 C1239.375,178.125,1216.875,178.125,1205.625,178.125" close="False" data-weight="0.0" stroke-width="7" fill="none" stroke="#35618f" />
<path d="M1175.625,178.125 C1164.375,178.125,1141.875,178.125,1130.625,178.125" close="False" data-weight="0.0" stroke-width="7" fill="none" stroke="#35618f" />
<path d="M1100.625,178.125 C1089.375,178.125,1066.875,178.125,1055.625,178.125" close="False" data-weight="0.0" stroke-width="7" fill="none" stroke="#35618f" />
<path d="M1025.625,178.125 A54.31980515339484,54.31980515339484,0,0,0,1004.8377105184961,182.25984896217216 M1004.8377105184961,182.25984896217216 A54.3198051533943,54.3198051533943,0,0,0,987.2150974233027,194.03490257669736 M987.2150974233027,194.03490257669736" close="False" data-weight="1.0" stroke-width="7" fill="none" stroke="#35618f" />
<path d="M944.0349025766973,237.2150974233027 C936.0799512883486,245.17004871165133,920.1700487116514,261.0799512883487,912.2150974233027,269.03490257669733" close="False" data-weight="0.0" stroke-width="7" fill="none" stroke="#35618f" />
<path d="M869.0349025766973,312.21509742330267 C861.0799512883486,320.1700487116513,845.1700487116514,336.0799512883487,837.2150974233027,344.03490257669733" close="False" data-weight="0.0" stroke-width="7" fill="none" stroke="#35618f" />
<path d="M778.125,755.625 A54.31980515339478,54.31980515339478,0,0,1,773.9901510378278,776.4122894815039 M773.9901510378278,776.4122894815039 A54.319805153394256,54.319805153394256,0,0,1,762.2150974233027,794.0349025766973 M762.2150974233027,794.0349025766973" close="False" data-weight="1.0" stroke-width="7" fill="none" stroke="#35618f" />
<path d="M778.125,680.625 C778.125,691.875,778.125,714.375,778.125,725.625" close="False" data-weight="0.0" stroke-width="7" fill="none" stroke="#35618f" />
<path d="M778.125,605.625 C778.125,616.875,778.125,639.375,778.125,650.625" close="False" data-weight="0.0" stroke-width="7" fill="none" stroke="#35618f" />
<path d="M778.125,530.625 C778.125,541.875,778.125,564.375,778.125,575.625" close="False" data-weight="0.0" stroke-width="7" fill="none" stroke="#35618f" />
<path d="M719.0349025766973,837.2150974233027 C711.0799512883486,845.1700487116514,695.1700487116514,861.0799512883486,687.2150974233027,869.0349025766973" close="False" data-weight="0.0" stroke-width="7" fill="none" stroke="#35618f" />
<path d="M644.0349025766973,912.2150974233027 C636.0799512883486,920.1700487116514,620.1700487116514,936.0799512883486,612.2150974233027,944.0349025766973" close="False" data-weight="0.0" stroke-width="7" fill="none" stroke="#35618f" />
<path d="M569.0349025766973,987.2150974233027 C561.0799512883486,995.1700487116514,545.1700487116514,1011.0799512883486,537.2150974233027,1019.0349025766973" close="False" data-weight="0.0" stroke-width="7" fill="none" stroke="#35618f" />
<path d="M494.03490257669733,1062.2150974233027 C486.0799512883487,1070.1700487116514,470.1700487116513,1086.0799512883486,462.21509742330267,1094.0349025766973" close="False" data-weight="0.0" stroke-width="7" fill="none" stroke="#35618f" />
<path d="M419.03490257669733,1137.2150974233027 C411.0799512883487,1145.1700487116514,395.1700487116513,1161.0799512883486,387.21509742330267,1169.0349025766973" close="False" data-weight="0.0" stroke-width="7" fill="none" stroke="#35618f" />
<path d="M344.03490257669733,1212.2150974233027 C336.0799512883487,1220.1700487116514,320.1700487116513,1236.0799512883486,312.21509742330267,1244.0349025766973" close="False" data-weight="0.0" stroke-width="7" fill="none" stroke="#35618f" />
<path d="M269.03490257669733,1287.2150974233027 C261.0799512883487,1295.1700487116514,245.1700487116513,1311.0799512883486,237.21509742330267,1319.0349025766973" close="False" data-weight="0.0" stroke-width="7" fill="none" stroke="#35618f" />
<path d="M1898.625,950.1704076850486 L1898.625,981.0795923149514" close="False" data-weight="1.75" stroke-width="7" fill="none" stroke="#35618f" />
<path d="M1898.625,875.1704076850486 L1898.625,906.0795923149514" close="False" data-weight="1.75" stroke-width="7" fill="none" stroke="#35618f" />
<path d="M1898.625,800.1704076850486 L1898.625,831.0795923149514" close="False" data-weight="1.75" stroke-width="7" fill="none" stroke="#35618f" />
<path d="M1903.125,725.625 L1903.125,755.625" close="False" data-weight="1.75" stroke-width="7" fill="none" stroke="#35618f" />
<path d="M1840.5314767528102,1059.3545622165107 L1884.3545622165107,1015.5314767528102" close="False" data-weight="2.060660171779821" stroke-width="7" fill="none" stroke="#35618f" />
<path d="M1844.0349025766973,644.0349025766973 L1887.2150974233027,687.2150974233027" close="False" data-weight="2.060660171779821" stroke-width="7" fill="none" stroke="#35618f" />
<path d="M1775.1704076850485,1073.625 L1806.0795923149515,1073.625" close="False" data-weight="1.75" stroke-width="7" fill="none" stroke="#35618f" />
<path d="M1769.0349025766973,569.0349025766973 L1812.2150974233027,612.2150974233027" close="False" data-weight="2.060660171779821" stroke-width="7" fill="none" stroke="#35618f" />
<path d="M1694.0349025766973,494.03490257669733 L1737.2150974233027,537.2150974233027" close="False" data-weight="2.060660171779821" stroke-width="7" fill="none" stroke="#35618f" />
<path d="M1619.0349025766973,419.03490257669733 L1662.2150974233027,462.21509742330267" close="False" data-weight="2.060660171779821" stroke-width="7" fill="none" stroke="#35618f" />
<path d="M1544.0349025766973,344.03490257669733 L1587.2150974233027,387.21509742330267" close="False" data-weight="2.060660171779821" stroke-width="7" fill="none" stroke="#35618f" />
<path d="M1469.0349025766973,269.03490257669733 L1512.2150974233027,312.21509742330267" close="False" data-weight="2.060660171779821" stroke-width="7" fill="none" stroke="#35618f" />
<path d="M1394.0349025766973,194.03490257669733 L1437.2150974233027,237.2150974233027" close="False" data-weight="2.060660171779821" stroke-width="7" fill="none" stroke="#35618f" />
<path d="M1378.125,125.625 L1378.125,155.625" close="False" data-weight="1.75" stroke-width="7" fill="none" stroke="#35618f" />
<path d="M1325.625,178.125 L1355.625,178.125" close="False" data-weight="1.75" stroke-width="7" fill="none" stroke="#35618f" />
<path d="M1250.625,178.125 L1280.625,178.125" close="False" data-weight="1.75" stroke-width="7" fill="none" stroke="#35618f" />
<path d="M1175.625,178.125 L1205.625,178.125" close="False" data-weight="1.75" stroke-width="7" fill="none" stroke="#35618f" />
<path d="M1100.625,178.125 L1130.625,178.125" close="False" data-weight="1.75" stroke-width="7" fill="none" stroke="#35618f" />
<path d="M1025.625,178.125 L1055.625,178.125" close="False" data-weight="1.75" stroke-width="7" fill="none" stroke="#35618f" />
<path d="M944.0349025766973,237.21509742330267 L987.2150974233027,194.0349025766973" close="False" data-weight="2.060660171779821" stroke-width="7" fill="none" stroke="#35618f" />
<path d="M869.0349025766973,312.21509742330267 L912.2150974233027,269.03490257669733" close="False" data-weight="2.060660171779821" stroke-width="7" fill="none" stroke="#35618f" />
<path d="M778.125,725.625 L778.125,755.625" close="False" data-weight="1.75" stroke-width="7" fill="none" stroke="#35618f" />
<path d="M778.125,650.625 L778.125,680.625" close="False" data-weight="1.75" stroke-width="7" fill="none" stroke="#35618f" />
<path d="M778.125,575.625 L778.125,605.625" close="False" data-weight="1.75" stroke-width="7" fill="none" stroke="#35618f" />
<path d="M778.125,500.625 L778.125,530.625" close="False" data-weight="1.75" stroke-width="7" fill="none" stroke="#35618f" />
<path d="M782.625,425.1704076850486 L782.625,456.0795923149514" close="False" data-weight="1.75" stroke-width="7" fill="none" stroke="#35618f" />
<path d="M794.0349025766973,387.21509742330267 L837.2150974233027,344.03490257669733" close="False" data-weight="2.060660171779821" stroke-width="7" fill="none" stroke="#35618f" />
<path d="M719.0349025766973,837.2150974233027 L762.2150974233027,794.0349025766973" close="False" data-weight="2.060660171779821" stroke-width="7" fill="none" stroke="#35618f" />
<path d="M644.0349025766973,912.2150974233027 L687.2150974233027,869.0349025766973" close="False" data-weight="2.060660171779821" stroke-width="7" fill="none" stroke="#35618f" />
<path d="M569.0349025766973,987.2150974233027 L612.2150974233027,944.0349025766973" close="False" data-weight="2.060660171779821" stroke-width="7" fill="none" stroke="#35618f" />
<path d="M494.03490257669733,1062.2150974233027 L537.2150974233027,1019.0349025766973" close="False" data-weight="2.060660171779821" stroke-width="7" fill="none" stroke="#35618f" />
<path d="M419.03490257669733,1137.2150974233027 L462.21509742330267,1094.0349025766973" close="False" data-weight="2.060660171779821" stroke-width="7" fill="none" stroke="#35618f" />
<path d="M344.03490257669733,1212.2150974233027 L387.21509742330267,1169.0349025766973" close="False" data-weight="2.060660171779821" stroke-width="7" fill="none" stroke="#35618f" />
<path d="M269.03490257669733,1287.2150974233027 L312.21509742330267,1244.0349025766973" close="False" data-weight="2.060660171779821" stroke-width="7" fill="none" stroke="#35618f" />
<path d="M194.03490257669733,1362.2150974233027 L237.2150974233027,1319.0349025766973" close="False" data-weight="2.060660171779821" stroke-width="7" fill="none" stroke="#35618f" />
<image x="2395.625" y="1645.625" width="65" height="65" xlink:href="designspace-test/./img/ds_dataset1_40_21_thumb.png" data-node="True" data-id="21" />
<image x="2395.625" y="1120.625" width="65" height="65" xlink:href="designspace-test/./img/ds_dataset1_40_37_thumb.png" data-node="True" data-id="37" />
<image x="2320.625" y="1570.625" width="65" height="65" xlink:href="designspace-test/./img/ds_dataset1_40_27_thumb.png" data-node="True" data-id="27" />
<image x="2095.625" y="2320.625" width="65" height="65" xlink:href="designspace-test/./img/ds_dataset1_40_39_thumb.png" data-node="True" data-id="39" />
<image x="2095.625" y="2245.625" width="65" height="65" xlink:href="designspace-test/./img/ds_dataset1_40_30_thumb.png" data-node="True" data-id="30" />
<image x="2095.625" y="2170.625" width="65" height="65" xlink:href="designspace-test/./img/ds_dataset1_40_25_thumb.png" data-node="True" data-id="25" />
<image x="2095.625" y="2095.625" width="65" height="65" xlink:href="designspace-test/./img/ds_dataset1_40_13_thumb.png" data-node="True" data-id="13" />
<image x="2095.625" y="2020.625" width="65" height="65" xlink:href="designspace-test/./img/ds_dataset1_40_11_thumb.png" data-node="True" data-id="11" />
<image x="2020.625" y="2395.625" width="65" height="65" xlink:href="designspace-test/./img/ds_dataset1_40_33_thumb.png" data-node="True" data-id="33" />
<image x="2020.625" y="2320.625" width="65" height="65" xlink:href="designspace-test/./img/ds_dataset1_40_31_thumb.png" data-node="True" data-id="31" />
<image x="2020.625" y="2245.625" width="65" height="65" xlink:href="designspace-test/./img/ds_dataset1_40_24_thumb.png" data-node="True" data-id="24" />
<image x="2020.625" y="2170.625" width="65" height="65" xlink:href="designspace-test/./img/ds_dataset1_40_17_thumb.png" data-node="True" data-id="17" />
<image x="2020.625" y="2095.625" width="65" height="65" xlink:href="designspace-test/./img/ds_dataset1_40_10_thumb.png" data-node="True" data-id="10" />
<image x="2020.625" y="2020.625" width="65" height="65" xlink:href="designspace-test/./img/ds_dataset1_40_9_thumb.png" data-node="True" data-id="9" />
<image x="1945.625" y="2245.625" width="65" height="65" xlink:href="designspace-test/./img/ds_dataset1_40_16_thumb.png" data-node="True" data-id="16" />
<image x="1945.625" y="2170.625" width="65" height="65" xlink:href="designspace-test/./img/ds_dataset1_40_14_thumb.png" data-node="True" data-id="14" />
<image x="1870.625" y="745.625" width="65" height="65" xlink:href="designspace-test/./img/ds_dataset1_40_19_thumb.png" data-node="True" data-id="19" />
<image x="1795.625" y="1045.625" width="65" height="65" xlink:href="designspace-test/./img/ds_dataset1_40_32_thumb.png" data-node="True" data-id="32" />
<image x="1720.625" y="1045.625" width="65" height="65" xlink:href="designspace-test/./img/ds_dataset1_40_4_thumb.png" data-node="True" data-id="4" />
<image x="1345.625" y="145.625" width="65" height="65" xlink:href="designspace-test/./img/ds_dataset1_40_2_thumb.png" data-node="True" data-id="2" />
<image x="1345.625" y="70.625" width="65" height="65" xlink:href="designspace-test/./img/ds_dataset1_40_12_thumb.png" data-node="True" data-id="12" />
<image x="1270.625" y="1495.625" width="65" height="65" xlink:href="designspace-test/./img/ds_dataset1_40_1_thumb.png" data-node="True" data-id="1" />
<image x="1270.625" y="1420.625" width="65" height="65" xlink:href="designspace-test/./img/ds_dataset1_40_36_thumb.png" data-node="True" data-id="36" />
<image x="1195.625" y="2395.625" width="65" height="65" xlink:href="designspace-test/./img/ds_dataset1_40_6_thumb.png" data-node="True" data-id="6" />
<image x="1195.625" y="2320.625" width="65" height="65" xlink:href="designspace-test/./img/ds_dataset1_40_8_thumb.png" data-node="True" data-id="8" />
<image x="1120.625" y="2320.625" width="65" height="65" xlink:href="designspace-test/./img/ds_dataset1_40_15_thumb.png" data-node="True" data-id="15" />
<image x="1120.625" y="2245.625" width="65" height="65" xlink:href="designspace-test/./img/ds_dataset1_40_26_thumb.png" data-node="True" data-id="26" />
<image x="895.625" y="1870.625" width="65" height="65" xlink:href="designspace-test/./img/ds_dataset1_40_29_thumb.png" data-node="True" data-id="29" />
<image x="820.625" y="1945.625" width="65" height="65" xlink:href="designspace-test/./img/ds_dataset1_40_28_thumb.png" data-node="True" data-id="28" />
<image x="820.625" y="1870.625" width="65" height="65" xlink:href="designspace-test/./img/ds_dataset1_40_3_thumb.png" data-node="True" data-id="3" />
<image x="745.625" y="445.625" width="65" height="65" xlink:href="designspace-test/./img/ds_dataset1_40_38_thumb.png" data-node="True" data-id="38" />
<image x="745.625" y="370.625" width="65" height="65" xlink:href="designspace-test/./img/ds_dataset1_40_22_thumb.png" data-node="True" data-id="22" />
<image x="295.625" y="745.625" width="65" height="65" xlink:href="designspace-test/./img/ds_dataset1_40_23_thumb.png" data-node="True" data-id="23" />
<image x="295.625" y="670.625" width="65" height="65" xlink:href="designspace-test/./img/ds_dataset1_40_35_thumb.png" data-node="True" data-id="35" />
<image x="145.625" y="2395.625" width="65" height="65" xlink:href="designspace-test/./img/ds_dataset1_40_34_thumb.png" data-node="True" data-id="34" />
<image x="145.625" y="2320.625" width="65" height="65" xlink:href="designspace-test/./img/ds_dataset1_40_7_thumb.png" data-node="True" data-id="7" />
<image x="145.625" y="2245.625" width="65" height="65" xlink:href="designspace-test/./img/ds_dataset1_40_0_thumb.png" data-node="True" data-id="0" />
<image x="145.625" y="1345.625" width="65" height="65" xlink:href="designspace-test/./img/ds_dataset1_40_18_thumb.png" data-node="True" data-id="18" />
<image x="70.625" y="2320.625" width="65" height="65" xlink:href="designspace-test/./img/ds_dataset1_40_5_thumb.png" data-node="True" data-id="5" />
<image x="70.625" y="1645.625" width="65" height="65" xlink:href="designspace-test/./img/ds_dataset1_40_20_thumb.png" data-node="True" data-id="20" />
</svg>