<?xml version="1.0" encoding="UTF-8"?>
<svg xmlns="http://www.w3.org/2000/svg" xmlns:xlink="http://www.w3.org/1999/xlink"
     viewBox="0 0 2550 2550" preserveAspectRatio="xMidYMid meet">
<defs>
</defs>
<path d="M2365.5314767527802,759.3545622165409 C2357.7372481187203,767.1487908506008,2342.1487908506006,782.7372481187206,2334.3545622165407,790.5314767527805" close="False" data-weight="0.0" stroke-width="7" fill="none" stroke="#1fa562" />
<path d="M2273.625,1281.0795923149515 A48.72232222128787,48.72232222128787,0,0,1,2269.91623405538,1299.7248178153918 M2269.91623405538,1299.7248178153918 A48.72232222128834,48.72232222128834,0,0,1,2259.3545622165407,1315.5314767527802 M2259.3545622165407,1315.5314767527802" close="False" data-weight="1.0" stroke-width="7" fill="none" stroke="#1fa562" />
<path d="M2273.625,1206.0795923149515 C2273.625,1217.1022961574758,2273.625,1239.1477038425242,2273.625,1250.1704076850485" close="False" data-weight="0.0" stroke-width="7" fill="none" stroke="#1fa562" />
<path d="M2273.625,1131.0795923149515 C2273.625,1142.1022961574758,2273.625,1164.1477038425242,2273.625,1175.1704076850485" close="False" data-weight="0.0" stroke-width="7" fill="none" stroke="#1fa562" />
<path d="M2273.625,1056.0795923149515 C2273.625,1067.1022961574758,2273.625,1089.1477038425242,2273.625,1100.1704076850485" close="False" data-weight="0.0" stroke-width="7" fill="none" stroke="#1fa562" />
<path d="M2273.625,906.0795923149514 C2273.625,917.1022961574756,2273.625,939.1477038425244,2273.625,950.1704076850486" close="False" data-weight="0.0" stroke-width="7" fill="none" stroke="#1fa562" />
<path d="M2290.5314767527802,834.3545622165409 A57.72232222128986,57.72232222128986,0,0,0,2278.0188501520183,853.0810312933223 M2278.0188501520183,853.0810312933223 A57.72232222128605,57.72232222128605,0,0,0,2273.625,875.1704076850486 M2273.625,875.1704076850486" close="False" data-weight="1.0" stroke-width="7" fill="none" stroke="#1fa562" />
<path d="M2365.5314767527802,759.3545622165407 L2409.35456221654,715.5314767527807" close="False" data-weight="2.060660171779821" stroke-width="7" fill="none" stroke="#1fa562" />
<path d="M2273.625,1250.1704076850485 L2273.625,1281.0795923149515" close="False" data-weight="1.75" stroke-width="7" fill="none" stroke="#1fa562" />
<path d="M2273.625,1175.1704076850485 L2273.625,1206.0795923149515" close="False" data-weight="1.75" stroke-width="7" fill="none" stroke="#1fa562" />
<path d="M2273.625,1100.1704076850485 L2273.625,1131.0795923149515" close="False" data-weight="1.75" stroke-width="7" fill="none" stroke="#1fa562" />
<path d="M2273.625,1025.1704076850485 L2273.625,1056.0795923149515" close="False" data-weight="1.75" stroke-width="7" fill="none" stroke="#1fa562" />
<path d="M2273.625,950.1704076850486 L2273.625,981.0795923149514" close="False" data-weight="1.75" stroke-width="7" fill="none" stroke="#1fa562" />
<path d="M2273.625,875.1704076850486 L2273.625,906.0795923149514" close="False" data-weight="1.75" stroke-width="7" fill="none" stroke="#1fa562" />
<path d="M2290.5314767527802,834.3545622165407 L2334.35456221654,790.5314767527807" close="False" data-weight="2.060660171779821" stroke-width="7" fill="none" stroke="#1fa562" />
<path d="M2215.5314767527802,1359.3545622165407 L2259.3545622165407,1315.5314767527802" close="False" data-weight="2.060660171779821" stroke-width="7" fill="none" stroke="#1fa562" />
<path d="M2207.625,1656.0795923149515 C2207.625,1667.1022961574758,2207.625,1689.1477038425242,2207.625,1700.1704076850485" close="False" data-weight="0.0" stroke-width="7" fill="none" stroke="#ff1c5d" />
<path d="M2207.625,1581.0795923149515 C2207.625,1592.1022961574758,2207.625,1614.1477038425242,2207.625,1625.1704076850485" close="False" data-weight="0.0" stroke-width="7" fill="none" stroke="#ff1c5d" />
<path d="M2207.625,1506.0795923149515 C2207.625,1517.1022961574758,2207.625,1539.1477038425242,2207.625,1550.1704076850485" close="False" data-weight="0.0" stroke-width="7" fill="none" stroke="#ff1c5d" />
<path d="M2207.625,1431.0795923149515 C2207.625,1442.1022961574758,2207.625,1464.1477038425242,2207.625,1475.1704076850485" close="False" data-weight="0.0" stroke-width="7" fill="none" stroke="#ff1c5d" />
<path d="M2207.625,1700.1704076850485 L2207.625,1731.0795923149515" close="False" data-weight="1.75" stroke-width="7" fill="none" stroke="#ff1c5d" />
<path d="M2207.625,1625.1704076850485 L2207.625,1656.0795923149515" close="False" data-weight="1.75" stroke-width="7" fill="none" stroke="#ff1c5d" />
<path d="M2207.625,1550.1704076850485 L2207.625,1581.0795923149515" close="False" data-weight="1.75" stroke-width="7" fill="none" stroke="#ff1c5d" />
<path d="M2207.625,1475.1704076850485 L2207.625,1506.0795923149515" close="False" data-weight="1.75" stroke-width="7" fill="none" stroke="#ff1c5d" />
<path d="M2207.625,1400.1704076850485 L2207.625,1431.0795923149515" close="False" data-weight="1.75" stroke-width="7" fill="none" stroke="#ff1c5d" />
<path d="M2371.89543778346,765.7185232472193 C2364.1012091494,773.5127518812793,2348.5127518812797,789.1012091493993,2340.7185232472198,796.8954377834593" close="False" data-weight="0.0" stroke-width="7" fill="none" stroke="#7cd3eb" />
<path d="M2375.625,703.125 C2364.375,703.125,2341.875,703.125,2330.625,703.125" close="False" data-weight="0.0" stroke-width="7" fill="none" stroke="#7cd3eb" />
<path d="M2282.625,1281.0795923149515 A57.72232222129196,57.72232222129196,0,0,1,2278.2311498479817,1303.168968706678 M2278.2311498479817,1303.168968706678 A57.72232222128422,57.72232222128422,0,0,1,2265.7185232472198,1321.8954377834593 M2265.7185232472198,1321.8954377834593" close="False" data-weight="1.0" stroke-width="7" fill="none" stroke="#7cd3eb" />
<path d="M2282.625,1206.0795923149515 C2282.625,1217.1022961574758,2282.625,1239.1477038425242,2282.625,1250.1704076850485" close="False" data-weight="0.0" stroke-width="7" fill="none" stroke="#7cd3eb" />
<path d="M2282.625,1131.0795923149515 C2282.625,1142.1022961574758,2282.625,1164.1477038425242,2282.625,1175.1704076850485" close="False" data-weight="0.0" stroke-width="7" fill="none" stroke="#7cd3eb" />
<path d="M2282.625,1056.0795923149515 C2282.625,1067.1022961574758,2282.625,1089.1477038425242,2282.625,1100.1704076850485" close="False" data-weight="0.0" stroke-width="7" fill="none" stroke="#7cd3eb" />
<path d="M2282.625,906.0795923149514 C2282.625,917.1022961574756,2282.625,939.1477038425244,2282.625,950.1704076850486" close="False" data-weight="0.0" stroke-width="7" fill="none" stroke="#7cd3eb" />
<path d="M2296.89543778346,840.7185232472193 A48.722322221292195,48.722322221292195,0,0,0,2286.33376594462,856.5251821846078 M2286.33376594462,856.5251821846078 A48.722322221285594,48.722322221285594,0,0,0,2282.625,875.1704076850486 M2282.625,875.1704076850486" close="False" data-weight="1.0" stroke-width="7" fill="none" stroke="#7cd3eb" />
<path d="M2300.625,703.125 C2289.375,703.125,2266.875,703.125,2255.625,703.125" close="False" data-weight="0.0" stroke-width="7" fill="none" stroke="#7cd3eb" />
<path d="M2198.625,1656.0795923149515 C2198.625,1667.1022961574758,2198.625,1689.1477038425242,2198.625,1700.1704076850485" close="False" data-weight="0.0" stroke-width="7" fill="none" stroke="#7cd3eb" />
<path d="M2198.625,1581.0795923149515 C2198.625,1592.1022961574758,2198.625,1614.1477038425242,2198.625,1625.1704076850485" close="False" data-weight="0.0" stroke-width="7" fill="none" stroke="#7cd3eb" />
<path d="M2198.625,1506.0795923149515 C2198.625,1517.1022961574758,2198.625,1539.1477038425242,2198.625,1550.1704076850485" close="False" data-weight="0.0" stroke-width="7" fill="none" stroke="#7cd3eb" />
<path d="M2198.625,1431.0795923149515 C2198.625,1442.1022961574758,2198.625,1464.1477038425242,2198.625,1475.1704076850485" close="False" data-weight="0.0" stroke-width="7" fill="none" stroke="#7cd3eb" />
<path d="M2225.625,703.125 C2214.375,703.125,2191.875,703.125,2180.625,703.125" close="False" data-weight="0.0" stroke-width="7" fill="none" stroke="#7cd3eb" />
<path d="M2150.1704076850488,1748.625 C2139.1477038425246,1748.625,2117.1022961574754,1748.625,2106.0795923149512,1748.625" close="False" data-weight="0.0" stroke-width="7" fill="none" stroke="#7cd3eb" />
<path d="M2150.625,703.125 C2139.375,703.125,2116.875,703.125,2105.625,703.125" close="False" data-weight="0.0" stroke-width="7" fill="none" stroke="#7cd3eb" />
<path d="M2075.1704076850488,1748.625 A48.72232222128832,48.72232222128832,0,0,1,2056.525182184608,1744.9162340553798 M2056.525182184608,1744.9162340553798 A48.72232222128834,48.72232222128834,0,0,1,2040.7185232472198,1734.3545622165407 M2040.7185232472198,1734.3545622165407" close="False" data-weight="1.0" stroke-width="7" fill="none" stroke="#7cd3eb" />
<path d="M2075.625,703.125 C2064.375,703.125,2041.875,703.125,2030.625,703.125" close="False" data-weight="0.0" stroke-width="7" fill="none" stroke="#7cd3eb" />
<path d="M1982.625,1581.0795923149515 C1982.625,1592.1022961574758,1982.625,1614.1477038425242,1982.625,1625.1704076850485" close="False" data-weight="0.0" stroke-width="7" fill="none" stroke="#7cd3eb" />
<path d="M1982.625,1550.1704076850485 A57.72232222134403,57.72232222134403,0,0,0,1978.2311498479928,1528.0810312933386 M1978.2311498479928,1528.0810312933386 A57.72232222113069,57.72232222113069,0,0,0,1965.7185232472495,1509.3545622165705 M1965.7185232472495,1509.3545622165705" close="False" data-weight="1.0" stroke-width="7" fill="none" stroke="#7cd3eb" />
<path d="M2000.625,703.125 A54.31980515339285,54.31980515339285,0,0,1,1979.837710518496,698.9901510378276 M1979.837710518496,698.9901510378276 A54.31980515339619,54.31980515339619,0,0,1,1962.2150974233027,687.2150974233027 M1962.2150974233027,687.2150974233027" close="False" data-weight="1.0" stroke-width="7" fill="none" stroke="#7cd3eb" />
<path d="M1844.0349025766973,1394.0349025766973 C1836.0799512883486,1386.0799512883486,1820.1700487116514,1370.1700487116514,1812.2150974233027,1362.2150974233027" close="False" data-weight="0.0" stroke-width="7" fill="none" stroke="#7cd3eb" />
<path d="M1769.0349025766973,1319.0349025766973 A54.3198051533949,54.3198051533949,0,0,0,1751.412289481504,1307.2598489621723 M1751.412289481504,1307.2598489621723 A54.3198051533941,54.3198051533941,0,0,0,1730.625,1303.125 M1730.625,1303.125" close="False" data-weight="1.0" stroke-width="7" fill="none" stroke="#7cd3eb" />
<path d="M1775.625,778.125 C1764.375,778.125,1741.875,778.125,1730.625,778.125" close="False" data-weight="0.0" stroke-width="7" fill="none" stroke="#7cd3eb" />
<path d="M1700.625,1303.125 C1689.375,1303.125,1666.875,1303.125,1655.625,1303.125" close="False" data-weight="0.0" stroke-width="7" fill="none" stroke="#7cd3eb" />
<path d="M1700.625,778.125 C1689.375,778.125,1666.875,778.125,1655.625,778.125" close="False" data-weight="0.0" stroke-width="7" fill="none" stroke="#7cd3eb" />
<path d="M1625.625,1303.125 C1614.375,1303.125,1591.875,1303.125,1580.625,1303.125" close="False" data-weight="0.0" stroke-width="7" fill="none" stroke="#7cd3eb" />
<path d="M1625.625,778.125 A54.31980515339285,54.31980515339285,0,0,1,1604.837710518496,773.9901510378276 M1604.837710518496,773.9901510378276 A54.31980515339619,54.31980515339619,0,0,1,1587.2150974233027,762.2150974233027 M1587.2150974233027,762.2150974233027" close="False" data-weight="1.0" stroke-width="7" fill="none" stroke="#7cd3eb" />
<path d="M1603.125,305.625 A54.3198051533966,54.3198051533966,0,0,0,1607.259848962172,326.4122894815041 M1607.259848962172,326.4122894815041 A54.31980515339265,54.31980515339265,0,0,0,1619.0349025766973,344.03490257669733 M1619.0349025766973,344.03490257669733" close="False" data-weight="1.0" stroke-width="7" fill="none" stroke="#7cd3eb" />
<path d="M1603.125,230.625 C1603.125,241.875,1603.125,264.375,1603.125,275.625" close="False" data-weight="0.0" stroke-width="7" fill="none" stroke="#7cd3eb" />
<path d="M1528.125,605.625 C1528.125,616.875,1528.125,639.375,1528.125,650.625" close="False" data-weight="0.0" stroke-width="7" fill="none" stroke="#7cd3eb" />
<path d="M1550.625,178.125 A54.31980515339286,54.31980515339286,0,0,1,1529.837710518496,173.99015103782762 M1529.837710518496,173.99015103782762 A54.319805153396246,54.319805153396246,0,0,1,1512.2150974233027,162.21509742330267 M1512.2150974233027,162.21509742330267" close="False" data-weight="1.0" stroke-width="7" fill="none" stroke="#7cd3eb" />
<path d="M1475.1704076850485,1307.625 C1464.1477038425242,1307.625,1442.1022961574758,1307.625,1431.0795923149515,1307.625" close="False" data-weight="0.0" stroke-width="7" fill="none" stroke="#7cd3eb" />
<path d="M1315.5314767527802,1246.8954377834593 A48.72232222128834,48.72232222128834,0,0,0,1299.7248178153918,1236.3337659446202 M1299.7248178153918,1236.3337659446202 A48.72232222128764,48.72232222128764,0,0,0,1281.0795923149515,1232.625 M1281.0795923149515,1232.625" close="False" data-weight="1.0" stroke-width="7" fill="none" stroke="#7cd3eb" />
<path d="M1250.1704076850485,1232.625 C1239.1477038425242,1232.625,1217.1022961574758,1232.625,1206.0795923149515,1232.625" close="False" data-weight="0.0" stroke-width="7" fill="none" stroke="#7cd3eb" />
<path d="M1175.1704076850485,1232.625 C1164.1477038425242,1232.625,1142.1022961574758,1232.625,1131.0795923149515,1232.625" close="False" data-weight="0.0" stroke-width="7" fill="none" stroke="#7cd3eb" />
<path d="M1082.625,1356.0795923149515 A57.72232222128923,57.72232222128923,0,0,1,1078.2311498479814,1378.1689687066778 M1078.2311498479814,1378.1689687066778 A57.722322221287286,57.722322221287286,0,0,1,1065.7185232472195,1396.8954377834593 M1065.7185232472195,1396.8954377834593" close="False" data-weight="1.0" stroke-width="7" fill="none" stroke="#7cd3eb" />
<path d="M1082.625,1281.0795923149515 C1082.625,1292.1022961574758,1082.625,1314.1477038425242,1082.625,1325.1704076850485" close="False" data-weight="0.0" stroke-width="7" fill="none" stroke="#7cd3eb" />
<path d="M1021.8954377834593,1440.7185232472195 C1014.1012091493956,1448.5127518812833,998.5127518812683,1464.1012091494106,990.7185232472046,1471.8954377834743" close="False" data-weight="0.0" stroke-width="7" fill="none" stroke="#7cd3eb" />
<path d="M932.625,1431.0795923149515 C932.625,1442.1022961574758,932.625,1464.1477038425242,932.625,1475.1704076850485" close="False" data-weight="0.0" stroke-width="7" fill="none" stroke="#7cd3eb" />
<path d="M932.625,1356.0795923149515 C932.625,1367.1022961574758,932.625,1389.1477038425242,932.625,1400.1704076850485" close="False" data-weight="0.0" stroke-width="7" fill="none" stroke="#7cd3eb" />
<path d="M932.625,1281.0795923149515 C932.625,1292.1022961574758,932.625,1314.1477038425242,932.625,1325.1704076850485" close="False" data-weight="0.0" stroke-width="7" fill="none" stroke="#7cd3eb" />
<path d="M923.625,1131.0795923149515 C923.625,1142.1022961574758,923.625,1164.1477038425242,923.625,1175.1704076850485" close="False" data-weight="0.0" stroke-width="7" fill="none" stroke="#7cd3eb" />
<path d="M923.625,1056.0795923149515 C923.625,1067.1022961574758,923.625,1089.1477038425242,923.625,1100.1704076850485" close="False" data-weight="0.0" stroke-width="7" fill="none" stroke="#7cd3eb" />
<path d="M923.625,981.0795923149514 C923.625,992.1022961574756,923.625,1014.1477038425243,923.625,1025.1704076850485" close="False" data-weight="0.0" stroke-width="7" fill="none" stroke="#7cd3eb" />
<path d="M923.625,950.1704076850486 A48.72232222128889,48.72232222128889,0,0,0,919.9162340553798,931.5251821846081 M919.9162340553798,931.5251821846081 A48.72232222128802,48.72232222128802,0,0,0,909.3545622165407,915.7185232472195 M909.3545622165407,915.7185232472195" close="False" data-weight="1.0" stroke-width="7" fill="none" stroke="#7cd3eb" />
<path d="M848.625,756.0795923149514 C848.625,767.1022961574756,848.625,789.1477038425244,848.625,800.1704076850486" close="False" data-weight="0.0" stroke-width="7" fill="none" stroke="#7cd3eb" />
<path d="M848.625,650.1704076850486 A48.72232222128889,48.72232222128889,0,0,0,844.9162340553798,631.5251821846081 M844.9162340553798,631.5251821846081 A48.72232222128802,48.72232222128802,0,0,0,834.3545622165407,615.7185232472195 M834.3545622165407,615.7185232472195" close="False" data-weight="1.0" stroke-width="7" fill="none" stroke="#7cd3eb" />
<path d="M848.625,456.0795923149514 A48.7223222212873,48.7223222212873,0,0,1,844.9162340553797,474.7248178153919 M844.9162340553797,474.7248178153919 A48.72232222129035,48.72232222129035,0,0,1,834.3545622165407,490.5314767527804 M834.3545622165407,490.5314767527804" close="False" data-weight="1.0" stroke-width="7" fill="none" stroke="#7cd3eb" />
<path d="M2371.8954377834593,765.7185232472195 L2415.7185232472198,721.8954377834591" close="False" data-weight="2.060660171779821" stroke-width="7" fill="none" stroke="#7cd3eb" />
<path d="M2375.625,703.125 L2405.625,703.125" close="False" data-weight="1.75" stroke-width="7" fill="none" stroke="#7cd3eb" />
<path d="M2282.625,1250.1704076850485 L2282.625,1281.0795923149515" close="False" data-weight="1.75" stroke-width="7" fill="none" stroke="#7cd3eb" />
<path d="M2282.625,1175.1704076850485 L2282.625,1206.0795923149515" close="False" data-weight="1.75" stroke-width="7" fill="none" stroke="#7cd3eb" />
<path d="M2282.625,1100.1704076850485 L2282.625,1131.0795923149515" close="False" data-weight="1.75" stroke-width="7" fill="none" stroke="#7cd3eb" />
<path d="M2282.625,1025.1704076850485 L2282.625,1056.0795923149515" close="False" data-weight="1.75" stroke-width="7" fill="none" stroke="#7cd3eb" />
<path d="M2282.625,950.1704076850486 L2282.625,981.0795923149514" close="False" data-weight="1.75" stroke-width="7" fill="none" stroke="#7cd3eb" />
<path d="M2282.625,875.1704076850486 L2282.625,906.0795923149514" close="False" data-weight="1.75" stroke-width="7" fill="none" stroke="#7cd3eb" />
<path d="M2296.8954377834593,840.7185232472195 L2340.7185232472198,796.8954377834591" close="False" data-weight="2.060660171779821" stroke-width="7" fill="none" stroke="#7cd3eb" />
<path d="M2300.625,703.125 L2330.625,703.125" close="False" data-weight="1.75" stroke-width="7" fill="none" stroke="#7cd3eb" />
<path d="M2198.625,1700.1704076850485 L2198.625,1731.0795923149515" close="False" data-weight="1.75" stroke-width="7" fill="none" stroke="#7cd3eb" />
<path d="M2198.625,1625.1704076850485 L2198.625,1656.0795923149515" close="False" data-weight="1.75" stroke-width="7" fill="none" stroke="#7cd3eb" />
<path d="M2198.625,1550.1704076850485 L2198.625,1581.0795923149515" close="False" data-weight="1.75" stroke-width="7" fill="none" stroke="#7cd3eb" />
<path d="M2198.625,1475.1704076850485 L2198.625,1506.0795923149515" close="False" data-weight="1.75" stroke-width="7" fill="none" stroke="#7cd3eb" />
<path d="M2198.625,1400.1704076850485 L2198.625,1431.0795923149515" close="False" data-weight="1.75" stroke-width="7" fill="none" stroke="#7cd3eb" />
<path d="M2221.8954377834593,1365.7185232472198 L2265.7185232472198,1321.8954377834593" close="False" data-weight="2.060660171779821" stroke-width="7" fill="none" stroke="#7cd3eb" />
<path d="M2225.625,703.125 L2255.625,703.125" close="False" data-weight="1.75" stroke-width="7" fill="none" stroke="#7cd3eb" />
<path d="M2150.1704076850488,1748.625 L2181.0795923149512,1748.625" close="False" data-weight="1.75" stroke-width="7" fill="none" stroke="#7cd3eb" />
<path d="M2150.625,703.125 L2180.625,703.125" close="False" data-weight="1.75" stroke-width="7" fill="none" stroke="#7cd3eb" />
<path d="M2075.1704076850488,1748.625 L2106.0795923149512,1748.625" close="False" data-weight="1.75" stroke-width="7" fill="none" stroke="#7cd3eb" />
<path d="M2075.625,703.125 L2105.625,703.125" close="False" data-weight="1.75" stroke-width="7" fill="none" stroke="#7cd3eb" />
<path d="M1996.8954377834593,1690.5314767527802 L2040.7185232472198,1734.3545622165407" close="False" data-weight="2.060660171779821" stroke-width="7" fill="none" stroke="#7cd3eb" />
<path d="M1982.625,1625.1704076850485 L1982.625,1656.0795923149515" close="False" data-weight="1.75" stroke-width="7" fill="none" stroke="#7cd3eb" />
<path d="M1982.625,1550.1704076850485 L1982.625,1581.0795923149515" close="False" data-weight="1.75" stroke-width="7" fill="none" stroke="#7cd3eb" />
<path d="M2000.625,703.125 L2030.625,703.125" close="False" data-weight="1.75" stroke-width="7" fill="none" stroke="#7cd3eb" />
<path d="M1921.8954377834295,1465.5314767527505 L1965.7185232472495,1509.3545622165705" close="False" data-weight="2.060660171779821" stroke-width="7" fill="none" stroke="#7cd3eb" />
<path d="M1919.0349025766973,644.0349025766973 L1962.2150974233027,687.2150974233027" close="False" data-weight="2.060660171779821" stroke-width="7" fill="none" stroke="#7cd3eb" />
<path d="M1844.0349025766973,1394.0349025766973 L1887.2150974233027,1437.2150974233027" close="False" data-weight="2.060660171779821" stroke-width="7" fill="none" stroke="#7cd3eb" />
<path d="M1844.0349025766973,569.0349025766973 L1887.2150974233027,612.2150974233027" close="False" data-weight="2.060660171779821" stroke-width="7" fill="none" stroke="#7cd3eb" />
<path d="M1769.0349025766973,1319.0349025766973 L1812.2150974233027,1362.2150974233027" close="False" data-weight="2.060660171779821" stroke-width="7" fill="none" stroke="#7cd3eb" />
<path d="M1775.625,778.125 L1805.625,778.125" close="False" data-weight="1.75" stroke-width="7" fill="none" stroke="#7cd3eb" />
<path d="M1769.0349025766973,719.0349025766973 L1812.2150974233027,762.2150974233027" close="False" data-weight="2.060660171779821" stroke-width="7" fill="none" stroke="#7cd3eb" />
<path d="M1753.125,650.625 L1753.125,680.625" close="False" data-weight="1.75" stroke-width="7" fill="none" stroke="#7cd3eb" />
<path d="M1769.0349025766973,612.2150974233027 L1812.2150974233027,569.0349025766973" close="False" data-weight="2.060660171779821" stroke-width="7" fill="none" stroke="#7cd3eb" />
<path d="M1700.625,1303.125 L1730.625,1303.125" close="False" data-weight="1.75" stroke-width="7" fill="none" stroke="#7cd3eb" />
<path d="M1700.625,778.125 L1730.625,778.125" close="False" data-weight="1.75" stroke-width="7" fill="none" stroke="#7cd3eb" />
<path d="M1625.625,1303.125 L1655.625,1303.125" close="False" data-weight="1.75" stroke-width="7" fill="none" stroke="#7cd3eb" />
<path d="M1625.625,778.125 L1655.625,778.125" close="False" data-weight="1.75" stroke-width="7" fill="none" stroke="#7cd3eb" />
<path d="M1625.625,403.125 L1655.625,403.125" close="False" data-weight="1.75" stroke-width="7" fill="none" stroke="#7cd3eb" />
<path d="M1619.0349025766973,344.03490257669733 L1662.2150974233027,387.21509742330267" close="False" data-weight="2.060660171779821" stroke-width="7" fill="none" stroke="#7cd3eb" />
<path d="M1603.125,275.625 L1603.125,305.625" close="False" data-weight="1.75" stroke-width="7" fill="none" stroke="#7cd3eb" />
<path d="M1603.125,200.625 L1603.125,230.625" close="False" data-weight="1.75" stroke-width="7" fill="none" stroke="#7cd3eb" />
<path d="M1550.625,1303.125 L1580.625,1303.125" close="False" data-weight="1.75" stroke-width="7" fill="none" stroke="#7cd3eb" />
<path d="M1544.0349025766973,719.0349025766973 L1587.2150974233027,762.2150974233027" close="False" data-weight="2.060660171779821" stroke-width="7" fill="none" stroke="#7cd3eb" />
<path d="M1528.125,650.625 L1528.125,680.625" close="False" data-weight="1.75" stroke-width="7" fill="none" stroke="#7cd3eb" />
<path d="M1528.125,575.625 L1528.125,605.625" close="False" data-weight="1.75" stroke-width="7" fill="none" stroke="#7cd3eb" />
<path d="M1528.125,500.625 L1528.125,530.625" close="False" data-weight="1.75" stroke-width="7" fill="none" stroke="#7cd3eb" />
<path d="M1528.125,425.625 L1528.125,455.625" close="False" data-weight="1.75" stroke-width="7" fill="none" stroke="#7cd3eb" />
<path d="M1550.625,403.125 L1580.625,403.125" close="False" data-weight="1.75" stroke-width="7" fill="none" stroke="#7cd3eb" />
<path d="M1550.625,178.125 L1580.625,178.125" close="False" data-weight="1.75" stroke-width="7" fill="none" stroke="#7cd3eb" />
<path d="M1475.1704076850485,1307.625 L1506.0795923149515,1307.625" close="False" data-weight="1.75" stroke-width="7" fill="none" stroke="#7cd3eb" />
<path d="M1469.0349025766973,119.03490257669732 L1512.2150974233027,162.2150974233027" close="False" data-weight="2.060660171779821" stroke-width="7" fill="none" stroke="#7cd3eb" />
<path d="M1400.1704076850485,1307.625 L1431.0795923149515,1307.625" close="False" data-weight="1.75" stroke-width="7" fill="none" stroke="#7cd3eb" />
<path d="M1315.5314767527802,1246.8954377834593 L1359.3545622165407,1290.7185232472198" close="False" data-weight="2.060660171779821" stroke-width="7" fill="none" stroke="#7cd3eb" />
<path d="M1250.1704076850485,1232.625 L1281.0795923149515,1232.625" close="False" data-weight="1.75" stroke-width="7" fill="none" stroke="#7cd3eb" />
<path d="M1175.1704076850485,1232.625 L1206.0795923149515,1232.625" close="False" data-weight="1.75" stroke-width="7" fill="none" stroke="#7cd3eb" />
<path d="M1082.625,1325.1704076850485 L1082.625,1356.0795923149515" close="False" data-weight="1.75" stroke-width="7" fill="none" stroke="#7cd3eb" />
<path d="M1082.625,1250.1704076850485 L1082.625,1281.0795923149515" close="False" data-weight="1.75" stroke-width="7" fill="none" stroke="#7cd3eb" />
<path d="M1100.1704076850485,1232.625 L1131.0795923149515,1232.625" close="False" data-weight="1.75" stroke-width="7" fill="none" stroke="#7cd3eb" />
<path d="M1021.8954377834743,1440.7185232472048 L1065.7185232472195,1396.8954377834596" close="False" data-weight="2.060660171779821" stroke-width="7" fill="none" stroke="#7cd3eb" />
<path d="M946.8954377834743,1515.7185232472048 L990.7185232472044,1471.8954377834746" close="False" data-weight="2.060660171779821" stroke-width="7" fill="none" stroke="#7cd3eb" />
<path d="M932.625,1475.1704076850485 L932.625,1506.0795923149515" close="False" data-weight="1.75" stroke-width="7" fill="none" stroke="#7cd3eb" />
<path d="M932.625,1400.1704076850485 L932.625,1431.0795923149515" close="False" data-weight="1.75" stroke-width="7" fill="none" stroke="#7cd3eb" />
<path d="M932.625,1325.1704076850485 L932.625,1356.0795923149515" close="False" data-weight="1.75" stroke-width="7" fill="none" stroke="#7cd3eb" />
<path d="M932.625,1250.1704076850485 L932.625,1281.0795923149515" close="False" data-weight="1.75" stroke-width="7" fill="none" stroke="#7cd3eb" />
<path d="M923.625,1175.1704076850485 L923.625,1206.0795923149515" close="False" data-weight="1.75" stroke-width="7" fill="none" stroke="#7cd3eb" />
<path d="M923.625,1100.1704076850485 L923.625,1131.0795923149515" close="False" data-weight="1.75" stroke-width="7" fill="none" stroke="#7cd3eb" />
<path d="M923.625,1025.1704076850485 L923.625,1056.0795923149515" close="False" data-weight="1.75" stroke-width="7" fill="none" stroke="#7cd3eb" />
<path d="M923.625,950.1704076850486 L923.625,981.0795923149514" close="False" data-weight="1.75" stroke-width="7" fill="none" stroke="#7cd3eb" />
<path d="M865.5314767527805,871.8954377834593 L909.3545622165407,915.7185232472195" close="False" data-weight="2.060660171779821" stroke-width="7" fill="none" stroke="#7cd3eb" />
<path d="M848.625,800.1704076850486 L848.625,831.0795923149514" close="False" data-weight="1.75" stroke-width="7" fill="none" stroke="#7cd3eb" />
<path d="M848.625,725.1704076850486 L848.625,756.0795923149514" close="False" data-weight="1.75" stroke-width="7" fill="none" stroke="#7cd3eb" />
<path d="M848.625,650.1704076850486 L848.625,681.0795923149514" close="False" data-weight="1.75" stroke-width="7" fill="none" stroke="#7cd3eb" />
<path d="M848.625,425.1704076850486 L848.625,456.0795923149514" close="False" data-weight="1.75" stroke-width="7" fill="none" stroke="#7cd3eb" />
<path d="M790.5314767527805,571.8954377834593 L834.3545622165369,615.7185232472158" close="False" data-weight="2.060660171779821" stroke-width="7" fill="none" stroke="#7cd3eb" />
<path d="M790.5314767527805,534.3545622165407 L834.3545622165369,490.53147675278416" close="False" data-weight="2.060660171779821" stroke-width="7" fill="none" stroke="#7cd3eb" />
<path d="M1540.5314767527802,2371.8954377834593 C1532.7372481187203,2364.1012091493994,1517.1487908506006,2348.5127518812797,1509.3545622165407,2340.7185232472198" close="False" data-weight="0.0" stroke-width="7" fill="none" stroke="#8f0f12" />
<path d="M1448.625,2256.0795923149512 A57.72232222129219,57.72232222129219,0,0,0,1453.0188501520183,2278.168968706678 M1453.0188501520183,2278.168968706678 A57.72232222128471,57.72232222128471,0,0,0,1465.5314767527802,2296.8954377834593 M1465.5314767527802,2296.8954377834593" close="False" data-weight="1.0" stroke-width="7" fill="none" stroke="#8f0f12" />
<path d="M1475.1704076850485,1298.625 C1464.1477038425242,1298.625,1442.1022961574758,1298.625,1431.0795923149515,1298.625" close="False" data-weight="0.0" stroke-width="7" fill="none" stroke="#8f0f12" />
<path d="M1400.625,2203.125 C1389.375,2203.125,1366.875,2203.125,1355.625,2203.125" close="False" data-weight="0.0" stroke-width="7" fill="none" stroke="#8f0f12" />
<path d="M1325.625,2203.125 C1314.375,2203.125,1291.875,2203.125,1280.625,2203.125" close="False" data-weight="0.0" stroke-width="7" fill="none" stroke="#8f0f12" />
<path d="M1321.8954377834593,1240.5314767527802 A57.722322221287286,57.722322221287286,0,0,0,1303.1689687066778,1228.0188501520186 M1303.1689687066778,1228.0188501520186 A57.722322221289005,57.722322221289005,0,0,0,1281.0795923149515,1223.625 M1281.0795923149515,1223.625" close="False" data-weight="1.0" stroke-width="7" fill="none" stroke="#8f0f12" />
<path d="M1250.1704076850485,1223.625 C1239.1477038425242,1223.625,1217.1022961574758,1223.625,1206.0795923149515,1223.625" close="False" data-weight="0.0" stroke-width="7" fill="none" stroke="#8f0f12" />
<path d="M1175.625,2203.125 C1164.375,2203.125,1141.875,2203.125,1130.625,2203.125" close="False" data-weight="0.0" stroke-width="7" fill="none" stroke="#8f0f12" />
<path d="M1175.1704076850485,1223.625 C1164.1477038425242,1223.625,1142.1022961574758,1223.625,1131.0795923149515,1223.625" close="False" data-weight="0.0" stroke-width="7" fill="none" stroke="#8f0f12" />
<path d="M1100.625,2203.125 A54.31980515339728,54.31980515339728,0,0,0,1079.837710518496,2207.2598489621723 M1079.837710518496,2207.2598489621723 A54.319805153387826,54.319805153387826,0,0,0,1062.2150974233027,2219.0349025766973 M1062.2150974233027,2219.0349025766973" close="False" data-weight="1.0" stroke-width="7" fill="none" stroke="#8f0f12" />
<path d="M1025.1704076850485,1232.625 C1014.1477038425243,1232.625,992.1022961574756,1232.625,981.0795923149514,1232.625" close="False" data-weight="0.0" stroke-width="7" fill="none" stroke="#8f0f12" />
<path d="M944.0349025766973,2219.0349025766973 C936.0799512883486,2211.0799512883486,920.1700487116514,2195.1700487116514,912.2150974233027,2187.2150974233027" close="False" data-weight="0.0" stroke-width="7" fill="none" stroke="#8f0f12" />
<path d="M923.625,1431.0795923149515 C923.625,1442.1022961574758,923.625,1464.1477038425242,923.625,1475.1704076850485" close="False" data-weight="0.0" stroke-width="7" fill="none" stroke="#8f0f12" />
<path d="M923.625,1356.0795923149515 C923.625,1367.1022961574758,923.625,1389.1477038425242,923.625,1400.1704076850485" close="False" data-weight="0.0" stroke-width="7" fill="none" stroke="#8f0f12" />
<path d="M923.625,1281.0795923149515 C923.625,1292.1022961574758,923.625,1314.1477038425242,923.625,1325.1704076850485" close="False" data-weight="0.0" stroke-width="7" fill="none" stroke="#8f0f12" />
<path d="M869.0349025766973,2144.0349025766973 C861.0799512883486,2136.0799512883486,845.1700487116514,2120.1700487116514,837.2150974233027,2112.2150974233027" close="False" data-weight="0.0" stroke-width="7" fill="none" stroke="#8f0f12" />
<path d="M865.5314767527657,1584.3545622165552 C857.6168081205966,1592.2692308487244,845.1297660554718,1611.120233944528,837.2150974233027,1619.0349025766973" close="False" data-weight="0.0" stroke-width="7" fill="none" stroke="#8f0f12" />
<path d="M794.0349025766973,2069.0349025766973 C786.0799512883486,2061.0799512883486,770.1700487116514,2045.1700487116514,762.2150974233027,2037.2150974233027" close="False" data-weight="0.0" stroke-width="7" fill="none" stroke="#8f0f12" />
<path d="M794.0349025766973,1662.2150974233027 C786.0799512883486,1670.1700487116514,770.1700487116514,1686.0799512883486,762.2150974233027,1694.0349025766973" close="False" data-weight="0.0" stroke-width="7" fill="none" stroke="#8f0f12" />
<path d="M719.0349025766973,1994.0349025766973 C711.0799512883486,1986.0799512883486,695.1700487116514,1970.1700487116514,687.2150974233027,1962.2150974233027" close="False" data-weight="0.0" stroke-width="7" fill="none" stroke="#8f0f12" />
<path d="M719.0349025766973,1737.2150974233027 C711.0799512883486,1745.1700487116514,695.1700487116514,1761.0799512883486,687.2150974233027,1769.0349025766973" close="False" data-weight="0.0" stroke-width="7" fill="none" stroke="#8f0f12" />
<path d="M644.0349025766973,1919.0349025766973 A34.2804342555045,34.2804342555045,0,0,0,626.572785742632,1909.6711181778999 M626.572785742632,1909.6711181778999 A103.64933488289944,103.64933488289944,0,0,0,606.0795923149514,1907.625 M606.0795923149514,1907.625" close="False" data-weight="1.0" stroke-width="7" fill="none" stroke="#8f0f12" />
<path d="M644.0349025766973,1812.2150974233027 C636.0799512883486,1820.1700487116514,620.1700487116514,1836.0799512883486,612.2150974233027,1844.0349025766973" close="False" data-weight="0.0" stroke-width="7" fill="none" stroke="#8f0f12" />
<path d="M1540.5314767527802,2371.8954377834593 L1584.3545622165407,2415.7185232472198" close="False" data-weight="2.060660171779821" stroke-width="7" fill="none" stroke="#8f0f12" />
<path d="M1465.5314767527802,2296.8954377834593 L1509.3545622165407,2340.7185232472198" close="False" data-weight="2.060660171779821" stroke-width="7" fill="none" stroke="#8f0f12" />
<path d="M1448.625,2225.1704076850488 L1448.625,2256.0795923149512" close="False" data-weight="1.75" stroke-width="7" fill="none" stroke="#8f0f12" />
<path d="M1475.1704076850485,1298.625 L1506.0795923149515,1298.625" close="False" data-weight="1.75" stroke-width="7" fill="none" stroke="#8f0f12" />
<path d="M1400.625,2203.125 L1430.625,2203.125" close="False" data-weight="1.75" stroke-width="7" fill="none" stroke="#8f0f12" />
<path d="M1400.1704076850485,1298.625 L1431.0795923149515,1298.625" close="False" data-weight="1.75" stroke-width="7" fill="none" stroke="#8f0f12" />
<path d="M1325.625,2203.125 L1355.625,2203.125" close="False" data-weight="1.75" stroke-width="7" fill="none" stroke="#8f0f12" />
<path d="M1321.8954377834593,1240.5314767527802 L1365.7185232472198,1284.3545622165407" close="False" data-weight="2.060660171779821" stroke-width="7" fill="none" stroke="#8f0f12" />
<path d="M1250.625,2203.125 L1280.625,2203.125" close="False" data-weight="1.75" stroke-width="7" fill="none" stroke="#8f0f12" />
<path d="M1250.1704076850485,1223.625 L1281.0795923149515,1223.625" close="False" data-weight="1.75" stroke-width="7" fill="none" stroke="#8f0f12" />
<path d="M1175.625,2203.125 L1205.625,2203.125" close="False" data-weight="1.75" stroke-width="7" fill="none" stroke="#8f0f12" />
<path d="M1175.1704076850485,1223.625 L1206.0795923149515,1223.625" close="False" data-weight="1.75" stroke-width="7" fill="none" stroke="#8f0f12" />
<path d="M1100.625,2203.125 L1130.625,2203.125" close="False" data-weight="1.75" stroke-width="7" fill="none" stroke="#8f0f12" />
<path d="M1100.1704076850485,1223.625 L1131.0795923149515,1223.625" close="False" data-weight="1.75" stroke-width="7" fill="none" stroke="#8f0f12" />
<path d="M1019.0349025766973,2262.2150974233027 L1062.2150974233027,2219.0349025766973" close="False" data-weight="2.060660171779821" stroke-width="7" fill="none" stroke="#8f0f12" />
<path d="M1025.1704076850485,1232.625 L1056.0795923149515,1232.625" close="False" data-weight="1.75" stroke-width="7" fill="none" stroke="#8f0f12" />
<path d="M944.0349025766973,2219.0349025766973 L987.2150974233027,2262.2150974233027" close="False" data-weight="2.060660171779821" stroke-width="7" fill="none" stroke="#8f0f12" />
<path d="M923.625,1475.1704076850485 L923.625,1506.0795923149515" close="False" data-weight="1.75" stroke-width="7" fill="none" stroke="#8f0f12" />
<path d="M923.625,1400.1704076850485 L923.625,1431.0795923149515" close="False" data-weight="1.75" stroke-width="7" fill="none" stroke="#8f0f12" />
<path d="M923.625,1325.1704076850485 L923.625,1356.0795923149515" close="False" data-weight="1.75" stroke-width="7" fill="none" stroke="#8f0f12" />
<path d="M923.625,1250.1704076850485 L923.625,1281.0795923149515" close="False" data-weight="1.75" stroke-width="7" fill="none" stroke="#8f0f12" />
<path d="M950.1704076850486,1232.625 L981.0795923149514,1232.625" close="False" data-weight="1.75" stroke-width="7" fill="none" stroke="#8f0f12" />
<path d="M869.0349025766973,2144.0349025766973 L912.2150974233027,2187.2150974233027" close="False" data-weight="2.060660171779821" stroke-width="7" fill="none" stroke="#8f0f12" />
<path d="M865.5314767527655,1584.3545622165555 L909.3545622165558,1540.5314767527652" close="False" data-weight="2.060660171779821" stroke-width="7" fill="none" stroke="#8f0f12" />
<path d="M794.0349025766973,2069.0349025766973 L837.2150974233027,2112.2150974233027" close="False" data-weight="2.060660171779821" stroke-width="7" fill="none" stroke="#8f0f12" />
<path d="M794.0349025766973,1662.2150974233027 L837.2150974233027,1619.0349025766973" close="False" data-weight="2.060660171779821" stroke-width="7" fill="none" stroke="#8f0f12" />
<path d="M719.0349025766973,1994.0349025766973 L762.2150974233027,2037.2150974233027" close="False" data-weight="2.060660171779821" stroke-width="7" fill="none" stroke="#8f0f12" />
<path d="M719.0349025766973,1737.2150974233027 L762.2150974233027,1694.0349025766973" close="False" data-weight="2.060660171779821" stroke-width="7" fill="none" stroke="#8f0f12" />
<path d="M644.0349025766973,1919.0349025766973 L687.2150974233027,1962.2150974233027" close="False" data-weight="2.060660171779821" stroke-width="7" fill="none" stroke="#8f0f12" />
<path d="M644.0349025766973,1812.2150974233027 L687.2150974233027,1769.0349025766973" close="False" data-weight="2.060660171779821" stroke-width="7" fill="none" stroke="#8f0f12" />
<path d="M575.1704076850486,1907.625 L606.0795923149514,1907.625" close="False" data-weight="1.75" stroke-width="7" fill="none" stroke="#8f0f12" />
<path d="M569.0349025766973,1887.2150974233027 L612.2150974233027,1844.0349025766973" close="False" data-weight="2.060660171779821" stroke-width="7" fill="none" stroke="#8f0f12" />
<path d="M1073.625,1356.0795923149515 A48.72232222128878,48.72232222128878,0,0,1,1069.9162340553798,1374.7248178153918 M1069.9162340553798,1374.7248178153918 A48.72232222128769,48.72232222128769,0,0,1,1059.3545622165407,1390.5314767527805 M1059.3545622165407,1390.5314767527805" close="False" data-weight="1.0" stroke-width="7" fill="none" stroke="#90ea66" />
<path d="M1073.625,1281.0795923149515 C1073.625,1292.1022961574758,1073.625,1314.1477038425242,1073.625,1325.1704076850485" close="False" data-weight="0.0" stroke-width="7" fill="none" stroke="#90ea66" />
<path d="M1015.5314767527805,1434.3545622165407 C1007.7372481187243,1442.148790850597,992.1487908506118,1457.7372481187092,984.3545622165556,1465.5314767527655" close="False" data-weight="0.0" stroke-width="7" fill="none" stroke="#90ea66" />
<path d="M1025.1704076850485,1223.625 C1014.1477038425243,1223.625,992.1022961574756,1223.625,981.0795923149514,1223.625" close="False" data-weight="0.0" stroke-width="7" fill="none" stroke="#90ea66" />
<path d="M932.625,1131.0795923149515 C932.625,1142.1022961574758,932.625,1164.1477038425242,932.625,1175.1704076850485" close="False" data-weight="0.0" stroke-width="7" fill="none" stroke="#90ea66" />
<path d="M932.625,1056.0795923149515 C932.625,1067.1022961574758,932.625,1089.1477038425242,932.625,1100.1704076850485" close="False" data-weight="0.0" stroke-width="7" fill="none" stroke="#90ea66" />
<path d="M932.625,981.0795923149514 C932.625,992.1022961574756,932.625,1014.1477038425243,932.625,1025.1704076850485" close="False" data-weight="0.0" stroke-width="7" fill="none" stroke="#90ea66" />
<path d="M932.625,950.1704076850486 A57.72232222128764,57.72232222128764,0,0,0,928.2311498479813,928.0810312933223 M928.2311498479813,928.0810312933223 A57.72232222128921,57.72232222128921,0,0,0,915.7185232472195,909.3545622165407 M915.7185232472195,909.3545622165407" close="False" data-weight="1.0" stroke-width="7" fill="none" stroke="#90ea66" />
<path d="M853.125,1805.625 C853.125,1816.875,853.125,1839.375,853.125,1850.625" close="False" data-weight="0.0" stroke-width="7" fill="none" stroke="#90ea66" />
<path d="M853.125,1730.625 C853.125,1741.875,853.125,1764.375,853.125,1775.625" close="False" data-weight="0.0" stroke-width="7" fill="none" stroke="#90ea66" />
<path d="M853.125,1655.625 C853.125,1666.875,853.125,1689.375,853.125,1700.625" close="False" data-weight="0.0" stroke-width="7" fill="none" stroke="#90ea66" />
<path d="M871.8954377834741,1590.718523247205 A103.64933488310714,103.64933488310714,0,0,0,858.8513857812864,1606.6562233267941 M858.8513857812864,1606.6562233267941 A34.280434255503906,34.280434255503906,0,0,0,853.125,1625.625 M853.125,1625.625" close="False" data-weight="1.0" stroke-width="7" fill="none" stroke="#90ea66" />
<path d="M857.625,756.0795923149514 C857.625,767.1022961574756,857.625,789.1477038425244,857.625,800.1704076850486" close="False" data-weight="0.0" stroke-width="7" fill="none" stroke="#90ea66" />
<path d="M857.625,650.1704076850486 A57.72232222128764,57.72232222128764,0,0,0,853.2311498479813,628.0810312933223 M853.2311498479813,628.0810312933223 A57.72232222128921,57.72232222128921,0,0,0,840.7185232472195,609.3545622165407 M840.7185232472195,609.3545622165407" close="False" data-weight="1.0" stroke-width="7" fill="none" stroke="#90ea66" />
<path d="M857.625,456.0795923149514 A57.722322221287754,57.722322221287754,0,0,1,853.2311498479813,478.16896870667773 M853.2311498479813,478.16896870667773 A57.72232222128817,57.72232222128817,0,0,1,840.7185232472195,496.8954377834594 M840.7185232472195,496.8954377834594" close="False" data-weight="1.0" stroke-width="7" fill="none" stroke="#90ea66" />
<path d="M800.625,1903.125 C789.375,1903.125,766.875,1903.125,755.625,1903.125" close="False" data-weight="0.0" stroke-width="7" fill="none" stroke="#90ea66" />
<path d="M725.625,1903.125 C714.375,1903.125,691.875,1903.125,680.625,1903.125" close="False" data-weight="0.0" stroke-width="7" fill="none" stroke="#90ea66" />
<path d="M650.625,1903.125 C639.4319682786924,1903.125,617.272624036259,1898.625,606.0795923149514,1898.625" close="False" data-weight="0.0" stroke-width="7" fill="none" stroke="#90ea66" />
<path d="M494.03490257669733,1844.0349025766973 C486.0799512883487,1836.0799512883486,470.1700487116513,1820.1700487116514,462.21509742330267,1812.2150974233027" close="False" data-weight="0.0" stroke-width="7" fill="none" stroke="#90ea66" />
<path d="M403.125,1730.625 A54.31980515339285,54.31980515339285,0,0,0,407.2598489621724,1751.412289481504 M407.2598489621724,1751.412289481504 A54.31980515339627,54.31980515339627,0,0,0,419.03490257669733,1769.0349025766973 M419.03490257669733,1769.0349025766973" close="False" data-weight="1.0" stroke-width="7" fill="none" stroke="#90ea66" />
<path d="M403.125,1655.625 C403.125,1666.875,403.125,1689.375,403.125,1700.625" close="False" data-weight="0.0" stroke-width="7" fill="none" stroke="#90ea66" />
<path d="M403.125,1580.625 C403.125,1591.875,403.125,1614.375,403.125,1625.625" close="False" data-weight="0.0" stroke-width="7" fill="none" stroke="#90ea66" />
<path d="M403.125,1505.625 C403.125,1516.875,403.125,1539.375,403.125,1550.625" close="False" data-weight="0.0" stroke-width="7" fill="none" stroke="#90ea66" />
<path d="M350.625,1453.125 C339.375,1453.125,316.875,1453.125,305.625,1453.125" close="False" data-weight="0.0" stroke-width="7" fill="none" stroke="#90ea66" />
<path d="M275.625,1453.125 C264.375,1453.125,241.875,1453.125,230.625,1453.125" close="False" data-weight="0.0" stroke-width="7" fill="none" stroke="#90ea66" />
<path d="M194.0349025766973,1212.2150974233027 C186.07995128834867,1220.1700487116514,170.1700487116513,1236.0799512883486,162.21509742330267,1244.0349025766973" close="False" data-weight="0.0" stroke-width="7" fill="none" stroke="#90ea66" />
<path d="M119.0349025766973,1287.2150974233027 A54.3198051533952,54.3198051533952,0,0,0,107.25984896217221,1304.837710518496 M107.25984896217221,1304.837710518496 A54.319805153393986,54.319805153393986,0,0,0,103.125,1325.625 M103.125,1325.625" close="False" data-weight="1.0" stroke-width="7" fill="none" stroke="#90ea66" />
<path d="M1073.625,1325.1704076850485 L1073.625,1356.0795923149515" close="False" data-weight="1.75" stroke-width="7" fill="none" stroke="#90ea66" />
<path d="M1073.625,1250.1704076850485 L1073.625,1281.0795923149515" close="False" data-weight="1.75" stroke-width="7" fill="none" stroke="#90ea66" />
<path d="M1015.5314767527805,1434.3545622165407 L1059.354562216541,1390.53147675278" close="False" data-weight="2.060660171779821" stroke-width="7" fill="none" stroke="#90ea66" />
<path d="M1025.1704076850485,1223.625 L1056.0795923149515,1223.625" close="False" data-weight="1.75" stroke-width="7" fill="none" stroke="#90ea66" />
<path d="M940.5314767527655,1509.3545622165555 L984.3545622165558,1465.5314767527652" close="False" data-weight="2.060660171779821" stroke-width="7" fill="none" stroke="#90ea66" />
<path d="M950.1704076850486,1223.625 L981.0795923149514,1223.625" close="False" data-weight="1.75" stroke-width="7" fill="none" stroke="#90ea66" />
<path d="M932.625,1175.1704076850485 L932.625,1206.0795923149515" close="False" data-weight="1.75" stroke-width="7" fill="none" stroke="#90ea66" />
<path d="M932.625,1100.1704076850485 L932.625,1131.0795923149515" close="False" data-weight="1.75" stroke-width="7" fill="none" stroke="#90ea66" />
<path d="M932.625,1025.1704076850485 L932.625,1056.0795923149515" close="False" data-weight="1.75" stroke-width="7" fill="none" stroke="#90ea66" />
<path d="M932.625,950.1704076850486 L932.625,981.0795923149514" close="False" data-weight="1.75" stroke-width="7" fill="none" stroke="#90ea66" />
<path d="M853.125,1850.625 L853.125,1880.625" close="False" data-weight="1.75" stroke-width="7" fill="none" stroke="#90ea66" />
<path d="M853.125,1775.625 L853.125,1805.625" close="False" data-weight="1.75" stroke-width="7" fill="none" stroke="#90ea66" />
<path d="M853.125,1700.625 L853.125,1730.625" close="False" data-weight="1.75" stroke-width="7" fill="none" stroke="#90ea66" />
<path d="M853.125,1625.625 L853.125,1655.625" close="False" data-weight="1.75" stroke-width="7" fill="none" stroke="#90ea66" />
<path d="M871.8954377834743,1590.7185232472048 L915.7185232472044,1546.8954377834746" close="False" data-weight="2.060660171779821" stroke-width="7" fill="none" stroke="#90ea66" />
<path d="M871.8954377834593,865.5314767527805 L915.7185232472195,909.3545622165407" close="False" data-weight="2.060660171779821" stroke-width="7" fill="none" stroke="#90ea66" />
<path d="M857.625,800.1704076850486 L857.625,831.0795923149514" close="False" data-weight="1.75" stroke-width="7" fill="none" stroke="#90ea66" />
<path d="M857.625,725.1704076850486 L857.625,756.0795923149514" close="False" data-weight="1.75" stroke-width="7" fill="none" stroke="#90ea66" />
<path d="M857.625,650.1704076850486 L857.625,681.0795923149514" close="False" data-weight="1.75" stroke-width="7" fill="none" stroke="#90ea66" />
<path d="M857.625,425.1704076850486 L857.625,456.0795923149514" close="False" data-weight="1.75" stroke-width="7" fill="none" stroke="#90ea66" />
<path d="M800.625,1903.125 L830.625,1903.125" close="False" data-weight="1.75" stroke-width="7" fill="none" stroke="#90ea66" />
<path d="M796.8954377834593,565.5314767527805 L840.7185232472233,609.3545622165444" close="False" data-weight="2.060660171779821" stroke-width="7" fill="none" stroke="#90ea66" />
<path d="M796.8954377834593,540.7185232472195 L840.7185232472233,496.89543778345563" close="False" data-weight="2.060660171779821" stroke-width="7" fill="none" stroke="#90ea66" />
<path d="M725.625,1903.125 L755.625,1903.125" close="False" data-weight="1.75" stroke-width="7" fill="none" stroke="#90ea66" />
<path d="M650.625,1903.125 L680.625,1903.125" close="False" data-weight="1.75" stroke-width="7" fill="none" stroke="#90ea66" />
<path d="M575.1704076850486,1898.625 L606.0795923149514,1898.625" close="False" data-weight="1.75" stroke-width="7" fill="none" stroke="#90ea66" />
<path d="M494.03490257669733,1844.0349025766973 L537.2150974233027,1887.2150974233027" close="False" data-weight="2.060660171779821" stroke-width="7" fill="none" stroke="#90ea66" />
<path d="M419.03490257669733,1769.0349025766973 L462.21509742330267,1812.2150974233027" close="False" data-weight="2.060660171779821" stroke-width="7" fill="none" stroke="#90ea66" />
<path d="M403.125,1700.625 L403.125,1730.625" close="False" data-weight="1.75" stroke-width="7" fill="none" stroke="#90ea66" />
<path d="M403.125,1625.625 L403.125,1655.625" close="False" data-weight="1.75" stroke-width="7" fill="none" stroke="#90ea66" />
<path d="M403.125,1550.625 L403.125,1580.625" close="False" data-weight="1.75" stroke-width="7" fill="none" stroke="#90ea66" />
<path d="M403.125,1475.625 L403.125,1505.625" close="False" data-weight="1.75" stroke-width="7" fill="none" stroke="#90ea66" />
<path d="M350.625,1453.125 L380.625,1453.125" close="False" data-weight="1.75" stroke-width="7" fill="none" stroke="#90ea66" />
<path d="M275.625,1453.125 L305.625,1453.125" close="False" data-weight="1.75" stroke-width="7" fill="none" stroke="#90ea66" />
<path d="M200.625,1453.125 L230.625,1453.125" close="False" data-weight="1.75" stroke-width="7" fill="none" stroke="#90ea66" />
<path d="M194.03490257669733,1212.2150974233027 L237.2150974233027,1169.0349025766973" close="False" data-weight="2.060660171779821" stroke-width="7" fill="none" stroke="#90ea66" />
<path d="M119.03490257669732,1394.0349025766973 L162.2150974233027,1437.2150974233027" close="False" data-weight="2.060660171779821" stroke-width="7" fill="none" stroke="#90ea66" />
<path d="M103.125,1325.625 L103.125,1355.625" close="False" data-weight="1.75" stroke-width="7" fill="none" stroke="#90ea66" />
<path d="M119.03490257669732,1287.2150974233027 L162.2150974233027,1244.0349025766973" close="False" data-weight="2.060660171779821" stroke-width="7" fill="none" stroke="#90ea66" />
<path d="M2144.0349025766973,1812.2150974233027 C2136.0799512883486,1820.1700487116514,2120.1700487116514,1836.0799512883486,2112.2150974233027,1844.0349025766973" close="False" data-weight="0.0" stroke-width="7" fill="none" stroke="#35618f" />
<path d="M2150.1704076850488,1757.625 C2139.1477038425246,1757.625,2117.1022961574754,1757.625,2106.0795923149512,1757.625" close="False" data-weight="0.0" stroke-width="7" fill="none" stroke="#35618f" />
<path d="M2069.0349025766973,1887.2150974233027 C2061.0799512883486,1895.1700487116514,2045.1700487116514,1911.0799512883486,2037.2150974233027,1919.0349025766973" close="False" data-weight="0.0" stroke-width="7" fill="none" stroke="#35618f" />
<path d="M2075.1704076850488,1757.625 A57.72232222129219,57.72232222129219,0,0,1,2053.081031293322,1753.2311498479817 M2053.081031293322,1753.2311498479817 A57.72232222128471,57.72232222128471,0,0,1,2034.3545622165407,1740.7185232472198 M2034.3545622165407,1740.7185232472198" close="False" data-weight="1.0" stroke-width="7" fill="none" stroke="#35618f" />
<path d="M1978.125,2180.625 C1978.125,2191.875,1978.125,2214.375,1978.125,2225.625" close="False" data-weight="0.0" stroke-width="7" fill="none" stroke="#35618f" />
<path d="M1978.125,2105.625 C1978.125,2116.875,1978.125,2139.375,1978.125,2150.625" close="False" data-weight="0.0" stroke-width="7" fill="none" stroke="#35618f" />
<path d="M1978.125,2030.625 C1978.125,2041.875,1978.125,2064.375,1978.125,2075.625" close="False" data-weight="0.0" stroke-width="7" fill="none" stroke="#35618f" />
<path d="M1994.0349025766973,1962.2150974233027 A54.3198051533949,54.3198051533949,0,0,0,1982.2598489621723,1979.837710518496 M1982.2598489621723,1979.837710518496 A54.3198051533941,54.3198051533941,0,0,0,1978.125,2000.625 M1978.125,2000.625" close="False" data-weight="1.0" stroke-width="7" fill="none" stroke="#35618f" />
<path d="M1973.625,1581.0795923149515 C1973.625,1592.1022961574758,1973.625,1614.1477038425242,1973.625,1625.1704076850485" close="False" data-weight="0.0" stroke-width="7" fill="none" stroke="#35618f" />
<path d="M1973.625,1550.1704076850485 A48.72232222123034,48.72232222123034,0,0,0,1969.9162340553682,1531.5251821845916 M1969.9162340553682,1531.5251821845916 A48.72232222144815,48.72232222144815,0,0,0,1959.3545622165107,1515.7185232471898 M1959.3545622165107,1515.7185232471898" close="False" data-weight="1.0" stroke-width="7" fill="none" stroke="#35618f" />
<path d="M1850.625,2278.125 C1839.375,2278.125,1816.875,2278.125,1805.625,2278.125" close="False" data-weight="0.0" stroke-width="7" fill="none" stroke="#35618f" />
<path d="M1775.625,2278.125 A54.31980515339728,54.31980515339728,0,0,0,1754.837710518496,2282.2598489621723 M1754.837710518496,2282.2598489621723 A54.319805153387826,54.319805153387826,0,0,0,1737.2150974233027,2294.0349025766973 M1737.2150974233027,2294.0349025766973" close="False" data-weight="1.0" stroke-width="7" fill="none" stroke="#35618f" />
<path d="M1694.0349025766973,2337.2150974233027 C1686.0799512883486,2345.1700487116514,1670.1700487116514,2361.0799512883486,1662.2150974233027,2369.0349025766973" close="False" data-weight="0.0" stroke-width="7" fill="none" stroke="#35618f" />
<path d="M1546.8954377834593,2365.5314767527802 C1539.1012091493994,2357.7372481187203,1523.5127518812797,2342.1487908506006,1515.7185232472198,2334.3545622165407" close="False" data-weight="0.0" stroke-width="7" fill="none" stroke="#35618f" />
<path d="M1457.625,2256.0795923149512 A48.72232222128832,48.72232222128832,0,0,0,1461.3337659446202,2274.724817815392 M1461.3337659446202,2274.724817815392 A48.72232222128834,48.72232222128834,0,0,0,1471.8954377834593,2290.5314767527802 M1471.8954377834593,2290.5314767527802" close="False" data-weight="1.0" stroke-width="7" fill="none" stroke="#35618f" />
<path d="M1394.0349025766973,2144.0349025766973 C1386.0799512883486,2136.0799512883486,1370.1700487116514,2120.1700487116514,1362.2150974233027,2112.2150974233027" close="False" data-weight="0.0" stroke-width="7" fill="none" stroke="#35618f" />
<path d="M1319.0349025766973,2069.0349025766973 C1311.0799512883486,2061.0799512883486,1295.1700487116514,2045.1700487116514,1287.2150974233027,2037.2150974233027" close="False" data-weight="0.0" stroke-width="7" fill="none" stroke="#35618f" />
<path d="M1244.0349025766973,1994.0349025766973 C1236.0799512883486,1986.0799512883486,1220.1700487116514,1970.1700487116514,1212.2150974233027,1962.2150974233027" close="False" data-weight="0.0" stroke-width="7" fill="none" stroke="#35618f" />
<path d="M1169.0349025766973,1919.0349025766973 A54.3198051533949,54.3198051533949,0,0,0,1151.412289481504,1907.2598489621723 M1151.412289481504,1907.2598489621723 A54.3198051533941,54.3198051533941,0,0,0,1130.625,1903.125 M1130.625,1903.125" close="False" data-weight="1.0" stroke-width="7" fill="none" stroke="#35618f" />
<path d="M1100.625,1903.125 C1089.375,1903.125,1066.875,1903.125,1055.625,1903.125" close="False" data-weight="0.0" stroke-width="7" fill="none" stroke="#35618f" />
<path d="M1025.625,1903.125 C1014.375,1903.125,991.875,1903.125,980.625,1903.125" close="False" data-weight="0.0" stroke-width="7" fill="none" stroke="#35618f" />
<path d="M950.625,1903.125 C939.375,1903.125,916.875,1903.125,905.625,1903.125" close="False" data-weight="0.0" stroke-width="7" fill="none" stroke="#35618f" />
<path d="M2144.0349025766973,1812.2150974233027 L2187.2150974233027,1769.0349025766973" close="False" data-weight="2.060660171779821" stroke-width="7" fill="none" stroke="#35618f" />
<path d="M2150.1704076850488,1757.625 L2181.0795923149512,1757.625" close="False" data-weight="1.75" stroke-width="7" fill="none" stroke="#35618f" />
<path d="M2069.0349025766973,1887.2150974233027 L2112.2150974233027,1844.0349025766973" close="False" data-weight="2.060660171779821" stroke-width="7" fill="none" stroke="#35618f" />
<path d="M2075.1704076850488,1757.625 L2106.0795923149512,1757.625" close="False" data-weight="1.75" stroke-width="7" fill="none" stroke="#35618f" />
<path d="M1978.125,2225.625 L1978.125,2255.625" close="False" data-weight="1.75" stroke-width="7" fill="none" stroke="#35618f" />
<path d="M1978.125,2150.625 L1978.125,2180.625" close="False" data-weight="1.75" stroke-width="7" fill="none" stroke="#35618f" />
<path d="M1978.125,2075.625 L1978.125,2105.625" close="False" data-weight="1.75" stroke-width="7" fill="none" stroke="#35618f" />
<path d="M1978.125,2000.625 L1978.125,2030.625" close="False" data-weight="1.75" stroke-width="7" fill="none" stroke="#35618f" />
<path d="M1994.0349025766973,1962.2150974233027 L2037.2150974233027,1919.0349025766973" close="False" data-weight="2.060660171779821" stroke-width="7" fill="none" stroke="#35618f" />
<path d="M1990.5314767527802,1696.8954377834593 L2034.3545622165407,1740.7185232472198" close="False" data-weight="2.060660171779821" stroke-width="7" fill="none" stroke="#35618f" />
<path d="M1973.625,1625.1704076850485 L1973.625,1656.0795923149515" close="False" data-weight="1.75" stroke-width="7" fill="none" stroke="#35618f" />
<path d="M1973.625,1550.1704076850485 L1973.625,1581.0795923149515" close="False" data-weight="1.75" stroke-width="7" fill="none" stroke="#35618f" />
<path d="M1925.625,2278.125 L1955.625,2278.125" close="False" data-weight="1.75" stroke-width="7" fill="none" stroke="#35618f" />
<path d="M1915.5314767528102,1471.8954377834893 L1959.3545622165107,1515.7185232471898" close="False" data-weight="2.060660171779821" stroke-width="7" fill="none" stroke="#35618f" />
<path d="M1850.625,2278.125 L1880.625,2278.125" close="False" data-weight="1.75" stroke-width="7" fill="none" stroke="#35618f" />
<path d="M1775.625,2278.125 L1805.625,2278.125" close="False" data-weight="1.75" stroke-width="7" fill="none" stroke="#35618f" />
<path d="M1694.0349025766973,2337.2150974233027 L1737.2150974233027,2294.0349025766973" close="False" data-weight="2.060660171779821" stroke-width="7" fill="none" stroke="#35618f" />
<path d="M1619.0349025766973,2412.2150974233027 L1662.2150974233027,2369.0349025766973" close="False" data-weight="2.060660171779821" stroke-width="7" fill="none" stroke="#35618f" />
<path d="M1546.8954377834593,2365.5314767527802 L1590.7185232472198,2409.3545622165407" close="False" data-weight="2.060660171779821" stroke-width="7" fill="none" stroke="#35618f" />
<path d="M1471.8954377834593,2290.5314767527802 L1515.7185232472198,2334.3545622165407" close="False" data-weight="2.060660171779821" stroke-width="7" fill="none" stroke="#35618f" />
<path d="M1457.625,2225.1704076850488 L1457.625,2256.0795923149512" close="False" data-weight="1.75" stroke-width="7" fill="none" stroke="#35618f" />
<path d="M1394.0349025766973,2144.0349025766973 L1437.2150974233027,2187.2150974233027" close="False" data-weight="2.060660171779821" stroke-width="7" fill="none" stroke="#35618f" />
<path d="M1319.0349025766973,2069.0349025766973 L1362.2150974233027,2112.2150974233027" close="False" data-weight="2.060660171779821" stroke-width="7" fill="none" stroke="#35618f" />
<path d="M1244.0349025766973,1994.0349025766973 L1287.2150974233027,2037.2150974233027" close="False" data-weight="2.060660171779821" stroke-width="7" fill="none" stroke="#35618f" />
<path d="M1169.0349025766973,1919.0349025766973 L1212.2150974233027,1962.2150974233027" close="False" data-weight="2.060660171779821" stroke-width="7" fill="none" stroke="#35618f" />
<path d="M1100.625,1903.125 L1130.625,1903.125" close="False" data-weight="1.75" stroke-width="7" fill="none" stroke="#35618f" />
<path d="M1025.625,1903.125 L1055.625,1903.125" close="False" data-weight="1.75" stroke-width="7" fill="none" stroke="#35618f" />
<path d="M950.625,1903.125 L980.625,1903.125" close="False" data-weight="1.75" stroke-width="7" fill="none" stroke="#35618f" />
<path d="M875.625,1903.125 L905.625,1903.125" close="False" data-weight="1.75" stroke-width="7" fill="none" stroke="#35618f" />
<image x="2395.625" y="670.625" width="65" height="65" xlink:href="designspace-test/./img/ds_dataset1_40_21_thumb.png" data-node="True" data-id="21" />
<image x="2245.625" y="970.625" width="65" height="65" xlink:href="designspace-test/./img/ds_dataset1_40_27_thumb.png" data-node="True" data-id="27" />
<image x="2170.625" y="1720.625" width="65" height="65" xlink:href="designspace-test/./img/ds_dataset1_40_19_thumb.png" data-node="True" data-id="19" />
<image x="2170.625" y="1345.625" width="65" height="65" xlink:href="designspace-test/./img/ds_dataset1_40_37_thumb.png" data-node="True" data-id="37" />
<image x="1945.625" y="2245.625" width="65" height="65" xlink:href="designspace-test/./img/ds_dataset1_40_12_thumb.png" data-node="True" data-id="12" />
<image x="1945.625" y="1645.625" width="65" height="65" xlink:href="designspace-test/./img/ds_dataset1_40_32_thumb.png" data-node="True" data-id="32" />
<image x="1870.625" y="2245.625" width="65" height="65" xlink:href="designspace-test/./img/ds_dataset1_40_2_thumb.png" data-node="True" data-id="2" />
<image x="1870.625" y="1420.625" width="65" height="65" xlink:href="designspace-test/./img/ds_dataset1_40_4_thumb.png" data-node="True" data-id="4" />
<image x="1870.625" y="595.625" width="65" height="65" xlink:href="designspace-test/./img/ds_dataset1_40_10_thumb.png" data-node="True" data-id="10" />
<image x="1795.625" y="745.625" width="65" height="65" xlink:href="designspace-test/./img/ds_dataset1_40_9_thumb.png" data-node="True" data-id="9" />
<image x="1795.625" y="520.625" width="65" height="65" xlink:href="designspace-test/./img/ds_dataset1_40_25_thumb.png" data-node="True" data-id="25" />
<image x="1720.625" y="670.625" width="65" height="65" xlink:href="designspace-test/./img/ds_dataset1_40_16_thumb.png" data-node="True" data-id="16" />
<image x="1720.625" y="595.625" width="65" height="65" xlink:href="designspace-test/./img/ds_dataset1_40_11_thumb.png" data-node="True" data-id="11" />
<image x="1645.625" y="370.625" width="65" height="65" xlink:href="designspace-test/./img/ds_dataset1_40_24_thumb.png" data-node="True" data-id="24" />
<image x="1570.625" y="2395.625" width="65" height="65" xlink:href="designspace-test/./img/ds_dataset1_40_22_thumb.png" data-node="True" data-id="22" />
<image x="1570.625" y="370.625" width="65" height="65" xlink:href="designspace-test/./img/ds_dataset1_40_13_thumb.png" data-node="True" data-id="13" />
<image x="1570.625" y="145.625" width="65" height="65" xlink:href="designspace-test/./img/ds_dataset1_40_14_thumb.png" data-node="True" data-id="14" />
<image x="1495.625" y="1270.625" width="65" height="65" xlink:href="designspace-test/./img/ds_dataset1_40_1_thumb.png" data-node="True" data-id="1" />
<image x="1495.625" y="670.625" width="65" height="65" xlink:href="designspace-test/./img/ds_dataset1_40_39_thumb.png" data-node="True" data-id="39" />
<image x="1495.625" y="520.625" width="65" height="65" xlink:href="designspace-test/./img/ds_dataset1_40_33_thumb.png" data-node="True" data-id="33" />
<image x="1495.625" y="445.625" width="65" height="65" xlink:href="designspace-test/./img/ds_dataset1_40_31_thumb.png" data-node="True" data-id="31" />
<image x="1495.625" y="370.625" width="65" height="65" xlink:href="designspace-test/./img/ds_dataset1_40_30_thumb.png" data-node="True" data-id="30" />
<image x="1420.625" y="2170.625" width="65" height="65" xlink:href="designspace-test/./img/ds_dataset1_40_38_thumb.png" data-node="True" data-id="38" />
<image x="1420.625" y="70.625" width="65" height="65" xlink:href="designspace-test/./img/ds_dataset1_40_17_thumb.png" data-node="True" data-id="17" />
<image x="1345.625" y="1270.625" width="65" height="65" xlink:href="designspace-test/./img/ds_dataset1_40_36_thumb.png" data-node="True" data-id="36" />
<image x="1195.625" y="2170.625" width="65" height="65" xlink:href="designspace-test/./img/ds_dataset1_40_35_thumb.png" data-node="True" data-id="35" />
<image x="1045.625" y="1195.625" width="65" height="65" xlink:href="designspace-test/./img/ds_dataset1_40_29_thumb.png" data-node="True" data-id="29" />
<image x="970.625" y="2245.625" width="65" height="65" xlink:href="designspace-test/./img/ds_dataset1_40_23_thumb.png" data-node="True" data-id="23" />
<image x="895.625" y="1495.625" width="65" height="65" xlink:href="designspace-test/./img/ds_dataset1_40_28_thumb.png" data-node="True" data-id="28" />
<image x="895.625" y="1195.625" width="65" height="65" xlink:href="designspace-test/./img/ds_dataset1_40_3_thumb.png" data-node="True" data-id="3" />
<image x="820.625" y="1870.625" width="65" height="65" xlink:href="designspace-test/./img/ds_dataset1_40_18_thumb.png" data-node="True" data-id="18" />
<image x="820.625" y="820.625" width="65" height="65" xlink:href="designspace-test/./img/ds_dataset1_40_6_thumb.png" data-node="True" data-id="6" />
<image x="820.625" y="670.625" width="65" height="65" xlink:href="designspace-test/./img/ds_dataset1_40_15_thumb.png" data-node="True" data-id="15" />
<image x="820.625" y="370.625" width="65" height="65" xlink:href="designspace-test/./img/ds_dataset1_40_26_thumb.png" data-node="True" data-id="26" />
<image x="745.625" y="520.625" width="65" height="65" xlink:href="designspace-test/./img/ds_dataset1_40_8_thumb.png" data-node="True" data-id="8" />
<image x="520.625" y="1870.625" width="65" height="65" xlink:href="designspace-test/./img/ds_dataset1_40_20_thumb.png" data-node="True" data-id="20" />
<image x="370.625" y="1420.625" width="65" height="65" xlink:href="designspace-test/./img/ds_dataset1_40_34_thumb.png" data-node="True" data-id="34" />
<image x="220.625" y="1120.625" width="65" height="65" xlink:href="designspace-test/./img/ds_dataset1_40_0_thumb.png" data-node="True" data-id="0" />
<image x="145.625" y="1420.625" width="65" height="65" xlink:href="designspace-test/./img/ds_dataset1_40_5_thumb.png" data-node="True" data-id="5" />
<image x="70.625" y="1345.625" width="65" height="65" xlink:href="designspace-test/./img/ds_dataset1_40_7_thumb.png" data-node="True" data-id="7" />
</svg>