<?xml version="1.0" encoding="UTF-8"?>
<svg xmlns="http://www.w3.org/2000/svg" xmlns:xlink="http://www.w3.org/1999/xlink"
     width="1350" height="1350" viewBox="0 0 1350 1350">
<defs>
</defs>
<path d="M703.125,605.625 A54.31980515339478,54.31980515339478,0,0,1,698.9901510378278,626.4122894815039 M698.9901510378278,626.4122894815039 A54.319805153394256,54.319805153394256,0,0,1,687.2150974233027,644.0349025766973 M687.2150974233027,644.0349025766973" close="False" data-weight="1.0" stroke-width="6" fill="none" stroke="#ffff33" />
<path d="M703.125,530.625 C703.125,541.875,703.125,564.375,703.125,575.625" close="False" data-weight="0.0" stroke-width="6" fill="none" stroke="#ffff33" />
<path d="M703.125,455.625 C703.125,466.875,703.125,489.375,703.125,500.625" close="False" data-weight="0.0" stroke-width="6" fill="none" stroke="#ffff33" />
<path d="M703.125,380.625 C703.125,391.875,703.125,414.375,703.125,425.625" close="False" data-weight="0.0" stroke-width="6" fill="none" stroke="#ffff33" />
<path d="M644.0349025766973,687.2150974233027 C636.0799512883486,695.1700487116514,620.1700487116514,711.0799512883486,612.2150974233027,719.0349025766973" close="False" data-weight="0.0" stroke-width="6" fill="none" stroke="#ffff33" />
<path d="M569.0349025766973,762.2150974233027 C561.0799512883486,770.1700487116514,545.1700487116514,786.0799512883486,537.2150974233027,794.0349025766973" close="False" data-weight="0.0" stroke-width="6" fill="none" stroke="#ffff33" />
<path d="M494.03490257669733,837.2150974233027 C486.0799512883487,845.1700487116514,470.1700487116513,861.0799512883486,462.21509742330267,869.0349025766973" close="False" data-weight="0.0" stroke-width="6" fill="none" stroke="#ffff33" />
<path d="M419.03490257669733,912.2150974233027 C411.0799512883487,920.1700487116514,395.1700487116513,936.0799512883486,387.21509742330267,944.0349025766973" close="False" data-weight="0.0" stroke-width="6" fill="none" stroke="#ffff33" />
<path d="M344.03490257669733,987.2150974233027 C336.0799512883487,995.1700487116514,320.1700487116513,1011.0799512883486,312.21509742330267,1019.0349025766973" close="False" data-weight="0.0" stroke-width="6" fill="none" stroke="#ffff33" />
<path d="M269.03490257669733,1062.2150974233027 C261.0799512883487,1070.1700487116514,245.1700487116513,1086.0799512883486,237.21509742330267,1094.0349025766973" close="False" data-weight="0.0" stroke-width="6" fill="none" stroke="#ffff33" />
<path d="M703.125,575.625 L703.125,605.625" close="False" data-weight="1.75" stroke-width="6" fill="none" stroke="#ffff33" />
<path d="M703.125,500.625 L703.125,530.625" close="False" data-weight="1.75" stroke-width="6" fill="none" stroke="#ffff33" />
<path d="M703.125,425.625 L703.125,455.625" close="False" data-weight="1.75" stroke-width="6" fill="none" stroke="#ffff33" />
<path d="M703.125,350.625 L703.125,380.625" close="False" data-weight="1.75" stroke-width="6" fill="none" stroke="#ffff33" />
<path d="M644.0349025766973,687.2150974233027 L687.2150974233027,644.0349025766973" close="False" data-weight="2.060660171779821" stroke-width="6" fill="none" stroke="#ffff33" />
<path d="M569.0349025766973,762.2150974233027 L612.2150974233027,719.0349025766973" close="False" data-weight="2.060660171779821" stroke-width="6" fill="none" stroke="#ffff33" />
<path d="M494.03490257669733,837.2150974233027 L537.2150974233027,794.0349025766973" close="False" data-weight="2.060660171779821" stroke-width="6" fill="none" stroke="#ffff33" />
<path d="M419.03490257669733,912.2150974233027 L462.21509742330267,869.0349025766973" close="False" data-weight="2.060660171779821" stroke-width="6" fill="none" stroke="#ffff33" />
<path d="M344.03490257669733,987.2150974233027 L387.21509742330267,944.0349025766973" close="False" data-weight="2.060660171779821" stroke-width="6" fill="none" stroke="#ffff33" />
<path d="M269.03490257669733,1062.2150974233027 L312.21509742330267,1019.0349025766973" close="False" data-weight="2.060660171779821" stroke-width="6" fill="none" stroke="#ffff33" />
<path d="M194.03490257669733,1137.2150974233027 L237.2150974233027,1094.0349025766973" close="False" data-weight="2.060660171779821" stroke-width="6" fill="none" stroke="#ffff33" />
<path d="M1153.125,605.625 A54.31980515339637,54.31980515339637,0,0,1,1148.990151037828,626.412289481504 M1148.990151037828,626.412289481504 A54.31980515339273,54.31980515339273,0,0,1,1137.2150974233027,644.0349025766973 M1137.2150974233027,644.0349025766973" close="False" data-weight="1.0" stroke-width="6" fill="none" stroke="#984ea3" />
<path d="M1153.125,530.625 C1153.125,541.875,1153.125,564.375,1153.125,575.625" close="False" data-weight="0.0" stroke-width="6" fill="none" stroke="#984ea3" />
<path d="M1153.125,455.625 C1153.125,466.875,1153.125,489.375,1153.125,500.625" close="False" data-weight="0.0" stroke-width="6" fill="none" stroke="#984ea3" />
<path d="M1098.6521266074556,468.9115818915292 C1091.216990428474,476.34671807051075,1076.3467180705109,491.2169904284739,1068.9115818915293,498.65212660745544" close="False" data-weight="0.0" stroke-width="6" fill="none" stroke="#984ea3" />
<path d="M1003.125,1130.625 C1003.125,1141.875,1003.125,1164.375,1003.125,1175.625" close="False" data-weight="0.0" stroke-width="6" fill="none" stroke="#984ea3" />
<path d="M1003.125,1055.625 C1003.125,1066.875,1003.125,1089.375,1003.125,1100.625" close="False" data-weight="0.0" stroke-width="6" fill="none" stroke="#984ea3" />
<path d="M1003.125,905.625 C1003.125,916.875,1003.125,939.375,1003.125,950.625" close="False" data-weight="0.0" stroke-width="6" fill="none" stroke="#984ea3" />
<path d="M1003.125,830.625 C1003.125,841.875,1003.125,864.375,1003.125,875.625" close="False" data-weight="0.0" stroke-width="6" fill="none" stroke="#984ea3" />
<path d="M1019.0349025766973,762.2150974233027 A54.3198051533949,54.3198051533949,0,0,0,1007.2598489621721,779.8377105184961 M1007.2598489621721,779.8377105184961 A54.31980515339433,54.31980515339433,0,0,0,1003.125,800.625 M1003.125,800.625" close="False" data-weight="1.0" stroke-width="6" fill="none" stroke="#984ea3" />
<path d="M1023.6521266074556,543.9115818915293 C1016.216990428474,551.3467180705109,1001.346718070511,566.2169904284739,993.9115818915294,573.6521266074554" close="False" data-weight="0.0" stroke-width="6" fill="none" stroke="#984ea3" />
<path d="M932.125,830.9834101745155 A57.45452644918623,57.45452644918623,0,0,1,927.7515345873452,852.9703055610012 M927.7515345873452,852.9703055610012 A57.45452644918757,57.45452644918757,0,0,1,915.296958812895,871.6098954365974 M915.296958812895,871.6098954365974" close="False" data-weight="1.0" stroke-width="6" fill="none" stroke="#984ea3" />
<path d="M948.6521266074554,618.9115818915294 A58.770285560737605,58.770285560737605,0,0,1,929.585673754647,631.6513783886713 M929.585673754647,631.6513783886713 A58.77028556074072,58.77028556074072,0,0,1,907.0952591551869,636.125 M907.0952591551869,636.125" close="False" data-weight="1.0" stroke-width="6" fill="none" stroke="#984ea3" />
<path d="M871.6098954365974,915.296958812895 C863.7816612806718,923.1251929688207,848.1251929688207,938.7816612806718,840.296958812895,946.6098954365974" close="False" data-weight="0.0" stroke-width="6" fill="none" stroke="#984ea3" />
<path d="M853.125,680.625 A54.31980515339478,54.31980515339478,0,0,0,857.2598489621722,701.4122894815039 M857.2598489621722,701.4122894815039 A54.319805153394256,54.319805153394256,0,0,0,869.0349025766973,719.0349025766973 M869.0349025766973,719.0349025766973" close="False" data-weight="1.0" stroke-width="6" fill="none" stroke="#984ea3" />
<path d="M650.2665898254845,1007.125 C639.1957949127423,1007.125,617.0542050872577,1007.125,605.9834101745155,1007.125" close="False" data-weight="0.0" stroke-width="6" fill="none" stroke="#984ea3" />
<path d="M646.6098954366012,390.2969588128913 C638.7816612806737,398.1251929688188,623.1251929688189,413.7816612806737,615.2969588128914,421.6098954366011" close="False" data-weight="0.0" stroke-width="6" fill="none" stroke="#984ea3" />
<path d="M557.125,605.9834101745155 C557.125,617.0542050872577,557.125,639.1957949127423,557.125,650.2665898254845" close="False" data-weight="0.0" stroke-width="6" fill="none" stroke="#984ea3" />
<path d="M557.125,530.9834101745155 C557.125,542.0542050872577,557.125,564.1957949127423,557.125,575.2665898254845" close="False" data-weight="0.0" stroke-width="6" fill="none" stroke="#984ea3" />
<path d="M571.6098954365974,465.296958812895 A49.4545264491869,49.4545264491869,0,0,0,560.889501672745,481.34116189791956 M560.889501672745,481.34116189791956 A49.454526449186915,49.454526449186915,0,0,0,557.125,500.2665898254845 M557.125,500.2665898254845" close="False" data-weight="1.0" stroke-width="6" fill="none" stroke="#984ea3" />
<path d="M482.125,830.9834101745155 C482.125,842.0542050872577,482.125,864.1957949127423,482.125,875.2665898254845" close="False" data-weight="0.0" stroke-width="6" fill="none" stroke="#984ea3" />
<path d="M496.6098954365974,765.296958812895 A49.45452644918767,49.45452644918767,0,0,0,485.889501672745,781.3411618979196 M485.889501672745,781.3411618979196 A49.45452644918612,49.45452644918612,0,0,0,482.125,800.2665898254845 M482.125,800.2665898254845" close="False" data-weight="1.0" stroke-width="6" fill="none" stroke="#984ea3" />
<path d="M1153.125,575.625 L1153.125,605.625" close="False" data-weight="1.75" stroke-width="6" fill="none" stroke="#984ea3" />
<path d="M1153.125,500.625 L1153.125,530.625" close="False" data-weight="1.75" stroke-width="6" fill="none" stroke="#984ea3" />
<path d="M1153.125,425.625 L1153.125,455.625" close="False" data-weight="1.75" stroke-width="6" fill="none" stroke="#984ea3" />
<path d="M1094.0349025766973,687.2150974233027 L1137.2150974233027,644.0349025766973" close="False" data-weight="2.060660171779821" stroke-width="6" fill="none" stroke="#984ea3" />
<path d="M1098.6521266074556,468.91158189152935 L1143.9115818915295,423.65212660745533" close="False" data-weight="2.060660171779821" stroke-width="6" fill="none" stroke="#984ea3" />
<path d="M1003.125,1175.625 L1003.125,1205.625" close="False" data-weight="1.75" stroke-width="6" fill="none" stroke="#984ea3" />
<path d="M1003.125,1100.625 L1003.125,1130.625" close="False" data-weight="1.75" stroke-width="6" fill="none" stroke="#984ea3" />
<path d="M1003.125,1025.625 L1003.125,1055.625" close="False" data-weight="1.75" stroke-width="6" fill="none" stroke="#984ea3" />
<path d="M1003.125,950.625 L1003.125,980.625" close="False" data-weight="1.75" stroke-width="6" fill="none" stroke="#984ea3" />
<path d="M1003.125,875.625 L1003.125,905.625" close="False" data-weight="1.75" stroke-width="6" fill="none" stroke="#984ea3" />
<path d="M1003.125,800.625 L1003.125,830.625" close="False" data-weight="1.75" stroke-width="6" fill="none" stroke="#984ea3" />
<path d="M1019.0349025766973,762.2150974233027 L1062.2150974233027,719.0349025766973" close="False" data-weight="2.060660171779821" stroke-width="6" fill="none" stroke="#984ea3" />
<path d="M1023.6521266074554,543.9115818915294 L1068.9115818915293,498.65212660745544" close="False" data-weight="2.060660171779821" stroke-width="6" fill="none" stroke="#984ea3" />
<path d="M932.125,800.2665898254845 L932.125,830.9834101745155" close="False" data-weight="1.75" stroke-width="6" fill="none" stroke="#984ea3" />
<path d="M948.6521266074554,618.9115818915294 L993.9115818915294,573.6521266074554" close="False" data-weight="2.060660171779821" stroke-width="6" fill="none" stroke="#984ea3" />
<path d="M871.6098954365974,915.296958812895 L915.296958812895,871.6098954365974" close="False" data-weight="2.060660171779821" stroke-width="6" fill="none" stroke="#984ea3" />
<path d="M869.0349025766973,719.0349025766973 L912.2150974233027,762.2150974233027" close="False" data-weight="2.060660171779821" stroke-width="6" fill="none" stroke="#984ea3" />
<path d="M853.125,650.625 L853.125,680.625" close="False" data-weight="1.75" stroke-width="6" fill="none" stroke="#984ea3" />
<path d="M874.1547408448131,636.125 L907.0952591551869,636.125" close="False" data-weight="1.75" stroke-width="6" fill="none" stroke="#984ea3" />
<path d="M796.6098954365974,990.296958812895 L840.296958812895,946.6098954365974" close="False" data-weight="2.060660171779821" stroke-width="6" fill="none" stroke="#984ea3" />
<path d="M725.2665898254845,1007.125 L755.9834101745155,1007.125" close="False" data-weight="1.75" stroke-width="6" fill="none" stroke="#984ea3" />
<path d="M650.2665898254845,1007.125 L680.9834101745155,1007.125" close="False" data-weight="1.75" stroke-width="6" fill="none" stroke="#984ea3" />
<path d="M646.609895436601,390.2969588128913 L690.2969588128913,346.6098954366011" close="False" data-weight="2.060660171779821" stroke-width="6" fill="none" stroke="#984ea3" />
<path d="M575.2665898254845,1007.125 L605.9834101745155,1007.125" close="False" data-weight="1.75" stroke-width="6" fill="none" stroke="#984ea3" />
<path d="M557.125,650.2665898254845 L557.125,680.9834101745155" close="False" data-weight="1.75" stroke-width="6" fill="none" stroke="#984ea3" />
<path d="M557.125,575.2665898254845 L557.125,605.9834101745155" close="False" data-weight="1.75" stroke-width="6" fill="none" stroke="#984ea3" />
<path d="M557.125,500.2665898254845 L557.125,530.9834101745155" close="False" data-weight="1.75" stroke-width="6" fill="none" stroke="#984ea3" />
<path d="M571.6098954365974,465.296958812895 L615.2969588128913,421.6098954366011" close="False" data-weight="2.060660171779821" stroke-width="6" fill="none" stroke="#984ea3" />
<path d="M494.03490257669733,944.0349025766973 L537.2150974233027,987.2150974233027" close="False" data-weight="2.060660171779821" stroke-width="6" fill="none" stroke="#984ea3" />
<path d="M482.125,875.2665898254845 L482.125,905.9834101745155" close="False" data-weight="1.75" stroke-width="6" fill="none" stroke="#984ea3" />
<path d="M482.125,800.2665898254845 L482.125,830.9834101745155" close="False" data-weight="1.75" stroke-width="6" fill="none" stroke="#984ea3" />
<path d="M496.6098954365974,765.296958812895 L540.2969588128988,721.6098954365937" close="False" data-weight="2.060660171779821" stroke-width="6" fill="none" stroke="#984ea3" />
<path d="M1087.3384181084705,457.59787339254467 C1079.903281929489,465.0330095715262,1065.033009571526,479.90328192948914,1057.5978733925444,487.33841810847065" close="False" data-weight="0.0" stroke-width="6" fill="none" stroke="#ff7f00" />
<path d="M1012.3384181084705,532.5978733925447 C1004.903281929489,540.0330095715261,990.033009571526,554.9032819294891,982.5978733925446,562.3384181084706" close="False" data-weight="0.0" stroke-width="6" fill="none" stroke="#ff7f00" />
<path d="M937.3384181084706,607.5978733925446 A42.7702855607394,42.7702855607394,0,0,1,923.4627388368056,616.8693058684908 M923.4627388368056,616.8693058684908 A42.7702855607389,42.7702855607389,0,0,1,907.0952591551869,620.125 M907.0952591551869,620.125" close="False" data-weight="1.0" stroke-width="6" fill="none" stroke="#ff7f00" />
<path d="M794.0349025766973,687.2150974233027 C786.0799512883486,695.1700487116514,770.1700487116514,711.0799512883486,762.2150974233027,719.0349025766973" close="False" data-weight="0.0" stroke-width="6" fill="none" stroke="#ff7f00" />
<path d="M719.0349025766973,762.2150974233027 C711.0799512883486,770.1700487116514,695.1700487116514,786.0799512883486,687.2150974233027,794.0349025766973" close="False" data-weight="0.0" stroke-width="6" fill="none" stroke="#ff7f00" />
<path d="M644.0349025766973,837.2150974233027 C636.0799512883486,845.1700487116514,620.1700487116514,861.0799512883486,612.2150974233027,869.0349025766973" close="False" data-weight="0.0" stroke-width="6" fill="none" stroke="#ff7f00" />
<path d="M569.0349025766973,912.2150974233027 A54.3198051533949,54.3198051533949,0,0,1,551.4122894815039,923.9901510378279 M551.4122894815039,923.9901510378279 A54.31980515339421,54.31980515339421,0,0,1,530.625,928.125 M530.625,928.125" close="False" data-weight="1.0" stroke-width="6" fill="none" stroke="#ff7f00" />
<path d="M474.125,830.9834101745155 C474.125,842.0542050872577,474.125,864.1957949127423,474.125,875.2665898254845" close="False" data-weight="0.0" stroke-width="6" fill="none" stroke="#ff7f00" />
<path d="M490.953041187105,759.6401045634026 A57.454526449186126,57.454526449186126,0,0,0,478.4984654126548,778.2796944389988 M478.4984654126548,778.2796944389988 A57.45452644918771,57.45452644918771,0,0,0,474.125,800.2665898254845 M474.125,800.2665898254845" close="False" data-weight="1.0" stroke-width="6" fill="none" stroke="#ff7f00" />
<path d="M500.2665898254845,707.125 C489.19579491274226,707.125,467.05420508725774,707.125,455.9834101745155,707.125" close="False" data-weight="0.0" stroke-width="6" fill="none" stroke="#ff7f00" />
<path d="M425.2665898254845,707.125 C414.19579491274226,707.125,392.05420508725774,707.125,380.9834101745155,707.125" close="False" data-weight="0.0" stroke-width="6" fill="none" stroke="#ff7f00" />
<path d="M425.625,103.125 C414.375,103.125,391.875,103.125,380.625,103.125" close="False" data-weight="0.0" stroke-width="6" fill="none" stroke="#ff7f00" />
<path d="M350.2665898254845,707.125 C339.19579491274226,707.125,317.05420508725774,707.125,305.9834101745155,707.125" close="False" data-weight="0.0" stroke-width="6" fill="none" stroke="#ff7f00" />
<path d="M328.125,530.625 C328.125,541.875,328.125,564.375,328.125,575.625" close="False" data-weight="0.0" stroke-width="6" fill="none" stroke="#ff7f00" />
<path d="M328.125,455.625 C328.125,466.875,328.125,489.375,328.125,500.625" close="False" data-weight="0.0" stroke-width="6" fill="none" stroke="#ff7f00" />
<path d="M344.03490257669733,387.21509742330267 A54.3198051533945,54.3198051533945,0,0,0,332.2598489621722,404.837710518496 M332.2598489621722,404.837710518496 A54.31980515339484,54.31980515339484,0,0,0,328.125,425.625 M328.125,425.625" close="False" data-weight="1.0" stroke-width="6" fill="none" stroke="#ff7f00" />
<path d="M344.03490257669733,269.03490257669733 C336.07995128834864,261.07995128834864,320.17004871165136,245.17004871165133,312.21509742330267,237.21509742330267" close="False" data-weight="0.0" stroke-width="6" fill="none" stroke="#ff7f00" />
<path d="M350.625,103.125 A54.319805153394526,54.319805153394526,0,0,0,329.837710518496,107.25984896217224 M329.837710518496,107.25984896217224 A54.31980515339479,54.31980515339479,0,0,0,312.21509742330267,119.03490257669732 M312.21509742330267,119.03490257669732" close="False" data-weight="1.0" stroke-width="6" fill="none" stroke="#ff7f00" />
<path d="M275.2665898254845,707.125 C264.19579491274226,707.125,242.05420508725774,707.125,230.98341017451548,707.125" close="False" data-weight="0.0" stroke-width="6" fill="none" stroke="#ff7f00" />
<path d="M275.625,628.125 C264.375,628.125,241.875,628.125,230.625,628.125" close="False" data-weight="0.0" stroke-width="6" fill="none" stroke="#ff7f00" />
<path d="M200.26658982548452,707.125 C189.19579491274226,707.125,167.05420508725774,707.125,155.98341017451548,707.125" close="False" data-weight="0.0" stroke-width="6" fill="none" stroke="#ff7f00" />
<path d="M200.625,628.125 A54.319805153394555,54.319805153394555,0,0,0,179.837710518496,632.2598489621722 M179.837710518496,632.2598489621722 A54.31980515339474,54.31980515339474,0,0,0,162.21509742330267,644.0349025766973 M162.21509742330267,644.0349025766973" close="False" data-weight="1.0" stroke-width="6" fill="none" stroke="#ff7f00" />
<path d="M1087.3384181084707,457.59787339254456 L1132.5978733925444,412.3384181084708" close="False" data-weight="2.060660171779821" stroke-width="6" fill="none" stroke="#ff7f00" />
<path d="M1012.3384181084706,532.5978733925446 L1057.5978733925444,487.33841810847065" close="False" data-weight="2.060660171779821" stroke-width="6" fill="none" stroke="#ff7f00" />
<path d="M937.3384181084706,607.5978733925446 L982.5978733925446,562.3384181084706" close="False" data-weight="2.060660171779821" stroke-width="6" fill="none" stroke="#ff7f00" />
<path d="M874.1547408448131,620.125 L907.0952591551869,620.125" close="False" data-weight="1.75" stroke-width="6" fill="none" stroke="#ff7f00" />
<path d="M794.0349025766973,687.2150974233027 L837.2150974233027,644.0349025766973" close="False" data-weight="2.060660171779821" stroke-width="6" fill="none" stroke="#ff7f00" />
<path d="M719.0349025766973,762.2150974233027 L762.2150974233027,719.0349025766973" close="False" data-weight="2.060660171779821" stroke-width="6" fill="none" stroke="#ff7f00" />
<path d="M644.0349025766973,837.2150974233027 L687.2150974233027,794.0349025766973" close="False" data-weight="2.060660171779821" stroke-width="6" fill="none" stroke="#ff7f00" />
<path d="M569.0349025766973,912.2150974233027 L612.2150974233027,869.0349025766973" close="False" data-weight="2.060660171779821" stroke-width="6" fill="none" stroke="#ff7f00" />
<path d="M500.625,928.125 L530.625,928.125" close="False" data-weight="1.75" stroke-width="6" fill="none" stroke="#ff7f00" />
<path d="M474.125,875.2665898254845 L474.125,905.9834101745155" close="False" data-weight="1.75" stroke-width="6" fill="none" stroke="#ff7f00" />
<path d="M474.125,800.2665898254845 L474.125,830.9834101745155" close="False" data-weight="1.75" stroke-width="6" fill="none" stroke="#ff7f00" />
<path d="M490.953041187105,759.6401045634026 L534.6401045633988,715.9530411871087" close="False" data-weight="2.060660171779821" stroke-width="6" fill="none" stroke="#ff7f00" />
<path d="M500.2665898254845,707.125 L530.9834101745155,707.125" close="False" data-weight="1.75" stroke-width="6" fill="none" stroke="#ff7f00" />
<path d="M425.2665898254845,707.125 L455.9834101745155,707.125" close="False" data-weight="1.75" stroke-width="6" fill="none" stroke="#ff7f00" />
<path d="M425.625,103.125 L455.625,103.125" close="False" data-weight="1.75" stroke-width="6" fill="none" stroke="#ff7f00" />
<path d="M350.2665898254845,707.125 L380.9834101745155,707.125" close="False" data-weight="1.75" stroke-width="6" fill="none" stroke="#ff7f00" />
<path d="M328.125,575.625 L328.125,605.625" close="False" data-weight="1.75" stroke-width="6" fill="none" stroke="#ff7f00" />
<path d="M328.125,500.625 L328.125,530.625" close="False" data-weight="1.75" stroke-width="6" fill="none" stroke="#ff7f00" />
<path d="M328.125,425.625 L328.125,455.625" close="False" data-weight="1.75" stroke-width="6" fill="none" stroke="#ff7f00" />
<path d="M344.03490257669733,387.21509742330267 L387.21509742330267,344.03490257669733" close="False" data-weight="2.060660171779821" stroke-width="6" fill="none" stroke="#ff7f00" />
<path d="M344.03490257669733,269.03490257669733 L387.21509742330267,312.21509742330267" close="False" data-weight="2.060660171779821" stroke-width="6" fill="none" stroke="#ff7f00" />
<path d="M350.625,103.125 L380.625,103.125" close="False" data-weight="1.75" stroke-width="6" fill="none" stroke="#ff7f00" />
<path d="M275.2665898254845,707.125 L305.9834101745155,707.125" close="False" data-weight="1.75" stroke-width="6" fill="none" stroke="#ff7f00" />
<path d="M275.625,628.125 L305.625,628.125" close="False" data-weight="1.75" stroke-width="6" fill="none" stroke="#ff7f00" />
<path d="M269.03490257669733,194.03490257669733 L312.21509742330267,237.2150974233027" close="False" data-weight="2.060660171779821" stroke-width="6" fill="none" stroke="#ff7f00" />
<path d="M269.03490257669733,162.21509742330267 L312.21509742330267,119.0349025766973" close="False" data-weight="2.060660171779821" stroke-width="6" fill="none" stroke="#ff7f00" />
<path d="M200.26658982548452,707.125 L230.98341017451548,707.125" close="False" data-weight="1.75" stroke-width="6" fill="none" stroke="#ff7f00" />
<path d="M200.625,628.125 L230.625,628.125" close="False" data-weight="1.75" stroke-width="6" fill="none" stroke="#ff7f00" />
<path d="M125.26658982548453,707.125 L155.98341017451548,707.125" close="False" data-weight="1.75" stroke-width="6" fill="none" stroke="#ff7f00" />
<path d="M119.03490257669732,687.2150974233027 L162.2150974233027,644.0349025766973" close="False" data-weight="2.060660171779821" stroke-width="6" fill="none" stroke="#ff7f00" />
<path d="M924.125,830.9834101745155 A49.45452644918669,49.45452644918669,0,0,1,920.360498327255,849.9088381020804 M920.360498327255,849.9088381020804 A49.45452644918702,49.45452644918702,0,0,1,909.6401045634026,865.953041187105 M909.6401045634026,865.953041187105" close="False" data-weight="1.0" stroke-width="6" fill="none" stroke="#4daf4a" />
<path d="M865.953041187105,909.6401045634026 C858.1248070311793,917.4683387193282,842.4683387193282,933.1248070311793,834.6401045634026,940.953041187105" close="False" data-weight="0.0" stroke-width="6" fill="none" stroke="#4daf4a" />
<path d="M650.2665898254845,999.125 C639.1957949127423,999.125,617.0542050872577,999.125,605.9834101745155,999.125" close="False" data-weight="0.0" stroke-width="6" fill="none" stroke="#4daf4a" />
<path d="M553.125,905.625 C553.125,916.875,553.125,939.375,553.125,950.625" close="False" data-weight="0.0" stroke-width="6" fill="none" stroke="#4daf4a" />
<path d="M553.125,830.625 C553.125,841.875,553.125,864.375,553.125,875.625" close="False" data-weight="0.0" stroke-width="6" fill="none" stroke="#4daf4a" />
<path d="M553.125,755.625 C553.125,766.875,553.125,789.375,553.125,800.625" close="False" data-weight="0.0" stroke-width="6" fill="none" stroke="#4daf4a" />
<path d="M500.2665898254845,699.125 C489.19579491274226,699.125,467.05420508725774,699.125,455.9834101745155,699.125" close="False" data-weight="0.0" stroke-width="6" fill="none" stroke="#4daf4a" />
<path d="M425.2665898254845,699.125 C414.19579491274226,699.125,392.05420508725774,699.125,380.9834101745155,699.125" close="False" data-weight="0.0" stroke-width="6" fill="none" stroke="#4daf4a" />
<path d="M350.2665898254845,699.125 C339.19579491274226,699.125,317.05420508725774,699.125,305.9834101745155,699.125" close="False" data-weight="0.0" stroke-width="6" fill="none" stroke="#4daf4a" />
<path d="M275.2665898254845,699.125 C264.19579491274226,699.125,242.05420508725774,699.125,230.98341017451548,699.125" close="False" data-weight="0.0" stroke-width="6" fill="none" stroke="#4daf4a" />
<path d="M200.26658982548452,699.125 C189.19579491274226,699.125,167.05420508725774,699.125,155.98341017451548,699.125" close="False" data-weight="0.0" stroke-width="6" fill="none" stroke="#4daf4a" />
<path d="M924.125,800.2665898254845 L924.125,830.9834101745155" close="False" data-weight="1.75" stroke-width="6" fill="none" stroke="#4daf4a" />
<path d="M865.953041187105,909.6401045634026 L909.6401045634026,865.953041187105" close="False" data-weight="2.060660171779821" stroke-width="6" fill="none" stroke="#4daf4a" />
<path d="M790.953041187105,984.6401045634026 L834.6401045634026,940.953041187105" close="False" data-weight="2.060660171779821" stroke-width="6" fill="none" stroke="#4daf4a" />
<path d="M725.2665898254845,999.125 L755.9834101745155,999.125" close="False" data-weight="1.75" stroke-width="6" fill="none" stroke="#4daf4a" />
<path d="M650.2665898254845,999.125 L680.9834101745155,999.125" close="False" data-weight="1.75" stroke-width="6" fill="none" stroke="#4daf4a" />
<path d="M575.2665898254845,999.125 L605.9834101745155,999.125" close="False" data-weight="1.75" stroke-width="6" fill="none" stroke="#4daf4a" />
<path d="M553.125,950.625 L553.125,980.625" close="False" data-weight="1.75" stroke-width="6" fill="none" stroke="#4daf4a" />
<path d="M553.125,875.625 L553.125,905.625" close="False" data-weight="1.75" stroke-width="6" fill="none" stroke="#4daf4a" />
<path d="M553.125,800.625 L553.125,830.625" close="False" data-weight="1.75" stroke-width="6" fill="none" stroke="#4daf4a" />
<path d="M553.125,725.625 L553.125,755.625" close="False" data-weight="1.75" stroke-width="6" fill="none" stroke="#4daf4a" />
<path d="M500.2665898254845,699.125 L530.9834101745155,699.125" close="False" data-weight="1.75" stroke-width="6" fill="none" stroke="#4daf4a" />
<path d="M425.2665898254845,699.125 L455.9834101745155,699.125" close="False" data-weight="1.75" stroke-width="6" fill="none" stroke="#4daf4a" />
<path d="M350.2665898254845,699.125 L380.9834101745155,699.125" close="False" data-weight="1.75" stroke-width="6" fill="none" stroke="#4daf4a" />
<path d="M275.2665898254845,699.125 L305.9834101745155,699.125" close="False" data-weight="1.75" stroke-width="6" fill="none" stroke="#4daf4a" />
<path d="M200.26658982548452,699.125 L230.98341017451548,699.125" close="False" data-weight="1.75" stroke-width="6" fill="none" stroke="#4daf4a" />
<path d="M125.26658982548453,699.125 L155.98341017451548,699.125" close="False" data-weight="1.75" stroke-width="6" fill="none" stroke="#4daf4a" />
<path d="M640.9530411871012,384.64010456340634 C633.1248070311775,392.46833871933006,617.4683387193301,408.1248070311775,609.6401045634063,415.95304118710123" close="False" data-weight="0.0" stroke-width="6" fill="none" stroke="#377eb8" />
<path d="M644.0349025766973,269.03490257669733 C636.0799512883486,261.0799512883487,620.1700487116514,245.1700487116513,612.2150974233027,237.21509742330267" close="False" data-weight="0.0" stroke-width="6" fill="none" stroke="#377eb8" />
<path d="M549.125,605.9834101745155 C549.125,617.0542050872577,549.125,639.1957949127423,549.125,650.2665898254845" close="False" data-weight="0.0" stroke-width="6" fill="none" stroke="#377eb8" />
<path d="M549.125,530.9834101745155 C549.125,542.0542050872577,549.125,564.1957949127423,549.125,575.2665898254845" close="False" data-weight="0.0" stroke-width="6" fill="none" stroke="#377eb8" />
<path d="M565.953041187105,459.6401045634026 A57.454526449186766,57.454526449186766,0,0,0,553.4984654126547,478.27969443899883 M553.4984654126547,478.27969443899883 A57.45452644918703,57.45452644918703,0,0,0,549.125,500.2665898254845 M549.125,500.2665898254845" close="False" data-weight="1.0" stroke-width="6" fill="none" stroke="#377eb8" />
<path d="M569.0349025766973,194.0349025766973 C561.0799512883486,186.07995128834867,545.1700487116514,170.1700487116513,537.2150974233027,162.21509742330267" close="False" data-weight="0.0" stroke-width="6" fill="none" stroke="#377eb8" />
<path d="M640.9530411871012,384.64010456340634 L684.6401045634063,340.95304118710123" close="False" data-weight="2.060660171779821" stroke-width="6" fill="none" stroke="#377eb8" />
<path d="M644.0349025766973,269.03490257669733 L687.2150974233027,312.21509742330267" close="False" data-weight="2.060660171779821" stroke-width="6" fill="none" stroke="#377eb8" />
<path d="M549.125,650.2665898254845 L549.125,680.9834101745155" close="False" data-weight="1.75" stroke-width="6" fill="none" stroke="#377eb8" />
<path d="M549.125,575.2665898254845 L549.125,605.9834101745155" close="False" data-weight="1.75" stroke-width="6" fill="none" stroke="#377eb8" />
<path d="M549.125,500.2665898254845 L549.125,530.9834101745155" close="False" data-weight="1.75" stroke-width="6" fill="none" stroke="#377eb8" />
<path d="M565.953041187105,459.6401045634026 L609.6401045634063,415.95304118710123" close="False" data-weight="2.060660171779821" stroke-width="6" fill="none" stroke="#377eb8" />
<path d="M569.0349025766973,194.03490257669733 L612.2150974233027,237.2150974233027" close="False" data-weight="2.060660171779821" stroke-width="6" fill="none" stroke="#377eb8" />
<path d="M494.03490257669733,119.03490257669732 L537.2150974233027,162.2150974233027" close="False" data-weight="2.060660171779821" stroke-width="6" fill="none" stroke="#377eb8" />
<path d="M1153.125,305.625 C1153.125,316.875,1153.125,339.375,1153.125,350.625" close="False" data-weight="0.0" stroke-width="6" fill="none" stroke="#e41a1c" />
<path d="M1153.125,230.625 C1153.125,241.875,1153.125,264.375,1153.125,275.625" close="False" data-weight="0.0" stroke-width="6" fill="none" stroke="#e41a1c" />
<path d="M1094.0349025766973,462.21509742330267 C1086.0799512883486,470.1700487116513,1070.1700487116514,486.0799512883487,1062.2150974233027,494.03490257669733" close="False" data-weight="0.0" stroke-width="6" fill="none" stroke="#e41a1c" />
<path d="M1019.0349025766973,537.2150974233027 C1011.0799512883486,545.1700487116514,995.1700487116514,561.0799512883486,987.2150974233027,569.0349025766973" close="False" data-weight="0.0" stroke-width="6" fill="none" stroke="#e41a1c" />
<path d="M944.0349025766973,612.2150974233027 A54.3198051533949,54.3198051533949,0,0,1,926.4122894815039,623.9901510378279 M926.4122894815039,623.9901510378279 A54.31980515339421,54.31980515339421,0,0,1,905.625,628.125 M905.625,628.125" close="False" data-weight="1.0" stroke-width="6" fill="none" stroke="#e41a1c" />
<path d="M1153.125,350.625 L1153.125,380.625" close="False" data-weight="1.75" stroke-width="6" fill="none" stroke="#e41a1c" />
<path d="M1153.125,275.625 L1153.125,305.625" close="False" data-weight="1.75" stroke-width="6" fill="none" stroke="#e41a1c" />
<path d="M1153.125,200.625 L1153.125,230.625" close="False" data-weight="1.75" stroke-width="6" fill="none" stroke="#e41a1c" />
<path d="M1094.0349025766973,462.21509742330267 L1137.2150974233027,419.03490257669733" close="False" data-weight="2.060660171779821" stroke-width="6" fill="none" stroke="#e41a1c" />
<path d="M1100.625,178.125 L1130.625,178.125" close="False" data-weight="1.75" stroke-width="6" fill="none" stroke="#e41a1c" />
<path d="M1019.0349025766973,537.2150974233027 L1062.2150974233027,494.03490257669733" close="False" data-weight="2.060660171779821" stroke-width="6" fill="none" stroke="#e41a1c" />
<path d="M944.0349025766973,612.2150974233027 L987.2150974233027,569.0349025766973" close="False" data-weight="2.060660171779821" stroke-width="6" fill="none" stroke="#e41a1c" />
<path d="M875.625,628.125 L905.625,628.125" close="False" data-weight="1.75" stroke-width="6" fill="none" stroke="#e41a1c" />
<image x="1120.625" y="370.625" width="65" height="65" xlink:href="designspace-test/./img/ds_dataset0_20_15_thumb.png">
<title>15</title>
</image>
<image x="1120.625" y="145.625" width="65" height="65" xlink:href="designspace-test/./img/ds_dataset0_20_9_thumb.png">
<title>9</title>
</image>
<image x="1045.625" y="670.625" width="65" height="65" xlink:href="designspace-test/./img/ds_dataset0_20_10_thumb.png">
<title>10</title>
</image>
<image x="1045.625" y="145.625" width="65" height="65" xlink:href="designspace-test/./img/ds_dataset0_20_1_thumb.png">
<title>1</title>
</image>
<image x="970.625" y="1195.625" width="65" height="65" xlink:href="designspace-test/./img/ds_dataset0_20_5_thumb.png">
<title>5</title>
</image>
<image x="970.625" y="970.625" width="65" height="65" xlink:href="designspace-test/./img/ds_dataset0_20_17_thumb.png">
<title>17</title>
</image>
<image x="895.625" y="745.625" width="65" height="65" xlink:href="designspace-test/./img/ds_dataset0_20_0_thumb.png">
<title>0</title>
</image>
<image x="820.625" y="595.625" width="65" height="65" xlink:href="designspace-test/./img/ds_dataset0_20_4_thumb.png">
<title>4</title>
</image>
<image x="745.625" y="970.625" width="65" height="65" xlink:href="designspace-test/./img/ds_dataset0_20_12_thumb.png">
<title>12</title>
</image>
<image x="670.625" y="970.625" width="65" height="65" xlink:href="designspace-test/./img/ds_dataset0_20_8_thumb.png">
<title>8</title>
</image>
<image x="670.625" y="295.625" width="65" height="65" xlink:href="designspace-test/./img/ds_dataset0_20_18_thumb.png">
<title>18</title>
</image>
<image x="520.625" y="970.625" width="65" height="65" xlink:href="designspace-test/./img/ds_dataset0_20_14_thumb.png">
<title>14</title>
</image>
<image x="520.625" y="670.625" width="65" height="65" xlink:href="designspace-test/./img/ds_dataset0_20_19_thumb.png">
<title>19</title>
</image>
<image x="445.625" y="895.625" width="65" height="65" xlink:href="designspace-test/./img/ds_dataset0_20_7_thumb.png">
<title>7</title>
</image>
<image x="445.625" y="70.625" width="65" height="65" xlink:href="designspace-test/./img/ds_dataset0_20_2_thumb.png">
<title>2</title>
</image>
<image x="370.625" y="295.625" width="65" height="65" xlink:href="designspace-test/./img/ds_dataset0_20_16_thumb.png">
<title>16</title>
</image>
<image x="295.625" y="595.625" width="65" height="65" xlink:href="designspace-test/./img/ds_dataset0_20_11_thumb.png">
<title>11</title>
</image>
<image x="220.625" y="145.625" width="65" height="65" xlink:href="designspace-test/./img/ds_dataset0_20_13_thumb.png">
<title>13</title>
</image>
<image x="145.625" y="1120.625" width="65" height="65" xlink:href="designspace-test/./img/ds_dataset0_20_6_thumb.png">
<title>6</title>
</image>
<image x="70.625" y="670.625" width="65" height="65" xlink:href="designspace-test/./img/ds_dataset0_20_3_thumb.png">
<title>3</title>
</image>
</svg>