<?xml version="1.0" encoding="UTF-8"?>
<svg xmlns="http://www.w3.org/2000/svg" xmlns:xlink="http://www.w3.org/1999/xlink"
     width="1350" height="1350" viewBox="0 0 1350 1350">
<defs>
</defs>
<path d="M703.125,605.625 A54.31980515339478,54.31980515339478,0,0,1,698.9901510378278,626.4122894815039 M698.9901510378278,626.4122894815039 A54.319805153394256,54.319805153394256,0,0,1,687.2150974233027,644.0349025766973 M687.2150974233027,644.0349025766973" close="False" data-weight="1.0" stroke-width="6" fill="none" stroke="#ffff33" />
<path d="M711.125,532.0952591551869 C711.125,543.1599505709489,703.125,564.560308584238,703.125,575.625" close="False" data-weight="0.0" stroke-width="6" fill="none" stroke="#ffff33" />
<path d="M711.125,457.0952591551869 C711.125,467.61012957759345,711.125,488.63987042240655,711.125,499.1547408448131" close="False" data-weight="0.0" stroke-width="6" fill="none" stroke="#ffff33" />
<path d="M711.125,382.0952591551869 C711.125,392.61012957759345,711.125,413.63987042240655,711.125,424.1547408448131" close="False" data-weight="0.0" stroke-width="6" fill="none" stroke="#ffff33" />
<path d="M644.0349025766973,687.2150974233027 C636.0799512883486,695.1700487116514,620.1700487116514,711.0799512883486,612.2150974233027,719.0349025766973" close="False" data-weight="0.0" stroke-width="6" fill="none" stroke="#ffff33" />
<path d="M569.0349025766973,762.2150974233027 C561.0799512883486,770.1700487116514,545.1700487116514,786.0799512883486,537.2150974233027,794.0349025766973" close="False" data-weight="0.0" stroke-width="6" fill="none" stroke="#ffff33" />
<path d="M494.03490257669733,837.2150974233027 C486.0799512883487,845.1700487116514,470.1700487116513,861.0799512883486,462.21509742330267,869.0349025766973" close="False" data-weight="0.0" stroke-width="6" fill="none" stroke="#ffff33" />
<path d="M419.03490257669733,912.2150974233027 C411.0799512883487,920.1700487116514,395.1700487116513,936.0799512883486,387.21509742330267,944.0349025766973" close="False" data-weight="0.0" stroke-width="6" fill="none" stroke="#ffff33" />
<path d="M344.03490257669733,987.2150974233027 C336.0799512883487,995.1700487116514,320.1700487116513,1011.0799512883486,312.21509742330267,1019.0349025766973" close="False" data-weight="0.0" stroke-width="6" fill="none" stroke="#ffff33" />
<path d="M269.03490257669733,1062.2150974233027 C261.0799512883487,1070.1700487116514,245.1700487116513,1086.0799512883486,237.21509742330267,1094.0349025766973" close="False" data-weight="0.0" stroke-width="6" fill="none" stroke="#ffff33" />
<path d="M703.125,575.625 L703.125,605.625" close="False" data-weight="1.75" stroke-width="6" fill="none" stroke="#ffff33" />
<path d="M711.125,499.1547408448131 L711.125,532.0952591551869" close="False" data-weight="1.75" stroke-width="6" fill="none" stroke="#ffff33" />
<path d="M711.125,424.1547408448131 L711.125,457.0952591551869" close="False" data-weight="1.75" stroke-width="6" fill="none" stroke="#ffff33" />
<path d="M711.125,349.1547408448131 L711.125,382.0952591551869" close="False" data-weight="1.75" stroke-width="6" fill="none" stroke="#ffff33" />
<path d="M644.0349025766973,687.2150974233027 L687.2150974233027,644.0349025766973" close="False" data-weight="2.060660171779821" stroke-width="6" fill="none" stroke="#ffff33" />
<path d="M569.0349025766973,762.2150974233027 L612.2150974233027,719.0349025766973" close="False" data-weight="2.060660171779821" stroke-width="6" fill="none" stroke="#ffff33" />
<path d="M494.03490257669733,837.2150974233027 L537.2150974233027,794.0349025766973" close="False" data-weight="2.060660171779821" stroke-width="6" fill="none" stroke="#ffff33" />
<path d="M419.03490257669733,912.2150974233027 L462.21509742330267,869.0349025766973" close="False" data-weight="2.060660171779821" stroke-width="6" fill="none" stroke="#ffff33" />
<path d="M344.03490257669733,987.2150974233027 L387.21509742330267,944.0349025766973" close="False" data-weight="2.060660171779821" stroke-width="6" fill="none" stroke="#ffff33" />
<path d="M269.03490257669733,1062.2150974233027 L312.21509742330267,1019.0349025766973" close="False" data-weight="2.060660171779821" stroke-width="6" fill="none" stroke="#ffff33" />
<path d="M194.03490257669733,1137.2150974233027 L237.2150974233027,1094.0349025766973" close="False" data-weight="2.060660171779821" stroke-width="6" fill="none" stroke="#ffff33" />
<path d="M1153.125,605.625 A54.31980515339637,54.31980515339637,0,0,1,1148.990151037828,626.412289481504 M1148.990151037828,626.412289481504 A54.31980515339273,54.31980515339273,0,0,1,1137.2150974233027,644.0349025766973 M1137.2150974233027,644.0349025766973" close="False" data-weight="1.0" stroke-width="6" fill="none" stroke="#984ea3" />
<path d="M1153.125,530.625 C1153.125,541.875,1153.125,564.375,1153.125,575.625" close="False" data-weight="0.0" stroke-width="6" fill="none" stroke="#984ea3" />
<path d="M1153.125,455.625 C1153.125,466.875,1153.125,489.375,1153.125,500.625" close="False" data-weight="0.0" stroke-width="6" fill="none" stroke="#984ea3" />
<path d="M1003.125,1130.625 C1003.125,1141.875,1003.125,1164.375,1003.125,1175.625" close="False" data-weight="0.0" stroke-width="6" fill="none" stroke="#984ea3" />
<path d="M1003.125,1055.625 C1003.125,1066.875,1003.125,1089.375,1003.125,1100.625" close="False" data-weight="0.0" stroke-width="6" fill="none" stroke="#984ea3" />
<path d="M1019.0349025766973,762.2150974233027 A54.3198051533949,54.3198051533949,0,0,1,1001.4122894815039,773.9901510378279 M1001.4122894815039,773.9901510378279 A54.31980515339421,54.31980515339421,0,0,1,980.625,778.125 M980.625,778.125" close="False" data-weight="1.0" stroke-width="6" fill="none" stroke="#984ea3" />
<path d="M950.625,1003.125 C939.375,1003.125,916.875,1003.125,905.625,1003.125" close="False" data-weight="0.0" stroke-width="6" fill="none" stroke="#984ea3" />
<path d="M875.625,1003.125 C864.375,1003.125,841.875,1003.125,830.625,1003.125" close="False" data-weight="0.0" stroke-width="6" fill="none" stroke="#984ea3" />
<path d="M853.125,680.625 A54.31980515339478,54.31980515339478,0,0,0,857.2598489621722,701.4122894815039 M857.2598489621722,701.4122894815039 A54.319805153394256,54.319805153394256,0,0,0,869.0349025766973,719.0349025766973 M869.0349025766973,719.0349025766973" close="False" data-weight="1.0" stroke-width="6" fill="none" stroke="#984ea3" />
<path d="M853.125,530.625 C853.125,541.875,853.125,564.375,853.125,575.625" close="False" data-weight="0.0" stroke-width="6" fill="none" stroke="#984ea3" />
<path d="M853.125,500.625 A54.319805153394555,54.319805153394555,0,0,0,848.9901510378278,479.837710518496 M848.9901510378278,479.837710518496 A54.31980515339474,54.31980515339474,0,0,0,837.2150974233027,462.21509742330267 M837.2150974233027,462.21509742330267" close="False" data-weight="1.0" stroke-width="6" fill="none" stroke="#984ea3" />
<path d="M794.0349025766973,419.03490257669733 C786.0799512883486,411.0799512883487,770.1700487116514,395.1700487116513,762.2150974233027,387.21509742330267" close="False" data-weight="0.0" stroke-width="6" fill="none" stroke="#984ea3" />
<path d="M703.125,530.625 A101.0638173203613,101.0638173203613,0,0,1,700.6716533480728,552.7580125810576 M700.6716533480728,552.7580125810576 A38.622485006499396,38.622485006499396,0,0,1,690.296958812895,571.6098954365974 M690.296958812895,571.6098954365974" close="False" data-weight="1.0" stroke-width="6" fill="none" stroke="#984ea3" />
<path d="M703.125,455.625 C703.125,466.875,703.125,489.375,703.125,500.625" close="False" data-weight="0.0" stroke-width="6" fill="none" stroke="#984ea3" />
<path d="M703.125,380.625 C703.125,391.875,703.125,414.375,703.125,425.625" close="False" data-weight="0.0" stroke-width="6" fill="none" stroke="#984ea3" />
<path d="M650.2665898254845,1007.125 C639.1957949127423,1007.125,617.0542050872577,1007.125,605.9834101745155,1007.125" close="False" data-weight="0.0" stroke-width="6" fill="none" stroke="#984ea3" />
<path d="M646.6098954365974,615.296958812895 C638.6866867625761,623.2201674869164,620.1383060973241,636.1116939026759,612.2150974233027,644.0349025766973" close="False" data-weight="0.0" stroke-width="6" fill="none" stroke="#984ea3" />
<path d="M545.125,832.0952591551869 A85.70913402487201,85.70913402487201,0,0,1,543.1522315401234,850.3784956645943 M543.1522315401234,850.3784956645943 A31.540857881623168,31.540857881623168,0,0,1,534.6401045634026,865.953041187105 M534.6401045634026,865.953041187105" close="False" data-weight="1.0" stroke-width="6" fill="none" stroke="#984ea3" />
<path d="M545.125,757.0952591551869 C545.125,767.6101295775934,545.125,788.6398704224066,545.125,799.1547408448131" close="False" data-weight="0.0" stroke-width="6" fill="none" stroke="#984ea3" />
<path d="M1153.125,575.625 L1153.125,605.625" close="False" data-weight="1.75" stroke-width="6" fill="none" stroke="#984ea3" />
<path d="M1153.125,500.625 L1153.125,530.625" close="False" data-weight="1.75" stroke-width="6" fill="none" stroke="#984ea3" />
<path d="M1153.125,425.625 L1153.125,455.625" close="False" data-weight="1.75" stroke-width="6" fill="none" stroke="#984ea3" />
<path d="M1094.0349025766973,687.2150974233027 L1137.2150974233027,644.0349025766973" close="False" data-weight="2.060660171779821" stroke-width="6" fill="none" stroke="#984ea3" />
<path d="M1003.125,1175.625 L1003.125,1205.625" close="False" data-weight="1.75" stroke-width="6" fill="none" stroke="#984ea3" />
<path d="M1003.125,1100.625 L1003.125,1130.625" close="False" data-weight="1.75" stroke-width="6" fill="none" stroke="#984ea3" />
<path d="M1003.125,1025.625 L1003.125,1055.625" close="False" data-weight="1.75" stroke-width="6" fill="none" stroke="#984ea3" />
<path d="M1019.0349025766973,762.2150974233027 L1062.2150974233027,719.0349025766973" close="False" data-weight="2.060660171779821" stroke-width="6" fill="none" stroke="#984ea3" />
<path d="M950.625,1003.125 L980.625,1003.125" close="False" data-weight="1.75" stroke-width="6" fill="none" stroke="#984ea3" />
<path d="M950.625,778.125 L980.625,778.125" close="False" data-weight="1.75" stroke-width="6" fill="none" stroke="#984ea3" />
<path d="M875.625,1003.125 L905.625,1003.125" close="False" data-weight="1.75" stroke-width="6" fill="none" stroke="#984ea3" />
<path d="M869.0349025766973,719.0349025766973 L912.2150974233027,762.2150974233027" close="False" data-weight="2.060660171779821" stroke-width="6" fill="none" stroke="#984ea3" />
<path d="M853.125,650.625 L853.125,680.625" close="False" data-weight="1.75" stroke-width="6" fill="none" stroke="#984ea3" />
<path d="M853.125,575.625 L853.125,605.625" close="False" data-weight="1.75" stroke-width="6" fill="none" stroke="#984ea3" />
<path d="M853.125,500.625 L853.125,530.625" close="False" data-weight="1.75" stroke-width="6" fill="none" stroke="#984ea3" />
<path d="M800.625,1003.125 L830.625,1003.125" close="False" data-weight="1.75" stroke-width="6" fill="none" stroke="#984ea3" />
<path d="M794.0349025766973,419.03490257669733 L837.2150974233027,462.21509742330267" close="False" data-weight="2.060660171779821" stroke-width="6" fill="none" stroke="#984ea3" />
<path d="M725.2665898254845,1007.125 L755.9834101745155,1007.125" close="False" data-weight="1.75" stroke-width="6" fill="none" stroke="#984ea3" />
<path d="M703.125,500.625 L703.125,530.625" close="False" data-weight="1.75" stroke-width="6" fill="none" stroke="#984ea3" />
<path d="M703.125,425.625 L703.125,455.625" close="False" data-weight="1.75" stroke-width="6" fill="none" stroke="#984ea3" />
<path d="M703.125,350.625 L703.125,380.625" close="False" data-weight="1.75" stroke-width="6" fill="none" stroke="#984ea3" />
<path d="M719.0349025766973,344.03490257669733 L762.2150974233027,387.21509742330267" close="False" data-weight="2.060660171779821" stroke-width="6" fill="none" stroke="#984ea3" />
<path d="M650.2665898254845,1007.125 L680.9834101745155,1007.125" close="False" data-weight="1.75" stroke-width="6" fill="none" stroke="#984ea3" />
<path d="M646.6098954365974,615.296958812895 L690.296958812895,571.6098954365974" close="False" data-weight="2.060660171779821" stroke-width="6" fill="none" stroke="#984ea3" />
<path d="M575.2665898254845,1007.125 L605.9834101745155,1007.125" close="False" data-weight="1.75" stroke-width="6" fill="none" stroke="#984ea3" />
<path d="M545.125,799.1547408448131 L545.125,832.0952591551869" close="False" data-weight="1.75" stroke-width="6" fill="none" stroke="#984ea3" />
<path d="M545.125,724.1547408448131 L545.125,757.0952591551869" close="False" data-weight="1.75" stroke-width="6" fill="none" stroke="#984ea3" />
<path d="M569.0349025766973,687.2150974233027 L612.2150974233027,644.0349025766973" close="False" data-weight="2.060660171779821" stroke-width="6" fill="none" stroke="#984ea3" />
<path d="M494.03490257669733,944.0349025766973 L537.2150974233027,987.2150974233027" close="False" data-weight="2.060660171779821" stroke-width="6" fill="none" stroke="#984ea3" />
<path d="M490.9530411871124,909.6401045633952 L534.6401045634026,865.953041187105" close="False" data-weight="2.060660171779821" stroke-width="6" fill="none" stroke="#984ea3" />
<path d="M1100.2665898254845,399.125 A57.454526449187085,57.454526449187085,0,0,0,1078.2796944389988,403.49846541265475 M1078.2796944389988,403.49846541265475 A57.454526449186446,57.454526449186446,0,0,0,1059.6401045634027,415.953041187105 M1059.6401045634027,415.953041187105" close="False" data-weight="1.0" stroke-width="6" fill="none" stroke="#ff7f00" />
<path d="M1015.953041187105,459.6401045634026 C1008.1248070311793,467.4683387193282,992.4683387193282,483.1248070311794,984.6401045634026,490.953041187105" close="False" data-weight="0.0" stroke-width="6" fill="none" stroke="#ff7f00" />
<path d="M940.953041187105,534.6401045634026 C933.1248070311793,542.4683387193282,917.4683387193282,558.1248070311793,909.6401045634026,565.953041187105" close="False" data-weight="0.0" stroke-width="6" fill="none" stroke="#ff7f00" />
<path d="M800.625,628.125 C789.375,628.125,766.875,628.125,755.625,628.125" close="False" data-weight="0.0" stroke-width="6" fill="none" stroke="#ff7f00" />
<path d="M725.625,628.125 C714.375,628.125,691.875,628.125,680.625,628.125" close="False" data-weight="0.0" stroke-width="6" fill="none" stroke="#ff7f00" />
<path d="M650.625,628.125 A25.618833910302328,25.618833910302328,0,0,0,633.3082830571577,634.8637924578812 M633.3082830571577,634.8637924578812 A461.8796251654269,461.8796251654269,0,0,0,618.9115818915293,648.6521266074554 M618.9115818915293,648.6521266074554" close="False" data-weight="1.0" stroke-width="6" fill="none" stroke="#ff7f00" />
<path d="M553.125,830.625 A101.06381732036135,101.06381732036135,0,0,1,550.6716533480728,852.7580125810576 M550.6716533480728,852.7580125810576 A38.622485006499396,38.622485006499396,0,0,1,540.296958812895,871.6098954365974 M540.296958812895,871.6098954365974" close="False" data-weight="1.0" stroke-width="6" fill="none" stroke="#ff7f00" />
<path d="M553.125,755.625 C553.125,766.875,553.125,789.375,553.125,800.625" close="False" data-weight="0.0" stroke-width="6" fill="none" stroke="#ff7f00" />
<path d="M419.03490257669733,869.0349025766973 C411.0799512883487,861.0799512883486,395.1700487116513,845.1700487116514,387.21509742330267,837.2150974233027" close="False" data-weight="0.0" stroke-width="6" fill="none" stroke="#ff7f00" />
<path d="M403.125,530.625 A54.319805153393474,54.319805153393474,0,0,1,398.99015103782773,551.4122894815039 M398.99015103782773,551.4122894815039 A54.319805153395706,54.319805153395706,0,0,1,387.21509742330267,569.0349025766973 M387.21509742330267,569.0349025766973" close="False" data-weight="1.0" stroke-width="6" fill="none" stroke="#ff7f00" />
<path d="M403.125,455.625 C403.125,466.875,403.125,489.375,403.125,500.625" close="False" data-weight="0.0" stroke-width="6" fill="none" stroke="#ff7f00" />
<path d="M403.125,380.625 C403.125,391.875,403.125,414.375,403.125,425.625" close="False" data-weight="0.0" stroke-width="6" fill="none" stroke="#ff7f00" />
<path d="M425.625,103.125 C414.375,103.125,391.875,103.125,380.625,103.125" close="False" data-weight="0.0" stroke-width="6" fill="none" stroke="#ff7f00" />
<path d="M344.03490257669733,794.0349025766973 C336.0799512883487,786.0799512883486,320.1700487116513,770.1700487116514,312.21509742330267,762.2150974233027" close="False" data-weight="0.0" stroke-width="6" fill="none" stroke="#ff7f00" />
<path d="M344.03490257669733,269.03490257669733 C336.07995128834864,261.07995128834864,320.17004871165136,245.17004871165133,312.21509742330267,237.21509742330267" close="False" data-weight="0.0" stroke-width="6" fill="none" stroke="#ff7f00" />
<path d="M350.625,103.125 A54.319805153394526,54.319805153394526,0,0,0,329.837710518496,107.25984896217224 M329.837710518496,107.25984896217224 A54.31980515339479,54.31980515339479,0,0,0,312.21509742330267,119.03490257669732 M312.21509742330267,119.03490257669732" close="False" data-weight="1.0" stroke-width="6" fill="none" stroke="#ff7f00" />
<path d="M269.03490257669733,719.0349025766973 A35.85816626156032,35.85816626156032,0,0,0,251.53230144516326,709.4027538039628 M251.53230144516326,709.4027538039628 A93.83039863674742,93.83039863674742,0,0,0,230.98341017451546,707.125 M230.98341017451546,707.125" close="False" data-weight="1.0" stroke-width="6" fill="none" stroke="#ff7f00" />
<path d="M275.625,628.125 C264.375,628.125,241.875,628.125,230.625,628.125" close="False" data-weight="0.0" stroke-width="6" fill="none" stroke="#ff7f00" />
<path d="M200.26658982548452,707.125 C189.19579491274226,707.125,167.05420508725774,707.125,155.98341017451548,707.125" close="False" data-weight="0.0" stroke-width="6" fill="none" stroke="#ff7f00" />
<path d="M200.625,628.125 A54.319805153394555,54.319805153394555,0,0,0,179.837710518496,632.2598489621722 M179.837710518496,632.2598489621722 A54.31980515339474,54.31980515339474,0,0,0,162.21509742330267,644.0349025766973 M162.21509742330267,644.0349025766973" close="False" data-weight="1.0" stroke-width="6" fill="none" stroke="#ff7f00" />
<path d="M1100.2665898254845,399.125 L1130.9834101745155,399.125" close="False" data-weight="1.75" stroke-width="6" fill="none" stroke="#ff7f00" />
<path d="M1015.953041187105,459.6401045634026 L1059.6401045634027,415.953041187105" close="False" data-weight="2.060660171779821" stroke-width="6" fill="none" stroke="#ff7f00" />
<path d="M940.953041187105,534.6401045634026 L984.6401045634026,490.953041187105" close="False" data-weight="2.060660171779821" stroke-width="6" fill="none" stroke="#ff7f00" />
<path d="M865.953041187105,609.6401045634026 L909.6401045634026,565.953041187105" close="False" data-weight="2.060660171779821" stroke-width="6" fill="none" stroke="#ff7f00" />
<path d="M800.625,628.125 L830.625,628.125" close="False" data-weight="1.75" stroke-width="6" fill="none" stroke="#ff7f00" />
<path d="M725.625,628.125 L755.625,628.125" close="False" data-weight="1.75" stroke-width="6" fill="none" stroke="#ff7f00" />
<path d="M650.625,628.125 L680.625,628.125" close="False" data-weight="1.75" stroke-width="6" fill="none" stroke="#ff7f00" />
<path d="M553.125,800.625 L553.125,830.625" close="False" data-weight="1.75" stroke-width="6" fill="none" stroke="#ff7f00" />
<path d="M553.125,725.625 L553.125,755.625" close="False" data-weight="1.75" stroke-width="6" fill="none" stroke="#ff7f00" />
<path d="M573.6521266074594,693.9115818915254 L618.9115818915294,648.6521266074554" close="False" data-weight="2.060660171779821" stroke-width="6" fill="none" stroke="#ff7f00" />
<path d="M496.60989543658997,915.2969588129025 L540.296958812895,871.6098954365974" close="False" data-weight="2.060660171779821" stroke-width="6" fill="none" stroke="#ff7f00" />
<path d="M419.03490257669733,869.0349025766973 L462.21509742330267,912.2150974233027" close="False" data-weight="2.060660171779821" stroke-width="6" fill="none" stroke="#ff7f00" />
<path d="M403.125,500.625 L403.125,530.625" close="False" data-weight="1.75" stroke-width="6" fill="none" stroke="#ff7f00" />
<path d="M403.125,425.625 L403.125,455.625" close="False" data-weight="1.75" stroke-width="6" fill="none" stroke="#ff7f00" />
<path d="M403.125,350.625 L403.125,380.625" close="False" data-weight="1.75" stroke-width="6" fill="none" stroke="#ff7f00" />
<path d="M425.625,103.125 L455.625,103.125" close="False" data-weight="1.75" stroke-width="6" fill="none" stroke="#ff7f00" />
<path d="M344.03490257669733,794.0349025766973 L387.21509742330267,837.2150974233027" close="False" data-weight="2.060660171779821" stroke-width="6" fill="none" stroke="#ff7f00" />
<path d="M344.03490257669733,612.2150974233027 L387.21509742330267,569.0349025766973" close="False" data-weight="2.060660171779821" stroke-width="6" fill="none" stroke="#ff7f00" />
<path d="M344.03490257669733,269.03490257669733 L387.21509742330267,312.21509742330267" close="False" data-weight="2.060660171779821" stroke-width="6" fill="none" stroke="#ff7f00" />
<path d="M350.625,103.125 L380.625,103.125" close="False" data-weight="1.75" stroke-width="6" fill="none" stroke="#ff7f00" />
<path d="M269.03490257669733,719.0349025766973 L312.21509742330267,762.2150974233027" close="False" data-weight="2.060660171779821" stroke-width="6" fill="none" stroke="#ff7f00" />
<path d="M275.625,628.125 L305.625,628.125" close="False" data-weight="1.75" stroke-width="6" fill="none" stroke="#ff7f00" />
<path d="M269.03490257669733,194.03490257669733 L312.21509742330267,237.2150974233027" close="False" data-weight="2.060660171779821" stroke-width="6" fill="none" stroke="#ff7f00" />
<path d="M269.03490257669733,162.21509742330267 L312.21509742330267,119.0349025766973" close="False" data-weight="2.060660171779821" stroke-width="6" fill="none" stroke="#ff7f00" />
<path d="M200.26658982548452,707.125 L230.98341017451548,707.125" close="False" data-weight="1.75" stroke-width="6" fill="none" stroke="#ff7f00" />
<path d="M200.625,628.125 L230.625,628.125" close="False" data-weight="1.75" stroke-width="6" fill="none" stroke="#ff7f00" />
<path d="M125.26658982548453,707.125 L155.98341017451548,707.125" close="False" data-weight="1.75" stroke-width="6" fill="none" stroke="#ff7f00" />
<path d="M119.03490257669732,687.2150974233027 L162.2150974233027,644.0349025766973" close="False" data-weight="2.060660171779821" stroke-width="6" fill="none" stroke="#ff7f00" />
<path d="M869.0349025766973,837.2150974233027 C861.0799512883486,845.1700487116514,845.1700487116514,861.0799512883486,837.2150974233027,869.0349025766973" close="False" data-weight="0.0" stroke-width="6" fill="none" stroke="#4daf4a" />
<path d="M794.0349025766973,912.2150974233027 A54.3198051533949,54.3198051533949,0,0,0,782.2598489621721,929.8377105184961 M782.2598489621721,929.8377105184961 A54.31980515339421,54.31980515339421,0,0,0,778.125,950.625 M778.125,950.625" close="False" data-weight="1.0" stroke-width="6" fill="none" stroke="#4daf4a" />
<path d="M650.2665898254845,999.125 C639.1957949127423,999.125,617.0542050872577,999.125,605.9834101745155,999.125" close="False" data-weight="0.0" stroke-width="6" fill="none" stroke="#4daf4a" />
<path d="M553.125,905.625 C553.125,916.875,553.125,939.375,553.125,950.625" close="False" data-weight="0.0" stroke-width="6" fill="none" stroke="#4daf4a" />
<path d="M561.125,832.0952591551869 C561.125,843.1599505709489,553.125,864.560308584238,553.125,875.625" close="False" data-weight="0.0" stroke-width="6" fill="none" stroke="#4daf4a" />
<path d="M561.125,757.0952591551869 C561.125,767.6101295775934,561.125,788.6398704224066,561.125,799.1547408448131" close="False" data-weight="0.0" stroke-width="6" fill="none" stroke="#4daf4a" />
<path d="M500.625,703.125 C489.375,703.125,466.875,703.125,455.625,703.125" close="False" data-weight="0.0" stroke-width="6" fill="none" stroke="#4daf4a" />
<path d="M425.625,703.125 C414.375,703.125,391.875,703.125,380.625,703.125" close="False" data-weight="0.0" stroke-width="6" fill="none" stroke="#4daf4a" />
<path d="M350.625,703.125 C339.375,703.125,316.875,703.125,305.625,703.125" close="False" data-weight="0.0" stroke-width="6" fill="none" stroke="#4daf4a" />
<path d="M275.625,703.125 C264.41989083568683,703.125,242.18851933882866,699.125,230.98341017451548,699.125" close="False" data-weight="0.0" stroke-width="6" fill="none" stroke="#4daf4a" />
<path d="M200.26658982548452,699.125 C189.19579491274226,699.125,167.05420508725774,699.125,155.98341017451548,699.125" close="False" data-weight="0.0" stroke-width="6" fill="none" stroke="#4daf4a" />
<path d="M869.0349025766973,837.2150974233027 L912.2150974233027,794.0349025766973" close="False" data-weight="2.060660171779821" stroke-width="6" fill="none" stroke="#4daf4a" />
<path d="M778.125,950.625 L778.125,980.625" close="False" data-weight="1.75" stroke-width="6" fill="none" stroke="#4daf4a" />
<path d="M794.0349025766973,912.2150974233027 L837.2150974233027,869.0349025766973" close="False" data-weight="2.060660171779821" stroke-width="6" fill="none" stroke="#4daf4a" />
<path d="M725.2665898254845,999.125 L755.9834101745155,999.125" close="False" data-weight="1.75" stroke-width="6" fill="none" stroke="#4daf4a" />
<path d="M650.2665898254845,999.125 L680.9834101745155,999.125" close="False" data-weight="1.75" stroke-width="6" fill="none" stroke="#4daf4a" />
<path d="M575.2665898254845,999.125 L605.9834101745155,999.125" close="False" data-weight="1.75" stroke-width="6" fill="none" stroke="#4daf4a" />
<path d="M553.125,950.625 L553.125,980.625" close="False" data-weight="1.75" stroke-width="6" fill="none" stroke="#4daf4a" />
<path d="M553.125,875.625 L553.125,905.625" close="False" data-weight="1.75" stroke-width="6" fill="none" stroke="#4daf4a" />
<path d="M561.125,799.1547408448131 L561.125,832.0952591551869" close="False" data-weight="1.75" stroke-width="6" fill="none" stroke="#4daf4a" />
<path d="M561.125,724.1547408448131 L561.125,757.0952591551869" close="False" data-weight="1.75" stroke-width="6" fill="none" stroke="#4daf4a" />
<path d="M500.625,703.125 L530.625,703.125" close="False" data-weight="1.75" stroke-width="6" fill="none" stroke="#4daf4a" />
<path d="M425.625,703.125 L455.625,703.125" close="False" data-weight="1.75" stroke-width="6" fill="none" stroke="#4daf4a" />
<path d="M350.625,703.125 L380.625,703.125" close="False" data-weight="1.75" stroke-width="6" fill="none" stroke="#4daf4a" />
<path d="M275.625,703.125 L305.625,703.125" close="False" data-weight="1.75" stroke-width="6" fill="none" stroke="#4daf4a" />
<path d="M200.26658982548452,699.125 L230.98341017451548,699.125" close="False" data-weight="1.75" stroke-width="6" fill="none" stroke="#4daf4a" />
<path d="M125.26658982548453,699.125 L155.98341017451548,699.125" close="False" data-weight="1.75" stroke-width="6" fill="none" stroke="#4daf4a" />
<path d="M695.125,532.0952591551869 A85.70913402487201,85.70913402487201,0,0,1,693.1522315401234,550.3784956645943 M693.1522315401234,550.3784956645943 A31.540857881623168,31.540857881623168,0,0,1,684.6401045634026,565.953041187105 M684.6401045634026,565.953041187105" close="False" data-weight="1.0" stroke-width="6" fill="none" stroke="#377eb8" />
<path d="M695.125,457.0952591551869 C695.125,467.61012957759345,695.125,488.63987042240655,695.125,499.1547408448131" close="False" data-weight="0.0" stroke-width="6" fill="none" stroke="#377eb8" />
<path d="M695.125,382.0952591551869 C695.125,392.61012957759345,695.125,413.63987042240655,695.125,424.1547408448131" close="False" data-weight="0.0" stroke-width="6" fill="none" stroke="#377eb8" />
<path d="M640.953041187105,609.6401045634026 C633.2886678601375,617.3044778903701,615.2622467195121,629.6740447815031,607.5978733925446,637.3384181084706" close="False" data-weight="0.0" stroke-width="6" fill="none" stroke="#377eb8" />
<path d="M644.0349025766973,269.03490257669733 C636.0799512883486,261.0799512883487,620.1700487116514,245.1700487116513,612.2150974233027,237.21509742330267" close="False" data-weight="0.0" stroke-width="6" fill="none" stroke="#377eb8" />
<path d="M569.0349025766973,194.0349025766973 C561.0799512883486,186.07995128834867,545.1700487116514,170.1700487116513,537.2150974233027,162.21509742330267" close="False" data-weight="0.0" stroke-width="6" fill="none" stroke="#377eb8" />
<path d="M695.125,499.1547408448131 L695.125,532.0952591551869" close="False" data-weight="1.75" stroke-width="6" fill="none" stroke="#377eb8" />
<path d="M695.125,424.1547408448131 L695.125,457.0952591551869" close="False" data-weight="1.75" stroke-width="6" fill="none" stroke="#377eb8" />
<path d="M695.125,349.1547408448131 L695.125,382.0952591551869" close="False" data-weight="1.75" stroke-width="6" fill="none" stroke="#377eb8" />
<path d="M640.953041187105,609.6401045634026 L684.6401045634026,565.953041187105" close="False" data-weight="2.060660171779821" stroke-width="6" fill="none" stroke="#377eb8" />
<path d="M644.0349025766973,269.03490257669733 L687.2150974233027,312.21509742330267" close="False" data-weight="2.060660171779821" stroke-width="6" fill="none" stroke="#377eb8" />
<path d="M562.3384181084667,682.5978733925484 L607.5978733925446,637.3384181084706" close="False" data-weight="2.060660171779821" stroke-width="6" fill="none" stroke="#377eb8" />
<path d="M569.0349025766973,194.03490257669733 L612.2150974233027,237.2150974233027" close="False" data-weight="2.060660171779821" stroke-width="6" fill="none" stroke="#377eb8" />
<path d="M494.03490257669733,119.03490257669732 L537.2150974233027,162.2150974233027" close="False" data-weight="2.060660171779821" stroke-width="6" fill="none" stroke="#377eb8" />
<path d="M1153.125,305.625 C1153.125,316.875,1153.125,339.375,1153.125,350.625" close="False" data-weight="0.0" stroke-width="6" fill="none" stroke="#e41a1c" />
<path d="M1153.125,230.625 C1153.125,241.875,1153.125,264.375,1153.125,275.625" close="False" data-weight="0.0" stroke-width="6" fill="none" stroke="#e41a1c" />
<path d="M1100.2665898254845,407.125 A49.45452644918544,49.45452644918544,0,0,0,1081.3411618979196,410.88950167274515 M1081.3411618979196,410.88950167274515 A49.45452644918803,49.45452644918803,0,0,0,1065.2969588128951,421.6098954365974 M1065.2969588128951,421.6098954365974" close="False" data-weight="1.0" stroke-width="6" fill="none" stroke="#e41a1c" />
<path d="M1021.6098954365974,465.296958812895 C1013.7816612806718,473.1251929688206,998.1251929688207,488.7816612806718,990.296958812895,496.6098954365974" close="False" data-weight="0.0" stroke-width="6" fill="none" stroke="#e41a1c" />
<path d="M946.6098954365974,540.296958812895 C938.7816612806718,548.1251929688207,923.1251929688207,563.7816612806718,915.296958812895,571.6098954365974" close="False" data-weight="0.0" stroke-width="6" fill="none" stroke="#e41a1c" />
<path d="M1153.125,350.625 L1153.125,380.625" close="False" data-weight="1.75" stroke-width="6" fill="none" stroke="#e41a1c" />
<path d="M1153.125,275.625 L1153.125,305.625" close="False" data-weight="1.75" stroke-width="6" fill="none" stroke="#e41a1c" />
<path d="M1153.125,200.625 L1153.125,230.625" close="False" data-weight="1.75" stroke-width="6" fill="none" stroke="#e41a1c" />
<path d="M1100.2665898254845,407.125 L1130.9834101745155,407.125" close="False" data-weight="1.75" stroke-width="6" fill="none" stroke="#e41a1c" />
<path d="M1100.625,178.125 L1130.625,178.125" close="False" data-weight="1.75" stroke-width="6" fill="none" stroke="#e41a1c" />
<path d="M1021.6098954365974,465.296958812895 L1065.2969588128951,421.6098954365974" close="False" data-weight="2.060660171779821" stroke-width="6" fill="none" stroke="#e41a1c" />
<path d="M946.6098954365974,540.296958812895 L990.296958812895,496.6098954365974" close="False" data-weight="2.060660171779821" stroke-width="6" fill="none" stroke="#e41a1c" />
<path d="M871.6098954365974,615.296958812895 L915.296958812895,571.6098954365974" close="False" data-weight="2.060660171779821" stroke-width="6" fill="none" stroke="#e41a1c" />
<image x="1120.625" y="370.625" width="65" height="65" xlink:href="designspace-test/./img/ds_dataset0_20_15_thumb.png">
<title>15</title>
</image>
<image x="1120.625" y="145.625" width="65" height="65" xlink:href="designspace-test/./img/ds_dataset0_20_9_thumb.png">
<title>9</title>
</image>
<image x="1045.625" y="670.625" width="65" height="65" xlink:href="designspace-test/./img/ds_dataset0_20_10_thumb.png">
<title>10</title>
</image>
<image x="1045.625" y="145.625" width="65" height="65" xlink:href="designspace-test/./img/ds_dataset0_20_1_thumb.png">
<title>1</title>
</image>
<image x="970.625" y="1195.625" width="65" height="65" xlink:href="designspace-test/./img/ds_dataset0_20_5_thumb.png">
<title>5</title>
</image>
<image x="970.625" y="970.625" width="65" height="65" xlink:href="designspace-test/./img/ds_dataset0_20_17_thumb.png">
<title>17</title>
</image>
<image x="895.625" y="745.625" width="65" height="65" xlink:href="designspace-test/./img/ds_dataset0_20_0_thumb.png">
<title>0</title>
</image>
<image x="820.625" y="595.625" width="65" height="65" xlink:href="designspace-test/./img/ds_dataset0_20_4_thumb.png">
<title>4</title>
</image>
<image x="745.625" y="970.625" width="65" height="65" xlink:href="designspace-test/./img/ds_dataset0_20_12_thumb.png">
<title>12</title>
</image>
<image x="670.625" y="970.625" width="65" height="65" xlink:href="designspace-test/./img/ds_dataset0_20_8_thumb.png">
<title>8</title>
</image>
<image x="670.625" y="295.625" width="65" height="65" xlink:href="designspace-test/./img/ds_dataset0_20_18_thumb.png">
<title>18</title>
</image>
<image x="520.625" y="970.625" width="65" height="65" xlink:href="designspace-test/./img/ds_dataset0_20_14_thumb.png">
<title>14</title>
</image>
<image x="520.625" y="670.625" width="65" height="65" xlink:href="designspace-test/./img/ds_dataset0_20_19_thumb.png">
<title>19</title>
</image>
<image x="445.625" y="895.625" width="65" height="65" xlink:href="designspace-test/./img/ds_dataset0_20_7_thumb.png">
<title>7</title>
</image>
<image x="445.625" y="70.625" width="65" height="65" xlink:href="designspace-test/./img/ds_dataset0_20_2_thumb.png">
<title>2</title>
</image>
<image x="370.625" y="295.625" width="65" height="65" xlink:href="designspace-test/./img/ds_dataset0_20_16_thumb.png">
<title>16</title>
</image>
<image x="295.625" y="595.625" width="65" height="65" xlink:href="designspace-test/./img/ds_dataset0_20_11_thumb.png">
<title>11</title>
</image>
<image x="220.625" y="145.625" width="65" height="65" xlink:href="designspace-test/./img/ds_dataset0_20_13_thumb.png">
<title>13</title>
</image>
<image x="145.625" y="1120.625" width="65" height="65" xlink:href="designspace-test/./img/ds_dataset0_20_6_thumb.png">
<title>6</title>
</image>
<image x="70.625" y="670.625" width="65" height="65" xlink:href="designspace-test/./img/ds_dataset0_20_3_thumb.png">
<title>3</title>
</image>
</svg>