<?xml version="1.0" encoding="UTF-8"?>
<svg xmlns="http://www.w3.org/2000/svg" xmlns:xlink="http://www.w3.org/1999/xlink"
     width="1350" height="1350" viewBox="0 0 1350 1350">
<defs>
</defs>
<path d="M944.0349025766973,869.0349025766973 C936.0799512883486,861.0799512883486,920.1700487116514,845.1700487116514,912.2150974233027,837.2150974233027" close="False" data-weight="0.0" stroke-width="6" fill="none" stroke="#ffff33" />
<path d="M869.0349025766973,794.0349025766973 C861.0799512883486,786.0799512883486,845.1700487116514,770.1700487116514,837.2150974233027,762.2150974233027" close="False" data-weight="0.0" stroke-width="6" fill="none" stroke="#ffff33" />
<path d="M794.0349025766973,719.0349025766973 C786.0799512883486,711.0799512883486,770.1700487116514,695.1700487116514,762.2150974233027,687.2150974233027" close="False" data-weight="0.0" stroke-width="6" fill="none" stroke="#ffff33" />
<path d="M719.0349025766973,644.0349025766973 C711.0799512883486,636.0799512883486,695.1700487116514,620.1700487116514,687.2150974233027,612.2150974233027" close="False" data-weight="0.0" stroke-width="6" fill="none" stroke="#ffff33" />
<path d="M644.0349025766973,569.0349025766973 C636.0799512883486,561.0799512883486,620.1700487116514,545.1700487116514,612.2150974233027,537.2150974233027" close="False" data-weight="0.0" stroke-width="6" fill="none" stroke="#ffff33" />
<path d="M569.0349025766973,494.03490257669733 C561.0799512883486,486.0799512883487,545.1700487116514,470.1700487116513,537.2150974233027,462.21509742330267" close="False" data-weight="0.0" stroke-width="6" fill="none" stroke="#ffff33" />
<path d="M494.03490257669733,419.03490257669733 C486.07995128834864,411.07995128834864,470.17004871165136,395.17004871165136,462.21509742330267,387.21509742330267" close="False" data-weight="0.0" stroke-width="6" fill="none" stroke="#ffff33" />
<path d="M403.125,305.625 A54.319805153394555,54.319805153394555,0,0,0,407.2598489621722,326.412289481504 M407.2598489621722,326.412289481504 A54.319805153394825,54.319805153394825,0,0,0,419.03490257669733,344.03490257669733 M419.03490257669733,344.03490257669733" close="False" data-weight="1.0" stroke-width="6" fill="none" stroke="#ffff33" />
<path d="M944.0349025766973,869.0349025766973 L987.2150974233027,912.2150974233027" close="False" data-weight="2.060660171779821" stroke-width="6" fill="none" stroke="#ffff33" />
<path d="M869.0349025766973,794.0349025766973 L912.2150974233027,837.2150974233027" close="False" data-weight="2.060660171779821" stroke-width="6" fill="none" stroke="#ffff33" />
<path d="M794.0349025766973,719.0349025766973 L837.2150974233027,762.2150974233027" close="False" data-weight="2.060660171779821" stroke-width="6" fill="none" stroke="#ffff33" />
<path d="M719.0349025766973,644.0349025766973 L762.2150974233027,687.2150974233027" close="False" data-weight="2.060660171779821" stroke-width="6" fill="none" stroke="#ffff33" />
<path d="M644.0349025766973,569.0349025766973 L687.2150974233027,612.2150974233027" close="False" data-weight="2.060660171779821" stroke-width="6" fill="none" stroke="#ffff33" />
<path d="M569.0349025766973,494.03490257669733 L612.2150974233027,537.2150974233027" close="False" data-weight="2.060660171779821" stroke-width="6" fill="none" stroke="#ffff33" />
<path d="M494.03490257669733,419.03490257669733 L537.2150974233027,462.21509742330267" close="False" data-weight="2.060660171779821" stroke-width="6" fill="none" stroke="#ffff33" />
<path d="M419.03490257669733,344.03490257669733 L462.21509742330267,387.21509742330267" close="False" data-weight="2.060660171779821" stroke-width="6" fill="none" stroke="#ffff33" />
<path d="M403.125,275.625 L403.125,305.625" close="False" data-weight="1.75" stroke-width="6" fill="none" stroke="#ffff33" />
<path d="M1228.125,380.625 C1228.125,391.83010916431317,1224.125,414.06148066117134,1224.125,425.2665898254845" close="False" data-weight="0.0" stroke-width="6" fill="none" stroke="#984ea3" />
<path d="M1228.125,305.625 C1228.125,316.875,1228.125,339.375,1228.125,350.625" close="False" data-weight="0.0" stroke-width="6" fill="none" stroke="#984ea3" />
<path d="M1228.125,275.625 A54.3198051533966,54.3198051533966,0,0,0,1223.990151037828,254.8377105184959 M1223.990151037828,254.8377105184959 A54.31980515339265,54.31980515339265,0,0,0,1212.2150974233027,237.21509742330267 M1212.2150974233027,237.21509742330267" close="False" data-weight="1.0" stroke-width="6" fill="none" stroke="#984ea3" />
<path d="M1153.125,1130.625 C1153.125,1141.875,1153.125,1164.375,1153.125,1175.625" close="False" data-weight="0.0" stroke-width="6" fill="none" stroke="#984ea3" />
<path d="M1153.125,1055.625 C1153.125,1066.875,1153.125,1089.375,1153.125,1100.625" close="False" data-weight="0.0" stroke-width="6" fill="none" stroke="#984ea3" />
<path d="M1153.125,1025.625 A54.31980515339637,54.31980515339637,0,0,0,1148.990151037828,1004.837710518496 M1148.990151037828,1004.837710518496 A54.31980515339265,54.31980515339265,0,0,0,1137.2150974233027,987.2150974233027 M1137.2150974233027,987.2150974233027" close="False" data-weight="1.0" stroke-width="6" fill="none" stroke="#984ea3" />
<path d="M1165.9530411871049,534.6401045634026 C1158.124807031181,542.4683387193263,1142.4683387193336,558.1248070311738,1134.64010456341,565.9530411870975" close="False" data-weight="0.0" stroke-width="6" fill="none" stroke="#984ea3" />
<path d="M1094.0349025766973,944.0349025766973 C1086.0799512883486,936.0799512883486,1070.1700487116514,920.1700487116514,1062.2150974233027,912.2150974233027" close="False" data-weight="0.0" stroke-width="6" fill="none" stroke="#984ea3" />
<path d="M1090.9530411870976,609.6401045634101 C1083.1248070311758,617.468338719332,1067.4683387193318,633.1248070311756,1059.64010456341,640.9530411870975" close="False" data-weight="0.0" stroke-width="6" fill="none" stroke="#984ea3" />
<path d="M999.125,755.9834101745155 C999.125,767.0542050872577,999.125,789.1957949127423,999.125,800.2665898254845" close="False" data-weight="0.0" stroke-width="6" fill="none" stroke="#984ea3" />
<path d="M1015.9530411870975,684.6401045634101 A57.45452644914915,57.45452644914915,0,0,0,1003.498465412652,703.2796944390029 M1003.498465412652,703.2796944390029 A57.4545264492001,57.4545264492001,0,0,0,999.125,725.2665898254845 M999.125,725.2665898254845" close="False" data-weight="1.0" stroke-width="6" fill="none" stroke="#984ea3" />
<path d="M940.953041187105,909.6401045634026 A49.45452644918767,49.45452644918767,0,0,1,924.9088381020804,920.360498327255 M924.9088381020804,920.360498327255 A49.45452644918612,49.45452644918612,0,0,1,905.9834101745155,924.125 M905.9834101745155,924.125" close="False" data-weight="1.0" stroke-width="6" fill="none" stroke="#984ea3" />
<path d="M875.2665898254845,924.125 C864.1957949127423,924.125,842.0542050872577,924.125,830.9834101745155,924.125" close="False" data-weight="0.0" stroke-width="6" fill="none" stroke="#984ea3" />
<path d="M800.2665898254845,924.125 C789.1957949127423,924.125,767.0542050872577,924.125,755.9834101745155,924.125" close="False" data-weight="0.0" stroke-width="6" fill="none" stroke="#984ea3" />
<path d="M725.2665898254845,924.125 C714.1957949127423,924.125,692.0542050872577,924.125,680.9834101745155,924.125" close="False" data-weight="0.0" stroke-width="6" fill="none" stroke="#984ea3" />
<path d="M725.2665898254845,849.125 A57.45452644918623,57.45452644918623,0,0,0,703.2796944389988,853.4984654126548 M703.2796944389988,853.4984654126548 A57.45452644918757,57.45452644918757,0,0,0,684.6401045634026,865.953041187105 M684.6401045634026,865.953041187105" close="False" data-weight="1.0" stroke-width="6" fill="none" stroke="#984ea3" />
<path d="M699.125,755.9834101745155 A57.45452644918623,57.45452644918623,0,0,0,703.4984654126548,777.9703055610012 M703.4984654126548,777.9703055610012 A57.45452644918757,57.45452644918757,0,0,0,715.953041187105,796.6098954365974 M715.953041187105,796.6098954365974" close="False" data-weight="1.0" stroke-width="6" fill="none" stroke="#984ea3" />
<path d="M699.125,680.9834101745155 C699.125,692.0542050872577,699.125,714.1957949127423,699.125,725.2665898254845" close="False" data-weight="0.0" stroke-width="6" fill="none" stroke="#984ea3" />
<path d="M699.125,605.9834101745155 C699.125,617.0542050872577,699.125,639.1957949127423,699.125,650.2665898254845" close="False" data-weight="0.0" stroke-width="6" fill="none" stroke="#984ea3" />
<path d="M699.125,530.9834101745155 C699.125,542.0542050872577,699.125,564.1957949127423,699.125,575.2665898254845" close="False" data-weight="0.0" stroke-width="6" fill="none" stroke="#984ea3" />
<path d="M699.125,455.9834101745155 C699.125,467.05420508725774,699.125,489.19579491274226,699.125,500.2665898254845" close="False" data-weight="0.0" stroke-width="6" fill="none" stroke="#984ea3" />
<path d="M699.125,380.9834101745155 C699.125,392.05420508725774,699.125,414.19579491274226,699.125,425.2665898254845" close="False" data-weight="0.0" stroke-width="6" fill="none" stroke="#984ea3" />
<path d="M650.625,328.125 C639.375,328.125,616.875,328.125,605.625,328.125" close="False" data-weight="0.0" stroke-width="6" fill="none" stroke="#984ea3" />
<path d="M575.2665898254845,924.125 C564.1957949127423,924.125,542.0542050872577,924.125,530.9834101745155,924.125" close="False" data-weight="0.0" stroke-width="6" fill="none" stroke="#984ea3" />
<path d="M575.625,328.125 C564.375,328.125,541.875,328.125,530.625,328.125" close="False" data-weight="0.0" stroke-width="6" fill="none" stroke="#984ea3" />
<path d="M500.625,328.125 A54.319805153394555,54.319805153394555,0,0,1,479.837710518496,323.9901510378278 M479.837710518496,323.9901510378278 A54.319805153394825,54.319805153394825,0,0,1,462.21509742330267,312.21509742330267 M462.21509742330267,312.21509742330267" close="False" data-weight="1.0" stroke-width="6" fill="none" stroke="#984ea3" />
<path d="M425.2665898254845,924.125 C414.19579491274226,924.125,392.05420508725774,924.125,380.9834101745155,924.125" close="False" data-weight="0.0" stroke-width="6" fill="none" stroke="#984ea3" />
<path d="M350.2665898254845,924.125 A49.454526449186915,49.454526449186915,0,0,1,331.34116189791956,920.360498327255 M331.34116189791956,920.360498327255 A49.4545264491869,49.4545264491869,0,0,1,315.296958812895,909.6401045634026 M315.296958812895,909.6401045634026" close="False" data-weight="1.0" stroke-width="6" fill="none" stroke="#984ea3" />
<path d="M332.125,380.9834101745155 C332.125,392.05420508725774,332.125,414.19579491274226,332.125,425.2665898254845" close="False" data-weight="0.0" stroke-width="6" fill="none" stroke="#984ea3" />
<path d="M344.03490257669733,312.21509742330267 A35.85816626156072,35.85816626156072,0,0,0,334.4027538039628,329.7176985548367 M334.4027538039628,329.7176985548367 A93.83039863674469,93.83039863674469,0,0,0,332.125,350.2665898254845 M332.125,350.2665898254845" close="False" data-weight="1.0" stroke-width="6" fill="none" stroke="#984ea3" />
<path d="M271.60989543659366,865.9530411871012 C263.78166128066994,858.1248070311775,248.12519296882246,842.4683387193301,240.29695881289874,834.6401045634063" close="False" data-weight="0.0" stroke-width="6" fill="none" stroke="#984ea3" />
<path d="M1224.125,425.2665898254845 L1224.125,455.9834101745155" close="False" data-weight="1.75" stroke-width="6" fill="none" stroke="#984ea3" />
<path d="M1228.125,350.625 L1228.125,380.625" close="False" data-weight="1.75" stroke-width="6" fill="none" stroke="#984ea3" />
<path d="M1228.125,275.625 L1228.125,305.625" close="False" data-weight="1.75" stroke-width="6" fill="none" stroke="#984ea3" />
<path d="M1153.125,1175.625 L1153.125,1205.625" close="False" data-weight="1.75" stroke-width="6" fill="none" stroke="#984ea3" />
<path d="M1153.125,1100.625 L1153.125,1130.625" close="False" data-weight="1.75" stroke-width="6" fill="none" stroke="#984ea3" />
<path d="M1153.125,1025.625 L1153.125,1055.625" close="False" data-weight="1.75" stroke-width="6" fill="none" stroke="#984ea3" />
<path d="M1165.9530411870976,534.6401045634101 L1209.6401045634027,490.953041187105" close="False" data-weight="2.060660171779821" stroke-width="6" fill="none" stroke="#984ea3" />
<path d="M1169.0349025766973,194.03490257669733 L1212.2150974233027,237.2150974233027" close="False" data-weight="2.060660171779821" stroke-width="6" fill="none" stroke="#984ea3" />
<path d="M1094.0349025766973,944.0349025766973 L1137.2150974233027,987.2150974233027" close="False" data-weight="2.060660171779821" stroke-width="6" fill="none" stroke="#984ea3" />
<path d="M1090.9530411871049,609.6401045634026 L1134.6401045634027,565.953041187105" close="False" data-weight="2.060660171779821" stroke-width="6" fill="none" stroke="#984ea3" />
<path d="M1019.0349025766973,869.0349025766973 L1062.2150974233027,912.2150974233027" close="False" data-weight="2.060660171779821" stroke-width="6" fill="none" stroke="#984ea3" />
<path d="M999.125,800.2665898254845 L999.125,830.9834101745155" close="False" data-weight="1.75" stroke-width="6" fill="none" stroke="#984ea3" />
<path d="M999.125,725.2665898254845 L999.125,755.9834101745155" close="False" data-weight="1.75" stroke-width="6" fill="none" stroke="#984ea3" />
<path d="M1015.9530411870975,684.6401045634101 L1059.64010456341,640.9530411870975" close="False" data-weight="2.060660171779821" stroke-width="6" fill="none" stroke="#984ea3" />
<path d="M940.953041187105,909.6401045634026 L984.6401045634026,865.953041187105" close="False" data-weight="2.060660171779821" stroke-width="6" fill="none" stroke="#984ea3" />
<path d="M875.2665898254845,924.125 L905.9834101745155,924.125" close="False" data-weight="1.75" stroke-width="6" fill="none" stroke="#984ea3" />
<path d="M800.2665898254845,924.125 L830.9834101745155,924.125" close="False" data-weight="1.75" stroke-width="6" fill="none" stroke="#984ea3" />
<path d="M725.2665898254845,924.125 L755.9834101745155,924.125" close="False" data-weight="1.75" stroke-width="6" fill="none" stroke="#984ea3" />
<path d="M725.2665898254845,849.125 L755.9834101745155,849.125" close="False" data-weight="1.75" stroke-width="6" fill="none" stroke="#984ea3" />
<path d="M715.953041187105,796.6098954365974 L759.6401045634026,840.296958812895" close="False" data-weight="2.060660171779821" stroke-width="6" fill="none" stroke="#984ea3" />
<path d="M699.125,725.2665898254845 L699.125,755.9834101745155" close="False" data-weight="1.75" stroke-width="6" fill="none" stroke="#984ea3" />
<path d="M699.125,650.2665898254845 L699.125,680.9834101745155" close="False" data-weight="1.75" stroke-width="6" fill="none" stroke="#984ea3" />
<path d="M699.125,575.2665898254845 L699.125,605.9834101745155" close="False" data-weight="1.75" stroke-width="6" fill="none" stroke="#984ea3" />
<path d="M699.125,500.2665898254845 L699.125,530.9834101745155" close="False" data-weight="1.75" stroke-width="6" fill="none" stroke="#984ea3" />
<path d="M699.125,425.2665898254845 L699.125,455.9834101745155" close="False" data-weight="1.75" stroke-width="6" fill="none" stroke="#984ea3" />
<path d="M699.125,350.2665898254845 L699.125,380.9834101745155" close="False" data-weight="1.75" stroke-width="6" fill="none" stroke="#984ea3" />
<path d="M650.2665898254845,924.125 L680.9834101745155,924.125" close="False" data-weight="1.75" stroke-width="6" fill="none" stroke="#984ea3" />
<path d="M640.953041187105,909.6401045634026 L684.6401045634026,865.953041187105" close="False" data-weight="2.060660171779821" stroke-width="6" fill="none" stroke="#984ea3" />
<path d="M650.625,328.125 L680.625,328.125" close="False" data-weight="1.75" stroke-width="6" fill="none" stroke="#984ea3" />
<path d="M575.2665898254845,924.125 L605.9834101745155,924.125" close="False" data-weight="1.75" stroke-width="6" fill="none" stroke="#984ea3" />
<path d="M575.625,328.125 L605.625,328.125" close="False" data-weight="1.75" stroke-width="6" fill="none" stroke="#984ea3" />
<path d="M500.2665898254845,924.125 L530.9834101745155,924.125" close="False" data-weight="1.75" stroke-width="6" fill="none" stroke="#984ea3" />
<path d="M500.625,328.125 L530.625,328.125" close="False" data-weight="1.75" stroke-width="6" fill="none" stroke="#984ea3" />
<path d="M425.2665898254845,924.125 L455.9834101745155,924.125" close="False" data-weight="1.75" stroke-width="6" fill="none" stroke="#984ea3" />
<path d="M419.03490257669733,269.03490257669733 L462.21509742330267,312.21509742330267" close="False" data-weight="2.060660171779821" stroke-width="6" fill="none" stroke="#984ea3" />
<path d="M350.2665898254845,924.125 L380.9834101745155,924.125" close="False" data-weight="1.75" stroke-width="6" fill="none" stroke="#984ea3" />
<path d="M332.125,425.2665898254845 L332.125,455.9834101745155" close="False" data-weight="1.75" stroke-width="6" fill="none" stroke="#984ea3" />
<path d="M332.125,350.2665898254845 L332.125,380.9834101745155" close="False" data-weight="1.75" stroke-width="6" fill="none" stroke="#984ea3" />
<path d="M344.03490257669733,312.21509742330267 L387.21509742330267,269.03490257669733" close="False" data-weight="2.060660171779821" stroke-width="6" fill="none" stroke="#984ea3" />
<path d="M271.60989543659366,865.9530411871012 L315.296958812895,909.6401045634026" close="False" data-weight="2.060660171779821" stroke-width="6" fill="none" stroke="#984ea3" />
<path d="M196.60989543660108,790.9530411871087 L240.29695881289496,834.6401045634026" close="False" data-weight="2.060660171779821" stroke-width="6" fill="none" stroke="#984ea3" />
<path d="M200.625,778.125 L230.625,778.125" close="False" data-weight="1.75" stroke-width="6" fill="none" stroke="#984ea3" />
<path d="M1232.125,425.2665898254845 A38.6224850064998,38.6224850064998,0,0,0,1226.1307226532767,404.6002787616347 M1226.1307226532767,404.6002787616347 A101.06381732035848,101.06381732035848,0,0,0,1212.2150974233027,387.2150974233026 M1212.2150974233027,387.2150974233026" close="False" data-weight="1.0" stroke-width="6" fill="none" stroke="#ff7f00" />
<path d="M1171.6098954365973,540.296958812895 C1163.7816612806698,548.1251929688224,1148.125192968815,563.7816612806773,1140.2969588128876,571.6098954366048" close="False" data-weight="0.0" stroke-width="6" fill="none" stroke="#ff7f00" />
<path d="M1169.0349025766973,344.03490257669733 C1161.0799512883486,336.0799512883487,1145.1700487116514,320.1700487116513,1137.2150974233027,312.21509742330267" close="False" data-weight="0.0" stroke-width="6" fill="none" stroke="#ff7f00" />
<path d="M1096.6098954366048,615.2969588128876 C1088.7816612806755,623.1251929688169,1073.125192968817,638.7816612806755,1065.2969588128876,646.6098954366048" close="False" data-weight="0.0" stroke-width="6" fill="none" stroke="#ff7f00" />
<path d="M1094.0349025766973,269.03490257669733 C1086.0799512883486,261.0799512883487,1070.1700487116514,245.1700487116513,1062.2150974233027,237.21509742330267" close="False" data-weight="0.0" stroke-width="6" fill="none" stroke="#ff7f00" />
<path d="M1007.125,755.9834101745155 C1007.125,767.0542050872577,1007.125,789.1957949127423,1007.125,800.2665898254845" close="False" data-weight="0.0" stroke-width="6" fill="none" stroke="#ff7f00" />
<path d="M1021.6098954366048,690.2969588128876 A49.45452644922658,49.45452644922658,0,0,0,1010.8895016727478,706.3411618979155 M1010.8895016727478,706.3411618979155 A49.45452644917236,49.45452644917236,0,0,0,1007.125,725.2665898254845 M1007.125,725.2665898254845" close="False" data-weight="1.0" stroke-width="6" fill="none" stroke="#ff7f00" />
<path d="M946.6098954365974,915.296958812895 A57.45452644918628,57.45452644918628,0,0,1,927.9703055610012,927.7515345873452 M927.9703055610012,927.7515345873452 A57.4545264491876,57.4545264491876,0,0,1,905.9834101745155,932.125 M905.9834101745155,932.125" close="False" data-weight="1.0" stroke-width="6" fill="none" stroke="#ff7f00" />
<path d="M875.2665898254845,932.125 C864.1957949127423,932.125,842.0542050872577,932.125,830.9834101745155,932.125" close="False" data-weight="0.0" stroke-width="6" fill="none" stroke="#ff7f00" />
<path d="M800.2665898254845,932.125 C789.1957949127423,932.125,767.0542050872577,932.125,755.9834101745155,932.125" close="False" data-weight="0.0" stroke-width="6" fill="none" stroke="#ff7f00" />
<path d="M725.2665898254845,932.125 C714.1957949127423,932.125,692.0542050872577,932.125,680.9834101745155,932.125" close="False" data-weight="0.0" stroke-width="6" fill="none" stroke="#ff7f00" />
<path d="M571.6098954365974,990.296958812895 C563.7816612806718,998.1251929688207,548.1251929688207,1013.7816612806718,540.296958812895,1021.6098954365974" close="False" data-weight="0.0" stroke-width="6" fill="none" stroke="#ff7f00" />
<path d="M571.6098954365899,865.9530411870975 C563.7816612806671,858.1248070311747,548.1251929688216,842.4683387193292,540.2969588128988,834.6401045634063" close="False" data-weight="0.0" stroke-width="6" fill="none" stroke="#ff7f00" />
<path d="M496.6098954365974,1065.2969588128951 C488.78166128067187,1073.1251929688208,473.12519296882056,1088.7816612806716,465.296958812895,1096.6098954365973" close="False" data-weight="0.0" stroke-width="6" fill="none" stroke="#ff7f00" />
<path d="M482.125,755.9834101745155 A49.454526449179184,49.454526449179184,0,0,0,485.8895016727465,774.9088381020824 M485.8895016727465,774.9088381020824 A49.45452644920708,49.45452644920708,0,0,0,496.6098954366011,790.9530411871086 M496.6098954366011,790.9530411871086" close="False" data-weight="1.0" stroke-width="6" fill="none" stroke="#ff7f00" />
<path d="M482.125,680.9834101745155 C482.125,692.0542050872577,482.125,714.1957949127423,482.125,725.2665898254845" close="False" data-weight="0.0" stroke-width="6" fill="none" stroke="#ff7f00" />
<path d="M482.125,605.9834101745155 C482.125,617.0542050872577,482.125,639.1957949127423,482.125,650.2665898254845" close="False" data-weight="0.0" stroke-width="6" fill="none" stroke="#ff7f00" />
<path d="M482.125,530.9834101745155 C482.125,542.0542050872577,482.125,564.1957949127423,482.125,575.2665898254845" close="False" data-weight="0.0" stroke-width="6" fill="none" stroke="#ff7f00" />
<path d="M482.125,455.9834101745155 C482.125,467.05420508725774,482.125,489.19579491274226,482.125,500.2665898254845" close="False" data-weight="0.0" stroke-width="6" fill="none" stroke="#ff7f00" />
<path d="M482.125,380.9834101745155 C482.125,392.05420508725774,482.125,414.19579491274226,482.125,425.2665898254845" close="False" data-weight="0.0" stroke-width="6" fill="none" stroke="#ff7f00" />
<path d="M482.125,305.9834101745155 C482.125,317.05420508725774,482.125,339.19579491274226,482.125,350.2665898254845" close="False" data-weight="0.0" stroke-width="6" fill="none" stroke="#ff7f00" />
<path d="M482.125,275.2665898254845 A57.45452644918629,57.45452644918629,0,0,0,477.7515345873452,253.27969443899886 M477.7515345873452,253.27969443899886 A57.45452644918741,57.45452644918741,0,0,0,465.296958812895,234.64010456340264 M465.296958812895,234.64010456340264" close="False" data-weight="1.0" stroke-width="6" fill="none" stroke="#ff7f00" />
<path d="M421.6098954365974,1140.2969588128951 A57.45452644918673,57.45452644918673,0,0,1,402.97030556100117,1152.7515345873453 M402.97030556100117,1152.7515345873453 A57.45452644918714,57.45452644918714,0,0,1,380.9834101745155,1157.125 M380.9834101745155,1157.125" close="False" data-weight="1.0" stroke-width="6" fill="none" stroke="#ff7f00" />
<path d="M324.125,380.9834101745155 C324.125,392.05420508725774,324.125,414.19579491274226,324.125,425.2665898254845" close="False" data-weight="0.0" stroke-width="6" fill="none" stroke="#ff7f00" />
<path d="M328.125,305.625 C328.125,316.83010916431317,324.125,339.06148066117134,324.125,350.2665898254845" close="False" data-weight="0.0" stroke-width="6" fill="none" stroke="#ff7f00" />
<path d="M344.03490257669733,237.2150974233027 A54.31980515339484,54.31980515339484,0,0,0,332.2598489621722,254.83771051849607 M332.2598489621722,254.83771051849607 A54.319805153394384,54.319805153394384,0,0,0,328.125,275.625 M328.125,275.625" close="False" data-weight="1.0" stroke-width="6" fill="none" stroke="#ff7f00" />
<path d="M350.625,178.125 C339.375,178.125,316.875,178.125,305.625,178.125" close="False" data-weight="0.0" stroke-width="6" fill="none" stroke="#ff7f00" />
<path d="M275.625,178.125 A54.31980515339461,54.31980515339461,0,0,1,254.83771051849604,173.9901510378278 M254.83771051849604,173.9901510378278 A54.31980515339473,54.31980515339473,0,0,1,237.21509742330267,162.21509742330267 M237.21509742330267,162.21509742330267" close="False" data-weight="1.0" stroke-width="6" fill="none" stroke="#ff7f00" />
<path d="M1232.125,425.2665898254845 L1232.125,455.9834101745155" close="False" data-weight="1.75" stroke-width="6" fill="none" stroke="#ff7f00" />
<path d="M1171.6098954366048,540.2969588128876 L1215.2969588128951,496.6098954365974" close="False" data-weight="2.060660171779821" stroke-width="6" fill="none" stroke="#ff7f00" />
<path d="M1169.0349025766973,344.03490257669733 L1212.2150974233027,387.21509742330267" close="False" data-weight="2.060660171779821" stroke-width="6" fill="none" stroke="#ff7f00" />
<path d="M1096.6098954365973,615.296958812895 L1140.2969588128951,571.6098954365974" close="False" data-weight="2.060660171779821" stroke-width="6" fill="none" stroke="#ff7f00" />
<path d="M1094.0349025766973,269.03490257669733 L1137.2150974233027,312.21509742330267" close="False" data-weight="2.060660171779821" stroke-width="6" fill="none" stroke="#ff7f00" />
<path d="M1007.125,800.2665898254845 L1007.125,830.9834101745155" close="False" data-weight="1.75" stroke-width="6" fill="none" stroke="#ff7f00" />
<path d="M1007.125,725.2665898254845 L1007.125,755.9834101745155" close="False" data-weight="1.75" stroke-width="6" fill="none" stroke="#ff7f00" />
<path d="M1021.6098954366048,690.2969588128876 L1065.2969588128876,646.6098954366048" close="False" data-weight="2.060660171779821" stroke-width="6" fill="none" stroke="#ff7f00" />
<path d="M1019.0349025766973,194.03490257669733 L1062.2150974233027,237.2150974233027" close="False" data-weight="2.060660171779821" stroke-width="6" fill="none" stroke="#ff7f00" />
<path d="M946.6098954365974,915.296958812895 L990.296958812895,871.6098954365974" close="False" data-weight="2.060660171779821" stroke-width="6" fill="none" stroke="#ff7f00" />
<path d="M875.2665898254845,932.125 L905.9834101745155,932.125" close="False" data-weight="1.75" stroke-width="6" fill="none" stroke="#ff7f00" />
<path d="M800.2665898254845,932.125 L830.9834101745155,932.125" close="False" data-weight="1.75" stroke-width="6" fill="none" stroke="#ff7f00" />
<path d="M725.2665898254845,932.125 L755.9834101745155,932.125" close="False" data-weight="1.75" stroke-width="6" fill="none" stroke="#ff7f00" />
<path d="M650.2665898254845,932.125 L680.9834101745155,932.125" close="False" data-weight="1.75" stroke-width="6" fill="none" stroke="#ff7f00" />
<path d="M628.125,875.625 L628.125,905.625" close="False" data-weight="1.75" stroke-width="6" fill="none" stroke="#ff7f00" />
<path d="M571.6098954365974,990.296958812895 L615.296958812895,946.6098954365974" close="False" data-weight="2.060660171779821" stroke-width="6" fill="none" stroke="#ff7f00" />
<path d="M571.6098954365974,865.953041187105 L615.2969588128876,909.6401045633952" close="False" data-weight="2.060660171779821" stroke-width="6" fill="none" stroke="#ff7f00" />
<path d="M496.6098954365974,1065.2969588128951 L540.296958812895,1021.6098954365974" close="False" data-weight="2.060660171779821" stroke-width="6" fill="none" stroke="#ff7f00" />
<path d="M496.6098954366011,790.9530411871086 L540.296958812895,834.6401045634026" close="False" data-weight="2.060660171779821" stroke-width="6" fill="none" stroke="#ff7f00" />
<path d="M482.125,725.2665898254845 L482.125,755.9834101745155" close="False" data-weight="1.75" stroke-width="6" fill="none" stroke="#ff7f00" />
<path d="M482.125,650.2665898254845 L482.125,680.9834101745155" close="False" data-weight="1.75" stroke-width="6" fill="none" stroke="#ff7f00" />
<path d="M482.125,575.2665898254845 L482.125,605.9834101745155" close="False" data-weight="1.75" stroke-width="6" fill="none" stroke="#ff7f00" />
<path d="M482.125,500.2665898254845 L482.125,530.9834101745155" close="False" data-weight="1.75" stroke-width="6" fill="none" stroke="#ff7f00" />
<path d="M482.125,425.2665898254845 L482.125,455.9834101745155" close="False" data-weight="1.75" stroke-width="6" fill="none" stroke="#ff7f00" />
<path d="M482.125,350.2665898254845 L482.125,380.9834101745155" close="False" data-weight="1.75" stroke-width="6" fill="none" stroke="#ff7f00" />
<path d="M482.125,275.2665898254845 L482.125,305.9834101745155" close="False" data-weight="1.75" stroke-width="6" fill="none" stroke="#ff7f00" />
<path d="M421.6098954365974,1140.2969588128951 L465.296958812895,1096.6098954365973" close="False" data-weight="2.060660171779821" stroke-width="6" fill="none" stroke="#ff7f00" />
<path d="M421.60989543659736,190.953041187105 L465.2969588128951,234.6401045634027" close="False" data-weight="2.060660171779821" stroke-width="6" fill="none" stroke="#ff7f00" />
<path d="M350.2665898254845,1157.125 L380.9834101745155,1157.125" close="False" data-weight="1.75" stroke-width="6" fill="none" stroke="#ff7f00" />
<path d="M324.125,425.2665898254845 L324.125,455.9834101745155" close="False" data-weight="1.75" stroke-width="6" fill="none" stroke="#ff7f00" />
<path d="M324.125,350.2665898254845 L324.125,380.9834101745155" close="False" data-weight="1.75" stroke-width="6" fill="none" stroke="#ff7f00" />
<path d="M328.125,275.625 L328.125,305.625" close="False" data-weight="1.75" stroke-width="6" fill="none" stroke="#ff7f00" />
<path d="M344.03490257669733,237.21509742330267 L387.21509742330267,194.0349025766973" close="False" data-weight="2.060660171779821" stroke-width="6" fill="none" stroke="#ff7f00" />
<path d="M350.625,178.125 L380.625,178.125" close="False" data-weight="1.75" stroke-width="6" fill="none" stroke="#ff7f00" />
<path d="M275.625,178.125 L305.625,178.125" close="False" data-weight="1.75" stroke-width="6" fill="none" stroke="#ff7f00" />
<path d="M194.03490257669733,119.03490257669732 L237.2150974233027,162.2150974233027" close="False" data-weight="2.060660171779821" stroke-width="6" fill="none" stroke="#ff7f00" />
<path d="M725.2665898254845,857.125 A49.45452644918669,49.45452644918669,0,0,0,706.3411618979196,860.889501672745 M706.3411618979196,860.889501672745 A49.45452644918702,49.45452644918702,0,0,0,690.296958812895,871.6098954365974 M690.296958812895,871.6098954365974" close="False" data-weight="1.0" stroke-width="6" fill="none" stroke="#4daf4a" />
<path d="M707.125,755.9834101745155 A49.45452644918669,49.45452644918669,0,0,0,710.889501672745,774.9088381020804 M710.889501672745,774.9088381020804 A49.45452644918702,49.45452644918702,0,0,0,721.6098954365974,790.953041187105 M721.6098954365974,790.953041187105" close="False" data-weight="1.0" stroke-width="6" fill="none" stroke="#4daf4a" />
<path d="M707.125,680.9834101745155 C707.125,692.0542050872577,707.125,714.1957949127423,707.125,725.2665898254845" close="False" data-weight="0.0" stroke-width="6" fill="none" stroke="#4daf4a" />
<path d="M707.125,605.9834101745155 C707.125,617.0542050872577,707.125,639.1957949127423,707.125,650.2665898254845" close="False" data-weight="0.0" stroke-width="6" fill="none" stroke="#4daf4a" />
<path d="M707.125,530.9834101745155 C707.125,542.0542050872577,707.125,564.1957949127423,707.125,575.2665898254845" close="False" data-weight="0.0" stroke-width="6" fill="none" stroke="#4daf4a" />
<path d="M707.125,455.9834101745155 C707.125,467.05420508725774,707.125,489.19579491274226,707.125,500.2665898254845" close="False" data-weight="0.0" stroke-width="6" fill="none" stroke="#4daf4a" />
<path d="M707.125,380.9834101745155 C707.125,392.05420508725774,707.125,414.19579491274226,707.125,425.2665898254845" close="False" data-weight="0.0" stroke-width="6" fill="none" stroke="#4daf4a" />
<path d="M565.953041187105,984.6401045634026 C558.1248070311793,992.4683387193282,542.4683387193282,1008.1248070311793,534.6401045634026,1015.953041187105" close="False" data-weight="0.0" stroke-width="6" fill="none" stroke="#4daf4a" />
<path d="M575.2665898254845,932.125 C564.1957949127423,932.125,542.0542050872577,932.125,530.9834101745155,932.125" close="False" data-weight="0.0" stroke-width="6" fill="none" stroke="#4daf4a" />
<path d="M490.953041187105,1059.6401045634027 C483.12480703117944,1067.4683387193284,467.46833871932813,1083.1248070311792,459.6401045634026,1090.9530411871049" close="False" data-weight="0.0" stroke-width="6" fill="none" stroke="#4daf4a" />
<path d="M415.953041187105,1134.6401045634027 A49.45452644918803,49.45452644918803,0,0,1,399.90883810208055,1145.360498327255 M399.90883810208055,1145.360498327255 A49.45452644918555,49.45452644918555,0,0,1,380.9834101745155,1149.125 M380.9834101745155,1149.125" close="False" data-weight="1.0" stroke-width="6" fill="none" stroke="#4daf4a" />
<path d="M425.2665898254845,932.125 C414.19579491274226,932.125,392.05420508725774,932.125,380.9834101745155,932.125" close="False" data-weight="0.0" stroke-width="6" fill="none" stroke="#4daf4a" />
<path d="M350.2665898254845,932.125 A57.45452644918623,57.45452644918623,0,0,1,328.2796944389989,927.7515345873452 M328.2796944389989,927.7515345873452 A57.45452644918757,57.45452644918757,0,0,1,309.6401045634026,915.296958812895 M309.6401045634026,915.296958812895" close="False" data-weight="1.0" stroke-width="6" fill="none" stroke="#4daf4a" />
<path d="M265.9530411871087,871.6098954366012 C258.1248070311812,863.7816612806737,242.4683387193264,848.1251929688187,234.64010456339892,840.2969588128913" close="False" data-weight="0.0" stroke-width="6" fill="none" stroke="#4daf4a" />
<path d="M725.2665898254845,857.125 L755.9834101745155,857.125" close="False" data-weight="1.75" stroke-width="6" fill="none" stroke="#4daf4a" />
<path d="M721.6098954365974,790.953041187105 L765.296958812895,834.6401045634026" close="False" data-weight="2.060660171779821" stroke-width="6" fill="none" stroke="#4daf4a" />
<path d="M707.125,725.2665898254845 L707.125,755.9834101745155" close="False" data-weight="1.75" stroke-width="6" fill="none" stroke="#4daf4a" />
<path d="M707.125,650.2665898254845 L707.125,680.9834101745155" close="False" data-weight="1.75" stroke-width="6" fill="none" stroke="#4daf4a" />
<path d="M707.125,575.2665898254845 L707.125,605.9834101745155" close="False" data-weight="1.75" stroke-width="6" fill="none" stroke="#4daf4a" />
<path d="M707.125,500.2665898254845 L707.125,530.9834101745155" close="False" data-weight="1.75" stroke-width="6" fill="none" stroke="#4daf4a" />
<path d="M707.125,425.2665898254845 L707.125,455.9834101745155" close="False" data-weight="1.75" stroke-width="6" fill="none" stroke="#4daf4a" />
<path d="M707.125,350.2665898254845 L707.125,380.9834101745155" close="False" data-weight="1.75" stroke-width="6" fill="none" stroke="#4daf4a" />
<path d="M646.6098954365974,915.296958812895 L690.296958812895,871.6098954365974" close="False" data-weight="2.060660171779821" stroke-width="6" fill="none" stroke="#4daf4a" />
<path d="M565.953041187105,984.6401045634026 L609.6401045634026,940.953041187105" close="False" data-weight="2.060660171779821" stroke-width="6" fill="none" stroke="#4daf4a" />
<path d="M575.2665898254845,932.125 L605.9834101745155,932.125" close="False" data-weight="1.75" stroke-width="6" fill="none" stroke="#4daf4a" />
<path d="M490.953041187105,1059.6401045634027 L534.6401045634026,1015.953041187105" close="False" data-weight="2.060660171779821" stroke-width="6" fill="none" stroke="#4daf4a" />
<path d="M500.2665898254845,932.125 L530.9834101745155,932.125" close="False" data-weight="1.75" stroke-width="6" fill="none" stroke="#4daf4a" />
<path d="M415.953041187105,1134.6401045634027 L459.6401045634026,1090.9530411871049" close="False" data-weight="2.060660171779821" stroke-width="6" fill="none" stroke="#4daf4a" />
<path d="M425.2665898254845,932.125 L455.9834101745155,932.125" close="False" data-weight="1.75" stroke-width="6" fill="none" stroke="#4daf4a" />
<path d="M350.2665898254845,1149.125 L380.9834101745155,1149.125" close="False" data-weight="1.75" stroke-width="6" fill="none" stroke="#4daf4a" />
<path d="M350.2665898254845,932.125 L380.9834101745155,932.125" close="False" data-weight="1.75" stroke-width="6" fill="none" stroke="#4daf4a" />
<path d="M265.9530411871087,871.609895436601 L309.6401045634026,915.296958812895" close="False" data-weight="2.060660171779821" stroke-width="6" fill="none" stroke="#4daf4a" />
<path d="M190.95304118710126,796.6098954365937 L234.6401045634027,840.2969588128951" close="False" data-weight="2.060660171779821" stroke-width="6" fill="none" stroke="#4daf4a" />
<path d="M565.9530411871124,871.6098954366048 C558.124807031184,863.7816612806764,542.4683387193273,848.1251929688198,534.640104563399,840.2969588128914" close="False" data-weight="0.0" stroke-width="6" fill="none" stroke="#377eb8" />
<path d="M474.125,755.9834101745155 A57.45452644919385,57.45452644919385,0,0,0,478.49846541265333,777.9703055609991 M478.49846541265333,777.9703055609991 A57.454526449167155,57.454526449167155,0,0,0,490.95304118710123,796.6098954365937 M490.95304118710123,796.6098954365937" close="False" data-weight="1.0" stroke-width="6" fill="none" stroke="#377eb8" />
<path d="M474.125,680.9834101745155 C474.125,692.0542050872577,474.125,714.1957949127423,474.125,725.2665898254845" close="False" data-weight="0.0" stroke-width="6" fill="none" stroke="#377eb8" />
<path d="M474.125,605.9834101745155 C474.125,617.0542050872577,474.125,639.1957949127423,474.125,650.2665898254845" close="False" data-weight="0.0" stroke-width="6" fill="none" stroke="#377eb8" />
<path d="M474.125,530.9834101745155 C474.125,542.0542050872577,474.125,564.1957949127423,474.125,575.2665898254845" close="False" data-weight="0.0" stroke-width="6" fill="none" stroke="#377eb8" />
<path d="M474.125,455.9834101745155 C474.125,467.05420508725774,474.125,489.19579491274226,474.125,500.2665898254845" close="False" data-weight="0.0" stroke-width="6" fill="none" stroke="#377eb8" />
<path d="M474.125,380.9834101745155 C474.125,392.05420508725774,474.125,414.19579491274226,474.125,425.2665898254845" close="False" data-weight="0.0" stroke-width="6" fill="none" stroke="#377eb8" />
<path d="M474.125,305.9834101745155 C474.125,317.05420508725774,474.125,339.19579491274226,474.125,350.2665898254845" close="False" data-weight="0.0" stroke-width="6" fill="none" stroke="#377eb8" />
<path d="M474.125,275.2665898254845 A49.45452644918686,49.45452644918686,0,0,0,470.36049832725496,256.34116189791956 M470.36049832725496,256.34116189791956 A49.454526449186865,49.454526449186865,0,0,0,459.64010456340264,240.296958812895 M459.64010456340264,240.296958812895" close="False" data-weight="1.0" stroke-width="6" fill="none" stroke="#377eb8" />
<path d="M565.953041187105,871.6098954365974 L609.6401045634101,915.2969588129025" close="False" data-weight="2.060660171779821" stroke-width="6" fill="none" stroke="#377eb8" />
<path d="M490.95304118710123,796.6098954365937 L534.6401045634026,840.296958812895" close="False" data-weight="2.060660171779821" stroke-width="6" fill="none" stroke="#377eb8" />
<path d="M474.125,725.2665898254845 L474.125,755.9834101745155" close="False" data-weight="1.75" stroke-width="6" fill="none" stroke="#377eb8" />
<path d="M474.125,650.2665898254845 L474.125,680.9834101745155" close="False" data-weight="1.75" stroke-width="6" fill="none" stroke="#377eb8" />
<path d="M474.125,575.2665898254845 L474.125,605.9834101745155" close="False" data-weight="1.75" stroke-width="6" fill="none" stroke="#377eb8" />
<path d="M474.125,500.2665898254845 L474.125,530.9834101745155" close="False" data-weight="1.75" stroke-width="6" fill="none" stroke="#377eb8" />
<path d="M474.125,425.2665898254845 L474.125,455.9834101745155" close="False" data-weight="1.75" stroke-width="6" fill="none" stroke="#377eb8" />
<path d="M474.125,350.2665898254845 L474.125,380.9834101745155" close="False" data-weight="1.75" stroke-width="6" fill="none" stroke="#377eb8" />
<path d="M474.125,275.2665898254845 L474.125,305.9834101745155" close="False" data-weight="1.75" stroke-width="6" fill="none" stroke="#377eb8" />
<path d="M403.125,200.625 L403.125,230.625" close="False" data-weight="1.75" stroke-width="6" fill="none" stroke="#377eb8" />
<path d="M415.953041187105,196.60989543659736 L459.64010456340253,240.29695881289496" close="False" data-weight="2.060660171779821" stroke-width="6" fill="none" stroke="#377eb8" />
<path d="M1169.0349025766973,419.03490257669733 A54.31980515339522,54.31980515339522,0,0,0,1151.412289481504,407.25984896217227 M1151.412289481504,407.25984896217227 A54.319805153393986,54.319805153393986,0,0,0,1130.625,403.125 M1130.625,403.125" close="False" data-weight="1.0" stroke-width="6" fill="none" stroke="#e41a1c" />
<path d="M1100.625,403.125 C1089.375,403.125,1066.875,403.125,1055.625,403.125" close="False" data-weight="0.0" stroke-width="6" fill="none" stroke="#e41a1c" />
<path d="M1025.625,403.125 C1014.375,403.125,991.875,403.125,980.625,403.125" close="False" data-weight="0.0" stroke-width="6" fill="none" stroke="#e41a1c" />
<path d="M950.625,403.125 C939.375,403.125,916.875,403.125,905.625,403.125" close="False" data-weight="0.0" stroke-width="6" fill="none" stroke="#e41a1c" />
<path d="M875.625,403.125 C864.375,403.125,841.875,403.125,830.625,403.125" close="False" data-weight="0.0" stroke-width="6" fill="none" stroke="#e41a1c" />
<path d="M778.125,305.625 C778.125,316.875,778.125,339.375,778.125,350.625" close="False" data-weight="0.0" stroke-width="6" fill="none" stroke="#e41a1c" />
<path d="M778.125,230.625 C778.125,241.875,778.125,264.375,778.125,275.625" close="False" data-weight="0.0" stroke-width="6" fill="none" stroke="#e41a1c" />
<path d="M778.125,155.625 C778.125,166.875,778.125,189.375,778.125,200.625" close="False" data-weight="0.0" stroke-width="6" fill="none" stroke="#e41a1c" />
<path d="M719.0349025766973,462.21509742330267 A54.3198051533949,54.3198051533949,0,0,1,701.4122894815039,473.9901510378278 M701.4122894815039,473.9901510378278 A54.31980515339427,54.31980515339427,0,0,1,680.625,478.125 M680.625,478.125" close="False" data-weight="1.0" stroke-width="6" fill="none" stroke="#e41a1c" />
<path d="M650.625,478.125 C639.375,478.125,616.875,478.125,605.625,478.125" close="False" data-weight="0.0" stroke-width="6" fill="none" stroke="#e41a1c" />
<path d="M575.625,478.125 C564.375,478.125,541.875,478.125,530.625,478.125" close="False" data-weight="0.0" stroke-width="6" fill="none" stroke="#e41a1c" />
<path d="M500.625,478.125 C489.375,478.125,466.875,478.125,455.625,478.125" close="False" data-weight="0.0" stroke-width="6" fill="none" stroke="#e41a1c" />
<path d="M425.625,478.125 C414.375,478.125,391.875,478.125,380.625,478.125" close="False" data-weight="0.0" stroke-width="6" fill="none" stroke="#e41a1c" />
<path d="M1169.0349025766973,419.03490257669733 L1212.2150974233027,462.21509742330267" close="False" data-weight="2.060660171779821" stroke-width="6" fill="none" stroke="#e41a1c" />
<path d="M1100.625,403.125 L1130.625,403.125" close="False" data-weight="1.75" stroke-width="6" fill="none" stroke="#e41a1c" />
<path d="M1025.625,403.125 L1055.625,403.125" close="False" data-weight="1.75" stroke-width="6" fill="none" stroke="#e41a1c" />
<path d="M950.625,403.125 L980.625,403.125" close="False" data-weight="1.75" stroke-width="6" fill="none" stroke="#e41a1c" />
<path d="M875.625,403.125 L905.625,403.125" close="False" data-weight="1.75" stroke-width="6" fill="none" stroke="#e41a1c" />
<path d="M800.625,403.125 L830.625,403.125" close="False" data-weight="1.75" stroke-width="6" fill="none" stroke="#e41a1c" />
<path d="M778.125,350.625 L778.125,380.625" close="False" data-weight="1.75" stroke-width="6" fill="none" stroke="#e41a1c" />
<path d="M778.125,275.625 L778.125,305.625" close="False" data-weight="1.75" stroke-width="6" fill="none" stroke="#e41a1c" />
<path d="M778.125,200.625 L778.125,230.625" close="False" data-weight="1.75" stroke-width="6" fill="none" stroke="#e41a1c" />
<path d="M778.125,125.625 L778.125,155.625" close="False" data-weight="1.75" stroke-width="6" fill="none" stroke="#e41a1c" />
<path d="M719.0349025766973,462.21509742330267 L762.2150974233027,419.03490257669733" close="False" data-weight="2.060660171779821" stroke-width="6" fill="none" stroke="#e41a1c" />
<path d="M650.625,478.125 L680.625,478.125" close="False" data-weight="1.75" stroke-width="6" fill="none" stroke="#e41a1c" />
<path d="M575.625,478.125 L605.625,478.125" close="False" data-weight="1.75" stroke-width="6" fill="none" stroke="#e41a1c" />
<path d="M500.625,478.125 L530.625,478.125" close="False" data-weight="1.75" stroke-width="6" fill="none" stroke="#e41a1c" />
<path d="M425.625,478.125 L455.625,478.125" close="False" data-weight="1.75" stroke-width="6" fill="none" stroke="#e41a1c" />
<path d="M350.625,478.125 L380.625,478.125" close="False" data-weight="1.75" stroke-width="6" fill="none" stroke="#e41a1c" />
<image x="1195.625" y="445.625" width="65" height="65" xlink:href="designspace-test/./img/ds_dataset0_20_4_thumb.png">
<title>4</title>
</image>
<image x="1120.625" y="1195.625" width="65" height="65" xlink:href="designspace-test/./img/ds_dataset0_20_5_thumb.png">
<title>5</title>
</image>
<image x="1120.625" y="145.625" width="65" height="65" xlink:href="designspace-test/./img/ds_dataset0_20_10_thumb.png">
<title>10</title>
</image>
<image x="970.625" y="895.625" width="65" height="65" xlink:href="designspace-test/./img/ds_dataset0_20_6_thumb.png">
<title>6</title>
</image>
<image x="970.625" y="820.625" width="65" height="65" xlink:href="designspace-test/./img/ds_dataset0_20_7_thumb.png">
<title>7</title>
</image>
<image x="970.625" y="145.625" width="65" height="65" xlink:href="designspace-test/./img/ds_dataset0_20_11_thumb.png">
<title>11</title>
</image>
<image x="745.625" y="820.625" width="65" height="65" xlink:href="designspace-test/./img/ds_dataset0_20_8_thumb.png">
<title>8</title>
</image>
<image x="745.625" y="370.625" width="65" height="65" xlink:href="designspace-test/./img/ds_dataset0_20_1_thumb.png">
<title>1</title>
</image>
<image x="745.625" y="70.625" width="65" height="65" xlink:href="designspace-test/./img/ds_dataset0_20_9_thumb.png">
<title>9</title>
</image>
<image x="670.625" y="295.625" width="65" height="65" xlink:href="designspace-test/./img/ds_dataset0_20_0_thumb.png">
<title>0</title>
</image>
<image x="595.625" y="895.625" width="65" height="65" xlink:href="designspace-test/./img/ds_dataset0_20_19_thumb.png">
<title>19</title>
</image>
<image x="595.625" y="820.625" width="65" height="65" xlink:href="designspace-test/./img/ds_dataset0_20_16_thumb.png">
<title>16</title>
</image>
<image x="445.625" y="895.625" width="65" height="65" xlink:href="designspace-test/./img/ds_dataset0_20_12_thumb.png">
<title>12</title>
</image>
<image x="370.625" y="220.625" width="65" height="65" xlink:href="designspace-test/./img/ds_dataset0_20_18_thumb.png">
<title>18</title>
</image>
<image x="370.625" y="145.625" width="65" height="65" xlink:href="designspace-test/./img/ds_dataset0_20_2_thumb.png">
<title>2</title>
</image>
<image x="295.625" y="1120.625" width="65" height="65" xlink:href="designspace-test/./img/ds_dataset0_20_3_thumb.png">
<title>3</title>
</image>
<image x="295.625" y="445.625" width="65" height="65" xlink:href="designspace-test/./img/ds_dataset0_20_15_thumb.png">
<title>15</title>
</image>
<image x="220.625" y="745.625" width="65" height="65" xlink:href="designspace-test/./img/ds_dataset0_20_17_thumb.png">
<title>17</title>
</image>
<image x="145.625" y="745.625" width="65" height="65" xlink:href="designspace-test/./img/ds_dataset0_20_14_thumb.png">
<title>14</title>
</image>
<image x="145.625" y="70.625" width="65" height="65" xlink:href="designspace-test/./img/ds_dataset0_20_13_thumb.png">
<title>13</title>
</image>
</svg>