<?xml version="1.0" encoding="UTF-8"?>
<svg xmlns="http://www.w3.org/2000/svg" xmlns:xlink="http://www.w3.org/1999/xlink"
     viewBox="0 0 1350 1350" preserveAspectRatio="xMidYMid meet">
<defs>
</defs>
<path d="M950.625,628.125 C939.375,628.125,916.875,628.125,905.625,628.125" close="False" data-weight="0.0" stroke-width="7" fill="none" stroke="#1fa562" />
<path d="M875.625,628.125 A54.31980515339478,54.31980515339478,0,0,0,854.8377105184961,632.2598489621722 M854.8377105184961,632.2598489621722 A54.319805153394256,54.319805153394256,0,0,0,837.2150974233027,644.0349025766973 M837.2150974233027,644.0349025766973" close="False" data-weight="1.0" stroke-width="7" fill="none" stroke="#1fa562" />
<path d="M794.0349025766973,687.2150974233027 C786.0799512883486,695.1700487116514,770.1700487116514,711.0799512883486,762.2150974233027,719.0349025766973" close="False" data-weight="0.0" stroke-width="7" fill="none" stroke="#1fa562" />
<path d="M719.0349025766973,762.2150974233027 C711.0799512883486,770.1700487116514,695.1700487116514,786.0799512883486,687.2150974233027,794.0349025766973" close="False" data-weight="0.0" stroke-width="7" fill="none" stroke="#1fa562" />
<path d="M644.0349025766973,837.2150974233027 C636.0799512883486,845.1700487116514,620.1700487116514,861.0799512883486,612.2150974233027,869.0349025766973" close="False" data-weight="0.0" stroke-width="7" fill="none" stroke="#1fa562" />
<path d="M569.0349025766973,912.2150974233027 C561.0799512883486,920.1700487116514,545.1700487116514,936.0799512883486,537.2150974233027,944.0349025766973" close="False" data-weight="0.0" stroke-width="7" fill="none" stroke="#1fa562" />
<path d="M494.03490257669733,987.2150974233027 C486.0799512883487,995.1700487116514,470.1700487116513,1011.0799512883486,462.21509742330267,1019.0349025766973" close="False" data-weight="0.0" stroke-width="7" fill="none" stroke="#1fa562" />
<path d="M419.03490257669733,1062.2150974233027 C411.0799512883487,1070.1700487116514,395.1700487116513,1086.0799512883486,387.21509742330267,1094.0349025766973" close="False" data-weight="0.0" stroke-width="7" fill="none" stroke="#1fa562" />
<path d="M344.03490257669733,1137.2150974233027 C336.0799512883487,1145.1700487116514,320.1700487116513,1161.0799512883486,312.21509742330267,1169.0349025766973" close="False" data-weight="0.0" stroke-width="7" fill="none" stroke="#1fa562" />
<path d="M950.625,628.125 L980.625,628.125" close="False" data-weight="1.75" stroke-width="7" fill="none" stroke="#1fa562" />
<path d="M875.625,628.125 L905.625,628.125" close="False" data-weight="1.75" stroke-width="7" fill="none" stroke="#1fa562" />
<path d="M794.0349025766973,687.2150974233027 L837.2150974233027,644.0349025766973" close="False" data-weight="2.060660171779821" stroke-width="7" fill="none" stroke="#1fa562" />
<path d="M719.0349025766973,762.2150974233027 L762.2150974233027,719.0349025766973" close="False" data-weight="2.060660171779821" stroke-width="7" fill="none" stroke="#1fa562" />
<path d="M644.0349025766973,837.2150974233027 L687.2150974233027,794.0349025766973" close="False" data-weight="2.060660171779821" stroke-width="7" fill="none" stroke="#1fa562" />
<path d="M569.0349025766973,912.2150974233027 L612.2150974233027,869.0349025766973" close="False" data-weight="2.060660171779821" stroke-width="7" fill="none" stroke="#1fa562" />
<path d="M494.03490257669733,987.2150974233027 L537.2150974233027,944.0349025766973" close="False" data-weight="2.060660171779821" stroke-width="7" fill="none" stroke="#1fa562" />
<path d="M419.03490257669733,1062.2150974233027 L462.21509742330267,1019.0349025766973" close="False" data-weight="2.060660171779821" stroke-width="7" fill="none" stroke="#1fa562" />
<path d="M344.03490257669733,1137.2150974233027 L387.21509742330267,1094.0349025766973" close="False" data-weight="2.060660171779821" stroke-width="7" fill="none" stroke="#1fa562" />
<path d="M269.03490257669733,1212.2150974233027 L312.21509742330267,1169.0349025766973" close="False" data-weight="2.060660171779821" stroke-width="7" fill="none" stroke="#1fa562" />
<path d="M1169.0349025766973,912.2150974233027 C1161.0799512883486,920.1700487116514,1145.1700487116514,936.0799512883486,1137.2150974233027,944.0349025766973" close="False" data-weight="0.0" stroke-width="7" fill="none" stroke="#ff1c5d" />
<path d="M1169.0349025766973,794.0349025766973 C1161.0799512883486,786.0799512883486,1145.1700487116514,770.1700487116514,1137.2150974233027,762.2150974233027" close="False" data-weight="0.0" stroke-width="7" fill="none" stroke="#ff1c5d" />
<path d="M1078.125,1130.625 C1078.125,1141.875,1078.125,1164.375,1078.125,1175.625" close="False" data-weight="0.0" stroke-width="7" fill="none" stroke="#ff1c5d" />
<path d="M1078.125,1055.625 C1078.125,1066.875,1078.125,1089.375,1078.125,1100.625" close="False" data-weight="0.0" stroke-width="7" fill="none" stroke="#ff1c5d" />
<path d="M1094.0349025766973,719.0349025766973 C1086.0799512883486,711.0799512883486,1070.1700487116514,695.1700487116514,1062.2150974233027,687.2150974233027" close="False" data-weight="0.0" stroke-width="7" fill="none" stroke="#ff1c5d" />
<path d="M1019.0349025766973,1169.0349025766973 C1011.0799512883486,1161.0799512883486,995.1700487116514,1145.1700487116514,987.2150974233027,1137.2150974233027" close="False" data-weight="0.0" stroke-width="7" fill="none" stroke="#ff1c5d" />
<path d="M944.0349025766973,1094.0349025766973 C936.0799512883486,1086.0799512883486,920.1700487116514,1070.1700487116514,912.2150974233027,1062.2150974233027" close="False" data-weight="0.0" stroke-width="7" fill="none" stroke="#ff1c5d" />
<path d="M944.0349025766973,569.0349025766973 C936.0799512883486,561.0799512883486,920.1700487116514,545.1700487116514,912.2150974233027,537.2150974233027" close="False" data-weight="0.0" stroke-width="7" fill="none" stroke="#ff1c5d" />
<path d="M869.0349025766973,494.03490257669733 C861.0799512883486,486.0799512883487,845.1700487116514,470.1700487116513,837.2150974233027,462.21509742330267" close="False" data-weight="0.0" stroke-width="7" fill="none" stroke="#ff1c5d" />
<path d="M778.125,380.625 A54.319805153394555,54.319805153394555,0,0,0,782.2598489621722,401.412289481504 M782.2598489621722,401.412289481504 A54.31980515339474,54.31980515339474,0,0,0,794.0349025766973,419.03490257669733 M794.0349025766973,419.03490257669733" close="False" data-weight="1.0" stroke-width="7" fill="none" stroke="#ff1c5d" />
<path d="M698.625,1100.1704076850485 A103.64933488289898,103.64933488289898,0,0,0,696.5788818221001,1079.677214257368 M696.5788818221001,1079.677214257368 A34.2804342555045,34.2804342555045,0,0,0,687.2150974233027,1062.2150974233027 M687.2150974233027,1062.2150974233027" close="False" data-weight="1.0" stroke-width="7" fill="none" stroke="#ff1c5d" />
<path d="M644.0349025766973,1019.0349025766973 C636.0799512883486,1011.0799512883486,620.1700487116514,995.1700487116514,612.2150974233027,987.2150974233027" close="False" data-weight="0.0" stroke-width="7" fill="none" stroke="#ff1c5d" />
<path d="M569.0349025766973,944.0349025766973 C561.0799512883486,936.0799512883486,545.1700487116514,920.1700487116514,537.2150974233027,912.2150974233027" close="False" data-weight="0.0" stroke-width="7" fill="none" stroke="#ff1c5d" />
<path d="M499.07062760209664,769.9072944592613 A94.14124779007534,94.14124779007534,0,0,0,487.66680083788884,783.7212323607297 M487.66680083788884,783.7212323607297 A29.354107198636257,29.354107198636257,0,0,0,482.625,800.1704076850486 M482.625,800.1704076850486" close="False" data-weight="1.0" stroke-width="7" fill="none" stroke="#ff1c5d" />
<path d="M1169.0349025766973,912.2150974233027 L1212.2150974233027,869.0349025766973" close="False" data-weight="2.060660171779821" stroke-width="7" fill="none" stroke="#ff1c5d" />
<path d="M1169.0349025766973,794.0349025766973 L1212.2150974233027,837.2150974233027" close="False" data-weight="2.060660171779821" stroke-width="7" fill="none" stroke="#ff1c5d" />
<path d="M1078.125,1175.625 L1078.125,1205.625" close="False" data-weight="1.75" stroke-width="7" fill="none" stroke="#ff1c5d" />
<path d="M1078.125,1100.625 L1078.125,1130.625" close="False" data-weight="1.75" stroke-width="7" fill="none" stroke="#ff1c5d" />
<path d="M1078.125,1025.625 L1078.125,1055.625" close="False" data-weight="1.75" stroke-width="7" fill="none" stroke="#ff1c5d" />
<path d="M1094.0349025766973,987.2150974233027 L1137.2150974233027,944.0349025766973" close="False" data-weight="2.060660171779821" stroke-width="7" fill="none" stroke="#ff1c5d" />
<path d="M1094.0349025766973,719.0349025766973 L1137.2150974233027,762.2150974233027" close="False" data-weight="2.060660171779821" stroke-width="7" fill="none" stroke="#ff1c5d" />
<path d="M1019.0349025766973,1169.0349025766973 L1062.2150974233027,1212.2150974233027" close="False" data-weight="2.060660171779821" stroke-width="7" fill="none" stroke="#ff1c5d" />
<path d="M1019.0349025766973,644.0349025766973 L1062.2150974233027,687.2150974233027" close="False" data-weight="2.060660171779821" stroke-width="7" fill="none" stroke="#ff1c5d" />
<path d="M944.0349025766973,1094.0349025766973 L987.2150974233027,1137.2150974233027" close="False" data-weight="2.060660171779821" stroke-width="7" fill="none" stroke="#ff1c5d" />
<path d="M944.0349025766973,569.0349025766973 L987.2150974233027,612.2150974233027" close="False" data-weight="2.060660171779821" stroke-width="7" fill="none" stroke="#ff1c5d" />
<path d="M869.0349025766973,1019.0349025766973 L912.2150974233027,1062.2150974233027" close="False" data-weight="2.060660171779821" stroke-width="7" fill="none" stroke="#ff1c5d" />
<path d="M869.0349025766973,494.03490257669733 L912.2150974233027,537.2150974233027" close="False" data-weight="2.060660171779821" stroke-width="7" fill="none" stroke="#ff1c5d" />
<path d="M782.625,1025.1704076850485 L782.625,1056.0795923149515" close="False" data-weight="1.75" stroke-width="7" fill="none" stroke="#ff1c5d" />
<path d="M800.1704076850486,1007.625 L831.0795923149514,1007.625" close="False" data-weight="1.75" stroke-width="7" fill="none" stroke="#ff1c5d" />
<path d="M794.0349025766973,419.03490257669733 L837.2150974233027,462.21509742330267" close="False" data-weight="2.060660171779821" stroke-width="7" fill="none" stroke="#ff1c5d" />
<path d="M778.125,350.625 L778.125,380.625" close="False" data-weight="1.75" stroke-width="7" fill="none" stroke="#ff1c5d" />
<path d="M786.3427055407387,349.07062760209664 L832.1793723979072,394.90729445926513" close="False" data-weight="2.060660171779821" stroke-width="7" fill="none" stroke="#ff1c5d" />
<path d="M721.8954377834593,1140.7185232472195 L765.7185232472193,1096.8954377834596" close="False" data-weight="2.060660171779821" stroke-width="7" fill="none" stroke="#ff1c5d" />
<path d="M698.625,1100.1704076850485 L698.625,1131.0795923149515" close="False" data-weight="1.75" stroke-width="7" fill="none" stroke="#ff1c5d" />
<path d="M644.0349025766973,1019.0349025766973 L687.2150974233027,1062.2150974233027" close="False" data-weight="2.060660171779821" stroke-width="7" fill="none" stroke="#ff1c5d" />
<path d="M569.0349025766973,944.0349025766973 L612.2150974233027,987.2150974233027" close="False" data-weight="2.060660171779821" stroke-width="7" fill="none" stroke="#ff1c5d" />
<path d="M494.03490257669733,869.0349025766973 L537.2150974233027,912.2150974233027" close="False" data-weight="2.060660171779821" stroke-width="7" fill="none" stroke="#ff1c5d" />
<path d="M482.625,800.1704076850486 L482.625,831.0795923149514" close="False" data-weight="1.75" stroke-width="7" fill="none" stroke="#ff1c5d" />
<path d="M499.07062760209664,769.9072944592613 L544.9072944592651,724.0706276020928" close="False" data-weight="2.060660171779821" stroke-width="7" fill="none" stroke="#ff1c5d" />
<path d="M794.0349025766973,462.21509742330267 C786.0799512883486,470.1700487116513,770.1700487116514,486.0799512883487,762.2150974233027,494.03490257669733" close="False" data-weight="0.0" stroke-width="7" fill="none" stroke="#7cd3eb" />
<path d="M719.0349025766973,537.2150974233027 C711.0799512883486,545.1700487116514,695.1700487116514,561.0799512883486,687.2150974233027,569.0349025766973" close="False" data-weight="0.0" stroke-width="7" fill="none" stroke="#7cd3eb" />
<path d="M644.0349025766973,612.2150974233027 C636.0799512883486,620.1700487116514,620.1700487116514,636.0799512883486,612.2150974233027,644.0349025766973" close="False" data-weight="0.0" stroke-width="7" fill="none" stroke="#7cd3eb" />
<path d="M494.03490257669733,762.2150974233027 A112.70237015801659,112.70237015801659,0,0,0,479.85154502046396,779.5448427213877 M479.85154502046396,779.5448427213877 A37.274587386463224,37.274587386463224,0,0,0,473.625,800.1704076850486 M473.625,800.1704076850486" close="False" data-weight="1.0" stroke-width="7" fill="none" stroke="#7cd3eb" />
<path d="M419.03490257669733,794.0349025766973 A34.28043425550426,34.28043425550426,0,0,0,401.572785742632,784.6711181778998 M401.572785742632,784.6711181778998 A103.64933488289898,103.64933488289898,0,0,0,381.0795923149514,782.625 M381.0795923149514,782.625" close="False" data-weight="1.0" stroke-width="7" fill="none" stroke="#7cd3eb" />
<path d="M350.1704076850486,782.625 C339.14770384252427,782.625,317.10229615747573,782.625,306.0795923149514,782.625" close="False" data-weight="0.0" stroke-width="7" fill="none" stroke="#7cd3eb" />
<path d="M328.125,305.625 C328.125,316.875,328.125,339.375,328.125,350.625" close="False" data-weight="0.0" stroke-width="7" fill="none" stroke="#7cd3eb" />
<path d="M328.125,230.625 C328.125,241.875,328.125,264.375,328.125,275.625" close="False" data-weight="0.0" stroke-width="7" fill="none" stroke="#7cd3eb" />
<path d="M275.1704076850486,782.625 C264.14770384252427,782.625,242.10229615747568,782.625,231.07959231495138,782.625" close="False" data-weight="0.0" stroke-width="7" fill="none" stroke="#7cd3eb" />
<path d="M269.03490257669733,462.21509742330267 A34.28043425550459,34.28043425550459,0,0,1,251.572785742632,471.57888182210013 M251.572785742632,471.57888182210013 A103.64933488289961,103.64933488289961,0,0,1,231.07959231495138,473.625 M231.07959231495138,473.625" close="False" data-weight="1.0" stroke-width="7" fill="none" stroke="#7cd3eb" />
<path d="M200.17040768504862,782.625 C189.14770384252432,782.625,167.10229615747568,782.625,156.07959231495138,782.625" close="False" data-weight="0.0" stroke-width="7" fill="none" stroke="#7cd3eb" />
<path d="M103.125,680.625 C103.125,691.875,103.125,714.375,103.125,725.625" close="False" data-weight="0.0" stroke-width="7" fill="none" stroke="#7cd3eb" />
<path d="M103.125,605.625 C103.125,616.875,103.125,639.375,103.125,650.625" close="False" data-weight="0.0" stroke-width="7" fill="none" stroke="#7cd3eb" />
<path d="M119.0349025766973,537.2150974233027 A54.3198051533949,54.3198051533949,0,0,0,107.25984896217216,554.8377105184961 M107.25984896217216,554.8377105184961 A54.31980515339427,54.31980515339427,0,0,0,103.125,575.625 M103.125,575.625" close="False" data-weight="1.0" stroke-width="7" fill="none" stroke="#7cd3eb" />
<path d="M794.0349025766973,462.21509742330267 L837.2150974233027,419.03490257669733" close="False" data-weight="2.060660171779821" stroke-width="7" fill="none" stroke="#7cd3eb" />
<path d="M799.0706276020967,336.34270554073873 L844.9072944592574,382.1793723978995" close="False" data-weight="2.060660171779821" stroke-width="7" fill="none" stroke="#7cd3eb" />
<path d="M719.0349025766973,537.2150974233027 L762.2150974233027,494.03490257669733" close="False" data-weight="2.060660171779821" stroke-width="7" fill="none" stroke="#7cd3eb" />
<path d="M644.0349025766973,612.2150974233027 L687.2150974233027,569.0349025766973" close="False" data-weight="2.060660171779821" stroke-width="7" fill="none" stroke="#7cd3eb" />
<path d="M569.0349025766973,687.2150974233027 L612.2150974233027,644.0349025766973" close="False" data-weight="2.060660171779821" stroke-width="7" fill="none" stroke="#7cd3eb" />
<path d="M473.625,800.1704076850486 L473.625,831.0795923149514" close="False" data-weight="1.75" stroke-width="7" fill="none" stroke="#7cd3eb" />
<path d="M494.03490257669733,762.2150974233027 L537.2150974233027,719.0349025766973" close="False" data-weight="2.060660171779821" stroke-width="7" fill="none" stroke="#7cd3eb" />
<path d="M419.03490257669733,794.0349025766973 L462.21509742330267,837.2150974233027" close="False" data-weight="2.060660171779821" stroke-width="7" fill="none" stroke="#7cd3eb" />
<path d="M350.1704076850486,782.625 L381.0795923149514,782.625" close="False" data-weight="1.75" stroke-width="7" fill="none" stroke="#7cd3eb" />
<path d="M328.125,350.625 L328.125,380.625" close="False" data-weight="1.75" stroke-width="7" fill="none" stroke="#7cd3eb" />
<path d="M328.125,275.625 L328.125,305.625" close="False" data-weight="1.75" stroke-width="7" fill="none" stroke="#7cd3eb" />
<path d="M328.125,200.625 L328.125,230.625" close="False" data-weight="1.75" stroke-width="7" fill="none" stroke="#7cd3eb" />
<path d="M344.03490257669733,162.21509742330267 L387.21509742330267,119.0349025766973" close="False" data-weight="2.060660171779821" stroke-width="7" fill="none" stroke="#7cd3eb" />
<path d="M275.1704076850486,782.625 L306.0795923149514,782.625" close="False" data-weight="1.75" stroke-width="7" fill="none" stroke="#7cd3eb" />
<path d="M269.03490257669733,462.21509742330267 L312.21509742330267,419.03490257669733" close="False" data-weight="2.060660171779821" stroke-width="7" fill="none" stroke="#7cd3eb" />
<path d="M200.17040768504862,782.625 L231.07959231495138,782.625" close="False" data-weight="1.75" stroke-width="7" fill="none" stroke="#7cd3eb" />
<path d="M200.17040768504862,473.625 L231.07959231495138,473.625" close="False" data-weight="1.75" stroke-width="7" fill="none" stroke="#7cd3eb" />
<path d="M125.1704076850486,782.625 L156.07959231495138,782.625" close="False" data-weight="1.75" stroke-width="7" fill="none" stroke="#7cd3eb" />
<path d="M103.125,725.625 L103.125,755.625" close="False" data-weight="1.75" stroke-width="7" fill="none" stroke="#7cd3eb" />
<path d="M103.125,650.625 L103.125,680.625" close="False" data-weight="1.75" stroke-width="7" fill="none" stroke="#7cd3eb" />
<path d="M103.125,575.625 L103.125,605.625" close="False" data-weight="1.75" stroke-width="7" fill="none" stroke="#7cd3eb" />
<path d="M119.03490257669732,537.2150974233027 L162.2150974233027,494.03490257669733" close="False" data-weight="2.060660171779821" stroke-width="7" fill="none" stroke="#7cd3eb" />
<path d="M703.125,1055.625 C703.125,1066.8180317213075,707.625,1088.977375963741,707.625,1100.1704076850485" close="False" data-weight="0.0" stroke-width="7" fill="none" stroke="#8f0f12" />
<path d="M703.125,980.625 C703.125,991.875,703.125,1014.375,703.125,1025.625" close="False" data-weight="0.0" stroke-width="7" fill="none" stroke="#8f0f12" />
<path d="M703.125,905.625 C703.125,916.875,703.125,939.375,703.125,950.625" close="False" data-weight="0.0" stroke-width="7" fill="none" stroke="#8f0f12" />
<path d="M703.125,875.625 A54.31980515339478,54.31980515339478,0,0,0,698.9901510378278,854.8377105184961 M698.9901510378278,854.8377105184961 A54.319805153394256,54.319805153394256,0,0,0,687.2150974233027,837.2150974233027 M687.2150974233027,837.2150974233027" close="False" data-weight="1.0" stroke-width="7" fill="none" stroke="#8f0f12" />
<path d="M644.0349025766973,794.0349025766973 C636.0799512883486,786.0799512883486,620.1700487116514,770.1700487116514,612.2150974233027,762.2150974233027" close="False" data-weight="0.0" stroke-width="7" fill="none" stroke="#8f0f12" />
<path d="M486.34270554073873,757.1793723979033 A6667.235130666766,6667.235130666766,0,0,0,472.4270067562111,771.1362681241671 M472.4270067562111,771.1362681241671 A23.69169472741885,23.69169472741885,0,0,1,455.625,778.125 M455.625,778.125" close="False" data-weight="1.0" stroke-width="7" fill="none" stroke="#8f0f12" />
<path d="M425.625,778.125 C414.43196827869235,778.125,392.27262403625906,773.625,381.0795923149514,773.625" close="False" data-weight="0.0" stroke-width="7" fill="none" stroke="#8f0f12" />
<path d="M350.1704076850486,773.625 C339.14770384252427,773.625,317.10229615747573,773.625,306.0795923149514,773.625" close="False" data-weight="0.0" stroke-width="7" fill="none" stroke="#8f0f12" />
<path d="M275.1704076850486,773.625 C264.14770384252427,773.625,242.10229615747568,773.625,231.07959231495138,773.625" close="False" data-weight="0.0" stroke-width="7" fill="none" stroke="#8f0f12" />
<path d="M200.17040768504862,773.625 C189.14770384252432,773.625,167.10229615747568,773.625,156.07959231495138,773.625" close="False" data-weight="0.0" stroke-width="7" fill="none" stroke="#8f0f12" />
<path d="M773.625,1025.1704076850485 L773.625,1056.0795923149515" close="False" data-weight="1.75" stroke-width="7" fill="none" stroke="#8f0f12" />
<path d="M800.1704076850486,998.625 L831.0795923149514,998.625" close="False" data-weight="1.75" stroke-width="7" fill="none" stroke="#8f0f12" />
<path d="M715.5314767527805,1134.3545622165407 L759.3545622165409,1090.5314767527802" close="False" data-weight="2.060660171779821" stroke-width="7" fill="none" stroke="#8f0f12" />
<path d="M707.625,1100.1704076850485 L707.625,1131.0795923149515" close="False" data-weight="1.75" stroke-width="7" fill="none" stroke="#8f0f12" />
<path d="M703.125,1025.625 L703.125,1055.625" close="False" data-weight="1.75" stroke-width="7" fill="none" stroke="#8f0f12" />
<path d="M703.125,950.625 L703.125,980.625" close="False" data-weight="1.75" stroke-width="7" fill="none" stroke="#8f0f12" />
<path d="M703.125,875.625 L703.125,905.625" close="False" data-weight="1.75" stroke-width="7" fill="none" stroke="#8f0f12" />
<path d="M644.0349025766973,794.0349025766973 L687.2150974233027,837.2150974233027" close="False" data-weight="2.060660171779821" stroke-width="7" fill="none" stroke="#8f0f12" />
<path d="M569.0349025766973,719.0349025766973 L612.2150974233027,762.2150974233027" close="False" data-weight="2.060660171779821" stroke-width="7" fill="none" stroke="#8f0f12" />
<path d="M486.34270554073873,757.1793723979033 L532.1793723978994,711.3427055407426" close="False" data-weight="2.060660171779821" stroke-width="7" fill="none" stroke="#8f0f12" />
<path d="M425.625,778.125 L455.625,778.125" close="False" data-weight="1.75" stroke-width="7" fill="none" stroke="#8f0f12" />
<path d="M350.1704076850486,773.625 L381.0795923149514,773.625" close="False" data-weight="1.75" stroke-width="7" fill="none" stroke="#8f0f12" />
<path d="M275.1704076850486,773.625 L306.0795923149514,773.625" close="False" data-weight="1.75" stroke-width="7" fill="none" stroke="#8f0f12" />
<path d="M200.17040768504862,773.625 L231.07959231495138,773.625" close="False" data-weight="1.75" stroke-width="7" fill="none" stroke="#8f0f12" />
<path d="M125.1704076850486,773.625 L156.07959231495138,773.625" close="False" data-weight="1.75" stroke-width="7" fill="none" stroke="#8f0f12" />
<path d="M944.0349025766973,687.2150974233027 A54.3198051533949,54.3198051533949,0,0,1,926.4122894815039,698.9901510378279 M926.4122894815039,698.9901510378279 A54.31980515339421,54.31980515339421,0,0,1,905.625,703.125 M905.625,703.125" close="False" data-weight="1.0" stroke-width="7" fill="none" stroke="#90ea66" />
<path d="M875.625,703.125 C864.375,703.125,841.875,703.125,830.625,703.125" close="False" data-weight="0.0" stroke-width="7" fill="none" stroke="#90ea66" />
<path d="M800.625,703.125 C789.375,703.125,766.875,703.125,755.625,703.125" close="False" data-weight="0.0" stroke-width="7" fill="none" stroke="#90ea66" />
<path d="M725.625,703.125 C714.375,703.125,691.875,703.125,680.625,703.125" close="False" data-weight="0.0" stroke-width="7" fill="none" stroke="#90ea66" />
<path d="M650.625,703.125 C639.375,703.125,616.875,703.125,605.625,703.125" close="False" data-weight="0.0" stroke-width="7" fill="none" stroke="#90ea66" />
<path d="M494.03490257669733,644.0349025766973 C486.0799512883487,636.0799512883486,470.1700487116513,620.1700487116514,462.21509742330267,612.2150974233027" close="False" data-weight="0.0" stroke-width="7" fill="none" stroke="#90ea66" />
<path d="M419.03490257669733,569.0349025766973 C411.0799512883487,561.0799512883486,395.1700487116513,545.1700487116514,387.21509742330267,537.2150974233027" close="False" data-weight="0.0" stroke-width="7" fill="none" stroke="#90ea66" />
<path d="M344.03490257669733,494.03490257669733 A54.3198051533945,54.3198051533945,0,0,0,326.412289481504,482.25984896217227 M326.412289481504,482.25984896217227 A54.31980515339478,54.31980515339478,0,0,0,305.625,478.125 M305.625,478.125" close="False" data-weight="1.0" stroke-width="7" fill="none" stroke="#90ea66" />
<path d="M275.625,478.125 C264.43196827869235,478.125,242.27262403625903,482.625,231.07959231495138,482.625" close="False" data-weight="0.0" stroke-width="7" fill="none" stroke="#90ea66" />
<path d="M944.0349025766973,687.2150974233027 L987.2150974233027,644.0349025766973" close="False" data-weight="2.060660171779821" stroke-width="7" fill="none" stroke="#90ea66" />
<path d="M875.625,703.125 L905.625,703.125" close="False" data-weight="1.75" stroke-width="7" fill="none" stroke="#90ea66" />
<path d="M800.625,703.125 L830.625,703.125" close="False" data-weight="1.75" stroke-width="7" fill="none" stroke="#90ea66" />
<path d="M725.625,703.125 L755.625,703.125" close="False" data-weight="1.75" stroke-width="7" fill="none" stroke="#90ea66" />
<path d="M650.625,703.125 L680.625,703.125" close="False" data-weight="1.75" stroke-width="7" fill="none" stroke="#90ea66" />
<path d="M575.625,703.125 L605.625,703.125" close="False" data-weight="1.75" stroke-width="7" fill="none" stroke="#90ea66" />
<path d="M494.03490257669733,644.0349025766973 L537.2150974233027,687.2150974233027" close="False" data-weight="2.060660171779821" stroke-width="7" fill="none" stroke="#90ea66" />
<path d="M419.03490257669733,569.0349025766973 L462.21509742330267,612.2150974233027" close="False" data-weight="2.060660171779821" stroke-width="7" fill="none" stroke="#90ea66" />
<path d="M344.03490257669733,494.03490257669733 L387.21509742330267,537.2150974233027" close="False" data-weight="2.060660171779821" stroke-width="7" fill="none" stroke="#90ea66" />
<path d="M275.625,478.125 L305.625,478.125" close="False" data-weight="1.75" stroke-width="7" fill="none" stroke="#90ea66" />
<path d="M200.17040768504862,482.625 L231.07959231495138,482.625" close="False" data-weight="1.75" stroke-width="7" fill="none" stroke="#90ea66" />
<path d="M1094.0349025766973,312.21509742330267 A54.31980515339522,54.31980515339522,0,0,1,1076.412289481504,323.99015103782773 M1076.412289481504,323.99015103782773 A54.319805153393986,54.319805153393986,0,0,1,1055.625,328.125 M1055.625,328.125" close="False" data-weight="1.0" stroke-width="7" fill="none" stroke="#35618f" />
<path d="M1025.625,328.125 C1014.375,328.125,991.875,328.125,980.625,328.125" close="False" data-weight="0.0" stroke-width="7" fill="none" stroke="#35618f" />
<path d="M950.625,328.125 C939.375,328.125,916.875,328.125,905.625,328.125" close="False" data-weight="0.0" stroke-width="7" fill="none" stroke="#35618f" />
<path d="M875.625,328.125 C864.375,328.125,841.875,328.125,830.625,328.125" close="False" data-weight="0.0" stroke-width="7" fill="none" stroke="#35618f" />
<path d="M1175.625,253.125 L1205.625,253.125" close="False" data-weight="1.75" stroke-width="7" fill="none" stroke="#35618f" />
<path d="M1094.0349025766973,312.21509742330267 L1137.2150974233027,269.03490257669733" close="False" data-weight="2.060660171779821" stroke-width="7" fill="none" stroke="#35618f" />
<path d="M1025.625,328.125 L1055.625,328.125" close="False" data-weight="1.75" stroke-width="7" fill="none" stroke="#35618f" />
<path d="M950.625,328.125 L980.625,328.125" close="False" data-weight="1.75" stroke-width="7" fill="none" stroke="#35618f" />
<path d="M875.625,328.125 L905.625,328.125" close="False" data-weight="1.75" stroke-width="7" fill="none" stroke="#35618f" />
<path d="M794.0349025766973,344.03490257669733 L837.2150974233027,387.21509742330267" close="False" data-weight="2.060660171779821" stroke-width="7" fill="none" stroke="#35618f" />
<path d="M800.625,328.125 L830.625,328.125" close="False" data-weight="1.75" stroke-width="7" fill="none" stroke="#35618f" />
<image x="1195.625" y="820.625" width="65" height="65" xlink:href="designspace-test/./img/ds_dataset0_20_10_thumb.png" data-node="True" data-id="10" />
<image x="1195.625" y="220.625" width="65" height="65" xlink:href="designspace-test/./img/ds_dataset0_20_9_thumb.png" data-node="True" data-id="9" />
<image x="1120.625" y="220.625" width="65" height="65" xlink:href="designspace-test/./img/ds_dataset0_20_1_thumb.png" data-node="True" data-id="1" />
<image x="1045.625" y="1195.625" width="65" height="65" xlink:href="designspace-test/./img/ds_dataset0_20_5_thumb.png" data-node="True" data-id="5" />
<image x="1045.625" y="970.625" width="65" height="65" xlink:href="designspace-test/./img/ds_dataset0_20_17_thumb.png" data-node="True" data-id="17" />
<image x="970.625" y="595.625" width="65" height="65" xlink:href="designspace-test/./img/ds_dataset0_20_18_thumb.png" data-node="True" data-id="18" />
<image x="820.625" y="970.625" width="65" height="65" xlink:href="designspace-test/./img/ds_dataset0_20_0_thumb.png" data-node="True" data-id="0" />
<image x="820.625" y="370.625" width="65" height="65" xlink:href="designspace-test/./img/ds_dataset0_20_4_thumb.png" data-node="True" data-id="4" />
<image x="745.625" y="1045.625" width="65" height="65" xlink:href="designspace-test/./img/ds_dataset0_20_12_thumb.png" data-node="True" data-id="12" />
<image x="745.625" y="970.625" width="65" height="65" xlink:href="designspace-test/./img/ds_dataset0_20_8_thumb.png" data-node="True" data-id="8" />
<image x="745.625" y="295.625" width="65" height="65" xlink:href="designspace-test/./img/ds_dataset0_20_15_thumb.png" data-node="True" data-id="15" />
<image x="670.625" y="1120.625" width="65" height="65" xlink:href="designspace-test/./img/ds_dataset0_20_14_thumb.png" data-node="True" data-id="14" />
<image x="520.625" y="670.625" width="65" height="65" xlink:href="designspace-test/./img/ds_dataset0_20_19_thumb.png" data-node="True" data-id="19" />
<image x="445.625" y="820.625" width="65" height="65" xlink:href="designspace-test/./img/ds_dataset0_20_7_thumb.png" data-node="True" data-id="7" />
<image x="370.625" y="70.625" width="65" height="65" xlink:href="designspace-test/./img/ds_dataset0_20_11_thumb.png" data-node="True" data-id="11" />
<image x="295.625" y="370.625" width="65" height="65" xlink:href="designspace-test/./img/ds_dataset0_20_16_thumb.png" data-node="True" data-id="16" />
<image x="295.625" y="145.625" width="65" height="65" xlink:href="designspace-test/./img/ds_dataset0_20_13_thumb.png" data-node="True" data-id="13" />
<image x="220.625" y="1195.625" width="65" height="65" xlink:href="designspace-test/./img/ds_dataset0_20_6_thumb.png" data-node="True" data-id="6" />
<image x="145.625" y="445.625" width="65" height="65" xlink:href="designspace-test/./img/ds_dataset0_20_2_thumb.png" data-node="True" data-id="2" />
<image x="70.625" y="745.625" width="65" height="65" xlink:href="designspace-test/./img/ds_dataset0_20_3_thumb.png" data-node="True" data-id="3" />
</svg>