<?xml version="1.0" encoding="UTF-8"?>
<svg xmlns="http://www.w3.org/2000/svg" xmlns:xlink="http://www.w3.org/1999/xlink"
     width="1350" height="1350" viewBox="0 0 1350 1350">
<defs>
</defs>
<path d="M269.03490257669733,794.0349025766973 C261.0799512883487,786.0799512883486,245.1700487116513,770.1700487116514,237.21509742330267,762.2150974233027" close="False" data-weight="0.0" stroke-width="6" fill="none" stroke="#ffff33" />
<path d="M194.0349025766973,719.0349025766973 C186.07995128834867,711.0799512883486,170.1700487116513,695.1700487116514,162.21509742330267,687.2150974233027" close="False" data-weight="0.0" stroke-width="6" fill="none" stroke="#ffff33" />
<path d="M269.03490257669733,794.0349025766973 L312.21509742330267,837.2150974233027" close="False" data-weight="2.060660171779821" stroke-width="6" fill="none" stroke="#ffff33" />
<path d="M194.03490257669733,719.0349025766973 L237.2150974233027,762.2150974233027" close="False" data-weight="2.060660171779821" stroke-width="6" fill="none" stroke="#ffff33" />
<path d="M119.03490257669732,644.0349025766973 L162.2150974233027,687.2150974233027" close="False" data-weight="2.060660171779821" stroke-width="6" fill="none" stroke="#ffff33" />
<path d="M924.125,830.9834101745155 C924.125,842.0542050872577,924.125,864.1957949127423,924.125,875.2665898254845" close="False" data-weight="0.0" stroke-width="6" fill="none" stroke="#984ea3" />
<path d="M924.125,800.2665898254845 A49.45452644918669,49.45452644918669,0,0,0,920.360498327255,781.3411618979196 M920.360498327255,781.3411618979196 A49.45452644918702,49.45452644918702,0,0,0,909.6401045634026,765.296958812895 M909.6401045634026,765.296958812895" close="False" data-weight="1.0" stroke-width="6" fill="none" stroke="#984ea3" />
<path d="M865.953041187105,984.6401045634026 C858.1248070311793,992.4683387193282,842.4683387193282,1008.1248070311793,834.6401045634026,1015.953041187105" close="False" data-weight="0.0" stroke-width="6" fill="none" stroke="#984ea3" />
<path d="M871.6098954365974,865.953041187105 A57.45452644918628,57.45452644918628,0,0,0,852.970305561001,853.4984654126548 M852.970305561001,853.4984654126548 A57.4545264491876,57.4545264491876,0,0,0,830.9834101745155,849.125 M830.9834101745155,849.125" close="False" data-weight="1.0" stroke-width="6" fill="none" stroke="#984ea3" />
<path d="M790.953041187105,1059.6401045634027 A57.454526449186446,57.454526449186446,0,0,0,778.4984654126548,1078.2796944389988 M778.4984654126548,1078.2796944389988 A57.45452644918703,57.45452644918703,0,0,0,774.125,1100.2665898254845 M774.125,1100.2665898254845" close="False" data-weight="1.0" stroke-width="6" fill="none" stroke="#984ea3" />
<path d="M800.2665898254845,849.125 C789.1957949127423,849.125,767.0542050872577,849.125,755.9834101745155,849.125" close="False" data-weight="0.0" stroke-width="6" fill="none" stroke="#984ea3" />
<path d="M725.2665898254845,849.125 C714.1957949127423,849.125,692.0542050872577,849.125,680.9834101745155,849.125" close="False" data-weight="0.0" stroke-width="6" fill="none" stroke="#984ea3" />
<path d="M650.2665898254845,849.125 C639.1957949127423,849.125,617.0542050872577,849.125,605.9834101745155,849.125" close="False" data-weight="0.0" stroke-width="6" fill="none" stroke="#984ea3" />
<path d="M575.2665898254845,849.125 C564.1957949127423,849.125,542.0542050872577,849.125,530.9834101745155,849.125" close="False" data-weight="0.0" stroke-width="6" fill="none" stroke="#984ea3" />
<path d="M500.2665898254845,849.125 C489.19579491274226,849.125,467.05420508725774,849.125,455.9834101745155,849.125" close="False" data-weight="0.0" stroke-width="6" fill="none" stroke="#984ea3" />
<path d="M425.2665898254845,849.125 C414.19579491274226,849.125,392.05420508725774,849.125,380.9834101745155,849.125" close="False" data-weight="0.0" stroke-width="6" fill="none" stroke="#984ea3" />
<path d="M924.125,875.2665898254845 L924.125,905.9834101745155" close="False" data-weight="1.75" stroke-width="6" fill="none" stroke="#984ea3" />
<path d="M924.125,800.2665898254845 L924.125,830.9834101745155" close="False" data-weight="1.75" stroke-width="6" fill="none" stroke="#984ea3" />
<path d="M865.953041187105,984.6401045634026 L909.6401045634026,940.953041187105" close="False" data-weight="2.060660171779821" stroke-width="6" fill="none" stroke="#984ea3" />
<path d="M871.6098954365974,865.953041187105 L915.296958812895,909.6401045634026" close="False" data-weight="2.060660171779821" stroke-width="6" fill="none" stroke="#984ea3" />
<path d="M865.953041187105,721.6098954365974 L909.6401045634026,765.296958812895" close="False" data-weight="2.060660171779821" stroke-width="6" fill="none" stroke="#984ea3" />
<path d="M800.2665898254845,1232.125 L830.9834101745155,1232.125" close="False" data-weight="1.75" stroke-width="6" fill="none" stroke="#984ea3" />
<path d="M774.125,1175.2665898254845 L774.125,1205.9834101745155" close="False" data-weight="1.75" stroke-width="6" fill="none" stroke="#984ea3" />
<path d="M774.125,1100.2665898254845 L774.125,1130.9834101745155" close="False" data-weight="1.75" stroke-width="6" fill="none" stroke="#984ea3" />
<path d="M790.953041187105,1059.6401045634027 L834.6401045634026,1015.953041187105" close="False" data-weight="2.060660171779821" stroke-width="6" fill="none" stroke="#984ea3" />
<path d="M800.2665898254845,849.125 L830.9834101745155,849.125" close="False" data-weight="1.75" stroke-width="6" fill="none" stroke="#984ea3" />
<path d="M790.9530411871086,646.609895436601 L834.6401045634026,690.296958812895" close="False" data-weight="2.060660171779821" stroke-width="6" fill="none" stroke="#984ea3" />
<path d="M778.125,575.625 L778.125,605.625" close="False" data-weight="1.75" stroke-width="6" fill="none" stroke="#984ea3" />
<path d="M725.2665898254845,1232.125 L755.9834101745155,1232.125" close="False" data-weight="1.75" stroke-width="6" fill="none" stroke="#984ea3" />
<path d="M725.2665898254845,849.125 L755.9834101745155,849.125" close="False" data-weight="1.75" stroke-width="6" fill="none" stroke="#984ea3" />
<path d="M644.0349025766973,1169.0349025766973 L687.2150974233027,1212.2150974233027" close="False" data-weight="2.060660171779821" stroke-width="6" fill="none" stroke="#984ea3" />
<path d="M650.2665898254845,849.125 L680.9834101745155,849.125" close="False" data-weight="1.75" stroke-width="6" fill="none" stroke="#984ea3" />
<path d="M553.125,1175.625 L553.125,1205.625" close="False" data-weight="1.75" stroke-width="6" fill="none" stroke="#984ea3" />
<path d="M575.625,1153.125 L605.625,1153.125" close="False" data-weight="1.75" stroke-width="6" fill="none" stroke="#984ea3" />
<path d="M575.2665898254845,849.125 L605.9834101745155,849.125" close="False" data-weight="1.75" stroke-width="6" fill="none" stroke="#984ea3" />
<path d="M500.2665898254845,849.125 L530.9834101745155,849.125" close="False" data-weight="1.75" stroke-width="6" fill="none" stroke="#984ea3" />
<path d="M425.2665898254845,849.125 L455.9834101745155,849.125" close="False" data-weight="1.75" stroke-width="6" fill="none" stroke="#984ea3" />
<path d="M350.2665898254845,849.125 L380.9834101745155,849.125" close="False" data-weight="1.75" stroke-width="6" fill="none" stroke="#984ea3" />
<path d="M1165.9530411871049,909.6401045634026 A49.45452644918799,49.45452644918799,0,0,1,1149.9088381020804,920.360498327255 M1149.9088381020804,920.360498327255 A49.45452644918544,49.45452644918544,0,0,1,1130.9834101745155,924.125 M1130.9834101745155,924.125" close="False" data-weight="1.0" stroke-width="6" fill="none" stroke="#ff7f00" />
<path d="M1100.2665898254845,924.125 C1089.1957949127423,924.125,1067.0542050872577,924.125,1055.9834101745155,924.125" close="False" data-weight="0.0" stroke-width="6" fill="none" stroke="#ff7f00" />
<path d="M1094.0349025766973,344.03490257669733 C1086.0799512883486,336.0799512883487,1070.1700487116514,320.1700487116513,1062.2150974233027,312.21509742330267" close="False" data-weight="0.0" stroke-width="6" fill="none" stroke="#ff7f00" />
<path d="M1025.2665898254845,924.125 C1014.1957949127423,924.125,992.0542050872577,924.125,980.9834101745155,924.125" close="False" data-weight="0.0" stroke-width="6" fill="none" stroke="#ff7f00" />
<path d="M1007.125,830.9834101745155 A57.45452644918623,57.45452644918623,0,0,1,1002.7515345873452,852.9703055610012 M1002.7515345873452,852.9703055610012 A57.45452644918757,57.45452644918757,0,0,1,990.296958812895,871.6098954365974 M990.296958812895,871.6098954365974" close="False" data-weight="1.0" stroke-width="6" fill="none" stroke="#ff7f00" />
<path d="M1007.125,755.9834101745155 C1007.125,767.0542050872577,1007.125,789.1957949127423,1007.125,800.2665898254845" close="False" data-weight="0.0" stroke-width="6" fill="none" stroke="#ff7f00" />
<path d="M1007.125,680.9834101745155 C1007.125,692.0542050872577,1007.125,714.1957949127423,1007.125,725.2665898254845" close="False" data-weight="0.0" stroke-width="6" fill="none" stroke="#ff7f00" />
<path d="M1007.125,605.9834101745155 C1007.125,617.0542050872577,1007.125,639.1957949127423,1007.125,650.2665898254845" close="False" data-weight="0.0" stroke-width="6" fill="none" stroke="#ff7f00" />
<path d="M1007.125,530.9834101745155 C1007.125,542.0542050872577,1007.125,564.1957949127423,1007.125,575.2665898254845" close="False" data-weight="0.0" stroke-width="6" fill="none" stroke="#ff7f00" />
<path d="M1007.125,455.9834101745155 C1007.125,467.05420508725774,1007.125,489.19579491274226,1007.125,500.2665898254845" close="False" data-weight="0.0" stroke-width="6" fill="none" stroke="#ff7f00" />
<path d="M1007.125,380.9834101745155 C1007.125,392.05420508725774,1007.125,414.19579491274226,1007.125,425.2665898254845" close="False" data-weight="0.0" stroke-width="6" fill="none" stroke="#ff7f00" />
<path d="M1007.125,305.9834101745155 C1007.125,317.05420508725774,1007.125,339.19579491274226,1007.125,350.2665898254845" close="False" data-weight="0.0" stroke-width="6" fill="none" stroke="#ff7f00" />
<path d="M932.125,830.9834101745155 C932.125,842.0542050872577,932.125,864.1957949127423,932.125,875.2665898254845" close="False" data-weight="0.0" stroke-width="6" fill="none" stroke="#ff7f00" />
<path d="M932.125,800.2665898254845 A57.45452644918623,57.45452644918623,0,0,0,927.7515345873452,778.2796944389988 M927.7515345873452,778.2796944389988 A57.45452644918757,57.45452644918757,0,0,0,915.296958812895,759.6401045634026 M915.296958812895,759.6401045634026" close="False" data-weight="1.0" stroke-width="6" fill="none" stroke="#ff7f00" />
<path d="M1228.125,425.625 L1228.125,455.625" close="False" data-weight="1.75" stroke-width="6" fill="none" stroke="#ff7f00" />
<path d="M1165.9530411871049,909.6401045634026 L1209.6401045634027,865.953041187105" close="False" data-weight="2.060660171779821" stroke-width="6" fill="none" stroke="#ff7f00" />
<path d="M1175.625,403.125 L1205.625,403.125" close="False" data-weight="1.75" stroke-width="6" fill="none" stroke="#ff7f00" />
<path d="M1100.2665898254845,924.125 L1130.9834101745155,924.125" close="False" data-weight="1.75" stroke-width="6" fill="none" stroke="#ff7f00" />
<path d="M1094.0349025766973,344.03490257669733 L1137.2150974233027,387.21509742330267" close="False" data-weight="2.060660171779821" stroke-width="6" fill="none" stroke="#ff7f00" />
<path d="M1025.2665898254845,924.125 L1055.9834101745155,924.125" close="False" data-weight="1.75" stroke-width="6" fill="none" stroke="#ff7f00" />
<path d="M1007.125,800.2665898254845 L1007.125,830.9834101745155" close="False" data-weight="1.75" stroke-width="6" fill="none" stroke="#ff7f00" />
<path d="M1007.125,725.2665898254845 L1007.125,755.9834101745155" close="False" data-weight="1.75" stroke-width="6" fill="none" stroke="#ff7f00" />
<path d="M1007.125,650.2665898254845 L1007.125,680.9834101745155" close="False" data-weight="1.75" stroke-width="6" fill="none" stroke="#ff7f00" />
<path d="M1007.125,575.2665898254845 L1007.125,605.9834101745155" close="False" data-weight="1.75" stroke-width="6" fill="none" stroke="#ff7f00" />
<path d="M1007.125,500.2665898254845 L1007.125,530.9834101745155" close="False" data-weight="1.75" stroke-width="6" fill="none" stroke="#ff7f00" />
<path d="M1007.125,425.2665898254845 L1007.125,455.9834101745155" close="False" data-weight="1.75" stroke-width="6" fill="none" stroke="#ff7f00" />
<path d="M1007.125,350.2665898254845 L1007.125,380.9834101745155" close="False" data-weight="1.75" stroke-width="6" fill="none" stroke="#ff7f00" />
<path d="M1007.125,275.2665898254845 L1007.125,305.9834101745155" close="False" data-weight="1.75" stroke-width="6" fill="none" stroke="#ff7f00" />
<path d="M1019.0349025766973,269.03490257669733 L1062.2150974233027,312.21509742330267" close="False" data-weight="2.060660171779821" stroke-width="6" fill="none" stroke="#ff7f00" />
<path d="M950.2665898254845,924.125 L980.9834101745155,924.125" close="False" data-weight="1.75" stroke-width="6" fill="none" stroke="#ff7f00" />
<path d="M946.6098954365974,915.296958812895 L990.296958812895,871.6098954365974" close="False" data-weight="2.060660171779821" stroke-width="6" fill="none" stroke="#ff7f00" />
<path d="M932.125,875.2665898254845 L932.125,905.9834101745155" close="False" data-weight="1.75" stroke-width="6" fill="none" stroke="#ff7f00" />
<path d="M932.125,800.2665898254845 L932.125,830.9834101745155" close="False" data-weight="1.75" stroke-width="6" fill="none" stroke="#ff7f00" />
<path d="M871.6098954365974,715.953041187105 L915.296958812895,759.6401045634026" close="False" data-weight="2.060660171779821" stroke-width="6" fill="none" stroke="#ff7f00" />
<path d="M796.6098954365937,640.9530411871012 L840.296958812895,684.6401045634026" close="False" data-weight="2.060660171779821" stroke-width="6" fill="none" stroke="#ff7f00" />
<path d="M786.125,574.1547408448131 L786.125,607.0952591551869" close="False" data-weight="1.75" stroke-width="6" fill="none" stroke="#ff7f00" />
<path d="M1171.6098954365973,915.296958812895 A57.454526449186446,57.454526449186446,0,0,1,1152.9703055610012,927.7515345873452 M1152.9703055610012,927.7515345873452 A57.45452644918703,57.45452644918703,0,0,1,1130.9834101745155,932.125 M1130.9834101745155,932.125" close="False" data-weight="1.0" stroke-width="6" fill="none" stroke="#4daf4a" />
<path d="M1100.2665898254845,932.125 C1089.1957949127423,932.125,1067.0542050872577,932.125,1055.9834101745155,932.125" close="False" data-weight="0.0" stroke-width="6" fill="none" stroke="#4daf4a" />
<path d="M1025.2665898254845,932.125 C1014.1957949127423,932.125,992.0542050872577,932.125,980.9834101745155,932.125" close="False" data-weight="0.0" stroke-width="6" fill="none" stroke="#4daf4a" />
<path d="M871.6098954365974,990.296958812895 C863.7816612806718,998.1251929688207,848.1251929688207,1013.7816612806718,840.296958812895,1021.6098954365974" close="False" data-weight="0.0" stroke-width="6" fill="none" stroke="#4daf4a" />
<path d="M796.6098954365974,1065.2969588128951 A49.45452644918799,49.45452644918799,0,0,0,785.889501672745,1081.3411618979196 M785.889501672745,1081.3411618979196 A49.45452644918544,49.45452644918544,0,0,0,782.125,1100.2665898254845 M782.125,1100.2665898254845" close="False" data-weight="1.0" stroke-width="6" fill="none" stroke="#4daf4a" />
<path d="M1171.6098954365973,915.296958812895 L1215.2969588128951,871.6098954365974" close="False" data-weight="2.060660171779821" stroke-width="6" fill="none" stroke="#4daf4a" />
<path d="M1100.2665898254845,932.125 L1130.9834101745155,932.125" close="False" data-weight="1.75" stroke-width="6" fill="none" stroke="#4daf4a" />
<path d="M1025.2665898254845,932.125 L1055.9834101745155,932.125" close="False" data-weight="1.75" stroke-width="6" fill="none" stroke="#4daf4a" />
<path d="M950.2665898254845,932.125 L980.9834101745155,932.125" close="False" data-weight="1.75" stroke-width="6" fill="none" stroke="#4daf4a" />
<path d="M871.6098954365974,990.296958812895 L915.296958812895,946.6098954365974" close="False" data-weight="2.060660171779821" stroke-width="6" fill="none" stroke="#4daf4a" />
<path d="M800.2665898254845,1224.125 L830.9834101745155,1224.125" close="False" data-weight="1.75" stroke-width="6" fill="none" stroke="#4daf4a" />
<path d="M782.125,1175.2665898254845 L782.125,1205.9834101745155" close="False" data-weight="1.75" stroke-width="6" fill="none" stroke="#4daf4a" />
<path d="M782.125,1100.2665898254845 L782.125,1130.9834101745155" close="False" data-weight="1.75" stroke-width="6" fill="none" stroke="#4daf4a" />
<path d="M796.6098954365974,1065.2969588128951 L840.296958812895,1021.6098954365974" close="False" data-weight="2.060660171779821" stroke-width="6" fill="none" stroke="#4daf4a" />
<path d="M725.2665898254845,1224.125 L755.9834101745155,1224.125" close="False" data-weight="1.75" stroke-width="6" fill="none" stroke="#4daf4a" />
<path d="M999.125,830.9834101745155 A49.45452644918669,49.45452644918669,0,0,1,995.360498327255,849.9088381020804 M995.360498327255,849.9088381020804 A49.45452644918702,49.45452644918702,0,0,1,984.6401045634026,865.953041187105 M984.6401045634026,865.953041187105" close="False" data-weight="1.0" stroke-width="6" fill="none" stroke="#377eb8" />
<path d="M999.125,755.9834101745155 C999.125,767.0542050872577,999.125,789.1957949127423,999.125,800.2665898254845" close="False" data-weight="0.0" stroke-width="6" fill="none" stroke="#377eb8" />
<path d="M999.125,680.9834101745155 C999.125,692.0542050872577,999.125,714.1957949127423,999.125,725.2665898254845" close="False" data-weight="0.0" stroke-width="6" fill="none" stroke="#377eb8" />
<path d="M999.125,605.9834101745155 C999.125,617.0542050872577,999.125,639.1957949127423,999.125,650.2665898254845" close="False" data-weight="0.0" stroke-width="6" fill="none" stroke="#377eb8" />
<path d="M999.125,530.9834101745155 C999.125,542.0542050872577,999.125,564.1957949127423,999.125,575.2665898254845" close="False" data-weight="0.0" stroke-width="6" fill="none" stroke="#377eb8" />
<path d="M999.125,455.9834101745155 C999.125,467.05420508725774,999.125,489.19579491274226,999.125,500.2665898254845" close="False" data-weight="0.0" stroke-width="6" fill="none" stroke="#377eb8" />
<path d="M999.125,380.9834101745155 C999.125,392.05420508725774,999.125,414.19579491274226,999.125,425.2665898254845" close="False" data-weight="0.0" stroke-width="6" fill="none" stroke="#377eb8" />
<path d="M999.125,305.9834101745155 C999.125,317.05420508725774,999.125,339.19579491274226,999.125,350.2665898254845" close="False" data-weight="0.0" stroke-width="6" fill="none" stroke="#377eb8" />
<path d="M865.953041187105,871.6098954365974 A49.45452644918767,49.45452644918767,0,0,0,849.9088381020804,860.889501672745 M849.9088381020804,860.889501672745 A49.45452644918612,49.45452644918612,0,0,0,830.9834101745155,857.125 M830.9834101745155,857.125" close="False" data-weight="1.0" stroke-width="6" fill="none" stroke="#377eb8" />
<path d="M800.2665898254845,857.125 C789.1957949127423,857.125,767.0542050872577,857.125,755.9834101745155,857.125" close="False" data-weight="0.0" stroke-width="6" fill="none" stroke="#377eb8" />
<path d="M725.2665898254845,857.125 C714.1957949127423,857.125,692.0542050872577,857.125,680.9834101745155,857.125" close="False" data-weight="0.0" stroke-width="6" fill="none" stroke="#377eb8" />
<path d="M650.2665898254845,857.125 C639.1957949127423,857.125,617.0542050872577,857.125,605.9834101745155,857.125" close="False" data-weight="0.0" stroke-width="6" fill="none" stroke="#377eb8" />
<path d="M575.2665898254845,857.125 C564.1957949127423,857.125,542.0542050872577,857.125,530.9834101745155,857.125" close="False" data-weight="0.0" stroke-width="6" fill="none" stroke="#377eb8" />
<path d="M500.2665898254845,857.125 C489.19579491274226,857.125,467.05420508725774,857.125,455.9834101745155,857.125" close="False" data-weight="0.0" stroke-width="6" fill="none" stroke="#377eb8" />
<path d="M425.2665898254845,857.125 C414.19579491274226,857.125,392.05420508725774,857.125,380.9834101745155,857.125" close="False" data-weight="0.0" stroke-width="6" fill="none" stroke="#377eb8" />
<path d="M999.125,800.2665898254845 L999.125,830.9834101745155" close="False" data-weight="1.75" stroke-width="6" fill="none" stroke="#377eb8" />
<path d="M999.125,725.2665898254845 L999.125,755.9834101745155" close="False" data-weight="1.75" stroke-width="6" fill="none" stroke="#377eb8" />
<path d="M999.125,650.2665898254845 L999.125,680.9834101745155" close="False" data-weight="1.75" stroke-width="6" fill="none" stroke="#377eb8" />
<path d="M999.125,575.2665898254845 L999.125,605.9834101745155" close="False" data-weight="1.75" stroke-width="6" fill="none" stroke="#377eb8" />
<path d="M999.125,500.2665898254845 L999.125,530.9834101745155" close="False" data-weight="1.75" stroke-width="6" fill="none" stroke="#377eb8" />
<path d="M999.125,425.2665898254845 L999.125,455.9834101745155" close="False" data-weight="1.75" stroke-width="6" fill="none" stroke="#377eb8" />
<path d="M999.125,350.2665898254845 L999.125,380.9834101745155" close="False" data-weight="1.75" stroke-width="6" fill="none" stroke="#377eb8" />
<path d="M999.125,275.2665898254845 L999.125,305.9834101745155" close="False" data-weight="1.75" stroke-width="6" fill="none" stroke="#377eb8" />
<path d="M940.953041187105,909.6401045634026 L984.6401045634026,865.953041187105" close="False" data-weight="2.060660171779821" stroke-width="6" fill="none" stroke="#377eb8" />
<path d="M865.953041187105,871.6098954365974 L909.6401045634026,915.296958812895" close="False" data-weight="2.060660171779821" stroke-width="6" fill="none" stroke="#377eb8" />
<path d="M800.2665898254845,857.125 L830.9834101745155,857.125" close="False" data-weight="1.75" stroke-width="6" fill="none" stroke="#377eb8" />
<path d="M725.2665898254845,857.125 L755.9834101745155,857.125" close="False" data-weight="1.75" stroke-width="6" fill="none" stroke="#377eb8" />
<path d="M650.2665898254845,857.125 L680.9834101745155,857.125" close="False" data-weight="1.75" stroke-width="6" fill="none" stroke="#377eb8" />
<path d="M575.2665898254845,857.125 L605.9834101745155,857.125" close="False" data-weight="1.75" stroke-width="6" fill="none" stroke="#377eb8" />
<path d="M500.2665898254845,857.125 L530.9834101745155,857.125" close="False" data-weight="1.75" stroke-width="6" fill="none" stroke="#377eb8" />
<path d="M425.2665898254845,857.125 L455.9834101745155,857.125" close="False" data-weight="1.75" stroke-width="6" fill="none" stroke="#377eb8" />
<path d="M350.2665898254845,857.125 L380.9834101745155,857.125" close="False" data-weight="1.75" stroke-width="6" fill="none" stroke="#377eb8" />
<path d="M778.125,500.625 A54.319805153394555,54.319805153394555,0,0,0,773.9901510378278,479.837710518496 M773.9901510378278,479.837710518496 A54.31980515339474,54.31980515339474,0,0,0,762.2150974233027,462.21509742330267 M762.2150974233027,462.21509742330267" close="False" data-weight="1.0" stroke-width="6" fill="none" stroke="#e41a1c" />
<path d="M719.0349025766973,419.03490257669733 C711.0799512883486,411.0799512883487,695.1700487116514,395.1700487116513,687.2150974233027,387.21509742330267" close="False" data-weight="0.0" stroke-width="6" fill="none" stroke="#e41a1c" />
<path d="M644.0349025766973,344.03490257669733 C636.0799512883486,336.0799512883487,620.1700487116514,320.1700487116513,612.2150974233027,312.21509742330267" close="False" data-weight="0.0" stroke-width="6" fill="none" stroke="#e41a1c" />
<path d="M569.0349025766973,269.03490257669733 C561.0799512883486,261.0799512883487,545.1700487116514,245.1700487116513,537.2150974233027,237.21509742330267" close="False" data-weight="0.0" stroke-width="6" fill="none" stroke="#e41a1c" />
<path d="M770.125,574.1547408448131 L770.125,607.0952591551869" close="False" data-weight="1.75" stroke-width="6" fill="none" stroke="#e41a1c" />
<path d="M778.125,500.625 L778.125,530.625" close="False" data-weight="1.75" stroke-width="6" fill="none" stroke="#e41a1c" />
<path d="M719.0349025766973,419.03490257669733 L762.2150974233027,462.21509742330267" close="False" data-weight="2.060660171779821" stroke-width="6" fill="none" stroke="#e41a1c" />
<path d="M644.0349025766973,344.03490257669733 L687.2150974233027,387.21509742330267" close="False" data-weight="2.060660171779821" stroke-width="6" fill="none" stroke="#e41a1c" />
<path d="M569.0349025766973,269.03490257669733 L612.2150974233027,312.21509742330267" close="False" data-weight="2.060660171779821" stroke-width="6" fill="none" stroke="#e41a1c" />
<path d="M494.03490257669733,194.03490257669733 L537.2150974233027,237.2150974233027" close="False" data-weight="2.060660171779821" stroke-width="6" fill="none" stroke="#e41a1c" />
<path d="M478.125,125.625 L478.125,155.625" close="False" data-weight="1.75" stroke-width="6" fill="none" stroke="#e41a1c" />
<image x="1195.625" y="820.625" width="65" height="65" xlink:href="designspace-test/./img/ds_dataset0_20_3_thumb.png">
<title>3</title>
</image>
<image x="1195.625" y="445.625" width="65" height="65" xlink:href="designspace-test/./img/ds_dataset0_20_16_thumb.png">
<title>16</title>
</image>
<image x="1195.625" y="370.625" width="65" height="65" xlink:href="designspace-test/./img/ds_dataset0_20_11_thumb.png">
<title>11</title>
</image>
<image x="1120.625" y="370.625" width="65" height="65" xlink:href="designspace-test/./img/ds_dataset0_20_13_thumb.png">
<title>13</title>
</image>
<image x="970.625" y="220.625" width="65" height="65" xlink:href="designspace-test/./img/ds_dataset0_20_2_thumb.png">
<title>2</title>
</image>
<image x="895.625" y="895.625" width="65" height="65" xlink:href="designspace-test/./img/ds_dataset0_20_19_thumb.png">
<title>19</title>
</image>
<image x="820.625" y="1195.625" width="65" height="65" xlink:href="designspace-test/./img/ds_dataset0_20_12_thumb.png">
<title>12</title>
</image>
<image x="820.625" y="670.625" width="65" height="65" xlink:href="designspace-test/./img/ds_dataset0_20_7_thumb.png">
<title>7</title>
</image>
<image x="745.625" y="1195.625" width="65" height="65" xlink:href="designspace-test/./img/ds_dataset0_20_0_thumb.png">
<title>0</title>
</image>
<image x="745.625" y="1120.625" width="65" height="65" xlink:href="designspace-test/./img/ds_dataset0_20_8_thumb.png">
<title>8</title>
</image>
<image x="745.625" y="595.625" width="65" height="65" xlink:href="designspace-test/./img/ds_dataset0_20_4_thumb.png">
<title>4</title>
</image>
<image x="745.625" y="520.625" width="65" height="65" xlink:href="designspace-test/./img/ds_dataset0_20_15_thumb.png">
<title>15</title>
</image>
<image x="670.625" y="1195.625" width="65" height="65" xlink:href="designspace-test/./img/ds_dataset0_20_14_thumb.png">
<title>14</title>
</image>
<image x="595.625" y="1120.625" width="65" height="65" xlink:href="designspace-test/./img/ds_dataset0_20_5_thumb.png">
<title>5</title>
</image>
<image x="520.625" y="1195.625" width="65" height="65" xlink:href="designspace-test/./img/ds_dataset0_20_17_thumb.png">
<title>17</title>
</image>
<image x="520.625" y="1120.625" width="65" height="65" xlink:href="designspace-test/./img/ds_dataset0_20_10_thumb.png">
<title>10</title>
</image>
<image x="445.625" y="145.625" width="65" height="65" xlink:href="designspace-test/./img/ds_dataset0_20_9_thumb.png">
<title>9</title>
</image>
<image x="445.625" y="70.625" width="65" height="65" xlink:href="designspace-test/./img/ds_dataset0_20_1_thumb.png">
<title>1</title>
</image>
<image x="295.625" y="820.625" width="65" height="65" xlink:href="designspace-test/./img/ds_dataset0_20_18_thumb.png">
<title>18</title>
</image>
<image x="70.625" y="595.625" width="65" height="65" xlink:href="designspace-test/./img/ds_dataset0_20_6_thumb.png">
<title>6</title>
</image>
</svg>