<?xml version="1.0" encoding="UTF-8"?>
<svg xmlns="http://www.w3.org/2000/svg" xmlns:xlink="http://www.w3.org/1999/xlink"
     viewBox="0 0 2550 2550" preserveAspectRatio="xMidYMid meet">
<defs>
</defs>
<path d="M2428.125,1130.625 A54.31980515339728,54.31980515339728,0,0,1,2423.9901510378277,1151.412289481504 M2423.9901510378277,1151.412289481504 A54.319805153387826,54.319805153387826,0,0,1,2412.2150974233027,1169.0349025766973 M2412.2150974233027,1169.0349025766973" close="False" data-weight="1.0" stroke-width="7" fill="none" stroke="#1fa562" />
<path d="M2428.125,1055.625 C2428.125,1066.875,2428.125,1089.375,2428.125,1100.625" close="False" data-weight="0.0" stroke-width="7" fill="none" stroke="#1fa562" />
<path d="M2428.125,980.625 C2428.125,991.875,2428.125,1014.375,2428.125,1025.625" close="False" data-weight="0.0" stroke-width="7" fill="none" stroke="#1fa562" />
<path d="M2428.125,905.625 C2428.125,916.875,2428.125,939.375,2428.125,950.625" close="False" data-weight="0.0" stroke-width="7" fill="none" stroke="#1fa562" />
<path d="M2428.125,830.625 C2428.125,841.875,2428.125,864.375,2428.125,875.625" close="False" data-weight="0.0" stroke-width="7" fill="none" stroke="#1fa562" />
<path d="M2428.125,755.625 C2428.125,766.875,2428.125,789.375,2428.125,800.625" close="False" data-weight="0.0" stroke-width="7" fill="none" stroke="#1fa562" />
<path d="M2428.125,680.625 C2428.125,691.875,2428.125,714.375,2428.125,725.625" close="False" data-weight="0.0" stroke-width="7" fill="none" stroke="#1fa562" />
<path d="M2369.0349025766973,1212.2150974233027 C2361.1202339445244,1220.1297660554756,2348.6331918793926,1238.9807691512865,2340.7185232472198,1246.8954377834593" close="False" data-weight="0.0" stroke-width="7" fill="none" stroke="#1fa562" />
<path d="M2371.89543778346,565.5314767527807 C2364.1012091494,557.7372481187207,2348.5127518812797,542.1487908506007,2340.7185232472198,534.3545622165407" close="False" data-weight="0.0" stroke-width="7" fill="none" stroke="#1fa562" />
<path d="M2296.89543778346,490.53147675278063 C2289.1012091494,482.7372481187206,2273.5127518812797,467.1487908506006,2265.7185232472198,459.3545622165406" close="False" data-weight="0.0" stroke-width="7" fill="none" stroke="#1fa562" />
<path d="M2221.8954377834593,415.5314767527805 C2214.1012091493994,407.73724811872063,2198.5127518812797,392.1487908506005,2190.7185232472198,384.3545622165406" close="False" data-weight="0.0" stroke-width="7" fill="none" stroke="#1fa562" />
<path d="M2146.8954377834593,340.5314767527805 A57.722322221290376,57.722322221290376,0,0,0,2128.168968706678,328.01885015201856 M2128.168968706678,328.01885015201856 A57.722322221286845,57.722322221286845,0,0,0,2106.0795923149512,323.625 M2106.0795923149512,323.625" close="False" data-weight="1.0" stroke-width="7" fill="none" stroke="#1fa562" />
<path d="M2075.1704076850488,323.625 C2064.1477038425246,323.625,2042.1022961574758,323.625,2031.0795923149515,323.625" close="False" data-weight="0.0" stroke-width="7" fill="none" stroke="#1fa562" />
<path d="M2000.1704076850485,323.625 C1989.1477038425242,323.625,1967.1022961574758,323.625,1956.0795923149515,323.625" close="False" data-weight="0.0" stroke-width="7" fill="none" stroke="#1fa562" />
<path d="M1925.1704076850485,323.625 C1914.1477038425242,323.625,1892.1022961574758,323.625,1881.0795923149515,323.625" close="False" data-weight="0.0" stroke-width="7" fill="none" stroke="#1fa562" />
<path d="M1850.1704076850485,323.625 C1839.1477038425242,323.625,1817.1022961574758,323.625,1806.0795923149515,323.625" close="False" data-weight="0.0" stroke-width="7" fill="none" stroke="#1fa562" />
<path d="M1775.1704076850485,323.625 C1764.1477038425242,323.625,1742.1022961574758,323.625,1731.0795923149515,323.625" close="False" data-weight="0.0" stroke-width="7" fill="none" stroke="#1fa562" />
<path d="M1700.1704076850485,323.625 C1689.1477038425242,323.625,1667.1022961574758,323.625,1656.0795923149515,323.625" close="False" data-weight="0.0" stroke-width="7" fill="none" stroke="#1fa562" />
<path d="M1625.1704076850485,323.625 C1614.1477038425242,323.625,1592.1022961574758,323.625,1581.0795923149515,323.625" close="False" data-weight="0.0" stroke-width="7" fill="none" stroke="#1fa562" />
<path d="M1550.1704076850485,323.625 C1539.1477038425242,323.625,1517.1022961574758,323.625,1506.0795923149515,323.625" close="False" data-weight="0.0" stroke-width="7" fill="none" stroke="#1fa562" />
<path d="M2428.125,1100.625 L2428.125,1130.625" close="False" data-weight="1.75" stroke-width="7" fill="none" stroke="#1fa562" />
<path d="M2428.125,1025.625 L2428.125,1055.625" close="False" data-weight="1.75" stroke-width="7" fill="none" stroke="#1fa562" />
<path d="M2428.125,950.625 L2428.125,980.625" close="False" data-weight="1.75" stroke-width="7" fill="none" stroke="#1fa562" />
<path d="M2428.125,875.625 L2428.125,905.625" close="False" data-weight="1.75" stroke-width="7" fill="none" stroke="#1fa562" />
<path d="M2428.125,800.625 L2428.125,830.625" close="False" data-weight="1.75" stroke-width="7" fill="none" stroke="#1fa562" />
<path d="M2428.125,725.625 L2428.125,755.625" close="False" data-weight="1.75" stroke-width="7" fill="none" stroke="#1fa562" />
<path d="M2428.125,650.625 L2428.125,680.625" close="False" data-weight="1.75" stroke-width="7" fill="none" stroke="#1fa562" />
<path d="M2369.0349025766973,1212.2150974233027 L2412.2150974233027,1169.0349025766973" close="False" data-weight="2.060660171779821" stroke-width="7" fill="none" stroke="#1fa562" />
<path d="M2371.8954377834593,565.5314767527805 L2415.7185232472198,609.3545622165409" close="False" data-weight="2.060660171779821" stroke-width="7" fill="none" stroke="#1fa562" />
<path d="M2296.8954377834593,1290.7185232472198 L2340.7185232472198,1246.8954377834593" close="False" data-weight="2.060660171779821" stroke-width="7" fill="none" stroke="#1fa562" />
<path d="M2296.8954377834593,490.5314767527804 L2340.7185232472198,534.3545622165407" close="False" data-weight="2.060660171779821" stroke-width="7" fill="none" stroke="#1fa562" />
<path d="M2221.8954377834593,415.5314767527804 L2265.7185232472198,459.3545622165407" close="False" data-weight="2.060660171779821" stroke-width="7" fill="none" stroke="#1fa562" />
<path d="M2146.8954377834593,340.5314767527804 L2190.7185232472198,384.3545622165407" close="False" data-weight="2.060660171779821" stroke-width="7" fill="none" stroke="#1fa562" />
<path d="M2075.1704076850488,323.625 L2106.0795923149512,323.625" close="False" data-weight="1.75" stroke-width="7" fill="none" stroke="#1fa562" />
<path d="M2000.1704076850485,323.625 L2031.0795923149515,323.625" close="False" data-weight="1.75" stroke-width="7" fill="none" stroke="#1fa562" />
<path d="M1925.1704076850485,323.625 L1956.0795923149515,323.625" close="False" data-weight="1.75" stroke-width="7" fill="none" stroke="#1fa562" />
<path d="M1850.1704076850485,323.625 L1881.0795923149515,323.625" close="False" data-weight="1.75" stroke-width="7" fill="none" stroke="#1fa562" />
<path d="M1775.1704076850485,323.625 L1806.0795923149515,323.625" close="False" data-weight="1.75" stroke-width="7" fill="none" stroke="#1fa562" />
<path d="M1700.1704076850485,323.625 L1731.0795923149515,323.625" close="False" data-weight="1.75" stroke-width="7" fill="none" stroke="#1fa562" />
<path d="M1625.1704076850485,323.625 L1656.0795923149515,323.625" close="False" data-weight="1.75" stroke-width="7" fill="none" stroke="#1fa562" />
<path d="M1550.1704076850485,323.625 L1581.0795923149515,323.625" close="False" data-weight="1.75" stroke-width="7" fill="none" stroke="#1fa562" />
<path d="M1475.1704076850485,323.625 L1506.0795923149515,323.625" close="False" data-weight="1.75" stroke-width="7" fill="none" stroke="#1fa562" />
<path d="M2273.625,1506.0795923149515 A48.72232222128787,48.72232222128787,0,0,1,2269.91623405538,1524.7248178153918 M2269.91623405538,1524.7248178153918 A48.72232222128834,48.72232222128834,0,0,1,2259.3545622165407,1540.5314767527802 M2259.3545622165407,1540.5314767527802" close="False" data-weight="1.0" stroke-width="7" fill="none" stroke="#ff1c5d" />
<path d="M2273.625,1431.0795923149515 C2273.625,1442.1022961574758,2273.625,1464.1477038425242,2273.625,1475.1704076850485" close="False" data-weight="0.0" stroke-width="7" fill="none" stroke="#ff1c5d" />
<path d="M2273.625,1356.0795923149515 C2273.625,1367.1022961574758,2273.625,1389.1477038425242,2273.625,1400.1704076850485" close="False" data-weight="0.0" stroke-width="7" fill="none" stroke="#ff1c5d" />
<path d="M2215.5314767527802,1584.3545622165407 C2207.7372481187203,1592.1487908506006,2192.1487908506006,1607.7372481187203,2184.3545622165407,1615.5314767527802" close="False" data-weight="0.0" stroke-width="7" fill="none" stroke="#ff1c5d" />
<path d="M2273.625,1475.1704076850485 L2273.625,1506.0795923149515" close="False" data-weight="1.75" stroke-width="7" fill="none" stroke="#ff1c5d" />
<path d="M2273.625,1400.1704076850485 L2273.625,1431.0795923149515" close="False" data-weight="1.75" stroke-width="7" fill="none" stroke="#ff1c5d" />
<path d="M2273.625,1325.1704076850485 L2273.625,1356.0795923149515" close="False" data-weight="1.75" stroke-width="7" fill="none" stroke="#ff1c5d" />
<path d="M2215.5314767527802,1584.3545622165407 L2259.3545622165407,1540.5314767527802" close="False" data-weight="2.060660171779821" stroke-width="7" fill="none" stroke="#ff1c5d" />
<path d="M2140.5314767528102,1659.3545622165107 L2184.3545622165407,1615.5314767527802" close="False" data-weight="2.060660171779821" stroke-width="7" fill="none" stroke="#ff1c5d" />
<path d="M2353.125,1205.625 A34.28043425550413,34.28043425550413,0,0,1,2347.398614218719,1224.5937766731977 M2347.398614218719,1224.5937766731977 A103.6493348828995,103.6493348828995,0,0,1,2334.3545622165407,1240.5314767527802 M2334.3545622165407,1240.5314767527802" close="False" data-weight="1.0" stroke-width="7" fill="none" stroke="#7cd3eb" />
<path d="M2353.125,1130.625 C2353.125,1141.875,2353.125,1164.375,2353.125,1175.625" close="False" data-weight="0.0" stroke-width="7" fill="none" stroke="#7cd3eb" />
<path d="M2353.125,1055.625 C2353.125,1066.875,2353.125,1089.375,2353.125,1100.625" close="False" data-weight="0.0" stroke-width="7" fill="none" stroke="#7cd3eb" />
<path d="M2375.625,628.125 C2364.375,628.125,2341.875,628.125,2330.625,628.125" close="False" data-weight="0.0" stroke-width="7" fill="none" stroke="#7cd3eb" />
<path d="M2365.5314767527802,571.8954377834591 C2357.7372481187203,564.1012091493992,2342.1487908506006,548.5127518812794,2334.3545622165407,540.7185232472195" close="False" data-weight="0.0" stroke-width="7" fill="none" stroke="#7cd3eb" />
<path d="M2282.625,1506.0795923149515 A57.72232222129196,57.72232222129196,0,0,1,2278.2311498479817,1528.168968706678 M2278.2311498479817,1528.168968706678 A57.72232222128422,57.72232222128422,0,0,1,2265.7185232472198,1546.8954377834593 M2265.7185232472198,1546.8954377834593" close="False" data-weight="1.0" stroke-width="7" fill="none" stroke="#7cd3eb" />
<path d="M2282.625,1431.0795923149515 C2282.625,1442.1022961574758,2282.625,1464.1477038425242,2282.625,1475.1704076850485" close="False" data-weight="0.0" stroke-width="7" fill="none" stroke="#7cd3eb" />
<path d="M2282.625,1356.0795923149515 C2282.625,1367.1022961574758,2282.625,1389.1477038425242,2282.625,1400.1704076850485" close="False" data-weight="0.0" stroke-width="7" fill="none" stroke="#7cd3eb" />
<path d="M2300.625,628.125 A54.31980515339296,54.31980515339296,0,0,0,2279.8377105184964,632.2598489621722 M2279.8377105184964,632.2598489621722 A54.31980515340005,54.31980515340005,0,0,0,2262.2150974233027,644.0349025766973 M2262.2150974233027,644.0349025766973" close="False" data-weight="1.0" stroke-width="7" fill="none" stroke="#7cd3eb" />
<path d="M2290.5314767527802,496.89543778345916 C2282.7372481187203,489.10120914939927,2267.1487908506006,473.5127518812795,2259.3545622165407,465.7185232472196" close="False" data-weight="0.0" stroke-width="7" fill="none" stroke="#7cd3eb" />
<path d="M2221.8954377834593,1590.7185232472198 C2214.1012091493994,1598.5127518812797,2198.5127518812797,1614.1012091493994,2190.7185232472198,1621.8954377834593" close="False" data-weight="0.0" stroke-width="7" fill="none" stroke="#7cd3eb" />
<path d="M2203.125,905.625 A54.3198051533991,54.3198051533991,0,0,1,2198.990151037828,926.4122894815041 M2198.990151037828,926.4122894815041 A54.319805153386056,54.319805153386056,0,0,1,2187.2150974233027,944.0349025766973 M2187.2150974233027,944.0349025766973" close="False" data-weight="1.0" stroke-width="7" fill="none" stroke="#7cd3eb" />
<path d="M2203.125,755.625 C2203.125,766.875,2203.125,789.375,2203.125,800.625" close="False" data-weight="0.0" stroke-width="7" fill="none" stroke="#7cd3eb" />
<path d="M2215.5314767527802,421.8954377834593 C2207.7372481187203,414.1012091493994,2192.1487908506006,398.5127518812795,2184.3545622165407,390.7185232472196" close="False" data-weight="0.0" stroke-width="7" fill="none" stroke="#7cd3eb" />
<path d="M2123.625,1731.0795923149515 C2123.625,1742.1022961574758,2123.625,1764.1477038425242,2123.625,1775.1704076850485" close="False" data-weight="0.0" stroke-width="7" fill="none" stroke="#7cd3eb" />
<path d="M2140.5314767527802,346.8954377834593 A48.72232222128834,48.72232222128834,0,0,0,2124.724817815392,336.33376594462015 M2124.724817815392,336.33376594462015 A48.722322221288266,48.722322221288266,0,0,0,2106.0795923149512,332.625 M2106.0795923149512,332.625" close="False" data-weight="1.0" stroke-width="7" fill="none" stroke="#7cd3eb" />
<path d="M2075.1704076850488,1823.625 C2064.1477038425246,1823.625,2042.1022961574758,1823.625,2031.0795923149515,1823.625" close="False" data-weight="0.0" stroke-width="7" fill="none" stroke="#7cd3eb" />
<path d="M2075.1704076850488,332.625 C2064.1477038425246,332.625,2042.1022961574758,332.625,2031.0795923149515,332.625" close="False" data-weight="0.0" stroke-width="7" fill="none" stroke="#7cd3eb" />
<path d="M2000.1704076850485,1823.625 C1989.1477038425242,1823.625,1967.1022961574758,1823.625,1956.0795923149515,1823.625" close="False" data-weight="0.0" stroke-width="7" fill="none" stroke="#7cd3eb" />
<path d="M1978.125,980.625 A54.31980515339637,54.31980515339637,0,0,1,1973.990151037828,1001.412289481504 M1973.990151037828,1001.412289481504 A54.31980515339273,54.31980515339273,0,0,1,1962.2150974233027,1019.0349025766973 M1962.2150974233027,1019.0349025766973" close="False" data-weight="1.0" stroke-width="7" fill="none" stroke="#7cd3eb" />
<path d="M1978.125,830.625 C1978.125,841.875,1978.125,864.375,1978.125,875.625" close="False" data-weight="0.0" stroke-width="7" fill="none" stroke="#7cd3eb" />
<path d="M2000.1704076850485,332.625 C1989.1477038425242,332.625,1967.1022961574758,332.625,1956.0795923149515,332.625" close="False" data-weight="0.0" stroke-width="7" fill="none" stroke="#7cd3eb" />
<path d="M1925.1704076850485,1823.625 C1914.1477038425242,1823.625,1892.1022961574758,1823.625,1881.0795923149515,1823.625" close="False" data-weight="0.0" stroke-width="7" fill="none" stroke="#7cd3eb" />
<path d="M1925.1704076850485,332.625 C1914.1477038425242,332.625,1892.1022961574758,332.625,1881.0795923149515,332.625" close="False" data-weight="0.0" stroke-width="7" fill="none" stroke="#7cd3eb" />
<path d="M1850.1704076850485,1823.625 C1839.1477038425242,1823.625,1817.1022961574758,1823.625,1806.0795923149515,1823.625" close="False" data-weight="0.0" stroke-width="7" fill="none" stroke="#7cd3eb" />
<path d="M1850.625,1078.125 C1839.375,1078.125,1816.875,1078.125,1805.625,1078.125" close="False" data-weight="0.0" stroke-width="7" fill="none" stroke="#7cd3eb" />
<path d="M1850.1704076850485,332.625 C1839.1477038425242,332.625,1817.1022961574758,332.625,1806.0795923149515,332.625" close="False" data-weight="0.0" stroke-width="7" fill="none" stroke="#7cd3eb" />
<path d="M1775.1704076850485,1823.625 C1764.1477038425242,1823.625,1742.1022961574758,1823.625,1731.0795923149515,1823.625" close="False" data-weight="0.0" stroke-width="7" fill="none" stroke="#7cd3eb" />
<path d="M1775.625,1078.125 A54.31980515339569,54.31980515339569,0,0,0,1754.837710518496,1082.2598489621723 M1754.837710518496,1082.2598489621723 A54.3198051533933,54.3198051533933,0,0,0,1737.2150974233027,1094.0349025766973 M1737.2150974233027,1094.0349025766973" close="False" data-weight="1.0" stroke-width="7" fill="none" stroke="#7cd3eb" />
<path d="M1753.125,650.625 A54.31980515339637,54.31980515339637,0,0,0,1748.990151037828,629.837710518496 M1748.990151037828,629.837710518496 A54.31980515339273,54.31980515339273,0,0,0,1737.2150974233027,612.2150974233027 M1737.2150974233027,612.2150974233027" close="False" data-weight="1.0" stroke-width="7" fill="none" stroke="#7cd3eb" />
<path d="M1775.1704076850485,332.625 C1764.1477038425242,332.625,1742.1022961574758,332.625,1731.0795923149515,332.625" close="False" data-weight="0.0" stroke-width="7" fill="none" stroke="#7cd3eb" />
<path d="M1700.1704076850485,1823.625 C1689.1477038425242,1823.625,1667.1022961574758,1823.625,1656.0795923149515,1823.625" close="False" data-weight="0.0" stroke-width="7" fill="none" stroke="#7cd3eb" />
<path d="M1694.0349025766973,1137.2150974233027 C1686.0799512883486,1145.1700487116514,1670.1700487116514,1161.0799512883486,1662.2150974233027,1169.0349025766973" close="False" data-weight="0.0" stroke-width="7" fill="none" stroke="#7cd3eb" />
<path d="M1694.0349025766973,569.0349025766973 C1686.0799512883486,561.0799512883486,1670.1700487116514,545.1700487116514,1662.2150974233027,537.2150974233027" close="False" data-weight="0.0" stroke-width="7" fill="none" stroke="#7cd3eb" />
<path d="M1700.1704076850485,332.625 C1689.1477038425242,332.625,1667.1022961574758,332.625,1656.0795923149515,332.625" close="False" data-weight="0.0" stroke-width="7" fill="none" stroke="#7cd3eb" />
<path d="M1625.1704076850485,1823.625 C1614.1477038425242,1823.625,1592.1022961574758,1823.625,1581.0795923149515,1823.625" close="False" data-weight="0.0" stroke-width="7" fill="none" stroke="#7cd3eb" />
<path d="M1619.0349025766973,494.03490257669733 C1611.0799512883486,486.0799512883487,1595.1700487116514,470.1700487116513,1587.2150974233027,462.21509742330267" close="False" data-weight="0.0" stroke-width="7" fill="none" stroke="#7cd3eb" />
<path d="M1625.1704076850485,332.625 C1614.1477038425242,332.625,1592.1022961574758,332.625,1581.0795923149515,332.625" close="False" data-weight="0.0" stroke-width="7" fill="none" stroke="#7cd3eb" />
<path d="M1550.1704076850485,1823.625 C1539.1477038425242,1823.625,1517.1022961574758,1823.625,1506.0795923149515,1823.625" close="False" data-weight="0.0" stroke-width="7" fill="none" stroke="#7cd3eb" />
<path d="M1544.0349025766973,419.03490257669733 C1536.0799512883486,411.0799512883487,1520.1700487116514,395.1700487116513,1512.2150974233027,387.21509742330267" close="False" data-weight="0.0" stroke-width="7" fill="none" stroke="#7cd3eb" />
<path d="M1550.1704076850485,332.625 C1539.1477038425242,332.625,1517.1022961574758,332.625,1506.0795923149515,332.625" close="False" data-weight="0.0" stroke-width="7" fill="none" stroke="#7cd3eb" />
<path d="M1475.1704076850485,1823.625 C1464.1477038425242,1823.625,1442.1022961574758,1823.625,1431.0795923149515,1823.625" close="False" data-weight="0.0" stroke-width="7" fill="none" stroke="#7cd3eb" />
<path d="M1465.5314767527655,1246.8954377834445 C1457.7372481187092,1239.1012091493883,1442.148790850597,1223.512751881276,1434.3545622165407,1215.7185232472198" close="False" data-weight="0.0" stroke-width="7" fill="none" stroke="#7cd3eb" />
<path d="M1390.5314767527802,1171.8954377834593 A48.72232222128834,48.72232222128834,0,0,0,1374.7248178153918,1161.3337659446202 M1374.7248178153918,1161.3337659446202 A48.72232222128764,48.72232222128764,0,0,0,1356.0795923149515,1157.625 M1356.0795923149515,1157.625" close="False" data-weight="1.0" stroke-width="7" fill="none" stroke="#7cd3eb" />
<path d="M1325.625,1828.125 C1314.375,1828.125,1291.875,1828.125,1280.625,1828.125" close="False" data-weight="0.0" stroke-width="7" fill="none" stroke="#7cd3eb" />
<path d="M1250.625,1828.125 A54.31980515339569,54.31980515339569,0,0,1,1229.837710518496,1823.9901510378277 M1229.837710518496,1823.9901510378277 A54.3198051533933,54.3198051533933,0,0,1,1212.2150974233027,1812.2150974233027 M1212.2150974233027,1812.2150974233027" close="False" data-weight="1.0" stroke-width="7" fill="none" stroke="#7cd3eb" />
<path d="M1169.0349025766973,1769.0349025766973 C1161.0799512883486,1761.0799512883486,1145.1700487116514,1745.1700487116514,1137.2150974233027,1737.2150974233027" close="False" data-weight="0.0" stroke-width="7" fill="none" stroke="#7cd3eb" />
<path d="M1174.0706276020962,1069.9072944592615 C1166.7797943163876,1077.1981277449702,1152.19812774497,1091.7797943163878,1144.9072944592613,1099.0706276020965" close="False" data-weight="0.0" stroke-width="7" fill="none" stroke="#7cd3eb" />
<path d="M1171.8954377834596,865.5314767527807 C1164.1012091493994,857.7372481187207,1148.5127518812794,842.1487908506007,1140.7185232472195,834.3545622165407" close="False" data-weight="0.0" stroke-width="7" fill="none" stroke="#7cd3eb" />
<path d="M1087.125,1582.5034093726988 C1087.125,1592.8142046863495,1087.125,1613.4357953136505,1087.125,1623.7465906273012" close="False" data-weight="0.0" stroke-width="7" fill="none" stroke="#7cd3eb" />
<path d="M1087.125,1507.5034093726988 C1087.125,1517.8142046863495,1087.125,1538.4357953136505,1087.125,1548.7465906273012" close="False" data-weight="0.0" stroke-width="7" fill="none" stroke="#7cd3eb" />
<path d="M1087.125,1432.5034093726988 C1087.125,1442.8142046863495,1087.125,1463.4357953136505,1087.125,1473.7465906273012" close="False" data-weight="0.0" stroke-width="7" fill="none" stroke="#7cd3eb" />
<path d="M1087.125,1357.5034093726988 C1087.125,1367.8142046863495,1087.125,1388.4357953136505,1087.125,1398.7465906273012" close="False" data-weight="0.0" stroke-width="7" fill="none" stroke="#7cd3eb" />
<path d="M1087.125,1282.5034093726988 C1087.125,1292.8142046863495,1087.125,1313.4357953136505,1087.125,1323.7465906273012" close="False" data-weight="0.0" stroke-width="7" fill="none" stroke="#7cd3eb" />
<path d="M1087.125,1207.5034093726988 C1087.125,1217.8142046863495,1087.125,1238.4357953136505,1087.125,1248.7465906273012" close="False" data-weight="0.0" stroke-width="7" fill="none" stroke="#7cd3eb" />
<path d="M1099.0706276020965,1144.9072944592613 A40.78492377013458,40.78492377013458,0,0,0,1090.2295674638744,1158.1388760101968 M1090.2295674638744,1158.1388760101968 A40.78492377013822,40.78492377013822,0,0,0,1087.125,1173.7465906273012 M1087.125,1173.7465906273012" close="False" data-weight="1.0" stroke-width="7" fill="none" stroke="#7cd3eb" />
<path d="M1096.8954377834596,790.5314767527807 A57.7223222212909,57.7223222212909,0,0,0,1078.1689687066778,778.0188501520187 M1078.1689687066778,778.0188501520187 A57.72232222128639,57.72232222128639,0,0,0,1056.0795923149515,773.625 M1056.0795923149515,773.625" close="False" data-weight="1.0" stroke-width="7" fill="none" stroke="#7cd3eb" />
<path d="M1025.1704076850485,773.625 C1014.1477038425243,773.625,992.1022961574756,773.625,981.0795923149514,773.625" close="False" data-weight="0.0" stroke-width="7" fill="none" stroke="#7cd3eb" />
<path d="M950.1704076850486,773.625 C939.1477038425244,773.625,917.1022961574756,773.625,906.0795923149514,773.625" close="False" data-weight="0.0" stroke-width="7" fill="none" stroke="#7cd3eb" />
<path d="M875.1704076850486,773.625 C864.1477038425244,773.625,842.1022961574756,773.625,831.0795923149514,773.625" close="False" data-weight="0.0" stroke-width="7" fill="none" stroke="#7cd3eb" />
<path d="M715.5314767527805,834.3545622165407 C707.7372481187206,842.1487908506006,692.1487908506006,857.7372481187206,684.3545622165407,865.5314767527805" close="False" data-weight="0.0" stroke-width="7" fill="none" stroke="#7cd3eb" />
<path d="M640.5314767527805,909.3545622165407 A48.72232222128802,48.72232222128802,0,0,1,624.7248178153919,919.9162340553798 M624.7248178153919,919.9162340553798 A48.72232222128889,48.72232222128889,0,0,1,606.0795923149514,923.625 M606.0795923149514,923.625" close="False" data-weight="1.0" stroke-width="7" fill="none" stroke="#7cd3eb" />
<path d="M500.1704076850486,923.625 A48.722322221288664,48.722322221288664,0,0,1,481.52518218460807,919.9162340553798 M481.52518218460807,919.9162340553798 A48.722322221287975,48.722322221287975,0,0,1,465.7185232472196,909.3545622165407 M465.7185232472196,909.3545622165407" close="False" data-weight="1.0" stroke-width="7" fill="none" stroke="#7cd3eb" />
<path d="M482.625,756.0795923149514 A57.72232222128764,57.72232222128764,0,0,1,478.2311498479813,778.1689687066777 M478.2311498479813,778.1689687066777 A57.7223222212901,57.7223222212901,0,0,1,465.7185232472196,796.8954377834593 M465.7185232472196,796.8954377834593" close="False" data-weight="1.0" stroke-width="7" fill="none" stroke="#7cd3eb" />
<path d="M2353.125,1175.625 L2353.125,1205.625" close="False" data-weight="1.75" stroke-width="7" fill="none" stroke="#7cd3eb" />
<path d="M2353.125,1100.625 L2353.125,1130.625" close="False" data-weight="1.75" stroke-width="7" fill="none" stroke="#7cd3eb" />
<path d="M2353.125,1025.625 L2353.125,1055.625" close="False" data-weight="1.75" stroke-width="7" fill="none" stroke="#7cd3eb" />
<path d="M2375.625,628.125 L2405.625,628.125" close="False" data-weight="1.75" stroke-width="7" fill="none" stroke="#7cd3eb" />
<path d="M2365.5314767527802,571.8954377834593 L2409.35456221654,615.7185232472193" close="False" data-weight="2.060660171779821" stroke-width="7" fill="none" stroke="#7cd3eb" />
<path d="M2282.625,1475.1704076850485 L2282.625,1506.0795923149515" close="False" data-weight="1.75" stroke-width="7" fill="none" stroke="#7cd3eb" />
<path d="M2282.625,1400.1704076850485 L2282.625,1431.0795923149515" close="False" data-weight="1.75" stroke-width="7" fill="none" stroke="#7cd3eb" />
<path d="M2282.625,1325.1704076850485 L2282.625,1356.0795923149515" close="False" data-weight="1.75" stroke-width="7" fill="none" stroke="#7cd3eb" />
<path d="M2290.5314767527802,1284.3545622165407 L2334.3545622165407,1240.5314767527802" close="False" data-weight="2.060660171779821" stroke-width="7" fill="none" stroke="#7cd3eb" />
<path d="M2294.0349025766973,944.0349025766973 L2337.2150974233027,987.2150974233027" close="False" data-weight="2.060660171779821" stroke-width="7" fill="none" stroke="#7cd3eb" />
<path d="M2300.625,628.125 L2330.625,628.125" close="False" data-weight="1.75" stroke-width="7" fill="none" stroke="#7cd3eb" />
<path d="M2290.5314767527802,496.8954377834594 L2334.3545622165407,540.7185232472194" close="False" data-weight="2.060660171779821" stroke-width="7" fill="none" stroke="#7cd3eb" />
<path d="M2221.8954377834593,1590.7185232472198 L2265.7185232472198,1546.8954377834593" close="False" data-weight="2.060660171779821" stroke-width="7" fill="none" stroke="#7cd3eb" />
<path d="M2219.0349025766973,987.2150974233027 L2262.2150974233027,944.0349025766973" close="False" data-weight="2.060660171779821" stroke-width="7" fill="none" stroke="#7cd3eb" />
<path d="M2203.125,875.625 L2203.125,905.625" close="False" data-weight="1.75" stroke-width="7" fill="none" stroke="#7cd3eb" />
<path d="M2203.125,800.625 L2203.125,830.625" close="False" data-weight="1.75" stroke-width="7" fill="none" stroke="#7cd3eb" />
<path d="M2203.125,725.625 L2203.125,755.625" close="False" data-weight="1.75" stroke-width="7" fill="none" stroke="#7cd3eb" />
<path d="M2219.0349025766973,687.2150974233027 L2262.2150974233027,644.0349025766973" close="False" data-weight="2.060660171779821" stroke-width="7" fill="none" stroke="#7cd3eb" />
<path d="M2215.5314767527802,421.8954377834594 L2259.3545622165407,465.7185232472195" close="False" data-weight="2.060660171779821" stroke-width="7" fill="none" stroke="#7cd3eb" />
<path d="M2123.625,1775.1704076850485 L2123.625,1806.0795923149515" close="False" data-weight="1.75" stroke-width="7" fill="none" stroke="#7cd3eb" />
<path d="M2123.625,1700.1704076850485 L2123.625,1731.0795923149515" close="False" data-weight="1.75" stroke-width="7" fill="none" stroke="#7cd3eb" />
<path d="M2146.8954377834298,1665.7185232472495 L2190.7185232472198,1621.8954377834593" close="False" data-weight="2.060660171779821" stroke-width="7" fill="none" stroke="#7cd3eb" />
<path d="M2150.625,1003.125 L2180.625,1003.125" close="False" data-weight="1.75" stroke-width="7" fill="none" stroke="#7cd3eb" />
<path d="M2144.0349025766973,987.2150974233027 L2187.2150974233027,944.0349025766973" close="False" data-weight="2.060660171779821" stroke-width="7" fill="none" stroke="#7cd3eb" />
<path d="M2140.5314767527802,346.8954377834594 L2184.3545622165407,390.7185232472195" close="False" data-weight="2.060660171779821" stroke-width="7" fill="none" stroke="#7cd3eb" />
<path d="M2075.1704076850488,1823.625 L2106.0795923149512,1823.625" close="False" data-weight="1.75" stroke-width="7" fill="none" stroke="#7cd3eb" />
<path d="M2075.1704076850488,332.625 L2106.0795923149512,332.625" close="False" data-weight="1.75" stroke-width="7" fill="none" stroke="#7cd3eb" />
<path d="M2000.1704076850485,1823.625 L2031.0795923149515,1823.625" close="False" data-weight="1.75" stroke-width="7" fill="none" stroke="#7cd3eb" />
<path d="M1978.125,950.625 L1978.125,980.625" close="False" data-weight="1.75" stroke-width="7" fill="none" stroke="#7cd3eb" />
<path d="M1978.125,875.625 L1978.125,905.625" close="False" data-weight="1.75" stroke-width="7" fill="none" stroke="#7cd3eb" />
<path d="M1978.125,800.625 L1978.125,830.625" close="False" data-weight="1.75" stroke-width="7" fill="none" stroke="#7cd3eb" />
<path d="M2000.1704076850485,332.625 L2031.0795923149515,332.625" close="False" data-weight="1.75" stroke-width="7" fill="none" stroke="#7cd3eb" />
<path d="M1925.1704076850485,1823.625 L1956.0795923149515,1823.625" close="False" data-weight="1.75" stroke-width="7" fill="none" stroke="#7cd3eb" />
<path d="M1919.0349025766973,1062.2150974233027 L1962.2150974233027,1019.0349025766973" close="False" data-weight="2.060660171779821" stroke-width="7" fill="none" stroke="#7cd3eb" />
<path d="M1925.625,778.125 L1955.625,778.125" close="False" data-weight="1.75" stroke-width="7" fill="none" stroke="#7cd3eb" />
<path d="M1925.1704076850485,332.625 L1956.0795923149515,332.625" close="False" data-weight="1.75" stroke-width="7" fill="none" stroke="#7cd3eb" />
<path d="M1850.1704076850485,1823.625 L1881.0795923149515,1823.625" close="False" data-weight="1.75" stroke-width="7" fill="none" stroke="#7cd3eb" />
<path d="M1850.625,1078.125 L1880.625,1078.125" close="False" data-weight="1.75" stroke-width="7" fill="none" stroke="#7cd3eb" />
<path d="M1844.0349025766973,719.0349025766973 L1887.2150974233027,762.2150974233027" close="False" data-weight="2.060660171779821" stroke-width="7" fill="none" stroke="#7cd3eb" />
<path d="M1850.1704076850485,332.625 L1881.0795923149515,332.625" close="False" data-weight="1.75" stroke-width="7" fill="none" stroke="#7cd3eb" />
<path d="M1775.1704076850485,1823.625 L1806.0795923149515,1823.625" close="False" data-weight="1.75" stroke-width="7" fill="none" stroke="#7cd3eb" />
<path d="M1775.625,1078.125 L1805.625,1078.125" close="False" data-weight="1.75" stroke-width="7" fill="none" stroke="#7cd3eb" />
<path d="M1775.625,703.125 L1805.625,703.125" close="False" data-weight="1.75" stroke-width="7" fill="none" stroke="#7cd3eb" />
<path d="M1753.125,650.625 L1753.125,680.625" close="False" data-weight="1.75" stroke-width="7" fill="none" stroke="#7cd3eb" />
<path d="M1775.1704076850485,332.625 L1806.0795923149515,332.625" close="False" data-weight="1.75" stroke-width="7" fill="none" stroke="#7cd3eb" />
<path d="M1700.1704076850485,1823.625 L1731.0795923149515,1823.625" close="False" data-weight="1.75" stroke-width="7" fill="none" stroke="#7cd3eb" />
<path d="M1694.0349025766973,1137.2150974233027 L1737.2150974233027,1094.0349025766973" close="False" data-weight="2.060660171779821" stroke-width="7" fill="none" stroke="#7cd3eb" />
<path d="M1694.0349025766973,569.0349025766973 L1737.2150974233027,612.2150974233027" close="False" data-weight="2.060660171779821" stroke-width="7" fill="none" stroke="#7cd3eb" />
<path d="M1700.1704076850485,332.625 L1731.0795923149515,332.625" close="False" data-weight="1.75" stroke-width="7" fill="none" stroke="#7cd3eb" />
<path d="M1625.1704076850485,1823.625 L1656.0795923149515,1823.625" close="False" data-weight="1.75" stroke-width="7" fill="none" stroke="#7cd3eb" />
<path d="M1619.0349025766973,1212.2150974233027 L1662.2150974233027,1169.0349025766973" close="False" data-weight="2.060660171779821" stroke-width="7" fill="none" stroke="#7cd3eb" />
<path d="M1619.0349025766973,494.03490257669733 L1662.2150974233027,537.2150974233027" close="False" data-weight="2.060660171779821" stroke-width="7" fill="none" stroke="#7cd3eb" />
<path d="M1625.1704076850485,332.625 L1656.0795923149515,332.625" close="False" data-weight="1.75" stroke-width="7" fill="none" stroke="#7cd3eb" />
<path d="M1550.1704076850485,1823.625 L1581.0795923149515,1823.625" close="False" data-weight="1.75" stroke-width="7" fill="none" stroke="#7cd3eb" />
<path d="M1544.0349025766973,1287.2150974233027 L1587.2150974233027,1244.0349025766973" close="False" data-weight="2.060660171779821" stroke-width="7" fill="none" stroke="#7cd3eb" />
<path d="M1544.0349025766973,419.03490257669733 L1587.2150974233027,462.21509742330267" close="False" data-weight="2.060660171779821" stroke-width="7" fill="none" stroke="#7cd3eb" />
<path d="M1550.1704076850485,332.625 L1581.0795923149515,332.625" close="False" data-weight="1.75" stroke-width="7" fill="none" stroke="#7cd3eb" />
<path d="M1475.1704076850485,1823.625 L1506.0795923149515,1823.625" close="False" data-weight="1.75" stroke-width="7" fill="none" stroke="#7cd3eb" />
<path d="M1465.5314767527655,1246.8954377834445 L1509.3545622165555,1290.7185232472345" close="False" data-weight="2.060660171779821" stroke-width="7" fill="none" stroke="#7cd3eb" />
<path d="M1469.0349025766973,344.03490257669733 L1512.2150974233027,387.21509742330267" close="False" data-weight="2.060660171779821" stroke-width="7" fill="none" stroke="#7cd3eb" />
<path d="M1475.1704076850485,332.625 L1506.0795923149515,332.625" close="False" data-weight="1.75" stroke-width="7" fill="none" stroke="#7cd3eb" />
<path d="M1400.1704076850485,1823.625 L1431.0795923149515,1823.625" close="False" data-weight="1.75" stroke-width="7" fill="none" stroke="#7cd3eb" />
<path d="M1390.5314767527802,1171.8954377834593 L1434.3545622165407,1215.7185232472198" close="False" data-weight="2.060660171779821" stroke-width="7" fill="none" stroke="#7cd3eb" />
<path d="M1325.625,1828.125 L1355.625,1828.125" close="False" data-weight="1.75" stroke-width="7" fill="none" stroke="#7cd3eb" />
<path d="M1325.1704076850485,1157.625 L1356.0795923149515,1157.625" close="False" data-weight="1.75" stroke-width="7" fill="none" stroke="#7cd3eb" />
<path d="M1250.625,1828.125 L1280.625,1828.125" close="False" data-weight="1.75" stroke-width="7" fill="none" stroke="#7cd3eb" />
<path d="M1237.125,948.7465906273013 L1237.125,982.5034093726987" close="False" data-weight="1.75" stroke-width="7" fill="none" stroke="#7cd3eb" />
<path d="M1169.0349025766973,1769.0349025766973 L1212.2150974233027,1812.2150974233027" close="False" data-weight="2.060660171779821" stroke-width="7" fill="none" stroke="#7cd3eb" />
<path d="M1174.0706276020965,1069.9072944592613 L1219.9072944592613,1024.0706276020967" close="False" data-weight="2.060660171779821" stroke-width="7" fill="none" stroke="#7cd3eb" />
<path d="M1171.8954377834593,865.5314767527805 L1215.7185232472198,909.3545622165409" close="False" data-weight="2.060660171779821" stroke-width="7" fill="none" stroke="#7cd3eb" />
<path d="M1094.0349025766973,1694.0349025766973 L1137.2150974233027,1737.2150974233027" close="False" data-weight="2.060660171779821" stroke-width="7" fill="none" stroke="#7cd3eb" />
<path d="M1087.125,1623.7465906273012 L1087.125,1657.5034093726988" close="False" data-weight="1.75" stroke-width="7" fill="none" stroke="#7cd3eb" />
<path d="M1087.125,1548.7465906273012 L1087.125,1582.5034093726988" close="False" data-weight="1.75" stroke-width="7" fill="none" stroke="#7cd3eb" />
<path d="M1087.125,1473.7465906273012 L1087.125,1507.5034093726988" close="False" data-weight="1.75" stroke-width="7" fill="none" stroke="#7cd3eb" />
<path d="M1087.125,1398.7465906273012 L1087.125,1432.5034093726988" close="False" data-weight="1.75" stroke-width="7" fill="none" stroke="#7cd3eb" />
<path d="M1087.125,1323.7465906273012 L1087.125,1357.5034093726988" close="False" data-weight="1.75" stroke-width="7" fill="none" stroke="#7cd3eb" />
<path d="M1087.125,1248.7465906273012 L1087.125,1282.5034093726988" close="False" data-weight="1.75" stroke-width="7" fill="none" stroke="#7cd3eb" />
<path d="M1087.125,1173.7465906273012 L1087.125,1207.5034093726988" close="False" data-weight="1.75" stroke-width="7" fill="none" stroke="#7cd3eb" />
<path d="M1099.0706276020965,1144.9072944592613 L1144.9072944592613,1099.0706276020965" close="False" data-weight="2.060660171779821" stroke-width="7" fill="none" stroke="#7cd3eb" />
<path d="M1096.8954377834593,790.5314767527805 L1140.7185232472198,834.3545622165409" close="False" data-weight="2.060660171779821" stroke-width="7" fill="none" stroke="#7cd3eb" />
<path d="M1025.1704076850485,773.625 L1056.0795923149515,773.625" close="False" data-weight="1.75" stroke-width="7" fill="none" stroke="#7cd3eb" />
<path d="M950.1704076850486,773.625 L981.0795923149514,773.625" close="False" data-weight="1.75" stroke-width="7" fill="none" stroke="#7cd3eb" />
<path d="M875.1704076850486,773.625 L906.0795923149514,773.625" close="False" data-weight="1.75" stroke-width="7" fill="none" stroke="#7cd3eb" />
<path d="M800.1704076850486,773.625 L831.0795923149514,773.625" close="False" data-weight="1.75" stroke-width="7" fill="none" stroke="#7cd3eb" />
<path d="M715.5314767527805,834.3545622165407 L759.3545622165482,790.531476752773" close="False" data-weight="2.060660171779821" stroke-width="7" fill="none" stroke="#7cd3eb" />
<path d="M640.5314767527805,909.3545622165407 L684.3545622165407,865.5314767527805" close="False" data-weight="2.060660171779821" stroke-width="7" fill="none" stroke="#7cd3eb" />
<path d="M575.1704076850486,923.625 L606.0795923149514,923.625" close="False" data-weight="1.75" stroke-width="7" fill="none" stroke="#7cd3eb" />
<path d="M500.1704076850486,923.625 L531.0795923149514,923.625" close="False" data-weight="1.75" stroke-width="7" fill="none" stroke="#7cd3eb" />
<path d="M482.625,725.1704076850486 L482.625,756.0795923149514" close="False" data-weight="1.75" stroke-width="7" fill="none" stroke="#7cd3eb" />
<path d="M421.8954377834631,865.5314767527842 L465.71852324721596,909.354562216537" close="False" data-weight="2.060660171779821" stroke-width="7" fill="none" stroke="#7cd3eb" />
<path d="M421.8954377834594,840.7185232472195 L465.7185232472197,796.8954377834592" close="False" data-weight="2.060660171779821" stroke-width="7" fill="none" stroke="#7cd3eb" />
<path d="M1471.8954377834593,2365.5314767527802 C1464.1012091493994,2357.7372481187203,1448.5127518812797,2342.1487908506006,1440.7185232472198,2334.3545622165407" close="False" data-weight="0.0" stroke-width="7" fill="none" stroke="#8f0f12" />
<path d="M1471.8954377834743,1240.5314767527952 C1464.101209149407,1232.7372481187278,1448.5127518812722,1217.148790850593,1440.7185232472048,1209.3545622165257" close="False" data-weight="0.0" stroke-width="7" fill="none" stroke="#8f0f12" />
<path d="M1396.8954377834593,2290.5314767527802 A57.72232222128986,57.72232222128986,0,0,0,1378.168968706678,2278.0188501520183 M1378.168968706678,2278.0188501520183 A57.722322221286504,57.722322221286504,0,0,0,1356.0795923149515,2273.625 M1356.0795923149515,2273.625" close="False" data-weight="1.0" stroke-width="7" fill="none" stroke="#8f0f12" />
<path d="M1396.8954377834593,1165.5314767527802 A57.722322221287286,57.722322221287286,0,0,0,1378.1689687066778,1153.0188501520186 M1378.1689687066778,1153.0188501520186 A57.722322221289005,57.722322221289005,0,0,0,1356.0795923149515,1148.625 M1356.0795923149515,1148.625" close="False" data-weight="1.0" stroke-width="7" fill="none" stroke="#8f0f12" />
<path d="M1303.125,1055.625 C1303.125,1066.875,1303.125,1089.375,1303.125,1100.625" close="False" data-weight="0.0" stroke-width="7" fill="none" stroke="#8f0f12" />
<path d="M1303.125,1025.625 A54.31980515339637,54.31980515339637,0,0,0,1298.990151037828,1004.837710518496 M1298.990151037828,1004.837710518496 A54.31980515339265,54.31980515339265,0,0,0,1287.2150974233027,987.2150974233027 M1287.2150974233027,987.2150974233027" close="False" data-weight="1.0" stroke-width="7" fill="none" stroke="#8f0f12" />
<path d="M1250.1704076850485,2273.625 C1239.1477038425242,2273.625,1217.1022961574758,2273.625,1206.0795923149515,2273.625" close="False" data-weight="0.0" stroke-width="7" fill="none" stroke="#8f0f12" />
<path d="M1175.1704076850485,2273.625 A103.64933488290808,103.64933488290808,0,0,1,1154.677214257368,2271.5788818221004 M1154.677214257368,2271.5788818221004 A34.280434255503216,34.280434255503216,0,0,1,1137.2150974233027,2262.2150974233027 M1137.2150974233027,2262.2150974233027" close="False" data-weight="1.0" stroke-width="7" fill="none" stroke="#8f0f12" />
<path d="M1161.3427055407392,1057.179372397903 C1154.0518722550303,1064.470205683612,1139.4702056836124,1079.0518722550298,1132.1793723979035,1086.3427055407387" close="False" data-weight="0.0" stroke-width="7" fill="none" stroke="#8f0f12" />
<path d="M1078.125,2105.625 C1078.125,2116.875,1078.125,2139.375,1078.125,2150.625" close="False" data-weight="0.0" stroke-width="7" fill="none" stroke="#8f0f12" />
<path d="M1078.125,2075.625 A54.31980515339853,54.31980515339853,0,0,0,1073.990151037828,2054.837710518496 M1073.990151037828,2054.837710518496 A54.31980515339072,54.31980515339072,0,0,0,1062.2150974233027,2037.2150974233027 M1062.2150974233027,2037.2150974233027" close="False" data-weight="1.0" stroke-width="7" fill="none" stroke="#8f0f12" />
<path d="M1069.125,1582.5034093726988 C1069.125,1592.8142046863495,1069.125,1613.4357953136505,1069.125,1623.7465906273012" close="False" data-weight="0.0" stroke-width="7" fill="none" stroke="#8f0f12" />
<path d="M1069.125,1507.5034093726988 C1069.125,1517.8142046863495,1069.125,1538.4357953136505,1069.125,1548.7465906273012" close="False" data-weight="0.0" stroke-width="7" fill="none" stroke="#8f0f12" />
<path d="M1069.125,1432.5034093726988 C1069.125,1442.8142046863495,1069.125,1463.4357953136505,1069.125,1473.7465906273012" close="False" data-weight="0.0" stroke-width="7" fill="none" stroke="#8f0f12" />
<path d="M1069.125,1357.5034093726988 C1069.125,1367.8142046863495,1069.125,1388.4357953136505,1069.125,1398.7465906273012" close="False" data-weight="0.0" stroke-width="7" fill="none" stroke="#8f0f12" />
<path d="M1069.125,1282.5034093726988 C1069.125,1292.8142046863495,1069.125,1313.4357953136505,1069.125,1323.7465906273012" close="False" data-weight="0.0" stroke-width="7" fill="none" stroke="#8f0f12" />
<path d="M1069.125,1207.5034093726988 C1069.125,1217.8142046863495,1069.125,1238.4357953136505,1069.125,1248.7465906273012" close="False" data-weight="0.0" stroke-width="7" fill="none" stroke="#8f0f12" />
<path d="M1086.3427055407387,1132.1793723979035 A58.78492377013794,58.78492377013794,0,0,0,1073.599735878671,1151.2505742276253 M1073.599735878671,1151.2505742276253 A58.78492377013481,58.78492377013481,0,0,0,1069.125,1173.7465906273012 M1069.125,1173.7465906273012" close="False" data-weight="1.0" stroke-width="7" fill="none" stroke="#8f0f12" />
<path d="M1019.0349025766973,1737.2150974233027 C1011.0799512883486,1745.1700487116514,995.1700487116514,1761.0799512883486,987.2150974233027,1769.0349025766973" close="False" data-weight="0.0" stroke-width="7" fill="none" stroke="#8f0f12" />
<path d="M950.625,1978.125 C939.375,1978.125,916.875,1978.125,905.625,1978.125" close="False" data-weight="0.0" stroke-width="7" fill="none" stroke="#8f0f12" />
<path d="M944.0349025766973,1812.2150974233027 C936.0799512883486,1820.1700487116514,920.1700487116514,1836.0799512883486,912.2150974233027,1844.0349025766973" close="False" data-weight="0.0" stroke-width="7" fill="none" stroke="#8f0f12" />
<path d="M875.625,1978.125 C864.375,1978.125,841.875,1978.125,830.625,1978.125" close="False" data-weight="0.0" stroke-width="7" fill="none" stroke="#8f0f12" />
<path d="M869.0349025766973,1887.2150974233027 A54.31980515339554,54.31980515339554,0,0,1,851.412289481504,1898.990151037828 M851.412289481504,1898.990151037828 A54.319805153393645,54.319805153393645,0,0,1,830.625,1903.125 M830.625,1903.125" close="False" data-weight="1.0" stroke-width="7" fill="none" stroke="#8f0f12" />
<path d="M800.625,1978.125 C789.375,1978.125,766.875,1978.125,755.625,1978.125" close="False" data-weight="0.0" stroke-width="7" fill="none" stroke="#8f0f12" />
<path d="M800.625,1903.125 C789.375,1903.125,766.875,1903.125,755.625,1903.125" close="False" data-weight="0.0" stroke-width="7" fill="none" stroke="#8f0f12" />
<path d="M725.625,1978.125 C714.375,1978.125,691.875,1978.125,680.625,1978.125" close="False" data-weight="0.0" stroke-width="7" fill="none" stroke="#8f0f12" />
<path d="M725.625,1903.125 C714.375,1903.125,691.875,1903.125,680.625,1903.125" close="False" data-weight="0.0" stroke-width="7" fill="none" stroke="#8f0f12" />
<path d="M650.625,1978.125 A34.28043425550459,34.28043425550459,0,0,1,631.6562233268021,1972.398614218719 M631.6562233268021,1972.398614218719 A103.6493348828995,103.6493348828995,0,0,1,615.7185232472195,1959.3545622165407 M615.7185232472195,1959.3545622165407" close="False" data-weight="1.0" stroke-width="7" fill="none" stroke="#8f0f12" />
<path d="M650.625,1903.125 C639.375,1903.125,616.875,1903.125,605.625,1903.125" close="False" data-weight="0.0" stroke-width="7" fill="none" stroke="#8f0f12" />
<path d="M1471.8954377834593,2365.5314767527802 L1515.7185232472198,2409.3545622165407" close="False" data-weight="2.060660171779821" stroke-width="7" fill="none" stroke="#8f0f12" />
<path d="M1471.8954377834743,1240.5314767527952 L1515.7185232472048,1284.3545622165257" close="False" data-weight="2.060660171779821" stroke-width="7" fill="none" stroke="#8f0f12" />
<path d="M1396.8954377834593,2290.5314767527802 L1440.7185232472198,2334.3545622165407" close="False" data-weight="2.060660171779821" stroke-width="7" fill="none" stroke="#8f0f12" />
<path d="M1396.8954377834593,1165.5314767527802 L1440.7185232472198,1209.3545622165407" close="False" data-weight="2.060660171779821" stroke-width="7" fill="none" stroke="#8f0f12" />
<path d="M1325.1704076850485,2273.625 L1356.0795923149515,2273.625" close="False" data-weight="1.75" stroke-width="7" fill="none" stroke="#8f0f12" />
<path d="M1325.1704076850485,1148.625 L1356.0795923149515,1148.625" close="False" data-weight="1.75" stroke-width="7" fill="none" stroke="#8f0f12" />
<path d="M1303.125,1100.625 L1303.125,1130.625" close="False" data-weight="1.75" stroke-width="7" fill="none" stroke="#8f0f12" />
<path d="M1303.125,1025.625 L1303.125,1055.625" close="False" data-weight="1.75" stroke-width="7" fill="none" stroke="#8f0f12" />
<path d="M1250.1704076850485,2273.625 L1281.0795923149515,2273.625" close="False" data-weight="1.75" stroke-width="7" fill="none" stroke="#8f0f12" />
<path d="M1219.125,948.7465906273013 L1219.125,982.5034093726987" close="False" data-weight="1.75" stroke-width="7" fill="none" stroke="#8f0f12" />
<path d="M1244.0349025766973,944.0349025766973 L1287.2150974233027,987.2150974233027" close="False" data-weight="2.060660171779821" stroke-width="7" fill="none" stroke="#8f0f12" />
<path d="M1175.1704076850485,2273.625 L1206.0795923149515,2273.625" close="False" data-weight="1.75" stroke-width="7" fill="none" stroke="#8f0f12" />
<path d="M1161.3427055407387,1057.1793723979035 L1207.1793723979035,1011.3427055407387" close="False" data-weight="2.060660171779821" stroke-width="7" fill="none" stroke="#8f0f12" />
<path d="M1094.0349025766973,2219.0349025766973 L1137.2150974233027,2262.2150974233027" close="False" data-weight="2.060660171779821" stroke-width="7" fill="none" stroke="#8f0f12" />
<path d="M1078.125,2150.625 L1078.125,2180.625" close="False" data-weight="1.75" stroke-width="7" fill="none" stroke="#8f0f12" />
<path d="M1078.125,2075.625 L1078.125,2105.625" close="False" data-weight="1.75" stroke-width="7" fill="none" stroke="#8f0f12" />
<path d="M1069.125,1623.7465906273012 L1069.125,1657.5034093726988" close="False" data-weight="1.75" stroke-width="7" fill="none" stroke="#8f0f12" />
<path d="M1069.125,1548.7465906273012 L1069.125,1582.5034093726988" close="False" data-weight="1.75" stroke-width="7" fill="none" stroke="#8f0f12" />
<path d="M1069.125,1473.7465906273012 L1069.125,1507.5034093726988" close="False" data-weight="1.75" stroke-width="7" fill="none" stroke="#8f0f12" />
<path d="M1069.125,1398.7465906273012 L1069.125,1432.5034093726988" close="False" data-weight="1.75" stroke-width="7" fill="none" stroke="#8f0f12" />
<path d="M1069.125,1323.7465906273012 L1069.125,1357.5034093726988" close="False" data-weight="1.75" stroke-width="7" fill="none" stroke="#8f0f12" />
<path d="M1069.125,1248.7465906273012 L1069.125,1282.5034093726988" close="False" data-weight="1.75" stroke-width="7" fill="none" stroke="#8f0f12" />
<path d="M1069.125,1173.7465906273012 L1069.125,1207.5034093726988" close="False" data-weight="1.75" stroke-width="7" fill="none" stroke="#8f0f12" />
<path d="M1086.3427055407387,1132.1793723979035 L1132.1793723979035,1086.3427055407387" close="False" data-weight="2.060660171779821" stroke-width="7" fill="none" stroke="#8f0f12" />
<path d="M1019.0349025766973,1994.0349025766973 L1062.2150974233027,2037.2150974233027" close="False" data-weight="2.060660171779821" stroke-width="7" fill="none" stroke="#8f0f12" />
<path d="M1019.0349025766973,1737.2150974233027 L1062.2150974233027,1694.0349025766973" close="False" data-weight="2.060660171779821" stroke-width="7" fill="none" stroke="#8f0f12" />
<path d="M950.625,1978.125 L980.625,1978.125" close="False" data-weight="1.75" stroke-width="7" fill="none" stroke="#8f0f12" />
<path d="M944.0349025766973,1812.2150974233027 L987.2150974233027,1769.0349025766973" close="False" data-weight="2.060660171779821" stroke-width="7" fill="none" stroke="#8f0f12" />
<path d="M875.625,1978.125 L905.625,1978.125" close="False" data-weight="1.75" stroke-width="7" fill="none" stroke="#8f0f12" />
<path d="M869.0349025766973,1887.2150974233027 L912.2150974233027,1844.0349025766973" close="False" data-weight="2.060660171779821" stroke-width="7" fill="none" stroke="#8f0f12" />
<path d="M800.625,1978.125 L830.625,1978.125" close="False" data-weight="1.75" stroke-width="7" fill="none" stroke="#8f0f12" />
<path d="M800.625,1903.125 L830.625,1903.125" close="False" data-weight="1.75" stroke-width="7" fill="none" stroke="#8f0f12" />
<path d="M725.625,1978.125 L755.625,1978.125" close="False" data-weight="1.75" stroke-width="7" fill="none" stroke="#8f0f12" />
<path d="M725.625,1903.125 L755.625,1903.125" close="False" data-weight="1.75" stroke-width="7" fill="none" stroke="#8f0f12" />
<path d="M650.625,1978.125 L680.625,1978.125" close="False" data-weight="1.75" stroke-width="7" fill="none" stroke="#8f0f12" />
<path d="M650.625,1903.125 L680.625,1903.125" close="False" data-weight="1.75" stroke-width="7" fill="none" stroke="#8f0f12" />
<path d="M571.8954377834743,1915.5314767527952 L615.7185232472044,1959.3545622165254" close="False" data-weight="2.060660171779821" stroke-width="7" fill="none" stroke="#8f0f12" />
<path d="M575.625,1903.125 L605.625,1903.125" close="False" data-weight="1.75" stroke-width="7" fill="none" stroke="#8f0f12" />
<path d="M1169.0349025766973,1062.2150974233027 C1161.0799512883486,1070.1700487116514,1145.1700487116514,1086.0799512883486,1137.2150974233027,1094.0349025766973" close="False" data-weight="0.0" stroke-width="7" fill="none" stroke="#90ea66" />
<path d="M1165.5314767527802,871.8954377834591 C1157.7372481187203,864.1012091493992,1142.1487908506006,848.5127518812794,1134.3545622165407,840.7185232472195" close="False" data-weight="0.0" stroke-width="7" fill="none" stroke="#90ea66" />
<path d="M1078.125,1805.625 A54.31980515339569,54.31980515339569,0,0,1,1073.9901510378277,1826.412289481504 M1073.9901510378277,1826.412289481504 A54.319805153393375,54.319805153393375,0,0,1,1062.2150974233027,1844.0349025766973 M1062.2150974233027,1844.0349025766973" close="False" data-weight="1.0" stroke-width="7" fill="none" stroke="#90ea66" />
<path d="M1078.125,1730.625 C1078.125,1741.875,1078.125,1764.375,1078.125,1775.625" close="False" data-weight="0.0" stroke-width="7" fill="none" stroke="#90ea66" />
<path d="M1078.125,1580.625 C1078.125,1591.875,1078.125,1614.375,1078.125,1625.625" close="False" data-weight="0.0" stroke-width="7" fill="none" stroke="#90ea66" />
<path d="M1078.125,1505.625 C1078.125,1516.875,1078.125,1539.375,1078.125,1550.625" close="False" data-weight="0.0" stroke-width="7" fill="none" stroke="#90ea66" />
<path d="M1078.125,1430.625 C1078.125,1441.875,1078.125,1464.375,1078.125,1475.625" close="False" data-weight="0.0" stroke-width="7" fill="none" stroke="#90ea66" />
<path d="M1078.125,1355.625 C1078.125,1366.875,1078.125,1389.375,1078.125,1400.625" close="False" data-weight="0.0" stroke-width="7" fill="none" stroke="#90ea66" />
<path d="M1078.125,1280.625 C1078.125,1291.875,1078.125,1314.375,1078.125,1325.625" close="False" data-weight="0.0" stroke-width="7" fill="none" stroke="#90ea66" />
<path d="M1078.125,1205.625 C1078.125,1216.875,1078.125,1239.375,1078.125,1250.625" close="False" data-weight="0.0" stroke-width="7" fill="none" stroke="#90ea66" />
<path d="M1094.0349025766973,1137.2150974233027 A54.3198051533949,54.3198051533949,0,0,0,1082.2598489621723,1154.837710518496 M1082.2598489621723,1154.837710518496 A54.3198051533941,54.3198051533941,0,0,0,1078.125,1175.625 M1078.125,1175.625" close="False" data-weight="1.0" stroke-width="7" fill="none" stroke="#90ea66" />
<path d="M1090.5314767527802,796.8954377834591 A48.72232222128625,48.72232222128625,0,0,0,1074.724817815392,786.3337659446199 M1074.724817815392,786.3337659446199 A48.722322221287754,48.722322221287754,0,0,0,1056.0795923149515,782.625 M1056.0795923149515,782.625" close="False" data-weight="1.0" stroke-width="7" fill="none" stroke="#90ea66" />
<path d="M1019.0349025766973,1887.2150974233027 C1011.0799512883486,1895.1700487116514,995.1700487116514,1911.0799512883486,987.2150974233027,1919.0349025766973" close="False" data-weight="0.0" stroke-width="7" fill="none" stroke="#90ea66" />
<path d="M1025.1704076850485,782.625 C1014.1477038425243,782.625,992.1022961574756,782.625,981.0795923149514,782.625" close="False" data-weight="0.0" stroke-width="7" fill="none" stroke="#90ea66" />
<path d="M1019.0349025766973,237.2150974233027 C1011.0799512883486,245.17004871165133,995.1700487116514,261.0799512883487,987.2150974233027,269.03490257669733" close="False" data-weight="0.0" stroke-width="7" fill="none" stroke="#90ea66" />
<path d="M944.0349025766973,1962.2150974233027 C936.0799512883486,1970.1700487116514,920.1700487116514,1986.0799512883486,912.2150974233027,1994.0349025766973" close="False" data-weight="0.0" stroke-width="7" fill="none" stroke="#90ea66" />
<path d="M950.1704076850486,782.625 C939.1477038425244,782.625,917.1022961574756,782.625,906.0795923149514,782.625" close="False" data-weight="0.0" stroke-width="7" fill="none" stroke="#90ea66" />
<path d="M944.0349025766973,312.21509742330267 C936.0799512883486,320.1700487116513,920.1700487116514,336.0799512883487,912.2150974233027,344.03490257669733" close="False" data-weight="0.0" stroke-width="7" fill="none" stroke="#90ea66" />
<path d="M869.0349025766973,2037.2150974233027 C861.0799512883486,2045.1700487116514,845.1700487116514,2061.0799512883486,837.2150974233027,2069.0349025766973" close="False" data-weight="0.0" stroke-width="7" fill="none" stroke="#90ea66" />
<path d="M875.1704076850486,782.625 C864.1477038425244,782.625,842.1022961574756,782.625,831.0795923149514,782.625" close="False" data-weight="0.0" stroke-width="7" fill="none" stroke="#90ea66" />
<path d="M869.0349025766973,387.21509742330267 C861.0799512883486,395.1700487116513,845.1700487116514,411.0799512883487,837.2150974233027,419.03490257669733" close="False" data-weight="0.0" stroke-width="7" fill="none" stroke="#90ea66" />
<path d="M794.0349025766973,462.21509742330267 C786.0799512883486,470.1700487116513,770.1700487116514,486.0799512883487,762.2150974233027,494.03490257669733" close="False" data-weight="0.0" stroke-width="7" fill="none" stroke="#90ea66" />
<path d="M719.0349025766973,2069.0349025766973 C711.0799512883486,2061.0799512883486,695.1700487116514,2045.1700487116514,687.2150974233027,2037.2150974233027" close="False" data-weight="0.0" stroke-width="7" fill="none" stroke="#90ea66" />
<path d="M721.8954377834593,840.7185232472195 C714.1012091493994,848.5127518812794,698.5127518812794,864.1012091493994,690.7185232472195,871.8954377834593" close="False" data-weight="0.0" stroke-width="7" fill="none" stroke="#90ea66" />
<path d="M719.0349025766973,537.2150974233027 C711.0799512883486,545.1700487116514,695.1700487116514,561.0799512883486,687.2150974233027,569.0349025766973" close="False" data-weight="0.0" stroke-width="7" fill="none" stroke="#90ea66" />
<path d="M644.0349025766973,1994.0349025766973 C636.1202339445246,1986.1202339445244,617.2692308487135,1973.6331918793924,609.3545622165407,1965.7185232472195" close="False" data-weight="0.0" stroke-width="7" fill="none" stroke="#90ea66" />
<path d="M646.8954377834593,915.7185232472195 A57.722322221287925,57.722322221287925,0,0,1,628.1689687066777,928.2311498479813 M628.1689687066777,928.2311498479813 A57.722322221289005,57.722322221289005,0,0,1,606.0795923149514,932.625 M606.0795923149514,932.625" close="False" data-weight="1.0" stroke-width="7" fill="none" stroke="#90ea66" />
<path d="M644.0349025766973,612.2150974233027 C636.0799512883486,620.1700487116514,620.1700487116514,636.0799512883486,612.2150974233027,644.0349025766973" close="False" data-weight="0.0" stroke-width="7" fill="none" stroke="#90ea66" />
<path d="M569.0349025766973,687.2150974233027 A54.3198051533949,54.3198051533949,0,0,1,551.4122894815039,698.9901510378279 M551.4122894815039,698.9901510378279 A54.31980515339421,54.31980515339421,0,0,1,530.625,703.125 M530.625,703.125" close="False" data-weight="1.0" stroke-width="7" fill="none" stroke="#90ea66" />
<path d="M494.03490257669733,1844.0349025766973 C486.0799512883487,1836.0799512883486,470.1700487116513,1820.1700487116514,462.21509742330267,1812.2150974233027" close="False" data-weight="0.0" stroke-width="7" fill="none" stroke="#90ea66" />
<path d="M500.1704076850486,932.625 A57.722322221287754,57.722322221287754,0,0,1,478.08103129332227,928.2311498479813 M478.08103129332227,928.2311498479813 A57.72232222128817,57.72232222128817,0,0,1,459.3545622165406,915.7185232472195 M459.3545622165406,915.7185232472195" close="False" data-weight="1.0" stroke-width="7" fill="none" stroke="#90ea66" />
<path d="M473.625,756.0795923149514 A48.72232222128753,48.72232222128753,0,0,1,469.91623405537973,774.7248178153919 M469.91623405537973,774.7248178153919 A48.72232222128946,48.72232222128946,0,0,1,459.3545622165406,790.5314767527805 M459.3545622165406,790.5314767527805" close="False" data-weight="1.0" stroke-width="7" fill="none" stroke="#90ea66" />
<path d="M419.03490257669733,1769.0349025766973 C411.0799512883487,1761.0799512883486,395.1700487116513,1745.1700487116514,387.21509742330267,1737.2150974233027" close="False" data-weight="0.0" stroke-width="7" fill="none" stroke="#90ea66" />
<path d="M328.125,1625.625 A54.31980515339285,54.31980515339285,0,0,0,323.9901510378276,1604.837710518496 M323.9901510378276,1604.837710518496 A54.31980515339627,54.31980515339627,0,0,0,312.21509742330267,1587.2150974233027 M312.21509742330267,1587.2150974233027" close="False" data-weight="1.0" stroke-width="7" fill="none" stroke="#90ea66" />
<path d="M269.03490257669733,1544.0349025766973 C261.0799512883487,1536.0799512883486,245.1700487116513,1520.1700487116514,237.21509742330267,1512.2150974233027" close="False" data-weight="0.0" stroke-width="7" fill="none" stroke="#90ea66" />
<path d="M178.125,1355.625 C178.125,1366.875,178.125,1389.375,178.125,1400.625" close="False" data-weight="0.0" stroke-width="7" fill="none" stroke="#90ea66" />
<path d="M1228.125,950.625 L1228.125,980.625" close="False" data-weight="1.75" stroke-width="7" fill="none" stroke="#90ea66" />
<path d="M1169.0349025766973,1062.2150974233027 L1212.2150974233027,1019.0349025766973" close="False" data-weight="2.060660171779821" stroke-width="7" fill="none" stroke="#90ea66" />
<path d="M1165.5314767527805,871.8954377834593 L1209.3545622165404,915.7185232472193" close="False" data-weight="2.060660171779821" stroke-width="7" fill="none" stroke="#90ea66" />
<path d="M1078.125,1775.625 L1078.125,1805.625" close="False" data-weight="1.75" stroke-width="7" fill="none" stroke="#90ea66" />
<path d="M1078.125,1700.625 L1078.125,1730.625" close="False" data-weight="1.75" stroke-width="7" fill="none" stroke="#90ea66" />
<path d="M1078.125,1625.625 L1078.125,1655.625" close="False" data-weight="1.75" stroke-width="7" fill="none" stroke="#90ea66" />
<path d="M1078.125,1550.625 L1078.125,1580.625" close="False" data-weight="1.75" stroke-width="7" fill="none" stroke="#90ea66" />
<path d="M1078.125,1475.625 L1078.125,1505.625" close="False" data-weight="1.75" stroke-width="7" fill="none" stroke="#90ea66" />
<path d="M1078.125,1400.625 L1078.125,1430.625" close="False" data-weight="1.75" stroke-width="7" fill="none" stroke="#90ea66" />
<path d="M1078.125,1325.625 L1078.125,1355.625" close="False" data-weight="1.75" stroke-width="7" fill="none" stroke="#90ea66" />
<path d="M1078.125,1250.625 L1078.125,1280.625" close="False" data-weight="1.75" stroke-width="7" fill="none" stroke="#90ea66" />
<path d="M1078.125,1175.625 L1078.125,1205.625" close="False" data-weight="1.75" stroke-width="7" fill="none" stroke="#90ea66" />
<path d="M1094.0349025766973,1137.2150974233027 L1137.2150974233027,1094.0349025766973" close="False" data-weight="2.060660171779821" stroke-width="7" fill="none" stroke="#90ea66" />
<path d="M1090.5314767527805,796.8954377834593 L1134.3545622165404,840.7185232472193" close="False" data-weight="2.060660171779821" stroke-width="7" fill="none" stroke="#90ea66" />
<path d="M1019.0349025766973,1887.2150974233027 L1062.2150974233027,1844.0349025766973" close="False" data-weight="2.060660171779821" stroke-width="7" fill="none" stroke="#90ea66" />
<path d="M1025.1704076850485,782.625 L1056.0795923149515,782.625" close="False" data-weight="1.75" stroke-width="7" fill="none" stroke="#90ea66" />
<path d="M1019.0349025766973,237.21509742330267 L1062.2150974233027,194.0349025766973" close="False" data-weight="2.060660171779821" stroke-width="7" fill="none" stroke="#90ea66" />
<path d="M944.0349025766973,1962.2150974233027 L987.2150974233027,1919.0349025766973" close="False" data-weight="2.060660171779821" stroke-width="7" fill="none" stroke="#90ea66" />
<path d="M950.1704076850486,782.625 L981.0795923149514,782.625" close="False" data-weight="1.75" stroke-width="7" fill="none" stroke="#90ea66" />
<path d="M944.0349025766973,312.21509742330267 L987.2150974233027,269.03490257669733" close="False" data-weight="2.060660171779821" stroke-width="7" fill="none" stroke="#90ea66" />
<path d="M869.0349025766973,2037.2150974233027 L912.2150974233027,1994.0349025766973" close="False" data-weight="2.060660171779821" stroke-width="7" fill="none" stroke="#90ea66" />
<path d="M875.1704076850486,782.625 L906.0795923149514,782.625" close="False" data-weight="1.75" stroke-width="7" fill="none" stroke="#90ea66" />
<path d="M869.0349025766973,387.21509742330267 L912.2150974233027,344.03490257669733" close="False" data-weight="2.060660171779821" stroke-width="7" fill="none" stroke="#90ea66" />
<path d="M794.0349025766973,2112.2150974233027 L837.2150974233027,2069.0349025766973" close="False" data-weight="2.060660171779821" stroke-width="7" fill="none" stroke="#90ea66" />
<path d="M800.1704076850486,782.625 L831.0795923149514,782.625" close="False" data-weight="1.75" stroke-width="7" fill="none" stroke="#90ea66" />
<path d="M794.0349025766973,462.21509742330267 L837.2150974233027,419.03490257669733" close="False" data-weight="2.060660171779821" stroke-width="7" fill="none" stroke="#90ea66" />
<path d="M719.0349025766973,2069.0349025766973 L762.2150974233027,2112.2150974233027" close="False" data-weight="2.060660171779821" stroke-width="7" fill="none" stroke="#90ea66" />
<path d="M721.8954377834593,840.7185232472195 L765.718523247212,796.8954377834668" close="False" data-weight="2.060660171779821" stroke-width="7" fill="none" stroke="#90ea66" />
<path d="M719.0349025766973,537.2150974233027 L762.2150974233027,494.03490257669733" close="False" data-weight="2.060660171779821" stroke-width="7" fill="none" stroke="#90ea66" />
<path d="M644.0349025766973,1994.0349025766973 L687.2150974233027,2037.2150974233027" close="False" data-weight="2.060660171779821" stroke-width="7" fill="none" stroke="#90ea66" />
<path d="M646.8954377834593,915.7185232472195 L690.7185232472195,871.8954377834593" close="False" data-weight="2.060660171779821" stroke-width="7" fill="none" stroke="#90ea66" />
<path d="M644.0349025766973,612.2150974233027 L687.2150974233027,569.0349025766973" close="False" data-weight="2.060660171779821" stroke-width="7" fill="none" stroke="#90ea66" />
<path d="M565.5314767527655,1921.8954377834445 L609.3545622165558,1965.7185232472348" close="False" data-weight="2.060660171779821" stroke-width="7" fill="none" stroke="#90ea66" />
<path d="M575.1704076850486,932.625 L606.0795923149514,932.625" close="False" data-weight="1.75" stroke-width="7" fill="none" stroke="#90ea66" />
<path d="M569.0349025766973,687.2150974233027 L612.2150974233027,644.0349025766973" close="False" data-weight="2.060660171779821" stroke-width="7" fill="none" stroke="#90ea66" />
<path d="M494.03490257669733,1844.0349025766973 L537.2150974233027,1887.2150974233027" close="False" data-weight="2.060660171779821" stroke-width="7" fill="none" stroke="#90ea66" />
<path d="M500.1704076850486,932.625 L531.0795923149514,932.625" close="False" data-weight="1.75" stroke-width="7" fill="none" stroke="#90ea66" />
<path d="M473.625,725.1704076850486 L473.625,756.0795923149514" close="False" data-weight="1.75" stroke-width="7" fill="none" stroke="#90ea66" />
<path d="M500.625,703.125 L530.625,703.125" close="False" data-weight="1.75" stroke-width="7" fill="none" stroke="#90ea66" />
<path d="M419.03490257669733,1769.0349025766973 L462.21509742330267,1812.2150974233027" close="False" data-weight="2.060660171779821" stroke-width="7" fill="none" stroke="#90ea66" />
<path d="M415.5314767527767,871.8954377834556 L459.35456221654425,915.7185232472232" close="False" data-weight="2.060660171779821" stroke-width="7" fill="none" stroke="#90ea66" />
<path d="M415.5314767527804,834.3545622165407 L459.3545622165405,790.5314767527806" close="False" data-weight="2.060660171779821" stroke-width="7" fill="none" stroke="#90ea66" />
<path d="M344.03490257669733,1694.0349025766973 L387.21509742330267,1737.2150974233027" close="False" data-weight="2.060660171779821" stroke-width="7" fill="none" stroke="#90ea66" />
<path d="M328.125,1625.625 L328.125,1655.625" close="False" data-weight="1.75" stroke-width="7" fill="none" stroke="#90ea66" />
<path d="M269.03490257669733,1544.0349025766973 L312.21509742330267,1587.2150974233027" close="False" data-weight="2.060660171779821" stroke-width="7" fill="none" stroke="#90ea66" />
<path d="M194.03490257669733,1469.0349025766973 L237.2150974233027,1512.2150974233027" close="False" data-weight="2.060660171779821" stroke-width="7" fill="none" stroke="#90ea66" />
<path d="M178.125,1400.625 L178.125,1430.625" close="False" data-weight="1.75" stroke-width="7" fill="none" stroke="#90ea66" />
<path d="M178.125,1325.625 L178.125,1355.625" close="False" data-weight="1.75" stroke-width="7" fill="none" stroke="#90ea66" />
<path d="M2132.625,1731.0795923149515 C2132.625,1742.1022961574758,2132.625,1764.1477038425242,2132.625,1775.1704076850485" close="False" data-weight="0.0" stroke-width="7" fill="none" stroke="#35618f" />
<path d="M2075.1704076850488,1832.625 C2064.1477038425246,1832.625,2042.1022961574758,1832.625,2031.0795923149515,1832.625" close="False" data-weight="0.0" stroke-width="7" fill="none" stroke="#35618f" />
<path d="M2000.1704076850485,1832.625 C1989.1477038425242,1832.625,1967.1022961574758,1832.625,1956.0795923149515,1832.625" close="False" data-weight="0.0" stroke-width="7" fill="none" stroke="#35618f" />
<path d="M1925.1704076850485,1832.625 C1914.1477038425242,1832.625,1892.1022961574758,1832.625,1881.0795923149515,1832.625" close="False" data-weight="0.0" stroke-width="7" fill="none" stroke="#35618f" />
<path d="M1844.0349025766973,2337.2150974233027 C1836.0799512883486,2345.1700487116514,1820.1700487116514,2361.0799512883486,1812.2150974233027,2369.0349025766973" close="False" data-weight="0.0" stroke-width="7" fill="none" stroke="#35618f" />
<path d="M1850.1704076850485,1832.625 C1839.1477038425242,1832.625,1817.1022961574758,1832.625,1806.0795923149515,1832.625" close="False" data-weight="0.0" stroke-width="7" fill="none" stroke="#35618f" />
<path d="M1769.0349025766973,2412.2150974233027 A54.319805153391044,54.319805153391044,0,0,1,1751.4122894815043,2423.990151037828 M1751.4122894815043,2423.990151037828 A54.3198051533941,54.3198051533941,0,0,1,1730.625,2428.125 M1730.625,2428.125" close="False" data-weight="1.0" stroke-width="7" fill="none" stroke="#35618f" />
<path d="M1775.1704076850485,1832.625 C1764.1477038425242,1832.625,1742.1022961574758,1832.625,1731.0795923149515,1832.625" close="False" data-weight="0.0" stroke-width="7" fill="none" stroke="#35618f" />
<path d="M1700.625,2428.125 C1689.375,2428.125,1666.875,2428.125,1655.625,2428.125" close="False" data-weight="0.0" stroke-width="7" fill="none" stroke="#35618f" />
<path d="M1700.1704076850485,1832.625 C1689.1477038425242,1832.625,1667.1022961574758,1832.625,1656.0795923149515,1832.625" close="False" data-weight="0.0" stroke-width="7" fill="none" stroke="#35618f" />
<path d="M1625.625,2428.125 C1614.375,2428.125,1591.875,2428.125,1580.625,2428.125" close="False" data-weight="0.0" stroke-width="7" fill="none" stroke="#35618f" />
<path d="M1625.1704076850485,1832.625 C1614.1477038425242,1832.625,1592.1022961574758,1832.625,1581.0795923149515,1832.625" close="False" data-weight="0.0" stroke-width="7" fill="none" stroke="#35618f" />
<path d="M1550.1704076850485,1832.625 C1539.1477038425242,1832.625,1517.1022961574758,1832.625,1506.0795923149515,1832.625" close="False" data-weight="0.0" stroke-width="7" fill="none" stroke="#35618f" />
<path d="M1465.5314767527802,2371.8954377834593 C1457.7372481187203,2364.1012091493994,1442.1487908506006,2348.5127518812797,1434.3545622165407,2340.7185232472198" close="False" data-weight="0.0" stroke-width="7" fill="none" stroke="#35618f" />
<path d="M1475.1704076850485,1832.625 C1464.1477038425242,1832.625,1442.1022961574758,1832.625,1431.0795923149515,1832.625" close="False" data-weight="0.0" stroke-width="7" fill="none" stroke="#35618f" />
<path d="M1390.5314767527802,2296.8954377834593 A48.72232222128834,48.72232222128834,0,0,0,1374.7248178153918,2286.33376594462 M1374.7248178153918,2286.33376594462 A48.72232222128787,48.72232222128787,0,0,0,1356.0795923149515,2282.625 M1356.0795923149515,2282.625" close="False" data-weight="1.0" stroke-width="7" fill="none" stroke="#35618f" />
<path d="M1319.0349025766973,1887.2150974233027 C1311.0799512883486,1895.1700487116514,1295.1700487116514,1911.0799512883486,1287.2150974233027,1919.0349025766973" close="False" data-weight="0.0" stroke-width="7" fill="none" stroke="#35618f" />
<path d="M1250.1704076850485,2282.625 C1239.1477038425242,2282.625,1217.1022961574758,2282.625,1206.0795923149515,2282.625" close="False" data-weight="0.0" stroke-width="7" fill="none" stroke="#35618f" />
<path d="M1244.0349025766973,1962.2150974233027 C1236.0799512883486,1970.1700487116514,1220.1700487116514,1986.0799512883486,1212.2150974233027,1994.0349025766973" close="False" data-weight="0.0" stroke-width="7" fill="none" stroke="#35618f" />
<path d="M1175.1704076850485,2282.625 C1163.977375963741,2282.625,1141.8180317213075,2278.125,1130.625,2278.125" close="False" data-weight="0.0" stroke-width="7" fill="none" stroke="#35618f" />
<path d="M1169.0349025766973,2037.2150974233027 C1161.0799512883486,2045.1700487116514,1145.1700487116514,2061.0799512883486,1137.2150974233027,2069.0349025766973" close="False" data-weight="0.0" stroke-width="7" fill="none" stroke="#35618f" />
<path d="M1100.625,2278.125 C1089.375,2278.125,1066.875,2278.125,1055.625,2278.125" close="False" data-weight="0.0" stroke-width="7" fill="none" stroke="#35618f" />
<path d="M1094.0349025766973,2112.2150974233027 A54.319805153391044,54.319805153391044,0,0,1,1076.4122894815043,2123.990151037828 M1076.4122894815043,2123.990151037828 A54.3198051533941,54.3198051533941,0,0,1,1055.625,2128.125 M1055.625,2128.125" close="False" data-weight="1.0" stroke-width="7" fill="none" stroke="#35618f" />
<path d="M1025.625,2278.125 C1014.375,2278.125,991.875,2278.125,980.625,2278.125" close="False" data-weight="0.0" stroke-width="7" fill="none" stroke="#35618f" />
<path d="M1025.625,2128.125 C1014.375,2128.125,991.875,2128.125,980.625,2128.125" close="False" data-weight="0.0" stroke-width="7" fill="none" stroke="#35618f" />
<path d="M950.625,2278.125 A54.3198051533991,54.3198051533991,0,0,1,929.8377105184959,2273.990151037828 M929.8377105184959,2273.990151037828 A54.319805153386056,54.319805153386056,0,0,1,912.2150974233027,2262.2150974233027 M912.2150974233027,2262.2150974233027" close="False" data-weight="1.0" stroke-width="7" fill="none" stroke="#35618f" />
<path d="M950.625,2128.125 C939.375,2128.125,916.875,2128.125,905.625,2128.125" close="False" data-weight="0.0" stroke-width="7" fill="none" stroke="#35618f" />
<path d="M869.0349025766973,2219.0349025766973 C861.0799512883486,2211.0799512883486,845.1700487116514,2195.1700487116514,837.2150974233027,2187.2150974233027" close="False" data-weight="0.0" stroke-width="7" fill="none" stroke="#35618f" />
<path d="M875.625,2128.125 C864.375,2128.125,841.875,2128.125,830.625,2128.125" close="False" data-weight="0.0" stroke-width="7" fill="none" stroke="#35618f" />
<path d="M2132.625,1775.1704076850485 L2132.625,1806.0795923149515" close="False" data-weight="1.75" stroke-width="7" fill="none" stroke="#35618f" />
<path d="M2132.625,1700.1704076850485 L2132.625,1731.0795923149515" close="False" data-weight="1.75" stroke-width="7" fill="none" stroke="#35618f" />
<path d="M2075.1704076850488,1832.625 L2106.0795923149512,1832.625" close="False" data-weight="1.75" stroke-width="7" fill="none" stroke="#35618f" />
<path d="M2000.1704076850485,1832.625 L2031.0795923149515,1832.625" close="False" data-weight="1.75" stroke-width="7" fill="none" stroke="#35618f" />
<path d="M1919.0349025766973,2262.2150974233027 L1962.2150974233027,2219.0349025766973" close="False" data-weight="2.060660171779821" stroke-width="7" fill="none" stroke="#35618f" />
<path d="M1925.1704076850485,1832.625 L1956.0795923149515,1832.625" close="False" data-weight="1.75" stroke-width="7" fill="none" stroke="#35618f" />
<path d="M1844.0349025766973,2337.2150974233027 L1887.2150974233027,2294.0349025766973" close="False" data-weight="2.060660171779821" stroke-width="7" fill="none" stroke="#35618f" />
<path d="M1850.1704076850485,1832.625 L1881.0795923149515,1832.625" close="False" data-weight="1.75" stroke-width="7" fill="none" stroke="#35618f" />
<path d="M1769.0349025766973,2412.2150974233027 L1812.2150974233027,2369.0349025766973" close="False" data-weight="2.060660171779821" stroke-width="7" fill="none" stroke="#35618f" />
<path d="M1775.1704076850485,1832.625 L1806.0795923149515,1832.625" close="False" data-weight="1.75" stroke-width="7" fill="none" stroke="#35618f" />
<path d="M1700.625,2428.125 L1730.625,2428.125" close="False" data-weight="1.75" stroke-width="7" fill="none" stroke="#35618f" />
<path d="M1700.1704076850485,1832.625 L1731.0795923149515,1832.625" close="False" data-weight="1.75" stroke-width="7" fill="none" stroke="#35618f" />
<path d="M1625.625,2428.125 L1655.625,2428.125" close="False" data-weight="1.75" stroke-width="7" fill="none" stroke="#35618f" />
<path d="M1625.1704076850485,1832.625 L1656.0795923149515,1832.625" close="False" data-weight="1.75" stroke-width="7" fill="none" stroke="#35618f" />
<path d="M1550.625,2428.125 L1580.625,2428.125" close="False" data-weight="1.75" stroke-width="7" fill="none" stroke="#35618f" />
<path d="M1550.1704076850485,1832.625 L1581.0795923149515,1832.625" close="False" data-weight="1.75" stroke-width="7" fill="none" stroke="#35618f" />
<path d="M1465.5314767527802,2371.8954377834593 L1509.3545622165407,2415.7185232472198" close="False" data-weight="2.060660171779821" stroke-width="7" fill="none" stroke="#35618f" />
<path d="M1475.1704076850485,1832.625 L1506.0795923149515,1832.625" close="False" data-weight="1.75" stroke-width="7" fill="none" stroke="#35618f" />
<path d="M1390.5314767527802,2296.8954377834593 L1434.3545622165407,2340.7185232472198" close="False" data-weight="2.060660171779821" stroke-width="7" fill="none" stroke="#35618f" />
<path d="M1400.1704076850485,1832.625 L1431.0795923149515,1832.625" close="False" data-weight="1.75" stroke-width="7" fill="none" stroke="#35618f" />
<path d="M1325.1704076850485,2282.625 L1356.0795923149515,2282.625" close="False" data-weight="1.75" stroke-width="7" fill="none" stroke="#35618f" />
<path d="M1319.0349025766973,1887.2150974233027 L1362.2150974233027,1844.0349025766973" close="False" data-weight="2.060660171779821" stroke-width="7" fill="none" stroke="#35618f" />
<path d="M1250.1704076850485,2282.625 L1281.0795923149515,2282.625" close="False" data-weight="1.75" stroke-width="7" fill="none" stroke="#35618f" />
<path d="M1244.0349025766973,1962.2150974233027 L1287.2150974233027,1919.0349025766973" close="False" data-weight="2.060660171779821" stroke-width="7" fill="none" stroke="#35618f" />
<path d="M1175.1704076850485,2282.625 L1206.0795923149515,2282.625" close="False" data-weight="1.75" stroke-width="7" fill="none" stroke="#35618f" />
<path d="M1169.0349025766973,2037.2150974233027 L1212.2150974233027,1994.0349025766973" close="False" data-weight="2.060660171779821" stroke-width="7" fill="none" stroke="#35618f" />
<path d="M1100.625,2278.125 L1130.625,2278.125" close="False" data-weight="1.75" stroke-width="7" fill="none" stroke="#35618f" />
<path d="M1094.0349025766973,2112.2150974233027 L1137.2150974233027,2069.0349025766973" close="False" data-weight="2.060660171779821" stroke-width="7" fill="none" stroke="#35618f" />
<path d="M1025.625,2278.125 L1055.625,2278.125" close="False" data-weight="1.75" stroke-width="7" fill="none" stroke="#35618f" />
<path d="M1025.625,2128.125 L1055.625,2128.125" close="False" data-weight="1.75" stroke-width="7" fill="none" stroke="#35618f" />
<path d="M950.625,2278.125 L980.625,2278.125" close="False" data-weight="1.75" stroke-width="7" fill="none" stroke="#35618f" />
<path d="M950.625,2128.125 L980.625,2128.125" close="False" data-weight="1.75" stroke-width="7" fill="none" stroke="#35618f" />
<path d="M869.0349025766973,2219.0349025766973 L912.2150974233027,2262.2150974233027" close="False" data-weight="2.060660171779821" stroke-width="7" fill="none" stroke="#35618f" />
<path d="M875.625,2128.125 L905.625,2128.125" close="False" data-weight="1.75" stroke-width="7" fill="none" stroke="#35618f" />
<path d="M794.0349025766973,2144.0349025766973 L837.2150974233027,2187.2150974233027" close="False" data-weight="2.060660171779821" stroke-width="7" fill="none" stroke="#35618f" />
<path d="M800.625,2128.125 L830.625,2128.125" close="False" data-weight="1.75" stroke-width="7" fill="none" stroke="#35618f" />
<image x="2395.625" y="595.625" width="65" height="65" xlink:href="designspace-test/./img/ds_dataset1_40_21_thumb.png" data-node="True" data-id="21" />
<image x="2320.625" y="970.625" width="65" height="65" xlink:href="designspace-test/./img/ds_dataset1_40_17_thumb.png" data-node="True" data-id="17" />
<image x="2245.625" y="1270.625" width="65" height="65" xlink:href="designspace-test/./img/ds_dataset1_40_37_thumb.png" data-node="True" data-id="37" />
<image x="2245.625" y="895.625" width="65" height="65" xlink:href="designspace-test/./img/ds_dataset1_40_31_thumb.png" data-node="True" data-id="31" />
<image x="2170.625" y="970.625" width="65" height="65" xlink:href="designspace-test/./img/ds_dataset1_40_13_thumb.png" data-node="True" data-id="13" />
<image x="2170.625" y="820.625" width="65" height="65" xlink:href="designspace-test/./img/ds_dataset1_40_30_thumb.png" data-node="True" data-id="30" />
<image x="2170.625" y="670.625" width="65" height="65" xlink:href="designspace-test/./img/ds_dataset1_40_33_thumb.png" data-node="True" data-id="33" />
<image x="2095.625" y="1795.625" width="65" height="65" xlink:href="designspace-test/./img/ds_dataset1_40_32_thumb.png" data-node="True" data-id="32" />
<image x="2095.625" y="1645.625" width="65" height="65" xlink:href="designspace-test/./img/ds_dataset1_40_19_thumb.png" data-node="True" data-id="19" />
<image x="2095.625" y="970.625" width="65" height="65" xlink:href="designspace-test/./img/ds_dataset1_40_24_thumb.png" data-node="True" data-id="24" />
<image x="1945.625" y="2170.625" width="65" height="65" xlink:href="designspace-test/./img/ds_dataset1_40_2_thumb.png" data-node="True" data-id="2" />
<image x="1945.625" y="895.625" width="65" height="65" xlink:href="designspace-test/./img/ds_dataset1_40_25_thumb.png" data-node="True" data-id="25" />
<image x="1945.625" y="745.625" width="65" height="65" xlink:href="designspace-test/./img/ds_dataset1_40_11_thumb.png" data-node="True" data-id="11" />
<image x="1870.625" y="2245.625" width="65" height="65" xlink:href="designspace-test/./img/ds_dataset1_40_12_thumb.png" data-node="True" data-id="12" />
<image x="1870.625" y="1045.625" width="65" height="65" xlink:href="designspace-test/./img/ds_dataset1_40_14_thumb.png" data-node="True" data-id="14" />
<image x="1870.625" y="745.625" width="65" height="65" xlink:href="designspace-test/./img/ds_dataset1_40_10_thumb.png" data-node="True" data-id="10" />
<image x="1795.625" y="670.625" width="65" height="65" xlink:href="designspace-test/./img/ds_dataset1_40_9_thumb.png" data-node="True" data-id="9" />
<image x="1720.625" y="670.625" width="65" height="65" xlink:href="designspace-test/./img/ds_dataset1_40_16_thumb.png" data-node="True" data-id="16" />
<image x="1570.625" y="1195.625" width="65" height="65" xlink:href="designspace-test/./img/ds_dataset1_40_39_thumb.png" data-node="True" data-id="39" />
<image x="1495.625" y="2395.625" width="65" height="65" xlink:href="designspace-test/./img/ds_dataset1_40_22_thumb.png" data-node="True" data-id="22" />
<image x="1495.625" y="1270.625" width="65" height="65" xlink:href="designspace-test/./img/ds_dataset1_40_1_thumb.png" data-node="True" data-id="1" />
<image x="1420.625" y="295.625" width="65" height="65" xlink:href="designspace-test/./img/ds_dataset1_40_27_thumb.png" data-node="True" data-id="27" />
<image x="1345.625" y="1795.625" width="65" height="65" xlink:href="designspace-test/./img/ds_dataset1_40_4_thumb.png" data-node="True" data-id="4" />
<image x="1270.625" y="2245.625" width="65" height="65" xlink:href="designspace-test/./img/ds_dataset1_40_38_thumb.png" data-node="True" data-id="38" />
<image x="1270.625" y="1120.625" width="65" height="65" xlink:href="designspace-test/./img/ds_dataset1_40_36_thumb.png" data-node="True" data-id="36" />
<image x="1195.625" y="970.625" width="65" height="65" xlink:href="designspace-test/./img/ds_dataset1_40_29_thumb.png" data-node="True" data-id="29" />
<image x="1195.625" y="895.625" width="65" height="65" xlink:href="designspace-test/./img/ds_dataset1_40_3_thumb.png" data-node="True" data-id="3" />
<image x="1045.625" y="2170.625" width="65" height="65" xlink:href="designspace-test/./img/ds_dataset1_40_23_thumb.png" data-node="True" data-id="23" />
<image x="1045.625" y="1645.625" width="65" height="65" xlink:href="designspace-test/./img/ds_dataset1_40_28_thumb.png" data-node="True" data-id="28" />
<image x="1045.625" y="145.625" width="65" height="65" xlink:href="designspace-test/./img/ds_dataset1_40_0_thumb.png" data-node="True" data-id="0" />
<image x="970.625" y="1945.625" width="65" height="65" xlink:href="designspace-test/./img/ds_dataset1_40_35_thumb.png" data-node="True" data-id="35" />
<image x="745.625" y="2095.625" width="65" height="65" xlink:href="designspace-test/./img/ds_dataset1_40_18_thumb.png" data-node="True" data-id="18" />
<image x="745.625" y="745.625" width="65" height="65" xlink:href="designspace-test/./img/ds_dataset1_40_6_thumb.png" data-node="True" data-id="6" />
<image x="520.625" y="1870.625" width="65" height="65" xlink:href="designspace-test/./img/ds_dataset1_40_20_thumb.png" data-node="True" data-id="20" />
<image x="520.625" y="895.625" width="65" height="65" xlink:href="designspace-test/./img/ds_dataset1_40_8_thumb.png" data-node="True" data-id="8" />
<image x="445.625" y="670.625" width="65" height="65" xlink:href="designspace-test/./img/ds_dataset1_40_15_thumb.png" data-node="True" data-id="15" />
<image x="370.625" y="820.625" width="65" height="65" xlink:href="designspace-test/./img/ds_dataset1_40_26_thumb.png" data-node="True" data-id="26" />
<image x="295.625" y="1645.625" width="65" height="65" xlink:href="designspace-test/./img/ds_dataset1_40_34_thumb.png" data-node="True" data-id="34" />
<image x="145.625" y="1420.625" width="65" height="65" xlink:href="designspace-test/./img/ds_dataset1_40_5_thumb.png" data-node="True" data-id="5" />
<image x="145.625" y="1270.625" width="65" height="65" xlink:href="designspace-test/./img/ds_dataset1_40_7_thumb.png" data-node="True" data-id="7" />
</svg>