<?xml version="1.0" encoding="UTF-8"?>
<svg xmlns="http://www.w3.org/2000/svg" xmlns:xlink="http://www.w3.org/1999/xlink"
     width="2550" height="2550" viewBox="0 0 2550 2550">
<defs>
</defs>
<path d="M2432.125,1130.9834101745155 A57.454526449181685,57.454526449181685,0,0,1,2427.751534587345,1152.970305561001 M2427.751534587345,1152.970305561001 A57.45452644919593,57.45452644919593,0,0,1,2415.296958812895,1171.6098954365973 M2415.296958812895,1171.6098954365973" close="False" data-weight="1.0" stroke-width="6" fill="none" stroke="#ffff33" />
<path d="M2432.125,1055.9834101745155 C2432.125,1067.0542050872577,2432.125,1089.1957949127423,2432.125,1100.2665898254845" close="False" data-weight="0.0" stroke-width="6" fill="none" stroke="#ffff33" />
<path d="M2432.125,980.9834101745155 C2432.125,992.0542050872577,2432.125,1014.1957949127423,2432.125,1025.2665898254845" close="False" data-weight="0.0" stroke-width="6" fill="none" stroke="#ffff33" />
<path d="M2432.125,905.9834101745155 C2432.125,917.0542050872577,2432.125,939.1957949127423,2432.125,950.2665898254845" close="False" data-weight="0.0" stroke-width="6" fill="none" stroke="#ffff33" />
<path d="M2432.125,830.9834101745155 C2432.125,842.0542050872577,2432.125,864.1957949127423,2432.125,875.2665898254845" close="False" data-weight="0.0" stroke-width="6" fill="none" stroke="#ffff33" />
<path d="M2432.125,755.9834101745155 C2432.125,767.0542050872577,2432.125,789.1957949127423,2432.125,800.2665898254845" close="False" data-weight="0.0" stroke-width="6" fill="none" stroke="#ffff33" />
<path d="M2432.125,680.9834101745155 C2432.125,692.0542050872577,2432.125,714.1957949127423,2432.125,725.2665898254845" close="False" data-weight="0.0" stroke-width="6" fill="none" stroke="#ffff33" />
<path d="M2371.6098954365975,1215.2969588128951 C2363.7816612806796,1223.1251929688133,2348.1251929688433,1238.7816612806496,2340.296958812925,1246.6098954365677" close="False" data-weight="0.0" stroke-width="6" fill="none" stroke="#ffff33" />
<path d="M2375.2665898254845,624.125 C2364.1957949127423,624.125,2342.0542050872577,624.125,2330.9834101745155,624.125" close="False" data-weight="0.0" stroke-width="6" fill="none" stroke="#ffff33" />
<path d="M2300.2665898254845,624.125 C2289.1957949127423,624.125,2267.0542050872577,624.125,2255.9834101745155,624.125" close="False" data-weight="0.0" stroke-width="6" fill="none" stroke="#ffff33" />
<path d="M2225.2665898254845,624.125 C2214.1957949127423,624.125,2192.0542050872577,624.125,2180.9834101745155,624.125" close="False" data-weight="0.0" stroke-width="6" fill="none" stroke="#ffff33" />
<path d="M2150.2665898254845,624.125 C2139.1957949127423,624.125,2117.0542050872577,624.125,2105.9834101745155,624.125" close="False" data-weight="0.0" stroke-width="6" fill="none" stroke="#ffff33" />
<path d="M2075.2665898254845,624.125 C2064.1957949127423,624.125,2042.0542050872577,624.125,2030.9834101745155,624.125" close="False" data-weight="0.0" stroke-width="6" fill="none" stroke="#ffff33" />
<path d="M2000.2665898254845,624.125 C1989.1957949127423,624.125,1967.0542050872577,624.125,1955.9834101745155,624.125" close="False" data-weight="0.0" stroke-width="6" fill="none" stroke="#ffff33" />
<path d="M1925.2665898254845,624.125 C1914.1957949127423,624.125,1892.0542050872577,624.125,1880.9834101745155,624.125" close="False" data-weight="0.0" stroke-width="6" fill="none" stroke="#ffff33" />
<path d="M1850.2665898254845,624.125 C1839.1957949127423,624.125,1817.0542050872577,624.125,1805.9834101745155,624.125" close="False" data-weight="0.0" stroke-width="6" fill="none" stroke="#ffff33" />
<path d="M1775.2665898254845,624.125 A49.454526449188165,49.454526449188165,0,0,1,1756.3411618979196,620.3604983272551 M1756.3411618979196,620.3604983272551 A49.45452644918534,49.45452644918534,0,0,1,1740.2969588128951,609.6401045634026 M1740.2969588128951,609.6401045634026" close="False" data-weight="1.0" stroke-width="6" fill="none" stroke="#ffff33" />
<path d="M1696.6098954365973,565.953041187105 C1688.7816612806716,558.1248070311794,1673.1251929688208,542.4683387193281,1665.2969588128951,534.6401045634026" close="False" data-weight="0.0" stroke-width="6" fill="none" stroke="#ffff33" />
<path d="M1621.6098954365973,490.953041187105 C1613.7816612806716,483.12480703117944,1598.1251929688208,467.46833871932813,1590.2969588128951,459.6401045634026" close="False" data-weight="0.0" stroke-width="6" fill="none" stroke="#ffff33" />
<path d="M1546.6098954365973,415.953041187105 C1538.7816612806716,408.12480703117944,1523.1251929688208,392.46833871932813,1515.2969588128951,384.6401045634026" close="False" data-weight="0.0" stroke-width="6" fill="none" stroke="#ffff33" />
<path d="M2432.125,1100.2665898254845 L2432.125,1130.9834101745155" close="False" data-weight="1.75" stroke-width="6" fill="none" stroke="#ffff33" />
<path d="M2432.125,1025.2665898254845 L2432.125,1055.9834101745155" close="False" data-weight="1.75" stroke-width="6" fill="none" stroke="#ffff33" />
<path d="M2432.125,950.2665898254845 L2432.125,980.9834101745155" close="False" data-weight="1.75" stroke-width="6" fill="none" stroke="#ffff33" />
<path d="M2432.125,875.2665898254845 L2432.125,905.9834101745155" close="False" data-weight="1.75" stroke-width="6" fill="none" stroke="#ffff33" />
<path d="M2432.125,800.2665898254845 L2432.125,830.9834101745155" close="False" data-weight="1.75" stroke-width="6" fill="none" stroke="#ffff33" />
<path d="M2432.125,725.2665898254845 L2432.125,755.9834101745155" close="False" data-weight="1.75" stroke-width="6" fill="none" stroke="#ffff33" />
<path d="M2432.125,650.2665898254845 L2432.125,680.9834101745155" close="False" data-weight="1.75" stroke-width="6" fill="none" stroke="#ffff33" />
<path d="M2371.6098954365675,1215.2969588129247 L2415.296958812925,1171.6098954365677" close="False" data-weight="2.060660171779821" stroke-width="6" fill="none" stroke="#ffff33" />
<path d="M2375.2665898254845,624.125 L2405.9834101745155,624.125" close="False" data-weight="1.75" stroke-width="6" fill="none" stroke="#ffff33" />
<path d="M2296.6098954365675,1290.2969588129247 L2340.296958812925,1246.6098954365677" close="False" data-weight="2.060660171779821" stroke-width="6" fill="none" stroke="#ffff33" />
<path d="M2300.2665898254845,624.125 L2330.9834101745155,624.125" close="False" data-weight="1.75" stroke-width="6" fill="none" stroke="#ffff33" />
<path d="M2225.2665898254845,624.125 L2255.9834101745155,624.125" close="False" data-weight="1.75" stroke-width="6" fill="none" stroke="#ffff33" />
<path d="M2150.2665898254845,624.125 L2180.9834101745155,624.125" close="False" data-weight="1.75" stroke-width="6" fill="none" stroke="#ffff33" />
<path d="M2075.2665898254845,624.125 L2105.9834101745155,624.125" close="False" data-weight="1.75" stroke-width="6" fill="none" stroke="#ffff33" />
<path d="M2000.2665898254845,624.125 L2030.9834101745155,624.125" close="False" data-weight="1.75" stroke-width="6" fill="none" stroke="#ffff33" />
<path d="M1925.2665898254845,624.125 L1955.9834101745155,624.125" close="False" data-weight="1.75" stroke-width="6" fill="none" stroke="#ffff33" />
<path d="M1850.2665898254845,624.125 L1880.9834101745155,624.125" close="False" data-weight="1.75" stroke-width="6" fill="none" stroke="#ffff33" />
<path d="M1775.2665898254845,624.125 L1805.9834101745155,624.125" close="False" data-weight="1.75" stroke-width="6" fill="none" stroke="#ffff33" />
<path d="M1696.6098954365973,565.953041187105 L1740.2969588128951,609.6401045634026" close="False" data-weight="2.060660171779821" stroke-width="6" fill="none" stroke="#ffff33" />
<path d="M1621.6098954365973,490.953041187105 L1665.2969588128951,534.6401045634026" close="False" data-weight="2.060660171779821" stroke-width="6" fill="none" stroke="#ffff33" />
<path d="M1546.6098954365973,415.953041187105 L1590.2969588128951,459.6401045634026" close="False" data-weight="2.060660171779821" stroke-width="6" fill="none" stroke="#ffff33" />
<path d="M1471.6098954365973,340.953041187105 L1515.2969588128951,384.6401045634026" close="False" data-weight="2.060660171779821" stroke-width="6" fill="none" stroke="#ffff33" />
<path d="M2274.125,1505.9834101745155 A49.45452644918532,49.45452644918532,0,0,1,2270.360498327255,1524.9088381020804 M2270.360498327255,1524.9088381020804 A49.45452644918831,49.45452644918831,0,0,1,2259.6401045634025,1540.9530411871049 M2259.6401045634025,1540.9530411871049" close="False" data-weight="1.0" stroke-width="6" fill="none" stroke="#984ea3" />
<path d="M2274.125,1430.9834101745155 C2274.125,1442.0542050872577,2274.125,1464.1957949127423,2274.125,1475.2665898254845" close="False" data-weight="0.0" stroke-width="6" fill="none" stroke="#984ea3" />
<path d="M2274.125,1355.9834101745155 C2274.125,1367.0542050872577,2274.125,1389.1957949127423,2274.125,1400.2665898254845" close="False" data-weight="0.0" stroke-width="6" fill="none" stroke="#984ea3" />
<path d="M2215.953041187105,1584.6401045634027 C2208.1248070311794,1592.4683387193284,2192.468338719328,1608.1248070311792,2184.6401045634025,1615.9530411871049" close="False" data-weight="0.0" stroke-width="6" fill="none" stroke="#984ea3" />
<path d="M2274.125,1475.2665898254845 L2274.125,1505.9834101745155" close="False" data-weight="1.75" stroke-width="6" fill="none" stroke="#984ea3" />
<path d="M2274.125,1400.2665898254845 L2274.125,1430.9834101745155" close="False" data-weight="1.75" stroke-width="6" fill="none" stroke="#984ea3" />
<path d="M2274.125,1325.2665898254845 L2274.125,1355.9834101745155" close="False" data-weight="1.75" stroke-width="6" fill="none" stroke="#984ea3" />
<path d="M2215.953041187105,1584.6401045634027 L2259.6401045634025,1540.9530411871049" close="False" data-weight="2.060660171779821" stroke-width="6" fill="none" stroke="#984ea3" />
<path d="M2140.953041187105,1659.6401045634027 L2184.6401045634025,1615.9530411871049" close="False" data-weight="2.060660171779821" stroke-width="6" fill="none" stroke="#984ea3" />
<path d="M2424.125,1130.9834101745155 A49.45452644918532,49.45452644918532,0,0,1,2420.360498327255,1149.9088381020804 M2420.360498327255,1149.9088381020804 A49.45452644918831,49.45452644918831,0,0,1,2409.6401045634025,1165.9530411871049 M2409.6401045634025,1165.9530411871049" close="False" data-weight="1.0" stroke-width="6" fill="none" stroke="#ff7f00" />
<path d="M2424.125,1055.9834101745155 C2424.125,1067.0542050872577,2424.125,1089.1957949127423,2424.125,1100.2665898254845" close="False" data-weight="0.0" stroke-width="6" fill="none" stroke="#ff7f00" />
<path d="M2424.125,980.9834101745155 C2424.125,992.0542050872577,2424.125,1014.1957949127423,2424.125,1025.2665898254845" close="False" data-weight="0.0" stroke-width="6" fill="none" stroke="#ff7f00" />
<path d="M2424.125,905.9834101745155 C2424.125,917.0542050872577,2424.125,939.1957949127423,2424.125,950.2665898254845" close="False" data-weight="0.0" stroke-width="6" fill="none" stroke="#ff7f00" />
<path d="M2424.125,830.9834101745155 C2424.125,842.0542050872577,2424.125,864.1957949127423,2424.125,875.2665898254845" close="False" data-weight="0.0" stroke-width="6" fill="none" stroke="#ff7f00" />
<path d="M2424.125,755.9834101745155 C2424.125,767.0542050872577,2424.125,789.1957949127423,2424.125,800.2665898254845" close="False" data-weight="0.0" stroke-width="6" fill="none" stroke="#ff7f00" />
<path d="M2424.125,680.9834101745155 C2424.125,692.0542050872577,2424.125,714.1957949127423,2424.125,725.2665898254845" close="False" data-weight="0.0" stroke-width="6" fill="none" stroke="#ff7f00" />
<path d="M2365.953041187105,1209.6401045634027 C2358.124807031172,1217.4683387193359,2342.468338719306,1233.1248070312017,2334.640104563373,1240.9530411871347" close="False" data-weight="0.0" stroke-width="6" fill="none" stroke="#ff7f00" />
<path d="M2369.0349025766973,687.2150974233027 A54.31980515340254,54.31980515340254,0,0,1,2351.4122894815036,698.9901510378279 M2351.4122894815036,698.9901510378279 A54.319805153390575,54.319805153390575,0,0,1,2330.625,703.125 M2330.625,703.125" close="False" data-weight="1.0" stroke-width="6" fill="none" stroke="#ff7f00" />
<path d="M2375.2665898254845,632.125 C2364.1957949127423,632.125,2342.0542050872577,632.125,2330.9834101745155,632.125" close="False" data-weight="0.0" stroke-width="6" fill="none" stroke="#ff7f00" />
<path d="M2282.125,1505.9834101745155 A57.454526449181685,57.454526449181685,0,0,1,2277.751534587345,1527.970305561001 M2277.751534587345,1527.970305561001 A57.45452644919593,57.45452644919593,0,0,1,2265.296958812895,1546.6098954365973 M2265.296958812895,1546.6098954365973" close="False" data-weight="1.0" stroke-width="6" fill="none" stroke="#ff7f00" />
<path d="M2282.125,1430.9834101745155 C2282.125,1442.0542050872577,2282.125,1464.1957949127423,2282.125,1475.2665898254845" close="False" data-weight="0.0" stroke-width="6" fill="none" stroke="#ff7f00" />
<path d="M2282.125,1355.9834101745155 C2282.125,1367.0542050872577,2282.125,1389.1957949127423,2282.125,1400.2665898254845" close="False" data-weight="0.0" stroke-width="6" fill="none" stroke="#ff7f00" />
<path d="M2278.125,1205.625 C2278.125,1216.875,2278.125,1239.375,2278.125,1250.625" close="False" data-weight="0.0" stroke-width="6" fill="none" stroke="#ff7f00" />
<path d="M2278.125,1130.625 C2278.125,1141.875,2278.125,1164.375,2278.125,1175.625" close="False" data-weight="0.0" stroke-width="6" fill="none" stroke="#ff7f00" />
<path d="M2294.0349025766973,1062.2150974233027 A54.319805153391044,54.319805153391044,0,0,0,2282.259848962172,1079.8377105184957 M2282.259848962172,1079.8377105184957 A54.3198051533941,54.3198051533941,0,0,0,2278.125,1100.625 M2278.125,1100.625" close="False" data-weight="1.0" stroke-width="6" fill="none" stroke="#ff7f00" />
<path d="M2300.625,703.125 C2289.375,703.125,2266.875,703.125,2255.625,703.125" close="False" data-weight="0.0" stroke-width="6" fill="none" stroke="#ff7f00" />
<path d="M2300.2665898254845,632.125 C2289.1957949127423,632.125,2267.0542050872577,632.125,2255.9834101745155,632.125" close="False" data-weight="0.0" stroke-width="6" fill="none" stroke="#ff7f00" />
<path d="M2221.6098954365975,1590.2969588128951 C2213.781661280672,1598.1251929688208,2198.1251929688206,1613.7816612806716,2190.296958812895,1621.6098954365973" close="False" data-weight="0.0" stroke-width="6" fill="none" stroke="#ff7f00" />
<path d="M2203.125,755.625 C2203.125,766.875,2203.125,789.375,2203.125,800.625" close="False" data-weight="0.0" stroke-width="6" fill="none" stroke="#ff7f00" />
<path d="M2225.2665898254845,632.125 C2214.1957949127423,632.125,2192.0542050872577,632.125,2180.9834101745155,632.125" close="False" data-weight="0.0" stroke-width="6" fill="none" stroke="#ff7f00" />
<path d="M2124.125,1730.9834101745155 C2124.125,1742.0542050872577,2124.125,1764.1957949127423,2124.125,1775.2665898254845" close="False" data-weight="0.0" stroke-width="6" fill="none" stroke="#ff7f00" />
<path d="M2150.2665898254845,632.125 C2139.1957949127423,632.125,2117.0542050872577,632.125,2105.9834101745155,632.125" close="False" data-weight="0.0" stroke-width="6" fill="none" stroke="#ff7f00" />
<path d="M2075.2665898254845,1824.125 C2064.1957949127423,1824.125,2042.0542050872577,1824.125,2030.9834101745155,1824.125" close="False" data-weight="0.0" stroke-width="6" fill="none" stroke="#ff7f00" />
<path d="M2069.0349025766973,944.0349025766973 A54.31980515340238,54.31980515340238,0,0,0,2051.4122894815036,932.2598489621721 M2051.4122894815036,932.2598489621721 A54.319805153390575,54.319805153390575,0,0,0,2030.625,928.125 M2030.625,928.125" close="False" data-weight="1.0" stroke-width="6" fill="none" stroke="#ff7f00" />
<path d="M2075.2665898254845,632.125 C2064.1957949127423,632.125,2042.0542050872577,632.125,2030.9834101745155,632.125" close="False" data-weight="0.0" stroke-width="6" fill="none" stroke="#ff7f00" />
<path d="M2000.2665898254845,1824.125 C1989.1957949127423,1824.125,1967.0542050872577,1824.125,1955.9834101745155,1824.125" close="False" data-weight="0.0" stroke-width="6" fill="none" stroke="#ff7f00" />
<path d="M1978.125,830.625 C1978.125,841.875,1978.125,864.375,1978.125,875.625" close="False" data-weight="0.0" stroke-width="6" fill="none" stroke="#ff7f00" />
<path d="M2000.2665898254845,632.125 C1989.1957949127423,632.125,1967.0542050872577,632.125,1955.9834101745155,632.125" close="False" data-weight="0.0" stroke-width="6" fill="none" stroke="#ff7f00" />
<path d="M1925.2665898254845,1824.125 C1914.1957949127423,1824.125,1892.0542050872577,1824.125,1880.9834101745155,1824.125" close="False" data-weight="0.0" stroke-width="6" fill="none" stroke="#ff7f00" />
<path d="M1919.0349025766973,987.2150974233027 A54.31980515339554,54.31980515339554,0,0,0,1907.259848962172,1004.837710518496 M1907.259848962172,1004.837710518496 A54.319805153393645,54.319805153393645,0,0,0,1903.125,1025.625 M1903.125,1025.625" close="False" data-weight="1.0" stroke-width="6" fill="none" stroke="#ff7f00" />
<path d="M1925.2665898254845,632.125 C1914.1957949127423,632.125,1892.0542050872577,632.125,1880.9834101745155,632.125" close="False" data-weight="0.0" stroke-width="6" fill="none" stroke="#ff7f00" />
<path d="M1850.2665898254845,1824.125 C1839.1957949127423,1824.125,1817.0542050872577,1824.125,1805.9834101745155,1824.125" close="False" data-weight="0.0" stroke-width="6" fill="none" stroke="#ff7f00" />
<path d="M1844.0349025766973,1137.2150974233027 C1836.0799512883486,1145.1700487116514,1820.1700487116514,1161.0799512883486,1812.2150974233027,1169.0349025766973" close="False" data-weight="0.0" stroke-width="6" fill="none" stroke="#ff7f00" />
<path d="M1850.2665898254845,632.125 C1839.1957949127423,632.125,1817.0542050872577,632.125,1805.9834101745155,632.125" close="False" data-weight="0.0" stroke-width="6" fill="none" stroke="#ff7f00" />
<path d="M1775.2665898254845,1824.125 C1764.1957949127423,1824.125,1742.0542050872577,1824.125,1730.9834101745155,1824.125" close="False" data-weight="0.0" stroke-width="6" fill="none" stroke="#ff7f00" />
<path d="M1769.0349025766973,1212.2150974233027 A54.3198051533949,54.3198051533949,0,0,1,1751.412289481504,1223.9901510378277 M1751.412289481504,1223.9901510378277 A54.3198051533941,54.3198051533941,0,0,1,1730.625,1228.125 M1730.625,1228.125" close="False" data-weight="1.0" stroke-width="6" fill="none" stroke="#ff7f00" />
<path d="M1775.2665898254845,632.125 A57.45452644918703,57.45452644918703,0,0,1,1753.2796944389988,627.7515345873453 M1753.2796944389988,627.7515345873453 A57.454526449186446,57.454526449186446,0,0,1,1734.6401045634027,615.296958812895 M1734.6401045634027,615.296958812895" close="False" data-weight="1.0" stroke-width="6" fill="none" stroke="#ff7f00" />
<path d="M1700.2665898254845,1824.125 C1689.1957949127423,1824.125,1667.0542050872577,1824.125,1655.9834101745155,1824.125" close="False" data-weight="0.0" stroke-width="6" fill="none" stroke="#ff7f00" />
<path d="M1700.625,1228.125 C1689.375,1228.125,1666.875,1228.125,1655.625,1228.125" close="False" data-weight="0.0" stroke-width="6" fill="none" stroke="#ff7f00" />
<path d="M1690.9530411871049,571.6098954365974 C1683.1248070311792,563.7816612806719,1667.4683387193284,548.1251929688206,1659.6401045634027,540.296958812895" close="False" data-weight="0.0" stroke-width="6" fill="none" stroke="#ff7f00" />
<path d="M1625.2665898254845,1824.125 C1614.1957949127423,1824.125,1592.0542050872577,1824.125,1580.9834101745155,1824.125" close="False" data-weight="0.0" stroke-width="6" fill="none" stroke="#ff7f00" />
<path d="M1615.9530411871049,496.6098954365974 C1608.1248070311792,488.78166128067187,1592.4683387193284,473.12519296882056,1584.6401045634027,465.296958812895" close="False" data-weight="0.0" stroke-width="6" fill="none" stroke="#ff7f00" />
<path d="M1550.2665898254845,1824.125 C1539.1957949127423,1824.125,1517.0542050872577,1824.125,1505.9834101745155,1824.125" close="False" data-weight="0.0" stroke-width="6" fill="none" stroke="#ff7f00" />
<path d="M1540.9530411871049,421.6098954365974 C1533.1248070311792,413.78166128067187,1517.4683387193284,398.12519296882056,1509.6401045634027,390.296958812895" close="False" data-weight="0.0" stroke-width="6" fill="none" stroke="#ff7f00" />
<path d="M1475.2665898254845,1824.125 C1464.1957949127423,1824.125,1442.0542050872577,1824.125,1430.9834101745155,1824.125" close="False" data-weight="0.0" stroke-width="6" fill="none" stroke="#ff7f00" />
<path d="M1465.9530411871199,1246.6098954366123 C1458.1248070311942,1238.7816612806866,1442.4683387193431,1223.1251929688356,1434.6401045634175,1215.29695881291" close="False" data-weight="0.0" stroke-width="6" fill="none" stroke="#ff7f00" />
<path d="M1390.9530411871049,1171.6098954365973 A49.45452644918799,49.45452644918799,0,0,0,1374.9088381020804,1160.889501672745 M1374.9088381020804,1160.889501672745 A49.45452644918555,49.45452644918555,0,0,0,1355.9834101745155,1157.125 M1355.9834101745155,1157.125" close="False" data-weight="1.0" stroke-width="6" fill="none" stroke="#ff7f00" />
<path d="M1299.125,1100.2665898254845 A49.45452644918828,49.45452644918828,0,0,0,1295.360498327255,1081.3411618979196 M1295.360498327255,1081.3411618979196 A49.454526449185096,49.454526449185096,0,0,0,1284.6401045634027,1065.2969588128951 M1284.6401045634027,1065.2969588128951" close="False" data-weight="1.0" stroke-width="6" fill="none" stroke="#ff7f00" />
<path d="M1169.0349025766973,1062.2150974233027 C1161.0799512883486,1070.1700487116514,1145.1700487116514,1086.0799512883486,1137.2150974233027,1094.0349025766973" close="False" data-weight="0.0" stroke-width="6" fill="none" stroke="#ff7f00" />
<path d="M1175.2665898254845,924.125 C1164.1957949127423,924.125,1142.0542050872577,924.125,1130.9834101745155,924.125" close="False" data-weight="0.0" stroke-width="6" fill="none" stroke="#ff7f00" />
<path d="M1078.125,1580.625 C1078.125,1591.875,1078.125,1614.375,1078.125,1625.625" close="False" data-weight="0.0" stroke-width="6" fill="none" stroke="#ff7f00" />
<path d="M1078.125,1505.625 C1078.125,1516.875,1078.125,1539.375,1078.125,1550.625" close="False" data-weight="0.0" stroke-width="6" fill="none" stroke="#ff7f00" />
<path d="M1078.125,1430.625 C1078.125,1441.875,1078.125,1464.375,1078.125,1475.625" close="False" data-weight="0.0" stroke-width="6" fill="none" stroke="#ff7f00" />
<path d="M1078.125,1355.625 C1078.125,1366.875,1078.125,1389.375,1078.125,1400.625" close="False" data-weight="0.0" stroke-width="6" fill="none" stroke="#ff7f00" />
<path d="M1078.125,1280.625 C1078.125,1291.875,1078.125,1314.375,1078.125,1325.625" close="False" data-weight="0.0" stroke-width="6" fill="none" stroke="#ff7f00" />
<path d="M1078.125,1205.625 C1078.125,1216.875,1078.125,1239.375,1078.125,1250.625" close="False" data-weight="0.0" stroke-width="6" fill="none" stroke="#ff7f00" />
<path d="M1094.0349025766973,1137.2150974233027 A54.3198051533949,54.3198051533949,0,0,0,1082.2598489621723,1154.837710518496 M1082.2598489621723,1154.837710518496 A54.3198051533941,54.3198051533941,0,0,0,1078.125,1175.625 M1078.125,1175.625" close="False" data-weight="1.0" stroke-width="6" fill="none" stroke="#ff7f00" />
<path d="M1100.2665898254845,924.125 C1089.1957949127423,924.125,1067.0542050872577,924.125,1055.9834101745155,924.125" close="False" data-weight="0.0" stroke-width="6" fill="none" stroke="#ff7f00" />
<path d="M1025.2665898254845,924.125 C1014.1957949127423,924.125,992.0542050872577,924.125,980.9834101745155,924.125" close="False" data-weight="0.0" stroke-width="6" fill="none" stroke="#ff7f00" />
<path d="M950.2665898254845,924.125 A49.45452644918669,49.45452644918669,0,0,1,931.3411618979196,920.360498327255 M931.3411618979196,920.360498327255 A49.45452644918702,49.45452644918702,0,0,1,915.296958812895,909.6401045634026 M915.296958812895,909.6401045634026" close="False" data-weight="1.0" stroke-width="6" fill="none" stroke="#ff7f00" />
<path d="M871.6098954365974,865.953041187105 C863.7816612806718,858.1248070311793,848.1251929688207,842.4683387193282,840.296958812895,834.6401045634026" close="False" data-weight="0.0" stroke-width="6" fill="none" stroke="#ff7f00" />
<path d="M725.2665898254845,774.125 A57.45452644918623,57.45452644918623,0,0,0,703.2796944389988,778.4984654126548 M703.2796944389988,778.4984654126548 A57.45452644918757,57.45452644918757,0,0,0,684.6401045634026,790.953041187105 M684.6401045634026,790.953041187105" close="False" data-weight="1.0" stroke-width="6" fill="none" stroke="#ff7f00" />
<path d="M640.953041187105,834.6401045634026 C633.1248070311793,842.4683387193282,617.4683387193282,858.1248070311793,609.6401045634026,865.953041187105" close="False" data-weight="0.0" stroke-width="6" fill="none" stroke="#ff7f00" />
<path d="M496.6098954365974,865.953041187105 A57.454526449186766,57.454526449186766,0,0,0,477.97030556100117,853.4984654126547 M477.97030556100117,853.4984654126547 A57.45452644918703,57.45452644918703,0,0,0,455.9834101745155,849.125 M455.9834101745155,849.125" close="False" data-weight="1.0" stroke-width="6" fill="none" stroke="#ff7f00" />
<path d="M421.6098954365974,765.296958812895 A49.45452644918767,49.45452644918767,0,0,0,410.889501672745,781.3411618979196 M410.889501672745,781.3411618979196 A49.454526449186176,49.454526449186176,0,0,0,407.125,800.2665898254845 M407.125,800.2665898254845" close="False" data-weight="1.0" stroke-width="6" fill="none" stroke="#ff7f00" />
<path d="M2424.125,1100.2665898254845 L2424.125,1130.9834101745155" close="False" data-weight="1.75" stroke-width="6" fill="none" stroke="#ff7f00" />
<path d="M2424.125,1025.2665898254845 L2424.125,1055.9834101745155" close="False" data-weight="1.75" stroke-width="6" fill="none" stroke="#ff7f00" />
<path d="M2424.125,950.2665898254845 L2424.125,980.9834101745155" close="False" data-weight="1.75" stroke-width="6" fill="none" stroke="#ff7f00" />
<path d="M2424.125,875.2665898254845 L2424.125,905.9834101745155" close="False" data-weight="1.75" stroke-width="6" fill="none" stroke="#ff7f00" />
<path d="M2424.125,800.2665898254845 L2424.125,830.9834101745155" close="False" data-weight="1.75" stroke-width="6" fill="none" stroke="#ff7f00" />
<path d="M2424.125,725.2665898254845 L2424.125,755.9834101745155" close="False" data-weight="1.75" stroke-width="6" fill="none" stroke="#ff7f00" />
<path d="M2424.125,650.2665898254845 L2424.125,680.9834101745155" close="False" data-weight="1.75" stroke-width="6" fill="none" stroke="#ff7f00" />
<path d="M2365.9530411871347,1209.640104563373 L2409.640104563373,1165.9530411871347" close="False" data-weight="2.060660171779821" stroke-width="6" fill="none" stroke="#ff7f00" />
<path d="M2369.0349025766973,687.2150974233027 L2412.2150974233027,644.0349025766973" close="False" data-weight="2.060660171779821" stroke-width="6" fill="none" stroke="#ff7f00" />
<path d="M2375.2665898254845,632.125 L2405.9834101745155,632.125" close="False" data-weight="1.75" stroke-width="6" fill="none" stroke="#ff7f00" />
<path d="M2282.125,1475.2665898254845 L2282.125,1505.9834101745155" close="False" data-weight="1.75" stroke-width="6" fill="none" stroke="#ff7f00" />
<path d="M2282.125,1400.2665898254845 L2282.125,1430.9834101745155" close="False" data-weight="1.75" stroke-width="6" fill="none" stroke="#ff7f00" />
<path d="M2282.125,1325.2665898254845 L2282.125,1355.9834101745155" close="False" data-weight="1.75" stroke-width="6" fill="none" stroke="#ff7f00" />
<path d="M2290.9530411871347,1284.640104563373 L2334.640104563373,1240.9530411871347" close="False" data-weight="2.060660171779821" stroke-width="6" fill="none" stroke="#ff7f00" />
<path d="M2278.125,1250.625 L2278.125,1280.625" close="False" data-weight="1.75" stroke-width="6" fill="none" stroke="#ff7f00" />
<path d="M2278.125,1175.625 L2278.125,1205.625" close="False" data-weight="1.75" stroke-width="6" fill="none" stroke="#ff7f00" />
<path d="M2278.125,1100.625 L2278.125,1130.625" close="False" data-weight="1.75" stroke-width="6" fill="none" stroke="#ff7f00" />
<path d="M2294.0349025766973,1062.2150974233027 L2337.2150974233027,1019.0349025766973" close="False" data-weight="2.060660171779821" stroke-width="6" fill="none" stroke="#ff7f00" />
<path d="M2300.625,703.125 L2330.625,703.125" close="False" data-weight="1.75" stroke-width="6" fill="none" stroke="#ff7f00" />
<path d="M2300.2665898254845,632.125 L2330.9834101745155,632.125" close="False" data-weight="1.75" stroke-width="6" fill="none" stroke="#ff7f00" />
<path d="M2221.6098954365975,1590.2969588128951 L2265.296958812895,1546.6098954365973" close="False" data-weight="2.060660171779821" stroke-width="6" fill="none" stroke="#ff7f00" />
<path d="M2219.0349025766973,987.2150974233027 L2262.2150974233027,944.0349025766973" close="False" data-weight="2.060660171779821" stroke-width="6" fill="none" stroke="#ff7f00" />
<path d="M2219.0349025766973,869.0349025766973 L2262.2150974233027,912.2150974233027" close="False" data-weight="2.060660171779821" stroke-width="6" fill="none" stroke="#ff7f00" />
<path d="M2203.125,800.625 L2203.125,830.625" close="False" data-weight="1.75" stroke-width="6" fill="none" stroke="#ff7f00" />
<path d="M2203.125,725.625 L2203.125,755.625" close="False" data-weight="1.75" stroke-width="6" fill="none" stroke="#ff7f00" />
<path d="M2225.625,703.125 L2255.625,703.125" close="False" data-weight="1.75" stroke-width="6" fill="none" stroke="#ff7f00" />
<path d="M2225.2665898254845,632.125 L2255.9834101745155,632.125" close="False" data-weight="1.75" stroke-width="6" fill="none" stroke="#ff7f00" />
<path d="M2124.125,1775.2665898254845 L2124.125,1805.9834101745155" close="False" data-weight="1.75" stroke-width="6" fill="none" stroke="#ff7f00" />
<path d="M2124.125,1700.2665898254845 L2124.125,1730.9834101745155" close="False" data-weight="1.75" stroke-width="6" fill="none" stroke="#ff7f00" />
<path d="M2146.6098954365975,1665.2969588128951 L2190.296958812895,1621.6098954365973" close="False" data-weight="2.060660171779821" stroke-width="6" fill="none" stroke="#ff7f00" />
<path d="M2150.625,1003.125 L2180.625,1003.125" close="False" data-weight="1.75" stroke-width="6" fill="none" stroke="#ff7f00" />
<path d="M2150.2665898254845,632.125 L2180.9834101745155,632.125" close="False" data-weight="1.75" stroke-width="6" fill="none" stroke="#ff7f00" />
<path d="M2075.2665898254845,1824.125 L2105.9834101745155,1824.125" close="False" data-weight="1.75" stroke-width="6" fill="none" stroke="#ff7f00" />
<path d="M2069.0349025766973,944.0349025766973 L2112.2150974233027,987.2150974233027" close="False" data-weight="2.060660171779821" stroke-width="6" fill="none" stroke="#ff7f00" />
<path d="M2075.2665898254845,632.125 L2105.9834101745155,632.125" close="False" data-weight="1.75" stroke-width="6" fill="none" stroke="#ff7f00" />
<path d="M2000.2665898254845,1824.125 L2030.9834101745155,1824.125" close="False" data-weight="1.75" stroke-width="6" fill="none" stroke="#ff7f00" />
<path d="M2000.625,928.125 L2030.625,928.125" close="False" data-weight="1.75" stroke-width="6" fill="none" stroke="#ff7f00" />
<path d="M1978.125,875.625 L1978.125,905.625" close="False" data-weight="1.75" stroke-width="6" fill="none" stroke="#ff7f00" />
<path d="M1978.125,800.625 L1978.125,830.625" close="False" data-weight="1.75" stroke-width="6" fill="none" stroke="#ff7f00" />
<path d="M2000.2665898254845,632.125 L2030.9834101745155,632.125" close="False" data-weight="1.75" stroke-width="6" fill="none" stroke="#ff7f00" />
<path d="M1925.2665898254845,1824.125 L1955.9834101745155,1824.125" close="False" data-weight="1.75" stroke-width="6" fill="none" stroke="#ff7f00" />
<path d="M1903.125,1025.625 L1903.125,1055.625" close="False" data-weight="1.75" stroke-width="6" fill="none" stroke="#ff7f00" />
<path d="M1919.0349025766973,987.2150974233027 L1962.2150974233027,944.0349025766973" close="False" data-weight="2.060660171779821" stroke-width="6" fill="none" stroke="#ff7f00" />
<path d="M1925.625,778.125 L1955.625,778.125" close="False" data-weight="1.75" stroke-width="6" fill="none" stroke="#ff7f00" />
<path d="M1925.2665898254845,632.125 L1955.9834101745155,632.125" close="False" data-weight="1.75" stroke-width="6" fill="none" stroke="#ff7f00" />
<path d="M1850.2665898254845,1824.125 L1880.9834101745155,1824.125" close="False" data-weight="1.75" stroke-width="6" fill="none" stroke="#ff7f00" />
<path d="M1844.0349025766973,1137.2150974233027 L1887.2150974233027,1094.0349025766973" close="False" data-weight="2.060660171779821" stroke-width="6" fill="none" stroke="#ff7f00" />
<path d="M1844.0349025766973,719.0349025766973 L1887.2150974233027,762.2150974233027" close="False" data-weight="2.060660171779821" stroke-width="6" fill="none" stroke="#ff7f00" />
<path d="M1850.2665898254845,632.125 L1880.9834101745155,632.125" close="False" data-weight="1.75" stroke-width="6" fill="none" stroke="#ff7f00" />
<path d="M1775.2665898254845,1824.125 L1805.9834101745155,1824.125" close="False" data-weight="1.75" stroke-width="6" fill="none" stroke="#ff7f00" />
<path d="M1769.0349025766973,1212.2150974233027 L1812.2150974233027,1169.0349025766973" close="False" data-weight="2.060660171779821" stroke-width="6" fill="none" stroke="#ff7f00" />
<path d="M1775.625,703.125 L1805.625,703.125" close="False" data-weight="1.75" stroke-width="6" fill="none" stroke="#ff7f00" />
<path d="M1775.2665898254845,632.125 L1805.9834101745155,632.125" close="False" data-weight="1.75" stroke-width="6" fill="none" stroke="#ff7f00" />
<path d="M1700.2665898254845,1824.125 L1730.9834101745155,1824.125" close="False" data-weight="1.75" stroke-width="6" fill="none" stroke="#ff7f00" />
<path d="M1700.625,1228.125 L1730.625,1228.125" close="False" data-weight="1.75" stroke-width="6" fill="none" stroke="#ff7f00" />
<path d="M1690.9530411871049,571.6098954365974 L1734.6401045634027,615.296958812895" close="False" data-weight="2.060660171779821" stroke-width="6" fill="none" stroke="#ff7f00" />
<path d="M1625.2665898254845,1824.125 L1655.9834101745155,1824.125" close="False" data-weight="1.75" stroke-width="6" fill="none" stroke="#ff7f00" />
<path d="M1625.625,1228.125 L1655.625,1228.125" close="False" data-weight="1.75" stroke-width="6" fill="none" stroke="#ff7f00" />
<path d="M1615.9530411871049,496.6098954365974 L1659.6401045634027,540.296958812895" close="False" data-weight="2.060660171779821" stroke-width="6" fill="none" stroke="#ff7f00" />
<path d="M1550.2665898254845,1824.125 L1580.9834101745155,1824.125" close="False" data-weight="1.75" stroke-width="6" fill="none" stroke="#ff7f00" />
<path d="M1544.0349025766973,1287.2150974233027 L1587.2150974233027,1244.0349025766973" close="False" data-weight="2.060660171779821" stroke-width="6" fill="none" stroke="#ff7f00" />
<path d="M1540.9530411871049,421.6098954365974 L1584.6401045634027,465.296958812895" close="False" data-weight="2.060660171779821" stroke-width="6" fill="none" stroke="#ff7f00" />
<path d="M1475.2665898254845,1824.125 L1505.9834101745155,1824.125" close="False" data-weight="1.75" stroke-width="6" fill="none" stroke="#ff7f00" />
<path d="M1465.9530411871049,1246.6098954365973 L1509.6401045634175,1290.29695881291" close="False" data-weight="2.060660171779821" stroke-width="6" fill="none" stroke="#ff7f00" />
<path d="M1465.9530411871049,346.6098954365974 L1509.6401045634027,390.296958812895" close="False" data-weight="2.060660171779821" stroke-width="6" fill="none" stroke="#ff7f00" />
<path d="M1400.2665898254845,1824.125 L1430.9834101745155,1824.125" close="False" data-weight="1.75" stroke-width="6" fill="none" stroke="#ff7f00" />
<path d="M1390.9530411871049,1171.6098954365973 L1434.6401045634175,1215.29695881291" close="False" data-weight="2.060660171779821" stroke-width="6" fill="none" stroke="#ff7f00" />
<path d="M1325.2665898254845,1157.125 L1355.9834101745155,1157.125" close="False" data-weight="1.75" stroke-width="6" fill="none" stroke="#ff7f00" />
<path d="M1299.125,1100.2665898254845 L1299.125,1130.9834101745155" close="False" data-weight="1.75" stroke-width="6" fill="none" stroke="#ff7f00" />
<path d="M1240.9530411871049,1021.6098954365974 L1284.6401045634027,1065.2969588128951" close="False" data-weight="2.060660171779821" stroke-width="6" fill="none" stroke="#ff7f00" />
<path d="M1228.125,950.625 L1228.125,980.625" close="False" data-weight="1.75" stroke-width="6" fill="none" stroke="#ff7f00" />
<path d="M1169.0349025766973,1062.2150974233027 L1212.2150974233027,1019.0349025766973" close="False" data-weight="2.060660171779821" stroke-width="6" fill="none" stroke="#ff7f00" />
<path d="M1175.2665898254845,924.125 L1205.9834101745155,924.125" close="False" data-weight="1.75" stroke-width="6" fill="none" stroke="#ff7f00" />
<path d="M1078.125,1625.625 L1078.125,1655.625" close="False" data-weight="1.75" stroke-width="6" fill="none" stroke="#ff7f00" />
<path d="M1078.125,1550.625 L1078.125,1580.625" close="False" data-weight="1.75" stroke-width="6" fill="none" stroke="#ff7f00" />
<path d="M1078.125,1475.625 L1078.125,1505.625" close="False" data-weight="1.75" stroke-width="6" fill="none" stroke="#ff7f00" />
<path d="M1078.125,1400.625 L1078.125,1430.625" close="False" data-weight="1.75" stroke-width="6" fill="none" stroke="#ff7f00" />
<path d="M1078.125,1325.625 L1078.125,1355.625" close="False" data-weight="1.75" stroke-width="6" fill="none" stroke="#ff7f00" />
<path d="M1078.125,1250.625 L1078.125,1280.625" close="False" data-weight="1.75" stroke-width="6" fill="none" stroke="#ff7f00" />
<path d="M1078.125,1175.625 L1078.125,1205.625" close="False" data-weight="1.75" stroke-width="6" fill="none" stroke="#ff7f00" />
<path d="M1094.0349025766973,1137.2150974233027 L1137.2150974233027,1094.0349025766973" close="False" data-weight="2.060660171779821" stroke-width="6" fill="none" stroke="#ff7f00" />
<path d="M1100.2665898254845,924.125 L1130.9834101745155,924.125" close="False" data-weight="1.75" stroke-width="6" fill="none" stroke="#ff7f00" />
<path d="M1025.2665898254845,924.125 L1055.9834101745155,924.125" close="False" data-weight="1.75" stroke-width="6" fill="none" stroke="#ff7f00" />
<path d="M950.2665898254845,924.125 L980.9834101745155,924.125" close="False" data-weight="1.75" stroke-width="6" fill="none" stroke="#ff7f00" />
<path d="M871.6098954365974,865.953041187105 L915.296958812895,909.6401045634026" close="False" data-weight="2.060660171779821" stroke-width="6" fill="none" stroke="#ff7f00" />
<path d="M796.6098954365974,790.953041187105 L840.296958812895,834.6401045634026" close="False" data-weight="2.060660171779821" stroke-width="6" fill="none" stroke="#ff7f00" />
<path d="M725.2665898254845,774.125 L755.9834101745155,774.125" close="False" data-weight="1.75" stroke-width="6" fill="none" stroke="#ff7f00" />
<path d="M640.953041187105,834.6401045634026 L684.6401045634026,790.953041187105" close="False" data-weight="2.060660171779821" stroke-width="6" fill="none" stroke="#ff7f00" />
<path d="M565.953041187105,909.6401045634026 L609.6401045634026,865.953041187105" close="False" data-weight="2.060660171779821" stroke-width="6" fill="none" stroke="#ff7f00" />
<path d="M496.6098954365974,865.953041187105 L540.296958812895,909.6401045634026" close="False" data-weight="2.060660171779821" stroke-width="6" fill="none" stroke="#ff7f00" />
<path d="M425.2665898254845,849.125 L455.9834101745155,849.125" close="False" data-weight="1.75" stroke-width="6" fill="none" stroke="#ff7f00" />
<path d="M407.125,800.2665898254845 L407.125,830.9834101745155" close="False" data-weight="1.75" stroke-width="6" fill="none" stroke="#ff7f00" />
<path d="M421.6098954365974,765.296958812895 L465.296958812895,721.6098954365974" close="False" data-weight="2.060660171779821" stroke-width="6" fill="none" stroke="#ff7f00" />
<path d="M1475.2665898254845,2432.125 A57.454526449181685,57.454526449181685,0,0,1,1453.279694438999,2427.751534587345 M1453.279694438999,2427.751534587345 A57.45452644919593,57.45452644919593,0,0,1,1434.6401045634027,2415.296958812895 M1434.6401045634027,2415.296958812895" close="False" data-weight="1.0" stroke-width="6" fill="none" stroke="#4daf4a" />
<path d="M1471.6098954365825,1240.95304118709 C1463.7816612806607,1233.1248070311683,1448.125192968817,1217.4683387193245,1440.2969588128951,1209.6401045634027" close="False" data-weight="0.0" stroke-width="6" fill="none" stroke="#4daf4a" />
<path d="M1390.9530411871049,2371.6098954365975 C1383.1248070311867,2363.7816612806796,1367.4683387193504,2348.1251929688433,1359.6401045634323,2340.296958812925" close="False" data-weight="0.0" stroke-width="6" fill="none" stroke="#4daf4a" />
<path d="M1396.6098954365973,1165.9530411871049 A57.45452644918516,57.45452644918516,0,0,0,1377.9703055610012,1153.4984654126547 M1377.9703055610012,1153.4984654126547 A57.45452644918828,57.45452644918828,0,0,0,1355.9834101745155,1149.125 M1355.9834101745155,1149.125" close="False" data-weight="1.0" stroke-width="6" fill="none" stroke="#4daf4a" />
<path d="M1307.125,1100.2665898254845 A57.45452644918714,57.45452644918714,0,0,0,1302.7515345873453,1078.2796944389988 M1302.7515345873453,1078.2796944389988 A57.454526449186446,57.454526449186446,0,0,0,1290.2969588128951,1059.6401045634027 M1290.2969588128951,1059.6401045634027" close="False" data-weight="1.0" stroke-width="6" fill="none" stroke="#4daf4a" />
<path d="M1250.625,2278.125 C1239.375,2278.125,1216.875,2278.125,1205.625,2278.125" close="False" data-weight="0.0" stroke-width="6" fill="none" stroke="#4daf4a" />
<path d="M1175.625,2278.125 A54.31980515339728,54.31980515339728,0,0,1,1154.837710518496,2273.9901510378277 M1154.837710518496,2273.9901510378277 A54.319805153387826,54.319805153387826,0,0,1,1137.2150974233027,2262.2150974233027 M1137.2150974233027,2262.2150974233027" close="False" data-weight="1.0" stroke-width="6" fill="none" stroke="#4daf4a" />
<path d="M1173.6521266074556,1068.9115818915293 C1166.216990428474,1076.3467180705109,1151.3467180705109,1091.216990428474,1143.9115818915293,1098.6521266074556" close="False" data-weight="0.0" stroke-width="6" fill="none" stroke="#4daf4a" />
<path d="M1078.125,2105.625 C1078.125,2116.875,1078.125,2139.375,1078.125,2150.625" close="False" data-weight="0.0" stroke-width="6" fill="none" stroke="#4daf4a" />
<path d="M1078.125,2075.625 A54.31980515339853,54.31980515339853,0,0,0,1073.990151037828,2054.837710518496 M1073.990151037828,2054.837710518496 A54.31980515339072,54.31980515339072,0,0,0,1062.2150974233027,2037.2150974233027 M1062.2150974233027,2037.2150974233027" close="False" data-weight="1.0" stroke-width="6" fill="none" stroke="#4daf4a" />
<path d="M1078.125,1880.625 A54.31980515339569,54.31980515339569,0,0,1,1073.9901510378277,1901.412289481504 M1073.9901510378277,1901.412289481504 A54.319805153393375,54.319805153393375,0,0,1,1062.2150974233027,1919.0349025766973 M1062.2150974233027,1919.0349025766973" close="False" data-weight="1.0" stroke-width="6" fill="none" stroke="#4daf4a" />
<path d="M1078.125,1805.625 C1078.125,1816.875,1078.125,1839.375,1078.125,1850.625" close="False" data-weight="0.0" stroke-width="6" fill="none" stroke="#4daf4a" />
<path d="M1078.125,1730.625 C1078.125,1741.875,1078.125,1764.375,1078.125,1775.625" close="False" data-weight="0.0" stroke-width="6" fill="none" stroke="#4daf4a" />
<path d="M1086.125,1582.0952591551868 C1086.125,1592.6101295775934,1086.125,1613.6398704224066,1086.125,1624.1547408448132" close="False" data-weight="0.0" stroke-width="6" fill="none" stroke="#4daf4a" />
<path d="M1086.125,1507.0952591551868 C1086.125,1517.6101295775934,1086.125,1538.6398704224066,1086.125,1549.1547408448132" close="False" data-weight="0.0" stroke-width="6" fill="none" stroke="#4daf4a" />
<path d="M1086.125,1432.0952591551868 C1086.125,1442.6101295775934,1086.125,1463.6398704224066,1086.125,1474.1547408448132" close="False" data-weight="0.0" stroke-width="6" fill="none" stroke="#4daf4a" />
<path d="M1086.125,1357.0952591551868 C1086.125,1367.6101295775934,1086.125,1388.6398704224066,1086.125,1399.1547408448132" close="False" data-weight="0.0" stroke-width="6" fill="none" stroke="#4daf4a" />
<path d="M1086.125,1282.0952591551868 C1086.125,1292.6101295775934,1086.125,1313.6398704224066,1086.125,1324.1547408448132" close="False" data-weight="0.0" stroke-width="6" fill="none" stroke="#4daf4a" />
<path d="M1086.125,1207.0952591551868 C1086.125,1217.6101295775934,1086.125,1238.6398704224066,1086.125,1249.1547408448132" close="False" data-weight="0.0" stroke-width="6" fill="none" stroke="#4daf4a" />
<path d="M1098.6521266074556,1143.9115818915293 A42.77028556073972,42.77028556073972,0,0,0,1089.3806941315092,1157.7872611631944 M1089.3806941315092,1157.7872611631944 A42.77028556073924,42.77028556073924,0,0,0,1086.125,1174.1547408448132 M1086.125,1174.1547408448132" close="False" data-weight="1.0" stroke-width="6" fill="none" stroke="#4daf4a" />
<path d="M1021.6098954365974,1740.2969588128951 C1013.7816612806719,1748.1251929688208,998.1251929688206,1763.7816612806716,990.296958812895,1771.6098954365973" close="False" data-weight="0.0" stroke-width="6" fill="none" stroke="#4daf4a" />
<path d="M946.6098954365974,1815.2969588128951 C938.7816612806719,1823.1251929688208,923.1251929688206,1838.7816612806716,915.296958812895,1846.6098954365973" close="False" data-weight="0.0" stroke-width="6" fill="none" stroke="#4daf4a" />
<path d="M871.6098954365974,1890.2969588128951 A57.45452644918669,57.45452644918669,0,0,1,852.9703055610012,1902.7515345873453 M852.9703055610012,1902.7515345873453 A57.45452644918714,57.45452644918714,0,0,1,830.9834101745155,1907.125 M830.9834101745155,1907.125" close="False" data-weight="1.0" stroke-width="6" fill="none" stroke="#4daf4a" />
<path d="M800.2665898254845,1907.125 C789.1957949127423,1907.125,767.0542050872577,1907.125,755.9834101745155,1907.125" close="False" data-weight="0.0" stroke-width="6" fill="none" stroke="#4daf4a" />
<path d="M725.2665898254845,1907.125 C714.1957949127423,1907.125,692.0542050872577,1907.125,680.9834101745155,1907.125" close="False" data-weight="0.0" stroke-width="6" fill="none" stroke="#4daf4a" />
<path d="M650.2665898254845,1907.125 C639.1957949127423,1907.125,617.0542050872577,1907.125,605.9834101745155,1907.125" close="False" data-weight="0.0" stroke-width="6" fill="none" stroke="#4daf4a" />
<path d="M1475.2665898254845,2432.125 L1505.9834101745155,2432.125" close="False" data-weight="1.75" stroke-width="6" fill="none" stroke="#4daf4a" />
<path d="M1471.6098954365973,1240.9530411871049 L1515.2969588128801,1284.6401045633877" close="False" data-weight="2.060660171779821" stroke-width="6" fill="none" stroke="#4daf4a" />
<path d="M1390.9530411870753,2371.6098954365675 L1434.6401045634323,2415.296958812925" close="False" data-weight="2.060660171779821" stroke-width="6" fill="none" stroke="#4daf4a" />
<path d="M1396.6098954365973,1165.9530411871049 L1440.2969588128801,1209.6401045633877" close="False" data-weight="2.060660171779821" stroke-width="6" fill="none" stroke="#4daf4a" />
<path d="M1315.9530411871049,2296.6098954365975 L1359.6401045634323,2340.296958812925" close="False" data-weight="2.060660171779821" stroke-width="6" fill="none" stroke="#4daf4a" />
<path d="M1325.2665898254845,1149.125 L1355.9834101745155,1149.125" close="False" data-weight="1.75" stroke-width="6" fill="none" stroke="#4daf4a" />
<path d="M1307.125,1100.2665898254845 L1307.125,1130.9834101745155" close="False" data-weight="1.75" stroke-width="6" fill="none" stroke="#4daf4a" />
<path d="M1250.625,2278.125 L1280.625,2278.125" close="False" data-weight="1.75" stroke-width="6" fill="none" stroke="#4daf4a" />
<path d="M1246.6098954365973,1015.953041187105 L1290.2969588128951,1059.6401045634027" close="False" data-weight="2.060660171779821" stroke-width="6" fill="none" stroke="#4daf4a" />
<path d="M1236.125,949.1547408448131 L1236.125,982.0952591551869" close="False" data-weight="1.75" stroke-width="6" fill="none" stroke="#4daf4a" />
<path d="M1175.625,2278.125 L1205.625,2278.125" close="False" data-weight="1.75" stroke-width="6" fill="none" stroke="#4daf4a" />
<path d="M1173.6521266074556,1068.9115818915293 L1218.9115818915293,1023.6521266074554" close="False" data-weight="2.060660171779821" stroke-width="6" fill="none" stroke="#4daf4a" />
<path d="M1094.0349025766973,2219.0349025766973 L1137.2150974233027,2262.2150974233027" close="False" data-weight="2.060660171779821" stroke-width="6" fill="none" stroke="#4daf4a" />
<path d="M1078.125,2150.625 L1078.125,2180.625" close="False" data-weight="1.75" stroke-width="6" fill="none" stroke="#4daf4a" />
<path d="M1078.125,2075.625 L1078.125,2105.625" close="False" data-weight="1.75" stroke-width="6" fill="none" stroke="#4daf4a" />
<path d="M1078.125,1850.625 L1078.125,1880.625" close="False" data-weight="1.75" stroke-width="6" fill="none" stroke="#4daf4a" />
<path d="M1078.125,1775.625 L1078.125,1805.625" close="False" data-weight="1.75" stroke-width="6" fill="none" stroke="#4daf4a" />
<path d="M1078.125,1700.625 L1078.125,1730.625" close="False" data-weight="1.75" stroke-width="6" fill="none" stroke="#4daf4a" />
<path d="M1086.125,1624.1547408448132 L1086.125,1657.0952591551868" close="False" data-weight="1.75" stroke-width="6" fill="none" stroke="#4daf4a" />
<path d="M1086.125,1549.1547408448132 L1086.125,1582.0952591551868" close="False" data-weight="1.75" stroke-width="6" fill="none" stroke="#4daf4a" />
<path d="M1086.125,1474.1547408448132 L1086.125,1507.0952591551868" close="False" data-weight="1.75" stroke-width="6" fill="none" stroke="#4daf4a" />
<path d="M1086.125,1399.1547408448132 L1086.125,1432.0952591551868" close="False" data-weight="1.75" stroke-width="6" fill="none" stroke="#4daf4a" />
<path d="M1086.125,1324.1547408448132 L1086.125,1357.0952591551868" close="False" data-weight="1.75" stroke-width="6" fill="none" stroke="#4daf4a" />
<path d="M1086.125,1249.1547408448132 L1086.125,1282.0952591551868" close="False" data-weight="1.75" stroke-width="6" fill="none" stroke="#4daf4a" />
<path d="M1086.125,1174.1547408448132 L1086.125,1207.0952591551868" close="False" data-weight="1.75" stroke-width="6" fill="none" stroke="#4daf4a" />
<path d="M1098.6521266074556,1143.9115818915293 L1143.9115818915293,1098.6521266074556" close="False" data-weight="2.060660171779821" stroke-width="6" fill="none" stroke="#4daf4a" />
<path d="M1019.0349025766973,1994.0349025766973 L1062.2150974233027,2037.2150974233027" close="False" data-weight="2.060660171779821" stroke-width="6" fill="none" stroke="#4daf4a" />
<path d="M1019.0349025766973,1962.2150974233027 L1062.2150974233027,1919.0349025766973" close="False" data-weight="2.060660171779821" stroke-width="6" fill="none" stroke="#4daf4a" />
<path d="M1021.6098954365974,1740.2969588128951 L1065.2969588128951,1696.6098954365973" close="False" data-weight="2.060660171779821" stroke-width="6" fill="none" stroke="#4daf4a" />
<path d="M946.6098954365974,1815.2969588128951 L990.296958812895,1771.6098954365973" close="False" data-weight="2.060660171779821" stroke-width="6" fill="none" stroke="#4daf4a" />
<path d="M871.6098954365974,1890.2969588128951 L915.296958812895,1846.6098954365973" close="False" data-weight="2.060660171779821" stroke-width="6" fill="none" stroke="#4daf4a" />
<path d="M800.2665898254845,1907.125 L830.9834101745155,1907.125" close="False" data-weight="1.75" stroke-width="6" fill="none" stroke="#4daf4a" />
<path d="M725.2665898254845,1907.125 L755.9834101745155,1907.125" close="False" data-weight="1.75" stroke-width="6" fill="none" stroke="#4daf4a" />
<path d="M650.2665898254845,1907.125 L680.9834101745155,1907.125" close="False" data-weight="1.75" stroke-width="6" fill="none" stroke="#4daf4a" />
<path d="M575.2665898254845,1907.125 L605.9834101745155,1907.125" close="False" data-weight="1.75" stroke-width="6" fill="none" stroke="#4daf4a" />
<path d="M1162.3384181084707,1057.5978733925444 C1154.9032819294891,1065.033009571526,1140.033009571526,1079.9032819294891,1132.5978733925444,1087.3384181084707" close="False" data-weight="0.0" stroke-width="6" fill="none" stroke="#377eb8" />
<path d="M1175.2665898254845,932.125 C1164.1957949127423,932.125,1142.0542050872577,932.125,1130.9834101745155,932.125" close="False" data-weight="0.0" stroke-width="6" fill="none" stroke="#377eb8" />
<path d="M1070.125,1582.0952591551868 C1070.125,1592.6101295775934,1070.125,1613.6398704224066,1070.125,1624.1547408448132" close="False" data-weight="0.0" stroke-width="6" fill="none" stroke="#377eb8" />
<path d="M1070.125,1507.0952591551868 C1070.125,1517.6101295775934,1070.125,1538.6398704224066,1070.125,1549.1547408448132" close="False" data-weight="0.0" stroke-width="6" fill="none" stroke="#377eb8" />
<path d="M1070.125,1432.0952591551868 C1070.125,1442.6101295775934,1070.125,1463.6398704224066,1070.125,1474.1547408448132" close="False" data-weight="0.0" stroke-width="6" fill="none" stroke="#377eb8" />
<path d="M1070.125,1357.0952591551868 C1070.125,1367.6101295775934,1070.125,1388.6398704224066,1070.125,1399.1547408448132" close="False" data-weight="0.0" stroke-width="6" fill="none" stroke="#377eb8" />
<path d="M1070.125,1282.0952591551868 C1070.125,1292.6101295775934,1070.125,1313.6398704224066,1070.125,1324.1547408448132" close="False" data-weight="0.0" stroke-width="6" fill="none" stroke="#377eb8" />
<path d="M1070.125,1207.0952591551868 C1070.125,1217.6101295775934,1070.125,1238.6398704224066,1070.125,1249.1547408448132" close="False" data-weight="0.0" stroke-width="6" fill="none" stroke="#377eb8" />
<path d="M1087.3384181084707,1132.5978733925444 A58.7702855607405,58.7702855607405,0,0,0,1074.5986216113286,1151.6643262453529 M1074.5986216113286,1151.6643262453529 A58.77028556073856,58.77028556073856,0,0,0,1070.125,1174.1547408448132 M1070.125,1174.1547408448132" close="False" data-weight="1.0" stroke-width="6" fill="none" stroke="#377eb8" />
<path d="M1100.2665898254845,932.125 C1089.1957949127423,932.125,1067.0542050872577,932.125,1055.9834101745155,932.125" close="False" data-weight="0.0" stroke-width="6" fill="none" stroke="#377eb8" />
<path d="M1015.953041187105,1734.6401045634027 C1008.1248070311794,1742.4683387193284,992.4683387193281,1758.1248070311792,984.6401045634026,1765.9530411871049" close="False" data-weight="0.0" stroke-width="6" fill="none" stroke="#377eb8" />
<path d="M1025.2665898254845,932.125 C1014.1957949127423,932.125,992.0542050872577,932.125,980.9834101745155,932.125" close="False" data-weight="0.0" stroke-width="6" fill="none" stroke="#377eb8" />
<path d="M1019.0349025766973,237.2150974233027 C1011.0799512883486,245.17004871165133,995.1700487116514,261.0799512883487,987.2150974233027,269.03490257669733" close="False" data-weight="0.0" stroke-width="6" fill="none" stroke="#377eb8" />
<path d="M940.953041187105,1809.6401045634027 C933.1248070311794,1817.4683387193284,917.4683387193281,1833.1248070311792,909.6401045634026,1840.9530411871049" close="False" data-weight="0.0" stroke-width="6" fill="none" stroke="#377eb8" />
<path d="M950.2665898254845,932.125 A57.45452644918623,57.45452644918623,0,0,1,928.2796944389988,927.7515345873452 M928.2796944389988,927.7515345873452 A57.45452644918757,57.45452644918757,0,0,1,909.6401045634026,915.296958812895 M909.6401045634026,915.296958812895" close="False" data-weight="1.0" stroke-width="6" fill="none" stroke="#377eb8" />
<path d="M944.0349025766973,312.21509742330267 C936.0799512883486,320.1700487116513,920.1700487116514,336.0799512883487,912.2150974233027,344.03490257669733" close="False" data-weight="0.0" stroke-width="6" fill="none" stroke="#377eb8" />
<path d="M865.953041187105,1884.6401045634027 A49.45452644918823,49.45452644918823,0,0,1,849.9088381020805,1895.360498327255 M849.9088381020805,1895.360498327255 A49.45452644918555,49.45452644918555,0,0,1,830.9834101745155,1899.125 M830.9834101745155,1899.125" close="False" data-weight="1.0" stroke-width="6" fill="none" stroke="#377eb8" />
<path d="M865.953041187105,871.6098954365974 C858.1248070311793,863.7816612806718,842.4683387193282,848.1251929688207,834.6401045634026,840.296958812895" close="False" data-weight="0.0" stroke-width="6" fill="none" stroke="#377eb8" />
<path d="M869.0349025766973,387.21509742330267 C861.0799512883486,395.1700487116513,845.1700487116514,411.0799512883487,837.2150974233027,419.03490257669733" close="False" data-weight="0.0" stroke-width="6" fill="none" stroke="#377eb8" />
<path d="M800.2665898254845,1899.125 C789.1957949127423,1899.125,767.0542050872577,1899.125,755.9834101745155,1899.125" close="False" data-weight="0.0" stroke-width="6" fill="none" stroke="#377eb8" />
<path d="M778.125,680.625 C778.125,691.875,778.125,714.375,778.125,725.625" close="False" data-weight="0.0" stroke-width="6" fill="none" stroke="#377eb8" />
<path d="M778.125,605.625 C778.125,616.875,778.125,639.375,778.125,650.625" close="False" data-weight="0.0" stroke-width="6" fill="none" stroke="#377eb8" />
<path d="M778.125,530.625 C778.125,541.875,778.125,564.375,778.125,575.625" close="False" data-weight="0.0" stroke-width="6" fill="none" stroke="#377eb8" />
<path d="M794.0349025766973,462.21509742330267 A54.31980515339474,54.31980515339474,0,0,0,782.2598489621722,479.837710518496 M782.2598489621722,479.837710518496 A54.319805153394555,54.319805153394555,0,0,0,778.125,500.625 M778.125,500.625" close="False" data-weight="1.0" stroke-width="6" fill="none" stroke="#377eb8" />
<path d="M719.0349025766973,2069.0349025766973 C711.0799512883486,2061.0799512883486,695.1700487116514,2045.1700487116514,687.2150974233027,2037.2150974233027" close="False" data-weight="0.0" stroke-width="6" fill="none" stroke="#377eb8" />
<path d="M725.2665898254845,1899.125 C714.1957949127423,1899.125,692.0542050872577,1899.125,680.9834101745155,1899.125" close="False" data-weight="0.0" stroke-width="6" fill="none" stroke="#377eb8" />
<path d="M725.2665898254845,782.125 A49.45452644918669,49.45452644918669,0,0,0,706.3411618979196,785.889501672745 M706.3411618979196,785.889501672745 A49.45452644918702,49.45452644918702,0,0,0,690.296958812895,796.6098954365974 M690.296958812895,796.6098954365974" close="False" data-weight="1.0" stroke-width="6" fill="none" stroke="#377eb8" />
<path d="M644.0349025766973,1994.0349025766973 C636.0799512883486,1986.0799512883486,620.1700487116514,1970.1700487116514,612.2150974233027,1962.2150974233027" close="False" data-weight="0.0" stroke-width="6" fill="none" stroke="#377eb8" />
<path d="M650.2665898254845,1899.125 C639.1957949127423,1899.125,617.0542050872577,1899.125,605.9834101745155,1899.125" close="False" data-weight="0.0" stroke-width="6" fill="none" stroke="#377eb8" />
<path d="M646.6098954365974,840.296958812895 C638.7816612806718,848.1251929688207,623.1251929688207,863.7816612806718,615.296958812895,871.6098954365974" close="False" data-weight="0.0" stroke-width="6" fill="none" stroke="#377eb8" />
<path d="M494.03490257669733,1844.0349025766973 C486.0799512883487,1836.0799512883486,470.1700487116513,1820.1700487116514,462.21509742330267,1812.2150974233027" close="False" data-weight="0.0" stroke-width="6" fill="none" stroke="#377eb8" />
<path d="M490.953041187105,871.6098954365974 A49.4545264491869,49.4545264491869,0,0,0,474.9088381020804,860.889501672745 M474.9088381020804,860.889501672745 A49.454526449186915,49.454526449186915,0,0,0,455.9834101745155,857.125 M455.9834101745155,857.125" close="False" data-weight="1.0" stroke-width="6" fill="none" stroke="#377eb8" />
<path d="M419.03490257669733,1769.0349025766973 C411.0799512883487,1761.0799512883486,395.1700487116513,1745.1700487116514,387.21509742330267,1737.2150974233027" close="False" data-weight="0.0" stroke-width="6" fill="none" stroke="#377eb8" />
<path d="M415.953041187105,759.6401045634026 A57.454526449186126,57.454526449186126,0,0,0,403.4984654126548,778.2796944389988 M403.4984654126548,778.2796944389988 A57.45452644918771,57.45452644918771,0,0,0,399.125,800.2665898254845 M399.125,800.2665898254845" close="False" data-weight="1.0" stroke-width="6" fill="none" stroke="#377eb8" />
<path d="M328.125,1625.625 A54.31980515339285,54.31980515339285,0,0,0,323.9901510378276,1604.837710518496 M323.9901510378276,1604.837710518496 A54.31980515339627,54.31980515339627,0,0,0,312.21509742330267,1587.2150974233027 M312.21509742330267,1587.2150974233027" close="False" data-weight="1.0" stroke-width="6" fill="none" stroke="#377eb8" />
<path d="M269.03490257669733,1544.0349025766973 C261.0799512883487,1536.0799512883486,245.1700487116513,1520.1700487116514,237.21509742330267,1512.2150974233027" close="False" data-weight="0.0" stroke-width="6" fill="none" stroke="#377eb8" />
<path d="M178.125,1355.625 C178.125,1366.875,178.125,1389.375,178.125,1400.625" close="False" data-weight="0.0" stroke-width="6" fill="none" stroke="#377eb8" />
<path d="M1220.125,949.1547408448131 L1220.125,982.0952591551869" close="False" data-weight="1.75" stroke-width="6" fill="none" stroke="#377eb8" />
<path d="M1162.3384181084707,1057.5978733925444 L1207.5978733925444,1012.3384181084706" close="False" data-weight="2.060660171779821" stroke-width="6" fill="none" stroke="#377eb8" />
<path d="M1175.2665898254845,932.125 L1205.9834101745155,932.125" close="False" data-weight="1.75" stroke-width="6" fill="none" stroke="#377eb8" />
<path d="M1070.125,1624.1547408448132 L1070.125,1657.0952591551868" close="False" data-weight="1.75" stroke-width="6" fill="none" stroke="#377eb8" />
<path d="M1070.125,1549.1547408448132 L1070.125,1582.0952591551868" close="False" data-weight="1.75" stroke-width="6" fill="none" stroke="#377eb8" />
<path d="M1070.125,1474.1547408448132 L1070.125,1507.0952591551868" close="False" data-weight="1.75" stroke-width="6" fill="none" stroke="#377eb8" />
<path d="M1070.125,1399.1547408448132 L1070.125,1432.0952591551868" close="False" data-weight="1.75" stroke-width="6" fill="none" stroke="#377eb8" />
<path d="M1070.125,1324.1547408448132 L1070.125,1357.0952591551868" close="False" data-weight="1.75" stroke-width="6" fill="none" stroke="#377eb8" />
<path d="M1070.125,1249.1547408448132 L1070.125,1282.0952591551868" close="False" data-weight="1.75" stroke-width="6" fill="none" stroke="#377eb8" />
<path d="M1070.125,1174.1547408448132 L1070.125,1207.0952591551868" close="False" data-weight="1.75" stroke-width="6" fill="none" stroke="#377eb8" />
<path d="M1087.3384181084707,1132.5978733925444 L1132.5978733925444,1087.3384181084707" close="False" data-weight="2.060660171779821" stroke-width="6" fill="none" stroke="#377eb8" />
<path d="M1100.2665898254845,932.125 L1130.9834101745155,932.125" close="False" data-weight="1.75" stroke-width="6" fill="none" stroke="#377eb8" />
<path d="M1015.953041187105,1734.6401045634027 L1059.6401045634027,1690.9530411871049" close="False" data-weight="2.060660171779821" stroke-width="6" fill="none" stroke="#377eb8" />
<path d="M1025.2665898254845,932.125 L1055.9834101745155,932.125" close="False" data-weight="1.75" stroke-width="6" fill="none" stroke="#377eb8" />
<path d="M1019.0349025766973,237.21509742330267 L1062.2150974233027,194.0349025766973" close="False" data-weight="2.060660171779821" stroke-width="6" fill="none" stroke="#377eb8" />
<path d="M940.953041187105,1809.6401045634027 L984.6401045634026,1765.9530411871049" close="False" data-weight="2.060660171779821" stroke-width="6" fill="none" stroke="#377eb8" />
<path d="M950.2665898254845,932.125 L980.9834101745155,932.125" close="False" data-weight="1.75" stroke-width="6" fill="none" stroke="#377eb8" />
<path d="M944.0349025766973,312.21509742330267 L987.2150974233027,269.03490257669733" close="False" data-weight="2.060660171779821" stroke-width="6" fill="none" stroke="#377eb8" />
<path d="M865.953041187105,1884.6401045634027 L909.6401045634026,1840.9530411871049" close="False" data-weight="2.060660171779821" stroke-width="6" fill="none" stroke="#377eb8" />
<path d="M865.953041187105,871.6098954365974 L909.6401045634026,915.296958812895" close="False" data-weight="2.060660171779821" stroke-width="6" fill="none" stroke="#377eb8" />
<path d="M869.0349025766973,387.21509742330267 L912.2150974233027,344.03490257669733" close="False" data-weight="2.060660171779821" stroke-width="6" fill="none" stroke="#377eb8" />
<path d="M800.2665898254845,1899.125 L830.9834101745155,1899.125" close="False" data-weight="1.75" stroke-width="6" fill="none" stroke="#377eb8" />
<path d="M790.953041187105,796.6098954365974 L834.6401045634026,840.296958812895" close="False" data-weight="2.060660171779821" stroke-width="6" fill="none" stroke="#377eb8" />
<path d="M778.125,725.625 L778.125,755.625" close="False" data-weight="1.75" stroke-width="6" fill="none" stroke="#377eb8" />
<path d="M778.125,650.625 L778.125,680.625" close="False" data-weight="1.75" stroke-width="6" fill="none" stroke="#377eb8" />
<path d="M778.125,575.625 L778.125,605.625" close="False" data-weight="1.75" stroke-width="6" fill="none" stroke="#377eb8" />
<path d="M778.125,500.625 L778.125,530.625" close="False" data-weight="1.75" stroke-width="6" fill="none" stroke="#377eb8" />
<path d="M794.0349025766973,462.21509742330267 L837.2150974233027,419.03490257669733" close="False" data-weight="2.060660171779821" stroke-width="6" fill="none" stroke="#377eb8" />
<path d="M719.0349025766973,2069.0349025766973 L762.2150974233027,2112.2150974233027" close="False" data-weight="2.060660171779821" stroke-width="6" fill="none" stroke="#377eb8" />
<path d="M725.2665898254845,1899.125 L755.9834101745155,1899.125" close="False" data-weight="1.75" stroke-width="6" fill="none" stroke="#377eb8" />
<path d="M725.2665898254845,782.125 L755.9834101745155,782.125" close="False" data-weight="1.75" stroke-width="6" fill="none" stroke="#377eb8" />
<path d="M644.0349025766973,1994.0349025766973 L687.2150974233027,2037.2150974233027" close="False" data-weight="2.060660171779821" stroke-width="6" fill="none" stroke="#377eb8" />
<path d="M650.2665898254845,1899.125 L680.9834101745155,1899.125" close="False" data-weight="1.75" stroke-width="6" fill="none" stroke="#377eb8" />
<path d="M646.6098954365974,840.296958812895 L690.296958812895,796.6098954365974" close="False" data-weight="2.060660171779821" stroke-width="6" fill="none" stroke="#377eb8" />
<path d="M569.0349025766973,1919.0349025766973 L612.2150974233027,1962.2150974233027" close="False" data-weight="2.060660171779821" stroke-width="6" fill="none" stroke="#377eb8" />
<path d="M575.2665898254845,1899.125 L605.9834101745155,1899.125" close="False" data-weight="1.75" stroke-width="6" fill="none" stroke="#377eb8" />
<path d="M571.6098954365974,915.296958812895 L615.296958812895,871.6098954365974" close="False" data-weight="2.060660171779821" stroke-width="6" fill="none" stroke="#377eb8" />
<path d="M494.03490257669733,1844.0349025766973 L537.2150974233027,1887.2150974233027" close="False" data-weight="2.060660171779821" stroke-width="6" fill="none" stroke="#377eb8" />
<path d="M490.953041187105,871.6098954365974 L534.6401045634026,915.296958812895" close="False" data-weight="2.060660171779821" stroke-width="6" fill="none" stroke="#377eb8" />
<path d="M419.03490257669733,1769.0349025766973 L462.21509742330267,1812.2150974233027" close="False" data-weight="2.060660171779821" stroke-width="6" fill="none" stroke="#377eb8" />
<path d="M425.2665898254845,857.125 L455.9834101745155,857.125" close="False" data-weight="1.75" stroke-width="6" fill="none" stroke="#377eb8" />
<path d="M399.125,800.2665898254845 L399.125,830.9834101745155" close="False" data-weight="1.75" stroke-width="6" fill="none" stroke="#377eb8" />
<path d="M415.953041187105,759.6401045634026 L459.6401045634026,715.953041187105" close="False" data-weight="2.060660171779821" stroke-width="6" fill="none" stroke="#377eb8" />
<path d="M344.03490257669733,1694.0349025766973 L387.21509742330267,1737.2150974233027" close="False" data-weight="2.060660171779821" stroke-width="6" fill="none" stroke="#377eb8" />
<path d="M328.125,1625.625 L328.125,1655.625" close="False" data-weight="1.75" stroke-width="6" fill="none" stroke="#377eb8" />
<path d="M269.03490257669733,1544.0349025766973 L312.21509742330267,1587.2150974233027" close="False" data-weight="2.060660171779821" stroke-width="6" fill="none" stroke="#377eb8" />
<path d="M194.03490257669733,1469.0349025766973 L237.2150974233027,1512.2150974233027" close="False" data-weight="2.060660171779821" stroke-width="6" fill="none" stroke="#377eb8" />
<path d="M178.125,1400.625 L178.125,1430.625" close="False" data-weight="1.75" stroke-width="6" fill="none" stroke="#377eb8" />
<path d="M178.125,1325.625 L178.125,1355.625" close="False" data-weight="1.75" stroke-width="6" fill="none" stroke="#377eb8" />
<path d="M2132.125,1730.9834101745155 C2132.125,1742.0542050872577,2132.125,1764.1957949127423,2132.125,1775.2665898254845" close="False" data-weight="0.0" stroke-width="6" fill="none" stroke="#e41a1c" />
<path d="M2069.0349025766973,1887.2150974233027 C2061.0799512883486,1895.1700487116514,2045.1700487116514,1911.0799512883486,2037.2150974233027,1919.0349025766973" close="False" data-weight="0.0" stroke-width="6" fill="none" stroke="#e41a1c" />
<path d="M2075.2665898254845,1832.125 C2064.1957949127423,1832.125,2042.0542050872577,1832.125,2030.9834101745155,1832.125" close="False" data-weight="0.0" stroke-width="6" fill="none" stroke="#e41a1c" />
<path d="M1978.125,2105.625 C1978.125,2116.875,1978.125,2139.375,1978.125,2150.625" close="False" data-weight="0.0" stroke-width="6" fill="none" stroke="#e41a1c" />
<path d="M1978.125,2030.625 C1978.125,2041.875,1978.125,2064.375,1978.125,2075.625" close="False" data-weight="0.0" stroke-width="6" fill="none" stroke="#e41a1c" />
<path d="M1994.0349025766973,1962.2150974233027 A54.3198051533949,54.3198051533949,0,0,0,1982.2598489621723,1979.837710518496 M1982.2598489621723,1979.837710518496 A54.3198051533941,54.3198051533941,0,0,0,1978.125,2000.625 M1978.125,2000.625" close="False" data-weight="1.0" stroke-width="6" fill="none" stroke="#e41a1c" />
<path d="M2000.2665898254845,1832.125 C1989.1957949127423,1832.125,1967.0542050872577,1832.125,1955.9834101745155,1832.125" close="False" data-weight="0.0" stroke-width="6" fill="none" stroke="#e41a1c" />
<path d="M1925.2665898254845,1832.125 C1914.1957949127423,1832.125,1892.0542050872577,1832.125,1880.9834101745155,1832.125" close="False" data-weight="0.0" stroke-width="6" fill="none" stroke="#e41a1c" />
<path d="M1850.625,2278.125 C1839.375,2278.125,1816.875,2278.125,1805.625,2278.125" close="False" data-weight="0.0" stroke-width="6" fill="none" stroke="#e41a1c" />
<path d="M1850.2665898254845,1832.125 C1839.1957949127423,1832.125,1817.0542050872577,1832.125,1805.9834101745155,1832.125" close="False" data-weight="0.0" stroke-width="6" fill="none" stroke="#e41a1c" />
<path d="M1775.625,2278.125 C1764.375,2278.125,1741.875,2278.125,1730.625,2278.125" close="False" data-weight="0.0" stroke-width="6" fill="none" stroke="#e41a1c" />
<path d="M1775.2665898254845,1832.125 C1764.1957949127423,1832.125,1742.0542050872577,1832.125,1730.9834101745155,1832.125" close="False" data-weight="0.0" stroke-width="6" fill="none" stroke="#e41a1c" />
<path d="M1700.625,2278.125 A54.31980515339728,54.31980515339728,0,0,0,1679.837710518496,2282.2598489621723 M1679.837710518496,2282.2598489621723 A54.319805153387826,54.319805153387826,0,0,0,1662.2150974233027,2294.0349025766973 M1662.2150974233027,2294.0349025766973" close="False" data-weight="1.0" stroke-width="6" fill="none" stroke="#e41a1c" />
<path d="M1700.2665898254845,1832.125 C1689.1957949127423,1832.125,1667.0542050872577,1832.125,1655.9834101745155,1832.125" close="False" data-weight="0.0" stroke-width="6" fill="none" stroke="#e41a1c" />
<path d="M1619.0349025766973,2337.2150974233027 C1611.0799512883486,2345.1700487116514,1595.1700487116514,2361.0799512883486,1587.2150974233027,2369.0349025766973" close="False" data-weight="0.0" stroke-width="6" fill="none" stroke="#e41a1c" />
<path d="M1625.2665898254845,1832.125 C1614.1957949127423,1832.125,1592.0542050872577,1832.125,1580.9834101745155,1832.125" close="False" data-weight="0.0" stroke-width="6" fill="none" stroke="#e41a1c" />
<path d="M1550.2665898254845,1832.125 C1539.1957949127423,1832.125,1517.0542050872577,1832.125,1505.9834101745155,1832.125" close="False" data-weight="0.0" stroke-width="6" fill="none" stroke="#e41a1c" />
<path d="M1475.2665898254845,2424.125 A49.45452644918532,49.45452644918532,0,0,1,1456.3411618979196,2420.360498327255 M1456.3411618979196,2420.360498327255 A49.45452644918831,49.45452644918831,0,0,1,1440.2969588128951,2409.6401045634025 M1440.2969588128951,2409.6401045634025" close="False" data-weight="1.0" stroke-width="6" fill="none" stroke="#e41a1c" />
<path d="M1475.2665898254845,1832.125 C1464.1957949127423,1832.125,1442.0542050872577,1832.125,1430.9834101745155,1832.125" close="False" data-weight="0.0" stroke-width="6" fill="none" stroke="#e41a1c" />
<path d="M1396.6098954365973,2365.953041187105 C1388.7816612806641,2358.124807031172,1373.1251929687983,2342.468338719306,1365.2969588128653,2334.640104563373" close="False" data-weight="0.0" stroke-width="6" fill="none" stroke="#e41a1c" />
<path d="M1244.0349025766973,2219.0349025766973 C1236.0799512883486,2211.0799512883486,1220.1700487116514,2195.1700487116514,1212.2150974233027,2187.2150974233027" close="False" data-weight="0.0" stroke-width="6" fill="none" stroke="#e41a1c" />
<path d="M1169.0349025766973,2144.0349025766973 A54.319805153391044,54.319805153391044,0,0,0,1151.4122894815043,2132.259848962172 M1151.4122894815043,2132.259848962172 A54.3198051533941,54.3198051533941,0,0,0,1130.625,2128.125 M1130.625,2128.125" close="False" data-weight="1.0" stroke-width="6" fill="none" stroke="#e41a1c" />
<path d="M1100.625,2128.125 C1089.375,2128.125,1066.875,2128.125,1055.625,2128.125" close="False" data-weight="0.0" stroke-width="6" fill="none" stroke="#e41a1c" />
<path d="M1025.625,2128.125 C1014.375,2128.125,991.875,2128.125,980.625,2128.125" close="False" data-weight="0.0" stroke-width="6" fill="none" stroke="#e41a1c" />
<path d="M950.625,2128.125 C939.375,2128.125,916.875,2128.125,905.625,2128.125" close="False" data-weight="0.0" stroke-width="6" fill="none" stroke="#e41a1c" />
<path d="M875.625,2128.125 C864.375,2128.125,841.875,2128.125,830.625,2128.125" close="False" data-weight="0.0" stroke-width="6" fill="none" stroke="#e41a1c" />
<path d="M2132.125,1775.2665898254845 L2132.125,1805.9834101745155" close="False" data-weight="1.75" stroke-width="6" fill="none" stroke="#e41a1c" />
<path d="M2132.125,1700.2665898254845 L2132.125,1730.9834101745155" close="False" data-weight="1.75" stroke-width="6" fill="none" stroke="#e41a1c" />
<path d="M2069.0349025766973,1887.2150974233027 L2112.2150974233027,1844.0349025766973" close="False" data-weight="2.060660171779821" stroke-width="6" fill="none" stroke="#e41a1c" />
<path d="M2075.2665898254845,1832.125 L2105.9834101745155,1832.125" close="False" data-weight="1.75" stroke-width="6" fill="none" stroke="#e41a1c" />
<path d="M1978.125,2150.625 L1978.125,2180.625" close="False" data-weight="1.75" stroke-width="6" fill="none" stroke="#e41a1c" />
<path d="M1978.125,2075.625 L1978.125,2105.625" close="False" data-weight="1.75" stroke-width="6" fill="none" stroke="#e41a1c" />
<path d="M1978.125,2000.625 L1978.125,2030.625" close="False" data-weight="1.75" stroke-width="6" fill="none" stroke="#e41a1c" />
<path d="M1994.0349025766973,1962.2150974233027 L2037.2150974233027,1919.0349025766973" close="False" data-weight="2.060660171779821" stroke-width="6" fill="none" stroke="#e41a1c" />
<path d="M2000.2665898254845,1832.125 L2030.9834101745155,1832.125" close="False" data-weight="1.75" stroke-width="6" fill="none" stroke="#e41a1c" />
<path d="M1919.0349025766973,2262.2150974233027 L1962.2150974233027,2219.0349025766973" close="False" data-weight="2.060660171779821" stroke-width="6" fill="none" stroke="#e41a1c" />
<path d="M1925.2665898254845,1832.125 L1955.9834101745155,1832.125" close="False" data-weight="1.75" stroke-width="6" fill="none" stroke="#e41a1c" />
<path d="M1850.625,2278.125 L1880.625,2278.125" close="False" data-weight="1.75" stroke-width="6" fill="none" stroke="#e41a1c" />
<path d="M1850.2665898254845,1832.125 L1880.9834101745155,1832.125" close="False" data-weight="1.75" stroke-width="6" fill="none" stroke="#e41a1c" />
<path d="M1775.625,2278.125 L1805.625,2278.125" close="False" data-weight="1.75" stroke-width="6" fill="none" stroke="#e41a1c" />
<path d="M1775.2665898254845,1832.125 L1805.9834101745155,1832.125" close="False" data-weight="1.75" stroke-width="6" fill="none" stroke="#e41a1c" />
<path d="M1700.625,2278.125 L1730.625,2278.125" close="False" data-weight="1.75" stroke-width="6" fill="none" stroke="#e41a1c" />
<path d="M1700.2665898254845,1832.125 L1730.9834101745155,1832.125" close="False" data-weight="1.75" stroke-width="6" fill="none" stroke="#e41a1c" />
<path d="M1619.0349025766973,2337.2150974233027 L1662.2150974233027,2294.0349025766973" close="False" data-weight="2.060660171779821" stroke-width="6" fill="none" stroke="#e41a1c" />
<path d="M1625.2665898254845,1832.125 L1655.9834101745155,1832.125" close="False" data-weight="1.75" stroke-width="6" fill="none" stroke="#e41a1c" />
<path d="M1544.0349025766973,2412.2150974233027 L1587.2150974233027,2369.0349025766973" close="False" data-weight="2.060660171779821" stroke-width="6" fill="none" stroke="#e41a1c" />
<path d="M1550.2665898254845,1832.125 L1580.9834101745155,1832.125" close="False" data-weight="1.75" stroke-width="6" fill="none" stroke="#e41a1c" />
<path d="M1475.2665898254845,2424.125 L1505.9834101745155,2424.125" close="False" data-weight="1.75" stroke-width="6" fill="none" stroke="#e41a1c" />
<path d="M1475.2665898254845,1832.125 L1505.9834101745155,1832.125" close="False" data-weight="1.75" stroke-width="6" fill="none" stroke="#e41a1c" />
<path d="M1396.609895436627,2365.9530411871347 L1440.2969588128653,2409.640104563373" close="False" data-weight="2.060660171779821" stroke-width="6" fill="none" stroke="#e41a1c" />
<path d="M1400.2665898254845,1832.125 L1430.9834101745155,1832.125" close="False" data-weight="1.75" stroke-width="6" fill="none" stroke="#e41a1c" />
<path d="M1321.6098954365973,2290.953041187105 L1365.2969588128653,2334.640104563373" close="False" data-weight="2.060660171779821" stroke-width="6" fill="none" stroke="#e41a1c" />
<path d="M1244.0349025766973,2219.0349025766973 L1287.2150974233027,2262.2150974233027" close="False" data-weight="2.060660171779821" stroke-width="6" fill="none" stroke="#e41a1c" />
<path d="M1169.0349025766973,2144.0349025766973 L1212.2150974233027,2187.2150974233027" close="False" data-weight="2.060660171779821" stroke-width="6" fill="none" stroke="#e41a1c" />
<path d="M1100.625,2128.125 L1130.625,2128.125" close="False" data-weight="1.75" stroke-width="6" fill="none" stroke="#e41a1c" />
<path d="M1025.625,2128.125 L1055.625,2128.125" close="False" data-weight="1.75" stroke-width="6" fill="none" stroke="#e41a1c" />
<path d="M950.625,2128.125 L980.625,2128.125" close="False" data-weight="1.75" stroke-width="6" fill="none" stroke="#e41a1c" />
<path d="M875.625,2128.125 L905.625,2128.125" close="False" data-weight="1.75" stroke-width="6" fill="none" stroke="#e41a1c" />
<path d="M800.625,2128.125 L830.625,2128.125" close="False" data-weight="1.75" stroke-width="6" fill="none" stroke="#e41a1c" />
<image x="2395.625" y="595.625" width="65" height="65" xlink:href="designspace-test/./img/ds_dataset1_40_21_thumb.png">
<title>21</title>
</image>
<image x="2320.625" y="970.625" width="65" height="65" xlink:href="designspace-test/./img/ds_dataset1_40_17_thumb.png">
<title>17</title>
</image>
<image x="2245.625" y="1270.625" width="65" height="65" xlink:href="designspace-test/./img/ds_dataset1_40_37_thumb.png">
<title>37</title>
</image>
<image x="2245.625" y="895.625" width="65" height="65" xlink:href="designspace-test/./img/ds_dataset1_40_31_thumb.png">
<title>31</title>
</image>
<image x="2170.625" y="970.625" width="65" height="65" xlink:href="designspace-test/./img/ds_dataset1_40_13_thumb.png">
<title>13</title>
</image>
<image x="2170.625" y="820.625" width="65" height="65" xlink:href="designspace-test/./img/ds_dataset1_40_30_thumb.png">
<title>30</title>
</image>
<image x="2170.625" y="670.625" width="65" height="65" xlink:href="designspace-test/./img/ds_dataset1_40_33_thumb.png">
<title>33</title>
</image>
<image x="2095.625" y="1795.625" width="65" height="65" xlink:href="designspace-test/./img/ds_dataset1_40_32_thumb.png">
<title>32</title>
</image>
<image x="2095.625" y="1645.625" width="65" height="65" xlink:href="designspace-test/./img/ds_dataset1_40_19_thumb.png">
<title>19</title>
</image>
<image x="2095.625" y="970.625" width="65" height="65" xlink:href="designspace-test/./img/ds_dataset1_40_24_thumb.png">
<title>24</title>
</image>
<image x="1945.625" y="2170.625" width="65" height="65" xlink:href="designspace-test/./img/ds_dataset1_40_2_thumb.png">
<title>2</title>
</image>
<image x="1945.625" y="895.625" width="65" height="65" xlink:href="designspace-test/./img/ds_dataset1_40_25_thumb.png">
<title>25</title>
</image>
<image x="1945.625" y="745.625" width="65" height="65" xlink:href="designspace-test/./img/ds_dataset1_40_11_thumb.png">
<title>11</title>
</image>
<image x="1870.625" y="2245.625" width="65" height="65" xlink:href="designspace-test/./img/ds_dataset1_40_12_thumb.png">
<title>12</title>
</image>
<image x="1870.625" y="1045.625" width="65" height="65" xlink:href="designspace-test/./img/ds_dataset1_40_14_thumb.png">
<title>14</title>
</image>
<image x="1870.625" y="745.625" width="65" height="65" xlink:href="designspace-test/./img/ds_dataset1_40_10_thumb.png">
<title>10</title>
</image>
<image x="1795.625" y="670.625" width="65" height="65" xlink:href="designspace-test/./img/ds_dataset1_40_9_thumb.png">
<title>9</title>
</image>
<image x="1720.625" y="670.625" width="65" height="65" xlink:href="designspace-test/./img/ds_dataset1_40_16_thumb.png">
<title>16</title>
</image>
<image x="1570.625" y="1195.625" width="65" height="65" xlink:href="designspace-test/./img/ds_dataset1_40_39_thumb.png">
<title>39</title>
</image>
<image x="1495.625" y="2395.625" width="65" height="65" xlink:href="designspace-test/./img/ds_dataset1_40_22_thumb.png">
<title>22</title>
</image>
<image x="1495.625" y="1270.625" width="65" height="65" xlink:href="designspace-test/./img/ds_dataset1_40_1_thumb.png">
<title>1</title>
</image>
<image x="1420.625" y="295.625" width="65" height="65" xlink:href="designspace-test/./img/ds_dataset1_40_27_thumb.png">
<title>27</title>
</image>
<image x="1345.625" y="1795.625" width="65" height="65" xlink:href="designspace-test/./img/ds_dataset1_40_4_thumb.png">
<title>4</title>
</image>
<image x="1270.625" y="2245.625" width="65" height="65" xlink:href="designspace-test/./img/ds_dataset1_40_38_thumb.png">
<title>38</title>
</image>
<image x="1270.625" y="1120.625" width="65" height="65" xlink:href="designspace-test/./img/ds_dataset1_40_36_thumb.png">
<title>36</title>
</image>
<image x="1195.625" y="970.625" width="65" height="65" xlink:href="designspace-test/./img/ds_dataset1_40_29_thumb.png">
<title>29</title>
</image>
<image x="1195.625" y="895.625" width="65" height="65" xlink:href="designspace-test/./img/ds_dataset1_40_3_thumb.png">
<title>3</title>
</image>
<image x="1045.625" y="2170.625" width="65" height="65" xlink:href="designspace-test/./img/ds_dataset1_40_23_thumb.png">
<title>23</title>
</image>
<image x="1045.625" y="1645.625" width="65" height="65" xlink:href="designspace-test/./img/ds_dataset1_40_28_thumb.png">
<title>28</title>
</image>
<image x="1045.625" y="145.625" width="65" height="65" xlink:href="designspace-test/./img/ds_dataset1_40_0_thumb.png">
<title>0</title>
</image>
<image x="970.625" y="1945.625" width="65" height="65" xlink:href="designspace-test/./img/ds_dataset1_40_35_thumb.png">
<title>35</title>
</image>
<image x="745.625" y="2095.625" width="65" height="65" xlink:href="designspace-test/./img/ds_dataset1_40_18_thumb.png">
<title>18</title>
</image>
<image x="745.625" y="745.625" width="65" height="65" xlink:href="designspace-test/./img/ds_dataset1_40_6_thumb.png">
<title>6</title>
</image>
<image x="520.625" y="1870.625" width="65" height="65" xlink:href="designspace-test/./img/ds_dataset1_40_20_thumb.png">
<title>20</title>
</image>
<image x="520.625" y="895.625" width="65" height="65" xlink:href="designspace-test/./img/ds_dataset1_40_8_thumb.png">
<title>8</title>
</image>
<image x="445.625" y="670.625" width="65" height="65" xlink:href="designspace-test/./img/ds_dataset1_40_15_thumb.png">
<title>15</title>
</image>
<image x="370.625" y="820.625" width="65" height="65" xlink:href="designspace-test/./img/ds_dataset1_40_26_thumb.png">
<title>26</title>
</image>
<image x="295.625" y="1645.625" width="65" height="65" xlink:href="designspace-test/./img/ds_dataset1_40_34_thumb.png">
<title>34</title>
</image>
<image x="145.625" y="1420.625" width="65" height="65" xlink:href="designspace-test/./img/ds_dataset1_40_5_thumb.png">
<title>5</title>
</image>
<image x="145.625" y="1270.625" width="65" height="65" xlink:href="designspace-test/./img/ds_dataset1_40_7_thumb.png">
<title>7</title>
</image>
</svg>