<?xml version="1.0" encoding="UTF-8"?>
<svg xmlns="http://www.w3.org/2000/svg" xmlns:xlink="http://www.w3.org/1999/xlink"
     viewBox="0 0 1350 1350" preserveAspectRatio="xMidYMid meet">
<defs>
</defs>
<path d="M553.125,605.625 A54.31980515339484,54.31980515339484,0,0,1,548.9901510378278,626.4122894815039 M548.9901510378278,626.4122894815039 A54.3198051533943,54.3198051533943,0,0,1,537.2150974233027,644.0349025766973 M537.2150974233027,644.0349025766973" close="False" data-weight="1.0" stroke-width="7" fill="none" stroke="#1fa562" />
<path d="M553.125,530.625 C553.125,541.875,553.125,564.375,553.125,575.625" close="False" data-weight="0.0" stroke-width="7" fill="none" stroke="#1fa562" />
<path d="M553.125,455.625 C553.125,466.875,553.125,489.375,553.125,500.625" close="False" data-weight="0.0" stroke-width="7" fill="none" stroke="#1fa562" />
<path d="M553.125,380.625 C553.125,391.875,553.125,414.375,553.125,425.625" close="False" data-weight="0.0" stroke-width="7" fill="none" stroke="#1fa562" />
<path d="M553.125,305.625 C553.125,316.875,553.125,339.375,553.125,350.625" close="False" data-weight="0.0" stroke-width="7" fill="none" stroke="#1fa562" />
<path d="M553.125,230.625 C553.125,241.875,553.125,264.375,553.125,275.625" close="False" data-weight="0.0" stroke-width="7" fill="none" stroke="#1fa562" />
<path d="M553.125,155.625 C553.125,166.875,553.125,189.375,553.125,200.625" close="False" data-weight="0.0" stroke-width="7" fill="none" stroke="#1fa562" />
<path d="M494.03490257669733,687.2150974233027 C486.0799512883487,695.1700487116514,470.1700487116513,711.0799512883486,462.21509742330267,719.0349025766973" close="False" data-weight="0.0" stroke-width="7" fill="none" stroke="#1fa562" />
<path d="M419.03490257669733,762.2150974233027 C411.0799512883487,770.1700487116514,395.1700487116513,786.0799512883486,387.21509742330267,794.0349025766973" close="False" data-weight="0.0" stroke-width="7" fill="none" stroke="#1fa562" />
<path d="M344.03490257669733,837.2150974233027 C336.0799512883487,845.1700487116514,320.1700487116513,861.0799512883486,312.21509742330267,869.0349025766973" close="False" data-weight="0.0" stroke-width="7" fill="none" stroke="#1fa562" />
<path d="M553.125,575.625 L553.125,605.625" close="False" data-weight="1.75" stroke-width="7" fill="none" stroke="#1fa562" />
<path d="M553.125,500.625 L553.125,530.625" close="False" data-weight="1.75" stroke-width="7" fill="none" stroke="#1fa562" />
<path d="M553.125,425.625 L553.125,455.625" close="False" data-weight="1.75" stroke-width="7" fill="none" stroke="#1fa562" />
<path d="M553.125,350.625 L553.125,380.625" close="False" data-weight="1.75" stroke-width="7" fill="none" stroke="#1fa562" />
<path d="M553.125,275.625 L553.125,305.625" close="False" data-weight="1.75" stroke-width="7" fill="none" stroke="#1fa562" />
<path d="M553.125,200.625 L553.125,230.625" close="False" data-weight="1.75" stroke-width="7" fill="none" stroke="#1fa562" />
<path d="M553.125,125.625 L553.125,155.625" close="False" data-weight="1.75" stroke-width="7" fill="none" stroke="#1fa562" />
<path d="M494.03490257669733,687.2150974233027 L537.2150974233027,644.0349025766973" close="False" data-weight="2.060660171779821" stroke-width="7" fill="none" stroke="#1fa562" />
<path d="M419.03490257669733,762.2150974233027 L462.21509742330267,719.0349025766973" close="False" data-weight="2.060660171779821" stroke-width="7" fill="none" stroke="#1fa562" />
<path d="M344.03490257669733,837.2150974233027 L387.21509742330267,794.0349025766973" close="False" data-weight="2.060660171779821" stroke-width="7" fill="none" stroke="#1fa562" />
<path d="M269.03490257669733,912.2150974233027 L312.21509742330267,869.0349025766973" close="False" data-weight="2.060660171779821" stroke-width="7" fill="none" stroke="#1fa562" />
<path d="M998.625,1056.0795923149515 A48.72232222128889,48.72232222128889,0,0,1,994.91623405538,1074.7248178153918 M994.91623405538,1074.7248178153918 A48.722322221287776,48.722322221287776,0,0,1,984.3545622165407,1090.5314767527805 M984.3545622165407,1090.5314767527805" close="False" data-weight="1.0" stroke-width="7" fill="none" stroke="#ff1c5d" />
<path d="M998.625,981.0795923149514 C998.625,992.1022961574756,998.625,1014.1477038425243,998.625,1025.1704076850485" close="False" data-weight="0.0" stroke-width="7" fill="none" stroke="#ff1c5d" />
<path d="M940.5314767527807,1134.3545622165404 C932.7372481187207,1142.1487908506006,917.1487908506007,1157.7372481187206,909.3545622165407,1165.5314767527805" close="False" data-weight="0.0" stroke-width="7" fill="none" stroke="#ff1c5d" />
<path d="M946.8954377834593,990.7185232472195 C939.1012091493994,998.5127518812794,923.5127518812794,1014.1012091493993,915.7185232472195,1021.8954377834593" close="False" data-weight="0.0" stroke-width="7" fill="none" stroke="#ff1c5d" />
<path d="M932.625,756.0795923149514 A57.72232222128764,57.72232222128764,0,0,1,928.2311498479813,778.1689687066777 M928.2311498479813,778.1689687066777 A57.72232222128921,57.72232222128921,0,0,1,915.7185232472195,796.8954377834593 M915.7185232472195,796.8954377834593" close="False" data-weight="1.0" stroke-width="7" fill="none" stroke="#ff1c5d" />
<path d="M932.625,681.0795923149514 C932.625,692.1022961574756,932.625,714.1477038425244,932.625,725.1704076850486" close="False" data-weight="0.0" stroke-width="7" fill="none" stroke="#ff1c5d" />
<path d="M865.5314767527807,1209.3545622165404 C857.7372481187207,1217.1487908506006,842.1487908506007,1232.7372481187206,834.3545622165407,1240.5314767527805" close="False" data-weight="0.0" stroke-width="7" fill="none" stroke="#ff1c5d" />
<path d="M871.8954377834593,1065.7185232472195 C864.1012091493993,1073.5127518812794,848.5127518812794,1089.1012091493994,840.7185232472195,1096.8954377834593" close="False" data-weight="0.0" stroke-width="7" fill="none" stroke="#ff1c5d" />
<path d="M871.8954377834593,840.7185232472195 C864.1012091493994,848.5127518812794,848.5127518812794,864.1012091493994,840.7185232472195,871.8954377834593" close="False" data-weight="0.0" stroke-width="7" fill="none" stroke="#ff1c5d" />
<path d="M790.5314767527807,1284.3545622165404 A48.72232222128802,48.72232222128802,0,0,1,774.7248178153919,1294.9162340553796 M774.7248178153919,1294.9162340553796 A48.72232222128969,48.72232222128969,0,0,1,756.0795923149514,1298.625 M756.0795923149514,1298.625" close="False" data-weight="1.0" stroke-width="7" fill="none" stroke="#ff1c5d" />
<path d="M725.1704076850486,1298.625 C714.1477038425244,1298.625,692.1022961574756,1298.625,681.0795923149514,1298.625" close="False" data-weight="0.0" stroke-width="7" fill="none" stroke="#ff1c5d" />
<path d="M719.0349025766973,987.2150974233027 A54.3198051533949,54.3198051533949,0,0,1,701.4122894815039,998.9901510378279 M701.4122894815039,998.9901510378279 A54.31980515339421,54.31980515339421,0,0,1,680.625,1003.125 M680.625,1003.125" close="False" data-weight="1.0" stroke-width="7" fill="none" stroke="#ff1c5d" />
<path d="M650.1704076850486,1298.625 A48.72232222128946,48.72232222128946,0,0,1,631.5251821846081,1294.9162340553798 M631.5251821846081,1294.9162340553798 A48.722322221287456,48.722322221287456,0,0,1,615.7185232472195,1284.3545622165407 M615.7185232472195,1284.3545622165407" close="False" data-weight="1.0" stroke-width="7" fill="none" stroke="#ff1c5d" />
<path d="M650.625,1003.125 C639.375,1003.125,616.875,1003.125,605.625,1003.125" close="False" data-weight="0.0" stroke-width="7" fill="none" stroke="#ff1c5d" />
<path d="M571.8954377834591,1240.5314767527802 C564.1012091493992,1232.7372481187203,548.5127518812794,1217.1487908506006,540.7185232472195,1209.3545622165407" close="False" data-weight="0.0" stroke-width="7" fill="none" stroke="#ff1c5d" />
<path d="M496.8954377834666,1165.5314767527875 C489.101209149403,1157.737248118724,473.51275188127573,1142.1487908505967,465.71852324721215,1134.3545622165332" close="False" data-weight="0.0" stroke-width="7" fill="none" stroke="#ff1c5d" />
<path d="M421.8954377834668,1090.5314767527877 C414.10120914940313,1082.737248118724,398.5127518812758,1067.148790850597,390.71852324721215,1059.3545622165332" close="False" data-weight="0.0" stroke-width="7" fill="none" stroke="#ff1c5d" />
<path d="M346.8954377834667,1015.5314767527877 C339.10120914940495,1007.737248118726,323.51275188128136,992.1487908506025,315.7185232472196,984.3545622165407" close="False" data-weight="0.0" stroke-width="7" fill="none" stroke="#ff1c5d" />
<path d="M998.625,1025.1704076850485 L998.625,1056.0795923149515" close="False" data-weight="1.75" stroke-width="7" fill="none" stroke="#ff1c5d" />
<path d="M998.625,950.1704076850486 L998.625,981.0795923149514" close="False" data-weight="1.75" stroke-width="7" fill="none" stroke="#ff1c5d" />
<path d="M940.5314767527805,1134.3545622165407 L984.3545622165409,1090.5314767527802" close="False" data-weight="2.060660171779821" stroke-width="7" fill="none" stroke="#ff1c5d" />
<path d="M946.8954377834593,990.7185232472195 L990.7185232472195,946.8954377834593" close="False" data-weight="2.060660171779821" stroke-width="7" fill="none" stroke="#ff1c5d" />
<path d="M932.625,725.1704076850486 L932.625,756.0795923149514" close="False" data-weight="1.75" stroke-width="7" fill="none" stroke="#ff1c5d" />
<path d="M932.625,650.1704076850486 L932.625,681.0795923149514" close="False" data-weight="1.75" stroke-width="7" fill="none" stroke="#ff1c5d" />
<path d="M937.125,573.7465906273013 L937.125,607.5034093726987" close="False" data-weight="1.75" stroke-width="7" fill="none" stroke="#ff1c5d" />
<path d="M865.5314767527805,1209.3545622165407 L909.3545622165409,1165.5314767527802" close="False" data-weight="2.060660171779821" stroke-width="7" fill="none" stroke="#ff1c5d" />
<path d="M871.8954377834593,1065.7185232472195 L915.7185232472193,1021.8954377834596" close="False" data-weight="2.060660171779821" stroke-width="7" fill="none" stroke="#ff1c5d" />
<path d="M871.8954377834593,840.7185232472195 L915.7185232472195,796.8954377834593" close="False" data-weight="2.060660171779821" stroke-width="7" fill="none" stroke="#ff1c5d" />
<path d="M790.5314767527805,1284.3545622165407 L834.3545622165409,1240.5314767527802" close="False" data-weight="2.060660171779821" stroke-width="7" fill="none" stroke="#ff1c5d" />
<path d="M782.625,1175.1704076850485 L782.625,1206.0795923149515" close="False" data-weight="1.75" stroke-width="7" fill="none" stroke="#ff1c5d" />
<path d="M796.8954377834593,1140.7185232472195 L840.7185232472193,1096.8954377834596" close="False" data-weight="2.060660171779821" stroke-width="7" fill="none" stroke="#ff1c5d" />
<path d="M796.8954377834593,915.7185232472195 L840.7185232472195,871.8954377834593" close="False" data-weight="2.060660171779821" stroke-width="7" fill="none" stroke="#ff1c5d" />
<path d="M725.1704076850486,1298.625 L756.0795923149514,1298.625" close="False" data-weight="1.75" stroke-width="7" fill="none" stroke="#ff1c5d" />
<path d="M725.1704076850486,1232.625 L756.0795923149514,1232.625" close="False" data-weight="1.75" stroke-width="7" fill="none" stroke="#ff1c5d" />
<path d="M698.625,1175.1704076850485 L698.625,1206.0795923149515" close="False" data-weight="1.75" stroke-width="7" fill="none" stroke="#ff1c5d" />
<path d="M719.0349025766973,987.2150974233027 L762.2150974233027,944.0349025766973" close="False" data-weight="2.060660171779821" stroke-width="7" fill="none" stroke="#ff1c5d" />
<path d="M650.1704076850486,1298.625 L681.0795923149514,1298.625" close="False" data-weight="1.75" stroke-width="7" fill="none" stroke="#ff1c5d" />
<path d="M644.0349025766973,1094.0349025766973 L687.2150974233027,1137.2150974233027" close="False" data-weight="2.060660171779821" stroke-width="7" fill="none" stroke="#ff1c5d" />
<path d="M650.625,1003.125 L680.625,1003.125" close="False" data-weight="1.75" stroke-width="7" fill="none" stroke="#ff1c5d" />
<path d="M571.8954377834593,1240.5314767527805 L615.7185232472193,1284.3545622165404" close="False" data-weight="2.060660171779821" stroke-width="7" fill="none" stroke="#ff1c5d" />
<path d="M575.625,1078.125 L605.625,1078.125" close="False" data-weight="1.75" stroke-width="7" fill="none" stroke="#ff1c5d" />
<path d="M553.125,1025.625 L553.125,1055.625" close="False" data-weight="1.75" stroke-width="7" fill="none" stroke="#ff1c5d" />
<path d="M575.625,1003.125 L605.625,1003.125" close="False" data-weight="1.75" stroke-width="7" fill="none" stroke="#ff1c5d" />
<path d="M496.8954377834669,1165.5314767527877 L540.718523247212,1209.354562216533" close="False" data-weight="2.060660171779821" stroke-width="7" fill="none" stroke="#ff1c5d" />
<path d="M421.8954377834669,1090.5314767527877 L465.71852324721203,1134.354562216533" close="False" data-weight="2.060660171779821" stroke-width="7" fill="none" stroke="#ff1c5d" />
<path d="M346.8954377834594,1015.5314767527805 L390.71852324721976,1059.3545622165407" close="False" data-weight="2.060660171779821" stroke-width="7" fill="none" stroke="#ff1c5d" />
<path d="M271.8954377834594,940.5314767527805 L315.7185232472197,984.3545622165408" close="False" data-weight="2.060660171779821" stroke-width="7" fill="none" stroke="#ff1c5d" />
<path d="M1165.5314767527802,834.3545622165409 C1157.7372481187203,842.1487908506008,1142.1487908506006,857.7372481187206,1134.3545622165407,865.5314767527805" close="False" data-weight="0.0" stroke-width="7" fill="none" stroke="#7cd3eb" />
<path d="M1090.5314767527802,909.3545622165409 A48.72232222128625,48.72232222128625,0,0,1,1074.724817815392,919.9162340553802 M1074.724817815392,919.9162340553802 A48.722322221287754,48.722322221287754,0,0,1,1056.0795923149515,923.625 M1056.0795923149515,923.625" close="False" data-weight="1.0" stroke-width="7" fill="none" stroke="#7cd3eb" />
<path d="M1007.625,831.0795923149514 C1007.625,842.1022961574756,1007.625,864.1477038425244,1007.625,875.1704076850486" close="False" data-weight="0.0" stroke-width="7" fill="none" stroke="#7cd3eb" />
<path d="M1007.625,756.0795923149514 C1007.625,767.1022961574756,1007.625,789.1477038425244,1007.625,800.1704076850486" close="False" data-weight="0.0" stroke-width="7" fill="none" stroke="#7cd3eb" />
<path d="M1007.625,681.0795923149514 C1007.625,692.1022961574756,1007.625,714.1477038425244,1007.625,725.1704076850486" close="False" data-weight="0.0" stroke-width="7" fill="none" stroke="#7cd3eb" />
<path d="M1007.625,606.0795923149514 C1007.625,617.1022961574756,1007.625,639.1477038425244,1007.625,650.1704076850486" close="False" data-weight="0.0" stroke-width="7" fill="none" stroke="#7cd3eb" />
<path d="M1007.625,531.0795923149514 C1007.625,542.1022961574756,1007.625,564.1477038425244,1007.625,575.1704076850486" close="False" data-weight="0.0" stroke-width="7" fill="none" stroke="#7cd3eb" />
<path d="M1007.625,456.0795923149514 C1007.625,467.10229615747573,1007.625,489.14770384252427,1007.625,500.1704076850486" close="False" data-weight="0.0" stroke-width="7" fill="none" stroke="#7cd3eb" />
<path d="M1007.625,381.0795923149514 C1007.625,392.10229615747573,1007.625,414.14770384252427,1007.625,425.1704076850486" close="False" data-weight="0.0" stroke-width="7" fill="none" stroke="#7cd3eb" />
<path d="M1007.625,306.0795923149514 C1007.625,317.10229615747573,1007.625,339.14770384252427,1007.625,350.1704076850486" close="False" data-weight="0.0" stroke-width="7" fill="none" stroke="#7cd3eb" />
<path d="M1007.625,231.07959231495138 C1007.625,242.10229615747568,1007.625,264.14770384252427,1007.625,275.1704076850486" close="False" data-weight="0.0" stroke-width="7" fill="none" stroke="#7cd3eb" />
<path d="M1021.895437783452,165.7185232472268 A48.72232222124983,48.72232222124983,0,0,0,1011.3337659446174,181.52518218461205 M1011.3337659446174,181.52518218461205 A48.72232222130219,48.72232222130219,0,0,0,1007.625,200.17040768504862 M1007.625,200.17040768504862" close="False" data-weight="1.0" stroke-width="7" fill="none" stroke="#7cd3eb" />
<path d="M1025.625,103.125 C1014.375,103.125,991.875,103.125,980.625,103.125" close="False" data-weight="0.0" stroke-width="7" fill="none" stroke="#7cd3eb" />
<path d="M923.625,756.0795923149514 A48.72232222128889,48.72232222128889,0,0,1,919.9162340553798,774.7248178153919 M919.9162340553798,774.7248178153919 A48.72232222128802,48.72232222128802,0,0,1,909.3545622165407,790.5314767527805 M909.3545622165407,790.5314767527805" close="False" data-weight="1.0" stroke-width="7" fill="none" stroke="#7cd3eb" />
<path d="M923.625,681.0795923149514 C923.625,692.1022961574756,923.625,714.1477038425244,923.625,725.1704076850486" close="False" data-weight="0.0" stroke-width="7" fill="none" stroke="#7cd3eb" />
<path d="M950.625,103.125 C939.375,103.125,916.875,103.125,905.625,103.125" close="False" data-weight="0.0" stroke-width="7" fill="none" stroke="#7cd3eb" />
<path d="M865.5314767527805,834.3545622165407 C857.7372481187206,842.1487908506006,842.1487908506006,857.7372481187206,834.3545622165407,865.5314767527805" close="False" data-weight="0.0" stroke-width="7" fill="none" stroke="#7cd3eb" />
<path d="M853.125,455.625 A54.319805153394555,54.319805153394555,0,0,0,857.2598489621722,476.412289481504 M857.2598489621722,476.412289481504 A54.31980515339474,54.31980515339474,0,0,0,869.0349025766973,494.03490257669733 M869.0349025766973,494.03490257669733" close="False" data-weight="1.0" stroke-width="7" fill="none" stroke="#7cd3eb" />
<path d="M853.125,380.625 C853.125,391.875,853.125,414.375,853.125,425.625" close="False" data-weight="0.0" stroke-width="7" fill="none" stroke="#7cd3eb" />
<path d="M853.125,305.625 C853.125,316.875,853.125,339.375,853.125,350.625" close="False" data-weight="0.0" stroke-width="7" fill="none" stroke="#7cd3eb" />
<path d="M853.125,230.625 C853.125,241.875,853.125,264.375,853.125,275.625" close="False" data-weight="0.0" stroke-width="7" fill="none" stroke="#7cd3eb" />
<path d="M875.625,103.125 C864.375,103.125,841.875,103.125,830.625,103.125" close="False" data-weight="0.0" stroke-width="7" fill="none" stroke="#7cd3eb" />
<path d="M1165.5314767527805,834.3545622165407 L1209.3545622165404,790.5314767527807" close="False" data-weight="2.060660171779821" stroke-width="7" fill="none" stroke="#7cd3eb" />
<path d="M1090.5314767527805,909.3545622165407 L1134.3545622165404,865.5314767527807" close="False" data-weight="2.060660171779821" stroke-width="7" fill="none" stroke="#7cd3eb" />
<path d="M1025.1704076850485,923.625 L1056.0795923149515,923.625" close="False" data-weight="1.75" stroke-width="7" fill="none" stroke="#7cd3eb" />
<path d="M1007.625,875.1704076850486 L1007.625,906.0795923149514" close="False" data-weight="1.75" stroke-width="7" fill="none" stroke="#7cd3eb" />
<path d="M1007.625,800.1704076850486 L1007.625,831.0795923149514" close="False" data-weight="1.75" stroke-width="7" fill="none" stroke="#7cd3eb" />
<path d="M1007.625,725.1704076850486 L1007.625,756.0795923149514" close="False" data-weight="1.75" stroke-width="7" fill="none" stroke="#7cd3eb" />
<path d="M1007.625,650.1704076850486 L1007.625,681.0795923149514" close="False" data-weight="1.75" stroke-width="7" fill="none" stroke="#7cd3eb" />
<path d="M1007.625,575.1704076850486 L1007.625,606.0795923149514" close="False" data-weight="1.75" stroke-width="7" fill="none" stroke="#7cd3eb" />
<path d="M1007.625,500.1704076850486 L1007.625,531.0795923149514" close="False" data-weight="1.75" stroke-width="7" fill="none" stroke="#7cd3eb" />
<path d="M1007.625,425.1704076850486 L1007.625,456.0795923149514" close="False" data-weight="1.75" stroke-width="7" fill="none" stroke="#7cd3eb" />
<path d="M1007.625,350.1704076850486 L1007.625,381.0795923149514" close="False" data-weight="1.75" stroke-width="7" fill="none" stroke="#7cd3eb" />
<path d="M1007.625,275.1704076850486 L1007.625,306.0795923149514" close="False" data-weight="1.75" stroke-width="7" fill="none" stroke="#7cd3eb" />
<path d="M1007.625,200.17040768504862 L1007.625,231.07959231495138" close="False" data-weight="1.75" stroke-width="7" fill="none" stroke="#7cd3eb" />
<path d="M1021.8954377834593,165.71852324721957 L1065.7185232472195,121.89543778345944" close="False" data-weight="2.060660171779821" stroke-width="7" fill="none" stroke="#7cd3eb" />
<path d="M1025.625,103.125 L1055.625,103.125" close="False" data-weight="1.75" stroke-width="7" fill="none" stroke="#7cd3eb" />
<path d="M923.625,725.1704076850486 L923.625,756.0795923149514" close="False" data-weight="1.75" stroke-width="7" fill="none" stroke="#7cd3eb" />
<path d="M923.625,650.1704076850486 L923.625,681.0795923149514" close="False" data-weight="1.75" stroke-width="7" fill="none" stroke="#7cd3eb" />
<path d="M928.125,575.625 L928.125,605.625" close="False" data-weight="1.75" stroke-width="7" fill="none" stroke="#7cd3eb" />
<path d="M950.625,103.125 L980.625,103.125" close="False" data-weight="1.75" stroke-width="7" fill="none" stroke="#7cd3eb" />
<path d="M865.5314767527805,834.3545622165407 L909.3545622165407,790.5314767527805" close="False" data-weight="2.060660171779821" stroke-width="7" fill="none" stroke="#7cd3eb" />
<path d="M869.0349025766973,494.03490257669733 L912.2150974233027,537.2150974233027" close="False" data-weight="2.060660171779821" stroke-width="7" fill="none" stroke="#7cd3eb" />
<path d="M853.125,425.625 L853.125,455.625" close="False" data-weight="1.75" stroke-width="7" fill="none" stroke="#7cd3eb" />
<path d="M853.125,350.625 L853.125,380.625" close="False" data-weight="1.75" stroke-width="7" fill="none" stroke="#7cd3eb" />
<path d="M853.125,275.625 L853.125,305.625" close="False" data-weight="1.75" stroke-width="7" fill="none" stroke="#7cd3eb" />
<path d="M853.125,200.625 L853.125,230.625" close="False" data-weight="1.75" stroke-width="7" fill="none" stroke="#7cd3eb" />
<path d="M875.625,103.125 L905.625,103.125" close="False" data-weight="1.75" stroke-width="7" fill="none" stroke="#7cd3eb" />
<path d="M790.5314767527805,909.3545622165407 L834.3545622165407,865.5314767527805" close="False" data-weight="2.060660171779821" stroke-width="7" fill="none" stroke="#7cd3eb" />
<path d="M794.0349025766973,119.03490257669732 L837.2150974233027,162.2150974233027" close="False" data-weight="2.060660171779821" stroke-width="7" fill="none" stroke="#7cd3eb" />
<path d="M800.625,103.125 L830.625,103.125" close="False" data-weight="1.75" stroke-width="7" fill="none" stroke="#7cd3eb" />
<path d="M1171.8954377834596,840.7185232472193 C1164.1012091493994,848.5127518812793,1148.5127518812794,864.1012091493993,1140.7185232472195,871.8954377834593" close="False" data-weight="0.0" stroke-width="7" fill="none" stroke="#8f0f12" />
<path d="M1096.8954377834596,915.7185232472193 A57.7223222212909,57.7223222212909,0,0,1,1078.1689687066778,928.2311498479813 M1078.1689687066778,928.2311498479813 A57.72232222128639,57.72232222128639,0,0,1,1056.0795923149515,932.625 M1056.0795923149515,932.625" close="False" data-weight="1.0" stroke-width="7" fill="none" stroke="#8f0f12" />
<path d="M940.5314767527805,984.3545622165407 C932.7372481187206,992.1487908506006,917.1487908506007,1007.7372481187206,909.3545622165407,1015.5314767527805" close="False" data-weight="0.0" stroke-width="7" fill="none" stroke="#8f0f12" />
<path d="M865.5314767527805,1059.3545622165407 C857.7372481187206,1067.1487908506006,842.1487908506007,1082.7372481187206,834.3545622165407,1090.5314767527805" close="False" data-weight="0.0" stroke-width="7" fill="none" stroke="#8f0f12" />
<path d="M1171.8954377834593,840.7185232472195 L1215.7185232472198,796.8954377834591" close="False" data-weight="2.060660171779821" stroke-width="7" fill="none" stroke="#8f0f12" />
<path d="M1096.8954377834593,915.7185232472195 L1140.7185232472198,871.8954377834591" close="False" data-weight="2.060660171779821" stroke-width="7" fill="none" stroke="#8f0f12" />
<path d="M1025.1704076850485,932.625 L1056.0795923149515,932.625" close="False" data-weight="1.75" stroke-width="7" fill="none" stroke="#8f0f12" />
<path d="M940.5314767527805,984.3545622165407 L984.3545622165407,940.5314767527805" close="False" data-weight="2.060660171779821" stroke-width="7" fill="none" stroke="#8f0f12" />
<path d="M865.5314767527805,1059.3545622165407 L909.3545622165409,1015.5314767527802" close="False" data-weight="2.060660171779821" stroke-width="7" fill="none" stroke="#8f0f12" />
<path d="M773.625,1175.1704076850485 L773.625,1206.0795923149515" close="False" data-weight="1.75" stroke-width="7" fill="none" stroke="#8f0f12" />
<path d="M790.5314767527805,1134.3545622165407 L834.3545622165409,1090.5314767527802" close="False" data-weight="2.060660171779821" stroke-width="7" fill="none" stroke="#8f0f12" />
<path d="M725.1704076850486,1223.625 L756.0795923149514,1223.625" close="False" data-weight="1.75" stroke-width="7" fill="none" stroke="#8f0f12" />
<path d="M707.625,1175.1704076850485 L707.625,1206.0795923149515" close="False" data-weight="1.75" stroke-width="7" fill="none" stroke="#8f0f12" />
<path d="M1007.625,1056.0795923149515 A57.72232222128628,57.72232222128628,0,0,1,1003.2311498479812,1078.1689687066778 M1003.2311498479812,1078.1689687066778 A57.72232222129018,57.72232222129018,0,0,1,990.7185232472195,1096.8954377834593 M990.7185232472195,1096.8954377834593" close="False" data-weight="1.0" stroke-width="7" fill="none" stroke="#90ea66" />
<path d="M1007.625,981.0795923149514 C1007.625,992.1022961574756,1007.625,1014.1477038425243,1007.625,1025.1704076850485" close="False" data-weight="0.0" stroke-width="7" fill="none" stroke="#90ea66" />
<path d="M998.625,906.0795923149514 C998.625,917.3295923149514,1007.625,938.9204076850486,1007.625,950.1704076850486" close="False" data-weight="0.0" stroke-width="7" fill="none" stroke="#90ea66" />
<path d="M998.625,831.0795923149514 C998.625,842.1022961574756,998.625,864.1477038425244,998.625,875.1704076850486" close="False" data-weight="0.0" stroke-width="7" fill="none" stroke="#90ea66" />
<path d="M998.625,756.0795923149514 C998.625,767.1022961574756,998.625,789.1477038425244,998.625,800.1704076850486" close="False" data-weight="0.0" stroke-width="7" fill="none" stroke="#90ea66" />
<path d="M998.625,681.0795923149514 C998.625,692.1022961574756,998.625,714.1477038425244,998.625,725.1704076850486" close="False" data-weight="0.0" stroke-width="7" fill="none" stroke="#90ea66" />
<path d="M998.625,606.0795923149514 C998.625,617.1022961574756,998.625,639.1477038425244,998.625,650.1704076850486" close="False" data-weight="0.0" stroke-width="7" fill="none" stroke="#90ea66" />
<path d="M998.625,531.0795923149514 C998.625,542.1022961574756,998.625,564.1477038425244,998.625,575.1704076850486" close="False" data-weight="0.0" stroke-width="7" fill="none" stroke="#90ea66" />
<path d="M998.625,456.0795923149514 C998.625,467.10229615747573,998.625,489.14770384252427,998.625,500.1704076850486" close="False" data-weight="0.0" stroke-width="7" fill="none" stroke="#90ea66" />
<path d="M998.625,381.0795923149514 C998.625,392.10229615747573,998.625,414.14770384252427,998.625,425.1704076850486" close="False" data-weight="0.0" stroke-width="7" fill="none" stroke="#90ea66" />
<path d="M998.625,306.0795923149514 C998.625,317.10229615747573,998.625,339.14770384252427,998.625,350.1704076850486" close="False" data-weight="0.0" stroke-width="7" fill="none" stroke="#90ea66" />
<path d="M998.625,231.07959231495138 C998.625,242.10229615747568,998.625,264.14770384252427,998.625,275.1704076850486" close="False" data-weight="0.0" stroke-width="7" fill="none" stroke="#90ea66" />
<path d="M1015.5314767527877,159.35456221653334 A57.72232222132722,57.72232222132722,0,0,0,1003.0188501520213,178.08103129331826 M1003.0188501520213,178.08103129331826 A57.72232222127445,57.72232222127445,0,0,0,998.625,200.17040768504862 M998.625,200.17040768504862" close="False" data-weight="1.0" stroke-width="7" fill="none" stroke="#90ea66" />
<path d="M946.8954377834591,1140.7185232472198 C939.1012091493992,1148.5127518812797,923.5127518812794,1164.1012091493994,915.7185232472195,1171.8954377834593" close="False" data-weight="0.0" stroke-width="7" fill="none" stroke="#90ea66" />
<path d="M871.8954377834591,1215.7185232472198 C864.1012091493992,1223.5127518812797,848.5127518812794,1239.1012091493994,840.7185232472195,1246.8954377834593" close="False" data-weight="0.0" stroke-width="7" fill="none" stroke="#90ea66" />
<path d="M796.8954377834591,1290.7185232472198 A57.722322221287364,57.722322221287364,0,0,1,778.1689687066776,1303.2311498479814 M778.1689687066776,1303.2311498479814 A57.72232222128878,57.72232222128878,0,0,1,756.0795923149514,1307.625 M756.0795923149514,1307.625" close="False" data-weight="1.0" stroke-width="7" fill="none" stroke="#90ea66" />
<path d="M725.1704076850486,1307.625 C714.1477038425244,1307.625,692.1022961574756,1307.625,681.0795923149514,1307.625" close="False" data-weight="0.0" stroke-width="7" fill="none" stroke="#90ea66" />
<path d="M650.1704076850486,1307.625 A57.72232222128923,57.72232222128923,0,0,1,628.0810312933222,1303.2311498479814 M628.0810312933222,1303.2311498479814 A57.722322221289616,57.722322221289616,0,0,1,609.3545622165407,1290.7185232472195 M609.3545622165407,1290.7185232472195" close="False" data-weight="1.0" stroke-width="7" fill="none" stroke="#90ea66" />
<path d="M565.5314767527807,1246.8954377834596 C557.7372481187207,1239.1012091493994,542.1487908506007,1223.5127518812794,534.3545622165407,1215.7185232472195" close="False" data-weight="0.0" stroke-width="7" fill="none" stroke="#90ea66" />
<path d="M490.5314767527732,1171.8954377834523 C482.7372481187169,1164.101209149396,467.14879085060437,1148.5127518812833,459.35456221654806,1140.718523247227" close="False" data-weight="0.0" stroke-width="7" fill="none" stroke="#90ea66" />
<path d="M415.531476752773,1096.895437783452 C407.73724811871676,1089.1012091493958,392.1487908506043,1073.5127518812833,384.35456221654806,1065.718523247227" close="False" data-weight="0.0" stroke-width="7" fill="none" stroke="#90ea66" />
<path d="M340.53147675277313,1021.895437783452 C332.737248118715,1014.1012091493939,317.14879085059874,998.5127518812776,309.3545622165406,990.7185232472195" close="False" data-weight="0.0" stroke-width="7" fill="none" stroke="#90ea66" />
<path d="M1007.625,1025.1704076850485 L1007.625,1056.0795923149515" close="False" data-weight="1.75" stroke-width="7" fill="none" stroke="#90ea66" />
<path d="M1007.625,950.1704076850486 L1007.625,981.0795923149514" close="False" data-weight="1.75" stroke-width="7" fill="none" stroke="#90ea66" />
<path d="M998.625,875.1704076850486 L998.625,906.0795923149514" close="False" data-weight="1.75" stroke-width="7" fill="none" stroke="#90ea66" />
<path d="M998.625,800.1704076850486 L998.625,831.0795923149514" close="False" data-weight="1.75" stroke-width="7" fill="none" stroke="#90ea66" />
<path d="M998.625,725.1704076850486 L998.625,756.0795923149514" close="False" data-weight="1.75" stroke-width="7" fill="none" stroke="#90ea66" />
<path d="M998.625,650.1704076850486 L998.625,681.0795923149514" close="False" data-weight="1.75" stroke-width="7" fill="none" stroke="#90ea66" />
<path d="M998.625,575.1704076850486 L998.625,606.0795923149514" close="False" data-weight="1.75" stroke-width="7" fill="none" stroke="#90ea66" />
<path d="M998.625,500.1704076850486 L998.625,531.0795923149514" close="False" data-weight="1.75" stroke-width="7" fill="none" stroke="#90ea66" />
<path d="M998.625,425.1704076850486 L998.625,456.0795923149514" close="False" data-weight="1.75" stroke-width="7" fill="none" stroke="#90ea66" />
<path d="M998.625,350.1704076850486 L998.625,381.0795923149514" close="False" data-weight="1.75" stroke-width="7" fill="none" stroke="#90ea66" />
<path d="M998.625,275.1704076850486 L998.625,306.0795923149514" close="False" data-weight="1.75" stroke-width="7" fill="none" stroke="#90ea66" />
<path d="M998.625,200.17040768504862 L998.625,231.07959231495138" close="False" data-weight="1.75" stroke-width="7" fill="none" stroke="#90ea66" />
<path d="M1015.5314767527805,159.35456221654064 L1059.3545622165407,115.53147675278034" close="False" data-weight="2.060660171779821" stroke-width="7" fill="none" stroke="#90ea66" />
<path d="M946.8954377834593,1140.7185232472195 L990.7185232472193,1096.8954377834596" close="False" data-weight="2.060660171779821" stroke-width="7" fill="none" stroke="#90ea66" />
<path d="M871.8954377834593,1215.7185232472195 L915.7185232472193,1171.8954377834596" close="False" data-weight="2.060660171779821" stroke-width="7" fill="none" stroke="#90ea66" />
<path d="M796.8954377834593,1290.7185232472195 L840.7185232472193,1246.8954377834596" close="False" data-weight="2.060660171779821" stroke-width="7" fill="none" stroke="#90ea66" />
<path d="M725.1704076850486,1307.625 L756.0795923149514,1307.625" close="False" data-weight="1.75" stroke-width="7" fill="none" stroke="#90ea66" />
<path d="M650.1704076850486,1307.625 L681.0795923149514,1307.625" close="False" data-weight="1.75" stroke-width="7" fill="none" stroke="#90ea66" />
<path d="M565.5314767527805,1246.8954377834593 L609.3545622165409,1290.7185232472198" close="False" data-weight="2.060660171779821" stroke-width="7" fill="none" stroke="#90ea66" />
<path d="M490.5314767527729,1171.895437783452 L534.3545622165482,1215.7185232472273" close="False" data-weight="2.060660171779821" stroke-width="7" fill="none" stroke="#90ea66" />
<path d="M415.5314767527729,1096.895437783452 L459.3545622165482,1140.7185232472273" close="False" data-weight="2.060660171779821" stroke-width="7" fill="none" stroke="#90ea66" />
<path d="M340.5314767527804,1021.8954377834593 L384.3545622165405,1065.7185232472195" close="False" data-weight="2.060660171779821" stroke-width="7" fill="none" stroke="#90ea66" />
<path d="M265.5314767527804,946.8954377834593 L309.3545622165405,990.7185232472194" close="False" data-weight="2.060660171779821" stroke-width="7" fill="none" stroke="#90ea66" />
<path d="M875.625,628.125 C864.375,628.125,841.875,628.125,830.625,628.125" close="False" data-weight="0.0" stroke-width="7" fill="none" stroke="#35618f" />
<path d="M800.625,628.125 C789.375,628.125,766.875,628.125,755.625,628.125" close="False" data-weight="0.0" stroke-width="7" fill="none" stroke="#35618f" />
<path d="M725.625,628.125 C714.375,628.125,691.875,628.125,680.625,628.125" close="False" data-weight="0.0" stroke-width="7" fill="none" stroke="#35618f" />
<path d="M650.625,628.125 C639.375,628.125,616.875,628.125,605.625,628.125" close="False" data-weight="0.0" stroke-width="7" fill="none" stroke="#35618f" />
<path d="M575.625,628.125 C564.375,628.125,541.875,628.125,530.625,628.125" close="False" data-weight="0.0" stroke-width="7" fill="none" stroke="#35618f" />
<path d="M500.625,628.125 C489.375,628.125,466.875,628.125,455.625,628.125" close="False" data-weight="0.0" stroke-width="7" fill="none" stroke="#35618f" />
<path d="M919.125,573.7465906273013 L919.125,607.5034093726987" close="False" data-weight="1.75" stroke-width="7" fill="none" stroke="#35618f" />
<path d="M875.625,628.125 L905.625,628.125" close="False" data-weight="1.75" stroke-width="7" fill="none" stroke="#35618f" />
<path d="M800.625,628.125 L830.625,628.125" close="False" data-weight="1.75" stroke-width="7" fill="none" stroke="#35618f" />
<path d="M725.625,628.125 L755.625,628.125" close="False" data-weight="1.75" stroke-width="7" fill="none" stroke="#35618f" />
<path d="M650.625,628.125 L680.625,628.125" close="False" data-weight="1.75" stroke-width="7" fill="none" stroke="#35618f" />
<path d="M575.625,628.125 L605.625,628.125" close="False" data-weight="1.75" stroke-width="7" fill="none" stroke="#35618f" />
<path d="M500.625,628.125 L530.625,628.125" close="False" data-weight="1.75" stroke-width="7" fill="none" stroke="#35618f" />
<path d="M425.625,628.125 L455.625,628.125" close="False" data-weight="1.75" stroke-width="7" fill="none" stroke="#35618f" />
<path d="M350.625,628.125 L380.625,628.125" close="False" data-weight="1.75" stroke-width="7" fill="none" stroke="#35618f" />
<image x="1195.625" y="745.625" width="65" height="65" xlink:href="designspace-test/./img/ds_dataset0_20_3_thumb.png" data-node="True" data-id="3" />
<image x="1045.625" y="70.625" width="65" height="65" xlink:href="designspace-test/./img/ds_dataset0_20_2_thumb.png" data-node="True" data-id="2" />
<image x="970.625" y="895.625" width="65" height="65" xlink:href="designspace-test/./img/ds_dataset0_20_19_thumb.png" data-node="True" data-id="19" />
<image x="895.625" y="595.625" width="65" height="65" xlink:href="designspace-test/./img/ds_dataset0_20_4_thumb.png" data-node="True" data-id="4" />
<image x="895.625" y="520.625" width="65" height="65" xlink:href="designspace-test/./img/ds_dataset0_20_15_thumb.png" data-node="True" data-id="15" />
<image x="820.625" y="145.625" width="65" height="65" xlink:href="designspace-test/./img/ds_dataset0_20_16_thumb.png" data-node="True" data-id="16" />
<image x="820.625" y="70.625" width="65" height="65" xlink:href="designspace-test/./img/ds_dataset0_20_11_thumb.png" data-node="True" data-id="11" />
<image x="745.625" y="1195.625" width="65" height="65" xlink:href="designspace-test/./img/ds_dataset0_20_8_thumb.png" data-node="True" data-id="8" />
<image x="745.625" y="1120.625" width="65" height="65" xlink:href="designspace-test/./img/ds_dataset0_20_14_thumb.png" data-node="True" data-id="14" />
<image x="745.625" y="895.625" width="65" height="65" xlink:href="designspace-test/./img/ds_dataset0_20_7_thumb.png" data-node="True" data-id="7" />
<image x="745.625" y="70.625" width="65" height="65" xlink:href="designspace-test/./img/ds_dataset0_20_13_thumb.png" data-node="True" data-id="13" />
<image x="670.625" y="1195.625" width="65" height="65" xlink:href="designspace-test/./img/ds_dataset0_20_12_thumb.png" data-node="True" data-id="12" />
<image x="670.625" y="1120.625" width="65" height="65" xlink:href="designspace-test/./img/ds_dataset0_20_0_thumb.png" data-node="True" data-id="0" />
<image x="595.625" y="1045.625" width="65" height="65" xlink:href="designspace-test/./img/ds_dataset0_20_10_thumb.png" data-node="True" data-id="10" />
<image x="520.625" y="1045.625" width="65" height="65" xlink:href="designspace-test/./img/ds_dataset0_20_17_thumb.png" data-node="True" data-id="17" />
<image x="520.625" y="970.625" width="65" height="65" xlink:href="designspace-test/./img/ds_dataset0_20_5_thumb.png" data-node="True" data-id="5" />
<image x="520.625" y="70.625" width="65" height="65" xlink:href="designspace-test/./img/ds_dataset0_20_6_thumb.png" data-node="True" data-id="6" />
<image x="370.625" y="595.625" width="65" height="65" xlink:href="designspace-test/./img/ds_dataset0_20_9_thumb.png" data-node="True" data-id="9" />
<image x="295.625" y="595.625" width="65" height="65" xlink:href="designspace-test/./img/ds_dataset0_20_1_thumb.png" data-node="True" data-id="1" />
<image x="220.625" y="895.625" width="65" height="65" xlink:href="designspace-test/./img/ds_dataset0_20_18_thumb.png" data-node="True" data-id="18" />
</svg>