<?xml version="1.0" encoding="UTF-8"?>
<svg xmlns="http://www.w3.org/2000/svg" xmlns:xlink="http://www.w3.org/1999/xlink"
     width="2550" height="2550" viewBox="0 0 2550 2550">
<defs>
</defs>
<path d="M2432.125,1130.9834101745155 A57.454526449181685,57.454526449181685,0,0,1,2427.751534587345,1152.970305561001 M2427.751534587345,1152.970305561001 A57.45452644919593,57.45452644919593,0,0,1,2415.296958812895,1171.6098954365973 M2415.296958812895,1171.6098954365973" close="False" data-weight="1.0" stroke-width="6" fill="none" stroke="#ffff33" />
<path d="M2432.125,1055.9834101745155 C2432.125,1067.0542050872577,2432.125,1089.1957949127423,2432.125,1100.2665898254845" close="False" data-weight="0.0" stroke-width="6" fill="none" stroke="#ffff33" />
<path d="M2432.125,980.9834101745155 C2432.125,992.0542050872577,2432.125,1014.1957949127423,2432.125,1025.2665898254845" close="False" data-weight="0.0" stroke-width="6" fill="none" stroke="#ffff33" />
<path d="M2432.125,905.9834101745155 C2432.125,917.0542050872577,2432.125,939.1957949127423,2432.125,950.2665898254845" close="False" data-weight="0.0" stroke-width="6" fill="none" stroke="#ffff33" />
<path d="M2432.125,830.9834101745155 C2432.125,842.0542050872577,2432.125,864.1957949127423,2432.125,875.2665898254845" close="False" data-weight="0.0" stroke-width="6" fill="none" stroke="#ffff33" />
<path d="M2432.125,755.9834101745155 C2432.125,767.0542050872577,2432.125,789.1957949127423,2432.125,800.2665898254845" close="False" data-weight="0.0" stroke-width="6" fill="none" stroke="#ffff33" />
<path d="M2432.125,680.9834101745155 C2432.125,692.0542050872577,2432.125,714.1957949127423,2432.125,725.2665898254845" close="False" data-weight="0.0" stroke-width="6" fill="none" stroke="#ffff33" />
<path d="M2371.6098954365975,1215.2969588128951 C2363.7816612806796,1223.1251929688133,2348.1251929688433,1238.7816612806496,2340.296958812925,1246.6098954365677" close="False" data-weight="0.0" stroke-width="6" fill="none" stroke="#ffff33" />
<path d="M2369.0349025766973,569.0349025766973 C2361.0799512883486,561.0799512883486,2345.1700487116514,545.1700487116514,2337.2150974233027,537.2150974233027" close="False" data-weight="0.0" stroke-width="6" fill="none" stroke="#ffff33" />
<path d="M2294.0349025766973,494.03490257669733 C2286.0799512883486,486.0799512883487,2270.1700487116514,470.1700487116513,2262.2150974233027,462.21509742330267" close="False" data-weight="0.0" stroke-width="6" fill="none" stroke="#ffff33" />
<path d="M2219.0349025766973,419.03490257669733 C2211.0799512883486,411.0799512883487,2195.1700487116514,395.1700487116513,2187.2150974233027,387.21509742330267" close="False" data-weight="0.0" stroke-width="6" fill="none" stroke="#ffff33" />
<path d="M2144.0349025766973,344.03490257669733 A54.31980515340254,54.31980515340254,0,0,0,2126.4122894815036,332.2598489621721 M2126.4122894815036,332.2598489621721 A54.31980515339063,54.31980515339063,0,0,0,2105.625,328.125 M2105.625,328.125" close="False" data-weight="1.0" stroke-width="6" fill="none" stroke="#ffff33" />
<path d="M2075.625,328.125 C2064.375,328.125,2041.875,328.125,2030.625,328.125" close="False" data-weight="0.0" stroke-width="6" fill="none" stroke="#ffff33" />
<path d="M2000.625,328.125 C1989.375,328.125,1966.875,328.125,1955.625,328.125" close="False" data-weight="0.0" stroke-width="6" fill="none" stroke="#ffff33" />
<path d="M1925.625,328.125 C1914.375,328.125,1891.875,328.125,1880.625,328.125" close="False" data-weight="0.0" stroke-width="6" fill="none" stroke="#ffff33" />
<path d="M1850.625,328.125 C1839.375,328.125,1816.875,328.125,1805.625,328.125" close="False" data-weight="0.0" stroke-width="6" fill="none" stroke="#ffff33" />
<path d="M1775.625,328.125 C1764.375,328.125,1741.875,328.125,1730.625,328.125" close="False" data-weight="0.0" stroke-width="6" fill="none" stroke="#ffff33" />
<path d="M1700.625,328.125 C1689.375,328.125,1666.875,328.125,1655.625,328.125" close="False" data-weight="0.0" stroke-width="6" fill="none" stroke="#ffff33" />
<path d="M1625.625,328.125 C1614.375,328.125,1591.875,328.125,1580.625,328.125" close="False" data-weight="0.0" stroke-width="6" fill="none" stroke="#ffff33" />
<path d="M1550.625,328.125 C1539.375,328.125,1516.875,328.125,1505.625,328.125" close="False" data-weight="0.0" stroke-width="6" fill="none" stroke="#ffff33" />
<path d="M2432.125,1100.2665898254845 L2432.125,1130.9834101745155" close="False" data-weight="1.75" stroke-width="6" fill="none" stroke="#ffff33" />
<path d="M2432.125,1025.2665898254845 L2432.125,1055.9834101745155" close="False" data-weight="1.75" stroke-width="6" fill="none" stroke="#ffff33" />
<path d="M2432.125,950.2665898254845 L2432.125,980.9834101745155" close="False" data-weight="1.75" stroke-width="6" fill="none" stroke="#ffff33" />
<path d="M2432.125,875.2665898254845 L2432.125,905.9834101745155" close="False" data-weight="1.75" stroke-width="6" fill="none" stroke="#ffff33" />
<path d="M2432.125,800.2665898254845 L2432.125,830.9834101745155" close="False" data-weight="1.75" stroke-width="6" fill="none" stroke="#ffff33" />
<path d="M2432.125,725.2665898254845 L2432.125,755.9834101745155" close="False" data-weight="1.75" stroke-width="6" fill="none" stroke="#ffff33" />
<path d="M2432.125,650.2665898254845 L2432.125,680.9834101745155" close="False" data-weight="1.75" stroke-width="6" fill="none" stroke="#ffff33" />
<path d="M2371.6098954365675,1215.2969588129247 L2415.296958812925,1171.6098954365677" close="False" data-weight="2.060660171779821" stroke-width="6" fill="none" stroke="#ffff33" />
<path d="M2369.0349025766973,569.0349025766973 L2412.2150974233027,612.2150974233027" close="False" data-weight="2.060660171779821" stroke-width="6" fill="none" stroke="#ffff33" />
<path d="M2296.6098954365675,1290.2969588129247 L2340.296958812925,1246.6098954365677" close="False" data-weight="2.060660171779821" stroke-width="6" fill="none" stroke="#ffff33" />
<path d="M2294.0349025766973,494.03490257669733 L2337.2150974233027,537.2150974233027" close="False" data-weight="2.060660171779821" stroke-width="6" fill="none" stroke="#ffff33" />
<path d="M2219.0349025766973,419.03490257669733 L2262.2150974233027,462.21509742330267" close="False" data-weight="2.060660171779821" stroke-width="6" fill="none" stroke="#ffff33" />
<path d="M2144.0349025766973,344.03490257669733 L2187.2150974233027,387.21509742330267" close="False" data-weight="2.060660171779821" stroke-width="6" fill="none" stroke="#ffff33" />
<path d="M2075.625,328.125 L2105.625,328.125" close="False" data-weight="1.75" stroke-width="6" fill="none" stroke="#ffff33" />
<path d="M2000.625,328.125 L2030.625,328.125" close="False" data-weight="1.75" stroke-width="6" fill="none" stroke="#ffff33" />
<path d="M1925.625,328.125 L1955.625,328.125" close="False" data-weight="1.75" stroke-width="6" fill="none" stroke="#ffff33" />
<path d="M1850.625,328.125 L1880.625,328.125" close="False" data-weight="1.75" stroke-width="6" fill="none" stroke="#ffff33" />
<path d="M1775.625,328.125 L1805.625,328.125" close="False" data-weight="1.75" stroke-width="6" fill="none" stroke="#ffff33" />
<path d="M1700.625,328.125 L1730.625,328.125" close="False" data-weight="1.75" stroke-width="6" fill="none" stroke="#ffff33" />
<path d="M1625.625,328.125 L1655.625,328.125" close="False" data-weight="1.75" stroke-width="6" fill="none" stroke="#ffff33" />
<path d="M1550.625,328.125 L1580.625,328.125" close="False" data-weight="1.75" stroke-width="6" fill="none" stroke="#ffff33" />
<path d="M1475.625,328.125 L1505.625,328.125" close="False" data-weight="1.75" stroke-width="6" fill="none" stroke="#ffff33" />
<path d="M2221.609895436627,1365.2969588128653 C2213.7816612806864,1373.1251929688058,2198.125192968806,1388.7816612806866,2190.2969588128653,1396.609895436627" close="False" data-weight="0.0" stroke-width="6" fill="none" stroke="#984ea3" />
<path d="M2132.125,1580.9834101745155 C2132.125,1592.0542050872577,2132.125,1614.1957949127423,2132.125,1625.2665898254845" close="False" data-weight="0.0" stroke-width="6" fill="none" stroke="#984ea3" />
<path d="M2132.125,1505.9834101745155 C2132.125,1517.0542050872577,2132.125,1539.1957949127423,2132.125,1550.2665898254845" close="False" data-weight="0.0" stroke-width="6" fill="none" stroke="#984ea3" />
<path d="M2146.609895436627,1440.2969588128653 A49.454526449347156,49.454526449347156,0,0,0,2135.889501672756,1456.341161897903 M2135.889501672756,1456.341161897903 A49.454526449128025,49.454526449128025,0,0,0,2132.125,1475.2665898254845 M2132.125,1475.2665898254845" close="False" data-weight="1.0" stroke-width="6" fill="none" stroke="#984ea3" />
<path d="M2221.609895436627,1365.2969588128653 L2265.296958812895,1321.6098954365973" close="False" data-weight="2.060660171779821" stroke-width="6" fill="none" stroke="#984ea3" />
<path d="M2132.125,1625.2665898254845 L2132.125,1655.9834101745155" close="False" data-weight="1.75" stroke-width="6" fill="none" stroke="#984ea3" />
<path d="M2132.125,1550.2665898254845 L2132.125,1580.9834101745155" close="False" data-weight="1.75" stroke-width="6" fill="none" stroke="#984ea3" />
<path d="M2132.125,1475.2665898254845 L2132.125,1505.9834101745155" close="False" data-weight="1.75" stroke-width="6" fill="none" stroke="#984ea3" />
<path d="M2146.6098954365975,1440.2969588128951 L2190.296958812895,1396.6098954365973" close="False" data-weight="2.060660171779821" stroke-width="6" fill="none" stroke="#984ea3" />
<path d="M2424.125,1130.9834101745155 A49.45452644918532,49.45452644918532,0,0,1,2420.360498327255,1149.9088381020804 M2420.360498327255,1149.9088381020804 A49.45452644918831,49.45452644918831,0,0,1,2409.6401045634025,1165.9530411871049 M2409.6401045634025,1165.9530411871049" close="False" data-weight="1.0" stroke-width="6" fill="none" stroke="#ff7f00" />
<path d="M2424.125,1055.9834101745155 C2424.125,1067.0542050872577,2424.125,1089.1957949127423,2424.125,1100.2665898254845" close="False" data-weight="0.0" stroke-width="6" fill="none" stroke="#ff7f00" />
<path d="M2424.125,980.9834101745155 C2424.125,992.0542050872577,2424.125,1014.1957949127423,2424.125,1025.2665898254845" close="False" data-weight="0.0" stroke-width="6" fill="none" stroke="#ff7f00" />
<path d="M2424.125,905.9834101745155 C2424.125,917.0542050872577,2424.125,939.1957949127423,2424.125,950.2665898254845" close="False" data-weight="0.0" stroke-width="6" fill="none" stroke="#ff7f00" />
<path d="M2424.125,830.9834101745155 C2424.125,842.0542050872577,2424.125,864.1957949127423,2424.125,875.2665898254845" close="False" data-weight="0.0" stroke-width="6" fill="none" stroke="#ff7f00" />
<path d="M2424.125,755.9834101745155 C2424.125,767.0542050872577,2424.125,789.1957949127423,2424.125,800.2665898254845" close="False" data-weight="0.0" stroke-width="6" fill="none" stroke="#ff7f00" />
<path d="M2424.125,680.9834101745155 C2424.125,692.0542050872577,2424.125,714.1957949127423,2424.125,725.2665898254845" close="False" data-weight="0.0" stroke-width="6" fill="none" stroke="#ff7f00" />
<path d="M2365.953041187105,1209.6401045634027 C2358.124807031172,1217.4683387193359,2342.468338719306,1233.1248070312017,2334.640104563373,1240.9530411871347" close="False" data-weight="0.0" stroke-width="6" fill="none" stroke="#ff7f00" />
<path d="M2353.125,950.625 A54.3198051533991,54.3198051533991,0,0,0,2348.990151037828,929.8377105184959 M2348.990151037828,929.8377105184959 A54.319805153386056,54.319805153386056,0,0,0,2337.2150974233027,912.2150974233027 M2337.2150974233027,912.2150974233027" close="False" data-weight="1.0" stroke-width="6" fill="none" stroke="#ff7f00" />
<path d="M2375.625,628.125 C2364.375,628.125,2341.875,628.125,2330.625,628.125" close="False" data-weight="0.0" stroke-width="6" fill="none" stroke="#ff7f00" />
<path d="M2294.0349025766973,869.0349025766973 A54.31980515340254,54.31980515340254,0,0,0,2276.4122894815036,857.2598489621721 M2276.4122894815036,857.2598489621721 A54.319805153390575,54.319805153390575,0,0,0,2255.625,853.125 M2255.625,853.125" close="False" data-weight="1.0" stroke-width="6" fill="none" stroke="#ff7f00" />
<path d="M2300.625,628.125 A54.31980515339296,54.31980515339296,0,0,0,2279.8377105184964,632.2598489621722 M2279.8377105184964,632.2598489621722 A54.31980515340005,54.31980515340005,0,0,0,2262.2150974233027,644.0349025766973 M2262.2150974233027,644.0349025766973" close="False" data-weight="1.0" stroke-width="6" fill="none" stroke="#ff7f00" />
<path d="M2215.953041187075,1359.6401045634323 C2208.1248070311644,1367.468338719343,2192.468338719343,1383.1248070311647,2184.6401045634325,1390.9530411870753" close="False" data-weight="0.0" stroke-width="6" fill="none" stroke="#ff7f00" />
<path d="M2203.125,755.625 C2203.125,766.875,2203.125,789.375,2203.125,800.625" close="False" data-weight="0.0" stroke-width="6" fill="none" stroke="#ff7f00" />
<path d="M2132.125,1730.9834101745155 C2132.125,1742.0542050872577,2132.125,1764.1957949127423,2132.125,1775.2665898254845" close="False" data-weight="0.0" stroke-width="6" fill="none" stroke="#ff7f00" />
<path d="M2124.125,1580.9834101745155 C2124.125,1592.0542050872577,2124.125,1614.1957949127423,2124.125,1625.2665898254845" close="False" data-weight="0.0" stroke-width="6" fill="none" stroke="#ff7f00" />
<path d="M2124.125,1505.9834101745155 C2124.125,1517.0542050872577,2124.125,1539.1957949127423,2124.125,1550.2665898254845" close="False" data-weight="0.0" stroke-width="6" fill="none" stroke="#ff7f00" />
<path d="M2140.953041187075,1434.6401045634323 A57.45452644903017,57.45452644903017,0,0,0,2128.4984654126433,1453.2796944390152 M2128.4984654126433,1453.2796944390152 A57.45452644924217,57.45452644924217,0,0,0,2124.125,1475.2665898254845 M2124.125,1475.2665898254845" close="False" data-weight="1.0" stroke-width="6" fill="none" stroke="#ff7f00" />
<path d="M2075.625,1828.125 C2064.375,1828.125,2041.875,1828.125,2030.625,1828.125" close="False" data-weight="0.0" stroke-width="6" fill="none" stroke="#ff7f00" />
<path d="M2075.625,1003.125 C2064.375,1003.125,2041.875,1003.125,2030.625,1003.125" close="False" data-weight="0.0" stroke-width="6" fill="none" stroke="#ff7f00" />
<path d="M2000.625,1828.125 C1989.375,1828.125,1966.875,1828.125,1955.625,1828.125" close="False" data-weight="0.0" stroke-width="6" fill="none" stroke="#ff7f00" />
<path d="M2000.625,1003.125 A54.31980515339296,54.31980515339296,0,0,0,1979.837710518496,1007.2598489621724 M1979.837710518496,1007.2598489621724 A54.31980515339619,54.31980515339619,0,0,0,1962.2150974233027,1019.0349025766973 M1962.2150974233027,1019.0349025766973" close="False" data-weight="1.0" stroke-width="6" fill="none" stroke="#ff7f00" />
<path d="M1978.125,830.625 C1978.125,841.875,1978.125,864.375,1978.125,875.625" close="False" data-weight="0.0" stroke-width="6" fill="none" stroke="#ff7f00" />
<path d="M1925.625,1828.125 C1914.375,1828.125,1891.875,1828.125,1880.625,1828.125" close="False" data-weight="0.0" stroke-width="6" fill="none" stroke="#ff7f00" />
<path d="M1919.0349025766973,987.2150974233027 A54.31980515339554,54.31980515339554,0,0,0,1907.259848962172,1004.837710518496 M1907.259848962172,1004.837710518496 A54.319805153393645,54.319805153393645,0,0,0,1903.125,1025.625 M1903.125,1025.625" close="False" data-weight="1.0" stroke-width="6" fill="none" stroke="#ff7f00" />
<path d="M1850.625,1828.125 C1839.375,1828.125,1816.875,1828.125,1805.625,1828.125" close="False" data-weight="0.0" stroke-width="6" fill="none" stroke="#ff7f00" />
<path d="M1775.625,1828.125 C1764.375,1828.125,1741.875,1828.125,1730.625,1828.125" close="False" data-weight="0.0" stroke-width="6" fill="none" stroke="#ff7f00" />
<path d="M1700.625,1828.125 C1689.375,1828.125,1666.875,1828.125,1655.625,1828.125" close="False" data-weight="0.0" stroke-width="6" fill="none" stroke="#ff7f00" />
<path d="M1694.0349025766973,644.0349025766973 C1686.0799512883486,636.0799512883486,1670.1700487116514,620.1700487116514,1662.2150974233027,612.2150974233027" close="False" data-weight="0.0" stroke-width="6" fill="none" stroke="#ff7f00" />
<path d="M1625.625,1828.125 C1614.375,1828.125,1591.875,1828.125,1580.625,1828.125" close="False" data-weight="0.0" stroke-width="6" fill="none" stroke="#ff7f00" />
<path d="M1619.0349025766973,569.0349025766973 C1611.0799512883486,561.0799512883486,1595.1700487116514,545.1700487116514,1587.2150974233027,537.2150974233027" close="False" data-weight="0.0" stroke-width="6" fill="none" stroke="#ff7f00" />
<path d="M1550.625,1828.125 C1539.375,1828.125,1516.875,1828.125,1505.625,1828.125" close="False" data-weight="0.0" stroke-width="6" fill="none" stroke="#ff7f00" />
<path d="M1550.625,1228.125 C1539.375,1228.125,1516.875,1228.125,1505.625,1228.125" close="False" data-weight="0.0" stroke-width="6" fill="none" stroke="#ff7f00" />
<path d="M1544.0349025766973,494.03490257669733 C1536.0799512883486,486.0799512883487,1520.1700487116514,470.1700487116513,1512.2150974233027,462.21509742330267" close="False" data-weight="0.0" stroke-width="6" fill="none" stroke="#ff7f00" />
<path d="M1475.625,1828.125 C1464.375,1828.125,1441.875,1828.125,1430.625,1828.125" close="False" data-weight="0.0" stroke-width="6" fill="none" stroke="#ff7f00" />
<path d="M1469.0349025766973,1362.2150974233027 C1461.0799512883486,1370.1700487116514,1445.1700487116514,1386.0799512883486,1437.2150974233027,1394.0349025766973" close="False" data-weight="0.0" stroke-width="6" fill="none" stroke="#ff7f00" />
<path d="M1475.625,1228.125 C1464.375,1228.125,1441.875,1228.125,1430.625,1228.125" close="False" data-weight="0.0" stroke-width="6" fill="none" stroke="#ff7f00" />
<path d="M1453.125,380.625 A54.3198051533966,54.3198051533966,0,0,0,1457.259848962172,401.4122894815041 M1457.259848962172,401.4122894815041 A54.31980515339265,54.31980515339265,0,0,0,1469.0349025766973,419.03490257669733 M1469.0349025766973,419.03490257669733" close="False" data-weight="1.0" stroke-width="6" fill="none" stroke="#ff7f00" />
<path d="M1394.0349025766973,1437.2150974233027 C1386.0799512883486,1445.1700487116514,1370.1700487116514,1461.0799512883486,1362.2150974233027,1469.0349025766973" close="False" data-weight="0.0" stroke-width="6" fill="none" stroke="#ff7f00" />
<path d="M1400.625,1228.125 A54.31980515339569,54.31980515339569,0,0,1,1379.837710518496,1223.9901510378277 M1379.837710518496,1223.9901510378277 A54.3198051533933,54.3198051533933,0,0,1,1362.2150974233027,1212.2150974233027 M1362.2150974233027,1212.2150974233027" close="False" data-weight="1.0" stroke-width="6" fill="none" stroke="#ff7f00" />
<path d="M1325.2665898254845,1824.125 C1314.1957949127423,1824.125,1292.0542050872577,1824.125,1280.9834101745155,1824.125" close="False" data-weight="0.0" stroke-width="6" fill="none" stroke="#ff7f00" />
<path d="M1319.0349025766973,1512.2150974233027 C1311.0799512883486,1520.1700487116514,1295.1700487116514,1536.0799512883486,1287.2150974233027,1544.0349025766973" close="False" data-weight="0.0" stroke-width="6" fill="none" stroke="#ff7f00" />
<path d="M1299.125,1100.2665898254845 A49.45452644918828,49.45452644918828,0,0,0,1295.360498327255,1081.3411618979196 M1295.360498327255,1081.3411618979196 A49.454526449185096,49.454526449185096,0,0,0,1284.6401045634027,1065.2969588128951 M1284.6401045634027,1065.2969588128951" close="False" data-weight="1.0" stroke-width="6" fill="none" stroke="#ff7f00" />
<path d="M1250.2665898254845,1824.125 A93.83039863674549,93.83039863674549,0,0,1,1229.7176985548367,1821.8472461960373 M1229.7176985548367,1821.8472461960373 A35.85816626156064,35.85816626156064,0,0,1,1212.2150974233027,1812.2150974233027 M1212.2150974233027,1812.2150974233027" close="False" data-weight="1.0" stroke-width="6" fill="none" stroke="#ff7f00" />
<path d="M1244.0349025766973,1587.2150974233027 C1236.0799512883486,1595.1700487116514,1220.1700487116514,1611.0799512883486,1212.2150974233027,1619.0349025766973" close="False" data-weight="0.0" stroke-width="6" fill="none" stroke="#ff7f00" />
<path d="M1169.0349025766973,1769.0349025766973 C1161.0799512883486,1761.0799512883486,1145.1700487116514,1745.1700487116514,1137.2150974233027,1737.2150974233027" close="False" data-weight="0.0" stroke-width="6" fill="none" stroke="#ff7f00" />
<path d="M1169.0349025766973,1662.2150974233027 A54.3198051533949,54.3198051533949,0,0,1,1151.412289481504,1673.9901510378277 M1151.412289481504,1673.9901510378277 A54.3198051533941,54.3198051533941,0,0,1,1130.625,1678.125 M1130.625,1678.125" close="False" data-weight="1.0" stroke-width="6" fill="none" stroke="#ff7f00" />
<path d="M1169.0349025766973,869.0349025766973 C1161.0799512883486,861.0799512883486,1145.1700487116514,845.1700487116514,1137.2150974233027,837.2150974233027" close="False" data-weight="0.0" stroke-width="6" fill="none" stroke="#ff7f00" />
<path d="M1094.0349025766973,794.0349025766973 A54.31980515339514,54.31980515339514,0,0,0,1076.412289481504,782.2598489621722 M1076.412289481504,782.2598489621722 A54.319805153393986,54.319805153393986,0,0,0,1055.625,778.125 M1055.625,778.125" close="False" data-weight="1.0" stroke-width="6" fill="none" stroke="#ff7f00" />
<path d="M1025.625,778.125 C1014.375,778.125,991.875,778.125,980.625,778.125" close="False" data-weight="0.0" stroke-width="6" fill="none" stroke="#ff7f00" />
<path d="M950.625,778.125 C939.375,778.125,916.875,778.125,905.625,778.125" close="False" data-weight="0.0" stroke-width="6" fill="none" stroke="#ff7f00" />
<path d="M875.625,778.125 C864.375,778.125,841.875,778.125,830.625,778.125" close="False" data-weight="0.0" stroke-width="6" fill="none" stroke="#ff7f00" />
<path d="M721.6098954365974,840.296958812895 C713.7816612806718,848.1251929688207,698.1251929688207,863.7816612806718,690.296958812895,871.6098954365974" close="False" data-weight="0.0" stroke-width="6" fill="none" stroke="#ff7f00" />
<path d="M646.6098954365974,915.296958812895 A57.45452644918628,57.45452644918628,0,0,1,627.9703055610012,927.7515345873452 M627.9703055610012,927.7515345873452 A57.4545264491876,57.4545264491876,0,0,1,605.9834101745155,932.125 M605.9834101745155,932.125" close="False" data-weight="1.0" stroke-width="6" fill="none" stroke="#ff7f00" />
<path d="M500.2665898254845,932.125 A57.45452644918623,57.45452644918623,0,0,1,478.2796944389989,927.7515345873452 M478.2796944389989,927.7515345873452 A57.45452644918757,57.45452644918757,0,0,1,459.6401045634026,915.296958812895 M459.6401045634026,915.296958812895" close="False" data-weight="1.0" stroke-width="6" fill="none" stroke="#ff7f00" />
<path d="M474.125,755.9834101745155 A49.45452644918532,49.45452644918532,0,0,1,470.36049832725485,774.9088381020804 M470.36049832725485,774.9088381020804 A49.45452644918847,49.45452644918847,0,0,1,459.6401045634026,790.953041187105 M459.6401045634026,790.953041187105" close="False" data-weight="1.0" stroke-width="6" fill="none" stroke="#ff7f00" />
<path d="M2424.125,1100.2665898254845 L2424.125,1130.9834101745155" close="False" data-weight="1.75" stroke-width="6" fill="none" stroke="#ff7f00" />
<path d="M2424.125,1025.2665898254845 L2424.125,1055.9834101745155" close="False" data-weight="1.75" stroke-width="6" fill="none" stroke="#ff7f00" />
<path d="M2424.125,950.2665898254845 L2424.125,980.9834101745155" close="False" data-weight="1.75" stroke-width="6" fill="none" stroke="#ff7f00" />
<path d="M2424.125,875.2665898254845 L2424.125,905.9834101745155" close="False" data-weight="1.75" stroke-width="6" fill="none" stroke="#ff7f00" />
<path d="M2424.125,800.2665898254845 L2424.125,830.9834101745155" close="False" data-weight="1.75" stroke-width="6" fill="none" stroke="#ff7f00" />
<path d="M2424.125,725.2665898254845 L2424.125,755.9834101745155" close="False" data-weight="1.75" stroke-width="6" fill="none" stroke="#ff7f00" />
<path d="M2424.125,650.2665898254845 L2424.125,680.9834101745155" close="False" data-weight="1.75" stroke-width="6" fill="none" stroke="#ff7f00" />
<path d="M2365.9530411871347,1209.640104563373 L2409.640104563373,1165.9530411871347" close="False" data-weight="2.060660171779821" stroke-width="6" fill="none" stroke="#ff7f00" />
<path d="M2353.125,950.625 L2353.125,980.625" close="False" data-weight="1.75" stroke-width="6" fill="none" stroke="#ff7f00" />
<path d="M2375.625,628.125 L2405.625,628.125" close="False" data-weight="1.75" stroke-width="6" fill="none" stroke="#ff7f00" />
<path d="M2290.9530411871347,1284.640104563373 L2334.640104563373,1240.9530411871347" close="False" data-weight="2.060660171779821" stroke-width="6" fill="none" stroke="#ff7f00" />
<path d="M2294.0349025766973,944.0349025766973 L2337.2150974233027,987.2150974233027" close="False" data-weight="2.060660171779821" stroke-width="6" fill="none" stroke="#ff7f00" />
<path d="M2294.0349025766973,869.0349025766973 L2337.2150974233027,912.2150974233027" close="False" data-weight="2.060660171779821" stroke-width="6" fill="none" stroke="#ff7f00" />
<path d="M2300.625,628.125 L2330.625,628.125" close="False" data-weight="1.75" stroke-width="6" fill="none" stroke="#ff7f00" />
<path d="M2215.953041187075,1359.6401045634323 L2259.6401045634025,1315.9530411871049" close="False" data-weight="2.060660171779821" stroke-width="6" fill="none" stroke="#ff7f00" />
<path d="M2219.0349025766973,987.2150974233027 L2262.2150974233027,944.0349025766973" close="False" data-weight="2.060660171779821" stroke-width="6" fill="none" stroke="#ff7f00" />
<path d="M2225.625,853.125 L2255.625,853.125" close="False" data-weight="1.75" stroke-width="6" fill="none" stroke="#ff7f00" />
<path d="M2203.125,800.625 L2203.125,830.625" close="False" data-weight="1.75" stroke-width="6" fill="none" stroke="#ff7f00" />
<path d="M2203.125,725.625 L2203.125,755.625" close="False" data-weight="1.75" stroke-width="6" fill="none" stroke="#ff7f00" />
<path d="M2219.0349025766973,687.2150974233027 L2262.2150974233027,644.0349025766973" close="False" data-weight="2.060660171779821" stroke-width="6" fill="none" stroke="#ff7f00" />
<path d="M2132.125,1775.2665898254845 L2132.125,1805.9834101745155" close="False" data-weight="1.75" stroke-width="6" fill="none" stroke="#ff7f00" />
<path d="M2132.125,1700.2665898254845 L2132.125,1730.9834101745155" close="False" data-weight="1.75" stroke-width="6" fill="none" stroke="#ff7f00" />
<path d="M2124.125,1625.2665898254845 L2124.125,1655.9834101745155" close="False" data-weight="1.75" stroke-width="6" fill="none" stroke="#ff7f00" />
<path d="M2124.125,1550.2665898254845 L2124.125,1580.9834101745155" close="False" data-weight="1.75" stroke-width="6" fill="none" stroke="#ff7f00" />
<path d="M2124.125,1475.2665898254845 L2124.125,1505.9834101745155" close="False" data-weight="1.75" stroke-width="6" fill="none" stroke="#ff7f00" />
<path d="M2140.953041187105,1434.6401045634027 L2184.6401045634025,1390.9530411871049" close="False" data-weight="2.060660171779821" stroke-width="6" fill="none" stroke="#ff7f00" />
<path d="M2150.625,1003.125 L2180.625,1003.125" close="False" data-weight="1.75" stroke-width="6" fill="none" stroke="#ff7f00" />
<path d="M2075.625,1828.125 L2105.625,1828.125" close="False" data-weight="1.75" stroke-width="6" fill="none" stroke="#ff7f00" />
<path d="M2075.625,1003.125 L2105.625,1003.125" close="False" data-weight="1.75" stroke-width="6" fill="none" stroke="#ff7f00" />
<path d="M2000.625,1828.125 L2030.625,1828.125" close="False" data-weight="1.75" stroke-width="6" fill="none" stroke="#ff7f00" />
<path d="M2000.625,1003.125 L2030.625,1003.125" close="False" data-weight="1.75" stroke-width="6" fill="none" stroke="#ff7f00" />
<path d="M1978.125,875.625 L1978.125,905.625" close="False" data-weight="1.75" stroke-width="6" fill="none" stroke="#ff7f00" />
<path d="M1978.125,800.625 L1978.125,830.625" close="False" data-weight="1.75" stroke-width="6" fill="none" stroke="#ff7f00" />
<path d="M1925.625,1828.125 L1955.625,1828.125" close="False" data-weight="1.75" stroke-width="6" fill="none" stroke="#ff7f00" />
<path d="M1919.0349025766973,1062.2150974233027 L1962.2150974233027,1019.0349025766973" close="False" data-weight="2.060660171779821" stroke-width="6" fill="none" stroke="#ff7f00" />
<path d="M1903.125,1025.625 L1903.125,1055.625" close="False" data-weight="1.75" stroke-width="6" fill="none" stroke="#ff7f00" />
<path d="M1919.0349025766973,987.2150974233027 L1962.2150974233027,944.0349025766973" close="False" data-weight="2.060660171779821" stroke-width="6" fill="none" stroke="#ff7f00" />
<path d="M1925.625,778.125 L1955.625,778.125" close="False" data-weight="1.75" stroke-width="6" fill="none" stroke="#ff7f00" />
<path d="M1850.625,1828.125 L1880.625,1828.125" close="False" data-weight="1.75" stroke-width="6" fill="none" stroke="#ff7f00" />
<path d="M1844.0349025766973,719.0349025766973 L1887.2150974233027,762.2150974233027" close="False" data-weight="2.060660171779821" stroke-width="6" fill="none" stroke="#ff7f00" />
<path d="M1775.625,1828.125 L1805.625,1828.125" close="False" data-weight="1.75" stroke-width="6" fill="none" stroke="#ff7f00" />
<path d="M1775.625,703.125 L1805.625,703.125" close="False" data-weight="1.75" stroke-width="6" fill="none" stroke="#ff7f00" />
<path d="M1700.625,1828.125 L1730.625,1828.125" close="False" data-weight="1.75" stroke-width="6" fill="none" stroke="#ff7f00" />
<path d="M1694.0349025766973,644.0349025766973 L1737.2150974233027,687.2150974233027" close="False" data-weight="2.060660171779821" stroke-width="6" fill="none" stroke="#ff7f00" />
<path d="M1625.625,1828.125 L1655.625,1828.125" close="False" data-weight="1.75" stroke-width="6" fill="none" stroke="#ff7f00" />
<path d="M1619.0349025766973,569.0349025766973 L1662.2150974233027,612.2150974233027" close="False" data-weight="2.060660171779821" stroke-width="6" fill="none" stroke="#ff7f00" />
<path d="M1550.625,1828.125 L1580.625,1828.125" close="False" data-weight="1.75" stroke-width="6" fill="none" stroke="#ff7f00" />
<path d="M1544.0349025766973,1287.2150974233027 L1587.2150974233027,1244.0349025766973" close="False" data-weight="2.060660171779821" stroke-width="6" fill="none" stroke="#ff7f00" />
<path d="M1550.625,1228.125 L1580.625,1228.125" close="False" data-weight="1.75" stroke-width="6" fill="none" stroke="#ff7f00" />
<path d="M1544.0349025766973,494.03490257669733 L1587.2150974233027,537.2150974233027" close="False" data-weight="2.060660171779821" stroke-width="6" fill="none" stroke="#ff7f00" />
<path d="M1475.625,1828.125 L1505.625,1828.125" close="False" data-weight="1.75" stroke-width="6" fill="none" stroke="#ff7f00" />
<path d="M1469.0349025766973,1362.2150974233027 L1512.2150974233027,1319.0349025766973" close="False" data-weight="2.060660171779821" stroke-width="6" fill="none" stroke="#ff7f00" />
<path d="M1475.625,1228.125 L1505.625,1228.125" close="False" data-weight="1.75" stroke-width="6" fill="none" stroke="#ff7f00" />
<path d="M1469.0349025766973,419.03490257669733 L1512.2150974233027,462.21509742330267" close="False" data-weight="2.060660171779821" stroke-width="6" fill="none" stroke="#ff7f00" />
<path d="M1453.125,350.625 L1453.125,380.625" close="False" data-weight="1.75" stroke-width="6" fill="none" stroke="#ff7f00" />
<path d="M1400.625,1828.125 L1430.625,1828.125" close="False" data-weight="1.75" stroke-width="6" fill="none" stroke="#ff7f00" />
<path d="M1394.0349025766973,1437.2150974233027 L1437.2150974233027,1394.0349025766973" close="False" data-weight="2.060660171779821" stroke-width="6" fill="none" stroke="#ff7f00" />
<path d="M1400.625,1228.125 L1430.625,1228.125" close="False" data-weight="1.75" stroke-width="6" fill="none" stroke="#ff7f00" />
<path d="M1325.2665898254845,1824.125 L1355.9834101745155,1824.125" close="False" data-weight="1.75" stroke-width="6" fill="none" stroke="#ff7f00" />
<path d="M1319.0349025766973,1512.2150974233027 L1362.2150974233027,1469.0349025766973" close="False" data-weight="2.060660171779821" stroke-width="6" fill="none" stroke="#ff7f00" />
<path d="M1319.0349025766973,1169.0349025766973 L1362.2150974233027,1212.2150974233027" close="False" data-weight="2.060660171779821" stroke-width="6" fill="none" stroke="#ff7f00" />
<path d="M1299.125,1100.2665898254845 L1299.125,1130.9834101745155" close="False" data-weight="1.75" stroke-width="6" fill="none" stroke="#ff7f00" />
<path d="M1250.2665898254845,1824.125 L1280.9834101745155,1824.125" close="False" data-weight="1.75" stroke-width="6" fill="none" stroke="#ff7f00" />
<path d="M1244.0349025766973,1587.2150974233027 L1287.2150974233027,1544.0349025766973" close="False" data-weight="2.060660171779821" stroke-width="6" fill="none" stroke="#ff7f00" />
<path d="M1240.9530411871049,1021.6098954365974 L1284.6401045634027,1065.2969588128951" close="False" data-weight="2.060660171779821" stroke-width="6" fill="none" stroke="#ff7f00" />
<path d="M1228.125,950.625 L1228.125,980.625" close="False" data-weight="1.75" stroke-width="6" fill="none" stroke="#ff7f00" />
<path d="M1169.0349025766973,1769.0349025766973 L1212.2150974233027,1812.2150974233027" close="False" data-weight="2.060660171779821" stroke-width="6" fill="none" stroke="#ff7f00" />
<path d="M1169.0349025766973,1662.2150974233027 L1212.2150974233027,1619.0349025766973" close="False" data-weight="2.060660171779821" stroke-width="6" fill="none" stroke="#ff7f00" />
<path d="M1169.0349025766973,869.0349025766973 L1212.2150974233027,912.2150974233027" close="False" data-weight="2.060660171779821" stroke-width="6" fill="none" stroke="#ff7f00" />
<path d="M1094.0349025766973,1694.0349025766973 L1137.2150974233027,1737.2150974233027" close="False" data-weight="2.060660171779821" stroke-width="6" fill="none" stroke="#ff7f00" />
<path d="M1100.625,1678.125 L1130.625,1678.125" close="False" data-weight="1.75" stroke-width="6" fill="none" stroke="#ff7f00" />
<path d="M1094.0349025766973,794.0349025766973 L1137.2150974233027,837.2150974233027" close="False" data-weight="2.060660171779821" stroke-width="6" fill="none" stroke="#ff7f00" />
<path d="M1025.625,778.125 L1055.625,778.125" close="False" data-weight="1.75" stroke-width="6" fill="none" stroke="#ff7f00" />
<path d="M950.625,778.125 L980.625,778.125" close="False" data-weight="1.75" stroke-width="6" fill="none" stroke="#ff7f00" />
<path d="M875.625,778.125 L905.625,778.125" close="False" data-weight="1.75" stroke-width="6" fill="none" stroke="#ff7f00" />
<path d="M800.625,778.125 L830.625,778.125" close="False" data-weight="1.75" stroke-width="6" fill="none" stroke="#ff7f00" />
<path d="M721.6098954365974,840.296958812895 L765.296958812895,796.6098954365974" close="False" data-weight="2.060660171779821" stroke-width="6" fill="none" stroke="#ff7f00" />
<path d="M646.6098954365974,915.296958812895 L690.296958812895,871.6098954365974" close="False" data-weight="2.060660171779821" stroke-width="6" fill="none" stroke="#ff7f00" />
<path d="M575.2665898254845,932.125 L605.9834101745155,932.125" close="False" data-weight="1.75" stroke-width="6" fill="none" stroke="#ff7f00" />
<path d="M500.2665898254845,932.125 L530.9834101745155,932.125" close="False" data-weight="1.75" stroke-width="6" fill="none" stroke="#ff7f00" />
<path d="M474.125,725.2665898254845 L474.125,755.9834101745155" close="False" data-weight="1.75" stroke-width="6" fill="none" stroke="#ff7f00" />
<path d="M415.953041187105,871.6098954365974 L459.6401045634026,915.296958812895" close="False" data-weight="2.060660171779821" stroke-width="6" fill="none" stroke="#ff7f00" />
<path d="M415.953041187105,834.6401045634026 L459.6401045634026,790.953041187105" close="False" data-weight="2.060660171779821" stroke-width="6" fill="none" stroke="#ff7f00" />
<path d="M1475.625,2428.125 C1464.375,2428.125,1441.875,2428.125,1430.625,2428.125" close="False" data-weight="0.0" stroke-width="6" fill="none" stroke="#4daf4a" />
<path d="M1465.9530411871049,2371.6098954365975 C1458.1248070311792,2363.781661280672,1442.4683387193284,2348.1251929688206,1434.6401045634027,2340.296958812895" close="False" data-weight="0.0" stroke-width="6" fill="none" stroke="#4daf4a" />
<path d="M1469.0349025766973,1244.0349025766973 C1461.0799512883486,1236.0799512883486,1445.1700487116514,1220.1700487116514,1437.2150974233027,1212.2150974233027" close="False" data-weight="0.0" stroke-width="6" fill="none" stroke="#4daf4a" />
<path d="M1400.625,2428.125 C1389.375,2428.125,1366.875,2428.125,1355.625,2428.125" close="False" data-weight="0.0" stroke-width="6" fill="none" stroke="#4daf4a" />
<path d="M1390.9530411871049,2296.6098954365975 A49.45452644918831,49.45452644918831,0,0,0,1374.9088381020804,2285.889501672745 M1374.9088381020804,2285.889501672745 A49.45452644918532,49.45452644918532,0,0,0,1355.9834101745155,2282.125 M1355.9834101745155,2282.125" close="False" data-weight="1.0" stroke-width="6" fill="none" stroke="#4daf4a" />
<path d="M1394.0349025766973,1169.0349025766973 A54.3198051533949,54.3198051533949,0,0,0,1376.412289481504,1157.2598489621723 M1376.412289481504,1157.2598489621723 A54.3198051533941,54.3198051533941,0,0,0,1355.625,1153.125 M1355.625,1153.125" close="False" data-weight="1.0" stroke-width="6" fill="none" stroke="#4daf4a" />
<path d="M1325.625,2428.125 C1314.375,2428.125,1291.875,2428.125,1280.625,2428.125" close="False" data-weight="0.0" stroke-width="6" fill="none" stroke="#4daf4a" />
<path d="M1307.125,1100.2665898254845 A57.45452644918714,57.45452644918714,0,0,0,1302.7515345873453,1078.2796944389988 M1302.7515345873453,1078.2796944389988 A57.454526449186446,57.454526449186446,0,0,0,1290.2969588128951,1059.6401045634027 M1290.2969588128951,1059.6401045634027" close="False" data-weight="1.0" stroke-width="6" fill="none" stroke="#4daf4a" />
<path d="M1250.625,2428.125 C1239.375,2428.125,1216.875,2428.125,1205.625,2428.125" close="False" data-weight="0.0" stroke-width="6" fill="none" stroke="#4daf4a" />
<path d="M1250.625,2278.125 C1239.375,2278.125,1216.875,2278.125,1205.625,2278.125" close="False" data-weight="0.0" stroke-width="6" fill="none" stroke="#4daf4a" />
<path d="M1175.625,2428.125 A54.31980515339728,54.31980515339728,0,0,1,1154.837710518496,2423.9901510378277 M1154.837710518496,2423.9901510378277 A54.319805153387826,54.319805153387826,0,0,1,1137.2150974233027,2412.2150974233027 M1137.2150974233027,2412.2150974233027" close="False" data-weight="1.0" stroke-width="6" fill="none" stroke="#4daf4a" />
<path d="M1175.625,2278.125 A54.31980515339728,54.31980515339728,0,0,1,1154.837710518496,2273.9901510378277 M1154.837710518496,2273.9901510378277 A54.319805153387826,54.319805153387826,0,0,1,1137.2150974233027,2262.2150974233027 M1137.2150974233027,2262.2150974233027" close="False" data-weight="1.0" stroke-width="6" fill="none" stroke="#4daf4a" />
<path d="M1169.0349025766973,987.2150974233027 C1161.0799512883486,995.1700487116514,1145.1700487116514,1011.0799512883486,1137.2150974233027,1019.0349025766973" close="False" data-weight="0.0" stroke-width="6" fill="none" stroke="#4daf4a" />
<path d="M1094.0349025766973,2369.0349025766973 C1086.0799512883486,2361.0799512883486,1070.1700487116514,2345.1700487116514,1062.2150974233027,2337.2150974233027" close="False" data-weight="0.0" stroke-width="6" fill="none" stroke="#4daf4a" />
<path d="M1078.125,2105.625 C1078.125,2116.875,1078.125,2139.375,1078.125,2150.625" close="False" data-weight="0.0" stroke-width="6" fill="none" stroke="#4daf4a" />
<path d="M1078.125,2075.625 A54.31980515339853,54.31980515339853,0,0,0,1073.990151037828,2054.837710518496 M1073.990151037828,2054.837710518496 A54.31980515339072,54.31980515339072,0,0,0,1062.2150974233027,2037.2150974233027 M1062.2150974233027,2037.2150974233027" close="False" data-weight="1.0" stroke-width="6" fill="none" stroke="#4daf4a" />
<path d="M1078.125,1880.625 A54.31980515339569,54.31980515339569,0,0,1,1073.9901510378277,1901.412289481504 M1073.9901510378277,1901.412289481504 A54.319805153393375,54.319805153393375,0,0,1,1062.2150974233027,1919.0349025766973 M1062.2150974233027,1919.0349025766973" close="False" data-weight="1.0" stroke-width="6" fill="none" stroke="#4daf4a" />
<path d="M1078.125,1805.625 C1078.125,1816.875,1078.125,1839.375,1078.125,1850.625" close="False" data-weight="0.0" stroke-width="6" fill="none" stroke="#4daf4a" />
<path d="M1078.125,1730.625 C1078.125,1741.875,1078.125,1764.375,1078.125,1775.625" close="False" data-weight="0.0" stroke-width="6" fill="none" stroke="#4daf4a" />
<path d="M1078.125,1580.625 C1078.125,1591.875,1078.125,1614.375,1078.125,1625.625" close="False" data-weight="0.0" stroke-width="6" fill="none" stroke="#4daf4a" />
<path d="M1078.125,1505.625 C1078.125,1516.875,1078.125,1539.375,1078.125,1550.625" close="False" data-weight="0.0" stroke-width="6" fill="none" stroke="#4daf4a" />
<path d="M1078.125,1430.625 C1078.125,1441.875,1078.125,1464.375,1078.125,1475.625" close="False" data-weight="0.0" stroke-width="6" fill="none" stroke="#4daf4a" />
<path d="M1078.125,1355.625 C1078.125,1366.875,1078.125,1389.375,1078.125,1400.625" close="False" data-weight="0.0" stroke-width="6" fill="none" stroke="#4daf4a" />
<path d="M1078.125,1280.625 C1078.125,1291.875,1078.125,1314.375,1078.125,1325.625" close="False" data-weight="0.0" stroke-width="6" fill="none" stroke="#4daf4a" />
<path d="M1078.125,1205.625 C1078.125,1216.875,1078.125,1239.375,1078.125,1250.625" close="False" data-weight="0.0" stroke-width="6" fill="none" stroke="#4daf4a" />
<path d="M1078.125,1130.625 C1078.125,1141.875,1078.125,1164.375,1078.125,1175.625" close="False" data-weight="0.0" stroke-width="6" fill="none" stroke="#4daf4a" />
<path d="M1094.0349025766973,1062.2150974233027 A54.3198051533949,54.3198051533949,0,0,0,1082.2598489621723,1079.837710518496 M1082.2598489621723,1079.837710518496 A54.3198051533941,54.3198051533941,0,0,0,1078.125,1100.625 M1078.125,1100.625" close="False" data-weight="1.0" stroke-width="6" fill="none" stroke="#4daf4a" />
<path d="M1019.0349025766973,2294.0349025766973 C1011.0799512883486,2286.0799512883486,995.1700487116514,2270.1700487116514,987.2150974233027,2262.2150974233027" close="False" data-weight="0.0" stroke-width="6" fill="none" stroke="#4daf4a" />
<path d="M944.0349025766973,2219.0349025766973 C936.0799512883486,2211.0799512883486,920.1700487116514,2195.1700487116514,912.2150974233027,2187.2150974233027" close="False" data-weight="0.0" stroke-width="6" fill="none" stroke="#4daf4a" />
<path d="M869.0349025766973,2144.0349025766973 C861.0799512883486,2136.0799512883486,845.1700487116514,2120.1700487116514,837.2150974233027,2112.2150974233027" close="False" data-weight="0.0" stroke-width="6" fill="none" stroke="#4daf4a" />
<path d="M794.0349025766973,2069.0349025766973 C786.0799512883486,2061.0799512883486,770.1700487116514,2045.1700487116514,762.2150974233027,2037.2150974233027" close="False" data-weight="0.0" stroke-width="6" fill="none" stroke="#4daf4a" />
<path d="M719.0349025766973,1994.0349025766973 C711.0799512883486,1986.0799512883486,695.1700487116514,1970.1700487116514,687.2150974233027,1962.2150974233027" close="False" data-weight="0.0" stroke-width="6" fill="none" stroke="#4daf4a" />
<path d="M644.0349025766973,1919.0349025766973 A54.31980515339554,54.31980515339554,0,0,0,626.412289481504,1907.259848962172 M626.412289481504,1907.259848962172 A54.319805153393645,54.319805153393645,0,0,0,605.625,1903.125 M605.625,1903.125" close="False" data-weight="1.0" stroke-width="6" fill="none" stroke="#4daf4a" />
<path d="M1475.625,2428.125 L1505.625,2428.125" close="False" data-weight="1.75" stroke-width="6" fill="none" stroke="#4daf4a" />
<path d="M1465.9530411871049,2371.6098954365975 L1509.6401045634027,2415.296958812895" close="False" data-weight="2.060660171779821" stroke-width="6" fill="none" stroke="#4daf4a" />
<path d="M1469.0349025766973,1244.0349025766973 L1512.2150974233027,1287.2150974233027" close="False" data-weight="2.060660171779821" stroke-width="6" fill="none" stroke="#4daf4a" />
<path d="M1400.625,2428.125 L1430.625,2428.125" close="False" data-weight="1.75" stroke-width="6" fill="none" stroke="#4daf4a" />
<path d="M1390.9530411870753,2296.6098954365675 L1434.6401045634323,2340.296958812925" close="False" data-weight="2.060660171779821" stroke-width="6" fill="none" stroke="#4daf4a" />
<path d="M1394.0349025766973,1169.0349025766973 L1437.2150974233027,1212.2150974233027" close="False" data-weight="2.060660171779821" stroke-width="6" fill="none" stroke="#4daf4a" />
<path d="M1325.625,2428.125 L1355.625,2428.125" close="False" data-weight="1.75" stroke-width="6" fill="none" stroke="#4daf4a" />
<path d="M1325.2665898254845,2282.125 L1355.9834101745155,2282.125" close="False" data-weight="1.75" stroke-width="6" fill="none" stroke="#4daf4a" />
<path d="M1325.625,1153.125 L1355.625,1153.125" close="False" data-weight="1.75" stroke-width="6" fill="none" stroke="#4daf4a" />
<path d="M1307.125,1100.2665898254845 L1307.125,1130.9834101745155" close="False" data-weight="1.75" stroke-width="6" fill="none" stroke="#4daf4a" />
<path d="M1250.625,2428.125 L1280.625,2428.125" close="False" data-weight="1.75" stroke-width="6" fill="none" stroke="#4daf4a" />
<path d="M1250.625,2278.125 L1280.625,2278.125" close="False" data-weight="1.75" stroke-width="6" fill="none" stroke="#4daf4a" />
<path d="M1246.6098954365973,1015.953041187105 L1290.2969588128951,1059.6401045634027" close="False" data-weight="2.060660171779821" stroke-width="6" fill="none" stroke="#4daf4a" />
<path d="M1236.125,949.1547408448131 L1236.125,982.0952591551869" close="False" data-weight="1.75" stroke-width="6" fill="none" stroke="#4daf4a" />
<path d="M1175.625,2428.125 L1205.625,2428.125" close="False" data-weight="1.75" stroke-width="6" fill="none" stroke="#4daf4a" />
<path d="M1175.625,2278.125 L1205.625,2278.125" close="False" data-weight="1.75" stroke-width="6" fill="none" stroke="#4daf4a" />
<path d="M1169.0349025766973,987.2150974233027 L1212.2150974233027,944.0349025766973" close="False" data-weight="2.060660171779821" stroke-width="6" fill="none" stroke="#4daf4a" />
<path d="M1094.0349025766973,2369.0349025766973 L1137.2150974233027,2412.2150974233027" close="False" data-weight="2.060660171779821" stroke-width="6" fill="none" stroke="#4daf4a" />
<path d="M1094.0349025766973,2219.0349025766973 L1137.2150974233027,2262.2150974233027" close="False" data-weight="2.060660171779821" stroke-width="6" fill="none" stroke="#4daf4a" />
<path d="M1078.125,2150.625 L1078.125,2180.625" close="False" data-weight="1.75" stroke-width="6" fill="none" stroke="#4daf4a" />
<path d="M1078.125,2075.625 L1078.125,2105.625" close="False" data-weight="1.75" stroke-width="6" fill="none" stroke="#4daf4a" />
<path d="M1078.125,1850.625 L1078.125,1880.625" close="False" data-weight="1.75" stroke-width="6" fill="none" stroke="#4daf4a" />
<path d="M1078.125,1775.625 L1078.125,1805.625" close="False" data-weight="1.75" stroke-width="6" fill="none" stroke="#4daf4a" />
<path d="M1078.125,1700.625 L1078.125,1730.625" close="False" data-weight="1.75" stroke-width="6" fill="none" stroke="#4daf4a" />
<path d="M1078.125,1625.625 L1078.125,1655.625" close="False" data-weight="1.75" stroke-width="6" fill="none" stroke="#4daf4a" />
<path d="M1078.125,1550.625 L1078.125,1580.625" close="False" data-weight="1.75" stroke-width="6" fill="none" stroke="#4daf4a" />
<path d="M1078.125,1475.625 L1078.125,1505.625" close="False" data-weight="1.75" stroke-width="6" fill="none" stroke="#4daf4a" />
<path d="M1078.125,1400.625 L1078.125,1430.625" close="False" data-weight="1.75" stroke-width="6" fill="none" stroke="#4daf4a" />
<path d="M1078.125,1325.625 L1078.125,1355.625" close="False" data-weight="1.75" stroke-width="6" fill="none" stroke="#4daf4a" />
<path d="M1078.125,1250.625 L1078.125,1280.625" close="False" data-weight="1.75" stroke-width="6" fill="none" stroke="#4daf4a" />
<path d="M1078.125,1175.625 L1078.125,1205.625" close="False" data-weight="1.75" stroke-width="6" fill="none" stroke="#4daf4a" />
<path d="M1078.125,1100.625 L1078.125,1130.625" close="False" data-weight="1.75" stroke-width="6" fill="none" stroke="#4daf4a" />
<path d="M1094.0349025766973,1062.2150974233027 L1137.2150974233027,1019.0349025766973" close="False" data-weight="2.060660171779821" stroke-width="6" fill="none" stroke="#4daf4a" />
<path d="M1019.0349025766973,2294.0349025766973 L1062.2150974233027,2337.2150974233027" close="False" data-weight="2.060660171779821" stroke-width="6" fill="none" stroke="#4daf4a" />
<path d="M1019.0349025766973,1994.0349025766973 L1062.2150974233027,2037.2150974233027" close="False" data-weight="2.060660171779821" stroke-width="6" fill="none" stroke="#4daf4a" />
<path d="M1019.0349025766973,1962.2150974233027 L1062.2150974233027,1919.0349025766973" close="False" data-weight="2.060660171779821" stroke-width="6" fill="none" stroke="#4daf4a" />
<path d="M944.0349025766973,2219.0349025766973 L987.2150974233027,2262.2150974233027" close="False" data-weight="2.060660171779821" stroke-width="6" fill="none" stroke="#4daf4a" />
<path d="M869.0349025766973,2144.0349025766973 L912.2150974233027,2187.2150974233027" close="False" data-weight="2.060660171779821" stroke-width="6" fill="none" stroke="#4daf4a" />
<path d="M794.0349025766973,2069.0349025766973 L837.2150974233027,2112.2150974233027" close="False" data-weight="2.060660171779821" stroke-width="6" fill="none" stroke="#4daf4a" />
<path d="M719.0349025766973,1994.0349025766973 L762.2150974233027,2037.2150974233027" close="False" data-weight="2.060660171779821" stroke-width="6" fill="none" stroke="#4daf4a" />
<path d="M644.0349025766973,1919.0349025766973 L687.2150974233027,1962.2150974233027" close="False" data-weight="2.060660171779821" stroke-width="6" fill="none" stroke="#4daf4a" />
<path d="M575.625,1903.125 L605.625,1903.125" close="False" data-weight="1.75" stroke-width="6" fill="none" stroke="#4daf4a" />
<path d="M1228.125,1505.625 A54.31980515339569,54.31980515339569,0,0,1,1223.9901510378277,1526.412289481504 M1223.9901510378277,1526.412289481504 A54.3198051533933,54.3198051533933,0,0,1,1212.2150974233027,1544.0349025766973 M1212.2150974233027,1544.0349025766973" close="False" data-weight="1.0" stroke-width="6" fill="none" stroke="#377eb8" />
<path d="M1228.125,1430.625 C1228.125,1441.875,1228.125,1464.375,1228.125,1475.625" close="False" data-weight="0.0" stroke-width="6" fill="none" stroke="#377eb8" />
<path d="M1228.125,1355.625 C1228.125,1366.875,1228.125,1389.375,1228.125,1400.625" close="False" data-weight="0.0" stroke-width="6" fill="none" stroke="#377eb8" />
<path d="M1228.125,1280.625 C1228.125,1291.875,1228.125,1314.375,1228.125,1325.625" close="False" data-weight="0.0" stroke-width="6" fill="none" stroke="#377eb8" />
<path d="M1228.125,1205.625 C1228.125,1216.875,1228.125,1239.375,1228.125,1250.625" close="False" data-weight="0.0" stroke-width="6" fill="none" stroke="#377eb8" />
<path d="M1228.125,1130.625 C1228.125,1141.875,1228.125,1164.375,1228.125,1175.625" close="False" data-weight="0.0" stroke-width="6" fill="none" stroke="#377eb8" />
<path d="M1228.125,1055.625 C1228.125,1066.875,1228.125,1089.375,1228.125,1100.625" close="False" data-weight="0.0" stroke-width="6" fill="none" stroke="#377eb8" />
<path d="M1169.0349025766973,1587.2150974233027 C1161.0799512883486,1595.1700487116514,1145.1700487116514,1611.0799512883486,1137.2150974233027,1619.0349025766973" close="False" data-weight="0.0" stroke-width="6" fill="none" stroke="#377eb8" />
<path d="M1078.125,455.625 A54.3198051533966,54.3198051533966,0,0,1,1073.990151037828,476.4122894815041 M1073.990151037828,476.4122894815041 A54.31980515339265,54.31980515339265,0,0,1,1062.2150974233027,494.03490257669733 M1062.2150974233027,494.03490257669733" close="False" data-weight="1.0" stroke-width="6" fill="none" stroke="#377eb8" />
<path d="M1078.125,380.625 C1078.125,391.875,1078.125,414.375,1078.125,425.625" close="False" data-weight="0.0" stroke-width="6" fill="none" stroke="#377eb8" />
<path d="M1078.125,305.625 C1078.125,316.875,1078.125,339.375,1078.125,350.625" close="False" data-weight="0.0" stroke-width="6" fill="none" stroke="#377eb8" />
<path d="M1078.125,230.625 C1078.125,241.875,1078.125,264.375,1078.125,275.625" close="False" data-weight="0.0" stroke-width="6" fill="none" stroke="#377eb8" />
<path d="M1019.0349025766973,1737.2150974233027 C1011.0799512883486,1745.1700487116514,995.1700487116514,1761.0799512883486,987.2150974233027,1769.0349025766973" close="False" data-weight="0.0" stroke-width="6" fill="none" stroke="#377eb8" />
<path d="M1019.0349025766973,537.2150974233027 C1011.0799512883486,545.1700487116514,995.1700487116514,561.0799512883486,987.2150974233027,569.0349025766973" close="False" data-weight="0.0" stroke-width="6" fill="none" stroke="#377eb8" />
<path d="M944.0349025766973,1812.2150974233027 C936.0799512883486,1820.1700487116514,920.1700487116514,1836.0799512883486,912.2150974233027,1844.0349025766973" close="False" data-weight="0.0" stroke-width="6" fill="none" stroke="#377eb8" />
<path d="M944.0349025766973,612.2150974233027 C936.0799512883486,620.1700487116514,920.1700487116514,636.0799512883486,912.2150974233027,644.0349025766973" close="False" data-weight="0.0" stroke-width="6" fill="none" stroke="#377eb8" />
<path d="M869.0349025766973,1887.2150974233027 C861.0799512883486,1895.1700487116514,845.1700487116514,1911.0799512883486,837.2150974233027,1919.0349025766973" close="False" data-weight="0.0" stroke-width="6" fill="none" stroke="#377eb8" />
<path d="M869.0349025766973,687.2150974233027 C861.0799512883486,695.1700487116514,845.1700487116514,711.0799512883486,837.2150974233027,719.0349025766973" close="False" data-weight="0.0" stroke-width="6" fill="none" stroke="#377eb8" />
<path d="M778.125,2030.625 C778.125,2041.875,778.125,2064.375,778.125,2075.625" close="False" data-weight="0.0" stroke-width="6" fill="none" stroke="#377eb8" />
<path d="M794.0349025766973,1962.2150974233027 A54.31980515339514,54.31980515339514,0,0,0,782.2598489621722,1979.837710518496 M782.2598489621722,1979.837710518496 A54.319805153393986,54.319805153393986,0,0,0,778.125,2000.625 M778.125,2000.625" close="False" data-weight="1.0" stroke-width="6" fill="none" stroke="#377eb8" />
<path d="M719.0349025766973,2069.0349025766973 C711.0799512883486,2061.0799512883486,695.1700487116514,2045.1700487116514,687.2150974233027,2037.2150974233027" close="False" data-weight="0.0" stroke-width="6" fill="none" stroke="#377eb8" />
<path d="M715.953041187105,834.6401045634026 C708.1248070311793,842.4683387193282,692.4683387193282,858.1248070311793,684.6401045634026,865.953041187105" close="False" data-weight="0.0" stroke-width="6" fill="none" stroke="#377eb8" />
<path d="M644.0349025766973,1994.0349025766973 C636.0799512883486,1986.0799512883486,620.1700487116514,1970.1700487116514,612.2150974233027,1962.2150974233027" close="False" data-weight="0.0" stroke-width="6" fill="none" stroke="#377eb8" />
<path d="M640.953041187105,909.6401045634026 A49.45452644918767,49.45452644918767,0,0,1,624.9088381020804,920.360498327255 M624.9088381020804,920.360498327255 A49.45452644918612,49.45452644918612,0,0,1,605.9834101745155,924.125 M605.9834101745155,924.125" close="False" data-weight="1.0" stroke-width="6" fill="none" stroke="#377eb8" />
<path d="M494.03490257669733,1844.0349025766973 C486.0799512883487,1836.0799512883486,470.1700487116513,1820.1700487116514,462.21509742330267,1812.2150974233027" close="False" data-weight="0.0" stroke-width="6" fill="none" stroke="#377eb8" />
<path d="M500.2665898254845,924.125 A49.454526449186915,49.454526449186915,0,0,1,481.34116189791956,920.360498327255 M481.34116189791956,920.360498327255 A49.4545264491869,49.4545264491869,0,0,1,465.296958812895,909.6401045634026 M465.296958812895,909.6401045634026" close="False" data-weight="1.0" stroke-width="6" fill="none" stroke="#377eb8" />
<path d="M482.125,755.9834101745155 A57.45452644918771,57.45452644918771,0,0,1,477.7515345873453,777.9703055610012 M477.7515345873453,777.9703055610012 A57.454526449186126,57.454526449186126,0,0,1,465.296958812895,796.6098954365974 M465.296958812895,796.6098954365974" close="False" data-weight="1.0" stroke-width="6" fill="none" stroke="#377eb8" />
<path d="M419.03490257669733,1769.0349025766973 C411.0799512883487,1761.0799512883486,395.1700487116513,1745.1700487116514,387.21509742330267,1737.2150974233027" close="False" data-weight="0.0" stroke-width="6" fill="none" stroke="#377eb8" />
<path d="M419.03490257669733,762.2150974233027 C411.0799512883487,770.1700487116514,395.1700487116513,786.0799512883486,387.21509742330267,794.0349025766973" close="False" data-weight="0.0" stroke-width="6" fill="none" stroke="#377eb8" />
<path d="M328.125,1625.625 A54.31980515339285,54.31980515339285,0,0,0,323.9901510378276,1604.837710518496 M323.9901510378276,1604.837710518496 A54.31980515339627,54.31980515339627,0,0,0,312.21509742330267,1587.2150974233027 M312.21509742330267,1587.2150974233027" close="False" data-weight="1.0" stroke-width="6" fill="none" stroke="#377eb8" />
<path d="M344.03490257669733,837.2150974233027 C336.0799512883487,845.1700487116514,320.1700487116513,861.0799512883486,312.21509742330267,869.0349025766973" close="False" data-weight="0.0" stroke-width="6" fill="none" stroke="#377eb8" />
<path d="M269.03490257669733,1544.0349025766973 C261.0799512883487,1536.0799512883486,245.1700487116513,1520.1700487116514,237.21509742330267,1512.2150974233027" close="False" data-weight="0.0" stroke-width="6" fill="none" stroke="#377eb8" />
<path d="M269.03490257669733,912.2150974233027 C261.0799512883487,920.1700487116514,245.1700487116513,936.0799512883486,237.21509742330267,944.0349025766973" close="False" data-weight="0.0" stroke-width="6" fill="none" stroke="#377eb8" />
<path d="M178.125,1355.625 C178.125,1366.875,178.125,1389.375,178.125,1400.625" close="False" data-weight="0.0" stroke-width="6" fill="none" stroke="#377eb8" />
<path d="M178.125,1205.625 C178.125,1216.875,178.125,1239.375,178.125,1250.625" close="False" data-weight="0.0" stroke-width="6" fill="none" stroke="#377eb8" />
<path d="M178.125,1130.625 C178.125,1141.875,178.125,1164.375,178.125,1175.625" close="False" data-weight="0.0" stroke-width="6" fill="none" stroke="#377eb8" />
<path d="M178.125,1055.625 C178.125,1066.875,178.125,1089.375,178.125,1100.625" close="False" data-weight="0.0" stroke-width="6" fill="none" stroke="#377eb8" />
<path d="M194.0349025766973,987.2150974233027 A54.3198051533949,54.3198051533949,0,0,0,182.25984896217216,1004.8377105184961 M182.25984896217216,1004.8377105184961 A54.31980515339427,54.31980515339427,0,0,0,178.125,1025.625 M178.125,1025.625" close="False" data-weight="1.0" stroke-width="6" fill="none" stroke="#377eb8" />
<path d="M1228.125,1475.625 L1228.125,1505.625" close="False" data-weight="1.75" stroke-width="6" fill="none" stroke="#377eb8" />
<path d="M1228.125,1400.625 L1228.125,1430.625" close="False" data-weight="1.75" stroke-width="6" fill="none" stroke="#377eb8" />
<path d="M1228.125,1325.625 L1228.125,1355.625" close="False" data-weight="1.75" stroke-width="6" fill="none" stroke="#377eb8" />
<path d="M1228.125,1250.625 L1228.125,1280.625" close="False" data-weight="1.75" stroke-width="6" fill="none" stroke="#377eb8" />
<path d="M1228.125,1175.625 L1228.125,1205.625" close="False" data-weight="1.75" stroke-width="6" fill="none" stroke="#377eb8" />
<path d="M1228.125,1100.625 L1228.125,1130.625" close="False" data-weight="1.75" stroke-width="6" fill="none" stroke="#377eb8" />
<path d="M1228.125,1025.625 L1228.125,1055.625" close="False" data-weight="1.75" stroke-width="6" fill="none" stroke="#377eb8" />
<path d="M1220.125,949.1547408448131 L1220.125,982.0952591551869" close="False" data-weight="1.75" stroke-width="6" fill="none" stroke="#377eb8" />
<path d="M1169.0349025766973,1587.2150974233027 L1212.2150974233027,1544.0349025766973" close="False" data-weight="2.060660171779821" stroke-width="6" fill="none" stroke="#377eb8" />
<path d="M1094.0349025766973,1662.2150974233027 L1137.2150974233027,1619.0349025766973" close="False" data-weight="2.060660171779821" stroke-width="6" fill="none" stroke="#377eb8" />
<path d="M1078.125,425.625 L1078.125,455.625" close="False" data-weight="1.75" stroke-width="6" fill="none" stroke="#377eb8" />
<path d="M1078.125,350.625 L1078.125,380.625" close="False" data-weight="1.75" stroke-width="6" fill="none" stroke="#377eb8" />
<path d="M1078.125,275.625 L1078.125,305.625" close="False" data-weight="1.75" stroke-width="6" fill="none" stroke="#377eb8" />
<path d="M1078.125,200.625 L1078.125,230.625" close="False" data-weight="1.75" stroke-width="6" fill="none" stroke="#377eb8" />
<path d="M1019.0349025766973,1737.2150974233027 L1062.2150974233027,1694.0349025766973" close="False" data-weight="2.060660171779821" stroke-width="6" fill="none" stroke="#377eb8" />
<path d="M1019.0349025766973,537.2150974233027 L1062.2150974233027,494.03490257669733" close="False" data-weight="2.060660171779821" stroke-width="6" fill="none" stroke="#377eb8" />
<path d="M944.0349025766973,1812.2150974233027 L987.2150974233027,1769.0349025766973" close="False" data-weight="2.060660171779821" stroke-width="6" fill="none" stroke="#377eb8" />
<path d="M944.0349025766973,612.2150974233027 L987.2150974233027,569.0349025766973" close="False" data-weight="2.060660171779821" stroke-width="6" fill="none" stroke="#377eb8" />
<path d="M869.0349025766973,1887.2150974233027 L912.2150974233027,1844.0349025766973" close="False" data-weight="2.060660171779821" stroke-width="6" fill="none" stroke="#377eb8" />
<path d="M869.0349025766973,687.2150974233027 L912.2150974233027,644.0349025766973" close="False" data-weight="2.060660171779821" stroke-width="6" fill="none" stroke="#377eb8" />
<path d="M778.125,2075.625 L778.125,2105.625" close="False" data-weight="1.75" stroke-width="6" fill="none" stroke="#377eb8" />
<path d="M778.125,2000.625 L778.125,2030.625" close="False" data-weight="1.75" stroke-width="6" fill="none" stroke="#377eb8" />
<path d="M794.0349025766973,1962.2150974233027 L837.2150974233027,1919.0349025766973" close="False" data-weight="2.060660171779821" stroke-width="6" fill="none" stroke="#377eb8" />
<path d="M794.0349025766973,762.2150974233027 L837.2150974233027,719.0349025766973" close="False" data-weight="2.060660171779821" stroke-width="6" fill="none" stroke="#377eb8" />
<path d="M719.0349025766973,2069.0349025766973 L762.2150974233027,2112.2150974233027" close="False" data-weight="2.060660171779821" stroke-width="6" fill="none" stroke="#377eb8" />
<path d="M715.953041187105,834.6401045634026 L759.6401045634026,790.953041187105" close="False" data-weight="2.060660171779821" stroke-width="6" fill="none" stroke="#377eb8" />
<path d="M644.0349025766973,1994.0349025766973 L687.2150974233027,2037.2150974233027" close="False" data-weight="2.060660171779821" stroke-width="6" fill="none" stroke="#377eb8" />
<path d="M640.953041187105,909.6401045634026 L684.6401045634026,865.953041187105" close="False" data-weight="2.060660171779821" stroke-width="6" fill="none" stroke="#377eb8" />
<path d="M569.0349025766973,1919.0349025766973 L612.2150974233027,1962.2150974233027" close="False" data-weight="2.060660171779821" stroke-width="6" fill="none" stroke="#377eb8" />
<path d="M575.2665898254845,924.125 L605.9834101745155,924.125" close="False" data-weight="1.75" stroke-width="6" fill="none" stroke="#377eb8" />
<path d="M494.03490257669733,1844.0349025766973 L537.2150974233027,1887.2150974233027" close="False" data-weight="2.060660171779821" stroke-width="6" fill="none" stroke="#377eb8" />
<path d="M500.2665898254845,924.125 L530.9834101745155,924.125" close="False" data-weight="1.75" stroke-width="6" fill="none" stroke="#377eb8" />
<path d="M482.125,725.2665898254845 L482.125,755.9834101745155" close="False" data-weight="1.75" stroke-width="6" fill="none" stroke="#377eb8" />
<path d="M419.03490257669733,1769.0349025766973 L462.21509742330267,1812.2150974233027" close="False" data-weight="2.060660171779821" stroke-width="6" fill="none" stroke="#377eb8" />
<path d="M421.6098954365974,865.953041187105 L465.296958812895,909.6401045634026" close="False" data-weight="2.060660171779821" stroke-width="6" fill="none" stroke="#377eb8" />
<path d="M421.6098954365974,840.296958812895 L465.296958812895,796.6098954365974" close="False" data-weight="2.060660171779821" stroke-width="6" fill="none" stroke="#377eb8" />
<path d="M419.03490257669733,762.2150974233027 L462.21509742330267,719.0349025766973" close="False" data-weight="2.060660171779821" stroke-width="6" fill="none" stroke="#377eb8" />
<path d="M344.03490257669733,1694.0349025766973 L387.21509742330267,1737.2150974233027" close="False" data-weight="2.060660171779821" stroke-width="6" fill="none" stroke="#377eb8" />
<path d="M328.125,1625.625 L328.125,1655.625" close="False" data-weight="1.75" stroke-width="6" fill="none" stroke="#377eb8" />
<path d="M344.03490257669733,837.2150974233027 L387.21509742330267,794.0349025766973" close="False" data-weight="2.060660171779821" stroke-width="6" fill="none" stroke="#377eb8" />
<path d="M269.03490257669733,1544.0349025766973 L312.21509742330267,1587.2150974233027" close="False" data-weight="2.060660171779821" stroke-width="6" fill="none" stroke="#377eb8" />
<path d="M269.03490257669733,912.2150974233027 L312.21509742330267,869.0349025766973" close="False" data-weight="2.060660171779821" stroke-width="6" fill="none" stroke="#377eb8" />
<path d="M194.03490257669733,1469.0349025766973 L237.2150974233027,1512.2150974233027" close="False" data-weight="2.060660171779821" stroke-width="6" fill="none" stroke="#377eb8" />
<path d="M178.125,1400.625 L178.125,1430.625" close="False" data-weight="1.75" stroke-width="6" fill="none" stroke="#377eb8" />
<path d="M178.125,1325.625 L178.125,1355.625" close="False" data-weight="1.75" stroke-width="6" fill="none" stroke="#377eb8" />
<path d="M178.125,1250.625 L178.125,1280.625" close="False" data-weight="1.75" stroke-width="6" fill="none" stroke="#377eb8" />
<path d="M178.125,1175.625 L178.125,1205.625" close="False" data-weight="1.75" stroke-width="6" fill="none" stroke="#377eb8" />
<path d="M178.125,1100.625 L178.125,1130.625" close="False" data-weight="1.75" stroke-width="6" fill="none" stroke="#377eb8" />
<path d="M178.125,1025.625 L178.125,1055.625" close="False" data-weight="1.75" stroke-width="6" fill="none" stroke="#377eb8" />
<path d="M194.03490257669733,987.2150974233027 L237.2150974233027,944.0349025766973" close="False" data-weight="2.060660171779821" stroke-width="6" fill="none" stroke="#377eb8" />
<path d="M2124.125,1730.9834101745155 C2124.125,1742.0542050872577,2124.125,1764.1957949127423,2124.125,1775.2665898254845" close="False" data-weight="0.0" stroke-width="6" fill="none" stroke="#e41a1c" />
<path d="M2069.0349025766973,1737.2150974233027 C2061.0799512883486,1745.1700487116514,2045.1700487116514,1761.0799512883486,2037.2150974233027,1769.0349025766973" close="False" data-weight="0.0" stroke-width="6" fill="none" stroke="#e41a1c" />
<path d="M1978.125,2105.625 C1978.125,2116.875,1978.125,2139.375,1978.125,2150.625" close="False" data-weight="0.0" stroke-width="6" fill="none" stroke="#e41a1c" />
<path d="M1978.125,2030.625 C1978.125,2041.875,1978.125,2064.375,1978.125,2075.625" close="False" data-weight="0.0" stroke-width="6" fill="none" stroke="#e41a1c" />
<path d="M1978.125,1955.625 C1978.125,1966.875,1978.125,1989.375,1978.125,2000.625" close="False" data-weight="0.0" stroke-width="6" fill="none" stroke="#e41a1c" />
<path d="M1978.125,1880.625 C1978.125,1891.875,1978.125,1914.375,1978.125,1925.625" close="False" data-weight="0.0" stroke-width="6" fill="none" stroke="#e41a1c" />
<path d="M1994.0349025766973,1812.2150974233027 A54.3198051533949,54.3198051533949,0,0,0,1982.2598489621723,1829.837710518496 M1982.2598489621723,1829.837710518496 A54.3198051533941,54.3198051533941,0,0,0,1978.125,1850.625 M1978.125,1850.625" close="False" data-weight="1.0" stroke-width="6" fill="none" stroke="#e41a1c" />
<path d="M1844.0349025766973,2337.2150974233027 C1836.0799512883486,2345.1700487116514,1820.1700487116514,2361.0799512883486,1812.2150974233027,2369.0349025766973" close="False" data-weight="0.0" stroke-width="6" fill="none" stroke="#e41a1c" />
<path d="M1769.0349025766973,2412.2150974233027 A54.319805153391044,54.319805153391044,0,0,1,1751.4122894815043,2423.990151037828 M1751.4122894815043,2423.990151037828 A54.3198051533941,54.3198051533941,0,0,1,1730.625,2428.125 M1730.625,2428.125" close="False" data-weight="1.0" stroke-width="6" fill="none" stroke="#e41a1c" />
<path d="M1700.625,2428.125 C1689.375,2428.125,1666.875,2428.125,1655.625,2428.125" close="False" data-weight="0.0" stroke-width="6" fill="none" stroke="#e41a1c" />
<path d="M1625.625,2428.125 C1614.375,2428.125,1591.875,2428.125,1580.625,2428.125" close="False" data-weight="0.0" stroke-width="6" fill="none" stroke="#e41a1c" />
<path d="M1471.6098954365973,2365.953041187105 C1463.7816612806716,2358.1248070311794,1448.1251929688208,2342.468338719328,1440.2969588128951,2334.6401045634025" close="False" data-weight="0.0" stroke-width="6" fill="none" stroke="#e41a1c" />
<path d="M1396.6098954365973,2290.953041187105 A57.454526449190624,57.454526449190624,0,0,0,1377.970305561001,2278.498465412655 M1377.970305561001,2278.498465412655 A57.45452644918714,57.45452644918714,0,0,0,1355.9834101745155,2274.125 M1355.9834101745155,2274.125" close="False" data-weight="1.0" stroke-width="6" fill="none" stroke="#e41a1c" />
<path d="M1378.125,2180.625 A54.31980515339296,54.31980515339296,0,0,1,1373.9901510378277,2201.4122894815036 M1373.9901510378277,2201.4122894815036 A54.31980515340005,54.31980515340005,0,0,1,1362.2150974233027,2219.0349025766973 M1362.2150974233027,2219.0349025766973" close="False" data-weight="1.0" stroke-width="6" fill="none" stroke="#e41a1c" />
<path d="M1378.125,2105.625 C1378.125,2116.875,1378.125,2139.375,1378.125,2150.625" close="False" data-weight="0.0" stroke-width="6" fill="none" stroke="#e41a1c" />
<path d="M1378.125,2030.625 C1378.125,2041.875,1378.125,2064.375,1378.125,2075.625" close="False" data-weight="0.0" stroke-width="6" fill="none" stroke="#e41a1c" />
<path d="M1378.125,1955.625 C1378.125,1966.875,1378.125,1989.375,1378.125,2000.625" close="False" data-weight="0.0" stroke-width="6" fill="none" stroke="#e41a1c" />
<path d="M1378.125,1880.625 C1378.125,1891.875,1378.125,1914.375,1378.125,1925.625" close="False" data-weight="0.0" stroke-width="6" fill="none" stroke="#e41a1c" />
<path d="M1325.2665898254845,1832.125 C1314.1957949127423,1832.125,1292.0542050872577,1832.125,1280.9834101745155,1832.125" close="False" data-weight="0.0" stroke-width="6" fill="none" stroke="#e41a1c" />
<path d="M1250.2665898254845,1832.125 C1239.0614806611713,1832.125,1216.8301091643132,1828.125,1205.625,1828.125" close="False" data-weight="0.0" stroke-width="6" fill="none" stroke="#e41a1c" />
<path d="M1175.625,1828.125 C1164.375,1828.125,1141.875,1828.125,1130.625,1828.125" close="False" data-weight="0.0" stroke-width="6" fill="none" stroke="#e41a1c" />
<path d="M1100.625,1828.125 A54.31980515339569,54.31980515339569,0,0,0,1079.837710518496,1832.2598489621723 M1079.837710518496,1832.2598489621723 A54.3198051533933,54.3198051533933,0,0,0,1062.2150974233027,1844.0349025766973 M1062.2150974233027,1844.0349025766973" close="False" data-weight="1.0" stroke-width="6" fill="none" stroke="#e41a1c" />
<path d="M1019.0349025766973,1887.2150974233027 C1011.0799512883486,1895.1700487116514,995.1700487116514,1911.0799512883486,987.2150974233027,1919.0349025766973" close="False" data-weight="0.0" stroke-width="6" fill="none" stroke="#e41a1c" />
<path d="M944.0349025766973,1962.2150974233027 C936.0799512883486,1970.1700487116514,920.1700487116514,1986.0799512883486,912.2150974233027,1994.0349025766973" close="False" data-weight="0.0" stroke-width="6" fill="none" stroke="#e41a1c" />
<path d="M869.0349025766973,2037.2150974233027 C861.0799512883486,2045.1700487116514,845.1700487116514,2061.0799512883486,837.2150974233027,2069.0349025766973" close="False" data-weight="0.0" stroke-width="6" fill="none" stroke="#e41a1c" />
<path d="M2124.125,1775.2665898254845 L2124.125,1805.9834101745155" close="False" data-weight="1.75" stroke-width="6" fill="none" stroke="#e41a1c" />
<path d="M2124.125,1700.2665898254845 L2124.125,1730.9834101745155" close="False" data-weight="1.75" stroke-width="6" fill="none" stroke="#e41a1c" />
<path d="M2069.0349025766973,1737.2150974233027 L2112.2150974233027,1694.0349025766973" close="False" data-weight="2.060660171779821" stroke-width="6" fill="none" stroke="#e41a1c" />
<path d="M1978.125,2150.625 L1978.125,2180.625" close="False" data-weight="1.75" stroke-width="6" fill="none" stroke="#e41a1c" />
<path d="M1978.125,2075.625 L1978.125,2105.625" close="False" data-weight="1.75" stroke-width="6" fill="none" stroke="#e41a1c" />
<path d="M1978.125,2000.625 L1978.125,2030.625" close="False" data-weight="1.75" stroke-width="6" fill="none" stroke="#e41a1c" />
<path d="M1978.125,1925.625 L1978.125,1955.625" close="False" data-weight="1.75" stroke-width="6" fill="none" stroke="#e41a1c" />
<path d="M1978.125,1850.625 L1978.125,1880.625" close="False" data-weight="1.75" stroke-width="6" fill="none" stroke="#e41a1c" />
<path d="M1994.0349025766973,1812.2150974233027 L2037.2150974233027,1769.0349025766973" close="False" data-weight="2.060660171779821" stroke-width="6" fill="none" stroke="#e41a1c" />
<path d="M1919.0349025766973,2262.2150974233027 L1962.2150974233027,2219.0349025766973" close="False" data-weight="2.060660171779821" stroke-width="6" fill="none" stroke="#e41a1c" />
<path d="M1844.0349025766973,2337.2150974233027 L1887.2150974233027,2294.0349025766973" close="False" data-weight="2.060660171779821" stroke-width="6" fill="none" stroke="#e41a1c" />
<path d="M1769.0349025766973,2412.2150974233027 L1812.2150974233027,2369.0349025766973" close="False" data-weight="2.060660171779821" stroke-width="6" fill="none" stroke="#e41a1c" />
<path d="M1700.625,2428.125 L1730.625,2428.125" close="False" data-weight="1.75" stroke-width="6" fill="none" stroke="#e41a1c" />
<path d="M1625.625,2428.125 L1655.625,2428.125" close="False" data-weight="1.75" stroke-width="6" fill="none" stroke="#e41a1c" />
<path d="M1550.625,2428.125 L1580.625,2428.125" close="False" data-weight="1.75" stroke-width="6" fill="none" stroke="#e41a1c" />
<path d="M1471.6098954365973,2365.953041187105 L1515.2969588128951,2409.6401045634025" close="False" data-weight="2.060660171779821" stroke-width="6" fill="none" stroke="#e41a1c" />
<path d="M1396.609895436627,2290.9530411871347 L1440.2969588128653,2334.640104563373" close="False" data-weight="2.060660171779821" stroke-width="6" fill="none" stroke="#e41a1c" />
<path d="M1378.125,2150.625 L1378.125,2180.625" close="False" data-weight="1.75" stroke-width="6" fill="none" stroke="#e41a1c" />
<path d="M1378.125,2075.625 L1378.125,2105.625" close="False" data-weight="1.75" stroke-width="6" fill="none" stroke="#e41a1c" />
<path d="M1378.125,2000.625 L1378.125,2030.625" close="False" data-weight="1.75" stroke-width="6" fill="none" stroke="#e41a1c" />
<path d="M1378.125,1925.625 L1378.125,1955.625" close="False" data-weight="1.75" stroke-width="6" fill="none" stroke="#e41a1c" />
<path d="M1378.125,1850.625 L1378.125,1880.625" close="False" data-weight="1.75" stroke-width="6" fill="none" stroke="#e41a1c" />
<path d="M1325.2665898254845,2274.125 L1355.9834101745155,2274.125" close="False" data-weight="1.75" stroke-width="6" fill="none" stroke="#e41a1c" />
<path d="M1319.0349025766973,2262.2150974233027 L1362.2150974233027,2219.0349025766973" close="False" data-weight="2.060660171779821" stroke-width="6" fill="none" stroke="#e41a1c" />
<path d="M1325.2665898254845,1832.125 L1355.9834101745155,1832.125" close="False" data-weight="1.75" stroke-width="6" fill="none" stroke="#e41a1c" />
<path d="M1250.2665898254845,1832.125 L1280.9834101745155,1832.125" close="False" data-weight="1.75" stroke-width="6" fill="none" stroke="#e41a1c" />
<path d="M1175.625,1828.125 L1205.625,1828.125" close="False" data-weight="1.75" stroke-width="6" fill="none" stroke="#e41a1c" />
<path d="M1100.625,1828.125 L1130.625,1828.125" close="False" data-weight="1.75" stroke-width="6" fill="none" stroke="#e41a1c" />
<path d="M1019.0349025766973,1887.2150974233027 L1062.2150974233027,1844.0349025766973" close="False" data-weight="2.060660171779821" stroke-width="6" fill="none" stroke="#e41a1c" />
<path d="M944.0349025766973,1962.2150974233027 L987.2150974233027,1919.0349025766973" close="False" data-weight="2.060660171779821" stroke-width="6" fill="none" stroke="#e41a1c" />
<path d="M869.0349025766973,2037.2150974233027 L912.2150974233027,1994.0349025766973" close="False" data-weight="2.060660171779821" stroke-width="6" fill="none" stroke="#e41a1c" />
<path d="M794.0349025766973,2112.2150974233027 L837.2150974233027,2069.0349025766973" close="False" data-weight="2.060660171779821" stroke-width="6" fill="none" stroke="#e41a1c" />
<image x="2395.625" y="595.625" width="65" height="65" xlink:href="designspace-test/./img/ds_dataset1_40_21_thumb.png">
<title>21</title>
</image>
<image x="2320.625" y="970.625" width="65" height="65" xlink:href="designspace-test/./img/ds_dataset1_40_17_thumb.png">
<title>17</title>
</image>
<image x="2245.625" y="1270.625" width="65" height="65" xlink:href="designspace-test/./img/ds_dataset1_40_37_thumb.png">
<title>37</title>
</image>
<image x="2245.625" y="895.625" width="65" height="65" xlink:href="designspace-test/./img/ds_dataset1_40_31_thumb.png">
<title>31</title>
</image>
<image x="2170.625" y="970.625" width="65" height="65" xlink:href="designspace-test/./img/ds_dataset1_40_13_thumb.png">
<title>13</title>
</image>
<image x="2170.625" y="820.625" width="65" height="65" xlink:href="designspace-test/./img/ds_dataset1_40_30_thumb.png">
<title>30</title>
</image>
<image x="2170.625" y="670.625" width="65" height="65" xlink:href="designspace-test/./img/ds_dataset1_40_33_thumb.png">
<title>33</title>
</image>
<image x="2095.625" y="1795.625" width="65" height="65" xlink:href="designspace-test/./img/ds_dataset1_40_32_thumb.png">
<title>32</title>
</image>
<image x="2095.625" y="1645.625" width="65" height="65" xlink:href="designspace-test/./img/ds_dataset1_40_19_thumb.png">
<title>19</title>
</image>
<image x="2095.625" y="970.625" width="65" height="65" xlink:href="designspace-test/./img/ds_dataset1_40_24_thumb.png">
<title>24</title>
</image>
<image x="1945.625" y="2170.625" width="65" height="65" xlink:href="designspace-test/./img/ds_dataset1_40_2_thumb.png">
<title>2</title>
</image>
<image x="1945.625" y="895.625" width="65" height="65" xlink:href="designspace-test/./img/ds_dataset1_40_25_thumb.png">
<title>25</title>
</image>
<image x="1945.625" y="745.625" width="65" height="65" xlink:href="designspace-test/./img/ds_dataset1_40_11_thumb.png">
<title>11</title>
</image>
<image x="1870.625" y="2245.625" width="65" height="65" xlink:href="designspace-test/./img/ds_dataset1_40_12_thumb.png">
<title>12</title>
</image>
<image x="1870.625" y="1045.625" width="65" height="65" xlink:href="designspace-test/./img/ds_dataset1_40_14_thumb.png">
<title>14</title>
</image>
<image x="1870.625" y="745.625" width="65" height="65" xlink:href="designspace-test/./img/ds_dataset1_40_10_thumb.png">
<title>10</title>
</image>
<image x="1795.625" y="670.625" width="65" height="65" xlink:href="designspace-test/./img/ds_dataset1_40_9_thumb.png">
<title>9</title>
</image>
<image x="1720.625" y="670.625" width="65" height="65" xlink:href="designspace-test/./img/ds_dataset1_40_16_thumb.png">
<title>16</title>
</image>
<image x="1570.625" y="1195.625" width="65" height="65" xlink:href="designspace-test/./img/ds_dataset1_40_39_thumb.png">
<title>39</title>
</image>
<image x="1495.625" y="2395.625" width="65" height="65" xlink:href="designspace-test/./img/ds_dataset1_40_22_thumb.png">
<title>22</title>
</image>
<image x="1495.625" y="1270.625" width="65" height="65" xlink:href="designspace-test/./img/ds_dataset1_40_1_thumb.png">
<title>1</title>
</image>
<image x="1420.625" y="295.625" width="65" height="65" xlink:href="designspace-test/./img/ds_dataset1_40_27_thumb.png">
<title>27</title>
</image>
<image x="1345.625" y="1795.625" width="65" height="65" xlink:href="designspace-test/./img/ds_dataset1_40_4_thumb.png">
<title>4</title>
</image>
<image x="1270.625" y="2245.625" width="65" height="65" xlink:href="designspace-test/./img/ds_dataset1_40_38_thumb.png">
<title>38</title>
</image>
<image x="1270.625" y="1120.625" width="65" height="65" xlink:href="designspace-test/./img/ds_dataset1_40_36_thumb.png">
<title>36</title>
</image>
<image x="1195.625" y="970.625" width="65" height="65" xlink:href="designspace-test/./img/ds_dataset1_40_29_thumb.png">
<title>29</title>
</image>
<image x="1195.625" y="895.625" width="65" height="65" xlink:href="designspace-test/./img/ds_dataset1_40_3_thumb.png">
<title>3</title>
</image>
<image x="1045.625" y="2170.625" width="65" height="65" xlink:href="designspace-test/./img/ds_dataset1_40_23_thumb.png">
<title>23</title>
</image>
<image x="1045.625" y="1645.625" width="65" height="65" xlink:href="designspace-test/./img/ds_dataset1_40_28_thumb.png">
<title>28</title>
</image>
<image x="1045.625" y="145.625" width="65" height="65" xlink:href="designspace-test/./img/ds_dataset1_40_0_thumb.png">
<title>0</title>
</image>
<image x="970.625" y="1945.625" width="65" height="65" xlink:href="designspace-test/./img/ds_dataset1_40_35_thumb.png">
<title>35</title>
</image>
<image x="745.625" y="2095.625" width="65" height="65" xlink:href="designspace-test/./img/ds_dataset1_40_18_thumb.png">
<title>18</title>
</image>
<image x="745.625" y="745.625" width="65" height="65" xlink:href="designspace-test/./img/ds_dataset1_40_6_thumb.png">
<title>6</title>
</image>
<image x="520.625" y="1870.625" width="65" height="65" xlink:href="designspace-test/./img/ds_dataset1_40_20_thumb.png">
<title>20</title>
</image>
<image x="520.625" y="895.625" width="65" height="65" xlink:href="designspace-test/./img/ds_dataset1_40_8_thumb.png">
<title>8</title>
</image>
<image x="445.625" y="670.625" width="65" height="65" xlink:href="designspace-test/./img/ds_dataset1_40_15_thumb.png">
<title>15</title>
</image>
<image x="370.625" y="820.625" width="65" height="65" xlink:href="designspace-test/./img/ds_dataset1_40_26_thumb.png">
<title>26</title>
</image>
<image x="295.625" y="1645.625" width="65" height="65" xlink:href="designspace-test/./img/ds_dataset1_40_34_thumb.png">
<title>34</title>
</image>
<image x="145.625" y="1420.625" width="65" height="65" xlink:href="designspace-test/./img/ds_dataset1_40_5_thumb.png">
<title>5</title>
</image>
<image x="145.625" y="1270.625" width="65" height="65" xlink:href="designspace-test/./img/ds_dataset1_40_7_thumb.png">
<title>7</title>
</image>
</svg>