<?xml version="1.0" encoding="UTF-8"?>
<svg xmlns="http://www.w3.org/2000/svg" xmlns:xlink="http://www.w3.org/1999/xlink"
     width="1350" height="1350" viewBox="0 0 1350 1350">
<defs>
</defs>
<path d="M944.0349025766973,869.0349025766973 C936.0799512883486,861.0799512883486,920.1700487116514,845.1700487116514,912.2150974233027,837.2150974233027" close="False" data-weight="0.0" stroke-width="6" fill="none" stroke="#ffff33" />
<path d="M869.0349025766973,794.0349025766973 C861.0799512883486,786.0799512883486,845.1700487116514,770.1700487116514,837.2150974233027,762.2150974233027" close="False" data-weight="0.0" stroke-width="6" fill="none" stroke="#ffff33" />
<path d="M794.0349025766973,719.0349025766973 C786.0799512883486,711.0799512883486,770.1700487116514,695.1700487116514,762.2150974233027,687.2150974233027" close="False" data-weight="0.0" stroke-width="6" fill="none" stroke="#ffff33" />
<path d="M719.0349025766973,644.0349025766973 C711.0799512883486,636.0799512883486,695.1700487116514,620.1700487116514,687.2150974233027,612.2150974233027" close="False" data-weight="0.0" stroke-width="6" fill="none" stroke="#ffff33" />
<path d="M644.0349025766973,569.0349025766973 C636.0799512883486,561.0799512883486,620.1700487116514,545.1700487116514,612.2150974233027,537.2150974233027" close="False" data-weight="0.0" stroke-width="6" fill="none" stroke="#ffff33" />
<path d="M569.0349025766973,494.03490257669733 A54.31980515339494,54.31980515339494,0,0,0,551.4122894815039,482.2598489621722 M551.4122894815039,482.2598489621722 A54.31980515339421,54.31980515339421,0,0,0,530.625,478.125 M530.625,478.125" close="False" data-weight="1.0" stroke-width="6" fill="none" stroke="#ffff33" />
<path d="M500.625,478.125 C489.375,478.125,466.875,478.125,455.625,478.125" close="False" data-weight="0.0" stroke-width="6" fill="none" stroke="#ffff33" />
<path d="M944.0349025766973,869.0349025766973 L987.2150974233027,912.2150974233027" close="False" data-weight="2.060660171779821" stroke-width="6" fill="none" stroke="#ffff33" />
<path d="M869.0349025766973,794.0349025766973 L912.2150974233027,837.2150974233027" close="False" data-weight="2.060660171779821" stroke-width="6" fill="none" stroke="#ffff33" />
<path d="M794.0349025766973,719.0349025766973 L837.2150974233027,762.2150974233027" close="False" data-weight="2.060660171779821" stroke-width="6" fill="none" stroke="#ffff33" />
<path d="M719.0349025766973,644.0349025766973 L762.2150974233027,687.2150974233027" close="False" data-weight="2.060660171779821" stroke-width="6" fill="none" stroke="#ffff33" />
<path d="M644.0349025766973,569.0349025766973 L687.2150974233027,612.2150974233027" close="False" data-weight="2.060660171779821" stroke-width="6" fill="none" stroke="#ffff33" />
<path d="M569.0349025766973,494.03490257669733 L612.2150974233027,537.2150974233027" close="False" data-weight="2.060660171779821" stroke-width="6" fill="none" stroke="#ffff33" />
<path d="M500.625,478.125 L530.625,478.125" close="False" data-weight="1.75" stroke-width="6" fill="none" stroke="#ffff33" />
<path d="M425.625,478.125 L455.625,478.125" close="False" data-weight="1.75" stroke-width="6" fill="none" stroke="#ffff33" />
<path d="M1228.125,1175.625 A54.31980515339569,54.31980515339569,0,0,0,1223.9901510378277,1154.837710518496 M1223.9901510378277,1154.837710518496 A54.3198051533933,54.3198051533933,0,0,0,1212.2150974233027,1137.2150974233027 M1212.2150974233027,1137.2150974233027" close="False" data-weight="1.0" stroke-width="6" fill="none" stroke="#984ea3" />
<path d="M1169.0349025766973,1094.0349025766973 C1161.0799512883486,1086.0799512883486,1145.1700487116514,1070.1700487116514,1137.2150974233027,1062.2150974233027" close="False" data-weight="0.0" stroke-width="6" fill="none" stroke="#984ea3" />
<path d="M1153.125,455.625 A54.3198051533966,54.3198051533966,0,0,1,1148.990151037828,476.4122894815041 M1148.990151037828,476.4122894815041 A54.31980515339265,54.31980515339265,0,0,1,1137.2150974233027,494.03490257669733 M1137.2150974233027,494.03490257669733" close="False" data-weight="1.0" stroke-width="6" fill="none" stroke="#984ea3" />
<path d="M1153.125,380.625 C1153.125,391.875,1153.125,414.375,1153.125,425.625" close="False" data-weight="0.0" stroke-width="6" fill="none" stroke="#984ea3" />
<path d="M1153.125,305.625 C1153.125,316.875,1153.125,339.375,1153.125,350.625" close="False" data-weight="0.0" stroke-width="6" fill="none" stroke="#984ea3" />
<path d="M1078.125,950.625 A54.31980515339637,54.31980515339637,0,0,0,1073.990151037828,929.837710518496 M1073.990151037828,929.837710518496 A54.319805153392814,54.319805153392814,0,0,0,1062.2150974233027,912.2150974233027 M1062.2150974233027,912.2150974233027" close="False" data-weight="1.0" stroke-width="6" fill="none" stroke="#984ea3" />
<path d="M1094.0349025766973,537.2150974233027 C1086.0799512883486,545.1700487116514,1070.1700487116514,561.0799512883486,1062.2150974233027,569.0349025766973" close="False" data-weight="0.0" stroke-width="6" fill="none" stroke="#984ea3" />
<path d="M1100.625,253.125 C1089.375,253.125,1066.875,253.125,1055.625,253.125" close="False" data-weight="0.0" stroke-width="6" fill="none" stroke="#984ea3" />
<path d="M1019.0349025766973,869.0349025766973 C1011.0799512883486,861.0799512883486,995.1700487116514,845.1700487116514,987.2150974233027,837.2150974233027" close="False" data-weight="0.0" stroke-width="6" fill="none" stroke="#984ea3" />
<path d="M1025.625,253.125 C1014.375,253.125,991.875,253.125,980.625,253.125" close="False" data-weight="0.0" stroke-width="6" fill="none" stroke="#984ea3" />
<path d="M946.6098954365974,690.296958812895 A49.45452644918767,49.45452644918767,0,0,0,935.889501672745,706.3411618979196 M935.889501672745,706.3411618979196 A49.45452644918612,49.45452644918612,0,0,0,932.125,725.2665898254845 M932.125,725.2665898254845" close="False" data-weight="1.0" stroke-width="6" fill="none" stroke="#984ea3" />
<path d="M950.625,253.125 C939.375,253.125,916.875,253.125,905.625,253.125" close="False" data-weight="0.0" stroke-width="6" fill="none" stroke="#984ea3" />
<path d="M875.625,253.125 C864.375,253.125,841.875,253.125,830.625,253.125" close="False" data-weight="0.0" stroke-width="6" fill="none" stroke="#984ea3" />
<path d="M800.625,253.125 A35.85816626156145,35.85816626156145,0,0,0,781.4378343368927,258.69025023391134 M781.4378343368927,258.69025023391134 A93.83039863669836,93.83039863669836,0,0,0,765.2969588128988,271.60989543659366 M765.2969588128988,271.60989543659366" close="False" data-weight="1.0" stroke-width="6" fill="none" stroke="#984ea3" />
<path d="M650.625,328.125 C639.375,328.125,616.875,328.125,605.625,328.125" close="False" data-weight="0.0" stroke-width="6" fill="none" stroke="#984ea3" />
<path d="M575.625,328.125 C564.375,328.125,541.875,328.125,530.625,328.125" close="False" data-weight="0.0" stroke-width="6" fill="none" stroke="#984ea3" />
<path d="M407.125,605.9834101745155 C407.125,617.0542050872577,407.125,639.1957949127423,407.125,650.2665898254845" close="False" data-weight="0.0" stroke-width="6" fill="none" stroke="#984ea3" />
<path d="M407.125,530.9834101745155 C407.125,542.0542050872577,407.125,564.1957949127423,407.125,575.2665898254845" close="False" data-weight="0.0" stroke-width="6" fill="none" stroke="#984ea3" />
<path d="M419.03490257669733,387.21509742330267 A54.3198051533945,54.3198051533945,0,0,0,407.2598489621722,404.837710518496 M407.2598489621722,404.837710518496 A54.31980515339484,54.31980515339484,0,0,0,403.125,425.625 M403.125,425.625" close="False" data-weight="1.0" stroke-width="6" fill="none" stroke="#984ea3" />
<path d="M350.625,928.125 C339.375,928.125,316.875,928.125,305.625,928.125" close="False" data-weight="0.0" stroke-width="6" fill="none" stroke="#984ea3" />
<path d="M340.953041187105,871.6098954365974 C333.1248070311794,863.7816612806718,317.4683387193282,848.1251929688207,309.6401045634026,840.296958812895" close="False" data-weight="0.0" stroke-width="6" fill="none" stroke="#984ea3" />
<path d="M340.953041187105,759.6401045634026 A49.4545264491869,49.4545264491869,0,0,1,324.90883810208044,770.360498327255 M324.90883810208044,770.360498327255 A49.454526449186915,49.454526449186915,0,0,1,305.9834101745155,774.125 M305.9834101745155,774.125" close="False" data-weight="1.0" stroke-width="6" fill="none" stroke="#984ea3" />
<path d="M1228.125,1175.625 L1228.125,1205.625" close="False" data-weight="1.75" stroke-width="6" fill="none" stroke="#984ea3" />
<path d="M1169.0349025766973,1094.0349025766973 L1212.2150974233027,1137.2150974233027" close="False" data-weight="2.060660171779821" stroke-width="6" fill="none" stroke="#984ea3" />
<path d="M1153.125,425.625 L1153.125,455.625" close="False" data-weight="1.75" stroke-width="6" fill="none" stroke="#984ea3" />
<path d="M1153.125,350.625 L1153.125,380.625" close="False" data-weight="1.75" stroke-width="6" fill="none" stroke="#984ea3" />
<path d="M1153.125,275.625 L1153.125,305.625" close="False" data-weight="1.75" stroke-width="6" fill="none" stroke="#984ea3" />
<path d="M1094.0349025766973,1019.0349025766973 L1137.2150974233027,1062.2150974233027" close="False" data-weight="2.060660171779821" stroke-width="6" fill="none" stroke="#984ea3" />
<path d="M1078.125,950.625 L1078.125,980.625" close="False" data-weight="1.75" stroke-width="6" fill="none" stroke="#984ea3" />
<path d="M1094.0349025766973,537.2150974233027 L1137.2150974233027,494.03490257669733" close="False" data-weight="2.060660171779821" stroke-width="6" fill="none" stroke="#984ea3" />
<path d="M1100.625,253.125 L1130.625,253.125" close="False" data-weight="1.75" stroke-width="6" fill="none" stroke="#984ea3" />
<path d="M1019.0349025766973,869.0349025766973 L1062.2150974233027,912.2150974233027" close="False" data-weight="2.060660171779821" stroke-width="6" fill="none" stroke="#984ea3" />
<path d="M1019.0349025766973,612.2150974233027 L1062.2150974233027,569.0349025766973" close="False" data-weight="2.060660171779821" stroke-width="6" fill="none" stroke="#984ea3" />
<path d="M1025.625,253.125 L1055.625,253.125" close="False" data-weight="1.75" stroke-width="6" fill="none" stroke="#984ea3" />
<path d="M944.0349025766973,794.0349025766973 L987.2150974233027,837.2150974233027" close="False" data-weight="2.060660171779821" stroke-width="6" fill="none" stroke="#984ea3" />
<path d="M932.125,725.2665898254845 L932.125,755.9834101745155" close="False" data-weight="1.75" stroke-width="6" fill="none" stroke="#984ea3" />
<path d="M946.6098954365974,690.296958812895 L990.296958812895,646.6098954365974" close="False" data-weight="2.060660171779821" stroke-width="6" fill="none" stroke="#984ea3" />
<path d="M950.625,253.125 L980.625,253.125" close="False" data-weight="1.75" stroke-width="6" fill="none" stroke="#984ea3" />
<path d="M875.625,253.125 L905.625,253.125" close="False" data-weight="1.75" stroke-width="6" fill="none" stroke="#984ea3" />
<path d="M800.625,253.125 L830.625,253.125" close="False" data-weight="1.75" stroke-width="6" fill="none" stroke="#984ea3" />
<path d="M721.609895436601,315.2969588128913 L765.296958812895,271.6098954365974" close="False" data-weight="2.060660171779821" stroke-width="6" fill="none" stroke="#984ea3" />
<path d="M650.625,328.125 L680.625,328.125" close="False" data-weight="1.75" stroke-width="6" fill="none" stroke="#984ea3" />
<path d="M575.625,328.125 L605.625,328.125" close="False" data-weight="1.75" stroke-width="6" fill="none" stroke="#984ea3" />
<path d="M500.625,328.125 L530.625,328.125" close="False" data-weight="1.75" stroke-width="6" fill="none" stroke="#984ea3" />
<path d="M407.125,650.2665898254845 L407.125,680.9834101745155" close="False" data-weight="1.75" stroke-width="6" fill="none" stroke="#984ea3" />
<path d="M407.125,575.2665898254845 L407.125,605.9834101745155" close="False" data-weight="1.75" stroke-width="6" fill="none" stroke="#984ea3" />
<path d="M407.125,500.2665898254845 L407.125,530.9834101745155" close="False" data-weight="1.75" stroke-width="6" fill="none" stroke="#984ea3" />
<path d="M403.125,425.625 L403.125,455.625" close="False" data-weight="1.75" stroke-width="6" fill="none" stroke="#984ea3" />
<path d="M419.03490257669733,387.21509742330267 L462.21509742330267,344.03490257669733" close="False" data-weight="2.060660171779821" stroke-width="6" fill="none" stroke="#984ea3" />
<path d="M350.625,928.125 L380.625,928.125" close="False" data-weight="1.75" stroke-width="6" fill="none" stroke="#984ea3" />
<path d="M340.953041187105,871.6098954365974 L384.64010456340634,915.2969588128988" close="False" data-weight="2.060660171779821" stroke-width="6" fill="none" stroke="#984ea3" />
<path d="M340.953041187105,759.6401045634026 L384.6401045634026,715.953041187105" close="False" data-weight="2.060660171779821" stroke-width="6" fill="none" stroke="#984ea3" />
<path d="M275.625,928.125 L305.625,928.125" close="False" data-weight="1.75" stroke-width="6" fill="none" stroke="#984ea3" />
<path d="M265.953041187105,796.6098954365974 L309.6401045634026,840.296958812895" close="False" data-weight="2.060660171779821" stroke-width="6" fill="none" stroke="#984ea3" />
<path d="M275.2665898254845,774.125 L305.9834101745155,774.125" close="False" data-weight="1.75" stroke-width="6" fill="none" stroke="#984ea3" />
<path d="M1019.0349025766973,1062.2150974233027 C1011.0799512883486,1070.1700487116514,995.1700487116514,1086.0799512883486,987.2150974233027,1094.0349025766973" close="False" data-weight="0.0" stroke-width="6" fill="none" stroke="#ff7f00" />
<path d="M1025.625,103.125 C1014.375,103.125,991.875,103.125,980.625,103.125" close="False" data-weight="0.0" stroke-width="6" fill="none" stroke="#ff7f00" />
<path d="M944.0349025766973,1137.2150974233027 A54.31980515339554,54.31980515339554,0,0,1,926.412289481504,1148.990151037828 M926.412289481504,1148.990151037828 A54.319805153393645,54.319805153393645,0,0,1,905.625,1153.125 M905.625,1153.125" close="False" data-weight="1.0" stroke-width="6" fill="none" stroke="#ff7f00" />
<path d="M950.625,103.125 A54.31980515339484,54.31980515339484,0,0,0,929.8377105184961,107.25984896217217 M929.8377105184961,107.25984896217217 A54.319805153394384,54.319805153394384,0,0,0,912.2150974233027,119.03490257669732 M912.2150974233027,119.03490257669732" close="False" data-weight="1.0" stroke-width="6" fill="none" stroke="#ff7f00" />
<path d="M875.625,1153.125 C864.375,1153.125,841.875,1153.125,830.625,1153.125" close="False" data-weight="0.0" stroke-width="6" fill="none" stroke="#ff7f00" />
<path d="M869.0349025766973,162.2150974233027 C861.0799512883486,170.17004871165133,845.1700487116514,186.0799512883487,837.2150974233027,194.03490257669733" close="False" data-weight="0.0" stroke-width="6" fill="none" stroke="#ff7f00" />
<path d="M800.625,1153.125 C789.375,1153.125,766.875,1153.125,755.625,1153.125" close="False" data-weight="0.0" stroke-width="6" fill="none" stroke="#ff7f00" />
<path d="M794.0349025766973,237.2150974233027 C786.111693902675,245.13830609732497,767.5633132374212,258.0298325130864,759.640104563399,265.9530411871087" close="False" data-weight="0.0" stroke-width="6" fill="none" stroke="#ff7f00" />
<path d="M725.625,1153.125 C714.375,1153.125,691.875,1153.125,680.625,1153.125" close="False" data-weight="0.0" stroke-width="6" fill="none" stroke="#ff7f00" />
<path d="M650.625,1153.125 C639.375,1153.125,616.875,1153.125,605.625,1153.125" close="False" data-weight="0.0" stroke-width="6" fill="none" stroke="#ff7f00" />
<path d="M649.1547408448131,320.125 C638.6398704224066,320.125,617.6101295775934,320.125,607.0952591551869,320.125" close="False" data-weight="0.0" stroke-width="6" fill="none" stroke="#ff7f00" />
<path d="M575.625,1153.125 C564.375,1153.125,541.875,1153.125,530.625,1153.125" close="False" data-weight="0.0" stroke-width="6" fill="none" stroke="#ff7f00" />
<path d="M574.1547408448131,320.125 C563.6398704224066,320.125,542.6101295775934,320.125,532.0952591551869,320.125" close="False" data-weight="0.0" stroke-width="6" fill="none" stroke="#ff7f00" />
<path d="M500.625,1153.125 C489.375,1153.125,466.875,1153.125,455.625,1153.125" close="False" data-weight="0.0" stroke-width="6" fill="none" stroke="#ff7f00" />
<path d="M478.125,1055.625 A54.31980515339285,54.31980515339285,0,0,1,473.9901510378276,1076.412289481504 M473.9901510378276,1076.412289481504 A54.31980515339627,54.31980515339627,0,0,1,462.21509742330267,1094.0349025766973 M462.21509742330267,1094.0349025766973" close="False" data-weight="1.0" stroke-width="6" fill="none" stroke="#ff7f00" />
<path d="M478.125,980.625 C478.125,991.875,478.125,1014.375,478.125,1025.625" close="False" data-weight="0.0" stroke-width="6" fill="none" stroke="#ff7f00" />
<path d="M478.125,905.625 C478.125,916.875,478.125,939.375,478.125,950.625" close="False" data-weight="0.0" stroke-width="6" fill="none" stroke="#ff7f00" />
<path d="M478.125,875.625 A54.319805153393474,54.319805153393474,0,0,0,473.99015103782773,854.8377105184961 M473.99015103782773,854.8377105184961 A54.319805153395706,54.319805153395706,0,0,0,462.21509742330267,837.2150974233027 M462.21509742330267,837.2150974233027" close="False" data-weight="1.0" stroke-width="6" fill="none" stroke="#ff7f00" />
<path d="M419.03490257669733,269.03490257669733 A54.3198051533945,54.3198051533945,0,0,0,401.412289481504,257.25984896217227 M401.412289481504,257.25984896217227 A54.31980515339484,54.31980515339484,0,0,0,380.625,253.125 M380.625,253.125" close="False" data-weight="1.0" stroke-width="6" fill="none" stroke="#ff7f00" />
<path d="M350.2665898254845,707.125 A57.45452644918623,57.45452644918623,0,0,1,328.2796944389989,702.7515345873452 M328.2796944389989,702.7515345873452 A57.45452644918757,57.45452644918757,0,0,1,309.6401045634026,690.296958812895 M309.6401045634026,690.296958812895" close="False" data-weight="1.0" stroke-width="6" fill="none" stroke="#ff7f00" />
<path d="M350.625,253.125 C339.375,253.125,316.875,253.125,305.625,253.125" close="False" data-weight="0.0" stroke-width="6" fill="none" stroke="#ff7f00" />
<path d="M265.9530411871068,646.6098954365992 C258.1248070311803,638.7816612806728,242.46833871932728,623.1251929688198,234.64010456340077,615.2969588128932" close="False" data-weight="0.0" stroke-width="6" fill="none" stroke="#ff7f00" />
<path d="M275.625,253.125 C264.375,253.125,241.875,253.125,230.625,253.125" close="False" data-weight="0.0" stroke-width="6" fill="none" stroke="#ff7f00" />
<path d="M178.125,455.625 C178.125,466.875,178.125,489.375,178.125,500.625" close="False" data-weight="0.0" stroke-width="6" fill="none" stroke="#ff7f00" />
<path d="M178.125,380.625 C178.125,391.875,178.125,414.375,178.125,425.625" close="False" data-weight="0.0" stroke-width="6" fill="none" stroke="#ff7f00" />
<path d="M178.125,350.625 A54.319805153394526,54.319805153394526,0,0,0,173.99015103782776,329.837710518496 M173.99015103782776,329.837710518496 A54.3198051533948,54.3198051533948,0,0,0,162.21509742330264,312.2150974233026 M162.21509742330264,312.2150974233026" close="False" data-weight="1.0" stroke-width="6" fill="none" stroke="#ff7f00" />
<path d="M200.625,253.125 C189.375,253.125,166.875,253.125,155.625,253.125" close="False" data-weight="0.0" stroke-width="6" fill="none" stroke="#ff7f00" />
<path d="M1019.0349025766973,1062.2150974233027 L1062.2150974233027,1019.0349025766973" close="False" data-weight="2.060660171779821" stroke-width="6" fill="none" stroke="#ff7f00" />
<path d="M1025.625,103.125 L1055.625,103.125" close="False" data-weight="1.75" stroke-width="6" fill="none" stroke="#ff7f00" />
<path d="M944.0349025766973,1137.2150974233027 L987.2150974233027,1094.0349025766973" close="False" data-weight="2.060660171779821" stroke-width="6" fill="none" stroke="#ff7f00" />
<path d="M950.625,103.125 L980.625,103.125" close="False" data-weight="1.75" stroke-width="6" fill="none" stroke="#ff7f00" />
<path d="M875.625,1153.125 L905.625,1153.125" close="False" data-weight="1.75" stroke-width="6" fill="none" stroke="#ff7f00" />
<path d="M869.0349025766973,162.21509742330267 L912.2150974233027,119.0349025766973" close="False" data-weight="2.060660171779821" stroke-width="6" fill="none" stroke="#ff7f00" />
<path d="M800.625,1153.125 L830.625,1153.125" close="False" data-weight="1.75" stroke-width="6" fill="none" stroke="#ff7f00" />
<path d="M794.0349025766973,237.21509742330267 L837.2150974233027,194.0349025766973" close="False" data-weight="2.060660171779821" stroke-width="6" fill="none" stroke="#ff7f00" />
<path d="M725.625,1153.125 L755.625,1153.125" close="False" data-weight="1.75" stroke-width="6" fill="none" stroke="#ff7f00" />
<path d="M715.9530411871012,309.64010456340634 L759.6401045634026,265.953041187105" close="False" data-weight="2.060660171779821" stroke-width="6" fill="none" stroke="#ff7f00" />
<path d="M650.625,1153.125 L680.625,1153.125" close="False" data-weight="1.75" stroke-width="6" fill="none" stroke="#ff7f00" />
<path d="M649.1547408448131,320.125 L682.0952591551869,320.125" close="False" data-weight="1.75" stroke-width="6" fill="none" stroke="#ff7f00" />
<path d="M575.625,1153.125 L605.625,1153.125" close="False" data-weight="1.75" stroke-width="6" fill="none" stroke="#ff7f00" />
<path d="M574.1547408448131,320.125 L607.0952591551869,320.125" close="False" data-weight="1.75" stroke-width="6" fill="none" stroke="#ff7f00" />
<path d="M500.625,1153.125 L530.625,1153.125" close="False" data-weight="1.75" stroke-width="6" fill="none" stroke="#ff7f00" />
<path d="M478.125,1025.625 L478.125,1055.625" close="False" data-weight="1.75" stroke-width="6" fill="none" stroke="#ff7f00" />
<path d="M478.125,950.625 L478.125,980.625" close="False" data-weight="1.75" stroke-width="6" fill="none" stroke="#ff7f00" />
<path d="M478.125,875.625 L478.125,905.625" close="False" data-weight="1.75" stroke-width="6" fill="none" stroke="#ff7f00" />
<path d="M499.1547408448131,320.125 L532.0952591551869,320.125" close="False" data-weight="1.75" stroke-width="6" fill="none" stroke="#ff7f00" />
<path d="M425.625,1153.125 L455.625,1153.125" close="False" data-weight="1.75" stroke-width="6" fill="none" stroke="#ff7f00" />
<path d="M419.03490257669733,1137.2150974233027 L462.21509742330267,1094.0349025766973" close="False" data-weight="2.060660171779821" stroke-width="6" fill="none" stroke="#ff7f00" />
<path d="M419.03490257669733,794.0349025766973 L462.21509742330267,837.2150974233027" close="False" data-weight="2.060660171779821" stroke-width="6" fill="none" stroke="#ff7f00" />
<path d="M403.125,725.625 L403.125,755.625" close="False" data-weight="1.75" stroke-width="6" fill="none" stroke="#ff7f00" />
<path d="M419.03490257669733,269.03490257669733 L462.21509742330267,312.21509742330267" close="False" data-weight="2.060660171779821" stroke-width="6" fill="none" stroke="#ff7f00" />
<path d="M350.2665898254845,707.125 L380.9834101745155,707.125" close="False" data-weight="1.75" stroke-width="6" fill="none" stroke="#ff7f00" />
<path d="M350.625,253.125 L380.625,253.125" close="False" data-weight="1.75" stroke-width="6" fill="none" stroke="#ff7f00" />
<path d="M265.9530411871068,646.6098954365992 L309.6401045634026,690.296958812895" close="False" data-weight="2.060660171779821" stroke-width="6" fill="none" stroke="#ff7f00" />
<path d="M275.625,253.125 L305.625,253.125" close="False" data-weight="1.75" stroke-width="6" fill="none" stroke="#ff7f00" />
<path d="M190.953041187105,571.6098954365974 L234.64010456340083,615.2969588128932" close="False" data-weight="2.060660171779821" stroke-width="6" fill="none" stroke="#ff7f00" />
<path d="M178.125,500.625 L178.125,530.625" close="False" data-weight="1.75" stroke-width="6" fill="none" stroke="#ff7f00" />
<path d="M178.125,425.625 L178.125,455.625" close="False" data-weight="1.75" stroke-width="6" fill="none" stroke="#ff7f00" />
<path d="M178.125,350.625 L178.125,380.625" close="False" data-weight="1.75" stroke-width="6" fill="none" stroke="#ff7f00" />
<path d="M200.625,253.125 L230.625,253.125" close="False" data-weight="1.75" stroke-width="6" fill="none" stroke="#ff7f00" />
<path d="M119.03490257669732,269.03490257669733 L162.2150974233027,312.21509742330267" close="False" data-weight="2.060660171779821" stroke-width="6" fill="none" stroke="#ff7f00" />
<path d="M125.625,253.125 L155.625,253.125" close="False" data-weight="1.75" stroke-width="6" fill="none" stroke="#ff7f00" />
<path d="M940.953041187105,684.6401045634026 A57.45452644918628,57.45452644918628,0,0,0,928.4984654126548,703.2796944389988 M928.4984654126548,703.2796944389988 A57.4545264491876,57.4545264491876,0,0,0,924.125,725.2665898254845 M924.125,725.2665898254845" close="False" data-weight="1.0" stroke-width="6" fill="none" stroke="#4daf4a" />
<path d="M875.625,778.125 C864.375,778.125,841.875,778.125,830.625,778.125" close="False" data-weight="0.0" stroke-width="6" fill="none" stroke="#4daf4a" />
<path d="M800.625,778.125 C789.375,778.125,766.875,778.125,755.625,778.125" close="False" data-weight="0.0" stroke-width="6" fill="none" stroke="#4daf4a" />
<path d="M725.625,778.125 C714.375,778.125,691.875,778.125,680.625,778.125" close="False" data-weight="0.0" stroke-width="6" fill="none" stroke="#4daf4a" />
<path d="M650.625,778.125 C639.375,778.125,616.875,778.125,605.625,778.125" close="False" data-weight="0.0" stroke-width="6" fill="none" stroke="#4daf4a" />
<path d="M575.625,778.125 C564.375,778.125,541.875,778.125,530.625,778.125" close="False" data-weight="0.0" stroke-width="6" fill="none" stroke="#4daf4a" />
<path d="M500.625,778.125 A54.319805153394555,54.319805153394555,0,0,1,479.837710518496,773.9901510378278 M479.837710518496,773.9901510378278 A54.31980515339474,54.31980515339474,0,0,1,462.21509742330267,762.2150974233027 M462.21509742330267,762.2150974233027" close="False" data-weight="1.0" stroke-width="6" fill="none" stroke="#4daf4a" />
<path d="M403.125,1055.625 C403.125,1066.875,403.125,1089.375,403.125,1100.625" close="False" data-weight="0.0" stroke-width="6" fill="none" stroke="#4daf4a" />
<path d="M403.125,980.625 C403.125,991.875,403.125,1014.375,403.125,1025.625" close="False" data-weight="0.0" stroke-width="6" fill="none" stroke="#4daf4a" />
<path d="M346.6098954365974,865.953041187105 C338.7816612806718,858.1248070311793,323.1251929688206,842.4683387193282,315.296958812895,834.6401045634026" close="False" data-weight="0.0" stroke-width="6" fill="none" stroke="#4daf4a" />
<path d="M346.6098954365974,765.296958812895 A57.454526449186766,57.454526449186766,0,0,1,327.97030556100117,777.7515345873453 M327.97030556100117,777.7515345873453 A57.45452644918703,57.45452644918703,0,0,1,305.9834101745155,782.125 M305.9834101745155,782.125" close="False" data-weight="1.0" stroke-width="6" fill="none" stroke="#4daf4a" />
<path d="M924.125,725.2665898254845 L924.125,755.9834101745155" close="False" data-weight="1.75" stroke-width="6" fill="none" stroke="#4daf4a" />
<path d="M940.953041187105,684.6401045634026 L984.6401045634026,640.953041187105" close="False" data-weight="2.060660171779821" stroke-width="6" fill="none" stroke="#4daf4a" />
<path d="M875.625,778.125 L905.625,778.125" close="False" data-weight="1.75" stroke-width="6" fill="none" stroke="#4daf4a" />
<path d="M800.625,778.125 L830.625,778.125" close="False" data-weight="1.75" stroke-width="6" fill="none" stroke="#4daf4a" />
<path d="M725.625,778.125 L755.625,778.125" close="False" data-weight="1.75" stroke-width="6" fill="none" stroke="#4daf4a" />
<path d="M650.625,778.125 L680.625,778.125" close="False" data-weight="1.75" stroke-width="6" fill="none" stroke="#4daf4a" />
<path d="M575.625,778.125 L605.625,778.125" close="False" data-weight="1.75" stroke-width="6" fill="none" stroke="#4daf4a" />
<path d="M500.625,778.125 L530.625,778.125" close="False" data-weight="1.75" stroke-width="6" fill="none" stroke="#4daf4a" />
<path d="M403.125,1100.625 L403.125,1130.625" close="False" data-weight="1.75" stroke-width="6" fill="none" stroke="#4daf4a" />
<path d="M403.125,1025.625 L403.125,1055.625" close="False" data-weight="1.75" stroke-width="6" fill="none" stroke="#4daf4a" />
<path d="M403.125,950.625 L403.125,980.625" close="False" data-weight="1.75" stroke-width="6" fill="none" stroke="#4daf4a" />
<path d="M419.03490257669733,719.0349025766973 L462.21509742330267,762.2150974233027" close="False" data-weight="2.060660171779821" stroke-width="6" fill="none" stroke="#4daf4a" />
<path d="M346.6098954365974,865.953041187105 L390.2969588128913,909.6401045633988" close="False" data-weight="2.060660171779821" stroke-width="6" fill="none" stroke="#4daf4a" />
<path d="M346.6098954365974,765.296958812895 L390.296958812895,721.6098954365974" close="False" data-weight="2.060660171779821" stroke-width="6" fill="none" stroke="#4daf4a" />
<path d="M271.6098954365974,790.953041187105 L315.296958812895,834.6401045634026" close="False" data-weight="2.060660171779821" stroke-width="6" fill="none" stroke="#4daf4a" />
<path d="M275.2665898254845,782.125 L305.9834101745155,782.125" close="False" data-weight="1.75" stroke-width="6" fill="none" stroke="#4daf4a" />
<path d="M399.125,605.9834101745155 C399.125,617.0542050872577,399.125,639.1957949127423,399.125,650.2665898254845" close="False" data-weight="0.0" stroke-width="6" fill="none" stroke="#377eb8" />
<path d="M399.125,530.9834101745155 C399.125,542.0542050872577,399.125,564.1957949127423,399.125,575.2665898254845" close="False" data-weight="0.0" stroke-width="6" fill="none" stroke="#377eb8" />
<path d="M350.2665898254845,699.125 A49.454526449186915,49.454526449186915,0,0,1,331.34116189791956,695.360498327255 M331.34116189791956,695.360498327255 A49.4545264491869,49.4545264491869,0,0,1,315.296958812895,684.6401045634026 M315.296958812895,684.6401045634026" close="False" data-weight="1.0" stroke-width="6" fill="none" stroke="#377eb8" />
<path d="M271.60989543659554,640.953041187103 C263.7816612806709,633.1248070311784,248.1251929688215,617.4683387193292,240.29695881289686,609.6401045634045" close="False" data-weight="0.0" stroke-width="6" fill="none" stroke="#377eb8" />
<path d="M399.125,650.2665898254845 L399.125,680.9834101745155" close="False" data-weight="1.75" stroke-width="6" fill="none" stroke="#377eb8" />
<path d="M399.125,575.2665898254845 L399.125,605.9834101745155" close="False" data-weight="1.75" stroke-width="6" fill="none" stroke="#377eb8" />
<path d="M399.125,500.2665898254845 L399.125,530.9834101745155" close="False" data-weight="1.75" stroke-width="6" fill="none" stroke="#377eb8" />
<path d="M350.2665898254845,699.125 L380.9834101745155,699.125" close="False" data-weight="1.75" stroke-width="6" fill="none" stroke="#377eb8" />
<path d="M271.60989543659554,640.953041187103 L315.296958812895,684.6401045634026" close="False" data-weight="2.060660171779821" stroke-width="6" fill="none" stroke="#377eb8" />
<path d="M196.60989543659736,565.953041187105 L240.2969588128968,609.6401045634044" close="False" data-weight="2.060660171779821" stroke-width="6" fill="none" stroke="#377eb8" />
<path d="M1169.0349025766973,569.0349025766973 A54.31980515339514,54.31980515339514,0,0,0,1151.412289481504,557.2598489621722 M1151.412289481504,557.2598489621722 A54.319805153393986,54.319805153393986,0,0,0,1130.625,553.125 M1130.625,553.125" close="False" data-weight="1.0" stroke-width="6" fill="none" stroke="#e41a1c" />
<path d="M1100.625,553.125 C1089.375,553.125,1066.875,553.125,1055.625,553.125" close="False" data-weight="0.0" stroke-width="6" fill="none" stroke="#e41a1c" />
<path d="M1025.625,553.125 C1014.375,553.125,991.875,553.125,980.625,553.125" close="False" data-weight="0.0" stroke-width="6" fill="none" stroke="#e41a1c" />
<path d="M869.0349025766973,494.03490257669733 C861.0799512883486,486.0799512883487,845.1700487116514,470.1700487116513,837.2150974233027,462.21509742330267" close="False" data-weight="0.0" stroke-width="6" fill="none" stroke="#e41a1c" />
<path d="M794.0349025766973,419.03490257669733 C786.0799512883486,411.0799512883487,770.1700487116514,395.1700487116513,762.2150974233027,387.21509742330267" close="False" data-weight="0.0" stroke-width="6" fill="none" stroke="#e41a1c" />
<path d="M649.1547408448131,336.125 C638.6398704224066,336.125,617.6101295775934,336.125,607.0952591551869,336.125" close="False" data-weight="0.0" stroke-width="6" fill="none" stroke="#e41a1c" />
<path d="M574.1547408448131,336.125 C563.6398704224066,336.125,542.6101295775934,336.125,532.0952591551869,336.125" close="False" data-weight="0.0" stroke-width="6" fill="none" stroke="#e41a1c" />
<path d="M1169.0349025766973,569.0349025766973 L1212.2150974233027,612.2150974233027" close="False" data-weight="2.060660171779821" stroke-width="6" fill="none" stroke="#e41a1c" />
<path d="M1100.625,553.125 L1130.625,553.125" close="False" data-weight="1.75" stroke-width="6" fill="none" stroke="#e41a1c" />
<path d="M1025.625,553.125 L1055.625,553.125" close="False" data-weight="1.75" stroke-width="6" fill="none" stroke="#e41a1c" />
<path d="M950.625,553.125 L980.625,553.125" close="False" data-weight="1.75" stroke-width="6" fill="none" stroke="#e41a1c" />
<path d="M869.0349025766973,494.03490257669733 L912.2150974233027,537.2150974233027" close="False" data-weight="2.060660171779821" stroke-width="6" fill="none" stroke="#e41a1c" />
<path d="M794.0349025766973,419.03490257669733 L837.2150974233027,462.21509742330267" close="False" data-weight="2.060660171779821" stroke-width="6" fill="none" stroke="#e41a1c" />
<path d="M719.0349025766973,344.03490257669733 L762.2150974233027,387.21509742330267" close="False" data-weight="2.060660171779821" stroke-width="6" fill="none" stroke="#e41a1c" />
<path d="M649.1547408448131,336.125 L682.0952591551869,336.125" close="False" data-weight="1.75" stroke-width="6" fill="none" stroke="#e41a1c" />
<path d="M574.1547408448131,336.125 L607.0952591551869,336.125" close="False" data-weight="1.75" stroke-width="6" fill="none" stroke="#e41a1c" />
<path d="M499.1547408448131,336.125 L532.0952591551869,336.125" close="False" data-weight="1.75" stroke-width="6" fill="none" stroke="#e41a1c" />
<image x="1195.625" y="1195.625" width="65" height="65" xlink:href="designspace-test/./img/ds_dataset0_20_5_thumb.png">
<title>5</title>
</image>
<image x="1195.625" y="595.625" width="65" height="65" xlink:href="designspace-test/./img/ds_dataset0_20_9_thumb.png">
<title>9</title>
</image>
<image x="1120.625" y="220.625" width="65" height="65" xlink:href="designspace-test/./img/ds_dataset0_20_10_thumb.png">
<title>10</title>
</image>
<image x="1045.625" y="970.625" width="65" height="65" xlink:href="designspace-test/./img/ds_dataset0_20_7_thumb.png">
<title>7</title>
</image>
<image x="1045.625" y="70.625" width="65" height="65" xlink:href="designspace-test/./img/ds_dataset0_20_11_thumb.png">
<title>11</title>
</image>
<image x="970.625" y="895.625" width="65" height="65" xlink:href="designspace-test/./img/ds_dataset0_20_6_thumb.png">
<title>6</title>
</image>
<image x="970.625" y="595.625" width="65" height="65" xlink:href="designspace-test/./img/ds_dataset0_20_0_thumb.png">
<title>0</title>
</image>
<image x="895.625" y="745.625" width="65" height="65" xlink:href="designspace-test/./img/ds_dataset0_20_8_thumb.png">
<title>8</title>
</image>
<image x="895.625" y="520.625" width="65" height="65" xlink:href="designspace-test/./img/ds_dataset0_20_1_thumb.png">
<title>1</title>
</image>
<image x="670.625" y="295.625" width="65" height="65" xlink:href="designspace-test/./img/ds_dataset0_20_4_thumb.png">
<title>4</title>
</image>
<image x="445.625" y="295.625" width="65" height="65" xlink:href="designspace-test/./img/ds_dataset0_20_15_thumb.png">
<title>15</title>
</image>
<image x="370.625" y="1120.625" width="65" height="65" xlink:href="designspace-test/./img/ds_dataset0_20_3_thumb.png">
<title>3</title>
</image>
<image x="370.625" y="895.625" width="65" height="65" xlink:href="designspace-test/./img/ds_dataset0_20_12_thumb.png">
<title>12</title>
</image>
<image x="370.625" y="745.625" width="65" height="65" xlink:href="designspace-test/./img/ds_dataset0_20_16_thumb.png">
<title>16</title>
</image>
<image x="370.625" y="670.625" width="65" height="65" xlink:href="designspace-test/./img/ds_dataset0_20_19_thumb.png">
<title>19</title>
</image>
<image x="370.625" y="445.625" width="65" height="65" xlink:href="designspace-test/./img/ds_dataset0_20_18_thumb.png">
<title>18</title>
</image>
<image x="220.625" y="895.625" width="65" height="65" xlink:href="designspace-test/./img/ds_dataset0_20_17_thumb.png">
<title>17</title>
</image>
<image x="220.625" y="745.625" width="65" height="65" xlink:href="designspace-test/./img/ds_dataset0_20_14_thumb.png">
<title>14</title>
</image>
<image x="145.625" y="520.625" width="65" height="65" xlink:href="designspace-test/./img/ds_dataset0_20_2_thumb.png">
<title>2</title>
</image>
<image x="70.625" y="220.625" width="65" height="65" xlink:href="designspace-test/./img/ds_dataset0_20_13_thumb.png">
<title>13</title>
</image>
</svg>