<?xml version="1.0" encoding="UTF-8"?>
<svg xmlns="http://www.w3.org/2000/svg" xmlns:xlink="http://www.w3.org/1999/xlink"
     viewBox="0 0 1350 1350" preserveAspectRatio="xMidYMid meet">
<defs>
</defs>
<path d="M703.125,605.625 A54.31980515339478,54.31980515339478,0,0,1,698.9901510378278,626.4122894815039 M698.9901510378278,626.4122894815039 A54.319805153394256,54.319805153394256,0,0,1,687.2150974233027,644.0349025766973 M687.2150974233027,644.0349025766973" close="False" data-weight="1.0" stroke-width="7" fill="none" stroke="#1fa562" />
<path d="M712.125,532.5034093726987 C712.125,543.5161053931691,703.125,564.6123039795295,703.125,575.625" close="False" data-weight="0.0" stroke-width="7" fill="none" stroke="#1fa562" />
<path d="M712.125,457.50340937269874 C712.125,467.8142046863494,712.125,488.4357953136506,712.125,498.74659062730126" close="False" data-weight="0.0" stroke-width="7" fill="none" stroke="#1fa562" />
<path d="M712.125,382.50340937269874 C712.125,392.8142046863494,712.125,413.4357953136506,712.125,423.74659062730126" close="False" data-weight="0.0" stroke-width="7" fill="none" stroke="#1fa562" />
<path d="M644.0349025766973,687.2150974233027 C636.0799512883486,695.1700487116514,620.1700487116514,711.0799512883486,612.2150974233027,719.0349025766973" close="False" data-weight="0.0" stroke-width="7" fill="none" stroke="#1fa562" />
<path d="M569.0349025766973,762.2150974233027 C561.0799512883486,770.1700487116514,545.1700487116514,786.0799512883486,537.2150974233027,794.0349025766973" close="False" data-weight="0.0" stroke-width="7" fill="none" stroke="#1fa562" />
<path d="M494.03490257669733,837.2150974233027 C486.0799512883487,845.1700487116514,470.1700487116513,861.0799512883486,462.21509742330267,869.0349025766973" close="False" data-weight="0.0" stroke-width="7" fill="none" stroke="#1fa562" />
<path d="M419.03490257669733,912.2150974233027 C411.0799512883487,920.1700487116514,395.1700487116513,936.0799512883486,387.21509742330267,944.0349025766973" close="False" data-weight="0.0" stroke-width="7" fill="none" stroke="#1fa562" />
<path d="M344.03490257669733,987.2150974233027 C336.0799512883487,995.1700487116514,320.1700487116513,1011.0799512883486,312.21509742330267,1019.0349025766973" close="False" data-weight="0.0" stroke-width="7" fill="none" stroke="#1fa562" />
<path d="M269.03490257669733,1062.2150974233027 C261.0799512883487,1070.1700487116514,245.1700487116513,1086.0799512883486,237.21509742330267,1094.0349025766973" close="False" data-weight="0.0" stroke-width="7" fill="none" stroke="#1fa562" />
<path d="M703.125,575.625 L703.125,605.625" close="False" data-weight="1.75" stroke-width="7" fill="none" stroke="#1fa562" />
<path d="M712.125,498.74659062730126 L712.125,532.5034093726987" close="False" data-weight="1.75" stroke-width="7" fill="none" stroke="#1fa562" />
<path d="M712.125,423.74659062730126 L712.125,457.50340937269874" close="False" data-weight="1.75" stroke-width="7" fill="none" stroke="#1fa562" />
<path d="M712.125,348.74659062730126 L712.125,382.50340937269874" close="False" data-weight="1.75" stroke-width="7" fill="none" stroke="#1fa562" />
<path d="M644.0349025766973,687.2150974233027 L687.2150974233027,644.0349025766973" close="False" data-weight="2.060660171779821" stroke-width="7" fill="none" stroke="#1fa562" />
<path d="M569.0349025766973,762.2150974233027 L612.2150974233027,719.0349025766973" close="False" data-weight="2.060660171779821" stroke-width="7" fill="none" stroke="#1fa562" />
<path d="M494.03490257669733,837.2150974233027 L537.2150974233027,794.0349025766973" close="False" data-weight="2.060660171779821" stroke-width="7" fill="none" stroke="#1fa562" />
<path d="M419.03490257669733,912.2150974233027 L462.21509742330267,869.0349025766973" close="False" data-weight="2.060660171779821" stroke-width="7" fill="none" stroke="#1fa562" />
<path d="M344.03490257669733,987.2150974233027 L387.21509742330267,944.0349025766973" close="False" data-weight="2.060660171779821" stroke-width="7" fill="none" stroke="#1fa562" />
<path d="M269.03490257669733,1062.2150974233027 L312.21509742330267,1019.0349025766973" close="False" data-weight="2.060660171779821" stroke-width="7" fill="none" stroke="#1fa562" />
<path d="M194.03490257669733,1137.2150974233027 L237.2150974233027,1094.0349025766973" close="False" data-weight="2.060660171779821" stroke-width="7" fill="none" stroke="#1fa562" />
<path d="M1099.0706276020965,469.9072944592613 C1091.7797943163896,477.19812774496813,1077.198127744976,491.7797943163818,1069.9072944592692,499.0706276020886" close="False" data-weight="0.0" stroke-width="7" fill="none" stroke="#ff1c5d" />
<path d="M1003.125,1130.625 C1003.125,1141.875,1003.125,1164.375,1003.125,1175.625" close="False" data-weight="0.0" stroke-width="7" fill="none" stroke="#ff1c5d" />
<path d="M1003.125,1055.625 C1003.125,1066.875,1003.125,1089.375,1003.125,1100.625" close="False" data-weight="0.0" stroke-width="7" fill="none" stroke="#ff1c5d" />
<path d="M1019.0349025766973,762.2150974233027 A54.3198051533949,54.3198051533949,0,0,1,1001.4122894815039,773.9901510378279 M1001.4122894815039,773.9901510378279 A54.31980515339421,54.31980515339421,0,0,1,980.625,778.125 M980.625,778.125" close="False" data-weight="1.0" stroke-width="7" fill="none" stroke="#ff1c5d" />
<path d="M1024.0706276020885,544.9072944592695 C1016.7797943163818,552.1981277449763,1002.1981277449681,566.7797943163898,994.9072944592613,574.0706276020967" close="False" data-weight="0.0" stroke-width="7" fill="none" stroke="#ff1c5d" />
<path d="M950.625,1003.125 C939.375,1003.125,916.875,1003.125,905.625,1003.125" close="False" data-weight="0.0" stroke-width="7" fill="none" stroke="#ff1c5d" />
<path d="M949.0706276020967,619.9072944592613 A58.78492377013665,58.78492377013665,0,0,1,929.9994257723747,632.6502641213289 M929.9994257723747,632.6502641213289 A58.78492377013686,58.78492377013686,0,0,1,907.5034093726987,637.125 M907.5034093726987,637.125" close="False" data-weight="1.0" stroke-width="7" fill="none" stroke="#ff1c5d" />
<path d="M875.625,1003.125 C864.375,1003.125,841.875,1003.125,830.625,1003.125" close="False" data-weight="0.0" stroke-width="7" fill="none" stroke="#ff1c5d" />
<path d="M865.5314767527805,834.3545622165407 C857.7372481187206,842.1487908506006,842.1487908506006,857.7372481187206,834.3545622165407,865.5314767527805" close="False" data-weight="0.0" stroke-width="7" fill="none" stroke="#ff1c5d" />
<path d="M790.5314767527805,909.3545622165407 A57.722322221287925,57.722322221287925,0,0,0,778.0188501520187,928.0810312933224 M778.0188501520187,928.0810312933224 A57.722322221289005,57.722322221289005,0,0,0,773.625,950.1704076850486 M773.625,950.1704076850486" close="False" data-weight="1.0" stroke-width="7" fill="none" stroke="#ff1c5d" />
<path d="M796.8954377834593,690.7185232472195 A57.722322221287925,57.722322221287925,0,0,1,778.1689687066777,703.2311498479813 M778.1689687066777,703.2311498479813 A57.722322221289005,57.722322221289005,0,0,1,756.0795923149514,707.625 M756.0795923149514,707.625" close="False" data-weight="1.0" stroke-width="7" fill="none" stroke="#ff1c5d" />
<path d="M725.1704076850486,707.625 C714.1477038425244,707.625,692.1022961574756,707.625,681.0795923149514,707.625" close="False" data-weight="0.0" stroke-width="7" fill="none" stroke="#ff1c5d" />
<path d="M703.125,530.625 A112.70237015801547,112.70237015801547,0,0,1,700.9001678914944,552.9081287245176 M700.9001678914944,552.9081287245176 A37.27458738646325,37.27458738646325,0,0,1,690.7185232472195,571.8954377834593 M690.7185232472195,571.8954377834593" close="False" data-weight="1.0" stroke-width="7" fill="none" stroke="#ff1c5d" />
<path d="M703.125,455.625 C703.125,466.875,703.125,489.375,703.125,500.625" close="False" data-weight="0.0" stroke-width="7" fill="none" stroke="#ff1c5d" />
<path d="M703.125,380.625 C703.125,391.875,703.125,414.375,703.125,425.625" close="False" data-weight="0.0" stroke-width="7" fill="none" stroke="#ff1c5d" />
<path d="M650.1704076850486,998.625 C639.1477038425244,998.625,617.1022961574756,998.625,606.0795923149514,998.625" close="False" data-weight="0.0" stroke-width="7" fill="none" stroke="#ff1c5d" />
<path d="M650.1704076850486,707.625 C639.1477038425244,707.625,617.1022961574756,707.625,606.0795923149514,707.625" close="False" data-weight="0.0" stroke-width="7" fill="none" stroke="#ff1c5d" />
<path d="M646.8954377834593,615.7185232472195 C639.1012091493994,623.5127518812794,623.5127518812794,639.1012091493994,615.7185232472195,646.8954377834593" close="False" data-weight="0.0" stroke-width="7" fill="none" stroke="#ff1c5d" />
<path d="M557.625,906.0795923149514 C557.625,917.1022961574756,557.625,939.1477038425244,557.625,950.1704076850486" close="False" data-weight="0.0" stroke-width="7" fill="none" stroke="#ff1c5d" />
<path d="M557.625,831.0795923149514 C557.625,842.1022961574756,557.625,864.1477038425244,557.625,875.1704076850486" close="False" data-weight="0.0" stroke-width="7" fill="none" stroke="#ff1c5d" />
<path d="M557.625,756.0795923149514 C557.625,767.1022961574756,557.625,789.1477038425244,557.625,800.1704076850486" close="False" data-weight="0.0" stroke-width="7" fill="none" stroke="#ff1c5d" />
<path d="M482.625,831.0795923149514 C482.625,842.1022961574756,482.625,864.1477038425244,482.625,875.1704076850486" close="False" data-weight="0.0" stroke-width="7" fill="none" stroke="#ff1c5d" />
<path d="M496.8954377834594,765.7185232472195 A48.72232222128838,48.72232222128838,0,0,0,486.33376594462015,781.5251821846082 M486.33376594462015,781.5251821846082 A48.722322221288664,48.722322221288664,0,0,0,482.625,800.1704076850486 M482.625,800.1704076850486" close="False" data-weight="1.0" stroke-width="7" fill="none" stroke="#ff1c5d" />
<path d="M1099.0706276020885,469.9072944592692 L1144.907294459261,424.0706276020967" close="False" data-weight="2.060660171779821" stroke-width="7" fill="none" stroke="#ff1c5d" />
<path d="M1003.125,1175.625 L1003.125,1205.625" close="False" data-weight="1.75" stroke-width="7" fill="none" stroke="#ff1c5d" />
<path d="M1003.125,1100.625 L1003.125,1130.625" close="False" data-weight="1.75" stroke-width="7" fill="none" stroke="#ff1c5d" />
<path d="M1003.125,1025.625 L1003.125,1055.625" close="False" data-weight="1.75" stroke-width="7" fill="none" stroke="#ff1c5d" />
<path d="M1019.0349025766973,762.2150974233027 L1062.2150974233027,719.0349025766973" close="False" data-weight="2.060660171779821" stroke-width="7" fill="none" stroke="#ff1c5d" />
<path d="M1024.0706276020967,544.9072944592613 L1069.9072944592613,499.07062760209664" close="False" data-weight="2.060660171779821" stroke-width="7" fill="none" stroke="#ff1c5d" />
<path d="M950.625,1003.125 L980.625,1003.125" close="False" data-weight="1.75" stroke-width="7" fill="none" stroke="#ff1c5d" />
<path d="M950.625,778.125 L980.625,778.125" close="False" data-weight="1.75" stroke-width="7" fill="none" stroke="#ff1c5d" />
<path d="M949.0706276020967,619.9072944592613 L994.9072944592613,574.0706276020967" close="False" data-weight="2.060660171779821" stroke-width="7" fill="none" stroke="#ff1c5d" />
<path d="M875.625,1003.125 L905.625,1003.125" close="False" data-weight="1.75" stroke-width="7" fill="none" stroke="#ff1c5d" />
<path d="M865.5314767527805,834.3545622165407 L909.3545622165407,790.5314767527805" close="False" data-weight="2.060660171779821" stroke-width="7" fill="none" stroke="#ff1c5d" />
<path d="M873.7465906273013,637.125 L907.5034093726987,637.125" close="False" data-weight="1.75" stroke-width="7" fill="none" stroke="#ff1c5d" />
<path d="M800.625,1003.125 L830.625,1003.125" close="False" data-weight="1.75" stroke-width="7" fill="none" stroke="#ff1c5d" />
<path d="M773.625,950.1704076850486 L773.625,981.0795923149514" close="False" data-weight="1.75" stroke-width="7" fill="none" stroke="#ff1c5d" />
<path d="M790.5314767527805,909.3545622165407 L834.3545622165407,865.5314767527805" close="False" data-weight="2.060660171779821" stroke-width="7" fill="none" stroke="#ff1c5d" />
<path d="M796.8954377834668,690.718523247212 L840.7185232472195,646.8954377834593" close="False" data-weight="2.060660171779821" stroke-width="7" fill="none" stroke="#ff1c5d" />
<path d="M725.1704076850486,998.625 L756.0795923149514,998.625" close="False" data-weight="1.75" stroke-width="7" fill="none" stroke="#ff1c5d" />
<path d="M725.1704076850486,707.625 L756.0795923149514,707.625" close="False" data-weight="1.75" stroke-width="7" fill="none" stroke="#ff1c5d" />
<path d="M703.125,500.625 L703.125,530.625" close="False" data-weight="1.75" stroke-width="7" fill="none" stroke="#ff1c5d" />
<path d="M703.125,425.625 L703.125,455.625" close="False" data-weight="1.75" stroke-width="7" fill="none" stroke="#ff1c5d" />
<path d="M703.125,350.625 L703.125,380.625" close="False" data-weight="1.75" stroke-width="7" fill="none" stroke="#ff1c5d" />
<path d="M650.1704076850486,998.625 L681.0795923149514,998.625" close="False" data-weight="1.75" stroke-width="7" fill="none" stroke="#ff1c5d" />
<path d="M650.1704076850486,707.625 L681.0795923149514,707.625" close="False" data-weight="1.75" stroke-width="7" fill="none" stroke="#ff1c5d" />
<path d="M646.8954377834593,615.7185232472195 L690.7185232472195,571.8954377834593" close="False" data-weight="2.060660171779821" stroke-width="7" fill="none" stroke="#ff1c5d" />
<path d="M575.1704076850486,998.625 L606.0795923149514,998.625" close="False" data-weight="1.75" stroke-width="7" fill="none" stroke="#ff1c5d" />
<path d="M557.625,950.1704076850486 L557.625,981.0795923149514" close="False" data-weight="1.75" stroke-width="7" fill="none" stroke="#ff1c5d" />
<path d="M557.625,875.1704076850486 L557.625,906.0795923149514" close="False" data-weight="1.75" stroke-width="7" fill="none" stroke="#ff1c5d" />
<path d="M557.625,800.1704076850486 L557.625,831.0795923149514" close="False" data-weight="1.75" stroke-width="7" fill="none" stroke="#ff1c5d" />
<path d="M557.625,725.1704076850486 L557.625,756.0795923149514" close="False" data-weight="1.75" stroke-width="7" fill="none" stroke="#ff1c5d" />
<path d="M575.1704076850486,707.625 L606.0795923149514,707.625" close="False" data-weight="1.75" stroke-width="7" fill="none" stroke="#ff1c5d" />
<path d="M571.8954377834593,690.7185232472195 L615.7185232472195,646.8954377834593" close="False" data-weight="2.060660171779821" stroke-width="7" fill="none" stroke="#ff1c5d" />
<path d="M482.625,875.1704076850486 L482.625,906.0795923149514" close="False" data-weight="1.75" stroke-width="7" fill="none" stroke="#ff1c5d" />
<path d="M482.625,800.1704076850486 L482.625,831.0795923149514" close="False" data-weight="1.75" stroke-width="7" fill="none" stroke="#ff1c5d" />
<path d="M496.8954377834594,765.7185232472195 L540.7185232472197,721.8954377834592" close="False" data-weight="2.060660171779821" stroke-width="7" fill="none" stroke="#ff1c5d" />
<path d="M1094.0349025766973,462.21509742330267 C1086.0799512883486,470.1700487116513,1070.1700487116514,486.0799512883487,1062.2150974233027,494.03490257669733" close="False" data-weight="0.0" stroke-width="7" fill="none" stroke="#7cd3eb" />
<path d="M1019.0349025766973,537.2150974233027 C1011.0799512883486,545.1700487116514,995.1700487116514,561.0799512883486,987.2150974233027,569.0349025766973" close="False" data-weight="0.0" stroke-width="7" fill="none" stroke="#7cd3eb" />
<path d="M944.0349025766973,612.2150974233027 A54.3198051533949,54.3198051533949,0,0,1,926.4122894815039,623.9901510378279 M926.4122894815039,623.9901510378279 A54.31980515339421,54.31980515339421,0,0,1,905.625,628.125 M905.625,628.125" close="False" data-weight="1.0" stroke-width="7" fill="none" stroke="#7cd3eb" />
<path d="M790.5314767527805,684.3545622165407 A48.72232222128802,48.72232222128802,0,0,1,774.7248178153919,694.9162340553798 M774.7248178153919,694.9162340553798 A48.72232222128889,48.72232222128889,0,0,1,756.0795923149514,698.625 M756.0795923149514,698.625" close="False" data-weight="1.0" stroke-width="7" fill="none" stroke="#7cd3eb" />
<path d="M725.1704076850486,698.625 C714.1477038425244,698.625,692.1022961574756,698.625,681.0795923149514,698.625" close="False" data-weight="0.0" stroke-width="7" fill="none" stroke="#7cd3eb" />
<path d="M650.1704076850486,698.625 C639.1477038425244,698.625,617.1022961574756,698.625,606.0795923149514,698.625" close="False" data-weight="0.0" stroke-width="7" fill="none" stroke="#7cd3eb" />
<path d="M548.625,606.0795923149514 C548.625,617.1022961574756,548.625,639.1477038425244,548.625,650.1704076850486" close="False" data-weight="0.0" stroke-width="7" fill="none" stroke="#7cd3eb" />
<path d="M548.625,531.0795923149514 C548.625,542.1022961574756,548.625,564.1477038425244,548.625,575.1704076850486" close="False" data-weight="0.0" stroke-width="7" fill="none" stroke="#7cd3eb" />
<path d="M548.625,456.0795923149514 C548.625,467.10229615747573,548.625,489.14770384252427,548.625,500.1704076850486" close="False" data-weight="0.0" stroke-width="7" fill="none" stroke="#7cd3eb" />
<path d="M548.625,381.0795923149514 C548.625,392.10229615747573,548.625,414.14770384252427,548.625,425.1704076850486" close="False" data-weight="0.0" stroke-width="7" fill="none" stroke="#7cd3eb" />
<path d="M548.625,306.0795923149514 C548.625,317.10229615747573,548.625,339.14770384252427,548.625,350.1704076850486" close="False" data-weight="0.0" stroke-width="7" fill="none" stroke="#7cd3eb" />
<path d="M548.625,231.07959231495138 C548.625,242.10229615747568,548.625,264.14770384252427,548.625,275.1704076850486" close="False" data-weight="0.0" stroke-width="7" fill="none" stroke="#7cd3eb" />
<path d="M548.625,200.17040768504862 A48.72232222128878,48.72232222128878,0,0,0,544.9162340553798,181.52518218460807 M544.9162340553798,181.52518218460807 A48.72232222128802,48.72232222128802,0,0,0,534.3545622165407,165.71852324721957 M534.3545622165407,165.71852324721957" close="False" data-weight="1.0" stroke-width="7" fill="none" stroke="#7cd3eb" />
<path d="M473.625,831.0795923149514 C473.625,842.1022961574756,473.625,864.1477038425244,473.625,875.1704076850486" close="False" data-weight="0.0" stroke-width="7" fill="none" stroke="#7cd3eb" />
<path d="M490.53147675278046,759.3545622165407 A57.7223222212901,57.7223222212901,0,0,0,478.0188501520187,778.0810312933223 M478.0188501520187,778.0810312933223 A57.722322221287754,57.722322221287754,0,0,0,473.625,800.1704076850486 M473.625,800.1704076850486" close="False" data-weight="1.0" stroke-width="7" fill="none" stroke="#7cd3eb" />
<path d="M500.1704076850486,698.625 C489.14770384252427,698.625,467.10229615747573,698.625,456.0795923149514,698.625" close="False" data-weight="0.0" stroke-width="7" fill="none" stroke="#7cd3eb" />
<path d="M478.125,230.625 A54.31980515339444,54.31980515339444,0,0,1,473.9901510378278,251.41228948150396 M473.9901510378278,251.41228948150396 A54.31980515339484,54.31980515339484,0,0,1,462.21509742330267,269.03490257669733 M462.21509742330267,269.03490257669733" close="False" data-weight="1.0" stroke-width="7" fill="none" stroke="#7cd3eb" />
<path d="M478.125,155.625 C478.125,166.875,478.125,189.375,478.125,200.625" close="False" data-weight="0.0" stroke-width="7" fill="none" stroke="#7cd3eb" />
<path d="M425.1704076850486,698.625 C414.14770384252427,698.625,392.10229615747573,698.625,381.0795923149514,698.625" close="False" data-weight="0.0" stroke-width="7" fill="none" stroke="#7cd3eb" />
<path d="M350.1704076850486,698.625 C339.14770384252427,698.625,317.10229615747573,698.625,306.0795923149514,698.625" close="False" data-weight="0.0" stroke-width="7" fill="none" stroke="#7cd3eb" />
<path d="M344.03490257669733,269.03490257669733 C336.07995128834864,261.07995128834864,320.17004871165136,245.17004871165133,312.21509742330267,237.21509742330267" close="False" data-weight="0.0" stroke-width="7" fill="none" stroke="#7cd3eb" />
<path d="M275.1704076850486,698.625 C264.14770384252427,698.625,242.10229615747568,698.625,231.07959231495138,698.625" close="False" data-weight="0.0" stroke-width="7" fill="none" stroke="#7cd3eb" />
<path d="M275.625,628.125 C264.375,628.125,241.875,628.125,230.625,628.125" close="False" data-weight="0.0" stroke-width="7" fill="none" stroke="#7cd3eb" />
<path d="M200.17040768504862,698.625 C189.14770384252432,698.625,167.10229615747568,698.625,156.07959231495138,698.625" close="False" data-weight="0.0" stroke-width="7" fill="none" stroke="#7cd3eb" />
<path d="M200.625,628.125 A54.319805153394555,54.319805153394555,0,0,0,179.837710518496,632.2598489621722 M179.837710518496,632.2598489621722 A54.31980515339474,54.31980515339474,0,0,0,162.21509742330267,644.0349025766973 M162.21509742330267,644.0349025766973" close="False" data-weight="1.0" stroke-width="7" fill="none" stroke="#7cd3eb" />
<path d="M1094.0349025766973,462.21509742330267 L1137.2150974233027,419.03490257669733" close="False" data-weight="2.060660171779821" stroke-width="7" fill="none" stroke="#7cd3eb" />
<path d="M1019.0349025766973,537.2150974233027 L1062.2150974233027,494.03490257669733" close="False" data-weight="2.060660171779821" stroke-width="7" fill="none" stroke="#7cd3eb" />
<path d="M944.0349025766973,612.2150974233027 L987.2150974233027,569.0349025766973" close="False" data-weight="2.060660171779821" stroke-width="7" fill="none" stroke="#7cd3eb" />
<path d="M875.625,628.125 L905.625,628.125" close="False" data-weight="1.75" stroke-width="7" fill="none" stroke="#7cd3eb" />
<path d="M790.531476752773,684.3545622165482 L834.3545622165407,640.5314767527805" close="False" data-weight="2.060660171779821" stroke-width="7" fill="none" stroke="#7cd3eb" />
<path d="M725.1704076850486,698.625 L756.0795923149514,698.625" close="False" data-weight="1.75" stroke-width="7" fill="none" stroke="#7cd3eb" />
<path d="M650.1704076850486,698.625 L681.0795923149514,698.625" close="False" data-weight="1.75" stroke-width="7" fill="none" stroke="#7cd3eb" />
<path d="M575.1704076850486,698.625 L606.0795923149514,698.625" close="False" data-weight="1.75" stroke-width="7" fill="none" stroke="#7cd3eb" />
<path d="M548.625,650.1704076850486 L548.625,681.0795923149514" close="False" data-weight="1.75" stroke-width="7" fill="none" stroke="#7cd3eb" />
<path d="M548.625,575.1704076850486 L548.625,606.0795923149514" close="False" data-weight="1.75" stroke-width="7" fill="none" stroke="#7cd3eb" />
<path d="M548.625,500.1704076850486 L548.625,531.0795923149514" close="False" data-weight="1.75" stroke-width="7" fill="none" stroke="#7cd3eb" />
<path d="M548.625,425.1704076850486 L548.625,456.0795923149514" close="False" data-weight="1.75" stroke-width="7" fill="none" stroke="#7cd3eb" />
<path d="M548.625,350.1704076850486 L548.625,381.0795923149514" close="False" data-weight="1.75" stroke-width="7" fill="none" stroke="#7cd3eb" />
<path d="M548.625,275.1704076850486 L548.625,306.0795923149514" close="False" data-weight="1.75" stroke-width="7" fill="none" stroke="#7cd3eb" />
<path d="M548.625,200.17040768504862 L548.625,231.07959231495138" close="False" data-weight="1.75" stroke-width="7" fill="none" stroke="#7cd3eb" />
<path d="M473.625,875.1704076850486 L473.625,906.0795923149514" close="False" data-weight="1.75" stroke-width="7" fill="none" stroke="#7cd3eb" />
<path d="M473.625,800.1704076850486 L473.625,831.0795923149514" close="False" data-weight="1.75" stroke-width="7" fill="none" stroke="#7cd3eb" />
<path d="M490.5314767527804,759.3545622165407 L534.3545622165406,715.5314767527806" close="False" data-weight="2.060660171779821" stroke-width="7" fill="none" stroke="#7cd3eb" />
<path d="M500.1704076850486,698.625 L531.0795923149514,698.625" close="False" data-weight="1.75" stroke-width="7" fill="none" stroke="#7cd3eb" />
<path d="M478.125,200.625 L478.125,230.625" close="False" data-weight="1.75" stroke-width="7" fill="none" stroke="#7cd3eb" />
<path d="M478.125,125.625 L478.125,155.625" close="False" data-weight="1.75" stroke-width="7" fill="none" stroke="#7cd3eb" />
<path d="M490.5314767527804,121.89543778345936 L534.3545622165425,165.71852324722136" close="False" data-weight="2.060660171779821" stroke-width="7" fill="none" stroke="#7cd3eb" />
<path d="M425.1704076850486,698.625 L456.0795923149514,698.625" close="False" data-weight="1.75" stroke-width="7" fill="none" stroke="#7cd3eb" />
<path d="M419.03490257669733,312.21509742330267 L462.21509742330267,269.03490257669733" close="False" data-weight="2.060660171779821" stroke-width="7" fill="none" stroke="#7cd3eb" />
<path d="M350.1704076850486,698.625 L381.0795923149514,698.625" close="False" data-weight="1.75" stroke-width="7" fill="none" stroke="#7cd3eb" />
<path d="M344.03490257669733,269.03490257669733 L387.21509742330267,312.21509742330267" close="False" data-weight="2.060660171779821" stroke-width="7" fill="none" stroke="#7cd3eb" />
<path d="M275.1704076850486,698.625 L306.0795923149514,698.625" close="False" data-weight="1.75" stroke-width="7" fill="none" stroke="#7cd3eb" />
<path d="M275.625,628.125 L305.625,628.125" close="False" data-weight="1.75" stroke-width="7" fill="none" stroke="#7cd3eb" />
<path d="M269.03490257669733,194.03490257669733 L312.21509742330267,237.2150974233027" close="False" data-weight="2.060660171779821" stroke-width="7" fill="none" stroke="#7cd3eb" />
<path d="M200.17040768504862,698.625 L231.07959231495138,698.625" close="False" data-weight="1.75" stroke-width="7" fill="none" stroke="#7cd3eb" />
<path d="M200.625,628.125 L230.625,628.125" close="False" data-weight="1.75" stroke-width="7" fill="none" stroke="#7cd3eb" />
<path d="M125.1704076850486,698.625 L156.07959231495138,698.625" close="False" data-weight="1.75" stroke-width="7" fill="none" stroke="#7cd3eb" />
<path d="M119.03490257669732,687.2150974233027 L162.2150974233027,644.0349025766973" close="False" data-weight="2.060660171779821" stroke-width="7" fill="none" stroke="#7cd3eb" />
<path d="M871.8954377834593,840.7185232472195 C864.1012091493994,848.5127518812794,848.5127518812794,864.1012091493994,840.7185232472195,871.8954377834593" close="False" data-weight="0.0" stroke-width="7" fill="none" stroke="#8f0f12" />
<path d="M796.8954377834593,915.7185232472195 A48.72232222128802,48.72232222128802,0,0,0,786.3337659446202,931.5251821846081 M786.3337659446202,931.5251821846081 A48.72232222128889,48.72232222128889,0,0,0,782.625,950.1704076850486 M782.625,950.1704076850486" close="False" data-weight="1.0" stroke-width="7" fill="none" stroke="#8f0f12" />
<path d="M650.1704076850486,1007.625 C639.1477038425244,1007.625,617.1022961574756,1007.625,606.0795923149514,1007.625" close="False" data-weight="0.0" stroke-width="7" fill="none" stroke="#8f0f12" />
<path d="M548.625,906.0795923149514 C548.625,917.1022961574756,548.625,939.1477038425244,548.625,950.1704076850486" close="False" data-weight="0.0" stroke-width="7" fill="none" stroke="#8f0f12" />
<path d="M548.625,831.0795923149514 C548.625,842.1022961574756,548.625,864.1477038425244,548.625,875.1704076850486" close="False" data-weight="0.0" stroke-width="7" fill="none" stroke="#8f0f12" />
<path d="M548.625,756.0795923149514 C548.625,767.1022961574756,548.625,789.1477038425244,548.625,800.1704076850486" close="False" data-weight="0.0" stroke-width="7" fill="none" stroke="#8f0f12" />
<path d="M500.1704076850486,707.625 C489.14770384252427,707.625,467.10229615747573,707.625,456.0795923149514,707.625" close="False" data-weight="0.0" stroke-width="7" fill="none" stroke="#8f0f12" />
<path d="M425.1704076850486,707.625 C414.14770384252427,707.625,392.10229615747573,707.625,381.0795923149514,707.625" close="False" data-weight="0.0" stroke-width="7" fill="none" stroke="#8f0f12" />
<path d="M350.1704076850486,707.625 C339.14770384252427,707.625,317.10229615747573,707.625,306.0795923149514,707.625" close="False" data-weight="0.0" stroke-width="7" fill="none" stroke="#8f0f12" />
<path d="M275.1704076850486,707.625 C264.14770384252427,707.625,242.10229615747568,707.625,231.07959231495138,707.625" close="False" data-weight="0.0" stroke-width="7" fill="none" stroke="#8f0f12" />
<path d="M200.17040768504862,707.625 C189.14770384252432,707.625,167.10229615747568,707.625,156.07959231495138,707.625" close="False" data-weight="0.0" stroke-width="7" fill="none" stroke="#8f0f12" />
<path d="M871.8954377834593,840.7185232472195 L915.7185232472195,796.8954377834593" close="False" data-weight="2.060660171779821" stroke-width="7" fill="none" stroke="#8f0f12" />
<path d="M782.625,950.1704076850486 L782.625,981.0795923149514" close="False" data-weight="1.75" stroke-width="7" fill="none" stroke="#8f0f12" />
<path d="M796.8954377834593,915.7185232472195 L840.7185232472195,871.8954377834593" close="False" data-weight="2.060660171779821" stroke-width="7" fill="none" stroke="#8f0f12" />
<path d="M725.1704076850486,1007.625 L756.0795923149514,1007.625" close="False" data-weight="1.75" stroke-width="7" fill="none" stroke="#8f0f12" />
<path d="M650.1704076850486,1007.625 L681.0795923149514,1007.625" close="False" data-weight="1.75" stroke-width="7" fill="none" stroke="#8f0f12" />
<path d="M575.1704076850486,1007.625 L606.0795923149514,1007.625" close="False" data-weight="1.75" stroke-width="7" fill="none" stroke="#8f0f12" />
<path d="M548.625,950.1704076850486 L548.625,981.0795923149514" close="False" data-weight="1.75" stroke-width="7" fill="none" stroke="#8f0f12" />
<path d="M548.625,875.1704076850486 L548.625,906.0795923149514" close="False" data-weight="1.75" stroke-width="7" fill="none" stroke="#8f0f12" />
<path d="M548.625,800.1704076850486 L548.625,831.0795923149514" close="False" data-weight="1.75" stroke-width="7" fill="none" stroke="#8f0f12" />
<path d="M548.625,725.1704076850486 L548.625,756.0795923149514" close="False" data-weight="1.75" stroke-width="7" fill="none" stroke="#8f0f12" />
<path d="M500.1704076850486,707.625 L531.0795923149514,707.625" close="False" data-weight="1.75" stroke-width="7" fill="none" stroke="#8f0f12" />
<path d="M425.1704076850486,707.625 L456.0795923149514,707.625" close="False" data-weight="1.75" stroke-width="7" fill="none" stroke="#8f0f12" />
<path d="M350.1704076850486,707.625 L381.0795923149514,707.625" close="False" data-weight="1.75" stroke-width="7" fill="none" stroke="#8f0f12" />
<path d="M275.1704076850486,707.625 L306.0795923149514,707.625" close="False" data-weight="1.75" stroke-width="7" fill="none" stroke="#8f0f12" />
<path d="M200.17040768504862,707.625 L231.07959231495138,707.625" close="False" data-weight="1.75" stroke-width="7" fill="none" stroke="#8f0f12" />
<path d="M125.1704076850486,707.625 L156.07959231495138,707.625" close="False" data-weight="1.75" stroke-width="7" fill="none" stroke="#8f0f12" />
<path d="M694.125,532.5034093726987 A94.14124779008193,94.14124779008193,0,0,1,692.4207940714299,550.3350617741648 M692.4207940714299,550.3350617741648 A29.354107198635617,29.354107198635617,0,0,1,684.3545622165407,565.5314767527805 M684.3545622165407,565.5314767527805" close="False" data-weight="1.0" stroke-width="7" fill="none" stroke="#90ea66" />
<path d="M694.125,457.50340937269874 C694.125,467.8142046863494,694.125,488.4357953136506,694.125,498.74659062730126" close="False" data-weight="0.0" stroke-width="7" fill="none" stroke="#90ea66" />
<path d="M694.125,382.50340937269874 C694.125,392.8142046863494,694.125,413.4357953136506,694.125,423.74659062730126" close="False" data-weight="0.0" stroke-width="7" fill="none" stroke="#90ea66" />
<path d="M640.5314767527805,609.3545622165407 C632.7372481187206,617.1487908506006,617.1487908506006,632.7372481187206,609.3545622165407,640.5314767527805" close="False" data-weight="0.0" stroke-width="7" fill="none" stroke="#90ea66" />
<path d="M557.625,606.0795923149514 C557.625,617.1022961574756,557.625,639.1477038425244,557.625,650.1704076850486" close="False" data-weight="0.0" stroke-width="7" fill="none" stroke="#90ea66" />
<path d="M557.625,531.0795923149514 C557.625,542.1022961574756,557.625,564.1477038425244,557.625,575.1704076850486" close="False" data-weight="0.0" stroke-width="7" fill="none" stroke="#90ea66" />
<path d="M557.625,456.0795923149514 C557.625,467.10229615747573,557.625,489.14770384252427,557.625,500.1704076850486" close="False" data-weight="0.0" stroke-width="7" fill="none" stroke="#90ea66" />
<path d="M557.625,381.0795923149514 C557.625,392.10229615747573,557.625,414.14770384252427,557.625,425.1704076850486" close="False" data-weight="0.0" stroke-width="7" fill="none" stroke="#90ea66" />
<path d="M557.625,306.0795923149514 C557.625,317.10229615747573,557.625,339.14770384252427,557.625,350.1704076850486" close="False" data-weight="0.0" stroke-width="7" fill="none" stroke="#90ea66" />
<path d="M557.625,231.07959231495138 C557.625,242.10229615747568,557.625,264.14770384252427,557.625,275.1704076850486" close="False" data-weight="0.0" stroke-width="7" fill="none" stroke="#90ea66" />
<path d="M557.625,200.17040768504862 A57.72232222128764,57.72232222128764,0,0,0,553.2311498479813,178.0810312933223 M553.2311498479813,178.0810312933223 A57.7223222212892,57.7223222212892,0,0,0,540.7185232472195,159.35456221654061 M540.7185232472195,159.35456221654061" close="False" data-weight="1.0" stroke-width="7" fill="none" stroke="#90ea66" />
<path d="M694.125,498.74659062730126 L694.125,532.5034093726987" close="False" data-weight="1.75" stroke-width="7" fill="none" stroke="#90ea66" />
<path d="M694.125,423.74659062730126 L694.125,457.50340937269874" close="False" data-weight="1.75" stroke-width="7" fill="none" stroke="#90ea66" />
<path d="M694.125,348.74659062730126 L694.125,382.50340937269874" close="False" data-weight="1.75" stroke-width="7" fill="none" stroke="#90ea66" />
<path d="M640.5314767527805,609.3545622165407 L684.3545622165407,565.5314767527805" close="False" data-weight="2.060660171779821" stroke-width="7" fill="none" stroke="#90ea66" />
<path d="M565.5314767527805,684.3545622165407 L609.3545622165407,640.5314767527805" close="False" data-weight="2.060660171779821" stroke-width="7" fill="none" stroke="#90ea66" />
<path d="M557.625,650.1704076850486 L557.625,681.0795923149514" close="False" data-weight="1.75" stroke-width="7" fill="none" stroke="#90ea66" />
<path d="M557.625,575.1704076850486 L557.625,606.0795923149514" close="False" data-weight="1.75" stroke-width="7" fill="none" stroke="#90ea66" />
<path d="M557.625,500.1704076850486 L557.625,531.0795923149514" close="False" data-weight="1.75" stroke-width="7" fill="none" stroke="#90ea66" />
<path d="M557.625,425.1704076850486 L557.625,456.0795923149514" close="False" data-weight="1.75" stroke-width="7" fill="none" stroke="#90ea66" />
<path d="M557.625,350.1704076850486 L557.625,381.0795923149514" close="False" data-weight="1.75" stroke-width="7" fill="none" stroke="#90ea66" />
<path d="M557.625,275.1704076850486 L557.625,306.0795923149514" close="False" data-weight="1.75" stroke-width="7" fill="none" stroke="#90ea66" />
<path d="M557.625,200.17040768504862 L557.625,231.07959231495138" close="False" data-weight="1.75" stroke-width="7" fill="none" stroke="#90ea66" />
<path d="M496.8954377834594,115.53147675278043 L540.7185232472177,159.35456221653885" close="False" data-weight="2.060660171779821" stroke-width="7" fill="none" stroke="#90ea66" />
<path d="M1153.125,305.625 C1153.125,316.875,1153.125,339.375,1153.125,350.625" close="False" data-weight="0.0" stroke-width="7" fill="none" stroke="#35618f" />
<path d="M1153.125,230.625 C1153.125,241.875,1153.125,264.375,1153.125,275.625" close="False" data-weight="0.0" stroke-width="7" fill="none" stroke="#35618f" />
<path d="M1086.342705540739,457.1793723979033 C1079.051872255028,464.4702056836142,1064.4702056836063,479.05187225503585,1057.1793723978953,486.34270554074675" close="False" data-weight="0.0" stroke-width="7" fill="none" stroke="#35618f" />
<path d="M1011.3427055407468,532.1793723978952 C1004.051872255036,539.4702056836061,989.4702056836142,554.0518722550279,982.1793723979033,561.3427055407387" close="False" data-weight="0.0" stroke-width="7" fill="none" stroke="#35618f" />
<path d="M936.3427055407387,607.1793723979033 A40.784923770137475,40.784923770137475,0,0,1,923.1111239898032,616.0204325361256 M923.1111239898032,616.0204325361256 A40.78492377013595,40.78492377013595,0,0,1,907.5034093726987,619.125 M907.5034093726987,619.125" close="False" data-weight="1.0" stroke-width="7" fill="none" stroke="#35618f" />
<path d="M1153.125,350.625 L1153.125,380.625" close="False" data-weight="1.75" stroke-width="7" fill="none" stroke="#35618f" />
<path d="M1153.125,275.625 L1153.125,305.625" close="False" data-weight="1.75" stroke-width="7" fill="none" stroke="#35618f" />
<path d="M1153.125,200.625 L1153.125,230.625" close="False" data-weight="1.75" stroke-width="7" fill="none" stroke="#35618f" />
<path d="M1086.3427055407467,457.1793723978954 L1132.1793723979035,411.3427055407387" close="False" data-weight="2.060660171779821" stroke-width="7" fill="none" stroke="#35618f" />
<path d="M1100.625,178.125 L1130.625,178.125" close="False" data-weight="1.75" stroke-width="7" fill="none" stroke="#35618f" />
<path d="M1011.3427055407387,532.1793723979033 L1057.1793723979033,486.3427055407388" close="False" data-weight="2.060660171779821" stroke-width="7" fill="none" stroke="#35618f" />
<path d="M936.3427055407387,607.1793723979033 L982.1793723979033,561.3427055407387" close="False" data-weight="2.060660171779821" stroke-width="7" fill="none" stroke="#35618f" />
<path d="M873.7465906273013,619.125 L907.5034093726987,619.125" close="False" data-weight="1.75" stroke-width="7" fill="none" stroke="#35618f" />
<image x="1120.625" y="370.625" width="65" height="65" xlink:href="designspace-test/./img/ds_dataset0_20_15_thumb.png" data-node="True" data-id="15" />
<image x="1120.625" y="145.625" width="65" height="65" xlink:href="designspace-test/./img/ds_dataset0_20_9_thumb.png" data-node="True" data-id="9" />
<image x="1045.625" y="670.625" width="65" height="65" xlink:href="designspace-test/./img/ds_dataset0_20_10_thumb.png" data-node="True" data-id="10" />
<image x="1045.625" y="145.625" width="65" height="65" xlink:href="designspace-test/./img/ds_dataset0_20_1_thumb.png" data-node="True" data-id="1" />
<image x="970.625" y="1195.625" width="65" height="65" xlink:href="designspace-test/./img/ds_dataset0_20_5_thumb.png" data-node="True" data-id="5" />
<image x="970.625" y="970.625" width="65" height="65" xlink:href="designspace-test/./img/ds_dataset0_20_17_thumb.png" data-node="True" data-id="17" />
<image x="895.625" y="745.625" width="65" height="65" xlink:href="designspace-test/./img/ds_dataset0_20_0_thumb.png" data-node="True" data-id="0" />
<image x="820.625" y="595.625" width="65" height="65" xlink:href="designspace-test/./img/ds_dataset0_20_4_thumb.png" data-node="True" data-id="4" />
<image x="745.625" y="970.625" width="65" height="65" xlink:href="designspace-test/./img/ds_dataset0_20_12_thumb.png" data-node="True" data-id="12" />
<image x="670.625" y="970.625" width="65" height="65" xlink:href="designspace-test/./img/ds_dataset0_20_8_thumb.png" data-node="True" data-id="8" />
<image x="670.625" y="295.625" width="65" height="65" xlink:href="designspace-test/./img/ds_dataset0_20_18_thumb.png" data-node="True" data-id="18" />
<image x="520.625" y="970.625" width="65" height="65" xlink:href="designspace-test/./img/ds_dataset0_20_14_thumb.png" data-node="True" data-id="14" />
<image x="520.625" y="670.625" width="65" height="65" xlink:href="designspace-test/./img/ds_dataset0_20_19_thumb.png" data-node="True" data-id="19" />
<image x="445.625" y="895.625" width="65" height="65" xlink:href="designspace-test/./img/ds_dataset0_20_7_thumb.png" data-node="True" data-id="7" />
<image x="445.625" y="70.625" width="65" height="65" xlink:href="designspace-test/./img/ds_dataset0_20_2_thumb.png" data-node="True" data-id="2" />
<image x="370.625" y="295.625" width="65" height="65" xlink:href="designspace-test/./img/ds_dataset0_20_16_thumb.png" data-node="True" data-id="16" />
<image x="295.625" y="595.625" width="65" height="65" xlink:href="designspace-test/./img/ds_dataset0_20_11_thumb.png" data-node="True" data-id="11" />
<image x="220.625" y="145.625" width="65" height="65" xlink:href="designspace-test/./img/ds_dataset0_20_13_thumb.png" data-node="True" data-id="13" />
<image x="145.625" y="1120.625" width="65" height="65" xlink:href="designspace-test/./img/ds_dataset0_20_6_thumb.png" data-node="True" data-id="6" />
<image x="70.625" y="670.625" width="65" height="65" xlink:href="designspace-test/./img/ds_dataset0_20_3_thumb.png" data-node="True" data-id="3" />
</svg>