<?xml version="1.0" encoding="UTF-8"?>
<svg xmlns="http://www.w3.org/2000/svg" xmlns:xlink="http://www.w3.org/1999/xlink"
     viewBox="0 0 1350 1350" preserveAspectRatio="xMidYMid meet">
<defs>
</defs>
<path d="M269.03490257669733,794.0349025766973 C261.0799512883487,786.0799512883486,245.1700487116513,770.1700487116514,237.21509742330267,762.2150974233027" close="False" data-weight="0.0" stroke-width="7" fill="none" stroke="#1fa562" />
<path d="M194.0349025766973,719.0349025766973 C186.07995128834867,711.0799512883486,170.1700487116513,695.1700487116514,162.21509742330267,687.2150974233027" close="False" data-weight="0.0" stroke-width="7" fill="none" stroke="#1fa562" />
<path d="M269.03490257669733,794.0349025766973 L312.21509742330267,837.2150974233027" close="False" data-weight="2.060660171779821" stroke-width="7" fill="none" stroke="#1fa562" />
<path d="M194.03490257669733,719.0349025766973 L237.2150974233027,762.2150974233027" close="False" data-weight="2.060660171779821" stroke-width="7" fill="none" stroke="#1fa562" />
<path d="M119.03490257669732,644.0349025766973 L162.2150974233027,687.2150974233027" close="False" data-weight="2.060660171779821" stroke-width="7" fill="none" stroke="#1fa562" />
<path d="M875.1704076850486,923.625 C864.1477038425244,923.625,842.1022961574756,923.625,831.0795923149514,923.625" close="False" data-weight="0.0" stroke-width="7" fill="none" stroke="#ff1c5d" />
<path d="M848.625,831.0795923149514 A57.72232222128764,57.72232222128764,0,0,0,853.0188501520187,853.1689687066777 M853.0188501520187,853.1689687066777 A57.72232222128921,57.72232222128921,0,0,0,865.5314767527805,871.8954377834593 M865.5314767527805,871.8954377834593" close="False" data-weight="1.0" stroke-width="7" fill="none" stroke="#ff1c5d" />
<path d="M848.625,756.0795923149514 C848.625,767.1022961574756,848.625,789.1477038425244,848.625,800.1704076850486" close="False" data-weight="0.0" stroke-width="7" fill="none" stroke="#ff1c5d" />
<path d="M800.1704076850486,923.625 C789.1477038425244,923.625,767.1022961574756,923.625,756.0795923149514,923.625" close="False" data-weight="0.0" stroke-width="7" fill="none" stroke="#ff1c5d" />
<path d="M725.1704076850486,923.625 C714.1477038425244,923.625,692.1022961574756,923.625,681.0795923149514,923.625" close="False" data-weight="0.0" stroke-width="7" fill="none" stroke="#ff1c5d" />
<path d="M650.1704076850486,923.625 C639.1477038425244,923.625,617.1022961574756,923.625,606.0795923149514,923.625" close="False" data-weight="0.0" stroke-width="7" fill="none" stroke="#ff1c5d" />
<path d="M575.1704076850486,923.625 C564.1477038425244,923.625,542.1022961574756,923.625,531.0795923149514,923.625" close="False" data-weight="0.0" stroke-width="7" fill="none" stroke="#ff1c5d" />
<path d="M494.03490257669733,1094.0349025766973 C486.0799512883487,1086.0799512883486,470.1700487116513,1070.1700487116514,462.21509742330267,1062.2150974233027" close="False" data-weight="0.0" stroke-width="7" fill="none" stroke="#ff1c5d" />
<path d="M500.1704076850486,923.625 C489.14770384252427,923.625,467.10229615747573,923.625,456.0795923149514,923.625" close="False" data-weight="0.0" stroke-width="7" fill="none" stroke="#ff1c5d" />
<path d="M419.03490257669733,1019.0349025766973 C411.0799512883487,1011.0799512883486,395.1700487116513,995.1700487116514,387.21509742330267,987.2150974233027" close="False" data-weight="0.0" stroke-width="7" fill="none" stroke="#ff1c5d" />
<path d="M425.1704076850486,923.625 A48.722322221288664,48.722322221288664,0,0,1,406.52518218460807,919.9162340553798 M406.52518218460807,919.9162340553798 A48.722322221287975,48.722322221287975,0,0,1,390.7185232472196,909.3545622165407 M390.7185232472196,909.3545622165407" close="False" data-weight="1.0" stroke-width="7" fill="none" stroke="#ff1c5d" />
<path d="M328.125,905.625 A54.319805153393474,54.319805153393474,0,0,0,332.25984896217227,926.4122894815039 M332.25984896217227,926.4122894815039 A54.319805153395706,54.319805153395706,0,0,0,344.03490257669733,944.0349025766973 M344.03490257669733,944.0349025766973" close="False" data-weight="1.0" stroke-width="7" fill="none" stroke="#ff1c5d" />
<path d="M875.1704076850486,923.625 L906.0795923149514,923.625" close="False" data-weight="1.75" stroke-width="7" fill="none" stroke="#ff1c5d" />
<path d="M865.5314767527805,871.8954377834593 L909.3545622165407,915.7185232472195" close="False" data-weight="2.060660171779821" stroke-width="7" fill="none" stroke="#ff1c5d" />
<path d="M848.625,800.1704076850486 L848.625,831.0795923149514" close="False" data-weight="1.75" stroke-width="7" fill="none" stroke="#ff1c5d" />
<path d="M848.625,725.1704076850486 L848.625,756.0795923149514" close="False" data-weight="1.75" stroke-width="7" fill="none" stroke="#ff1c5d" />
<path d="M800.1704076850486,1223.625 L831.0795923149514,1223.625" close="False" data-weight="1.75" stroke-width="7" fill="none" stroke="#ff1c5d" />
<path d="M790.5314767527805,1171.8954377834593 L834.3545622165409,1215.7185232472198" close="False" data-weight="2.060660171779821" stroke-width="7" fill="none" stroke="#ff1c5d" />
<path d="M800.1704076850486,923.625 L831.0795923149514,923.625" close="False" data-weight="1.75" stroke-width="7" fill="none" stroke="#ff1c5d" />
<path d="M790.5314767527805,646.8954377834593 L834.3545622165407,690.7185232472195" close="False" data-weight="2.060660171779821" stroke-width="7" fill="none" stroke="#ff1c5d" />
<path d="M769.125,573.7465906273013 L769.125,607.5034093726987" close="False" data-weight="1.75" stroke-width="7" fill="none" stroke="#ff1c5d" />
<path d="M725.1704076850486,1223.625 L756.0795923149514,1223.625" close="False" data-weight="1.75" stroke-width="7" fill="none" stroke="#ff1c5d" />
<path d="M725.1704076850486,923.625 L756.0795923149514,923.625" close="False" data-weight="1.75" stroke-width="7" fill="none" stroke="#ff1c5d" />
<path d="M644.0349025766973,1169.0349025766973 L687.2150974233027,1212.2150974233027" close="False" data-weight="2.060660171779821" stroke-width="7" fill="none" stroke="#ff1c5d" />
<path d="M650.1704076850486,923.625 L681.0795923149514,923.625" close="False" data-weight="1.75" stroke-width="7" fill="none" stroke="#ff1c5d" />
<path d="M569.0349025766973,1212.2150974233027 L612.2150974233027,1169.0349025766973" close="False" data-weight="2.060660171779821" stroke-width="7" fill="none" stroke="#ff1c5d" />
<path d="M553.125,1175.625 L553.125,1205.625" close="False" data-weight="1.75" stroke-width="7" fill="none" stroke="#ff1c5d" />
<path d="M575.1704076850486,923.625 L606.0795923149514,923.625" close="False" data-weight="1.75" stroke-width="7" fill="none" stroke="#ff1c5d" />
<path d="M494.03490257669733,1094.0349025766973 L537.2150974233027,1137.2150974233027" close="False" data-weight="2.060660171779821" stroke-width="7" fill="none" stroke="#ff1c5d" />
<path d="M500.1704076850486,923.625 L531.0795923149514,923.625" close="False" data-weight="1.75" stroke-width="7" fill="none" stroke="#ff1c5d" />
<path d="M419.03490257669733,1019.0349025766973 L462.21509742330267,1062.2150974233027" close="False" data-weight="2.060660171779821" stroke-width="7" fill="none" stroke="#ff1c5d" />
<path d="M425.1704076850486,923.625 L456.0795923149514,923.625" close="False" data-weight="1.75" stroke-width="7" fill="none" stroke="#ff1c5d" />
<path d="M344.03490257669733,944.0349025766973 L387.21509742330267,987.2150974233027" close="False" data-weight="2.060660171779821" stroke-width="7" fill="none" stroke="#ff1c5d" />
<path d="M328.125,875.625 L328.125,905.625" close="False" data-weight="1.75" stroke-width="7" fill="none" stroke="#ff1c5d" />
<path d="M346.8954377834594,865.5314767527805 L390.7185232472197,909.3545622165408" close="False" data-weight="2.060660171779821" stroke-width="7" fill="none" stroke="#ff1c5d" />
<path d="M1228.125,755.625 C1228.125,766.875,1228.125,789.375,1228.125,800.625" close="False" data-weight="0.0" stroke-width="7" fill="none" stroke="#7cd3eb" />
<path d="M1228.125,680.625 C1228.125,691.875,1228.125,714.375,1228.125,725.625" close="False" data-weight="0.0" stroke-width="7" fill="none" stroke="#7cd3eb" />
<path d="M1228.125,605.625 C1228.125,616.875,1228.125,639.375,1228.125,650.625" close="False" data-weight="0.0" stroke-width="7" fill="none" stroke="#7cd3eb" />
<path d="M1228.125,530.625 C1228.125,541.875,1228.125,564.375,1228.125,575.625" close="False" data-weight="0.0" stroke-width="7" fill="none" stroke="#7cd3eb" />
<path d="M1165.5314767527802,909.3545622165409 A48.72232222128625,48.72232222128625,0,0,1,1149.724817815392,919.9162340553802 M1149.724817815392,919.9162340553802 A48.722322221287754,48.722322221287754,0,0,1,1131.0795923149515,923.625 M1131.0795923149515,923.625" close="False" data-weight="1.0" stroke-width="7" fill="none" stroke="#7cd3eb" />
<path d="M1100.1704076850485,923.625 C1089.1477038425242,923.625,1067.1022961574758,923.625,1056.0795923149515,923.625" close="False" data-weight="0.0" stroke-width="7" fill="none" stroke="#7cd3eb" />
<path d="M1094.0349025766973,344.03490257669733 C1086.0799512883486,336.0799512883487,1070.1700487116514,320.1700487116513,1062.2150974233027,312.21509742330267" close="False" data-weight="0.0" stroke-width="7" fill="none" stroke="#7cd3eb" />
<path d="M1025.1704076850485,923.625 C1014.1477038425243,923.625,992.1022961574756,923.625,981.0795923149514,923.625" close="False" data-weight="0.0" stroke-width="7" fill="none" stroke="#7cd3eb" />
<path d="M857.625,831.0795923149514 A48.72232222128889,48.72232222128889,0,0,0,861.3337659446202,849.7248178153919 M861.3337659446202,849.7248178153919 A48.72232222128802,48.72232222128802,0,0,0,871.8954377834593,865.5314767527805 M871.8954377834593,865.5314767527805" close="False" data-weight="1.0" stroke-width="7" fill="none" stroke="#7cd3eb" />
<path d="M857.625,756.0795923149514 C857.625,767.1022961574756,857.625,789.1477038425244,857.625,800.1704076850486" close="False" data-weight="0.0" stroke-width="7" fill="none" stroke="#7cd3eb" />
<path d="M1228.125,800.625 L1228.125,830.625" close="False" data-weight="1.75" stroke-width="7" fill="none" stroke="#7cd3eb" />
<path d="M1228.125,725.625 L1228.125,755.625" close="False" data-weight="1.75" stroke-width="7" fill="none" stroke="#7cd3eb" />
<path d="M1228.125,650.625 L1228.125,680.625" close="False" data-weight="1.75" stroke-width="7" fill="none" stroke="#7cd3eb" />
<path d="M1228.125,575.625 L1228.125,605.625" close="False" data-weight="1.75" stroke-width="7" fill="none" stroke="#7cd3eb" />
<path d="M1228.125,500.625 L1228.125,530.625" close="False" data-weight="1.75" stroke-width="7" fill="none" stroke="#7cd3eb" />
<path d="M1228.125,425.625 L1228.125,455.625" close="False" data-weight="1.75" stroke-width="7" fill="none" stroke="#7cd3eb" />
<path d="M1165.5314767527805,909.3545622165407 L1209.3545622165404,865.5314767527807" close="False" data-weight="2.060660171779821" stroke-width="7" fill="none" stroke="#7cd3eb" />
<path d="M1175.625,403.125 L1205.625,403.125" close="False" data-weight="1.75" stroke-width="7" fill="none" stroke="#7cd3eb" />
<path d="M1100.1704076850485,923.625 L1131.0795923149515,923.625" close="False" data-weight="1.75" stroke-width="7" fill="none" stroke="#7cd3eb" />
<path d="M1094.0349025766973,344.03490257669733 L1137.2150974233027,387.21509742330267" close="False" data-weight="2.060660171779821" stroke-width="7" fill="none" stroke="#7cd3eb" />
<path d="M1025.1704076850485,923.625 L1056.0795923149515,923.625" close="False" data-weight="1.75" stroke-width="7" fill="none" stroke="#7cd3eb" />
<path d="M1019.0349025766973,269.03490257669733 L1062.2150974233027,312.21509742330267" close="False" data-weight="2.060660171779821" stroke-width="7" fill="none" stroke="#7cd3eb" />
<path d="M950.1704076850486,923.625 L981.0795923149514,923.625" close="False" data-weight="1.75" stroke-width="7" fill="none" stroke="#7cd3eb" />
<path d="M871.8954377834593,865.5314767527805 L915.7185232472195,909.3545622165407" close="False" data-weight="2.060660171779821" stroke-width="7" fill="none" stroke="#7cd3eb" />
<path d="M857.625,800.1704076850486 L857.625,831.0795923149514" close="False" data-weight="1.75" stroke-width="7" fill="none" stroke="#7cd3eb" />
<path d="M857.625,725.1704076850486 L857.625,756.0795923149514" close="False" data-weight="1.75" stroke-width="7" fill="none" stroke="#7cd3eb" />
<path d="M796.8954377834593,640.5314767527805 L840.7185232472195,684.3545622165407" close="False" data-weight="2.060660171779821" stroke-width="7" fill="none" stroke="#7cd3eb" />
<path d="M778.125,575.625 L778.125,605.625" close="False" data-weight="1.75" stroke-width="7" fill="none" stroke="#7cd3eb" />
<path d="M1171.8954377834596,915.7185232472193 A57.7223222212909,57.7223222212909,0,0,1,1153.1689687066778,928.2311498479813 M1153.1689687066778,928.2311498479813 A57.72232222128639,57.72232222128639,0,0,1,1131.0795923149515,932.625 M1131.0795923149515,932.625" close="False" data-weight="1.0" stroke-width="7" fill="none" stroke="#8f0f12" />
<path d="M1100.1704076850485,932.625 C1089.1477038425242,932.625,1067.1022961574758,932.625,1056.0795923149515,932.625" close="False" data-weight="0.0" stroke-width="7" fill="none" stroke="#8f0f12" />
<path d="M1025.1704076850485,932.625 C1014.1477038425243,932.625,992.1022961574756,932.625,981.0795923149514,932.625" close="False" data-weight="0.0" stroke-width="7" fill="none" stroke="#8f0f12" />
<path d="M869.0349025766973,987.2150974233027 C861.0799512883486,995.1700487116514,845.1700487116514,1011.0799512883486,837.2150974233027,1019.0349025766973" close="False" data-weight="0.0" stroke-width="7" fill="none" stroke="#8f0f12" />
<path d="M794.0349025766973,1062.2150974233027 A54.31980515339514,54.31980515339514,0,0,0,782.2598489621722,1079.837710518496 M782.2598489621722,1079.837710518496 A54.319805153393986,54.319805153393986,0,0,0,778.125,1100.625 M778.125,1100.625" close="False" data-weight="1.0" stroke-width="7" fill="none" stroke="#8f0f12" />
<path d="M1171.8954377834593,915.7185232472195 L1215.7185232472198,871.8954377834591" close="False" data-weight="2.060660171779821" stroke-width="7" fill="none" stroke="#8f0f12" />
<path d="M1100.1704076850485,932.625 L1131.0795923149515,932.625" close="False" data-weight="1.75" stroke-width="7" fill="none" stroke="#8f0f12" />
<path d="M1025.1704076850485,932.625 L1056.0795923149515,932.625" close="False" data-weight="1.75" stroke-width="7" fill="none" stroke="#8f0f12" />
<path d="M950.1704076850486,932.625 L981.0795923149514,932.625" close="False" data-weight="1.75" stroke-width="7" fill="none" stroke="#8f0f12" />
<path d="M869.0349025766973,987.2150974233027 L912.2150974233027,944.0349025766973" close="False" data-weight="2.060660171779821" stroke-width="7" fill="none" stroke="#8f0f12" />
<path d="M800.1704076850486,1232.625 L831.0795923149514,1232.625" close="False" data-weight="1.75" stroke-width="7" fill="none" stroke="#8f0f12" />
<path d="M796.8954377834593,1165.5314767527805 L840.7185232472193,1209.3545622165404" close="False" data-weight="2.060660171779821" stroke-width="7" fill="none" stroke="#8f0f12" />
<path d="M778.125,1100.625 L778.125,1130.625" close="False" data-weight="1.75" stroke-width="7" fill="none" stroke="#8f0f12" />
<path d="M794.0349025766973,1062.2150974233027 L837.2150974233027,1019.0349025766973" close="False" data-weight="2.060660171779821" stroke-width="7" fill="none" stroke="#8f0f12" />
<path d="M725.1704076850486,1232.625 L756.0795923149514,1232.625" close="False" data-weight="1.75" stroke-width="7" fill="none" stroke="#8f0f12" />
<path d="M928.125,830.625 C928.125,841.875,928.125,864.375,928.125,875.625" close="False" data-weight="0.0" stroke-width="7" fill="none" stroke="#90ea66" />
<path d="M928.125,755.625 C928.125,766.875,928.125,789.375,928.125,800.625" close="False" data-weight="0.0" stroke-width="7" fill="none" stroke="#90ea66" />
<path d="M928.125,680.625 C928.125,691.875,928.125,714.375,928.125,725.625" close="False" data-weight="0.0" stroke-width="7" fill="none" stroke="#90ea66" />
<path d="M928.125,605.625 C928.125,616.875,928.125,639.375,928.125,650.625" close="False" data-weight="0.0" stroke-width="7" fill="none" stroke="#90ea66" />
<path d="M928.125,530.625 C928.125,541.875,928.125,564.375,928.125,575.625" close="False" data-weight="0.0" stroke-width="7" fill="none" stroke="#90ea66" />
<path d="M928.125,455.625 C928.125,466.875,928.125,489.375,928.125,500.625" close="False" data-weight="0.0" stroke-width="7" fill="none" stroke="#90ea66" />
<path d="M928.125,380.625 C928.125,391.875,928.125,414.375,928.125,425.625" close="False" data-weight="0.0" stroke-width="7" fill="none" stroke="#90ea66" />
<path d="M944.0349025766973,312.21509742330267 A54.31980515339474,54.31980515339474,0,0,0,932.2598489621722,329.837710518496 M932.2598489621722,329.837710518496 A54.319805153394555,54.319805153394555,0,0,0,928.125,350.625 M928.125,350.625" close="False" data-weight="1.0" stroke-width="7" fill="none" stroke="#90ea66" />
<path d="M875.1704076850486,932.625 C864.1477038425244,932.625,842.1022961574756,932.625,831.0795923149514,932.625" close="False" data-weight="0.0" stroke-width="7" fill="none" stroke="#90ea66" />
<path d="M800.1704076850486,932.625 C789.1477038425244,932.625,767.1022961574756,932.625,756.0795923149514,932.625" close="False" data-weight="0.0" stroke-width="7" fill="none" stroke="#90ea66" />
<path d="M725.1704076850486,932.625 C714.1477038425244,932.625,692.1022961574756,932.625,681.0795923149514,932.625" close="False" data-weight="0.0" stroke-width="7" fill="none" stroke="#90ea66" />
<path d="M650.1704076850486,932.625 C639.1477038425244,932.625,617.1022961574756,932.625,606.0795923149514,932.625" close="False" data-weight="0.0" stroke-width="7" fill="none" stroke="#90ea66" />
<path d="M575.1704076850486,932.625 C564.1477038425244,932.625,542.1022961574756,932.625,531.0795923149514,932.625" close="False" data-weight="0.0" stroke-width="7" fill="none" stroke="#90ea66" />
<path d="M500.1704076850486,932.625 C489.14770384252427,932.625,467.10229615747573,932.625,456.0795923149514,932.625" close="False" data-weight="0.0" stroke-width="7" fill="none" stroke="#90ea66" />
<path d="M425.1704076850486,932.625 A57.722322221287754,57.722322221287754,0,0,1,403.08103129332227,928.2311498479813 M403.08103129332227,928.2311498479813 A57.72232222128817,57.72232222128817,0,0,1,384.3545622165406,915.7185232472195 M384.3545622165406,915.7185232472195" close="False" data-weight="1.0" stroke-width="7" fill="none" stroke="#90ea66" />
<path d="M928.125,875.625 L928.125,905.625" close="False" data-weight="1.75" stroke-width="7" fill="none" stroke="#90ea66" />
<path d="M928.125,800.625 L928.125,830.625" close="False" data-weight="1.75" stroke-width="7" fill="none" stroke="#90ea66" />
<path d="M928.125,725.625 L928.125,755.625" close="False" data-weight="1.75" stroke-width="7" fill="none" stroke="#90ea66" />
<path d="M928.125,650.625 L928.125,680.625" close="False" data-weight="1.75" stroke-width="7" fill="none" stroke="#90ea66" />
<path d="M928.125,575.625 L928.125,605.625" close="False" data-weight="1.75" stroke-width="7" fill="none" stroke="#90ea66" />
<path d="M928.125,500.625 L928.125,530.625" close="False" data-weight="1.75" stroke-width="7" fill="none" stroke="#90ea66" />
<path d="M928.125,425.625 L928.125,455.625" close="False" data-weight="1.75" stroke-width="7" fill="none" stroke="#90ea66" />
<path d="M928.125,350.625 L928.125,380.625" close="False" data-weight="1.75" stroke-width="7" fill="none" stroke="#90ea66" />
<path d="M944.0349025766973,312.21509742330267 L987.2150974233027,269.03490257669733" close="False" data-weight="2.060660171779821" stroke-width="7" fill="none" stroke="#90ea66" />
<path d="M875.1704076850486,932.625 L906.0795923149514,932.625" close="False" data-weight="1.75" stroke-width="7" fill="none" stroke="#90ea66" />
<path d="M800.1704076850486,932.625 L831.0795923149514,932.625" close="False" data-weight="1.75" stroke-width="7" fill="none" stroke="#90ea66" />
<path d="M725.1704076850486,932.625 L756.0795923149514,932.625" close="False" data-weight="1.75" stroke-width="7" fill="none" stroke="#90ea66" />
<path d="M650.1704076850486,932.625 L681.0795923149514,932.625" close="False" data-weight="1.75" stroke-width="7" fill="none" stroke="#90ea66" />
<path d="M575.1704076850486,932.625 L606.0795923149514,932.625" close="False" data-weight="1.75" stroke-width="7" fill="none" stroke="#90ea66" />
<path d="M500.1704076850486,932.625 L531.0795923149514,932.625" close="False" data-weight="1.75" stroke-width="7" fill="none" stroke="#90ea66" />
<path d="M425.1704076850486,932.625 L456.0795923149514,932.625" close="False" data-weight="1.75" stroke-width="7" fill="none" stroke="#90ea66" />
<path d="M340.5314767527804,871.8954377834593 L384.3545622165405,915.7185232472194" close="False" data-weight="2.060660171779821" stroke-width="7" fill="none" stroke="#90ea66" />
<path d="M778.125,500.625 A54.319805153394555,54.319805153394555,0,0,0,773.9901510378278,479.837710518496 M773.9901510378278,479.837710518496 A54.31980515339474,54.31980515339474,0,0,0,762.2150974233027,462.21509742330267 M762.2150974233027,462.21509742330267" close="False" data-weight="1.0" stroke-width="7" fill="none" stroke="#35618f" />
<path d="M719.0349025766973,419.03490257669733 C711.0799512883486,411.0799512883487,695.1700487116514,395.1700487116513,687.2150974233027,387.21509742330267" close="False" data-weight="0.0" stroke-width="7" fill="none" stroke="#35618f" />
<path d="M644.0349025766973,344.03490257669733 C636.0799512883486,336.0799512883487,620.1700487116514,320.1700487116513,612.2150974233027,312.21509742330267" close="False" data-weight="0.0" stroke-width="7" fill="none" stroke="#35618f" />
<path d="M569.0349025766973,269.03490257669733 C561.0799512883486,261.0799512883487,545.1700487116514,245.1700487116513,537.2150974233027,237.21509742330267" close="False" data-weight="0.0" stroke-width="7" fill="none" stroke="#35618f" />
<path d="M787.125,573.7465906273013 L787.125,607.5034093726987" close="False" data-weight="1.75" stroke-width="7" fill="none" stroke="#35618f" />
<path d="M778.125,500.625 L778.125,530.625" close="False" data-weight="1.75" stroke-width="7" fill="none" stroke="#35618f" />
<path d="M719.0349025766973,419.03490257669733 L762.2150974233027,462.21509742330267" close="False" data-weight="2.060660171779821" stroke-width="7" fill="none" stroke="#35618f" />
<path d="M644.0349025766973,344.03490257669733 L687.2150974233027,387.21509742330267" close="False" data-weight="2.060660171779821" stroke-width="7" fill="none" stroke="#35618f" />
<path d="M569.0349025766973,269.03490257669733 L612.2150974233027,312.21509742330267" close="False" data-weight="2.060660171779821" stroke-width="7" fill="none" stroke="#35618f" />
<path d="M494.03490257669733,194.03490257669733 L537.2150974233027,237.2150974233027" close="False" data-weight="2.060660171779821" stroke-width="7" fill="none" stroke="#35618f" />
<path d="M478.125,125.625 L478.125,155.625" close="False" data-weight="1.75" stroke-width="7" fill="none" stroke="#35618f" />
<image x="1195.625" y="820.625" width="65" height="65" xlink:href="designspace-test/./img/ds_dataset0_20_3_thumb.png" data-node="True" data-id="3" />
<image x="1195.625" y="445.625" width="65" height="65" xlink:href="designspace-test/./img/ds_dataset0_20_16_thumb.png" data-node="True" data-id="16" />
<image x="1195.625" y="370.625" width="65" height="65" xlink:href="designspace-test/./img/ds_dataset0_20_11_thumb.png" data-node="True" data-id="11" />
<image x="1120.625" y="370.625" width="65" height="65" xlink:href="designspace-test/./img/ds_dataset0_20_13_thumb.png" data-node="True" data-id="13" />
<image x="970.625" y="220.625" width="65" height="65" xlink:href="designspace-test/./img/ds_dataset0_20_2_thumb.png" data-node="True" data-id="2" />
<image x="895.625" y="895.625" width="65" height="65" xlink:href="designspace-test/./img/ds_dataset0_20_19_thumb.png" data-node="True" data-id="19" />
<image x="820.625" y="1195.625" width="65" height="65" xlink:href="designspace-test/./img/ds_dataset0_20_12_thumb.png" data-node="True" data-id="12" />
<image x="820.625" y="670.625" width="65" height="65" xlink:href="designspace-test/./img/ds_dataset0_20_7_thumb.png" data-node="True" data-id="7" />
<image x="745.625" y="1195.625" width="65" height="65" xlink:href="designspace-test/./img/ds_dataset0_20_0_thumb.png" data-node="True" data-id="0" />
<image x="745.625" y="1120.625" width="65" height="65" xlink:href="designspace-test/./img/ds_dataset0_20_8_thumb.png" data-node="True" data-id="8" />
<image x="745.625" y="595.625" width="65" height="65" xlink:href="designspace-test/./img/ds_dataset0_20_4_thumb.png" data-node="True" data-id="4" />
<image x="745.625" y="520.625" width="65" height="65" xlink:href="designspace-test/./img/ds_dataset0_20_15_thumb.png" data-node="True" data-id="15" />
<image x="670.625" y="1195.625" width="65" height="65" xlink:href="designspace-test/./img/ds_dataset0_20_14_thumb.png" data-node="True" data-id="14" />
<image x="595.625" y="1120.625" width="65" height="65" xlink:href="designspace-test/./img/ds_dataset0_20_5_thumb.png" data-node="True" data-id="5" />
<image x="520.625" y="1195.625" width="65" height="65" xlink:href="designspace-test/./img/ds_dataset0_20_17_thumb.png" data-node="True" data-id="17" />
<image x="520.625" y="1120.625" width="65" height="65" xlink:href="designspace-test/./img/ds_dataset0_20_10_thumb.png" data-node="True" data-id="10" />
<image x="445.625" y="145.625" width="65" height="65" xlink:href="designspace-test/./img/ds_dataset0_20_9_thumb.png" data-node="True" data-id="9" />
<image x="445.625" y="70.625" width="65" height="65" xlink:href="designspace-test/./img/ds_dataset0_20_1_thumb.png" data-node="True" data-id="1" />
<image x="295.625" y="820.625" width="65" height="65" xlink:href="designspace-test/./img/ds_dataset0_20_18_thumb.png" data-node="True" data-id="18" />
<image x="70.625" y="595.625" width="65" height="65" xlink:href="designspace-test/./img/ds_dataset0_20_6_thumb.png" data-node="True" data-id="6" />
</svg>