<?xml version="1.0" encoding="UTF-8"?>
<svg xmlns="http://www.w3.org/2000/svg" xmlns:xlink="http://www.w3.org/1999/xlink"
     width="1350" height="1350" viewBox="0 0 1350 1350">
<defs>
</defs>
<path d="M950.2665898254845,632.125 C939.1957949127423,632.125,917.0542050872577,632.125,905.9834101745155,632.125" close="False" data-weight="0.0" stroke-width="6" fill="none" stroke="#ffff33" />
<path d="M875.2665898254845,632.125 A93.83039863674185,93.83039863674185,0,0,0,854.7176985548367,634.4027538039628 M854.7176985548367,634.4027538039628 A35.858166261561124,35.858166261561124,0,0,0,837.2150974233027,644.0349025766973 M837.2150974233027,644.0349025766973" close="False" data-weight="1.0" stroke-width="6" fill="none" stroke="#ffff33" />
<path d="M794.0349025766973,687.2150974233027 C786.0799512883486,695.1700487116514,770.1700487116514,711.0799512883486,762.2150974233027,719.0349025766973" close="False" data-weight="0.0" stroke-width="6" fill="none" stroke="#ffff33" />
<path d="M719.0349025766973,762.2150974233027 C711.0799512883486,770.1700487116514,695.1700487116514,786.0799512883486,687.2150974233027,794.0349025766973" close="False" data-weight="0.0" stroke-width="6" fill="none" stroke="#ffff33" />
<path d="M644.0349025766973,837.2150974233027 C636.0799512883486,845.1700487116514,620.1700487116514,861.0799512883486,612.2150974233027,869.0349025766973" close="False" data-weight="0.0" stroke-width="6" fill="none" stroke="#ffff33" />
<path d="M569.0349025766973,912.2150974233027 C561.0799512883486,920.1700487116514,545.1700487116514,936.0799512883486,537.2150974233027,944.0349025766973" close="False" data-weight="0.0" stroke-width="6" fill="none" stroke="#ffff33" />
<path d="M494.03490257669733,987.2150974233027 C486.0799512883487,995.1700487116514,470.1700487116513,1011.0799512883486,462.21509742330267,1019.0349025766973" close="False" data-weight="0.0" stroke-width="6" fill="none" stroke="#ffff33" />
<path d="M419.03490257669733,1062.2150974233027 C411.0799512883487,1070.1700487116514,395.1700487116513,1086.0799512883486,387.21509742330267,1094.0349025766973" close="False" data-weight="0.0" stroke-width="6" fill="none" stroke="#ffff33" />
<path d="M344.03490257669733,1137.2150974233027 C336.0799512883487,1145.1700487116514,320.1700487116513,1161.0799512883486,312.21509742330267,1169.0349025766973" close="False" data-weight="0.0" stroke-width="6" fill="none" stroke="#ffff33" />
<path d="M950.2665898254845,632.125 L980.9834101745155,632.125" close="False" data-weight="1.75" stroke-width="6" fill="none" stroke="#ffff33" />
<path d="M875.2665898254845,632.125 L905.9834101745155,632.125" close="False" data-weight="1.75" stroke-width="6" fill="none" stroke="#ffff33" />
<path d="M794.0349025766973,687.2150974233027 L837.2150974233027,644.0349025766973" close="False" data-weight="2.060660171779821" stroke-width="6" fill="none" stroke="#ffff33" />
<path d="M719.0349025766973,762.2150974233027 L762.2150974233027,719.0349025766973" close="False" data-weight="2.060660171779821" stroke-width="6" fill="none" stroke="#ffff33" />
<path d="M644.0349025766973,837.2150974233027 L687.2150974233027,794.0349025766973" close="False" data-weight="2.060660171779821" stroke-width="6" fill="none" stroke="#ffff33" />
<path d="M569.0349025766973,912.2150974233027 L612.2150974233027,869.0349025766973" close="False" data-weight="2.060660171779821" stroke-width="6" fill="none" stroke="#ffff33" />
<path d="M494.03490257669733,987.2150974233027 L537.2150974233027,944.0349025766973" close="False" data-weight="2.060660171779821" stroke-width="6" fill="none" stroke="#ffff33" />
<path d="M419.03490257669733,1062.2150974233027 L462.21509742330267,1019.0349025766973" close="False" data-weight="2.060660171779821" stroke-width="6" fill="none" stroke="#ffff33" />
<path d="M344.03490257669733,1137.2150974233027 L387.21509742330267,1094.0349025766973" close="False" data-weight="2.060660171779821" stroke-width="6" fill="none" stroke="#ffff33" />
<path d="M269.03490257669733,1212.2150974233027 L312.21509742330267,1169.0349025766973" close="False" data-weight="2.060660171779821" stroke-width="6" fill="none" stroke="#ffff33" />
<path d="M1169.0349025766973,912.2150974233027 C1161.0799512883486,920.1700487116514,1145.1700487116514,936.0799512883486,1137.2150974233027,944.0349025766973" close="False" data-weight="0.0" stroke-width="6" fill="none" stroke="#984ea3" />
<path d="M1169.0349025766973,794.0349025766973 C1161.0799512883486,786.0799512883486,1145.1700487116514,770.1700487116514,1137.2150974233027,762.2150974233027" close="False" data-weight="0.0" stroke-width="6" fill="none" stroke="#984ea3" />
<path d="M1078.125,1130.625 C1078.125,1141.875,1078.125,1164.375,1078.125,1175.625" close="False" data-weight="0.0" stroke-width="6" fill="none" stroke="#984ea3" />
<path d="M1078.125,1055.625 C1078.125,1066.875,1078.125,1089.375,1078.125,1100.625" close="False" data-weight="0.0" stroke-width="6" fill="none" stroke="#984ea3" />
<path d="M1094.0349025766973,719.0349025766973 C1086.0799512883486,711.0799512883486,1070.1700487116514,695.1700487116514,1062.2150974233027,687.2150974233027" close="False" data-weight="0.0" stroke-width="6" fill="none" stroke="#984ea3" />
<path d="M1025.625,1003.125 C1014.375,1003.125,991.875,1003.125,980.625,1003.125" close="False" data-weight="0.0" stroke-width="6" fill="none" stroke="#984ea3" />
<path d="M1003.125,575.625 A54.31980515339478,54.31980515339478,0,0,0,998.9901510378278,554.8377105184961 M998.9901510378278,554.8377105184961 A54.319805153394256,54.319805153394256,0,0,0,987.2150974233027,537.2150974233027 M987.2150974233027,537.2150974233027" close="False" data-weight="1.0" stroke-width="6" fill="none" stroke="#984ea3" />
<path d="M950.625,1003.125 C939.375,1003.125,916.875,1003.125,905.625,1003.125" close="False" data-weight="0.0" stroke-width="6" fill="none" stroke="#984ea3" />
<path d="M944.0349025766973,494.03490257669733 C936.0799512883486,486.0799512883487,920.1700487116514,470.1700487116513,912.2150974233027,462.21509742330267" close="False" data-weight="0.0" stroke-width="6" fill="none" stroke="#984ea3" />
<path d="M719.0349025766973,944.0349025766973 C711.0799512883486,936.0799512883486,695.1700487116514,920.1700487116514,687.2150974233027,912.2150974233027" close="False" data-weight="0.0" stroke-width="6" fill="none" stroke="#984ea3" />
<path d="M644.0349025766973,869.0349025766973 A54.3198051533949,54.3198051533949,0,0,0,626.4122894815039,857.2598489621721 M626.4122894815039,857.2598489621721 A54.31980515339421,54.31980515339421,0,0,0,605.625,853.125 M605.625,853.125" close="False" data-weight="1.0" stroke-width="6" fill="none" stroke="#984ea3" />
<path d="M575.625,853.125 C564.375,853.125,541.875,853.125,530.625,853.125" close="False" data-weight="0.0" stroke-width="6" fill="none" stroke="#984ea3" />
<path d="M557.125,755.9834101745155 A57.45452644919385,57.45452644919385,0,0,1,552.7515345873467,777.9703055609991 M552.7515345873467,777.9703055609991 A57.454526449167155,57.454526449167155,0,0,1,540.2969588128988,796.6098954365937 M540.2969588128988,796.6098954365937" close="False" data-weight="1.0" stroke-width="6" fill="none" stroke="#984ea3" />
<path d="M1169.0349025766973,912.2150974233027 L1212.2150974233027,869.0349025766973" close="False" data-weight="2.060660171779821" stroke-width="6" fill="none" stroke="#984ea3" />
<path d="M1169.0349025766973,794.0349025766973 L1212.2150974233027,837.2150974233027" close="False" data-weight="2.060660171779821" stroke-width="6" fill="none" stroke="#984ea3" />
<path d="M1078.125,1175.625 L1078.125,1205.625" close="False" data-weight="1.75" stroke-width="6" fill="none" stroke="#984ea3" />
<path d="M1078.125,1100.625 L1078.125,1130.625" close="False" data-weight="1.75" stroke-width="6" fill="none" stroke="#984ea3" />
<path d="M1078.125,1025.625 L1078.125,1055.625" close="False" data-weight="1.75" stroke-width="6" fill="none" stroke="#984ea3" />
<path d="M1094.0349025766973,987.2150974233027 L1137.2150974233027,944.0349025766973" close="False" data-weight="2.060660171779821" stroke-width="6" fill="none" stroke="#984ea3" />
<path d="M1094.0349025766973,719.0349025766973 L1137.2150974233027,762.2150974233027" close="False" data-weight="2.060660171779821" stroke-width="6" fill="none" stroke="#984ea3" />
<path d="M1025.625,1003.125 L1055.625,1003.125" close="False" data-weight="1.75" stroke-width="6" fill="none" stroke="#984ea3" />
<path d="M1019.0349025766973,644.0349025766973 L1062.2150974233027,687.2150974233027" close="False" data-weight="2.060660171779821" stroke-width="6" fill="none" stroke="#984ea3" />
<path d="M1003.125,575.625 L1003.125,605.625" close="False" data-weight="1.75" stroke-width="6" fill="none" stroke="#984ea3" />
<path d="M950.625,1003.125 L980.625,1003.125" close="False" data-weight="1.75" stroke-width="6" fill="none" stroke="#984ea3" />
<path d="M944.0349025766973,494.03490257669733 L987.2150974233027,537.2150974233027" close="False" data-weight="2.060660171779821" stroke-width="6" fill="none" stroke="#984ea3" />
<path d="M875.625,1003.125 L905.625,1003.125" close="False" data-weight="1.75" stroke-width="6" fill="none" stroke="#984ea3" />
<path d="M869.0349025766973,419.03490257669733 L912.2150974233027,462.21509742330267" close="False" data-weight="2.060660171779821" stroke-width="6" fill="none" stroke="#984ea3" />
<path d="M782.125,1025.2665898254845 L782.125,1055.9834101745155" close="False" data-weight="1.75" stroke-width="6" fill="none" stroke="#984ea3" />
<path d="M800.2665898254845,1007.125 L830.9834101745155,1007.125" close="False" data-weight="1.75" stroke-width="6" fill="none" stroke="#984ea3" />
<path d="M794.0349025766973,344.03490257669733 L837.2150974233027,387.21509742330267" close="False" data-weight="2.060660171779821" stroke-width="6" fill="none" stroke="#984ea3" />
<path d="M721.6098954366048,1140.2969588128876 L765.296958812895,1096.6098954365973" close="False" data-weight="2.060660171779821" stroke-width="6" fill="none" stroke="#984ea3" />
<path d="M719.0349025766973,944.0349025766973 L762.2150974233027,987.2150974233027" close="False" data-weight="2.060660171779821" stroke-width="6" fill="none" stroke="#984ea3" />
<path d="M644.0349025766973,869.0349025766973 L687.2150974233027,912.2150974233027" close="False" data-weight="2.060660171779821" stroke-width="6" fill="none" stroke="#984ea3" />
<path d="M575.625,853.125 L605.625,853.125" close="False" data-weight="1.75" stroke-width="6" fill="none" stroke="#984ea3" />
<path d="M557.125,725.2665898254845 L557.125,755.9834101745155" close="False" data-weight="1.75" stroke-width="6" fill="none" stroke="#984ea3" />
<path d="M500.625,853.125 L530.625,853.125" close="False" data-weight="1.75" stroke-width="6" fill="none" stroke="#984ea3" />
<path d="M496.6098954366011,840.2969588128914 L540.296958812895,796.6098954365974" close="False" data-weight="2.060660171779821" stroke-width="6" fill="none" stroke="#984ea3" />
<path d="M794.0349025766973,462.21509742330267 C786.0799512883486,470.1700487116513,770.1700487116514,486.0799512883487,762.2150974233027,494.03490257669733" close="False" data-weight="0.0" stroke-width="6" fill="none" stroke="#ff7f00" />
<path d="M719.0349025766973,537.2150974233027 C711.0799512883486,545.1700487116514,695.1700487116514,561.0799512883486,687.2150974233027,569.0349025766973" close="False" data-weight="0.0" stroke-width="6" fill="none" stroke="#ff7f00" />
<path d="M644.0349025766973,612.2150974233027 C636.1116939026759,620.1383060973241,617.5633132374239,633.0298325130836,609.6401045634026,640.953041187105" close="False" data-weight="0.0" stroke-width="6" fill="none" stroke="#ff7f00" />
<path d="M549.125,755.9834101745155 A49.454526449180605,49.454526449180605,0,0,1,545.3604983272536,774.9088381020824 M545.3604983272536,774.9088381020824 A49.45452644920564,49.45452644920564,0,0,1,534.640104563399,790.9530411871086 M534.640104563399,790.9530411871086" close="False" data-weight="1.0" stroke-width="6" fill="none" stroke="#ff7f00" />
<path d="M553.125,650.625 A54.31980515339484,54.31980515339484,0,0,0,548.9901510378278,629.8377105184961 M548.9901510378278,629.8377105184961 A54.3198051533943,54.3198051533943,0,0,0,537.2150974233027,612.2150974233027 M537.2150974233027,612.2150974233027" close="False" data-weight="1.0" stroke-width="6" fill="none" stroke="#ff7f00" />
<path d="M494.03490257669733,569.0349025766973 C486.0799512883487,561.0799512883486,470.1700487116513,545.1700487116514,462.21509742330267,537.2150974233027" close="False" data-weight="0.0" stroke-width="6" fill="none" stroke="#ff7f00" />
<path d="M419.03490257669733,494.03490257669733 C411.07995128834864,486.07995128834864,395.17004871165136,470.17004871165136,387.21509742330267,462.21509742330267" close="False" data-weight="0.0" stroke-width="6" fill="none" stroke="#ff7f00" />
<path d="M328.125,305.625 C328.125,316.875,328.125,339.375,328.125,350.625" close="False" data-weight="0.0" stroke-width="6" fill="none" stroke="#ff7f00" />
<path d="M328.125,230.625 C328.125,241.875,328.125,264.375,328.125,275.625" close="False" data-weight="0.0" stroke-width="6" fill="none" stroke="#ff7f00" />
<path d="M275.625,403.125 A54.31980515339478,54.31980515339478,0,0,0,254.83771051849607,407.2598489621722 M254.83771051849607,407.2598489621722 A54.3198051533945,54.3198051533945,0,0,0,237.21509742330267,419.03490257669733 M237.21509742330267,419.03490257669733" close="False" data-weight="1.0" stroke-width="6" fill="none" stroke="#ff7f00" />
<path d="M178.125,680.625 A35.85816626156054,35.85816626156054,0,0,1,172.55974976608715,699.8121656631095 M172.55974976608715,699.8121656631095 A93.83039863674661,93.83039863674661,0,0,1,159.64010456340264,715.953041187105 M159.64010456340264,715.953041187105" close="False" data-weight="1.0" stroke-width="6" fill="none" stroke="#ff7f00" />
<path d="M178.125,605.625 C178.125,616.875,178.125,639.375,178.125,650.625" close="False" data-weight="0.0" stroke-width="6" fill="none" stroke="#ff7f00" />
<path d="M178.125,530.625 C178.125,541.875,178.125,564.375,178.125,575.625" close="False" data-weight="0.0" stroke-width="6" fill="none" stroke="#ff7f00" />
<path d="M794.0349025766973,462.21509742330267 L837.2150974233027,419.03490257669733" close="False" data-weight="2.060660171779821" stroke-width="6" fill="none" stroke="#ff7f00" />
<path d="M787.3384181084706,348.65212660745544 L832.5978733925444,393.9115818915292" close="False" data-weight="2.060660171779821" stroke-width="6" fill="none" stroke="#ff7f00" />
<path d="M719.0349025766973,537.2150974233027 L762.2150974233027,494.03490257669733" close="False" data-weight="2.060660171779821" stroke-width="6" fill="none" stroke="#ff7f00" />
<path d="M644.0349025766973,612.2150974233027 L687.2150974233027,569.0349025766973" close="False" data-weight="2.060660171779821" stroke-width="6" fill="none" stroke="#ff7f00" />
<path d="M549.125,725.2665898254845 L549.125,755.9834101745155" close="False" data-weight="1.75" stroke-width="6" fill="none" stroke="#ff7f00" />
<path d="M565.953041187105,684.6401045634026 L609.6401045634026,640.953041187105" close="False" data-weight="2.060660171779821" stroke-width="6" fill="none" stroke="#ff7f00" />
<path d="M553.125,650.625 L553.125,680.625" close="False" data-weight="1.75" stroke-width="6" fill="none" stroke="#ff7f00" />
<path d="M490.95304118710123,834.6401045634063 L534.6401045634026,790.953041187105" close="False" data-weight="2.060660171779821" stroke-width="6" fill="none" stroke="#ff7f00" />
<path d="M494.03490257669733,569.0349025766973 L537.2150974233027,612.2150974233027" close="False" data-weight="2.060660171779821" stroke-width="6" fill="none" stroke="#ff7f00" />
<path d="M419.03490257669733,494.03490257669733 L462.21509742330267,537.2150974233027" close="False" data-weight="2.060660171779821" stroke-width="6" fill="none" stroke="#ff7f00" />
<path d="M344.03490257669733,419.03490257669733 L387.21509742330267,462.21509742330267" close="False" data-weight="2.060660171779821" stroke-width="6" fill="none" stroke="#ff7f00" />
<path d="M328.125,350.625 L328.125,380.625" close="False" data-weight="1.75" stroke-width="6" fill="none" stroke="#ff7f00" />
<path d="M328.125,275.625 L328.125,305.625" close="False" data-weight="1.75" stroke-width="6" fill="none" stroke="#ff7f00" />
<path d="M328.125,200.625 L328.125,230.625" close="False" data-weight="1.75" stroke-width="6" fill="none" stroke="#ff7f00" />
<path d="M344.03490257669733,162.21509742330267 L387.21509742330267,119.0349025766973" close="False" data-weight="2.060660171779821" stroke-width="6" fill="none" stroke="#ff7f00" />
<path d="M275.625,403.125 L305.625,403.125" close="False" data-weight="1.75" stroke-width="6" fill="none" stroke="#ff7f00" />
<path d="M178.125,650.625 L178.125,680.625" close="False" data-weight="1.75" stroke-width="6" fill="none" stroke="#ff7f00" />
<path d="M178.125,575.625 L178.125,605.625" close="False" data-weight="1.75" stroke-width="6" fill="none" stroke="#ff7f00" />
<path d="M178.125,500.625 L178.125,530.625" close="False" data-weight="1.75" stroke-width="6" fill="none" stroke="#ff7f00" />
<path d="M194.03490257669733,462.21509742330267 L237.2150974233027,419.03490257669733" close="False" data-weight="2.060660171779821" stroke-width="6" fill="none" stroke="#ff7f00" />
<path d="M115.95304118710871,759.640104563399 L159.64010456339898,715.9530411871086" close="False" data-weight="2.060660171779821" stroke-width="6" fill="none" stroke="#ff7f00" />
<path d="M778.125,950.625 A54.31980515339478,54.31980515339478,0,0,0,773.9901510378278,929.8377105184961 M773.9901510378278,929.8377105184961 A54.319805153394256,54.319805153394256,0,0,0,762.2150974233027,912.2150974233027 M762.2150974233027,912.2150974233027" close="False" data-weight="1.0" stroke-width="6" fill="none" stroke="#4daf4a" />
<path d="M719.0349025766973,869.0349025766973 C711.0799512883486,861.0799512883486,695.1700487116514,845.1700487116514,687.2150974233027,837.2150974233027" close="False" data-weight="0.0" stroke-width="6" fill="none" stroke="#4daf4a" />
<path d="M644.0349025766973,794.0349025766973 C636.0799512883486,786.0799512883486,620.1700487116514,770.1700487116514,612.2150974233027,762.2150974233027" close="False" data-weight="0.0" stroke-width="6" fill="none" stroke="#4daf4a" />
<path d="M500.2665898254845,707.125 C489.19579491274226,707.125,467.05420508725774,707.125,455.9834101745155,707.125" close="False" data-weight="0.0" stroke-width="6" fill="none" stroke="#4daf4a" />
<path d="M425.2665898254845,707.125 C414.06148066117134,707.125,391.83010916431317,703.125,380.625,703.125" close="False" data-weight="0.0" stroke-width="6" fill="none" stroke="#4daf4a" />
<path d="M350.625,703.125 C339.375,703.125,316.875,703.125,305.625,703.125" close="False" data-weight="0.0" stroke-width="6" fill="none" stroke="#4daf4a" />
<path d="M275.625,703.125 C264.375,703.125,241.875,703.125,230.625,703.125" close="False" data-weight="0.0" stroke-width="6" fill="none" stroke="#4daf4a" />
<path d="M200.625,703.125 A35.85816626156043,35.85816626156043,0,0,0,181.43783433689066,708.6902502339128 M181.43783433689066,708.6902502339128 A93.83039863674708,93.83039863674708,0,0,0,165.296958812895,721.6098954365974 M165.296958812895,721.6098954365974" close="False" data-weight="1.0" stroke-width="6" fill="none" stroke="#4daf4a" />
<path d="M774.125,1025.2665898254845 L774.125,1055.9834101745155" close="False" data-weight="1.75" stroke-width="6" fill="none" stroke="#4daf4a" />
<path d="M800.2665898254845,999.125 L830.9834101745155,999.125" close="False" data-weight="1.75" stroke-width="6" fill="none" stroke="#4daf4a" />
<path d="M778.125,950.625 L778.125,980.625" close="False" data-weight="1.75" stroke-width="6" fill="none" stroke="#4daf4a" />
<path d="M715.9530411870975,1134.64010456341 L759.6401045634026,1090.9530411871049" close="False" data-weight="2.060660171779821" stroke-width="6" fill="none" stroke="#4daf4a" />
<path d="M719.0349025766973,869.0349025766973 L762.2150974233027,912.2150974233027" close="False" data-weight="2.060660171779821" stroke-width="6" fill="none" stroke="#4daf4a" />
<path d="M644.0349025766973,794.0349025766973 L687.2150974233027,837.2150974233027" close="False" data-weight="2.060660171779821" stroke-width="6" fill="none" stroke="#4daf4a" />
<path d="M569.0349025766973,719.0349025766973 L612.2150974233027,762.2150974233027" close="False" data-weight="2.060660171779821" stroke-width="6" fill="none" stroke="#4daf4a" />
<path d="M500.2665898254845,707.125 L530.9834101745155,707.125" close="False" data-weight="1.75" stroke-width="6" fill="none" stroke="#4daf4a" />
<path d="M425.2665898254845,707.125 L455.9834101745155,707.125" close="False" data-weight="1.75" stroke-width="6" fill="none" stroke="#4daf4a" />
<path d="M350.625,703.125 L380.625,703.125" close="False" data-weight="1.75" stroke-width="6" fill="none" stroke="#4daf4a" />
<path d="M275.625,703.125 L305.625,703.125" close="False" data-weight="1.75" stroke-width="6" fill="none" stroke="#4daf4a" />
<path d="M200.625,703.125 L230.625,703.125" close="False" data-weight="1.75" stroke-width="6" fill="none" stroke="#4daf4a" />
<path d="M121.60989543659365,765.2969588128988 L165.29695881289868,721.6098954365937" close="False" data-weight="2.060660171779821" stroke-width="6" fill="none" stroke="#4daf4a" />
<path d="M950.2665898254845,624.125 C939.1957949127423,624.125,917.0542050872577,624.125,905.9834101745155,624.125" close="False" data-weight="0.0" stroke-width="6" fill="none" stroke="#377eb8" />
<path d="M875.2665898254845,624.125 C864.0614806611713,624.125,841.8301091643132,628.125,830.625,628.125" close="False" data-weight="0.0" stroke-width="6" fill="none" stroke="#377eb8" />
<path d="M800.625,628.125 C789.375,628.125,766.875,628.125,755.625,628.125" close="False" data-weight="0.0" stroke-width="6" fill="none" stroke="#377eb8" />
<path d="M725.625,628.125 C714.375,628.125,691.875,628.125,680.625,628.125" close="False" data-weight="0.0" stroke-width="6" fill="none" stroke="#377eb8" />
<path d="M650.625,628.125 A35.858166261560655,35.858166261560655,0,0,0,631.4378343368905,633.6902502339128 M631.4378343368905,633.6902502339128 A93.8303986367466,93.8303986367466,0,0,0,615.296958812895,646.6098954365974 M615.296958812895,646.6098954365974" close="False" data-weight="1.0" stroke-width="6" fill="none" stroke="#377eb8" />
<path d="M500.2665898254845,699.125 C489.19579491274226,699.125,467.05420508725774,699.125,455.9834101745155,699.125" close="False" data-weight="0.0" stroke-width="6" fill="none" stroke="#377eb8" />
<path d="M425.2665898254845,699.125 A93.83039863674287,93.83039863674287,0,0,1,404.7176985548367,696.8472461960372 M404.7176985548367,696.8472461960372 A35.858166261561,35.858166261561,0,0,1,387.21509742330267,687.2150974233027 M387.21509742330267,687.2150974233027" close="False" data-weight="1.0" stroke-width="6" fill="none" stroke="#377eb8" />
<path d="M344.03490257669733,644.0349025766973 C336.0799512883487,636.0799512883486,320.1700487116513,620.1700487116514,312.21509742330267,612.2150974233027" close="False" data-weight="0.0" stroke-width="6" fill="none" stroke="#377eb8" />
<path d="M269.03490257669733,569.0349025766973 C261.0799512883487,561.0799512883486,245.1700487116513,545.1700487116514,237.21509742330267,537.2150974233027" close="False" data-weight="0.0" stroke-width="6" fill="none" stroke="#377eb8" />
<path d="M950.2665898254845,624.125 L980.9834101745155,624.125" close="False" data-weight="1.75" stroke-width="6" fill="none" stroke="#377eb8" />
<path d="M875.2665898254845,624.125 L905.9834101745155,624.125" close="False" data-weight="1.75" stroke-width="6" fill="none" stroke="#377eb8" />
<path d="M800.625,628.125 L830.625,628.125" close="False" data-weight="1.75" stroke-width="6" fill="none" stroke="#377eb8" />
<path d="M725.625,628.125 L755.625,628.125" close="False" data-weight="1.75" stroke-width="6" fill="none" stroke="#377eb8" />
<path d="M650.625,628.125 L680.625,628.125" close="False" data-weight="1.75" stroke-width="6" fill="none" stroke="#377eb8" />
<path d="M571.6098954365974,690.296958812895 L615.296958812895,646.6098954365974" close="False" data-weight="2.060660171779821" stroke-width="6" fill="none" stroke="#377eb8" />
<path d="M500.2665898254845,699.125 L530.9834101745155,699.125" close="False" data-weight="1.75" stroke-width="6" fill="none" stroke="#377eb8" />
<path d="M425.2665898254845,699.125 L455.9834101745155,699.125" close="False" data-weight="1.75" stroke-width="6" fill="none" stroke="#377eb8" />
<path d="M344.03490257669733,644.0349025766973 L387.21509742330267,687.2150974233027" close="False" data-weight="2.060660171779821" stroke-width="6" fill="none" stroke="#377eb8" />
<path d="M269.03490257669733,569.0349025766973 L312.21509742330267,612.2150974233027" close="False" data-weight="2.060660171779821" stroke-width="6" fill="none" stroke="#377eb8" />
<path d="M194.03490257669733,494.03490257669733 L237.2150974233027,537.2150974233027" close="False" data-weight="2.060660171779821" stroke-width="6" fill="none" stroke="#377eb8" />
<path d="M1100.625,253.125 C1089.375,253.125,1066.875,253.125,1055.625,253.125" close="False" data-weight="0.0" stroke-width="6" fill="none" stroke="#e41a1c" />
<path d="M1025.625,253.125 A54.319805153393474,54.319805153393474,0,0,0,1004.8377105184961,257.25984896217227 M1004.8377105184961,257.25984896217227 A54.319805153395784,54.319805153395784,0,0,0,987.2150974233027,269.03490257669733 M987.2150974233027,269.03490257669733" close="False" data-weight="1.0" stroke-width="6" fill="none" stroke="#e41a1c" />
<path d="M944.0349025766973,312.21509742330267 C936.0799512883486,320.1700487116513,920.1700487116514,336.0799512883487,912.2150974233027,344.03490257669733" close="False" data-weight="0.0" stroke-width="6" fill="none" stroke="#e41a1c" />
<path d="M1175.625,253.125 L1205.625,253.125" close="False" data-weight="1.75" stroke-width="6" fill="none" stroke="#e41a1c" />
<path d="M1100.625,253.125 L1130.625,253.125" close="False" data-weight="1.75" stroke-width="6" fill="none" stroke="#e41a1c" />
<path d="M1025.625,253.125 L1055.625,253.125" close="False" data-weight="1.75" stroke-width="6" fill="none" stroke="#e41a1c" />
<path d="M944.0349025766973,312.21509742330267 L987.2150974233027,269.03490257669733" close="False" data-weight="2.060660171779821" stroke-width="6" fill="none" stroke="#e41a1c" />
<path d="M869.0349025766973,387.21509742330267 L912.2150974233027,344.03490257669733" close="False" data-weight="2.060660171779821" stroke-width="6" fill="none" stroke="#e41a1c" />
<path d="M798.6521266074554,337.33841810847065 L843.9115818915295,382.59787339254467" close="False" data-weight="2.060660171779821" stroke-width="6" fill="none" stroke="#e41a1c" />
<image x="1195.625" y="820.625" width="65" height="65" xlink:href="designspace-test/./img/ds_dataset0_20_10_thumb.png">
<title>10</title>
</image>
<image x="1195.625" y="220.625" width="65" height="65" xlink:href="designspace-test/./img/ds_dataset0_20_9_thumb.png">
<title>9</title>
</image>
<image x="1120.625" y="220.625" width="65" height="65" xlink:href="designspace-test/./img/ds_dataset0_20_1_thumb.png">
<title>1</title>
</image>
<image x="1045.625" y="1195.625" width="65" height="65" xlink:href="designspace-test/./img/ds_dataset0_20_5_thumb.png">
<title>5</title>
</image>
<image x="1045.625" y="970.625" width="65" height="65" xlink:href="designspace-test/./img/ds_dataset0_20_17_thumb.png">
<title>17</title>
</image>
<image x="970.625" y="595.625" width="65" height="65" xlink:href="designspace-test/./img/ds_dataset0_20_18_thumb.png">
<title>18</title>
</image>
<image x="820.625" y="970.625" width="65" height="65" xlink:href="designspace-test/./img/ds_dataset0_20_0_thumb.png">
<title>0</title>
</image>
<image x="820.625" y="370.625" width="65" height="65" xlink:href="designspace-test/./img/ds_dataset0_20_4_thumb.png">
<title>4</title>
</image>
<image x="745.625" y="1045.625" width="65" height="65" xlink:href="designspace-test/./img/ds_dataset0_20_12_thumb.png">
<title>12</title>
</image>
<image x="745.625" y="970.625" width="65" height="65" xlink:href="designspace-test/./img/ds_dataset0_20_8_thumb.png">
<title>8</title>
</image>
<image x="745.625" y="295.625" width="65" height="65" xlink:href="designspace-test/./img/ds_dataset0_20_15_thumb.png">
<title>15</title>
</image>
<image x="670.625" y="1120.625" width="65" height="65" xlink:href="designspace-test/./img/ds_dataset0_20_14_thumb.png">
<title>14</title>
</image>
<image x="520.625" y="670.625" width="65" height="65" xlink:href="designspace-test/./img/ds_dataset0_20_19_thumb.png">
<title>19</title>
</image>
<image x="445.625" y="820.625" width="65" height="65" xlink:href="designspace-test/./img/ds_dataset0_20_7_thumb.png">
<title>7</title>
</image>
<image x="370.625" y="70.625" width="65" height="65" xlink:href="designspace-test/./img/ds_dataset0_20_11_thumb.png">
<title>11</title>
</image>
<image x="295.625" y="370.625" width="65" height="65" xlink:href="designspace-test/./img/ds_dataset0_20_16_thumb.png">
<title>16</title>
</image>
<image x="295.625" y="145.625" width="65" height="65" xlink:href="designspace-test/./img/ds_dataset0_20_13_thumb.png">
<title>13</title>
</image>
<image x="220.625" y="1195.625" width="65" height="65" xlink:href="designspace-test/./img/ds_dataset0_20_6_thumb.png">
<title>6</title>
</image>
<image x="145.625" y="445.625" width="65" height="65" xlink:href="designspace-test/./img/ds_dataset0_20_2_thumb.png">
<title>2</title>
</image>
<image x="70.625" y="745.625" width="65" height="65" xlink:href="designspace-test/./img/ds_dataset0_20_3_thumb.png">
<title>3</title>
</image>
</svg>