<?xml version="1.0" encoding="UTF-8"?>
<svg xmlns="http://www.w3.org/2000/svg" xmlns:xlink="http://www.w3.org/1999/xlink"
     viewBox="0 0 2550 2550" preserveAspectRatio="xMidYMid meet">
<defs>
</defs>
<path d="M2432.625,1131.0795923149515 A57.72232222129196,57.72232222129196,0,0,1,2428.2311498479817,1153.168968706678 M2428.2311498479817,1153.168968706678 A57.72232222128422,57.72232222128422,0,0,1,2415.7185232472198,1171.8954377834593 M2415.7185232472198,1171.8954377834593" close="False" data-weight="1.0" stroke-width="7" fill="none" stroke="#1fa562" />
<path d="M2432.625,1056.0795923149515 C2432.625,1067.1022961574758,2432.625,1089.1477038425242,2432.625,1100.1704076850485" close="False" data-weight="0.0" stroke-width="7" fill="none" stroke="#1fa562" />
<path d="M2432.625,981.0795923149514 C2432.625,992.1022961574756,2432.625,1014.1477038425243,2432.625,1025.1704076850485" close="False" data-weight="0.0" stroke-width="7" fill="none" stroke="#1fa562" />
<path d="M2432.625,906.0795923149514 C2432.625,917.1022961574756,2432.625,939.1477038425244,2432.625,950.1704076850486" close="False" data-weight="0.0" stroke-width="7" fill="none" stroke="#1fa562" />
<path d="M2432.625,831.0795923149514 C2432.625,842.1022961574756,2432.625,864.1477038425244,2432.625,875.1704076850486" close="False" data-weight="0.0" stroke-width="7" fill="none" stroke="#1fa562" />
<path d="M2432.625,756.0795923149514 C2432.625,767.1022961574756,2432.625,789.1477038425244,2432.625,800.1704076850486" close="False" data-weight="0.0" stroke-width="7" fill="none" stroke="#1fa562" />
<path d="M2432.625,681.0795923149514 C2432.625,692.1022961574756,2432.625,714.1477038425244,2432.625,725.1704076850486" close="False" data-weight="0.0" stroke-width="7" fill="none" stroke="#1fa562" />
<path d="M2371.8954377834593,1215.7185232472198 C2364.1012091493994,1223.5127518812797,2348.5127518812797,1239.1012091493994,2340.7185232472198,1246.8954377834593" close="False" data-weight="0.0" stroke-width="7" fill="none" stroke="#1fa562" />
<path d="M2375.1704076850488,623.625 C2364.1477038425246,623.625,2342.1022961574754,623.625,2331.0795923149512,623.625" close="False" data-weight="0.0" stroke-width="7" fill="none" stroke="#1fa562" />
<path d="M2300.1704076850488,623.625 C2288.977375963741,623.625,2266.8180317213078,628.125,2255.625,628.125" close="False" data-weight="0.0" stroke-width="7" fill="none" stroke="#1fa562" />
<path d="M2225.625,628.125 C2214.375,628.125,2191.875,628.125,2180.625,628.125" close="False" data-weight="0.0" stroke-width="7" fill="none" stroke="#1fa562" />
<path d="M2150.625,628.125 C2139.375,628.125,2116.875,628.125,2105.625,628.125" close="False" data-weight="0.0" stroke-width="7" fill="none" stroke="#1fa562" />
<path d="M2075.625,628.125 C2064.375,628.125,2041.875,628.125,2030.625,628.125" close="False" data-weight="0.0" stroke-width="7" fill="none" stroke="#1fa562" />
<path d="M2000.625,628.125 C1989.375,628.125,1966.875,628.125,1955.625,628.125" close="False" data-weight="0.0" stroke-width="7" fill="none" stroke="#1fa562" />
<path d="M1925.625,628.125 C1914.375,628.125,1891.875,628.125,1880.625,628.125" close="False" data-weight="0.0" stroke-width="7" fill="none" stroke="#1fa562" />
<path d="M1850.625,628.125 C1839.375,628.125,1816.875,628.125,1805.625,628.125" close="False" data-weight="0.0" stroke-width="7" fill="none" stroke="#1fa562" />
<path d="M1775.625,628.125 A34.28043425550584,34.28043425550584,0,0,1,1756.6562233268019,622.3986142187192 M1756.6562233268019,622.3986142187192 A103.64933488288182,103.64933488288182,0,0,1,1740.7185232472195,609.3545622165407 M1740.7185232472195,609.3545622165407" close="False" data-weight="1.0" stroke-width="7" fill="none" stroke="#1fa562" />
<path d="M1696.8954377834596,565.5314767527807 C1689.1012091493994,557.7372481187207,1673.5127518812794,542.1487908506007,1665.7185232472195,534.3545622165407" close="False" data-weight="0.0" stroke-width="7" fill="none" stroke="#1fa562" />
<path d="M1621.8954377834746,490.5314767527956 C1614.1012091494072,482.73724811872813,1598.5127518812722,467.1487908505931,1590.7185232472048,459.35456221652566" close="False" data-weight="0.0" stroke-width="7" fill="none" stroke="#1fa562" />
<path d="M1546.8954377834746,415.53147675279547 C1539.1012091494072,407.737248118728,1523.5127518812722,392.1487908505931,1515.7185232472048,384.35456221652566" close="False" data-weight="0.0" stroke-width="7" fill="none" stroke="#1fa562" />
<path d="M2432.625,1100.1704076850485 L2432.625,1131.0795923149515" close="False" data-weight="1.75" stroke-width="7" fill="none" stroke="#1fa562" />
<path d="M2432.625,1025.1704076850485 L2432.625,1056.0795923149515" close="False" data-weight="1.75" stroke-width="7" fill="none" stroke="#1fa562" />
<path d="M2432.625,950.1704076850486 L2432.625,981.0795923149514" close="False" data-weight="1.75" stroke-width="7" fill="none" stroke="#1fa562" />
<path d="M2432.625,875.1704076850486 L2432.625,906.0795923149514" close="False" data-weight="1.75" stroke-width="7" fill="none" stroke="#1fa562" />
<path d="M2432.625,800.1704076850486 L2432.625,831.0795923149514" close="False" data-weight="1.75" stroke-width="7" fill="none" stroke="#1fa562" />
<path d="M2432.625,725.1704076850486 L2432.625,756.0795923149514" close="False" data-weight="1.75" stroke-width="7" fill="none" stroke="#1fa562" />
<path d="M2432.625,650.1704076850486 L2432.625,681.0795923149514" close="False" data-weight="1.75" stroke-width="7" fill="none" stroke="#1fa562" />
<path d="M2371.8954377834593,1215.7185232472198 L2415.7185232472198,1171.8954377834593" close="False" data-weight="2.060660171779821" stroke-width="7" fill="none" stroke="#1fa562" />
<path d="M2375.1704076850488,623.625 L2406.0795923149512,623.625" close="False" data-weight="1.75" stroke-width="7" fill="none" stroke="#1fa562" />
<path d="M2296.8954377834593,1290.7185232472198 L2340.7185232472198,1246.8954377834593" close="False" data-weight="2.060660171779821" stroke-width="7" fill="none" stroke="#1fa562" />
<path d="M2300.1704076850488,623.625 L2331.0795923149512,623.625" close="False" data-weight="1.75" stroke-width="7" fill="none" stroke="#1fa562" />
<path d="M2225.625,628.125 L2255.625,628.125" close="False" data-weight="1.75" stroke-width="7" fill="none" stroke="#1fa562" />
<path d="M2150.625,628.125 L2180.625,628.125" close="False" data-weight="1.75" stroke-width="7" fill="none" stroke="#1fa562" />
<path d="M2075.625,628.125 L2105.625,628.125" close="False" data-weight="1.75" stroke-width="7" fill="none" stroke="#1fa562" />
<path d="M2000.625,628.125 L2030.625,628.125" close="False" data-weight="1.75" stroke-width="7" fill="none" stroke="#1fa562" />
<path d="M1925.625,628.125 L1955.625,628.125" close="False" data-weight="1.75" stroke-width="7" fill="none" stroke="#1fa562" />
<path d="M1850.625,628.125 L1880.625,628.125" close="False" data-weight="1.75" stroke-width="7" fill="none" stroke="#1fa562" />
<path d="M1775.625,628.125 L1805.625,628.125" close="False" data-weight="1.75" stroke-width="7" fill="none" stroke="#1fa562" />
<path d="M1696.8954377834445,565.5314767527655 L1740.7185232472348,609.3545622165558" close="False" data-weight="2.060660171779821" stroke-width="7" fill="none" stroke="#1fa562" />
<path d="M1621.8954377834593,490.5314767527804 L1665.7185232472345,534.3545622165557" close="False" data-weight="2.060660171779821" stroke-width="7" fill="none" stroke="#1fa562" />
<path d="M1546.8954377834743,415.53147675279536 L1590.7185232472048,459.3545622165258" close="False" data-weight="2.060660171779821" stroke-width="7" fill="none" stroke="#1fa562" />
<path d="M1471.8954377834743,340.53147675279536 L1515.7185232472048,384.3545622165258" close="False" data-weight="2.060660171779821" stroke-width="7" fill="none" stroke="#1fa562" />
<path d="M2221.8954377834593,1365.7185232472198 C2214.1012091493994,1373.5127518812797,2198.5127518812797,1389.1012091493994,2190.7185232472198,1396.8954377834593" close="False" data-weight="0.0" stroke-width="7" fill="none" stroke="#ff1c5d" />
<path d="M2132.625,1581.0795923149515 C2132.625,1592.1022961574758,2132.625,1614.1477038425242,2132.625,1625.1704076850485" close="False" data-weight="0.0" stroke-width="7" fill="none" stroke="#ff1c5d" />
<path d="M2132.625,1506.0795923149515 C2132.625,1517.1022961574758,2132.625,1539.1477038425242,2132.625,1550.1704076850485" close="False" data-weight="0.0" stroke-width="7" fill="none" stroke="#ff1c5d" />
<path d="M2146.8954377834593,1440.7185232472198 A48.72232222128834,48.72232222128834,0,0,0,2136.33376594462,1456.5251821846082 M2136.33376594462,1456.5251821846082 A48.72232222128787,48.72232222128787,0,0,0,2132.625,1475.1704076850485 M2132.625,1475.1704076850485" close="False" data-weight="1.0" stroke-width="7" fill="none" stroke="#ff1c5d" />
<path d="M2221.8954377834593,1365.7185232472198 L2265.7185232472198,1321.8954377834593" close="False" data-weight="2.060660171779821" stroke-width="7" fill="none" stroke="#ff1c5d" />
<path d="M2132.625,1625.1704076850485 L2132.625,1656.0795923149515" close="False" data-weight="1.75" stroke-width="7" fill="none" stroke="#ff1c5d" />
<path d="M2132.625,1550.1704076850485 L2132.625,1581.0795923149515" close="False" data-weight="1.75" stroke-width="7" fill="none" stroke="#ff1c5d" />
<path d="M2132.625,1475.1704076850485 L2132.625,1506.0795923149515" close="False" data-weight="1.75" stroke-width="7" fill="none" stroke="#ff1c5d" />
<path d="M2146.8954377834593,1440.7185232472198 L2190.7185232472198,1396.8954377834593" close="False" data-weight="2.060660171779821" stroke-width="7" fill="none" stroke="#ff1c5d" />
<path d="M2423.625,1131.0795923149515 A48.72232222128787,48.72232222128787,0,0,1,2419.91623405538,1149.7248178153918 M2419.91623405538,1149.7248178153918 A48.72232222128834,48.72232222128834,0,0,1,2409.3545622165407,1165.5314767527802 M2409.3545622165407,1165.5314767527802" close="False" data-weight="1.0" stroke-width="7" fill="none" stroke="#7cd3eb" />
<path d="M2423.625,1056.0795923149515 C2423.625,1067.1022961574758,2423.625,1089.1477038425242,2423.625,1100.1704076850485" close="False" data-weight="0.0" stroke-width="7" fill="none" stroke="#7cd3eb" />
<path d="M2423.625,981.0795923149514 C2423.625,992.1022961574756,2423.625,1014.1477038425243,2423.625,1025.1704076850485" close="False" data-weight="0.0" stroke-width="7" fill="none" stroke="#7cd3eb" />
<path d="M2423.625,906.0795923149514 C2423.625,917.1022961574756,2423.625,939.1477038425244,2423.625,950.1704076850486" close="False" data-weight="0.0" stroke-width="7" fill="none" stroke="#7cd3eb" />
<path d="M2423.625,831.0795923149514 C2423.625,842.1022961574756,2423.625,864.1477038425244,2423.625,875.1704076850486" close="False" data-weight="0.0" stroke-width="7" fill="none" stroke="#7cd3eb" />
<path d="M2423.625,756.0795923149514 C2423.625,767.1022961574756,2423.625,789.1477038425244,2423.625,800.1704076850486" close="False" data-weight="0.0" stroke-width="7" fill="none" stroke="#7cd3eb" />
<path d="M2423.625,681.0795923149514 C2423.625,692.1022961574756,2423.625,714.1477038425244,2423.625,725.1704076850486" close="False" data-weight="0.0" stroke-width="7" fill="none" stroke="#7cd3eb" />
<path d="M2365.5314767527802,1209.3545622165407 C2357.7372481187203,1217.1487908506006,2342.1487908506006,1232.7372481187203,2334.3545622165407,1240.5314767527802" close="False" data-weight="0.0" stroke-width="7" fill="none" stroke="#7cd3eb" />
<path d="M2353.125,950.625 A54.3198051533991,54.3198051533991,0,0,0,2348.990151037828,929.8377105184959 M2348.990151037828,929.8377105184959 A54.319805153386056,54.319805153386056,0,0,0,2337.2150974233027,912.2150974233027 M2337.2150974233027,912.2150974233027" close="False" data-weight="1.0" stroke-width="7" fill="none" stroke="#7cd3eb" />
<path d="M2375.1704076850488,632.625 C2364.1477038425246,632.625,2342.1022961574754,632.625,2331.0795923149512,632.625" close="False" data-weight="0.0" stroke-width="7" fill="none" stroke="#7cd3eb" />
<path d="M2294.0349025766973,869.0349025766973 A54.31980515340254,54.31980515340254,0,0,0,2276.4122894815036,857.2598489621721 M2276.4122894815036,857.2598489621721 A54.319805153390575,54.319805153390575,0,0,0,2255.625,853.125 M2255.625,853.125" close="False" data-weight="1.0" stroke-width="7" fill="none" stroke="#7cd3eb" />
<path d="M2300.1704076850488,632.625 A103.64933488291251,103.64933488291251,0,0,0,2279.677214257368,634.6711181778996 M2279.677214257368,634.6711181778996 A34.280434255503216,34.280434255503216,0,0,0,2262.2150974233027,644.0349025766973 M2262.2150974233027,644.0349025766973" close="False" data-weight="1.0" stroke-width="7" fill="none" stroke="#7cd3eb" />
<path d="M2215.5314767527802,1359.3545622165407 C2207.7372481187203,1367.1487908506006,2192.1487908506006,1382.7372481187203,2184.3545622165407,1390.5314767527802" close="False" data-weight="0.0" stroke-width="7" fill="none" stroke="#7cd3eb" />
<path d="M2203.125,755.625 C2203.125,766.875,2203.125,789.375,2203.125,800.625" close="False" data-weight="0.0" stroke-width="7" fill="none" stroke="#7cd3eb" />
<path d="M2132.625,1731.0795923149515 C2132.625,1742.1022961574758,2132.625,1764.1477038425242,2132.625,1775.1704076850485" close="False" data-weight="0.0" stroke-width="7" fill="none" stroke="#7cd3eb" />
<path d="M2123.625,1581.0795923149515 C2123.625,1592.1022961574758,2123.625,1614.1477038425242,2123.625,1625.1704076850485" close="False" data-weight="0.0" stroke-width="7" fill="none" stroke="#7cd3eb" />
<path d="M2123.625,1506.0795923149515 C2123.625,1517.1022961574758,2123.625,1539.1477038425242,2123.625,1550.1704076850485" close="False" data-weight="0.0" stroke-width="7" fill="none" stroke="#7cd3eb" />
<path d="M2140.5314767527802,1434.3545622165407 A57.72232222128986,57.72232222128986,0,0,0,2128.0188501520183,1453.081031293322 M2128.0188501520183,1453.081031293322 A57.722322221286504,57.722322221286504,0,0,0,2123.625,1475.1704076850485 M2123.625,1475.1704076850485" close="False" data-weight="1.0" stroke-width="7" fill="none" stroke="#7cd3eb" />
<path d="M2075.625,1828.125 C2064.375,1828.125,2041.875,1828.125,2030.625,1828.125" close="False" data-weight="0.0" stroke-width="7" fill="none" stroke="#7cd3eb" />
<path d="M2075.625,1003.125 C2064.375,1003.125,2041.875,1003.125,2030.625,1003.125" close="False" data-weight="0.0" stroke-width="7" fill="none" stroke="#7cd3eb" />
<path d="M2000.625,1828.125 C1989.375,1828.125,1966.875,1828.125,1955.625,1828.125" close="False" data-weight="0.0" stroke-width="7" fill="none" stroke="#7cd3eb" />
<path d="M2000.625,1003.125 A54.31980515339296,54.31980515339296,0,0,0,1979.837710518496,1007.2598489621724 M1979.837710518496,1007.2598489621724 A54.31980515339619,54.31980515339619,0,0,0,1962.2150974233027,1019.0349025766973 M1962.2150974233027,1019.0349025766973" close="False" data-weight="1.0" stroke-width="7" fill="none" stroke="#7cd3eb" />
<path d="M1978.125,830.625 C1978.125,841.875,1978.125,864.375,1978.125,875.625" close="False" data-weight="0.0" stroke-width="7" fill="none" stroke="#7cd3eb" />
<path d="M1925.625,1828.125 C1914.375,1828.125,1891.875,1828.125,1880.625,1828.125" close="False" data-weight="0.0" stroke-width="7" fill="none" stroke="#7cd3eb" />
<path d="M1919.0349025766973,987.2150974233027 A54.31980515339554,54.31980515339554,0,0,0,1907.259848962172,1004.837710518496 M1907.259848962172,1004.837710518496 A54.319805153393645,54.319805153393645,0,0,0,1903.125,1025.625 M1903.125,1025.625" close="False" data-weight="1.0" stroke-width="7" fill="none" stroke="#7cd3eb" />
<path d="M1850.625,1828.125 C1839.375,1828.125,1816.875,1828.125,1805.625,1828.125" close="False" data-weight="0.0" stroke-width="7" fill="none" stroke="#7cd3eb" />
<path d="M1775.625,1828.125 C1764.375,1828.125,1741.875,1828.125,1730.625,1828.125" close="False" data-weight="0.0" stroke-width="7" fill="none" stroke="#7cd3eb" />
<path d="M1753.125,650.625 A34.28043425550459,34.28043425550459,0,0,0,1747.398614218719,631.6562233268021 M1747.398614218719,631.6562233268021 A103.6493348828995,103.6493348828995,0,0,0,1734.3545622165407,615.7185232472195 M1734.3545622165407,615.7185232472195" close="False" data-weight="1.0" stroke-width="7" fill="none" stroke="#7cd3eb" />
<path d="M1700.625,1828.125 C1689.375,1828.125,1666.875,1828.125,1655.625,1828.125" close="False" data-weight="0.0" stroke-width="7" fill="none" stroke="#7cd3eb" />
<path d="M1690.5314767527802,571.8954377834591 C1682.7372481187203,564.1012091493992,1667.1487908506006,548.5127518812794,1659.3545622165407,540.7185232472195" close="False" data-weight="0.0" stroke-width="7" fill="none" stroke="#7cd3eb" />
<path d="M1625.625,1828.125 C1614.375,1828.125,1591.875,1828.125,1580.625,1828.125" close="False" data-weight="0.0" stroke-width="7" fill="none" stroke="#7cd3eb" />
<path d="M1615.5314767527652,496.8954377834442 C1607.7372481187128,489.10120914939176,1592.1487908506078,473.512751881287,1584.3545622165555,465.71852324723454" close="False" data-weight="0.0" stroke-width="7" fill="none" stroke="#7cd3eb" />
<path d="M1550.625,1828.125 C1539.375,1828.125,1516.875,1828.125,1505.625,1828.125" close="False" data-weight="0.0" stroke-width="7" fill="none" stroke="#7cd3eb" />
<path d="M1544.0349025766973,1169.0349025766973 A54.3198051533949,54.3198051533949,0,0,0,1526.412289481504,1157.2598489621723 M1526.412289481504,1157.2598489621723 A54.3198051533941,54.3198051533941,0,0,0,1505.625,1153.125 M1505.625,1153.125" close="False" data-weight="1.0" stroke-width="7" fill="none" stroke="#7cd3eb" />
<path d="M1540.5314767527652,421.8954377834443 C1532.7372481187128,414.1012091493919,1517.1487908506078,398.512751881287,1509.3545622165555,390.71852324723454" close="False" data-weight="0.0" stroke-width="7" fill="none" stroke="#7cd3eb" />
<path d="M1475.625,1828.125 C1464.375,1828.125,1441.875,1828.125,1430.625,1828.125" close="False" data-weight="0.0" stroke-width="7" fill="none" stroke="#7cd3eb" />
<path d="M1475.625,1303.125 A54.31980515339569,54.31980515339569,0,0,0,1454.837710518496,1307.2598489621723 M1454.837710518496,1307.2598489621723 A54.3198051533933,54.3198051533933,0,0,0,1437.2150974233027,1319.0349025766973 M1437.2150974233027,1319.0349025766973" close="False" data-weight="1.0" stroke-width="7" fill="none" stroke="#7cd3eb" />
<path d="M1475.625,1153.125 C1464.375,1153.125,1441.875,1153.125,1430.625,1153.125" close="False" data-weight="0.0" stroke-width="7" fill="none" stroke="#7cd3eb" />
<path d="M1394.0349025766973,1362.2150974233027 C1386.0799512883486,1370.1700487116514,1370.1700487116514,1386.0799512883486,1362.2150974233027,1394.0349025766973" close="False" data-weight="0.0" stroke-width="7" fill="none" stroke="#7cd3eb" />
<path d="M1400.625,1153.125 C1389.4319682786925,1153.125,1367.272624036259,1148.625,1356.0795923149515,1148.625" close="False" data-weight="0.0" stroke-width="7" fill="none" stroke="#7cd3eb" />
<path d="M1325.1704076850485,1823.625 C1314.1477038425242,1823.625,1292.1022961574758,1823.625,1281.0795923149515,1823.625" close="False" data-weight="0.0" stroke-width="7" fill="none" stroke="#7cd3eb" />
<path d="M1319.0349025766973,1437.2150974233027 C1311.0799512883486,1445.1700487116514,1295.1700487116514,1461.0799512883486,1287.2150974233027,1469.0349025766973" close="False" data-weight="0.0" stroke-width="7" fill="none" stroke="#7cd3eb" />
<path d="M1307.625,1100.1704076850485 A57.72232222128923,57.72232222128923,0,0,0,1303.2311498479814,1078.0810312933222 M1303.2311498479814,1078.0810312933222 A57.722322221287286,57.722322221287286,0,0,0,1290.7185232472195,1059.3545622165407 M1290.7185232472195,1059.3545622165407" close="False" data-weight="1.0" stroke-width="7" fill="none" stroke="#7cd3eb" />
<path d="M1250.1704076850485,1823.625 A103.64933488289898,103.64933488289898,0,0,1,1229.677214257368,1821.5788818221001 M1229.677214257368,1821.5788818221001 A34.2804342555045,34.2804342555045,0,0,1,1212.2150974233027,1812.2150974233027 M1212.2150974233027,1812.2150974233027" close="False" data-weight="1.0" stroke-width="7" fill="none" stroke="#7cd3eb" />
<path d="M1244.0349025766973,1512.2150974233027 C1236.1202339445208,1520.1297660554792,1223.6331918793812,1538.9807691512979,1215.7185232472048,1546.8954377834743" close="False" data-weight="0.0" stroke-width="7" fill="none" stroke="#7cd3eb" />
<path d="M1169.0349025766973,1769.0349025766973 C1161.0799512883486,1761.0799512883486,1145.1700487116514,1745.1700487116514,1137.2150974233027,1737.2150974233027" close="False" data-weight="0.0" stroke-width="7" fill="none" stroke="#7cd3eb" />
<path d="M1171.8954377834743,1590.7185232472048 C1164.101209149407,1598.5127518812722,1148.5127518812722,1614.101209149407,1140.7185232472048,1621.8954377834743" close="False" data-weight="0.0" stroke-width="7" fill="none" stroke="#7cd3eb" />
<path d="M1175.625,928.125 C1164.375,928.125,1141.875,928.125,1130.625,928.125" close="False" data-weight="0.0" stroke-width="7" fill="none" stroke="#7cd3eb" />
<path d="M1100.625,928.125 C1089.375,928.125,1066.875,928.125,1055.625,928.125" close="False" data-weight="0.0" stroke-width="7" fill="none" stroke="#7cd3eb" />
<path d="M1025.625,928.125 C1014.375,928.125,991.875,928.125,980.625,928.125" close="False" data-weight="0.0" stroke-width="7" fill="none" stroke="#7cd3eb" />
<path d="M950.625,928.125 A54.31980515339478,54.31980515339478,0,0,1,929.8377105184961,923.9901510378278 M929.8377105184961,923.9901510378278 A54.319805153394256,54.319805153394256,0,0,1,912.2150974233027,912.2150974233027 M912.2150974233027,912.2150974233027" close="False" data-weight="1.0" stroke-width="7" fill="none" stroke="#7cd3eb" />
<path d="M869.0349025766973,869.0349025766973 C861.0799512883486,861.0799512883486,845.1700487116514,845.1700487116514,837.2150974233027,837.2150974233027" close="False" data-weight="0.0" stroke-width="7" fill="none" stroke="#7cd3eb" />
<path d="M725.1704076850486,782.625 A48.72232222127502,48.72232222127502,0,0,0,706.525182184604,786.333765944623 M706.525182184604,786.333765944623 A48.722322221327566,48.722322221327566,0,0,0,690.718523247212,796.8954377834668 M690.718523247212,796.8954377834668" close="False" data-weight="1.0" stroke-width="7" fill="none" stroke="#7cd3eb" />
<path d="M646.8954377834593,840.7185232472195 C639.1012091494013,848.5127518812776,623.5127518812851,864.1012091493938,615.718523247227,871.8954377834518" close="False" data-weight="0.0" stroke-width="7" fill="none" stroke="#7cd3eb" />
<path d="M490.5314767527767,871.8954377834556 A48.722322221268044,48.722322221268044,0,0,0,474.72481781538994,861.3337659446187 M474.72481781538994,861.3337659446187 A48.72232222129492,48.72232222129492,0,0,0,456.0795923149514,857.625 M456.0795923149514,857.625" close="False" data-weight="1.0" stroke-width="7" fill="none" stroke="#7cd3eb" />
<path d="M415.5314767527766,759.3545622165445 A57.72232222127028,57.72232222127028,0,0,0,403.01885015201714,778.0810312933245 M403.01885015201714,778.0810312933245 A57.72232222129435,57.72232222129435,0,0,0,398.625,800.1704076850486 M398.625,800.1704076850486" close="False" data-weight="1.0" stroke-width="7" fill="none" stroke="#7cd3eb" />
<path d="M2423.625,1100.1704076850485 L2423.625,1131.0795923149515" close="False" data-weight="1.75" stroke-width="7" fill="none" stroke="#7cd3eb" />
<path d="M2423.625,1025.1704076850485 L2423.625,1056.0795923149515" close="False" data-weight="1.75" stroke-width="7" fill="none" stroke="#7cd3eb" />
<path d="M2423.625,950.1704076850486 L2423.625,981.0795923149514" close="False" data-weight="1.75" stroke-width="7" fill="none" stroke="#7cd3eb" />
<path d="M2423.625,875.1704076850486 L2423.625,906.0795923149514" close="False" data-weight="1.75" stroke-width="7" fill="none" stroke="#7cd3eb" />
<path d="M2423.625,800.1704076850486 L2423.625,831.0795923149514" close="False" data-weight="1.75" stroke-width="7" fill="none" stroke="#7cd3eb" />
<path d="M2423.625,725.1704076850486 L2423.625,756.0795923149514" close="False" data-weight="1.75" stroke-width="7" fill="none" stroke="#7cd3eb" />
<path d="M2423.625,650.1704076850486 L2423.625,681.0795923149514" close="False" data-weight="1.75" stroke-width="7" fill="none" stroke="#7cd3eb" />
<path d="M2365.5314767527802,1209.3545622165407 L2409.3545622165407,1165.5314767527802" close="False" data-weight="2.060660171779821" stroke-width="7" fill="none" stroke="#7cd3eb" />
<path d="M2353.125,950.625 L2353.125,980.625" close="False" data-weight="1.75" stroke-width="7" fill="none" stroke="#7cd3eb" />
<path d="M2375.1704076850488,632.625 L2406.0795923149512,632.625" close="False" data-weight="1.75" stroke-width="7" fill="none" stroke="#7cd3eb" />
<path d="M2290.5314767527802,1284.3545622165407 L2334.3545622165407,1240.5314767527802" close="False" data-weight="2.060660171779821" stroke-width="7" fill="none" stroke="#7cd3eb" />
<path d="M2294.0349025766973,944.0349025766973 L2337.2150974233027,987.2150974233027" close="False" data-weight="2.060660171779821" stroke-width="7" fill="none" stroke="#7cd3eb" />
<path d="M2294.0349025766973,869.0349025766973 L2337.2150974233027,912.2150974233027" close="False" data-weight="2.060660171779821" stroke-width="7" fill="none" stroke="#7cd3eb" />
<path d="M2300.1704076850488,632.625 L2331.0795923149512,632.625" close="False" data-weight="1.75" stroke-width="7" fill="none" stroke="#7cd3eb" />
<path d="M2215.5314767527802,1359.3545622165407 L2259.3545622165407,1315.5314767527802" close="False" data-weight="2.060660171779821" stroke-width="7" fill="none" stroke="#7cd3eb" />
<path d="M2219.0349025766973,987.2150974233027 L2262.2150974233027,944.0349025766973" close="False" data-weight="2.060660171779821" stroke-width="7" fill="none" stroke="#7cd3eb" />
<path d="M2225.625,853.125 L2255.625,853.125" close="False" data-weight="1.75" stroke-width="7" fill="none" stroke="#7cd3eb" />
<path d="M2203.125,800.625 L2203.125,830.625" close="False" data-weight="1.75" stroke-width="7" fill="none" stroke="#7cd3eb" />
<path d="M2203.125,725.625 L2203.125,755.625" close="False" data-weight="1.75" stroke-width="7" fill="none" stroke="#7cd3eb" />
<path d="M2219.0349025766973,687.2150974233027 L2262.2150974233027,644.0349025766973" close="False" data-weight="2.060660171779821" stroke-width="7" fill="none" stroke="#7cd3eb" />
<path d="M2132.625,1775.1704076850485 L2132.625,1806.0795923149515" close="False" data-weight="1.75" stroke-width="7" fill="none" stroke="#7cd3eb" />
<path d="M2132.625,1700.1704076850485 L2132.625,1731.0795923149515" close="False" data-weight="1.75" stroke-width="7" fill="none" stroke="#7cd3eb" />
<path d="M2123.625,1625.1704076850485 L2123.625,1656.0795923149515" close="False" data-weight="1.75" stroke-width="7" fill="none" stroke="#7cd3eb" />
<path d="M2123.625,1550.1704076850485 L2123.625,1581.0795923149515" close="False" data-weight="1.75" stroke-width="7" fill="none" stroke="#7cd3eb" />
<path d="M2123.625,1475.1704076850485 L2123.625,1506.0795923149515" close="False" data-weight="1.75" stroke-width="7" fill="none" stroke="#7cd3eb" />
<path d="M2140.5314767527802,1434.3545622165407 L2184.3545622165407,1390.5314767527802" close="False" data-weight="2.060660171779821" stroke-width="7" fill="none" stroke="#7cd3eb" />
<path d="M2150.625,1003.125 L2180.625,1003.125" close="False" data-weight="1.75" stroke-width="7" fill="none" stroke="#7cd3eb" />
<path d="M2075.625,1828.125 L2105.625,1828.125" close="False" data-weight="1.75" stroke-width="7" fill="none" stroke="#7cd3eb" />
<path d="M2075.625,1003.125 L2105.625,1003.125" close="False" data-weight="1.75" stroke-width="7" fill="none" stroke="#7cd3eb" />
<path d="M2000.625,1828.125 L2030.625,1828.125" close="False" data-weight="1.75" stroke-width="7" fill="none" stroke="#7cd3eb" />
<path d="M2000.625,1003.125 L2030.625,1003.125" close="False" data-weight="1.75" stroke-width="7" fill="none" stroke="#7cd3eb" />
<path d="M1978.125,875.625 L1978.125,905.625" close="False" data-weight="1.75" stroke-width="7" fill="none" stroke="#7cd3eb" />
<path d="M1978.125,800.625 L1978.125,830.625" close="False" data-weight="1.75" stroke-width="7" fill="none" stroke="#7cd3eb" />
<path d="M1925.625,1828.125 L1955.625,1828.125" close="False" data-weight="1.75" stroke-width="7" fill="none" stroke="#7cd3eb" />
<path d="M1919.0349025766973,1062.2150974233027 L1962.2150974233027,1019.0349025766973" close="False" data-weight="2.060660171779821" stroke-width="7" fill="none" stroke="#7cd3eb" />
<path d="M1903.125,1025.625 L1903.125,1055.625" close="False" data-weight="1.75" stroke-width="7" fill="none" stroke="#7cd3eb" />
<path d="M1919.0349025766973,987.2150974233027 L1962.2150974233027,944.0349025766973" close="False" data-weight="2.060660171779821" stroke-width="7" fill="none" stroke="#7cd3eb" />
<path d="M1925.625,778.125 L1955.625,778.125" close="False" data-weight="1.75" stroke-width="7" fill="none" stroke="#7cd3eb" />
<path d="M1850.625,1828.125 L1880.625,1828.125" close="False" data-weight="1.75" stroke-width="7" fill="none" stroke="#7cd3eb" />
<path d="M1844.0349025766973,719.0349025766973 L1887.2150974233027,762.2150974233027" close="False" data-weight="2.060660171779821" stroke-width="7" fill="none" stroke="#7cd3eb" />
<path d="M1775.625,1828.125 L1805.625,1828.125" close="False" data-weight="1.75" stroke-width="7" fill="none" stroke="#7cd3eb" />
<path d="M1775.625,703.125 L1805.625,703.125" close="False" data-weight="1.75" stroke-width="7" fill="none" stroke="#7cd3eb" />
<path d="M1753.125,650.625 L1753.125,680.625" close="False" data-weight="1.75" stroke-width="7" fill="none" stroke="#7cd3eb" />
<path d="M1700.625,1828.125 L1730.625,1828.125" close="False" data-weight="1.75" stroke-width="7" fill="none" stroke="#7cd3eb" />
<path d="M1690.5314767527952,571.8954377834743 L1734.3545622165254,615.7185232472044" close="False" data-weight="2.060660171779821" stroke-width="7" fill="none" stroke="#7cd3eb" />
<path d="M1625.625,1828.125 L1655.625,1828.125" close="False" data-weight="1.75" stroke-width="7" fill="none" stroke="#7cd3eb" />
<path d="M1615.5314767527805,496.8954377834594 L1659.3545622165254,540.7185232472045" close="False" data-weight="2.060660171779821" stroke-width="7" fill="none" stroke="#7cd3eb" />
<path d="M1550.625,1828.125 L1580.625,1828.125" close="False" data-weight="1.75" stroke-width="7" fill="none" stroke="#7cd3eb" />
<path d="M1544.0349025766973,1287.2150974233027 L1587.2150974233027,1244.0349025766973" close="False" data-weight="2.060660171779821" stroke-width="7" fill="none" stroke="#7cd3eb" />
<path d="M1544.0349025766973,1169.0349025766973 L1587.2150974233027,1212.2150974233027" close="False" data-weight="2.060660171779821" stroke-width="7" fill="none" stroke="#7cd3eb" />
<path d="M1540.5314767527655,421.89543778344444 L1584.3545622165555,465.71852324723443" close="False" data-weight="2.060660171779821" stroke-width="7" fill="none" stroke="#7cd3eb" />
<path d="M1475.625,1828.125 L1505.625,1828.125" close="False" data-weight="1.75" stroke-width="7" fill="none" stroke="#7cd3eb" />
<path d="M1475.625,1303.125 L1505.625,1303.125" close="False" data-weight="1.75" stroke-width="7" fill="none" stroke="#7cd3eb" />
<path d="M1475.625,1153.125 L1505.625,1153.125" close="False" data-weight="1.75" stroke-width="7" fill="none" stroke="#7cd3eb" />
<path d="M1465.5314767527655,346.89543778344444 L1509.3545622165555,390.71852324723443" close="False" data-weight="2.060660171779821" stroke-width="7" fill="none" stroke="#7cd3eb" />
<path d="M1400.625,1828.125 L1430.625,1828.125" close="False" data-weight="1.75" stroke-width="7" fill="none" stroke="#7cd3eb" />
<path d="M1394.0349025766973,1362.2150974233027 L1437.2150974233027,1319.0349025766973" close="False" data-weight="2.060660171779821" stroke-width="7" fill="none" stroke="#7cd3eb" />
<path d="M1400.625,1153.125 L1430.625,1153.125" close="False" data-weight="1.75" stroke-width="7" fill="none" stroke="#7cd3eb" />
<path d="M1325.1704076850485,1823.625 L1356.0795923149515,1823.625" close="False" data-weight="1.75" stroke-width="7" fill="none" stroke="#7cd3eb" />
<path d="M1319.0349025766973,1437.2150974233027 L1362.2150974233027,1394.0349025766973" close="False" data-weight="2.060660171779821" stroke-width="7" fill="none" stroke="#7cd3eb" />
<path d="M1325.1704076850485,1148.625 L1356.0795923149515,1148.625" close="False" data-weight="1.75" stroke-width="7" fill="none" stroke="#7cd3eb" />
<path d="M1307.625,1100.1704076850485 L1307.625,1131.0795923149515" close="False" data-weight="1.75" stroke-width="7" fill="none" stroke="#7cd3eb" />
<path d="M1250.1704076850485,1823.625 L1281.0795923149515,1823.625" close="False" data-weight="1.75" stroke-width="7" fill="none" stroke="#7cd3eb" />
<path d="M1244.0349025766973,1512.2150974233027 L1287.2150974233027,1469.0349025766973" close="False" data-weight="2.060660171779821" stroke-width="7" fill="none" stroke="#7cd3eb" />
<path d="M1246.8954377834593,1015.5314767527805 L1290.71852324722,1059.354562216541" close="False" data-weight="2.060660171779821" stroke-width="7" fill="none" stroke="#7cd3eb" />
<path d="M1237.125,948.7465906273013 L1237.125,982.5034093726987" close="False" data-weight="1.75" stroke-width="7" fill="none" stroke="#7cd3eb" />
<path d="M1169.0349025766973,1769.0349025766973 L1212.2150974233027,1812.2150974233027" close="False" data-weight="2.060660171779821" stroke-width="7" fill="none" stroke="#7cd3eb" />
<path d="M1171.8954377834743,1590.7185232472048 L1215.7185232472048,1546.8954377834743" close="False" data-weight="2.060660171779821" stroke-width="7" fill="none" stroke="#7cd3eb" />
<path d="M1175.625,928.125 L1205.625,928.125" close="False" data-weight="1.75" stroke-width="7" fill="none" stroke="#7cd3eb" />
<path d="M1094.0349025766973,1694.0349025766973 L1137.2150974233027,1737.2150974233027" close="False" data-weight="2.060660171779821" stroke-width="7" fill="none" stroke="#7cd3eb" />
<path d="M1096.8954377834445,1665.7185232472345 L1140.7185232472048,1621.8954377834743" close="False" data-weight="2.060660171779821" stroke-width="7" fill="none" stroke="#7cd3eb" />
<path d="M1100.625,928.125 L1130.625,928.125" close="False" data-weight="1.75" stroke-width="7" fill="none" stroke="#7cd3eb" />
<path d="M1025.625,928.125 L1055.625,928.125" close="False" data-weight="1.75" stroke-width="7" fill="none" stroke="#7cd3eb" />
<path d="M950.625,928.125 L980.625,928.125" close="False" data-weight="1.75" stroke-width="7" fill="none" stroke="#7cd3eb" />
<path d="M869.0349025766973,869.0349025766973 L912.2150974233027,912.2150974233027" close="False" data-weight="2.060660171779821" stroke-width="7" fill="none" stroke="#7cd3eb" />
<path d="M794.0349025766973,794.0349025766973 L837.2150974233027,837.2150974233027" close="False" data-weight="2.060660171779821" stroke-width="7" fill="none" stroke="#7cd3eb" />
<path d="M725.1704076850486,782.625 L756.0795923149514,782.625" close="False" data-weight="1.75" stroke-width="7" fill="none" stroke="#7cd3eb" />
<path d="M646.8954377834518,840.718523247227 L690.7185232472195,796.8954377834593" close="False" data-weight="2.060660171779821" stroke-width="7" fill="none" stroke="#7cd3eb" />
<path d="M571.8954377834593,915.7185232472195 L615.7185232472195,871.8954377834593" close="False" data-weight="2.060660171779821" stroke-width="7" fill="none" stroke="#7cd3eb" />
<path d="M490.5314767527767,871.8954377834556 L534.354562216548,915.7185232472269" close="False" data-weight="2.060660171779821" stroke-width="7" fill="none" stroke="#7cd3eb" />
<path d="M425.1704076850486,857.625 L456.0795923149514,857.625" close="False" data-weight="1.75" stroke-width="7" fill="none" stroke="#7cd3eb" />
<path d="M398.625,800.1704076850486 L398.625,831.0795923149514" close="False" data-weight="1.75" stroke-width="7" fill="none" stroke="#7cd3eb" />
<path d="M415.5314767527767,759.3545622165444 L459.3545622165405,715.5314767527806" close="False" data-weight="2.060660171779821" stroke-width="7" fill="none" stroke="#7cd3eb" />
<path d="M1475.1704076850485,2432.625 A57.72232222134153,57.72232222134153,0,0,1,1453.0810312933386,2428.2311498479926 M1453.0810312933386,2428.2311498479926 A57.722322221133425,57.722322221133425,0,0,1,1434.3545622165705,2415.7185232472493 M1434.3545622165705,2415.7185232472493" close="False" data-weight="1.0" stroke-width="7" fill="none" stroke="#8f0f12" />
<path d="M1469.0349025766973,2369.0349025766973 C1461.0799512883486,2361.0799512883486,1445.1700487116514,2345.1700487116514,1437.2150974233027,2337.2150974233027" close="False" data-weight="0.0" stroke-width="7" fill="none" stroke="#8f0f12" />
<path d="M1469.0349025766973,1244.0349025766973 C1461.0799512883486,1236.0799512883486,1445.1700487116514,1220.1700487116514,1437.2150974233027,1212.2150974233027" close="False" data-weight="0.0" stroke-width="7" fill="none" stroke="#8f0f12" />
<path d="M1390.5314767527802,2371.8954377834593 C1382.7372481187203,2364.1012091493994,1367.1487908506006,2348.5127518812797,1359.3545622165407,2340.7185232472198" close="False" data-weight="0.0" stroke-width="7" fill="none" stroke="#8f0f12" />
<path d="M1394.0349025766973,2294.0349025766973 C1386.0799512883486,2286.0799512883486,1370.1700487116514,2270.1700487116514,1362.2150974233027,2262.2150974233027" close="False" data-weight="0.0" stroke-width="7" fill="none" stroke="#8f0f12" />
<path d="M1394.0349025766973,1169.0349025766973 A34.2804342555045,34.2804342555045,0,0,0,1376.572785742632,1159.6711181778999 M1376.572785742632,1159.6711181778999 A103.64933488289898,103.64933488289898,0,0,0,1356.0795923149515,1157.625 M1356.0795923149515,1157.625" close="False" data-weight="1.0" stroke-width="7" fill="none" stroke="#8f0f12" />
<path d="M1319.0349025766973,2219.0349025766973 C1311.0799512883486,2211.0799512883486,1295.1700487116514,2195.1700487116514,1287.2150974233027,2187.2150974233027" close="False" data-weight="0.0" stroke-width="7" fill="none" stroke="#8f0f12" />
<path d="M1298.625,1100.1704076850485 A48.72232222128878,48.72232222128878,0,0,0,1294.9162340553798,1081.5251821846082 M1294.9162340553798,1081.5251821846082 A48.72232222128769,48.72232222128769,0,0,0,1284.3545622165407,1065.7185232472195 M1284.3545622165407,1065.7185232472195" close="False" data-weight="1.0" stroke-width="7" fill="none" stroke="#8f0f12" />
<path d="M1244.0349025766973,2219.0349025766973 A54.319805153391044,54.319805153391044,0,0,0,1226.4122894815043,2207.259848962172 M1226.4122894815043,2207.259848962172 A54.3198051533941,54.3198051533941,0,0,0,1205.625,2203.125 M1205.625,2203.125" close="False" data-weight="1.0" stroke-width="7" fill="none" stroke="#8f0f12" />
<path d="M1244.0349025766973,2144.0349025766973 C1236.0799512883486,2136.0799512883486,1220.1700487116514,2120.1700487116514,1212.2150974233027,2112.2150974233027" close="False" data-weight="0.0" stroke-width="7" fill="none" stroke="#8f0f12" />
<path d="M1175.625,2203.125 C1164.375,2203.125,1141.875,2203.125,1130.625,2203.125" close="False" data-weight="0.0" stroke-width="7" fill="none" stroke="#8f0f12" />
<path d="M1169.0349025766973,2069.0349025766973 A54.319805153391044,54.319805153391044,0,0,0,1151.4122894815043,2057.259848962172 M1151.4122894815043,2057.259848962172 A54.3198051533941,54.3198051533941,0,0,0,1130.625,2053.125 M1130.625,2053.125" close="False" data-weight="1.0" stroke-width="7" fill="none" stroke="#8f0f12" />
<path d="M1169.0349025766973,987.2150974233027 C1161.0799512883486,995.1700487116514,1145.1700487116514,1011.0799512883486,1137.2150974233027,1019.0349025766973" close="False" data-weight="0.0" stroke-width="7" fill="none" stroke="#8f0f12" />
<path d="M1100.625,2053.125 C1089.375,2053.125,1066.875,2053.125,1055.625,2053.125" close="False" data-weight="0.0" stroke-width="7" fill="none" stroke="#8f0f12" />
<path d="M1078.125,1880.625 A54.31980515339569,54.31980515339569,0,0,1,1073.9901510378277,1901.412289481504 M1073.9901510378277,1901.412289481504 A54.319805153393375,54.319805153393375,0,0,1,1062.2150974233027,1919.0349025766973 M1062.2150974233027,1919.0349025766973" close="False" data-weight="1.0" stroke-width="7" fill="none" stroke="#8f0f12" />
<path d="M1073.625,1806.0795923149515 C1073.625,1817.272624036259,1078.125,1839.4319682786925,1078.125,1850.625" close="False" data-weight="0.0" stroke-width="7" fill="none" stroke="#8f0f12" />
<path d="M1073.625,1731.0795923149515 C1073.625,1742.1022961574758,1073.625,1764.1477038425242,1073.625,1775.1704076850485" close="False" data-weight="0.0" stroke-width="7" fill="none" stroke="#8f0f12" />
<path d="M1078.125,1580.625 C1078.125,1591.875,1078.125,1614.375,1078.125,1625.625" close="False" data-weight="0.0" stroke-width="7" fill="none" stroke="#8f0f12" />
<path d="M1078.125,1505.625 C1078.125,1516.875,1078.125,1539.375,1078.125,1550.625" close="False" data-weight="0.0" stroke-width="7" fill="none" stroke="#8f0f12" />
<path d="M1078.125,1430.625 C1078.125,1441.875,1078.125,1464.375,1078.125,1475.625" close="False" data-weight="0.0" stroke-width="7" fill="none" stroke="#8f0f12" />
<path d="M1078.125,1355.625 C1078.125,1366.875,1078.125,1389.375,1078.125,1400.625" close="False" data-weight="0.0" stroke-width="7" fill="none" stroke="#8f0f12" />
<path d="M1078.125,1280.625 C1078.125,1291.875,1078.125,1314.375,1078.125,1325.625" close="False" data-weight="0.0" stroke-width="7" fill="none" stroke="#8f0f12" />
<path d="M1078.125,1205.625 C1078.125,1216.875,1078.125,1239.375,1078.125,1250.625" close="False" data-weight="0.0" stroke-width="7" fill="none" stroke="#8f0f12" />
<path d="M1078.125,1130.625 C1078.125,1141.875,1078.125,1164.375,1078.125,1175.625" close="False" data-weight="0.0" stroke-width="7" fill="none" stroke="#8f0f12" />
<path d="M1094.0349025766973,1062.2150974233027 A54.3198051533949,54.3198051533949,0,0,0,1082.2598489621723,1079.837710518496 M1082.2598489621723,1079.837710518496 A54.3198051533941,54.3198051533941,0,0,0,1078.125,1100.625 M1078.125,1100.625" close="False" data-weight="1.0" stroke-width="7" fill="none" stroke="#8f0f12" />
<path d="M1025.625,2203.125 C1014.375,2203.125,991.875,2203.125,980.625,2203.125" close="False" data-weight="0.0" stroke-width="7" fill="none" stroke="#8f0f12" />
<path d="M1025.625,2053.125 C1014.375,2053.125,991.875,2053.125,980.625,2053.125" close="False" data-weight="0.0" stroke-width="7" fill="none" stroke="#8f0f12" />
<path d="M950.625,2203.125 C939.375,2203.125,916.875,2203.125,905.625,2203.125" close="False" data-weight="0.0" stroke-width="7" fill="none" stroke="#8f0f12" />
<path d="M950.625,2053.125 C939.375,2053.125,916.875,2053.125,905.625,2053.125" close="False" data-weight="0.0" stroke-width="7" fill="none" stroke="#8f0f12" />
<path d="M944.0349025766973,1919.0349025766973 C936.0799512883486,1911.0799512883486,920.1700487116514,1895.1700487116514,912.2150974233027,1887.2150974233027" close="False" data-weight="0.0" stroke-width="7" fill="none" stroke="#8f0f12" />
<path d="M875.625,2203.125 C864.375,2203.125,841.875,2203.125,830.625,2203.125" close="False" data-weight="0.0" stroke-width="7" fill="none" stroke="#8f0f12" />
<path d="M875.625,2053.125 C864.375,2053.125,841.875,2053.125,830.625,2053.125" close="False" data-weight="0.0" stroke-width="7" fill="none" stroke="#8f0f12" />
<path d="M869.0349025766973,1844.0349025766973 A54.31980515339554,54.31980515339554,0,0,0,851.412289481504,1832.259848962172 M851.412289481504,1832.259848962172 A54.319805153393645,54.319805153393645,0,0,0,830.625,1828.125 M830.625,1828.125" close="False" data-weight="1.0" stroke-width="7" fill="none" stroke="#8f0f12" />
<path d="M800.625,2203.125 A54.3198051533991,54.3198051533991,0,0,1,779.8377105184959,2198.990151037828 M779.8377105184959,2198.990151037828 A54.319805153386056,54.319805153386056,0,0,1,762.2150974233027,2187.2150974233027 M762.2150974233027,2187.2150974233027" close="False" data-weight="1.0" stroke-width="7" fill="none" stroke="#8f0f12" />
<path d="M800.625,2053.125 C789.375,2053.125,766.875,2053.125,755.625,2053.125" close="False" data-weight="0.0" stroke-width="7" fill="none" stroke="#8f0f12" />
<path d="M800.625,1828.125 C789.375,1828.125,766.875,1828.125,755.625,1828.125" close="False" data-weight="0.0" stroke-width="7" fill="none" stroke="#8f0f12" />
<path d="M719.0349025766973,2144.0349025766973 C711.0799512883486,2136.0799512883486,695.1700487116514,2120.1700487116514,687.2150974233027,2112.2150974233027" close="False" data-weight="0.0" stroke-width="7" fill="none" stroke="#8f0f12" />
<path d="M725.625,2053.125 A34.28043425550459,34.28043425550459,0,0,1,706.6562233268021,2047.398614218719 M706.6562233268021,2047.398614218719 A103.6493348828995,103.6493348828995,0,0,1,690.7185232472195,2034.3545622165407 M690.7185232472195,2034.3545622165407" close="False" data-weight="1.0" stroke-width="7" fill="none" stroke="#8f0f12" />
<path d="M725.625,1828.125 C714.375,1828.125,691.875,1828.125,680.625,1828.125" close="False" data-weight="0.0" stroke-width="7" fill="none" stroke="#8f0f12" />
<path d="M644.0349025766973,2069.0349025766973 C636.0799512883486,2061.0799512883486,620.1700487116514,2045.1700487116514,612.2150974233027,2037.2150974233027" close="False" data-weight="0.0" stroke-width="7" fill="none" stroke="#8f0f12" />
<path d="M646.8954377834591,1990.5314767527802 C639.1012091493992,1982.7372481187203,623.5127518812794,1967.1487908506006,615.7185232472195,1959.3545622165407" close="False" data-weight="0.0" stroke-width="7" fill="none" stroke="#8f0f12" />
<path d="M650.625,1828.125 C639.375,1828.125,616.875,1828.125,605.625,1828.125" close="False" data-weight="0.0" stroke-width="7" fill="none" stroke="#8f0f12" />
<path d="M569.0349025766973,1994.0349025766973 C561.0799512883486,1986.0799512883486,545.1700487116514,1970.1700487116514,537.2150974233027,1962.2150974233027" close="False" data-weight="0.0" stroke-width="7" fill="none" stroke="#8f0f12" />
<path d="M575.625,1828.125 A54.31980515339637,54.31980515339637,0,0,0,554.837710518496,1832.259848962172 M554.837710518496,1832.259848962172 A54.31980515339273,54.31980515339273,0,0,0,537.2150974233027,1844.0349025766973 M537.2150974233027,1844.0349025766973" close="False" data-weight="1.0" stroke-width="7" fill="none" stroke="#8f0f12" />
<path d="M494.03490257669733,1887.2150974233027 A22.49999999999994,22.49999999999994,0,0,0,487.44480515339467,1903.125 M487.44480515339467,1903.125 A22.49999999999994,22.49999999999994,0,0,0,494.03490257669733,1919.0349025766973 M494.03490257669733,1919.0349025766973" close="False" data-weight="2.0" stroke-width="7" fill="none" stroke="#8f0f12" />
<path d="M1475.1704076850485,2432.625 L1506.0795923149515,2432.625" close="False" data-weight="1.75" stroke-width="7" fill="none" stroke="#8f0f12" />
<path d="M1469.0349025766973,2369.0349025766973 L1512.2150974233027,2412.2150974233027" close="False" data-weight="2.060660171779821" stroke-width="7" fill="none" stroke="#8f0f12" />
<path d="M1469.0349025766973,1244.0349025766973 L1512.2150974233027,1287.2150974233027" close="False" data-weight="2.060660171779821" stroke-width="7" fill="none" stroke="#8f0f12" />
<path d="M1390.5314767527802,2371.8954377834593 L1434.3545622165705,2415.7185232472493" close="False" data-weight="2.060660171779821" stroke-width="7" fill="none" stroke="#8f0f12" />
<path d="M1394.0349025766973,2294.0349025766973 L1437.2150974233027,2337.2150974233027" close="False" data-weight="2.060660171779821" stroke-width="7" fill="none" stroke="#8f0f12" />
<path d="M1394.0349025766973,1169.0349025766973 L1437.2150974233027,1212.2150974233027" close="False" data-weight="2.060660171779821" stroke-width="7" fill="none" stroke="#8f0f12" />
<path d="M1315.5314767527505,2296.8954377834298 L1359.3545622165407,2340.7185232472198" close="False" data-weight="2.060660171779821" stroke-width="7" fill="none" stroke="#8f0f12" />
<path d="M1319.0349025766973,2219.0349025766973 L1362.2150974233027,2262.2150974233027" close="False" data-weight="2.060660171779821" stroke-width="7" fill="none" stroke="#8f0f12" />
<path d="M1325.1704076850485,1157.625 L1356.0795923149515,1157.625" close="False" data-weight="1.75" stroke-width="7" fill="none" stroke="#8f0f12" />
<path d="M1298.625,1100.1704076850485 L1298.625,1131.0795923149515" close="False" data-weight="1.75" stroke-width="7" fill="none" stroke="#8f0f12" />
<path d="M1244.0349025766973,2219.0349025766973 L1287.2150974233027,2262.2150974233027" close="False" data-weight="2.060660171779821" stroke-width="7" fill="none" stroke="#8f0f12" />
<path d="M1244.0349025766973,2144.0349025766973 L1287.2150974233027,2187.2150974233027" close="False" data-weight="2.060660171779821" stroke-width="7" fill="none" stroke="#8f0f12" />
<path d="M1240.5314767527805,1021.8954377834593 L1284.3545622165404,1065.7185232472195" close="False" data-weight="2.060660171779821" stroke-width="7" fill="none" stroke="#8f0f12" />
<path d="M1228.125,950.625 L1228.125,980.625" close="False" data-weight="1.75" stroke-width="7" fill="none" stroke="#8f0f12" />
<path d="M1175.625,2203.125 L1205.625,2203.125" close="False" data-weight="1.75" stroke-width="7" fill="none" stroke="#8f0f12" />
<path d="M1169.0349025766973,2069.0349025766973 L1212.2150974233027,2112.2150974233027" close="False" data-weight="2.060660171779821" stroke-width="7" fill="none" stroke="#8f0f12" />
<path d="M1169.0349025766973,987.2150974233027 L1212.2150974233027,944.0349025766973" close="False" data-weight="2.060660171779821" stroke-width="7" fill="none" stroke="#8f0f12" />
<path d="M1100.625,2203.125 L1130.625,2203.125" close="False" data-weight="1.75" stroke-width="7" fill="none" stroke="#8f0f12" />
<path d="M1100.625,2053.125 L1130.625,2053.125" close="False" data-weight="1.75" stroke-width="7" fill="none" stroke="#8f0f12" />
<path d="M1078.125,1850.625 L1078.125,1880.625" close="False" data-weight="1.75" stroke-width="7" fill="none" stroke="#8f0f12" />
<path d="M1073.625,1775.1704076850485 L1073.625,1806.0795923149515" close="False" data-weight="1.75" stroke-width="7" fill="none" stroke="#8f0f12" />
<path d="M1073.625,1700.1704076850485 L1073.625,1731.0795923149515" close="False" data-weight="1.75" stroke-width="7" fill="none" stroke="#8f0f12" />
<path d="M1078.125,1625.625 L1078.125,1655.625" close="False" data-weight="1.75" stroke-width="7" fill="none" stroke="#8f0f12" />
<path d="M1078.125,1550.625 L1078.125,1580.625" close="False" data-weight="1.75" stroke-width="7" fill="none" stroke="#8f0f12" />
<path d="M1078.125,1475.625 L1078.125,1505.625" close="False" data-weight="1.75" stroke-width="7" fill="none" stroke="#8f0f12" />
<path d="M1078.125,1400.625 L1078.125,1430.625" close="False" data-weight="1.75" stroke-width="7" fill="none" stroke="#8f0f12" />
<path d="M1078.125,1325.625 L1078.125,1355.625" close="False" data-weight="1.75" stroke-width="7" fill="none" stroke="#8f0f12" />
<path d="M1078.125,1250.625 L1078.125,1280.625" close="False" data-weight="1.75" stroke-width="7" fill="none" stroke="#8f0f12" />
<path d="M1078.125,1175.625 L1078.125,1205.625" close="False" data-weight="1.75" stroke-width="7" fill="none" stroke="#8f0f12" />
<path d="M1078.125,1100.625 L1078.125,1130.625" close="False" data-weight="1.75" stroke-width="7" fill="none" stroke="#8f0f12" />
<path d="M1094.0349025766973,1062.2150974233027 L1137.2150974233027,1019.0349025766973" close="False" data-weight="2.060660171779821" stroke-width="7" fill="none" stroke="#8f0f12" />
<path d="M1025.625,2203.125 L1055.625,2203.125" close="False" data-weight="1.75" stroke-width="7" fill="none" stroke="#8f0f12" />
<path d="M1025.625,2053.125 L1055.625,2053.125" close="False" data-weight="1.75" stroke-width="7" fill="none" stroke="#8f0f12" />
<path d="M1019.0349025766973,1962.2150974233027 L1062.2150974233027,1919.0349025766973" close="False" data-weight="2.060660171779821" stroke-width="7" fill="none" stroke="#8f0f12" />
<path d="M950.625,2203.125 L980.625,2203.125" close="False" data-weight="1.75" stroke-width="7" fill="none" stroke="#8f0f12" />
<path d="M950.625,2053.125 L980.625,2053.125" close="False" data-weight="1.75" stroke-width="7" fill="none" stroke="#8f0f12" />
<path d="M944.0349025766973,1919.0349025766973 L987.2150974233027,1962.2150974233027" close="False" data-weight="2.060660171779821" stroke-width="7" fill="none" stroke="#8f0f12" />
<path d="M875.625,2203.125 L905.625,2203.125" close="False" data-weight="1.75" stroke-width="7" fill="none" stroke="#8f0f12" />
<path d="M875.625,2053.125 L905.625,2053.125" close="False" data-weight="1.75" stroke-width="7" fill="none" stroke="#8f0f12" />
<path d="M869.0349025766973,1844.0349025766973 L912.2150974233027,1887.2150974233027" close="False" data-weight="2.060660171779821" stroke-width="7" fill="none" stroke="#8f0f12" />
<path d="M800.625,2203.125 L830.625,2203.125" close="False" data-weight="1.75" stroke-width="7" fill="none" stroke="#8f0f12" />
<path d="M800.625,2053.125 L830.625,2053.125" close="False" data-weight="1.75" stroke-width="7" fill="none" stroke="#8f0f12" />
<path d="M800.625,1828.125 L830.625,1828.125" close="False" data-weight="1.75" stroke-width="7" fill="none" stroke="#8f0f12" />
<path d="M719.0349025766973,2144.0349025766973 L762.2150974233027,2187.2150974233027" close="False" data-weight="2.060660171779821" stroke-width="7" fill="none" stroke="#8f0f12" />
<path d="M725.625,2053.125 L755.625,2053.125" close="False" data-weight="1.75" stroke-width="7" fill="none" stroke="#8f0f12" />
<path d="M725.625,1828.125 L755.625,1828.125" close="False" data-weight="1.75" stroke-width="7" fill="none" stroke="#8f0f12" />
<path d="M644.0349025766973,2069.0349025766973 L687.2150974233027,2112.2150974233027" close="False" data-weight="2.060660171779821" stroke-width="7" fill="none" stroke="#8f0f12" />
<path d="M646.8954377834294,1990.5314767527505 L690.7185232472492,2034.3545622165702" close="False" data-weight="2.060660171779821" stroke-width="7" fill="none" stroke="#8f0f12" />
<path d="M650.625,1828.125 L680.625,1828.125" close="False" data-weight="1.75" stroke-width="7" fill="none" stroke="#8f0f12" />
<path d="M569.0349025766973,1994.0349025766973 L612.2150974233027,2037.2150974233027" close="False" data-weight="2.060660171779821" stroke-width="7" fill="none" stroke="#8f0f12" />
<path d="M571.8954377834743,1915.5314767527952 L615.7185232472044,1959.3545622165254" close="False" data-weight="2.060660171779821" stroke-width="7" fill="none" stroke="#8f0f12" />
<path d="M575.625,1828.125 L605.625,1828.125" close="False" data-weight="1.75" stroke-width="7" fill="none" stroke="#8f0f12" />
<path d="M494.03490257669733,1919.0349025766973 L537.2150974233027,1962.2150974233027" close="False" data-weight="2.060660171779821" stroke-width="7" fill="none" stroke="#8f0f12" />
<path d="M494.03490257669733,1887.2150974233027 L537.2150974233027,1844.0349025766973" close="False" data-weight="2.060660171779821" stroke-width="7" fill="none" stroke="#8f0f12" />
<path d="M1228.125,1505.625 A34.280434255504815,34.280434255504815,0,0,1,1222.3986142187246,1524.5937766731895 M1222.3986142187246,1524.5937766731895 A103.64933488269178,103.64933488269178,0,0,1,1209.3545622165555,1540.5314767527655 M1209.3545622165555,1540.5314767527655" close="False" data-weight="1.0" stroke-width="7" fill="none" stroke="#90ea66" />
<path d="M1228.125,1430.625 C1228.125,1441.875,1228.125,1464.375,1228.125,1475.625" close="False" data-weight="0.0" stroke-width="7" fill="none" stroke="#90ea66" />
<path d="M1228.125,1355.625 C1228.125,1366.875,1228.125,1389.375,1228.125,1400.625" close="False" data-weight="0.0" stroke-width="7" fill="none" stroke="#90ea66" />
<path d="M1228.125,1280.625 C1228.125,1291.875,1228.125,1314.375,1228.125,1325.625" close="False" data-weight="0.0" stroke-width="7" fill="none" stroke="#90ea66" />
<path d="M1228.125,1205.625 C1228.125,1216.875,1228.125,1239.375,1228.125,1250.625" close="False" data-weight="0.0" stroke-width="7" fill="none" stroke="#90ea66" />
<path d="M1228.125,1130.625 C1228.125,1141.875,1228.125,1164.375,1228.125,1175.625" close="False" data-weight="0.0" stroke-width="7" fill="none" stroke="#90ea66" />
<path d="M1228.125,1055.625 C1228.125,1066.875,1228.125,1089.375,1228.125,1100.625" close="False" data-weight="0.0" stroke-width="7" fill="none" stroke="#90ea66" />
<path d="M1165.5314767527655,1584.3545622165555 C1157.737248118713,1592.1487908506078,1142.1487908506078,1607.737248118713,1134.3545622165555,1615.5314767527655" close="False" data-weight="0.0" stroke-width="7" fill="none" stroke="#90ea66" />
<path d="M1082.625,1806.0795923149515 A26.789131435650233,26.789131435650233,0,0,1,1074.882492876964,1824.917948542889 M1074.882492876964,1824.917948542889 A4005.6671960666235,4005.6671960666235,0,0,1,1059.354562216511,1840.5314767528102 M1059.354562216511,1840.5314767528102" close="False" data-weight="1.0" stroke-width="7" fill="none" stroke="#90ea66" />
<path d="M1082.625,1731.0795923149515 C1082.625,1742.1022961574758,1082.625,1764.1477038425242,1082.625,1775.1704076850485" close="False" data-weight="0.0" stroke-width="7" fill="none" stroke="#90ea66" />
<path d="M1015.5314767528102,1884.3545622165107 C1007.7372481187354,1892.1487908505856,992.1487908505857,1907.7372481187354,984.3545622165108,1915.5314767528102" close="False" data-weight="0.0" stroke-width="7" fill="none" stroke="#90ea66" />
<path d="M1019.0349025766973,237.2150974233027 C1011.0799512883486,245.17004871165133,995.1700487116514,261.0799512883487,987.2150974233027,269.03490257669733" close="False" data-weight="0.0" stroke-width="7" fill="none" stroke="#90ea66" />
<path d="M940.5314767528105,1959.3545622165104 C932.7372481187355,1967.1487908505853,917.1487908505857,1982.7372481187354,909.3545622165108,1990.5314767528102" close="False" data-weight="0.0" stroke-width="7" fill="none" stroke="#90ea66" />
<path d="M944.0349025766973,312.21509742330267 C936.0799512883486,320.1700487116513,920.1700487116514,336.0799512883487,912.2150974233027,344.03490257669733" close="False" data-weight="0.0" stroke-width="7" fill="none" stroke="#90ea66" />
<path d="M865.5314767528105,2034.3545622165104 C857.737248118743,2042.1487908505778,842.1487908506081,2057.7372481187126,834.3545622165407,2065.5314767527802" close="False" data-weight="0.0" stroke-width="7" fill="none" stroke="#90ea66" />
<path d="M869.0349025766973,387.21509742330267 C861.0799512883486,395.1700487116513,845.1700487116514,411.0799512883487,837.2150974233027,419.03490257669733" close="False" data-weight="0.0" stroke-width="7" fill="none" stroke="#90ea66" />
<path d="M778.125,680.625 C778.125,691.875,778.125,714.375,778.125,725.625" close="False" data-weight="0.0" stroke-width="7" fill="none" stroke="#90ea66" />
<path d="M778.125,605.625 C778.125,616.875,778.125,639.375,778.125,650.625" close="False" data-weight="0.0" stroke-width="7" fill="none" stroke="#90ea66" />
<path d="M778.125,530.625 C778.125,541.875,778.125,564.375,778.125,575.625" close="False" data-weight="0.0" stroke-width="7" fill="none" stroke="#90ea66" />
<path d="M794.0349025766973,462.21509742330267 A54.31980515339474,54.31980515339474,0,0,0,782.2598489621722,479.837710518496 M782.2598489621722,479.837710518496 A54.319805153394555,54.319805153394555,0,0,0,778.125,500.625 M778.125,500.625" close="False" data-weight="1.0" stroke-width="7" fill="none" stroke="#90ea66" />
<path d="M719.0349025766973,2069.0349025766973 C711.1202339445246,2061.1202339445244,692.2692308487135,2048.633191879392,684.3545622165407,2040.7185232472195" close="False" data-weight="0.0" stroke-width="7" fill="none" stroke="#90ea66" />
<path d="M725.1704076850486,773.625 A57.722322221302875,57.722322221302875,0,0,0,703.0810312933263,778.0188501520157 M703.0810312933263,778.0188501520157 A57.722322221248376,57.722322221248376,0,0,0,684.3545622165482,790.531476752773 M684.3545622165482,790.531476752773" close="False" data-weight="1.0" stroke-width="7" fill="none" stroke="#90ea66" />
<path d="M640.5314767527807,1996.8954377834596 C632.7372481187207,1989.1012091493994,617.1487908506007,1973.5127518812794,609.3545622165407,1965.7185232472195" close="False" data-weight="0.0" stroke-width="7" fill="none" stroke="#90ea66" />
<path d="M640.5314767527805,834.3545622165407 C632.7372481187186,842.1487908506025,617.148790850595,857.7372481187261,609.3545622165332,865.531476752788" close="False" data-weight="0.0" stroke-width="7" fill="none" stroke="#90ea66" />
<path d="M494.03490257669733,1844.0349025766973 C486.0799512883487,1836.0799512883486,470.1700487116513,1820.1700487116514,462.21509742330267,1812.2150974233027" close="False" data-weight="0.0" stroke-width="7" fill="none" stroke="#90ea66" />
<path d="M496.8954377834594,865.5314767527805 A57.72232222128677,57.72232222128677,0,0,0,478.16896870667773,853.0188501520186 M478.16896870667773,853.0188501520186 A57.72232222128912,57.72232222128912,0,0,0,456.0795923149514,848.625 M456.0795923149514,848.625" close="False" data-weight="1.0" stroke-width="7" fill="none" stroke="#90ea66" />
<path d="M419.03490257669733,1769.0349025766973 C411.0799512883487,1761.0799512883486,395.1700487116513,1745.1700487116514,387.21509742330267,1737.2150974233027" close="False" data-weight="0.0" stroke-width="7" fill="none" stroke="#90ea66" />
<path d="M421.8954377834632,765.7185232472157 A48.72232222130795,48.72232222130795,0,0,0,411.3337659446217,781.5251821846059 M411.3337659446217,781.5251821846059 A48.722322221282184,48.722322221282184,0,0,0,407.625,800.1704076850486 M407.625,800.1704076850486" close="False" data-weight="1.0" stroke-width="7" fill="none" stroke="#90ea66" />
<path d="M425.625,703.125 A54.319805153394555,54.319805153394555,0,0,0,404.837710518496,707.2598489621722 M404.837710518496,707.2598489621722 A54.31980515339474,54.31980515339474,0,0,0,387.21509742330267,719.0349025766973 M387.21509742330267,719.0349025766973" close="False" data-weight="1.0" stroke-width="7" fill="none" stroke="#90ea66" />
<path d="M328.125,1625.625 A54.31980515339285,54.31980515339285,0,0,0,323.9901510378276,1604.837710518496 M323.9901510378276,1604.837710518496 A54.31980515339627,54.31980515339627,0,0,0,312.21509742330267,1587.2150974233027 M312.21509742330267,1587.2150974233027" close="False" data-weight="1.0" stroke-width="7" fill="none" stroke="#90ea66" />
<path d="M344.03490257669733,762.2150974233027 C336.0799512883487,770.1700487116514,320.1700487116513,786.0799512883486,312.21509742330267,794.0349025766973" close="False" data-weight="0.0" stroke-width="7" fill="none" stroke="#90ea66" />
<path d="M269.03490257669733,1544.0349025766973 C261.0799512883487,1536.0799512883486,245.1700487116513,1520.1700487116514,237.21509742330267,1512.2150974233027" close="False" data-weight="0.0" stroke-width="7" fill="none" stroke="#90ea66" />
<path d="M269.03490257669733,837.2150974233027 C261.0799512883487,845.1700487116514,245.1700487116513,861.0799512883486,237.21509742330267,869.0349025766973" close="False" data-weight="0.0" stroke-width="7" fill="none" stroke="#90ea66" />
<path d="M178.125,1355.625 C178.125,1366.875,178.125,1389.375,178.125,1400.625" close="False" data-weight="0.0" stroke-width="7" fill="none" stroke="#90ea66" />
<path d="M178.125,1205.625 C178.125,1216.875,178.125,1239.375,178.125,1250.625" close="False" data-weight="0.0" stroke-width="7" fill="none" stroke="#90ea66" />
<path d="M178.125,1130.625 C178.125,1141.875,178.125,1164.375,178.125,1175.625" close="False" data-weight="0.0" stroke-width="7" fill="none" stroke="#90ea66" />
<path d="M178.125,1055.625 C178.125,1066.875,178.125,1089.375,178.125,1100.625" close="False" data-weight="0.0" stroke-width="7" fill="none" stroke="#90ea66" />
<path d="M178.125,980.625 C178.125,991.875,178.125,1014.375,178.125,1025.625" close="False" data-weight="0.0" stroke-width="7" fill="none" stroke="#90ea66" />
<path d="M194.0349025766973,912.2150974233027 A54.3198051533949,54.3198051533949,0,0,0,182.25984896217216,929.8377105184961 M182.25984896217216,929.8377105184961 A54.31980515339427,54.31980515339427,0,0,0,178.125,950.625 M178.125,950.625" close="False" data-weight="1.0" stroke-width="7" fill="none" stroke="#90ea66" />
<path d="M1228.125,1475.625 L1228.125,1505.625" close="False" data-weight="1.75" stroke-width="7" fill="none" stroke="#90ea66" />
<path d="M1228.125,1400.625 L1228.125,1430.625" close="False" data-weight="1.75" stroke-width="7" fill="none" stroke="#90ea66" />
<path d="M1228.125,1325.625 L1228.125,1355.625" close="False" data-weight="1.75" stroke-width="7" fill="none" stroke="#90ea66" />
<path d="M1228.125,1250.625 L1228.125,1280.625" close="False" data-weight="1.75" stroke-width="7" fill="none" stroke="#90ea66" />
<path d="M1228.125,1175.625 L1228.125,1205.625" close="False" data-weight="1.75" stroke-width="7" fill="none" stroke="#90ea66" />
<path d="M1228.125,1100.625 L1228.125,1130.625" close="False" data-weight="1.75" stroke-width="7" fill="none" stroke="#90ea66" />
<path d="M1228.125,1025.625 L1228.125,1055.625" close="False" data-weight="1.75" stroke-width="7" fill="none" stroke="#90ea66" />
<path d="M1219.125,948.7465906273013 L1219.125,982.5034093726987" close="False" data-weight="1.75" stroke-width="7" fill="none" stroke="#90ea66" />
<path d="M1165.5314767527655,1584.3545622165555 L1209.3545622165555,1540.5314767527655" close="False" data-weight="2.060660171779821" stroke-width="7" fill="none" stroke="#90ea66" />
<path d="M1082.625,1775.1704076850485 L1082.625,1806.0795923149515" close="False" data-weight="1.75" stroke-width="7" fill="none" stroke="#90ea66" />
<path d="M1082.625,1700.1704076850485 L1082.625,1731.0795923149515" close="False" data-weight="1.75" stroke-width="7" fill="none" stroke="#90ea66" />
<path d="M1090.5314767527952,1659.3545622165257 L1134.3545622165555,1615.5314767527655" close="False" data-weight="2.060660171779821" stroke-width="7" fill="none" stroke="#90ea66" />
<path d="M1015.5314767528102,1884.3545622165107 L1059.3545622165109,1840.53147675281" close="False" data-weight="2.060660171779821" stroke-width="7" fill="none" stroke="#90ea66" />
<path d="M1019.0349025766973,237.21509742330267 L1062.2150974233027,194.0349025766973" close="False" data-weight="2.060660171779821" stroke-width="7" fill="none" stroke="#90ea66" />
<path d="M940.5314767528104,1959.3545622165107 L984.354562216511,1915.53147675281" close="False" data-weight="2.060660171779821" stroke-width="7" fill="none" stroke="#90ea66" />
<path d="M944.0349025766973,312.21509742330267 L987.2150974233027,269.03490257669733" close="False" data-weight="2.060660171779821" stroke-width="7" fill="none" stroke="#90ea66" />
<path d="M865.5314767528104,2034.3545622165107 L909.354562216511,1990.53147675281" close="False" data-weight="2.060660171779821" stroke-width="7" fill="none" stroke="#90ea66" />
<path d="M869.0349025766973,387.21509742330267 L912.2150974233027,344.03490257669733" close="False" data-weight="2.060660171779821" stroke-width="7" fill="none" stroke="#90ea66" />
<path d="M790.5314767528104,2109.3545622165107 L834.3545622165409,2065.5314767527802" close="False" data-weight="2.060660171779821" stroke-width="7" fill="none" stroke="#90ea66" />
<path d="M778.125,725.625 L778.125,755.625" close="False" data-weight="1.75" stroke-width="7" fill="none" stroke="#90ea66" />
<path d="M778.125,650.625 L778.125,680.625" close="False" data-weight="1.75" stroke-width="7" fill="none" stroke="#90ea66" />
<path d="M778.125,575.625 L778.125,605.625" close="False" data-weight="1.75" stroke-width="7" fill="none" stroke="#90ea66" />
<path d="M778.125,500.625 L778.125,530.625" close="False" data-weight="1.75" stroke-width="7" fill="none" stroke="#90ea66" />
<path d="M794.0349025766973,462.21509742330267 L837.2150974233027,419.03490257669733" close="False" data-weight="2.060660171779821" stroke-width="7" fill="none" stroke="#90ea66" />
<path d="M719.0349025766973,2069.0349025766973 L762.2150974233027,2112.2150974233027" close="False" data-weight="2.060660171779821" stroke-width="7" fill="none" stroke="#90ea66" />
<path d="M725.1704076850486,773.625 L756.0795923149514,773.625" close="False" data-weight="1.75" stroke-width="7" fill="none" stroke="#90ea66" />
<path d="M640.5314767527805,1996.8954377834593 L684.3545622165409,2040.7185232472198" close="False" data-weight="2.060660171779821" stroke-width="7" fill="none" stroke="#90ea66" />
<path d="M640.531476752788,834.3545622165332 L684.3545622165407,790.5314767527805" close="False" data-weight="2.060660171779821" stroke-width="7" fill="none" stroke="#90ea66" />
<path d="M565.5314767527655,1921.8954377834445 L609.3545622165558,1965.7185232472348" close="False" data-weight="2.060660171779821" stroke-width="7" fill="none" stroke="#90ea66" />
<path d="M565.5314767527805,909.3545622165407 L609.3545622165407,865.5314767527805" close="False" data-weight="2.060660171779821" stroke-width="7" fill="none" stroke="#90ea66" />
<path d="M494.03490257669733,1844.0349025766973 L537.2150974233027,1887.2150974233027" close="False" data-weight="2.060660171779821" stroke-width="7" fill="none" stroke="#90ea66" />
<path d="M496.8954377834631,865.5314767527842 L540.7185232472123,909.3545622165333" close="False" data-weight="2.060660171779821" stroke-width="7" fill="none" stroke="#90ea66" />
<path d="M419.03490257669733,1769.0349025766973 L462.21509742330267,1812.2150974233027" close="False" data-weight="2.060660171779821" stroke-width="7" fill="none" stroke="#90ea66" />
<path d="M425.1704076850486,848.625 L456.0795923149514,848.625" close="False" data-weight="1.75" stroke-width="7" fill="none" stroke="#90ea66" />
<path d="M407.625,800.1704076850486 L407.625,831.0795923149514" close="False" data-weight="1.75" stroke-width="7" fill="none" stroke="#90ea66" />
<path d="M421.8954377834631,765.7185232472158 L465.7185232472197,721.8954377834592" close="False" data-weight="2.060660171779821" stroke-width="7" fill="none" stroke="#90ea66" />
<path d="M425.625,703.125 L455.625,703.125" close="False" data-weight="1.75" stroke-width="7" fill="none" stroke="#90ea66" />
<path d="M344.03490257669733,1694.0349025766973 L387.21509742330267,1737.2150974233027" close="False" data-weight="2.060660171779821" stroke-width="7" fill="none" stroke="#90ea66" />
<path d="M328.125,1625.625 L328.125,1655.625" close="False" data-weight="1.75" stroke-width="7" fill="none" stroke="#90ea66" />
<path d="M344.03490257669733,762.2150974233027 L387.21509742330267,719.0349025766973" close="False" data-weight="2.060660171779821" stroke-width="7" fill="none" stroke="#90ea66" />
<path d="M269.03490257669733,1544.0349025766973 L312.21509742330267,1587.2150974233027" close="False" data-weight="2.060660171779821" stroke-width="7" fill="none" stroke="#90ea66" />
<path d="M269.03490257669733,837.2150974233027 L312.21509742330267,794.0349025766973" close="False" data-weight="2.060660171779821" stroke-width="7" fill="none" stroke="#90ea66" />
<path d="M194.03490257669733,1469.0349025766973 L237.2150974233027,1512.2150974233027" close="False" data-weight="2.060660171779821" stroke-width="7" fill="none" stroke="#90ea66" />
<path d="M178.125,1400.625 L178.125,1430.625" close="False" data-weight="1.75" stroke-width="7" fill="none" stroke="#90ea66" />
<path d="M178.125,1325.625 L178.125,1355.625" close="False" data-weight="1.75" stroke-width="7" fill="none" stroke="#90ea66" />
<path d="M178.125,1250.625 L178.125,1280.625" close="False" data-weight="1.75" stroke-width="7" fill="none" stroke="#90ea66" />
<path d="M178.125,1175.625 L178.125,1205.625" close="False" data-weight="1.75" stroke-width="7" fill="none" stroke="#90ea66" />
<path d="M178.125,1100.625 L178.125,1130.625" close="False" data-weight="1.75" stroke-width="7" fill="none" stroke="#90ea66" />
<path d="M178.125,1025.625 L178.125,1055.625" close="False" data-weight="1.75" stroke-width="7" fill="none" stroke="#90ea66" />
<path d="M178.125,950.625 L178.125,980.625" close="False" data-weight="1.75" stroke-width="7" fill="none" stroke="#90ea66" />
<path d="M194.03490257669733,912.2150974233027 L237.2150974233027,869.0349025766973" close="False" data-weight="2.060660171779821" stroke-width="7" fill="none" stroke="#90ea66" />
<path d="M2123.625,1731.0795923149515 C2123.625,1742.1022961574758,2123.625,1764.1477038425242,2123.625,1775.1704076850485" close="False" data-weight="0.0" stroke-width="7" fill="none" stroke="#35618f" />
<path d="M2069.0349025766973,1737.2150974233027 C2061.0799512883486,1745.1700487116514,2045.1700487116514,1761.0799512883486,2037.2150974233027,1769.0349025766973" close="False" data-weight="0.0" stroke-width="7" fill="none" stroke="#35618f" />
<path d="M1978.125,2105.625 C1978.125,2116.875,1978.125,2139.375,1978.125,2150.625" close="False" data-weight="0.0" stroke-width="7" fill="none" stroke="#35618f" />
<path d="M1978.125,2030.625 C1978.125,2041.875,1978.125,2064.375,1978.125,2075.625" close="False" data-weight="0.0" stroke-width="7" fill="none" stroke="#35618f" />
<path d="M1978.125,1955.625 C1978.125,1966.875,1978.125,1989.375,1978.125,2000.625" close="False" data-weight="0.0" stroke-width="7" fill="none" stroke="#35618f" />
<path d="M1978.125,1880.625 C1978.125,1891.875,1978.125,1914.375,1978.125,1925.625" close="False" data-weight="0.0" stroke-width="7" fill="none" stroke="#35618f" />
<path d="M1994.0349025766973,1812.2150974233027 A54.3198051533949,54.3198051533949,0,0,0,1982.2598489621723,1829.837710518496 M1982.2598489621723,1829.837710518496 A54.3198051533941,54.3198051533941,0,0,0,1978.125,1850.625 M1978.125,1850.625" close="False" data-weight="1.0" stroke-width="7" fill="none" stroke="#35618f" />
<path d="M1850.625,2278.125 C1839.375,2278.125,1816.875,2278.125,1805.625,2278.125" close="False" data-weight="0.0" stroke-width="7" fill="none" stroke="#35618f" />
<path d="M1775.625,2278.125 C1764.375,2278.125,1741.875,2278.125,1730.625,2278.125" close="False" data-weight="0.0" stroke-width="7" fill="none" stroke="#35618f" />
<path d="M1700.625,2278.125 A54.31980515339728,54.31980515339728,0,0,0,1679.837710518496,2282.2598489621723 M1679.837710518496,2282.2598489621723 A54.319805153387826,54.319805153387826,0,0,0,1662.2150974233027,2294.0349025766973 M1662.2150974233027,2294.0349025766973" close="False" data-weight="1.0" stroke-width="7" fill="none" stroke="#35618f" />
<path d="M1619.0349025766973,2337.2150974233027 C1611.0799512883486,2345.1700487116514,1595.1700487116514,2361.0799512883486,1587.2150974233027,2369.0349025766973" close="False" data-weight="0.0" stroke-width="7" fill="none" stroke="#35618f" />
<path d="M1475.1704076850485,2423.625 A48.7223222212333,48.7223222212333,0,0,1,1456.5251821845916,2419.9162340553685 M1456.5251821845916,2419.9162340553685 A48.72232222144525,48.72232222144525,0,0,1,1440.7185232471898,2409.3545622165107 M1440.7185232471898,2409.3545622165107" close="False" data-weight="1.0" stroke-width="7" fill="none" stroke="#35618f" />
<path d="M1396.8954377834593,2365.5314767527802 C1389.1012091493994,2357.7372481187203,1373.5127518812797,2342.1487908506006,1365.7185232472198,2334.3545622165407" close="False" data-weight="0.0" stroke-width="7" fill="none" stroke="#35618f" />
<path d="M1303.125,2180.625 C1303.125,2191.875,1303.125,2214.375,1303.125,2225.625" close="False" data-weight="0.0" stroke-width="7" fill="none" stroke="#35618f" />
<path d="M1303.125,2105.625 C1303.125,2116.875,1303.125,2139.375,1303.125,2150.625" close="False" data-weight="0.0" stroke-width="7" fill="none" stroke="#35618f" />
<path d="M1303.125,2030.625 C1303.125,2041.875,1303.125,2064.375,1303.125,2075.625" close="False" data-weight="0.0" stroke-width="7" fill="none" stroke="#35618f" />
<path d="M1303.125,1955.625 C1303.125,1966.875,1303.125,1989.375,1303.125,2000.625" close="False" data-weight="0.0" stroke-width="7" fill="none" stroke="#35618f" />
<path d="M1319.0349025766973,1887.2150974233027 A54.3198051533949,54.3198051533949,0,0,0,1307.2598489621723,1904.837710518496 M1307.2598489621723,1904.837710518496 A54.3198051533941,54.3198051533941,0,0,0,1303.125,1925.625 M1303.125,1925.625" close="False" data-weight="1.0" stroke-width="7" fill="none" stroke="#35618f" />
<path d="M1325.1704076850485,1832.625 C1314.1477038425242,1832.625,1292.1022961574758,1832.625,1281.0795923149515,1832.625" close="False" data-weight="0.0" stroke-width="7" fill="none" stroke="#35618f" />
<path d="M1250.1704076850485,1832.625 C1238.977375963741,1832.625,1216.8180317213075,1828.125,1205.625,1828.125" close="False" data-weight="0.0" stroke-width="7" fill="none" stroke="#35618f" />
<path d="M1175.625,1828.125 C1164.375,1828.125,1141.875,1828.125,1130.625,1828.125" close="False" data-weight="0.0" stroke-width="7" fill="none" stroke="#35618f" />
<path d="M1100.625,1828.125 A34.2804342555055,34.2804342555055,0,0,0,1081.6562233268185,1833.8513857812698 M1081.6562233268185,1833.8513857812698 A103.64933488247922,103.64933488247922,0,0,0,1065.7185232472495,1846.8954377834295 M1065.7185232472495,1846.8954377834295" close="False" data-weight="1.0" stroke-width="7" fill="none" stroke="#35618f" />
<path d="M1021.8954377834295,1890.7185232472495 C1014.1012091493845,1898.5127518812947,998.5127518812944,1914.1012091493844,990.7185232472494,1921.8954377834295" close="False" data-weight="0.0" stroke-width="7" fill="none" stroke="#35618f" />
<path d="M946.8954377834293,1965.7185232472498 C939.1012091493844,1973.5127518812947,923.5127518812944,1989.1012091493847,915.7185232472494,1996.8954377834295" close="False" data-weight="0.0" stroke-width="7" fill="none" stroke="#35618f" />
<path d="M871.8954377834293,2040.7185232472498 C864.1012091493769,2048.5127518813024,848.5127518812719,2064.1012091494067,840.7185232472195,2071.8954377834593" close="False" data-weight="0.0" stroke-width="7" fill="none" stroke="#35618f" />
<path d="M2123.625,1775.1704076850485 L2123.625,1806.0795923149515" close="False" data-weight="1.75" stroke-width="7" fill="none" stroke="#35618f" />
<path d="M2123.625,1700.1704076850485 L2123.625,1731.0795923149515" close="False" data-weight="1.75" stroke-width="7" fill="none" stroke="#35618f" />
<path d="M2069.0349025766973,1737.2150974233027 L2112.2150974233027,1694.0349025766973" close="False" data-weight="2.060660171779821" stroke-width="7" fill="none" stroke="#35618f" />
<path d="M1978.125,2150.625 L1978.125,2180.625" close="False" data-weight="1.75" stroke-width="7" fill="none" stroke="#35618f" />
<path d="M1978.125,2075.625 L1978.125,2105.625" close="False" data-weight="1.75" stroke-width="7" fill="none" stroke="#35618f" />
<path d="M1978.125,2000.625 L1978.125,2030.625" close="False" data-weight="1.75" stroke-width="7" fill="none" stroke="#35618f" />
<path d="M1978.125,1925.625 L1978.125,1955.625" close="False" data-weight="1.75" stroke-width="7" fill="none" stroke="#35618f" />
<path d="M1978.125,1850.625 L1978.125,1880.625" close="False" data-weight="1.75" stroke-width="7" fill="none" stroke="#35618f" />
<path d="M1994.0349025766973,1812.2150974233027 L2037.2150974233027,1769.0349025766973" close="False" data-weight="2.060660171779821" stroke-width="7" fill="none" stroke="#35618f" />
<path d="M1919.0349025766973,2262.2150974233027 L1962.2150974233027,2219.0349025766973" close="False" data-weight="2.060660171779821" stroke-width="7" fill="none" stroke="#35618f" />
<path d="M1850.625,2278.125 L1880.625,2278.125" close="False" data-weight="1.75" stroke-width="7" fill="none" stroke="#35618f" />
<path d="M1775.625,2278.125 L1805.625,2278.125" close="False" data-weight="1.75" stroke-width="7" fill="none" stroke="#35618f" />
<path d="M1700.625,2278.125 L1730.625,2278.125" close="False" data-weight="1.75" stroke-width="7" fill="none" stroke="#35618f" />
<path d="M1619.0349025766973,2337.2150974233027 L1662.2150974233027,2294.0349025766973" close="False" data-weight="2.060660171779821" stroke-width="7" fill="none" stroke="#35618f" />
<path d="M1544.0349025766973,2412.2150974233027 L1587.2150974233027,2369.0349025766973" close="False" data-weight="2.060660171779821" stroke-width="7" fill="none" stroke="#35618f" />
<path d="M1475.1704076850485,2423.625 L1506.0795923149515,2423.625" close="False" data-weight="1.75" stroke-width="7" fill="none" stroke="#35618f" />
<path d="M1396.8954377834593,2365.5314767527802 L1440.7185232471898,2409.3545622165107" close="False" data-weight="2.060660171779821" stroke-width="7" fill="none" stroke="#35618f" />
<path d="M1321.8954377834893,2290.5314767528102 L1365.7185232472198,2334.3545622165407" close="False" data-weight="2.060660171779821" stroke-width="7" fill="none" stroke="#35618f" />
<path d="M1303.125,2225.625 L1303.125,2255.625" close="False" data-weight="1.75" stroke-width="7" fill="none" stroke="#35618f" />
<path d="M1303.125,2150.625 L1303.125,2180.625" close="False" data-weight="1.75" stroke-width="7" fill="none" stroke="#35618f" />
<path d="M1303.125,2075.625 L1303.125,2105.625" close="False" data-weight="1.75" stroke-width="7" fill="none" stroke="#35618f" />
<path d="M1303.125,2000.625 L1303.125,2030.625" close="False" data-weight="1.75" stroke-width="7" fill="none" stroke="#35618f" />
<path d="M1303.125,1925.625 L1303.125,1955.625" close="False" data-weight="1.75" stroke-width="7" fill="none" stroke="#35618f" />
<path d="M1319.0349025766973,1887.2150974233027 L1362.2150974233027,1844.0349025766973" close="False" data-weight="2.060660171779821" stroke-width="7" fill="none" stroke="#35618f" />
<path d="M1325.1704076850485,1832.625 L1356.0795923149515,1832.625" close="False" data-weight="1.75" stroke-width="7" fill="none" stroke="#35618f" />
<path d="M1250.1704076850485,1832.625 L1281.0795923149515,1832.625" close="False" data-weight="1.75" stroke-width="7" fill="none" stroke="#35618f" />
<path d="M1175.625,1828.125 L1205.625,1828.125" close="False" data-weight="1.75" stroke-width="7" fill="none" stroke="#35618f" />
<path d="M1100.625,1828.125 L1130.625,1828.125" close="False" data-weight="1.75" stroke-width="7" fill="none" stroke="#35618f" />
<path d="M1021.8954377834294,1890.7185232472495 L1065.7185232472493,1846.8954377834298" close="False" data-weight="2.060660171779821" stroke-width="7" fill="none" stroke="#35618f" />
<path d="M946.8954377834294,1965.7185232472495 L990.7185232472492,1921.8954377834298" close="False" data-weight="2.060660171779821" stroke-width="7" fill="none" stroke="#35618f" />
<path d="M871.8954377834593,2040.7185232472195 L915.7185232472492,1996.8954377834298" close="False" data-weight="2.060660171779821" stroke-width="7" fill="none" stroke="#35618f" />
<path d="M796.8954377834294,2115.7185232472493 L840.7185232472193,2071.89543778346" close="False" data-weight="2.060660171779821" stroke-width="7" fill="none" stroke="#35618f" />
<image x="2395.625" y="595.625" width="65" height="65" xlink:href="designspace-test/./img/ds_dataset1_40_21_thumb.png" data-node="True" data-id="21" />
<image x="2320.625" y="970.625" width="65" height="65" xlink:href="designspace-test/./img/ds_dataset1_40_17_thumb.png" data-node="True" data-id="17" />
<image x="2245.625" y="1270.625" width="65" height="65" xlink:href="designspace-test/./img/ds_dataset1_40_37_thumb.png" data-node="True" data-id="37" />
<image x="2245.625" y="895.625" width="65" height="65" xlink:href="designspace-test/./img/ds_dataset1_40_31_thumb.png" data-node="True" data-id="31" />
<image x="2170.625" y="970.625" width="65" height="65" xlink:href="designspace-test/./img/ds_dataset1_40_13_thumb.png" data-node="True" data-id="13" />
<image x="2170.625" y="820.625" width="65" height="65" xlink:href="designspace-test/./img/ds_dataset1_40_30_thumb.png" data-node="True" data-id="30" />
<image x="2170.625" y="670.625" width="65" height="65" xlink:href="designspace-test/./img/ds_dataset1_40_33_thumb.png" data-node="True" data-id="33" />
<image x="2095.625" y="1795.625" width="65" height="65" xlink:href="designspace-test/./img/ds_dataset1_40_32_thumb.png" data-node="True" data-id="32" />
<image x="2095.625" y="1645.625" width="65" height="65" xlink:href="designspace-test/./img/ds_dataset1_40_19_thumb.png" data-node="True" data-id="19" />
<image x="2095.625" y="970.625" width="65" height="65" xlink:href="designspace-test/./img/ds_dataset1_40_24_thumb.png" data-node="True" data-id="24" />
<image x="1945.625" y="2170.625" width="65" height="65" xlink:href="designspace-test/./img/ds_dataset1_40_2_thumb.png" data-node="True" data-id="2" />
<image x="1945.625" y="895.625" width="65" height="65" xlink:href="designspace-test/./img/ds_dataset1_40_25_thumb.png" data-node="True" data-id="25" />
<image x="1945.625" y="745.625" width="65" height="65" xlink:href="designspace-test/./img/ds_dataset1_40_11_thumb.png" data-node="True" data-id="11" />
<image x="1870.625" y="2245.625" width="65" height="65" xlink:href="designspace-test/./img/ds_dataset1_40_12_thumb.png" data-node="True" data-id="12" />
<image x="1870.625" y="1045.625" width="65" height="65" xlink:href="designspace-test/./img/ds_dataset1_40_14_thumb.png" data-node="True" data-id="14" />
<image x="1870.625" y="745.625" width="65" height="65" xlink:href="designspace-test/./img/ds_dataset1_40_10_thumb.png" data-node="True" data-id="10" />
<image x="1795.625" y="670.625" width="65" height="65" xlink:href="designspace-test/./img/ds_dataset1_40_9_thumb.png" data-node="True" data-id="9" />
<image x="1720.625" y="670.625" width="65" height="65" xlink:href="designspace-test/./img/ds_dataset1_40_16_thumb.png" data-node="True" data-id="16" />
<image x="1570.625" y="1195.625" width="65" height="65" xlink:href="designspace-test/./img/ds_dataset1_40_39_thumb.png" data-node="True" data-id="39" />
<image x="1495.625" y="2395.625" width="65" height="65" xlink:href="designspace-test/./img/ds_dataset1_40_22_thumb.png" data-node="True" data-id="22" />
<image x="1495.625" y="1270.625" width="65" height="65" xlink:href="designspace-test/./img/ds_dataset1_40_1_thumb.png" data-node="True" data-id="1" />
<image x="1420.625" y="295.625" width="65" height="65" xlink:href="designspace-test/./img/ds_dataset1_40_27_thumb.png" data-node="True" data-id="27" />
<image x="1345.625" y="1795.625" width="65" height="65" xlink:href="designspace-test/./img/ds_dataset1_40_4_thumb.png" data-node="True" data-id="4" />
<image x="1270.625" y="2245.625" width="65" height="65" xlink:href="designspace-test/./img/ds_dataset1_40_38_thumb.png" data-node="True" data-id="38" />
<image x="1270.625" y="1120.625" width="65" height="65" xlink:href="designspace-test/./img/ds_dataset1_40_36_thumb.png" data-node="True" data-id="36" />
<image x="1195.625" y="970.625" width="65" height="65" xlink:href="designspace-test/./img/ds_dataset1_40_29_thumb.png" data-node="True" data-id="29" />
<image x="1195.625" y="895.625" width="65" height="65" xlink:href="designspace-test/./img/ds_dataset1_40_3_thumb.png" data-node="True" data-id="3" />
<image x="1045.625" y="2170.625" width="65" height="65" xlink:href="designspace-test/./img/ds_dataset1_40_23_thumb.png" data-node="True" data-id="23" />
<image x="1045.625" y="1645.625" width="65" height="65" xlink:href="designspace-test/./img/ds_dataset1_40_28_thumb.png" data-node="True" data-id="28" />
<image x="1045.625" y="145.625" width="65" height="65" xlink:href="designspace-test/./img/ds_dataset1_40_0_thumb.png" data-node="True" data-id="0" />
<image x="970.625" y="1945.625" width="65" height="65" xlink:href="designspace-test/./img/ds_dataset1_40_35_thumb.png" data-node="True" data-id="35" />
<image x="745.625" y="2095.625" width="65" height="65" xlink:href="designspace-test/./img/ds_dataset1_40_18_thumb.png" data-node="True" data-id="18" />
<image x="745.625" y="745.625" width="65" height="65" xlink:href="designspace-test/./img/ds_dataset1_40_6_thumb.png" data-node="True" data-id="6" />
<image x="520.625" y="1870.625" width="65" height="65" xlink:href="designspace-test/./img/ds_dataset1_40_20_thumb.png" data-node="True" data-id="20" />
<image x="520.625" y="895.625" width="65" height="65" xlink:href="designspace-test/./img/ds_dataset1_40_8_thumb.png" data-node="True" data-id="8" />
<image x="445.625" y="670.625" width="65" height="65" xlink:href="designspace-test/./img/ds_dataset1_40_15_thumb.png" data-node="True" data-id="15" />
<image x="370.625" y="820.625" width="65" height="65" xlink:href="designspace-test/./img/ds_dataset1_40_26_thumb.png" data-node="True" data-id="26" />
<image x="295.625" y="1645.625" width="65" height="65" xlink:href="designspace-test/./img/ds_dataset1_40_34_thumb.png" data-node="True" data-id="34" />
<image x="145.625" y="1420.625" width="65" height="65" xlink:href="designspace-test/./img/ds_dataset1_40_5_thumb.png" data-node="True" data-id="5" />
<image x="145.625" y="1270.625" width="65" height="65" xlink:href="designspace-test/./img/ds_dataset1_40_7_thumb.png" data-node="True" data-id="7" />
</svg>