<?xml version="1.0" encoding="UTF-8"?>
<svg xmlns="http://www.w3.org/2000/svg" xmlns:xlink="http://www.w3.org/1999/xlink"
     viewBox="0 0 1350 1350" preserveAspectRatio="xMidYMid meet">
<defs>
</defs>
<path d="M553.125,605.625 A54.31980515339484,54.31980515339484,0,0,1,548.9901510378278,626.4122894815039 M548.9901510378278,626.4122894815039 A54.3198051533943,54.3198051533943,0,0,1,537.2150974233027,644.0349025766973 M537.2150974233027,644.0349025766973" close="False" data-weight="1.0" stroke-width="7" fill="none" stroke="#1fa562" />
<path d="M553.125,530.625 C553.125,541.875,553.125,564.375,553.125,575.625" close="False" data-weight="0.0" stroke-width="7" fill="none" stroke="#1fa562" />
<path d="M553.125,455.625 C553.125,466.875,553.125,489.375,553.125,500.625" close="False" data-weight="0.0" stroke-width="7" fill="none" stroke="#1fa562" />
<path d="M553.125,380.625 C553.125,391.875,553.125,414.375,553.125,425.625" close="False" data-weight="0.0" stroke-width="7" fill="none" stroke="#1fa562" />
<path d="M553.125,305.625 C553.125,316.875,553.125,339.375,553.125,350.625" close="False" data-weight="0.0" stroke-width="7" fill="none" stroke="#1fa562" />
<path d="M553.125,230.625 C553.125,241.875,553.125,264.375,553.125,275.625" close="False" data-weight="0.0" stroke-width="7" fill="none" stroke="#1fa562" />
<path d="M553.125,155.625 C553.125,166.875,553.125,189.375,553.125,200.625" close="False" data-weight="0.0" stroke-width="7" fill="none" stroke="#1fa562" />
<path d="M494.03490257669733,687.2150974233027 C486.0799512883487,695.1700487116514,470.1700487116513,711.0799512883486,462.21509742330267,719.0349025766973" close="False" data-weight="0.0" stroke-width="7" fill="none" stroke="#1fa562" />
<path d="M419.03490257669733,762.2150974233027 C411.0799512883487,770.1700487116514,395.1700487116513,786.0799512883486,387.21509742330267,794.0349025766973" close="False" data-weight="0.0" stroke-width="7" fill="none" stroke="#1fa562" />
<path d="M344.03490257669733,837.2150974233027 C336.0799512883487,845.1700487116514,320.1700487116513,861.0799512883486,312.21509742330267,869.0349025766973" close="False" data-weight="0.0" stroke-width="7" fill="none" stroke="#1fa562" />
<path d="M553.125,575.625 L553.125,605.625" close="False" data-weight="1.75" stroke-width="7" fill="none" stroke="#1fa562" />
<path d="M553.125,500.625 L553.125,530.625" close="False" data-weight="1.75" stroke-width="7" fill="none" stroke="#1fa562" />
<path d="M553.125,425.625 L553.125,455.625" close="False" data-weight="1.75" stroke-width="7" fill="none" stroke="#1fa562" />
<path d="M553.125,350.625 L553.125,380.625" close="False" data-weight="1.75" stroke-width="7" fill="none" stroke="#1fa562" />
<path d="M553.125,275.625 L553.125,305.625" close="False" data-weight="1.75" stroke-width="7" fill="none" stroke="#1fa562" />
<path d="M553.125,200.625 L553.125,230.625" close="False" data-weight="1.75" stroke-width="7" fill="none" stroke="#1fa562" />
<path d="M553.125,125.625 L553.125,155.625" close="False" data-weight="1.75" stroke-width="7" fill="none" stroke="#1fa562" />
<path d="M494.03490257669733,687.2150974233027 L537.2150974233027,644.0349025766973" close="False" data-weight="2.060660171779821" stroke-width="7" fill="none" stroke="#1fa562" />
<path d="M419.03490257669733,762.2150974233027 L462.21509742330267,719.0349025766973" close="False" data-weight="2.060660171779821" stroke-width="7" fill="none" stroke="#1fa562" />
<path d="M344.03490257669733,837.2150974233027 L387.21509742330267,794.0349025766973" close="False" data-weight="2.060660171779821" stroke-width="7" fill="none" stroke="#1fa562" />
<path d="M269.03490257669733,912.2150974233027 L312.21509742330267,869.0349025766973" close="False" data-weight="2.060660171779821" stroke-width="7" fill="none" stroke="#1fa562" />
<path d="M998.625,831.0795923149514 C998.625,842.1022961574756,998.625,864.1477038425244,998.625,875.1704076850486" close="False" data-weight="0.0" stroke-width="7" fill="none" stroke="#ff1c5d" />
<path d="M998.625,756.0795923149514 C998.625,767.1022961574756,998.625,789.1477038425244,998.625,800.1704076850486" close="False" data-weight="0.0" stroke-width="7" fill="none" stroke="#ff1c5d" />
<path d="M998.625,725.1704076850486 A48.72232222128889,48.72232222128889,0,0,0,994.9162340553798,706.5251821846081 M994.9162340553798,706.5251821846081 A48.72232222128802,48.72232222128802,0,0,0,984.3545622165407,690.7185232472195 M984.3545622165407,690.7185232472195" close="False" data-weight="1.0" stroke-width="7" fill="none" stroke="#ff1c5d" />
<path d="M940.5314767527805,984.3545622165407 C932.7372481187206,992.1487908506006,917.1487908506007,1007.7372481187206,909.3545622165407,1015.5314767527805" close="False" data-weight="0.0" stroke-width="7" fill="none" stroke="#ff1c5d" />
<path d="M950.1704076850486,932.625 C939.1477038425244,932.625,917.1022961574756,932.625,906.0795923149514,932.625" close="False" data-weight="0.0" stroke-width="7" fill="none" stroke="#ff1c5d" />
<path d="M865.5314767527805,1059.3545622165407 C857.7372481187206,1067.1487908506006,842.1487908506007,1082.7372481187206,834.3545622165407,1090.5314767527805" close="False" data-weight="0.0" stroke-width="7" fill="none" stroke="#ff1c5d" />
<path d="M875.1704076850486,932.625 A48.72232222128889,48.72232222128889,0,0,0,856.5251821846081,936.3337659446202 M856.5251821846081,936.3337659446202 A48.72232222128802,48.72232222128802,0,0,0,840.7185232472195,946.8954377834593 M840.7185232472195,946.8954377834593" close="False" data-weight="1.0" stroke-width="7" fill="none" stroke="#ff1c5d" />
<path d="M871.8954377834593,690.7185232472195 C864.1012091493994,698.5127518812794,848.5127518812794,714.1012091493994,840.7185232472195,721.8954377834593" close="False" data-weight="0.0" stroke-width="7" fill="none" stroke="#ff1c5d" />
<path d="M796.8954377834593,990.7185232472195 A57.722322221287925,57.722322221287925,0,0,1,778.1689687066777,1003.2311498479813 M778.1689687066777,1003.2311498479813 A57.722322221289005,57.722322221289005,0,0,1,756.0795923149514,1007.625 M756.0795923149514,1007.625" close="False" data-weight="1.0" stroke-width="7" fill="none" stroke="#ff1c5d" />
<path d="M782.625,831.0795923149514 C782.625,842.1022961574756,782.625,864.1477038425244,782.625,875.1704076850486" close="False" data-weight="0.0" stroke-width="7" fill="none" stroke="#ff1c5d" />
<path d="M796.8954377834668,765.718523247212 A48.722322221327566,48.722322221327566,0,0,0,786.333765944623,781.525182184604 M786.333765944623,781.525182184604 A48.72232222127502,48.72232222127502,0,0,0,782.625,800.1704076850486 M782.625,800.1704076850486" close="False" data-weight="1.0" stroke-width="7" fill="none" stroke="#ff1c5d" />
<path d="M725.1704076850486,1007.625 A57.72232222128764,57.72232222128764,0,0,1,703.0810312933223,1003.2311498479813 M703.0810312933223,1003.2311498479813 A57.72232222128921,57.72232222128921,0,0,1,684.3545622165407,990.7185232472195 M684.3545622165407,990.7185232472195" close="False" data-weight="1.0" stroke-width="7" fill="none" stroke="#ff1c5d" />
<path d="M640.5314767527805,946.8954377834593 A48.72232222128802,48.72232222128802,0,0,0,624.7248178153919,936.3337659446202 M624.7248178153919,936.3337659446202 A48.72232222128889,48.72232222128889,0,0,0,606.0795923149514,932.625 M606.0795923149514,932.625" close="False" data-weight="1.0" stroke-width="7" fill="none" stroke="#ff1c5d" />
<path d="M575.1704076850486,932.625 C564.1477038425244,932.625,542.1022961574756,932.625,531.0795923149514,932.625" close="False" data-weight="0.0" stroke-width="7" fill="none" stroke="#ff1c5d" />
<path d="M500.1704076850486,932.625 C489.14770384252427,932.625,467.10229615747573,932.625,456.0795923149514,932.625" close="False" data-weight="0.0" stroke-width="7" fill="none" stroke="#ff1c5d" />
<path d="M425.1704076850486,932.625 C414.14770384252427,932.625,392.10229615747573,932.625,381.0795923149514,932.625" close="False" data-weight="0.0" stroke-width="7" fill="none" stroke="#ff1c5d" />
<path d="M350.1704076850486,932.625 C339.14770384252427,932.625,317.10229615747573,932.625,306.0795923149514,932.625" close="False" data-weight="0.0" stroke-width="7" fill="none" stroke="#ff1c5d" />
<path d="M998.625,875.1704076850486 L998.625,906.0795923149514" close="False" data-weight="1.75" stroke-width="7" fill="none" stroke="#ff1c5d" />
<path d="M998.625,800.1704076850486 L998.625,831.0795923149514" close="False" data-weight="1.75" stroke-width="7" fill="none" stroke="#ff1c5d" />
<path d="M998.625,725.1704076850486 L998.625,756.0795923149514" close="False" data-weight="1.75" stroke-width="7" fill="none" stroke="#ff1c5d" />
<path d="M940.5314767527805,984.3545622165407 L984.3545622165407,940.5314767527805" close="False" data-weight="2.060660171779821" stroke-width="7" fill="none" stroke="#ff1c5d" />
<path d="M950.1704076850486,932.625 L981.0795923149514,932.625" close="False" data-weight="1.75" stroke-width="7" fill="none" stroke="#ff1c5d" />
<path d="M940.5314767527805,646.8954377834593 L984.3545622165407,690.7185232472195" close="False" data-weight="2.060660171779821" stroke-width="7" fill="none" stroke="#ff1c5d" />
<path d="M937.125,573.7465906273013 L937.125,607.5034093726987" close="False" data-weight="1.75" stroke-width="7" fill="none" stroke="#ff1c5d" />
<path d="M865.5314767527805,1059.3545622165407 L909.3545622165409,1015.5314767527802" close="False" data-weight="2.060660171779821" stroke-width="7" fill="none" stroke="#ff1c5d" />
<path d="M875.1704076850486,932.625 L906.0795923149514,932.625" close="False" data-weight="1.75" stroke-width="7" fill="none" stroke="#ff1c5d" />
<path d="M871.8954377834593,690.7185232472195 L915.7185232472195,646.8954377834593" close="False" data-weight="2.060660171779821" stroke-width="7" fill="none" stroke="#ff1c5d" />
<path d="M782.625,1175.1704076850485 L782.625,1206.0795923149515" close="False" data-weight="1.75" stroke-width="7" fill="none" stroke="#ff1c5d" />
<path d="M790.5314767527805,1134.3545622165407 L834.3545622165409,1090.5314767527802" close="False" data-weight="2.060660171779821" stroke-width="7" fill="none" stroke="#ff1c5d" />
<path d="M796.8954377834593,990.7185232472195 L840.7185232472195,946.8954377834593" close="False" data-weight="2.060660171779821" stroke-width="7" fill="none" stroke="#ff1c5d" />
<path d="M782.625,875.1704076850486 L782.625,906.0795923149514" close="False" data-weight="1.75" stroke-width="7" fill="none" stroke="#ff1c5d" />
<path d="M782.625,800.1704076850486 L782.625,831.0795923149514" close="False" data-weight="1.75" stroke-width="7" fill="none" stroke="#ff1c5d" />
<path d="M796.8954377834668,765.718523247212 L840.7185232472195,721.8954377834593" close="False" data-weight="2.060660171779821" stroke-width="7" fill="none" stroke="#ff1c5d" />
<path d="M698.625,1175.1704076850485 L698.625,1206.0795923149515" close="False" data-weight="1.75" stroke-width="7" fill="none" stroke="#ff1c5d" />
<path d="M725.1704076850486,1148.625 L756.0795923149514,1148.625" close="False" data-weight="1.75" stroke-width="7" fill="none" stroke="#ff1c5d" />
<path d="M725.1704076850486,1007.625 L756.0795923149514,1007.625" close="False" data-weight="1.75" stroke-width="7" fill="none" stroke="#ff1c5d" />
<path d="M644.0349025766973,1094.0349025766973 L687.2150974233027,1137.2150974233027" close="False" data-weight="2.060660171779821" stroke-width="7" fill="none" stroke="#ff1c5d" />
<path d="M640.5314767527805,946.8954377834593 L684.3545622165407,990.7185232472195" close="False" data-weight="2.060660171779821" stroke-width="7" fill="none" stroke="#ff1c5d" />
<path d="M575.625,1078.125 L605.625,1078.125" close="False" data-weight="1.75" stroke-width="7" fill="none" stroke="#ff1c5d" />
<path d="M553.125,1025.625 L553.125,1055.625" close="False" data-weight="1.75" stroke-width="7" fill="none" stroke="#ff1c5d" />
<path d="M575.1704076850486,932.625 L606.0795923149514,932.625" close="False" data-weight="1.75" stroke-width="7" fill="none" stroke="#ff1c5d" />
<path d="M500.1704076850486,932.625 L531.0795923149514,932.625" close="False" data-weight="1.75" stroke-width="7" fill="none" stroke="#ff1c5d" />
<path d="M425.1704076850486,932.625 L456.0795923149514,932.625" close="False" data-weight="1.75" stroke-width="7" fill="none" stroke="#ff1c5d" />
<path d="M350.1704076850486,932.625 L381.0795923149514,932.625" close="False" data-weight="1.75" stroke-width="7" fill="none" stroke="#ff1c5d" />
<path d="M275.1704076850486,932.625 L306.0795923149514,932.625" close="False" data-weight="1.75" stroke-width="7" fill="none" stroke="#ff1c5d" />
<path d="M1165.5314767527802,834.3545622165409 C1157.7372481187203,842.1487908506008,1142.1487908506006,857.7372481187206,1134.3545622165407,865.5314767527805" close="False" data-weight="0.0" stroke-width="7" fill="none" stroke="#7cd3eb" />
<path d="M1090.5314767527802,909.3545622165409 A48.72232222128625,48.72232222128625,0,0,1,1074.724817815392,919.9162340553802 M1074.724817815392,919.9162340553802 A48.722322221287754,48.722322221287754,0,0,1,1056.0795923149515,923.625 M1056.0795923149515,923.625" close="False" data-weight="1.0" stroke-width="7" fill="none" stroke="#7cd3eb" />
<path d="M1073.625,831.0795923149514 A48.72232222128946,48.72232222128946,0,0,1,1069.9162340553798,849.7248178153919 M1069.9162340553798,849.7248178153919 A48.722322221287456,48.722322221287456,0,0,1,1059.3545622165407,865.5314767527805 M1059.3545622165407,865.5314767527805" close="False" data-weight="1.0" stroke-width="7" fill="none" stroke="#7cd3eb" />
<path d="M1073.625,756.0795923149514 C1073.625,767.1022961574756,1073.625,789.1477038425244,1073.625,800.1704076850486" close="False" data-weight="0.0" stroke-width="7" fill="none" stroke="#7cd3eb" />
<path d="M1073.625,681.0795923149514 C1073.625,692.1022961574756,1073.625,714.1477038425244,1073.625,725.1704076850486" close="False" data-weight="0.0" stroke-width="7" fill="none" stroke="#7cd3eb" />
<path d="M1073.625,606.0795923149514 C1073.625,617.1022961574756,1073.625,639.1477038425244,1073.625,650.1704076850486" close="False" data-weight="0.0" stroke-width="7" fill="none" stroke="#7cd3eb" />
<path d="M1073.625,531.0795923149514 C1073.625,542.1022961574756,1073.625,564.1477038425244,1073.625,575.1704076850486" close="False" data-weight="0.0" stroke-width="7" fill="none" stroke="#7cd3eb" />
<path d="M1073.625,456.0795923149514 C1073.625,467.10229615747573,1073.625,489.14770384252427,1073.625,500.1704076850486" close="False" data-weight="0.0" stroke-width="7" fill="none" stroke="#7cd3eb" />
<path d="M1073.625,381.0795923149514 C1073.625,392.10229615747573,1073.625,414.14770384252427,1073.625,425.1704076850486" close="False" data-weight="0.0" stroke-width="7" fill="none" stroke="#7cd3eb" />
<path d="M1073.625,306.0795923149514 C1073.625,317.10229615747573,1073.625,339.14770384252427,1073.625,350.1704076850486" close="False" data-weight="0.0" stroke-width="7" fill="none" stroke="#7cd3eb" />
<path d="M1073.625,231.07959231495138 C1073.625,242.10229615747568,1073.625,264.14770384252427,1073.625,275.1704076850486" close="False" data-weight="0.0" stroke-width="7" fill="none" stroke="#7cd3eb" />
<path d="M1073.625,156.07959231495138 C1073.625,167.10229615747568,1073.625,189.14770384252432,1073.625,200.17040768504862" close="False" data-weight="0.0" stroke-width="7" fill="none" stroke="#7cd3eb" />
<path d="M1007.625,831.0795923149514 C1007.625,842.1022961574756,1007.625,864.1477038425244,1007.625,875.1704076850486" close="False" data-weight="0.0" stroke-width="7" fill="none" stroke="#7cd3eb" />
<path d="M1007.625,756.0795923149514 C1007.625,767.1022961574756,1007.625,789.1477038425244,1007.625,800.1704076850486" close="False" data-weight="0.0" stroke-width="7" fill="none" stroke="#7cd3eb" />
<path d="M1007.625,725.1704076850486 A57.72232222128764,57.72232222128764,0,0,0,1003.2311498479813,703.0810312933223 M1003.2311498479813,703.0810312933223 A57.72232222128921,57.72232222128921,0,0,0,990.7185232472195,684.3545622165407 M990.7185232472195,684.3545622165407" close="False" data-weight="1.0" stroke-width="7" fill="none" stroke="#7cd3eb" />
<path d="M1025.625,103.125 C1014.375,103.125,991.875,103.125,980.625,103.125" close="False" data-weight="0.0" stroke-width="7" fill="none" stroke="#7cd3eb" />
<path d="M950.625,103.125 C939.375,103.125,916.875,103.125,905.625,103.125" close="False" data-weight="0.0" stroke-width="7" fill="none" stroke="#7cd3eb" />
<path d="M865.5314767527805,684.3545622165407 C857.7372481187206,692.1487908506006,842.1487908506006,707.7372481187206,834.3545622165407,715.5314767527805" close="False" data-weight="0.0" stroke-width="7" fill="none" stroke="#7cd3eb" />
<path d="M773.625,831.0795923149514 C773.625,842.1022961574756,773.625,864.1477038425244,773.625,875.1704076850486" close="False" data-weight="0.0" stroke-width="7" fill="none" stroke="#7cd3eb" />
<path d="M790.531476752773,759.3545622165482 A57.72232222124966,57.72232222124966,0,0,0,778.0188501520157,778.0810312933264 M778.0188501520157,778.0810312933264 A57.72232222130151,57.72232222130151,0,0,0,773.625,800.1704076850486 M773.625,800.1704076850486" close="False" data-weight="1.0" stroke-width="7" fill="none" stroke="#7cd3eb" />
<path d="M1165.5314767527805,834.3545622165407 L1209.3545622165404,790.5314767527807" close="False" data-weight="2.060660171779821" stroke-width="7" fill="none" stroke="#7cd3eb" />
<path d="M1090.5314767527805,909.3545622165407 L1134.3545622165404,865.5314767527807" close="False" data-weight="2.060660171779821" stroke-width="7" fill="none" stroke="#7cd3eb" />
<path d="M1073.625,800.1704076850486 L1073.625,831.0795923149514" close="False" data-weight="1.75" stroke-width="7" fill="none" stroke="#7cd3eb" />
<path d="M1073.625,725.1704076850486 L1073.625,756.0795923149514" close="False" data-weight="1.75" stroke-width="7" fill="none" stroke="#7cd3eb" />
<path d="M1073.625,650.1704076850486 L1073.625,681.0795923149514" close="False" data-weight="1.75" stroke-width="7" fill="none" stroke="#7cd3eb" />
<path d="M1073.625,575.1704076850486 L1073.625,606.0795923149514" close="False" data-weight="1.75" stroke-width="7" fill="none" stroke="#7cd3eb" />
<path d="M1073.625,500.1704076850486 L1073.625,531.0795923149514" close="False" data-weight="1.75" stroke-width="7" fill="none" stroke="#7cd3eb" />
<path d="M1073.625,425.1704076850486 L1073.625,456.0795923149514" close="False" data-weight="1.75" stroke-width="7" fill="none" stroke="#7cd3eb" />
<path d="M1073.625,350.1704076850486 L1073.625,381.0795923149514" close="False" data-weight="1.75" stroke-width="7" fill="none" stroke="#7cd3eb" />
<path d="M1073.625,275.1704076850486 L1073.625,306.0795923149514" close="False" data-weight="1.75" stroke-width="7" fill="none" stroke="#7cd3eb" />
<path d="M1073.625,200.17040768504862 L1073.625,231.07959231495138" close="False" data-weight="1.75" stroke-width="7" fill="none" stroke="#7cd3eb" />
<path d="M1073.625,125.1704076850486 L1073.625,156.07959231495138" close="False" data-weight="1.75" stroke-width="7" fill="none" stroke="#7cd3eb" />
<path d="M1025.1704076850485,923.625 L1056.0795923149515,923.625" close="False" data-weight="1.75" stroke-width="7" fill="none" stroke="#7cd3eb" />
<path d="M1015.5314767527805,909.3545622165407 L1059.3545622165407,865.5314767527805" close="False" data-weight="2.060660171779821" stroke-width="7" fill="none" stroke="#7cd3eb" />
<path d="M1007.625,875.1704076850486 L1007.625,906.0795923149514" close="False" data-weight="1.75" stroke-width="7" fill="none" stroke="#7cd3eb" />
<path d="M1007.625,800.1704076850486 L1007.625,831.0795923149514" close="False" data-weight="1.75" stroke-width="7" fill="none" stroke="#7cd3eb" />
<path d="M1007.625,725.1704076850486 L1007.625,756.0795923149514" close="False" data-weight="1.75" stroke-width="7" fill="none" stroke="#7cd3eb" />
<path d="M1025.625,103.125 L1055.625,103.125" close="False" data-weight="1.75" stroke-width="7" fill="none" stroke="#7cd3eb" />
<path d="M946.8954377834593,640.5314767527805 L990.7185232472195,684.3545622165407" close="False" data-weight="2.060660171779821" stroke-width="7" fill="none" stroke="#7cd3eb" />
<path d="M928.125,575.625 L928.125,605.625" close="False" data-weight="1.75" stroke-width="7" fill="none" stroke="#7cd3eb" />
<path d="M950.625,103.125 L980.625,103.125" close="False" data-weight="1.75" stroke-width="7" fill="none" stroke="#7cd3eb" />
<path d="M865.5314767527805,684.3545622165407 L909.3545622165407,640.5314767527805" close="False" data-weight="2.060660171779821" stroke-width="7" fill="none" stroke="#7cd3eb" />
<path d="M853.125,125.625 L853.125,155.625" close="False" data-weight="1.75" stroke-width="7" fill="none" stroke="#7cd3eb" />
<path d="M875.625,103.125 L905.625,103.125" close="False" data-weight="1.75" stroke-width="7" fill="none" stroke="#7cd3eb" />
<path d="M773.625,875.1704076850486 L773.625,906.0795923149514" close="False" data-weight="1.75" stroke-width="7" fill="none" stroke="#7cd3eb" />
<path d="M773.625,800.1704076850486 L773.625,831.0795923149514" close="False" data-weight="1.75" stroke-width="7" fill="none" stroke="#7cd3eb" />
<path d="M790.531476752773,759.3545622165482 L834.3545622165407,715.5314767527805" close="False" data-weight="2.060660171779821" stroke-width="7" fill="none" stroke="#7cd3eb" />
<path d="M800.625,103.125 L830.625,103.125" close="False" data-weight="1.75" stroke-width="7" fill="none" stroke="#7cd3eb" />
<path d="M1171.8954377834596,840.7185232472193 C1164.1012091493994,848.5127518812793,1148.5127518812794,864.1012091493993,1140.7185232472195,871.8954377834593" close="False" data-weight="0.0" stroke-width="7" fill="none" stroke="#8f0f12" />
<path d="M1096.8954377834596,915.7185232472193 A57.7223222212909,57.7223222212909,0,0,1,1078.1689687066778,928.2311498479813 M1078.1689687066778,928.2311498479813 A57.72232222128639,57.72232222128639,0,0,1,1056.0795923149515,932.625 M1056.0795923149515,932.625" close="False" data-weight="1.0" stroke-width="7" fill="none" stroke="#8f0f12" />
<path d="M946.8954377834593,990.7185232472195 C939.1012091493994,998.5127518812794,923.5127518812794,1014.1012091493993,915.7185232472195,1021.8954377834593" close="False" data-weight="0.0" stroke-width="7" fill="none" stroke="#8f0f12" />
<path d="M871.8954377834593,1065.7185232472195 C864.1012091493993,1073.5127518812794,848.5127518812794,1089.1012091493994,840.7185232472195,1096.8954377834593" close="False" data-weight="0.0" stroke-width="7" fill="none" stroke="#8f0f12" />
<path d="M1171.8954377834593,840.7185232472195 L1215.7185232472198,796.8954377834591" close="False" data-weight="2.060660171779821" stroke-width="7" fill="none" stroke="#8f0f12" />
<path d="M1096.8954377834593,915.7185232472195 L1140.7185232472198,871.8954377834591" close="False" data-weight="2.060660171779821" stroke-width="7" fill="none" stroke="#8f0f12" />
<path d="M1025.1704076850485,932.625 L1056.0795923149515,932.625" close="False" data-weight="1.75" stroke-width="7" fill="none" stroke="#8f0f12" />
<path d="M946.8954377834593,990.7185232472195 L990.7185232472195,946.8954377834593" close="False" data-weight="2.060660171779821" stroke-width="7" fill="none" stroke="#8f0f12" />
<path d="M871.8954377834593,1065.7185232472195 L915.7185232472193,1021.8954377834596" close="False" data-weight="2.060660171779821" stroke-width="7" fill="none" stroke="#8f0f12" />
<path d="M773.625,1175.1704076850485 L773.625,1206.0795923149515" close="False" data-weight="1.75" stroke-width="7" fill="none" stroke="#8f0f12" />
<path d="M796.8954377834593,1140.7185232472195 L840.7185232472193,1096.8954377834596" close="False" data-weight="2.060660171779821" stroke-width="7" fill="none" stroke="#8f0f12" />
<path d="M707.625,1175.1704076850485 L707.625,1206.0795923149515" close="False" data-weight="1.75" stroke-width="7" fill="none" stroke="#8f0f12" />
<path d="M725.1704076850486,1157.625 L756.0795923149514,1157.625" close="False" data-weight="1.75" stroke-width="7" fill="none" stroke="#8f0f12" />
<path d="M1082.625,831.0795923149514 A57.72232222128923,57.72232222128923,0,0,1,1078.2311498479814,853.1689687066778 M1078.2311498479814,853.1689687066778 A57.722322221289616,57.722322221289616,0,0,1,1065.7185232472195,871.8954377834593 M1065.7185232472195,871.8954377834593" close="False" data-weight="1.0" stroke-width="7" fill="none" stroke="#90ea66" />
<path d="M1082.625,756.0795923149514 C1082.625,767.1022961574756,1082.625,789.1477038425244,1082.625,800.1704076850486" close="False" data-weight="0.0" stroke-width="7" fill="none" stroke="#90ea66" />
<path d="M1082.625,681.0795923149514 C1082.625,692.1022961574756,1082.625,714.1477038425244,1082.625,725.1704076850486" close="False" data-weight="0.0" stroke-width="7" fill="none" stroke="#90ea66" />
<path d="M1082.625,606.0795923149514 C1082.625,617.1022961574756,1082.625,639.1477038425244,1082.625,650.1704076850486" close="False" data-weight="0.0" stroke-width="7" fill="none" stroke="#90ea66" />
<path d="M1082.625,531.0795923149514 C1082.625,542.1022961574756,1082.625,564.1477038425244,1082.625,575.1704076850486" close="False" data-weight="0.0" stroke-width="7" fill="none" stroke="#90ea66" />
<path d="M1082.625,456.0795923149514 C1082.625,467.10229615747573,1082.625,489.14770384252427,1082.625,500.1704076850486" close="False" data-weight="0.0" stroke-width="7" fill="none" stroke="#90ea66" />
<path d="M1082.625,381.0795923149514 C1082.625,392.10229615747573,1082.625,414.14770384252427,1082.625,425.1704076850486" close="False" data-weight="0.0" stroke-width="7" fill="none" stroke="#90ea66" />
<path d="M1082.625,306.0795923149514 C1082.625,317.10229615747573,1082.625,339.14770384252427,1082.625,350.1704076850486" close="False" data-weight="0.0" stroke-width="7" fill="none" stroke="#90ea66" />
<path d="M1082.625,231.07959231495138 C1082.625,242.10229615747568,1082.625,264.14770384252427,1082.625,275.1704076850486" close="False" data-weight="0.0" stroke-width="7" fill="none" stroke="#90ea66" />
<path d="M1082.625,156.07959231495138 C1082.625,167.10229615747568,1082.625,189.14770384252432,1082.625,200.17040768504862" close="False" data-weight="0.0" stroke-width="7" fill="none" stroke="#90ea66" />
<path d="M950.1704076850486,923.625 C939.1477038425244,923.625,917.1022961574756,923.625,906.0795923149514,923.625" close="False" data-weight="0.0" stroke-width="7" fill="none" stroke="#90ea66" />
<path d="M875.1704076850486,923.625 A57.72232222128764,57.72232222128764,0,0,0,853.0810312933223,928.0188501520187 M853.0810312933223,928.0188501520187 A57.72232222128921,57.72232222128921,0,0,0,834.3545622165407,940.5314767527805 M834.3545622165407,940.5314767527805" close="False" data-weight="1.0" stroke-width="7" fill="none" stroke="#90ea66" />
<path d="M790.5314767527805,984.3545622165407 A48.72232222128802,48.72232222128802,0,0,1,774.7248178153919,994.9162340553798 M774.7248178153919,994.9162340553798 A48.72232222128889,48.72232222128889,0,0,1,756.0795923149514,998.625 M756.0795923149514,998.625" close="False" data-weight="1.0" stroke-width="7" fill="none" stroke="#90ea66" />
<path d="M725.1704076850486,998.625 A48.72232222128889,48.72232222128889,0,0,1,706.5251821846081,994.9162340553798 M706.5251821846081,994.9162340553798 A48.72232222128802,48.72232222128802,0,0,1,690.7185232472195,984.3545622165407 M690.7185232472195,984.3545622165407" close="False" data-weight="1.0" stroke-width="7" fill="none" stroke="#90ea66" />
<path d="M646.8954377834593,940.5314767527805 A57.722322221287925,57.722322221287925,0,0,0,628.1689687066777,928.0188501520187 M628.1689687066777,928.0188501520187 A57.722322221289005,57.722322221289005,0,0,0,606.0795923149514,923.625 M606.0795923149514,923.625" close="False" data-weight="1.0" stroke-width="7" fill="none" stroke="#90ea66" />
<path d="M575.1704076850486,923.625 C564.1477038425244,923.625,542.1022961574756,923.625,531.0795923149514,923.625" close="False" data-weight="0.0" stroke-width="7" fill="none" stroke="#90ea66" />
<path d="M500.1704076850486,923.625 C489.14770384252427,923.625,467.10229615747573,923.625,456.0795923149514,923.625" close="False" data-weight="0.0" stroke-width="7" fill="none" stroke="#90ea66" />
<path d="M425.1704076850486,923.625 C414.14770384252427,923.625,392.10229615747573,923.625,381.0795923149514,923.625" close="False" data-weight="0.0" stroke-width="7" fill="none" stroke="#90ea66" />
<path d="M350.1704076850486,923.625 C339.14770384252427,923.625,317.10229615747573,923.625,306.0795923149514,923.625" close="False" data-weight="0.0" stroke-width="7" fill="none" stroke="#90ea66" />
<path d="M1082.625,800.1704076850486 L1082.625,831.0795923149514" close="False" data-weight="1.75" stroke-width="7" fill="none" stroke="#90ea66" />
<path d="M1082.625,725.1704076850486 L1082.625,756.0795923149514" close="False" data-weight="1.75" stroke-width="7" fill="none" stroke="#90ea66" />
<path d="M1082.625,650.1704076850486 L1082.625,681.0795923149514" close="False" data-weight="1.75" stroke-width="7" fill="none" stroke="#90ea66" />
<path d="M1082.625,575.1704076850486 L1082.625,606.0795923149514" close="False" data-weight="1.75" stroke-width="7" fill="none" stroke="#90ea66" />
<path d="M1082.625,500.1704076850486 L1082.625,531.0795923149514" close="False" data-weight="1.75" stroke-width="7" fill="none" stroke="#90ea66" />
<path d="M1082.625,425.1704076850486 L1082.625,456.0795923149514" close="False" data-weight="1.75" stroke-width="7" fill="none" stroke="#90ea66" />
<path d="M1082.625,350.1704076850486 L1082.625,381.0795923149514" close="False" data-weight="1.75" stroke-width="7" fill="none" stroke="#90ea66" />
<path d="M1082.625,275.1704076850486 L1082.625,306.0795923149514" close="False" data-weight="1.75" stroke-width="7" fill="none" stroke="#90ea66" />
<path d="M1082.625,200.17040768504862 L1082.625,231.07959231495138" close="False" data-weight="1.75" stroke-width="7" fill="none" stroke="#90ea66" />
<path d="M1082.625,125.1704076850486 L1082.625,156.07959231495138" close="False" data-weight="1.75" stroke-width="7" fill="none" stroke="#90ea66" />
<path d="M1021.8954377834593,915.7185232472195 L1065.7185232472195,871.8954377834593" close="False" data-weight="2.060660171779821" stroke-width="7" fill="none" stroke="#90ea66" />
<path d="M950.1704076850486,923.625 L981.0795923149514,923.625" close="False" data-weight="1.75" stroke-width="7" fill="none" stroke="#90ea66" />
<path d="M875.1704076850486,923.625 L906.0795923149514,923.625" close="False" data-weight="1.75" stroke-width="7" fill="none" stroke="#90ea66" />
<path d="M790.5314767527805,984.3545622165407 L834.3545622165407,940.5314767527805" close="False" data-weight="2.060660171779821" stroke-width="7" fill="none" stroke="#90ea66" />
<path d="M725.1704076850486,998.625 L756.0795923149514,998.625" close="False" data-weight="1.75" stroke-width="7" fill="none" stroke="#90ea66" />
<path d="M646.8954377834593,940.5314767527805 L690.7185232472195,984.3545622165407" close="False" data-weight="2.060660171779821" stroke-width="7" fill="none" stroke="#90ea66" />
<path d="M575.1704076850486,923.625 L606.0795923149514,923.625" close="False" data-weight="1.75" stroke-width="7" fill="none" stroke="#90ea66" />
<path d="M500.1704076850486,923.625 L531.0795923149514,923.625" close="False" data-weight="1.75" stroke-width="7" fill="none" stroke="#90ea66" />
<path d="M425.1704076850486,923.625 L456.0795923149514,923.625" close="False" data-weight="1.75" stroke-width="7" fill="none" stroke="#90ea66" />
<path d="M350.1704076850486,923.625 L381.0795923149514,923.625" close="False" data-weight="1.75" stroke-width="7" fill="none" stroke="#90ea66" />
<path d="M275.1704076850486,923.625 L306.0795923149514,923.625" close="False" data-weight="1.75" stroke-width="7" fill="none" stroke="#90ea66" />
<path d="M875.625,628.125 C864.375,628.125,841.875,628.125,830.625,628.125" close="False" data-weight="0.0" stroke-width="7" fill="none" stroke="#35618f" />
<path d="M800.625,628.125 C789.375,628.125,766.875,628.125,755.625,628.125" close="False" data-weight="0.0" stroke-width="7" fill="none" stroke="#35618f" />
<path d="M725.625,628.125 C714.375,628.125,691.875,628.125,680.625,628.125" close="False" data-weight="0.0" stroke-width="7" fill="none" stroke="#35618f" />
<path d="M650.625,628.125 C639.375,628.125,616.875,628.125,605.625,628.125" close="False" data-weight="0.0" stroke-width="7" fill="none" stroke="#35618f" />
<path d="M575.625,628.125 C564.375,628.125,541.875,628.125,530.625,628.125" close="False" data-weight="0.0" stroke-width="7" fill="none" stroke="#35618f" />
<path d="M500.625,628.125 C489.375,628.125,466.875,628.125,455.625,628.125" close="False" data-weight="0.0" stroke-width="7" fill="none" stroke="#35618f" />
<path d="M919.125,573.7465906273013 L919.125,607.5034093726987" close="False" data-weight="1.75" stroke-width="7" fill="none" stroke="#35618f" />
<path d="M875.625,628.125 L905.625,628.125" close="False" data-weight="1.75" stroke-width="7" fill="none" stroke="#35618f" />
<path d="M800.625,628.125 L830.625,628.125" close="False" data-weight="1.75" stroke-width="7" fill="none" stroke="#35618f" />
<path d="M725.625,628.125 L755.625,628.125" close="False" data-weight="1.75" stroke-width="7" fill="none" stroke="#35618f" />
<path d="M650.625,628.125 L680.625,628.125" close="False" data-weight="1.75" stroke-width="7" fill="none" stroke="#35618f" />
<path d="M575.625,628.125 L605.625,628.125" close="False" data-weight="1.75" stroke-width="7" fill="none" stroke="#35618f" />
<path d="M500.625,628.125 L530.625,628.125" close="False" data-weight="1.75" stroke-width="7" fill="none" stroke="#35618f" />
<path d="M425.625,628.125 L455.625,628.125" close="False" data-weight="1.75" stroke-width="7" fill="none" stroke="#35618f" />
<path d="M350.625,628.125 L380.625,628.125" close="False" data-weight="1.75" stroke-width="7" fill="none" stroke="#35618f" />
<image x="1195.625" y="745.625" width="65" height="65" xlink:href="designspace-test/./img/ds_dataset0_20_3_thumb.png" data-node="True" data-id="3" />
<image x="1045.625" y="70.625" width="65" height="65" xlink:href="designspace-test/./img/ds_dataset0_20_2_thumb.png" data-node="True" data-id="2" />
<image x="970.625" y="895.625" width="65" height="65" xlink:href="designspace-test/./img/ds_dataset0_20_19_thumb.png" data-node="True" data-id="19" />
<image x="895.625" y="595.625" width="65" height="65" xlink:href="designspace-test/./img/ds_dataset0_20_4_thumb.png" data-node="True" data-id="4" />
<image x="895.625" y="520.625" width="65" height="65" xlink:href="designspace-test/./img/ds_dataset0_20_15_thumb.png" data-node="True" data-id="15" />
<image x="820.625" y="145.625" width="65" height="65" xlink:href="designspace-test/./img/ds_dataset0_20_16_thumb.png" data-node="True" data-id="16" />
<image x="820.625" y="70.625" width="65" height="65" xlink:href="designspace-test/./img/ds_dataset0_20_11_thumb.png" data-node="True" data-id="11" />
<image x="745.625" y="1195.625" width="65" height="65" xlink:href="designspace-test/./img/ds_dataset0_20_8_thumb.png" data-node="True" data-id="8" />
<image x="745.625" y="1120.625" width="65" height="65" xlink:href="designspace-test/./img/ds_dataset0_20_14_thumb.png" data-node="True" data-id="14" />
<image x="745.625" y="895.625" width="65" height="65" xlink:href="designspace-test/./img/ds_dataset0_20_7_thumb.png" data-node="True" data-id="7" />
<image x="745.625" y="70.625" width="65" height="65" xlink:href="designspace-test/./img/ds_dataset0_20_13_thumb.png" data-node="True" data-id="13" />
<image x="670.625" y="1195.625" width="65" height="65" xlink:href="designspace-test/./img/ds_dataset0_20_12_thumb.png" data-node="True" data-id="12" />
<image x="670.625" y="1120.625" width="65" height="65" xlink:href="designspace-test/./img/ds_dataset0_20_0_thumb.png" data-node="True" data-id="0" />
<image x="595.625" y="1045.625" width="65" height="65" xlink:href="designspace-test/./img/ds_dataset0_20_10_thumb.png" data-node="True" data-id="10" />
<image x="520.625" y="1045.625" width="65" height="65" xlink:href="designspace-test/./img/ds_dataset0_20_17_thumb.png" data-node="True" data-id="17" />
<image x="520.625" y="970.625" width="65" height="65" xlink:href="designspace-test/./img/ds_dataset0_20_5_thumb.png" data-node="True" data-id="5" />
<image x="520.625" y="70.625" width="65" height="65" xlink:href="designspace-test/./img/ds_dataset0_20_6_thumb.png" data-node="True" data-id="6" />
<image x="370.625" y="595.625" width="65" height="65" xlink:href="designspace-test/./img/ds_dataset0_20_9_thumb.png" data-node="True" data-id="9" />
<image x="295.625" y="595.625" width="65" height="65" xlink:href="designspace-test/./img/ds_dataset0_20_1_thumb.png" data-node="True" data-id="1" />
<image x="220.625" y="895.625" width="65" height="65" xlink:href="designspace-test/./img/ds_dataset0_20_18_thumb.png" data-node="True" data-id="18" />
</svg>