<?xml version="1.0" encoding="UTF-8"?>
<svg xmlns="http://www.w3.org/2000/svg" xmlns:xlink="http://www.w3.org/1999/xlink"
     width="2550" height="2550" viewBox="0 0 2550 2550">
<defs>
</defs>
<path d="M2503.125,1505.625 A54.31980515339728,54.31980515339728,0,0,1,2498.9901510378277,1526.412289481504 M2498.9901510378277,1526.412289481504 A54.319805153387826,54.319805153387826,0,0,1,2487.2150974233027,1544.0349025766973 M2487.2150974233027,1544.0349025766973" close="False" data-weight="1.0" stroke-width="6" fill="none" stroke="#ffff33" />
<path d="M2503.125,1430.625 C2503.125,1441.875,2503.125,1464.375,2503.125,1475.625" close="False" data-weight="0.0" stroke-width="6" fill="none" stroke="#ffff33" />
<path d="M2503.125,1355.625 C2503.125,1366.875,2503.125,1389.375,2503.125,1400.625" close="False" data-weight="0.0" stroke-width="6" fill="none" stroke="#ffff33" />
<path d="M2503.125,1280.625 C2503.125,1291.875,2503.125,1314.375,2503.125,1325.625" close="False" data-weight="0.0" stroke-width="6" fill="none" stroke="#ffff33" />
<path d="M2503.125,1205.625 C2503.125,1216.875,2503.125,1239.375,2503.125,1250.625" close="False" data-weight="0.0" stroke-width="6" fill="none" stroke="#ffff33" />
<path d="M2503.125,1130.625 C2503.125,1141.875,2503.125,1164.375,2503.125,1175.625" close="False" data-weight="0.0" stroke-width="6" fill="none" stroke="#ffff33" />
<path d="M2503.125,1055.625 C2503.125,1066.875,2503.125,1089.375,2503.125,1100.625" close="False" data-weight="0.0" stroke-width="6" fill="none" stroke="#ffff33" />
<path d="M2503.125,980.625 C2503.125,991.875,2503.125,1014.375,2503.125,1025.625" close="False" data-weight="0.0" stroke-width="6" fill="none" stroke="#ffff33" />
<path d="M2503.125,950.625 A54.3198051533991,54.3198051533991,0,0,0,2498.990151037828,929.8377105184959 M2498.990151037828,929.8377105184959 A54.319805153386056,54.319805153386056,0,0,0,2487.2150974233027,912.2150974233027 M2487.2150974233027,912.2150974233027" close="False" data-weight="1.0" stroke-width="6" fill="none" stroke="#ffff33" />
<path d="M2375.625,853.125 A54.31980515339296,54.31980515339296,0,0,1,2354.8377105184964,848.9901510378278 M2354.8377105184964,848.9901510378278 A54.31980515340005,54.31980515340005,0,0,1,2337.2150974233027,837.2150974233027 M2337.2150974233027,837.2150974233027" close="False" data-weight="1.0" stroke-width="6" fill="none" stroke="#ffff33" />
<path d="M2294.0349025766973,794.0349025766973 C2286.0799512883486,786.0799512883486,2270.1700487116514,770.1700487116514,2262.2150974233027,762.2150974233027" close="False" data-weight="0.0" stroke-width="6" fill="none" stroke="#ffff33" />
<path d="M2219.0349025766973,719.0349025766973 C2211.0799512883486,711.0799512883486,2195.1700487116514,695.1700487116514,2187.2150974233027,687.2150974233027" close="False" data-weight="0.0" stroke-width="6" fill="none" stroke="#ffff33" />
<path d="M2128.125,605.625 A54.3198051533991,54.3198051533991,0,0,0,2132.259848962172,626.4122894815041 M2132.259848962172,626.4122894815041 A54.319805153386056,54.319805153386056,0,0,0,2144.0349025766973,644.0349025766973 M2144.0349025766973,644.0349025766973" close="False" data-weight="1.0" stroke-width="6" fill="none" stroke="#ffff33" />
<path d="M2069.0349025766973,494.03490257669733 C2061.0799512883486,486.0799512883487,2045.1700487116514,470.1700487116513,2037.2150974233027,462.21509742330267" close="False" data-weight="0.0" stroke-width="6" fill="none" stroke="#ffff33" />
<path d="M1994.0349025766973,419.03490257669733 C1986.0799512883486,411.0799512883487,1970.1700487116514,395.1700487116513,1962.2150974233027,387.21509742330267" close="False" data-weight="0.0" stroke-width="6" fill="none" stroke="#ffff33" />
<path d="M1919.0349025766973,344.03490257669733 C1911.0799512883486,336.0799512883487,1895.1700487116514,320.1700487116513,1887.2150974233027,312.21509742330267" close="False" data-weight="0.0" stroke-width="6" fill="none" stroke="#ffff33" />
<path d="M1844.0349025766973,269.03490257669733 C1836.0799512883486,261.0799512883487,1820.1700487116514,245.1700487116513,1812.2150974233027,237.21509742330267" close="False" data-weight="0.0" stroke-width="6" fill="none" stroke="#ffff33" />
<path d="M1769.0349025766973,194.0349025766973 A54.3198051533952,54.3198051533952,0,0,0,1751.412289481504,182.2598489621722 M1751.412289481504,182.2598489621722 A54.319805153393986,54.319805153393986,0,0,0,1730.625,178.125 M1730.625,178.125" close="False" data-weight="1.0" stroke-width="6" fill="none" stroke="#ffff33" />
<path d="M1700.625,178.125 C1689.375,178.125,1666.875,178.125,1655.625,178.125" close="False" data-weight="0.0" stroke-width="6" fill="none" stroke="#ffff33" />
<path d="M1544.0349025766973,119.0349025766973 A54.3198051533952,54.3198051533952,0,0,0,1526.412289481504,107.25984896217221 M1526.412289481504,107.25984896217221 A54.319805153393986,54.319805153393986,0,0,0,1505.625,103.125 M1505.625,103.125" close="False" data-weight="1.0" stroke-width="6" fill="none" stroke="#ffff33" />
<path d="M1475.625,103.125 C1464.375,103.125,1441.875,103.125,1430.625,103.125" close="False" data-weight="0.0" stroke-width="6" fill="none" stroke="#ffff33" />
<path d="M1400.625,103.125 C1389.375,103.125,1366.875,103.125,1355.625,103.125" close="False" data-weight="0.0" stroke-width="6" fill="none" stroke="#ffff33" />
<path d="M1325.625,103.125 C1314.375,103.125,1291.875,103.125,1280.625,103.125" close="False" data-weight="0.0" stroke-width="6" fill="none" stroke="#ffff33" />
<path d="M1250.625,103.125 C1239.375,103.125,1216.875,103.125,1205.625,103.125" close="False" data-weight="0.0" stroke-width="6" fill="none" stroke="#ffff33" />
<path d="M1175.625,103.125 C1164.4198908356868,103.125,1142.1885193388287,99.125,1130.9834101745155,99.125" close="False" data-weight="0.0" stroke-width="6" fill="none" stroke="#ffff33" />
<path d="M1100.2665898254845,99.125 C1089.1957949127423,99.125,1067.0542050872577,99.125,1055.9834101745155,99.125" close="False" data-weight="0.0" stroke-width="6" fill="none" stroke="#ffff33" />
<path d="M1025.2665898254845,99.125 C1014.1957949127423,99.125,992.0542050872577,99.125,980.9834101745155,99.125" close="False" data-weight="0.0" stroke-width="6" fill="none" stroke="#ffff33" />
<path d="M950.2665898254845,99.125 C939.1957949127423,99.125,917.0542050872577,99.125,905.9834101745155,99.125" close="False" data-weight="0.0" stroke-width="6" fill="none" stroke="#ffff33" />
<path d="M875.2665898254845,99.125 C864.1957949127423,99.125,842.0542050872577,99.125,830.9834101745155,99.125" close="False" data-weight="0.0" stroke-width="6" fill="none" stroke="#ffff33" />
<path d="M800.2665898254845,99.125 C789.1957949127423,99.125,767.0542050872577,99.125,755.9834101745155,99.125" close="False" data-weight="0.0" stroke-width="6" fill="none" stroke="#ffff33" />
<path d="M725.2665898254845,99.125 C714.1957949127423,99.125,692.0542050872577,99.125,680.9834101745155,99.125" close="False" data-weight="0.0" stroke-width="6" fill="none" stroke="#ffff33" />
<path d="M650.2665898254845,99.125 C639.1957949127423,99.125,617.0542050872577,99.125,605.9834101745155,99.125" close="False" data-weight="0.0" stroke-width="6" fill="none" stroke="#ffff33" />
<path d="M575.2665898254845,99.125 C564.1957949127423,99.125,542.0542050872577,99.125,530.9834101745155,99.125" close="False" data-weight="0.0" stroke-width="6" fill="none" stroke="#ffff33" />
<path d="M478.125,530.625 C478.125,541.8301091643132,474.125,564.0614806611713,474.125,575.2665898254845" close="False" data-weight="0.0" stroke-width="6" fill="none" stroke="#ffff33" />
<path d="M478.125,455.625 C478.125,466.875,478.125,489.375,478.125,500.625" close="False" data-weight="0.0" stroke-width="6" fill="none" stroke="#ffff33" />
<path d="M478.125,380.625 C478.125,391.875,478.125,414.375,478.125,425.625" close="False" data-weight="0.0" stroke-width="6" fill="none" stroke="#ffff33" />
<path d="M478.125,305.625 C478.125,316.875,478.125,339.375,478.125,350.625" close="False" data-weight="0.0" stroke-width="6" fill="none" stroke="#ffff33" />
<path d="M478.125,230.625 C478.125,241.875,478.125,264.375,478.125,275.625" close="False" data-weight="0.0" stroke-width="6" fill="none" stroke="#ffff33" />
<path d="M478.125,155.625 C478.125,166.875,478.125,189.375,478.125,200.625" close="False" data-weight="0.0" stroke-width="6" fill="none" stroke="#ffff33" />
<path d="M419.03490257669733,687.2150974233027 C411.0799512883487,695.1700487116514,395.1700487116513,711.0799512883486,387.21509742330267,719.0349025766973" close="False" data-weight="0.0" stroke-width="6" fill="none" stroke="#ffff33" />
<path d="M344.03490257669733,762.2150974233027 C336.0799512883487,770.1700487116514,320.1700487116513,786.0799512883486,312.21509742330267,794.0349025766973" close="False" data-weight="0.0" stroke-width="6" fill="none" stroke="#ffff33" />
<path d="M269.03490257669733,837.2150974233027 C261.0799512883487,845.1700487116514,245.1700487116513,861.0799512883486,237.21509742330267,869.0349025766973" close="False" data-weight="0.0" stroke-width="6" fill="none" stroke="#ffff33" />
<path d="M194.0349025766973,912.2150974233027 A35.85816626156046,35.85816626156046,0,0,1,176.53230144516326,921.8472461960372 M176.53230144516326,921.8472461960372 A93.8303986367464,93.8303986367464,0,0,1,155.98341017451548,924.125 M155.98341017451548,924.125" close="False" data-weight="1.0" stroke-width="6" fill="none" stroke="#ffff33" />
<path d="M2503.125,1475.625 L2503.125,1505.625" close="False" data-weight="1.75" stroke-width="6" fill="none" stroke="#ffff33" />
<path d="M2503.125,1400.625 L2503.125,1430.625" close="False" data-weight="1.75" stroke-width="6" fill="none" stroke="#ffff33" />
<path d="M2503.125,1325.625 L2503.125,1355.625" close="False" data-weight="1.75" stroke-width="6" fill="none" stroke="#ffff33" />
<path d="M2503.125,1250.625 L2503.125,1280.625" close="False" data-weight="1.75" stroke-width="6" fill="none" stroke="#ffff33" />
<path d="M2503.125,1175.625 L2503.125,1205.625" close="False" data-weight="1.75" stroke-width="6" fill="none" stroke="#ffff33" />
<path d="M2503.125,1100.625 L2503.125,1130.625" close="False" data-weight="1.75" stroke-width="6" fill="none" stroke="#ffff33" />
<path d="M2503.125,1025.625 L2503.125,1055.625" close="False" data-weight="1.75" stroke-width="6" fill="none" stroke="#ffff33" />
<path d="M2503.125,950.625 L2503.125,980.625" close="False" data-weight="1.75" stroke-width="6" fill="none" stroke="#ffff33" />
<path d="M2444.0349025766973,1587.2150974233027 L2487.2150974233027,1544.0349025766973" close="False" data-weight="2.060660171779821" stroke-width="6" fill="none" stroke="#ffff33" />
<path d="M2444.0349025766973,869.0349025766973 L2487.2150974233027,912.2150974233027" close="False" data-weight="2.060660171779821" stroke-width="6" fill="none" stroke="#ffff33" />
<path d="M2375.625,853.125 L2405.625,853.125" close="False" data-weight="1.75" stroke-width="6" fill="none" stroke="#ffff33" />
<path d="M2294.0349025766973,794.0349025766973 L2337.2150974233027,837.2150974233027" close="False" data-weight="2.060660171779821" stroke-width="6" fill="none" stroke="#ffff33" />
<path d="M2219.0349025766973,719.0349025766973 L2262.2150974233027,762.2150974233027" close="False" data-weight="2.060660171779821" stroke-width="6" fill="none" stroke="#ffff33" />
<path d="M2144.0349025766973,644.0349025766973 L2187.2150974233027,687.2150974233027" close="False" data-weight="2.060660171779821" stroke-width="6" fill="none" stroke="#ffff33" />
<path d="M2128.125,575.625 L2128.125,605.625" close="False" data-weight="1.75" stroke-width="6" fill="none" stroke="#ffff33" />
<path d="M2069.0349025766973,494.03490257669733 L2112.2150974233027,537.2150974233027" close="False" data-weight="2.060660171779821" stroke-width="6" fill="none" stroke="#ffff33" />
<path d="M1994.0349025766973,419.03490257669733 L2037.2150974233027,462.21509742330267" close="False" data-weight="2.060660171779821" stroke-width="6" fill="none" stroke="#ffff33" />
<path d="M1919.0349025766973,344.03490257669733 L1962.2150974233027,387.21509742330267" close="False" data-weight="2.060660171779821" stroke-width="6" fill="none" stroke="#ffff33" />
<path d="M1844.0349025766973,269.03490257669733 L1887.2150974233027,312.21509742330267" close="False" data-weight="2.060660171779821" stroke-width="6" fill="none" stroke="#ffff33" />
<path d="M1769.0349025766973,194.03490257669733 L1812.2150974233027,237.2150974233027" close="False" data-weight="2.060660171779821" stroke-width="6" fill="none" stroke="#ffff33" />
<path d="M1700.625,178.125 L1730.625,178.125" close="False" data-weight="1.75" stroke-width="6" fill="none" stroke="#ffff33" />
<path d="M1625.625,178.125 L1655.625,178.125" close="False" data-weight="1.75" stroke-width="6" fill="none" stroke="#ffff33" />
<path d="M1544.0349025766973,119.03490257669732 L1587.2150974233027,162.2150974233027" close="False" data-weight="2.060660171779821" stroke-width="6" fill="none" stroke="#ffff33" />
<path d="M1475.625,103.125 L1505.625,103.125" close="False" data-weight="1.75" stroke-width="6" fill="none" stroke="#ffff33" />
<path d="M1400.625,103.125 L1430.625,103.125" close="False" data-weight="1.75" stroke-width="6" fill="none" stroke="#ffff33" />
<path d="M1325.625,103.125 L1355.625,103.125" close="False" data-weight="1.75" stroke-width="6" fill="none" stroke="#ffff33" />
<path d="M1250.625,103.125 L1280.625,103.125" close="False" data-weight="1.75" stroke-width="6" fill="none" stroke="#ffff33" />
<path d="M1175.625,103.125 L1205.625,103.125" close="False" data-weight="1.75" stroke-width="6" fill="none" stroke="#ffff33" />
<path d="M1100.2665898254845,99.125 L1130.9834101745155,99.125" close="False" data-weight="1.75" stroke-width="6" fill="none" stroke="#ffff33" />
<path d="M1025.2665898254845,99.125 L1055.9834101745155,99.125" close="False" data-weight="1.75" stroke-width="6" fill="none" stroke="#ffff33" />
<path d="M950.2665898254845,99.125 L980.9834101745155,99.125" close="False" data-weight="1.75" stroke-width="6" fill="none" stroke="#ffff33" />
<path d="M875.2665898254845,99.125 L905.9834101745155,99.125" close="False" data-weight="1.75" stroke-width="6" fill="none" stroke="#ffff33" />
<path d="M800.2665898254845,99.125 L830.9834101745155,99.125" close="False" data-weight="1.75" stroke-width="6" fill="none" stroke="#ffff33" />
<path d="M725.2665898254845,99.125 L755.9834101745155,99.125" close="False" data-weight="1.75" stroke-width="6" fill="none" stroke="#ffff33" />
<path d="M650.2665898254845,99.125 L680.9834101745155,99.125" close="False" data-weight="1.75" stroke-width="6" fill="none" stroke="#ffff33" />
<path d="M575.2665898254845,99.125 L605.9834101745155,99.125" close="False" data-weight="1.75" stroke-width="6" fill="none" stroke="#ffff33" />
<path d="M474.125,575.2665898254845 L474.125,605.9834101745155" close="False" data-weight="1.75" stroke-width="6" fill="none" stroke="#ffff33" />
<path d="M478.125,500.625 L478.125,530.625" close="False" data-weight="1.75" stroke-width="6" fill="none" stroke="#ffff33" />
<path d="M478.125,425.625 L478.125,455.625" close="False" data-weight="1.75" stroke-width="6" fill="none" stroke="#ffff33" />
<path d="M478.125,350.625 L478.125,380.625" close="False" data-weight="1.75" stroke-width="6" fill="none" stroke="#ffff33" />
<path d="M478.125,275.625 L478.125,305.625" close="False" data-weight="1.75" stroke-width="6" fill="none" stroke="#ffff33" />
<path d="M478.125,200.625 L478.125,230.625" close="False" data-weight="1.75" stroke-width="6" fill="none" stroke="#ffff33" />
<path d="M478.125,125.625 L478.125,155.625" close="False" data-weight="1.75" stroke-width="6" fill="none" stroke="#ffff33" />
<path d="M500.2665898254845,99.125 L530.9834101745155,99.125" close="False" data-weight="1.75" stroke-width="6" fill="none" stroke="#ffff33" />
<path d="M419.03490257669733,687.2150974233027 L462.21509742330267,644.0349025766973" close="False" data-weight="2.060660171779821" stroke-width="6" fill="none" stroke="#ffff33" />
<path d="M344.03490257669733,762.2150974233027 L387.21509742330267,719.0349025766973" close="False" data-weight="2.060660171779821" stroke-width="6" fill="none" stroke="#ffff33" />
<path d="M269.03490257669733,837.2150974233027 L312.21509742330267,794.0349025766973" close="False" data-weight="2.060660171779821" stroke-width="6" fill="none" stroke="#ffff33" />
<path d="M194.03490257669733,912.2150974233027 L237.2150974233027,869.0349025766973" close="False" data-weight="2.060660171779821" stroke-width="6" fill="none" stroke="#ffff33" />
<path d="M99.125,950.2665898254845 L99.125,980.9834101745155" close="False" data-weight="1.75" stroke-width="6" fill="none" stroke="#ffff33" />
<path d="M125.26658982548453,924.125 L155.98341017451548,924.125" close="False" data-weight="1.75" stroke-width="6" fill="none" stroke="#ffff33" />
<path d="M2428.125,1655.625 A54.31980515339728,54.31980515339728,0,0,1,2423.9901510378277,1676.412289481504 M2423.9901510378277,1676.412289481504 A54.319805153387826,54.319805153387826,0,0,1,2412.2150974233027,1694.0349025766973 M2412.2150974233027,1694.0349025766973" close="False" data-weight="1.0" stroke-width="6" fill="none" stroke="#984ea3" />
<path d="M2428.125,1430.625 A54.31980515339728,54.31980515339728,0,0,1,2423.9901510378277,1451.412289481504 M2423.9901510378277,1451.412289481504 A54.319805153387826,54.319805153387826,0,0,1,2412.2150974233027,1469.0349025766973 M2412.2150974233027,1469.0349025766973" close="False" data-weight="1.0" stroke-width="6" fill="none" stroke="#984ea3" />
<path d="M2428.125,1355.625 C2428.125,1366.875,2428.125,1389.375,2428.125,1400.625" close="False" data-weight="0.0" stroke-width="6" fill="none" stroke="#984ea3" />
<path d="M2369.0349025766973,1737.2150974233027 C2361.0799512883486,1745.1700487116514,2345.1700487116514,1761.0799512883486,2337.2150974233027,1769.0349025766973" close="False" data-weight="0.0" stroke-width="6" fill="none" stroke="#984ea3" />
<path d="M2294.0349025766973,1812.2150974233027 C2286.0799512883486,1820.1700487116514,2270.1700487116514,1836.0799512883486,2262.2150974233027,1844.0349025766973" close="False" data-weight="0.0" stroke-width="6" fill="none" stroke="#984ea3" />
<path d="M1994.0349025766973,1694.0349025766973 C1986.0799512883486,1686.0799512883486,1970.1700487116514,1670.1700487116514,1962.2150974233027,1662.2150974233027" close="False" data-weight="0.0" stroke-width="6" fill="none" stroke="#984ea3" />
<path d="M1919.0349025766973,1619.0349025766973 C1911.0799512883486,1611.0799512883486,1895.1700487116514,1595.1700487116514,1887.2150974233027,1587.2150974233027" close="False" data-weight="0.0" stroke-width="6" fill="none" stroke="#984ea3" />
<path d="M1844.0349025766973,1544.0349025766973 C1836.0799512883486,1536.0799512883486,1820.1700487116514,1520.1700487116514,1812.2150974233027,1512.2150974233027" close="False" data-weight="0.0" stroke-width="6" fill="none" stroke="#984ea3" />
<path d="M1753.125,1430.625 A54.31980515339569,54.31980515339569,0,0,0,1757.2598489621723,1451.412289481504 M1757.2598489621723,1451.412289481504 A54.3198051533933,54.3198051533933,0,0,0,1769.0349025766973,1469.0349025766973 M1769.0349025766973,1469.0349025766973" close="False" data-weight="1.0" stroke-width="6" fill="none" stroke="#984ea3" />
<path d="M1753.125,1355.625 C1753.125,1366.875,1753.125,1389.375,1753.125,1400.625" close="False" data-weight="0.0" stroke-width="6" fill="none" stroke="#984ea3" />
<path d="M1753.125,1280.625 C1753.125,1291.875,1753.125,1314.375,1753.125,1325.625" close="False" data-weight="0.0" stroke-width="6" fill="none" stroke="#984ea3" />
<path d="M1699.1547408448132,1236.125 A42.77028556073924,42.77028556073924,0,0,0,1682.7872611631944,1239.3806941315092 M1682.7872611631944,1239.3806941315092 A42.77028556073972,42.77028556073972,0,0,0,1668.9115818915293,1248.6521266074556 M1668.9115818915293,1248.6521266074556" close="False" data-weight="1.0" stroke-width="6" fill="none" stroke="#984ea3" />
<path d="M1623.6521266074556,1293.9115818915293 C1616.216990428474,1301.3467180705109,1601.3467180705109,1316.216990428474,1593.9115818915293,1323.6521266074556" close="False" data-weight="0.0" stroke-width="6" fill="none" stroke="#984ea3" />
<path d="M1471.6098954365677,1440.2969588129247 C1463.7816612806569,1448.1251929688356,1448.1251929688356,1463.7816612806569,1440.2969588129247,1471.6098954365677" close="False" data-weight="0.0" stroke-width="6" fill="none" stroke="#984ea3" />
<path d="M1396.6098954365973,1515.2969588128951 C1388.7816612806716,1523.1251929688208,1373.1251929688208,1538.7816612806716,1365.2969588128951,1546.6098954365973" close="False" data-weight="0.0" stroke-width="6" fill="none" stroke="#984ea3" />
<path d="M1321.6098954365677,1590.2969588129247 C1313.7816612806569,1598.1251929688356,1298.1251929688356,1613.7816612806569,1290.2969588129247,1621.6098954365677" close="False" data-weight="0.0" stroke-width="6" fill="none" stroke="#984ea3" />
<path d="M2428.125,1625.625 L2428.125,1655.625" close="False" data-weight="1.75" stroke-width="6" fill="none" stroke="#984ea3" />
<path d="M2428.125,1400.625 L2428.125,1430.625" close="False" data-weight="1.75" stroke-width="6" fill="none" stroke="#984ea3" />
<path d="M2428.125,1325.625 L2428.125,1355.625" close="False" data-weight="1.75" stroke-width="6" fill="none" stroke="#984ea3" />
<path d="M2369.0349025766973,1737.2150974233027 L2412.2150974233027,1694.0349025766973" close="False" data-weight="2.060660171779821" stroke-width="6" fill="none" stroke="#984ea3" />
<path d="M2369.0349025766973,1544.0349025766973 L2412.2150974233027,1587.2150974233027" close="False" data-weight="2.060660171779821" stroke-width="6" fill="none" stroke="#984ea3" />
<path d="M2369.0349025766973,1512.2150974233027 L2412.2150974233027,1469.0349025766973" close="False" data-weight="2.060660171779821" stroke-width="6" fill="none" stroke="#984ea3" />
<path d="M2294.0349025766973,1812.2150974233027 L2337.2150974233027,1769.0349025766973" close="False" data-weight="2.060660171779821" stroke-width="6" fill="none" stroke="#984ea3" />
<path d="M2219.0349025766973,1887.2150974233027 L2262.2150974233027,1844.0349025766973" close="False" data-weight="2.060660171779821" stroke-width="6" fill="none" stroke="#984ea3" />
<path d="M2144.0349025766973,1844.0349025766973 L2187.2150974233027,1887.2150974233027" close="False" data-weight="2.060660171779821" stroke-width="6" fill="none" stroke="#984ea3" />
<path d="M2128.125,1775.625 L2128.125,1805.625" close="False" data-weight="1.75" stroke-width="6" fill="none" stroke="#984ea3" />
<path d="M2069.0349025766973,1812.2150974233027 L2112.2150974233027,1769.0349025766973" close="False" data-weight="2.060660171779821" stroke-width="6" fill="none" stroke="#984ea3" />
<path d="M2053.125,1775.625 L2053.125,1805.625" close="False" data-weight="1.75" stroke-width="6" fill="none" stroke="#984ea3" />
<path d="M1994.0349025766973,1694.0349025766973 L2037.2150974233027,1737.2150974233027" close="False" data-weight="2.060660171779821" stroke-width="6" fill="none" stroke="#984ea3" />
<path d="M1919.0349025766973,1619.0349025766973 L1962.2150974233027,1662.2150974233027" close="False" data-weight="2.060660171779821" stroke-width="6" fill="none" stroke="#984ea3" />
<path d="M1844.0349025766973,1544.0349025766973 L1887.2150974233027,1587.2150974233027" close="False" data-weight="2.060660171779821" stroke-width="6" fill="none" stroke="#984ea3" />
<path d="M1769.0349025766973,1469.0349025766973 L1812.2150974233027,1512.2150974233027" close="False" data-weight="2.060660171779821" stroke-width="6" fill="none" stroke="#984ea3" />
<path d="M1753.125,1400.625 L1753.125,1430.625" close="False" data-weight="1.75" stroke-width="6" fill="none" stroke="#984ea3" />
<path d="M1753.125,1325.625 L1753.125,1355.625" close="False" data-weight="1.75" stroke-width="6" fill="none" stroke="#984ea3" />
<path d="M1753.125,1250.625 L1753.125,1280.625" close="False" data-weight="1.75" stroke-width="6" fill="none" stroke="#984ea3" />
<path d="M1699.1547408448132,1236.125 L1732.0952591551868,1236.125" close="False" data-weight="1.75" stroke-width="6" fill="none" stroke="#984ea3" />
<path d="M1623.6521266074556,1293.9115818915293 L1668.9115818915293,1248.6521266074556" close="False" data-weight="2.060660171779821" stroke-width="6" fill="none" stroke="#984ea3" />
<path d="M1548.6521266074556,1368.9115818915293 L1593.9115818915293,1323.6521266074556" close="False" data-weight="2.060660171779821" stroke-width="6" fill="none" stroke="#984ea3" />
<path d="M1471.6098954365677,1440.2969588129247 L1515.2969588128951,1396.6098954365973" close="False" data-weight="2.060660171779821" stroke-width="6" fill="none" stroke="#984ea3" />
<path d="M1396.6098954365973,1515.2969588128951 L1440.2969588129247,1471.6098954365677" close="False" data-weight="2.060660171779821" stroke-width="6" fill="none" stroke="#984ea3" />
<path d="M1321.6098954365677,1590.2969588129247 L1365.2969588128951,1546.6098954365973" close="False" data-weight="2.060660171779821" stroke-width="6" fill="none" stroke="#984ea3" />
<path d="M1232.125,1775.2665898254845 L1232.125,1805.9834101745155" close="False" data-weight="1.75" stroke-width="6" fill="none" stroke="#984ea3" />
<path d="M1232.125,1700.2665898254845 L1232.125,1730.9834101745155" close="False" data-weight="1.75" stroke-width="6" fill="none" stroke="#984ea3" />
<path d="M1246.6098954365973,1665.2969588128951 L1290.2969588129247,1621.6098954365677" close="False" data-weight="2.060660171779821" stroke-width="6" fill="none" stroke="#984ea3" />
<path d="M1175.2665898254845,1832.125 L1205.9834101745155,1832.125" close="False" data-weight="1.75" stroke-width="6" fill="none" stroke="#984ea3" />
<path d="M1149.125,1775.2665898254845 L1149.125,1805.9834101745155" close="False" data-weight="1.75" stroke-width="6" fill="none" stroke="#984ea3" />
<path d="M1149.125,1625.2665898254845 L1149.125,1655.9834101745155" close="False" data-weight="1.75" stroke-width="6" fill="none" stroke="#984ea3" />
<path d="M1074.125,1775.2665898254845 L1074.125,1805.9834101745155" close="False" data-weight="1.75" stroke-width="6" fill="none" stroke="#984ea3" />
<path d="M1100.625,1753.125 L1130.625,1753.125" close="False" data-weight="1.75" stroke-width="6" fill="none" stroke="#984ea3" />
<path d="M1100.625,1678.125 L1130.625,1678.125" close="False" data-weight="1.75" stroke-width="6" fill="none" stroke="#984ea3" />
<path d="M1100.2665898254845,1607.125 L1130.9834101745155,1607.125" close="False" data-weight="1.75" stroke-width="6" fill="none" stroke="#984ea3" />
<path d="M1025.2665898254845,1824.125 L1055.9834101745155,1824.125" close="False" data-weight="1.75" stroke-width="6" fill="none" stroke="#984ea3" />
<path d="M1007.125,1775.2665898254845 L1007.125,1805.9834101745155" close="False" data-weight="1.75" stroke-width="6" fill="none" stroke="#984ea3" />
<path d="M1007.125,1700.2665898254845 L1007.125,1730.9834101745155" close="False" data-weight="1.75" stroke-width="6" fill="none" stroke="#984ea3" />
<path d="M1025.625,1678.125 L1055.625,1678.125" close="False" data-weight="1.75" stroke-width="6" fill="none" stroke="#984ea3" />
<path d="M1303.125,2330.625 A54.31980515339296,54.31980515339296,0,0,1,1298.9901510378277,2351.4122894815036 M1298.9901510378277,2351.4122894815036 A54.31980515340005,54.31980515340005,0,0,1,1287.2150974233027,2369.0349025766973 M1287.2150974233027,2369.0349025766973" close="False" data-weight="1.0" stroke-width="6" fill="none" stroke="#ff7f00" />
<path d="M1303.125,2255.625 C1303.125,2266.875,1303.125,2289.375,1303.125,2300.625" close="False" data-weight="0.0" stroke-width="6" fill="none" stroke="#ff7f00" />
<path d="M1303.125,2180.625 C1303.125,2191.875,1303.125,2214.375,1303.125,2225.625" close="False" data-weight="0.0" stroke-width="6" fill="none" stroke="#ff7f00" />
<path d="M1303.125,2105.625 C1303.125,2116.875,1303.125,2139.375,1303.125,2150.625" close="False" data-weight="0.0" stroke-width="6" fill="none" stroke="#ff7f00" />
<path d="M1303.125,2030.625 C1303.125,2041.875,1303.125,2064.375,1303.125,2075.625" close="False" data-weight="0.0" stroke-width="6" fill="none" stroke="#ff7f00" />
<path d="M1303.125,1955.625 C1303.125,1966.875,1303.125,1989.375,1303.125,2000.625" close="False" data-weight="0.0" stroke-width="6" fill="none" stroke="#ff7f00" />
<path d="M1303.125,1880.625 C1303.125,1891.875,1303.125,1914.375,1303.125,1925.625" close="False" data-weight="0.0" stroke-width="6" fill="none" stroke="#ff7f00" />
<path d="M1303.125,1805.625 C1303.125,1816.875,1303.125,1839.375,1303.125,1850.625" close="False" data-weight="0.0" stroke-width="6" fill="none" stroke="#ff7f00" />
<path d="M1303.125,1730.625 C1303.125,1741.875,1303.125,1764.375,1303.125,1775.625" close="False" data-weight="0.0" stroke-width="6" fill="none" stroke="#ff7f00" />
<path d="M1303.125,1655.625 C1303.125,1666.875,1303.125,1689.375,1303.125,1700.625" close="False" data-weight="0.0" stroke-width="6" fill="none" stroke="#ff7f00" />
<path d="M1303.125,1580.625 C1303.125,1591.875,1303.125,1614.375,1303.125,1625.625" close="False" data-weight="0.0" stroke-width="6" fill="none" stroke="#ff7f00" />
<path d="M1303.125,1505.625 C1303.125,1516.875,1303.125,1539.375,1303.125,1550.625" close="False" data-weight="0.0" stroke-width="6" fill="none" stroke="#ff7f00" />
<path d="M1303.125,1430.625 C1303.125,1441.875,1303.125,1464.375,1303.125,1475.625" close="False" data-weight="0.0" stroke-width="6" fill="none" stroke="#ff7f00" />
<path d="M1303.125,1355.625 C1303.125,1366.875,1303.125,1389.375,1303.125,1400.625" close="False" data-weight="0.0" stroke-width="6" fill="none" stroke="#ff7f00" />
<path d="M1303.125,1280.625 C1303.125,1291.875,1303.125,1314.375,1303.125,1325.625" close="False" data-weight="0.0" stroke-width="6" fill="none" stroke="#ff7f00" />
<path d="M1303.125,1205.625 C1303.125,1216.875,1303.125,1239.375,1303.125,1250.625" close="False" data-weight="0.0" stroke-width="6" fill="none" stroke="#ff7f00" />
<path d="M1303.125,1130.625 C1303.125,1141.875,1303.125,1164.375,1303.125,1175.625" close="False" data-weight="0.0" stroke-width="6" fill="none" stroke="#ff7f00" />
<path d="M1303.125,1055.625 C1303.125,1066.875,1303.125,1089.375,1303.125,1100.625" close="False" data-weight="0.0" stroke-width="6" fill="none" stroke="#ff7f00" />
<path d="M1303.125,980.625 C1303.125,991.875,1303.125,1014.375,1303.125,1025.625" close="False" data-weight="0.0" stroke-width="6" fill="none" stroke="#ff7f00" />
<path d="M1303.125,905.625 C1303.125,916.875,1303.125,939.375,1303.125,950.625" close="False" data-weight="0.0" stroke-width="6" fill="none" stroke="#ff7f00" />
<path d="M1303.125,830.625 C1303.125,841.875,1303.125,864.375,1303.125,875.625" close="False" data-weight="0.0" stroke-width="6" fill="none" stroke="#ff7f00" />
<path d="M1303.125,755.625 C1303.125,766.875,1303.125,789.375,1303.125,800.625" close="False" data-weight="0.0" stroke-width="6" fill="none" stroke="#ff7f00" />
<path d="M1303.125,680.625 C1303.125,691.875,1303.125,714.375,1303.125,725.625" close="False" data-weight="0.0" stroke-width="6" fill="none" stroke="#ff7f00" />
<path d="M1303.125,605.625 C1303.125,616.875,1303.125,639.375,1303.125,650.625" close="False" data-weight="0.0" stroke-width="6" fill="none" stroke="#ff7f00" />
<path d="M1303.125,530.625 C1303.125,541.875,1303.125,564.375,1303.125,575.625" close="False" data-weight="0.0" stroke-width="6" fill="none" stroke="#ff7f00" />
<path d="M1303.125,455.625 C1303.125,466.875,1303.125,489.375,1303.125,500.625" close="False" data-weight="0.0" stroke-width="6" fill="none" stroke="#ff7f00" />
<path d="M1303.125,380.625 C1303.125,391.875,1303.125,414.375,1303.125,425.625" close="False" data-weight="0.0" stroke-width="6" fill="none" stroke="#ff7f00" />
<path d="M1303.125,305.625 C1303.125,316.875,1303.125,339.375,1303.125,350.625" close="False" data-weight="0.0" stroke-width="6" fill="none" stroke="#ff7f00" />
<path d="M1303.125,275.625 A35.85816626155952,35.85816626155952,0,0,0,1297.5597497660845,256.4378343368865 M1297.5597497660845,256.4378343368865 A93.83039863683611,93.83039863683611,0,0,0,1284.6401045633952,240.29695881288757 M1284.6401045633952,240.29695881288757" close="False" data-weight="1.0" stroke-width="6" fill="none" stroke="#ff7f00" />
<path d="M1169.0349025766973,119.0349025766973 A35.85816626156026,35.85816626156026,0,0,0,1151.5323014451633,109.40275380396281 M1151.5323014451633,109.40275380396281 A93.8303986367475,93.8303986367475,0,0,0,1130.9834101745155,107.125 M1130.9834101745155,107.125" close="False" data-weight="1.0" stroke-width="6" fill="none" stroke="#ff7f00" />
<path d="M1100.2665898254845,107.125 C1089.1957949127423,107.125,1067.0542050872577,107.125,1055.9834101745155,107.125" close="False" data-weight="0.0" stroke-width="6" fill="none" stroke="#ff7f00" />
<path d="M1025.2665898254845,107.125 C1014.1957949127423,107.125,992.0542050872577,107.125,980.9834101745155,107.125" close="False" data-weight="0.0" stroke-width="6" fill="none" stroke="#ff7f00" />
<path d="M950.2665898254845,107.125 C939.1957949127423,107.125,917.0542050872577,107.125,905.9834101745155,107.125" close="False" data-weight="0.0" stroke-width="6" fill="none" stroke="#ff7f00" />
<path d="M875.2665898254845,107.125 C864.1957949127423,107.125,842.0542050872577,107.125,830.9834101745155,107.125" close="False" data-weight="0.0" stroke-width="6" fill="none" stroke="#ff7f00" />
<path d="M800.2665898254845,107.125 C789.1957949127423,107.125,767.0542050872577,107.125,755.9834101745155,107.125" close="False" data-weight="0.0" stroke-width="6" fill="none" stroke="#ff7f00" />
<path d="M725.2665898254845,107.125 C714.1957949127423,107.125,692.0542050872577,107.125,680.9834101745155,107.125" close="False" data-weight="0.0" stroke-width="6" fill="none" stroke="#ff7f00" />
<path d="M650.2665898254845,107.125 C639.1957949127423,107.125,617.0542050872577,107.125,605.9834101745155,107.125" close="False" data-weight="0.0" stroke-width="6" fill="none" stroke="#ff7f00" />
<path d="M575.2665898254845,107.125 C564.1957949127423,107.125,542.0542050872577,107.125,530.9834101745155,107.125" close="False" data-weight="0.0" stroke-width="6" fill="none" stroke="#ff7f00" />
<path d="M1303.125,2300.625 L1303.125,2330.625" close="False" data-weight="1.75" stroke-width="6" fill="none" stroke="#ff7f00" />
<path d="M1303.125,2225.625 L1303.125,2255.625" close="False" data-weight="1.75" stroke-width="6" fill="none" stroke="#ff7f00" />
<path d="M1303.125,2150.625 L1303.125,2180.625" close="False" data-weight="1.75" stroke-width="6" fill="none" stroke="#ff7f00" />
<path d="M1303.125,2075.625 L1303.125,2105.625" close="False" data-weight="1.75" stroke-width="6" fill="none" stroke="#ff7f00" />
<path d="M1303.125,2000.625 L1303.125,2030.625" close="False" data-weight="1.75" stroke-width="6" fill="none" stroke="#ff7f00" />
<path d="M1303.125,1925.625 L1303.125,1955.625" close="False" data-weight="1.75" stroke-width="6" fill="none" stroke="#ff7f00" />
<path d="M1303.125,1850.625 L1303.125,1880.625" close="False" data-weight="1.75" stroke-width="6" fill="none" stroke="#ff7f00" />
<path d="M1303.125,1775.625 L1303.125,1805.625" close="False" data-weight="1.75" stroke-width="6" fill="none" stroke="#ff7f00" />
<path d="M1303.125,1700.625 L1303.125,1730.625" close="False" data-weight="1.75" stroke-width="6" fill="none" stroke="#ff7f00" />
<path d="M1303.125,1625.625 L1303.125,1655.625" close="False" data-weight="1.75" stroke-width="6" fill="none" stroke="#ff7f00" />
<path d="M1303.125,1550.625 L1303.125,1580.625" close="False" data-weight="1.75" stroke-width="6" fill="none" stroke="#ff7f00" />
<path d="M1303.125,1475.625 L1303.125,1505.625" close="False" data-weight="1.75" stroke-width="6" fill="none" stroke="#ff7f00" />
<path d="M1303.125,1400.625 L1303.125,1430.625" close="False" data-weight="1.75" stroke-width="6" fill="none" stroke="#ff7f00" />
<path d="M1303.125,1325.625 L1303.125,1355.625" close="False" data-weight="1.75" stroke-width="6" fill="none" stroke="#ff7f00" />
<path d="M1303.125,1250.625 L1303.125,1280.625" close="False" data-weight="1.75" stroke-width="6" fill="none" stroke="#ff7f00" />
<path d="M1303.125,1175.625 L1303.125,1205.625" close="False" data-weight="1.75" stroke-width="6" fill="none" stroke="#ff7f00" />
<path d="M1303.125,1100.625 L1303.125,1130.625" close="False" data-weight="1.75" stroke-width="6" fill="none" stroke="#ff7f00" />
<path d="M1303.125,1025.625 L1303.125,1055.625" close="False" data-weight="1.75" stroke-width="6" fill="none" stroke="#ff7f00" />
<path d="M1303.125,950.625 L1303.125,980.625" close="False" data-weight="1.75" stroke-width="6" fill="none" stroke="#ff7f00" />
<path d="M1303.125,875.625 L1303.125,905.625" close="False" data-weight="1.75" stroke-width="6" fill="none" stroke="#ff7f00" />
<path d="M1303.125,800.625 L1303.125,830.625" close="False" data-weight="1.75" stroke-width="6" fill="none" stroke="#ff7f00" />
<path d="M1303.125,725.625 L1303.125,755.625" close="False" data-weight="1.75" stroke-width="6" fill="none" stroke="#ff7f00" />
<path d="M1303.125,650.625 L1303.125,680.625" close="False" data-weight="1.75" stroke-width="6" fill="none" stroke="#ff7f00" />
<path d="M1303.125,575.625 L1303.125,605.625" close="False" data-weight="1.75" stroke-width="6" fill="none" stroke="#ff7f00" />
<path d="M1303.125,500.625 L1303.125,530.625" close="False" data-weight="1.75" stroke-width="6" fill="none" stroke="#ff7f00" />
<path d="M1303.125,425.625 L1303.125,455.625" close="False" data-weight="1.75" stroke-width="6" fill="none" stroke="#ff7f00" />
<path d="M1303.125,350.625 L1303.125,380.625" close="False" data-weight="1.75" stroke-width="6" fill="none" stroke="#ff7f00" />
<path d="M1303.125,275.625 L1303.125,305.625" close="False" data-weight="1.75" stroke-width="6" fill="none" stroke="#ff7f00" />
<path d="M1244.0349025766973,2412.2150974233027 L1287.2150974233027,2369.0349025766973" close="False" data-weight="2.060660171779821" stroke-width="6" fill="none" stroke="#ff7f00" />
<path d="M1240.9530411871124,196.6098954366048 L1284.6401045633952,240.2969588128875" close="False" data-weight="2.060660171779821" stroke-width="6" fill="none" stroke="#ff7f00" />
<path d="M1169.0349025766973,119.03490257669732 L1212.2150974233027,162.2150974233027" close="False" data-weight="2.060660171779821" stroke-width="6" fill="none" stroke="#ff7f00" />
<path d="M1100.2665898254845,107.125 L1130.9834101745155,107.125" close="False" data-weight="1.75" stroke-width="6" fill="none" stroke="#ff7f00" />
<path d="M1025.2665898254845,107.125 L1055.9834101745155,107.125" close="False" data-weight="1.75" stroke-width="6" fill="none" stroke="#ff7f00" />
<path d="M950.2665898254845,107.125 L980.9834101745155,107.125" close="False" data-weight="1.75" stroke-width="6" fill="none" stroke="#ff7f00" />
<path d="M875.2665898254845,107.125 L905.9834101745155,107.125" close="False" data-weight="1.75" stroke-width="6" fill="none" stroke="#ff7f00" />
<path d="M800.2665898254845,107.125 L830.9834101745155,107.125" close="False" data-weight="1.75" stroke-width="6" fill="none" stroke="#ff7f00" />
<path d="M725.2665898254845,107.125 L755.9834101745155,107.125" close="False" data-weight="1.75" stroke-width="6" fill="none" stroke="#ff7f00" />
<path d="M650.2665898254845,107.125 L680.9834101745155,107.125" close="False" data-weight="1.75" stroke-width="6" fill="none" stroke="#ff7f00" />
<path d="M575.2665898254845,107.125 L605.9834101745155,107.125" close="False" data-weight="1.75" stroke-width="6" fill="none" stroke="#ff7f00" />
<path d="M500.2665898254845,107.125 L530.9834101745155,107.125" close="False" data-weight="1.75" stroke-width="6" fill="none" stroke="#ff7f00" />
<path d="M2300.625,1528.125 C2289.375,1528.125,2266.875,1528.125,2255.625,1528.125" close="False" data-weight="0.0" stroke-width="6" fill="none" stroke="#4daf4a" />
<path d="M2225.625,1528.125 C2214.375,1528.125,2191.875,1528.125,2180.625,1528.125" close="False" data-weight="0.0" stroke-width="6" fill="none" stroke="#4daf4a" />
<path d="M2150.625,1528.125 C2139.375,1528.125,2116.875,1528.125,2105.625,1528.125" close="False" data-weight="0.0" stroke-width="6" fill="none" stroke="#4daf4a" />
<path d="M2075.625,1528.125 A54.31980515339842,54.31980515339842,0,0,1,2054.837710518496,1523.990151037828 M2054.837710518496,1523.990151037828 A54.31980515339072,54.31980515339072,0,0,1,2037.2150974233027,1512.2150974233027 M2037.2150974233027,1512.2150974233027" close="False" data-weight="1.0" stroke-width="6" fill="none" stroke="#4daf4a" />
<path d="M1994.0349025766973,1469.0349025766973 C1986.0799512883486,1461.0799512883486,1970.1700487116514,1445.1700487116514,1962.2150974233027,1437.2150974233027" close="False" data-weight="0.0" stroke-width="6" fill="none" stroke="#4daf4a" />
<path d="M1919.0349025766973,1394.0349025766973 C1911.0799512883486,1386.0799512883486,1895.1700487116514,1370.1700487116514,1887.2150974233027,1362.2150974233027" close="False" data-weight="0.0" stroke-width="6" fill="none" stroke="#4daf4a" />
<path d="M1844.0349025766973,1319.0349025766973 C1836.0799512883486,1311.0799512883486,1820.1700487116514,1295.1700487116514,1812.2150974233027,1287.2150974233027" close="False" data-weight="0.0" stroke-width="6" fill="none" stroke="#4daf4a" />
<path d="M1828.125,1130.625 A54.31980515339569,54.31980515339569,0,0,1,1823.9901510378277,1151.412289481504 M1823.9901510378277,1151.412289481504 A54.3198051533933,54.3198051533933,0,0,1,1812.2150974233027,1169.0349025766973 M1812.2150974233027,1169.0349025766973" close="False" data-weight="1.0" stroke-width="6" fill="none" stroke="#4daf4a" />
<path d="M1828.125,1055.625 C1828.125,1066.875,1828.125,1089.375,1828.125,1100.625" close="False" data-weight="0.0" stroke-width="6" fill="none" stroke="#4daf4a" />
<path d="M1828.125,980.625 C1828.125,991.875,1828.125,1014.375,1828.125,1025.625" close="False" data-weight="0.0" stroke-width="6" fill="none" stroke="#4daf4a" />
<path d="M1828.125,905.625 C1828.125,916.875,1828.125,939.375,1828.125,950.625" close="False" data-weight="0.0" stroke-width="6" fill="none" stroke="#4daf4a" />
<path d="M1828.125,830.625 C1828.125,841.875,1828.125,864.375,1828.125,875.625" close="False" data-weight="0.0" stroke-width="6" fill="none" stroke="#4daf4a" />
<path d="M1828.125,755.625 C1828.125,766.875,1828.125,789.375,1828.125,800.625" close="False" data-weight="0.0" stroke-width="6" fill="none" stroke="#4daf4a" />
<path d="M1828.125,680.625 C1828.125,691.875,1828.125,714.375,1828.125,725.625" close="False" data-weight="0.0" stroke-width="6" fill="none" stroke="#4daf4a" />
<path d="M1828.125,605.625 C1828.125,616.875,1828.125,639.375,1828.125,650.625" close="False" data-weight="0.0" stroke-width="6" fill="none" stroke="#4daf4a" />
<path d="M1828.125,530.625 C1828.125,541.875,1828.125,564.375,1828.125,575.625" close="False" data-weight="0.0" stroke-width="6" fill="none" stroke="#4daf4a" />
<path d="M1828.125,455.625 C1828.125,466.875,1828.125,489.375,1828.125,500.625" close="False" data-weight="0.0" stroke-width="6" fill="none" stroke="#4daf4a" />
<path d="M1775.625,403.125 C1764.375,403.125,1741.875,403.125,1730.625,403.125" close="False" data-weight="0.0" stroke-width="6" fill="none" stroke="#4daf4a" />
<path d="M1700.625,403.125 C1689.375,403.125,1666.875,403.125,1655.625,403.125" close="False" data-weight="0.0" stroke-width="6" fill="none" stroke="#4daf4a" />
<path d="M1625.625,403.125 C1614.375,403.125,1591.875,403.125,1580.625,403.125" close="False" data-weight="0.0" stroke-width="6" fill="none" stroke="#4daf4a" />
<path d="M1550.625,403.125 C1539.375,403.125,1516.875,403.125,1505.625,403.125" close="False" data-weight="0.0" stroke-width="6" fill="none" stroke="#4daf4a" />
<path d="M1475.625,403.125 A54.31980515339285,54.31980515339285,0,0,1,1454.837710518496,398.9901510378276 M1454.837710518496,398.9901510378276 A54.31980515339627,54.31980515339627,0,0,1,1437.2150974233027,387.21509742330267 M1437.2150974233027,387.21509742330267" close="False" data-weight="1.0" stroke-width="6" fill="none" stroke="#4daf4a" />
<path d="M1394.0349025766973,344.03490257669733 C1386.0799512883486,336.0799512883487,1370.1700487116514,320.1700487116513,1362.2150974233027,312.21509742330267" close="False" data-weight="0.0" stroke-width="6" fill="none" stroke="#4daf4a" />
<path d="M1319.0349025766973,269.03490257669733 C1311.1116939026776,261.1116939026778,1298.220167486922,242.5633132374296,1290.2969588129024,234.64010456341006" close="False" data-weight="0.0" stroke-width="6" fill="none" stroke="#4daf4a" />
<path d="M1169.0349025766973,237.2150974233027 A54.3198051533952,54.3198051533952,0,0,1,1151.412289481504,248.9901510378278 M1151.412289481504,248.9901510378278 A54.319805153393986,54.319805153393986,0,0,1,1130.625,253.125 M1130.625,253.125" close="False" data-weight="1.0" stroke-width="6" fill="none" stroke="#4daf4a" />
<path d="M1100.625,253.125 C1089.375,253.125,1066.875,253.125,1055.625,253.125" close="False" data-weight="0.0" stroke-width="6" fill="none" stroke="#4daf4a" />
<path d="M1025.625,253.125 C1014.375,253.125,991.875,253.125,980.625,253.125" close="False" data-weight="0.0" stroke-width="6" fill="none" stroke="#4daf4a" />
<path d="M794.0349025766973,237.2150974233027 C786.0799512883486,245.17004871165133,770.1700487116514,261.0799512883487,762.2150974233027,269.03490257669733" close="False" data-weight="0.0" stroke-width="6" fill="none" stroke="#4daf4a" />
<path d="M719.0349025766973,312.21509742330267 C711.0799512883486,320.1700487116513,695.1700487116514,336.0799512883487,687.2150974233027,344.03490257669733" close="False" data-weight="0.0" stroke-width="6" fill="none" stroke="#4daf4a" />
<path d="M644.0349025766973,387.21509742330267 C636.0799512883486,395.1700487116513,620.1700487116514,411.0799512883487,612.2150974233027,419.03490257669733" close="False" data-weight="0.0" stroke-width="6" fill="none" stroke="#4daf4a" />
<path d="M569.0349025766973,462.21509742330267 C561.0799512883486,470.1700487116513,545.1700487116514,486.0799512883487,537.2150974233027,494.03490257669733" close="False" data-weight="0.0" stroke-width="6" fill="none" stroke="#4daf4a" />
<path d="M494.03490257669733,537.2150974233027 A35.85816626156108,35.85816626156108,0,0,0,484.4027538039627,554.7176985548367 M484.4027538039627,554.7176985548367 A93.83039863674196,93.83039863674196,0,0,0,482.125,575.2665898254845 M482.125,575.2665898254845" close="False" data-weight="1.0" stroke-width="6" fill="none" stroke="#4daf4a" />
<path d="M2300.625,1528.125 L2330.625,1528.125" close="False" data-weight="1.75" stroke-width="6" fill="none" stroke="#4daf4a" />
<path d="M2225.625,1528.125 L2255.625,1528.125" close="False" data-weight="1.75" stroke-width="6" fill="none" stroke="#4daf4a" />
<path d="M2150.625,1528.125 L2180.625,1528.125" close="False" data-weight="1.75" stroke-width="6" fill="none" stroke="#4daf4a" />
<path d="M2075.625,1528.125 L2105.625,1528.125" close="False" data-weight="1.75" stroke-width="6" fill="none" stroke="#4daf4a" />
<path d="M1994.0349025766973,1469.0349025766973 L2037.2150974233027,1512.2150974233027" close="False" data-weight="2.060660171779821" stroke-width="6" fill="none" stroke="#4daf4a" />
<path d="M1919.0349025766973,1394.0349025766973 L1962.2150974233027,1437.2150974233027" close="False" data-weight="2.060660171779821" stroke-width="6" fill="none" stroke="#4daf4a" />
<path d="M1844.0349025766973,1319.0349025766973 L1887.2150974233027,1362.2150974233027" close="False" data-weight="2.060660171779821" stroke-width="6" fill="none" stroke="#4daf4a" />
<path d="M1828.125,1100.625 L1828.125,1130.625" close="False" data-weight="1.75" stroke-width="6" fill="none" stroke="#4daf4a" />
<path d="M1828.125,1025.625 L1828.125,1055.625" close="False" data-weight="1.75" stroke-width="6" fill="none" stroke="#4daf4a" />
<path d="M1828.125,950.625 L1828.125,980.625" close="False" data-weight="1.75" stroke-width="6" fill="none" stroke="#4daf4a" />
<path d="M1828.125,875.625 L1828.125,905.625" close="False" data-weight="1.75" stroke-width="6" fill="none" stroke="#4daf4a" />
<path d="M1828.125,800.625 L1828.125,830.625" close="False" data-weight="1.75" stroke-width="6" fill="none" stroke="#4daf4a" />
<path d="M1828.125,725.625 L1828.125,755.625" close="False" data-weight="1.75" stroke-width="6" fill="none" stroke="#4daf4a" />
<path d="M1828.125,650.625 L1828.125,680.625" close="False" data-weight="1.75" stroke-width="6" fill="none" stroke="#4daf4a" />
<path d="M1828.125,575.625 L1828.125,605.625" close="False" data-weight="1.75" stroke-width="6" fill="none" stroke="#4daf4a" />
<path d="M1828.125,500.625 L1828.125,530.625" close="False" data-weight="1.75" stroke-width="6" fill="none" stroke="#4daf4a" />
<path d="M1828.125,425.625 L1828.125,455.625" close="False" data-weight="1.75" stroke-width="6" fill="none" stroke="#4daf4a" />
<path d="M1769.0349025766973,1244.0349025766973 L1812.2150974233027,1287.2150974233027" close="False" data-weight="2.060660171779821" stroke-width="6" fill="none" stroke="#4daf4a" />
<path d="M1769.0349025766973,1212.2150974233027 L1812.2150974233027,1169.0349025766973" close="False" data-weight="2.060660171779821" stroke-width="6" fill="none" stroke="#4daf4a" />
<path d="M1775.625,403.125 L1805.625,403.125" close="False" data-weight="1.75" stroke-width="6" fill="none" stroke="#4daf4a" />
<path d="M1700.625,403.125 L1730.625,403.125" close="False" data-weight="1.75" stroke-width="6" fill="none" stroke="#4daf4a" />
<path d="M1625.625,403.125 L1655.625,403.125" close="False" data-weight="1.75" stroke-width="6" fill="none" stroke="#4daf4a" />
<path d="M1550.625,403.125 L1580.625,403.125" close="False" data-weight="1.75" stroke-width="6" fill="none" stroke="#4daf4a" />
<path d="M1475.625,403.125 L1505.625,403.125" close="False" data-weight="1.75" stroke-width="6" fill="none" stroke="#4daf4a" />
<path d="M1394.0349025766973,344.03490257669733 L1437.2150974233027,387.21509742330267" close="False" data-weight="2.060660171779821" stroke-width="6" fill="none" stroke="#4daf4a" />
<path d="M1319.0349025766973,269.03490257669733 L1362.2150974233027,312.21509742330267" close="False" data-weight="2.060660171779821" stroke-width="6" fill="none" stroke="#4daf4a" />
<path d="M1246.60989543659,190.95304118709754 L1290.2969588129026,234.64010456341015" close="False" data-weight="2.060660171779821" stroke-width="6" fill="none" stroke="#4daf4a" />
<path d="M1169.0349025766973,237.21509742330267 L1212.2150974233027,194.0349025766973" close="False" data-weight="2.060660171779821" stroke-width="6" fill="none" stroke="#4daf4a" />
<path d="M1100.625,253.125 L1130.625,253.125" close="False" data-weight="1.75" stroke-width="6" fill="none" stroke="#4daf4a" />
<path d="M1025.625,253.125 L1055.625,253.125" close="False" data-weight="1.75" stroke-width="6" fill="none" stroke="#4daf4a" />
<path d="M950.625,253.125 L980.625,253.125" close="False" data-weight="1.75" stroke-width="6" fill="none" stroke="#4daf4a" />
<path d="M928.125,200.625 L928.125,230.625" close="False" data-weight="1.75" stroke-width="6" fill="none" stroke="#4daf4a" />
<path d="M875.625,178.125 L905.625,178.125" close="False" data-weight="1.75" stroke-width="6" fill="none" stroke="#4daf4a" />
<path d="M794.0349025766973,237.21509742330267 L837.2150974233027,194.0349025766973" close="False" data-weight="2.060660171779821" stroke-width="6" fill="none" stroke="#4daf4a" />
<path d="M719.0349025766973,312.21509742330267 L762.2150974233027,269.03490257669733" close="False" data-weight="2.060660171779821" stroke-width="6" fill="none" stroke="#4daf4a" />
<path d="M644.0349025766973,387.21509742330267 L687.2150974233027,344.03490257669733" close="False" data-weight="2.060660171779821" stroke-width="6" fill="none" stroke="#4daf4a" />
<path d="M549.125,875.2665898254845 L549.125,905.9834101745155" close="False" data-weight="1.75" stroke-width="6" fill="none" stroke="#4daf4a" />
<path d="M549.125,800.2665898254845 L549.125,830.9834101745155" close="False" data-weight="1.75" stroke-width="6" fill="none" stroke="#4daf4a" />
<path d="M569.0349025766973,462.21509742330267 L612.2150974233027,419.03490257669733" close="False" data-weight="2.060660171779821" stroke-width="6" fill="none" stroke="#4daf4a" />
<path d="M500.2665898254845,782.125 L530.9834101745155,782.125" close="False" data-weight="1.75" stroke-width="6" fill="none" stroke="#4daf4a" />
<path d="M474.125,725.2665898254845 L474.125,755.9834101745155" close="False" data-weight="1.75" stroke-width="6" fill="none" stroke="#4daf4a" />
<path d="M474.125,650.2665898254845 L474.125,680.9834101745155" close="False" data-weight="1.75" stroke-width="6" fill="none" stroke="#4daf4a" />
<path d="M482.125,575.2665898254845 L482.125,605.9834101745155" close="False" data-weight="1.75" stroke-width="6" fill="none" stroke="#4daf4a" />
<path d="M494.03490257669733,537.2150974233027 L537.2150974233027,494.03490257669733" close="False" data-weight="2.060660171779821" stroke-width="6" fill="none" stroke="#4daf4a" />
<path d="M2428.125,1205.625 C2428.125,1216.875,2428.125,1239.375,2428.125,1250.625" close="False" data-weight="0.0" stroke-width="6" fill="none" stroke="#377eb8" />
<path d="M2428.125,1130.625 C2428.125,1141.875,2428.125,1164.375,2428.125,1175.625" close="False" data-weight="0.0" stroke-width="6" fill="none" stroke="#377eb8" />
<path d="M2428.125,1055.625 C2428.125,1066.875,2428.125,1089.375,2428.125,1100.625" close="False" data-weight="0.0" stroke-width="6" fill="none" stroke="#377eb8" />
<path d="M2428.125,980.625 C2428.125,991.875,2428.125,1014.375,2428.125,1025.625" close="False" data-weight="0.0" stroke-width="6" fill="none" stroke="#377eb8" />
<path d="M2428.125,905.625 C2428.125,916.875,2428.125,939.375,2428.125,950.625" close="False" data-weight="0.0" stroke-width="6" fill="none" stroke="#377eb8" />
<path d="M2369.0349025766973,1244.0349025766973 A54.319805153402136,54.319805153402136,0,0,0,2351.4122894815036,1232.259848962172 M2351.4122894815036,1232.259848962172 A54.31980515339069,54.31980515339069,0,0,0,2330.625,1228.125 M2330.625,1228.125" close="False" data-weight="1.0" stroke-width="6" fill="none" stroke="#377eb8" />
<path d="M2300.625,1228.125 C2289.375,1228.125,2266.875,1228.125,2255.625,1228.125" close="False" data-weight="0.0" stroke-width="6" fill="none" stroke="#377eb8" />
<path d="M2225.625,1228.125 C2214.375,1228.125,2191.875,1228.125,2180.625,1228.125" close="False" data-weight="0.0" stroke-width="6" fill="none" stroke="#377eb8" />
<path d="M2225.625,553.125 C2214.375,553.125,2191.875,553.125,2180.625,553.125" close="False" data-weight="0.0" stroke-width="6" fill="none" stroke="#377eb8" />
<path d="M2150.625,1228.125 C2139.375,1228.125,2116.875,1228.125,2105.625,1228.125" close="False" data-weight="0.0" stroke-width="6" fill="none" stroke="#377eb8" />
<path d="M2075.625,1228.125 C2064.375,1228.125,2041.875,1228.125,2030.625,1228.125" close="False" data-weight="0.0" stroke-width="6" fill="none" stroke="#377eb8" />
<path d="M2075.625,553.125 C2064.375,553.125,2041.875,553.125,2030.625,553.125" close="False" data-weight="0.0" stroke-width="6" fill="none" stroke="#377eb8" />
<path d="M2000.625,1228.125 C1989.375,1228.125,1966.875,1228.125,1955.625,1228.125" close="False" data-weight="0.0" stroke-width="6" fill="none" stroke="#377eb8" />
<path d="M2000.625,553.125 A54.31980515339285,54.31980515339285,0,0,1,1979.837710518496,548.9901510378276 M1979.837710518496,548.9901510378276 A54.31980515339623,54.31980515339623,0,0,1,1962.2150974233027,537.2150974233027 M1962.2150974233027,537.2150974233027" close="False" data-weight="1.0" stroke-width="6" fill="none" stroke="#377eb8" />
<path d="M1925.625,1228.125 C1914.375,1228.125,1891.875,1228.125,1880.625,1228.125" close="False" data-weight="0.0" stroke-width="6" fill="none" stroke="#377eb8" />
<path d="M1919.0349025766973,494.03490257669733 C1911.0799512883486,486.0799512883487,1895.1700487116514,470.1700487116513,1887.2150974233027,462.21509742330267" close="False" data-weight="0.0" stroke-width="6" fill="none" stroke="#377eb8" />
<path d="M1850.625,1228.125 C1839.375,1228.125,1816.875,1228.125,1805.625,1228.125" close="False" data-weight="0.0" stroke-width="6" fill="none" stroke="#377eb8" />
<path d="M1699.1547408448132,1220.125 A58.770285560741286,58.770285560741286,0,0,0,1676.6643262453529,1224.5986216113286 M1676.6643262453529,1224.5986216113286 A58.770285560737925,58.770285560737925,0,0,0,1657.5978733925444,1237.3384181084707 M1657.5978733925444,1237.3384181084707" close="False" data-weight="1.0" stroke-width="6" fill="none" stroke="#377eb8" />
<path d="M1612.3384181084707,1282.5978733925444 C1604.9032819294891,1290.033009571526,1590.033009571526,1304.9032819294891,1582.5978733925444,1312.3384181084707" close="False" data-weight="0.0" stroke-width="6" fill="none" stroke="#377eb8" />
<path d="M1469.0349025766973,1319.0349025766973 C1461.0799512883486,1311.0799512883486,1445.1700487116514,1295.1700487116514,1437.2150974233027,1287.2150974233027" close="False" data-weight="0.0" stroke-width="6" fill="none" stroke="#377eb8" />
<path d="M1394.0349025766973,1244.0349025766973 C1386.0799512883486,1236.0799512883486,1370.1700487116514,1220.1700487116514,1362.2150974233027,1212.2150974233027" close="False" data-weight="0.0" stroke-width="6" fill="none" stroke="#377eb8" />
<path d="M1319.0349025766973,1169.0349025766973 C1311.0799512883486,1161.0799512883486,1295.1700487116514,1145.1700487116514,1287.2150974233027,1137.2150974233027" close="False" data-weight="0.0" stroke-width="6" fill="none" stroke="#377eb8" />
<path d="M2428.125,1250.625 L2428.125,1280.625" close="False" data-weight="1.75" stroke-width="6" fill="none" stroke="#377eb8" />
<path d="M2428.125,1175.625 L2428.125,1205.625" close="False" data-weight="1.75" stroke-width="6" fill="none" stroke="#377eb8" />
<path d="M2428.125,1100.625 L2428.125,1130.625" close="False" data-weight="1.75" stroke-width="6" fill="none" stroke="#377eb8" />
<path d="M2428.125,1025.625 L2428.125,1055.625" close="False" data-weight="1.75" stroke-width="6" fill="none" stroke="#377eb8" />
<path d="M2428.125,950.625 L2428.125,980.625" close="False" data-weight="1.75" stroke-width="6" fill="none" stroke="#377eb8" />
<path d="M2428.125,875.625 L2428.125,905.625" close="False" data-weight="1.75" stroke-width="6" fill="none" stroke="#377eb8" />
<path d="M2369.0349025766973,1244.0349025766973 L2412.2150974233027,1287.2150974233027" close="False" data-weight="2.060660171779821" stroke-width="6" fill="none" stroke="#377eb8" />
<path d="M2369.0349025766973,794.0349025766973 L2412.2150974233027,837.2150974233027" close="False" data-weight="2.060660171779821" stroke-width="6" fill="none" stroke="#377eb8" />
<path d="M2353.125,725.625 L2353.125,755.625" close="False" data-weight="1.75" stroke-width="6" fill="none" stroke="#377eb8" />
<path d="M2300.625,1228.125 L2330.625,1228.125" close="False" data-weight="1.75" stroke-width="6" fill="none" stroke="#377eb8" />
<path d="M2300.625,703.125 L2330.625,703.125" close="False" data-weight="1.75" stroke-width="6" fill="none" stroke="#377eb8" />
<path d="M2294.0349025766973,687.2150974233027 L2337.2150974233027,644.0349025766973" close="False" data-weight="2.060660171779821" stroke-width="6" fill="none" stroke="#377eb8" />
<path d="M2300.625,628.125 L2330.625,628.125" close="False" data-weight="1.75" stroke-width="6" fill="none" stroke="#377eb8" />
<path d="M2278.125,575.625 L2278.125,605.625" close="False" data-weight="1.75" stroke-width="6" fill="none" stroke="#377eb8" />
<path d="M2225.625,1228.125 L2255.625,1228.125" close="False" data-weight="1.75" stroke-width="6" fill="none" stroke="#377eb8" />
<path d="M2225.625,553.125 L2255.625,553.125" close="False" data-weight="1.75" stroke-width="6" fill="none" stroke="#377eb8" />
<path d="M2150.625,1228.125 L2180.625,1228.125" close="False" data-weight="1.75" stroke-width="6" fill="none" stroke="#377eb8" />
<path d="M2150.625,553.125 L2180.625,553.125" close="False" data-weight="1.75" stroke-width="6" fill="none" stroke="#377eb8" />
<path d="M2075.625,1228.125 L2105.625,1228.125" close="False" data-weight="1.75" stroke-width="6" fill="none" stroke="#377eb8" />
<path d="M2075.625,553.125 L2105.625,553.125" close="False" data-weight="1.75" stroke-width="6" fill="none" stroke="#377eb8" />
<path d="M2000.625,1228.125 L2030.625,1228.125" close="False" data-weight="1.75" stroke-width="6" fill="none" stroke="#377eb8" />
<path d="M2000.625,553.125 L2030.625,553.125" close="False" data-weight="1.75" stroke-width="6" fill="none" stroke="#377eb8" />
<path d="M1925.625,1228.125 L1955.625,1228.125" close="False" data-weight="1.75" stroke-width="6" fill="none" stroke="#377eb8" />
<path d="M1919.0349025766973,494.03490257669733 L1962.2150974233027,537.2150974233027" close="False" data-weight="2.060660171779821" stroke-width="6" fill="none" stroke="#377eb8" />
<path d="M1850.625,1228.125 L1880.625,1228.125" close="False" data-weight="1.75" stroke-width="6" fill="none" stroke="#377eb8" />
<path d="M1844.0349025766973,419.03490257669733 L1887.2150974233027,462.21509742330267" close="False" data-weight="2.060660171779821" stroke-width="6" fill="none" stroke="#377eb8" />
<path d="M1775.625,1228.125 L1805.625,1228.125" close="False" data-weight="1.75" stroke-width="6" fill="none" stroke="#377eb8" />
<path d="M1699.1547408448132,1220.125 L1732.0952591551868,1220.125" close="False" data-weight="1.75" stroke-width="6" fill="none" stroke="#377eb8" />
<path d="M1612.3384181084707,1282.5978733925444 L1657.5978733925444,1237.3384181084707" close="False" data-weight="2.060660171779821" stroke-width="6" fill="none" stroke="#377eb8" />
<path d="M1537.3384181084707,1357.5978733925444 L1582.5978733925444,1312.3384181084707" close="False" data-weight="2.060660171779821" stroke-width="6" fill="none" stroke="#377eb8" />
<path d="M1469.0349025766973,1319.0349025766973 L1512.2150974233027,1362.2150974233027" close="False" data-weight="2.060660171779821" stroke-width="6" fill="none" stroke="#377eb8" />
<path d="M1394.0349025766973,1244.0349025766973 L1437.2150974233027,1287.2150974233027" close="False" data-weight="2.060660171779821" stroke-width="6" fill="none" stroke="#377eb8" />
<path d="M1319.0349025766973,1169.0349025766973 L1362.2150974233027,1212.2150974233027" close="False" data-weight="2.060660171779821" stroke-width="6" fill="none" stroke="#377eb8" />
<path d="M1244.0349025766973,1094.0349025766973 L1287.2150974233027,1137.2150974233027" close="False" data-weight="2.060660171779821" stroke-width="6" fill="none" stroke="#377eb8" />
<path d="M1224.125,950.2665898254845 L1224.125,980.9834101745155" close="False" data-weight="1.75" stroke-width="6" fill="none" stroke="#377eb8" />
<path d="M1224.125,875.2665898254845 L1224.125,905.9834101745155" close="False" data-weight="1.75" stroke-width="6" fill="none" stroke="#377eb8" />
<path d="M1175.2665898254845,1082.125 L1205.9834101745155,1082.125" close="False" data-weight="1.75" stroke-width="6" fill="none" stroke="#377eb8" />
<path d="M1149.125,1025.2665898254845 L1149.125,1055.9834101745155" close="False" data-weight="1.75" stroke-width="6" fill="none" stroke="#377eb8" />
<path d="M1175.2665898254845,999.125 L1205.9834101745155,999.125" close="False" data-weight="1.75" stroke-width="6" fill="none" stroke="#377eb8" />
<path d="M1700.625,1228.125 A54.31980515339569,54.31980515339569,0,0,0,1679.837710518496,1232.2598489621723 M1679.837710518496,1232.2598489621723 A54.3198051533933,54.3198051533933,0,0,0,1662.2150974233027,1244.0349025766973 M1662.2150974233027,1244.0349025766973" close="False" data-weight="1.0" stroke-width="6" fill="none" stroke="#e41a1c" />
<path d="M1694.0349025766973,1169.0349025766973 C1686.0799512883486,1161.0799512883486,1670.1700487116514,1145.1700487116514,1662.2150974233027,1137.2150974233027" close="False" data-weight="0.0" stroke-width="6" fill="none" stroke="#e41a1c" />
<path d="M1619.0349025766973,1287.2150974233027 C1611.0799512883486,1295.1700487116514,1595.1700487116514,1311.0799512883486,1587.2150974233027,1319.0349025766973" close="False" data-weight="0.0" stroke-width="6" fill="none" stroke="#e41a1c" />
<path d="M1619.0349025766973,1094.0349025766973 A54.3198051533949,54.3198051533949,0,0,0,1601.412289481504,1082.2598489621723 M1601.412289481504,1082.2598489621723 A54.3198051533941,54.3198051533941,0,0,0,1580.625,1078.125 M1580.625,1078.125" close="False" data-weight="1.0" stroke-width="6" fill="none" stroke="#e41a1c" />
<path d="M1550.625,1078.125 C1539.375,1078.125,1516.875,1078.125,1505.625,1078.125" close="False" data-weight="0.0" stroke-width="6" fill="none" stroke="#e41a1c" />
<path d="M1465.9530411871347,1434.640104563373 C1458.1248070311942,1442.4683387193134,1442.4683387193134,1458.1248070311942,1434.640104563373,1465.9530411871347" close="False" data-weight="0.0" stroke-width="6" fill="none" stroke="#e41a1c" />
<path d="M1475.625,1078.125 C1464.375,1078.125,1441.875,1078.125,1430.625,1078.125" close="False" data-weight="0.0" stroke-width="6" fill="none" stroke="#e41a1c" />
<path d="M1390.9530411871049,1509.6401045634027 C1383.1248070311792,1517.4683387193284,1367.4683387193284,1533.1248070311792,1359.6401045634027,1540.9530411871049" close="False" data-weight="0.0" stroke-width="6" fill="none" stroke="#e41a1c" />
<path d="M1400.625,1078.125 C1389.375,1078.125,1366.875,1078.125,1355.625,1078.125" close="False" data-weight="0.0" stroke-width="6" fill="none" stroke="#e41a1c" />
<path d="M1315.9530411871347,1584.640104563373 C1308.1248070311942,1592.4683387193134,1292.4683387193134,1608.1248070311942,1284.640104563373,1615.9530411871347" close="False" data-weight="0.0" stroke-width="6" fill="none" stroke="#e41a1c" />
<path d="M1325.625,1078.125 C1314.375,1078.125,1291.875,1078.125,1280.625,1078.125" close="False" data-weight="0.0" stroke-width="6" fill="none" stroke="#e41a1c" />
<path d="M944.0349025766973,1619.0349025766973 C936.0799512883486,1611.0799512883486,920.1700487116514,1595.1700487116514,912.2150974233027,1587.2150974233027" close="False" data-weight="0.0" stroke-width="6" fill="none" stroke="#e41a1c" />
<path d="M869.0349025766973,1544.0349025766973 C861.0799512883486,1536.0799512883486,845.1700487116514,1520.1700487116514,837.2150974233027,1512.2150974233027" close="False" data-weight="0.0" stroke-width="6" fill="none" stroke="#e41a1c" />
<path d="M794.0349025766973,1469.0349025766973 A54.31980515339554,54.31980515339554,0,0,0,776.412289481504,1457.259848962172 M776.412289481504,1457.259848962172 A54.319805153393645,54.319805153393645,0,0,0,755.625,1453.125 M755.625,1453.125" close="False" data-weight="1.0" stroke-width="6" fill="none" stroke="#e41a1c" />
<path d="M725.625,1453.125 C714.375,1453.125,691.875,1453.125,680.625,1453.125" close="False" data-weight="0.0" stroke-width="6" fill="none" stroke="#e41a1c" />
<path d="M500.625,928.125 C489.375,928.125,466.875,928.125,455.625,928.125" close="False" data-weight="0.0" stroke-width="6" fill="none" stroke="#e41a1c" />
<path d="M425.625,928.125 C414.375,928.125,391.875,928.125,380.625,928.125" close="False" data-weight="0.0" stroke-width="6" fill="none" stroke="#e41a1c" />
<path d="M350.625,928.125 C339.375,928.125,316.875,928.125,305.625,928.125" close="False" data-weight="0.0" stroke-width="6" fill="none" stroke="#e41a1c" />
<path d="M275.625,928.125 C264.375,928.125,241.875,928.125,230.625,928.125" close="False" data-weight="0.0" stroke-width="6" fill="none" stroke="#e41a1c" />
<path d="M178.125,1205.625 C178.125,1216.875,178.125,1239.375,178.125,1250.625" close="False" data-weight="0.0" stroke-width="6" fill="none" stroke="#e41a1c" />
<path d="M178.125,1130.625 C178.125,1141.875,178.125,1164.375,178.125,1175.625" close="False" data-weight="0.0" stroke-width="6" fill="none" stroke="#e41a1c" />
<path d="M178.125,1100.625 A54.31980515339286,54.31980515339286,0,0,0,173.99015103782762,1079.837710518496 M173.99015103782762,1079.837710518496 A54.319805153396246,54.319805153396246,0,0,0,162.21509742330267,1062.2150974233027 M162.21509742330267,1062.2150974233027" close="False" data-weight="1.0" stroke-width="6" fill="none" stroke="#e41a1c" />
<path d="M200.625,928.125 C189.41989083568683,928.125,167.18851933882866,932.125,155.98341017451548,932.125" close="False" data-weight="0.0" stroke-width="6" fill="none" stroke="#e41a1c" />
<path d="M1700.625,1228.125 L1730.625,1228.125" close="False" data-weight="1.75" stroke-width="6" fill="none" stroke="#e41a1c" />
<path d="M1694.0349025766973,1169.0349025766973 L1737.2150974233027,1212.2150974233027" close="False" data-weight="2.060660171779821" stroke-width="6" fill="none" stroke="#e41a1c" />
<path d="M1619.0349025766973,1287.2150974233027 L1662.2150974233027,1244.0349025766973" close="False" data-weight="2.060660171779821" stroke-width="6" fill="none" stroke="#e41a1c" />
<path d="M1619.0349025766973,1094.0349025766973 L1662.2150974233027,1137.2150974233027" close="False" data-weight="2.060660171779821" stroke-width="6" fill="none" stroke="#e41a1c" />
<path d="M1544.0349025766973,1362.2150974233027 L1587.2150974233027,1319.0349025766973" close="False" data-weight="2.060660171779821" stroke-width="6" fill="none" stroke="#e41a1c" />
<path d="M1550.625,1078.125 L1580.625,1078.125" close="False" data-weight="1.75" stroke-width="6" fill="none" stroke="#e41a1c" />
<path d="M1465.9530411871347,1434.640104563373 L1509.6401045634027,1390.9530411871049" close="False" data-weight="2.060660171779821" stroke-width="6" fill="none" stroke="#e41a1c" />
<path d="M1475.625,1078.125 L1505.625,1078.125" close="False" data-weight="1.75" stroke-width="6" fill="none" stroke="#e41a1c" />
<path d="M1390.9530411871049,1509.6401045634027 L1434.640104563373,1465.9530411871347" close="False" data-weight="2.060660171779821" stroke-width="6" fill="none" stroke="#e41a1c" />
<path d="M1400.625,1078.125 L1430.625,1078.125" close="False" data-weight="1.75" stroke-width="6" fill="none" stroke="#e41a1c" />
<path d="M1315.9530411871347,1584.640104563373 L1359.6401045634027,1540.9530411871049" close="False" data-weight="2.060660171779821" stroke-width="6" fill="none" stroke="#e41a1c" />
<path d="M1325.625,1078.125 L1355.625,1078.125" close="False" data-weight="1.75" stroke-width="6" fill="none" stroke="#e41a1c" />
<path d="M1224.125,1775.2665898254845 L1224.125,1805.9834101745155" close="False" data-weight="1.75" stroke-width="6" fill="none" stroke="#e41a1c" />
<path d="M1224.125,1700.2665898254845 L1224.125,1730.9834101745155" close="False" data-weight="1.75" stroke-width="6" fill="none" stroke="#e41a1c" />
<path d="M1240.9530411871049,1659.6401045634027 L1284.640104563373,1615.9530411871347" close="False" data-weight="2.060660171779821" stroke-width="6" fill="none" stroke="#e41a1c" />
<path d="M1250.625,1078.125 L1280.625,1078.125" close="False" data-weight="1.75" stroke-width="6" fill="none" stroke="#e41a1c" />
<path d="M1232.125,950.2665898254845 L1232.125,980.9834101745155" close="False" data-weight="1.75" stroke-width="6" fill="none" stroke="#e41a1c" />
<path d="M1232.125,875.2665898254845 L1232.125,905.9834101745155" close="False" data-weight="1.75" stroke-width="6" fill="none" stroke="#e41a1c" />
<path d="M1175.2665898254845,1824.125 L1205.9834101745155,1824.125" close="False" data-weight="1.75" stroke-width="6" fill="none" stroke="#e41a1c" />
<path d="M1157.125,1775.2665898254845 L1157.125,1805.9834101745155" close="False" data-weight="1.75" stroke-width="6" fill="none" stroke="#e41a1c" />
<path d="M1153.125,1700.625 L1153.125,1730.625" close="False" data-weight="1.75" stroke-width="6" fill="none" stroke="#e41a1c" />
<path d="M1157.125,1625.2665898254845 L1157.125,1655.9834101745155" close="False" data-weight="1.75" stroke-width="6" fill="none" stroke="#e41a1c" />
<path d="M1175.2665898254845,1074.125 L1205.9834101745155,1074.125" close="False" data-weight="1.75" stroke-width="6" fill="none" stroke="#e41a1c" />
<path d="M1157.125,1025.2665898254845 L1157.125,1055.9834101745155" close="False" data-weight="1.75" stroke-width="6" fill="none" stroke="#e41a1c" />
<path d="M1175.2665898254845,1007.125 L1205.9834101745155,1007.125" close="False" data-weight="1.75" stroke-width="6" fill="none" stroke="#e41a1c" />
<path d="M1082.125,1775.2665898254845 L1082.125,1805.9834101745155" close="False" data-weight="1.75" stroke-width="6" fill="none" stroke="#e41a1c" />
<path d="M1078.125,1700.625 L1078.125,1730.625" close="False" data-weight="1.75" stroke-width="6" fill="none" stroke="#e41a1c" />
<path d="M1078.125,1625.625 L1078.125,1655.625" close="False" data-weight="1.75" stroke-width="6" fill="none" stroke="#e41a1c" />
<path d="M1100.2665898254845,1599.125 L1130.9834101745155,1599.125" close="False" data-weight="1.75" stroke-width="6" fill="none" stroke="#e41a1c" />
<path d="M1025.2665898254845,1832.125 L1055.9834101745155,1832.125" close="False" data-weight="1.75" stroke-width="6" fill="none" stroke="#e41a1c" />
<path d="M999.125,1775.2665898254845 L999.125,1805.9834101745155" close="False" data-weight="1.75" stroke-width="6" fill="none" stroke="#e41a1c" />
<path d="M999.125,1700.2665898254845 L999.125,1730.9834101745155" close="False" data-weight="1.75" stroke-width="6" fill="none" stroke="#e41a1c" />
<path d="M944.0349025766973,1619.0349025766973 L987.2150974233027,1662.2150974233027" close="False" data-weight="2.060660171779821" stroke-width="6" fill="none" stroke="#e41a1c" />
<path d="M869.0349025766973,1544.0349025766973 L912.2150974233027,1587.2150974233027" close="False" data-weight="2.060660171779821" stroke-width="6" fill="none" stroke="#e41a1c" />
<path d="M794.0349025766973,1469.0349025766973 L837.2150974233027,1512.2150974233027" close="False" data-weight="2.060660171779821" stroke-width="6" fill="none" stroke="#e41a1c" />
<path d="M725.625,1453.125 L755.625,1453.125" close="False" data-weight="1.75" stroke-width="6" fill="none" stroke="#e41a1c" />
<path d="M650.625,1453.125 L680.625,1453.125" close="False" data-weight="1.75" stroke-width="6" fill="none" stroke="#e41a1c" />
<path d="M628.125,1400.625 L628.125,1430.625" close="False" data-weight="1.75" stroke-width="6" fill="none" stroke="#e41a1c" />
<path d="M553.125,1475.625 L553.125,1505.625" close="False" data-weight="1.75" stroke-width="6" fill="none" stroke="#e41a1c" />
<path d="M575.625,1378.125 L605.625,1378.125" close="False" data-weight="1.75" stroke-width="6" fill="none" stroke="#e41a1c" />
<path d="M553.125,1325.625 L553.125,1355.625" close="False" data-weight="1.75" stroke-width="6" fill="none" stroke="#e41a1c" />
<path d="M557.125,875.2665898254845 L557.125,905.9834101745155" close="False" data-weight="1.75" stroke-width="6" fill="none" stroke="#e41a1c" />
<path d="M557.125,800.2665898254845 L557.125,830.9834101745155" close="False" data-weight="1.75" stroke-width="6" fill="none" stroke="#e41a1c" />
<path d="M500.625,1528.125 L530.625,1528.125" close="False" data-weight="1.75" stroke-width="6" fill="none" stroke="#e41a1c" />
<path d="M500.625,1453.125 L530.625,1453.125" close="False" data-weight="1.75" stroke-width="6" fill="none" stroke="#e41a1c" />
<path d="M478.125,1400.625 L478.125,1430.625" close="False" data-weight="1.75" stroke-width="6" fill="none" stroke="#e41a1c" />
<path d="M500.625,1303.125 L530.625,1303.125" close="False" data-weight="1.75" stroke-width="6" fill="none" stroke="#e41a1c" />
<path d="M500.625,928.125 L530.625,928.125" close="False" data-weight="1.75" stroke-width="6" fill="none" stroke="#e41a1c" />
<path d="M500.2665898254845,774.125 L530.9834101745155,774.125" close="False" data-weight="1.75" stroke-width="6" fill="none" stroke="#e41a1c" />
<path d="M482.125,725.2665898254845 L482.125,755.9834101745155" close="False" data-weight="1.75" stroke-width="6" fill="none" stroke="#e41a1c" />
<path d="M482.125,650.2665898254845 L482.125,680.9834101745155" close="False" data-weight="1.75" stroke-width="6" fill="none" stroke="#e41a1c" />
<path d="M425.625,1528.125 L455.625,1528.125" close="False" data-weight="1.75" stroke-width="6" fill="none" stroke="#e41a1c" />
<path d="M403.125,1475.625 L403.125,1505.625" close="False" data-weight="1.75" stroke-width="6" fill="none" stroke="#e41a1c" />
<path d="M425.625,1378.125 L455.625,1378.125" close="False" data-weight="1.75" stroke-width="6" fill="none" stroke="#e41a1c" />
<path d="M425.625,1303.125 L455.625,1303.125" close="False" data-weight="1.75" stroke-width="6" fill="none" stroke="#e41a1c" />
<path d="M425.625,928.125 L455.625,928.125" close="False" data-weight="1.75" stroke-width="6" fill="none" stroke="#e41a1c" />
<path d="M328.125,1475.625 L328.125,1505.625" close="False" data-weight="1.75" stroke-width="6" fill="none" stroke="#e41a1c" />
<path d="M350.625,1453.125 L380.625,1453.125" close="False" data-weight="1.75" stroke-width="6" fill="none" stroke="#e41a1c" />
<path d="M350.625,1378.125 L380.625,1378.125" close="False" data-weight="1.75" stroke-width="6" fill="none" stroke="#e41a1c" />
<path d="M328.125,1325.625 L328.125,1355.625" close="False" data-weight="1.75" stroke-width="6" fill="none" stroke="#e41a1c" />
<path d="M350.625,1303.125 L380.625,1303.125" close="False" data-weight="1.75" stroke-width="6" fill="none" stroke="#e41a1c" />
<path d="M350.625,928.125 L380.625,928.125" close="False" data-weight="1.75" stroke-width="6" fill="none" stroke="#e41a1c" />
<path d="M275.625,1528.125 L305.625,1528.125" close="False" data-weight="1.75" stroke-width="6" fill="none" stroke="#e41a1c" />
<path d="M253.125,1475.625 L253.125,1505.625" close="False" data-weight="1.75" stroke-width="6" fill="none" stroke="#e41a1c" />
<path d="M253.125,1325.625 L253.125,1355.625" close="False" data-weight="1.75" stroke-width="6" fill="none" stroke="#e41a1c" />
<path d="M275.625,928.125 L305.625,928.125" close="False" data-weight="1.75" stroke-width="6" fill="none" stroke="#e41a1c" />
<path d="M200.625,1453.125 L230.625,1453.125" close="False" data-weight="1.75" stroke-width="6" fill="none" stroke="#e41a1c" />
<path d="M200.625,1378.125 L230.625,1378.125" close="False" data-weight="1.75" stroke-width="6" fill="none" stroke="#e41a1c" />
<path d="M200.625,1303.125 L230.625,1303.125" close="False" data-weight="1.75" stroke-width="6" fill="none" stroke="#e41a1c" />
<path d="M178.125,1250.625 L178.125,1280.625" close="False" data-weight="1.75" stroke-width="6" fill="none" stroke="#e41a1c" />
<path d="M178.125,1175.625 L178.125,1205.625" close="False" data-weight="1.75" stroke-width="6" fill="none" stroke="#e41a1c" />
<path d="M178.125,1100.625 L178.125,1130.625" close="False" data-weight="1.75" stroke-width="6" fill="none" stroke="#e41a1c" />
<path d="M200.625,928.125 L230.625,928.125" close="False" data-weight="1.75" stroke-width="6" fill="none" stroke="#e41a1c" />
<path d="M119.03490257669732,1394.0349025766973 L162.2150974233027,1437.2150974233027" close="False" data-weight="2.060660171779821" stroke-width="6" fill="none" stroke="#e41a1c" />
<path d="M125.625,1378.125 L155.625,1378.125" close="False" data-weight="1.75" stroke-width="6" fill="none" stroke="#e41a1c" />
<path d="M119.03490257669732,1019.0349025766973 L162.2150974233027,1062.2150974233027" close="False" data-weight="2.060660171779821" stroke-width="6" fill="none" stroke="#e41a1c" />
<path d="M107.125,950.2665898254845 L107.125,980.9834101745155" close="False" data-weight="1.75" stroke-width="6" fill="none" stroke="#e41a1c" />
<path d="M125.26658982548453,932.125 L155.98341017451548,932.125" close="False" data-weight="1.75" stroke-width="6" fill="none" stroke="#e41a1c" />
<image x="2395.625" y="1570.625" width="65" height="65" xlink:href="designspace-test/./img/ds_dataset3_80_17_thumb.png">
<title>17</title>
</image>
<image x="2395.625" y="1270.625" width="65" height="65" xlink:href="designspace-test/./img/ds_dataset3_80_66_thumb.png">
<title>66</title>
</image>
<image x="2395.625" y="820.625" width="65" height="65" xlink:href="designspace-test/./img/ds_dataset3_80_51_thumb.png">
<title>51</title>
</image>
<image x="2320.625" y="1495.625" width="65" height="65" xlink:href="designspace-test/./img/ds_dataset3_80_25_thumb.png">
<title>25</title>
</image>
<image x="2320.625" y="745.625" width="65" height="65" xlink:href="designspace-test/./img/ds_dataset3_80_76_thumb.png">
<title>76</title>
</image>
<image x="2320.625" y="670.625" width="65" height="65" xlink:href="designspace-test/./img/ds_dataset3_80_44_thumb.png">
<title>44</title>
</image>
<image x="2320.625" y="595.625" width="65" height="65" xlink:href="designspace-test/./img/ds_dataset3_80_9_thumb.png">
<title>9</title>
</image>
<image x="2245.625" y="670.625" width="65" height="65" xlink:href="designspace-test/./img/ds_dataset3_80_12_thumb.png">
<title>12</title>
</image>
<image x="2245.625" y="595.625" width="65" height="65" xlink:href="designspace-test/./img/ds_dataset3_80_5_thumb.png">
<title>5</title>
</image>
<image x="2245.625" y="520.625" width="65" height="65" xlink:href="designspace-test/./img/ds_dataset3_80_28_thumb.png">
<title>28</title>
</image>
<image x="2170.625" y="1870.625" width="65" height="65" xlink:href="designspace-test/./img/ds_dataset3_80_71_thumb.png">
<title>71</title>
</image>
<image x="2095.625" y="1795.625" width="65" height="65" xlink:href="designspace-test/./img/ds_dataset3_80_59_thumb.png">
<title>59</title>
</image>
<image x="2095.625" y="1720.625" width="65" height="65" xlink:href="designspace-test/./img/ds_dataset3_80_30_thumb.png">
<title>30</title>
</image>
<image x="2095.625" y="520.625" width="65" height="65" xlink:href="designspace-test/./img/ds_dataset3_80_32_thumb.png">
<title>32</title>
</image>
<image x="2020.625" y="1795.625" width="65" height="65" xlink:href="designspace-test/./img/ds_dataset3_80_38_thumb.png">
<title>38</title>
</image>
<image x="2020.625" y="1720.625" width="65" height="65" xlink:href="designspace-test/./img/ds_dataset3_80_15_thumb.png">
<title>15</title>
</image>
<image x="1795.625" y="370.625" width="65" height="65" xlink:href="designspace-test/./img/ds_dataset3_80_29_thumb.png">
<title>29</title>
</image>
<image x="1720.625" y="1195.625" width="65" height="65" xlink:href="designspace-test/./img/ds_dataset3_80_54_thumb.png">
<title>54</title>
</image>
<image x="1570.625" y="145.625" width="65" height="65" xlink:href="designspace-test/./img/ds_dataset3_80_36_thumb.png">
<title>36</title>
</image>
<image x="1495.625" y="1345.625" width="65" height="65" xlink:href="designspace-test/./img/ds_dataset3_80_27_thumb.png">
<title>27</title>
</image>
<image x="1195.625" y="2395.625" width="65" height="65" xlink:href="designspace-test/./img/ds_dataset3_80_49_thumb.png">
<title>49</title>
</image>
<image x="1195.625" y="1795.625" width="65" height="65" xlink:href="designspace-test/./img/ds_dataset3_80_77_thumb.png">
<title>77</title>
</image>
<image x="1195.625" y="1720.625" width="65" height="65" xlink:href="designspace-test/./img/ds_dataset3_80_60_thumb.png">
<title>60</title>
</image>
<image x="1195.625" y="1645.625" width="65" height="65" xlink:href="designspace-test/./img/ds_dataset3_80_67_thumb.png">
<title>67</title>
</image>
<image x="1195.625" y="1045.625" width="65" height="65" xlink:href="designspace-test/./img/ds_dataset3_80_69_thumb.png">
<title>69</title>
</image>
<image x="1195.625" y="970.625" width="65" height="65" xlink:href="designspace-test/./img/ds_dataset3_80_1_thumb.png">
<title>1</title>
</image>
<image x="1195.625" y="895.625" width="65" height="65" xlink:href="designspace-test/./img/ds_dataset3_80_19_thumb.png">
<title>19</title>
</image>
<image x="1195.625" y="820.625" width="65" height="65" xlink:href="designspace-test/./img/ds_dataset3_80_47_thumb.png">
<title>47</title>
</image>
<image x="1195.625" y="145.625" width="65" height="65" xlink:href="designspace-test/./img/ds_dataset3_80_75_thumb.png">
<title>75</title>
</image>
<image x="1120.625" y="1795.625" width="65" height="65" xlink:href="designspace-test/./img/ds_dataset3_80_64_thumb.png">
<title>64</title>
</image>
<image x="1120.625" y="1720.625" width="65" height="65" xlink:href="designspace-test/./img/ds_dataset3_80_70_thumb.png">
<title>70</title>
</image>
<image x="1120.625" y="1645.625" width="65" height="65" xlink:href="designspace-test/./img/ds_dataset3_80_79_thumb.png">
<title>79</title>
</image>
<image x="1120.625" y="1570.625" width="65" height="65" xlink:href="designspace-test/./img/ds_dataset3_80_43_thumb.png">
<title>43</title>
</image>
<image x="1120.625" y="1045.625" width="65" height="65" xlink:href="designspace-test/./img/ds_dataset3_80_73_thumb.png">
<title>73</title>
</image>
<image x="1120.625" y="970.625" width="65" height="65" xlink:href="designspace-test/./img/ds_dataset3_80_21_thumb.png">
<title>21</title>
</image>
<image x="1045.625" y="1795.625" width="65" height="65" xlink:href="designspace-test/./img/ds_dataset3_80_18_thumb.png">
<title>18</title>
</image>
<image x="1045.625" y="1720.625" width="65" height="65" xlink:href="designspace-test/./img/ds_dataset3_80_72_thumb.png">
<title>72</title>
</image>
<image x="1045.625" y="1645.625" width="65" height="65" xlink:href="designspace-test/./img/ds_dataset3_80_56_thumb.png">
<title>56</title>
</image>
<image x="1045.625" y="1570.625" width="65" height="65" xlink:href="designspace-test/./img/ds_dataset3_80_13_thumb.png">
<title>13</title>
</image>
<image x="970.625" y="1795.625" width="65" height="65" xlink:href="designspace-test/./img/ds_dataset3_80_37_thumb.png">
<title>37</title>
</image>
<image x="970.625" y="1720.625" width="65" height="65" xlink:href="designspace-test/./img/ds_dataset3_80_0_thumb.png">
<title>0</title>
</image>
<image x="970.625" y="1645.625" width="65" height="65" xlink:href="designspace-test/./img/ds_dataset3_80_34_thumb.png">
<title>34</title>
</image>
<image x="895.625" y="220.625" width="65" height="65" xlink:href="designspace-test/./img/ds_dataset3_80_46_thumb.png">
<title>46</title>
</image>
<image x="895.625" y="145.625" width="65" height="65" xlink:href="designspace-test/./img/ds_dataset3_80_42_thumb.png">
<title>42</title>
</image>
<image x="820.625" y="145.625" width="65" height="65" xlink:href="designspace-test/./img/ds_dataset3_80_8_thumb.png">
<title>8</title>
</image>
<image x="595.625" y="1420.625" width="65" height="65" xlink:href="designspace-test/./img/ds_dataset3_80_78_thumb.png">
<title>78</title>
</image>
<image x="595.625" y="1345.625" width="65" height="65" xlink:href="designspace-test/./img/ds_dataset3_80_68_thumb.png">
<title>68</title>
</image>
<image x="520.625" y="1495.625" width="65" height="65" xlink:href="designspace-test/./img/ds_dataset3_80_58_thumb.png">
<title>58</title>
</image>
<image x="520.625" y="1420.625" width="65" height="65" xlink:href="designspace-test/./img/ds_dataset3_80_57_thumb.png">
<title>57</title>
</image>
<image x="520.625" y="1345.625" width="65" height="65" xlink:href="designspace-test/./img/ds_dataset3_80_65_thumb.png">
<title>65</title>
</image>
<image x="520.625" y="1270.625" width="65" height="65" xlink:href="designspace-test/./img/ds_dataset3_80_63_thumb.png">
<title>63</title>
</image>
<image x="520.625" y="895.625" width="65" height="65" xlink:href="designspace-test/./img/ds_dataset3_80_45_thumb.png">
<title>45</title>
</image>
<image x="520.625" y="820.625" width="65" height="65" xlink:href="designspace-test/./img/ds_dataset3_80_33_thumb.png">
<title>33</title>
</image>
<image x="520.625" y="745.625" width="65" height="65" xlink:href="designspace-test/./img/ds_dataset3_80_53_thumb.png">
<title>53</title>
</image>
<image x="445.625" y="1495.625" width="65" height="65" xlink:href="designspace-test/./img/ds_dataset3_80_62_thumb.png">
<title>62</title>
</image>
<image x="445.625" y="1420.625" width="65" height="65" xlink:href="designspace-test/./img/ds_dataset3_80_55_thumb.png">
<title>55</title>
</image>
<image x="445.625" y="1345.625" width="65" height="65" xlink:href="designspace-test/./img/ds_dataset3_80_24_thumb.png">
<title>24</title>
</image>
<image x="445.625" y="1270.625" width="65" height="65" xlink:href="designspace-test/./img/ds_dataset3_80_23_thumb.png">
<title>23</title>
</image>
<image x="445.625" y="745.625" width="65" height="65" xlink:href="designspace-test/./img/ds_dataset3_80_40_thumb.png">
<title>40</title>
</image>
<image x="445.625" y="670.625" width="65" height="65" xlink:href="designspace-test/./img/ds_dataset3_80_35_thumb.png">
<title>35</title>
</image>
<image x="445.625" y="595.625" width="65" height="65" xlink:href="designspace-test/./img/ds_dataset3_80_11_thumb.png">
<title>11</title>
</image>
<image x="445.625" y="70.625" width="65" height="65" xlink:href="designspace-test/./img/ds_dataset3_80_74_thumb.png">
<title>74</title>
</image>
<image x="370.625" y="1495.625" width="65" height="65" xlink:href="designspace-test/./img/ds_dataset3_80_50_thumb.png">
<title>50</title>
</image>
<image x="370.625" y="1420.625" width="65" height="65" xlink:href="designspace-test/./img/ds_dataset3_80_41_thumb.png">
<title>41</title>
</image>
<image x="370.625" y="1345.625" width="65" height="65" xlink:href="designspace-test/./img/ds_dataset3_80_22_thumb.png">
<title>22</title>
</image>
<image x="370.625" y="1270.625" width="65" height="65" xlink:href="designspace-test/./img/ds_dataset3_80_20_thumb.png">
<title>20</title>
</image>
<image x="295.625" y="1495.625" width="65" height="65" xlink:href="designspace-test/./img/ds_dataset3_80_16_thumb.png">
<title>16</title>
</image>
<image x="295.625" y="1420.625" width="65" height="65" xlink:href="designspace-test/./img/ds_dataset3_80_14_thumb.png">
<title>14</title>
</image>
<image x="295.625" y="1345.625" width="65" height="65" xlink:href="designspace-test/./img/ds_dataset3_80_52_thumb.png">
<title>52</title>
</image>
<image x="295.625" y="1270.625" width="65" height="65" xlink:href="designspace-test/./img/ds_dataset3_80_48_thumb.png">
<title>48</title>
</image>
<image x="220.625" y="1495.625" width="65" height="65" xlink:href="designspace-test/./img/ds_dataset3_80_7_thumb.png">
<title>7</title>
</image>
<image x="220.625" y="1420.625" width="65" height="65" xlink:href="designspace-test/./img/ds_dataset3_80_6_thumb.png">
<title>6</title>
</image>
<image x="220.625" y="1345.625" width="65" height="65" xlink:href="designspace-test/./img/ds_dataset3_80_39_thumb.png">
<title>39</title>
</image>
<image x="220.625" y="1270.625" width="65" height="65" xlink:href="designspace-test/./img/ds_dataset3_80_31_thumb.png">
<title>31</title>
</image>
<image x="145.625" y="1420.625" width="65" height="65" xlink:href="designspace-test/./img/ds_dataset3_80_26_thumb.png">
<title>26</title>
</image>
<image x="145.625" y="1345.625" width="65" height="65" xlink:href="designspace-test/./img/ds_dataset3_80_4_thumb.png">
<title>4</title>
</image>
<image x="145.625" y="1270.625" width="65" height="65" xlink:href="designspace-test/./img/ds_dataset3_80_3_thumb.png">
<title>3</title>
</image>
<image x="70.625" y="1345.625" width="65" height="65" xlink:href="designspace-test/./img/ds_dataset3_80_10_thumb.png">
<title>10</title>
</image>
<image x="70.625" y="970.625" width="65" height="65" xlink:href="designspace-test/./img/ds_dataset3_80_61_thumb.png">
<title>61</title>
</image>
<image x="70.625" y="895.625" width="65" height="65" xlink:href="designspace-test/./img/ds_dataset3_80_2_thumb.png">
<title>2</title>
</image>
</svg>