<?xml version="1.0" encoding="UTF-8"?>
<svg xmlns="http://www.w3.org/2000/svg" xmlns:xlink="http://www.w3.org/1999/xlink"
     viewBox="0 0 1350 1350" preserveAspectRatio="xMidYMid meet">
<defs>
</defs>
<path d="M944.0349025766973,869.0349025766973 C936.0799512883486,861.0799512883486,920.1700487116514,845.1700487116514,912.2150974233027,837.2150974233027" close="False" data-weight="0.0" stroke-width="7" fill="none" stroke="#1fa562" />
<path d="M869.0349025766973,794.0349025766973 C861.0799512883486,786.0799512883486,845.1700487116514,770.1700487116514,837.2150974233027,762.2150974233027" close="False" data-weight="0.0" stroke-width="7" fill="none" stroke="#1fa562" />
<path d="M794.0349025766973,719.0349025766973 C786.0799512883486,711.0799512883486,770.1700487116514,695.1700487116514,762.2150974233027,687.2150974233027" close="False" data-weight="0.0" stroke-width="7" fill="none" stroke="#1fa562" />
<path d="M719.0349025766973,644.0349025766973 C711.0799512883486,636.0799512883486,695.1700487116514,620.1700487116514,687.2150974233027,612.2150974233027" close="False" data-weight="0.0" stroke-width="7" fill="none" stroke="#1fa562" />
<path d="M644.0349025766973,569.0349025766973 C636.0799512883486,561.0799512883486,620.1700487116514,545.1700487116514,612.2150974233027,537.2150974233027" close="False" data-weight="0.0" stroke-width="7" fill="none" stroke="#1fa562" />
<path d="M569.0349025766973,494.03490257669733 C561.0799512883486,486.0799512883487,545.1700487116514,470.1700487116513,537.2150974233027,462.21509742330267" close="False" data-weight="0.0" stroke-width="7" fill="none" stroke="#1fa562" />
<path d="M494.03490257669733,419.03490257669733 C486.07995128834864,411.07995128834864,470.17004871165136,395.17004871165136,462.21509742330267,387.21509742330267" close="False" data-weight="0.0" stroke-width="7" fill="none" stroke="#1fa562" />
<path d="M407.625,306.0795923149514 A103.64933488289921,103.64933488289921,0,0,0,409.67111817789987,326.57278574263205 M409.67111817789987,326.57278574263205 A34.28043425550459,34.28043425550459,0,0,0,419.03490257669733,344.03490257669733 M419.03490257669733,344.03490257669733" close="False" data-weight="1.0" stroke-width="7" fill="none" stroke="#1fa562" />
<path d="M944.0349025766973,869.0349025766973 L987.2150974233027,912.2150974233027" close="False" data-weight="2.060660171779821" stroke-width="7" fill="none" stroke="#1fa562" />
<path d="M869.0349025766973,794.0349025766973 L912.2150974233027,837.2150974233027" close="False" data-weight="2.060660171779821" stroke-width="7" fill="none" stroke="#1fa562" />
<path d="M794.0349025766973,719.0349025766973 L837.2150974233027,762.2150974233027" close="False" data-weight="2.060660171779821" stroke-width="7" fill="none" stroke="#1fa562" />
<path d="M719.0349025766973,644.0349025766973 L762.2150974233027,687.2150974233027" close="False" data-weight="2.060660171779821" stroke-width="7" fill="none" stroke="#1fa562" />
<path d="M644.0349025766973,569.0349025766973 L687.2150974233027,612.2150974233027" close="False" data-weight="2.060660171779821" stroke-width="7" fill="none" stroke="#1fa562" />
<path d="M569.0349025766973,494.03490257669733 L612.2150974233027,537.2150974233027" close="False" data-weight="2.060660171779821" stroke-width="7" fill="none" stroke="#1fa562" />
<path d="M494.03490257669733,419.03490257669733 L537.2150974233027,462.21509742330267" close="False" data-weight="2.060660171779821" stroke-width="7" fill="none" stroke="#1fa562" />
<path d="M419.03490257669733,344.03490257669733 L462.21509742330267,387.21509742330267" close="False" data-weight="2.060660171779821" stroke-width="7" fill="none" stroke="#1fa562" />
<path d="M407.625,275.1704076850486 L407.625,306.0795923149514" close="False" data-weight="1.75" stroke-width="7" fill="none" stroke="#1fa562" />
<path d="M1228.125,380.625 C1228.125,391.875,1228.125,414.375,1228.125,425.625" close="False" data-weight="0.0" stroke-width="7" fill="none" stroke="#ff1c5d" />
<path d="M1228.125,305.625 C1228.125,316.875,1228.125,339.375,1228.125,350.625" close="False" data-weight="0.0" stroke-width="7" fill="none" stroke="#ff1c5d" />
<path d="M1228.125,275.625 A54.3198051533966,54.3198051533966,0,0,0,1223.990151037828,254.8377105184959 M1223.990151037828,254.8377105184959 A54.31980515339265,54.31980515339265,0,0,0,1212.2150974233027,237.21509742330267 M1212.2150974233027,237.21509742330267" close="False" data-weight="1.0" stroke-width="7" fill="none" stroke="#ff1c5d" />
<path d="M1153.125,1130.625 C1153.125,1141.875,1153.125,1164.375,1153.125,1175.625" close="False" data-weight="0.0" stroke-width="7" fill="none" stroke="#ff1c5d" />
<path d="M1153.125,1055.625 C1153.125,1066.875,1153.125,1089.375,1153.125,1100.625" close="False" data-weight="0.0" stroke-width="7" fill="none" stroke="#ff1c5d" />
<path d="M1153.125,1025.625 A54.31980515339637,54.31980515339637,0,0,0,1148.990151037828,1004.837710518496 M1148.990151037828,1004.837710518496 A54.31980515339265,54.31980515339265,0,0,0,1137.2150974233027,987.2150974233027 M1137.2150974233027,987.2150974233027" close="False" data-weight="1.0" stroke-width="7" fill="none" stroke="#ff1c5d" />
<path d="M1165.5314767527802,534.3545622165407 C1157.7372481187185,542.1487908506024,1142.1487908505949,557.737248118726,1134.3545622165332,565.5314767527879" close="False" data-weight="0.0" stroke-width="7" fill="none" stroke="#ff1c5d" />
<path d="M1094.0349025766973,944.0349025766973 C1086.0799512883486,936.0799512883486,1070.1700487116514,920.1700487116514,1062.2150974233027,912.2150974233027" close="False" data-weight="0.0" stroke-width="7" fill="none" stroke="#ff1c5d" />
<path d="M1090.5314767527877,609.3545622165334 C1082.7372481187242,617.148790850597,1067.148790850597,632.7372481187243,1059.3545622165332,640.531476752788" close="False" data-weight="0.0" stroke-width="7" fill="none" stroke="#ff1c5d" />
<path d="M998.625,756.0795923149514 C998.625,767.1022961574756,998.625,789.1477038425244,998.625,800.1704076850486" close="False" data-weight="0.0" stroke-width="7" fill="none" stroke="#ff1c5d" />
<path d="M1015.5314767527877,684.3545622165334 A57.722322221327396,57.722322221327396,0,0,0,1003.0188501520214,703.0810312933183 M1003.0188501520214,703.0810312933183 A57.72232222127445,57.72232222127445,0,0,0,998.625,725.1704076850486 M998.625,725.1704076850486" close="False" data-weight="1.0" stroke-width="7" fill="none" stroke="#ff1c5d" />
<path d="M940.5314767527805,909.3545622165407 A48.72232222128802,48.72232222128802,0,0,1,924.7248178153919,919.9162340553798 M924.7248178153919,919.9162340553798 A48.72232222128889,48.72232222128889,0,0,1,906.0795923149514,923.625 M906.0795923149514,923.625" close="False" data-weight="1.0" stroke-width="7" fill="none" stroke="#ff1c5d" />
<path d="M875.1704076850486,923.625 C864.1477038425244,923.625,842.1022961574756,923.625,831.0795923149514,923.625" close="False" data-weight="0.0" stroke-width="7" fill="none" stroke="#ff1c5d" />
<path d="M800.1704076850486,923.625 C789.1477038425244,923.625,767.1022961574756,923.625,756.0795923149514,923.625" close="False" data-weight="0.0" stroke-width="7" fill="none" stroke="#ff1c5d" />
<path d="M725.1704076850486,923.625 C714.1477038425244,923.625,692.1022961574756,923.625,681.0795923149514,923.625" close="False" data-weight="0.0" stroke-width="7" fill="none" stroke="#ff1c5d" />
<path d="M725.1704076850486,848.625 A57.72232222128764,57.72232222128764,0,0,0,703.0810312933223,853.0188501520187 M703.0810312933223,853.0188501520187 A57.72232222128921,57.72232222128921,0,0,0,684.3545622165407,865.5314767527805 M684.3545622165407,865.5314767527805" close="False" data-weight="1.0" stroke-width="7" fill="none" stroke="#ff1c5d" />
<path d="M698.625,756.0795923149514 A57.72232222128764,57.72232222128764,0,0,0,703.0188501520187,778.1689687066777 M703.0188501520187,778.1689687066777 A57.72232222128921,57.72232222128921,0,0,0,715.5314767527805,796.8954377834593 M715.5314767527805,796.8954377834593" close="False" data-weight="1.0" stroke-width="7" fill="none" stroke="#ff1c5d" />
<path d="M698.625,681.0795923149514 C698.625,692.1022961574756,698.625,714.1477038425244,698.625,725.1704076850486" close="False" data-weight="0.0" stroke-width="7" fill="none" stroke="#ff1c5d" />
<path d="M698.625,606.0795923149514 C698.625,617.1022961574756,698.625,639.1477038425244,698.625,650.1704076850486" close="False" data-weight="0.0" stroke-width="7" fill="none" stroke="#ff1c5d" />
<path d="M698.625,531.0795923149514 C698.625,542.1022961574756,698.625,564.1477038425244,698.625,575.1704076850486" close="False" data-weight="0.0" stroke-width="7" fill="none" stroke="#ff1c5d" />
<path d="M698.625,456.0795923149514 C698.625,467.10229615747573,698.625,489.14770384252427,698.625,500.1704076850486" close="False" data-weight="0.0" stroke-width="7" fill="none" stroke="#ff1c5d" />
<path d="M698.625,381.0795923149514 C698.625,392.10229615747573,698.625,414.14770384252427,698.625,425.1704076850486" close="False" data-weight="0.0" stroke-width="7" fill="none" stroke="#ff1c5d" />
<path d="M644.0349025766973,269.03490257669733 A54.3198051533949,54.3198051533949,0,0,0,626.4122894815039,257.2598489621722 M626.4122894815039,257.2598489621722 A54.31980515339427,54.31980515339427,0,0,0,605.625,253.125 M605.625,253.125" close="False" data-weight="1.0" stroke-width="7" fill="none" stroke="#ff1c5d" />
<path d="M575.1704076850486,923.625 C564.1477038425244,923.625,542.1022961574756,923.625,531.0795923149514,923.625" close="False" data-weight="0.0" stroke-width="7" fill="none" stroke="#ff1c5d" />
<path d="M575.625,253.125 C564.375,253.125,541.875,253.125,530.625,253.125" close="False" data-weight="0.0" stroke-width="7" fill="none" stroke="#ff1c5d" />
<path d="M500.625,253.125 C489.375,253.125,466.875,253.125,455.625,253.125" close="False" data-weight="0.0" stroke-width="7" fill="none" stroke="#ff1c5d" />
<path d="M425.1704076850486,923.625 C414.14770384252427,923.625,392.10229615747573,923.625,381.0795923149514,923.625" close="False" data-weight="0.0" stroke-width="7" fill="none" stroke="#ff1c5d" />
<path d="M403.125,380.625 A54.319805153394555,54.319805153394555,0,0,1,398.9901510378278,401.412289481504 M398.9901510378278,401.412289481504 A54.319805153394825,54.319805153394825,0,0,1,387.21509742330267,419.03490257669733 M387.21509742330267,419.03490257669733" close="False" data-weight="1.0" stroke-width="7" fill="none" stroke="#ff1c5d" />
<path d="M398.625,306.0795923149514 C398.625,317.27262403625906,403.125,339.43196827869235,403.125,350.625" close="False" data-weight="0.0" stroke-width="7" fill="none" stroke="#ff1c5d" />
<path d="M350.1704076850486,923.625 A48.722322221288664,48.722322221288664,0,0,1,331.52518218460807,919.9162340553798 M331.52518218460807,919.9162340553798 A48.722322221287975,48.722322221287975,0,0,1,315.7185232472196,909.3545622165407 M315.7185232472196,909.3545622165407" close="False" data-weight="1.0" stroke-width="7" fill="none" stroke="#ff1c5d" />
<path d="M271.8954377834595,865.5314767527806 C264.1012091493995,857.7372481187206,248.51275188127954,842.1487908506007,240.71852324721957,834.3545622165407" close="False" data-weight="0.0" stroke-width="7" fill="none" stroke="#ff1c5d" />
<path d="M1228.125,425.625 L1228.125,455.625" close="False" data-weight="1.75" stroke-width="7" fill="none" stroke="#ff1c5d" />
<path d="M1228.125,350.625 L1228.125,380.625" close="False" data-weight="1.75" stroke-width="7" fill="none" stroke="#ff1c5d" />
<path d="M1228.125,275.625 L1228.125,305.625" close="False" data-weight="1.75" stroke-width="7" fill="none" stroke="#ff1c5d" />
<path d="M1153.125,1175.625 L1153.125,1205.625" close="False" data-weight="1.75" stroke-width="7" fill="none" stroke="#ff1c5d" />
<path d="M1153.125,1100.625 L1153.125,1130.625" close="False" data-weight="1.75" stroke-width="7" fill="none" stroke="#ff1c5d" />
<path d="M1153.125,1025.625 L1153.125,1055.625" close="False" data-weight="1.75" stroke-width="7" fill="none" stroke="#ff1c5d" />
<path d="M1165.5314767527877,534.3545622165332 L1209.3545622165404,490.53147675278063" close="False" data-weight="2.060660171779821" stroke-width="7" fill="none" stroke="#ff1c5d" />
<path d="M1169.0349025766973,194.03490257669733 L1212.2150974233027,237.2150974233027" close="False" data-weight="2.060660171779821" stroke-width="7" fill="none" stroke="#ff1c5d" />
<path d="M1094.0349025766973,944.0349025766973 L1137.2150974233027,987.2150974233027" close="False" data-weight="2.060660171779821" stroke-width="7" fill="none" stroke="#ff1c5d" />
<path d="M1090.5314767527877,609.3545622165332 L1134.354562216533,565.5314767527882" close="False" data-weight="2.060660171779821" stroke-width="7" fill="none" stroke="#ff1c5d" />
<path d="M1019.0349025766973,869.0349025766973 L1062.2150974233027,912.2150974233027" close="False" data-weight="2.060660171779821" stroke-width="7" fill="none" stroke="#ff1c5d" />
<path d="M998.625,800.1704076850486 L998.625,831.0795923149514" close="False" data-weight="1.75" stroke-width="7" fill="none" stroke="#ff1c5d" />
<path d="M998.625,725.1704076850486 L998.625,756.0795923149514" close="False" data-weight="1.75" stroke-width="7" fill="none" stroke="#ff1c5d" />
<path d="M1015.5314767527805,684.3545622165407 L1059.3545622165407,640.5314767527805" close="False" data-weight="2.060660171779821" stroke-width="7" fill="none" stroke="#ff1c5d" />
<path d="M940.5314767527805,909.3545622165407 L984.3545622165407,865.5314767527805" close="False" data-weight="2.060660171779821" stroke-width="7" fill="none" stroke="#ff1c5d" />
<path d="M875.1704076850486,923.625 L906.0795923149514,923.625" close="False" data-weight="1.75" stroke-width="7" fill="none" stroke="#ff1c5d" />
<path d="M800.1704076850486,923.625 L831.0795923149514,923.625" close="False" data-weight="1.75" stroke-width="7" fill="none" stroke="#ff1c5d" />
<path d="M725.1704076850486,923.625 L756.0795923149514,923.625" close="False" data-weight="1.75" stroke-width="7" fill="none" stroke="#ff1c5d" />
<path d="M725.1704076850486,848.625 L756.0795923149514,848.625" close="False" data-weight="1.75" stroke-width="7" fill="none" stroke="#ff1c5d" />
<path d="M715.5314767527805,796.8954377834593 L759.3545622165407,840.7185232472195" close="False" data-weight="2.060660171779821" stroke-width="7" fill="none" stroke="#ff1c5d" />
<path d="M698.625,725.1704076850486 L698.625,756.0795923149514" close="False" data-weight="1.75" stroke-width="7" fill="none" stroke="#ff1c5d" />
<path d="M698.625,650.1704076850486 L698.625,681.0795923149514" close="False" data-weight="1.75" stroke-width="7" fill="none" stroke="#ff1c5d" />
<path d="M698.625,575.1704076850486 L698.625,606.0795923149514" close="False" data-weight="1.75" stroke-width="7" fill="none" stroke="#ff1c5d" />
<path d="M698.625,500.1704076850486 L698.625,531.0795923149514" close="False" data-weight="1.75" stroke-width="7" fill="none" stroke="#ff1c5d" />
<path d="M698.625,425.1704076850486 L698.625,456.0795923149514" close="False" data-weight="1.75" stroke-width="7" fill="none" stroke="#ff1c5d" />
<path d="M698.625,350.1704076850486 L698.625,381.0795923149514" close="False" data-weight="1.75" stroke-width="7" fill="none" stroke="#ff1c5d" />
<path d="M650.1704076850486,923.625 L681.0795923149514,923.625" close="False" data-weight="1.75" stroke-width="7" fill="none" stroke="#ff1c5d" />
<path d="M640.5314767527805,909.3545622165407 L684.3545622165407,865.5314767527805" close="False" data-weight="2.060660171779821" stroke-width="7" fill="none" stroke="#ff1c5d" />
<path d="M644.0349025766973,269.03490257669733 L687.2150974233027,312.21509742330267" close="False" data-weight="2.060660171779821" stroke-width="7" fill="none" stroke="#ff1c5d" />
<path d="M575.1704076850486,923.625 L606.0795923149514,923.625" close="False" data-weight="1.75" stroke-width="7" fill="none" stroke="#ff1c5d" />
<path d="M575.625,253.125 L605.625,253.125" close="False" data-weight="1.75" stroke-width="7" fill="none" stroke="#ff1c5d" />
<path d="M500.1704076850486,923.625 L531.0795923149514,923.625" close="False" data-weight="1.75" stroke-width="7" fill="none" stroke="#ff1c5d" />
<path d="M500.625,253.125 L530.625,253.125" close="False" data-weight="1.75" stroke-width="7" fill="none" stroke="#ff1c5d" />
<path d="M425.1704076850486,923.625 L456.0795923149514,923.625" close="False" data-weight="1.75" stroke-width="7" fill="none" stroke="#ff1c5d" />
<path d="M403.125,350.625 L403.125,380.625" close="False" data-weight="1.75" stroke-width="7" fill="none" stroke="#ff1c5d" />
<path d="M398.625,275.1704076850486 L398.625,306.0795923149514" close="False" data-weight="1.75" stroke-width="7" fill="none" stroke="#ff1c5d" />
<path d="M425.625,253.125 L455.625,253.125" close="False" data-weight="1.75" stroke-width="7" fill="none" stroke="#ff1c5d" />
<path d="M350.1704076850486,923.625 L381.0795923149514,923.625" close="False" data-weight="1.75" stroke-width="7" fill="none" stroke="#ff1c5d" />
<path d="M344.03490257669733,462.21509742330267 L387.21509742330267,419.03490257669733" close="False" data-weight="2.060660171779821" stroke-width="7" fill="none" stroke="#ff1c5d" />
<path d="M271.8954377834594,865.5314767527805 L315.7185232472197,909.3545622165408" close="False" data-weight="2.060660171779821" stroke-width="7" fill="none" stroke="#ff1c5d" />
<path d="M196.8954377834556,790.5314767527767 L240.71852324721962,834.3545622165408" close="False" data-weight="2.060660171779821" stroke-width="7" fill="none" stroke="#ff1c5d" />
<path d="M200.625,778.125 L230.625,778.125" close="False" data-weight="1.75" stroke-width="7" fill="none" stroke="#ff1c5d" />
<path d="M1171.8954377834596,540.7185232472194 C1164.1012091494015,548.5127518812775,1148.512751881285,564.1012091493936,1140.718523247227,571.8954377834518" close="False" data-weight="0.0" stroke-width="7" fill="none" stroke="#7cd3eb" />
<path d="M1171.895437783452,415.531476752773 C1163.980769151281,407.61680812060206,1145.1297660554737,395.12976605547357,1137.2150974233027,387.21509742330267" close="False" data-weight="0.0" stroke-width="7" fill="none" stroke="#7cd3eb" />
<path d="M1096.895437783452,615.7185232472268 C1089.1012091493958,623.5127518812831,1073.5127518812833,639.1012091493956,1065.718523247227,646.8954377834518" close="False" data-weight="0.0" stroke-width="7" fill="none" stroke="#7cd3eb" />
<path d="M1094.0349025766973,344.03490257669733 C1086.0799512883486,336.0799512883487,1070.1700487116514,320.1700487116513,1062.2150974233027,312.21509742330267" close="False" data-weight="0.0" stroke-width="7" fill="none" stroke="#7cd3eb" />
<path d="M1007.625,756.0795923149514 C1007.625,767.1022961574756,1007.625,789.1477038425244,1007.625,800.1704076850486" close="False" data-weight="0.0" stroke-width="7" fill="none" stroke="#7cd3eb" />
<path d="M1021.8954377834522,690.7185232472267 A48.72232222124838,48.72232222124838,0,0,0,1011.3337659446173,706.525182184612 M1011.3337659446173,706.525182184612 A48.72232222130219,48.72232222130219,0,0,0,1007.625,725.1704076850486 M1007.625,725.1704076850486" close="False" data-weight="1.0" stroke-width="7" fill="none" stroke="#7cd3eb" />
<path d="M1003.125,230.625 A54.319805153394555,54.319805153394555,0,0,0,1007.2598489621722,251.41228948150393 M1007.2598489621722,251.41228948150393 A54.31980515339486,54.31980515339486,0,0,0,1019.0349025766973,269.03490257669733 M1019.0349025766973,269.03490257669733" close="False" data-weight="1.0" stroke-width="7" fill="none" stroke="#7cd3eb" />
<path d="M946.8954377834593,915.7185232472195 A57.722322221287925,57.722322221287925,0,0,1,928.1689687066777,928.2311498479813 M928.1689687066777,928.2311498479813 A57.722322221289005,57.722322221289005,0,0,1,906.0795923149514,932.625 M906.0795923149514,932.625" close="False" data-weight="1.0" stroke-width="7" fill="none" stroke="#7cd3eb" />
<path d="M875.1704076850486,932.625 C864.1477038425244,932.625,842.1022961574756,932.625,831.0795923149514,932.625" close="False" data-weight="0.0" stroke-width="7" fill="none" stroke="#7cd3eb" />
<path d="M800.1704076850486,932.625 C789.1477038425244,932.625,767.1022961574756,932.625,756.0795923149514,932.625" close="False" data-weight="0.0" stroke-width="7" fill="none" stroke="#7cd3eb" />
<path d="M725.1704076850486,932.625 C714.1477038425244,932.625,692.1022961574756,932.625,681.0795923149514,932.625" close="False" data-weight="0.0" stroke-width="7" fill="none" stroke="#7cd3eb" />
<path d="M571.8954377834593,990.7185232472195 C564.1012091493994,998.5127518812794,548.5127518812794,1014.1012091493993,540.7185232472195,1021.8954377834593" close="False" data-weight="0.0" stroke-width="7" fill="none" stroke="#7cd3eb" />
<path d="M557.625,831.0795923149514 A48.72232222128116,48.72232222128116,0,0,0,561.3337659446216,849.7248178153939 M561.3337659446216,849.7248178153939 A48.722322221308595,48.722322221308595,0,0,0,571.8954377834631,865.5314767527842 M571.8954377834631,865.5314767527842" close="False" data-weight="1.0" stroke-width="7" fill="none" stroke="#7cd3eb" />
<path d="M557.625,756.0795923149514 C557.625,767.1022961574756,557.625,789.1477038425244,557.625,800.1704076850486" close="False" data-weight="0.0" stroke-width="7" fill="none" stroke="#7cd3eb" />
<path d="M557.625,681.0795923149514 C557.625,692.1022961574756,557.625,714.1477038425244,557.625,725.1704076850486" close="False" data-weight="0.0" stroke-width="7" fill="none" stroke="#7cd3eb" />
<path d="M557.625,606.0795923149514 C557.625,617.1022961574756,557.625,639.1477038425244,557.625,650.1704076850486" close="False" data-weight="0.0" stroke-width="7" fill="none" stroke="#7cd3eb" />
<path d="M557.625,531.0795923149514 C557.625,542.1022961574756,557.625,564.1477038425244,557.625,575.1704076850486" close="False" data-weight="0.0" stroke-width="7" fill="none" stroke="#7cd3eb" />
<path d="M557.625,456.0795923149514 C557.625,467.10229615747573,557.625,489.14770384252427,557.625,500.1704076850486" close="False" data-weight="0.0" stroke-width="7" fill="none" stroke="#7cd3eb" />
<path d="M557.625,381.0795923149514 C557.625,392.10229615747573,557.625,414.14770384252427,557.625,425.1704076850486" close="False" data-weight="0.0" stroke-width="7" fill="none" stroke="#7cd3eb" />
<path d="M557.625,350.1704076850486 A57.72232222129196,57.72232222129196,0,0,0,553.2311498479821,328.08103129332324 M553.2311498479821,328.08103129332324 A57.72232222127844,57.72232222127844,0,0,0,540.7185232472215,309.3545622165425 M540.7185232472215,309.3545622165425" close="False" data-weight="1.0" stroke-width="7" fill="none" stroke="#7cd3eb" />
<path d="M496.8954377834669,1065.718523247212 C489.10120914940507,1073.5127518812737,473.5127518812814,1089.1012091493974,465.7185232472196,1096.8954377834593" close="False" data-weight="0.0" stroke-width="7" fill="none" stroke="#7cd3eb" />
<path d="M496.8954377834574,265.5314767527784 C489.1012091493984,257.73724811871944,473.51275188128045,242.14879085060147,465.71852324722147,234.3545622165425" close="False" data-weight="0.0" stroke-width="7" fill="none" stroke="#7cd3eb" />
<path d="M421.8954377834593,1140.7185232472198 A57.72232222128757,57.72232222128757,0,0,1,403.1689687066777,1153.2311498479814 M403.1689687066777,1153.2311498479814 A57.72232222128878,57.72232222128878,0,0,1,381.0795923149514,1157.625 M381.0795923149514,1157.625" close="False" data-weight="1.0" stroke-width="7" fill="none" stroke="#7cd3eb" />
<path d="M328.125,380.625 C328.125,391.875,328.125,414.375,328.125,425.625" close="False" data-weight="0.0" stroke-width="7" fill="none" stroke="#7cd3eb" />
<path d="M328.125,305.625 C328.125,316.875,328.125,339.375,328.125,350.625" close="False" data-weight="0.0" stroke-width="7" fill="none" stroke="#7cd3eb" />
<path d="M344.03490257669733,237.2150974233027 A54.31980515339484,54.31980515339484,0,0,0,332.2598489621722,254.83771051849607 M332.2598489621722,254.83771051849607 A54.319805153394384,54.319805153394384,0,0,0,328.125,275.625 M328.125,275.625" close="False" data-weight="1.0" stroke-width="7" fill="none" stroke="#7cd3eb" />
<path d="M350.625,178.125 C339.375,178.125,316.875,178.125,305.625,178.125" close="False" data-weight="0.0" stroke-width="7" fill="none" stroke="#7cd3eb" />
<path d="M275.625,178.125 A54.31980515339461,54.31980515339461,0,0,1,254.83771051849604,173.9901510378278 M254.83771051849604,173.9901510378278 A54.31980515339473,54.31980515339473,0,0,1,237.21509742330267,162.21509742330267 M237.21509742330267,162.21509742330267" close="False" data-weight="1.0" stroke-width="7" fill="none" stroke="#7cd3eb" />
<path d="M1171.895437783452,540.718523247227 L1215.7185232472198,496.89543778345916" close="False" data-weight="2.060660171779821" stroke-width="7" fill="none" stroke="#7cd3eb" />
<path d="M1171.895437783452,415.5314767527729 L1215.7185232472273,459.3545622165482" close="False" data-weight="2.060660171779821" stroke-width="7" fill="none" stroke="#7cd3eb" />
<path d="M1096.895437783452,615.718523247227 L1140.7185232472273,571.8954377834517" close="False" data-weight="2.060660171779821" stroke-width="7" fill="none" stroke="#7cd3eb" />
<path d="M1094.0349025766973,344.03490257669733 L1137.2150974233027,387.21509742330267" close="False" data-weight="2.060660171779821" stroke-width="7" fill="none" stroke="#7cd3eb" />
<path d="M1007.625,800.1704076850486 L1007.625,831.0795923149514" close="False" data-weight="1.75" stroke-width="7" fill="none" stroke="#7cd3eb" />
<path d="M1007.625,725.1704076850486 L1007.625,756.0795923149514" close="False" data-weight="1.75" stroke-width="7" fill="none" stroke="#7cd3eb" />
<path d="M1021.8954377834593,690.7185232472195 L1065.7185232472195,646.8954377834593" close="False" data-weight="2.060660171779821" stroke-width="7" fill="none" stroke="#7cd3eb" />
<path d="M1019.0349025766973,269.03490257669733 L1062.2150974233027,312.21509742330267" close="False" data-weight="2.060660171779821" stroke-width="7" fill="none" stroke="#7cd3eb" />
<path d="M1003.125,200.625 L1003.125,230.625" close="False" data-weight="1.75" stroke-width="7" fill="none" stroke="#7cd3eb" />
<path d="M946.8954377834593,915.7185232472195 L990.7185232472195,871.8954377834593" close="False" data-weight="2.060660171779821" stroke-width="7" fill="none" stroke="#7cd3eb" />
<path d="M875.1704076850486,932.625 L906.0795923149514,932.625" close="False" data-weight="1.75" stroke-width="7" fill="none" stroke="#7cd3eb" />
<path d="M800.1704076850486,932.625 L831.0795923149514,932.625" close="False" data-weight="1.75" stroke-width="7" fill="none" stroke="#7cd3eb" />
<path d="M725.1704076850486,932.625 L756.0795923149514,932.625" close="False" data-weight="1.75" stroke-width="7" fill="none" stroke="#7cd3eb" />
<path d="M650.1704076850486,932.625 L681.0795923149514,932.625" close="False" data-weight="1.75" stroke-width="7" fill="none" stroke="#7cd3eb" />
<path d="M628.125,875.625 L628.125,905.625" close="False" data-weight="1.75" stroke-width="7" fill="none" stroke="#7cd3eb" />
<path d="M571.8954377834593,990.7185232472195 L615.7185232472195,946.8954377834593" close="False" data-weight="2.060660171779821" stroke-width="7" fill="none" stroke="#7cd3eb" />
<path d="M571.8954377834631,865.5314767527842 L615.7185232472195,909.3545622165407" close="False" data-weight="2.060660171779821" stroke-width="7" fill="none" stroke="#7cd3eb" />
<path d="M557.625,800.1704076850486 L557.625,831.0795923149514" close="False" data-weight="1.75" stroke-width="7" fill="none" stroke="#7cd3eb" />
<path d="M557.625,725.1704076850486 L557.625,756.0795923149514" close="False" data-weight="1.75" stroke-width="7" fill="none" stroke="#7cd3eb" />
<path d="M557.625,650.1704076850486 L557.625,681.0795923149514" close="False" data-weight="1.75" stroke-width="7" fill="none" stroke="#7cd3eb" />
<path d="M557.625,575.1704076850486 L557.625,606.0795923149514" close="False" data-weight="1.75" stroke-width="7" fill="none" stroke="#7cd3eb" />
<path d="M557.625,500.1704076850486 L557.625,531.0795923149514" close="False" data-weight="1.75" stroke-width="7" fill="none" stroke="#7cd3eb" />
<path d="M557.625,425.1704076850486 L557.625,456.0795923149514" close="False" data-weight="1.75" stroke-width="7" fill="none" stroke="#7cd3eb" />
<path d="M557.625,350.1704076850486 L557.625,381.0795923149514" close="False" data-weight="1.75" stroke-width="7" fill="none" stroke="#7cd3eb" />
<path d="M496.8954377834594,1065.7185232472195 L540.7185232472194,1021.8954377834594" close="False" data-weight="2.060660171779821" stroke-width="7" fill="none" stroke="#7cd3eb" />
<path d="M496.8954377834594,265.5314767527804 L540.7185232472195,309.3545622165406" close="False" data-weight="2.060660171779821" stroke-width="7" fill="none" stroke="#7cd3eb" />
<path d="M421.8954377834594,1140.7185232472195 L465.7185232472195,1096.8954377834596" close="False" data-weight="2.060660171779821" stroke-width="7" fill="none" stroke="#7cd3eb" />
<path d="M421.8954377834594,190.53147675278043 L465.71852324721965,234.3545622165407" close="False" data-weight="2.060660171779821" stroke-width="7" fill="none" stroke="#7cd3eb" />
<path d="M350.1704076850486,1157.625 L381.0795923149514,1157.625" close="False" data-weight="1.75" stroke-width="7" fill="none" stroke="#7cd3eb" />
<path d="M328.125,425.625 L328.125,455.625" close="False" data-weight="1.75" stroke-width="7" fill="none" stroke="#7cd3eb" />
<path d="M328.125,350.625 L328.125,380.625" close="False" data-weight="1.75" stroke-width="7" fill="none" stroke="#7cd3eb" />
<path d="M328.125,275.625 L328.125,305.625" close="False" data-weight="1.75" stroke-width="7" fill="none" stroke="#7cd3eb" />
<path d="M344.03490257669733,237.21509742330267 L387.21509742330267,194.0349025766973" close="False" data-weight="2.060660171779821" stroke-width="7" fill="none" stroke="#7cd3eb" />
<path d="M350.625,178.125 L380.625,178.125" close="False" data-weight="1.75" stroke-width="7" fill="none" stroke="#7cd3eb" />
<path d="M275.625,178.125 L305.625,178.125" close="False" data-weight="1.75" stroke-width="7" fill="none" stroke="#7cd3eb" />
<path d="M194.03490257669733,119.03490257669732 L237.2150974233027,162.2150974233027" close="False" data-weight="2.060660171779821" stroke-width="7" fill="none" stroke="#7cd3eb" />
<path d="M725.1704076850486,857.625 A48.72232222128889,48.72232222128889,0,0,0,706.5251821846081,861.3337659446202 M706.5251821846081,861.3337659446202 A48.72232222128802,48.72232222128802,0,0,0,690.7185232472195,871.8954377834593 M690.7185232472195,871.8954377834593" close="False" data-weight="1.0" stroke-width="7" fill="none" stroke="#8f0f12" />
<path d="M707.625,756.0795923149514 A48.72232222128889,48.72232222128889,0,0,0,711.3337659446202,774.7248178153919 M711.3337659446202,774.7248178153919 A48.72232222128802,48.72232222128802,0,0,0,721.8954377834593,790.5314767527805 M721.8954377834593,790.5314767527805" close="False" data-weight="1.0" stroke-width="7" fill="none" stroke="#8f0f12" />
<path d="M707.625,681.0795923149514 C707.625,692.1022961574756,707.625,714.1477038425244,707.625,725.1704076850486" close="False" data-weight="0.0" stroke-width="7" fill="none" stroke="#8f0f12" />
<path d="M707.625,606.0795923149514 C707.625,617.1022961574756,707.625,639.1477038425244,707.625,650.1704076850486" close="False" data-weight="0.0" stroke-width="7" fill="none" stroke="#8f0f12" />
<path d="M707.625,531.0795923149514 C707.625,542.1022961574756,707.625,564.1477038425244,707.625,575.1704076850486" close="False" data-weight="0.0" stroke-width="7" fill="none" stroke="#8f0f12" />
<path d="M707.625,456.0795923149514 C707.625,467.10229615747573,707.625,489.14770384252427,707.625,500.1704076850486" close="False" data-weight="0.0" stroke-width="7" fill="none" stroke="#8f0f12" />
<path d="M707.625,381.0795923149514 C707.625,392.10229615747573,707.625,414.14770384252427,707.625,425.1704076850486" close="False" data-weight="0.0" stroke-width="7" fill="none" stroke="#8f0f12" />
<path d="M565.5314767527805,984.3545622165407 C557.7372481187206,992.1487908506006,542.1487908506007,1007.7372481187206,534.3545622165407,1015.5314767527805" close="False" data-weight="0.0" stroke-width="7" fill="none" stroke="#8f0f12" />
<path d="M575.1704076850486,932.625 C564.1477038425244,932.625,542.1022961574756,932.625,531.0795923149514,932.625" close="False" data-weight="0.0" stroke-width="7" fill="none" stroke="#8f0f12" />
<path d="M490.5314767527729,1059.3545622165482 C482.73724811871483,1067.1487908506062,467.1487908505987,1082.7372481187224,459.3545622165406,1090.5314767527805" close="False" data-weight="0.0" stroke-width="7" fill="none" stroke="#8f0f12" />
<path d="M415.5314767527805,1134.3545622165404 A48.72232222128894,48.72232222128894,0,0,1,399.72481781539193,1144.9162340553796 M399.72481781539193,1144.9162340553796 A48.72232222128832,48.72232222128832,0,0,1,381.0795923149514,1148.625 M381.0795923149514,1148.625" close="False" data-weight="1.0" stroke-width="7" fill="none" stroke="#8f0f12" />
<path d="M425.1704076850486,932.625 C414.14770384252427,932.625,392.10229615747573,932.625,381.0795923149514,932.625" close="False" data-weight="0.0" stroke-width="7" fill="none" stroke="#8f0f12" />
<path d="M350.1704076850486,932.625 A57.722322221287754,57.722322221287754,0,0,1,328.08103129332227,928.2311498479813 M328.08103129332227,928.2311498479813 A57.72232222128817,57.72232222128817,0,0,1,309.3545622165406,915.7185232472195 M309.3545622165406,915.7185232472195" close="False" data-weight="1.0" stroke-width="7" fill="none" stroke="#8f0f12" />
<path d="M265.5314767527803,871.8954377834592 C257.7372481187204,864.1012091493993,242.14879085060056,848.5127518812794,234.35456221654064,840.7185232472195" close="False" data-weight="0.0" stroke-width="7" fill="none" stroke="#8f0f12" />
<path d="M725.1704076850486,857.625 L756.0795923149514,857.625" close="False" data-weight="1.75" stroke-width="7" fill="none" stroke="#8f0f12" />
<path d="M721.8954377834593,790.5314767527805 L765.7185232472195,834.3545622165407" close="False" data-weight="2.060660171779821" stroke-width="7" fill="none" stroke="#8f0f12" />
<path d="M707.625,725.1704076850486 L707.625,756.0795923149514" close="False" data-weight="1.75" stroke-width="7" fill="none" stroke="#8f0f12" />
<path d="M707.625,650.1704076850486 L707.625,681.0795923149514" close="False" data-weight="1.75" stroke-width="7" fill="none" stroke="#8f0f12" />
<path d="M707.625,575.1704076850486 L707.625,606.0795923149514" close="False" data-weight="1.75" stroke-width="7" fill="none" stroke="#8f0f12" />
<path d="M707.625,500.1704076850486 L707.625,531.0795923149514" close="False" data-weight="1.75" stroke-width="7" fill="none" stroke="#8f0f12" />
<path d="M707.625,425.1704076850486 L707.625,456.0795923149514" close="False" data-weight="1.75" stroke-width="7" fill="none" stroke="#8f0f12" />
<path d="M707.625,350.1704076850486 L707.625,381.0795923149514" close="False" data-weight="1.75" stroke-width="7" fill="none" stroke="#8f0f12" />
<path d="M646.8954377834593,915.7185232472195 L690.7185232472195,871.8954377834593" close="False" data-weight="2.060660171779821" stroke-width="7" fill="none" stroke="#8f0f12" />
<path d="M565.5314767527805,984.3545622165407 L609.3545622165407,940.5314767527805" close="False" data-weight="2.060660171779821" stroke-width="7" fill="none" stroke="#8f0f12" />
<path d="M575.1704076850486,932.625 L606.0795923149514,932.625" close="False" data-weight="1.75" stroke-width="7" fill="none" stroke="#8f0f12" />
<path d="M490.5314767527804,1059.3545622165407 L534.3545622165408,1015.5314767527803" close="False" data-weight="2.060660171779821" stroke-width="7" fill="none" stroke="#8f0f12" />
<path d="M500.1704076850486,932.625 L531.0795923149514,932.625" close="False" data-weight="1.75" stroke-width="7" fill="none" stroke="#8f0f12" />
<path d="M415.5314767527804,1134.3545622165407 L459.3545622165407,1090.5314767527802" close="False" data-weight="2.060660171779821" stroke-width="7" fill="none" stroke="#8f0f12" />
<path d="M425.1704076850486,932.625 L456.0795923149514,932.625" close="False" data-weight="1.75" stroke-width="7" fill="none" stroke="#8f0f12" />
<path d="M350.1704076850486,1148.625 L381.0795923149514,1148.625" close="False" data-weight="1.75" stroke-width="7" fill="none" stroke="#8f0f12" />
<path d="M350.1704076850486,932.625 L381.0795923149514,932.625" close="False" data-weight="1.75" stroke-width="7" fill="none" stroke="#8f0f12" />
<path d="M265.5314767527804,871.8954377834593 L309.3545622165405,915.7185232472194" close="False" data-weight="2.060660171779821" stroke-width="7" fill="none" stroke="#8f0f12" />
<path d="M190.5314767527842,796.8954377834631 L234.3545622165406,840.7185232472195" close="False" data-weight="2.060660171779821" stroke-width="7" fill="none" stroke="#8f0f12" />
<path d="M548.625,831.0795923149514 A57.72232222129526,57.72232222129526,0,0,0,553.0188501520172,853.1689687066756 M553.0188501520172,853.1689687066756 A57.72232222126879,57.72232222126879,0,0,0,565.5314767527767,871.8954377834556 M565.5314767527767,871.8954377834556" close="False" data-weight="1.0" stroke-width="7" fill="none" stroke="#90ea66" />
<path d="M548.625,756.0795923149514 C548.625,767.1022961574756,548.625,789.1477038425244,548.625,800.1704076850486" close="False" data-weight="0.0" stroke-width="7" fill="none" stroke="#90ea66" />
<path d="M548.625,681.0795923149514 C548.625,692.1022961574756,548.625,714.1477038425244,548.625,725.1704076850486" close="False" data-weight="0.0" stroke-width="7" fill="none" stroke="#90ea66" />
<path d="M548.625,606.0795923149514 C548.625,617.1022961574756,548.625,639.1477038425244,548.625,650.1704076850486" close="False" data-weight="0.0" stroke-width="7" fill="none" stroke="#90ea66" />
<path d="M548.625,531.0795923149514 C548.625,542.1022961574756,548.625,564.1477038425244,548.625,575.1704076850486" close="False" data-weight="0.0" stroke-width="7" fill="none" stroke="#90ea66" />
<path d="M548.625,456.0795923149514 C548.625,467.10229615747573,548.625,489.14770384252427,548.625,500.1704076850486" close="False" data-weight="0.0" stroke-width="7" fill="none" stroke="#90ea66" />
<path d="M548.625,381.0795923149514 C548.625,392.10229615747573,548.625,414.14770384252427,548.625,425.1704076850486" close="False" data-weight="0.0" stroke-width="7" fill="none" stroke="#90ea66" />
<path d="M548.625,350.1704076850486 A48.72232222128457,48.72232222128457,0,0,0,544.916234055379,331.525182184607 M544.916234055379,331.525182184607 A48.72232222129855,48.72232222129855,0,0,0,534.3545622165387,315.7185232472177 M534.3545622165387,315.7185232472177" close="False" data-weight="1.0" stroke-width="7" fill="none" stroke="#90ea66" />
<path d="M490.5314767527824,271.8954377834614 C482.73724811872194,264.1012091494009,467.1487908506011,248.51275188128002,459.3545622165406,240.71852324721957" close="False" data-weight="0.0" stroke-width="7" fill="none" stroke="#90ea66" />
<path d="M565.5314767527767,871.8954377834556 L609.3545622165407,915.7185232472195" close="False" data-weight="2.060660171779821" stroke-width="7" fill="none" stroke="#90ea66" />
<path d="M548.625,800.1704076850486 L548.625,831.0795923149514" close="False" data-weight="1.75" stroke-width="7" fill="none" stroke="#90ea66" />
<path d="M548.625,725.1704076850486 L548.625,756.0795923149514" close="False" data-weight="1.75" stroke-width="7" fill="none" stroke="#90ea66" />
<path d="M548.625,650.1704076850486 L548.625,681.0795923149514" close="False" data-weight="1.75" stroke-width="7" fill="none" stroke="#90ea66" />
<path d="M548.625,575.1704076850486 L548.625,606.0795923149514" close="False" data-weight="1.75" stroke-width="7" fill="none" stroke="#90ea66" />
<path d="M548.625,500.1704076850486 L548.625,531.0795923149514" close="False" data-weight="1.75" stroke-width="7" fill="none" stroke="#90ea66" />
<path d="M548.625,425.1704076850486 L548.625,456.0795923149514" close="False" data-weight="1.75" stroke-width="7" fill="none" stroke="#90ea66" />
<path d="M548.625,350.1704076850486 L548.625,381.0795923149514" close="False" data-weight="1.75" stroke-width="7" fill="none" stroke="#90ea66" />
<path d="M490.5314767527804,271.8954377834594 L534.3545622165407,315.7185232472196" close="False" data-weight="2.060660171779821" stroke-width="7" fill="none" stroke="#90ea66" />
<path d="M403.125,200.625 L403.125,230.625" close="False" data-weight="1.75" stroke-width="7" fill="none" stroke="#90ea66" />
<path d="M415.5314767527804,196.89543778345936 L459.35456221654056,240.7185232472195" close="False" data-weight="2.060660171779821" stroke-width="7" fill="none" stroke="#90ea66" />
<path d="M1165.5314767527877,421.8954377834668 A103.64933488301035,103.64933488301035,0,0,0,1149.5937766732018,408.8513857812835 M1149.5937766732018,408.8513857812835 A34.280434255503394,34.280434255503394,0,0,0,1130.625,403.125 M1130.625,403.125" close="False" data-weight="1.0" stroke-width="7" fill="none" stroke="#35618f" />
<path d="M1100.625,403.125 C1089.375,403.125,1066.875,403.125,1055.625,403.125" close="False" data-weight="0.0" stroke-width="7" fill="none" stroke="#35618f" />
<path d="M1025.625,403.125 C1014.375,403.125,991.875,403.125,980.625,403.125" close="False" data-weight="0.0" stroke-width="7" fill="none" stroke="#35618f" />
<path d="M950.625,403.125 C939.375,403.125,916.875,403.125,905.625,403.125" close="False" data-weight="0.0" stroke-width="7" fill="none" stroke="#35618f" />
<path d="M875.625,403.125 C864.375,403.125,841.875,403.125,830.625,403.125" close="False" data-weight="0.0" stroke-width="7" fill="none" stroke="#35618f" />
<path d="M778.125,305.625 C778.125,316.875,778.125,339.375,778.125,350.625" close="False" data-weight="0.0" stroke-width="7" fill="none" stroke="#35618f" />
<path d="M778.125,230.625 C778.125,241.875,778.125,264.375,778.125,275.625" close="False" data-weight="0.0" stroke-width="7" fill="none" stroke="#35618f" />
<path d="M778.125,155.625 C778.125,166.875,778.125,189.375,778.125,200.625" close="False" data-weight="0.0" stroke-width="7" fill="none" stroke="#35618f" />
<path d="M719.0349025766973,462.21509742330267 A54.3198051533949,54.3198051533949,0,0,1,701.4122894815039,473.9901510378278 M701.4122894815039,473.9901510378278 A54.31980515339427,54.31980515339427,0,0,1,680.625,478.125 M680.625,478.125" close="False" data-weight="1.0" stroke-width="7" fill="none" stroke="#35618f" />
<path d="M650.625,478.125 C639.375,478.125,616.875,478.125,605.625,478.125" close="False" data-weight="0.0" stroke-width="7" fill="none" stroke="#35618f" />
<path d="M575.625,478.125 C564.375,478.125,541.875,478.125,530.625,478.125" close="False" data-weight="0.0" stroke-width="7" fill="none" stroke="#35618f" />
<path d="M500.625,478.125 C489.375,478.125,466.875,478.125,455.625,478.125" close="False" data-weight="0.0" stroke-width="7" fill="none" stroke="#35618f" />
<path d="M425.625,478.125 C414.375,478.125,391.875,478.125,380.625,478.125" close="False" data-weight="0.0" stroke-width="7" fill="none" stroke="#35618f" />
<path d="M1165.5314767527877,421.8954377834669 L1209.354562216533,465.71852324721203" close="False" data-weight="2.060660171779821" stroke-width="7" fill="none" stroke="#35618f" />
<path d="M1100.625,403.125 L1130.625,403.125" close="False" data-weight="1.75" stroke-width="7" fill="none" stroke="#35618f" />
<path d="M1025.625,403.125 L1055.625,403.125" close="False" data-weight="1.75" stroke-width="7" fill="none" stroke="#35618f" />
<path d="M950.625,403.125 L980.625,403.125" close="False" data-weight="1.75" stroke-width="7" fill="none" stroke="#35618f" />
<path d="M875.625,403.125 L905.625,403.125" close="False" data-weight="1.75" stroke-width="7" fill="none" stroke="#35618f" />
<path d="M800.625,403.125 L830.625,403.125" close="False" data-weight="1.75" stroke-width="7" fill="none" stroke="#35618f" />
<path d="M778.125,350.625 L778.125,380.625" close="False" data-weight="1.75" stroke-width="7" fill="none" stroke="#35618f" />
<path d="M778.125,275.625 L778.125,305.625" close="False" data-weight="1.75" stroke-width="7" fill="none" stroke="#35618f" />
<path d="M778.125,200.625 L778.125,230.625" close="False" data-weight="1.75" stroke-width="7" fill="none" stroke="#35618f" />
<path d="M778.125,125.625 L778.125,155.625" close="False" data-weight="1.75" stroke-width="7" fill="none" stroke="#35618f" />
<path d="M719.0349025766973,462.21509742330267 L762.2150974233027,419.03490257669733" close="False" data-weight="2.060660171779821" stroke-width="7" fill="none" stroke="#35618f" />
<path d="M650.625,478.125 L680.625,478.125" close="False" data-weight="1.75" stroke-width="7" fill="none" stroke="#35618f" />
<path d="M575.625,478.125 L605.625,478.125" close="False" data-weight="1.75" stroke-width="7" fill="none" stroke="#35618f" />
<path d="M500.625,478.125 L530.625,478.125" close="False" data-weight="1.75" stroke-width="7" fill="none" stroke="#35618f" />
<path d="M425.625,478.125 L455.625,478.125" close="False" data-weight="1.75" stroke-width="7" fill="none" stroke="#35618f" />
<path d="M350.625,478.125 L380.625,478.125" close="False" data-weight="1.75" stroke-width="7" fill="none" stroke="#35618f" />
<image x="1195.625" y="445.625" width="65" height="65" xlink:href="designspace-test/./img/ds_dataset0_20_4_thumb.png" data-node="True" data-id="4" />
<image x="1120.625" y="1195.625" width="65" height="65" xlink:href="designspace-test/./img/ds_dataset0_20_5_thumb.png" data-node="True" data-id="5" />
<image x="1120.625" y="145.625" width="65" height="65" xlink:href="designspace-test/./img/ds_dataset0_20_10_thumb.png" data-node="True" data-id="10" />
<image x="970.625" y="895.625" width="65" height="65" xlink:href="designspace-test/./img/ds_dataset0_20_6_thumb.png" data-node="True" data-id="6" />
<image x="970.625" y="820.625" width="65" height="65" xlink:href="designspace-test/./img/ds_dataset0_20_7_thumb.png" data-node="True" data-id="7" />
<image x="970.625" y="145.625" width="65" height="65" xlink:href="designspace-test/./img/ds_dataset0_20_11_thumb.png" data-node="True" data-id="11" />
<image x="745.625" y="820.625" width="65" height="65" xlink:href="designspace-test/./img/ds_dataset0_20_8_thumb.png" data-node="True" data-id="8" />
<image x="745.625" y="370.625" width="65" height="65" xlink:href="designspace-test/./img/ds_dataset0_20_1_thumb.png" data-node="True" data-id="1" />
<image x="745.625" y="70.625" width="65" height="65" xlink:href="designspace-test/./img/ds_dataset0_20_9_thumb.png" data-node="True" data-id="9" />
<image x="670.625" y="295.625" width="65" height="65" xlink:href="designspace-test/./img/ds_dataset0_20_0_thumb.png" data-node="True" data-id="0" />
<image x="595.625" y="895.625" width="65" height="65" xlink:href="designspace-test/./img/ds_dataset0_20_19_thumb.png" data-node="True" data-id="19" />
<image x="595.625" y="820.625" width="65" height="65" xlink:href="designspace-test/./img/ds_dataset0_20_16_thumb.png" data-node="True" data-id="16" />
<image x="445.625" y="895.625" width="65" height="65" xlink:href="designspace-test/./img/ds_dataset0_20_12_thumb.png" data-node="True" data-id="12" />
<image x="370.625" y="220.625" width="65" height="65" xlink:href="designspace-test/./img/ds_dataset0_20_18_thumb.png" data-node="True" data-id="18" />
<image x="370.625" y="145.625" width="65" height="65" xlink:href="designspace-test/./img/ds_dataset0_20_2_thumb.png" data-node="True" data-id="2" />
<image x="295.625" y="1120.625" width="65" height="65" xlink:href="designspace-test/./img/ds_dataset0_20_3_thumb.png" data-node="True" data-id="3" />
<image x="295.625" y="445.625" width="65" height="65" xlink:href="designspace-test/./img/ds_dataset0_20_15_thumb.png" data-node="True" data-id="15" />
<image x="220.625" y="745.625" width="65" height="65" xlink:href="designspace-test/./img/ds_dataset0_20_17_thumb.png" data-node="True" data-id="17" />
<image x="145.625" y="745.625" width="65" height="65" xlink:href="designspace-test/./img/ds_dataset0_20_14_thumb.png" data-node="True" data-id="14" />
<image x="145.625" y="70.625" width="65" height="65" xlink:href="designspace-test/./img/ds_dataset0_20_13_thumb.png" data-node="True" data-id="13" />
</svg>