<?xml version="1.0" encoding="UTF-8"?>
<svg xmlns="http://www.w3.org/2000/svg" xmlns:xlink="http://www.w3.org/1999/xlink"
     width="1350" height="1350" viewBox="0 0 1350 1350">
<defs>
</defs>
<path d="M553.125,605.625 A54.31980515339484,54.31980515339484,0,0,1,548.9901510378278,626.4122894815039 M548.9901510378278,626.4122894815039 A54.3198051533943,54.3198051533943,0,0,1,537.2150974233027,644.0349025766973 M537.2150974233027,644.0349025766973" close="False" data-weight="1.0" stroke-width="6" fill="none" stroke="#ffff33" />
<path d="M553.125,530.625 C553.125,541.875,553.125,564.375,553.125,575.625" close="False" data-weight="0.0" stroke-width="6" fill="none" stroke="#ffff33" />
<path d="M553.125,455.625 C553.125,466.875,553.125,489.375,553.125,500.625" close="False" data-weight="0.0" stroke-width="6" fill="none" stroke="#ffff33" />
<path d="M553.125,380.625 C553.125,391.875,553.125,414.375,553.125,425.625" close="False" data-weight="0.0" stroke-width="6" fill="none" stroke="#ffff33" />
<path d="M553.125,305.625 C553.125,316.875,553.125,339.375,553.125,350.625" close="False" data-weight="0.0" stroke-width="6" fill="none" stroke="#ffff33" />
<path d="M553.125,230.625 C553.125,241.875,553.125,264.375,553.125,275.625" close="False" data-weight="0.0" stroke-width="6" fill="none" stroke="#ffff33" />
<path d="M553.125,155.625 C553.125,166.875,553.125,189.375,553.125,200.625" close="False" data-weight="0.0" stroke-width="6" fill="none" stroke="#ffff33" />
<path d="M494.03490257669733,687.2150974233027 C486.0799512883487,695.1700487116514,470.1700487116513,711.0799512883486,462.21509742330267,719.0349025766973" close="False" data-weight="0.0" stroke-width="6" fill="none" stroke="#ffff33" />
<path d="M419.03490257669733,762.2150974233027 C411.0799512883487,770.1700487116514,395.1700487116513,786.0799512883486,387.21509742330267,794.0349025766973" close="False" data-weight="0.0" stroke-width="6" fill="none" stroke="#ffff33" />
<path d="M344.03490257669733,837.2150974233027 C336.11169390267594,845.1383060973241,317.563313237424,858.0298325130836,309.6401045634026,865.953041187105" close="False" data-weight="0.0" stroke-width="6" fill="none" stroke="#ffff33" />
<path d="M553.125,575.625 L553.125,605.625" close="False" data-weight="1.75" stroke-width="6" fill="none" stroke="#ffff33" />
<path d="M553.125,500.625 L553.125,530.625" close="False" data-weight="1.75" stroke-width="6" fill="none" stroke="#ffff33" />
<path d="M553.125,425.625 L553.125,455.625" close="False" data-weight="1.75" stroke-width="6" fill="none" stroke="#ffff33" />
<path d="M553.125,350.625 L553.125,380.625" close="False" data-weight="1.75" stroke-width="6" fill="none" stroke="#ffff33" />
<path d="M553.125,275.625 L553.125,305.625" close="False" data-weight="1.75" stroke-width="6" fill="none" stroke="#ffff33" />
<path d="M553.125,200.625 L553.125,230.625" close="False" data-weight="1.75" stroke-width="6" fill="none" stroke="#ffff33" />
<path d="M553.125,125.625 L553.125,155.625" close="False" data-weight="1.75" stroke-width="6" fill="none" stroke="#ffff33" />
<path d="M494.03490257669733,687.2150974233027 L537.2150974233027,644.0349025766973" close="False" data-weight="2.060660171779821" stroke-width="6" fill="none" stroke="#ffff33" />
<path d="M419.03490257669733,762.2150974233027 L462.21509742330267,719.0349025766973" close="False" data-weight="2.060660171779821" stroke-width="6" fill="none" stroke="#ffff33" />
<path d="M344.03490257669733,837.2150974233027 L387.21509742330267,794.0349025766973" close="False" data-weight="2.060660171779821" stroke-width="6" fill="none" stroke="#ffff33" />
<path d="M265.953041187105,909.6401045634026 L309.6401045634026,865.953041187105" close="False" data-weight="2.060660171779821" stroke-width="6" fill="none" stroke="#ffff33" />
<path d="M1003.125,830.625 C1003.125,841.875,1003.125,864.375,1003.125,875.625" close="False" data-weight="0.0" stroke-width="6" fill="none" stroke="#984ea3" />
<path d="M1003.125,755.625 C1003.125,766.875,1003.125,789.375,1003.125,800.625" close="False" data-weight="0.0" stroke-width="6" fill="none" stroke="#984ea3" />
<path d="M1003.125,680.625 C1003.125,691.875,1003.125,714.375,1003.125,725.625" close="False" data-weight="0.0" stroke-width="6" fill="none" stroke="#984ea3" />
<path d="M1003.125,650.625 A54.31980515339478,54.31980515339478,0,0,0,998.9901510378278,629.8377105184961 M998.9901510378278,629.8377105184961 A54.319805153394256,54.319805153394256,0,0,0,987.2150974233027,612.2150974233027 M987.2150974233027,612.2150974233027" close="False" data-weight="1.0" stroke-width="6" fill="none" stroke="#984ea3" />
<path d="M950.2665898254845,932.125 A93.83039863674185,93.83039863674185,0,0,0,929.7176985548367,934.4027538039628 M929.7176985548367,934.4027538039628 A35.858166261561124,35.858166261561124,0,0,0,912.2150974233027,944.0349025766973 M912.2150974233027,944.0349025766973" close="False" data-weight="1.0" stroke-width="6" fill="none" stroke="#984ea3" />
<path d="M853.125,1205.625 A54.31980515339285,54.31980515339285,0,0,1,848.9901510378276,1226.412289481504 M848.9901510378276,1226.412289481504 A54.31980515339619,54.31980515339619,0,0,1,837.2150974233027,1244.0349025766973 M837.2150974233027,1244.0349025766973" close="False" data-weight="1.0" stroke-width="6" fill="none" stroke="#984ea3" />
<path d="M869.0349025766973,987.2150974233027 C861.0799512883486,995.1700487116514,845.1700487116514,1011.0799512883486,837.2150974233027,1019.0349025766973" close="False" data-weight="0.0" stroke-width="6" fill="none" stroke="#984ea3" />
<path d="M794.0349025766973,1287.2150974233027 A54.31980515339554,54.31980515339554,0,0,1,776.412289481504,1298.990151037828 M776.412289481504,1298.990151037828 A54.319805153393645,54.319805153393645,0,0,1,755.625,1303.125 M755.625,1303.125" close="False" data-weight="1.0" stroke-width="6" fill="none" stroke="#984ea3" />
<path d="M794.0349025766973,1062.2150974233027 C786.0799512883486,1070.1700487116514,770.1700487116514,1086.0799512883486,762.2150974233027,1094.0349025766973" close="False" data-weight="0.0" stroke-width="6" fill="none" stroke="#984ea3" />
<path d="M778.125,980.625 A54.31980515339478,54.31980515339478,0,0,1,773.9901510378278,1001.4122894815039 M773.9901510378278,1001.4122894815039 A54.319805153394256,54.319805153394256,0,0,1,762.2150974233027,1019.0349025766973 M762.2150974233027,1019.0349025766973" close="False" data-weight="1.0" stroke-width="6" fill="none" stroke="#984ea3" />
<path d="M725.625,1303.125 A54.31980515339637,54.31980515339637,0,0,1,704.837710518496,1298.990151037828 M704.837710518496,1298.990151037828 A54.31980515339273,54.31980515339273,0,0,1,687.2150974233027,1287.2150974233027 M687.2150974233027,1287.2150974233027" close="False" data-weight="1.0" stroke-width="6" fill="none" stroke="#984ea3" />
<path d="M719.0349025766973,1137.2150974233027 A54.31980515339514,54.31980515339514,0,0,0,707.2598489621722,1154.837710518496 M707.2598489621722,1154.837710518496 A54.319805153393986,54.319805153393986,0,0,0,703.125,1175.625 M703.125,1175.625" close="False" data-weight="1.0" stroke-width="6" fill="none" stroke="#984ea3" />
<path d="M719.0349025766973,1062.2150974233027 C711.0799512883486,1070.1700487116514,695.1700487116514,1086.0799512883486,687.2150974233027,1094.0349025766973" close="False" data-weight="0.0" stroke-width="6" fill="none" stroke="#984ea3" />
<path d="M719.0349025766973,987.2150974233027 C711.0799512883486,995.1700487116514,695.1700487116514,1011.0799512883486,687.2150974233027,1019.0349025766973" close="False" data-weight="0.0" stroke-width="6" fill="none" stroke="#984ea3" />
<path d="M628.125,1205.625 A54.31980515339285,54.31980515339285,0,0,0,632.2598489621724,1226.412289481504 M632.2598489621724,1226.412289481504 A54.31980515339619,54.31980515339619,0,0,0,644.0349025766973,1244.0349025766973 M644.0349025766973,1244.0349025766973" close="False" data-weight="1.0" stroke-width="6" fill="none" stroke="#984ea3" />
<path d="M644.0349025766973,1137.2150974233027 A54.31980515339514,54.31980515339514,0,0,0,632.2598489621722,1154.837710518496 M632.2598489621722,1154.837710518496 A54.319805153393986,54.319805153393986,0,0,0,628.125,1175.625 M628.125,1175.625" close="False" data-weight="1.0" stroke-width="6" fill="none" stroke="#984ea3" />
<path d="M500.625,1003.125 C489.375,1003.125,466.875,1003.125,455.625,1003.125" close="False" data-weight="0.0" stroke-width="6" fill="none" stroke="#984ea3" />
<path d="M425.625,1003.125 C414.375,1003.125,391.875,1003.125,380.625,1003.125" close="False" data-weight="0.0" stroke-width="6" fill="none" stroke="#984ea3" />
<path d="M350.625,1003.125 A54.319805153394555,54.319805153394555,0,0,1,329.837710518496,998.9901510378278 M329.837710518496,998.9901510378278 A54.31980515339474,54.31980515339474,0,0,1,312.21509742330267,987.2150974233027 M312.21509742330267,987.2150974233027" close="False" data-weight="1.0" stroke-width="6" fill="none" stroke="#984ea3" />
<path d="M1003.125,875.625 L1003.125,905.625" close="False" data-weight="1.75" stroke-width="6" fill="none" stroke="#984ea3" />
<path d="M1003.125,800.625 L1003.125,830.625" close="False" data-weight="1.75" stroke-width="6" fill="none" stroke="#984ea3" />
<path d="M1003.125,725.625 L1003.125,755.625" close="False" data-weight="1.75" stroke-width="6" fill="none" stroke="#984ea3" />
<path d="M1003.125,650.625 L1003.125,680.625" close="False" data-weight="1.75" stroke-width="6" fill="none" stroke="#984ea3" />
<path d="M950.2665898254845,932.125 L980.9834101745155,932.125" close="False" data-weight="1.75" stroke-width="6" fill="none" stroke="#984ea3" />
<path d="M936.125,574.1547408448131 L936.125,607.0952591551869" close="False" data-weight="1.75" stroke-width="6" fill="none" stroke="#984ea3" />
<path d="M944.0349025766973,569.0349025766973 L987.2150974233027,612.2150974233027" close="False" data-weight="2.060660171779821" stroke-width="6" fill="none" stroke="#984ea3" />
<path d="M853.125,1175.625 L853.125,1205.625" close="False" data-weight="1.75" stroke-width="6" fill="none" stroke="#984ea3" />
<path d="M869.0349025766973,987.2150974233027 L912.2150974233027,944.0349025766973" close="False" data-weight="2.060660171779821" stroke-width="6" fill="none" stroke="#984ea3" />
<path d="M794.0349025766973,1287.2150974233027 L837.2150974233027,1244.0349025766973" close="False" data-weight="2.060660171779821" stroke-width="6" fill="none" stroke="#984ea3" />
<path d="M782.125,1175.2665898254845 L782.125,1205.9834101745155" close="False" data-weight="1.75" stroke-width="6" fill="none" stroke="#984ea3" />
<path d="M800.2665898254845,1157.125 L830.9834101745155,1157.125" close="False" data-weight="1.75" stroke-width="6" fill="none" stroke="#984ea3" />
<path d="M794.0349025766973,1062.2150974233027 L837.2150974233027,1019.0349025766973" close="False" data-weight="2.060660171779821" stroke-width="6" fill="none" stroke="#984ea3" />
<path d="M778.125,950.625 L778.125,980.625" close="False" data-weight="1.75" stroke-width="6" fill="none" stroke="#984ea3" />
<path d="M725.625,1303.125 L755.625,1303.125" close="False" data-weight="1.75" stroke-width="6" fill="none" stroke="#984ea3" />
<path d="M725.2665898254845,1232.125 L755.9834101745155,1232.125" close="False" data-weight="1.75" stroke-width="6" fill="none" stroke="#984ea3" />
<path d="M703.125,1175.625 L703.125,1205.625" close="False" data-weight="1.75" stroke-width="6" fill="none" stroke="#984ea3" />
<path d="M719.0349025766973,1137.2150974233027 L762.2150974233027,1094.0349025766973" close="False" data-weight="2.060660171779821" stroke-width="6" fill="none" stroke="#984ea3" />
<path d="M719.0349025766973,1062.2150974233027 L762.2150974233027,1019.0349025766973" close="False" data-weight="2.060660171779821" stroke-width="6" fill="none" stroke="#984ea3" />
<path d="M719.0349025766973,987.2150974233027 L762.2150974233027,944.0349025766973" close="False" data-weight="2.060660171779821" stroke-width="6" fill="none" stroke="#984ea3" />
<path d="M644.0349025766973,1244.0349025766973 L687.2150974233027,1287.2150974233027" close="False" data-weight="2.060660171779821" stroke-width="6" fill="none" stroke="#984ea3" />
<path d="M628.125,1175.625 L628.125,1205.625" close="False" data-weight="1.75" stroke-width="6" fill="none" stroke="#984ea3" />
<path d="M644.0349025766973,1137.2150974233027 L687.2150974233027,1094.0349025766973" close="False" data-weight="2.060660171779821" stroke-width="6" fill="none" stroke="#984ea3" />
<path d="M644.0349025766973,1062.2150974233027 L687.2150974233027,1019.0349025766973" close="False" data-weight="2.060660171779821" stroke-width="6" fill="none" stroke="#984ea3" />
<path d="M575.625,1078.125 L605.625,1078.125" close="False" data-weight="1.75" stroke-width="6" fill="none" stroke="#984ea3" />
<path d="M553.125,1025.625 L553.125,1055.625" close="False" data-weight="1.75" stroke-width="6" fill="none" stroke="#984ea3" />
<path d="M500.625,1003.125 L530.625,1003.125" close="False" data-weight="1.75" stroke-width="6" fill="none" stroke="#984ea3" />
<path d="M425.625,1003.125 L455.625,1003.125" close="False" data-weight="1.75" stroke-width="6" fill="none" stroke="#984ea3" />
<path d="M350.625,1003.125 L380.625,1003.125" close="False" data-weight="1.75" stroke-width="6" fill="none" stroke="#984ea3" />
<path d="M269.03490257669733,944.0349025766973 L312.21509742330267,987.2150974233027" close="False" data-weight="2.060660171779821" stroke-width="6" fill="none" stroke="#984ea3" />
<path d="M1169.0349025766973,837.2150974233027 C1161.0799512883486,845.1700487116514,1145.1700487116514,861.0799512883486,1137.2150974233027,869.0349025766973" close="False" data-weight="0.0" stroke-width="6" fill="none" stroke="#ff7f00" />
<path d="M1094.0349025766973,912.2150974233027 C1086.0799512883486,920.1700487116514,1070.1700487116514,936.0799512883486,1062.2150974233027,944.0349025766973" close="False" data-weight="0.0" stroke-width="6" fill="none" stroke="#ff7f00" />
<path d="M1019.0349025766973,987.2150974233027 A54.3198051533949,54.3198051533949,0,0,1,1001.4122894815039,998.9901510378279 M1001.4122894815039,998.9901510378279 A54.31980515339421,54.31980515339421,0,0,1,980.625,1003.125 M980.625,1003.125" close="False" data-weight="1.0" stroke-width="6" fill="none" stroke="#ff7f00" />
<path d="M1025.625,103.125 C1014.375,103.125,991.875,103.125,980.625,103.125" close="False" data-weight="0.0" stroke-width="6" fill="none" stroke="#ff7f00" />
<path d="M950.625,1003.125 C939.375,1003.125,916.875,1003.125,905.625,1003.125" close="False" data-weight="0.0" stroke-width="6" fill="none" stroke="#ff7f00" />
<path d="M950.2665898254845,924.125 C939.0614806611713,924.125,916.8301091643132,928.125,905.625,928.125" close="False" data-weight="0.0" stroke-width="6" fill="none" stroke="#ff7f00" />
<path d="M928.125,830.625 A101.06381732028422,101.06381732028422,0,0,0,930.57834665193,852.7580125810616 M930.57834665193,852.7580125810616 A38.62248500652271,38.62248500652271,0,0,0,940.9530411871124,871.6098954366048 M940.9530411871124,871.6098954366048" close="False" data-weight="1.0" stroke-width="6" fill="none" stroke="#ff7f00" />
<path d="M928.125,755.625 C928.125,766.875,928.125,789.375,928.125,800.625" close="False" data-weight="0.0" stroke-width="6" fill="none" stroke="#ff7f00" />
<path d="M928.125,680.625 C928.125,691.875,928.125,714.375,928.125,725.625" close="False" data-weight="0.0" stroke-width="6" fill="none" stroke="#ff7f00" />
<path d="M950.625,103.125 C939.375,103.125,916.875,103.125,905.625,103.125" close="False" data-weight="0.0" stroke-width="6" fill="none" stroke="#ff7f00" />
<path d="M875.625,1003.125 A54.31980515339478,54.31980515339478,0,0,1,854.8377105184961,998.9901510378278 M854.8377105184961,998.9901510378278 A54.319805153394256,54.319805153394256,0,0,1,837.2150974233027,987.2150974233027 M837.2150974233027,987.2150974233027" close="False" data-weight="1.0" stroke-width="6" fill="none" stroke="#ff7f00" />
<path d="M875.625,928.125 C864.375,928.125,841.875,928.125,830.625,928.125" close="False" data-weight="0.0" stroke-width="6" fill="none" stroke="#ff7f00" />
<path d="M869.0349025766973,494.03490257669733 C861.0799512883486,486.0799512883487,845.1700487116514,470.1700487116513,837.2150974233027,462.21509742330267" close="False" data-weight="0.0" stroke-width="6" fill="none" stroke="#ff7f00" />
<path d="M778.125,380.625 A54.319805153394555,54.319805153394555,0,0,0,782.2598489621722,401.412289481504 M782.2598489621722,401.412289481504 A54.31980515339474,54.31980515339474,0,0,0,794.0349025766973,419.03490257669733 M794.0349025766973,419.03490257669733" close="False" data-weight="1.0" stroke-width="6" fill="none" stroke="#ff7f00" />
<path d="M778.125,305.625 C778.125,316.875,778.125,339.375,778.125,350.625" close="False" data-weight="0.0" stroke-width="6" fill="none" stroke="#ff7f00" />
<path d="M778.125,230.625 C778.125,241.875,778.125,264.375,778.125,275.625" close="False" data-weight="0.0" stroke-width="6" fill="none" stroke="#ff7f00" />
<path d="M778.125,155.625 C778.125,166.875,778.125,189.375,778.125,200.625" close="False" data-weight="0.0" stroke-width="6" fill="none" stroke="#ff7f00" />
<path d="M1169.0349025766973,837.2150974233027 L1212.2150974233027,794.0349025766973" close="False" data-weight="2.060660171779821" stroke-width="6" fill="none" stroke="#ff7f00" />
<path d="M1094.0349025766973,912.2150974233027 L1137.2150974233027,869.0349025766973" close="False" data-weight="2.060660171779821" stroke-width="6" fill="none" stroke="#ff7f00" />
<path d="M1019.0349025766973,987.2150974233027 L1062.2150974233027,944.0349025766973" close="False" data-weight="2.060660171779821" stroke-width="6" fill="none" stroke="#ff7f00" />
<path d="M1025.625,103.125 L1055.625,103.125" close="False" data-weight="1.75" stroke-width="6" fill="none" stroke="#ff7f00" />
<path d="M950.625,1003.125 L980.625,1003.125" close="False" data-weight="1.75" stroke-width="6" fill="none" stroke="#ff7f00" />
<path d="M950.2665898254845,924.125 L980.9834101745155,924.125" close="False" data-weight="1.75" stroke-width="6" fill="none" stroke="#ff7f00" />
<path d="M940.9530411871124,871.6098954366048 L984.6401045634026,915.296958812895" close="False" data-weight="2.060660171779821" stroke-width="6" fill="none" stroke="#ff7f00" />
<path d="M928.125,800.625 L928.125,830.625" close="False" data-weight="1.75" stroke-width="6" fill="none" stroke="#ff7f00" />
<path d="M928.125,725.625 L928.125,755.625" close="False" data-weight="1.75" stroke-width="6" fill="none" stroke="#ff7f00" />
<path d="M928.125,650.625 L928.125,680.625" close="False" data-weight="1.75" stroke-width="6" fill="none" stroke="#ff7f00" />
<path d="M928.125,575.625 L928.125,605.625" close="False" data-weight="1.75" stroke-width="6" fill="none" stroke="#ff7f00" />
<path d="M950.625,103.125 L980.625,103.125" close="False" data-weight="1.75" stroke-width="6" fill="none" stroke="#ff7f00" />
<path d="M875.625,1003.125 L905.625,1003.125" close="False" data-weight="1.75" stroke-width="6" fill="none" stroke="#ff7f00" />
<path d="M875.625,928.125 L905.625,928.125" close="False" data-weight="1.75" stroke-width="6" fill="none" stroke="#ff7f00" />
<path d="M869.0349025766973,494.03490257669733 L912.2150974233027,537.2150974233027" close="False" data-weight="2.060660171779821" stroke-width="6" fill="none" stroke="#ff7f00" />
<path d="M875.625,103.125 L905.625,103.125" close="False" data-weight="1.75" stroke-width="6" fill="none" stroke="#ff7f00" />
<path d="M794.0349025766973,944.0349025766973 L837.2150974233027,987.2150974233027" close="False" data-weight="2.060660171779821" stroke-width="6" fill="none" stroke="#ff7f00" />
<path d="M800.625,928.125 L830.625,928.125" close="False" data-weight="1.75" stroke-width="6" fill="none" stroke="#ff7f00" />
<path d="M794.0349025766973,419.03490257669733 L837.2150974233027,462.21509742330267" close="False" data-weight="2.060660171779821" stroke-width="6" fill="none" stroke="#ff7f00" />
<path d="M778.125,350.625 L778.125,380.625" close="False" data-weight="1.75" stroke-width="6" fill="none" stroke="#ff7f00" />
<path d="M778.125,275.625 L778.125,305.625" close="False" data-weight="1.75" stroke-width="6" fill="none" stroke="#ff7f00" />
<path d="M778.125,200.625 L778.125,230.625" close="False" data-weight="1.75" stroke-width="6" fill="none" stroke="#ff7f00" />
<path d="M778.125,125.625 L778.125,155.625" close="False" data-weight="1.75" stroke-width="6" fill="none" stroke="#ff7f00" />
<path d="M800.625,103.125 L830.625,103.125" close="False" data-weight="1.75" stroke-width="6" fill="none" stroke="#ff7f00" />
<path d="M1175.625,778.125 A54.31980515339285,54.31980515339285,0,0,0,1154.837710518496,782.2598489621724 M1154.837710518496,782.2598489621724 A54.31980515339619,54.31980515339619,0,0,0,1137.2150974233027,794.0349025766973 M1137.2150974233027,794.0349025766973" close="False" data-weight="1.0" stroke-width="6" fill="none" stroke="#4daf4a" />
<path d="M1094.0349025766973,837.2150974233027 C1086.111693902674,845.138306097326,1073.220167486911,863.6866867625815,1065.2969588128876,871.6098954366048" close="False" data-weight="0.0" stroke-width="6" fill="none" stroke="#4daf4a" />
<path d="M1003.125,980.625 A54.31980515339478,54.31980515339478,0,0,1,998.9901510378278,1001.4122894815039 M998.9901510378278,1001.4122894815039 A54.319805153394256,54.319805153394256,0,0,1,987.2150974233027,1019.0349025766973 M987.2150974233027,1019.0349025766973" close="False" data-weight="1.0" stroke-width="6" fill="none" stroke="#4daf4a" />
<path d="M944.0349025766973,1062.2150974233027 C936.0799512883486,1070.1700487116514,920.1700487116514,1086.0799512883486,912.2150974233027,1094.0349025766973" close="False" data-weight="0.0" stroke-width="6" fill="none" stroke="#4daf4a" />
<path d="M1175.625,778.125 L1205.625,778.125" close="False" data-weight="1.75" stroke-width="6" fill="none" stroke="#4daf4a" />
<path d="M1094.0349025766973,837.2150974233027 L1137.2150974233027,794.0349025766973" close="False" data-weight="2.060660171779821" stroke-width="6" fill="none" stroke="#4daf4a" />
<path d="M1003.125,950.625 L1003.125,980.625" close="False" data-weight="1.75" stroke-width="6" fill="none" stroke="#4daf4a" />
<path d="M1021.6098954365974,915.296958812895 L1065.2969588128876,871.6098954366048" close="False" data-weight="2.060660171779821" stroke-width="6" fill="none" stroke="#4daf4a" />
<path d="M944.0349025766973,1062.2150974233027 L987.2150974233027,1019.0349025766973" close="False" data-weight="2.060660171779821" stroke-width="6" fill="none" stroke="#4daf4a" />
<path d="M869.0349025766973,1137.2150974233027 L912.2150974233027,1094.0349025766973" close="False" data-weight="2.060660171779821" stroke-width="6" fill="none" stroke="#4daf4a" />
<path d="M774.125,1175.2665898254845 L774.125,1205.9834101745155" close="False" data-weight="1.75" stroke-width="6" fill="none" stroke="#4daf4a" />
<path d="M800.2665898254845,1149.125 L830.9834101745155,1149.125" close="False" data-weight="1.75" stroke-width="6" fill="none" stroke="#4daf4a" />
<path d="M725.2665898254845,1224.125 L755.9834101745155,1224.125" close="False" data-weight="1.75" stroke-width="6" fill="none" stroke="#4daf4a" />
<path d="M1078.125,830.625 A35.85816626156111,35.85816626156111,0,0,1,1072.55974976609,849.8121656631051 M1072.55974976609,849.8121656631051 A93.83039863665802,93.83039863665802,0,0,1,1059.64010456341,865.9530411870975 M1059.64010456341,865.9530411870975" close="False" data-weight="1.0" stroke-width="6" fill="none" stroke="#377eb8" />
<path d="M1078.125,755.625 C1078.125,766.875,1078.125,789.375,1078.125,800.625" close="False" data-weight="0.0" stroke-width="6" fill="none" stroke="#377eb8" />
<path d="M1078.125,680.625 C1078.125,691.875,1078.125,714.375,1078.125,725.625" close="False" data-weight="0.0" stroke-width="6" fill="none" stroke="#377eb8" />
<path d="M1078.125,605.625 C1078.125,616.875,1078.125,639.375,1078.125,650.625" close="False" data-weight="0.0" stroke-width="6" fill="none" stroke="#377eb8" />
<path d="M1078.125,530.625 C1078.125,541.875,1078.125,564.375,1078.125,575.625" close="False" data-weight="0.0" stroke-width="6" fill="none" stroke="#377eb8" />
<path d="M1078.125,455.625 C1078.125,466.875,1078.125,489.375,1078.125,500.625" close="False" data-weight="0.0" stroke-width="6" fill="none" stroke="#377eb8" />
<path d="M1078.125,380.625 C1078.125,391.875,1078.125,414.375,1078.125,425.625" close="False" data-weight="0.0" stroke-width="6" fill="none" stroke="#377eb8" />
<path d="M1078.125,305.625 C1078.125,316.875,1078.125,339.375,1078.125,350.625" close="False" data-weight="0.0" stroke-width="6" fill="none" stroke="#377eb8" />
<path d="M1078.125,230.625 C1078.125,241.875,1078.125,264.375,1078.125,275.625" close="False" data-weight="0.0" stroke-width="6" fill="none" stroke="#377eb8" />
<path d="M1078.125,155.625 C1078.125,166.875,1078.125,189.375,1078.125,200.625" close="False" data-weight="0.0" stroke-width="6" fill="none" stroke="#377eb8" />
<path d="M946.6098954365899,865.9530411870975 A38.62248500647544,38.62248500647544,0,0,0,927.7580125810534,855.5783466519242 M927.7580125810534,855.5783466519242 A101.06381732044201,101.06381732044201,0,0,0,905.625,853.125 M905.625,853.125" close="False" data-weight="1.0" stroke-width="6" fill="none" stroke="#377eb8" />
<path d="M875.625,853.125 C864.375,853.125,841.875,853.125,830.625,853.125" close="False" data-weight="0.0" stroke-width="6" fill="none" stroke="#377eb8" />
<path d="M800.625,853.125 C789.375,853.125,766.875,853.125,755.625,853.125" close="False" data-weight="0.0" stroke-width="6" fill="none" stroke="#377eb8" />
<path d="M725.625,853.125 C714.375,853.125,691.875,853.125,680.625,853.125" close="False" data-weight="0.0" stroke-width="6" fill="none" stroke="#377eb8" />
<path d="M650.625,853.125 C639.375,853.125,616.875,853.125,605.625,853.125" close="False" data-weight="0.0" stroke-width="6" fill="none" stroke="#377eb8" />
<path d="M575.625,853.125 C564.375,853.125,541.875,853.125,530.625,853.125" close="False" data-weight="0.0" stroke-width="6" fill="none" stroke="#377eb8" />
<path d="M500.625,853.125 C489.375,853.125,466.875,853.125,455.625,853.125" close="False" data-weight="0.0" stroke-width="6" fill="none" stroke="#377eb8" />
<path d="M425.625,853.125 C414.375,853.125,391.875,853.125,380.625,853.125" close="False" data-weight="0.0" stroke-width="6" fill="none" stroke="#377eb8" />
<path d="M350.625,853.125 A35.85816626156043,35.85816626156043,0,0,0,331.43783433689066,858.6902502339128 M331.43783433689066,858.6902502339128 A93.83039863674708,93.83039863674708,0,0,0,315.296958812895,871.6098954365974 M315.296958812895,871.6098954365974" close="False" data-weight="1.0" stroke-width="6" fill="none" stroke="#377eb8" />
<path d="M1078.125,800.625 L1078.125,830.625" close="False" data-weight="1.75" stroke-width="6" fill="none" stroke="#377eb8" />
<path d="M1078.125,725.625 L1078.125,755.625" close="False" data-weight="1.75" stroke-width="6" fill="none" stroke="#377eb8" />
<path d="M1078.125,650.625 L1078.125,680.625" close="False" data-weight="1.75" stroke-width="6" fill="none" stroke="#377eb8" />
<path d="M1078.125,575.625 L1078.125,605.625" close="False" data-weight="1.75" stroke-width="6" fill="none" stroke="#377eb8" />
<path d="M1078.125,500.625 L1078.125,530.625" close="False" data-weight="1.75" stroke-width="6" fill="none" stroke="#377eb8" />
<path d="M1078.125,425.625 L1078.125,455.625" close="False" data-weight="1.75" stroke-width="6" fill="none" stroke="#377eb8" />
<path d="M1078.125,350.625 L1078.125,380.625" close="False" data-weight="1.75" stroke-width="6" fill="none" stroke="#377eb8" />
<path d="M1078.125,275.625 L1078.125,305.625" close="False" data-weight="1.75" stroke-width="6" fill="none" stroke="#377eb8" />
<path d="M1078.125,200.625 L1078.125,230.625" close="False" data-weight="1.75" stroke-width="6" fill="none" stroke="#377eb8" />
<path d="M1078.125,125.625 L1078.125,155.625" close="False" data-weight="1.75" stroke-width="6" fill="none" stroke="#377eb8" />
<path d="M1015.953041187105,909.6401045634026 L1059.64010456341,865.9530411870975" close="False" data-weight="2.060660171779821" stroke-width="6" fill="none" stroke="#377eb8" />
<path d="M946.6098954365899,865.9530411870975 L990.296958812895,909.6401045634026" close="False" data-weight="2.060660171779821" stroke-width="6" fill="none" stroke="#377eb8" />
<path d="M875.625,853.125 L905.625,853.125" close="False" data-weight="1.75" stroke-width="6" fill="none" stroke="#377eb8" />
<path d="M800.625,853.125 L830.625,853.125" close="False" data-weight="1.75" stroke-width="6" fill="none" stroke="#377eb8" />
<path d="M725.625,853.125 L755.625,853.125" close="False" data-weight="1.75" stroke-width="6" fill="none" stroke="#377eb8" />
<path d="M650.625,853.125 L680.625,853.125" close="False" data-weight="1.75" stroke-width="6" fill="none" stroke="#377eb8" />
<path d="M575.625,853.125 L605.625,853.125" close="False" data-weight="1.75" stroke-width="6" fill="none" stroke="#377eb8" />
<path d="M500.625,853.125 L530.625,853.125" close="False" data-weight="1.75" stroke-width="6" fill="none" stroke="#377eb8" />
<path d="M425.625,853.125 L455.625,853.125" close="False" data-weight="1.75" stroke-width="6" fill="none" stroke="#377eb8" />
<path d="M350.625,853.125 L380.625,853.125" close="False" data-weight="1.75" stroke-width="6" fill="none" stroke="#377eb8" />
<path d="M271.6098954365974,915.296958812895 L315.296958812895,871.6098954365974" close="False" data-weight="2.060660171779821" stroke-width="6" fill="none" stroke="#377eb8" />
<path d="M875.625,628.125 C864.375,628.125,841.875,628.125,830.625,628.125" close="False" data-weight="0.0" stroke-width="6" fill="none" stroke="#e41a1c" />
<path d="M800.625,628.125 C789.375,628.125,766.875,628.125,755.625,628.125" close="False" data-weight="0.0" stroke-width="6" fill="none" stroke="#e41a1c" />
<path d="M725.625,628.125 C714.375,628.125,691.875,628.125,680.625,628.125" close="False" data-weight="0.0" stroke-width="6" fill="none" stroke="#e41a1c" />
<path d="M650.625,628.125 C639.375,628.125,616.875,628.125,605.625,628.125" close="False" data-weight="0.0" stroke-width="6" fill="none" stroke="#e41a1c" />
<path d="M575.625,628.125 C564.375,628.125,541.875,628.125,530.625,628.125" close="False" data-weight="0.0" stroke-width="6" fill="none" stroke="#e41a1c" />
<path d="M500.625,628.125 C489.375,628.125,466.875,628.125,455.625,628.125" close="False" data-weight="0.0" stroke-width="6" fill="none" stroke="#e41a1c" />
<path d="M425.625,628.125 C414.375,628.125,391.875,628.125,380.625,628.125" close="False" data-weight="0.0" stroke-width="6" fill="none" stroke="#e41a1c" />
<path d="M920.125,574.1547408448131 L920.125,607.0952591551869" close="False" data-weight="1.75" stroke-width="6" fill="none" stroke="#e41a1c" />
<path d="M875.625,628.125 L905.625,628.125" close="False" data-weight="1.75" stroke-width="6" fill="none" stroke="#e41a1c" />
<path d="M800.625,628.125 L830.625,628.125" close="False" data-weight="1.75" stroke-width="6" fill="none" stroke="#e41a1c" />
<path d="M725.625,628.125 L755.625,628.125" close="False" data-weight="1.75" stroke-width="6" fill="none" stroke="#e41a1c" />
<path d="M650.625,628.125 L680.625,628.125" close="False" data-weight="1.75" stroke-width="6" fill="none" stroke="#e41a1c" />
<path d="M575.625,628.125 L605.625,628.125" close="False" data-weight="1.75" stroke-width="6" fill="none" stroke="#e41a1c" />
<path d="M500.625,628.125 L530.625,628.125" close="False" data-weight="1.75" stroke-width="6" fill="none" stroke="#e41a1c" />
<path d="M425.625,628.125 L455.625,628.125" close="False" data-weight="1.75" stroke-width="6" fill="none" stroke="#e41a1c" />
<path d="M350.625,628.125 L380.625,628.125" close="False" data-weight="1.75" stroke-width="6" fill="none" stroke="#e41a1c" />
<path d="M275.625,628.125 L305.625,628.125" close="False" data-weight="1.75" stroke-width="6" fill="none" stroke="#e41a1c" />
<image x="1195.625" y="745.625" width="65" height="65" xlink:href="designspace-test/./img/ds_dataset0_20_3_thumb.png">
<title>3</title>
</image>
<image x="1045.625" y="70.625" width="65" height="65" xlink:href="designspace-test/./img/ds_dataset0_20_2_thumb.png">
<title>2</title>
</image>
<image x="970.625" y="895.625" width="65" height="65" xlink:href="designspace-test/./img/ds_dataset0_20_19_thumb.png">
<title>19</title>
</image>
<image x="895.625" y="595.625" width="65" height="65" xlink:href="designspace-test/./img/ds_dataset0_20_4_thumb.png">
<title>4</title>
</image>
<image x="895.625" y="520.625" width="65" height="65" xlink:href="designspace-test/./img/ds_dataset0_20_15_thumb.png">
<title>15</title>
</image>
<image x="820.625" y="1120.625" width="65" height="65" xlink:href="designspace-test/./img/ds_dataset0_20_8_thumb.png">
<title>8</title>
</image>
<image x="820.625" y="70.625" width="65" height="65" xlink:href="designspace-test/./img/ds_dataset0_20_13_thumb.png">
<title>13</title>
</image>
<image x="745.625" y="1195.625" width="65" height="65" xlink:href="designspace-test/./img/ds_dataset0_20_14_thumb.png">
<title>14</title>
</image>
<image x="745.625" y="1120.625" width="65" height="65" xlink:href="designspace-test/./img/ds_dataset0_20_12_thumb.png">
<title>12</title>
</image>
<image x="745.625" y="895.625" width="65" height="65" xlink:href="designspace-test/./img/ds_dataset0_20_7_thumb.png">
<title>7</title>
</image>
<image x="745.625" y="70.625" width="65" height="65" xlink:href="designspace-test/./img/ds_dataset0_20_16_thumb.png">
<title>16</title>
</image>
<image x="670.625" y="1195.625" width="65" height="65" xlink:href="designspace-test/./img/ds_dataset0_20_0_thumb.png">
<title>0</title>
</image>
<image x="595.625" y="1045.625" width="65" height="65" xlink:href="designspace-test/./img/ds_dataset0_20_10_thumb.png">
<title>10</title>
</image>
<image x="520.625" y="1045.625" width="65" height="65" xlink:href="designspace-test/./img/ds_dataset0_20_17_thumb.png">
<title>17</title>
</image>
<image x="520.625" y="970.625" width="65" height="65" xlink:href="designspace-test/./img/ds_dataset0_20_5_thumb.png">
<title>5</title>
</image>
<image x="520.625" y="70.625" width="65" height="65" xlink:href="designspace-test/./img/ds_dataset0_20_6_thumb.png">
<title>6</title>
</image>
<image x="295.625" y="595.625" width="65" height="65" xlink:href="designspace-test/./img/ds_dataset0_20_9_thumb.png">
<title>9</title>
</image>
<image x="220.625" y="895.625" width="65" height="65" xlink:href="designspace-test/./img/ds_dataset0_20_18_thumb.png">
<title>18</title>
</image>
<image x="220.625" y="595.625" width="65" height="65" xlink:href="designspace-test/./img/ds_dataset0_20_1_thumb.png">
<title>1</title>
</image>
</svg>