<?xml version="1.0" encoding="UTF-8"?>
<svg xmlns="http://www.w3.org/2000/svg" xmlns:xlink="http://www.w3.org/1999/xlink"
     width="2550" height="2550" viewBox="0 0 2550 2550">
<defs>
</defs>
<path d="M2369.0349025766973,1394.0349025766973 C2361.0799512883486,1386.0799512883486,2345.1700487116514,1370.1700487116514,2337.2150974233027,1362.2150974233027" close="False" data-weight="0.0" stroke-width="6" fill="none" stroke="#ffff33" />
<path d="M2294.0349025766973,1319.0349025766973 C2286.0799512883486,1311.0799512883486,2270.1700487116514,1295.1700487116514,2262.2150974233027,1287.2150974233027" close="False" data-weight="0.0" stroke-width="6" fill="none" stroke="#ffff33" />
<path d="M2219.0349025766973,1244.0349025766973 C2211.0799512883486,1236.0799512883486,2195.1700487116514,1220.1700487116514,2187.2150974233027,1212.2150974233027" close="False" data-weight="0.0" stroke-width="6" fill="none" stroke="#ffff33" />
<path d="M2144.0349025766973,1169.0349025766973 C2136.0799512883486,1161.0799512883486,2120.1700487116514,1145.1700487116514,2112.2150974233027,1137.2150974233027" close="False" data-weight="0.0" stroke-width="6" fill="none" stroke="#ffff33" />
<path d="M2069.0349025766973,1094.0349025766973 C2061.0799512883486,1086.0799512883486,2045.1700487116514,1070.1700487116514,2037.2150974233027,1062.2150974233027" close="False" data-weight="0.0" stroke-width="6" fill="none" stroke="#ffff33" />
<path d="M1994.0349025766973,1019.0349025766973 C1986.0799512883486,1011.0799512883486,1970.1700487116514,995.1700487116514,1962.2150974233027,987.2150974233027" close="False" data-weight="0.0" stroke-width="6" fill="none" stroke="#ffff33" />
<path d="M1919.0349025766973,944.0349025766973 C1911.0799512883486,936.0799512883486,1895.1700487116514,920.1700487116514,1887.2150974233027,912.2150974233027" close="False" data-weight="0.0" stroke-width="6" fill="none" stroke="#ffff33" />
<path d="M1844.0349025766973,869.0349025766973 C1836.0799512883486,861.0799512883486,1820.1700487116514,845.1700487116514,1812.2150974233027,837.2150974233027" close="False" data-weight="0.0" stroke-width="6" fill="none" stroke="#ffff33" />
<path d="M1769.0349025766973,794.0349025766973 C1761.0799512883486,786.0799512883486,1745.1700487116514,770.1700487116514,1737.2150974233027,762.2150974233027" close="False" data-weight="0.0" stroke-width="6" fill="none" stroke="#ffff33" />
<path d="M1694.0349025766973,719.0349025766973 C1686.0799512883486,711.0799512883486,1670.1700487116514,695.1700487116514,1662.2150974233027,687.2150974233027" close="False" data-weight="0.0" stroke-width="6" fill="none" stroke="#ffff33" />
<path d="M1619.0349025766973,644.0349025766973 C1611.0799512883486,636.0799512883486,1595.1700487116514,620.1700487116514,1587.2150974233027,612.2150974233027" close="False" data-weight="0.0" stroke-width="6" fill="none" stroke="#ffff33" />
<path d="M1528.125,530.625 A54.31980515339637,54.31980515339637,0,0,0,1532.259848962172,551.412289481504 M1532.259848962172,551.412289481504 A54.31980515339273,54.31980515339273,0,0,0,1544.0349025766973,569.0349025766973 M1544.0349025766973,569.0349025766973" close="False" data-weight="1.0" stroke-width="6" fill="none" stroke="#ffff33" />
<path d="M1528.125,455.625 C1528.125,466.875,1528.125,489.375,1528.125,500.625" close="False" data-weight="0.0" stroke-width="6" fill="none" stroke="#ffff33" />
<path d="M1528.125,380.625 C1528.125,391.875,1528.125,414.375,1528.125,425.625" close="False" data-weight="0.0" stroke-width="6" fill="none" stroke="#ffff33" />
<path d="M1528.125,305.625 C1528.125,316.875,1528.125,339.375,1528.125,350.625" close="False" data-weight="0.0" stroke-width="6" fill="none" stroke="#ffff33" />
<path d="M1528.125,230.625 C1528.125,241.875,1528.125,264.375,1528.125,275.625" close="False" data-weight="0.0" stroke-width="6" fill="none" stroke="#ffff33" />
<path d="M2424.125,1475.2665898254845 L2424.125,1505.9834101745155" close="False" data-weight="1.75" stroke-width="6" fill="none" stroke="#ffff33" />
<path d="M2369.0349025766973,1394.0349025766973 L2412.2150974233027,1437.2150974233027" close="False" data-weight="2.060660171779821" stroke-width="6" fill="none" stroke="#ffff33" />
<path d="M2294.0349025766973,1319.0349025766973 L2337.2150974233027,1362.2150974233027" close="False" data-weight="2.060660171779821" stroke-width="6" fill="none" stroke="#ffff33" />
<path d="M2219.0349025766973,1244.0349025766973 L2262.2150974233027,1287.2150974233027" close="False" data-weight="2.060660171779821" stroke-width="6" fill="none" stroke="#ffff33" />
<path d="M2144.0349025766973,1169.0349025766973 L2187.2150974233027,1212.2150974233027" close="False" data-weight="2.060660171779821" stroke-width="6" fill="none" stroke="#ffff33" />
<path d="M2069.0349025766973,1094.0349025766973 L2112.2150974233027,1137.2150974233027" close="False" data-weight="2.060660171779821" stroke-width="6" fill="none" stroke="#ffff33" />
<path d="M1994.0349025766973,1019.0349025766973 L2037.2150974233027,1062.2150974233027" close="False" data-weight="2.060660171779821" stroke-width="6" fill="none" stroke="#ffff33" />
<path d="M1919.0349025766973,944.0349025766973 L1962.2150974233027,987.2150974233027" close="False" data-weight="2.060660171779821" stroke-width="6" fill="none" stroke="#ffff33" />
<path d="M1844.0349025766973,869.0349025766973 L1887.2150974233027,912.2150974233027" close="False" data-weight="2.060660171779821" stroke-width="6" fill="none" stroke="#ffff33" />
<path d="M1769.0349025766973,794.0349025766973 L1812.2150974233027,837.2150974233027" close="False" data-weight="2.060660171779821" stroke-width="6" fill="none" stroke="#ffff33" />
<path d="M1694.0349025766973,719.0349025766973 L1737.2150974233027,762.2150974233027" close="False" data-weight="2.060660171779821" stroke-width="6" fill="none" stroke="#ffff33" />
<path d="M1619.0349025766973,644.0349025766973 L1662.2150974233027,687.2150974233027" close="False" data-weight="2.060660171779821" stroke-width="6" fill="none" stroke="#ffff33" />
<path d="M1544.0349025766973,569.0349025766973 L1587.2150974233027,612.2150974233027" close="False" data-weight="2.060660171779821" stroke-width="6" fill="none" stroke="#ffff33" />
<path d="M1528.125,500.625 L1528.125,530.625" close="False" data-weight="1.75" stroke-width="6" fill="none" stroke="#ffff33" />
<path d="M1528.125,425.625 L1528.125,455.625" close="False" data-weight="1.75" stroke-width="6" fill="none" stroke="#ffff33" />
<path d="M1528.125,350.625 L1528.125,380.625" close="False" data-weight="1.75" stroke-width="6" fill="none" stroke="#ffff33" />
<path d="M1528.125,275.625 L1528.125,305.625" close="False" data-weight="1.75" stroke-width="6" fill="none" stroke="#ffff33" />
<path d="M1528.125,200.625 L1528.125,230.625" close="False" data-weight="1.75" stroke-width="6" fill="none" stroke="#ffff33" />
<path d="M1757.125,530.9834101745155 C1757.125,542.0542050872577,1757.125,564.1957949127423,1757.125,575.2665898254845" close="False" data-weight="0.0" stroke-width="6" fill="none" stroke="#984ea3" />
<path d="M1757.125,455.9834101745155 C1757.125,467.05420508725774,1757.125,489.19579491274226,1757.125,500.2665898254845" close="False" data-weight="0.0" stroke-width="6" fill="none" stroke="#984ea3" />
<path d="M1757.125,425.2665898254845 A57.45452644921602,57.45452644921602,0,0,0,1752.751534587351,403.2796944390069 M1752.751534587351,403.2796944390069 A57.45452644910702,57.45452644910702,0,0,0,1740.29695881291,384.6401045634175 M1740.29695881291,384.6401045634175" close="False" data-weight="1.0" stroke-width="6" fill="none" stroke="#984ea3" />
<path d="M1696.6098954365973,340.953041187105 C1688.781661280668,333.1248070311757,1673.1251929688094,317.46833871931705,1665.2969588128801,309.64010456338775" close="False" data-weight="0.0" stroke-width="6" fill="none" stroke="#984ea3" />
<path d="M1621.6098954365973,265.953041187105 C1613.7816612806716,258.12480703117944,1598.1251929688208,242.4683387193282,1590.2969588128951,234.64010456340264" close="False" data-weight="0.0" stroke-width="6" fill="none" stroke="#984ea3" />
<path d="M1757.125,575.2665898254845 L1757.125,605.9834101745155" close="False" data-weight="1.75" stroke-width="6" fill="none" stroke="#984ea3" />
<path d="M1757.125,500.2665898254845 L1757.125,530.9834101745155" close="False" data-weight="1.75" stroke-width="6" fill="none" stroke="#984ea3" />
<path d="M1757.125,425.2665898254845 L1757.125,455.9834101745155" close="False" data-weight="1.75" stroke-width="6" fill="none" stroke="#984ea3" />
<path d="M1696.6098954365973,340.953041187105 L1740.29695881291,384.6401045634175" close="False" data-weight="2.060660171779821" stroke-width="6" fill="none" stroke="#984ea3" />
<path d="M1621.6098954365825,265.9530411870901 L1665.2969588128951,309.6401045634026" close="False" data-weight="2.060660171779821" stroke-width="6" fill="none" stroke="#984ea3" />
<path d="M1546.6098954365973,190.953041187105 L1590.29695881291,234.64010456341757" close="False" data-weight="2.060660171779821" stroke-width="6" fill="none" stroke="#984ea3" />
<path d="M2369.0349025766973,1587.2150974233027 C2361.0799512883486,1595.1700487116514,2345.1700487116514,1611.0799512883486,2337.2150974233027,1619.0349025766973" close="False" data-weight="0.0" stroke-width="6" fill="none" stroke="#ff7f00" />
<path d="M2294.0349025766973,1662.2150974233027 C2286.0799512883486,1670.1700487116514,2270.1700487116514,1686.0799512883486,2262.2150974233027,1694.0349025766973" close="False" data-weight="0.0" stroke-width="6" fill="none" stroke="#ff7f00" />
<path d="M2219.0349025766973,1737.2150974233027 C2211.0799512883486,1745.1700487116514,2195.1700487116514,1761.0799512883486,2187.2150974233027,1769.0349025766973" close="False" data-weight="0.0" stroke-width="6" fill="none" stroke="#ff7f00" />
<path d="M2144.0349025766973,1812.2150974233027 A54.319805153391044,54.319805153391044,0,0,0,2132.259848962172,1829.8377105184957 M2132.259848962172,1829.8377105184957 A54.3198051533941,54.3198051533941,0,0,0,2128.125,1850.625 M2128.125,1850.625" close="False" data-weight="1.0" stroke-width="6" fill="none" stroke="#ff7f00" />
<path d="M1844.0349025766973,1844.0349025766973 C1836.0799512883486,1836.0799512883486,1820.1700487116514,1820.1700487116514,1812.2150974233027,1812.2150974233027" close="False" data-weight="0.0" stroke-width="6" fill="none" stroke="#ff7f00" />
<path d="M1769.0349025766973,1769.0349025766973 C1761.0799512883486,1761.0799512883486,1745.1700487116514,1745.1700487116514,1737.2150974233027,1737.2150974233027" close="False" data-weight="0.0" stroke-width="6" fill="none" stroke="#ff7f00" />
<path d="M1749.125,530.9834101745155 C1749.125,542.0542050872577,1749.125,564.1957949127423,1749.125,575.2665898254845" close="False" data-weight="0.0" stroke-width="6" fill="none" stroke="#ff7f00" />
<path d="M1749.125,455.9834101745155 C1749.125,467.05420508725774,1749.125,489.19579491274226,1749.125,500.2665898254845" close="False" data-weight="0.0" stroke-width="6" fill="none" stroke="#ff7f00" />
<path d="M1749.125,425.2665898254845 A49.454526449157584,49.454526449157584,0,0,0,1745.3604983272492,406.3411618979115 M1745.3604983272492,406.3411618979115 A49.45452644926677,49.45452644926677,0,0,0,1734.6401045633877,390.2969588128802 M1734.6401045633877,390.2969588128802" close="False" data-weight="1.0" stroke-width="6" fill="none" stroke="#ff7f00" />
<path d="M1694.0349025766973,1694.0349025766973 C1686.0799512883486,1686.0799512883486,1670.1700487116514,1670.1700487116514,1662.2150974233027,1662.2150974233027" close="False" data-weight="0.0" stroke-width="6" fill="none" stroke="#ff7f00" />
<path d="M1700.2665898254845,624.125 C1689.1957949127423,624.125,1667.0542050872577,624.125,1655.9834101745155,624.125" close="False" data-weight="0.0" stroke-width="6" fill="none" stroke="#ff7f00" />
<path d="M1690.9530411871049,346.6098954365974 C1683.124807031183,338.78166128067556,1667.4683387193393,323.12519296883175,1659.6401045634175,315.2969588129099" close="False" data-weight="0.0" stroke-width="6" fill="none" stroke="#ff7f00" />
<path d="M1619.0349025766973,1619.0349025766973 C1611.0799512883486,1611.0799512883486,1595.1700487116514,1595.1700487116514,1587.2150974233027,1587.2150974233027" close="False" data-weight="0.0" stroke-width="6" fill="none" stroke="#ff7f00" />
<path d="M1625.2665898254845,624.125 A57.45452644918703,57.45452644918703,0,0,0,1603.2796944389988,628.4984654126547 M1603.2796944389988,628.4984654126547 A57.454526449186446,57.454526449186446,0,0,0,1584.6401045634027,640.953041187105 M1584.6401045634027,640.953041187105" close="False" data-weight="1.0" stroke-width="6" fill="none" stroke="#ff7f00" />
<path d="M1615.9530411871049,271.6098954365974 C1608.1248070311792,263.78166128067187,1592.4683387193284,248.12519296882056,1584.6401045634027,240.296958812895" close="False" data-weight="0.0" stroke-width="6" fill="none" stroke="#ff7f00" />
<path d="M1544.0349025766973,1544.0349025766973 C1536.0799512883486,1536.0799512883486,1520.1700487116514,1520.1700487116514,1512.2150974233027,1512.2150974233027" close="False" data-weight="0.0" stroke-width="6" fill="none" stroke="#ff7f00" />
<path d="M1528.125,1130.625 A54.31980515339569,54.31980515339569,0,0,1,1523.9901510378277,1151.412289481504 M1523.9901510378277,1151.412289481504 A54.3198051533933,54.3198051533933,0,0,1,1512.2150974233027,1169.0349025766973 M1512.2150974233027,1169.0349025766973" close="False" data-weight="1.0" stroke-width="6" fill="none" stroke="#ff7f00" />
<path d="M1528.125,1055.625 C1528.125,1066.875,1528.125,1089.375,1528.125,1100.625" close="False" data-weight="0.0" stroke-width="6" fill="none" stroke="#ff7f00" />
<path d="M1528.125,980.625 C1528.125,991.875,1528.125,1014.375,1528.125,1025.625" close="False" data-weight="0.0" stroke-width="6" fill="none" stroke="#ff7f00" />
<path d="M1528.125,905.625 C1528.125,916.875,1528.125,939.375,1528.125,950.625" close="False" data-weight="0.0" stroke-width="6" fill="none" stroke="#ff7f00" />
<path d="M1528.125,830.625 C1528.125,841.875,1528.125,864.375,1528.125,875.625" close="False" data-weight="0.0" stroke-width="6" fill="none" stroke="#ff7f00" />
<path d="M1469.0349025766973,1469.0349025766973 A54.3198051533949,54.3198051533949,0,0,0,1451.412289481504,1457.2598489621723 M1451.412289481504,1457.2598489621723 A54.3198051533941,54.3198051533941,0,0,0,1430.625,1453.125 M1430.625,1453.125" close="False" data-weight="1.0" stroke-width="6" fill="none" stroke="#ff7f00" />
<path d="M1469.0349025766973,1212.2150974233027 C1461.0799512883486,1220.1700487116514,1445.1700487116514,1236.0799512883486,1437.2150974233027,1244.0349025766973" close="False" data-weight="0.0" stroke-width="6" fill="none" stroke="#ff7f00" />
<path d="M1400.625,1453.125 C1389.375,1453.125,1366.875,1453.125,1355.625,1453.125" close="False" data-weight="0.0" stroke-width="6" fill="none" stroke="#ff7f00" />
<path d="M1394.0349025766973,1287.2150974233027 C1386.0799512883486,1295.1700487116514,1370.1700487116514,1311.0799512883486,1362.2150974233027,1319.0349025766973" close="False" data-weight="0.0" stroke-width="6" fill="none" stroke="#ff7f00" />
<path d="M1307.125,1505.9834101745155 A57.45452644918714,57.45452644918714,0,0,1,1302.7515345873453,1527.9703055610012 M1302.7515345873453,1527.9703055610012 A57.454526449186446,57.454526449186446,0,0,1,1290.2969588128951,1546.6098954365973 M1290.2969588128951,1546.6098954365973" close="False" data-weight="1.0" stroke-width="6" fill="none" stroke="#ff7f00" />
<path d="M1246.6098954365973,1590.2969588128951 C1238.7816612806755,1598.125192968817,1223.1251929688317,1613.7816612806607,1215.29695881291,1621.6098954365825" close="False" data-weight="0.0" stroke-width="6" fill="none" stroke="#ff7f00" />
<path d="M1171.6098954365973,1665.2969588128951 C1163.7816612806716,1673.1251929688208,1148.1251929688208,1688.7816612806716,1140.2969588128951,1696.6098954365973" close="False" data-weight="0.0" stroke-width="6" fill="none" stroke="#ff7f00" />
<path d="M1096.6098954365677,1740.2969588129247 C1088.7816612806496,1748.1251929688428,1073.1251929688133,1763.7816612806791,1065.2969588128951,1771.6098954365973" close="False" data-weight="0.0" stroke-width="6" fill="none" stroke="#ff7f00" />
<path d="M1021.6098954366271,1815.2969588128653 C1013.7816612806866,1823.1251929688058,998.1251929688058,1838.7816612806866,990.2969588128653,1846.609895436627" close="False" data-weight="0.0" stroke-width="6" fill="none" stroke="#ff7f00" />
<path d="M946.6098954365974,2290.953041187105 C938.7816612806718,2283.1248070311794,923.1251929688207,2267.468338719328,915.296958812895,2259.6401045634025" close="False" data-weight="0.0" stroke-width="6" fill="none" stroke="#ff7f00" />
<path d="M946.6098954365974,1890.2969588128951 C938.7816612806719,1898.1251929688208,923.1251929688206,1913.7816612806716,915.296958812895,1921.6098954365973" close="False" data-weight="0.0" stroke-width="6" fill="none" stroke="#ff7f00" />
<path d="M857.125,2180.9834101745155 A49.45452644918589,49.45452644918589,0,0,0,860.8895016727452,2199.9088381020806 M860.8895016727452,2199.9088381020806 A49.45452644918823,49.45452644918823,0,0,0,871.6098954365974,2215.953041187105 M871.6098954365974,2215.953041187105" close="False" data-weight="1.0" stroke-width="6" fill="none" stroke="#ff7f00" />
<path d="M871.6098954365974,1965.2969588128951 C863.7816612806793,1973.1251929688133,848.125192968843,1988.7816612806496,840.2969588129248,1996.6098954365677" close="False" data-weight="0.0" stroke-width="6" fill="none" stroke="#ff7f00" />
<path d="M2432.125,1475.2665898254845 L2432.125,1505.9834101745155" close="False" data-weight="1.75" stroke-width="6" fill="none" stroke="#ff7f00" />
<path d="M2369.0349025766973,1587.2150974233027 L2412.2150974233027,1544.0349025766973" close="False" data-weight="2.060660171779821" stroke-width="6" fill="none" stroke="#ff7f00" />
<path d="M2294.0349025766973,1662.2150974233027 L2337.2150974233027,1619.0349025766973" close="False" data-weight="2.060660171779821" stroke-width="6" fill="none" stroke="#ff7f00" />
<path d="M2219.0349025766973,1737.2150974233027 L2262.2150974233027,1694.0349025766973" close="False" data-weight="2.060660171779821" stroke-width="6" fill="none" stroke="#ff7f00" />
<path d="M2128.125,2075.625 L2128.125,2105.625" close="False" data-weight="1.75" stroke-width="6" fill="none" stroke="#ff7f00" />
<path d="M2128.125,1925.625 L2128.125,1955.625" close="False" data-weight="1.75" stroke-width="6" fill="none" stroke="#ff7f00" />
<path d="M2128.125,1850.625 L2128.125,1880.625" close="False" data-weight="1.75" stroke-width="6" fill="none" stroke="#ff7f00" />
<path d="M2144.0349025766973,1812.2150974233027 L2187.2150974233027,1769.0349025766973" close="False" data-weight="2.060660171779821" stroke-width="6" fill="none" stroke="#ff7f00" />
<path d="M2075.625,2128.125 L2105.625,2128.125" close="False" data-weight="1.75" stroke-width="6" fill="none" stroke="#ff7f00" />
<path d="M2075.625,2053.125 L2105.625,2053.125" close="False" data-weight="1.75" stroke-width="6" fill="none" stroke="#ff7f00" />
<path d="M2053.125,2000.625 L2053.125,2030.625" close="False" data-weight="1.75" stroke-width="6" fill="none" stroke="#ff7f00" />
<path d="M2075.625,1903.125 L2105.625,1903.125" close="False" data-weight="1.75" stroke-width="6" fill="none" stroke="#ff7f00" />
<path d="M2000.625,2128.125 L2030.625,2128.125" close="False" data-weight="1.75" stroke-width="6" fill="none" stroke="#ff7f00" />
<path d="M2000.625,1978.125 L2030.625,1978.125" close="False" data-weight="1.75" stroke-width="6" fill="none" stroke="#ff7f00" />
<path d="M2000.625,1903.125 L2030.625,1903.125" close="False" data-weight="1.75" stroke-width="6" fill="none" stroke="#ff7f00" />
<path d="M1925.625,1978.125 L1955.625,1978.125" close="False" data-weight="1.75" stroke-width="6" fill="none" stroke="#ff7f00" />
<path d="M1903.125,1925.625 L1903.125,1955.625" close="False" data-weight="1.75" stroke-width="6" fill="none" stroke="#ff7f00" />
<path d="M1925.625,1903.125 L1955.625,1903.125" close="False" data-weight="1.75" stroke-width="6" fill="none" stroke="#ff7f00" />
<path d="M1844.0349025766973,1844.0349025766973 L1887.2150974233027,1887.2150974233027" close="False" data-weight="2.060660171779821" stroke-width="6" fill="none" stroke="#ff7f00" />
<path d="M1769.0349025766973,1769.0349025766973 L1812.2150974233027,1812.2150974233027" close="False" data-weight="2.060660171779821" stroke-width="6" fill="none" stroke="#ff7f00" />
<path d="M1749.125,575.2665898254845 L1749.125,605.9834101745155" close="False" data-weight="1.75" stroke-width="6" fill="none" stroke="#ff7f00" />
<path d="M1749.125,500.2665898254845 L1749.125,530.9834101745155" close="False" data-weight="1.75" stroke-width="6" fill="none" stroke="#ff7f00" />
<path d="M1749.125,425.2665898254845 L1749.125,455.9834101745155" close="False" data-weight="1.75" stroke-width="6" fill="none" stroke="#ff7f00" />
<path d="M1694.0349025766973,1694.0349025766973 L1737.2150974233027,1737.2150974233027" close="False" data-weight="2.060660171779821" stroke-width="6" fill="none" stroke="#ff7f00" />
<path d="M1700.2665898254845,624.125 L1730.9834101745155,624.125" close="False" data-weight="1.75" stroke-width="6" fill="none" stroke="#ff7f00" />
<path d="M1690.9530411871049,346.6098954365974 L1734.6401045633877,390.2969588128802" close="False" data-weight="2.060660171779821" stroke-width="6" fill="none" stroke="#ff7f00" />
<path d="M1619.0349025766973,1619.0349025766973 L1662.2150974233027,1662.2150974233027" close="False" data-weight="2.060660171779821" stroke-width="6" fill="none" stroke="#ff7f00" />
<path d="M1625.2665898254845,624.125 L1655.9834101745155,624.125" close="False" data-weight="1.75" stroke-width="6" fill="none" stroke="#ff7f00" />
<path d="M1615.9530411871199,271.60989543661225 L1659.6401045634027,315.296958812895" close="False" data-weight="2.060660171779821" stroke-width="6" fill="none" stroke="#ff7f00" />
<path d="M1544.0349025766973,1544.0349025766973 L1587.2150974233027,1587.2150974233027" close="False" data-weight="2.060660171779821" stroke-width="6" fill="none" stroke="#ff7f00" />
<path d="M1528.125,1100.625 L1528.125,1130.625" close="False" data-weight="1.75" stroke-width="6" fill="none" stroke="#ff7f00" />
<path d="M1528.125,1025.625 L1528.125,1055.625" close="False" data-weight="1.75" stroke-width="6" fill="none" stroke="#ff7f00" />
<path d="M1528.125,950.625 L1528.125,980.625" close="False" data-weight="1.75" stroke-width="6" fill="none" stroke="#ff7f00" />
<path d="M1528.125,875.625 L1528.125,905.625" close="False" data-weight="1.75" stroke-width="6" fill="none" stroke="#ff7f00" />
<path d="M1528.125,800.625 L1528.125,830.625" close="False" data-weight="1.75" stroke-width="6" fill="none" stroke="#ff7f00" />
<path d="M1524.125,725.2665898254845 L1524.125,755.9834101745155" close="False" data-weight="1.75" stroke-width="6" fill="none" stroke="#ff7f00" />
<path d="M1540.9530411871199,684.6401045633877 L1584.6401045633877,640.9530411871199" close="False" data-weight="2.060660171779821" stroke-width="6" fill="none" stroke="#ff7f00" />
<path d="M1540.9530411871049,196.60989543659736 L1584.6401045633877,240.29695881288006" close="False" data-weight="2.060660171779821" stroke-width="6" fill="none" stroke="#ff7f00" />
<path d="M1469.0349025766973,1469.0349025766973 L1512.2150974233027,1512.2150974233027" close="False" data-weight="2.060660171779821" stroke-width="6" fill="none" stroke="#ff7f00" />
<path d="M1469.0349025766973,1212.2150974233027 L1512.2150974233027,1169.0349025766973" close="False" data-weight="2.060660171779821" stroke-width="6" fill="none" stroke="#ff7f00" />
<path d="M1400.625,1453.125 L1430.625,1453.125" close="False" data-weight="1.75" stroke-width="6" fill="none" stroke="#ff7f00" />
<path d="M1394.0349025766973,1287.2150974233027 L1437.2150974233027,1244.0349025766973" close="False" data-weight="2.060660171779821" stroke-width="6" fill="none" stroke="#ff7f00" />
<path d="M1307.125,1475.2665898254845 L1307.125,1505.9834101745155" close="False" data-weight="1.75" stroke-width="6" fill="none" stroke="#ff7f00" />
<path d="M1325.625,1453.125 L1355.625,1453.125" close="False" data-weight="1.75" stroke-width="6" fill="none" stroke="#ff7f00" />
<path d="M1307.125,1400.2665898254845 L1307.125,1430.9834101745155" close="False" data-weight="1.75" stroke-width="6" fill="none" stroke="#ff7f00" />
<path d="M1319.0349025766973,1362.2150974233027 L1362.2150974233027,1319.0349025766973" close="False" data-weight="2.060660171779821" stroke-width="6" fill="none" stroke="#ff7f00" />
<path d="M1246.6098954365973,1590.2969588128951 L1290.2969588128951,1546.6098954365973" close="False" data-weight="2.060660171779821" stroke-width="6" fill="none" stroke="#ff7f00" />
<path d="M1171.6098954366123,1665.2969588128801 L1215.2969588128951,1621.6098954365973" close="False" data-weight="2.060660171779821" stroke-width="6" fill="none" stroke="#ff7f00" />
<path d="M1096.6098954365973,1740.2969588128951 L1140.2969588128801,1696.6098954366123" close="False" data-weight="2.060660171779821" stroke-width="6" fill="none" stroke="#ff7f00" />
<path d="M1025.625,2428.125 L1055.625,2428.125" close="False" data-weight="1.75" stroke-width="6" fill="none" stroke="#ff7f00" />
<path d="M1007.125,2375.2665898254845 L1007.125,2405.9834101745155" close="False" data-weight="1.75" stroke-width="6" fill="none" stroke="#ff7f00" />
<path d="M1025.2665898254845,2349.125 L1055.9834101745155,2349.125" close="False" data-weight="1.75" stroke-width="6" fill="none" stroke="#ff7f00" />
<path d="M1021.6098954366271,1815.2969588128653 L1065.2969588128951,1771.6098954365973" close="False" data-weight="2.060660171779821" stroke-width="6" fill="none" stroke="#ff7f00" />
<path d="M946.6098954365974,2290.953041187105 L990.296958812895,2334.6401045634025" close="False" data-weight="2.060660171779821" stroke-width="6" fill="none" stroke="#ff7f00" />
<path d="M946.6098954365676,1890.2969588129247 L990.296958812895,1846.6098954365973" close="False" data-weight="2.060660171779821" stroke-width="6" fill="none" stroke="#ff7f00" />
<path d="M871.6098954365974,2215.953041187105 L915.296958812895,2259.6401045634025" close="False" data-weight="2.060660171779821" stroke-width="6" fill="none" stroke="#ff7f00" />
<path d="M857.125,2150.2665898254845 L857.125,2180.9834101745155" close="False" data-weight="1.75" stroke-width="6" fill="none" stroke="#ff7f00" />
<path d="M871.6098954365676,1965.2969588129247 L915.2969588129248,1921.6098954365677" close="False" data-weight="2.060660171779821" stroke-width="6" fill="none" stroke="#ff7f00" />
<path d="M799.1547408448131,2120.125 L832.0952591551869,2120.125" close="False" data-weight="1.75" stroke-width="6" fill="none" stroke="#ff7f00" />
<path d="M786.125,2074.154740844813 L786.125,2107.095259155187" close="False" data-weight="1.75" stroke-width="6" fill="none" stroke="#ff7f00" />
<path d="M796.6098954365974,2040.2969588128951 L840.296958812895,1996.6098954365973" close="False" data-weight="2.060660171779821" stroke-width="6" fill="none" stroke="#ff7f00" />
<path d="M1299.125,1505.9834101745155 A49.45452644918828,49.45452644918828,0,0,1,1295.360498327255,1524.9088381020804 M1295.360498327255,1524.9088381020804 A49.454526449185096,49.454526449185096,0,0,1,1284.6401045634027,1540.9530411871049 M1284.6401045634027,1540.9530411871049" close="False" data-weight="1.0" stroke-width="6" fill="none" stroke="#4daf4a" />
<path d="M1240.9530411871049,1584.6401045634027 C1233.1248070311756,1592.468338719332,1217.468338719317,1608.1248070311906,1209.6401045633877,1615.9530411871199" close="False" data-weight="0.0" stroke-width="6" fill="none" stroke="#4daf4a" />
<path d="M1165.9530411871049,1659.6401045634027 C1158.1248070311792,1667.4683387193284,1142.4683387193284,1683.1248070311792,1134.6401045634027,1690.9530411871049" close="False" data-weight="0.0" stroke-width="6" fill="none" stroke="#4daf4a" />
<path d="M1090.9530411871199,1734.6401045633877 C1083.1248070311906,1742.468338719317,1067.468338719332,1758.1248070311756,1059.6401045634027,1765.9530411871049" close="False" data-weight="0.0" stroke-width="6" fill="none" stroke="#4daf4a" />
<path d="M1015.9530411870752,1809.6401045634323 C1008.1248070311644,1817.468338719343,992.4683387193431,1833.1248070311647,984.6401045634324,1840.9530411870753" close="False" data-weight="0.0" stroke-width="6" fill="none" stroke="#4daf4a" />
<path d="M940.953041187105,1884.6401045634027 C933.1248070311794,1892.4683387193284,917.4683387193281,1908.1248070311792,909.6401045634026,1915.9530411871049" close="False" data-weight="0.0" stroke-width="6" fill="none" stroke="#4daf4a" />
<path d="M928.125,455.625 A54.319805153394555,54.319805153394555,0,0,1,923.9901510378278,476.412289481504 M923.9901510378278,476.412289481504 A54.31980515339474,54.31980515339474,0,0,1,912.2150974233027,494.03490257669733 M912.2150974233027,494.03490257669733" close="False" data-weight="1.0" stroke-width="6" fill="none" stroke="#4daf4a" />
<path d="M928.125,380.625 C928.125,391.875,928.125,414.375,928.125,425.625" close="False" data-weight="0.0" stroke-width="6" fill="none" stroke="#4daf4a" />
<path d="M928.125,305.625 C928.125,316.875,928.125,339.375,928.125,350.625" close="False" data-weight="0.0" stroke-width="6" fill="none" stroke="#4daf4a" />
<path d="M865.953041187105,1959.6401045634027 C858.124807031172,1967.4683387193356,842.468338719306,1983.1248070312017,834.6401045633729,1990.9530411871347" close="False" data-weight="0.0" stroke-width="6" fill="none" stroke="#4daf4a" />
<path d="M869.0349025766973,537.2150974233027 C861.0799512883486,545.1700487116514,845.1700487116514,561.0799512883486,837.2150974233027,569.0349025766973" close="False" data-weight="0.0" stroke-width="6" fill="none" stroke="#4daf4a" />
<path d="M782.125,1955.9834101745155 C782.125,1967.0542050872577,782.125,1989.1957949127423,782.125,2000.2665898254845" close="False" data-weight="0.0" stroke-width="6" fill="none" stroke="#4daf4a" />
<path d="M782.125,1880.9834101745155 C782.125,1892.0542050872577,782.125,1914.1957949127423,782.125,1925.2665898254845" close="False" data-weight="0.0" stroke-width="6" fill="none" stroke="#4daf4a" />
<path d="M782.125,1805.9834101745155 C782.125,1817.0542050872577,782.125,1839.1957949127423,782.125,1850.2665898254845" close="False" data-weight="0.0" stroke-width="6" fill="none" stroke="#4daf4a" />
<path d="M782.125,1730.9834101745155 C782.125,1742.0542050872577,782.125,1764.1957949127423,782.125,1775.2665898254845" close="False" data-weight="0.0" stroke-width="6" fill="none" stroke="#4daf4a" />
<path d="M782.125,1700.2665898254845 A57.45452644918703,57.45452644918703,0,0,0,777.7515345873453,1678.2796944389988 M777.7515345873453,1678.2796944389988 A57.454526449186446,57.454526449186446,0,0,0,765.296958812895,1659.6401045634027 M765.296958812895,1659.6401045634027" close="False" data-weight="1.0" stroke-width="6" fill="none" stroke="#4daf4a" />
<path d="M794.0349025766973,612.2150974233027 C786.0799512883486,620.1700487116514,770.1700487116514,636.0799512883486,762.2150974233027,644.0349025766973" close="False" data-weight="0.0" stroke-width="6" fill="none" stroke="#4daf4a" />
<path d="M721.6098954365974,1615.9530411871049 C713.7816612806756,1608.124807031183,698.1251929688318,1592.4683387193393,690.2969588129099,1584.6401045634175" close="False" data-weight="0.0" stroke-width="6" fill="none" stroke="#4daf4a" />
<path d="M719.0349025766973,687.2150974233027 C711.0799512883486,695.1700487116514,695.1700487116514,711.0799512883486,687.2150974233027,719.0349025766973" close="False" data-weight="0.0" stroke-width="6" fill="none" stroke="#4daf4a" />
<path d="M646.6098954365825,1540.95304118709 C638.7816612806606,1533.1248070311683,623.1251929688168,1517.4683387193245,615.296958812895,1509.6401045634027" close="False" data-weight="0.0" stroke-width="6" fill="none" stroke="#4daf4a" />
<path d="M571.6098954366123,1465.9530411871199 C563.781661280683,1458.1248070311906,548.1251929688243,1442.468338719332,540.296958812895,1434.6401045634027" close="False" data-weight="0.0" stroke-width="6" fill="none" stroke="#4daf4a" />
<path d="M565.953041187105,909.6401045634026 C558.1248070311793,917.4683387193282,542.4683387193282,933.1248070311793,534.6401045634026,940.953041187105" close="False" data-weight="0.0" stroke-width="6" fill="none" stroke="#4daf4a" />
<path d="M496.6098954365974,1390.9530411871049 C488.78166128067187,1383.1248070311792,473.12519296882056,1367.4683387193284,465.296958812895,1359.6401045634027" close="False" data-weight="0.0" stroke-width="6" fill="none" stroke="#4daf4a" />
<path d="M490.953041187105,984.6401045634026 C483.1248070311794,992.4683387193282,467.4683387193282,1008.1248070311793,459.6401045634026,1015.953041187105" close="False" data-weight="0.0" stroke-width="6" fill="none" stroke="#4daf4a" />
<path d="M403.125,1205.625 C403.125,1216.875,403.125,1239.375,403.125,1250.625" close="False" data-weight="0.0" stroke-width="6" fill="none" stroke="#4daf4a" />
<path d="M403.125,1130.625 C403.125,1141.875,403.125,1164.375,403.125,1175.625" close="False" data-weight="0.0" stroke-width="6" fill="none" stroke="#4daf4a" />
<path d="M415.953041187105,1059.6401045634027 A38.62248500650044,38.62248500650044,0,0,0,405.5783466519273,1078.4919874189425 M405.5783466519273,1078.4919874189425 A101.06381732035982,101.06381732035982,0,0,0,403.125,1100.625 M403.125,1100.625" close="False" data-weight="1.0" stroke-width="6" fill="none" stroke="#4daf4a" />
<path d="M1299.125,1475.2665898254845 L1299.125,1505.9834101745155" close="False" data-weight="1.75" stroke-width="6" fill="none" stroke="#4daf4a" />
<path d="M1299.125,1400.2665898254845 L1299.125,1430.9834101745155" close="False" data-weight="1.75" stroke-width="6" fill="none" stroke="#4daf4a" />
<path d="M1240.9530411871049,1584.6401045634027 L1284.6401045634027,1540.9530411871049" close="False" data-weight="2.060660171779821" stroke-width="6" fill="none" stroke="#4daf4a" />
<path d="M1165.95304118709,1659.6401045634175 L1209.6401045634027,1615.9530411871049" close="False" data-weight="2.060660171779821" stroke-width="6" fill="none" stroke="#4daf4a" />
<path d="M1090.9530411871049,1734.6401045634027 L1134.6401045634175,1690.95304118709" close="False" data-weight="2.060660171779821" stroke-width="6" fill="none" stroke="#4daf4a" />
<path d="M1015.9530411870752,1809.6401045634323 L1059.6401045634027,1765.9530411871049" close="False" data-weight="2.060660171779821" stroke-width="6" fill="none" stroke="#4daf4a" />
<path d="M940.9530411871347,1884.640104563373 L984.6401045634026,1840.9530411871049" close="False" data-weight="2.060660171779821" stroke-width="6" fill="none" stroke="#4daf4a" />
<path d="M928.125,425.625 L928.125,455.625" close="False" data-weight="1.75" stroke-width="6" fill="none" stroke="#4daf4a" />
<path d="M928.125,350.625 L928.125,380.625" close="False" data-weight="1.75" stroke-width="6" fill="none" stroke="#4daf4a" />
<path d="M928.125,275.625 L928.125,305.625" close="False" data-weight="1.75" stroke-width="6" fill="none" stroke="#4daf4a" />
<path d="M928.125,200.625 L928.125,230.625" close="False" data-weight="1.75" stroke-width="6" fill="none" stroke="#4daf4a" />
<path d="M865.9530411871347,1959.640104563373 L909.6401045633729,1915.9530411871347" close="False" data-weight="2.060660171779821" stroke-width="6" fill="none" stroke="#4daf4a" />
<path d="M869.0349025766973,537.2150974233027 L912.2150974233027,494.03490257669733" close="False" data-weight="2.060660171779821" stroke-width="6" fill="none" stroke="#4daf4a" />
<path d="M800.625,2128.125 L830.625,2128.125" close="False" data-weight="1.75" stroke-width="6" fill="none" stroke="#4daf4a" />
<path d="M778.125,2075.625 L778.125,2105.625" close="False" data-weight="1.75" stroke-width="6" fill="none" stroke="#4daf4a" />
<path d="M790.953041187105,2034.6401045634027 L834.6401045634026,1990.9530411871049" close="False" data-weight="2.060660171779821" stroke-width="6" fill="none" stroke="#4daf4a" />
<path d="M782.125,2000.2665898254845 L782.125,2030.9834101745155" close="False" data-weight="1.75" stroke-width="6" fill="none" stroke="#4daf4a" />
<path d="M782.125,1925.2665898254845 L782.125,1955.9834101745155" close="False" data-weight="1.75" stroke-width="6" fill="none" stroke="#4daf4a" />
<path d="M782.125,1850.2665898254845 L782.125,1880.9834101745155" close="False" data-weight="1.75" stroke-width="6" fill="none" stroke="#4daf4a" />
<path d="M782.125,1775.2665898254845 L782.125,1805.9834101745155" close="False" data-weight="1.75" stroke-width="6" fill="none" stroke="#4daf4a" />
<path d="M782.125,1700.2665898254845 L782.125,1730.9834101745155" close="False" data-weight="1.75" stroke-width="6" fill="none" stroke="#4daf4a" />
<path d="M794.0349025766973,612.2150974233027 L837.2150974233027,569.0349025766973" close="False" data-weight="2.060660171779821" stroke-width="6" fill="none" stroke="#4daf4a" />
<path d="M721.6098954365974,1615.9530411871049 L765.296958812895,1659.6401045634027" close="False" data-weight="2.060660171779821" stroke-width="6" fill="none" stroke="#4daf4a" />
<path d="M719.0349025766973,687.2150974233027 L762.2150974233027,644.0349025766973" close="False" data-weight="2.060660171779821" stroke-width="6" fill="none" stroke="#4daf4a" />
<path d="M646.6098954365974,1540.9530411871049 L690.296958812895,1584.6401045634027" close="False" data-weight="2.060660171779821" stroke-width="6" fill="none" stroke="#4daf4a" />
<path d="M624.125,800.2665898254845 L624.125,830.9834101745155" close="False" data-weight="1.75" stroke-width="6" fill="none" stroke="#4daf4a" />
<path d="M644.0349025766973,762.2150974233027 L687.2150974233027,719.0349025766973" close="False" data-weight="2.060660171779821" stroke-width="6" fill="none" stroke="#4daf4a" />
<path d="M571.6098954366123,1465.9530411871199 L615.296958812895,1509.6401045634027" close="False" data-weight="2.060660171779821" stroke-width="6" fill="none" stroke="#4daf4a" />
<path d="M565.953041187105,909.6401045634026 L609.6401045634026,865.953041187105" close="False" data-weight="2.060660171779821" stroke-width="6" fill="none" stroke="#4daf4a" />
<path d="M496.6098954365974,1390.9530411871049 L540.296958812895,1434.6401045634027" close="False" data-weight="2.060660171779821" stroke-width="6" fill="none" stroke="#4daf4a" />
<path d="M490.953041187105,984.6401045634026 L534.6401045634026,940.953041187105" close="False" data-weight="2.060660171779821" stroke-width="6" fill="none" stroke="#4daf4a" />
<path d="M421.6098954365974,1315.9530411871049 L465.296958812895,1359.6401045634027" close="False" data-weight="2.060660171779821" stroke-width="6" fill="none" stroke="#4daf4a" />
<path d="M403.125,1250.625 L403.125,1280.625" close="False" data-weight="1.75" stroke-width="6" fill="none" stroke="#4daf4a" />
<path d="M403.125,1175.625 L403.125,1205.625" close="False" data-weight="1.75" stroke-width="6" fill="none" stroke="#4daf4a" />
<path d="M403.125,1100.625 L403.125,1130.625" close="False" data-weight="1.75" stroke-width="6" fill="none" stroke="#4daf4a" />
<path d="M415.953041187105,1059.6401045634027 L459.6401045634026,1015.953041187105" close="False" data-weight="2.060660171779821" stroke-width="6" fill="none" stroke="#4daf4a" />
<path d="M940.953041187105,2296.6098954365975 C933.1248070311793,2288.781661280672,917.4683387193282,2273.1251929688206,909.6401045634026,2265.296958812895" close="False" data-weight="0.0" stroke-width="6" fill="none" stroke="#377eb8" />
<path d="M849.125,2180.9834101745155 A57.45452644918703,57.45452644918703,0,0,0,853.4984654126547,2202.970305561001 M853.4984654126547,2202.970305561001 A57.454526449187085,57.454526449187085,0,0,0,865.953041187105,2221.6098954365975 M865.953041187105,2221.6098954365975" close="False" data-weight="1.0" stroke-width="6" fill="none" stroke="#377eb8" />
<path d="M774.125,1955.9834101745155 C774.125,1967.0542050872577,774.125,1989.1957949127423,774.125,2000.2665898254845" close="False" data-weight="0.0" stroke-width="6" fill="none" stroke="#377eb8" />
<path d="M774.125,1880.9834101745155 C774.125,1892.0542050872577,774.125,1914.1957949127423,774.125,1925.2665898254845" close="False" data-weight="0.0" stroke-width="6" fill="none" stroke="#377eb8" />
<path d="M774.125,1805.9834101745155 C774.125,1817.0542050872577,774.125,1839.1957949127423,774.125,1850.2665898254845" close="False" data-weight="0.0" stroke-width="6" fill="none" stroke="#377eb8" />
<path d="M774.125,1730.9834101745155 C774.125,1742.0542050872577,774.125,1764.1957949127423,774.125,1775.2665898254845" close="False" data-weight="0.0" stroke-width="6" fill="none" stroke="#377eb8" />
<path d="M774.125,1700.2665898254845 A49.454526449188165,49.454526449188165,0,0,0,770.3604983272551,1681.3411618979196 M770.3604983272551,1681.3411618979196 A49.45452644918534,49.45452644918534,0,0,0,759.6401045634026,1665.2969588128951 M759.6401045634026,1665.2969588128951" close="False" data-weight="1.0" stroke-width="6" fill="none" stroke="#377eb8" />
<path d="M725.625,2128.125 C714.375,2128.125,691.875,2128.125,680.625,2128.125" close="False" data-weight="0.0" stroke-width="6" fill="none" stroke="#377eb8" />
<path d="M715.953041187105,1621.6098954365973 C708.1248070311757,1613.781661280668,692.468338719317,1598.1251929688094,684.6401045633877,1590.2969588128801" close="False" data-weight="0.0" stroke-width="6" fill="none" stroke="#377eb8" />
<path d="M650.625,2128.125 C639.375,2128.125,616.875,2128.125,605.625,2128.125" close="False" data-weight="0.0" stroke-width="6" fill="none" stroke="#377eb8" />
<path d="M640.9530411871199,1546.6098954366123 C633.1248070311906,1538.781661280683,617.4683387193319,1523.1251929688244,609.6401045634026,1515.2969588128951" close="False" data-weight="0.0" stroke-width="6" fill="none" stroke="#377eb8" />
<path d="M575.625,2128.125 C564.375,2128.125,541.875,2128.125,530.625,2128.125" close="False" data-weight="0.0" stroke-width="6" fill="none" stroke="#377eb8" />
<path d="M565.9530411870901,1471.6098954365825 C558.1248070311719,1463.7816612806644,542.4683387193356,1448.125192968828,534.6401045634175,1440.29695881291" close="False" data-weight="0.0" stroke-width="6" fill="none" stroke="#377eb8" />
<path d="M500.625,2128.125 A54.31980515339956,54.31980515339956,0,0,0,479.83771051849584,2132.259848962172 M479.83771051849584,2132.259848962172 A54.31980515339,54.31980515339,0,0,0,462.21509742330267,2144.0349025766973 M462.21509742330267,2144.0349025766973" close="False" data-weight="1.0" stroke-width="6" fill="none" stroke="#377eb8" />
<path d="M490.953041187105,1396.6098954365973 C483.12480703117944,1388.7816612806716,467.46833871932813,1373.1251929688208,459.6401045634026,1365.2969588128951" close="False" data-weight="0.0" stroke-width="6" fill="none" stroke="#377eb8" />
<path d="M419.03490257669733,2187.2150974233027 C411.0799512883487,2195.1700487116514,395.1700487116513,2211.0799512883486,387.21509742330267,2219.0349025766973" close="False" data-weight="0.0" stroke-width="6" fill="none" stroke="#377eb8" />
<path d="M344.03490257669733,2262.2150974233027 C336.0799512883487,2270.1700487116514,320.1700487116513,2286.0799512883486,312.21509742330267,2294.0349025766973" close="False" data-weight="0.0" stroke-width="6" fill="none" stroke="#377eb8" />
<path d="M350.625,1303.125 C339.375,1303.125,316.875,1303.125,305.625,1303.125" close="False" data-weight="0.0" stroke-width="6" fill="none" stroke="#377eb8" />
<path d="M269.03490257669733,2337.2150974233027 C261.0799512883487,2345.1700487116514,245.1700487116513,2361.0799512883486,237.21509742330267,2369.0349025766973" close="False" data-weight="0.0" stroke-width="6" fill="none" stroke="#377eb8" />
<path d="M275.625,1303.125 C264.375,1303.125,241.875,1303.125,230.625,1303.125" close="False" data-weight="0.0" stroke-width="6" fill="none" stroke="#377eb8" />
<path d="M200.625,1303.125 A35.8581662615602,35.8581662615602,0,0,0,181.43783433689075,1308.6902502339128 M181.43783433689075,1308.6902502339128 A93.83039863674712,93.83039863674712,0,0,0,165.296958812895,1321.6098954365973 M165.296958812895,1321.6098954365973" close="False" data-weight="1.0" stroke-width="6" fill="none" stroke="#377eb8" />
<path d="M1078.125,2375.625 L1078.125,2405.625" close="False" data-weight="1.75" stroke-width="6" fill="none" stroke="#377eb8" />
<path d="M999.125,2375.2665898254845 L999.125,2405.9834101745155" close="False" data-weight="1.75" stroke-width="6" fill="none" stroke="#377eb8" />
<path d="M1025.2665898254845,2357.125 L1055.9834101745155,2357.125" close="False" data-weight="1.75" stroke-width="6" fill="none" stroke="#377eb8" />
<path d="M940.953041187105,2296.6098954365975 L984.6401045634026,2340.296958812895" close="False" data-weight="2.060660171779821" stroke-width="6" fill="none" stroke="#377eb8" />
<path d="M865.953041187105,2221.6098954365975 L909.6401045634026,2265.296958812895" close="False" data-weight="2.060660171779821" stroke-width="6" fill="none" stroke="#377eb8" />
<path d="M849.125,2150.2665898254845 L849.125,2180.9834101745155" close="False" data-weight="1.75" stroke-width="6" fill="none" stroke="#377eb8" />
<path d="M799.1547408448131,2136.125 L832.0952591551869,2136.125" close="False" data-weight="1.75" stroke-width="6" fill="none" stroke="#377eb8" />
<path d="M770.125,2074.154740844813 L770.125,2107.095259155187" close="False" data-weight="1.75" stroke-width="6" fill="none" stroke="#377eb8" />
<path d="M774.125,2000.2665898254845 L774.125,2030.9834101745155" close="False" data-weight="1.75" stroke-width="6" fill="none" stroke="#377eb8" />
<path d="M774.125,1925.2665898254845 L774.125,1955.9834101745155" close="False" data-weight="1.75" stroke-width="6" fill="none" stroke="#377eb8" />
<path d="M774.125,1850.2665898254845 L774.125,1880.9834101745155" close="False" data-weight="1.75" stroke-width="6" fill="none" stroke="#377eb8" />
<path d="M774.125,1775.2665898254845 L774.125,1805.9834101745155" close="False" data-weight="1.75" stroke-width="6" fill="none" stroke="#377eb8" />
<path d="M774.125,1700.2665898254845 L774.125,1730.9834101745155" close="False" data-weight="1.75" stroke-width="6" fill="none" stroke="#377eb8" />
<path d="M725.625,2128.125 L755.625,2128.125" close="False" data-weight="1.75" stroke-width="6" fill="none" stroke="#377eb8" />
<path d="M715.953041187105,1621.6098954365973 L759.6401045634026,1665.2969588128951" close="False" data-weight="2.060660171779821" stroke-width="6" fill="none" stroke="#377eb8" />
<path d="M650.625,2128.125 L680.625,2128.125" close="False" data-weight="1.75" stroke-width="6" fill="none" stroke="#377eb8" />
<path d="M640.953041187105,1546.6098954365973 L684.6401045634026,1590.2969588128951" close="False" data-weight="2.060660171779821" stroke-width="6" fill="none" stroke="#377eb8" />
<path d="M575.625,2128.125 L605.625,2128.125" close="False" data-weight="1.75" stroke-width="6" fill="none" stroke="#377eb8" />
<path d="M565.9530411870901,1471.6098954365825 L609.6401045634026,1515.2969588128951" close="False" data-weight="2.060660171779821" stroke-width="6" fill="none" stroke="#377eb8" />
<path d="M500.625,2128.125 L530.625,2128.125" close="False" data-weight="1.75" stroke-width="6" fill="none" stroke="#377eb8" />
<path d="M490.953041187105,1396.6098954365973 L534.6401045634026,1440.2969588128951" close="False" data-weight="2.060660171779821" stroke-width="6" fill="none" stroke="#377eb8" />
<path d="M419.03490257669733,2187.2150974233027 L462.21509742330267,2144.0349025766973" close="False" data-weight="2.060660171779821" stroke-width="6" fill="none" stroke="#377eb8" />
<path d="M415.953041187105,1321.6098954365973 L459.6401045634026,1365.2969588128951" close="False" data-weight="2.060660171779821" stroke-width="6" fill="none" stroke="#377eb8" />
<path d="M344.03490257669733,2262.2150974233027 L387.21509742330267,2219.0349025766973" close="False" data-weight="2.060660171779821" stroke-width="6" fill="none" stroke="#377eb8" />
<path d="M350.625,1303.125 L380.625,1303.125" close="False" data-weight="1.75" stroke-width="6" fill="none" stroke="#377eb8" />
<path d="M269.03490257669733,2337.2150974233027 L312.21509742330267,2294.0349025766973" close="False" data-weight="2.060660171779821" stroke-width="6" fill="none" stroke="#377eb8" />
<path d="M275.625,1303.125 L305.625,1303.125" close="False" data-weight="1.75" stroke-width="6" fill="none" stroke="#377eb8" />
<path d="M194.03490257669733,2412.2150974233027 L237.2150974233027,2369.0349025766973" close="False" data-weight="2.060660171779821" stroke-width="6" fill="none" stroke="#377eb8" />
<path d="M200.625,1303.125 L230.625,1303.125" close="False" data-weight="1.75" stroke-width="6" fill="none" stroke="#377eb8" />
<path d="M125.625,2428.125 L155.625,2428.125" close="False" data-weight="1.75" stroke-width="6" fill="none" stroke="#377eb8" />
<path d="M103.125,2375.625 L103.125,2405.625" close="False" data-weight="1.75" stroke-width="6" fill="none" stroke="#377eb8" />
<path d="M121.60989543659737,1365.2969588128951 L165.29695881289496,1321.6098954365975" close="False" data-weight="2.060660171779821" stroke-width="6" fill="none" stroke="#377eb8" />
<path d="M2375.625,1228.125 A54.31980515339296,54.31980515339296,0,0,1,2354.8377105184964,1223.9901510378277 M2354.8377105184964,1223.9901510378277 A54.31980515340005,54.31980515340005,0,0,1,2337.2150974233027,1212.2150974233027 M2337.2150974233027,1212.2150974233027" close="False" data-weight="1.0" stroke-width="6" fill="none" stroke="#e41a1c" />
<path d="M2294.0349025766973,1169.0349025766973 C2286.0799512883486,1161.0799512883486,2270.1700487116514,1145.1700487116514,2262.2150974233027,1137.2150974233027" close="False" data-weight="0.0" stroke-width="6" fill="none" stroke="#e41a1c" />
<path d="M2219.0349025766973,1094.0349025766973 C2211.0799512883486,1086.0799512883486,2195.1700487116514,1070.1700487116514,2187.2150974233027,1062.2150974233027" close="False" data-weight="0.0" stroke-width="6" fill="none" stroke="#e41a1c" />
<path d="M2144.0349025766973,1019.0349025766973 C2136.0799512883486,1011.0799512883486,2120.1700487116514,995.1700487116514,2112.2150974233027,987.2150974233027" close="False" data-weight="0.0" stroke-width="6" fill="none" stroke="#e41a1c" />
<path d="M2069.0349025766973,944.0349025766973 C2061.0799512883486,936.0799512883486,2045.1700487116514,920.1700487116514,2037.2150974233027,912.2150974233027" close="False" data-weight="0.0" stroke-width="6" fill="none" stroke="#e41a1c" />
<path d="M1994.0349025766973,869.0349025766973 C1986.0799512883486,861.0799512883486,1970.1700487116514,845.1700487116514,1962.2150974233027,837.2150974233027" close="False" data-weight="0.0" stroke-width="6" fill="none" stroke="#e41a1c" />
<path d="M1919.0349025766973,794.0349025766973 C1911.0799512883486,786.0799512883486,1895.1700487116514,770.1700487116514,1887.2150974233027,762.2150974233027" close="False" data-weight="0.0" stroke-width="6" fill="none" stroke="#e41a1c" />
<path d="M1844.0349025766973,719.0349025766973 C1836.0799512883486,711.0799512883486,1820.1700487116514,695.1700487116514,1812.2150974233027,687.2150974233027" close="False" data-weight="0.0" stroke-width="6" fill="none" stroke="#e41a1c" />
<path d="M1700.2665898254845,632.125 C1689.1957949127423,632.125,1667.0542050872577,632.125,1655.9834101745155,632.125" close="False" data-weight="0.0" stroke-width="6" fill="none" stroke="#e41a1c" />
<path d="M1625.2665898254845,632.125 A49.454526449188165,49.454526449188165,0,0,0,1606.3411618979196,635.8895016727449 M1606.3411618979196,635.8895016727449 A49.45452644918534,49.45452644918534,0,0,0,1590.2969588128951,646.6098954365974 M1590.2969588128951,646.6098954365974" close="False" data-weight="1.0" stroke-width="6" fill="none" stroke="#e41a1c" />
<path d="M1475.625,778.125 C1464.375,778.125,1441.875,778.125,1430.625,778.125" close="False" data-weight="0.0" stroke-width="6" fill="none" stroke="#e41a1c" />
<path d="M1400.625,778.125 C1389.375,778.125,1366.875,778.125,1355.625,778.125" close="False" data-weight="0.0" stroke-width="6" fill="none" stroke="#e41a1c" />
<path d="M1325.625,778.125 C1314.375,778.125,1291.875,778.125,1280.625,778.125" close="False" data-weight="0.0" stroke-width="6" fill="none" stroke="#e41a1c" />
<path d="M1250.625,778.125 C1239.375,778.125,1216.875,778.125,1205.625,778.125" close="False" data-weight="0.0" stroke-width="6" fill="none" stroke="#e41a1c" />
<path d="M1175.625,778.125 C1164.375,778.125,1141.875,778.125,1130.625,778.125" close="False" data-weight="0.0" stroke-width="6" fill="none" stroke="#e41a1c" />
<path d="M1100.625,778.125 C1089.375,778.125,1066.875,778.125,1055.625,778.125" close="False" data-weight="0.0" stroke-width="6" fill="none" stroke="#e41a1c" />
<path d="M1025.625,778.125 C1014.375,778.125,991.875,778.125,980.625,778.125" close="False" data-weight="0.0" stroke-width="6" fill="none" stroke="#e41a1c" />
<path d="M950.625,778.125 C939.375,778.125,916.875,778.125,905.625,778.125" close="False" data-weight="0.0" stroke-width="6" fill="none" stroke="#e41a1c" />
<path d="M875.625,778.125 C864.375,778.125,841.875,778.125,830.625,778.125" close="False" data-weight="0.0" stroke-width="6" fill="none" stroke="#e41a1c" />
<path d="M800.625,778.125 C789.375,778.125,766.875,778.125,755.625,778.125" close="False" data-weight="0.0" stroke-width="6" fill="none" stroke="#e41a1c" />
<path d="M725.625,778.125 C714.375,778.125,691.875,778.125,680.625,778.125" close="False" data-weight="0.0" stroke-width="6" fill="none" stroke="#e41a1c" />
<path d="M571.6098954365974,915.296958812895 C563.7816612806718,923.1251929688207,548.1251929688207,938.7816612806718,540.296958812895,946.6098954365974" close="False" data-weight="0.0" stroke-width="6" fill="none" stroke="#e41a1c" />
<path d="M496.6098954365974,990.296958812895 C488.7816612806718,998.1251929688207,473.1251929688206,1013.7816612806718,465.296958812895,1021.6098954365974" close="False" data-weight="0.0" stroke-width="6" fill="none" stroke="#e41a1c" />
<path d="M421.6098954365974,1065.2969588128951 C413.6866867625761,1073.2201674869166,395.138306097324,1086.1116939026758,387.21509742330267,1094.0349025766973" close="False" data-weight="0.0" stroke-width="6" fill="none" stroke="#e41a1c" />
<path d="M344.03490257669733,1137.2150974233027 C336.0799512883487,1145.1700487116514,320.1700487116513,1161.0799512883486,312.21509742330267,1169.0349025766973" close="False" data-weight="0.0" stroke-width="6" fill="none" stroke="#e41a1c" />
<path d="M269.03490257669733,1212.2150974233027 C261.0799512883487,1220.1700487116514,245.1700487116513,1236.0799512883486,237.21509742330267,1244.0349025766973" close="False" data-weight="0.0" stroke-width="6" fill="none" stroke="#e41a1c" />
<path d="M194.0349025766973,1287.2150974233027 C186.11169390267597,1295.1383060973242,167.56331323742398,1308.0298325130834,159.64010456340264,1315.9530411871049" close="False" data-weight="0.0" stroke-width="6" fill="none" stroke="#e41a1c" />
<path d="M2428.125,1250.625 L2428.125,1280.625" close="False" data-weight="1.75" stroke-width="6" fill="none" stroke="#e41a1c" />
<path d="M2375.625,1228.125 L2405.625,1228.125" close="False" data-weight="1.75" stroke-width="6" fill="none" stroke="#e41a1c" />
<path d="M2294.0349025766973,1169.0349025766973 L2337.2150974233027,1212.2150974233027" close="False" data-weight="2.060660171779821" stroke-width="6" fill="none" stroke="#e41a1c" />
<path d="M2219.0349025766973,1094.0349025766973 L2262.2150974233027,1137.2150974233027" close="False" data-weight="2.060660171779821" stroke-width="6" fill="none" stroke="#e41a1c" />
<path d="M2144.0349025766973,1019.0349025766973 L2187.2150974233027,1062.2150974233027" close="False" data-weight="2.060660171779821" stroke-width="6" fill="none" stroke="#e41a1c" />
<path d="M2069.0349025766973,944.0349025766973 L2112.2150974233027,987.2150974233027" close="False" data-weight="2.060660171779821" stroke-width="6" fill="none" stroke="#e41a1c" />
<path d="M1994.0349025766973,869.0349025766973 L2037.2150974233027,912.2150974233027" close="False" data-weight="2.060660171779821" stroke-width="6" fill="none" stroke="#e41a1c" />
<path d="M1919.0349025766973,794.0349025766973 L1962.2150974233027,837.2150974233027" close="False" data-weight="2.060660171779821" stroke-width="6" fill="none" stroke="#e41a1c" />
<path d="M1844.0349025766973,719.0349025766973 L1887.2150974233027,762.2150974233027" close="False" data-weight="2.060660171779821" stroke-width="6" fill="none" stroke="#e41a1c" />
<path d="M1769.0349025766973,644.0349025766973 L1812.2150974233027,687.2150974233027" close="False" data-weight="2.060660171779821" stroke-width="6" fill="none" stroke="#e41a1c" />
<path d="M1700.2665898254845,632.125 L1730.9834101745155,632.125" close="False" data-weight="1.75" stroke-width="6" fill="none" stroke="#e41a1c" />
<path d="M1625.2665898254845,632.125 L1655.9834101745155,632.125" close="False" data-weight="1.75" stroke-width="6" fill="none" stroke="#e41a1c" />
<path d="M1532.125,725.2665898254845 L1532.125,755.9834101745155" close="False" data-weight="1.75" stroke-width="6" fill="none" stroke="#e41a1c" />
<path d="M1546.6098954365825,690.2969588129099 L1590.29695881291,646.6098954365825" close="False" data-weight="2.060660171779821" stroke-width="6" fill="none" stroke="#e41a1c" />
<path d="M1475.625,778.125 L1505.625,778.125" close="False" data-weight="1.75" stroke-width="6" fill="none" stroke="#e41a1c" />
<path d="M1400.625,778.125 L1430.625,778.125" close="False" data-weight="1.75" stroke-width="6" fill="none" stroke="#e41a1c" />
<path d="M1325.625,778.125 L1355.625,778.125" close="False" data-weight="1.75" stroke-width="6" fill="none" stroke="#e41a1c" />
<path d="M1250.625,778.125 L1280.625,778.125" close="False" data-weight="1.75" stroke-width="6" fill="none" stroke="#e41a1c" />
<path d="M1175.625,778.125 L1205.625,778.125" close="False" data-weight="1.75" stroke-width="6" fill="none" stroke="#e41a1c" />
<path d="M1100.625,778.125 L1130.625,778.125" close="False" data-weight="1.75" stroke-width="6" fill="none" stroke="#e41a1c" />
<path d="M1025.625,778.125 L1055.625,778.125" close="False" data-weight="1.75" stroke-width="6" fill="none" stroke="#e41a1c" />
<path d="M950.625,778.125 L980.625,778.125" close="False" data-weight="1.75" stroke-width="6" fill="none" stroke="#e41a1c" />
<path d="M875.625,778.125 L905.625,778.125" close="False" data-weight="1.75" stroke-width="6" fill="none" stroke="#e41a1c" />
<path d="M800.625,778.125 L830.625,778.125" close="False" data-weight="1.75" stroke-width="6" fill="none" stroke="#e41a1c" />
<path d="M725.625,778.125 L755.625,778.125" close="False" data-weight="1.75" stroke-width="6" fill="none" stroke="#e41a1c" />
<path d="M632.125,800.2665898254845 L632.125,830.9834101745155" close="False" data-weight="1.75" stroke-width="6" fill="none" stroke="#e41a1c" />
<path d="M650.625,778.125 L680.625,778.125" close="False" data-weight="1.75" stroke-width="6" fill="none" stroke="#e41a1c" />
<path d="M571.6098954365974,915.296958812895 L615.296958812895,871.6098954365974" close="False" data-weight="2.060660171779821" stroke-width="6" fill="none" stroke="#e41a1c" />
<path d="M496.6098954365974,990.296958812895 L540.296958812895,946.6098954365974" close="False" data-weight="2.060660171779821" stroke-width="6" fill="none" stroke="#e41a1c" />
<path d="M421.6098954365974,1065.2969588128951 L465.296958812895,1021.6098954365974" close="False" data-weight="2.060660171779821" stroke-width="6" fill="none" stroke="#e41a1c" />
<path d="M344.03490257669733,1137.2150974233027 L387.21509742330267,1094.0349025766973" close="False" data-weight="2.060660171779821" stroke-width="6" fill="none" stroke="#e41a1c" />
<path d="M269.03490257669733,1212.2150974233027 L312.21509742330267,1169.0349025766973" close="False" data-weight="2.060660171779821" stroke-width="6" fill="none" stroke="#e41a1c" />
<path d="M194.03490257669733,1287.2150974233027 L237.2150974233027,1244.0349025766973" close="False" data-weight="2.060660171779821" stroke-width="6" fill="none" stroke="#e41a1c" />
<path d="M115.95304118710499,1359.6401045634027 L159.6401045634027,1315.9530411871049" close="False" data-weight="2.060660171779821" stroke-width="6" fill="none" stroke="#e41a1c" />
<image x="2395.625" y="1495.625" width="65" height="65" xlink:href="designspace-test/./img/ds_dataset1_40_27_thumb.png">
<title>27</title>
</image>
<image x="2395.625" y="1420.625" width="65" height="65" xlink:href="designspace-test/./img/ds_dataset1_40_21_thumb.png">
<title>21</title>
</image>
<image x="2395.625" y="1270.625" width="65" height="65" xlink:href="designspace-test/./img/ds_dataset1_40_12_thumb.png">
<title>12</title>
</image>
<image x="2395.625" y="1195.625" width="65" height="65" xlink:href="designspace-test/./img/ds_dataset1_40_2_thumb.png">
<title>2</title>
</image>
<image x="2095.625" y="2095.625" width="65" height="65" xlink:href="designspace-test/./img/ds_dataset1_40_13_thumb.png">
<title>13</title>
</image>
<image x="2095.625" y="2020.625" width="65" height="65" xlink:href="designspace-test/./img/ds_dataset1_40_24_thumb.png">
<title>24</title>
</image>
<image x="2095.625" y="1945.625" width="65" height="65" xlink:href="designspace-test/./img/ds_dataset1_40_30_thumb.png">
<title>30</title>
</image>
<image x="2095.625" y="1870.625" width="65" height="65" xlink:href="designspace-test/./img/ds_dataset1_40_11_thumb.png">
<title>11</title>
</image>
<image x="2020.625" y="2095.625" width="65" height="65" xlink:href="designspace-test/./img/ds_dataset1_40_25_thumb.png">
<title>25</title>
</image>
<image x="2020.625" y="2020.625" width="65" height="65" xlink:href="designspace-test/./img/ds_dataset1_40_31_thumb.png">
<title>31</title>
</image>
<image x="2020.625" y="1945.625" width="65" height="65" xlink:href="designspace-test/./img/ds_dataset1_40_16_thumb.png">
<title>16</title>
</image>
<image x="2020.625" y="1870.625" width="65" height="65" xlink:href="designspace-test/./img/ds_dataset1_40_17_thumb.png">
<title>17</title>
</image>
<image x="1945.625" y="2095.625" width="65" height="65" xlink:href="designspace-test/./img/ds_dataset1_40_10_thumb.png">
<title>10</title>
</image>
<image x="1945.625" y="1945.625" width="65" height="65" xlink:href="designspace-test/./img/ds_dataset1_40_39_thumb.png">
<title>39</title>
</image>
<image x="1945.625" y="1870.625" width="65" height="65" xlink:href="designspace-test/./img/ds_dataset1_40_14_thumb.png">
<title>14</title>
</image>
<image x="1870.625" y="1945.625" width="65" height="65" xlink:href="designspace-test/./img/ds_dataset1_40_33_thumb.png">
<title>33</title>
</image>
<image x="1870.625" y="1870.625" width="65" height="65" xlink:href="designspace-test/./img/ds_dataset1_40_9_thumb.png">
<title>9</title>
</image>
<image x="1720.625" y="595.625" width="65" height="65" xlink:href="designspace-test/./img/ds_dataset1_40_19_thumb.png">
<title>19</title>
</image>
<image x="1495.625" y="745.625" width="65" height="65" xlink:href="designspace-test/./img/ds_dataset1_40_4_thumb.png">
<title>4</title>
</image>
<image x="1495.625" y="670.625" width="65" height="65" xlink:href="designspace-test/./img/ds_dataset1_40_32_thumb.png">
<title>32</title>
</image>
<image x="1495.625" y="145.625" width="65" height="65" xlink:href="designspace-test/./img/ds_dataset1_40_37_thumb.png">
<title>37</title>
</image>
<image x="1270.625" y="1420.625" width="65" height="65" xlink:href="designspace-test/./img/ds_dataset1_40_36_thumb.png">
<title>36</title>
</image>
<image x="1270.625" y="1345.625" width="65" height="65" xlink:href="designspace-test/./img/ds_dataset1_40_1_thumb.png">
<title>1</title>
</image>
<image x="1045.625" y="2395.625" width="65" height="65" xlink:href="designspace-test/./img/ds_dataset1_40_6_thumb.png">
<title>6</title>
</image>
<image x="1045.625" y="2320.625" width="65" height="65" xlink:href="designspace-test/./img/ds_dataset1_40_26_thumb.png">
<title>26</title>
</image>
<image x="970.625" y="2395.625" width="65" height="65" xlink:href="designspace-test/./img/ds_dataset1_40_8_thumb.png">
<title>8</title>
</image>
<image x="970.625" y="2320.625" width="65" height="65" xlink:href="designspace-test/./img/ds_dataset1_40_15_thumb.png">
<title>15</title>
</image>
<image x="895.625" y="220.625" width="65" height="65" xlink:href="designspace-test/./img/ds_dataset1_40_23_thumb.png">
<title>23</title>
</image>
<image x="895.625" y="145.625" width="65" height="65" xlink:href="designspace-test/./img/ds_dataset1_40_35_thumb.png">
<title>35</title>
</image>
<image x="820.625" y="2095.625" width="65" height="65" xlink:href="designspace-test/./img/ds_dataset1_40_3_thumb.png">
<title>3</title>
</image>
<image x="745.625" y="2095.625" width="65" height="65" xlink:href="designspace-test/./img/ds_dataset1_40_28_thumb.png">
<title>28</title>
</image>
<image x="745.625" y="2020.625" width="65" height="65" xlink:href="designspace-test/./img/ds_dataset1_40_29_thumb.png">
<title>29</title>
</image>
<image x="595.625" y="820.625" width="65" height="65" xlink:href="designspace-test/./img/ds_dataset1_40_22_thumb.png">
<title>22</title>
</image>
<image x="595.625" y="745.625" width="65" height="65" xlink:href="designspace-test/./img/ds_dataset1_40_38_thumb.png">
<title>38</title>
</image>
<image x="370.625" y="1270.625" width="65" height="65" xlink:href="designspace-test/./img/ds_dataset1_40_20_thumb.png">
<title>20</title>
</image>
<image x="145.625" y="2395.625" width="65" height="65" xlink:href="designspace-test/./img/ds_dataset1_40_7_thumb.png">
<title>7</title>
</image>
<image x="70.625" y="2395.625" width="65" height="65" xlink:href="designspace-test/./img/ds_dataset1_40_5_thumb.png">
<title>5</title>
</image>
<image x="70.625" y="2320.625" width="65" height="65" xlink:href="designspace-test/./img/ds_dataset1_40_34_thumb.png">
<title>34</title>
</image>
<image x="70.625" y="1345.625" width="65" height="65" xlink:href="designspace-test/./img/ds_dataset1_40_18_thumb.png">
<title>18</title>
</image>
</svg>