<?xml version="1.0" encoding="UTF-8"?>
<svg xmlns="http://www.w3.org/2000/svg" xmlns:xlink="http://www.w3.org/1999/xlink"
     viewBox="0 0 1350 1350" preserveAspectRatio="xMidYMid meet">
<defs>
</defs>
<path d="M944.0349025766973,869.0349025766973 C936.0799512883486,861.0799512883486,920.1700487116514,845.1700487116514,912.2150974233027,837.2150974233027" close="False" data-weight="0.0" stroke-width="7" fill="none" stroke="#1fa562" />
<path d="M869.0349025766973,794.0349025766973 C861.0799512883486,786.0799512883486,845.1700487116514,770.1700487116514,837.2150974233027,762.2150974233027" close="False" data-weight="0.0" stroke-width="7" fill="none" stroke="#1fa562" />
<path d="M794.0349025766973,719.0349025766973 C786.0799512883486,711.0799512883486,770.1700487116514,695.1700487116514,762.2150974233027,687.2150974233027" close="False" data-weight="0.0" stroke-width="7" fill="none" stroke="#1fa562" />
<path d="M719.0349025766973,644.0349025766973 C711.0799512883486,636.0799512883486,695.1700487116514,620.1700487116514,687.2150974233027,612.2150974233027" close="False" data-weight="0.0" stroke-width="7" fill="none" stroke="#1fa562" />
<path d="M644.0349025766973,569.0349025766973 C636.0799512883486,561.0799512883486,620.1700487116514,545.1700487116514,612.2150974233027,537.2150974233027" close="False" data-weight="0.0" stroke-width="7" fill="none" stroke="#1fa562" />
<path d="M569.0349025766973,494.03490257669733 A54.31980515339494,54.31980515339494,0,0,0,551.4122894815039,482.2598489621722 M551.4122894815039,482.2598489621722 A54.31980515339421,54.31980515339421,0,0,0,530.625,478.125 M530.625,478.125" close="False" data-weight="1.0" stroke-width="7" fill="none" stroke="#1fa562" />
<path d="M500.625,478.125 C489.375,478.125,466.875,478.125,455.625,478.125" close="False" data-weight="0.0" stroke-width="7" fill="none" stroke="#1fa562" />
<path d="M944.0349025766973,869.0349025766973 L987.2150974233027,912.2150974233027" close="False" data-weight="2.060660171779821" stroke-width="7" fill="none" stroke="#1fa562" />
<path d="M869.0349025766973,794.0349025766973 L912.2150974233027,837.2150974233027" close="False" data-weight="2.060660171779821" stroke-width="7" fill="none" stroke="#1fa562" />
<path d="M794.0349025766973,719.0349025766973 L837.2150974233027,762.2150974233027" close="False" data-weight="2.060660171779821" stroke-width="7" fill="none" stroke="#1fa562" />
<path d="M719.0349025766973,644.0349025766973 L762.2150974233027,687.2150974233027" close="False" data-weight="2.060660171779821" stroke-width="7" fill="none" stroke="#1fa562" />
<path d="M644.0349025766973,569.0349025766973 L687.2150974233027,612.2150974233027" close="False" data-weight="2.060660171779821" stroke-width="7" fill="none" stroke="#1fa562" />
<path d="M569.0349025766973,494.03490257669733 L612.2150974233027,537.2150974233027" close="False" data-weight="2.060660171779821" stroke-width="7" fill="none" stroke="#1fa562" />
<path d="M500.625,478.125 L530.625,478.125" close="False" data-weight="1.75" stroke-width="7" fill="none" stroke="#1fa562" />
<path d="M425.625,478.125 L455.625,478.125" close="False" data-weight="1.75" stroke-width="7" fill="none" stroke="#1fa562" />
<path d="M1228.125,1175.625 A54.31980515339569,54.31980515339569,0,0,0,1223.9901510378277,1154.837710518496 M1223.9901510378277,1154.837710518496 A54.3198051533933,54.3198051533933,0,0,0,1212.2150974233027,1137.2150974233027 M1212.2150974233027,1137.2150974233027" close="False" data-weight="1.0" stroke-width="7" fill="none" stroke="#ff1c5d" />
<path d="M1169.0349025766973,1094.0349025766973 C1161.0799512883486,1086.0799512883486,1145.1700487116514,1070.1700487116514,1137.2150974233027,1062.2150974233027" close="False" data-weight="0.0" stroke-width="7" fill="none" stroke="#ff1c5d" />
<path d="M1153.125,455.625 A54.3198051533966,54.3198051533966,0,0,1,1148.990151037828,476.4122894815041 M1148.990151037828,476.4122894815041 A54.31980515339265,54.31980515339265,0,0,1,1137.2150974233027,494.03490257669733 M1137.2150974233027,494.03490257669733" close="False" data-weight="1.0" stroke-width="7" fill="none" stroke="#ff1c5d" />
<path d="M1153.125,380.625 C1153.125,391.875,1153.125,414.375,1153.125,425.625" close="False" data-weight="0.0" stroke-width="7" fill="none" stroke="#ff1c5d" />
<path d="M1153.125,305.625 C1153.125,316.875,1153.125,339.375,1153.125,350.625" close="False" data-weight="0.0" stroke-width="7" fill="none" stroke="#ff1c5d" />
<path d="M1073.625,950.1704076850486 A103.64933488289944,103.64933488289944,0,0,0,1071.5788818221001,929.677214257368 M1071.5788818221001,929.677214257368 A34.2804342555045,34.2804342555045,0,0,0,1062.2150974233027,912.2150974233027 M1062.2150974233027,912.2150974233027" close="False" data-weight="1.0" stroke-width="7" fill="none" stroke="#ff1c5d" />
<path d="M1094.0349025766973,537.2150974233027 C1086.0799512883486,545.1700487116514,1070.1700487116514,561.0799512883486,1062.2150974233027,569.0349025766973" close="False" data-weight="0.0" stroke-width="7" fill="none" stroke="#ff1c5d" />
<path d="M1094.0349025766973,312.21509742330267 A54.31980515339522,54.31980515339522,0,0,1,1076.412289481504,323.99015103782773 M1076.412289481504,323.99015103782773 A54.319805153393986,54.319805153393986,0,0,1,1055.625,328.125 M1055.625,328.125" close="False" data-weight="1.0" stroke-width="7" fill="none" stroke="#ff1c5d" />
<path d="M1019.0349025766973,869.0349025766973 C1011.0799512883486,861.0799512883486,995.1700487116514,845.1700487116514,987.2150974233027,837.2150974233027" close="False" data-weight="0.0" stroke-width="7" fill="none" stroke="#ff1c5d" />
<path d="M1025.625,328.125 C1014.375,328.125,991.875,328.125,980.625,328.125" close="False" data-weight="0.0" stroke-width="7" fill="none" stroke="#ff1c5d" />
<path d="M946.8954377834593,690.7185232472195 A48.72232222128802,48.72232222128802,0,0,0,936.3337659446202,706.5251821846081 M936.3337659446202,706.5251821846081 A48.72232222128889,48.72232222128889,0,0,0,932.625,725.1704076850486 M932.625,725.1704076850486" close="False" data-weight="1.0" stroke-width="7" fill="none" stroke="#ff1c5d" />
<path d="M950.625,328.125 C939.375,328.125,916.875,328.125,905.625,328.125" close="False" data-weight="0.0" stroke-width="7" fill="none" stroke="#ff1c5d" />
<path d="M875.625,328.125 C864.375,328.125,841.875,328.125,830.625,328.125" close="False" data-weight="0.0" stroke-width="7" fill="none" stroke="#ff1c5d" />
<path d="M800.625,328.125 C789.375,328.125,766.875,328.125,755.625,328.125" close="False" data-weight="0.0" stroke-width="7" fill="none" stroke="#ff1c5d" />
<path d="M650.625,328.125 C639.375,328.125,616.875,328.125,605.625,328.125" close="False" data-weight="0.0" stroke-width="7" fill="none" stroke="#ff1c5d" />
<path d="M575.625,328.125 C564.375,328.125,541.875,328.125,530.625,328.125" close="False" data-weight="0.0" stroke-width="7" fill="none" stroke="#ff1c5d" />
<path d="M407.625,606.0795923149514 C407.625,617.1022961574756,407.625,639.1477038425244,407.625,650.1704076850486" close="False" data-weight="0.0" stroke-width="7" fill="none" stroke="#ff1c5d" />
<path d="M407.625,531.0795923149514 C407.625,542.1022961574756,407.625,564.1477038425244,407.625,575.1704076850486" close="False" data-weight="0.0" stroke-width="7" fill="none" stroke="#ff1c5d" />
<path d="M419.03490257669733,387.21509742330267 A54.3198051533945,54.3198051533945,0,0,0,407.2598489621722,404.837710518496 M407.2598489621722,404.837710518496 A54.31980515339484,54.31980515339484,0,0,0,403.125,425.625 M403.125,425.625" close="False" data-weight="1.0" stroke-width="7" fill="none" stroke="#ff1c5d" />
<path d="M350.625,928.125 C339.375,928.125,316.875,928.125,305.625,928.125" close="False" data-weight="0.0" stroke-width="7" fill="none" stroke="#ff1c5d" />
<path d="M340.5314767527766,759.3545622165445 A48.72232222126977,48.72232222126977,0,0,1,324.7248178153899,769.9162340553813 M324.7248178153899,769.9162340553813 A48.7223222212948,48.7223222212948,0,0,1,306.0795923149514,773.625 M306.0795923149514,773.625" close="False" data-weight="1.0" stroke-width="7" fill="none" stroke="#ff1c5d" />
<path d="M253.125,830.625 C253.125,841.875,253.125,864.375,253.125,875.625" close="False" data-weight="0.0" stroke-width="7" fill="none" stroke="#ff1c5d" />
<path d="M1228.125,1175.625 L1228.125,1205.625" close="False" data-weight="1.75" stroke-width="7" fill="none" stroke="#ff1c5d" />
<path d="M1169.0349025766973,1094.0349025766973 L1212.2150974233027,1137.2150974233027" close="False" data-weight="2.060660171779821" stroke-width="7" fill="none" stroke="#ff1c5d" />
<path d="M1153.125,425.625 L1153.125,455.625" close="False" data-weight="1.75" stroke-width="7" fill="none" stroke="#ff1c5d" />
<path d="M1153.125,350.625 L1153.125,380.625" close="False" data-weight="1.75" stroke-width="7" fill="none" stroke="#ff1c5d" />
<path d="M1153.125,275.625 L1153.125,305.625" close="False" data-weight="1.75" stroke-width="7" fill="none" stroke="#ff1c5d" />
<path d="M1094.0349025766973,1019.0349025766973 L1137.2150974233027,1062.2150974233027" close="False" data-weight="2.060660171779821" stroke-width="7" fill="none" stroke="#ff1c5d" />
<path d="M1073.625,950.1704076850486 L1073.625,981.0795923149514" close="False" data-weight="1.75" stroke-width="7" fill="none" stroke="#ff1c5d" />
<path d="M1094.0349025766973,537.2150974233027 L1137.2150974233027,494.03490257669733" close="False" data-weight="2.060660171779821" stroke-width="7" fill="none" stroke="#ff1c5d" />
<path d="M1094.0349025766973,312.21509742330267 L1137.2150974233027,269.03490257669733" close="False" data-weight="2.060660171779821" stroke-width="7" fill="none" stroke="#ff1c5d" />
<path d="M1019.0349025766973,869.0349025766973 L1062.2150974233027,912.2150974233027" close="False" data-weight="2.060660171779821" stroke-width="7" fill="none" stroke="#ff1c5d" />
<path d="M1019.0349025766973,612.2150974233027 L1062.2150974233027,569.0349025766973" close="False" data-weight="2.060660171779821" stroke-width="7" fill="none" stroke="#ff1c5d" />
<path d="M1025.625,328.125 L1055.625,328.125" close="False" data-weight="1.75" stroke-width="7" fill="none" stroke="#ff1c5d" />
<path d="M944.0349025766973,794.0349025766973 L987.2150974233027,837.2150974233027" close="False" data-weight="2.060660171779821" stroke-width="7" fill="none" stroke="#ff1c5d" />
<path d="M932.625,725.1704076850486 L932.625,756.0795923149514" close="False" data-weight="1.75" stroke-width="7" fill="none" stroke="#ff1c5d" />
<path d="M946.8954377834593,690.7185232472195 L990.7185232472195,646.8954377834593" close="False" data-weight="2.060660171779821" stroke-width="7" fill="none" stroke="#ff1c5d" />
<path d="M950.625,328.125 L980.625,328.125" close="False" data-weight="1.75" stroke-width="7" fill="none" stroke="#ff1c5d" />
<path d="M875.625,328.125 L905.625,328.125" close="False" data-weight="1.75" stroke-width="7" fill="none" stroke="#ff1c5d" />
<path d="M800.625,328.125 L830.625,328.125" close="False" data-weight="1.75" stroke-width="7" fill="none" stroke="#ff1c5d" />
<path d="M725.625,328.125 L755.625,328.125" close="False" data-weight="1.75" stroke-width="7" fill="none" stroke="#ff1c5d" />
<path d="M650.625,328.125 L680.625,328.125" close="False" data-weight="1.75" stroke-width="7" fill="none" stroke="#ff1c5d" />
<path d="M575.625,328.125 L605.625,328.125" close="False" data-weight="1.75" stroke-width="7" fill="none" stroke="#ff1c5d" />
<path d="M500.625,328.125 L530.625,328.125" close="False" data-weight="1.75" stroke-width="7" fill="none" stroke="#ff1c5d" />
<path d="M407.625,650.1704076850486 L407.625,681.0795923149514" close="False" data-weight="1.75" stroke-width="7" fill="none" stroke="#ff1c5d" />
<path d="M407.625,575.1704076850486 L407.625,606.0795923149514" close="False" data-weight="1.75" stroke-width="7" fill="none" stroke="#ff1c5d" />
<path d="M407.625,500.1704076850486 L407.625,531.0795923149514" close="False" data-weight="1.75" stroke-width="7" fill="none" stroke="#ff1c5d" />
<path d="M403.125,425.625 L403.125,455.625" close="False" data-weight="1.75" stroke-width="7" fill="none" stroke="#ff1c5d" />
<path d="M419.03490257669733,387.21509742330267 L462.21509742330267,344.03490257669733" close="False" data-weight="2.060660171779821" stroke-width="7" fill="none" stroke="#ff1c5d" />
<path d="M350.625,928.125 L380.625,928.125" close="False" data-weight="1.75" stroke-width="7" fill="none" stroke="#ff1c5d" />
<path d="M340.5314767527767,759.3545622165444 L384.35456221654425,715.5314767527768" close="False" data-weight="2.060660171779821" stroke-width="7" fill="none" stroke="#ff1c5d" />
<path d="M275.625,928.125 L305.625,928.125" close="False" data-weight="1.75" stroke-width="7" fill="none" stroke="#ff1c5d" />
<path d="M253.125,875.625 L253.125,905.625" close="False" data-weight="1.75" stroke-width="7" fill="none" stroke="#ff1c5d" />
<path d="M253.125,800.625 L253.125,830.625" close="False" data-weight="1.75" stroke-width="7" fill="none" stroke="#ff1c5d" />
<path d="M275.1704076850486,773.625 L306.0795923149514,773.625" close="False" data-weight="1.75" stroke-width="7" fill="none" stroke="#ff1c5d" />
<path d="M1078.125,905.625 C1078.125,916.8180317213076,1082.625,938.977375963741,1082.625,950.1704076850486" close="False" data-weight="0.0" stroke-width="7" fill="none" stroke="#7cd3eb" />
<path d="M1078.125,875.625 A54.31980515339637,54.31980515339637,0,0,0,1073.990151037828,854.837710518496 M1073.990151037828,854.837710518496 A54.319805153392814,54.319805153392814,0,0,0,1062.2150974233027,837.2150974233027 M1062.2150974233027,837.2150974233027" close="False" data-weight="1.0" stroke-width="7" fill="none" stroke="#7cd3eb" />
<path d="M1019.0349025766973,1062.2150974233027 C1011.0799512883486,1070.1700487116514,995.1700487116514,1086.0799512883486,987.2150974233027,1094.0349025766973" close="False" data-weight="0.0" stroke-width="7" fill="none" stroke="#7cd3eb" />
<path d="M1019.0349025766973,794.0349025766973 C1011.0799512883486,786.0799512883486,995.1700487116514,770.1700487116514,987.2150974233027,762.2150974233027" close="False" data-weight="0.0" stroke-width="7" fill="none" stroke="#7cd3eb" />
<path d="M1025.625,103.125 C1014.375,103.125,991.875,103.125,980.625,103.125" close="False" data-weight="0.0" stroke-width="7" fill="none" stroke="#7cd3eb" />
<path d="M944.0349025766973,1137.2150974233027 A54.31980515339554,54.31980515339554,0,0,1,926.412289481504,1148.990151037828 M926.412289481504,1148.990151037828 A54.319805153393645,54.319805153393645,0,0,1,905.625,1153.125 M905.625,1153.125" close="False" data-weight="1.0" stroke-width="7" fill="none" stroke="#7cd3eb" />
<path d="M944.0349025766973,719.0349025766973 C936.0799512883486,711.0799512883486,920.1700487116514,695.1700487116514,912.2150974233027,687.2150974233027" close="False" data-weight="0.0" stroke-width="7" fill="none" stroke="#7cd3eb" />
<path d="M950.625,103.125 C939.375,103.125,916.875,103.125,905.625,103.125" close="False" data-weight="0.0" stroke-width="7" fill="none" stroke="#7cd3eb" />
<path d="M875.625,1153.125 C864.375,1153.125,841.875,1153.125,830.625,1153.125" close="False" data-weight="0.0" stroke-width="7" fill="none" stroke="#7cd3eb" />
<path d="M869.0349025766973,644.0349025766973 C861.0799512883486,636.0799512883486,845.1700487116514,620.1700487116514,837.2150974233027,612.2150974233027" close="False" data-weight="0.0" stroke-width="7" fill="none" stroke="#7cd3eb" />
<path d="M875.625,103.125 C864.375,103.125,841.875,103.125,830.625,103.125" close="False" data-weight="0.0" stroke-width="7" fill="none" stroke="#7cd3eb" />
<path d="M800.625,1153.125 C789.375,1153.125,766.875,1153.125,755.625,1153.125" close="False" data-weight="0.0" stroke-width="7" fill="none" stroke="#7cd3eb" />
<path d="M794.0349025766973,569.0349025766973 C786.0799512883486,561.0799512883486,770.1700487116514,545.1700487116514,762.2150974233027,537.2150974233027" close="False" data-weight="0.0" stroke-width="7" fill="none" stroke="#7cd3eb" />
<path d="M800.625,103.125 C789.375,103.125,766.875,103.125,755.625,103.125" close="False" data-weight="0.0" stroke-width="7" fill="none" stroke="#7cd3eb" />
<path d="M725.625,1153.125 C714.375,1153.125,691.875,1153.125,680.625,1153.125" close="False" data-weight="0.0" stroke-width="7" fill="none" stroke="#7cd3eb" />
<path d="M703.125,455.625 A54.319805153394555,54.319805153394555,0,0,0,707.2598489621722,476.412289481504 M707.2598489621722,476.412289481504 A54.31980515339474,54.31980515339474,0,0,0,719.0349025766973,494.03490257669733 M719.0349025766973,494.03490257669733" close="False" data-weight="1.0" stroke-width="7" fill="none" stroke="#7cd3eb" />
<path d="M703.125,380.625 C703.125,391.875,703.125,414.375,703.125,425.625" close="False" data-weight="0.0" stroke-width="7" fill="none" stroke="#7cd3eb" />
<path d="M725.625,103.125 C714.375,103.125,691.875,103.125,680.625,103.125" close="False" data-weight="0.0" stroke-width="7" fill="none" stroke="#7cd3eb" />
<path d="M650.625,1153.125 C639.375,1153.125,616.875,1153.125,605.625,1153.125" close="False" data-weight="0.0" stroke-width="7" fill="none" stroke="#7cd3eb" />
<path d="M648.7465906273013,319.125 C638.4357953136507,319.125,617.8142046863493,319.125,607.5034093726987,319.125" close="False" data-weight="0.0" stroke-width="7" fill="none" stroke="#7cd3eb" />
<path d="M650.625,103.125 C639.375,103.125,616.875,103.125,605.625,103.125" close="False" data-weight="0.0" stroke-width="7" fill="none" stroke="#7cd3eb" />
<path d="M575.625,1153.125 C564.375,1153.125,541.875,1153.125,530.625,1153.125" close="False" data-weight="0.0" stroke-width="7" fill="none" stroke="#7cd3eb" />
<path d="M573.7465906273013,319.125 C563.4357953136507,319.125,542.8142046863493,319.125,532.5034093726987,319.125" close="False" data-weight="0.0" stroke-width="7" fill="none" stroke="#7cd3eb" />
<path d="M575.625,103.125 C564.375,103.125,541.875,103.125,530.625,103.125" close="False" data-weight="0.0" stroke-width="7" fill="none" stroke="#7cd3eb" />
<path d="M500.625,1153.125 C489.375,1153.125,466.875,1153.125,455.625,1153.125" close="False" data-weight="0.0" stroke-width="7" fill="none" stroke="#7cd3eb" />
<path d="M478.125,1055.625 A54.31980515339285,54.31980515339285,0,0,1,473.9901510378276,1076.412289481504 M473.9901510378276,1076.412289481504 A54.31980515339627,54.31980515339627,0,0,1,462.21509742330267,1094.0349025766973 M462.21509742330267,1094.0349025766973" close="False" data-weight="1.0" stroke-width="7" fill="none" stroke="#7cd3eb" />
<path d="M478.125,980.625 C478.125,991.875,478.125,1014.375,478.125,1025.625" close="False" data-weight="0.0" stroke-width="7" fill="none" stroke="#7cd3eb" />
<path d="M478.125,905.625 C478.125,916.875,478.125,939.375,478.125,950.625" close="False" data-weight="0.0" stroke-width="7" fill="none" stroke="#7cd3eb" />
<path d="M478.125,875.625 A54.319805153393474,54.319805153393474,0,0,0,473.99015103782773,854.8377105184961 M473.99015103782773,854.8377105184961 A54.319805153395706,54.319805153395706,0,0,0,462.21509742330267,837.2150974233027 M462.21509742330267,837.2150974233027" close="False" data-weight="1.0" stroke-width="7" fill="none" stroke="#7cd3eb" />
<path d="M500.625,103.125 C489.375,103.125,466.875,103.125,455.625,103.125" close="False" data-weight="0.0" stroke-width="7" fill="none" stroke="#7cd3eb" />
<path d="M419.03490257669733,269.03490257669733 A54.3198051533945,54.3198051533945,0,0,0,401.412289481504,257.25984896217227 M401.412289481504,257.25984896217227 A54.31980515339484,54.31980515339484,0,0,0,380.625,253.125 M380.625,253.125" close="False" data-weight="1.0" stroke-width="7" fill="none" stroke="#7cd3eb" />
<path d="M425.625,103.125 C414.375,103.125,391.875,103.125,380.625,103.125" close="False" data-weight="0.0" stroke-width="7" fill="none" stroke="#7cd3eb" />
<path d="M344.03490257669733,644.0349025766973 C336.0799512883487,636.0799512883486,320.1700487116513,620.1700487116514,312.21509742330267,612.2150974233027" close="False" data-weight="0.0" stroke-width="7" fill="none" stroke="#7cd3eb" />
<path d="M350.625,253.125 C339.375,253.125,316.875,253.125,305.625,253.125" close="False" data-weight="0.0" stroke-width="7" fill="none" stroke="#7cd3eb" />
<path d="M350.625,103.125 C339.375,103.125,316.875,103.125,305.625,103.125" close="False" data-weight="0.0" stroke-width="7" fill="none" stroke="#7cd3eb" />
<path d="M269.03490257669733,569.0349025766973 A34.28043425550426,34.28043425550426,0,0,0,251.572785742632,559.6711181778998 M251.572785742632,559.6711181778998 A103.6493348828991,103.6493348828991,0,0,0,231.07959231495136,557.625 M231.07959231495136,557.625" close="False" data-weight="1.0" stroke-width="7" fill="none" stroke="#7cd3eb" />
<path d="M275.625,253.125 C264.375,253.125,241.875,253.125,230.625,253.125" close="False" data-weight="0.0" stroke-width="7" fill="none" stroke="#7cd3eb" />
<path d="M275.625,103.125 A54.31980515339495,54.31980515339495,0,0,0,254.83771051849604,107.2598489621722 M254.83771051849604,107.2598489621722 A54.31980515339435,54.31980515339435,0,0,0,237.21509742330267,119.03490257669733 M237.21509742330267,119.03490257669733" close="False" data-weight="1.0" stroke-width="7" fill="none" stroke="#7cd3eb" />
<path d="M200.625,253.125 C189.375,253.125,166.875,253.125,155.625,253.125" close="False" data-weight="0.0" stroke-width="7" fill="none" stroke="#7cd3eb" />
<path d="M194.0349025766973,162.2150974233027 C186.07995128834864,170.17004871165136,170.17004871165133,186.07995128834867,162.21509742330267,194.03490257669733" close="False" data-weight="0.0" stroke-width="7" fill="none" stroke="#7cd3eb" />
<path d="M1082.625,950.1704076850486 L1082.625,981.0795923149514" close="False" data-weight="1.75" stroke-width="7" fill="none" stroke="#7cd3eb" />
<path d="M1078.125,875.625 L1078.125,905.625" close="False" data-weight="1.75" stroke-width="7" fill="none" stroke="#7cd3eb" />
<path d="M1019.0349025766973,1062.2150974233027 L1062.2150974233027,1019.0349025766973" close="False" data-weight="2.060660171779821" stroke-width="7" fill="none" stroke="#7cd3eb" />
<path d="M1019.0349025766973,794.0349025766973 L1062.2150974233027,837.2150974233027" close="False" data-weight="2.060660171779821" stroke-width="7" fill="none" stroke="#7cd3eb" />
<path d="M1025.625,103.125 L1055.625,103.125" close="False" data-weight="1.75" stroke-width="7" fill="none" stroke="#7cd3eb" />
<path d="M944.0349025766973,1137.2150974233027 L987.2150974233027,1094.0349025766973" close="False" data-weight="2.060660171779821" stroke-width="7" fill="none" stroke="#7cd3eb" />
<path d="M944.0349025766973,719.0349025766973 L987.2150974233027,762.2150974233027" close="False" data-weight="2.060660171779821" stroke-width="7" fill="none" stroke="#7cd3eb" />
<path d="M950.625,103.125 L980.625,103.125" close="False" data-weight="1.75" stroke-width="7" fill="none" stroke="#7cd3eb" />
<path d="M875.625,1153.125 L905.625,1153.125" close="False" data-weight="1.75" stroke-width="7" fill="none" stroke="#7cd3eb" />
<path d="M869.0349025766973,644.0349025766973 L912.2150974233027,687.2150974233027" close="False" data-weight="2.060660171779821" stroke-width="7" fill="none" stroke="#7cd3eb" />
<path d="M875.625,103.125 L905.625,103.125" close="False" data-weight="1.75" stroke-width="7" fill="none" stroke="#7cd3eb" />
<path d="M800.625,1153.125 L830.625,1153.125" close="False" data-weight="1.75" stroke-width="7" fill="none" stroke="#7cd3eb" />
<path d="M794.0349025766973,569.0349025766973 L837.2150974233027,612.2150974233027" close="False" data-weight="2.060660171779821" stroke-width="7" fill="none" stroke="#7cd3eb" />
<path d="M800.625,103.125 L830.625,103.125" close="False" data-weight="1.75" stroke-width="7" fill="none" stroke="#7cd3eb" />
<path d="M725.625,1153.125 L755.625,1153.125" close="False" data-weight="1.75" stroke-width="7" fill="none" stroke="#7cd3eb" />
<path d="M719.0349025766973,494.03490257669733 L762.2150974233027,537.2150974233027" close="False" data-weight="2.060660171779821" stroke-width="7" fill="none" stroke="#7cd3eb" />
<path d="M703.125,425.625 L703.125,455.625" close="False" data-weight="1.75" stroke-width="7" fill="none" stroke="#7cd3eb" />
<path d="M703.125,350.625 L703.125,380.625" close="False" data-weight="1.75" stroke-width="7" fill="none" stroke="#7cd3eb" />
<path d="M725.625,103.125 L755.625,103.125" close="False" data-weight="1.75" stroke-width="7" fill="none" stroke="#7cd3eb" />
<path d="M650.625,1153.125 L680.625,1153.125" close="False" data-weight="1.75" stroke-width="7" fill="none" stroke="#7cd3eb" />
<path d="M648.7465906273013,319.125 L682.5034093726987,319.125" close="False" data-weight="1.75" stroke-width="7" fill="none" stroke="#7cd3eb" />
<path d="M650.625,103.125 L680.625,103.125" close="False" data-weight="1.75" stroke-width="7" fill="none" stroke="#7cd3eb" />
<path d="M575.625,1153.125 L605.625,1153.125" close="False" data-weight="1.75" stroke-width="7" fill="none" stroke="#7cd3eb" />
<path d="M573.7465906273013,319.125 L607.5034093726987,319.125" close="False" data-weight="1.75" stroke-width="7" fill="none" stroke="#7cd3eb" />
<path d="M575.625,103.125 L605.625,103.125" close="False" data-weight="1.75" stroke-width="7" fill="none" stroke="#7cd3eb" />
<path d="M500.625,1153.125 L530.625,1153.125" close="False" data-weight="1.75" stroke-width="7" fill="none" stroke="#7cd3eb" />
<path d="M478.125,1025.625 L478.125,1055.625" close="False" data-weight="1.75" stroke-width="7" fill="none" stroke="#7cd3eb" />
<path d="M478.125,950.625 L478.125,980.625" close="False" data-weight="1.75" stroke-width="7" fill="none" stroke="#7cd3eb" />
<path d="M478.125,875.625 L478.125,905.625" close="False" data-weight="1.75" stroke-width="7" fill="none" stroke="#7cd3eb" />
<path d="M498.74659062730126,319.125 L532.5034093726987,319.125" close="False" data-weight="1.75" stroke-width="7" fill="none" stroke="#7cd3eb" />
<path d="M500.625,103.125 L530.625,103.125" close="False" data-weight="1.75" stroke-width="7" fill="none" stroke="#7cd3eb" />
<path d="M425.625,1153.125 L455.625,1153.125" close="False" data-weight="1.75" stroke-width="7" fill="none" stroke="#7cd3eb" />
<path d="M419.03490257669733,1137.2150974233027 L462.21509742330267,1094.0349025766973" close="False" data-weight="2.060660171779821" stroke-width="7" fill="none" stroke="#7cd3eb" />
<path d="M419.03490257669733,794.0349025766973 L462.21509742330267,837.2150974233027" close="False" data-weight="2.060660171779821" stroke-width="7" fill="none" stroke="#7cd3eb" />
<path d="M403.125,725.625 L403.125,755.625" close="False" data-weight="1.75" stroke-width="7" fill="none" stroke="#7cd3eb" />
<path d="M419.03490257669733,269.03490257669733 L462.21509742330267,312.21509742330267" close="False" data-weight="2.060660171779821" stroke-width="7" fill="none" stroke="#7cd3eb" />
<path d="M425.625,103.125 L455.625,103.125" close="False" data-weight="1.75" stroke-width="7" fill="none" stroke="#7cd3eb" />
<path d="M344.03490257669733,644.0349025766973 L387.21509742330267,687.2150974233027" close="False" data-weight="2.060660171779821" stroke-width="7" fill="none" stroke="#7cd3eb" />
<path d="M350.625,253.125 L380.625,253.125" close="False" data-weight="1.75" stroke-width="7" fill="none" stroke="#7cd3eb" />
<path d="M350.625,103.125 L380.625,103.125" close="False" data-weight="1.75" stroke-width="7" fill="none" stroke="#7cd3eb" />
<path d="M269.03490257669733,569.0349025766973 L312.21509742330267,612.2150974233027" close="False" data-weight="2.060660171779821" stroke-width="7" fill="none" stroke="#7cd3eb" />
<path d="M275.625,253.125 L305.625,253.125" close="False" data-weight="1.75" stroke-width="7" fill="none" stroke="#7cd3eb" />
<path d="M275.625,103.125 L305.625,103.125" close="False" data-weight="1.75" stroke-width="7" fill="none" stroke="#7cd3eb" />
<path d="M200.17040768504862,557.625 L231.07959231495138,557.625" close="False" data-weight="1.75" stroke-width="7" fill="none" stroke="#7cd3eb" />
<path d="M200.625,253.125 L230.625,253.125" close="False" data-weight="1.75" stroke-width="7" fill="none" stroke="#7cd3eb" />
<path d="M194.03490257669733,162.21509742330267 L237.2150974233027,119.0349025766973" close="False" data-weight="2.060660171779821" stroke-width="7" fill="none" stroke="#7cd3eb" />
<path d="M125.625,253.125 L155.625,253.125" close="False" data-weight="1.75" stroke-width="7" fill="none" stroke="#7cd3eb" />
<path d="M119.03490257669732,237.21509742330267 L162.2150974233027,194.0349025766973" close="False" data-weight="2.060660171779821" stroke-width="7" fill="none" stroke="#7cd3eb" />
<path d="M940.5314767527805,684.3545622165407 A57.722322221287925,57.722322221287925,0,0,0,928.0188501520187,703.0810312933224 M928.0188501520187,703.0810312933224 A57.722322221289005,57.722322221289005,0,0,0,923.625,725.1704076850486 M923.625,725.1704076850486" close="False" data-weight="1.0" stroke-width="7" fill="none" stroke="#8f0f12" />
<path d="M875.625,778.125 C864.375,778.125,841.875,778.125,830.625,778.125" close="False" data-weight="0.0" stroke-width="7" fill="none" stroke="#8f0f12" />
<path d="M800.625,778.125 C789.375,778.125,766.875,778.125,755.625,778.125" close="False" data-weight="0.0" stroke-width="7" fill="none" stroke="#8f0f12" />
<path d="M725.625,778.125 C714.375,778.125,691.875,778.125,680.625,778.125" close="False" data-weight="0.0" stroke-width="7" fill="none" stroke="#8f0f12" />
<path d="M650.625,778.125 C639.375,778.125,616.875,778.125,605.625,778.125" close="False" data-weight="0.0" stroke-width="7" fill="none" stroke="#8f0f12" />
<path d="M575.625,778.125 C564.375,778.125,541.875,778.125,530.625,778.125" close="False" data-weight="0.0" stroke-width="7" fill="none" stroke="#8f0f12" />
<path d="M500.625,778.125 A54.319805153394555,54.319805153394555,0,0,1,479.837710518496,773.9901510378278 M479.837710518496,773.9901510378278 A54.31980515339474,54.31980515339474,0,0,1,462.21509742330267,762.2150974233027 M462.21509742330267,762.2150974233027" close="False" data-weight="1.0" stroke-width="7" fill="none" stroke="#8f0f12" />
<path d="M403.125,1055.625 C403.125,1066.875,403.125,1089.375,403.125,1100.625" close="False" data-weight="0.0" stroke-width="7" fill="none" stroke="#8f0f12" />
<path d="M403.125,980.625 C403.125,991.875,403.125,1014.375,403.125,1025.625" close="False" data-weight="0.0" stroke-width="7" fill="none" stroke="#8f0f12" />
<path d="M344.03490257669733,869.0349025766973 C336.0799512883487,861.0799512883486,320.1700487116513,845.1700487116514,312.21509742330267,837.2150974233027" close="False" data-weight="0.0" stroke-width="7" fill="none" stroke="#8f0f12" />
<path d="M346.8954377834632,765.7185232472157 A57.72232222130963,57.72232222130963,0,0,1,328.1689687066799,778.23114984798 M328.1689687066799,778.23114984798 A57.722322221280365,57.722322221280365,0,0,1,306.0795923149514,782.625 M306.0795923149514,782.625" close="False" data-weight="1.0" stroke-width="7" fill="none" stroke="#8f0f12" />
<path d="M923.625,725.1704076850486 L923.625,756.0795923149514" close="False" data-weight="1.75" stroke-width="7" fill="none" stroke="#8f0f12" />
<path d="M940.5314767527805,684.3545622165407 L984.3545622165407,640.5314767527805" close="False" data-weight="2.060660171779821" stroke-width="7" fill="none" stroke="#8f0f12" />
<path d="M875.625,778.125 L905.625,778.125" close="False" data-weight="1.75" stroke-width="7" fill="none" stroke="#8f0f12" />
<path d="M800.625,778.125 L830.625,778.125" close="False" data-weight="1.75" stroke-width="7" fill="none" stroke="#8f0f12" />
<path d="M725.625,778.125 L755.625,778.125" close="False" data-weight="1.75" stroke-width="7" fill="none" stroke="#8f0f12" />
<path d="M650.625,778.125 L680.625,778.125" close="False" data-weight="1.75" stroke-width="7" fill="none" stroke="#8f0f12" />
<path d="M575.625,778.125 L605.625,778.125" close="False" data-weight="1.75" stroke-width="7" fill="none" stroke="#8f0f12" />
<path d="M500.625,778.125 L530.625,778.125" close="False" data-weight="1.75" stroke-width="7" fill="none" stroke="#8f0f12" />
<path d="M403.125,1100.625 L403.125,1130.625" close="False" data-weight="1.75" stroke-width="7" fill="none" stroke="#8f0f12" />
<path d="M403.125,1025.625 L403.125,1055.625" close="False" data-weight="1.75" stroke-width="7" fill="none" stroke="#8f0f12" />
<path d="M403.125,950.625 L403.125,980.625" close="False" data-weight="1.75" stroke-width="7" fill="none" stroke="#8f0f12" />
<path d="M419.03490257669733,719.0349025766973 L462.21509742330267,762.2150974233027" close="False" data-weight="2.060660171779821" stroke-width="7" fill="none" stroke="#8f0f12" />
<path d="M344.03490257669733,869.0349025766973 L387.21509742330267,912.2150974233027" close="False" data-weight="2.060660171779821" stroke-width="7" fill="none" stroke="#8f0f12" />
<path d="M346.8954377834631,765.7185232472158 L390.71852324721596,721.895437783463" close="False" data-weight="2.060660171779821" stroke-width="7" fill="none" stroke="#8f0f12" />
<path d="M269.03490257669733,794.0349025766973 L312.21509742330267,837.2150974233027" close="False" data-weight="2.060660171779821" stroke-width="7" fill="none" stroke="#8f0f12" />
<path d="M275.1704076850486,782.625 L306.0795923149514,782.625" close="False" data-weight="1.75" stroke-width="7" fill="none" stroke="#8f0f12" />
<path d="M398.625,606.0795923149514 C398.625,617.1022961574756,398.625,639.1477038425244,398.625,650.1704076850486" close="False" data-weight="0.0" stroke-width="7" fill="none" stroke="#90ea66" />
<path d="M398.625,531.0795923149514 C398.625,542.1022961574756,398.625,564.1477038425244,398.625,575.1704076850486" close="False" data-weight="0.0" stroke-width="7" fill="none" stroke="#90ea66" />
<path d="M344.03490257669733,537.2150974233027 A54.31980515339474,54.31980515339474,0,0,1,326.412289481504,548.9901510378278 M326.412289481504,548.9901510378278 A54.319805153394555,54.319805153394555,0,0,1,305.625,553.125 M305.625,553.125" close="False" data-weight="1.0" stroke-width="7" fill="none" stroke="#90ea66" />
<path d="M275.625,553.125 C264.43196827869235,553.125,242.27262403625903,548.625,231.07959231495138,548.625" close="False" data-weight="0.0" stroke-width="7" fill="none" stroke="#90ea66" />
<path d="M398.625,650.1704076850486 L398.625,681.0795923149514" close="False" data-weight="1.75" stroke-width="7" fill="none" stroke="#90ea66" />
<path d="M398.625,575.1704076850486 L398.625,606.0795923149514" close="False" data-weight="1.75" stroke-width="7" fill="none" stroke="#90ea66" />
<path d="M398.625,500.1704076850486 L398.625,531.0795923149514" close="False" data-weight="1.75" stroke-width="7" fill="none" stroke="#90ea66" />
<path d="M344.03490257669733,537.2150974233027 L387.21509742330267,494.03490257669733" close="False" data-weight="2.060660171779821" stroke-width="7" fill="none" stroke="#90ea66" />
<path d="M275.625,553.125 L305.625,553.125" close="False" data-weight="1.75" stroke-width="7" fill="none" stroke="#90ea66" />
<path d="M200.17040768504862,548.625 L231.07959231495138,548.625" close="False" data-weight="1.75" stroke-width="7" fill="none" stroke="#90ea66" />
<path d="M1169.0349025766973,569.0349025766973 A54.31980515339514,54.31980515339514,0,0,0,1151.412289481504,557.2598489621722 M1151.412289481504,557.2598489621722 A54.319805153393986,54.319805153393986,0,0,0,1130.625,553.125 M1130.625,553.125" close="False" data-weight="1.0" stroke-width="7" fill="none" stroke="#35618f" />
<path d="M1100.625,553.125 C1089.375,553.125,1066.875,553.125,1055.625,553.125" close="False" data-weight="0.0" stroke-width="7" fill="none" stroke="#35618f" />
<path d="M1025.625,553.125 C1014.375,553.125,991.875,553.125,980.625,553.125" close="False" data-weight="0.0" stroke-width="7" fill="none" stroke="#35618f" />
<path d="M875.625,553.125 C864.375,553.125,841.875,553.125,830.625,553.125" close="False" data-weight="0.0" stroke-width="7" fill="none" stroke="#35618f" />
<path d="M800.625,553.125 C789.375,553.125,766.875,553.125,755.625,553.125" close="False" data-weight="0.0" stroke-width="7" fill="none" stroke="#35618f" />
<path d="M725.625,553.125 A54.31980515339484,54.31980515339484,0,0,1,704.8377105184961,548.9901510378278 M704.8377105184961,548.9901510378278 A54.3198051533943,54.3198051533943,0,0,1,687.2150974233027,537.2150974233027 M687.2150974233027,537.2150974233027" close="False" data-weight="1.0" stroke-width="7" fill="none" stroke="#35618f" />
<path d="M644.0349025766973,494.03490257669733 C636.0799512883486,486.0799512883487,620.1700487116514,470.1700487116513,612.2150974233027,462.21509742330267" close="False" data-weight="0.0" stroke-width="7" fill="none" stroke="#35618f" />
<path d="M648.7465906273013,337.125 C638.4357953136507,337.125,617.8142046863493,337.125,607.5034093726987,337.125" close="False" data-weight="0.0" stroke-width="7" fill="none" stroke="#35618f" />
<path d="M569.0349025766973,419.03490257669733 C561.0799512883486,411.0799512883487,545.1700487116514,395.1700487116513,537.2150974233027,387.21509742330267" close="False" data-weight="0.0" stroke-width="7" fill="none" stroke="#35618f" />
<path d="M573.7465906273013,337.125 C563.4357953136507,337.125,542.8142046863493,337.125,532.5034093726987,337.125" close="False" data-weight="0.0" stroke-width="7" fill="none" stroke="#35618f" />
<path d="M1169.0349025766973,569.0349025766973 L1212.2150974233027,612.2150974233027" close="False" data-weight="2.060660171779821" stroke-width="7" fill="none" stroke="#35618f" />
<path d="M1100.625,553.125 L1130.625,553.125" close="False" data-weight="1.75" stroke-width="7" fill="none" stroke="#35618f" />
<path d="M1025.625,553.125 L1055.625,553.125" close="False" data-weight="1.75" stroke-width="7" fill="none" stroke="#35618f" />
<path d="M950.625,553.125 L980.625,553.125" close="False" data-weight="1.75" stroke-width="7" fill="none" stroke="#35618f" />
<path d="M875.625,553.125 L905.625,553.125" close="False" data-weight="1.75" stroke-width="7" fill="none" stroke="#35618f" />
<path d="M800.625,553.125 L830.625,553.125" close="False" data-weight="1.75" stroke-width="7" fill="none" stroke="#35618f" />
<path d="M725.625,553.125 L755.625,553.125" close="False" data-weight="1.75" stroke-width="7" fill="none" stroke="#35618f" />
<path d="M644.0349025766973,494.03490257669733 L687.2150974233027,537.2150974233027" close="False" data-weight="2.060660171779821" stroke-width="7" fill="none" stroke="#35618f" />
<path d="M648.7465906273013,337.125 L682.5034093726987,337.125" close="False" data-weight="1.75" stroke-width="7" fill="none" stroke="#35618f" />
<path d="M569.0349025766973,419.03490257669733 L612.2150974233027,462.21509742330267" close="False" data-weight="2.060660171779821" stroke-width="7" fill="none" stroke="#35618f" />
<path d="M573.7465906273013,337.125 L607.5034093726987,337.125" close="False" data-weight="1.75" stroke-width="7" fill="none" stroke="#35618f" />
<path d="M494.03490257669733,344.03490257669733 L537.2150974233027,387.21509742330267" close="False" data-weight="2.060660171779821" stroke-width="7" fill="none" stroke="#35618f" />
<path d="M498.74659062730126,337.125 L532.5034093726987,337.125" close="False" data-weight="1.75" stroke-width="7" fill="none" stroke="#35618f" />
<image x="1195.625" y="1195.625" width="65" height="65" xlink:href="designspace-test/./img/ds_dataset0_20_5_thumb.png" data-node="True" data-id="5" />
<image x="1195.625" y="595.625" width="65" height="65" xlink:href="designspace-test/./img/ds_dataset0_20_9_thumb.png" data-node="True" data-id="9" />
<image x="1120.625" y="220.625" width="65" height="65" xlink:href="designspace-test/./img/ds_dataset0_20_10_thumb.png" data-node="True" data-id="10" />
<image x="1045.625" y="970.625" width="65" height="65" xlink:href="designspace-test/./img/ds_dataset0_20_7_thumb.png" data-node="True" data-id="7" />
<image x="1045.625" y="70.625" width="65" height="65" xlink:href="designspace-test/./img/ds_dataset0_20_11_thumb.png" data-node="True" data-id="11" />
<image x="970.625" y="895.625" width="65" height="65" xlink:href="designspace-test/./img/ds_dataset0_20_6_thumb.png" data-node="True" data-id="6" />
<image x="970.625" y="595.625" width="65" height="65" xlink:href="designspace-test/./img/ds_dataset0_20_0_thumb.png" data-node="True" data-id="0" />
<image x="895.625" y="745.625" width="65" height="65" xlink:href="designspace-test/./img/ds_dataset0_20_8_thumb.png" data-node="True" data-id="8" />
<image x="895.625" y="520.625" width="65" height="65" xlink:href="designspace-test/./img/ds_dataset0_20_1_thumb.png" data-node="True" data-id="1" />
<image x="670.625" y="295.625" width="65" height="65" xlink:href="designspace-test/./img/ds_dataset0_20_4_thumb.png" data-node="True" data-id="4" />
<image x="445.625" y="295.625" width="65" height="65" xlink:href="designspace-test/./img/ds_dataset0_20_15_thumb.png" data-node="True" data-id="15" />
<image x="370.625" y="1120.625" width="65" height="65" xlink:href="designspace-test/./img/ds_dataset0_20_3_thumb.png" data-node="True" data-id="3" />
<image x="370.625" y="895.625" width="65" height="65" xlink:href="designspace-test/./img/ds_dataset0_20_12_thumb.png" data-node="True" data-id="12" />
<image x="370.625" y="745.625" width="65" height="65" xlink:href="designspace-test/./img/ds_dataset0_20_16_thumb.png" data-node="True" data-id="16" />
<image x="370.625" y="670.625" width="65" height="65" xlink:href="designspace-test/./img/ds_dataset0_20_19_thumb.png" data-node="True" data-id="19" />
<image x="370.625" y="445.625" width="65" height="65" xlink:href="designspace-test/./img/ds_dataset0_20_18_thumb.png" data-node="True" data-id="18" />
<image x="220.625" y="895.625" width="65" height="65" xlink:href="designspace-test/./img/ds_dataset0_20_17_thumb.png" data-node="True" data-id="17" />
<image x="220.625" y="745.625" width="65" height="65" xlink:href="designspace-test/./img/ds_dataset0_20_14_thumb.png" data-node="True" data-id="14" />
<image x="145.625" y="520.625" width="65" height="65" xlink:href="designspace-test/./img/ds_dataset0_20_2_thumb.png" data-node="True" data-id="2" />
<image x="70.625" y="220.625" width="65" height="65" xlink:href="designspace-test/./img/ds_dataset0_20_13_thumb.png" data-node="True" data-id="13" />
</svg>