<?xml version="1.0" encoding="UTF-8"?>
<svg xmlns="http://www.w3.org/2000/svg" xmlns:xlink="http://www.w3.org/1999/xlink"
     width="2550" height="2550" viewBox="0 0 2550 2550">
<defs>
</defs>
<path d="M2424.125,1505.9834101745155 A49.45452644918532,49.45452644918532,0,0,1,2420.360498327255,1524.9088381020804 M2420.360498327255,1524.9088381020804 A49.45452644918831,49.45452644918831,0,0,1,2409.6401045634025,1540.9530411871049 M2409.6401045634025,1540.9530411871049" close="False" data-weight="1.0" stroke-width="6" fill="none" stroke="#ffff33" />
<path d="M2424.125,1430.9834101745155 C2424.125,1442.0542050872577,2424.125,1464.1957949127423,2424.125,1475.2665898254845" close="False" data-weight="0.0" stroke-width="6" fill="none" stroke="#ffff33" />
<path d="M2424.125,1355.9834101745155 C2424.125,1367.0542050872577,2424.125,1389.1957949127423,2424.125,1400.2665898254845" close="False" data-weight="0.0" stroke-width="6" fill="none" stroke="#ffff33" />
<path d="M2424.125,1280.9834101745155 C2424.125,1292.0542050872577,2424.125,1314.1957949127423,2424.125,1325.2665898254845" close="False" data-weight="0.0" stroke-width="6" fill="none" stroke="#ffff33" />
<path d="M2424.125,1205.9834101745155 C2424.125,1217.0542050872577,2424.125,1239.1957949127423,2424.125,1250.2665898254845" close="False" data-weight="0.0" stroke-width="6" fill="none" stroke="#ffff33" />
<path d="M2424.125,1475.2665898254845 L2424.125,1505.9834101745155" close="False" data-weight="1.75" stroke-width="6" fill="none" stroke="#ffff33" />
<path d="M2424.125,1400.2665898254845 L2424.125,1430.9834101745155" close="False" data-weight="1.75" stroke-width="6" fill="none" stroke="#ffff33" />
<path d="M2424.125,1325.2665898254845 L2424.125,1355.9834101745155" close="False" data-weight="1.75" stroke-width="6" fill="none" stroke="#ffff33" />
<path d="M2424.125,1250.2665898254845 L2424.125,1280.9834101745155" close="False" data-weight="1.75" stroke-width="6" fill="none" stroke="#ffff33" />
<path d="M2424.125,1175.2665898254845 L2424.125,1205.9834101745155" close="False" data-weight="1.75" stroke-width="6" fill="none" stroke="#ffff33" />
<path d="M2365.953041187105,1621.6098954365973 L2409.6401045634025,1665.2969588128951" close="False" data-weight="2.060660171779821" stroke-width="6" fill="none" stroke="#ffff33" />
<path d="M2365.953041187105,1584.6401045634027 L2409.6401045634025,1540.9530411871049" close="False" data-weight="2.060660171779821" stroke-width="6" fill="none" stroke="#ffff33" />
<path d="M2375.2665898254845,1149.125 C2364.1957949127423,1149.125,2342.0542050872577,1149.125,2330.9834101745155,1149.125" close="False" data-weight="0.0" stroke-width="6" fill="none" stroke="#984ea3" />
<path d="M2300.2665898254845,1149.125 A93.83039863674549,93.83039863674549,0,0,1,2279.7176985548367,1146.8472461960373 M2279.7176985548367,1146.8472461960373 A35.85816626156064,35.85816626156064,0,0,1,2262.2150974233027,1137.2150974233027 M2262.2150974233027,1137.2150974233027" close="False" data-weight="1.0" stroke-width="6" fill="none" stroke="#984ea3" />
<path d="M2219.0349025766973,1094.0349025766973 C2211.0799512883486,1086.0799512883486,2195.1700487116514,1070.1700487116514,2187.2150974233027,1062.2150974233027" close="False" data-weight="0.0" stroke-width="6" fill="none" stroke="#984ea3" />
<path d="M2144.0349025766973,1019.0349025766973 C2136.0799512883486,1011.0799512883486,2120.1700487116514,995.1700487116514,2112.2150974233027,987.2150974233027" close="False" data-weight="0.0" stroke-width="6" fill="none" stroke="#984ea3" />
<path d="M2069.0349025766973,944.0349025766973 C2061.0799512883486,936.0799512883486,2045.1700487116514,920.1700487116514,2037.2150974233027,912.2150974233027" close="False" data-weight="0.0" stroke-width="6" fill="none" stroke="#984ea3" />
<path d="M1994.0349025766973,869.0349025766973 C1986.0799512883486,861.0799512883486,1970.1700487116514,845.1700487116514,1962.2150974233027,837.2150974233027" close="False" data-weight="0.0" stroke-width="6" fill="none" stroke="#984ea3" />
<path d="M2375.2665898254845,1149.125 L2405.9834101745155,1149.125" close="False" data-weight="1.75" stroke-width="6" fill="none" stroke="#984ea3" />
<path d="M2300.2665898254845,1149.125 L2330.9834101745155,1149.125" close="False" data-weight="1.75" stroke-width="6" fill="none" stroke="#984ea3" />
<path d="M2219.0349025766973,1094.0349025766973 L2262.2150974233027,1137.2150974233027" close="False" data-weight="2.060660171779821" stroke-width="6" fill="none" stroke="#984ea3" />
<path d="M2144.0349025766973,1019.0349025766973 L2187.2150974233027,1062.2150974233027" close="False" data-weight="2.060660171779821" stroke-width="6" fill="none" stroke="#984ea3" />
<path d="M2069.0349025766973,944.0349025766973 L2112.2150974233027,987.2150974233027" close="False" data-weight="2.060660171779821" stroke-width="6" fill="none" stroke="#984ea3" />
<path d="M1994.0349025766973,869.0349025766973 L2037.2150974233027,912.2150974233027" close="False" data-weight="2.060660171779821" stroke-width="6" fill="none" stroke="#984ea3" />
<path d="M1919.0349025766973,794.0349025766973 L1962.2150974233027,837.2150974233027" close="False" data-weight="2.060660171779821" stroke-width="6" fill="none" stroke="#984ea3" />
<path d="M2432.125,1505.9834101745155 A57.454526449181685,57.454526449181685,0,0,1,2427.751534587345,1527.970305561001 M2427.751534587345,1527.970305561001 A57.45452644919593,57.45452644919593,0,0,1,2415.296958812895,1546.6098954365973 M2415.296958812895,1546.6098954365973" close="False" data-weight="1.0" stroke-width="6" fill="none" stroke="#ff7f00" />
<path d="M2432.125,1430.9834101745155 C2432.125,1442.0542050872577,2432.125,1464.1957949127423,2432.125,1475.2665898254845" close="False" data-weight="0.0" stroke-width="6" fill="none" stroke="#ff7f00" />
<path d="M2432.125,1355.9834101745155 C2432.125,1367.0542050872577,2432.125,1389.1957949127423,2432.125,1400.2665898254845" close="False" data-weight="0.0" stroke-width="6" fill="none" stroke="#ff7f00" />
<path d="M2432.125,1280.9834101745155 C2432.125,1292.0542050872577,2432.125,1314.1957949127423,2432.125,1325.2665898254845" close="False" data-weight="0.0" stroke-width="6" fill="none" stroke="#ff7f00" />
<path d="M2432.125,1205.9834101745155 C2432.125,1217.0542050872577,2432.125,1239.1957949127423,2432.125,1250.2665898254845" close="False" data-weight="0.0" stroke-width="6" fill="none" stroke="#ff7f00" />
<path d="M2369.0349025766973,1737.2150974233027 C2361.0799512883486,1745.1700487116514,2345.1700487116514,1761.0799512883486,2337.2150974233027,1769.0349025766973" close="False" data-weight="0.0" stroke-width="6" fill="none" stroke="#ff7f00" />
<path d="M2375.2665898254845,1157.125 C2364.1957949127423,1157.125,2342.0542050872577,1157.125,2330.9834101745155,1157.125" close="False" data-weight="0.0" stroke-width="6" fill="none" stroke="#ff7f00" />
<path d="M2294.0349025766973,1812.2150974233027 C2286.0799512883486,1820.1700487116514,2270.1700487116514,1836.0799512883486,2262.2150974233027,1844.0349025766973" close="False" data-weight="0.0" stroke-width="6" fill="none" stroke="#ff7f00" />
<path d="M2300.2665898254845,1157.125 C2289.061480661171,1157.125,2266.8301091643134,1153.125,2255.625,1153.125" close="False" data-weight="0.0" stroke-width="6" fill="none" stroke="#ff7f00" />
<path d="M2219.0349025766973,1887.2150974233027 C2211.0799512883486,1895.1700487116514,2195.1700487116514,1911.0799512883486,2187.2150974233027,1919.0349025766973" close="False" data-weight="0.0" stroke-width="6" fill="none" stroke="#ff7f00" />
<path d="M2225.625,1153.125 C2214.375,1153.125,2191.875,1153.125,2180.625,1153.125" close="False" data-weight="0.0" stroke-width="6" fill="none" stroke="#ff7f00" />
<path d="M2144.0349025766973,1962.2150974233027 A54.319805153391044,54.319805153391044,0,0,0,2132.259848962172,1979.8377105184957 M2132.259848962172,1979.8377105184957 A54.3198051533941,54.3198051533941,0,0,0,2128.125,2000.625 M2128.125,2000.625" close="False" data-weight="1.0" stroke-width="6" fill="none" stroke="#ff7f00" />
<path d="M2150.625,1153.125 C2139.375,1153.125,2116.875,1153.125,2105.625,1153.125" close="False" data-weight="0.0" stroke-width="6" fill="none" stroke="#ff7f00" />
<path d="M2075.625,1153.125 C2064.375,1153.125,2041.875,1153.125,2030.625,1153.125" close="False" data-weight="0.0" stroke-width="6" fill="none" stroke="#ff7f00" />
<path d="M2000.625,1153.125 C1989.375,1153.125,1966.875,1153.125,1955.625,1153.125" close="False" data-weight="0.0" stroke-width="6" fill="none" stroke="#ff7f00" />
<path d="M1925.625,1153.125 A54.31980515339569,54.31980515339569,0,0,1,1904.837710518496,1148.9901510378277 M1904.837710518496,1148.9901510378277 A54.3198051533933,54.3198051533933,0,0,1,1887.2150974233027,1137.2150974233027 M1887.2150974233027,1137.2150974233027" close="False" data-weight="1.0" stroke-width="6" fill="none" stroke="#ff7f00" />
<path d="M1832.125,980.9834101745155 C1832.125,992.0542050872577,1832.125,1014.1957949127423,1832.125,1025.2665898254845" close="False" data-weight="0.0" stroke-width="6" fill="none" stroke="#ff7f00" />
<path d="M1832.125,905.9834101745155 C1832.125,917.0542050872577,1832.125,939.1957949127423,1832.125,950.2665898254845" close="False" data-weight="0.0" stroke-width="6" fill="none" stroke="#ff7f00" />
<path d="M1846.6098954365973,840.296958812895 A49.45452644918823,49.45452644918823,0,0,0,1835.889501672745,856.3411618979195 M1835.889501672745,856.3411618979195 A49.45452644918555,49.45452644918555,0,0,0,1832.125,875.2665898254845 M1832.125,875.2665898254845" close="False" data-weight="1.0" stroke-width="6" fill="none" stroke="#ff7f00" />
<path d="M1694.0349025766973,1137.2150974233027 C1686.0799512883486,1145.1700487116514,1670.1700487116514,1161.0799512883486,1662.2150974233027,1169.0349025766973" close="False" data-weight="0.0" stroke-width="6" fill="none" stroke="#ff7f00" />
<path d="M1619.0349025766973,1212.2150974233027 C1611.0799512883486,1220.1700487116514,1595.1700487116514,1236.0799512883486,1587.2150974233027,1244.0349025766973" close="False" data-weight="0.0" stroke-width="6" fill="none" stroke="#ff7f00" />
<path d="M1544.0349025766973,1287.2150974233027 C1536.0799512883486,1295.1700487116514,1520.1700487116514,1311.0799512883486,1512.2150974233027,1319.0349025766973" close="False" data-weight="0.0" stroke-width="6" fill="none" stroke="#ff7f00" />
<path d="M1469.0349025766973,1362.2150974233027 C1461.0799512883486,1370.1700487116514,1445.1700487116514,1386.0799512883486,1437.2150974233027,1394.0349025766973" close="False" data-weight="0.0" stroke-width="6" fill="none" stroke="#ff7f00" />
<path d="M1394.0349025766973,1437.2150974233027 A54.3198051533949,54.3198051533949,0,0,1,1376.412289481504,1448.9901510378277 M1376.412289481504,1448.9901510378277 A54.3198051533941,54.3198051533941,0,0,1,1355.625,1453.125 M1355.625,1453.125" close="False" data-weight="1.0" stroke-width="6" fill="none" stroke="#ff7f00" />
<path d="M1246.6098954365973,1590.2969588128951 C1238.7816612806755,1598.125192968817,1223.1251929688317,1613.7816612806607,1215.29695881291,1621.6098954365825" close="False" data-weight="0.0" stroke-width="6" fill="none" stroke="#ff7f00" />
<path d="M1171.6098954365973,1665.2969588128951 C1163.7816612806716,1673.1251929688208,1148.1251929688208,1688.7816612806716,1140.2969588128951,1696.6098954365973" close="False" data-weight="0.0" stroke-width="6" fill="none" stroke="#ff7f00" />
<path d="M1090.9530411871049,2221.6098954365975 C1083.1248070311792,2213.781661280672,1067.4683387193284,2198.1251929688206,1059.6401045634027,2190.296958812895" close="False" data-weight="0.0" stroke-width="6" fill="none" stroke="#ff7f00" />
<path d="M1096.6098954365677,1740.2969588129247 C1088.7816612806496,1748.1251929688428,1073.1251929688133,1763.7816612806791,1065.2969588128951,1771.6098954365973" close="False" data-weight="0.0" stroke-width="6" fill="none" stroke="#ff7f00" />
<path d="M1015.9530411871347,2146.609895436627 C1008.1248070311942,2138.7816612806864,992.4683387193134,2123.125192968806,984.6401045633729,2115.2969588128653" close="False" data-weight="0.0" stroke-width="6" fill="none" stroke="#ff7f00" />
<path d="M1021.6098954366271,1815.2969588128653 C1013.7816612806866,1823.1251929688058,998.1251929688058,1838.7816612806866,990.2969588128653,1846.609895436627" close="False" data-weight="0.0" stroke-width="6" fill="none" stroke="#ff7f00" />
<path d="M940.953041187105,2071.6098954365975 C933.1248070311793,2063.781661280672,917.4683387193281,2048.1251929688206,909.6401045634026,2040.2969588128951" close="False" data-weight="0.0" stroke-width="6" fill="none" stroke="#ff7f00" />
<path d="M2432.125,1475.2665898254845 L2432.125,1505.9834101745155" close="False" data-weight="1.75" stroke-width="6" fill="none" stroke="#ff7f00" />
<path d="M2432.125,1400.2665898254845 L2432.125,1430.9834101745155" close="False" data-weight="1.75" stroke-width="6" fill="none" stroke="#ff7f00" />
<path d="M2432.125,1325.2665898254845 L2432.125,1355.9834101745155" close="False" data-weight="1.75" stroke-width="6" fill="none" stroke="#ff7f00" />
<path d="M2432.125,1250.2665898254845 L2432.125,1280.9834101745155" close="False" data-weight="1.75" stroke-width="6" fill="none" stroke="#ff7f00" />
<path d="M2432.125,1175.2665898254845 L2432.125,1205.9834101745155" close="False" data-weight="1.75" stroke-width="6" fill="none" stroke="#ff7f00" />
<path d="M2369.0349025766973,1737.2150974233027 L2412.2150974233027,1694.0349025766973" close="False" data-weight="2.060660171779821" stroke-width="6" fill="none" stroke="#ff7f00" />
<path d="M2371.6098954365975,1615.9530411871049 L2415.296958812895,1659.6401045634027" close="False" data-weight="2.060660171779821" stroke-width="6" fill="none" stroke="#ff7f00" />
<path d="M2371.6098954365975,1590.2969588128951 L2415.296958812895,1546.6098954365973" close="False" data-weight="2.060660171779821" stroke-width="6" fill="none" stroke="#ff7f00" />
<path d="M2375.2665898254845,1157.125 L2405.9834101745155,1157.125" close="False" data-weight="1.75" stroke-width="6" fill="none" stroke="#ff7f00" />
<path d="M2294.0349025766973,1812.2150974233027 L2337.2150974233027,1769.0349025766973" close="False" data-weight="2.060660171779821" stroke-width="6" fill="none" stroke="#ff7f00" />
<path d="M2300.2665898254845,1157.125 L2330.9834101745155,1157.125" close="False" data-weight="1.75" stroke-width="6" fill="none" stroke="#ff7f00" />
<path d="M2219.0349025766973,1887.2150974233027 L2262.2150974233027,1844.0349025766973" close="False" data-weight="2.060660171779821" stroke-width="6" fill="none" stroke="#ff7f00" />
<path d="M2225.625,1153.125 L2255.625,1153.125" close="False" data-weight="1.75" stroke-width="6" fill="none" stroke="#ff7f00" />
<path d="M2128.125,2300.625 L2128.125,2330.625" close="False" data-weight="1.75" stroke-width="6" fill="none" stroke="#ff7f00" />
<path d="M2128.125,2150.625 L2128.125,2180.625" close="False" data-weight="1.75" stroke-width="6" fill="none" stroke="#ff7f00" />
<path d="M2128.125,2000.625 L2128.125,2030.625" close="False" data-weight="1.75" stroke-width="6" fill="none" stroke="#ff7f00" />
<path d="M2144.0349025766973,1962.2150974233027 L2187.2150974233027,1919.0349025766973" close="False" data-weight="2.060660171779821" stroke-width="6" fill="none" stroke="#ff7f00" />
<path d="M2150.625,1153.125 L2180.625,1153.125" close="False" data-weight="1.75" stroke-width="6" fill="none" stroke="#ff7f00" />
<path d="M2053.125,2375.625 L2053.125,2405.625" close="False" data-weight="1.75" stroke-width="6" fill="none" stroke="#ff7f00" />
<path d="M2053.125,2300.625 L2053.125,2330.625" close="False" data-weight="1.75" stroke-width="6" fill="none" stroke="#ff7f00" />
<path d="M2075.625,2278.125 L2105.625,2278.125" close="False" data-weight="1.75" stroke-width="6" fill="none" stroke="#ff7f00" />
<path d="M2053.125,2150.625 L2053.125,2180.625" close="False" data-weight="1.75" stroke-width="6" fill="none" stroke="#ff7f00" />
<path d="M2075.625,2128.125 L2105.625,2128.125" close="False" data-weight="1.75" stroke-width="6" fill="none" stroke="#ff7f00" />
<path d="M2053.125,2075.625 L2053.125,2105.625" close="False" data-weight="1.75" stroke-width="6" fill="none" stroke="#ff7f00" />
<path d="M2075.625,2053.125 L2105.625,2053.125" close="False" data-weight="1.75" stroke-width="6" fill="none" stroke="#ff7f00" />
<path d="M2075.625,1153.125 L2105.625,1153.125" close="False" data-weight="1.75" stroke-width="6" fill="none" stroke="#ff7f00" />
<path d="M2000.625,2278.125 L2030.625,2278.125" close="False" data-weight="1.75" stroke-width="6" fill="none" stroke="#ff7f00" />
<path d="M1978.125,2225.625 L1978.125,2255.625" close="False" data-weight="1.75" stroke-width="6" fill="none" stroke="#ff7f00" />
<path d="M2000.625,2203.125 L2030.625,2203.125" close="False" data-weight="1.75" stroke-width="6" fill="none" stroke="#ff7f00" />
<path d="M2000.625,1153.125 L2030.625,1153.125" close="False" data-weight="1.75" stroke-width="6" fill="none" stroke="#ff7f00" />
<path d="M1925.625,1153.125 L1955.625,1153.125" close="False" data-weight="1.75" stroke-width="6" fill="none" stroke="#ff7f00" />
<path d="M1844.0349025766973,1094.0349025766973 L1887.2150974233027,1137.2150974233027" close="False" data-weight="2.060660171779821" stroke-width="6" fill="none" stroke="#ff7f00" />
<path d="M1832.125,1025.2665898254845 L1832.125,1055.9834101745155" close="False" data-weight="1.75" stroke-width="6" fill="none" stroke="#ff7f00" />
<path d="M1832.125,950.2665898254845 L1832.125,980.9834101745155" close="False" data-weight="1.75" stroke-width="6" fill="none" stroke="#ff7f00" />
<path d="M1832.125,875.2665898254845 L1832.125,905.9834101745155" close="False" data-weight="1.75" stroke-width="6" fill="none" stroke="#ff7f00" />
<path d="M1846.6098954365973,840.296958812895 L1890.2969588128951,796.6098954365974" close="False" data-weight="2.060660171779821" stroke-width="6" fill="none" stroke="#ff7f00" />
<path d="M1775.2665898254845,1082.125 L1805.9834101745155,1082.125" close="False" data-weight="1.75" stroke-width="6" fill="none" stroke="#ff7f00" />
<path d="M1694.0349025766973,1137.2150974233027 L1737.2150974233027,1094.0349025766973" close="False" data-weight="2.060660171779821" stroke-width="6" fill="none" stroke="#ff7f00" />
<path d="M1619.0349025766973,1212.2150974233027 L1662.2150974233027,1169.0349025766973" close="False" data-weight="2.060660171779821" stroke-width="6" fill="none" stroke="#ff7f00" />
<path d="M1544.0349025766973,1287.2150974233027 L1587.2150974233027,1244.0349025766973" close="False" data-weight="2.060660171779821" stroke-width="6" fill="none" stroke="#ff7f00" />
<path d="M1469.0349025766973,1362.2150974233027 L1512.2150974233027,1319.0349025766973" close="False" data-weight="2.060660171779821" stroke-width="6" fill="none" stroke="#ff7f00" />
<path d="M1394.0349025766973,1437.2150974233027 L1437.2150974233027,1394.0349025766973" close="False" data-weight="2.060660171779821" stroke-width="6" fill="none" stroke="#ff7f00" />
<path d="M1307.125,1475.2665898254845 L1307.125,1505.9834101745155" close="False" data-weight="1.75" stroke-width="6" fill="none" stroke="#ff7f00" />
<path d="M1325.625,1453.125 L1355.625,1453.125" close="False" data-weight="1.75" stroke-width="6" fill="none" stroke="#ff7f00" />
<path d="M1224.125,2375.2665898254845 L1224.125,2405.9834101745155" close="False" data-weight="1.75" stroke-width="6" fill="none" stroke="#ff7f00" />
<path d="M1246.6098954365973,1590.2969588128951 L1290.2969588128951,1546.6098954365973" close="False" data-weight="2.060660171779821" stroke-width="6" fill="none" stroke="#ff7f00" />
<path d="M1175.2665898254845,2357.125 L1205.9834101745155,2357.125" close="False" data-weight="1.75" stroke-width="6" fill="none" stroke="#ff7f00" />
<path d="M1149.125,2300.2665898254845 L1149.125,2330.9834101745155" close="False" data-weight="1.75" stroke-width="6" fill="none" stroke="#ff7f00" />
<path d="M1171.6098954366123,1665.2969588128801 L1215.2969588128951,1621.6098954365973" close="False" data-weight="2.060660171779821" stroke-width="6" fill="none" stroke="#ff7f00" />
<path d="M1090.9530411871049,2221.6098954365975 L1134.6401045634027,2265.296958812895" close="False" data-weight="2.060660171779821" stroke-width="6" fill="none" stroke="#ff7f00" />
<path d="M1096.6098954365973,1740.2969588128951 L1140.2969588128801,1696.6098954366123" close="False" data-weight="2.060660171779821" stroke-width="6" fill="none" stroke="#ff7f00" />
<path d="M1015.9530411871347,2146.609895436627 L1059.6401045634027,2190.296958812895" close="False" data-weight="2.060660171779821" stroke-width="6" fill="none" stroke="#ff7f00" />
<path d="M1021.6098954366271,1815.2969588128653 L1065.2969588128951,1771.6098954365973" close="False" data-weight="2.060660171779821" stroke-width="6" fill="none" stroke="#ff7f00" />
<path d="M940.953041187105,2071.6098954365975 L984.6401045633729,2115.2969588128653" close="False" data-weight="2.060660171779821" stroke-width="6" fill="none" stroke="#ff7f00" />
<path d="M946.6098954365676,1890.2969588129247 L990.296958812895,1846.6098954365973" close="False" data-weight="2.060660171779821" stroke-width="6" fill="none" stroke="#ff7f00" />
<path d="M865.953041187105,1996.6098954365973 L909.6401045634026,2040.2969588128951" close="False" data-weight="2.060660171779821" stroke-width="6" fill="none" stroke="#ff7f00" />
<path d="M853.125,1925.625 L853.125,1955.625" close="False" data-weight="1.75" stroke-width="6" fill="none" stroke="#ff7f00" />
<path d="M875.625,1903.125 L905.625,1903.125" close="False" data-weight="1.75" stroke-width="6" fill="none" stroke="#ff7f00" />
<path d="M1240.9530411871049,1584.6401045634027 C1233.1248070311756,1592.468338719332,1217.468338719317,1608.1248070311906,1209.6401045633877,1615.9530411871199" close="False" data-weight="0.0" stroke-width="6" fill="none" stroke="#4daf4a" />
<path d="M1165.9530411871049,1659.6401045634027 C1158.1248070311792,1667.4683387193284,1142.4683387193284,1683.1248070311792,1134.6401045634027,1690.9530411871049" close="False" data-weight="0.0" stroke-width="6" fill="none" stroke="#4daf4a" />
<path d="M1090.9530411871199,1734.6401045633877 C1083.1248070311906,1742.468338719317,1067.468338719332,1758.1248070311756,1059.6401045634027,1765.9530411871049" close="False" data-weight="0.0" stroke-width="6" fill="none" stroke="#4daf4a" />
<path d="M1015.9530411870752,1809.6401045634323 C1008.1248070311644,1817.468338719343,992.4683387193431,1833.1248070311647,984.6401045634324,1840.9530411870753" close="False" data-weight="0.0" stroke-width="6" fill="none" stroke="#4daf4a" />
<path d="M800.625,1903.125 C789.375,1903.125,766.875,1903.125,755.625,1903.125" close="False" data-weight="0.0" stroke-width="6" fill="none" stroke="#4daf4a" />
<path d="M725.625,1903.125 C714.375,1903.125,691.875,1903.125,680.625,1903.125" close="False" data-weight="0.0" stroke-width="6" fill="none" stroke="#4daf4a" />
<path d="M715.9530411871087,534.6401045633988 C708.1248070311822,542.4683387193254,692.4683387193292,558.1248070311784,684.6401045634026,565.953041187105" close="False" data-weight="0.0" stroke-width="6" fill="none" stroke="#4daf4a" />
<path d="M650.625,1903.125 C639.375,1903.125,616.875,1903.125,605.625,1903.125" close="False" data-weight="0.0" stroke-width="6" fill="none" stroke="#4daf4a" />
<path d="M640.953041187105,609.6401045634026 C633.1248070311793,617.4683387193282,617.4683387193282,633.1248070311793,609.6401045634026,640.953041187105" close="False" data-weight="0.0" stroke-width="6" fill="none" stroke="#4daf4a" />
<path d="M575.625,1903.125 C564.375,1903.125,541.875,1903.125,530.625,1903.125" close="False" data-weight="0.0" stroke-width="6" fill="none" stroke="#4daf4a" />
<path d="M565.953041187105,684.6401045634026 A93.83039863674406,93.83039863674406,0,0,1,549.8121656631095,697.5597497660872 M549.8121656631095,697.5597497660872 A35.858166261560996,35.858166261560996,0,0,1,530.625,703.125 M530.625,703.125" close="False" data-weight="1.0" stroke-width="6" fill="none" stroke="#4daf4a" />
<path d="M500.625,1903.125 C489.375,1903.125,466.875,1903.125,455.625,1903.125" close="False" data-weight="0.0" stroke-width="6" fill="none" stroke="#4daf4a" />
<path d="M500.625,703.125 C489.375,703.125,466.875,703.125,455.625,703.125" close="False" data-weight="0.0" stroke-width="6" fill="none" stroke="#4daf4a" />
<path d="M425.625,1903.125 C414.375,1903.125,391.875,1903.125,380.625,1903.125" close="False" data-weight="0.0" stroke-width="6" fill="none" stroke="#4daf4a" />
<path d="M425.625,703.125 C414.375,703.125,391.875,703.125,380.625,703.125" close="False" data-weight="0.0" stroke-width="6" fill="none" stroke="#4daf4a" />
<path d="M350.625,1903.125 A54.3198051533966,54.3198051533966,0,0,1,329.8377105184959,1898.990151037828 M329.8377105184959,1898.990151037828 A54.31980515339265,54.31980515339265,0,0,1,312.21509742330267,1887.2150974233027 M312.21509742330267,1887.2150974233027" close="False" data-weight="1.0" stroke-width="6" fill="none" stroke="#4daf4a" />
<path d="M269.03490257669733,1844.0349025766973 C261.0799512883487,1836.0799512883486,245.1700487116513,1820.1700487116514,237.21509742330267,1812.2150974233027" close="False" data-weight="0.0" stroke-width="6" fill="none" stroke="#4daf4a" />
<path d="M269.03490257669733,837.2150974233027 C261.0799512883487,845.1700487116514,245.1700487116513,861.0799512883486,237.21509742330267,869.0349025766973" close="False" data-weight="0.0" stroke-width="6" fill="none" stroke="#4daf4a" />
<path d="M194.0349025766973,1769.0349025766973 C186.11169390267963,1761.1116939026797,173.22016748692755,1742.563313237435,165.29695881290988,1734.6401045634175" close="False" data-weight="0.0" stroke-width="6" fill="none" stroke="#4daf4a" />
<path d="M194.0349025766973,912.2150974233027 C186.07995128834867,920.1700487116514,170.1700487116513,936.0799512883486,162.21509742330267,944.0349025766973" close="False" data-weight="0.0" stroke-width="6" fill="none" stroke="#4daf4a" />
<path d="M107.125,1580.9834101745155 C107.125,1592.0542050872577,107.125,1614.1957949127423,107.125,1625.2665898254845" close="False" data-weight="0.0" stroke-width="6" fill="none" stroke="#4daf4a" />
<path d="M107.125,1505.9834101745155 C107.125,1517.0542050872577,107.125,1539.1957949127423,107.125,1550.2665898254845" close="False" data-weight="0.0" stroke-width="6" fill="none" stroke="#4daf4a" />
<path d="M103.125,1430.625 C103.125,1441.8301091643132,107.125,1464.0614806611713,107.125,1475.2665898254845" close="False" data-weight="0.0" stroke-width="6" fill="none" stroke="#4daf4a" />
<path d="M103.125,1355.625 C103.125,1366.875,103.125,1389.375,103.125,1400.625" close="False" data-weight="0.0" stroke-width="6" fill="none" stroke="#4daf4a" />
<path d="M103.125,1280.625 C103.125,1291.875,103.125,1314.375,103.125,1325.625" close="False" data-weight="0.0" stroke-width="6" fill="none" stroke="#4daf4a" />
<path d="M103.125,1205.625 C103.125,1216.875,103.125,1239.375,103.125,1250.625" close="False" data-weight="0.0" stroke-width="6" fill="none" stroke="#4daf4a" />
<path d="M103.125,1130.625 C103.125,1141.875,103.125,1164.375,103.125,1175.625" close="False" data-weight="0.0" stroke-width="6" fill="none" stroke="#4daf4a" />
<path d="M103.125,1055.625 C103.125,1066.875,103.125,1089.375,103.125,1100.625" close="False" data-weight="0.0" stroke-width="6" fill="none" stroke="#4daf4a" />
<path d="M119.0349025766973,987.2150974233027 A54.3198051533949,54.3198051533949,0,0,0,107.25984896217216,1004.8377105184961 M107.25984896217216,1004.8377105184961 A54.31980515339427,54.31980515339427,0,0,0,103.125,1025.625 M103.125,1025.625" close="False" data-weight="1.0" stroke-width="6" fill="none" stroke="#4daf4a" />
<path d="M1299.125,1475.2665898254845 L1299.125,1505.9834101745155" close="False" data-weight="1.75" stroke-width="6" fill="none" stroke="#4daf4a" />
<path d="M1240.9530411871049,1584.6401045634027 L1284.6401045634027,1540.9530411871049" close="False" data-weight="2.060660171779821" stroke-width="6" fill="none" stroke="#4daf4a" />
<path d="M1165.95304118709,1659.6401045634175 L1209.6401045634027,1615.9530411871049" close="False" data-weight="2.060660171779821" stroke-width="6" fill="none" stroke="#4daf4a" />
<path d="M1090.9530411871049,1734.6401045634027 L1134.6401045634175,1690.95304118709" close="False" data-weight="2.060660171779821" stroke-width="6" fill="none" stroke="#4daf4a" />
<path d="M1015.9530411870752,1809.6401045634323 L1059.6401045634027,1765.9530411871049" close="False" data-weight="2.060660171779821" stroke-width="6" fill="none" stroke="#4daf4a" />
<path d="M940.9530411871347,1884.640104563373 L984.6401045634026,1840.9530411871049" close="False" data-weight="2.060660171779821" stroke-width="6" fill="none" stroke="#4daf4a" />
<path d="M845.125,1924.1547408448132 L845.125,1957.0952591551868" close="False" data-weight="1.75" stroke-width="6" fill="none" stroke="#4daf4a" />
<path d="M874.1547408448131,1895.125 L907.0952591551869,1895.125" close="False" data-weight="1.75" stroke-width="6" fill="none" stroke="#4daf4a" />
<path d="M800.625,1903.125 L830.625,1903.125" close="False" data-weight="1.75" stroke-width="6" fill="none" stroke="#4daf4a" />
<path d="M774.125,425.2665898254845 L774.125,455.9834101745155" close="False" data-weight="1.75" stroke-width="6" fill="none" stroke="#4daf4a" />
<path d="M725.625,1903.125 L755.625,1903.125" close="False" data-weight="1.75" stroke-width="6" fill="none" stroke="#4daf4a" />
<path d="M715.953041187105,534.6401045634026 L759.6401045634026,490.953041187105" close="False" data-weight="2.060660171779821" stroke-width="6" fill="none" stroke="#4daf4a" />
<path d="M650.625,1903.125 L680.625,1903.125" close="False" data-weight="1.75" stroke-width="6" fill="none" stroke="#4daf4a" />
<path d="M640.953041187105,609.6401045634026 L684.6401045634026,565.953041187105" close="False" data-weight="2.060660171779821" stroke-width="6" fill="none" stroke="#4daf4a" />
<path d="M575.625,1903.125 L605.625,1903.125" close="False" data-weight="1.75" stroke-width="6" fill="none" stroke="#4daf4a" />
<path d="M565.953041187105,684.6401045634026 L609.6401045634026,640.953041187105" close="False" data-weight="2.060660171779821" stroke-width="6" fill="none" stroke="#4daf4a" />
<path d="M500.625,1903.125 L530.625,1903.125" close="False" data-weight="1.75" stroke-width="6" fill="none" stroke="#4daf4a" />
<path d="M500.625,703.125 L530.625,703.125" close="False" data-weight="1.75" stroke-width="6" fill="none" stroke="#4daf4a" />
<path d="M425.625,1903.125 L455.625,1903.125" close="False" data-weight="1.75" stroke-width="6" fill="none" stroke="#4daf4a" />
<path d="M425.625,703.125 L455.625,703.125" close="False" data-weight="1.75" stroke-width="6" fill="none" stroke="#4daf4a" />
<path d="M350.625,1903.125 L380.625,1903.125" close="False" data-weight="1.75" stroke-width="6" fill="none" stroke="#4daf4a" />
<path d="M328.125,725.625 L328.125,755.625" close="False" data-weight="1.75" stroke-width="6" fill="none" stroke="#4daf4a" />
<path d="M350.625,703.125 L380.625,703.125" close="False" data-weight="1.75" stroke-width="6" fill="none" stroke="#4daf4a" />
<path d="M269.03490257669733,1844.0349025766973 L312.21509742330267,1887.2150974233027" close="False" data-weight="2.060660171779821" stroke-width="6" fill="none" stroke="#4daf4a" />
<path d="M269.03490257669733,837.2150974233027 L312.21509742330267,794.0349025766973" close="False" data-weight="2.060660171779821" stroke-width="6" fill="none" stroke="#4daf4a" />
<path d="M194.03490257669733,1769.0349025766973 L237.2150974233027,1812.2150974233027" close="False" data-weight="2.060660171779821" stroke-width="6" fill="none" stroke="#4daf4a" />
<path d="M194.03490257669733,912.2150974233027 L237.2150974233027,869.0349025766973" close="False" data-weight="2.060660171779821" stroke-width="6" fill="none" stroke="#4daf4a" />
<path d="M121.60989543659737,1690.9530411871049 L165.29695881289496,1734.6401045634025" close="False" data-weight="2.060660171779821" stroke-width="6" fill="none" stroke="#4daf4a" />
<path d="M107.125,1625.2665898254845 L107.125,1655.9834101745155" close="False" data-weight="1.75" stroke-width="6" fill="none" stroke="#4daf4a" />
<path d="M107.125,1550.2665898254845 L107.125,1580.9834101745155" close="False" data-weight="1.75" stroke-width="6" fill="none" stroke="#4daf4a" />
<path d="M107.125,1475.2665898254845 L107.125,1505.9834101745155" close="False" data-weight="1.75" stroke-width="6" fill="none" stroke="#4daf4a" />
<path d="M103.125,1400.625 L103.125,1430.625" close="False" data-weight="1.75" stroke-width="6" fill="none" stroke="#4daf4a" />
<path d="M103.125,1325.625 L103.125,1355.625" close="False" data-weight="1.75" stroke-width="6" fill="none" stroke="#4daf4a" />
<path d="M103.125,1250.625 L103.125,1280.625" close="False" data-weight="1.75" stroke-width="6" fill="none" stroke="#4daf4a" />
<path d="M103.125,1175.625 L103.125,1205.625" close="False" data-weight="1.75" stroke-width="6" fill="none" stroke="#4daf4a" />
<path d="M103.125,1100.625 L103.125,1130.625" close="False" data-weight="1.75" stroke-width="6" fill="none" stroke="#4daf4a" />
<path d="M103.125,1025.625 L103.125,1055.625" close="False" data-weight="1.75" stroke-width="6" fill="none" stroke="#4daf4a" />
<path d="M119.03490257669732,987.2150974233027 L162.2150974233027,944.0349025766973" close="False" data-weight="2.060660171779821" stroke-width="6" fill="none" stroke="#4daf4a" />
<path d="M1096.6098954365973,2215.953041187105 C1088.7816612806716,2208.1248070311794,1073.1251929688208,2192.468338719328,1065.2969588128951,2184.6401045634025" close="False" data-weight="0.0" stroke-width="6" fill="none" stroke="#377eb8" />
<path d="M1021.6098954365676,2140.953041187075 C1013.781661280657,2133.1248070311644,998.1251929688354,2117.468338719343,990.2969588129248,2109.6401045634325" close="False" data-weight="0.0" stroke-width="6" fill="none" stroke="#377eb8" />
<path d="M946.6098954365974,2065.953041187105 C938.7816612806718,2058.1248070311794,923.1251929688206,2042.4683387193284,915.296958812895,2034.6401045634027" close="False" data-weight="0.0" stroke-width="6" fill="none" stroke="#377eb8" />
<path d="M800.625,1978.125 C789.375,1978.125,766.875,1978.125,755.625,1978.125" close="False" data-weight="0.0" stroke-width="6" fill="none" stroke="#377eb8" />
<path d="M725.625,1978.125 C714.375,1978.125,691.875,1978.125,680.625,1978.125" close="False" data-weight="0.0" stroke-width="6" fill="none" stroke="#377eb8" />
<path d="M650.625,1978.125 C639.375,1978.125,616.875,1978.125,605.625,1978.125" close="False" data-weight="0.0" stroke-width="6" fill="none" stroke="#377eb8" />
<path d="M575.625,1978.125 C564.375,1978.125,541.875,1978.125,530.625,1978.125" close="False" data-weight="0.0" stroke-width="6" fill="none" stroke="#377eb8" />
<path d="M500.625,1978.125 A54.3198051533966,54.3198051533966,0,0,0,479.8377105184959,1982.259848962172 M479.8377105184959,1982.259848962172 A54.31980515339265,54.31980515339265,0,0,0,462.21509742330267,1994.0349025766973 M462.21509742330267,1994.0349025766973" close="False" data-weight="1.0" stroke-width="6" fill="none" stroke="#377eb8" />
<path d="M419.03490257669733,2037.2150974233027 C411.0799512883487,2045.1700487116514,395.1700487116513,2061.0799512883486,387.21509742330267,2069.0349025766973" close="False" data-weight="0.0" stroke-width="6" fill="none" stroke="#377eb8" />
<path d="M344.03490257669733,2112.2150974233027 C336.0799512883487,2120.1700487116514,320.1700487116513,2136.0799512883486,312.21509742330267,2144.0349025766973" close="False" data-weight="0.0" stroke-width="6" fill="none" stroke="#377eb8" />
<path d="M269.03490257669733,2187.2150974233027 C261.0799512883487,2195.1700487116514,245.1700487116513,2211.0799512883486,237.21509742330267,2219.0349025766973" close="False" data-weight="0.0" stroke-width="6" fill="none" stroke="#377eb8" />
<path d="M178.125,2180.625 C178.125,2191.875,178.125,2214.375,178.125,2225.625" close="False" data-weight="0.0" stroke-width="6" fill="none" stroke="#377eb8" />
<path d="M178.125,2105.625 C178.125,2116.875,178.125,2139.375,178.125,2150.625" close="False" data-weight="0.0" stroke-width="6" fill="none" stroke="#377eb8" />
<path d="M178.125,2030.625 C178.125,2041.875,178.125,2064.375,178.125,2075.625" close="False" data-weight="0.0" stroke-width="6" fill="none" stroke="#377eb8" />
<path d="M178.125,1955.625 C178.125,1966.875,178.125,1989.375,178.125,2000.625" close="False" data-weight="0.0" stroke-width="6" fill="none" stroke="#377eb8" />
<path d="M178.125,1880.625 C178.125,1891.875,178.125,1914.375,178.125,1925.625" close="False" data-weight="0.0" stroke-width="6" fill="none" stroke="#377eb8" />
<path d="M178.125,1805.625 C178.125,1816.875,178.125,1839.375,178.125,1850.625" close="False" data-weight="0.0" stroke-width="6" fill="none" stroke="#377eb8" />
<path d="M178.125,1775.625 A35.85816626155952,35.85816626155952,0,0,0,172.55974976608172,1756.4378343368824 M172.55974976608172,1756.4378343368824 A93.83039863692004,93.83039863692004,0,0,0,159.6401045633877,1740.2969588128801 M159.6401045633877,1740.2969588128801" close="False" data-weight="1.0" stroke-width="6" fill="none" stroke="#377eb8" />
<path d="M99.125,1580.9834101745155 C99.125,1592.0542050872577,99.125,1614.1957949127423,99.125,1625.2665898254845" close="False" data-weight="0.0" stroke-width="6" fill="none" stroke="#377eb8" />
<path d="M99.125,1505.9834101745155 C99.125,1517.0542050872577,99.125,1539.1957949127423,99.125,1550.2665898254845" close="False" data-weight="0.0" stroke-width="6" fill="none" stroke="#377eb8" />
<path d="M119.0349025766973,1437.2150974233027 A101.06381732035788,101.06381732035788,0,0,0,105.11927734672344,1454.6002787616346 M105.11927734672344,1454.6002787616346 A38.622485006499915,38.622485006499915,0,0,0,99.125,1475.2665898254845 M99.125,1475.2665898254845" close="False" data-weight="1.0" stroke-width="6" fill="none" stroke="#377eb8" />
<path d="M1232.125,2375.2665898254845 L1232.125,2405.9834101745155" close="False" data-weight="1.75" stroke-width="6" fill="none" stroke="#377eb8" />
<path d="M1175.2665898254845,2349.125 L1205.9834101745155,2349.125" close="False" data-weight="1.75" stroke-width="6" fill="none" stroke="#377eb8" />
<path d="M1157.125,2300.2665898254845 L1157.125,2330.9834101745155" close="False" data-weight="1.75" stroke-width="6" fill="none" stroke="#377eb8" />
<path d="M1096.6098954365973,2215.953041187105 L1140.2969588128951,2259.6401045634025" close="False" data-weight="2.060660171779821" stroke-width="6" fill="none" stroke="#377eb8" />
<path d="M1021.6098954365676,2140.953041187075 L1065.2969588128951,2184.6401045634025" close="False" data-weight="2.060660171779821" stroke-width="6" fill="none" stroke="#377eb8" />
<path d="M946.6098954365974,2065.953041187105 L990.2969588129248,2109.6401045634325" close="False" data-weight="2.060660171779821" stroke-width="6" fill="none" stroke="#377eb8" />
<path d="M871.6098954365974,1990.9530411871049 L915.296958812895,2034.6401045634027" close="False" data-weight="2.060660171779821" stroke-width="6" fill="none" stroke="#377eb8" />
<path d="M861.125,1924.1547408448132 L861.125,1957.0952591551868" close="False" data-weight="1.75" stroke-width="6" fill="none" stroke="#377eb8" />
<path d="M874.1547408448131,1911.125 L907.0952591551869,1911.125" close="False" data-weight="1.75" stroke-width="6" fill="none" stroke="#377eb8" />
<path d="M800.625,1978.125 L830.625,1978.125" close="False" data-weight="1.75" stroke-width="6" fill="none" stroke="#377eb8" />
<path d="M725.625,1978.125 L755.625,1978.125" close="False" data-weight="1.75" stroke-width="6" fill="none" stroke="#377eb8" />
<path d="M650.625,1978.125 L680.625,1978.125" close="False" data-weight="1.75" stroke-width="6" fill="none" stroke="#377eb8" />
<path d="M575.625,1978.125 L605.625,1978.125" close="False" data-weight="1.75" stroke-width="6" fill="none" stroke="#377eb8" />
<path d="M500.625,1978.125 L530.625,1978.125" close="False" data-weight="1.75" stroke-width="6" fill="none" stroke="#377eb8" />
<path d="M419.03490257669733,2037.2150974233027 L462.21509742330267,1994.0349025766973" close="False" data-weight="2.060660171779821" stroke-width="6" fill="none" stroke="#377eb8" />
<path d="M344.03490257669733,2112.2150974233027 L387.21509742330267,2069.0349025766973" close="False" data-weight="2.060660171779821" stroke-width="6" fill="none" stroke="#377eb8" />
<path d="M269.03490257669733,2187.2150974233027 L312.21509742330267,2144.0349025766973" close="False" data-weight="2.060660171779821" stroke-width="6" fill="none" stroke="#377eb8" />
<path d="M178.125,2375.625 L178.125,2405.625" close="False" data-weight="1.75" stroke-width="6" fill="none" stroke="#377eb8" />
<path d="M178.125,2300.625 L178.125,2330.625" close="False" data-weight="1.75" stroke-width="6" fill="none" stroke="#377eb8" />
<path d="M194.03490257669733,2262.2150974233027 L237.2150974233027,2219.0349025766973" close="False" data-weight="2.060660171779821" stroke-width="6" fill="none" stroke="#377eb8" />
<path d="M178.125,2225.625 L178.125,2255.625" close="False" data-weight="1.75" stroke-width="6" fill="none" stroke="#377eb8" />
<path d="M178.125,2150.625 L178.125,2180.625" close="False" data-weight="1.75" stroke-width="6" fill="none" stroke="#377eb8" />
<path d="M178.125,2075.625 L178.125,2105.625" close="False" data-weight="1.75" stroke-width="6" fill="none" stroke="#377eb8" />
<path d="M178.125,2000.625 L178.125,2030.625" close="False" data-weight="1.75" stroke-width="6" fill="none" stroke="#377eb8" />
<path d="M178.125,1925.625 L178.125,1955.625" close="False" data-weight="1.75" stroke-width="6" fill="none" stroke="#377eb8" />
<path d="M178.125,1850.625 L178.125,1880.625" close="False" data-weight="1.75" stroke-width="6" fill="none" stroke="#377eb8" />
<path d="M178.125,1775.625 L178.125,1805.625" close="False" data-weight="1.75" stroke-width="6" fill="none" stroke="#377eb8" />
<path d="M125.625,2353.125 L155.625,2353.125" close="False" data-weight="1.75" stroke-width="6" fill="none" stroke="#377eb8" />
<path d="M115.95304118710499,1696.6098954365973 L159.6401045634027,1740.2969588128951" close="False" data-weight="2.060660171779821" stroke-width="6" fill="none" stroke="#377eb8" />
<path d="M99.125,1625.2665898254845 L99.125,1655.9834101745155" close="False" data-weight="1.75" stroke-width="6" fill="none" stroke="#377eb8" />
<path d="M99.125,1550.2665898254845 L99.125,1580.9834101745155" close="False" data-weight="1.75" stroke-width="6" fill="none" stroke="#377eb8" />
<path d="M99.125,1475.2665898254845 L99.125,1505.9834101745155" close="False" data-weight="1.75" stroke-width="6" fill="none" stroke="#377eb8" />
<path d="M119.03490257669732,1437.2150974233027 L162.2150974233027,1394.0349025766973" close="False" data-weight="2.060660171779821" stroke-width="6" fill="none" stroke="#377eb8" />
<path d="M1903.125,725.625 A54.31980515339637,54.31980515339637,0,0,0,1898.990151037828,704.837710518496 M1898.990151037828,704.837710518496 A54.31980515339273,54.31980515339273,0,0,0,1887.2150974233027,687.2150974233027 M1887.2150974233027,687.2150974233027" close="False" data-weight="1.0" stroke-width="6" fill="none" stroke="#e41a1c" />
<path d="M1824.125,980.9834101745155 C1824.125,992.0542050872577,1824.125,1014.1957949127423,1824.125,1025.2665898254845" close="False" data-weight="0.0" stroke-width="6" fill="none" stroke="#e41a1c" />
<path d="M1824.125,905.9834101745155 C1824.125,917.0542050872577,1824.125,939.1957949127423,1824.125,950.2665898254845" close="False" data-weight="0.0" stroke-width="6" fill="none" stroke="#e41a1c" />
<path d="M1840.9530411871049,834.6401045634026 A57.45452644918669,57.45452644918669,0,0,0,1828.4984654126547,853.2796944389988 M1828.4984654126547,853.2796944389988 A57.45452644918714,57.45452644918714,0,0,0,1824.125,875.2665898254845 M1824.125,875.2665898254845" close="False" data-weight="1.0" stroke-width="6" fill="none" stroke="#e41a1c" />
<path d="M1844.0349025766973,644.0349025766973 C1836.0799512883486,636.0799512883486,1820.1700487116514,620.1700487116514,1812.2150974233027,612.2150974233027" close="False" data-weight="0.0" stroke-width="6" fill="none" stroke="#e41a1c" />
<path d="M1769.0349025766973,569.0349025766973 C1761.0799512883486,561.0799512883486,1745.1700487116514,545.1700487116514,1737.2150974233027,537.2150974233027" close="False" data-weight="0.0" stroke-width="6" fill="none" stroke="#e41a1c" />
<path d="M1694.0349025766973,494.03490257669733 C1686.0799512883486,486.0799512883487,1670.1700487116514,470.1700487116513,1662.2150974233027,462.21509742330267" close="False" data-weight="0.0" stroke-width="6" fill="none" stroke="#e41a1c" />
<path d="M1619.0349025766973,419.03490257669733 C1611.0799512883486,411.0799512883487,1595.1700487116514,395.1700487116513,1587.2150974233027,387.21509742330267" close="False" data-weight="0.0" stroke-width="6" fill="none" stroke="#e41a1c" />
<path d="M1544.0349025766973,344.03490257669733 C1536.0799512883486,336.0799512883487,1520.1700487116514,320.1700487116513,1512.2150974233027,312.21509742330267" close="False" data-weight="0.0" stroke-width="6" fill="none" stroke="#e41a1c" />
<path d="M1469.0349025766973,269.03490257669733 C1461.0799512883486,261.0799512883487,1445.1700487116514,245.1700487116513,1437.2150974233027,237.21509742330267" close="False" data-weight="0.0" stroke-width="6" fill="none" stroke="#e41a1c" />
<path d="M1325.625,178.125 C1314.375,178.125,1291.875,178.125,1280.625,178.125" close="False" data-weight="0.0" stroke-width="6" fill="none" stroke="#e41a1c" />
<path d="M1250.625,178.125 C1239.375,178.125,1216.875,178.125,1205.625,178.125" close="False" data-weight="0.0" stroke-width="6" fill="none" stroke="#e41a1c" />
<path d="M1175.625,178.125 C1164.375,178.125,1141.875,178.125,1130.625,178.125" close="False" data-weight="0.0" stroke-width="6" fill="none" stroke="#e41a1c" />
<path d="M1100.625,178.125 C1089.375,178.125,1066.875,178.125,1055.625,178.125" close="False" data-weight="0.0" stroke-width="6" fill="none" stroke="#e41a1c" />
<path d="M1025.625,178.125 A54.31980515339484,54.31980515339484,0,0,0,1004.8377105184961,182.25984896217216 M1004.8377105184961,182.25984896217216 A54.3198051533943,54.3198051533943,0,0,0,987.2150974233027,194.03490257669736 M987.2150974233027,194.03490257669736" close="False" data-weight="1.0" stroke-width="6" fill="none" stroke="#e41a1c" />
<path d="M944.0349025766973,237.2150974233027 C936.0799512883486,245.17004871165133,920.1700487116514,261.0799512883487,912.2150974233027,269.03490257669733" close="False" data-weight="0.0" stroke-width="6" fill="none" stroke="#e41a1c" />
<path d="M869.0349025766973,312.21509742330267 C861.0799512883486,320.1700487116513,845.1700487116514,336.0799512883487,837.2150974233027,344.03490257669733" close="False" data-weight="0.0" stroke-width="6" fill="none" stroke="#e41a1c" />
<path d="M721.6098954365937,540.2969588128988 C713.781661280669,548.1251929688234,698.1251929688196,563.7816612806728,690.296958812895,571.6098954365974" close="False" data-weight="0.0" stroke-width="6" fill="none" stroke="#e41a1c" />
<path d="M646.6098954365974,615.296958812895 C638.7816612806718,623.1251929688207,623.1251929688207,638.7816612806718,615.296958812895,646.6098954365974" close="False" data-weight="0.0" stroke-width="6" fill="none" stroke="#e41a1c" />
<path d="M571.6098954365974,690.296958812895 C563.6866867625761,698.2201674869164,545.1383060973241,711.1116939026759,537.2150974233027,719.0349025766973" close="False" data-weight="0.0" stroke-width="6" fill="none" stroke="#e41a1c" />
<path d="M494.03490257669733,762.2150974233027 C486.0799512883487,770.1700487116514,470.1700487116513,786.0799512883486,462.21509742330267,794.0349025766973" close="False" data-weight="0.0" stroke-width="6" fill="none" stroke="#e41a1c" />
<path d="M419.03490257669733,837.2150974233027 C411.0799512883487,845.1700487116514,395.1700487116513,861.0799512883486,387.21509742330267,869.0349025766973" close="False" data-weight="0.0" stroke-width="6" fill="none" stroke="#e41a1c" />
<path d="M344.03490257669733,912.2150974233027 C336.0799512883487,920.1700487116514,320.1700487116513,936.0799512883486,312.21509742330267,944.0349025766973" close="False" data-weight="0.0" stroke-width="6" fill="none" stroke="#e41a1c" />
<path d="M269.03490257669733,987.2150974233027 C261.0799512883487,995.1700487116514,245.1700487116513,1011.0799512883486,237.21509742330267,1019.0349025766973" close="False" data-weight="0.0" stroke-width="6" fill="none" stroke="#e41a1c" />
<path d="M178.125,1280.625 C178.125,1291.875,178.125,1314.375,178.125,1325.625" close="False" data-weight="0.0" stroke-width="6" fill="none" stroke="#e41a1c" />
<path d="M178.125,1205.625 C178.125,1216.875,178.125,1239.375,178.125,1250.625" close="False" data-weight="0.0" stroke-width="6" fill="none" stroke="#e41a1c" />
<path d="M178.125,1130.625 C178.125,1141.875,178.125,1164.375,178.125,1175.625" close="False" data-weight="0.0" stroke-width="6" fill="none" stroke="#e41a1c" />
<path d="M194.0349025766973,1062.2150974233027 A54.3198051533952,54.3198051533952,0,0,0,182.2598489621722,1079.837710518496 M182.2598489621722,1079.837710518496 A54.319805153393986,54.319805153393986,0,0,0,178.125,1100.625 M178.125,1100.625" close="False" data-weight="1.0" stroke-width="6" fill="none" stroke="#e41a1c" />
<path d="M1903.125,725.625 L1903.125,755.625" close="False" data-weight="1.75" stroke-width="6" fill="none" stroke="#e41a1c" />
<path d="M1824.125,1025.2665898254845 L1824.125,1055.9834101745155" close="False" data-weight="1.75" stroke-width="6" fill="none" stroke="#e41a1c" />
<path d="M1824.125,950.2665898254845 L1824.125,980.9834101745155" close="False" data-weight="1.75" stroke-width="6" fill="none" stroke="#e41a1c" />
<path d="M1824.125,875.2665898254845 L1824.125,905.9834101745155" close="False" data-weight="1.75" stroke-width="6" fill="none" stroke="#e41a1c" />
<path d="M1840.9530411871049,834.6401045634026 L1884.6401045634027,790.953041187105" close="False" data-weight="2.060660171779821" stroke-width="6" fill="none" stroke="#e41a1c" />
<path d="M1844.0349025766973,644.0349025766973 L1887.2150974233027,687.2150974233027" close="False" data-weight="2.060660171779821" stroke-width="6" fill="none" stroke="#e41a1c" />
<path d="M1775.2665898254845,1074.125 L1805.9834101745155,1074.125" close="False" data-weight="1.75" stroke-width="6" fill="none" stroke="#e41a1c" />
<path d="M1769.0349025766973,569.0349025766973 L1812.2150974233027,612.2150974233027" close="False" data-weight="2.060660171779821" stroke-width="6" fill="none" stroke="#e41a1c" />
<path d="M1694.0349025766973,494.03490257669733 L1737.2150974233027,537.2150974233027" close="False" data-weight="2.060660171779821" stroke-width="6" fill="none" stroke="#e41a1c" />
<path d="M1619.0349025766973,419.03490257669733 L1662.2150974233027,462.21509742330267" close="False" data-weight="2.060660171779821" stroke-width="6" fill="none" stroke="#e41a1c" />
<path d="M1544.0349025766973,344.03490257669733 L1587.2150974233027,387.21509742330267" close="False" data-weight="2.060660171779821" stroke-width="6" fill="none" stroke="#e41a1c" />
<path d="M1469.0349025766973,269.03490257669733 L1512.2150974233027,312.21509742330267" close="False" data-weight="2.060660171779821" stroke-width="6" fill="none" stroke="#e41a1c" />
<path d="M1394.0349025766973,194.03490257669733 L1437.2150974233027,237.2150974233027" close="False" data-weight="2.060660171779821" stroke-width="6" fill="none" stroke="#e41a1c" />
<path d="M1378.125,125.625 L1378.125,155.625" close="False" data-weight="1.75" stroke-width="6" fill="none" stroke="#e41a1c" />
<path d="M1325.625,178.125 L1355.625,178.125" close="False" data-weight="1.75" stroke-width="6" fill="none" stroke="#e41a1c" />
<path d="M1250.625,178.125 L1280.625,178.125" close="False" data-weight="1.75" stroke-width="6" fill="none" stroke="#e41a1c" />
<path d="M1175.625,178.125 L1205.625,178.125" close="False" data-weight="1.75" stroke-width="6" fill="none" stroke="#e41a1c" />
<path d="M1100.625,178.125 L1130.625,178.125" close="False" data-weight="1.75" stroke-width="6" fill="none" stroke="#e41a1c" />
<path d="M1025.625,178.125 L1055.625,178.125" close="False" data-weight="1.75" stroke-width="6" fill="none" stroke="#e41a1c" />
<path d="M944.0349025766973,237.21509742330267 L987.2150974233027,194.0349025766973" close="False" data-weight="2.060660171779821" stroke-width="6" fill="none" stroke="#e41a1c" />
<path d="M869.0349025766973,312.21509742330267 L912.2150974233027,269.03490257669733" close="False" data-weight="2.060660171779821" stroke-width="6" fill="none" stroke="#e41a1c" />
<path d="M782.125,425.2665898254845 L782.125,455.9834101745155" close="False" data-weight="1.75" stroke-width="6" fill="none" stroke="#e41a1c" />
<path d="M794.0349025766973,387.21509742330267 L837.2150974233027,344.03490257669733" close="False" data-weight="2.060660171779821" stroke-width="6" fill="none" stroke="#e41a1c" />
<path d="M721.6098954365974,540.296958812895 L765.296958812895,496.6098954365974" close="False" data-weight="2.060660171779821" stroke-width="6" fill="none" stroke="#e41a1c" />
<path d="M646.6098954365974,615.296958812895 L690.296958812895,571.6098954365974" close="False" data-weight="2.060660171779821" stroke-width="6" fill="none" stroke="#e41a1c" />
<path d="M571.6098954365974,690.296958812895 L615.296958812895,646.6098954365974" close="False" data-weight="2.060660171779821" stroke-width="6" fill="none" stroke="#e41a1c" />
<path d="M494.03490257669733,762.2150974233027 L537.2150974233027,719.0349025766973" close="False" data-weight="2.060660171779821" stroke-width="6" fill="none" stroke="#e41a1c" />
<path d="M419.03490257669733,837.2150974233027 L462.21509742330267,794.0349025766973" close="False" data-weight="2.060660171779821" stroke-width="6" fill="none" stroke="#e41a1c" />
<path d="M344.03490257669733,912.2150974233027 L387.21509742330267,869.0349025766973" close="False" data-weight="2.060660171779821" stroke-width="6" fill="none" stroke="#e41a1c" />
<path d="M269.03490257669733,987.2150974233027 L312.21509742330267,944.0349025766973" close="False" data-weight="2.060660171779821" stroke-width="6" fill="none" stroke="#e41a1c" />
<path d="M178.125,1325.625 L178.125,1355.625" close="False" data-weight="1.75" stroke-width="6" fill="none" stroke="#e41a1c" />
<path d="M178.125,1250.625 L178.125,1280.625" close="False" data-weight="1.75" stroke-width="6" fill="none" stroke="#e41a1c" />
<path d="M178.125,1175.625 L178.125,1205.625" close="False" data-weight="1.75" stroke-width="6" fill="none" stroke="#e41a1c" />
<path d="M178.125,1100.625 L178.125,1130.625" close="False" data-weight="1.75" stroke-width="6" fill="none" stroke="#e41a1c" />
<path d="M194.03490257669733,1062.2150974233027 L237.2150974233027,1019.0349025766973" close="False" data-weight="2.060660171779821" stroke-width="6" fill="none" stroke="#e41a1c" />
<image x="2395.625" y="1645.625" width="65" height="65" xlink:href="designspace-test/./img/ds_dataset1_40_21_thumb.png">
<title>21</title>
</image>
<image x="2395.625" y="1120.625" width="65" height="65" xlink:href="designspace-test/./img/ds_dataset1_40_37_thumb.png">
<title>37</title>
</image>
<image x="2320.625" y="1570.625" width="65" height="65" xlink:href="designspace-test/./img/ds_dataset1_40_27_thumb.png">
<title>27</title>
</image>
<image x="2095.625" y="2320.625" width="65" height="65" xlink:href="designspace-test/./img/ds_dataset1_40_39_thumb.png">
<title>39</title>
</image>
<image x="2095.625" y="2245.625" width="65" height="65" xlink:href="designspace-test/./img/ds_dataset1_40_30_thumb.png">
<title>30</title>
</image>
<image x="2095.625" y="2170.625" width="65" height="65" xlink:href="designspace-test/./img/ds_dataset1_40_25_thumb.png">
<title>25</title>
</image>
<image x="2095.625" y="2095.625" width="65" height="65" xlink:href="designspace-test/./img/ds_dataset1_40_13_thumb.png">
<title>13</title>
</image>
<image x="2095.625" y="2020.625" width="65" height="65" xlink:href="designspace-test/./img/ds_dataset1_40_11_thumb.png">
<title>11</title>
</image>
<image x="2020.625" y="2395.625" width="65" height="65" xlink:href="designspace-test/./img/ds_dataset1_40_33_thumb.png">
<title>33</title>
</image>
<image x="2020.625" y="2320.625" width="65" height="65" xlink:href="designspace-test/./img/ds_dataset1_40_31_thumb.png">
<title>31</title>
</image>
<image x="2020.625" y="2245.625" width="65" height="65" xlink:href="designspace-test/./img/ds_dataset1_40_24_thumb.png">
<title>24</title>
</image>
<image x="2020.625" y="2170.625" width="65" height="65" xlink:href="designspace-test/./img/ds_dataset1_40_17_thumb.png">
<title>17</title>
</image>
<image x="2020.625" y="2095.625" width="65" height="65" xlink:href="designspace-test/./img/ds_dataset1_40_10_thumb.png">
<title>10</title>
</image>
<image x="2020.625" y="2020.625" width="65" height="65" xlink:href="designspace-test/./img/ds_dataset1_40_9_thumb.png">
<title>9</title>
</image>
<image x="1945.625" y="2245.625" width="65" height="65" xlink:href="designspace-test/./img/ds_dataset1_40_16_thumb.png">
<title>16</title>
</image>
<image x="1945.625" y="2170.625" width="65" height="65" xlink:href="designspace-test/./img/ds_dataset1_40_14_thumb.png">
<title>14</title>
</image>
<image x="1870.625" y="745.625" width="65" height="65" xlink:href="designspace-test/./img/ds_dataset1_40_19_thumb.png">
<title>19</title>
</image>
<image x="1795.625" y="1045.625" width="65" height="65" xlink:href="designspace-test/./img/ds_dataset1_40_32_thumb.png">
<title>32</title>
</image>
<image x="1720.625" y="1045.625" width="65" height="65" xlink:href="designspace-test/./img/ds_dataset1_40_4_thumb.png">
<title>4</title>
</image>
<image x="1345.625" y="145.625" width="65" height="65" xlink:href="designspace-test/./img/ds_dataset1_40_2_thumb.png">
<title>2</title>
</image>
<image x="1345.625" y="70.625" width="65" height="65" xlink:href="designspace-test/./img/ds_dataset1_40_12_thumb.png">
<title>12</title>
</image>
<image x="1270.625" y="1495.625" width="65" height="65" xlink:href="designspace-test/./img/ds_dataset1_40_1_thumb.png">
<title>1</title>
</image>
<image x="1270.625" y="1420.625" width="65" height="65" xlink:href="designspace-test/./img/ds_dataset1_40_36_thumb.png">
<title>36</title>
</image>
<image x="1195.625" y="2395.625" width="65" height="65" xlink:href="designspace-test/./img/ds_dataset1_40_6_thumb.png">
<title>6</title>
</image>
<image x="1195.625" y="2320.625" width="65" height="65" xlink:href="designspace-test/./img/ds_dataset1_40_8_thumb.png">
<title>8</title>
</image>
<image x="1120.625" y="2320.625" width="65" height="65" xlink:href="designspace-test/./img/ds_dataset1_40_15_thumb.png">
<title>15</title>
</image>
<image x="1120.625" y="2245.625" width="65" height="65" xlink:href="designspace-test/./img/ds_dataset1_40_26_thumb.png">
<title>26</title>
</image>
<image x="895.625" y="1870.625" width="65" height="65" xlink:href="designspace-test/./img/ds_dataset1_40_29_thumb.png">
<title>29</title>
</image>
<image x="820.625" y="1945.625" width="65" height="65" xlink:href="designspace-test/./img/ds_dataset1_40_28_thumb.png">
<title>28</title>
</image>
<image x="820.625" y="1870.625" width="65" height="65" xlink:href="designspace-test/./img/ds_dataset1_40_3_thumb.png">
<title>3</title>
</image>
<image x="745.625" y="445.625" width="65" height="65" xlink:href="designspace-test/./img/ds_dataset1_40_38_thumb.png">
<title>38</title>
</image>
<image x="745.625" y="370.625" width="65" height="65" xlink:href="designspace-test/./img/ds_dataset1_40_22_thumb.png">
<title>22</title>
</image>
<image x="295.625" y="745.625" width="65" height="65" xlink:href="designspace-test/./img/ds_dataset1_40_23_thumb.png">
<title>23</title>
</image>
<image x="295.625" y="670.625" width="65" height="65" xlink:href="designspace-test/./img/ds_dataset1_40_35_thumb.png">
<title>35</title>
</image>
<image x="145.625" y="2395.625" width="65" height="65" xlink:href="designspace-test/./img/ds_dataset1_40_34_thumb.png">
<title>34</title>
</image>
<image x="145.625" y="2320.625" width="65" height="65" xlink:href="designspace-test/./img/ds_dataset1_40_7_thumb.png">
<title>7</title>
</image>
<image x="145.625" y="2245.625" width="65" height="65" xlink:href="designspace-test/./img/ds_dataset1_40_0_thumb.png">
<title>0</title>
</image>
<image x="145.625" y="1345.625" width="65" height="65" xlink:href="designspace-test/./img/ds_dataset1_40_18_thumb.png">
<title>18</title>
</image>
<image x="70.625" y="2320.625" width="65" height="65" xlink:href="designspace-test/./img/ds_dataset1_40_5_thumb.png">
<title>5</title>
</image>
<image x="70.625" y="1645.625" width="65" height="65" xlink:href="designspace-test/./img/ds_dataset1_40_20_thumb.png">
<title>20</title>
</image>
</svg>