<?xml version="1.0" encoding="UTF-8"?>
<svg xmlns="http://www.w3.org/2000/svg" xmlns:xlink="http://www.w3.org/1999/xlink"
     width="2550" height="2550" viewBox="0 0 2550 2550">
<defs>
</defs>
<path d="M2428.125,1130.625 A54.31980515339728,54.31980515339728,0,0,1,2423.9901510378277,1151.412289481504 M2423.9901510378277,1151.412289481504 A54.319805153387826,54.319805153387826,0,0,1,2412.2150974233027,1169.0349025766973 M2412.2150974233027,1169.0349025766973" close="False" data-weight="1.0" stroke-width="6" fill="none" stroke="#ffff33" />
<path d="M2428.125,1055.625 C2428.125,1066.875,2428.125,1089.375,2428.125,1100.625" close="False" data-weight="0.0" stroke-width="6" fill="none" stroke="#ffff33" />
<path d="M2428.125,980.625 C2428.125,991.875,2428.125,1014.375,2428.125,1025.625" close="False" data-weight="0.0" stroke-width="6" fill="none" stroke="#ffff33" />
<path d="M2428.125,905.625 C2428.125,916.875,2428.125,939.375,2428.125,950.625" close="False" data-weight="0.0" stroke-width="6" fill="none" stroke="#ffff33" />
<path d="M2428.125,830.625 C2428.125,841.875,2428.125,864.375,2428.125,875.625" close="False" data-weight="0.0" stroke-width="6" fill="none" stroke="#ffff33" />
<path d="M2428.125,755.625 C2428.125,766.875,2428.125,789.375,2428.125,800.625" close="False" data-weight="0.0" stroke-width="6" fill="none" stroke="#ffff33" />
<path d="M2428.125,680.625 C2428.125,691.875,2428.125,714.375,2428.125,725.625" close="False" data-weight="0.0" stroke-width="6" fill="none" stroke="#ffff33" />
<path d="M2369.0349025766973,1212.2150974233027 C2361.0799512883486,1220.1700487116514,2345.1700487116514,1236.0799512883486,2337.2150974233027,1244.0349025766973" close="False" data-weight="0.0" stroke-width="6" fill="none" stroke="#ffff33" />
<path d="M2369.0349025766973,569.0349025766973 C2361.0799512883486,561.0799512883486,2345.1700487116514,545.1700487116514,2337.2150974233027,537.2150974233027" close="False" data-weight="0.0" stroke-width="6" fill="none" stroke="#ffff33" />
<path d="M2294.0349025766973,494.03490257669733 C2286.0799512883486,486.0799512883487,2270.1700487116514,470.1700487116513,2262.2150974233027,462.21509742330267" close="False" data-weight="0.0" stroke-width="6" fill="none" stroke="#ffff33" />
<path d="M2219.0349025766973,419.03490257669733 C2211.0799512883486,411.0799512883487,2195.1700487116514,395.1700487116513,2187.2150974233027,387.21509742330267" close="False" data-weight="0.0" stroke-width="6" fill="none" stroke="#ffff33" />
<path d="M2144.0349025766973,344.03490257669733 A54.31980515340254,54.31980515340254,0,0,0,2126.4122894815036,332.2598489621721 M2126.4122894815036,332.2598489621721 A54.31980515339063,54.31980515339063,0,0,0,2105.625,328.125 M2105.625,328.125" close="False" data-weight="1.0" stroke-width="6" fill="none" stroke="#ffff33" />
<path d="M2075.625,328.125 C2064.375,328.125,2041.875,328.125,2030.625,328.125" close="False" data-weight="0.0" stroke-width="6" fill="none" stroke="#ffff33" />
<path d="M2000.625,328.125 C1989.375,328.125,1966.875,328.125,1955.625,328.125" close="False" data-weight="0.0" stroke-width="6" fill="none" stroke="#ffff33" />
<path d="M1925.625,328.125 C1914.375,328.125,1891.875,328.125,1880.625,328.125" close="False" data-weight="0.0" stroke-width="6" fill="none" stroke="#ffff33" />
<path d="M1850.625,328.125 C1839.375,328.125,1816.875,328.125,1805.625,328.125" close="False" data-weight="0.0" stroke-width="6" fill="none" stroke="#ffff33" />
<path d="M1775.625,328.125 C1764.375,328.125,1741.875,328.125,1730.625,328.125" close="False" data-weight="0.0" stroke-width="6" fill="none" stroke="#ffff33" />
<path d="M1700.625,328.125 C1689.375,328.125,1666.875,328.125,1655.625,328.125" close="False" data-weight="0.0" stroke-width="6" fill="none" stroke="#ffff33" />
<path d="M1625.625,328.125 C1614.375,328.125,1591.875,328.125,1580.625,328.125" close="False" data-weight="0.0" stroke-width="6" fill="none" stroke="#ffff33" />
<path d="M1550.625,328.125 C1539.375,328.125,1516.875,328.125,1505.625,328.125" close="False" data-weight="0.0" stroke-width="6" fill="none" stroke="#ffff33" />
<path d="M2428.125,1100.625 L2428.125,1130.625" close="False" data-weight="1.75" stroke-width="6" fill="none" stroke="#ffff33" />
<path d="M2428.125,1025.625 L2428.125,1055.625" close="False" data-weight="1.75" stroke-width="6" fill="none" stroke="#ffff33" />
<path d="M2428.125,950.625 L2428.125,980.625" close="False" data-weight="1.75" stroke-width="6" fill="none" stroke="#ffff33" />
<path d="M2428.125,875.625 L2428.125,905.625" close="False" data-weight="1.75" stroke-width="6" fill="none" stroke="#ffff33" />
<path d="M2428.125,800.625 L2428.125,830.625" close="False" data-weight="1.75" stroke-width="6" fill="none" stroke="#ffff33" />
<path d="M2428.125,725.625 L2428.125,755.625" close="False" data-weight="1.75" stroke-width="6" fill="none" stroke="#ffff33" />
<path d="M2428.125,650.625 L2428.125,680.625" close="False" data-weight="1.75" stroke-width="6" fill="none" stroke="#ffff33" />
<path d="M2369.0349025766973,1212.2150974233027 L2412.2150974233027,1169.0349025766973" close="False" data-weight="2.060660171779821" stroke-width="6" fill="none" stroke="#ffff33" />
<path d="M2369.0349025766973,569.0349025766973 L2412.2150974233027,612.2150974233027" close="False" data-weight="2.060660171779821" stroke-width="6" fill="none" stroke="#ffff33" />
<path d="M2294.0349025766973,1287.2150974233027 L2337.2150974233027,1244.0349025766973" close="False" data-weight="2.060660171779821" stroke-width="6" fill="none" stroke="#ffff33" />
<path d="M2294.0349025766973,494.03490257669733 L2337.2150974233027,537.2150974233027" close="False" data-weight="2.060660171779821" stroke-width="6" fill="none" stroke="#ffff33" />
<path d="M2219.0349025766973,419.03490257669733 L2262.2150974233027,462.21509742330267" close="False" data-weight="2.060660171779821" stroke-width="6" fill="none" stroke="#ffff33" />
<path d="M2144.0349025766973,344.03490257669733 L2187.2150974233027,387.21509742330267" close="False" data-weight="2.060660171779821" stroke-width="6" fill="none" stroke="#ffff33" />
<path d="M2075.625,328.125 L2105.625,328.125" close="False" data-weight="1.75" stroke-width="6" fill="none" stroke="#ffff33" />
<path d="M2000.625,328.125 L2030.625,328.125" close="False" data-weight="1.75" stroke-width="6" fill="none" stroke="#ffff33" />
<path d="M1925.625,328.125 L1955.625,328.125" close="False" data-weight="1.75" stroke-width="6" fill="none" stroke="#ffff33" />
<path d="M1850.625,328.125 L1880.625,328.125" close="False" data-weight="1.75" stroke-width="6" fill="none" stroke="#ffff33" />
<path d="M1775.625,328.125 L1805.625,328.125" close="False" data-weight="1.75" stroke-width="6" fill="none" stroke="#ffff33" />
<path d="M1700.625,328.125 L1730.625,328.125" close="False" data-weight="1.75" stroke-width="6" fill="none" stroke="#ffff33" />
<path d="M1625.625,328.125 L1655.625,328.125" close="False" data-weight="1.75" stroke-width="6" fill="none" stroke="#ffff33" />
<path d="M1550.625,328.125 L1580.625,328.125" close="False" data-weight="1.75" stroke-width="6" fill="none" stroke="#ffff33" />
<path d="M1475.625,328.125 L1505.625,328.125" close="False" data-weight="1.75" stroke-width="6" fill="none" stroke="#ffff33" />
<path d="M2274.125,1505.9834101745155 A49.45452644918532,49.45452644918532,0,0,1,2270.360498327255,1524.9088381020804 M2270.360498327255,1524.9088381020804 A49.45452644918831,49.45452644918831,0,0,1,2259.6401045634025,1540.9530411871049 M2259.6401045634025,1540.9530411871049" close="False" data-weight="1.0" stroke-width="6" fill="none" stroke="#984ea3" />
<path d="M2274.125,1430.9834101745155 C2274.125,1442.0542050872577,2274.125,1464.1957949127423,2274.125,1475.2665898254845" close="False" data-weight="0.0" stroke-width="6" fill="none" stroke="#984ea3" />
<path d="M2274.125,1355.9834101745155 C2274.125,1367.0542050872577,2274.125,1389.1957949127423,2274.125,1400.2665898254845" close="False" data-weight="0.0" stroke-width="6" fill="none" stroke="#984ea3" />
<path d="M2215.953041187105,1584.6401045634027 C2208.1248070311794,1592.4683387193284,2192.468338719328,1608.1248070311792,2184.6401045634025,1615.9530411871049" close="False" data-weight="0.0" stroke-width="6" fill="none" stroke="#984ea3" />
<path d="M2274.125,1475.2665898254845 L2274.125,1505.9834101745155" close="False" data-weight="1.75" stroke-width="6" fill="none" stroke="#984ea3" />
<path d="M2274.125,1400.2665898254845 L2274.125,1430.9834101745155" close="False" data-weight="1.75" stroke-width="6" fill="none" stroke="#984ea3" />
<path d="M2274.125,1325.2665898254845 L2274.125,1355.9834101745155" close="False" data-weight="1.75" stroke-width="6" fill="none" stroke="#984ea3" />
<path d="M2215.953041187105,1584.6401045634027 L2259.6401045634025,1540.9530411871049" close="False" data-weight="2.060660171779821" stroke-width="6" fill="none" stroke="#984ea3" />
<path d="M2140.953041187105,1659.6401045634027 L2184.6401045634025,1615.9530411871049" close="False" data-weight="2.060660171779821" stroke-width="6" fill="none" stroke="#984ea3" />
<path d="M2369.0349025766973,687.2150974233027 C2361.0799512883486,695.1700487116514,2345.1700487116514,711.0799512883486,2337.2150974233027,719.0349025766973" close="False" data-weight="0.0" stroke-width="6" fill="none" stroke="#ff7f00" />
<path d="M2375.625,628.125 C2364.375,628.125,2341.875,628.125,2330.625,628.125" close="False" data-weight="0.0" stroke-width="6" fill="none" stroke="#ff7f00" />
<path d="M2282.125,1505.9834101745155 A57.454526449181685,57.454526449181685,0,0,1,2277.751534587345,1527.970305561001 M2277.751534587345,1527.970305561001 A57.45452644919593,57.45452644919593,0,0,1,2265.296958812895,1546.6098954365973 M2265.296958812895,1546.6098954365973" close="False" data-weight="1.0" stroke-width="6" fill="none" stroke="#ff7f00" />
<path d="M2282.125,1430.9834101745155 C2282.125,1442.0542050872577,2282.125,1464.1957949127423,2282.125,1475.2665898254845" close="False" data-weight="0.0" stroke-width="6" fill="none" stroke="#ff7f00" />
<path d="M2282.125,1355.9834101745155 C2282.125,1367.0542050872577,2282.125,1389.1957949127423,2282.125,1400.2665898254845" close="False" data-weight="0.0" stroke-width="6" fill="none" stroke="#ff7f00" />
<path d="M2278.125,1205.625 C2278.125,1216.875,2278.125,1239.375,2278.125,1250.625" close="False" data-weight="0.0" stroke-width="6" fill="none" stroke="#ff7f00" />
<path d="M2278.125,1130.625 C2278.125,1141.875,2278.125,1164.375,2278.125,1175.625" close="False" data-weight="0.0" stroke-width="6" fill="none" stroke="#ff7f00" />
<path d="M2294.0349025766973,1062.2150974233027 A54.319805153391044,54.319805153391044,0,0,0,2282.259848962172,1079.8377105184957 M2282.259848962172,1079.8377105184957 A54.3198051533941,54.3198051533941,0,0,0,2278.125,1100.625 M2278.125,1100.625" close="False" data-weight="1.0" stroke-width="6" fill="none" stroke="#ff7f00" />
<path d="M2278.125,830.625 C2278.125,841.875,2278.125,864.375,2278.125,875.625" close="False" data-weight="0.0" stroke-width="6" fill="none" stroke="#ff7f00" />
<path d="M2294.0349025766973,762.2150974233027 A54.319805153391684,54.319805153391684,0,0,0,2282.259848962172,779.8377105184959 M2282.259848962172,779.8377105184959 A54.319805153393645,54.319805153393645,0,0,0,2278.125,800.625 M2278.125,800.625" close="False" data-weight="1.0" stroke-width="6" fill="none" stroke="#ff7f00" />
<path d="M2300.625,628.125 A54.31980515339296,54.31980515339296,0,0,0,2279.8377105184964,632.2598489621722 M2279.8377105184964,632.2598489621722 A54.31980515340005,54.31980515340005,0,0,0,2262.2150974233027,644.0349025766973 M2262.2150974233027,644.0349025766973" close="False" data-weight="1.0" stroke-width="6" fill="none" stroke="#ff7f00" />
<path d="M2221.6098954365975,1590.2969588128951 C2213.781661280672,1598.1251929688208,2198.1251929688206,1613.7816612806716,2190.296958812895,1621.6098954365973" close="False" data-weight="0.0" stroke-width="6" fill="none" stroke="#ff7f00" />
<path d="M2203.125,905.625 C2203.125,916.875,2203.125,939.375,2203.125,950.625" close="False" data-weight="0.0" stroke-width="6" fill="none" stroke="#ff7f00" />
<path d="M2203.125,755.625 C2203.125,766.875,2203.125,789.375,2203.125,800.625" close="False" data-weight="0.0" stroke-width="6" fill="none" stroke="#ff7f00" />
<path d="M2124.125,1730.9834101745155 C2124.125,1742.0542050872577,2124.125,1764.1957949127423,2124.125,1775.2665898254845" close="False" data-weight="0.0" stroke-width="6" fill="none" stroke="#ff7f00" />
<path d="M2075.625,1828.125 C2064.375,1828.125,2041.875,1828.125,2030.625,1828.125" close="False" data-weight="0.0" stroke-width="6" fill="none" stroke="#ff7f00" />
<path d="M2075.625,1003.125 C2064.375,1003.125,2041.875,1003.125,2030.625,1003.125" close="False" data-weight="0.0" stroke-width="6" fill="none" stroke="#ff7f00" />
<path d="M2000.625,1828.125 C1989.375,1828.125,1966.875,1828.125,1955.625,1828.125" close="False" data-weight="0.0" stroke-width="6" fill="none" stroke="#ff7f00" />
<path d="M2000.625,1003.125 A54.31980515339296,54.31980515339296,0,0,0,1979.837710518496,1007.2598489621724 M1979.837710518496,1007.2598489621724 A54.31980515339619,54.31980515339619,0,0,0,1962.2150974233027,1019.0349025766973 M1962.2150974233027,1019.0349025766973" close="False" data-weight="1.0" stroke-width="6" fill="none" stroke="#ff7f00" />
<path d="M1978.125,830.625 C1978.125,841.875,1978.125,864.375,1978.125,875.625" close="False" data-weight="0.0" stroke-width="6" fill="none" stroke="#ff7f00" />
<path d="M1925.625,1828.125 C1914.375,1828.125,1891.875,1828.125,1880.625,1828.125" close="False" data-weight="0.0" stroke-width="6" fill="none" stroke="#ff7f00" />
<path d="M1919.0349025766973,987.2150974233027 A54.31980515339554,54.31980515339554,0,0,0,1907.259848962172,1004.837710518496 M1907.259848962172,1004.837710518496 A54.319805153393645,54.319805153393645,0,0,0,1903.125,1025.625 M1903.125,1025.625" close="False" data-weight="1.0" stroke-width="6" fill="none" stroke="#ff7f00" />
<path d="M1850.625,1828.125 C1839.375,1828.125,1816.875,1828.125,1805.625,1828.125" close="False" data-weight="0.0" stroke-width="6" fill="none" stroke="#ff7f00" />
<path d="M1775.625,1828.125 C1764.375,1828.125,1741.875,1828.125,1730.625,1828.125" close="False" data-weight="0.0" stroke-width="6" fill="none" stroke="#ff7f00" />
<path d="M1753.125,650.625 A54.31980515339637,54.31980515339637,0,0,0,1748.990151037828,629.837710518496 M1748.990151037828,629.837710518496 A54.31980515339273,54.31980515339273,0,0,0,1737.2150974233027,612.2150974233027 M1737.2150974233027,612.2150974233027" close="False" data-weight="1.0" stroke-width="6" fill="none" stroke="#ff7f00" />
<path d="M1700.625,1828.125 C1689.375,1828.125,1666.875,1828.125,1655.625,1828.125" close="False" data-weight="0.0" stroke-width="6" fill="none" stroke="#ff7f00" />
<path d="M1694.0349025766973,569.0349025766973 C1686.0799512883486,561.0799512883486,1670.1700487116514,545.1700487116514,1662.2150974233027,537.2150974233027" close="False" data-weight="0.0" stroke-width="6" fill="none" stroke="#ff7f00" />
<path d="M1625.625,1828.125 C1614.375,1828.125,1591.875,1828.125,1580.625,1828.125" close="False" data-weight="0.0" stroke-width="6" fill="none" stroke="#ff7f00" />
<path d="M1619.0349025766973,494.03490257669733 C1611.0799512883486,486.0799512883487,1595.1700487116514,470.1700487116513,1587.2150974233027,462.21509742330267" close="False" data-weight="0.0" stroke-width="6" fill="none" stroke="#ff7f00" />
<path d="M1550.625,1828.125 C1539.375,1828.125,1516.875,1828.125,1505.625,1828.125" close="False" data-weight="0.0" stroke-width="6" fill="none" stroke="#ff7f00" />
<path d="M1544.0349025766973,1169.0349025766973 A54.3198051533949,54.3198051533949,0,0,0,1526.412289481504,1157.2598489621723 M1526.412289481504,1157.2598489621723 A54.3198051533941,54.3198051533941,0,0,0,1505.625,1153.125 M1505.625,1153.125" close="False" data-weight="1.0" stroke-width="6" fill="none" stroke="#ff7f00" />
<path d="M1544.0349025766973,419.03490257669733 C1536.0799512883486,411.0799512883487,1520.1700487116514,395.1700487116513,1512.2150974233027,387.21509742330267" close="False" data-weight="0.0" stroke-width="6" fill="none" stroke="#ff7f00" />
<path d="M1475.625,1828.125 C1464.375,1828.125,1441.875,1828.125,1430.625,1828.125" close="False" data-weight="0.0" stroke-width="6" fill="none" stroke="#ff7f00" />
<path d="M1471.6098954365825,1365.29695881291 C1463.7816612806607,1373.1251929688317,1448.125192968817,1388.7816612806755,1440.2969588128951,1396.6098954365973" close="False" data-weight="0.0" stroke-width="6" fill="none" stroke="#ff7f00" />
<path d="M1475.625,1153.125 C1464.375,1153.125,1441.875,1153.125,1430.625,1153.125" close="False" data-weight="0.0" stroke-width="6" fill="none" stroke="#ff7f00" />
<path d="M1396.6098954365973,1440.2969588128951 C1388.7816612806716,1448.1251929688208,1373.1251929688208,1463.7816612806716,1365.2969588128951,1471.6098954365973" close="False" data-weight="0.0" stroke-width="6" fill="none" stroke="#ff7f00" />
<path d="M1400.625,1153.125 C1389.4198908356868,1153.125,1367.1885193388287,1149.125,1355.9834101745155,1149.125" close="False" data-weight="0.0" stroke-width="6" fill="none" stroke="#ff7f00" />
<path d="M1325.625,1828.125 C1314.375,1828.125,1291.875,1828.125,1280.625,1828.125" close="False" data-weight="0.0" stroke-width="6" fill="none" stroke="#ff7f00" />
<path d="M1321.6098954365973,1515.2969588128951 C1313.7816612806716,1523.1251929688208,1298.1251929688208,1538.7816612806716,1290.2969588128951,1546.6098954365973" close="False" data-weight="0.0" stroke-width="6" fill="none" stroke="#ff7f00" />
<path d="M1307.125,1100.2665898254845 A57.45452644918714,57.45452644918714,0,0,0,1302.7515345873453,1078.2796944389988 M1302.7515345873453,1078.2796944389988 A57.454526449186446,57.454526449186446,0,0,0,1290.2969588128951,1059.6401045634027 M1290.2969588128951,1059.6401045634027" close="False" data-weight="1.0" stroke-width="6" fill="none" stroke="#ff7f00" />
<path d="M1250.625,1828.125 A54.31980515339569,54.31980515339569,0,0,1,1229.837710518496,1823.9901510378277 M1229.837710518496,1823.9901510378277 A54.3198051533933,54.3198051533933,0,0,1,1212.2150974233027,1812.2150974233027 M1212.2150974233027,1812.2150974233027" close="False" data-weight="1.0" stroke-width="6" fill="none" stroke="#ff7f00" />
<path d="M1246.6098954365973,1590.2969588128951 C1238.7816612806755,1598.125192968817,1223.1251929688317,1613.7816612806607,1215.29695881291,1621.6098954365825" close="False" data-weight="0.0" stroke-width="6" fill="none" stroke="#ff7f00" />
<path d="M1169.0349025766973,1769.0349025766973 C1161.0799512883486,1761.0799512883486,1145.1700487116514,1745.1700487116514,1137.2150974233027,1737.2150974233027" close="False" data-weight="0.0" stroke-width="6" fill="none" stroke="#ff7f00" />
<path d="M1171.6098954365973,1665.2969588128951 A57.45452644918516,57.45452644918516,0,0,1,1152.9703055610012,1677.7515345873453 M1152.9703055610012,1677.7515345873453 A57.45452644918828,57.45452644918828,0,0,1,1130.9834101745155,1682.125 M1130.9834101745155,1682.125" close="False" data-weight="1.0" stroke-width="6" fill="none" stroke="#ff7f00" />
<path d="M1175.625,928.125 C1164.375,928.125,1141.875,928.125,1130.625,928.125" close="False" data-weight="0.0" stroke-width="6" fill="none" stroke="#ff7f00" />
<path d="M1100.625,928.125 C1089.375,928.125,1066.875,928.125,1055.625,928.125" close="False" data-weight="0.0" stroke-width="6" fill="none" stroke="#ff7f00" />
<path d="M1025.625,928.125 C1014.375,928.125,991.875,928.125,980.625,928.125" close="False" data-weight="0.0" stroke-width="6" fill="none" stroke="#ff7f00" />
<path d="M950.625,928.125 A35.858166261560655,35.858166261560655,0,0,1,931.4378343368905,922.5597497660872 M931.4378343368905,922.5597497660872 A93.8303986367466,93.8303986367466,0,0,1,915.296958812895,909.6401045634026 M915.296958812895,909.6401045634026" close="False" data-weight="1.0" stroke-width="6" fill="none" stroke="#ff7f00" />
<path d="M871.6098954365974,865.953041187105 C863.7816612806718,858.1248070311793,848.1251929688207,842.4683387193282,840.296958812895,834.6401045634026" close="False" data-weight="0.0" stroke-width="6" fill="none" stroke="#ff7f00" />
<path d="M719.0349025766973,837.2150974233027 C711.0799512883486,845.1700487116514,695.1700487116514,861.0799512883486,687.2150974233027,869.0349025766973" close="False" data-weight="0.0" stroke-width="6" fill="none" stroke="#ff7f00" />
<path d="M644.0349025766973,912.2150974233027 A54.3198051533949,54.3198051533949,0,0,1,626.4122894815039,923.9901510378279 M626.4122894815039,923.9901510378279 A54.31980515339421,54.31980515339421,0,0,1,605.625,928.125 M605.625,928.125" close="False" data-weight="1.0" stroke-width="6" fill="none" stroke="#ff7f00" />
<path d="M496.6098954365974,865.953041187105 A57.454526449186766,57.454526449186766,0,0,0,477.97030556100117,853.4984654126547 M477.97030556100117,853.4984654126547 A57.45452644918703,57.45452644918703,0,0,0,455.9834101745155,849.125 M455.9834101745155,849.125" close="False" data-weight="1.0" stroke-width="6" fill="none" stroke="#ff7f00" />
<path d="M421.6098954365974,765.296958812895 A49.45452644918767,49.45452644918767,0,0,0,410.889501672745,781.3411618979196 M410.889501672745,781.3411618979196 A49.454526449186176,49.454526449186176,0,0,0,407.125,800.2665898254845 M407.125,800.2665898254845" close="False" data-weight="1.0" stroke-width="6" fill="none" stroke="#ff7f00" />
<path d="M2369.0349025766973,687.2150974233027 L2412.2150974233027,644.0349025766973" close="False" data-weight="2.060660171779821" stroke-width="6" fill="none" stroke="#ff7f00" />
<path d="M2375.625,628.125 L2405.625,628.125" close="False" data-weight="1.75" stroke-width="6" fill="none" stroke="#ff7f00" />
<path d="M2282.125,1475.2665898254845 L2282.125,1505.9834101745155" close="False" data-weight="1.75" stroke-width="6" fill="none" stroke="#ff7f00" />
<path d="M2282.125,1400.2665898254845 L2282.125,1430.9834101745155" close="False" data-weight="1.75" stroke-width="6" fill="none" stroke="#ff7f00" />
<path d="M2282.125,1325.2665898254845 L2282.125,1355.9834101745155" close="False" data-weight="1.75" stroke-width="6" fill="none" stroke="#ff7f00" />
<path d="M2278.125,1250.625 L2278.125,1280.625" close="False" data-weight="1.75" stroke-width="6" fill="none" stroke="#ff7f00" />
<path d="M2278.125,1175.625 L2278.125,1205.625" close="False" data-weight="1.75" stroke-width="6" fill="none" stroke="#ff7f00" />
<path d="M2278.125,1100.625 L2278.125,1130.625" close="False" data-weight="1.75" stroke-width="6" fill="none" stroke="#ff7f00" />
<path d="M2294.0349025766973,1062.2150974233027 L2337.2150974233027,1019.0349025766973" close="False" data-weight="2.060660171779821" stroke-width="6" fill="none" stroke="#ff7f00" />
<path d="M2294.0349025766973,944.0349025766973 L2337.2150974233027,987.2150974233027" close="False" data-weight="2.060660171779821" stroke-width="6" fill="none" stroke="#ff7f00" />
<path d="M2278.125,875.625 L2278.125,905.625" close="False" data-weight="1.75" stroke-width="6" fill="none" stroke="#ff7f00" />
<path d="M2278.125,800.625 L2278.125,830.625" close="False" data-weight="1.75" stroke-width="6" fill="none" stroke="#ff7f00" />
<path d="M2294.0349025766973,762.2150974233027 L2337.2150974233027,719.0349025766973" close="False" data-weight="2.060660171779821" stroke-width="6" fill="none" stroke="#ff7f00" />
<path d="M2300.625,628.125 L2330.625,628.125" close="False" data-weight="1.75" stroke-width="6" fill="none" stroke="#ff7f00" />
<path d="M2221.6098954365975,1590.2969588128951 L2265.296958812895,1546.6098954365973" close="False" data-weight="2.060660171779821" stroke-width="6" fill="none" stroke="#ff7f00" />
<path d="M2203.125,950.625 L2203.125,980.625" close="False" data-weight="1.75" stroke-width="6" fill="none" stroke="#ff7f00" />
<path d="M2203.125,875.625 L2203.125,905.625" close="False" data-weight="1.75" stroke-width="6" fill="none" stroke="#ff7f00" />
<path d="M2203.125,800.625 L2203.125,830.625" close="False" data-weight="1.75" stroke-width="6" fill="none" stroke="#ff7f00" />
<path d="M2203.125,725.625 L2203.125,755.625" close="False" data-weight="1.75" stroke-width="6" fill="none" stroke="#ff7f00" />
<path d="M2219.0349025766973,687.2150974233027 L2262.2150974233027,644.0349025766973" close="False" data-weight="2.060660171779821" stroke-width="6" fill="none" stroke="#ff7f00" />
<path d="M2124.125,1775.2665898254845 L2124.125,1805.9834101745155" close="False" data-weight="1.75" stroke-width="6" fill="none" stroke="#ff7f00" />
<path d="M2124.125,1700.2665898254845 L2124.125,1730.9834101745155" close="False" data-weight="1.75" stroke-width="6" fill="none" stroke="#ff7f00" />
<path d="M2146.6098954365975,1665.2969588128951 L2190.296958812895,1621.6098954365973" close="False" data-weight="2.060660171779821" stroke-width="6" fill="none" stroke="#ff7f00" />
<path d="M2150.625,1003.125 L2180.625,1003.125" close="False" data-weight="1.75" stroke-width="6" fill="none" stroke="#ff7f00" />
<path d="M2075.625,1828.125 L2105.625,1828.125" close="False" data-weight="1.75" stroke-width="6" fill="none" stroke="#ff7f00" />
<path d="M2075.625,1003.125 L2105.625,1003.125" close="False" data-weight="1.75" stroke-width="6" fill="none" stroke="#ff7f00" />
<path d="M2000.625,1828.125 L2030.625,1828.125" close="False" data-weight="1.75" stroke-width="6" fill="none" stroke="#ff7f00" />
<path d="M2000.625,1003.125 L2030.625,1003.125" close="False" data-weight="1.75" stroke-width="6" fill="none" stroke="#ff7f00" />
<path d="M1978.125,875.625 L1978.125,905.625" close="False" data-weight="1.75" stroke-width="6" fill="none" stroke="#ff7f00" />
<path d="M1978.125,800.625 L1978.125,830.625" close="False" data-weight="1.75" stroke-width="6" fill="none" stroke="#ff7f00" />
<path d="M1925.625,1828.125 L1955.625,1828.125" close="False" data-weight="1.75" stroke-width="6" fill="none" stroke="#ff7f00" />
<path d="M1919.0349025766973,1062.2150974233027 L1962.2150974233027,1019.0349025766973" close="False" data-weight="2.060660171779821" stroke-width="6" fill="none" stroke="#ff7f00" />
<path d="M1903.125,1025.625 L1903.125,1055.625" close="False" data-weight="1.75" stroke-width="6" fill="none" stroke="#ff7f00" />
<path d="M1919.0349025766973,987.2150974233027 L1962.2150974233027,944.0349025766973" close="False" data-weight="2.060660171779821" stroke-width="6" fill="none" stroke="#ff7f00" />
<path d="M1925.625,778.125 L1955.625,778.125" close="False" data-weight="1.75" stroke-width="6" fill="none" stroke="#ff7f00" />
<path d="M1850.625,1828.125 L1880.625,1828.125" close="False" data-weight="1.75" stroke-width="6" fill="none" stroke="#ff7f00" />
<path d="M1844.0349025766973,719.0349025766973 L1887.2150974233027,762.2150974233027" close="False" data-weight="2.060660171779821" stroke-width="6" fill="none" stroke="#ff7f00" />
<path d="M1775.625,1828.125 L1805.625,1828.125" close="False" data-weight="1.75" stroke-width="6" fill="none" stroke="#ff7f00" />
<path d="M1775.625,703.125 L1805.625,703.125" close="False" data-weight="1.75" stroke-width="6" fill="none" stroke="#ff7f00" />
<path d="M1753.125,650.625 L1753.125,680.625" close="False" data-weight="1.75" stroke-width="6" fill="none" stroke="#ff7f00" />
<path d="M1700.625,1828.125 L1730.625,1828.125" close="False" data-weight="1.75" stroke-width="6" fill="none" stroke="#ff7f00" />
<path d="M1694.0349025766973,569.0349025766973 L1737.2150974233027,612.2150974233027" close="False" data-weight="2.060660171779821" stroke-width="6" fill="none" stroke="#ff7f00" />
<path d="M1625.625,1828.125 L1655.625,1828.125" close="False" data-weight="1.75" stroke-width="6" fill="none" stroke="#ff7f00" />
<path d="M1619.0349025766973,494.03490257669733 L1662.2150974233027,537.2150974233027" close="False" data-weight="2.060660171779821" stroke-width="6" fill="none" stroke="#ff7f00" />
<path d="M1550.625,1828.125 L1580.625,1828.125" close="False" data-weight="1.75" stroke-width="6" fill="none" stroke="#ff7f00" />
<path d="M1544.0349025766973,1287.2150974233027 L1587.2150974233027,1244.0349025766973" close="False" data-weight="2.060660171779821" stroke-width="6" fill="none" stroke="#ff7f00" />
<path d="M1544.0349025766973,1169.0349025766973 L1587.2150974233027,1212.2150974233027" close="False" data-weight="2.060660171779821" stroke-width="6" fill="none" stroke="#ff7f00" />
<path d="M1544.0349025766973,419.03490257669733 L1587.2150974233027,462.21509742330267" close="False" data-weight="2.060660171779821" stroke-width="6" fill="none" stroke="#ff7f00" />
<path d="M1475.625,1828.125 L1505.625,1828.125" close="False" data-weight="1.75" stroke-width="6" fill="none" stroke="#ff7f00" />
<path d="M1471.6098954365973,1365.2969588128951 L1515.2969588128951,1321.6098954365973" close="False" data-weight="2.060660171779821" stroke-width="6" fill="none" stroke="#ff7f00" />
<path d="M1475.625,1153.125 L1505.625,1153.125" close="False" data-weight="1.75" stroke-width="6" fill="none" stroke="#ff7f00" />
<path d="M1469.0349025766973,344.03490257669733 L1512.2150974233027,387.21509742330267" close="False" data-weight="2.060660171779821" stroke-width="6" fill="none" stroke="#ff7f00" />
<path d="M1400.625,1828.125 L1430.625,1828.125" close="False" data-weight="1.75" stroke-width="6" fill="none" stroke="#ff7f00" />
<path d="M1396.6098954365973,1440.2969588128951 L1440.2969588128951,1396.6098954365973" close="False" data-weight="2.060660171779821" stroke-width="6" fill="none" stroke="#ff7f00" />
<path d="M1400.625,1153.125 L1430.625,1153.125" close="False" data-weight="1.75" stroke-width="6" fill="none" stroke="#ff7f00" />
<path d="M1325.625,1828.125 L1355.625,1828.125" close="False" data-weight="1.75" stroke-width="6" fill="none" stroke="#ff7f00" />
<path d="M1321.6098954365825,1515.29695881291 L1365.29695881291,1471.6098954365825" close="False" data-weight="2.060660171779821" stroke-width="6" fill="none" stroke="#ff7f00" />
<path d="M1325.2665898254845,1149.125 L1355.9834101745155,1149.125" close="False" data-weight="1.75" stroke-width="6" fill="none" stroke="#ff7f00" />
<path d="M1307.125,1100.2665898254845 L1307.125,1130.9834101745155" close="False" data-weight="1.75" stroke-width="6" fill="none" stroke="#ff7f00" />
<path d="M1250.625,1828.125 L1280.625,1828.125" close="False" data-weight="1.75" stroke-width="6" fill="none" stroke="#ff7f00" />
<path d="M1246.6098954365973,1590.2969588128951 L1290.2969588128951,1546.6098954365973" close="False" data-weight="2.060660171779821" stroke-width="6" fill="none" stroke="#ff7f00" />
<path d="M1246.6098954365973,1015.953041187105 L1290.2969588128951,1059.6401045634027" close="False" data-weight="2.060660171779821" stroke-width="6" fill="none" stroke="#ff7f00" />
<path d="M1236.125,949.1547408448131 L1236.125,982.0952591551869" close="False" data-weight="1.75" stroke-width="6" fill="none" stroke="#ff7f00" />
<path d="M1169.0349025766973,1769.0349025766973 L1212.2150974233027,1812.2150974233027" close="False" data-weight="2.060660171779821" stroke-width="6" fill="none" stroke="#ff7f00" />
<path d="M1171.6098954366123,1665.2969588128801 L1215.2969588128951,1621.6098954365973" close="False" data-weight="2.060660171779821" stroke-width="6" fill="none" stroke="#ff7f00" />
<path d="M1175.625,928.125 L1205.625,928.125" close="False" data-weight="1.75" stroke-width="6" fill="none" stroke="#ff7f00" />
<path d="M1094.0349025766973,1694.0349025766973 L1137.2150974233027,1737.2150974233027" close="False" data-weight="2.060660171779821" stroke-width="6" fill="none" stroke="#ff7f00" />
<path d="M1100.2665898254845,1682.125 L1130.9834101745155,1682.125" close="False" data-weight="1.75" stroke-width="6" fill="none" stroke="#ff7f00" />
<path d="M1100.625,928.125 L1130.625,928.125" close="False" data-weight="1.75" stroke-width="6" fill="none" stroke="#ff7f00" />
<path d="M1025.625,928.125 L1055.625,928.125" close="False" data-weight="1.75" stroke-width="6" fill="none" stroke="#ff7f00" />
<path d="M950.625,928.125 L980.625,928.125" close="False" data-weight="1.75" stroke-width="6" fill="none" stroke="#ff7f00" />
<path d="M871.6098954365974,865.953041187105 L915.296958812895,909.6401045634026" close="False" data-weight="2.060660171779821" stroke-width="6" fill="none" stroke="#ff7f00" />
<path d="M796.6098954365974,790.953041187105 L840.296958812895,834.6401045634026" close="False" data-weight="2.060660171779821" stroke-width="6" fill="none" stroke="#ff7f00" />
<path d="M719.0349025766973,837.2150974233027 L762.2150974233027,794.0349025766973" close="False" data-weight="2.060660171779821" stroke-width="6" fill="none" stroke="#ff7f00" />
<path d="M644.0349025766973,912.2150974233027 L687.2150974233027,869.0349025766973" close="False" data-weight="2.060660171779821" stroke-width="6" fill="none" stroke="#ff7f00" />
<path d="M575.625,928.125 L605.625,928.125" close="False" data-weight="1.75" stroke-width="6" fill="none" stroke="#ff7f00" />
<path d="M496.6098954365974,865.953041187105 L540.296958812895,909.6401045634026" close="False" data-weight="2.060660171779821" stroke-width="6" fill="none" stroke="#ff7f00" />
<path d="M425.2665898254845,849.125 L455.9834101745155,849.125" close="False" data-weight="1.75" stroke-width="6" fill="none" stroke="#ff7f00" />
<path d="M407.125,800.2665898254845 L407.125,830.9834101745155" close="False" data-weight="1.75" stroke-width="6" fill="none" stroke="#ff7f00" />
<path d="M421.6098954365974,765.296958812895 L465.296958812895,721.6098954365974" close="False" data-weight="2.060660171779821" stroke-width="6" fill="none" stroke="#ff7f00" />
<path d="M1475.2665898254845,2432.125 A57.454526449181685,57.454526449181685,0,0,1,1453.279694438999,2427.751534587345 M1453.279694438999,2427.751534587345 A57.45452644919593,57.45452644919593,0,0,1,1434.6401045634027,2415.296958812895 M1434.6401045634027,2415.296958812895" close="False" data-weight="1.0" stroke-width="6" fill="none" stroke="#4daf4a" />
<path d="M1465.9530411871199,1359.6401045633877 C1458.1248070311906,1367.468338719317,1442.468338719332,1383.1248070311756,1434.6401045634027,1390.9530411871049" close="False" data-weight="0.0" stroke-width="6" fill="none" stroke="#4daf4a" />
<path d="M1469.0349025766973,1244.0349025766973 C1461.0799512883486,1236.0799512883486,1445.1700487116514,1220.1700487116514,1437.2150974233027,1212.2150974233027" close="False" data-weight="0.0" stroke-width="6" fill="none" stroke="#4daf4a" />
<path d="M1390.9530411871049,2371.6098954365975 C1383.1248070311867,2363.7816612806796,1367.4683387193504,2348.1251929688433,1359.6401045634323,2340.296958812925" close="False" data-weight="0.0" stroke-width="6" fill="none" stroke="#4daf4a" />
<path d="M1390.9530411871049,1434.6401045634027 C1383.1248070311792,1442.4683387193284,1367.4683387193284,1458.1248070311792,1359.6401045634027,1465.9530411871049" close="False" data-weight="0.0" stroke-width="6" fill="none" stroke="#4daf4a" />
<path d="M1394.0349025766973,1169.0349025766973 A35.85816626156032,35.85816626156032,0,0,0,1376.5323014451633,1159.4027538039627 M1376.5323014451633,1159.4027538039627 A93.83039863674753,93.83039863674753,0,0,0,1355.9834101745155,1157.125 M1355.9834101745155,1157.125" close="False" data-weight="1.0" stroke-width="6" fill="none" stroke="#4daf4a" />
<path d="M1315.9530411871049,1509.6401045634027 C1308.1248070311792,1517.4683387193284,1292.4683387193284,1533.1248070311792,1284.6401045634027,1540.9530411871049" close="False" data-weight="0.0" stroke-width="6" fill="none" stroke="#4daf4a" />
<path d="M1299.125,1100.2665898254845 A49.45452644918828,49.45452644918828,0,0,0,1295.360498327255,1081.3411618979196 M1295.360498327255,1081.3411618979196 A49.454526449185096,49.454526449185096,0,0,0,1284.6401045634027,1065.2969588128951 M1284.6401045634027,1065.2969588128951" close="False" data-weight="1.0" stroke-width="6" fill="none" stroke="#4daf4a" />
<path d="M1250.625,2278.125 C1239.375,2278.125,1216.875,2278.125,1205.625,2278.125" close="False" data-weight="0.0" stroke-width="6" fill="none" stroke="#4daf4a" />
<path d="M1240.9530411871049,1584.6401045634027 C1233.1248070311756,1592.468338719332,1217.468338719317,1608.1248070311906,1209.6401045633877,1615.9530411871199" close="False" data-weight="0.0" stroke-width="6" fill="none" stroke="#4daf4a" />
<path d="M1175.625,2278.125 A54.31980515339728,54.31980515339728,0,0,1,1154.837710518496,2273.9901510378277 M1154.837710518496,2273.9901510378277 A54.319805153387826,54.319805153387826,0,0,1,1137.2150974233027,2262.2150974233027 M1137.2150974233027,2262.2150974233027" close="False" data-weight="1.0" stroke-width="6" fill="none" stroke="#4daf4a" />
<path d="M1165.9530411871049,1659.6401045634027 A49.45452644918799,49.45452644918799,0,0,1,1149.9088381020804,1670.360498327255 M1149.9088381020804,1670.360498327255 A49.45452644918555,49.45452644918555,0,0,1,1130.9834101745155,1674.125 M1130.9834101745155,1674.125" close="False" data-weight="1.0" stroke-width="6" fill="none" stroke="#4daf4a" />
<path d="M1078.125,2105.625 C1078.125,2116.875,1078.125,2139.375,1078.125,2150.625" close="False" data-weight="0.0" stroke-width="6" fill="none" stroke="#4daf4a" />
<path d="M1078.125,2075.625 A54.31980515339853,54.31980515339853,0,0,0,1073.990151037828,2054.837710518496 M1073.990151037828,2054.837710518496 A54.31980515339072,54.31980515339072,0,0,0,1062.2150974233027,2037.2150974233027 M1062.2150974233027,2037.2150974233027" close="False" data-weight="1.0" stroke-width="6" fill="none" stroke="#4daf4a" />
<path d="M1019.0349025766973,1737.2150974233027 C1011.0799512883486,1745.1700487116514,995.1700487116514,1761.0799512883486,987.2150974233027,1769.0349025766973" close="False" data-weight="0.0" stroke-width="6" fill="none" stroke="#4daf4a" />
<path d="M950.625,1978.125 C939.375,1978.125,916.875,1978.125,905.625,1978.125" close="False" data-weight="0.0" stroke-width="6" fill="none" stroke="#4daf4a" />
<path d="M944.0349025766973,1812.2150974233027 C936.0799512883486,1820.1700487116514,920.1700487116514,1836.0799512883486,912.2150974233027,1844.0349025766973" close="False" data-weight="0.0" stroke-width="6" fill="none" stroke="#4daf4a" />
<path d="M875.625,1978.125 C864.375,1978.125,841.875,1978.125,830.625,1978.125" close="False" data-weight="0.0" stroke-width="6" fill="none" stroke="#4daf4a" />
<path d="M869.0349025766973,1887.2150974233027 A54.31980515339554,54.31980515339554,0,0,1,851.412289481504,1898.990151037828 M851.412289481504,1898.990151037828 A54.319805153393645,54.319805153393645,0,0,1,830.625,1903.125 M830.625,1903.125" close="False" data-weight="1.0" stroke-width="6" fill="none" stroke="#4daf4a" />
<path d="M800.625,1978.125 C789.375,1978.125,766.875,1978.125,755.625,1978.125" close="False" data-weight="0.0" stroke-width="6" fill="none" stroke="#4daf4a" />
<path d="M800.625,1903.125 C789.375,1903.125,766.875,1903.125,755.625,1903.125" close="False" data-weight="0.0" stroke-width="6" fill="none" stroke="#4daf4a" />
<path d="M725.625,1978.125 C714.375,1978.125,691.875,1978.125,680.625,1978.125" close="False" data-weight="0.0" stroke-width="6" fill="none" stroke="#4daf4a" />
<path d="M725.625,1903.125 C714.375,1903.125,691.875,1903.125,680.625,1903.125" close="False" data-weight="0.0" stroke-width="6" fill="none" stroke="#4daf4a" />
<path d="M650.625,1978.125 A35.85816626156043,35.85816626156043,0,0,1,631.4378343368907,1972.5597497660872 M631.4378343368907,1972.5597497660872 A93.8303986367404,93.8303986367404,0,0,1,615.296958812895,1959.6401045634027 M615.296958812895,1959.6401045634027" close="False" data-weight="1.0" stroke-width="6" fill="none" stroke="#4daf4a" />
<path d="M650.625,1903.125 C639.375,1903.125,616.875,1903.125,605.625,1903.125" close="False" data-weight="0.0" stroke-width="6" fill="none" stroke="#4daf4a" />
<path d="M1475.2665898254845,2432.125 L1505.9834101745155,2432.125" close="False" data-weight="1.75" stroke-width="6" fill="none" stroke="#4daf4a" />
<path d="M1465.9530411871049,1359.6401045634027 L1509.6401045634027,1315.9530411871049" close="False" data-weight="2.060660171779821" stroke-width="6" fill="none" stroke="#4daf4a" />
<path d="M1469.0349025766973,1244.0349025766973 L1512.2150974233027,1287.2150974233027" close="False" data-weight="2.060660171779821" stroke-width="6" fill="none" stroke="#4daf4a" />
<path d="M1390.9530411870753,2371.6098954365675 L1434.6401045634323,2415.296958812925" close="False" data-weight="2.060660171779821" stroke-width="6" fill="none" stroke="#4daf4a" />
<path d="M1390.9530411871049,1434.6401045634027 L1434.6401045634027,1390.9530411871049" close="False" data-weight="2.060660171779821" stroke-width="6" fill="none" stroke="#4daf4a" />
<path d="M1394.0349025766973,1169.0349025766973 L1437.2150974233027,1212.2150974233027" close="False" data-weight="2.060660171779821" stroke-width="6" fill="none" stroke="#4daf4a" />
<path d="M1315.9530411871049,2296.6098954365975 L1359.6401045634323,2340.296958812925" close="False" data-weight="2.060660171779821" stroke-width="6" fill="none" stroke="#4daf4a" />
<path d="M1315.9530411871199,1509.6401045633877 L1359.6401045633877,1465.9530411871199" close="False" data-weight="2.060660171779821" stroke-width="6" fill="none" stroke="#4daf4a" />
<path d="M1325.2665898254845,1157.125 L1355.9834101745155,1157.125" close="False" data-weight="1.75" stroke-width="6" fill="none" stroke="#4daf4a" />
<path d="M1299.125,1100.2665898254845 L1299.125,1130.9834101745155" close="False" data-weight="1.75" stroke-width="6" fill="none" stroke="#4daf4a" />
<path d="M1250.625,2278.125 L1280.625,2278.125" close="False" data-weight="1.75" stroke-width="6" fill="none" stroke="#4daf4a" />
<path d="M1240.9530411871049,1584.6401045634027 L1284.6401045634027,1540.9530411871049" close="False" data-weight="2.060660171779821" stroke-width="6" fill="none" stroke="#4daf4a" />
<path d="M1240.9530411871049,1021.6098954365974 L1284.6401045634027,1065.2969588128951" close="False" data-weight="2.060660171779821" stroke-width="6" fill="none" stroke="#4daf4a" />
<path d="M1228.125,950.625 L1228.125,980.625" close="False" data-weight="1.75" stroke-width="6" fill="none" stroke="#4daf4a" />
<path d="M1175.625,2278.125 L1205.625,2278.125" close="False" data-weight="1.75" stroke-width="6" fill="none" stroke="#4daf4a" />
<path d="M1165.95304118709,1659.6401045634175 L1209.6401045634027,1615.9530411871049" close="False" data-weight="2.060660171779821" stroke-width="6" fill="none" stroke="#4daf4a" />
<path d="M1094.0349025766973,2219.0349025766973 L1137.2150974233027,2262.2150974233027" close="False" data-weight="2.060660171779821" stroke-width="6" fill="none" stroke="#4daf4a" />
<path d="M1078.125,2150.625 L1078.125,2180.625" close="False" data-weight="1.75" stroke-width="6" fill="none" stroke="#4daf4a" />
<path d="M1078.125,2075.625 L1078.125,2105.625" close="False" data-weight="1.75" stroke-width="6" fill="none" stroke="#4daf4a" />
<path d="M1100.2665898254845,1674.125 L1130.9834101745155,1674.125" close="False" data-weight="1.75" stroke-width="6" fill="none" stroke="#4daf4a" />
<path d="M1019.0349025766973,1994.0349025766973 L1062.2150974233027,2037.2150974233027" close="False" data-weight="2.060660171779821" stroke-width="6" fill="none" stroke="#4daf4a" />
<path d="M1019.0349025766973,1737.2150974233027 L1062.2150974233027,1694.0349025766973" close="False" data-weight="2.060660171779821" stroke-width="6" fill="none" stroke="#4daf4a" />
<path d="M950.625,1978.125 L980.625,1978.125" close="False" data-weight="1.75" stroke-width="6" fill="none" stroke="#4daf4a" />
<path d="M944.0349025766973,1812.2150974233027 L987.2150974233027,1769.0349025766973" close="False" data-weight="2.060660171779821" stroke-width="6" fill="none" stroke="#4daf4a" />
<path d="M875.625,1978.125 L905.625,1978.125" close="False" data-weight="1.75" stroke-width="6" fill="none" stroke="#4daf4a" />
<path d="M869.0349025766973,1887.2150974233027 L912.2150974233027,1844.0349025766973" close="False" data-weight="2.060660171779821" stroke-width="6" fill="none" stroke="#4daf4a" />
<path d="M800.625,1978.125 L830.625,1978.125" close="False" data-weight="1.75" stroke-width="6" fill="none" stroke="#4daf4a" />
<path d="M800.625,1903.125 L830.625,1903.125" close="False" data-weight="1.75" stroke-width="6" fill="none" stroke="#4daf4a" />
<path d="M725.625,1978.125 L755.625,1978.125" close="False" data-weight="1.75" stroke-width="6" fill="none" stroke="#4daf4a" />
<path d="M725.625,1903.125 L755.625,1903.125" close="False" data-weight="1.75" stroke-width="6" fill="none" stroke="#4daf4a" />
<path d="M650.625,1978.125 L680.625,1978.125" close="False" data-weight="1.75" stroke-width="6" fill="none" stroke="#4daf4a" />
<path d="M650.625,1903.125 L680.625,1903.125" close="False" data-weight="1.75" stroke-width="6" fill="none" stroke="#4daf4a" />
<path d="M571.6098954365974,1915.9530411871049 L615.2969588128801,1959.6401045633877" close="False" data-weight="2.060660171779821" stroke-width="6" fill="none" stroke="#4daf4a" />
<path d="M575.625,1903.125 L605.625,1903.125" close="False" data-weight="1.75" stroke-width="6" fill="none" stroke="#4daf4a" />
<path d="M1175.625,1003.125 C1164.375,1003.125,1141.875,1003.125,1130.625,1003.125" close="False" data-weight="0.0" stroke-width="6" fill="none" stroke="#377eb8" />
<path d="M1169.0349025766973,869.0349025766973 C1161.0799512883486,861.0799512883486,1145.1700487116514,845.1700487116514,1137.2150974233027,837.2150974233027" close="False" data-weight="0.0" stroke-width="6" fill="none" stroke="#377eb8" />
<path d="M1078.125,1805.625 A54.31980515339569,54.31980515339569,0,0,1,1073.9901510378277,1826.412289481504 M1073.9901510378277,1826.412289481504 A54.319805153393375,54.319805153393375,0,0,1,1062.2150974233027,1844.0349025766973 M1062.2150974233027,1844.0349025766973" close="False" data-weight="1.0" stroke-width="6" fill="none" stroke="#377eb8" />
<path d="M1078.125,1730.625 C1078.125,1741.875,1078.125,1764.375,1078.125,1775.625" close="False" data-weight="0.0" stroke-width="6" fill="none" stroke="#377eb8" />
<path d="M1100.625,1003.125 C1089.375,1003.125,1066.875,1003.125,1055.625,1003.125" close="False" data-weight="0.0" stroke-width="6" fill="none" stroke="#377eb8" />
<path d="M1078.125,755.625 A54.31980515339637,54.31980515339637,0,0,0,1082.259848962172,776.412289481504 M1082.259848962172,776.412289481504 A54.31980515339273,54.31980515339273,0,0,0,1094.0349025766973,794.0349025766973 M1094.0349025766973,794.0349025766973" close="False" data-weight="1.0" stroke-width="6" fill="none" stroke="#377eb8" />
<path d="M1078.125,680.625 C1078.125,691.875,1078.125,714.375,1078.125,725.625" close="False" data-weight="0.0" stroke-width="6" fill="none" stroke="#377eb8" />
<path d="M1078.125,605.625 C1078.125,616.875,1078.125,639.375,1078.125,650.625" close="False" data-weight="0.0" stroke-width="6" fill="none" stroke="#377eb8" />
<path d="M1078.125,530.625 C1078.125,541.875,1078.125,564.375,1078.125,575.625" close="False" data-weight="0.0" stroke-width="6" fill="none" stroke="#377eb8" />
<path d="M1078.125,455.625 C1078.125,466.875,1078.125,489.375,1078.125,500.625" close="False" data-weight="0.0" stroke-width="6" fill="none" stroke="#377eb8" />
<path d="M1078.125,380.625 C1078.125,391.875,1078.125,414.375,1078.125,425.625" close="False" data-weight="0.0" stroke-width="6" fill="none" stroke="#377eb8" />
<path d="M1078.125,305.625 C1078.125,316.875,1078.125,339.375,1078.125,350.625" close="False" data-weight="0.0" stroke-width="6" fill="none" stroke="#377eb8" />
<path d="M1078.125,230.625 C1078.125,241.875,1078.125,264.375,1078.125,275.625" close="False" data-weight="0.0" stroke-width="6" fill="none" stroke="#377eb8" />
<path d="M1019.0349025766973,1887.2150974233027 C1011.0799512883486,1895.1700487116514,995.1700487116514,1911.0799512883486,987.2150974233027,1919.0349025766973" close="False" data-weight="0.0" stroke-width="6" fill="none" stroke="#377eb8" />
<path d="M1025.625,1003.125 A54.31980515339478,54.31980515339478,0,0,1,1004.8377105184961,998.9901510378278 M1004.8377105184961,998.9901510378278 A54.319805153394256,54.319805153394256,0,0,1,987.2150974233027,987.2150974233027 M987.2150974233027,987.2150974233027" close="False" data-weight="1.0" stroke-width="6" fill="none" stroke="#377eb8" />
<path d="M944.0349025766973,1962.2150974233027 C936.0799512883486,1970.1700487116514,920.1700487116514,1986.0799512883486,912.2150974233027,1994.0349025766973" close="False" data-weight="0.0" stroke-width="6" fill="none" stroke="#377eb8" />
<path d="M944.0349025766973,944.0349025766973 C936.1116939026759,936.1116939026759,917.5633132374239,923.2201674869164,909.6401045634026,915.296958812895" close="False" data-weight="0.0" stroke-width="6" fill="none" stroke="#377eb8" />
<path d="M869.0349025766973,2037.2150974233027 C861.0799512883486,2045.1700487116514,845.1700487116514,2061.0799512883486,837.2150974233027,2069.0349025766973" close="False" data-weight="0.0" stroke-width="6" fill="none" stroke="#377eb8" />
<path d="M865.953041187105,871.6098954365974 C858.1248070311793,863.7816612806718,842.4683387193282,848.1251929688207,834.6401045634026,840.296958812895" close="False" data-weight="0.0" stroke-width="6" fill="none" stroke="#377eb8" />
<path d="M719.0349025766973,2069.0349025766973 C711.0799512883486,2061.0799512883486,695.1700487116514,2045.1700487116514,687.2150974233027,2037.2150974233027" close="False" data-weight="0.0" stroke-width="6" fill="none" stroke="#377eb8" />
<path d="M719.0349025766973,719.0349025766973 A54.3198051533949,54.3198051533949,0,0,0,701.4122894815039,707.2598489621721 M701.4122894815039,707.2598489621721 A54.31980515339421,54.31980515339421,0,0,0,680.625,703.125 M680.625,703.125" close="False" data-weight="1.0" stroke-width="6" fill="none" stroke="#377eb8" />
<path d="M644.0349025766973,1994.0349025766973 C636.1116939026759,1986.1116939026758,617.5633132374239,1973.2201674869166,609.6401045634026,1965.2969588128951" close="False" data-weight="0.0" stroke-width="6" fill="none" stroke="#377eb8" />
<path d="M650.625,703.125 C639.375,703.125,616.875,703.125,605.625,703.125" close="False" data-weight="0.0" stroke-width="6" fill="none" stroke="#377eb8" />
<path d="M575.625,703.125 C564.375,703.125,541.875,703.125,530.625,703.125" close="False" data-weight="0.0" stroke-width="6" fill="none" stroke="#377eb8" />
<path d="M494.03490257669733,1844.0349025766973 C486.0799512883487,1836.0799512883486,470.1700487116513,1820.1700487116514,462.21509742330267,1812.2150974233027" close="False" data-weight="0.0" stroke-width="6" fill="none" stroke="#377eb8" />
<path d="M494.03490257669733,987.2150974233027 C486.0799512883487,995.1700487116514,470.1700487116513,1011.0799512883486,462.21509742330267,1019.0349025766973" close="False" data-weight="0.0" stroke-width="6" fill="none" stroke="#377eb8" />
<path d="M490.953041187105,871.6098954365974 A49.4545264491869,49.4545264491869,0,0,0,474.9088381020804,860.889501672745 M474.9088381020804,860.889501672745 A49.454526449186915,49.454526449186915,0,0,0,455.9834101745155,857.125 M455.9834101745155,857.125" close="False" data-weight="1.0" stroke-width="6" fill="none" stroke="#377eb8" />
<path d="M419.03490257669733,1769.0349025766973 C411.0799512883487,1761.0799512883486,395.1700487116513,1745.1700487116514,387.21509742330267,1737.2150974233027" close="False" data-weight="0.0" stroke-width="6" fill="none" stroke="#377eb8" />
<path d="M419.03490257669733,1062.2150974233027 C411.0799512883487,1070.1700487116514,395.1700487116513,1086.0799512883486,387.21509742330267,1094.0349025766973" close="False" data-weight="0.0" stroke-width="6" fill="none" stroke="#377eb8" />
<path d="M415.953041187105,759.6401045634026 A57.454526449186126,57.454526449186126,0,0,0,403.4984654126548,778.2796944389988 M403.4984654126548,778.2796944389988 A57.45452644918771,57.45452644918771,0,0,0,399.125,800.2665898254845 M399.125,800.2665898254845" close="False" data-weight="1.0" stroke-width="6" fill="none" stroke="#377eb8" />
<path d="M328.125,1625.625 A54.31980515339285,54.31980515339285,0,0,0,323.9901510378276,1604.837710518496 M323.9901510378276,1604.837710518496 A54.31980515339627,54.31980515339627,0,0,0,312.21509742330267,1587.2150974233027 M312.21509742330267,1587.2150974233027" close="False" data-weight="1.0" stroke-width="6" fill="none" stroke="#377eb8" />
<path d="M344.03490257669733,1137.2150974233027 C336.0799512883487,1145.1700487116514,320.1700487116513,1161.0799512883486,312.21509742330267,1169.0349025766973" close="False" data-weight="0.0" stroke-width="6" fill="none" stroke="#377eb8" />
<path d="M269.03490257669733,1544.0349025766973 C261.0799512883487,1536.0799512883486,245.1700487116513,1520.1700487116514,237.21509742330267,1512.2150974233027" close="False" data-weight="0.0" stroke-width="6" fill="none" stroke="#377eb8" />
<path d="M269.03490257669733,1212.2150974233027 C261.0799512883487,1220.1700487116514,245.1700487116513,1236.0799512883486,237.21509742330267,1244.0349025766973" close="False" data-weight="0.0" stroke-width="6" fill="none" stroke="#377eb8" />
<path d="M178.125,1355.625 C178.125,1366.875,178.125,1389.375,178.125,1400.625" close="False" data-weight="0.0" stroke-width="6" fill="none" stroke="#377eb8" />
<path d="M1220.125,949.1547408448131 L1220.125,982.0952591551869" close="False" data-weight="1.75" stroke-width="6" fill="none" stroke="#377eb8" />
<path d="M1175.625,1003.125 L1205.625,1003.125" close="False" data-weight="1.75" stroke-width="6" fill="none" stroke="#377eb8" />
<path d="M1169.0349025766973,869.0349025766973 L1212.2150974233027,912.2150974233027" close="False" data-weight="2.060660171779821" stroke-width="6" fill="none" stroke="#377eb8" />
<path d="M1078.125,1775.625 L1078.125,1805.625" close="False" data-weight="1.75" stroke-width="6" fill="none" stroke="#377eb8" />
<path d="M1078.125,1700.625 L1078.125,1730.625" close="False" data-weight="1.75" stroke-width="6" fill="none" stroke="#377eb8" />
<path d="M1100.625,1003.125 L1130.625,1003.125" close="False" data-weight="1.75" stroke-width="6" fill="none" stroke="#377eb8" />
<path d="M1094.0349025766973,794.0349025766973 L1137.2150974233027,837.2150974233027" close="False" data-weight="2.060660171779821" stroke-width="6" fill="none" stroke="#377eb8" />
<path d="M1078.125,725.625 L1078.125,755.625" close="False" data-weight="1.75" stroke-width="6" fill="none" stroke="#377eb8" />
<path d="M1078.125,650.625 L1078.125,680.625" close="False" data-weight="1.75" stroke-width="6" fill="none" stroke="#377eb8" />
<path d="M1078.125,575.625 L1078.125,605.625" close="False" data-weight="1.75" stroke-width="6" fill="none" stroke="#377eb8" />
<path d="M1078.125,500.625 L1078.125,530.625" close="False" data-weight="1.75" stroke-width="6" fill="none" stroke="#377eb8" />
<path d="M1078.125,425.625 L1078.125,455.625" close="False" data-weight="1.75" stroke-width="6" fill="none" stroke="#377eb8" />
<path d="M1078.125,350.625 L1078.125,380.625" close="False" data-weight="1.75" stroke-width="6" fill="none" stroke="#377eb8" />
<path d="M1078.125,275.625 L1078.125,305.625" close="False" data-weight="1.75" stroke-width="6" fill="none" stroke="#377eb8" />
<path d="M1078.125,200.625 L1078.125,230.625" close="False" data-weight="1.75" stroke-width="6" fill="none" stroke="#377eb8" />
<path d="M1019.0349025766973,1887.2150974233027 L1062.2150974233027,1844.0349025766973" close="False" data-weight="2.060660171779821" stroke-width="6" fill="none" stroke="#377eb8" />
<path d="M1025.625,1003.125 L1055.625,1003.125" close="False" data-weight="1.75" stroke-width="6" fill="none" stroke="#377eb8" />
<path d="M944.0349025766973,1962.2150974233027 L987.2150974233027,1919.0349025766973" close="False" data-weight="2.060660171779821" stroke-width="6" fill="none" stroke="#377eb8" />
<path d="M944.0349025766973,944.0349025766973 L987.2150974233027,987.2150974233027" close="False" data-weight="2.060660171779821" stroke-width="6" fill="none" stroke="#377eb8" />
<path d="M869.0349025766973,2037.2150974233027 L912.2150974233027,1994.0349025766973" close="False" data-weight="2.060660171779821" stroke-width="6" fill="none" stroke="#377eb8" />
<path d="M865.953041187105,871.6098954365974 L909.6401045634026,915.296958812895" close="False" data-weight="2.060660171779821" stroke-width="6" fill="none" stroke="#377eb8" />
<path d="M794.0349025766973,2112.2150974233027 L837.2150974233027,2069.0349025766973" close="False" data-weight="2.060660171779821" stroke-width="6" fill="none" stroke="#377eb8" />
<path d="M790.953041187105,796.6098954365974 L834.6401045634026,840.296958812895" close="False" data-weight="2.060660171779821" stroke-width="6" fill="none" stroke="#377eb8" />
<path d="M719.0349025766973,2069.0349025766973 L762.2150974233027,2112.2150974233027" close="False" data-weight="2.060660171779821" stroke-width="6" fill="none" stroke="#377eb8" />
<path d="M719.0349025766973,719.0349025766973 L762.2150974233027,762.2150974233027" close="False" data-weight="2.060660171779821" stroke-width="6" fill="none" stroke="#377eb8" />
<path d="M644.0349025766973,1994.0349025766973 L687.2150974233027,2037.2150974233027" close="False" data-weight="2.060660171779821" stroke-width="6" fill="none" stroke="#377eb8" />
<path d="M650.625,703.125 L680.625,703.125" close="False" data-weight="1.75" stroke-width="6" fill="none" stroke="#377eb8" />
<path d="M565.953041187105,1921.6098954365973 L609.6401045634175,1965.29695881291" close="False" data-weight="2.060660171779821" stroke-width="6" fill="none" stroke="#377eb8" />
<path d="M575.625,703.125 L605.625,703.125" close="False" data-weight="1.75" stroke-width="6" fill="none" stroke="#377eb8" />
<path d="M494.03490257669733,1844.0349025766973 L537.2150974233027,1887.2150974233027" close="False" data-weight="2.060660171779821" stroke-width="6" fill="none" stroke="#377eb8" />
<path d="M494.03490257669733,987.2150974233027 L537.2150974233027,944.0349025766973" close="False" data-weight="2.060660171779821" stroke-width="6" fill="none" stroke="#377eb8" />
<path d="M490.953041187105,871.6098954365974 L534.6401045634026,915.296958812895" close="False" data-weight="2.060660171779821" stroke-width="6" fill="none" stroke="#377eb8" />
<path d="M500.625,703.125 L530.625,703.125" close="False" data-weight="1.75" stroke-width="6" fill="none" stroke="#377eb8" />
<path d="M419.03490257669733,1769.0349025766973 L462.21509742330267,1812.2150974233027" close="False" data-weight="2.060660171779821" stroke-width="6" fill="none" stroke="#377eb8" />
<path d="M419.03490257669733,1062.2150974233027 L462.21509742330267,1019.0349025766973" close="False" data-weight="2.060660171779821" stroke-width="6" fill="none" stroke="#377eb8" />
<path d="M425.2665898254845,857.125 L455.9834101745155,857.125" close="False" data-weight="1.75" stroke-width="6" fill="none" stroke="#377eb8" />
<path d="M399.125,800.2665898254845 L399.125,830.9834101745155" close="False" data-weight="1.75" stroke-width="6" fill="none" stroke="#377eb8" />
<path d="M415.953041187105,759.6401045634026 L459.6401045634026,715.953041187105" close="False" data-weight="2.060660171779821" stroke-width="6" fill="none" stroke="#377eb8" />
<path d="M344.03490257669733,1694.0349025766973 L387.21509742330267,1737.2150974233027" close="False" data-weight="2.060660171779821" stroke-width="6" fill="none" stroke="#377eb8" />
<path d="M328.125,1625.625 L328.125,1655.625" close="False" data-weight="1.75" stroke-width="6" fill="none" stroke="#377eb8" />
<path d="M344.03490257669733,1137.2150974233027 L387.21509742330267,1094.0349025766973" close="False" data-weight="2.060660171779821" stroke-width="6" fill="none" stroke="#377eb8" />
<path d="M269.03490257669733,1544.0349025766973 L312.21509742330267,1587.2150974233027" close="False" data-weight="2.060660171779821" stroke-width="6" fill="none" stroke="#377eb8" />
<path d="M269.03490257669733,1212.2150974233027 L312.21509742330267,1169.0349025766973" close="False" data-weight="2.060660171779821" stroke-width="6" fill="none" stroke="#377eb8" />
<path d="M194.03490257669733,1469.0349025766973 L237.2150974233027,1512.2150974233027" close="False" data-weight="2.060660171779821" stroke-width="6" fill="none" stroke="#377eb8" />
<path d="M178.125,1400.625 L178.125,1430.625" close="False" data-weight="1.75" stroke-width="6" fill="none" stroke="#377eb8" />
<path d="M178.125,1325.625 L178.125,1355.625" close="False" data-weight="1.75" stroke-width="6" fill="none" stroke="#377eb8" />
<path d="M194.03490257669733,1287.2150974233027 L237.2150974233027,1244.0349025766973" close="False" data-weight="2.060660171779821" stroke-width="6" fill="none" stroke="#377eb8" />
<path d="M2128.125,2030.625 A54.31980515339865,54.31980515339865,0,0,1,2123.990151037828,2051.4122894815036 M2123.990151037828,2051.4122894815036 A54.31980515339072,54.31980515339072,0,0,1,2112.2150974233027,2069.0349025766973 M2112.2150974233027,2069.0349025766973" close="False" data-weight="1.0" stroke-width="6" fill="none" stroke="#e41a1c" />
<path d="M2128.125,1955.625 C2128.125,1966.875,2128.125,1989.375,2128.125,2000.625" close="False" data-weight="0.0" stroke-width="6" fill="none" stroke="#e41a1c" />
<path d="M2128.125,1880.625 C2128.125,1891.875,2128.125,1914.375,2128.125,1925.625" close="False" data-weight="0.0" stroke-width="6" fill="none" stroke="#e41a1c" />
<path d="M2132.125,1730.9834101745155 C2132.125,1742.0542050872577,2132.125,1764.1957949127423,2132.125,1775.2665898254845" close="False" data-weight="0.0" stroke-width="6" fill="none" stroke="#e41a1c" />
<path d="M2069.0349025766973,2112.2150974233027 C2061.0799512883486,2120.1700487116514,2045.1700487116514,2136.0799512883486,2037.2150974233027,2144.0349025766973" close="False" data-weight="0.0" stroke-width="6" fill="none" stroke="#e41a1c" />
<path d="M1850.625,2278.125 C1839.375,2278.125,1816.875,2278.125,1805.625,2278.125" close="False" data-weight="0.0" stroke-width="6" fill="none" stroke="#e41a1c" />
<path d="M1775.625,2278.125 C1764.375,2278.125,1741.875,2278.125,1730.625,2278.125" close="False" data-weight="0.0" stroke-width="6" fill="none" stroke="#e41a1c" />
<path d="M1700.625,2278.125 A54.31980515339728,54.31980515339728,0,0,0,1679.837710518496,2282.2598489621723 M1679.837710518496,2282.2598489621723 A54.319805153387826,54.319805153387826,0,0,0,1662.2150974233027,2294.0349025766973 M1662.2150974233027,2294.0349025766973" close="False" data-weight="1.0" stroke-width="6" fill="none" stroke="#e41a1c" />
<path d="M1619.0349025766973,2337.2150974233027 C1611.0799512883486,2345.1700487116514,1595.1700487116514,2361.0799512883486,1587.2150974233027,2369.0349025766973" close="False" data-weight="0.0" stroke-width="6" fill="none" stroke="#e41a1c" />
<path d="M1475.2665898254845,2424.125 A49.45452644918532,49.45452644918532,0,0,1,1456.3411618979196,2420.360498327255 M1456.3411618979196,2420.360498327255 A49.45452644918831,49.45452644918831,0,0,1,1440.2969588128951,2409.6401045634025 M1440.2969588128951,2409.6401045634025" close="False" data-weight="1.0" stroke-width="6" fill="none" stroke="#e41a1c" />
<path d="M1396.6098954365973,2365.953041187105 C1388.7816612806641,2358.124807031172,1373.1251929687983,2342.468338719306,1365.2969588128653,2334.640104563373" close="False" data-weight="0.0" stroke-width="6" fill="none" stroke="#e41a1c" />
<path d="M1378.125,2180.625 A54.31980515339296,54.31980515339296,0,0,1,1373.9901510378277,2201.4122894815036 M1373.9901510378277,2201.4122894815036 A54.31980515340005,54.31980515340005,0,0,1,1362.2150974233027,2219.0349025766973 M1362.2150974233027,2219.0349025766973" close="False" data-weight="1.0" stroke-width="6" fill="none" stroke="#e41a1c" />
<path d="M1378.125,2105.625 C1378.125,2116.875,1378.125,2139.375,1378.125,2150.625" close="False" data-weight="0.0" stroke-width="6" fill="none" stroke="#e41a1c" />
<path d="M1378.125,2030.625 C1378.125,2041.875,1378.125,2064.375,1378.125,2075.625" close="False" data-weight="0.0" stroke-width="6" fill="none" stroke="#e41a1c" />
<path d="M1378.125,1955.625 C1378.125,1966.875,1378.125,1989.375,1378.125,2000.625" close="False" data-weight="0.0" stroke-width="6" fill="none" stroke="#e41a1c" />
<path d="M1378.125,1880.625 C1378.125,1891.875,1378.125,1914.375,1378.125,1925.625" close="False" data-weight="0.0" stroke-width="6" fill="none" stroke="#e41a1c" />
<path d="M1319.0349025766973,1887.2150974233027 C1311.0799512883486,1895.1700487116514,1295.1700487116514,1911.0799512883486,1287.2150974233027,1919.0349025766973" close="False" data-weight="0.0" stroke-width="6" fill="none" stroke="#e41a1c" />
<path d="M1244.0349025766973,1962.2150974233027 C1236.0799512883486,1970.1700487116514,1220.1700487116514,1986.0799512883486,1212.2150974233027,1994.0349025766973" close="False" data-weight="0.0" stroke-width="6" fill="none" stroke="#e41a1c" />
<path d="M1169.0349025766973,2037.2150974233027 C1161.0799512883486,2045.1700487116514,1145.1700487116514,2061.0799512883486,1137.2150974233027,2069.0349025766973" close="False" data-weight="0.0" stroke-width="6" fill="none" stroke="#e41a1c" />
<path d="M1094.0349025766973,2112.2150974233027 A54.319805153391044,54.319805153391044,0,0,1,1076.4122894815043,2123.990151037828 M1076.4122894815043,2123.990151037828 A54.3198051533941,54.3198051533941,0,0,1,1055.625,2128.125 M1055.625,2128.125" close="False" data-weight="1.0" stroke-width="6" fill="none" stroke="#e41a1c" />
<path d="M1025.625,2128.125 C1014.375,2128.125,991.875,2128.125,980.625,2128.125" close="False" data-weight="0.0" stroke-width="6" fill="none" stroke="#e41a1c" />
<path d="M950.625,2128.125 C939.375,2128.125,916.875,2128.125,905.625,2128.125" close="False" data-weight="0.0" stroke-width="6" fill="none" stroke="#e41a1c" />
<path d="M875.625,2128.125 C864.375,2128.125,841.875,2128.125,830.625,2128.125" close="False" data-weight="0.0" stroke-width="6" fill="none" stroke="#e41a1c" />
<path d="M2128.125,2000.625 L2128.125,2030.625" close="False" data-weight="1.75" stroke-width="6" fill="none" stroke="#e41a1c" />
<path d="M2128.125,1925.625 L2128.125,1955.625" close="False" data-weight="1.75" stroke-width="6" fill="none" stroke="#e41a1c" />
<path d="M2128.125,1850.625 L2128.125,1880.625" close="False" data-weight="1.75" stroke-width="6" fill="none" stroke="#e41a1c" />
<path d="M2132.125,1775.2665898254845 L2132.125,1805.9834101745155" close="False" data-weight="1.75" stroke-width="6" fill="none" stroke="#e41a1c" />
<path d="M2132.125,1700.2665898254845 L2132.125,1730.9834101745155" close="False" data-weight="1.75" stroke-width="6" fill="none" stroke="#e41a1c" />
<path d="M2069.0349025766973,2112.2150974233027 L2112.2150974233027,2069.0349025766973" close="False" data-weight="2.060660171779821" stroke-width="6" fill="none" stroke="#e41a1c" />
<path d="M1994.0349025766973,2187.2150974233027 L2037.2150974233027,2144.0349025766973" close="False" data-weight="2.060660171779821" stroke-width="6" fill="none" stroke="#e41a1c" />
<path d="M1919.0349025766973,2262.2150974233027 L1962.2150974233027,2219.0349025766973" close="False" data-weight="2.060660171779821" stroke-width="6" fill="none" stroke="#e41a1c" />
<path d="M1850.625,2278.125 L1880.625,2278.125" close="False" data-weight="1.75" stroke-width="6" fill="none" stroke="#e41a1c" />
<path d="M1775.625,2278.125 L1805.625,2278.125" close="False" data-weight="1.75" stroke-width="6" fill="none" stroke="#e41a1c" />
<path d="M1700.625,2278.125 L1730.625,2278.125" close="False" data-weight="1.75" stroke-width="6" fill="none" stroke="#e41a1c" />
<path d="M1619.0349025766973,2337.2150974233027 L1662.2150974233027,2294.0349025766973" close="False" data-weight="2.060660171779821" stroke-width="6" fill="none" stroke="#e41a1c" />
<path d="M1544.0349025766973,2412.2150974233027 L1587.2150974233027,2369.0349025766973" close="False" data-weight="2.060660171779821" stroke-width="6" fill="none" stroke="#e41a1c" />
<path d="M1475.2665898254845,2424.125 L1505.9834101745155,2424.125" close="False" data-weight="1.75" stroke-width="6" fill="none" stroke="#e41a1c" />
<path d="M1396.609895436627,2365.9530411871347 L1440.2969588128653,2409.640104563373" close="False" data-weight="2.060660171779821" stroke-width="6" fill="none" stroke="#e41a1c" />
<path d="M1378.125,2150.625 L1378.125,2180.625" close="False" data-weight="1.75" stroke-width="6" fill="none" stroke="#e41a1c" />
<path d="M1378.125,2075.625 L1378.125,2105.625" close="False" data-weight="1.75" stroke-width="6" fill="none" stroke="#e41a1c" />
<path d="M1378.125,2000.625 L1378.125,2030.625" close="False" data-weight="1.75" stroke-width="6" fill="none" stroke="#e41a1c" />
<path d="M1378.125,1925.625 L1378.125,1955.625" close="False" data-weight="1.75" stroke-width="6" fill="none" stroke="#e41a1c" />
<path d="M1378.125,1850.625 L1378.125,1880.625" close="False" data-weight="1.75" stroke-width="6" fill="none" stroke="#e41a1c" />
<path d="M1321.6098954365973,2290.953041187105 L1365.2969588128653,2334.640104563373" close="False" data-weight="2.060660171779821" stroke-width="6" fill="none" stroke="#e41a1c" />
<path d="M1319.0349025766973,2262.2150974233027 L1362.2150974233027,2219.0349025766973" close="False" data-weight="2.060660171779821" stroke-width="6" fill="none" stroke="#e41a1c" />
<path d="M1319.0349025766973,1887.2150974233027 L1362.2150974233027,1844.0349025766973" close="False" data-weight="2.060660171779821" stroke-width="6" fill="none" stroke="#e41a1c" />
<path d="M1244.0349025766973,1962.2150974233027 L1287.2150974233027,1919.0349025766973" close="False" data-weight="2.060660171779821" stroke-width="6" fill="none" stroke="#e41a1c" />
<path d="M1169.0349025766973,2037.2150974233027 L1212.2150974233027,1994.0349025766973" close="False" data-weight="2.060660171779821" stroke-width="6" fill="none" stroke="#e41a1c" />
<path d="M1094.0349025766973,2112.2150974233027 L1137.2150974233027,2069.0349025766973" close="False" data-weight="2.060660171779821" stroke-width="6" fill="none" stroke="#e41a1c" />
<path d="M1025.625,2128.125 L1055.625,2128.125" close="False" data-weight="1.75" stroke-width="6" fill="none" stroke="#e41a1c" />
<path d="M950.625,2128.125 L980.625,2128.125" close="False" data-weight="1.75" stroke-width="6" fill="none" stroke="#e41a1c" />
<path d="M875.625,2128.125 L905.625,2128.125" close="False" data-weight="1.75" stroke-width="6" fill="none" stroke="#e41a1c" />
<path d="M800.625,2128.125 L830.625,2128.125" close="False" data-weight="1.75" stroke-width="6" fill="none" stroke="#e41a1c" />
<image x="2395.625" y="595.625" width="65" height="65" xlink:href="designspace-test/./img/ds_dataset1_40_21_thumb.png">
<title>21</title>
</image>
<image x="2320.625" y="970.625" width="65" height="65" xlink:href="designspace-test/./img/ds_dataset1_40_17_thumb.png">
<title>17</title>
</image>
<image x="2245.625" y="1270.625" width="65" height="65" xlink:href="designspace-test/./img/ds_dataset1_40_37_thumb.png">
<title>37</title>
</image>
<image x="2245.625" y="895.625" width="65" height="65" xlink:href="designspace-test/./img/ds_dataset1_40_31_thumb.png">
<title>31</title>
</image>
<image x="2170.625" y="970.625" width="65" height="65" xlink:href="designspace-test/./img/ds_dataset1_40_13_thumb.png">
<title>13</title>
</image>
<image x="2170.625" y="820.625" width="65" height="65" xlink:href="designspace-test/./img/ds_dataset1_40_30_thumb.png">
<title>30</title>
</image>
<image x="2170.625" y="670.625" width="65" height="65" xlink:href="designspace-test/./img/ds_dataset1_40_33_thumb.png">
<title>33</title>
</image>
<image x="2095.625" y="1795.625" width="65" height="65" xlink:href="designspace-test/./img/ds_dataset1_40_32_thumb.png">
<title>32</title>
</image>
<image x="2095.625" y="1645.625" width="65" height="65" xlink:href="designspace-test/./img/ds_dataset1_40_19_thumb.png">
<title>19</title>
</image>
<image x="2095.625" y="970.625" width="65" height="65" xlink:href="designspace-test/./img/ds_dataset1_40_24_thumb.png">
<title>24</title>
</image>
<image x="1945.625" y="2170.625" width="65" height="65" xlink:href="designspace-test/./img/ds_dataset1_40_2_thumb.png">
<title>2</title>
</image>
<image x="1945.625" y="895.625" width="65" height="65" xlink:href="designspace-test/./img/ds_dataset1_40_25_thumb.png">
<title>25</title>
</image>
<image x="1945.625" y="745.625" width="65" height="65" xlink:href="designspace-test/./img/ds_dataset1_40_11_thumb.png">
<title>11</title>
</image>
<image x="1870.625" y="2245.625" width="65" height="65" xlink:href="designspace-test/./img/ds_dataset1_40_12_thumb.png">
<title>12</title>
</image>
<image x="1870.625" y="1045.625" width="65" height="65" xlink:href="designspace-test/./img/ds_dataset1_40_14_thumb.png">
<title>14</title>
</image>
<image x="1870.625" y="745.625" width="65" height="65" xlink:href="designspace-test/./img/ds_dataset1_40_10_thumb.png">
<title>10</title>
</image>
<image x="1795.625" y="670.625" width="65" height="65" xlink:href="designspace-test/./img/ds_dataset1_40_9_thumb.png">
<title>9</title>
</image>
<image x="1720.625" y="670.625" width="65" height="65" xlink:href="designspace-test/./img/ds_dataset1_40_16_thumb.png">
<title>16</title>
</image>
<image x="1570.625" y="1195.625" width="65" height="65" xlink:href="designspace-test/./img/ds_dataset1_40_39_thumb.png">
<title>39</title>
</image>
<image x="1495.625" y="2395.625" width="65" height="65" xlink:href="designspace-test/./img/ds_dataset1_40_22_thumb.png">
<title>22</title>
</image>
<image x="1495.625" y="1270.625" width="65" height="65" xlink:href="designspace-test/./img/ds_dataset1_40_1_thumb.png">
<title>1</title>
</image>
<image x="1420.625" y="295.625" width="65" height="65" xlink:href="designspace-test/./img/ds_dataset1_40_27_thumb.png">
<title>27</title>
</image>
<image x="1345.625" y="1795.625" width="65" height="65" xlink:href="designspace-test/./img/ds_dataset1_40_4_thumb.png">
<title>4</title>
</image>
<image x="1270.625" y="2245.625" width="65" height="65" xlink:href="designspace-test/./img/ds_dataset1_40_38_thumb.png">
<title>38</title>
</image>
<image x="1270.625" y="1120.625" width="65" height="65" xlink:href="designspace-test/./img/ds_dataset1_40_36_thumb.png">
<title>36</title>
</image>
<image x="1195.625" y="970.625" width="65" height="65" xlink:href="designspace-test/./img/ds_dataset1_40_29_thumb.png">
<title>29</title>
</image>
<image x="1195.625" y="895.625" width="65" height="65" xlink:href="designspace-test/./img/ds_dataset1_40_3_thumb.png">
<title>3</title>
</image>
<image x="1045.625" y="2170.625" width="65" height="65" xlink:href="designspace-test/./img/ds_dataset1_40_23_thumb.png">
<title>23</title>
</image>
<image x="1045.625" y="1645.625" width="65" height="65" xlink:href="designspace-test/./img/ds_dataset1_40_28_thumb.png">
<title>28</title>
</image>
<image x="1045.625" y="145.625" width="65" height="65" xlink:href="designspace-test/./img/ds_dataset1_40_0_thumb.png">
<title>0</title>
</image>
<image x="970.625" y="1945.625" width="65" height="65" xlink:href="designspace-test/./img/ds_dataset1_40_35_thumb.png">
<title>35</title>
</image>
<image x="745.625" y="2095.625" width="65" height="65" xlink:href="designspace-test/./img/ds_dataset1_40_18_thumb.png">
<title>18</title>
</image>
<image x="745.625" y="745.625" width="65" height="65" xlink:href="designspace-test/./img/ds_dataset1_40_6_thumb.png">
<title>6</title>
</image>
<image x="520.625" y="1870.625" width="65" height="65" xlink:href="designspace-test/./img/ds_dataset1_40_20_thumb.png">
<title>20</title>
</image>
<image x="520.625" y="895.625" width="65" height="65" xlink:href="designspace-test/./img/ds_dataset1_40_8_thumb.png">
<title>8</title>
</image>
<image x="445.625" y="670.625" width="65" height="65" xlink:href="designspace-test/./img/ds_dataset1_40_15_thumb.png">
<title>15</title>
</image>
<image x="370.625" y="820.625" width="65" height="65" xlink:href="designspace-test/./img/ds_dataset1_40_26_thumb.png">
<title>26</title>
</image>
<image x="295.625" y="1645.625" width="65" height="65" xlink:href="designspace-test/./img/ds_dataset1_40_34_thumb.png">
<title>34</title>
</image>
<image x="145.625" y="1420.625" width="65" height="65" xlink:href="designspace-test/./img/ds_dataset1_40_5_thumb.png">
<title>5</title>
</image>
<image x="145.625" y="1270.625" width="65" height="65" xlink:href="designspace-test/./img/ds_dataset1_40_7_thumb.png">
<title>7</title>
</image>
</svg>