<?xml version="1.0" encoding="UTF-8"?>
<svg xmlns="http://www.w3.org/2000/svg" xmlns:xlink="http://www.w3.org/1999/xlink"
     width="2550" height="2550" viewBox="0 0 2550 2550">
<defs>
</defs>
<path d="M2146.6098954365975,765.296958812895 C2138.781661280672,773.1251929688207,2123.1251929688206,788.7816612806718,2115.296958812895,796.6098954365974" close="False" data-weight="0.0" stroke-width="6" fill="none" stroke="#ffff33" />
<path d="M2071.6098954365675,840.2969588129248 C2063.781661280657,848.1251929688354,2048.1251929688356,863.7816612806569,2040.2969588129247,871.6098954365676" close="False" data-weight="0.0" stroke-width="6" fill="none" stroke="#ffff33" />
<path d="M1996.6098954365677,915.2969588129248 C1988.781661280657,923.1251929688356,1973.1251929688353,938.7816612806569,1965.2969588129247,946.6098954365676" close="False" data-weight="0.0" stroke-width="6" fill="none" stroke="#ffff33" />
<path d="M1921.6098954365973,990.296958812895 C1913.7816612806716,998.1251929688206,1898.1251929688208,1013.7816612806719,1890.2969588128951,1021.6098954365974" close="False" data-weight="0.0" stroke-width="6" fill="none" stroke="#ffff33" />
<path d="M1846.6098954365973,1065.2969588128951 C1838.7816612806716,1073.1251929688208,1823.1251929688208,1088.7816612806716,1815.2969588128951,1096.6098954365973" close="False" data-weight="0.0" stroke-width="6" fill="none" stroke="#ffff33" />
<path d="M1771.6098954365973,1140.2969588128951 C1763.7816612806716,1148.1251929688208,1748.1251929688208,1163.7816612806716,1740.2969588128951,1171.6098954365973" close="False" data-weight="0.0" stroke-width="6" fill="none" stroke="#ffff33" />
<path d="M1696.6098954365973,1215.2969588128951 C1688.7816612806716,1223.1251929688208,1673.1251929688208,1238.7816612806716,1665.2969588128951,1246.6098954365973" close="False" data-weight="0.0" stroke-width="6" fill="none" stroke="#ffff33" />
<path d="M1621.6098954365677,1290.2969588129247 C1613.7816612806569,1298.1251929688356,1598.1251929688356,1313.7816612806569,1590.2969588129247,1321.6098954365677" close="False" data-weight="0.0" stroke-width="6" fill="none" stroke="#ffff33" />
<path d="M1546.6098954365973,1365.2969588128951 C1538.7816612806716,1373.1251929688208,1523.1251929688208,1388.7816612806716,1515.2969588128951,1396.6098954365973" close="False" data-weight="0.0" stroke-width="6" fill="none" stroke="#ffff33" />
<path d="M1471.6098954365677,1440.2969588129247 C1463.6866867625538,1448.2201674869386,1445.1383060973167,1461.1116939026833,1437.2150974233027,1469.0349025766973" close="False" data-weight="0.0" stroke-width="6" fill="none" stroke="#ffff33" />
<path d="M1394.0349025766973,1512.2150974233027 C1386.0799512883486,1520.1700487116514,1370.1700487116514,1536.0799512883486,1362.2150974233027,1544.0349025766973" close="False" data-weight="0.0" stroke-width="6" fill="none" stroke="#ffff33" />
<path d="M1299.125,2180.9834101745155 C1299.125,2192.0542050872577,1299.125,2214.1957949127423,1299.125,2225.2665898254845" close="False" data-weight="0.0" stroke-width="6" fill="none" stroke="#ffff33" />
<path d="M1299.125,2105.9834101745155 C1299.125,2117.0542050872577,1299.125,2139.1957949127423,1299.125,2150.2665898254845" close="False" data-weight="0.0" stroke-width="6" fill="none" stroke="#ffff33" />
<path d="M1299.125,2030.9834101745155 C1299.125,2042.0542050872577,1299.125,2064.1957949127423,1299.125,2075.2665898254845" close="False" data-weight="0.0" stroke-width="6" fill="none" stroke="#ffff33" />
<path d="M1315.9530411871049,1959.6401045634027 A57.45452644918516,57.45452644918516,0,0,0,1303.4984654126547,1978.2796944389988 M1303.4984654126547,1978.2796944389988 A57.45452644918828,57.45452644918828,0,0,0,1299.125,2000.2665898254845 M1299.125,2000.2665898254845" close="False" data-weight="1.0" stroke-width="6" fill="none" stroke="#ffff33" />
<path d="M1299.125,1775.2665898254845 A49.45452644918828,49.45452644918828,0,0,0,1295.360498327255,1756.3411618979196 M1295.360498327255,1756.3411618979196 A49.454526449185096,49.454526449185096,0,0,0,1284.6401045634027,1740.2969588128951 M1284.6401045634027,1740.2969588128951" close="False" data-weight="1.0" stroke-width="6" fill="none" stroke="#ffff33" />
<path d="M1250.625,2278.125 C1239.375,2278.125,1216.875,2278.125,1205.625,2278.125" close="False" data-weight="0.0" stroke-width="6" fill="none" stroke="#ffff33" />
<path d="M1175.625,2278.125 C1164.375,2278.125,1141.875,2278.125,1130.625,2278.125" close="False" data-weight="0.0" stroke-width="6" fill="none" stroke="#ffff33" />
<path d="M1100.625,2278.125 C1089.375,2278.125,1066.875,2278.125,1055.625,2278.125" close="False" data-weight="0.0" stroke-width="6" fill="none" stroke="#ffff33" />
<path d="M1025.625,2278.125 C1014.375,2278.125,991.875,2278.125,980.625,2278.125" close="False" data-weight="0.0" stroke-width="6" fill="none" stroke="#ffff33" />
<path d="M950.625,2278.125 C939.375,2278.125,916.875,2278.125,905.625,2278.125" close="False" data-weight="0.0" stroke-width="6" fill="none" stroke="#ffff33" />
<path d="M875.625,2278.125 C864.375,2278.125,841.875,2278.125,830.625,2278.125" close="False" data-weight="0.0" stroke-width="6" fill="none" stroke="#ffff33" />
<path d="M703.125,2150.625 A54.31980515339296,54.31980515339296,0,0,0,698.9901510378278,2129.8377105184964 M698.9901510378278,2129.8377105184964 A54.31980515340005,54.31980515340005,0,0,0,687.2150974233027,2112.2150974233027 M687.2150974233027,2112.2150974233027" close="False" data-weight="1.0" stroke-width="6" fill="none" stroke="#ffff33" />
<path d="M628.125,1880.625 C628.125,1891.875,628.125,1914.375,628.125,1925.625" close="False" data-weight="0.0" stroke-width="6" fill="none" stroke="#ffff33" />
<path d="M628.125,1805.625 C628.125,1816.875,628.125,1839.375,628.125,1850.625" close="False" data-weight="0.0" stroke-width="6" fill="none" stroke="#ffff33" />
<path d="M628.125,1730.625 C628.125,1741.875,628.125,1764.375,628.125,1775.625" close="False" data-weight="0.0" stroke-width="6" fill="none" stroke="#ffff33" />
<path d="M628.125,1655.625 C628.125,1666.875,628.125,1689.375,628.125,1700.625" close="False" data-weight="0.0" stroke-width="6" fill="none" stroke="#ffff33" />
<path d="M628.125,1580.625 C628.125,1591.875,628.125,1614.375,628.125,1625.625" close="False" data-weight="0.0" stroke-width="6" fill="none" stroke="#ffff33" />
<path d="M624.125,1505.9834101745155 C624.125,1517.1885193388287,628.125,1539.4198908356868,628.125,1550.625" close="False" data-weight="0.0" stroke-width="6" fill="none" stroke="#ffff33" />
<path d="M624.125,1430.9834101745155 C624.125,1442.0542050872577,624.125,1464.1957949127423,624.125,1475.2665898254845" close="False" data-weight="0.0" stroke-width="6" fill="none" stroke="#ffff33" />
<path d="M2146.6098954365975,765.296958812895 L2190.296958812895,721.6098954365974" close="False" data-weight="2.060660171779821" stroke-width="6" fill="none" stroke="#ffff33" />
<path d="M2071.6098954365675,840.2969588129248 L2115.296958812895,796.6098954365974" close="False" data-weight="2.060660171779821" stroke-width="6" fill="none" stroke="#ffff33" />
<path d="M1996.6098954365677,915.2969588129248 L2040.2969588128951,871.6098954365974" close="False" data-weight="2.060660171779821" stroke-width="6" fill="none" stroke="#ffff33" />
<path d="M1921.6098954365973,990.296958812895 L1965.2969588129247,946.6098954365676" close="False" data-weight="2.060660171779821" stroke-width="6" fill="none" stroke="#ffff33" />
<path d="M1846.6098954365973,1065.2969588128951 L1890.2969588128951,1021.6098954365974" close="False" data-weight="2.060660171779821" stroke-width="6" fill="none" stroke="#ffff33" />
<path d="M1771.6098954365973,1140.2969588128951 L1815.2969588128951,1096.6098954365973" close="False" data-weight="2.060660171779821" stroke-width="6" fill="none" stroke="#ffff33" />
<path d="M1696.6098954365973,1215.2969588128951 L1740.2969588128951,1171.6098954365973" close="False" data-weight="2.060660171779821" stroke-width="6" fill="none" stroke="#ffff33" />
<path d="M1621.6098954365677,1290.2969588129247 L1665.2969588128951,1246.6098954365973" close="False" data-weight="2.060660171779821" stroke-width="6" fill="none" stroke="#ffff33" />
<path d="M1546.6098954365973,1365.2969588128951 L1590.2969588129247,1321.6098954365677" close="False" data-weight="2.060660171779821" stroke-width="6" fill="none" stroke="#ffff33" />
<path d="M1471.6098954365677,1440.2969588129247 L1515.2969588128951,1396.6098954365973" close="False" data-weight="2.060660171779821" stroke-width="6" fill="none" stroke="#ffff33" />
<path d="M1394.0349025766973,1512.2150974233027 L1437.2150974233027,1469.0349025766973" close="False" data-weight="2.060660171779821" stroke-width="6" fill="none" stroke="#ffff33" />
<path d="M1299.125,2225.2665898254845 L1299.125,2255.9834101745155" close="False" data-weight="1.75" stroke-width="6" fill="none" stroke="#ffff33" />
<path d="M1299.125,2150.2665898254845 L1299.125,2180.9834101745155" close="False" data-weight="1.75" stroke-width="6" fill="none" stroke="#ffff33" />
<path d="M1299.125,2075.2665898254845 L1299.125,2105.9834101745155" close="False" data-weight="1.75" stroke-width="6" fill="none" stroke="#ffff33" />
<path d="M1299.125,2000.2665898254845 L1299.125,2030.9834101745155" close="False" data-weight="1.75" stroke-width="6" fill="none" stroke="#ffff33" />
<path d="M1315.9530411871049,1959.6401045634027 L1359.6401045634027,1915.9530411871049" close="False" data-weight="2.060660171779821" stroke-width="6" fill="none" stroke="#ffff33" />
<path d="M1315.9530411871049,1846.6098954365973 L1359.6401045634027,1890.2969588128951" close="False" data-weight="2.060660171779821" stroke-width="6" fill="none" stroke="#ffff33" />
<path d="M1299.125,1775.2665898254845 L1299.125,1805.9834101745155" close="False" data-weight="1.75" stroke-width="6" fill="none" stroke="#ffff33" />
<path d="M1319.0349025766973,1587.2150974233027 L1362.2150974233027,1544.0349025766973" close="False" data-weight="2.060660171779821" stroke-width="6" fill="none" stroke="#ffff33" />
<path d="M1250.625,2278.125 L1280.625,2278.125" close="False" data-weight="1.75" stroke-width="6" fill="none" stroke="#ffff33" />
<path d="M1240.9530411871049,1696.6098954365973 L1284.6401045634323,1740.2969588129247" close="False" data-weight="2.060660171779821" stroke-width="6" fill="none" stroke="#ffff33" />
<path d="M1240.9530411871049,1659.6401045634027 L1284.640104563373,1615.9530411871347" close="False" data-weight="2.060660171779821" stroke-width="6" fill="none" stroke="#ffff33" />
<path d="M1175.625,2278.125 L1205.625,2278.125" close="False" data-weight="1.75" stroke-width="6" fill="none" stroke="#ffff33" />
<path d="M1100.625,2278.125 L1130.625,2278.125" close="False" data-weight="1.75" stroke-width="6" fill="none" stroke="#ffff33" />
<path d="M1025.625,2278.125 L1055.625,2278.125" close="False" data-weight="1.75" stroke-width="6" fill="none" stroke="#ffff33" />
<path d="M950.625,2278.125 L980.625,2278.125" close="False" data-weight="1.75" stroke-width="6" fill="none" stroke="#ffff33" />
<path d="M875.625,2278.125 L905.625,2278.125" close="False" data-weight="1.75" stroke-width="6" fill="none" stroke="#ffff33" />
<path d="M800.625,2278.125 L830.625,2278.125" close="False" data-weight="1.75" stroke-width="6" fill="none" stroke="#ffff33" />
<path d="M719.0349025766973,2219.0349025766973 L762.2150974233027,2262.2150974233027" close="False" data-weight="2.060660171779821" stroke-width="6" fill="none" stroke="#ffff33" />
<path d="M719.0349025766973,2187.2150974233027 L762.2150974233027,2144.0349025766973" close="False" data-weight="2.060660171779821" stroke-width="6" fill="none" stroke="#ffff33" />
<path d="M703.125,2150.625 L703.125,2180.625" close="False" data-weight="1.75" stroke-width="6" fill="none" stroke="#ffff33" />
<path d="M644.0349025766973,2069.0349025766973 L687.2150974233027,2112.2150974233027" close="False" data-weight="2.060660171779821" stroke-width="6" fill="none" stroke="#ffff33" />
<path d="M628.125,2000.625 L628.125,2030.625" close="False" data-weight="1.75" stroke-width="6" fill="none" stroke="#ffff33" />
<path d="M628.125,1925.625 L628.125,1955.625" close="False" data-weight="1.75" stroke-width="6" fill="none" stroke="#ffff33" />
<path d="M628.125,1850.625 L628.125,1880.625" close="False" data-weight="1.75" stroke-width="6" fill="none" stroke="#ffff33" />
<path d="M628.125,1775.625 L628.125,1805.625" close="False" data-weight="1.75" stroke-width="6" fill="none" stroke="#ffff33" />
<path d="M628.125,1700.625 L628.125,1730.625" close="False" data-weight="1.75" stroke-width="6" fill="none" stroke="#ffff33" />
<path d="M628.125,1625.625 L628.125,1655.625" close="False" data-weight="1.75" stroke-width="6" fill="none" stroke="#ffff33" />
<path d="M628.125,1550.625 L628.125,1580.625" close="False" data-weight="1.75" stroke-width="6" fill="none" stroke="#ffff33" />
<path d="M624.125,1475.2665898254845 L624.125,1505.9834101745155" close="False" data-weight="1.75" stroke-width="6" fill="none" stroke="#ffff33" />
<path d="M624.125,1400.2665898254845 L624.125,1430.9834101745155" close="False" data-weight="1.75" stroke-width="6" fill="none" stroke="#ffff33" />
<path d="M2290.953041187105,684.6401045634026 A49.45452644918823,49.45452644918823,0,0,1,2274.9088381020806,695.3604983272551 M2274.9088381020806,695.3604983272551 A49.45452644918589,49.45452644918589,0,0,1,2255.9834101745155,699.125 M2255.9834101745155,699.125" close="False" data-weight="1.0" stroke-width="6" fill="none" stroke="#984ea3" />
<path d="M2140.953041187105,759.6401045634026 C2133.1248070311794,767.4683387193282,2117.468338719328,783.1248070311793,2109.6401045634025,790.953041187105" close="False" data-weight="0.0" stroke-width="6" fill="none" stroke="#984ea3" />
<path d="M2065.9530411871347,834.6401045633729 C2058.1248070312017,842.468338719306,2042.4683387193356,858.124807031172,2034.6401045634027,865.953041187105" close="False" data-weight="0.0" stroke-width="6" fill="none" stroke="#984ea3" />
<path d="M1990.9530411871347,909.6401045633729 C1983.1248070311942,917.4683387193134,1967.4683387193134,933.1248070311942,1959.640104563373,940.9530411871347" close="False" data-weight="0.0" stroke-width="6" fill="none" stroke="#984ea3" />
<path d="M1915.9530411871049,984.6401045634026 C1908.1248070311792,992.4683387193281,1892.4683387193284,1008.1248070311794,1884.6401045634027,1015.953041187105" close="False" data-weight="0.0" stroke-width="6" fill="none" stroke="#984ea3" />
<path d="M1840.9530411871049,1059.6401045634027 C1833.1248070311792,1067.4683387193284,1817.4683387193284,1083.1248070311792,1809.6401045634027,1090.9530411871049" close="False" data-weight="0.0" stroke-width="6" fill="none" stroke="#984ea3" />
<path d="M1765.9530411871049,1134.6401045634027 C1758.1248070311792,1142.4683387193284,1742.4683387193284,1158.1248070311792,1734.6401045634027,1165.9530411871049" close="False" data-weight="0.0" stroke-width="6" fill="none" stroke="#984ea3" />
<path d="M1690.9530411871049,1209.6401045634027 C1683.1248070311792,1217.4683387193284,1667.4683387193284,1233.1248070311792,1659.6401045634027,1240.9530411871049" close="False" data-weight="0.0" stroke-width="6" fill="none" stroke="#984ea3" />
<path d="M1615.9530411871347,1284.640104563373 C1608.1248070311942,1292.4683387193134,1592.4683387193134,1308.1248070311942,1584.640104563373,1315.9530411871347" close="False" data-weight="0.0" stroke-width="6" fill="none" stroke="#984ea3" />
<path d="M1540.9530411871049,1359.6401045634027 C1533.1248070311792,1367.4683387193284,1517.4683387193284,1383.1248070311792,1509.6401045634027,1390.9530411871049" close="False" data-weight="0.0" stroke-width="6" fill="none" stroke="#984ea3" />
<path d="M1465.9530411871347,1434.640104563373 A93.83039863710562,93.83039863710562,0,0,1,1449.8121656631258,1447.5597497660763 M1449.8121656631258,1447.5597497660763 A35.85816626155656,35.85816626155656,0,0,1,1430.625,1453.125 M1430.625,1453.125" close="False" data-weight="1.0" stroke-width="6" fill="none" stroke="#984ea3" />
<path d="M1400.625,1453.125 C1389.375,1453.125,1366.875,1453.125,1355.625,1453.125" close="False" data-weight="0.0" stroke-width="6" fill="none" stroke="#984ea3" />
<path d="M1325.625,1453.125 C1314.375,1453.125,1291.875,1453.125,1280.625,1453.125" close="False" data-weight="0.0" stroke-width="6" fill="none" stroke="#984ea3" />
<path d="M1250.625,1453.125 C1239.375,1453.125,1216.875,1453.125,1205.625,1453.125" close="False" data-weight="0.0" stroke-width="6" fill="none" stroke="#984ea3" />
<path d="M1175.625,1453.125 C1164.375,1453.125,1141.875,1453.125,1130.625,1453.125" close="False" data-weight="0.0" stroke-width="6" fill="none" stroke="#984ea3" />
<path d="M1100.625,1453.125 C1089.375,1453.125,1066.875,1453.125,1055.625,1453.125" close="False" data-weight="0.0" stroke-width="6" fill="none" stroke="#984ea3" />
<path d="M1025.625,1453.125 C1014.375,1453.125,991.875,1453.125,980.625,1453.125" close="False" data-weight="0.0" stroke-width="6" fill="none" stroke="#984ea3" />
<path d="M950.625,1453.125 C939.375,1453.125,916.875,1453.125,905.625,1453.125" close="False" data-weight="0.0" stroke-width="6" fill="none" stroke="#984ea3" />
<path d="M875.625,1453.125 C864.375,1453.125,841.875,1453.125,830.625,1453.125" close="False" data-weight="0.0" stroke-width="6" fill="none" stroke="#984ea3" />
<path d="M800.625,1453.125 C789.375,1453.125,766.875,1453.125,755.625,1453.125" close="False" data-weight="0.0" stroke-width="6" fill="none" stroke="#984ea3" />
<path d="M725.625,1453.125 C714.375,1453.125,691.875,1453.125,680.625,1453.125" close="False" data-weight="0.0" stroke-width="6" fill="none" stroke="#984ea3" />
<path d="M650.625,1453.125 C639.375,1453.125,616.875,1453.125,605.625,1453.125" close="False" data-weight="0.0" stroke-width="6" fill="none" stroke="#984ea3" />
<path d="M575.625,1453.125 A54.31980515339637,54.31980515339637,0,0,0,554.837710518496,1457.259848962172 M554.837710518496,1457.259848962172 A54.31980515339273,54.31980515339273,0,0,0,537.2150974233027,1469.0349025766973 M537.2150974233027,1469.0349025766973" close="False" data-weight="1.0" stroke-width="6" fill="none" stroke="#984ea3" />
<path d="M494.03490257669733,1512.2150974233027 C486.0799512883487,1520.1700487116514,470.1700487116513,1536.0799512883486,462.21509742330267,1544.0349025766973" close="False" data-weight="0.0" stroke-width="6" fill="none" stroke="#984ea3" />
<path d="M350.625,1603.125 C339.375,1603.125,316.875,1603.125,305.625,1603.125" close="False" data-weight="0.0" stroke-width="6" fill="none" stroke="#984ea3" />
<path d="M275.625,1603.125 C264.375,1603.125,241.875,1603.125,230.625,1603.125" close="False" data-weight="0.0" stroke-width="6" fill="none" stroke="#984ea3" />
<path d="M200.625,1603.125 A54.3198051533966,54.3198051533966,0,0,1,179.83771051849592,1598.990151037828 M179.83771051849592,1598.990151037828 A54.31980515339265,54.31980515339265,0,0,1,162.21509742330267,1587.2150974233027 M162.21509742330267,1587.2150974233027" close="False" data-weight="1.0" stroke-width="6" fill="none" stroke="#984ea3" />
<path d="M2290.953041187105,684.6401045634026 L2334.6401045634025,640.953041187105" close="False" data-weight="2.060660171779821" stroke-width="6" fill="none" stroke="#984ea3" />
<path d="M2225.2665898254845,699.125 L2255.9834101745155,699.125" close="False" data-weight="1.75" stroke-width="6" fill="none" stroke="#984ea3" />
<path d="M2140.953041187105,759.6401045634026 L2184.6401045634025,715.953041187105" close="False" data-weight="2.060660171779821" stroke-width="6" fill="none" stroke="#984ea3" />
<path d="M2065.9530411871347,834.6401045633729 L2109.6401045634025,790.953041187105" close="False" data-weight="2.060660171779821" stroke-width="6" fill="none" stroke="#984ea3" />
<path d="M1990.9530411871347,909.6401045633729 L2034.6401045634027,865.953041187105" close="False" data-weight="2.060660171779821" stroke-width="6" fill="none" stroke="#984ea3" />
<path d="M1915.9530411871049,984.6401045634026 L1959.640104563373,940.9530411871347" close="False" data-weight="2.060660171779821" stroke-width="6" fill="none" stroke="#984ea3" />
<path d="M1840.9530411871049,1059.6401045634027 L1884.6401045634027,1015.953041187105" close="False" data-weight="2.060660171779821" stroke-width="6" fill="none" stroke="#984ea3" />
<path d="M1765.9530411871049,1134.6401045634027 L1809.6401045634027,1090.9530411871049" close="False" data-weight="2.060660171779821" stroke-width="6" fill="none" stroke="#984ea3" />
<path d="M1690.9530411871049,1209.6401045634027 L1734.6401045634027,1165.9530411871049" close="False" data-weight="2.060660171779821" stroke-width="6" fill="none" stroke="#984ea3" />
<path d="M1615.9530411871347,1284.640104563373 L1659.6401045634027,1240.9530411871049" close="False" data-weight="2.060660171779821" stroke-width="6" fill="none" stroke="#984ea3" />
<path d="M1540.9530411871049,1359.6401045634027 L1584.640104563373,1315.9530411871347" close="False" data-weight="2.060660171779821" stroke-width="6" fill="none" stroke="#984ea3" />
<path d="M1465.9530411871347,1434.640104563373 L1509.6401045634027,1390.9530411871049" close="False" data-weight="2.060660171779821" stroke-width="6" fill="none" stroke="#984ea3" />
<path d="M1400.625,1453.125 L1430.625,1453.125" close="False" data-weight="1.75" stroke-width="6" fill="none" stroke="#984ea3" />
<path d="M1325.625,1453.125 L1355.625,1453.125" close="False" data-weight="1.75" stroke-width="6" fill="none" stroke="#984ea3" />
<path d="M1250.625,1453.125 L1280.625,1453.125" close="False" data-weight="1.75" stroke-width="6" fill="none" stroke="#984ea3" />
<path d="M1175.625,1453.125 L1205.625,1453.125" close="False" data-weight="1.75" stroke-width="6" fill="none" stroke="#984ea3" />
<path d="M1100.625,1453.125 L1130.625,1453.125" close="False" data-weight="1.75" stroke-width="6" fill="none" stroke="#984ea3" />
<path d="M1025.625,1453.125 L1055.625,1453.125" close="False" data-weight="1.75" stroke-width="6" fill="none" stroke="#984ea3" />
<path d="M950.625,1453.125 L980.625,1453.125" close="False" data-weight="1.75" stroke-width="6" fill="none" stroke="#984ea3" />
<path d="M875.625,1453.125 L905.625,1453.125" close="False" data-weight="1.75" stroke-width="6" fill="none" stroke="#984ea3" />
<path d="M800.625,1453.125 L830.625,1453.125" close="False" data-weight="1.75" stroke-width="6" fill="none" stroke="#984ea3" />
<path d="M725.625,1453.125 L755.625,1453.125" close="False" data-weight="1.75" stroke-width="6" fill="none" stroke="#984ea3" />
<path d="M650.625,1453.125 L680.625,1453.125" close="False" data-weight="1.75" stroke-width="6" fill="none" stroke="#984ea3" />
<path d="M575.625,1453.125 L605.625,1453.125" close="False" data-weight="1.75" stroke-width="6" fill="none" stroke="#984ea3" />
<path d="M494.03490257669733,1512.2150974233027 L537.2150974233027,1469.0349025766973" close="False" data-weight="2.060660171779821" stroke-width="6" fill="none" stroke="#984ea3" />
<path d="M419.03490257669733,1587.2150974233027 L462.21509742330267,1544.0349025766973" close="False" data-weight="2.060660171779821" stroke-width="6" fill="none" stroke="#984ea3" />
<path d="M350.625,1603.125 L380.625,1603.125" close="False" data-weight="1.75" stroke-width="6" fill="none" stroke="#984ea3" />
<path d="M275.625,1603.125 L305.625,1603.125" close="False" data-weight="1.75" stroke-width="6" fill="none" stroke="#984ea3" />
<path d="M200.625,1603.125 L230.625,1603.125" close="False" data-weight="1.75" stroke-width="6" fill="none" stroke="#984ea3" />
<path d="M119.03490257669732,1544.0349025766973 L162.2150974233027,1587.2150974233027" close="False" data-weight="2.060660171779821" stroke-width="6" fill="none" stroke="#984ea3" />
<path d="M1244.0349025766973,2219.0349025766973 C1236.0799512883486,2211.0799512883486,1220.1700487116514,2195.1700487116514,1212.2150974233027,2187.2150974233027" close="False" data-weight="0.0" stroke-width="6" fill="none" stroke="#ff7f00" />
<path d="M1169.0349025766973,2144.0349025766973 C1161.0799512883486,2136.0799512883486,1145.1700487116514,2120.1700487116514,1137.2150974233027,2112.2150974233027" close="False" data-weight="0.0" stroke-width="6" fill="none" stroke="#ff7f00" />
<path d="M1094.0349025766973,2069.0349025766973 C1086.0799512883486,2061.0799512883486,1070.1700487116514,2045.1700487116514,1062.2150974233027,2037.2150974233027" close="False" data-weight="0.0" stroke-width="6" fill="none" stroke="#ff7f00" />
<path d="M1019.0349025766973,1994.0349025766973 C1011.0799512883486,1986.0799512883486,995.1700487116514,1970.1700487116514,987.2150974233027,1962.2150974233027" close="False" data-weight="0.0" stroke-width="6" fill="none" stroke="#ff7f00" />
<path d="M944.0349025766973,1919.0349025766973 C936.0799512883486,1911.0799512883486,920.1700487116514,1895.1700487116514,912.2150974233027,1887.2150974233027" close="False" data-weight="0.0" stroke-width="6" fill="none" stroke="#ff7f00" />
<path d="M869.0349025766973,1844.0349025766973 C861.0799512883486,1836.0799512883486,845.1700487116514,1820.1700487116514,837.2150974233027,1812.2150974233027" close="False" data-weight="0.0" stroke-width="6" fill="none" stroke="#ff7f00" />
<path d="M794.0349025766973,1769.0349025766973 C786.0799512883486,1761.0799512883486,770.1700487116514,1745.1700487116514,762.2150974233027,1737.2150974233027" close="False" data-weight="0.0" stroke-width="6" fill="none" stroke="#ff7f00" />
<path d="M719.0349025766973,1694.0349025766973 C711.0799512883486,1686.0799512883486,695.1700487116514,1670.1700487116514,687.2150974233027,1662.2150974233027" close="False" data-weight="0.0" stroke-width="6" fill="none" stroke="#ff7f00" />
<path d="M644.0349025766973,1619.0349025766973 A35.85816626156056,35.85816626156056,0,0,0,626.5323014451633,1609.4027538039627 M626.5323014451633,1609.4027538039627 A93.83039863674549,93.83039863674549,0,0,0,605.9834101745155,1607.125 M605.9834101745155,1607.125" close="False" data-weight="1.0" stroke-width="6" fill="none" stroke="#ff7f00" />
<path d="M575.2665898254845,1607.125 C564.1957949127423,1607.125,542.0542050872577,1607.125,530.9834101745155,1607.125" close="False" data-weight="0.0" stroke-width="6" fill="none" stroke="#ff7f00" />
<path d="M500.2665898254845,1607.125 C489.19579491274226,1607.125,467.05420508725774,1607.125,455.9834101745155,1607.125" close="False" data-weight="0.0" stroke-width="6" fill="none" stroke="#ff7f00" />
<path d="M328.125,1505.625 A54.31980515339285,54.31980515339285,0,0,0,332.2598489621724,1526.412289481504 M332.2598489621724,1526.412289481504 A54.31980515339627,54.31980515339627,0,0,0,344.03490257669733,1544.0349025766973 M344.03490257669733,1544.0349025766973" close="False" data-weight="1.0" stroke-width="6" fill="none" stroke="#ff7f00" />
<path d="M328.125,1430.625 C328.125,1441.875,328.125,1464.375,328.125,1475.625" close="False" data-weight="0.0" stroke-width="6" fill="none" stroke="#ff7f00" />
<path d="M328.125,1355.625 C328.125,1366.875,328.125,1389.375,328.125,1400.625" close="False" data-weight="0.0" stroke-width="6" fill="none" stroke="#ff7f00" />
<path d="M328.125,1280.625 C328.125,1291.875,328.125,1314.375,328.125,1325.625" close="False" data-weight="0.0" stroke-width="6" fill="none" stroke="#ff7f00" />
<path d="M328.125,1205.625 C328.125,1216.875,328.125,1239.375,328.125,1250.625" close="False" data-weight="0.0" stroke-width="6" fill="none" stroke="#ff7f00" />
<path d="M1244.0349025766973,2219.0349025766973 L1287.2150974233027,2262.2150974233027" close="False" data-weight="2.060660171779821" stroke-width="6" fill="none" stroke="#ff7f00" />
<path d="M1169.0349025766973,2144.0349025766973 L1212.2150974233027,2187.2150974233027" close="False" data-weight="2.060660171779821" stroke-width="6" fill="none" stroke="#ff7f00" />
<path d="M1094.0349025766973,2069.0349025766973 L1137.2150974233027,2112.2150974233027" close="False" data-weight="2.060660171779821" stroke-width="6" fill="none" stroke="#ff7f00" />
<path d="M1019.0349025766973,1994.0349025766973 L1062.2150974233027,2037.2150974233027" close="False" data-weight="2.060660171779821" stroke-width="6" fill="none" stroke="#ff7f00" />
<path d="M944.0349025766973,1919.0349025766973 L987.2150974233027,1962.2150974233027" close="False" data-weight="2.060660171779821" stroke-width="6" fill="none" stroke="#ff7f00" />
<path d="M869.0349025766973,1844.0349025766973 L912.2150974233027,1887.2150974233027" close="False" data-weight="2.060660171779821" stroke-width="6" fill="none" stroke="#ff7f00" />
<path d="M794.0349025766973,1769.0349025766973 L837.2150974233027,1812.2150974233027" close="False" data-weight="2.060660171779821" stroke-width="6" fill="none" stroke="#ff7f00" />
<path d="M719.0349025766973,1694.0349025766973 L762.2150974233027,1737.2150974233027" close="False" data-weight="2.060660171779821" stroke-width="6" fill="none" stroke="#ff7f00" />
<path d="M644.0349025766973,1619.0349025766973 L687.2150974233027,1662.2150974233027" close="False" data-weight="2.060660171779821" stroke-width="6" fill="none" stroke="#ff7f00" />
<path d="M575.2665898254845,1607.125 L605.9834101745155,1607.125" close="False" data-weight="1.75" stroke-width="6" fill="none" stroke="#ff7f00" />
<path d="M500.2665898254845,1607.125 L530.9834101745155,1607.125" close="False" data-weight="1.75" stroke-width="6" fill="none" stroke="#ff7f00" />
<path d="M425.2665898254845,1607.125 L455.9834101745155,1607.125" close="False" data-weight="1.75" stroke-width="6" fill="none" stroke="#ff7f00" />
<path d="M344.03490257669733,1544.0349025766973 L387.21509742330267,1587.2150974233027" close="False" data-weight="2.060660171779821" stroke-width="6" fill="none" stroke="#ff7f00" />
<path d="M328.125,1475.625 L328.125,1505.625" close="False" data-weight="1.75" stroke-width="6" fill="none" stroke="#ff7f00" />
<path d="M328.125,1400.625 L328.125,1430.625" close="False" data-weight="1.75" stroke-width="6" fill="none" stroke="#ff7f00" />
<path d="M328.125,1325.625 L328.125,1355.625" close="False" data-weight="1.75" stroke-width="6" fill="none" stroke="#ff7f00" />
<path d="M328.125,1250.625 L328.125,1280.625" close="False" data-weight="1.75" stroke-width="6" fill="none" stroke="#ff7f00" />
<path d="M328.125,1175.625 L328.125,1205.625" close="False" data-weight="1.75" stroke-width="6" fill="none" stroke="#ff7f00" />
<path d="M328.125,1100.625 L328.125,1130.625" close="False" data-weight="1.75" stroke-width="6" fill="none" stroke="#ff7f00" />
<path d="M2424.125,1055.9834101745155 C2424.125,1067.0542050872577,2424.125,1089.1957949127423,2424.125,1100.2665898254845" close="False" data-weight="0.0" stroke-width="6" fill="none" stroke="#4daf4a" />
<path d="M2424.125,1025.2665898254845 A49.45452644918532,49.45452644918532,0,0,0,2420.360498327255,1006.3411618979196 M2420.360498327255,1006.3411618979196 A49.454526449188386,49.454526449188386,0,0,0,2409.6401045634025,990.296958812895 M2409.6401045634025,990.296958812895" close="False" data-weight="1.0" stroke-width="6" fill="none" stroke="#4daf4a" />
<path d="M2349.125,875.2665898254845 A49.45452644918532,49.45452644918532,0,0,0,2345.360498327255,856.3411618979196 M2345.360498327255,856.3411618979196 A49.454526449188386,49.454526449188386,0,0,0,2334.6401045634025,840.296958812895 M2334.6401045634025,840.296958812895" close="False" data-weight="1.0" stroke-width="6" fill="none" stroke="#4daf4a" />
<path d="M2290.953041187105,796.6098954365974 C2283.1248070311794,788.7816612806718,2267.468338719328,773.1251929688207,2259.6401045634025,765.296958812895" close="False" data-weight="0.0" stroke-width="6" fill="none" stroke="#4daf4a" />
<path d="M2207.125,755.9834101745155 A57.45452644918714,57.45452644918714,0,0,1,2202.7515345873453,777.9703055610012 M2202.7515345873453,777.9703055610012 A57.45452644918701,57.45452644918701,0,0,1,2190.296958812895,796.6098954365974 M2190.296958812895,796.6098954365974" close="False" data-weight="1.0" stroke-width="6" fill="none" stroke="#4daf4a" />
<path d="M2203.125,605.625 C2203.125,616.875,2203.125,639.375,2203.125,650.625" close="False" data-weight="0.0" stroke-width="6" fill="none" stroke="#4daf4a" />
<path d="M2203.125,530.625 C2203.125,541.875,2203.125,564.375,2203.125,575.625" close="False" data-weight="0.0" stroke-width="6" fill="none" stroke="#4daf4a" />
<path d="M2203.125,455.625 C2203.125,466.875,2203.125,489.375,2203.125,500.625" close="False" data-weight="0.0" stroke-width="6" fill="none" stroke="#4daf4a" />
<path d="M2203.125,425.625 A54.31980515339956,54.31980515339956,0,0,0,2198.990151037828,404.83771051849584 M2198.990151037828,404.83771051849584 A54.31980515339,54.31980515339,0,0,0,2187.2150974233027,387.21509742330267 M2187.2150974233027,387.21509742330267" close="False" data-weight="1.0" stroke-width="6" fill="none" stroke="#4daf4a" />
<path d="M2146.6098954365975,840.296958812895 C2138.781661280672,848.1251929688207,2123.1251929688206,863.7816612806718,2115.296958812895,871.6098954365974" close="False" data-weight="0.0" stroke-width="6" fill="none" stroke="#4daf4a" />
<path d="M2144.0349025766973,344.03490257669733 C2136.0799512883486,336.0799512883487,2120.1700487116514,320.1700487116513,2112.2150974233027,312.21509742330267" close="False" data-weight="0.0" stroke-width="6" fill="none" stroke="#4daf4a" />
<path d="M1994.0349025766973,987.2150974233027 C1986.0799512883486,995.1700487116514,1970.1700487116514,1011.0799512883486,1962.2150974233027,1019.0349025766973" close="False" data-weight="0.0" stroke-width="6" fill="none" stroke="#4daf4a" />
<path d="M1994.0349025766973,194.0349025766973 A54.3198051533952,54.3198051533952,0,0,0,1976.412289481504,182.2598489621722 M1976.412289481504,182.2598489621722 A54.319805153393986,54.319805153393986,0,0,0,1955.625,178.125 M1955.625,178.125" close="False" data-weight="1.0" stroke-width="6" fill="none" stroke="#4daf4a" />
<path d="M1919.0349025766973,1062.2150974233027 C1911.0799512883486,1070.1700487116514,1895.1700487116514,1086.0799512883486,1887.2150974233027,1094.0349025766973" close="False" data-weight="0.0" stroke-width="6" fill="none" stroke="#4daf4a" />
<path d="M1844.0349025766973,1137.2150974233027 C1836.0799512883486,1145.1700487116514,1820.1700487116514,1161.0799512883486,1812.2150974233027,1169.0349025766973" close="False" data-weight="0.0" stroke-width="6" fill="none" stroke="#4daf4a" />
<path d="M1769.0349025766973,1212.2150974233027 C1761.0799512883486,1220.1700487116514,1745.1700487116514,1236.0799512883486,1737.2150974233027,1244.0349025766973" close="False" data-weight="0.0" stroke-width="6" fill="none" stroke="#4daf4a" />
<path d="M1694.0349025766973,1287.2150974233027 C1686.0799512883486,1295.1700487116514,1670.1700487116514,1311.0799512883486,1662.2150974233027,1319.0349025766973" close="False" data-weight="0.0" stroke-width="6" fill="none" stroke="#4daf4a" />
<path d="M1619.0349025766973,1362.2150974233027 A54.3198051533949,54.3198051533949,0,0,1,1601.412289481504,1373.9901510378277 M1601.412289481504,1373.9901510378277 A54.3198051533941,54.3198051533941,0,0,1,1580.625,1378.125 M1580.625,1378.125" close="False" data-weight="1.0" stroke-width="6" fill="none" stroke="#4daf4a" />
<path d="M1550.625,1378.125 C1539.375,1378.125,1516.875,1378.125,1505.625,1378.125" close="False" data-weight="0.0" stroke-width="6" fill="none" stroke="#4daf4a" />
<path d="M1469.0349025766973,2369.0349025766973 C1461.0799512883486,2361.0799512883486,1445.1700487116514,2345.1700487116514,1437.2150974233027,2337.2150974233027" close="False" data-weight="0.0" stroke-width="6" fill="none" stroke="#4daf4a" />
<path d="M1475.625,1378.125 C1464.375,1378.125,1441.875,1378.125,1430.625,1378.125" close="False" data-weight="0.0" stroke-width="6" fill="none" stroke="#4daf4a" />
<path d="M1394.0349025766973,2294.0349025766973 C1386.0799512883486,2286.0799512883486,1370.1700487116514,2270.1700487116514,1362.2150974233027,2262.2150974233027" close="False" data-weight="0.0" stroke-width="6" fill="none" stroke="#4daf4a" />
<path d="M1400.625,1378.125 C1389.375,1378.125,1366.875,1378.125,1355.625,1378.125" close="False" data-weight="0.0" stroke-width="6" fill="none" stroke="#4daf4a" />
<path d="M1319.0349025766973,2219.0349025766973 C1311.0799512883486,2211.0799512883486,1295.1700487116514,2195.1700487116514,1287.2150974233027,2187.2150974233027" close="False" data-weight="0.0" stroke-width="6" fill="none" stroke="#4daf4a" />
<path d="M1325.625,1378.125 C1314.375,1378.125,1291.875,1378.125,1280.625,1378.125" close="False" data-weight="0.0" stroke-width="6" fill="none" stroke="#4daf4a" />
<path d="M1244.0349025766973,2144.0349025766973 C1236.0799512883486,2136.0799512883486,1220.1700487116514,2120.1700487116514,1212.2150974233027,2112.2150974233027" close="False" data-weight="0.0" stroke-width="6" fill="none" stroke="#4daf4a" />
<path d="M1250.625,1378.125 C1239.375,1378.125,1216.875,1378.125,1205.625,1378.125" close="False" data-weight="0.0" stroke-width="6" fill="none" stroke="#4daf4a" />
<path d="M1169.0349025766973,2069.0349025766973 C1161.0799512883486,2061.0799512883486,1145.1700487116514,2045.1700487116514,1137.2150974233027,2037.2150974233027" close="False" data-weight="0.0" stroke-width="6" fill="none" stroke="#4daf4a" />
<path d="M1175.625,1378.125 C1164.375,1378.125,1141.875,1378.125,1130.625,1378.125" close="False" data-weight="0.0" stroke-width="6" fill="none" stroke="#4daf4a" />
<path d="M1094.0349025766973,1994.0349025766973 C1086.0799512883486,1986.0799512883486,1070.1700487116514,1970.1700487116514,1062.2150974233027,1962.2150974233027" close="False" data-weight="0.0" stroke-width="6" fill="none" stroke="#4daf4a" />
<path d="M1100.625,1378.125 C1089.375,1378.125,1066.875,1378.125,1055.625,1378.125" close="False" data-weight="0.0" stroke-width="6" fill="none" stroke="#4daf4a" />
<path d="M1019.0349025766973,1919.0349025766973 C1011.0799512883486,1911.0799512883486,995.1700487116514,1895.1700487116514,987.2150974233027,1887.2150974233027" close="False" data-weight="0.0" stroke-width="6" fill="none" stroke="#4daf4a" />
<path d="M1025.625,1378.125 C1014.375,1378.125,991.875,1378.125,980.625,1378.125" close="False" data-weight="0.0" stroke-width="6" fill="none" stroke="#4daf4a" />
<path d="M944.0349025766973,1844.0349025766973 C936.0799512883486,1836.0799512883486,920.1700487116514,1820.1700487116514,912.2150974233027,1812.2150974233027" close="False" data-weight="0.0" stroke-width="6" fill="none" stroke="#4daf4a" />
<path d="M950.625,1378.125 C939.375,1378.125,916.875,1378.125,905.625,1378.125" close="False" data-weight="0.0" stroke-width="6" fill="none" stroke="#4daf4a" />
<path d="M869.0349025766973,1769.0349025766973 C861.0799512883486,1761.0799512883486,845.1700487116514,1745.1700487116514,837.2150974233027,1737.2150974233027" close="False" data-weight="0.0" stroke-width="6" fill="none" stroke="#4daf4a" />
<path d="M875.625,1378.125 C864.375,1378.125,841.875,1378.125,830.625,1378.125" close="False" data-weight="0.0" stroke-width="6" fill="none" stroke="#4daf4a" />
<path d="M794.0349025766973,1694.0349025766973 C786.0799512883486,1686.0799512883486,770.1700487116514,1670.1700487116514,762.2150974233027,1662.2150974233027" close="False" data-weight="0.0" stroke-width="6" fill="none" stroke="#4daf4a" />
<path d="M800.625,1378.125 C789.375,1378.125,766.875,1378.125,755.625,1378.125" close="False" data-weight="0.0" stroke-width="6" fill="none" stroke="#4daf4a" />
<path d="M719.0349025766973,1619.0349025766973 C711.0799512883486,1611.0799512883486,695.1700487116514,1595.1700487116514,687.2150974233027,1587.2150974233027" close="False" data-weight="0.0" stroke-width="6" fill="none" stroke="#4daf4a" />
<path d="M725.625,1378.125 C714.375,1378.125,691.875,1378.125,680.625,1378.125" close="False" data-weight="0.0" stroke-width="6" fill="none" stroke="#4daf4a" />
<path d="M632.125,1505.9834101745155 A93.83039863674537,93.83039863674537,0,0,0,634.4027538039627,1526.5323014451633 M634.4027538039627,1526.5323014451633 A35.85816626156056,35.85816626156056,0,0,0,644.0349025766973,1544.0349025766973 M644.0349025766973,1544.0349025766973" close="False" data-weight="1.0" stroke-width="6" fill="none" stroke="#4daf4a" />
<path d="M632.125,1430.9834101745155 C632.125,1442.0542050872577,632.125,1464.1957949127423,632.125,1475.2665898254845" close="False" data-weight="0.0" stroke-width="6" fill="none" stroke="#4daf4a" />
<path d="M569.0349025766973,1319.0349025766973 C561.0799512883486,1311.0799512883486,545.1700487116514,1295.1700487116514,537.2150974233027,1287.2150974233027" close="False" data-weight="0.0" stroke-width="6" fill="none" stroke="#4daf4a" />
<path d="M494.03490257669733,1244.0349025766973 C486.0799512883487,1236.0799512883486,470.1700487116513,1220.1700487116514,462.21509742330267,1212.2150974233027" close="False" data-weight="0.0" stroke-width="6" fill="none" stroke="#4daf4a" />
<path d="M419.03490257669733,1169.0349025766973 A54.31980515339551,54.31980515339551,0,0,0,401.41228948150405,1157.259848962172 M401.41228948150405,1157.259848962172 A54.31980515339387,54.31980515339387,0,0,0,380.625,1153.125 M380.625,1153.125" close="False" data-weight="1.0" stroke-width="6" fill="none" stroke="#4daf4a" />
<path d="M2424.125,1100.2665898254845 L2424.125,1130.9834101745155" close="False" data-weight="1.75" stroke-width="6" fill="none" stroke="#4daf4a" />
<path d="M2424.125,1025.2665898254845 L2424.125,1055.9834101745155" close="False" data-weight="1.75" stroke-width="6" fill="none" stroke="#4daf4a" />
<path d="M2365.953041187105,946.6098954365974 L2409.6401045634025,990.296958812895" close="False" data-weight="2.060660171779821" stroke-width="6" fill="none" stroke="#4daf4a" />
<path d="M2349.125,875.2665898254845 L2349.125,905.9834101745155" close="False" data-weight="1.75" stroke-width="6" fill="none" stroke="#4daf4a" />
<path d="M2290.953041187105,796.6098954365974 L2334.6401045634025,840.296958812895" close="False" data-weight="2.060660171779821" stroke-width="6" fill="none" stroke="#4daf4a" />
<path d="M2207.125,725.2665898254845 L2207.125,755.9834101745155" close="False" data-weight="1.75" stroke-width="6" fill="none" stroke="#4daf4a" />
<path d="M2215.953041187105,721.6098954365974 L2259.6401045634025,765.296958812895" close="False" data-weight="2.060660171779821" stroke-width="6" fill="none" stroke="#4daf4a" />
<path d="M2203.125,650.625 L2203.125,680.625" close="False" data-weight="1.75" stroke-width="6" fill="none" stroke="#4daf4a" />
<path d="M2203.125,575.625 L2203.125,605.625" close="False" data-weight="1.75" stroke-width="6" fill="none" stroke="#4daf4a" />
<path d="M2203.125,500.625 L2203.125,530.625" close="False" data-weight="1.75" stroke-width="6" fill="none" stroke="#4daf4a" />
<path d="M2203.125,425.625 L2203.125,455.625" close="False" data-weight="1.75" stroke-width="6" fill="none" stroke="#4daf4a" />
<path d="M2146.6098954365975,840.296958812895 L2190.296958812895,796.6098954365974" close="False" data-weight="2.060660171779821" stroke-width="6" fill="none" stroke="#4daf4a" />
<path d="M2144.0349025766973,344.03490257669733 L2187.2150974233027,387.21509742330267" close="False" data-weight="2.060660171779821" stroke-width="6" fill="none" stroke="#4daf4a" />
<path d="M2071.6098954365675,915.2969588129248 L2115.296958812895,871.6098954365974" close="False" data-weight="2.060660171779821" stroke-width="6" fill="none" stroke="#4daf4a" />
<path d="M2069.0349025766973,269.03490257669733 L2112.2150974233027,312.21509742330267" close="False" data-weight="2.060660171779821" stroke-width="6" fill="none" stroke="#4daf4a" />
<path d="M1994.0349025766973,987.2150974233027 L2037.2150974233027,944.0349025766973" close="False" data-weight="2.060660171779821" stroke-width="6" fill="none" stroke="#4daf4a" />
<path d="M1994.0349025766973,194.03490257669733 L2037.2150974233027,237.2150974233027" close="False" data-weight="2.060660171779821" stroke-width="6" fill="none" stroke="#4daf4a" />
<path d="M1919.0349025766973,1062.2150974233027 L1962.2150974233027,1019.0349025766973" close="False" data-weight="2.060660171779821" stroke-width="6" fill="none" stroke="#4daf4a" />
<path d="M1925.625,178.125 L1955.625,178.125" close="False" data-weight="1.75" stroke-width="6" fill="none" stroke="#4daf4a" />
<path d="M1844.0349025766973,1137.2150974233027 L1887.2150974233027,1094.0349025766973" close="False" data-weight="2.060660171779821" stroke-width="6" fill="none" stroke="#4daf4a" />
<path d="M1769.0349025766973,1212.2150974233027 L1812.2150974233027,1169.0349025766973" close="False" data-weight="2.060660171779821" stroke-width="6" fill="none" stroke="#4daf4a" />
<path d="M1694.0349025766973,1287.2150974233027 L1737.2150974233027,1244.0349025766973" close="False" data-weight="2.060660171779821" stroke-width="6" fill="none" stroke="#4daf4a" />
<path d="M1619.0349025766973,1362.2150974233027 L1662.2150974233027,1319.0349025766973" close="False" data-weight="2.060660171779821" stroke-width="6" fill="none" stroke="#4daf4a" />
<path d="M1550.625,1378.125 L1580.625,1378.125" close="False" data-weight="1.75" stroke-width="6" fill="none" stroke="#4daf4a" />
<path d="M1469.0349025766973,2369.0349025766973 L1512.2150974233027,2412.2150974233027" close="False" data-weight="2.060660171779821" stroke-width="6" fill="none" stroke="#4daf4a" />
<path d="M1475.625,1378.125 L1505.625,1378.125" close="False" data-weight="1.75" stroke-width="6" fill="none" stroke="#4daf4a" />
<path d="M1394.0349025766973,2294.0349025766973 L1437.2150974233027,2337.2150974233027" close="False" data-weight="2.060660171779821" stroke-width="6" fill="none" stroke="#4daf4a" />
<path d="M1400.625,1378.125 L1430.625,1378.125" close="False" data-weight="1.75" stroke-width="6" fill="none" stroke="#4daf4a" />
<path d="M1319.0349025766973,2219.0349025766973 L1362.2150974233027,2262.2150974233027" close="False" data-weight="2.060660171779821" stroke-width="6" fill="none" stroke="#4daf4a" />
<path d="M1325.625,1378.125 L1355.625,1378.125" close="False" data-weight="1.75" stroke-width="6" fill="none" stroke="#4daf4a" />
<path d="M1244.0349025766973,2144.0349025766973 L1287.2150974233027,2187.2150974233027" close="False" data-weight="2.060660171779821" stroke-width="6" fill="none" stroke="#4daf4a" />
<path d="M1250.625,1378.125 L1280.625,1378.125" close="False" data-weight="1.75" stroke-width="6" fill="none" stroke="#4daf4a" />
<path d="M1169.0349025766973,2069.0349025766973 L1212.2150974233027,2112.2150974233027" close="False" data-weight="2.060660171779821" stroke-width="6" fill="none" stroke="#4daf4a" />
<path d="M1175.625,1378.125 L1205.625,1378.125" close="False" data-weight="1.75" stroke-width="6" fill="none" stroke="#4daf4a" />
<path d="M1094.0349025766973,1994.0349025766973 L1137.2150974233027,2037.2150974233027" close="False" data-weight="2.060660171779821" stroke-width="6" fill="none" stroke="#4daf4a" />
<path d="M1100.625,1378.125 L1130.625,1378.125" close="False" data-weight="1.75" stroke-width="6" fill="none" stroke="#4daf4a" />
<path d="M1019.0349025766973,1919.0349025766973 L1062.2150974233027,1962.2150974233027" close="False" data-weight="2.060660171779821" stroke-width="6" fill="none" stroke="#4daf4a" />
<path d="M1025.625,1378.125 L1055.625,1378.125" close="False" data-weight="1.75" stroke-width="6" fill="none" stroke="#4daf4a" />
<path d="M944.0349025766973,1844.0349025766973 L987.2150974233027,1887.2150974233027" close="False" data-weight="2.060660171779821" stroke-width="6" fill="none" stroke="#4daf4a" />
<path d="M950.625,1378.125 L980.625,1378.125" close="False" data-weight="1.75" stroke-width="6" fill="none" stroke="#4daf4a" />
<path d="M869.0349025766973,1769.0349025766973 L912.2150974233027,1812.2150974233027" close="False" data-weight="2.060660171779821" stroke-width="6" fill="none" stroke="#4daf4a" />
<path d="M875.625,1378.125 L905.625,1378.125" close="False" data-weight="1.75" stroke-width="6" fill="none" stroke="#4daf4a" />
<path d="M794.0349025766973,1694.0349025766973 L837.2150974233027,1737.2150974233027" close="False" data-weight="2.060660171779821" stroke-width="6" fill="none" stroke="#4daf4a" />
<path d="M800.625,1378.125 L830.625,1378.125" close="False" data-weight="1.75" stroke-width="6" fill="none" stroke="#4daf4a" />
<path d="M719.0349025766973,1619.0349025766973 L762.2150974233027,1662.2150974233027" close="False" data-weight="2.060660171779821" stroke-width="6" fill="none" stroke="#4daf4a" />
<path d="M725.625,1378.125 L755.625,1378.125" close="False" data-weight="1.75" stroke-width="6" fill="none" stroke="#4daf4a" />
<path d="M644.0349025766973,1544.0349025766973 L687.2150974233027,1587.2150974233027" close="False" data-weight="2.060660171779821" stroke-width="6" fill="none" stroke="#4daf4a" />
<path d="M632.125,1475.2665898254845 L632.125,1505.9834101745155" close="False" data-weight="1.75" stroke-width="6" fill="none" stroke="#4daf4a" />
<path d="M632.125,1400.2665898254845 L632.125,1430.9834101745155" close="False" data-weight="1.75" stroke-width="6" fill="none" stroke="#4daf4a" />
<path d="M650.625,1378.125 L680.625,1378.125" close="False" data-weight="1.75" stroke-width="6" fill="none" stroke="#4daf4a" />
<path d="M569.0349025766973,1319.0349025766973 L612.2150974233027,1362.2150974233027" close="False" data-weight="2.060660171779821" stroke-width="6" fill="none" stroke="#4daf4a" />
<path d="M494.03490257669733,1244.0349025766973 L537.2150974233027,1287.2150974233027" close="False" data-weight="2.060660171779821" stroke-width="6" fill="none" stroke="#4daf4a" />
<path d="M419.03490257669733,1169.0349025766973 L462.21509742330267,1212.2150974233027" close="False" data-weight="2.060660171779821" stroke-width="6" fill="none" stroke="#4daf4a" />
<path d="M350.625,1153.125 L380.625,1153.125" close="False" data-weight="1.75" stroke-width="6" fill="none" stroke="#4daf4a" />
<path d="M1546.6098954365973,840.296958812895 A49.45452644918823,49.45452644918823,0,0,0,1535.889501672745,856.3411618979195 M1535.889501672745,856.3411618979195 A49.45452644918555,49.45452644918555,0,0,0,1532.125,875.2665898254845 M1532.125,875.2665898254845" close="False" data-weight="1.0" stroke-width="6" fill="none" stroke="#377eb8" />
<path d="M1546.6098954366123,715.9530411871199 A57.45452644926523,57.45452644926523,0,0,0,1527.9703055610094,703.4984654126604 M1527.9703055610094,703.4984654126604 A57.454526449159516,57.454526449159516,0,0,0,1505.9834101745155,699.125 M1505.9834101745155,699.125" close="False" data-weight="1.0" stroke-width="6" fill="none" stroke="#377eb8" />
<path d="M1465.9530411871049,609.6401045634026 A57.45452644918669,57.45452644918669,0,0,0,1453.4984654126547,628.2796944389988 M1453.4984654126547,628.2796944389988 A57.45452644918714,57.45452644918714,0,0,0,1449.125,650.2665898254845 M1449.125,650.2665898254845" close="False" data-weight="1.0" stroke-width="6" fill="none" stroke="#377eb8" />
<path d="M1299.125,1055.9834101745155 C1299.125,1067.0542050872577,1299.125,1089.1957949127423,1299.125,1100.2665898254845" close="False" data-weight="0.0" stroke-width="6" fill="none" stroke="#377eb8" />
<path d="M1299.125,905.9834101745155 C1299.125,917.0542050872577,1299.125,939.1957949127423,1299.125,950.2665898254845" close="False" data-weight="0.0" stroke-width="6" fill="none" stroke="#377eb8" />
<path d="M1315.9530411871049,834.6401045634026 A57.45452644918669,57.45452644918669,0,0,0,1303.4984654126547,853.2796944389988 M1303.4984654126547,853.2796944389988 A57.45452644918714,57.45452644918714,0,0,0,1299.125,875.2665898254845 M1299.125,875.2665898254845" close="False" data-weight="1.0" stroke-width="6" fill="none" stroke="#377eb8" />
<path d="M1319.0349025766973,644.0349025766973 C1311.0799512883486,636.0799512883486,1295.1700487116514,620.1700487116514,1287.2150974233027,612.2150974233027" close="False" data-weight="0.0" stroke-width="6" fill="none" stroke="#377eb8" />
<path d="M1244.0349025766973,1212.2150974233027 C1236.0799512883486,1220.1700487116514,1220.1700487116514,1236.0799512883486,1212.2150974233027,1244.0349025766973" close="False" data-weight="0.0" stroke-width="6" fill="none" stroke="#377eb8" />
<path d="M1244.0349025766973,569.0349025766973 C1236.0799512883486,561.0799512883486,1220.1700487116514,545.1700487116514,1212.2150974233027,537.2150974233027" close="False" data-weight="0.0" stroke-width="6" fill="none" stroke="#377eb8" />
<path d="M1169.0349025766973,1287.2150974233027 C1161.0799512883486,1295.1700487116514,1145.1700487116514,1311.0799512883486,1137.2150974233027,1319.0349025766973" close="False" data-weight="0.0" stroke-width="6" fill="none" stroke="#377eb8" />
<path d="M1169.0349025766973,494.03490257669733 C1161.0799512883486,486.0799512883487,1145.1700487116514,470.1700487116513,1137.2150974233027,462.21509742330267" close="False" data-weight="0.0" stroke-width="6" fill="none" stroke="#377eb8" />
<path d="M1094.0349025766973,1362.2150974233027 C1086.0799512883486,1370.1700487116514,1070.1700487116514,1386.0799512883486,1062.2150974233027,1394.0349025766973" close="False" data-weight="0.0" stroke-width="6" fill="none" stroke="#377eb8" />
<path d="M1094.0349025766973,419.03490257669733 C1086.0799512883486,411.0799512883487,1070.1700487116514,395.1700487116513,1062.2150974233027,387.21509742330267" close="False" data-weight="0.0" stroke-width="6" fill="none" stroke="#377eb8" />
<path d="M1019.0349025766973,1437.2150974233027 C1011.0799512883486,1445.1700487116514,995.1700487116514,1461.0799512883486,987.2150974233027,1469.0349025766973" close="False" data-weight="0.0" stroke-width="6" fill="none" stroke="#377eb8" />
<path d="M1003.125,230.625 C1003.125,241.875,1003.125,264.375,1003.125,275.625" close="False" data-weight="0.0" stroke-width="6" fill="none" stroke="#377eb8" />
<path d="M944.0349025766973,1512.2150974233027 C936.0799512883486,1520.1700487116514,920.1700487116514,1536.0799512883486,912.2150974233027,1544.0349025766973" close="False" data-weight="0.0" stroke-width="6" fill="none" stroke="#377eb8" />
<path d="M869.0349025766973,1587.2150974233027 A54.31980515339554,54.31980515339554,0,0,1,851.412289481504,1598.990151037828 M851.412289481504,1598.990151037828 A54.319805153393645,54.319805153393645,0,0,1,830.625,1603.125 M830.625,1603.125" close="False" data-weight="1.0" stroke-width="6" fill="none" stroke="#377eb8" />
<path d="M800.625,1603.125 C789.375,1603.125,766.875,1603.125,755.625,1603.125" close="False" data-weight="0.0" stroke-width="6" fill="none" stroke="#377eb8" />
<path d="M794.0349025766973,344.03490257669733 C786.0799512883486,336.0799512883487,770.1700487116514,320.1700487116513,762.2150974233027,312.21509742330267" close="False" data-weight="0.0" stroke-width="6" fill="none" stroke="#377eb8" />
<path d="M725.625,1603.125 C714.375,1603.125,691.875,1603.125,680.625,1603.125" close="False" data-weight="0.0" stroke-width="6" fill="none" stroke="#377eb8" />
<path d="M725.625,478.125 C714.375,478.125,691.875,478.125,680.625,478.125" close="False" data-weight="0.0" stroke-width="6" fill="none" stroke="#377eb8" />
<path d="M650.625,1603.125 C639.4198908356868,1603.125,617.1885193388287,1599.125,605.9834101745155,1599.125" close="False" data-weight="0.0" stroke-width="6" fill="none" stroke="#377eb8" />
<path d="M650.625,478.125 A54.31980515339342,54.31980515339342,0,0,0,629.8377105184961,482.25984896217227 M629.8377105184961,482.25984896217227 A54.31980515339574,54.31980515339574,0,0,0,612.2150974233027,494.03490257669733 M612.2150974233027,494.03490257669733" close="False" data-weight="1.0" stroke-width="6" fill="none" stroke="#377eb8" />
<path d="M575.2665898254845,1599.125 C564.1957949127423,1599.125,542.0542050872577,1599.125,530.9834101745155,1599.125" close="False" data-weight="0.0" stroke-width="6" fill="none" stroke="#377eb8" />
<path d="M500.2665898254845,1599.125 C489.19579491274226,1599.125,467.05420508725774,1599.125,455.9834101745155,1599.125" close="False" data-weight="0.0" stroke-width="6" fill="none" stroke="#377eb8" />
<path d="M1532.125,875.2665898254845 L1532.125,905.9834101745155" close="False" data-weight="1.75" stroke-width="6" fill="none" stroke="#377eb8" />
<path d="M1546.6098954365973,840.296958812895 L1590.2969588128951,796.6098954365974" close="False" data-weight="2.060660171779821" stroke-width="6" fill="none" stroke="#377eb8" />
<path d="M1546.6098954366123,715.9530411871199 L1590.2969588128951,759.6401045634026" close="False" data-weight="2.060660171779821" stroke-width="6" fill="none" stroke="#377eb8" />
<path d="M1524.125,500.2665898254845 L1524.125,530.9834101745155" close="False" data-weight="1.75" stroke-width="6" fill="none" stroke="#377eb8" />
<path d="M1550.2665898254845,474.125 L1580.9834101745155,474.125" close="False" data-weight="1.75" stroke-width="6" fill="none" stroke="#377eb8" />
<path d="M1475.2665898254845,699.125 L1505.9834101745155,699.125" close="False" data-weight="1.75" stroke-width="6" fill="none" stroke="#377eb8" />
<path d="M1449.125,650.2665898254845 L1449.125,680.9834101745155" close="False" data-weight="1.75" stroke-width="6" fill="none" stroke="#377eb8" />
<path d="M1465.9530411871049,609.6401045634026 L1509.6401045634027,565.953041187105" close="False" data-weight="2.060660171779821" stroke-width="6" fill="none" stroke="#377eb8" />
<path d="M1374.125,725.2665898254845 L1374.125,755.9834101745155" close="False" data-weight="1.75" stroke-width="6" fill="none" stroke="#377eb8" />
<path d="M1400.2665898254845,699.125 L1430.9834101745155,699.125" close="False" data-weight="1.75" stroke-width="6" fill="none" stroke="#377eb8" />
<path d="M1325.2665898254845,1157.125 L1355.9834101745155,1157.125" close="False" data-weight="1.75" stroke-width="6" fill="none" stroke="#377eb8" />
<path d="M1299.125,1100.2665898254845 L1299.125,1130.9834101745155" close="False" data-weight="1.75" stroke-width="6" fill="none" stroke="#377eb8" />
<path d="M1299.125,1025.2665898254845 L1299.125,1055.9834101745155" close="False" data-weight="1.75" stroke-width="6" fill="none" stroke="#377eb8" />
<path d="M1299.125,950.2665898254845 L1299.125,980.9834101745155" close="False" data-weight="1.75" stroke-width="6" fill="none" stroke="#377eb8" />
<path d="M1299.125,875.2665898254845 L1299.125,905.9834101745155" close="False" data-weight="1.75" stroke-width="6" fill="none" stroke="#377eb8" />
<path d="M1315.9530411871049,834.6401045634026 L1359.6401045634027,790.953041187105" close="False" data-weight="2.060660171779821" stroke-width="6" fill="none" stroke="#377eb8" />
<path d="M1319.0349025766973,644.0349025766973 L1362.2150974233027,687.2150974233027" close="False" data-weight="2.060660171779821" stroke-width="6" fill="none" stroke="#377eb8" />
<path d="M1244.0349025766973,1212.2150974233027 L1287.2150974233027,1169.0349025766973" close="False" data-weight="2.060660171779821" stroke-width="6" fill="none" stroke="#377eb8" />
<path d="M1244.0349025766973,569.0349025766973 L1287.2150974233027,612.2150974233027" close="False" data-weight="2.060660171779821" stroke-width="6" fill="none" stroke="#377eb8" />
<path d="M1169.0349025766973,1287.2150974233027 L1212.2150974233027,1244.0349025766973" close="False" data-weight="2.060660171779821" stroke-width="6" fill="none" stroke="#377eb8" />
<path d="M1169.0349025766973,494.03490257669733 L1212.2150974233027,537.2150974233027" close="False" data-weight="2.060660171779821" stroke-width="6" fill="none" stroke="#377eb8" />
<path d="M1094.0349025766973,1362.2150974233027 L1137.2150974233027,1319.0349025766973" close="False" data-weight="2.060660171779821" stroke-width="6" fill="none" stroke="#377eb8" />
<path d="M1094.0349025766973,419.03490257669733 L1137.2150974233027,462.21509742330267" close="False" data-weight="2.060660171779821" stroke-width="6" fill="none" stroke="#377eb8" />
<path d="M1019.0349025766973,1437.2150974233027 L1062.2150974233027,1394.0349025766973" close="False" data-weight="2.060660171779821" stroke-width="6" fill="none" stroke="#377eb8" />
<path d="M1019.0349025766973,344.03490257669733 L1062.2150974233027,387.21509742330267" close="False" data-weight="2.060660171779821" stroke-width="6" fill="none" stroke="#377eb8" />
<path d="M1003.125,275.625 L1003.125,305.625" close="False" data-weight="1.75" stroke-width="6" fill="none" stroke="#377eb8" />
<path d="M1003.125,200.625 L1003.125,230.625" close="False" data-weight="1.75" stroke-width="6" fill="none" stroke="#377eb8" />
<path d="M1003.125,125.625 L1003.125,155.625" close="False" data-weight="1.75" stroke-width="6" fill="none" stroke="#377eb8" />
<path d="M944.0349025766973,1512.2150974233027 L987.2150974233027,1469.0349025766973" close="False" data-weight="2.060660171779821" stroke-width="6" fill="none" stroke="#377eb8" />
<path d="M950.625,328.125 L980.625,328.125" close="False" data-weight="1.75" stroke-width="6" fill="none" stroke="#377eb8" />
<path d="M869.0349025766973,1587.2150974233027 L912.2150974233027,1544.0349025766973" close="False" data-weight="2.060660171779821" stroke-width="6" fill="none" stroke="#377eb8" />
<path d="M869.0349025766973,387.21509742330267 L912.2150974233027,344.03490257669733" close="False" data-weight="2.060660171779821" stroke-width="6" fill="none" stroke="#377eb8" />
<path d="M800.625,1603.125 L830.625,1603.125" close="False" data-weight="1.75" stroke-width="6" fill="none" stroke="#377eb8" />
<path d="M794.0349025766973,462.21509742330267 L837.2150974233027,419.03490257669733" close="False" data-weight="2.060660171779821" stroke-width="6" fill="none" stroke="#377eb8" />
<path d="M794.0349025766973,344.03490257669733 L837.2150974233027,387.21509742330267" close="False" data-weight="2.060660171779821" stroke-width="6" fill="none" stroke="#377eb8" />
<path d="M725.625,1603.125 L755.625,1603.125" close="False" data-weight="1.75" stroke-width="6" fill="none" stroke="#377eb8" />
<path d="M725.625,478.125 L755.625,478.125" close="False" data-weight="1.75" stroke-width="6" fill="none" stroke="#377eb8" />
<path d="M719.0349025766973,269.03490257669733 L762.2150974233027,312.21509742330267" close="False" data-weight="2.060660171779821" stroke-width="6" fill="none" stroke="#377eb8" />
<path d="M650.625,1603.125 L680.625,1603.125" close="False" data-weight="1.75" stroke-width="6" fill="none" stroke="#377eb8" />
<path d="M650.625,478.125 L680.625,478.125" close="False" data-weight="1.75" stroke-width="6" fill="none" stroke="#377eb8" />
<path d="M575.2665898254845,1599.125 L605.9834101745155,1599.125" close="False" data-weight="1.75" stroke-width="6" fill="none" stroke="#377eb8" />
<path d="M569.0349025766973,537.2150974233027 L612.2150974233027,494.03490257669733" close="False" data-weight="2.060660171779821" stroke-width="6" fill="none" stroke="#377eb8" />
<path d="M500.2665898254845,1599.125 L530.9834101745155,1599.125" close="False" data-weight="1.75" stroke-width="6" fill="none" stroke="#377eb8" />
<path d="M425.2665898254845,1599.125 L455.9834101745155,1599.125" close="False" data-weight="1.75" stroke-width="6" fill="none" stroke="#377eb8" />
<path d="M2432.125,1055.9834101745155 C2432.125,1067.0542050872577,2432.125,1089.1957949127423,2432.125,1100.2665898254845" close="False" data-weight="0.0" stroke-width="6" fill="none" stroke="#e41a1c" />
<path d="M2432.125,1025.2665898254845 A57.45452644918714,57.45452644918714,0,0,0,2427.7515345873453,1003.2796944389988 M2427.7515345873453,1003.2796944389988 A57.45452644918701,57.45452644918701,0,0,0,2415.296958812895,984.6401045634026 M2415.296958812895,984.6401045634026" close="False" data-weight="1.0" stroke-width="6" fill="none" stroke="#e41a1c" />
<path d="M2369.0349025766973,1662.2150974233027 C2361.0799512883486,1670.1700487116514,2345.1700487116514,1686.0799512883486,2337.2150974233027,1694.0349025766973" close="False" data-weight="0.0" stroke-width="6" fill="none" stroke="#e41a1c" />
<path d="M2375.625,1153.125 A54.31980515339296,54.31980515339296,0,0,0,2354.8377105184964,1157.2598489621723 M2354.8377105184964,1157.2598489621723 A54.31980515340005,54.31980515340005,0,0,0,2337.2150974233027,1169.0349025766973 M2337.2150974233027,1169.0349025766973" close="False" data-weight="1.0" stroke-width="6" fill="none" stroke="#e41a1c" />
<path d="M2357.125,875.2665898254845 A57.45452644918714,57.45452644918714,0,0,0,2352.7515345873453,853.2796944389988 M2352.7515345873453,853.2796944389988 A57.45452644918701,57.45452644918701,0,0,0,2340.296958812895,834.6401045634026 M2340.296958812895,834.6401045634026" close="False" data-weight="1.0" stroke-width="6" fill="none" stroke="#e41a1c" />
<path d="M2294.0349025766973,1394.0349025766973 C2286.0799512883486,1386.0799512883486,2270.1700487116514,1370.1700487116514,2262.2150974233027,1362.2150974233027" close="False" data-weight="0.0" stroke-width="6" fill="none" stroke="#e41a1c" />
<path d="M2294.0349025766973,1212.2150974233027 C2286.0799512883486,1220.1700487116514,2270.1700487116514,1236.0799512883486,2262.2150974233027,1244.0349025766973" close="False" data-weight="0.0" stroke-width="6" fill="none" stroke="#e41a1c" />
<path d="M2296.6098954365975,790.953041187105 C2288.781661280672,783.1248070311793,2273.1251929688206,767.4683387193282,2265.296958812895,759.6401045634026" close="False" data-weight="0.0" stroke-width="6" fill="none" stroke="#e41a1c" />
<path d="M2296.6098954365975,690.296958812895 A57.454526449187085,57.454526449187085,0,0,1,2277.970305561001,702.7515345873453 M2277.970305561001,702.7515345873453 A57.45452644918703,57.45452644918703,0,0,1,2255.9834101745155,707.125 M2255.9834101745155,707.125" close="False" data-weight="1.0" stroke-width="6" fill="none" stroke="#e41a1c" />
<path d="M2199.125,755.9834101745155 A49.45452644918532,49.45452644918532,0,0,1,2195.360498327255,774.9088381020804 M2195.360498327255,774.9088381020804 A49.454526449188386,49.454526449188386,0,0,1,2184.6401045634025,790.953041187105 M2184.6401045634025,790.953041187105" close="False" data-weight="1.0" stroke-width="6" fill="none" stroke="#e41a1c" />
<path d="M2140.953041187105,834.6401045634026 C2133.1248070311794,842.4683387193282,2117.468338719328,858.1248070311793,2109.6401045634025,865.953041187105" close="False" data-weight="0.0" stroke-width="6" fill="none" stroke="#e41a1c" />
<path d="M1828.125,1505.625 C1828.125,1516.875,1828.125,1539.375,1828.125,1550.625" close="False" data-weight="0.0" stroke-width="6" fill="none" stroke="#e41a1c" />
<path d="M1775.625,1828.125 C1764.375,1828.125,1741.875,1828.125,1730.625,1828.125" close="False" data-weight="0.0" stroke-width="6" fill="none" stroke="#e41a1c" />
<path d="M1700.625,1828.125 C1689.375,1828.125,1666.875,1828.125,1655.625,1828.125" close="False" data-weight="0.0" stroke-width="6" fill="none" stroke="#e41a1c" />
<path d="M1625.625,1828.125 C1614.375,1828.125,1591.875,1828.125,1580.625,1828.125" close="False" data-weight="0.0" stroke-width="6" fill="none" stroke="#e41a1c" />
<path d="M1550.625,1828.125 C1539.375,1828.125,1516.875,1828.125,1505.625,1828.125" close="False" data-weight="0.0" stroke-width="6" fill="none" stroke="#e41a1c" />
<path d="M1540.9530411871049,834.6401045634026 A57.45452644918669,57.45452644918669,0,0,0,1528.4984654126547,853.2796944389988 M1528.4984654126547,853.2796944389988 A57.45452644918714,57.45452644918714,0,0,0,1524.125,875.2665898254845 M1524.125,875.2665898254845" close="False" data-weight="1.0" stroke-width="6" fill="none" stroke="#e41a1c" />
<path d="M1540.95304118709,721.6098954365825 A49.45452644911194,49.45452644911194,0,0,0,1524.9088381020722,710.8895016727395 M1524.9088381020722,710.8895016727395 A49.45452644921295,49.45452644921295,0,0,0,1505.9834101745155,707.125 M1505.9834101745155,707.125" close="False" data-weight="1.0" stroke-width="6" fill="none" stroke="#e41a1c" />
<path d="M1475.625,1828.125 A54.31980515339569,54.31980515339569,0,0,0,1454.837710518496,1832.2598489621723 M1454.837710518496,1832.2598489621723 A54.3198051533933,54.3198051533933,0,0,0,1437.2150974233027,1844.0349025766973 M1437.2150974233027,1844.0349025766973" close="False" data-weight="1.0" stroke-width="6" fill="none" stroke="#e41a1c" />
<path d="M1471.6098954365973,615.296958812895 A49.45452644918823,49.45452644918823,0,0,0,1460.889501672745,631.3411618979195 M1460.889501672745,631.3411618979195 A49.45452644918555,49.45452644918555,0,0,0,1457.125,650.2665898254845 M1457.125,650.2665898254845" close="False" data-weight="1.0" stroke-width="6" fill="none" stroke="#e41a1c" />
<path d="M1307.125,2180.9834101745155 C1307.125,2192.0542050872577,1307.125,2214.1957949127423,1307.125,2225.2665898254845" close="False" data-weight="0.0" stroke-width="6" fill="none" stroke="#e41a1c" />
<path d="M1307.125,2105.9834101745155 C1307.125,2117.0542050872577,1307.125,2139.1957949127423,1307.125,2150.2665898254845" close="False" data-weight="0.0" stroke-width="6" fill="none" stroke="#e41a1c" />
<path d="M1307.125,2030.9834101745155 C1307.125,2042.0542050872577,1307.125,2064.1957949127423,1307.125,2075.2665898254845" close="False" data-weight="0.0" stroke-width="6" fill="none" stroke="#e41a1c" />
<path d="M1321.6098954365973,1965.2969588128951 A49.45452644918799,49.45452644918799,0,0,0,1310.889501672745,1981.3411618979196 M1310.889501672745,1981.3411618979196 A49.45452644918555,49.45452644918555,0,0,0,1307.125,2000.2665898254845 M1307.125,2000.2665898254845" close="False" data-weight="1.0" stroke-width="6" fill="none" stroke="#e41a1c" />
<path d="M1307.125,1775.2665898254845 A57.45452644918714,57.45452644918714,0,0,0,1302.7515345873453,1753.2796944389988 M1302.7515345873453,1753.2796944389988 A57.454526449186446,57.454526449186446,0,0,0,1290.2969588128951,1734.6401045634027 M1290.2969588128951,1734.6401045634027" close="False" data-weight="1.0" stroke-width="6" fill="none" stroke="#e41a1c" />
<path d="M1303.125,1505.625 C1303.125,1516.875,1303.125,1539.375,1303.125,1550.625" close="False" data-weight="0.0" stroke-width="6" fill="none" stroke="#e41a1c" />
<path d="M1303.125,1430.625 C1303.125,1441.875,1303.125,1464.375,1303.125,1475.625" close="False" data-weight="0.0" stroke-width="6" fill="none" stroke="#e41a1c" />
<path d="M1303.125,1355.625 C1303.125,1366.875,1303.125,1389.375,1303.125,1400.625" close="False" data-weight="0.0" stroke-width="6" fill="none" stroke="#e41a1c" />
<path d="M1303.125,1280.625 C1303.125,1291.875,1303.125,1314.375,1303.125,1325.625" close="False" data-weight="0.0" stroke-width="6" fill="none" stroke="#e41a1c" />
<path d="M1303.125,1205.625 C1303.125,1216.875,1303.125,1239.375,1303.125,1250.625" close="False" data-weight="0.0" stroke-width="6" fill="none" stroke="#e41a1c" />
<path d="M1307.125,1055.9834101745155 C1307.125,1067.0542050872577,1307.125,1089.1957949127423,1307.125,1100.2665898254845" close="False" data-weight="0.0" stroke-width="6" fill="none" stroke="#e41a1c" />
<path d="M1307.125,905.9834101745155 C1307.125,917.0542050872577,1307.125,939.1957949127423,1307.125,950.2665898254845" close="False" data-weight="0.0" stroke-width="6" fill="none" stroke="#e41a1c" />
<path d="M1321.6098954365973,840.296958812895 A49.45452644918823,49.45452644918823,0,0,0,1310.889501672745,856.3411618979195 M1310.889501672745,856.3411618979195 A49.45452644918555,49.45452644918555,0,0,0,1307.125,875.2665898254845 M1307.125,875.2665898254845" close="False" data-weight="1.0" stroke-width="6" fill="none" stroke="#e41a1c" />
<path d="M2432.125,1100.2665898254845 L2432.125,1130.9834101745155" close="False" data-weight="1.75" stroke-width="6" fill="none" stroke="#e41a1c" />
<path d="M2432.125,1025.2665898254845 L2432.125,1055.9834101745155" close="False" data-weight="1.75" stroke-width="6" fill="none" stroke="#e41a1c" />
<path d="M2369.0349025766973,1662.2150974233027 L2412.2150974233027,1619.0349025766973" close="False" data-weight="2.060660171779821" stroke-width="6" fill="none" stroke="#e41a1c" />
<path d="M2369.0349025766973,1544.0349025766973 L2412.2150974233027,1587.2150974233027" close="False" data-weight="2.060660171779821" stroke-width="6" fill="none" stroke="#e41a1c" />
<path d="M2353.125,1475.625 L2353.125,1505.625" close="False" data-weight="1.75" stroke-width="6" fill="none" stroke="#e41a1c" />
<path d="M2375.625,1153.125 L2405.625,1153.125" close="False" data-weight="1.75" stroke-width="6" fill="none" stroke="#e41a1c" />
<path d="M2371.6098954365975,940.953041187105 L2415.296958812895,984.6401045634026" close="False" data-weight="2.060660171779821" stroke-width="6" fill="none" stroke="#e41a1c" />
<path d="M2357.125,875.2665898254845 L2357.125,905.9834101745155" close="False" data-weight="1.75" stroke-width="6" fill="none" stroke="#e41a1c" />
<path d="M2294.0349025766973,1737.2150974233027 L2337.2150974233027,1694.0349025766973" close="False" data-weight="2.060660171779821" stroke-width="6" fill="none" stroke="#e41a1c" />
<path d="M2294.0349025766973,1394.0349025766973 L2337.2150974233027,1437.2150974233027" close="False" data-weight="2.060660171779821" stroke-width="6" fill="none" stroke="#e41a1c" />
<path d="M2294.0349025766973,1212.2150974233027 L2337.2150974233027,1169.0349025766973" close="False" data-weight="2.060660171779821" stroke-width="6" fill="none" stroke="#e41a1c" />
<path d="M2296.6098954365975,790.953041187105 L2340.296958812895,834.6401045634026" close="False" data-weight="2.060660171779821" stroke-width="6" fill="none" stroke="#e41a1c" />
<path d="M2296.6098954365975,690.296958812895 L2340.296958812895,646.6098954365974" close="False" data-weight="2.060660171779821" stroke-width="6" fill="none" stroke="#e41a1c" />
<path d="M2225.625,1753.125 L2255.625,1753.125" close="False" data-weight="1.75" stroke-width="6" fill="none" stroke="#e41a1c" />
<path d="M2219.0349025766973,1319.0349025766973 L2262.2150974233027,1362.2150974233027" close="False" data-weight="2.060660171779821" stroke-width="6" fill="none" stroke="#e41a1c" />
<path d="M2219.0349025766973,1287.2150974233027 L2262.2150974233027,1244.0349025766973" close="False" data-weight="2.060660171779821" stroke-width="6" fill="none" stroke="#e41a1c" />
<path d="M2199.125,725.2665898254845 L2199.125,755.9834101745155" close="False" data-weight="1.75" stroke-width="6" fill="none" stroke="#e41a1c" />
<path d="M2221.6098954365975,715.953041187105 L2265.296958812895,759.6401045634026" close="False" data-weight="2.060660171779821" stroke-width="6" fill="none" stroke="#e41a1c" />
<path d="M2225.2665898254845,707.125 L2255.9834101745155,707.125" close="False" data-weight="1.75" stroke-width="6" fill="none" stroke="#e41a1c" />
<path d="M2144.0349025766973,1812.2150974233027 L2187.2150974233027,1769.0349025766973" close="False" data-weight="2.060660171779821" stroke-width="6" fill="none" stroke="#e41a1c" />
<path d="M2140.953041187105,834.6401045634026 L2184.6401045634025,790.953041187105" close="False" data-weight="2.060660171779821" stroke-width="6" fill="none" stroke="#e41a1c" />
<path d="M2069.0349025766973,1887.2150974233027 L2112.2150974233027,1844.0349025766973" close="False" data-weight="2.060660171779821" stroke-width="6" fill="none" stroke="#e41a1c" />
<path d="M2065.9530411871347,909.6401045633729 L2109.6401045634025,865.953041187105" close="False" data-weight="2.060660171779821" stroke-width="6" fill="none" stroke="#e41a1c" />
<path d="M1994.0349025766973,1844.0349025766973 L2037.2150974233027,1887.2150974233027" close="False" data-weight="2.060660171779821" stroke-width="6" fill="none" stroke="#e41a1c" />
<path d="M1994.0349025766973,1469.0349025766973 L2037.2150974233027,1512.2150974233027" close="False" data-weight="2.060660171779821" stroke-width="6" fill="none" stroke="#e41a1c" />
<path d="M1919.0349025766973,1769.0349025766973 L1962.2150974233027,1812.2150974233027" close="False" data-weight="2.060660171779821" stroke-width="6" fill="none" stroke="#e41a1c" />
<path d="M1903.125,1700.625 L1903.125,1730.625" close="False" data-weight="1.75" stroke-width="6" fill="none" stroke="#e41a1c" />
<path d="M1919.0349025766973,1394.0349025766973 L1962.2150974233027,1437.2150974233027" close="False" data-weight="2.060660171779821" stroke-width="6" fill="none" stroke="#e41a1c" />
<path d="M1828.125,1775.625 L1828.125,1805.625" close="False" data-weight="1.75" stroke-width="6" fill="none" stroke="#e41a1c" />
<path d="M1850.625,1753.125 L1880.625,1753.125" close="False" data-weight="1.75" stroke-width="6" fill="none" stroke="#e41a1c" />
<path d="M1844.0349025766973,1619.0349025766973 L1887.2150974233027,1662.2150974233027" close="False" data-weight="2.060660171779821" stroke-width="6" fill="none" stroke="#e41a1c" />
<path d="M1828.125,1550.625 L1828.125,1580.625" close="False" data-weight="1.75" stroke-width="6" fill="none" stroke="#e41a1c" />
<path d="M1828.125,1475.625 L1828.125,1505.625" close="False" data-weight="1.75" stroke-width="6" fill="none" stroke="#e41a1c" />
<path d="M1844.0349025766973,1437.2150974233027 L1887.2150974233027,1394.0349025766973" close="False" data-weight="2.060660171779821" stroke-width="6" fill="none" stroke="#e41a1c" />
<path d="M1775.625,1828.125 L1805.625,1828.125" close="False" data-weight="1.75" stroke-width="6" fill="none" stroke="#e41a1c" />
<path d="M1700.625,1828.125 L1730.625,1828.125" close="False" data-weight="1.75" stroke-width="6" fill="none" stroke="#e41a1c" />
<path d="M1625.625,1828.125 L1655.625,1828.125" close="False" data-weight="1.75" stroke-width="6" fill="none" stroke="#e41a1c" />
<path d="M1550.625,1828.125 L1580.625,1828.125" close="False" data-weight="1.75" stroke-width="6" fill="none" stroke="#e41a1c" />
<path d="M1524.125,875.2665898254845 L1524.125,905.9834101745155" close="False" data-weight="1.75" stroke-width="6" fill="none" stroke="#e41a1c" />
<path d="M1540.9530411871049,834.6401045634026 L1584.6401045634027,790.953041187105" close="False" data-weight="2.060660171779821" stroke-width="6" fill="none" stroke="#e41a1c" />
<path d="M1540.95304118709,721.6098954365825 L1584.6401045634027,765.296958812895" close="False" data-weight="2.060660171779821" stroke-width="6" fill="none" stroke="#e41a1c" />
<path d="M1532.125,500.2665898254845 L1532.125,530.9834101745155" close="False" data-weight="1.75" stroke-width="6" fill="none" stroke="#e41a1c" />
<path d="M1550.2665898254845,482.125 L1580.9834101745155,482.125" close="False" data-weight="1.75" stroke-width="6" fill="none" stroke="#e41a1c" />
<path d="M1475.625,1828.125 L1505.625,1828.125" close="False" data-weight="1.75" stroke-width="6" fill="none" stroke="#e41a1c" />
<path d="M1475.2665898254845,707.125 L1505.9834101745155,707.125" close="False" data-weight="1.75" stroke-width="6" fill="none" stroke="#e41a1c" />
<path d="M1457.125,650.2665898254845 L1457.125,680.9834101745155" close="False" data-weight="1.75" stroke-width="6" fill="none" stroke="#e41a1c" />
<path d="M1471.6098954365973,615.296958812895 L1515.2969588128951,571.6098954365974" close="False" data-weight="2.060660171779821" stroke-width="6" fill="none" stroke="#e41a1c" />
<path d="M1394.0349025766973,1887.2150974233027 L1437.2150974233027,1844.0349025766973" close="False" data-weight="2.060660171779821" stroke-width="6" fill="none" stroke="#e41a1c" />
<path d="M1382.125,725.2665898254845 L1382.125,755.9834101745155" close="False" data-weight="1.75" stroke-width="6" fill="none" stroke="#e41a1c" />
<path d="M1400.2665898254845,707.125 L1430.9834101745155,707.125" close="False" data-weight="1.75" stroke-width="6" fill="none" stroke="#e41a1c" />
<path d="M1307.125,2225.2665898254845 L1307.125,2255.9834101745155" close="False" data-weight="1.75" stroke-width="6" fill="none" stroke="#e41a1c" />
<path d="M1307.125,2150.2665898254845 L1307.125,2180.9834101745155" close="False" data-weight="1.75" stroke-width="6" fill="none" stroke="#e41a1c" />
<path d="M1307.125,2075.2665898254845 L1307.125,2105.9834101745155" close="False" data-weight="1.75" stroke-width="6" fill="none" stroke="#e41a1c" />
<path d="M1307.125,2000.2665898254845 L1307.125,2030.9834101745155" close="False" data-weight="1.75" stroke-width="6" fill="none" stroke="#e41a1c" />
<path d="M1321.6098954365973,1965.2969588128951 L1365.2969588128951,1921.6098954365973" close="False" data-weight="2.060660171779821" stroke-width="6" fill="none" stroke="#e41a1c" />
<path d="M1321.6098954365973,1840.9530411871049 L1365.2969588128951,1884.6401045634027" close="False" data-weight="2.060660171779821" stroke-width="6" fill="none" stroke="#e41a1c" />
<path d="M1307.125,1775.2665898254845 L1307.125,1805.9834101745155" close="False" data-weight="1.75" stroke-width="6" fill="none" stroke="#e41a1c" />
<path d="M1303.125,1550.625 L1303.125,1580.625" close="False" data-weight="1.75" stroke-width="6" fill="none" stroke="#e41a1c" />
<path d="M1303.125,1475.625 L1303.125,1505.625" close="False" data-weight="1.75" stroke-width="6" fill="none" stroke="#e41a1c" />
<path d="M1303.125,1400.625 L1303.125,1430.625" close="False" data-weight="1.75" stroke-width="6" fill="none" stroke="#e41a1c" />
<path d="M1303.125,1325.625 L1303.125,1355.625" close="False" data-weight="1.75" stroke-width="6" fill="none" stroke="#e41a1c" />
<path d="M1303.125,1250.625 L1303.125,1280.625" close="False" data-weight="1.75" stroke-width="6" fill="none" stroke="#e41a1c" />
<path d="M1303.125,1175.625 L1303.125,1205.625" close="False" data-weight="1.75" stroke-width="6" fill="none" stroke="#e41a1c" />
<path d="M1325.2665898254845,1149.125 L1355.9834101745155,1149.125" close="False" data-weight="1.75" stroke-width="6" fill="none" stroke="#e41a1c" />
<path d="M1307.125,1100.2665898254845 L1307.125,1130.9834101745155" close="False" data-weight="1.75" stroke-width="6" fill="none" stroke="#e41a1c" />
<path d="M1307.125,1025.2665898254845 L1307.125,1055.9834101745155" close="False" data-weight="1.75" stroke-width="6" fill="none" stroke="#e41a1c" />
<path d="M1307.125,950.2665898254845 L1307.125,980.9834101745155" close="False" data-weight="1.75" stroke-width="6" fill="none" stroke="#e41a1c" />
<path d="M1307.125,875.2665898254845 L1307.125,905.9834101745155" close="False" data-weight="1.75" stroke-width="6" fill="none" stroke="#e41a1c" />
<path d="M1321.6098954365973,840.296958812895 L1365.2969588128951,796.6098954365974" close="False" data-weight="2.060660171779821" stroke-width="6" fill="none" stroke="#e41a1c" />
<path d="M1246.6098954365973,1690.9530411871049 L1290.2969588128653,1734.640104563373" close="False" data-weight="2.060660171779821" stroke-width="6" fill="none" stroke="#e41a1c" />
<path d="M1246.6098954365973,1665.2969588128951 L1290.2969588129247,1621.6098954365677" close="False" data-weight="2.060660171779821" stroke-width="6" fill="none" stroke="#e41a1c" />
<image x="2395.625" y="1570.625" width="65" height="65" xlink:href="designspace-test/./img/ds_dataset2_60_8_thumb.png">
<title>8</title>
</image>
<image x="2395.625" y="1120.625" width="65" height="65" xlink:href="designspace-test/./img/ds_dataset2_60_50_thumb.png">
<title>50</title>
</image>
<image x="2320.625" y="1495.625" width="65" height="65" xlink:href="designspace-test/./img/ds_dataset2_60_36_thumb.png">
<title>36</title>
</image>
<image x="2320.625" y="1420.625" width="65" height="65" xlink:href="designspace-test/./img/ds_dataset2_60_41_thumb.png">
<title>41</title>
</image>
<image x="2320.625" y="895.625" width="65" height="65" xlink:href="designspace-test/./img/ds_dataset2_60_29_thumb.png">
<title>29</title>
</image>
<image x="2320.625" y="595.625" width="65" height="65" xlink:href="designspace-test/./img/ds_dataset2_60_31_thumb.png">
<title>31</title>
</image>
<image x="2245.625" y="1720.625" width="65" height="65" xlink:href="designspace-test/./img/ds_dataset2_60_46_thumb.png">
<title>46</title>
</image>
<image x="2170.625" y="1720.625" width="65" height="65" xlink:href="designspace-test/./img/ds_dataset2_60_17_thumb.png">
<title>17</title>
</image>
<image x="2170.625" y="1270.625" width="65" height="65" xlink:href="designspace-test/./img/ds_dataset2_60_32_thumb.png">
<title>32</title>
</image>
<image x="2170.625" y="670.625" width="65" height="65" xlink:href="designspace-test/./img/ds_dataset2_60_10_thumb.png">
<title>10</title>
</image>
<image x="2095.625" y="1795.625" width="65" height="65" xlink:href="designspace-test/./img/ds_dataset2_60_1_thumb.png">
<title>1</title>
</image>
<image x="2020.625" y="1870.625" width="65" height="65" xlink:href="designspace-test/./img/ds_dataset2_60_37_thumb.png">
<title>37</title>
</image>
<image x="2020.625" y="1495.625" width="65" height="65" xlink:href="designspace-test/./img/ds_dataset2_60_43_thumb.png">
<title>43</title>
</image>
<image x="2020.625" y="895.625" width="65" height="65" xlink:href="designspace-test/./img/ds_dataset2_60_12_thumb.png">
<title>12</title>
</image>
<image x="2020.625" y="220.625" width="65" height="65" xlink:href="designspace-test/./img/ds_dataset2_60_21_thumb.png">
<title>21</title>
</image>
<image x="1945.625" y="1795.625" width="65" height="65" xlink:href="designspace-test/./img/ds_dataset2_60_54_thumb.png">
<title>54</title>
</image>
<image x="1945.625" y="1420.625" width="65" height="65" xlink:href="designspace-test/./img/ds_dataset2_60_44_thumb.png">
<title>44</title>
</image>
<image x="1870.625" y="1720.625" width="65" height="65" xlink:href="designspace-test/./img/ds_dataset2_60_56_thumb.png">
<title>56</title>
</image>
<image x="1870.625" y="1645.625" width="65" height="65" xlink:href="designspace-test/./img/ds_dataset2_60_49_thumb.png">
<title>49</title>
</image>
<image x="1870.625" y="1345.625" width="65" height="65" xlink:href="designspace-test/./img/ds_dataset2_60_9_thumb.png">
<title>9</title>
</image>
<image x="1870.625" y="145.625" width="65" height="65" xlink:href="designspace-test/./img/ds_dataset2_60_15_thumb.png">
<title>15</title>
</image>
<image x="1795.625" y="1795.625" width="65" height="65" xlink:href="designspace-test/./img/ds_dataset2_60_53_thumb.png">
<title>53</title>
</image>
<image x="1795.625" y="1720.625" width="65" height="65" xlink:href="designspace-test/./img/ds_dataset2_60_58_thumb.png">
<title>58</title>
</image>
<image x="1795.625" y="1570.625" width="65" height="65" xlink:href="designspace-test/./img/ds_dataset2_60_30_thumb.png">
<title>30</title>
</image>
<image x="1795.625" y="1420.625" width="65" height="65" xlink:href="designspace-test/./img/ds_dataset2_60_20_thumb.png">
<title>20</title>
</image>
<image x="1570.625" y="745.625" width="65" height="65" xlink:href="designspace-test/./img/ds_dataset2_60_39_thumb.png">
<title>39</title>
</image>
<image x="1570.625" y="445.625" width="65" height="65" xlink:href="designspace-test/./img/ds_dataset2_60_26_thumb.png">
<title>26</title>
</image>
<image x="1495.625" y="2395.625" width="65" height="65" xlink:href="designspace-test/./img/ds_dataset2_60_5_thumb.png">
<title>5</title>
</image>
<image x="1495.625" y="895.625" width="65" height="65" xlink:href="designspace-test/./img/ds_dataset2_60_11_thumb.png">
<title>11</title>
</image>
<image x="1495.625" y="520.625" width="65" height="65" xlink:href="designspace-test/./img/ds_dataset2_60_24_thumb.png">
<title>24</title>
</image>
<image x="1495.625" y="445.625" width="65" height="65" xlink:href="designspace-test/./img/ds_dataset2_60_38_thumb.png">
<title>38</title>
</image>
<image x="1420.625" y="670.625" width="65" height="65" xlink:href="designspace-test/./img/ds_dataset2_60_18_thumb.png">
<title>18</title>
</image>
<image x="1345.625" y="1870.625" width="65" height="65" xlink:href="designspace-test/./img/ds_dataset2_60_4_thumb.png">
<title>4</title>
</image>
<image x="1345.625" y="1120.625" width="65" height="65" xlink:href="designspace-test/./img/ds_dataset2_60_51_thumb.png">
<title>51</title>
</image>
<image x="1345.625" y="745.625" width="65" height="65" xlink:href="designspace-test/./img/ds_dataset2_60_16_thumb.png">
<title>16</title>
</image>
<image x="1345.625" y="670.625" width="65" height="65" xlink:href="designspace-test/./img/ds_dataset2_60_19_thumb.png">
<title>19</title>
</image>
<image x="1270.625" y="2245.625" width="65" height="65" xlink:href="designspace-test/./img/ds_dataset2_60_6_thumb.png">
<title>6</title>
</image>
<image x="1270.625" y="1795.625" width="65" height="65" xlink:href="designspace-test/./img/ds_dataset2_60_34_thumb.png">
<title>34</title>
</image>
<image x="1270.625" y="1570.625" width="65" height="65" xlink:href="designspace-test/./img/ds_dataset2_60_23_thumb.png">
<title>23</title>
</image>
<image x="1270.625" y="1120.625" width="65" height="65" xlink:href="designspace-test/./img/ds_dataset2_60_55_thumb.png">
<title>55</title>
</image>
<image x="1270.625" y="970.625" width="65" height="65" xlink:href="designspace-test/./img/ds_dataset2_60_13_thumb.png">
<title>13</title>
</image>
<image x="1195.625" y="1645.625" width="65" height="65" xlink:href="designspace-test/./img/ds_dataset2_60_14_thumb.png">
<title>14</title>
</image>
<image x="970.625" y="295.625" width="65" height="65" xlink:href="designspace-test/./img/ds_dataset2_60_22_thumb.png">
<title>22</title>
</image>
<image x="970.625" y="145.625" width="65" height="65" xlink:href="designspace-test/./img/ds_dataset2_60_25_thumb.png">
<title>25</title>
</image>
<image x="970.625" y="70.625" width="65" height="65" xlink:href="designspace-test/./img/ds_dataset2_60_40_thumb.png">
<title>40</title>
</image>
<image x="895.625" y="295.625" width="65" height="65" xlink:href="designspace-test/./img/ds_dataset2_60_45_thumb.png">
<title>45</title>
</image>
<image x="820.625" y="370.625" width="65" height="65" xlink:href="designspace-test/./img/ds_dataset2_60_7_thumb.png">
<title>7</title>
</image>
<image x="745.625" y="2245.625" width="65" height="65" xlink:href="designspace-test/./img/ds_dataset2_60_47_thumb.png">
<title>47</title>
</image>
<image x="745.625" y="2095.625" width="65" height="65" xlink:href="designspace-test/./img/ds_dataset2_60_52_thumb.png">
<title>52</title>
</image>
<image x="745.625" y="445.625" width="65" height="65" xlink:href="designspace-test/./img/ds_dataset2_60_2_thumb.png">
<title>2</title>
</image>
<image x="670.625" y="2170.625" width="65" height="65" xlink:href="designspace-test/./img/ds_dataset2_60_59_thumb.png">
<title>59</title>
</image>
<image x="670.625" y="220.625" width="65" height="65" xlink:href="designspace-test/./img/ds_dataset2_60_0_thumb.png">
<title>0</title>
</image>
<image x="595.625" y="2020.625" width="65" height="65" xlink:href="designspace-test/./img/ds_dataset2_60_42_thumb.png">
<title>42</title>
</image>
<image x="595.625" y="1945.625" width="65" height="65" xlink:href="designspace-test/./img/ds_dataset2_60_35_thumb.png">
<title>35</title>
</image>
<image x="595.625" y="1345.625" width="65" height="65" xlink:href="designspace-test/./img/ds_dataset2_60_48_thumb.png">
<title>48</title>
</image>
<image x="520.625" y="520.625" width="65" height="65" xlink:href="designspace-test/./img/ds_dataset2_60_27_thumb.png">
<title>27</title>
</image>
<image x="370.625" y="1570.625" width="65" height="65" xlink:href="designspace-test/./img/ds_dataset2_60_57_thumb.png">
<title>57</title>
</image>
<image x="295.625" y="1120.625" width="65" height="65" xlink:href="designspace-test/./img/ds_dataset2_60_28_thumb.png">
<title>28</title>
</image>
<image x="295.625" y="1045.625" width="65" height="65" xlink:href="designspace-test/./img/ds_dataset2_60_33_thumb.png">
<title>33</title>
</image>
<image x="70.625" y="1495.625" width="65" height="65" xlink:href="designspace-test/./img/ds_dataset2_60_3_thumb.png">
<title>3</title>
</image>
</svg>