<?xml version="1.0" encoding="UTF-8"?>
<svg xmlns="http://www.w3.org/2000/svg" xmlns:xlink="http://www.w3.org/1999/xlink"
     width="2550" height="2550" viewBox="0 0 2550 2550">
<defs>
</defs>
<path d="M2069.0349025766973,1244.0349025766973 C2061.0799512883486,1236.0799512883486,2045.1700487116514,1220.1700487116514,2037.2150974233027,1212.2150974233027" close="False" data-weight="0.0" stroke-width="6" fill="none" stroke="#ffff33" />
<path d="M2053.125,905.625 A54.31980515339637,54.31980515339637,0,0,1,2048.990151037828,926.412289481504 M2048.990151037828,926.412289481504 A54.31980515339273,54.31980515339273,0,0,1,2037.2150974233027,944.0349025766973 M2037.2150974233027,944.0349025766973" close="False" data-weight="1.0" stroke-width="6" fill="none" stroke="#ffff33" />
<path d="M2053.125,830.625 C2053.125,841.875,2053.125,864.375,2053.125,875.625" close="False" data-weight="0.0" stroke-width="6" fill="none" stroke="#ffff33" />
<path d="M2057.125,755.9834101745155 C2057.125,767.1885193388287,2053.125,789.4198908356868,2053.125,800.625" close="False" data-weight="0.0" stroke-width="6" fill="none" stroke="#ffff33" />
<path d="M2057.125,680.9834101745155 C2057.125,692.0542050872577,2057.125,714.1957949127423,2057.125,725.2665898254845" close="False" data-weight="0.0" stroke-width="6" fill="none" stroke="#ffff33" />
<path d="M2057.125,605.9834101745155 C2057.125,617.0542050872577,2057.125,639.1957949127423,2057.125,650.2665898254845" close="False" data-weight="0.0" stroke-width="6" fill="none" stroke="#ffff33" />
<path d="M2057.125,530.9834101745155 C2057.125,542.0542050872577,2057.125,564.1957949127423,2057.125,575.2665898254845" close="False" data-weight="0.0" stroke-width="6" fill="none" stroke="#ffff33" />
<path d="M2057.125,455.9834101745155 C2057.125,467.05420508725774,2057.125,489.19579491274226,2057.125,500.2665898254845" close="False" data-weight="0.0" stroke-width="6" fill="none" stroke="#ffff33" />
<path d="M2053.125,350.625 A54.3198051533966,54.3198051533966,0,0,0,2048.9901510378277,329.8377105184959 M2048.9901510378277,329.8377105184959 A54.31980515339265,54.31980515339265,0,0,0,2037.2150974233027,312.21509742330267 M2037.2150974233027,312.21509742330267" close="False" data-weight="1.0" stroke-width="6" fill="none" stroke="#ffff33" />
<path d="M1994.0349025766973,1169.0349025766973 C1986.0799512883486,1161.0799512883486,1970.1700487116514,1145.1700487116514,1962.2150974233027,1137.2150974233027" close="False" data-weight="0.0" stroke-width="6" fill="none" stroke="#ffff33" />
<path d="M1994.0349025766973,987.2150974233027 C1986.0799512883486,995.1700487116514,1970.1700487116514,1011.0799512883486,1962.2150974233027,1019.0349025766973" close="False" data-weight="0.0" stroke-width="6" fill="none" stroke="#ffff33" />
<path d="M1994.0349025766973,269.03490257669733 C1986.0799512883486,261.0799512883487,1970.1700487116514,245.1700487116513,1962.2150974233027,237.21509742330267" close="False" data-weight="0.0" stroke-width="6" fill="none" stroke="#ffff33" />
<path d="M1919.0349025766973,194.0349025766973 C1911.0799512883486,186.07995128834867,1895.1700487116514,170.1700487116513,1887.2150974233027,162.21509742330267" close="False" data-weight="0.0" stroke-width="6" fill="none" stroke="#ffff33" />
<path d="M1769.0349025766973,44.03490257669731 A54.3198051533952,54.3198051533952,0,0,0,1751.412289481504,32.25984896217222 M1751.412289481504,32.25984896217222 A54.319805153394014,54.319805153394014,0,0,0,1730.625,28.125 M1730.625,28.125" close="False" data-weight="1.0" stroke-width="6" fill="none" stroke="#ffff33" />
<path d="M1700.625,28.125 C1689.375,28.125,1666.875,28.125,1655.625,28.125" close="False" data-weight="0.0" stroke-width="6" fill="none" stroke="#ffff33" />
<path d="M1625.625,28.125 C1614.375,28.125,1591.875,28.125,1580.625,28.125" close="False" data-weight="0.0" stroke-width="6" fill="none" stroke="#ffff33" />
<path d="M1550.625,28.125 C1539.375,28.125,1516.875,28.125,1505.625,28.125" close="False" data-weight="0.0" stroke-width="6" fill="none" stroke="#ffff33" />
<path d="M1475.625,28.125 C1464.375,28.125,1441.875,28.125,1430.625,28.125" close="False" data-weight="0.0" stroke-width="6" fill="none" stroke="#ffff33" />
<path d="M1400.625,28.125 C1389.375,28.125,1366.875,28.125,1355.625,28.125" close="False" data-weight="0.0" stroke-width="6" fill="none" stroke="#ffff33" />
<path d="M1325.625,28.125 C1314.375,28.125,1291.875,28.125,1280.625,28.125" close="False" data-weight="0.0" stroke-width="6" fill="none" stroke="#ffff33" />
<path d="M1250.625,28.125 C1239.375,28.125,1216.875,28.125,1205.625,28.125" close="False" data-weight="0.0" stroke-width="6" fill="none" stroke="#ffff33" />
<path d="M1175.625,28.125 C1164.375,28.125,1141.875,28.125,1130.625,28.125" close="False" data-weight="0.0" stroke-width="6" fill="none" stroke="#ffff33" />
<path d="M1100.625,28.125 A54.31980515339288,54.31980515339288,0,0,0,1079.837710518496,32.25984896217239 M1079.837710518496,32.25984896217239 A54.31980515339624,54.31980515339624,0,0,0,1062.2150974233027,44.03490257669733 M1062.2150974233027,44.03490257669733" close="False" data-weight="1.0" stroke-width="6" fill="none" stroke="#ffff33" />
<path d="M1019.0349025766973,87.2150974233027 C1011.0799512883486,95.17004871165133,995.1700487116514,111.07995128834868,987.2150974233027,119.03490257669732" close="False" data-weight="0.0" stroke-width="6" fill="none" stroke="#ffff33" />
<path d="M944.0349025766973,162.2150974233027 C936.0799512883486,170.17004871165133,920.1700487116514,186.0799512883487,912.2150974233027,194.03490257669733" close="False" data-weight="0.0" stroke-width="6" fill="none" stroke="#ffff33" />
<path d="M869.0349025766973,237.2150974233027 C861.0799512883486,245.17004871165133,845.1700487116514,261.0799512883487,837.2150974233027,269.03490257669733" close="False" data-weight="0.0" stroke-width="6" fill="none" stroke="#ffff33" />
<path d="M640.9530411871012,384.64010456340634 C633.1248070311775,392.46833871933006,617.4683387193301,408.1248070311775,609.6401045634063,415.95304118710123" close="False" data-weight="0.0" stroke-width="6" fill="none" stroke="#ffff33" />
<path d="M644.0349025766973,269.03490257669733 C636.0799512883486,261.0799512883487,620.1700487116514,245.1700487116513,612.2150974233027,237.21509742330267" close="False" data-weight="0.0" stroke-width="6" fill="none" stroke="#ffff33" />
<path d="M565.953041187105,459.6401045634026 A57.454526449186766,57.454526449186766,0,0,0,553.4984654126547,478.27969443899883 M553.4984654126547,478.27969443899883 A57.45452644918703,57.45452644918703,0,0,0,549.125,500.2665898254845 M549.125,500.2665898254845" close="False" data-weight="1.0" stroke-width="6" fill="none" stroke="#ffff33" />
<path d="M553.125,155.625 A54.319805153394555,54.319805153394555,0,0,0,557.2598489621722,176.412289481504 M557.2598489621722,176.412289481504 A54.31980515339474,54.31980515339474,0,0,0,569.0349025766973,194.03490257669733 M569.0349025766973,194.03490257669733" close="False" data-weight="1.0" stroke-width="6" fill="none" stroke="#ffff33" />
<path d="M2069.0349025766973,1244.0349025766973 L2112.2150974233027,1287.2150974233027" close="False" data-weight="2.060660171779821" stroke-width="6" fill="none" stroke="#ffff33" />
<path d="M2053.125,875.625 L2053.125,905.625" close="False" data-weight="1.75" stroke-width="6" fill="none" stroke="#ffff33" />
<path d="M2053.125,800.625 L2053.125,830.625" close="False" data-weight="1.75" stroke-width="6" fill="none" stroke="#ffff33" />
<path d="M2057.125,725.2665898254845 L2057.125,755.9834101745155" close="False" data-weight="1.75" stroke-width="6" fill="none" stroke="#ffff33" />
<path d="M2057.125,650.2665898254845 L2057.125,680.9834101745155" close="False" data-weight="1.75" stroke-width="6" fill="none" stroke="#ffff33" />
<path d="M2057.125,575.2665898254845 L2057.125,605.9834101745155" close="False" data-weight="1.75" stroke-width="6" fill="none" stroke="#ffff33" />
<path d="M2057.125,500.2665898254845 L2057.125,530.9834101745155" close="False" data-weight="1.75" stroke-width="6" fill="none" stroke="#ffff33" />
<path d="M2057.125,425.2665898254845 L2057.125,455.9834101745155" close="False" data-weight="1.75" stroke-width="6" fill="none" stroke="#ffff33" />
<path d="M2053.125,350.625 L2053.125,380.625" close="False" data-weight="1.75" stroke-width="6" fill="none" stroke="#ffff33" />
<path d="M1994.0349025766973,1169.0349025766973 L2037.2150974233027,1212.2150974233027" close="False" data-weight="2.060660171779821" stroke-width="6" fill="none" stroke="#ffff33" />
<path d="M1994.0349025766973,987.2150974233027 L2037.2150974233027,944.0349025766973" close="False" data-weight="2.060660171779821" stroke-width="6" fill="none" stroke="#ffff33" />
<path d="M1994.0349025766973,269.03490257669733 L2037.2150974233027,312.21509742330267" close="False" data-weight="2.060660171779821" stroke-width="6" fill="none" stroke="#ffff33" />
<path d="M1919.0349025766973,1094.0349025766973 L1962.2150974233027,1137.2150974233027" close="False" data-weight="2.060660171779821" stroke-width="6" fill="none" stroke="#ffff33" />
<path d="M1919.0349025766973,1062.2150974233027 L1962.2150974233027,1019.0349025766973" close="False" data-weight="2.060660171779821" stroke-width="6" fill="none" stroke="#ffff33" />
<path d="M1919.0349025766973,194.03490257669733 L1962.2150974233027,237.2150974233027" close="False" data-weight="2.060660171779821" stroke-width="6" fill="none" stroke="#ffff33" />
<path d="M1844.0349025766973,119.03490257669732 L1887.2150974233027,162.2150974233027" close="False" data-weight="2.060660171779821" stroke-width="6" fill="none" stroke="#ffff33" />
<path d="M1769.0349025766973,44.03490257669732 L1812.2150974233027,87.2150974233027" close="False" data-weight="2.060660171779821" stroke-width="6" fill="none" stroke="#ffff33" />
<path d="M1700.625,28.125 L1730.625,28.125" close="False" data-weight="1.75" stroke-width="6" fill="none" stroke="#ffff33" />
<path d="M1625.625,28.125 L1655.625,28.125" close="False" data-weight="1.75" stroke-width="6" fill="none" stroke="#ffff33" />
<path d="M1550.625,28.125 L1580.625,28.125" close="False" data-weight="1.75" stroke-width="6" fill="none" stroke="#ffff33" />
<path d="M1475.625,28.125 L1505.625,28.125" close="False" data-weight="1.75" stroke-width="6" fill="none" stroke="#ffff33" />
<path d="M1400.625,28.125 L1430.625,28.125" close="False" data-weight="1.75" stroke-width="6" fill="none" stroke="#ffff33" />
<path d="M1325.625,28.125 L1355.625,28.125" close="False" data-weight="1.75" stroke-width="6" fill="none" stroke="#ffff33" />
<path d="M1250.625,28.125 L1280.625,28.125" close="False" data-weight="1.75" stroke-width="6" fill="none" stroke="#ffff33" />
<path d="M1175.625,28.125 L1205.625,28.125" close="False" data-weight="1.75" stroke-width="6" fill="none" stroke="#ffff33" />
<path d="M1100.625,28.125 L1130.625,28.125" close="False" data-weight="1.75" stroke-width="6" fill="none" stroke="#ffff33" />
<path d="M1019.0349025766973,87.21509742330268 L1062.2150974233027,44.03490257669731" close="False" data-weight="2.060660171779821" stroke-width="6" fill="none" stroke="#ffff33" />
<path d="M944.0349025766973,162.21509742330267 L987.2150974233027,119.0349025766973" close="False" data-weight="2.060660171779821" stroke-width="6" fill="none" stroke="#ffff33" />
<path d="M869.0349025766973,237.21509742330267 L912.2150974233027,194.0349025766973" close="False" data-weight="2.060660171779821" stroke-width="6" fill="none" stroke="#ffff33" />
<path d="M794.0349025766973,312.21509742330267 L837.2150974233027,269.03490257669733" close="False" data-weight="2.060660171779821" stroke-width="6" fill="none" stroke="#ffff33" />
<path d="M725.2665898254845,324.125 L755.9834101745155,324.125" close="False" data-weight="1.75" stroke-width="6" fill="none" stroke="#ffff33" />
<path d="M640.9530411871012,384.64010456340634 L684.6401045634063,340.95304118710123" close="False" data-weight="2.060660171779821" stroke-width="6" fill="none" stroke="#ffff33" />
<path d="M644.0349025766973,269.03490257669733 L687.2150974233027,312.21509742330267" close="False" data-weight="2.060660171779821" stroke-width="6" fill="none" stroke="#ffff33" />
<path d="M549.125,500.2665898254845 L549.125,530.9834101745155" close="False" data-weight="1.75" stroke-width="6" fill="none" stroke="#ffff33" />
<path d="M565.953041187105,459.6401045634026 L609.6401045634063,415.95304118710123" close="False" data-weight="2.060660171779821" stroke-width="6" fill="none" stroke="#ffff33" />
<path d="M569.0349025766973,194.03490257669733 L612.2150974233027,237.2150974233027" close="False" data-weight="2.060660171779821" stroke-width="6" fill="none" stroke="#ffff33" />
<path d="M553.125,125.625 L553.125,155.625" close="False" data-weight="1.75" stroke-width="6" fill="none" stroke="#ffff33" />
<path d="M2353.125,1655.625 A54.31980515339728,54.31980515339728,0,0,1,2348.9901510378277,1676.412289481504 M2348.9901510378277,1676.412289481504 A54.319805153387826,54.319805153387826,0,0,1,2337.2150974233027,1694.0349025766973 M2337.2150974233027,1694.0349025766973" close="False" data-weight="1.0" stroke-width="6" fill="none" stroke="#984ea3" />
<path d="M2353.125,1580.625 C2353.125,1591.875,2353.125,1614.375,2353.125,1625.625" close="False" data-weight="0.0" stroke-width="6" fill="none" stroke="#984ea3" />
<path d="M2353.125,1505.625 C2353.125,1516.875,2353.125,1539.375,2353.125,1550.625" close="False" data-weight="0.0" stroke-width="6" fill="none" stroke="#984ea3" />
<path d="M2294.0349025766973,1737.2150974233027 C2286.0799512883486,1745.1700487116514,2270.1700487116514,1761.0799512883486,2262.2150974233027,1769.0349025766973" close="False" data-weight="0.0" stroke-width="6" fill="none" stroke="#984ea3" />
<path d="M2300.625,1453.125 A54.31980515339296,54.31980515339296,0,0,1,2279.8377105184964,1448.9901510378277 M2279.8377105184964,1448.9901510378277 A54.31980515340005,54.31980515340005,0,0,1,2262.2150974233027,1437.2150974233027 M2262.2150974233027,1437.2150974233027" close="False" data-weight="1.0" stroke-width="6" fill="none" stroke="#984ea3" />
<path d="M2219.0349025766973,1812.2150974233027 C2211.0799512883486,1820.1700487116514,2195.1700487116514,1836.0799512883486,2187.2150974233027,1844.0349025766973" close="False" data-weight="0.0" stroke-width="6" fill="none" stroke="#984ea3" />
<path d="M2219.0349025766973,1394.0349025766973 C2211.0799512883486,1386.0799512883486,2195.1700487116514,1370.1700487116514,2187.2150974233027,1362.2150974233027" close="False" data-weight="0.0" stroke-width="6" fill="none" stroke="#984ea3" />
<path d="M2144.0349025766973,1887.2150974233027 C2136.0799512883486,1895.1700487116514,2120.1700487116514,1911.0799512883486,2112.2150974233027,1919.0349025766973" close="False" data-weight="0.0" stroke-width="6" fill="none" stroke="#984ea3" />
<path d="M2069.0349025766973,1962.2150974233027 C2061.0799512883486,1970.1700487116514,2045.1700487116514,1986.0799512883486,2037.2150974233027,1994.0349025766973" close="False" data-weight="0.0" stroke-width="6" fill="none" stroke="#984ea3" />
<path d="M1850.625,2053.125 C1839.375,2053.125,1816.875,2053.125,1805.625,2053.125" close="False" data-weight="0.0" stroke-width="6" fill="none" stroke="#984ea3" />
<path d="M1775.625,2053.125 C1764.375,2053.125,1741.875,2053.125,1730.625,2053.125" close="False" data-weight="0.0" stroke-width="6" fill="none" stroke="#984ea3" />
<path d="M1700.625,2053.125 A54.319805153394555,54.319805153394555,0,0,1,1679.837710518496,2048.9901510378277 M1679.837710518496,2048.9901510378277 A54.319805153394576,54.319805153394576,0,0,1,1662.2150974233027,2037.2150974233027 M1662.2150974233027,2037.2150974233027" close="False" data-weight="1.0" stroke-width="6" fill="none" stroke="#984ea3" />
<path d="M1619.0349025766973,1994.0349025766973 C1611.0799512883486,1986.0799512883486,1595.1700487116514,1970.1700487116514,1587.2150974233027,1962.2150974233027" close="False" data-weight="0.0" stroke-width="6" fill="none" stroke="#984ea3" />
<path d="M1544.0349025766973,1919.0349025766973 C1536.0799512883486,1911.0799512883486,1520.1700487116514,1895.1700487116514,1512.2150974233027,1887.2150974233027" close="False" data-weight="0.0" stroke-width="6" fill="none" stroke="#984ea3" />
<path d="M1453.125,1775.625 A101.06381732036084,101.06381732036084,0,0,0,1450.6716533480728,1753.4919874189422 M1450.6716533480728,1753.4919874189422 A38.62248500649924,38.62248500649924,0,0,0,1440.2969588128951,1734.6401045634027 M1440.2969588128951,1734.6401045634027" close="False" data-weight="1.0" stroke-width="6" fill="none" stroke="#984ea3" />
<path d="M1396.6098954365973,1690.9530411871049 C1388.7816612806716,1683.1248070311792,1373.1251929688208,1667.4683387193284,1365.2969588128951,1659.6401045634027" close="False" data-weight="0.0" stroke-width="6" fill="none" stroke="#984ea3" />
<path d="M1382.125,980.9834101745155 A57.45452644918714,57.45452644918714,0,0,1,1377.7515345873453,1002.9703055610012 M1377.7515345873453,1002.9703055610012 A57.45452644918669,57.45452644918669,0,0,1,1365.2969588128951,1021.6098954365974 M1365.2969588128951,1021.6098954365974" close="False" data-weight="1.0" stroke-width="6" fill="none" stroke="#984ea3" />
<path d="M1382.125,905.9834101745155 C1382.125,917.0542050872577,1382.125,939.1957949127423,1382.125,950.2665898254845" close="False" data-weight="0.0" stroke-width="6" fill="none" stroke="#984ea3" />
<path d="M1378.125,755.625 C1378.125,766.875,1378.125,789.375,1378.125,800.625" close="False" data-weight="0.0" stroke-width="6" fill="none" stroke="#984ea3" />
<path d="M1378.125,680.625 C1378.125,691.875,1378.125,714.375,1378.125,725.625" close="False" data-weight="0.0" stroke-width="6" fill="none" stroke="#984ea3" />
<path d="M1378.125,605.625 C1378.125,616.875,1378.125,639.375,1378.125,650.625" close="False" data-weight="0.0" stroke-width="6" fill="none" stroke="#984ea3" />
<path d="M1378.125,530.625 C1378.125,541.875,1378.125,564.375,1378.125,575.625" close="False" data-weight="0.0" stroke-width="6" fill="none" stroke="#984ea3" />
<path d="M1378.125,455.625 C1378.125,466.875,1378.125,489.375,1378.125,500.625" close="False" data-weight="0.0" stroke-width="6" fill="none" stroke="#984ea3" />
<path d="M1378.125,380.625 C1378.125,391.875,1378.125,414.375,1378.125,425.625" close="False" data-weight="0.0" stroke-width="6" fill="none" stroke="#984ea3" />
<path d="M1378.125,305.625 C1378.125,316.875,1378.125,339.375,1378.125,350.625" close="False" data-weight="0.0" stroke-width="6" fill="none" stroke="#984ea3" />
<path d="M1378.125,275.625 A54.3198051533966,54.3198051533966,0,0,0,1373.990151037828,254.8377105184959 M1373.990151037828,254.8377105184959 A54.31980515339265,54.31980515339265,0,0,0,1362.2150974233027,237.21509742330267 M1362.2150974233027,237.21509742330267" close="False" data-weight="1.0" stroke-width="6" fill="none" stroke="#984ea3" />
<path d="M1321.6098954365973,1615.9530411871049 C1313.7816612806716,1608.1248070311792,1298.1251929688208,1592.4683387193284,1290.2969588128951,1584.6401045634027" close="False" data-weight="0.0" stroke-width="6" fill="none" stroke="#984ea3" />
<path d="M1321.6098954365973,1065.2969588128951 C1313.7816612806716,1073.1251929688208,1298.1251929688208,1088.7816612806716,1290.2969588128951,1096.6098954365973" close="False" data-weight="0.0" stroke-width="6" fill="none" stroke="#984ea3" />
<path d="M1246.6098954365973,1540.9530411871049 C1238.7816612806716,1533.1248070311792,1223.1251929688208,1517.4683387193284,1215.2969588128951,1509.6401045634027" close="False" data-weight="0.0" stroke-width="6" fill="none" stroke="#984ea3" />
<path d="M1246.6098954365973,1140.2969588128951 C1238.7816612806716,1148.1251929688208,1223.1251929688208,1163.7816612806716,1215.2969588128951,1171.6098954365973" close="False" data-weight="0.0" stroke-width="6" fill="none" stroke="#984ea3" />
<path d="M1171.6098954366123,1465.9530411871199 C1163.781661280683,1458.1248070311906,1148.1251929688244,1442.468338719332,1140.2969588128951,1434.6401045634027" close="False" data-weight="0.0" stroke-width="6" fill="none" stroke="#984ea3" />
<path d="M1171.6098954365973,1215.2969588128951 C1163.7816612806716,1223.1251929688208,1148.1251929688208,1238.7816612806716,1140.2969588128951,1246.6098954365973" close="False" data-weight="0.0" stroke-width="6" fill="none" stroke="#984ea3" />
<path d="M2353.125,1625.625 L2353.125,1655.625" close="False" data-weight="1.75" stroke-width="6" fill="none" stroke="#984ea3" />
<path d="M2353.125,1550.625 L2353.125,1580.625" close="False" data-weight="1.75" stroke-width="6" fill="none" stroke="#984ea3" />
<path d="M2353.125,1475.625 L2353.125,1505.625" close="False" data-weight="1.75" stroke-width="6" fill="none" stroke="#984ea3" />
<path d="M2294.0349025766973,1737.2150974233027 L2337.2150974233027,1694.0349025766973" close="False" data-weight="2.060660171779821" stroke-width="6" fill="none" stroke="#984ea3" />
<path d="M2300.625,1453.125 L2330.625,1453.125" close="False" data-weight="1.75" stroke-width="6" fill="none" stroke="#984ea3" />
<path d="M2219.0349025766973,1812.2150974233027 L2262.2150974233027,1769.0349025766973" close="False" data-weight="2.060660171779821" stroke-width="6" fill="none" stroke="#984ea3" />
<path d="M2219.0349025766973,1394.0349025766973 L2262.2150974233027,1437.2150974233027" close="False" data-weight="2.060660171779821" stroke-width="6" fill="none" stroke="#984ea3" />
<path d="M2144.0349025766973,1887.2150974233027 L2187.2150974233027,1844.0349025766973" close="False" data-weight="2.060660171779821" stroke-width="6" fill="none" stroke="#984ea3" />
<path d="M2144.0349025766973,1319.0349025766973 L2187.2150974233027,1362.2150974233027" close="False" data-weight="2.060660171779821" stroke-width="6" fill="none" stroke="#984ea3" />
<path d="M2069.0349025766973,1962.2150974233027 L2112.2150974233027,1919.0349025766973" close="False" data-weight="2.060660171779821" stroke-width="6" fill="none" stroke="#984ea3" />
<path d="M1994.0349025766973,2037.2150974233027 L2037.2150974233027,1994.0349025766973" close="False" data-weight="2.060660171779821" stroke-width="6" fill="none" stroke="#984ea3" />
<path d="M1925.625,2203.125 L1955.625,2203.125" close="False" data-weight="1.75" stroke-width="6" fill="none" stroke="#984ea3" />
<path d="M1903.125,2150.625 L1903.125,2180.625" close="False" data-weight="1.75" stroke-width="6" fill="none" stroke="#984ea3" />
<path d="M1903.125,2075.625 L1903.125,2105.625" close="False" data-weight="1.75" stroke-width="6" fill="none" stroke="#984ea3" />
<path d="M1925.625,2053.125 L1955.625,2053.125" close="False" data-weight="1.75" stroke-width="6" fill="none" stroke="#984ea3" />
<path d="M1850.625,2053.125 L1880.625,2053.125" close="False" data-weight="1.75" stroke-width="6" fill="none" stroke="#984ea3" />
<path d="M1775.625,2053.125 L1805.625,2053.125" close="False" data-weight="1.75" stroke-width="6" fill="none" stroke="#984ea3" />
<path d="M1700.625,2053.125 L1730.625,2053.125" close="False" data-weight="1.75" stroke-width="6" fill="none" stroke="#984ea3" />
<path d="M1619.0349025766973,1994.0349025766973 L1662.2150974233027,2037.2150974233027" close="False" data-weight="2.060660171779821" stroke-width="6" fill="none" stroke="#984ea3" />
<path d="M1544.0349025766973,1919.0349025766973 L1587.2150974233027,1962.2150974233027" close="False" data-weight="2.060660171779821" stroke-width="6" fill="none" stroke="#984ea3" />
<path d="M1469.0349025766973,1844.0349025766973 L1512.2150974233027,1887.2150974233027" close="False" data-weight="2.060660171779821" stroke-width="6" fill="none" stroke="#984ea3" />
<path d="M1453.125,1775.625 L1453.125,1805.625" close="False" data-weight="1.75" stroke-width="6" fill="none" stroke="#984ea3" />
<path d="M1396.6098954365973,1690.9530411871049 L1440.2969588128951,1734.6401045634027" close="False" data-weight="2.060660171779821" stroke-width="6" fill="none" stroke="#984ea3" />
<path d="M1382.125,950.2665898254845 L1382.125,980.9834101745155" close="False" data-weight="1.75" stroke-width="6" fill="none" stroke="#984ea3" />
<path d="M1382.125,875.2665898254845 L1382.125,905.9834101745155" close="False" data-weight="1.75" stroke-width="6" fill="none" stroke="#984ea3" />
<path d="M1378.125,800.625 L1378.125,830.625" close="False" data-weight="1.75" stroke-width="6" fill="none" stroke="#984ea3" />
<path d="M1378.125,725.625 L1378.125,755.625" close="False" data-weight="1.75" stroke-width="6" fill="none" stroke="#984ea3" />
<path d="M1378.125,650.625 L1378.125,680.625" close="False" data-weight="1.75" stroke-width="6" fill="none" stroke="#984ea3" />
<path d="M1378.125,575.625 L1378.125,605.625" close="False" data-weight="1.75" stroke-width="6" fill="none" stroke="#984ea3" />
<path d="M1378.125,500.625 L1378.125,530.625" close="False" data-weight="1.75" stroke-width="6" fill="none" stroke="#984ea3" />
<path d="M1378.125,425.625 L1378.125,455.625" close="False" data-weight="1.75" stroke-width="6" fill="none" stroke="#984ea3" />
<path d="M1378.125,350.625 L1378.125,380.625" close="False" data-weight="1.75" stroke-width="6" fill="none" stroke="#984ea3" />
<path d="M1378.125,275.625 L1378.125,305.625" close="False" data-weight="1.75" stroke-width="6" fill="none" stroke="#984ea3" />
<path d="M1321.6098954365973,1615.9530411871049 L1365.2969588128951,1659.6401045634027" close="False" data-weight="2.060660171779821" stroke-width="6" fill="none" stroke="#984ea3" />
<path d="M1321.6098954365973,1065.2969588128951 L1365.2969588128951,1021.6098954365974" close="False" data-weight="2.060660171779821" stroke-width="6" fill="none" stroke="#984ea3" />
<path d="M1319.0349025766973,194.03490257669733 L1362.2150974233027,237.2150974233027" close="False" data-weight="2.060660171779821" stroke-width="6" fill="none" stroke="#984ea3" />
<path d="M1246.6098954365973,1540.9530411871049 L1290.2969588128951,1584.6401045634027" close="False" data-weight="2.060660171779821" stroke-width="6" fill="none" stroke="#984ea3" />
<path d="M1246.6098954365973,1140.2969588128951 L1290.2969588128951,1096.6098954365973" close="False" data-weight="2.060660171779821" stroke-width="6" fill="none" stroke="#984ea3" />
<path d="M1171.6098954366123,1465.9530411871199 L1215.2969588128951,1509.6401045634027" close="False" data-weight="2.060660171779821" stroke-width="6" fill="none" stroke="#984ea3" />
<path d="M1171.6098954365973,1215.2969588128951 L1215.2969588128951,1171.6098954365973" close="False" data-weight="2.060660171779821" stroke-width="6" fill="none" stroke="#984ea3" />
<path d="M1096.6098954365973,1390.9530411871049 L1140.2969588128951,1434.6401045634027" close="False" data-weight="2.060660171779821" stroke-width="6" fill="none" stroke="#984ea3" />
<path d="M1078.125,1325.625 L1078.125,1355.625" close="False" data-weight="1.75" stroke-width="6" fill="none" stroke="#984ea3" />
<path d="M1096.6098954365973,1290.2969588128951 L1140.2969588128951,1246.6098954365973" close="False" data-weight="2.060660171779821" stroke-width="6" fill="none" stroke="#984ea3" />
<path d="M1025.2665898254845,1374.125 L1055.9834101745155,1374.125" close="False" data-weight="1.75" stroke-width="6" fill="none" stroke="#984ea3" />
<path d="M950.2665898254845,1374.125 L980.9834101745155,1374.125" close="False" data-weight="1.75" stroke-width="6" fill="none" stroke="#984ea3" />
<path d="M928.125,1325.625 L928.125,1355.625" close="False" data-weight="1.75" stroke-width="6" fill="none" stroke="#984ea3" />
<path d="M950.2665898254845,1307.125 L980.9834101745155,1307.125" close="False" data-weight="1.75" stroke-width="6" fill="none" stroke="#984ea3" />
<path d="M875.2665898254845,1374.125 L905.9834101745155,1374.125" close="False" data-weight="1.75" stroke-width="6" fill="none" stroke="#984ea3" />
<path d="M774.125,1400.2665898254845 L774.125,1430.9834101745155" close="False" data-weight="1.75" stroke-width="6" fill="none" stroke="#984ea3" />
<path d="M800.2665898254845,1374.125 L830.9834101745155,1374.125" close="False" data-weight="1.75" stroke-width="6" fill="none" stroke="#984ea3" />
<path d="M774.125,1325.2665898254845 L774.125,1355.9834101745155" close="False" data-weight="1.75" stroke-width="6" fill="none" stroke="#984ea3" />
<path d="M800.2665898254845,1299.125 L830.9834101745155,1299.125" close="False" data-weight="1.75" stroke-width="6" fill="none" stroke="#984ea3" />
<path d="M699.125,1400.2665898254845 L699.125,1430.9834101745155" close="False" data-weight="1.75" stroke-width="6" fill="none" stroke="#984ea3" />
<path d="M725.625,1378.125 L755.625,1378.125" close="False" data-weight="1.75" stroke-width="6" fill="none" stroke="#984ea3" />
<path d="M703.125,1325.625 L703.125,1355.625" close="False" data-weight="1.75" stroke-width="6" fill="none" stroke="#984ea3" />
<path d="M1175.625,2428.125 C1164.375,2428.125,1141.875,2428.125,1130.625,2428.125" close="False" data-weight="0.0" stroke-width="6" fill="none" stroke="#ff7f00" />
<path d="M1100.625,2428.125 C1089.375,2428.125,1066.875,2428.125,1055.625,2428.125" close="False" data-weight="0.0" stroke-width="6" fill="none" stroke="#ff7f00" />
<path d="M1025.625,2428.125 C1014.375,2428.125,991.875,2428.125,980.625,2428.125" close="False" data-weight="0.0" stroke-width="6" fill="none" stroke="#ff7f00" />
<path d="M950.625,2428.125 A54.3198051533991,54.3198051533991,0,0,1,929.8377105184959,2423.990151037828 M929.8377105184959,2423.990151037828 A54.319805153386056,54.319805153386056,0,0,1,912.2150974233027,2412.2150974233027 M912.2150974233027,2412.2150974233027" close="False" data-weight="1.0" stroke-width="6" fill="none" stroke="#ff7f00" />
<path d="M869.0349025766973,2369.0349025766973 C861.0799512883486,2361.0799512883486,845.1700487116514,2345.1700487116514,837.2150974233027,2337.2150974233027" close="False" data-weight="0.0" stroke-width="6" fill="none" stroke="#ff7f00" />
<path d="M794.0349025766973,2294.0349025766973 C786.0799512883486,2286.0799512883486,770.1700487116514,2270.1700487116514,762.2150974233027,2262.2150974233027" close="False" data-weight="0.0" stroke-width="6" fill="none" stroke="#ff7f00" />
<path d="M719.0349025766973,2219.0349025766973 C711.0799512883486,2211.0799512883486,695.1700487116514,2195.1700487116514,687.2150974233027,2187.2150974233027" close="False" data-weight="0.0" stroke-width="6" fill="none" stroke="#ff7f00" />
<path d="M644.0349025766973,2144.0349025766973 C636.0799512883486,2136.0799512883486,620.1700487116514,2120.1700487116514,612.2150974233027,2112.2150974233027" close="False" data-weight="0.0" stroke-width="6" fill="none" stroke="#ff7f00" />
<path d="M569.0349025766973,2069.0349025766973 C561.0799512883486,2061.0799512883486,545.1700487116514,2045.1700487116514,537.2150974233027,2037.2150974233027" close="False" data-weight="0.0" stroke-width="6" fill="none" stroke="#ff7f00" />
<path d="M494.03490257669733,1994.0349025766973 C486.0799512883487,1986.0799512883486,470.1700487116513,1970.1700487116514,462.21509742330267,1962.2150974233027" close="False" data-weight="0.0" stroke-width="6" fill="none" stroke="#ff7f00" />
<path d="M494.03490257669733,162.2150974233027 C486.0799512883487,170.17004871165136,470.1700487116513,186.07995128834867,462.21509742330267,194.03490257669733" close="False" data-weight="0.0" stroke-width="6" fill="none" stroke="#ff7f00" />
<path d="M419.03490257669733,1919.0349025766973 C411.0799512883487,1911.0799512883486,395.1700487116513,1895.1700487116514,387.21509742330267,1887.2150974233027" close="False" data-weight="0.0" stroke-width="6" fill="none" stroke="#ff7f00" />
<path d="M419.03490257669733,237.2150974233027 C411.0799512883487,245.17004871165136,395.1700487116513,261.0799512883487,387.21509742330267,269.03490257669733" close="False" data-weight="0.0" stroke-width="6" fill="none" stroke="#ff7f00" />
<path d="M344.03490257669733,1844.0349025766973 C336.0799512883487,1836.0799512883486,320.1700487116513,1820.1700487116514,312.21509742330267,1812.2150974233027" close="False" data-weight="0.0" stroke-width="6" fill="none" stroke="#ff7f00" />
<path d="M328.125,980.625 A54.319805153393474,54.319805153393474,0,0,1,323.99015103782773,1001.4122894815039 M323.99015103782773,1001.4122894815039 A54.319805153395706,54.319805153395706,0,0,1,312.21509742330267,1019.0349025766973 M312.21509742330267,1019.0349025766973" close="False" data-weight="1.0" stroke-width="6" fill="none" stroke="#ff7f00" />
<path d="M328.125,905.625 C328.125,916.875,328.125,939.375,328.125,950.625" close="False" data-weight="0.0" stroke-width="6" fill="none" stroke="#ff7f00" />
<path d="M328.125,830.625 C328.125,841.875,328.125,864.375,328.125,875.625" close="False" data-weight="0.0" stroke-width="6" fill="none" stroke="#ff7f00" />
<path d="M328.125,755.625 C328.125,766.875,328.125,789.375,328.125,800.625" close="False" data-weight="0.0" stroke-width="6" fill="none" stroke="#ff7f00" />
<path d="M328.125,680.625 C328.125,691.875,328.125,714.375,328.125,725.625" close="False" data-weight="0.0" stroke-width="6" fill="none" stroke="#ff7f00" />
<path d="M328.125,605.625 C328.125,616.875,328.125,639.375,328.125,650.625" close="False" data-weight="0.0" stroke-width="6" fill="none" stroke="#ff7f00" />
<path d="M328.125,530.625 C328.125,541.875,328.125,564.375,328.125,575.625" close="False" data-weight="0.0" stroke-width="6" fill="none" stroke="#ff7f00" />
<path d="M328.125,455.625 C328.125,466.875,328.125,489.375,328.125,500.625" close="False" data-weight="0.0" stroke-width="6" fill="none" stroke="#ff7f00" />
<path d="M328.125,380.625 C328.125,391.875,328.125,414.375,328.125,425.625" close="False" data-weight="0.0" stroke-width="6" fill="none" stroke="#ff7f00" />
<path d="M344.03490257669733,312.21509742330267 A54.3198051533945,54.3198051533945,0,0,0,332.2598489621722,329.837710518496 M332.2598489621722,329.837710518496 A54.31980515339484,54.31980515339484,0,0,0,328.125,350.625 M328.125,350.625" close="False" data-weight="1.0" stroke-width="6" fill="none" stroke="#ff7f00" />
<path d="M269.03490257669733,1769.0349025766973 C261.0799512883487,1761.0799512883486,245.1700487116513,1745.1700487116514,237.21509742330267,1737.2150974233027" close="False" data-weight="0.0" stroke-width="6" fill="none" stroke="#ff7f00" />
<path d="M269.03490257669733,1062.2150974233027 C261.0799512883487,1070.1700487116514,245.1700487116513,1086.0799512883486,237.21509742330267,1094.0349025766973" close="False" data-weight="0.0" stroke-width="6" fill="none" stroke="#ff7f00" />
<path d="M194.0349025766973,1694.0349025766973 C186.07995128834867,1686.0799512883486,170.1700487116513,1670.1700487116514,162.21509742330267,1662.2150974233027" close="False" data-weight="0.0" stroke-width="6" fill="none" stroke="#ff7f00" />
<path d="M194.0349025766973,1137.2150974233027 C186.07995128834867,1145.1700487116514,170.1700487116513,1161.0799512883486,162.21509742330267,1169.0349025766973" close="False" data-weight="0.0" stroke-width="6" fill="none" stroke="#ff7f00" />
<path d="M119.0349025766973,1619.0349025766973 C111.07995128834867,1611.0799512883486,95.17004871165132,1595.1700487116514,87.21509742330268,1587.2150974233027" close="False" data-weight="0.0" stroke-width="6" fill="none" stroke="#ff7f00" />
<path d="M28.125,1505.625 A54.31980515339288,54.31980515339288,0,0,0,32.2598489621724,1526.412289481504 M32.2598489621724,1526.412289481504 A54.31980515339624,54.31980515339624,0,0,0,44.03490257669732,1544.0349025766973 M44.03490257669732,1544.0349025766973" close="False" data-weight="1.0" stroke-width="6" fill="none" stroke="#ff7f00" />
<path d="M28.125,1430.625 C28.125,1441.875,28.125,1464.375,28.125,1475.625" close="False" data-weight="0.0" stroke-width="6" fill="none" stroke="#ff7f00" />
<path d="M28.125,1355.625 C28.125,1366.875,28.125,1389.375,28.125,1400.625" close="False" data-weight="0.0" stroke-width="6" fill="none" stroke="#ff7f00" />
<path d="M44.03490257669731,1287.2150974233027 A54.3198051533952,54.3198051533952,0,0,0,32.25984896217222,1304.837710518496 M32.25984896217222,1304.837710518496 A54.319805153394014,54.319805153394014,0,0,0,28.125,1325.625 M28.125,1325.625" close="False" data-weight="1.0" stroke-width="6" fill="none" stroke="#ff7f00" />
<path d="M1175.625,2428.125 L1205.625,2428.125" close="False" data-weight="1.75" stroke-width="6" fill="none" stroke="#ff7f00" />
<path d="M1100.625,2428.125 L1130.625,2428.125" close="False" data-weight="1.75" stroke-width="6" fill="none" stroke="#ff7f00" />
<path d="M1025.625,2428.125 L1055.625,2428.125" close="False" data-weight="1.75" stroke-width="6" fill="none" stroke="#ff7f00" />
<path d="M950.625,2428.125 L980.625,2428.125" close="False" data-weight="1.75" stroke-width="6" fill="none" stroke="#ff7f00" />
<path d="M869.0349025766973,2369.0349025766973 L912.2150974233027,2412.2150974233027" close="False" data-weight="2.060660171779821" stroke-width="6" fill="none" stroke="#ff7f00" />
<path d="M794.0349025766973,2294.0349025766973 L837.2150974233027,2337.2150974233027" close="False" data-weight="2.060660171779821" stroke-width="6" fill="none" stroke="#ff7f00" />
<path d="M719.0349025766973,2219.0349025766973 L762.2150974233027,2262.2150974233027" close="False" data-weight="2.060660171779821" stroke-width="6" fill="none" stroke="#ff7f00" />
<path d="M644.0349025766973,2144.0349025766973 L687.2150974233027,2187.2150974233027" close="False" data-weight="2.060660171779821" stroke-width="6" fill="none" stroke="#ff7f00" />
<path d="M569.0349025766973,2069.0349025766973 L612.2150974233027,2112.2150974233027" close="False" data-weight="2.060660171779821" stroke-width="6" fill="none" stroke="#ff7f00" />
<path d="M494.03490257669733,1994.0349025766973 L537.2150974233027,2037.2150974233027" close="False" data-weight="2.060660171779821" stroke-width="6" fill="none" stroke="#ff7f00" />
<path d="M494.03490257669733,162.21509742330267 L537.2150974233027,119.0349025766973" close="False" data-weight="2.060660171779821" stroke-width="6" fill="none" stroke="#ff7f00" />
<path d="M419.03490257669733,1919.0349025766973 L462.21509742330267,1962.2150974233027" close="False" data-weight="2.060660171779821" stroke-width="6" fill="none" stroke="#ff7f00" />
<path d="M419.03490257669733,237.21509742330267 L462.21509742330267,194.0349025766973" close="False" data-weight="2.060660171779821" stroke-width="6" fill="none" stroke="#ff7f00" />
<path d="M344.03490257669733,1844.0349025766973 L387.21509742330267,1887.2150974233027" close="False" data-weight="2.060660171779821" stroke-width="6" fill="none" stroke="#ff7f00" />
<path d="M328.125,950.625 L328.125,980.625" close="False" data-weight="1.75" stroke-width="6" fill="none" stroke="#ff7f00" />
<path d="M328.125,875.625 L328.125,905.625" close="False" data-weight="1.75" stroke-width="6" fill="none" stroke="#ff7f00" />
<path d="M328.125,800.625 L328.125,830.625" close="False" data-weight="1.75" stroke-width="6" fill="none" stroke="#ff7f00" />
<path d="M328.125,725.625 L328.125,755.625" close="False" data-weight="1.75" stroke-width="6" fill="none" stroke="#ff7f00" />
<path d="M328.125,650.625 L328.125,680.625" close="False" data-weight="1.75" stroke-width="6" fill="none" stroke="#ff7f00" />
<path d="M328.125,575.625 L328.125,605.625" close="False" data-weight="1.75" stroke-width="6" fill="none" stroke="#ff7f00" />
<path d="M328.125,500.625 L328.125,530.625" close="False" data-weight="1.75" stroke-width="6" fill="none" stroke="#ff7f00" />
<path d="M328.125,425.625 L328.125,455.625" close="False" data-weight="1.75" stroke-width="6" fill="none" stroke="#ff7f00" />
<path d="M328.125,350.625 L328.125,380.625" close="False" data-weight="1.75" stroke-width="6" fill="none" stroke="#ff7f00" />
<path d="M344.03490257669733,312.21509742330267 L387.21509742330267,269.03490257669733" close="False" data-weight="2.060660171779821" stroke-width="6" fill="none" stroke="#ff7f00" />
<path d="M269.03490257669733,1769.0349025766973 L312.21509742330267,1812.2150974233027" close="False" data-weight="2.060660171779821" stroke-width="6" fill="none" stroke="#ff7f00" />
<path d="M269.03490257669733,1062.2150974233027 L312.21509742330267,1019.0349025766973" close="False" data-weight="2.060660171779821" stroke-width="6" fill="none" stroke="#ff7f00" />
<path d="M194.03490257669733,1694.0349025766973 L237.2150974233027,1737.2150974233027" close="False" data-weight="2.060660171779821" stroke-width="6" fill="none" stroke="#ff7f00" />
<path d="M194.03490257669733,1137.2150974233027 L237.2150974233027,1094.0349025766973" close="False" data-weight="2.060660171779821" stroke-width="6" fill="none" stroke="#ff7f00" />
<path d="M119.03490257669732,1619.0349025766973 L162.2150974233027,1662.2150974233027" close="False" data-weight="2.060660171779821" stroke-width="6" fill="none" stroke="#ff7f00" />
<path d="M119.03490257669732,1212.2150974233027 L162.2150974233027,1169.0349025766973" close="False" data-weight="2.060660171779821" stroke-width="6" fill="none" stroke="#ff7f00" />
<path d="M44.03490257669732,1544.0349025766973 L87.2150974233027,1587.2150974233027" close="False" data-weight="2.060660171779821" stroke-width="6" fill="none" stroke="#ff7f00" />
<path d="M28.125,1475.625 L28.125,1505.625" close="False" data-weight="1.75" stroke-width="6" fill="none" stroke="#ff7f00" />
<path d="M28.125,1400.625 L28.125,1430.625" close="False" data-weight="1.75" stroke-width="6" fill="none" stroke="#ff7f00" />
<path d="M28.125,1325.625 L28.125,1355.625" close="False" data-weight="1.75" stroke-width="6" fill="none" stroke="#ff7f00" />
<path d="M44.03490257669732,1287.2150974233027 L87.2150974233027,1244.0349025766973" close="False" data-weight="2.060660171779821" stroke-width="6" fill="none" stroke="#ff7f00" />
<path d="M2294.0349025766973,1394.0349025766973 C2286.0799512883486,1386.0799512883486,2270.1700487116514,1370.1700487116514,2262.2150974233027,1362.2150974233027" close="False" data-weight="0.0" stroke-width="6" fill="none" stroke="#4daf4a" />
<path d="M2219.0349025766973,1319.0349025766973 C2211.0799512883486,1311.0799512883486,2195.1700487116514,1295.1700487116514,2187.2150974233027,1287.2150974233027" close="False" data-weight="0.0" stroke-width="6" fill="none" stroke="#4daf4a" />
<path d="M2144.0349025766973,1244.0349025766973 C2136.0799512883486,1236.0799512883486,2120.1700487116514,1220.1700487116514,2112.2150974233027,1212.2150974233027" close="False" data-weight="0.0" stroke-width="6" fill="none" stroke="#4daf4a" />
<path d="M2069.0349025766973,1169.0349025766973 C2061.0799512883486,1161.0799512883486,2045.1700487116514,1145.1700487116514,2037.2150974233027,1137.2150974233027" close="False" data-weight="0.0" stroke-width="6" fill="none" stroke="#4daf4a" />
<path d="M1994.0349025766973,1094.0349025766973 C1986.0799512883486,1086.0799512883486,1970.1700487116514,1070.1700487116514,1962.2150974233027,1062.2150974233027" close="False" data-weight="0.0" stroke-width="6" fill="none" stroke="#4daf4a" />
<path d="M1903.125,980.625 A54.31980515339637,54.31980515339637,0,0,0,1907.259848962172,1001.412289481504 M1907.259848962172,1001.412289481504 A54.31980515339273,54.31980515339273,0,0,0,1919.0349025766973,1019.0349025766973 M1919.0349025766973,1019.0349025766973" close="False" data-weight="1.0" stroke-width="6" fill="none" stroke="#4daf4a" />
<path d="M1844.0349025766973,869.0349025766973 A54.31980515339514,54.31980515339514,0,0,0,1826.412289481504,857.2598489621722 M1826.412289481504,857.2598489621722 A54.319805153393986,54.319805153393986,0,0,0,1805.625,853.125 M1805.625,853.125" close="False" data-weight="1.0" stroke-width="6" fill="none" stroke="#4daf4a" />
<path d="M1775.625,853.125 C1764.375,853.125,1741.875,853.125,1730.625,853.125" close="False" data-weight="0.0" stroke-width="6" fill="none" stroke="#4daf4a" />
<path d="M1700.625,853.125 C1689.375,853.125,1666.875,853.125,1655.625,853.125" close="False" data-weight="0.0" stroke-width="6" fill="none" stroke="#4daf4a" />
<path d="M1625.625,853.125 C1614.560308584238,853.125,1593.1599505709487,845.125,1582.0952591551868,845.125" close="False" data-weight="0.0" stroke-width="6" fill="none" stroke="#4daf4a" />
<path d="M1549.1547408448132,845.125 C1538.6398704224066,845.125,1517.6101295775934,845.125,1507.0952591551868,845.125" close="False" data-weight="0.0" stroke-width="6" fill="none" stroke="#4daf4a" />
<path d="M1474.1547408448132,845.125 C1463.6398704224066,845.125,1442.6101295775934,845.125,1432.0952591551868,845.125" close="False" data-weight="0.0" stroke-width="6" fill="none" stroke="#4daf4a" />
<path d="M1321.6098954365973,790.953041187105 C1313.7816612806716,783.1248070311794,1298.1251929688208,767.4683387193281,1290.2969588128951,759.6401045634026" close="False" data-weight="0.0" stroke-width="6" fill="none" stroke="#4daf4a" />
<path d="M1246.6098954365973,715.953041187105 C1238.7816612806735,708.1248070311813,1223.125192968826,692.4683387193338,1215.2969588129024,684.6401045634101" close="False" data-weight="0.0" stroke-width="6" fill="none" stroke="#4daf4a" />
<path d="M1171.6098954365973,640.953041187105 A57.454526449186446,57.454526449186446,0,0,0,1152.9703055610012,628.4984654126548 M1152.9703055610012,628.4984654126548 A57.45452644918703,57.45452644918703,0,0,0,1130.9834101745155,624.125 M1130.9834101745155,624.125" close="False" data-weight="1.0" stroke-width="6" fill="none" stroke="#4daf4a" />
<path d="M1100.2665898254845,624.125 C1089.1957949127423,624.125,1067.0542050872577,624.125,1055.9834101745155,624.125" close="False" data-weight="0.0" stroke-width="6" fill="none" stroke="#4daf4a" />
<path d="M1025.2665898254845,624.125 C1014.1957949127423,624.125,992.0542050872577,624.125,980.9834101745155,624.125" close="False" data-weight="0.0" stroke-width="6" fill="none" stroke="#4daf4a" />
<path d="M800.625,553.125 C789.375,553.125,766.875,553.125,755.625,553.125" close="False" data-weight="0.0" stroke-width="6" fill="none" stroke="#4daf4a" />
<path d="M725.625,553.125 C714.375,553.125,691.875,553.125,680.625,553.125" close="False" data-weight="0.0" stroke-width="6" fill="none" stroke="#4daf4a" />
<path d="M650.625,553.125 C639.375,553.125,616.875,553.125,605.625,553.125" close="False" data-weight="0.0" stroke-width="6" fill="none" stroke="#4daf4a" />
<path d="M500.625,553.125 A54.319805153394555,54.319805153394555,0,0,0,479.837710518496,557.2598489621722 M479.837710518496,557.2598489621722 A54.31980515339474,54.31980515339474,0,0,0,462.21509742330267,569.0349025766973 M462.21509742330267,569.0349025766973" close="False" data-weight="1.0" stroke-width="6" fill="none" stroke="#4daf4a" />
<path d="M419.03490257669733,612.2150974233027 C411.0799512883487,620.1700487116514,395.1700487116513,636.0799512883486,387.21509742330267,644.0349025766973" close="False" data-weight="0.0" stroke-width="6" fill="none" stroke="#4daf4a" />
<path d="M344.03490257669733,687.2150974233027 C336.0799512883487,695.1700487116514,320.1700487116513,711.0799512883486,312.21509742330267,719.0349025766973" close="False" data-weight="0.0" stroke-width="6" fill="none" stroke="#4daf4a" />
<path d="M269.03490257669733,762.2150974233027 C261.0799512883487,770.1700487116514,245.1700487116513,786.0799512883486,237.21509742330267,794.0349025766973" close="False" data-weight="0.0" stroke-width="6" fill="none" stroke="#4daf4a" />
<path d="M194.0349025766973,837.2150974233027 C186.07995128834867,845.1700487116514,170.1700487116513,861.0799512883486,162.21509742330267,869.0349025766973" close="False" data-weight="0.0" stroke-width="6" fill="none" stroke="#4daf4a" />
<path d="M103.125,1130.625 C103.125,1141.875,103.125,1164.375,103.125,1175.625" close="False" data-weight="0.0" stroke-width="6" fill="none" stroke="#4daf4a" />
<path d="M2294.0349025766973,1394.0349025766973 L2337.2150974233027,1437.2150974233027" close="False" data-weight="2.060660171779821" stroke-width="6" fill="none" stroke="#4daf4a" />
<path d="M2219.0349025766973,1319.0349025766973 L2262.2150974233027,1362.2150974233027" close="False" data-weight="2.060660171779821" stroke-width="6" fill="none" stroke="#4daf4a" />
<path d="M2144.0349025766973,1244.0349025766973 L2187.2150974233027,1287.2150974233027" close="False" data-weight="2.060660171779821" stroke-width="6" fill="none" stroke="#4daf4a" />
<path d="M2069.0349025766973,1169.0349025766973 L2112.2150974233027,1212.2150974233027" close="False" data-weight="2.060660171779821" stroke-width="6" fill="none" stroke="#4daf4a" />
<path d="M1994.0349025766973,1094.0349025766973 L2037.2150974233027,1137.2150974233027" close="False" data-weight="2.060660171779821" stroke-width="6" fill="none" stroke="#4daf4a" />
<path d="M1919.0349025766973,1019.0349025766973 L1962.2150974233027,1062.2150974233027" close="False" data-weight="2.060660171779821" stroke-width="6" fill="none" stroke="#4daf4a" />
<path d="M1903.125,950.625 L1903.125,980.625" close="False" data-weight="1.75" stroke-width="6" fill="none" stroke="#4daf4a" />
<path d="M1844.0349025766973,869.0349025766973 L1887.2150974233027,912.2150974233027" close="False" data-weight="2.060660171779821" stroke-width="6" fill="none" stroke="#4daf4a" />
<path d="M1775.625,853.125 L1805.625,853.125" close="False" data-weight="1.75" stroke-width="6" fill="none" stroke="#4daf4a" />
<path d="M1700.625,853.125 L1730.625,853.125" close="False" data-weight="1.75" stroke-width="6" fill="none" stroke="#4daf4a" />
<path d="M1625.625,853.125 L1655.625,853.125" close="False" data-weight="1.75" stroke-width="6" fill="none" stroke="#4daf4a" />
<path d="M1549.1547408448132,845.125 L1582.0952591551868,845.125" close="False" data-weight="1.75" stroke-width="6" fill="none" stroke="#4daf4a" />
<path d="M1474.1547408448132,845.125 L1507.0952591551868,845.125" close="False" data-weight="1.75" stroke-width="6" fill="none" stroke="#4daf4a" />
<path d="M1399.1547408448132,845.125 L1432.0952591551868,845.125" close="False" data-weight="1.75" stroke-width="6" fill="none" stroke="#4daf4a" />
<path d="M1321.6098954365973,790.953041187105 L1365.2969588128951,834.6401045634026" close="False" data-weight="2.060660171779821" stroke-width="6" fill="none" stroke="#4daf4a" />
<path d="M1246.60989543659,715.9530411870975 L1290.2969588128951,759.6401045634026" close="False" data-weight="2.060660171779821" stroke-width="6" fill="none" stroke="#4daf4a" />
<path d="M1171.6098954365973,640.953041187105 L1215.2969588129024,684.6401045634101" close="False" data-weight="2.060660171779821" stroke-width="6" fill="none" stroke="#4daf4a" />
<path d="M1100.2665898254845,624.125 L1130.9834101745155,624.125" close="False" data-weight="1.75" stroke-width="6" fill="none" stroke="#4daf4a" />
<path d="M1025.2665898254845,624.125 L1055.9834101745155,624.125" close="False" data-weight="1.75" stroke-width="6" fill="none" stroke="#4daf4a" />
<path d="M950.2665898254845,624.125 L980.9834101745155,624.125" close="False" data-weight="1.75" stroke-width="6" fill="none" stroke="#4daf4a" />
<path d="M924.125,575.2665898254845 L924.125,605.9834101745155" close="False" data-weight="1.75" stroke-width="6" fill="none" stroke="#4daf4a" />
<path d="M924.125,500.2665898254845 L924.125,530.9834101745155" close="False" data-weight="1.75" stroke-width="6" fill="none" stroke="#4daf4a" />
<path d="M875.2665898254845,624.125 L905.9834101745155,624.125" close="False" data-weight="1.75" stroke-width="6" fill="none" stroke="#4daf4a" />
<path d="M875.625,553.125 L905.625,553.125" close="False" data-weight="1.75" stroke-width="6" fill="none" stroke="#4daf4a" />
<path d="M800.625,553.125 L830.625,553.125" close="False" data-weight="1.75" stroke-width="6" fill="none" stroke="#4daf4a" />
<path d="M725.625,553.125 L755.625,553.125" close="False" data-weight="1.75" stroke-width="6" fill="none" stroke="#4daf4a" />
<path d="M650.625,553.125 L680.625,553.125" close="False" data-weight="1.75" stroke-width="6" fill="none" stroke="#4daf4a" />
<path d="M575.625,553.125 L605.625,553.125" close="False" data-weight="1.75" stroke-width="6" fill="none" stroke="#4daf4a" />
<path d="M500.625,553.125 L530.625,553.125" close="False" data-weight="1.75" stroke-width="6" fill="none" stroke="#4daf4a" />
<path d="M419.03490257669733,612.2150974233027 L462.21509742330267,569.0349025766973" close="False" data-weight="2.060660171779821" stroke-width="6" fill="none" stroke="#4daf4a" />
<path d="M344.03490257669733,687.2150974233027 L387.21509742330267,644.0349025766973" close="False" data-weight="2.060660171779821" stroke-width="6" fill="none" stroke="#4daf4a" />
<path d="M269.03490257669733,762.2150974233027 L312.21509742330267,719.0349025766973" close="False" data-weight="2.060660171779821" stroke-width="6" fill="none" stroke="#4daf4a" />
<path d="M194.03490257669733,837.2150974233027 L237.2150974233027,794.0349025766973" close="False" data-weight="2.060660171779821" stroke-width="6" fill="none" stroke="#4daf4a" />
<path d="M103.125,1175.625 L103.125,1205.625" close="False" data-weight="1.75" stroke-width="6" fill="none" stroke="#4daf4a" />
<path d="M103.125,1100.625 L103.125,1130.625" close="False" data-weight="1.75" stroke-width="6" fill="none" stroke="#4daf4a" />
<path d="M103.125,1025.625 L103.125,1055.625" close="False" data-weight="1.75" stroke-width="6" fill="none" stroke="#4daf4a" />
<path d="M103.125,950.625 L103.125,980.625" close="False" data-weight="1.75" stroke-width="6" fill="none" stroke="#4daf4a" />
<path d="M119.03490257669732,912.2150974233027 L162.2150974233027,869.0349025766973" close="False" data-weight="2.060660171779821" stroke-width="6" fill="none" stroke="#4daf4a" />
<path d="M2049.125,755.9834101745155 A93.83039863674549,93.83039863674549,0,0,1,2046.8472461960373,776.5323014451633 M2046.8472461960373,776.5323014451633 A35.85816626156056,35.85816626156056,0,0,1,2037.2150974233027,794.0349025766973 M2037.2150974233027,794.0349025766973" close="False" data-weight="1.0" stroke-width="6" fill="none" stroke="#377eb8" />
<path d="M2049.125,680.9834101745155 C2049.125,692.0542050872577,2049.125,714.1957949127423,2049.125,725.2665898254845" close="False" data-weight="0.0" stroke-width="6" fill="none" stroke="#377eb8" />
<path d="M2049.125,605.9834101745155 C2049.125,617.0542050872577,2049.125,639.1957949127423,2049.125,650.2665898254845" close="False" data-weight="0.0" stroke-width="6" fill="none" stroke="#377eb8" />
<path d="M2049.125,530.9834101745155 C2049.125,542.0542050872577,2049.125,564.1957949127423,2049.125,575.2665898254845" close="False" data-weight="0.0" stroke-width="6" fill="none" stroke="#377eb8" />
<path d="M2049.125,455.9834101745155 C2049.125,467.05420508725774,2049.125,489.19579491274226,2049.125,500.2665898254845" close="False" data-weight="0.0" stroke-width="6" fill="none" stroke="#377eb8" />
<path d="M1994.0349025766973,837.2150974233027 C1986.0799512883486,845.1700487116514,1970.1700487116514,861.0799512883486,1962.2150974233027,869.0349025766973" close="False" data-weight="0.0" stroke-width="6" fill="none" stroke="#377eb8" />
<path d="M2000.625,403.125 C1989.375,403.125,1966.875,403.125,1955.625,403.125" close="False" data-weight="0.0" stroke-width="6" fill="none" stroke="#377eb8" />
<path d="M1925.625,403.125 A54.31980515339285,54.31980515339285,0,0,1,1904.837710518496,398.9901510378276 M1904.837710518496,398.9901510378276 A54.31980515339627,54.31980515339627,0,0,1,1887.2150974233027,387.21509742330267 M1887.2150974233027,387.21509742330267" close="False" data-weight="1.0" stroke-width="6" fill="none" stroke="#377eb8" />
<path d="M1694.0349025766973,1212.2150974233027 C1686.0799512883486,1220.1700487116514,1670.1700487116514,1236.0799512883486,1662.2150974233027,1244.0349025766973" close="False" data-weight="0.0" stroke-width="6" fill="none" stroke="#377eb8" />
<path d="M1696.6098954365973,940.953041187105 C1688.7816612806716,933.1248070311794,1673.1251929688208,917.4683387193281,1665.2969588128951,909.6401045634026" close="False" data-weight="0.0" stroke-width="6" fill="none" stroke="#377eb8" />
<path d="M1700.625,178.125 C1689.375,178.125,1666.875,178.125,1655.625,178.125" close="False" data-weight="0.0" stroke-width="6" fill="none" stroke="#377eb8" />
<path d="M1619.0349025766973,1287.2150974233027 C1611.0799512883486,1295.1700487116514,1595.1700487116514,1311.0799512883486,1587.2150974233027,1319.0349025766973" close="False" data-weight="0.0" stroke-width="6" fill="none" stroke="#377eb8" />
<path d="M1621.6098954365973,865.953041187105 A21.778629179142378,21.778629179142378,0,0,0,1603.420542635558,859.7536174052004 M1603.420542635558,859.7536174052004 A166.49197950709504,166.49197950709504,0,0,1,1582.0952591551868,861.125 M1582.0952591551868,861.125" close="False" data-weight="1.0" stroke-width="6" fill="none" stroke="#377eb8" />
<path d="M1625.625,178.125 C1614.375,178.125,1591.875,178.125,1580.625,178.125" close="False" data-weight="0.0" stroke-width="6" fill="none" stroke="#377eb8" />
<path d="M1544.0349025766973,1362.2150974233027 C1536.0799512883486,1370.1700487116514,1520.1700487116514,1386.0799512883486,1512.2150974233027,1394.0349025766973" close="False" data-weight="0.0" stroke-width="6" fill="none" stroke="#377eb8" />
<path d="M1549.1547408448132,861.125 C1538.6398704224066,861.125,1517.6101295775934,861.125,1507.0952591551868,861.125" close="False" data-weight="0.0" stroke-width="6" fill="none" stroke="#377eb8" />
<path d="M1550.625,178.125 C1539.375,178.125,1516.875,178.125,1505.625,178.125" close="False" data-weight="0.0" stroke-width="6" fill="none" stroke="#377eb8" />
<path d="M1453.125,1730.625 C1453.125,1741.689691415762,1461.125,1763.0900494290513,1461.125,1774.1547408448132" close="False" data-weight="0.0" stroke-width="6" fill="none" stroke="#377eb8" />
<path d="M1453.125,1655.625 C1453.125,1666.875,1453.125,1689.375,1453.125,1700.625" close="False" data-weight="0.0" stroke-width="6" fill="none" stroke="#377eb8" />
<path d="M1453.125,1580.625 C1453.125,1591.875,1453.125,1614.375,1453.125,1625.625" close="False" data-weight="0.0" stroke-width="6" fill="none" stroke="#377eb8" />
<path d="M1453.125,1505.625 C1453.125,1516.875,1453.125,1539.375,1453.125,1550.625" close="False" data-weight="0.0" stroke-width="6" fill="none" stroke="#377eb8" />
<path d="M1469.0349025766973,1437.2150974233027 A54.3198051533949,54.3198051533949,0,0,0,1457.2598489621723,1454.837710518496 M1457.2598489621723,1454.837710518496 A54.3198051533941,54.3198051533941,0,0,0,1453.125,1475.625 M1453.125,1475.625" close="False" data-weight="1.0" stroke-width="6" fill="none" stroke="#377eb8" />
<path d="M1474.1547408448132,861.125 C1463.6398704224066,861.125,1442.6101295775934,861.125,1432.0952591551868,861.125" close="False" data-weight="0.0" stroke-width="6" fill="none" stroke="#377eb8" />
<path d="M1475.625,178.125 C1464.375,178.125,1441.875,178.125,1430.625,178.125" close="False" data-weight="0.0" stroke-width="6" fill="none" stroke="#377eb8" />
<path d="M1400.625,178.125 C1389.375,178.125,1366.875,178.125,1355.625,178.125" close="False" data-weight="0.0" stroke-width="6" fill="none" stroke="#377eb8" />
<path d="M2049.125,725.2665898254845 L2049.125,755.9834101745155" close="False" data-weight="1.75" stroke-width="6" fill="none" stroke="#377eb8" />
<path d="M2049.125,650.2665898254845 L2049.125,680.9834101745155" close="False" data-weight="1.75" stroke-width="6" fill="none" stroke="#377eb8" />
<path d="M2049.125,575.2665898254845 L2049.125,605.9834101745155" close="False" data-weight="1.75" stroke-width="6" fill="none" stroke="#377eb8" />
<path d="M2049.125,500.2665898254845 L2049.125,530.9834101745155" close="False" data-weight="1.75" stroke-width="6" fill="none" stroke="#377eb8" />
<path d="M2049.125,425.2665898254845 L2049.125,455.9834101745155" close="False" data-weight="1.75" stroke-width="6" fill="none" stroke="#377eb8" />
<path d="M1994.0349025766973,837.2150974233027 L2037.2150974233027,794.0349025766973" close="False" data-weight="2.060660171779821" stroke-width="6" fill="none" stroke="#377eb8" />
<path d="M2000.625,403.125 L2030.625,403.125" close="False" data-weight="1.75" stroke-width="6" fill="none" stroke="#377eb8" />
<path d="M1919.0349025766973,912.2150974233027 L1962.2150974233027,869.0349025766973" close="False" data-weight="2.060660171779821" stroke-width="6" fill="none" stroke="#377eb8" />
<path d="M1925.625,403.125 L1955.625,403.125" close="False" data-weight="1.75" stroke-width="6" fill="none" stroke="#377eb8" />
<path d="M1832.125,1100.2665898254845 L1832.125,1130.9834101745155" close="False" data-weight="1.75" stroke-width="6" fill="none" stroke="#377eb8" />
<path d="M1832.125,1025.2665898254845 L1832.125,1055.9834101745155" close="False" data-weight="1.75" stroke-width="6" fill="none" stroke="#377eb8" />
<path d="M1844.0349025766973,987.2150974233027 L1887.2150974233027,944.0349025766973" close="False" data-weight="2.060660171779821" stroke-width="6" fill="none" stroke="#377eb8" />
<path d="M1844.0349025766973,344.03490257669733 L1887.2150974233027,387.21509742330267" close="False" data-weight="2.060660171779821" stroke-width="6" fill="none" stroke="#377eb8" />
<path d="M1828.125,275.625 L1828.125,305.625" close="False" data-weight="1.75" stroke-width="6" fill="none" stroke="#377eb8" />
<path d="M1828.125,200.625 L1828.125,230.625" close="False" data-weight="1.75" stroke-width="6" fill="none" stroke="#377eb8" />
<path d="M1828.125,125.625 L1828.125,155.625" close="False" data-weight="1.75" stroke-width="6" fill="none" stroke="#377eb8" />
<path d="M1775.2665898254845,1157.125 L1805.9834101745155,1157.125" close="False" data-weight="1.75" stroke-width="6" fill="none" stroke="#377eb8" />
<path d="M1753.125,1100.625 L1753.125,1130.625" close="False" data-weight="1.75" stroke-width="6" fill="none" stroke="#377eb8" />
<path d="M1775.2665898254845,999.125 L1805.9834101745155,999.125" close="False" data-weight="1.75" stroke-width="6" fill="none" stroke="#377eb8" />
<path d="M1775.625,328.125 L1805.625,328.125" close="False" data-weight="1.75" stroke-width="6" fill="none" stroke="#377eb8" />
<path d="M1775.625,178.125 L1805.625,178.125" close="False" data-weight="1.75" stroke-width="6" fill="none" stroke="#377eb8" />
<path d="M1775.625,103.125 L1805.625,103.125" close="False" data-weight="1.75" stroke-width="6" fill="none" stroke="#377eb8" />
<path d="M1694.0349025766973,1212.2150974233027 L1737.2150974233027,1169.0349025766973" close="False" data-weight="2.060660171779821" stroke-width="6" fill="none" stroke="#377eb8" />
<path d="M1696.6098954365973,940.953041187105 L1740.2969588128951,984.6401045634026" close="False" data-weight="2.060660171779821" stroke-width="6" fill="none" stroke="#377eb8" />
<path d="M1700.625,178.125 L1730.625,178.125" close="False" data-weight="1.75" stroke-width="6" fill="none" stroke="#377eb8" />
<path d="M1619.0349025766973,1287.2150974233027 L1662.2150974233027,1244.0349025766973" close="False" data-weight="2.060660171779821" stroke-width="6" fill="none" stroke="#377eb8" />
<path d="M1621.6098954365973,865.953041187105 L1665.2969588128951,909.6401045634026" close="False" data-weight="2.060660171779821" stroke-width="6" fill="none" stroke="#377eb8" />
<path d="M1625.625,178.125 L1655.625,178.125" close="False" data-weight="1.75" stroke-width="6" fill="none" stroke="#377eb8" />
<path d="M1544.0349025766973,1362.2150974233027 L1587.2150974233027,1319.0349025766973" close="False" data-weight="2.060660171779821" stroke-width="6" fill="none" stroke="#377eb8" />
<path d="M1549.1547408448132,861.125 L1582.0952591551868,861.125" close="False" data-weight="1.75" stroke-width="6" fill="none" stroke="#377eb8" />
<path d="M1550.625,178.125 L1580.625,178.125" close="False" data-weight="1.75" stroke-width="6" fill="none" stroke="#377eb8" />
<path d="M1461.125,1774.1547408448132 L1461.125,1807.0952591551868" close="False" data-weight="1.75" stroke-width="6" fill="none" stroke="#377eb8" />
<path d="M1453.125,1700.625 L1453.125,1730.625" close="False" data-weight="1.75" stroke-width="6" fill="none" stroke="#377eb8" />
<path d="M1453.125,1625.625 L1453.125,1655.625" close="False" data-weight="1.75" stroke-width="6" fill="none" stroke="#377eb8" />
<path d="M1453.125,1550.625 L1453.125,1580.625" close="False" data-weight="1.75" stroke-width="6" fill="none" stroke="#377eb8" />
<path d="M1453.125,1475.625 L1453.125,1505.625" close="False" data-weight="1.75" stroke-width="6" fill="none" stroke="#377eb8" />
<path d="M1469.0349025766973,1437.2150974233027 L1512.2150974233027,1394.0349025766973" close="False" data-weight="2.060660171779821" stroke-width="6" fill="none" stroke="#377eb8" />
<path d="M1474.1547408448132,861.125 L1507.0952591551868,861.125" close="False" data-weight="1.75" stroke-width="6" fill="none" stroke="#377eb8" />
<path d="M1475.625,178.125 L1505.625,178.125" close="False" data-weight="1.75" stroke-width="6" fill="none" stroke="#377eb8" />
<path d="M1399.1547408448132,861.125 L1432.0952591551868,861.125" close="False" data-weight="1.75" stroke-width="6" fill="none" stroke="#377eb8" />
<path d="M1400.625,178.125 L1430.625,178.125" close="False" data-weight="1.75" stroke-width="6" fill="none" stroke="#377eb8" />
<path d="M1325.625,178.125 L1355.625,178.125" close="False" data-weight="1.75" stroke-width="6" fill="none" stroke="#377eb8" />
<path d="M1690.9530411871049,946.6098954365974 C1683.1248070311792,938.7816612806719,1667.4683387193284,923.1251929688206,1659.6401045634027,915.296958812895" close="False" data-weight="0.0" stroke-width="6" fill="none" stroke="#e41a1c" />
<path d="M1615.9530411871049,871.6098954365974 A93.8303986367536,93.8303986367536,0,0,0,1599.8121656631092,858.6902502339128 M1599.8121656631092,858.6902502339128 A35.8581662615602,35.8581662615602,0,0,0,1580.625,853.125 M1580.625,853.125" close="False" data-weight="1.0" stroke-width="6" fill="none" stroke="#e41a1c" />
<path d="M1550.625,853.125 C1539.375,853.125,1516.875,853.125,1505.625,853.125" close="False" data-weight="0.0" stroke-width="6" fill="none" stroke="#e41a1c" />
<path d="M1445.125,1774.1547408448132 A85.70913402487622,85.70913402487622,0,0,0,1443.1522315401235,1755.8715043354057 M1443.1522315401235,1755.8715043354057 A31.540857881622202,31.540857881622202,0,0,0,1434.6401045634027,1740.2969588128951 M1434.6401045634027,1740.2969588128951" close="False" data-weight="1.0" stroke-width="6" fill="none" stroke="#e41a1c" />
<path d="M1475.625,853.125 C1464.375,853.125,1441.875,853.125,1430.625,853.125" close="False" data-weight="0.0" stroke-width="6" fill="none" stroke="#e41a1c" />
<path d="M1390.9530411871049,1696.6098954365973 C1383.1248070311792,1688.7816612806716,1367.4683387193284,1673.1251929688208,1359.6401045634027,1665.2969588128951" close="False" data-weight="0.0" stroke-width="6" fill="none" stroke="#e41a1c" />
<path d="M1374.125,980.9834101745155 A49.45452644918828,49.45452644918828,0,0,1,1370.360498327255,999.9088381020805 M1370.360498327255,999.9088381020805 A49.454526449185416,49.454526449185416,0,0,1,1359.6401045634027,1015.953041187105 M1359.6401045634027,1015.953041187105" close="False" data-weight="1.0" stroke-width="6" fill="none" stroke="#e41a1c" />
<path d="M1374.125,905.9834101745155 C1374.125,917.0542050872577,1374.125,939.1957949127423,1374.125,950.2665898254845" close="False" data-weight="0.0" stroke-width="6" fill="none" stroke="#e41a1c" />
<path d="M1315.9530411871049,1621.6098954365973 C1308.1248070311792,1613.7816612806716,1292.4683387193284,1598.1251929688208,1284.6401045634027,1590.2969588128951" close="False" data-weight="0.0" stroke-width="6" fill="none" stroke="#e41a1c" />
<path d="M1315.9530411871049,1059.6401045634027 C1308.1248070311792,1067.4683387193284,1292.4683387193284,1083.1248070311792,1284.6401045634027,1090.9530411871049" close="False" data-weight="0.0" stroke-width="6" fill="none" stroke="#e41a1c" />
<path d="M1315.9530411871049,796.6098954365974 C1308.1248070311792,788.7816612806719,1292.4683387193284,773.1251929688206,1284.6401045634027,765.296958812895" close="False" data-weight="0.0" stroke-width="6" fill="none" stroke="#e41a1c" />
<path d="M1240.9530411871049,1546.6098954365973 C1233.1248070311792,1538.7816612806716,1217.4683387193284,1523.1251929688208,1209.6401045634027,1515.2969588128951" close="False" data-weight="0.0" stroke-width="6" fill="none" stroke="#e41a1c" />
<path d="M1240.9530411871049,1134.6401045634027 C1233.1248070311792,1142.4683387193284,1217.4683387193284,1158.1248070311792,1209.6401045634027,1165.9530411871049" close="False" data-weight="0.0" stroke-width="6" fill="none" stroke="#e41a1c" />
<path d="M1240.9530411871049,721.6098954365974 C1233.1248070311774,713.78166128067,1217.4683387193227,698.1251929688151,1209.6401045633952,690.2969588128876" close="False" data-weight="0.0" stroke-width="6" fill="none" stroke="#e41a1c" />
<path d="M1165.95304118709,1471.6098954365825 C1158.124807031172,1463.7816612806644,1142.4683387193356,1448.125192968828,1134.6401045634175,1440.29695881291" close="False" data-weight="0.0" stroke-width="6" fill="none" stroke="#e41a1c" />
<path d="M1165.9530411871049,1209.6401045634027 C1158.1248070311792,1217.4683387193284,1142.4683387193284,1233.1248070311792,1134.6401045634027,1240.9530411871049" close="False" data-weight="0.0" stroke-width="6" fill="none" stroke="#e41a1c" />
<path d="M1165.9530411871049,646.6098954365974 A49.45452644918799,49.45452644918799,0,0,0,1149.9088381020804,635.889501672745 M1149.9088381020804,635.889501672745 A49.45452644918544,49.45452644918544,0,0,0,1130.9834101745155,632.125 M1130.9834101745155,632.125" close="False" data-weight="1.0" stroke-width="6" fill="none" stroke="#e41a1c" />
<path d="M1100.2665898254845,632.125 C1089.1957949127423,632.125,1067.0542050872577,632.125,1055.9834101745155,632.125" close="False" data-weight="0.0" stroke-width="6" fill="none" stroke="#e41a1c" />
<path d="M1025.2665898254845,632.125 C1014.1957949127423,632.125,992.0542050872577,632.125,980.9834101745155,632.125" close="False" data-weight="0.0" stroke-width="6" fill="none" stroke="#e41a1c" />
<path d="M869.0349025766973,419.03490257669733 C861.0799512883486,411.0799512883487,845.1700487116514,395.1700487116513,837.2150974233027,387.21509742330267" close="False" data-weight="0.0" stroke-width="6" fill="none" stroke="#e41a1c" />
<path d="M646.6098954366012,390.2969588128913 C638.7816612806737,398.1251929688188,623.1251929688189,413.7816612806737,615.2969588128914,421.6098954366011" close="False" data-weight="0.0" stroke-width="6" fill="none" stroke="#e41a1c" />
<path d="M571.6098954365974,465.296958812895 A49.4545264491869,49.4545264491869,0,0,0,560.889501672745,481.34116189791956 M560.889501672745,481.34116189791956 A49.454526449186915,49.454526449186915,0,0,0,557.125,500.2665898254845 M557.125,500.2665898254845" close="False" data-weight="1.0" stroke-width="6" fill="none" stroke="#e41a1c" />
<path d="M1824.125,1100.2665898254845 L1824.125,1130.9834101745155" close="False" data-weight="1.75" stroke-width="6" fill="none" stroke="#e41a1c" />
<path d="M1824.125,1025.2665898254845 L1824.125,1055.9834101745155" close="False" data-weight="1.75" stroke-width="6" fill="none" stroke="#e41a1c" />
<path d="M1775.2665898254845,1149.125 L1805.9834101745155,1149.125" close="False" data-weight="1.75" stroke-width="6" fill="none" stroke="#e41a1c" />
<path d="M1775.625,1078.125 L1805.625,1078.125" close="False" data-weight="1.75" stroke-width="6" fill="none" stroke="#e41a1c" />
<path d="M1775.2665898254845,1007.125 L1805.9834101745155,1007.125" close="False" data-weight="1.75" stroke-width="6" fill="none" stroke="#e41a1c" />
<path d="M1690.9530411871049,946.6098954365974 L1734.6401045634027,990.296958812895" close="False" data-weight="2.060660171779821" stroke-width="6" fill="none" stroke="#e41a1c" />
<path d="M1615.9530411871049,871.6098954365974 L1659.6401045634027,915.296958812895" close="False" data-weight="2.060660171779821" stroke-width="6" fill="none" stroke="#e41a1c" />
<path d="M1550.625,853.125 L1580.625,853.125" close="False" data-weight="1.75" stroke-width="6" fill="none" stroke="#e41a1c" />
<path d="M1445.125,1774.1547408448132 L1445.125,1807.0952591551868" close="False" data-weight="1.75" stroke-width="6" fill="none" stroke="#e41a1c" />
<path d="M1475.625,853.125 L1505.625,853.125" close="False" data-weight="1.75" stroke-width="6" fill="none" stroke="#e41a1c" />
<path d="M1390.9530411871049,1696.6098954365973 L1434.6401045634027,1740.2969588128951" close="False" data-weight="2.060660171779821" stroke-width="6" fill="none" stroke="#e41a1c" />
<path d="M1374.125,950.2665898254845 L1374.125,980.9834101745155" close="False" data-weight="1.75" stroke-width="6" fill="none" stroke="#e41a1c" />
<path d="M1374.125,875.2665898254845 L1374.125,905.9834101745155" close="False" data-weight="1.75" stroke-width="6" fill="none" stroke="#e41a1c" />
<path d="M1400.625,853.125 L1430.625,853.125" close="False" data-weight="1.75" stroke-width="6" fill="none" stroke="#e41a1c" />
<path d="M1315.9530411871049,1621.6098954365973 L1359.6401045634027,1665.2969588128951" close="False" data-weight="2.060660171779821" stroke-width="6" fill="none" stroke="#e41a1c" />
<path d="M1315.9530411871049,1059.6401045634027 L1359.6401045634027,1015.953041187105" close="False" data-weight="2.060660171779821" stroke-width="6" fill="none" stroke="#e41a1c" />
<path d="M1315.9530411871049,796.6098954365974 L1359.6401045634027,840.296958812895" close="False" data-weight="2.060660171779821" stroke-width="6" fill="none" stroke="#e41a1c" />
<path d="M1240.9530411871049,1546.6098954365973 L1284.6401045634027,1590.2969588128951" close="False" data-weight="2.060660171779821" stroke-width="6" fill="none" stroke="#e41a1c" />
<path d="M1240.9530411871049,1134.6401045634027 L1284.6401045634027,1090.9530411871049" close="False" data-weight="2.060660171779821" stroke-width="6" fill="none" stroke="#e41a1c" />
<path d="M1240.9530411871124,721.6098954366048 L1284.6401045634027,765.296958812895" close="False" data-weight="2.060660171779821" stroke-width="6" fill="none" stroke="#e41a1c" />
<path d="M1165.95304118709,1471.6098954365825 L1209.6401045634027,1515.2969588128951" close="False" data-weight="2.060660171779821" stroke-width="6" fill="none" stroke="#e41a1c" />
<path d="M1165.9530411871049,1209.6401045634027 L1209.6401045634027,1165.9530411871049" close="False" data-weight="2.060660171779821" stroke-width="6" fill="none" stroke="#e41a1c" />
<path d="M1165.9530411871049,646.6098954365974 L1209.6401045633952,690.2969588128876" close="False" data-weight="2.060660171779821" stroke-width="6" fill="none" stroke="#e41a1c" />
<path d="M1090.9530411871049,1396.6098954365973 L1134.6401045634027,1440.2969588128951" close="False" data-weight="2.060660171779821" stroke-width="6" fill="none" stroke="#e41a1c" />
<path d="M1090.9530411871049,1284.6401045634027 L1134.6401045634027,1240.9530411871049" close="False" data-weight="2.060660171779821" stroke-width="6" fill="none" stroke="#e41a1c" />
<path d="M1100.2665898254845,632.125 L1130.9834101745155,632.125" close="False" data-weight="1.75" stroke-width="6" fill="none" stroke="#e41a1c" />
<path d="M1025.2665898254845,1382.125 L1055.9834101745155,1382.125" close="False" data-weight="1.75" stroke-width="6" fill="none" stroke="#e41a1c" />
<path d="M1025.625,1303.125 L1055.625,1303.125" close="False" data-weight="1.75" stroke-width="6" fill="none" stroke="#e41a1c" />
<path d="M1025.2665898254845,632.125 L1055.9834101745155,632.125" close="False" data-weight="1.75" stroke-width="6" fill="none" stroke="#e41a1c" />
<path d="M950.2665898254845,1382.125 L980.9834101745155,1382.125" close="False" data-weight="1.75" stroke-width="6" fill="none" stroke="#e41a1c" />
<path d="M950.2665898254845,1299.125 L980.9834101745155,1299.125" close="False" data-weight="1.75" stroke-width="6" fill="none" stroke="#e41a1c" />
<path d="M950.2665898254845,632.125 L980.9834101745155,632.125" close="False" data-weight="1.75" stroke-width="6" fill="none" stroke="#e41a1c" />
<path d="M932.125,575.2665898254845 L932.125,605.9834101745155" close="False" data-weight="1.75" stroke-width="6" fill="none" stroke="#e41a1c" />
<path d="M932.125,500.2665898254845 L932.125,530.9834101745155" close="False" data-weight="1.75" stroke-width="6" fill="none" stroke="#e41a1c" />
<path d="M875.2665898254845,1382.125 L905.9834101745155,1382.125" close="False" data-weight="1.75" stroke-width="6" fill="none" stroke="#e41a1c" />
<path d="M875.625,1303.125 L905.625,1303.125" close="False" data-weight="1.75" stroke-width="6" fill="none" stroke="#e41a1c" />
<path d="M875.2665898254845,632.125 L905.9834101745155,632.125" close="False" data-weight="1.75" stroke-width="6" fill="none" stroke="#e41a1c" />
<path d="M853.125,575.625 L853.125,605.625" close="False" data-weight="1.75" stroke-width="6" fill="none" stroke="#e41a1c" />
<path d="M869.0349025766973,419.03490257669733 L912.2150974233027,462.21509742330267" close="False" data-weight="2.060660171779821" stroke-width="6" fill="none" stroke="#e41a1c" />
<path d="M782.125,1400.2665898254845 L782.125,1430.9834101745155" close="False" data-weight="1.75" stroke-width="6" fill="none" stroke="#e41a1c" />
<path d="M800.2665898254845,1382.125 L830.9834101745155,1382.125" close="False" data-weight="1.75" stroke-width="6" fill="none" stroke="#e41a1c" />
<path d="M782.125,1325.2665898254845 L782.125,1355.9834101745155" close="False" data-weight="1.75" stroke-width="6" fill="none" stroke="#e41a1c" />
<path d="M800.2665898254845,1307.125 L830.9834101745155,1307.125" close="False" data-weight="1.75" stroke-width="6" fill="none" stroke="#e41a1c" />
<path d="M794.0349025766973,344.03490257669733 L837.2150974233027,387.21509742330267" close="False" data-weight="2.060660171779821" stroke-width="6" fill="none" stroke="#e41a1c" />
<path d="M707.125,1400.2665898254845 L707.125,1430.9834101745155" close="False" data-weight="1.75" stroke-width="6" fill="none" stroke="#e41a1c" />
<path d="M725.625,1303.125 L755.625,1303.125" close="False" data-weight="1.75" stroke-width="6" fill="none" stroke="#e41a1c" />
<path d="M725.2665898254845,332.125 L755.9834101745155,332.125" close="False" data-weight="1.75" stroke-width="6" fill="none" stroke="#e41a1c" />
<path d="M628.125,1475.625 L628.125,1505.625" close="False" data-weight="1.75" stroke-width="6" fill="none" stroke="#e41a1c" />
<path d="M650.625,1453.125 L680.625,1453.125" close="False" data-weight="1.75" stroke-width="6" fill="none" stroke="#e41a1c" />
<path d="M628.125,1400.625 L628.125,1430.625" close="False" data-weight="1.75" stroke-width="6" fill="none" stroke="#e41a1c" />
<path d="M628.125,1325.625 L628.125,1355.625" close="False" data-weight="1.75" stroke-width="6" fill="none" stroke="#e41a1c" />
<path d="M650.625,1303.125 L680.625,1303.125" close="False" data-weight="1.75" stroke-width="6" fill="none" stroke="#e41a1c" />
<path d="M646.609895436601,390.2969588128913 L690.2969588128913,346.6098954366011" close="False" data-weight="2.060660171779821" stroke-width="6" fill="none" stroke="#e41a1c" />
<path d="M575.625,1453.125 L605.625,1453.125" close="False" data-weight="1.75" stroke-width="6" fill="none" stroke="#e41a1c" />
<path d="M553.125,1400.625 L553.125,1430.625" close="False" data-weight="1.75" stroke-width="6" fill="none" stroke="#e41a1c" />
<path d="M557.125,500.2665898254845 L557.125,530.9834101745155" close="False" data-weight="1.75" stroke-width="6" fill="none" stroke="#e41a1c" />
<path d="M571.6098954365974,465.296958812895 L615.2969588128913,421.6098954366011" close="False" data-weight="2.060660171779821" stroke-width="6" fill="none" stroke="#e41a1c" />
<path d="M500.625,1378.125 L530.625,1378.125" close="False" data-weight="1.75" stroke-width="6" fill="none" stroke="#e41a1c" />
<path d="M478.125,1325.625 L478.125,1355.625" close="False" data-weight="1.75" stroke-width="6" fill="none" stroke="#e41a1c" />
<path d="M500.625,1303.125 L530.625,1303.125" close="False" data-weight="1.75" stroke-width="6" fill="none" stroke="#e41a1c" />
<path d="M425.625,1378.125 L455.625,1378.125" close="False" data-weight="1.75" stroke-width="6" fill="none" stroke="#e41a1c" />
<path d="M403.125,1325.625 L403.125,1355.625" close="False" data-weight="1.75" stroke-width="6" fill="none" stroke="#e41a1c" />
<path d="M328.125,1475.625 L328.125,1505.625" close="False" data-weight="1.75" stroke-width="6" fill="none" stroke="#e41a1c" />
<path d="M328.125,1400.625 L328.125,1430.625" close="False" data-weight="1.75" stroke-width="6" fill="none" stroke="#e41a1c" />
<path d="M350.625,1378.125 L380.625,1378.125" close="False" data-weight="1.75" stroke-width="6" fill="none" stroke="#e41a1c" />
<path d="M328.125,1325.625 L328.125,1355.625" close="False" data-weight="1.75" stroke-width="6" fill="none" stroke="#e41a1c" />
<path d="M275.625,1453.125 L305.625,1453.125" close="False" data-weight="1.75" stroke-width="6" fill="none" stroke="#e41a1c" />
<path d="M275.625,1378.125 L305.625,1378.125" close="False" data-weight="1.75" stroke-width="6" fill="none" stroke="#e41a1c" />
<path d="M275.625,1303.125 L305.625,1303.125" close="False" data-weight="1.75" stroke-width="6" fill="none" stroke="#e41a1c" />
<path d="M200.625,1528.125 L230.625,1528.125" close="False" data-weight="1.75" stroke-width="6" fill="none" stroke="#e41a1c" />
<path d="M178.125,1475.625 L178.125,1505.625" close="False" data-weight="1.75" stroke-width="6" fill="none" stroke="#e41a1c" />
<path d="M200.625,1453.125 L230.625,1453.125" close="False" data-weight="1.75" stroke-width="6" fill="none" stroke="#e41a1c" />
<path d="M200.625,1378.125 L230.625,1378.125" close="False" data-weight="1.75" stroke-width="6" fill="none" stroke="#e41a1c" />
<path d="M178.125,1325.625 L178.125,1355.625" close="False" data-weight="1.75" stroke-width="6" fill="none" stroke="#e41a1c" />
<path d="M125.625,1528.125 L155.625,1528.125" close="False" data-weight="1.75" stroke-width="6" fill="none" stroke="#e41a1c" />
<path d="M125.625,1453.125 L155.625,1453.125" close="False" data-weight="1.75" stroke-width="6" fill="none" stroke="#e41a1c" />
<path d="M103.125,1400.625 L103.125,1430.625" close="False" data-weight="1.75" stroke-width="6" fill="none" stroke="#e41a1c" />
<image x="2320.625" y="1420.625" width="65" height="65" xlink:href="designspace-test/./img/ds_dataset3_80_25_thumb.png">
<title>25</title>
</image>
<image x="2095.625" y="1270.625" width="65" height="65" xlink:href="designspace-test/./img/ds_dataset3_80_17_thumb.png">
<title>17</title>
</image>
<image x="2020.625" y="370.625" width="65" height="65" xlink:href="designspace-test/./img/ds_dataset3_80_32_thumb.png">
<title>32</title>
</image>
<image x="1945.625" y="2170.625" width="65" height="65" xlink:href="designspace-test/./img/ds_dataset3_80_59_thumb.png">
<title>59</title>
</image>
<image x="1945.625" y="2020.625" width="65" height="65" xlink:href="designspace-test/./img/ds_dataset3_80_71_thumb.png">
<title>71</title>
</image>
<image x="1870.625" y="2170.625" width="65" height="65" xlink:href="designspace-test/./img/ds_dataset3_80_15_thumb.png">
<title>15</title>
</image>
<image x="1870.625" y="2095.625" width="65" height="65" xlink:href="designspace-test/./img/ds_dataset3_80_38_thumb.png">
<title>38</title>
</image>
<image x="1870.625" y="2020.625" width="65" height="65" xlink:href="designspace-test/./img/ds_dataset3_80_30_thumb.png">
<title>30</title>
</image>
<image x="1870.625" y="1045.625" width="65" height="65" xlink:href="designspace-test/./img/ds_dataset3_80_36_thumb.png">
<title>36</title>
</image>
<image x="1870.625" y="895.625" width="65" height="65" xlink:href="designspace-test/./img/ds_dataset3_80_29_thumb.png">
<title>29</title>
</image>
<image x="1795.625" y="1120.625" width="65" height="65" xlink:href="designspace-test/./img/ds_dataset3_80_1_thumb.png">
<title>1</title>
</image>
<image x="1795.625" y="1045.625" width="65" height="65" xlink:href="designspace-test/./img/ds_dataset3_80_19_thumb.png">
<title>19</title>
</image>
<image x="1795.625" y="970.625" width="65" height="65" xlink:href="designspace-test/./img/ds_dataset3_80_47_thumb.png">
<title>47</title>
</image>
<image x="1795.625" y="295.625" width="65" height="65" xlink:href="designspace-test/./img/ds_dataset3_80_5_thumb.png">
<title>5</title>
</image>
<image x="1795.625" y="220.625" width="65" height="65" xlink:href="designspace-test/./img/ds_dataset3_80_44_thumb.png">
<title>44</title>
</image>
<image x="1795.625" y="145.625" width="65" height="65" xlink:href="designspace-test/./img/ds_dataset3_80_76_thumb.png">
<title>76</title>
</image>
<image x="1795.625" y="70.625" width="65" height="65" xlink:href="designspace-test/./img/ds_dataset3_80_51_thumb.png">
<title>51</title>
</image>
<image x="1720.625" y="1120.625" width="65" height="65" xlink:href="designspace-test/./img/ds_dataset3_80_69_thumb.png">
<title>69</title>
</image>
<image x="1720.625" y="1045.625" width="65" height="65" xlink:href="designspace-test/./img/ds_dataset3_80_73_thumb.png">
<title>73</title>
</image>
<image x="1720.625" y="970.625" width="65" height="65" xlink:href="designspace-test/./img/ds_dataset3_80_21_thumb.png">
<title>21</title>
</image>
<image x="1720.625" y="295.625" width="65" height="65" xlink:href="designspace-test/./img/ds_dataset3_80_12_thumb.png">
<title>12</title>
</image>
<image x="1720.625" y="145.625" width="65" height="65" xlink:href="designspace-test/./img/ds_dataset3_80_9_thumb.png">
<title>9</title>
</image>
<image x="1720.625" y="70.625" width="65" height="65" xlink:href="designspace-test/./img/ds_dataset3_80_28_thumb.png">
<title>28</title>
</image>
<image x="1420.625" y="1795.625" width="65" height="65" xlink:href="designspace-test/./img/ds_dataset3_80_27_thumb.png">
<title>27</title>
</image>
<image x="1345.625" y="820.625" width="65" height="65" xlink:href="designspace-test/./img/ds_dataset3_80_54_thumb.png">
<title>54</title>
</image>
<image x="1270.625" y="145.625" width="65" height="65" xlink:href="designspace-test/./img/ds_dataset3_80_66_thumb.png">
<title>66</title>
</image>
<image x="1195.625" y="2395.625" width="65" height="65" xlink:href="designspace-test/./img/ds_dataset3_80_49_thumb.png">
<title>49</title>
</image>
<image x="1045.625" y="1345.625" width="65" height="65" xlink:href="designspace-test/./img/ds_dataset3_80_13_thumb.png">
<title>13</title>
</image>
<image x="1045.625" y="1270.625" width="65" height="65" xlink:href="designspace-test/./img/ds_dataset3_80_34_thumb.png">
<title>34</title>
</image>
<image x="970.625" y="1345.625" width="65" height="65" xlink:href="designspace-test/./img/ds_dataset3_80_0_thumb.png">
<title>0</title>
</image>
<image x="970.625" y="1270.625" width="65" height="65" xlink:href="designspace-test/./img/ds_dataset3_80_77_thumb.png">
<title>77</title>
</image>
<image x="895.625" y="1345.625" width="65" height="65" xlink:href="designspace-test/./img/ds_dataset3_80_56_thumb.png">
<title>56</title>
</image>
<image x="895.625" y="1270.625" width="65" height="65" xlink:href="designspace-test/./img/ds_dataset3_80_72_thumb.png">
<title>72</title>
</image>
<image x="895.625" y="595.625" width="65" height="65" xlink:href="designspace-test/./img/ds_dataset3_80_53_thumb.png">
<title>53</title>
</image>
<image x="895.625" y="520.625" width="65" height="65" xlink:href="designspace-test/./img/ds_dataset3_80_45_thumb.png">
<title>45</title>
</image>
<image x="895.625" y="445.625" width="65" height="65" xlink:href="designspace-test/./img/ds_dataset3_80_40_thumb.png">
<title>40</title>
</image>
<image x="820.625" y="1345.625" width="65" height="65" xlink:href="designspace-test/./img/ds_dataset3_80_60_thumb.png">
<title>60</title>
</image>
<image x="820.625" y="1270.625" width="65" height="65" xlink:href="designspace-test/./img/ds_dataset3_80_18_thumb.png">
<title>18</title>
</image>
<image x="820.625" y="595.625" width="65" height="65" xlink:href="designspace-test/./img/ds_dataset3_80_33_thumb.png">
<title>33</title>
</image>
<image x="820.625" y="520.625" width="65" height="65" xlink:href="designspace-test/./img/ds_dataset3_80_35_thumb.png">
<title>35</title>
</image>
<image x="745.625" y="1420.625" width="65" height="65" xlink:href="designspace-test/./img/ds_dataset3_80_43_thumb.png">
<title>43</title>
</image>
<image x="745.625" y="1345.625" width="65" height="65" xlink:href="designspace-test/./img/ds_dataset3_80_70_thumb.png">
<title>70</title>
</image>
<image x="745.625" y="1270.625" width="65" height="65" xlink:href="designspace-test/./img/ds_dataset3_80_37_thumb.png">
<title>37</title>
</image>
<image x="745.625" y="295.625" width="65" height="65" xlink:href="designspace-test/./img/ds_dataset3_80_61_thumb.png">
<title>61</title>
</image>
<image x="670.625" y="1420.625" width="65" height="65" xlink:href="designspace-test/./img/ds_dataset3_80_79_thumb.png">
<title>79</title>
</image>
<image x="670.625" y="1345.625" width="65" height="65" xlink:href="designspace-test/./img/ds_dataset3_80_67_thumb.png">
<title>67</title>
</image>
<image x="670.625" y="1270.625" width="65" height="65" xlink:href="designspace-test/./img/ds_dataset3_80_64_thumb.png">
<title>64</title>
</image>
<image x="670.625" y="295.625" width="65" height="65" xlink:href="designspace-test/./img/ds_dataset3_80_2_thumb.png">
<title>2</title>
</image>
<image x="595.625" y="1495.625" width="65" height="65" xlink:href="designspace-test/./img/ds_dataset3_80_20_thumb.png">
<title>20</title>
</image>
<image x="595.625" y="1420.625" width="65" height="65" xlink:href="designspace-test/./img/ds_dataset3_80_14_thumb.png">
<title>14</title>
</image>
<image x="595.625" y="1345.625" width="65" height="65" xlink:href="designspace-test/./img/ds_dataset3_80_16_thumb.png">
<title>16</title>
</image>
<image x="595.625" y="1270.625" width="65" height="65" xlink:href="designspace-test/./img/ds_dataset3_80_68_thumb.png">
<title>68</title>
</image>
<image x="520.625" y="1420.625" width="65" height="65" xlink:href="designspace-test/./img/ds_dataset3_80_24_thumb.png">
<title>24</title>
</image>
<image x="520.625" y="1345.625" width="65" height="65" xlink:href="designspace-test/./img/ds_dataset3_80_48_thumb.png">
<title>48</title>
</image>
<image x="520.625" y="1270.625" width="65" height="65" xlink:href="designspace-test/./img/ds_dataset3_80_41_thumb.png">
<title>41</title>
</image>
<image x="520.625" y="520.625" width="65" height="65" xlink:href="designspace-test/./img/ds_dataset3_80_11_thumb.png">
<title>11</title>
</image>
<image x="520.625" y="70.625" width="65" height="65" xlink:href="designspace-test/./img/ds_dataset3_80_74_thumb.png">
<title>74</title>
</image>
<image x="445.625" y="1345.625" width="65" height="65" xlink:href="designspace-test/./img/ds_dataset3_80_26_thumb.png">
<title>26</title>
</image>
<image x="445.625" y="1270.625" width="65" height="65" xlink:href="designspace-test/./img/ds_dataset3_80_52_thumb.png">
<title>52</title>
</image>
<image x="370.625" y="1345.625" width="65" height="65" xlink:href="designspace-test/./img/ds_dataset3_80_10_thumb.png">
<title>10</title>
</image>
<image x="370.625" y="1270.625" width="65" height="65" xlink:href="designspace-test/./img/ds_dataset3_80_4_thumb.png">
<title>4</title>
</image>
<image x="295.625" y="1495.625" width="65" height="65" xlink:href="designspace-test/./img/ds_dataset3_80_22_thumb.png">
<title>22</title>
</image>
<image x="295.625" y="1420.625" width="65" height="65" xlink:href="designspace-test/./img/ds_dataset3_80_78_thumb.png">
<title>78</title>
</image>
<image x="295.625" y="1345.625" width="65" height="65" xlink:href="designspace-test/./img/ds_dataset3_80_57_thumb.png">
<title>57</title>
</image>
<image x="295.625" y="1270.625" width="65" height="65" xlink:href="designspace-test/./img/ds_dataset3_80_55_thumb.png">
<title>55</title>
</image>
<image x="220.625" y="1495.625" width="65" height="65" xlink:href="designspace-test/./img/ds_dataset3_80_58_thumb.png">
<title>58</title>
</image>
<image x="220.625" y="1420.625" width="65" height="65" xlink:href="designspace-test/./img/ds_dataset3_80_3_thumb.png">
<title>3</title>
</image>
<image x="220.625" y="1345.625" width="65" height="65" xlink:href="designspace-test/./img/ds_dataset3_80_63_thumb.png">
<title>63</title>
</image>
<image x="220.625" y="1270.625" width="65" height="65" xlink:href="designspace-test/./img/ds_dataset3_80_50_thumb.png">
<title>50</title>
</image>
<image x="145.625" y="1495.625" width="65" height="65" xlink:href="designspace-test/./img/ds_dataset3_80_23_thumb.png">
<title>23</title>
</image>
<image x="145.625" y="1420.625" width="65" height="65" xlink:href="designspace-test/./img/ds_dataset3_80_65_thumb.png">
<title>65</title>
</image>
<image x="145.625" y="1345.625" width="65" height="65" xlink:href="designspace-test/./img/ds_dataset3_80_62_thumb.png">
<title>62</title>
</image>
<image x="145.625" y="1270.625" width="65" height="65" xlink:href="designspace-test/./img/ds_dataset3_80_7_thumb.png">
<title>7</title>
</image>
<image x="70.625" y="1495.625" width="65" height="65" xlink:href="designspace-test/./img/ds_dataset3_80_31_thumb.png">
<title>31</title>
</image>
<image x="70.625" y="1420.625" width="65" height="65" xlink:href="designspace-test/./img/ds_dataset3_80_39_thumb.png">
<title>39</title>
</image>
<image x="70.625" y="1345.625" width="65" height="65" xlink:href="designspace-test/./img/ds_dataset3_80_6_thumb.png">
<title>6</title>
</image>
<image x="70.625" y="1195.625" width="65" height="65" xlink:href="designspace-test/./img/ds_dataset3_80_75_thumb.png">
<title>75</title>
</image>
<image x="70.625" y="1045.625" width="65" height="65" xlink:href="designspace-test/./img/ds_dataset3_80_46_thumb.png">
<title>46</title>
</image>
<image x="70.625" y="970.625" width="65" height="65" xlink:href="designspace-test/./img/ds_dataset3_80_8_thumb.png">
<title>8</title>
</image>
<image x="70.625" y="895.625" width="65" height="65" xlink:href="designspace-test/./img/ds_dataset3_80_42_thumb.png">
<title>42</title>
</image>
</svg>