<?xml version="1.0" encoding="UTF-8"?>
<svg xmlns="http://www.w3.org/2000/svg" xmlns:xlink="http://www.w3.org/1999/xlink"
     width="1350" height="1350" viewBox="0 0 1350 1350">
<defs>
</defs>
<path d="M269.03490257669733,794.0349025766973 C261.0799512883487,786.0799512883486,245.1700487116513,770.1700487116514,237.21509742330267,762.2150974233027" close="False" data-weight="0.0" stroke-width="6" fill="none" stroke="#ffff33" />
<path d="M194.0349025766973,719.0349025766973 C186.07995128834867,711.0799512883486,170.1700487116513,695.1700487116514,162.21509742330267,687.2150974233027" close="False" data-weight="0.0" stroke-width="6" fill="none" stroke="#ffff33" />
<path d="M269.03490257669733,794.0349025766973 L312.21509742330267,837.2150974233027" close="False" data-weight="2.060660171779821" stroke-width="6" fill="none" stroke="#ffff33" />
<path d="M194.03490257669733,719.0349025766973 L237.2150974233027,762.2150974233027" close="False" data-weight="2.060660171779821" stroke-width="6" fill="none" stroke="#ffff33" />
<path d="M119.03490257669732,644.0349025766973 L162.2150974233027,687.2150974233027" close="False" data-weight="2.060660171779821" stroke-width="6" fill="none" stroke="#ffff33" />
<path d="M865.953041187105,984.6401045634026 C858.1248070311793,992.4683387193282,842.4683387193282,1008.1248070311793,834.6401045634026,1015.953041187105" close="False" data-weight="0.0" stroke-width="6" fill="none" stroke="#984ea3" />
<path d="M849.125,830.9834101745155 A108.01353532173607,108.01353532173607,0,0,0,851.6111492085621,854.0245601636333 M851.6111492085621,854.0245601636333 A39.74885064042027,39.74885064042027,0,0,0,862.3384181084706,873.6521266074554 M862.3384181084706,873.6521266074554" close="False" data-weight="1.0" stroke-width="6" fill="none" stroke="#984ea3" />
<path d="M849.125,755.9834101745155 C849.125,767.0542050872577,849.125,789.1957949127423,849.125,800.2665898254845" close="False" data-weight="0.0" stroke-width="6" fill="none" stroke="#984ea3" />
<path d="M790.953041187105,1059.6401045634027 A57.454526449186446,57.454526449186446,0,0,0,778.4984654126548,1078.2796944389988 M778.4984654126548,1078.2796944389988 A57.45452644918703,57.45452644918703,0,0,0,774.125,1100.2665898254845 M774.125,1100.2665898254845" close="False" data-weight="1.0" stroke-width="6" fill="none" stroke="#984ea3" />
<path d="M494.03490257669733,1094.0349025766973 C486.0799512883487,1086.0799512883486,470.1700487116513,1070.1700487116514,462.21509742330267,1062.2150974233027" close="False" data-weight="0.0" stroke-width="6" fill="none" stroke="#984ea3" />
<path d="M419.03490257669733,1019.0349025766973 C411.0799512883487,1011.0799512883486,395.1700487116513,995.1700487116514,387.21509742330267,987.2150974233027" close="False" data-weight="0.0" stroke-width="6" fill="none" stroke="#984ea3" />
<path d="M328.125,905.625 A54.319805153393474,54.319805153393474,0,0,0,332.25984896217227,926.4122894815039 M332.25984896217227,926.4122894815039 A54.319805153395706,54.319805153395706,0,0,0,344.03490257669733,944.0349025766973 M344.03490257669733,944.0349025766973" close="False" data-weight="1.0" stroke-width="6" fill="none" stroke="#984ea3" />
<path d="M865.953041187105,984.6401045634026 L909.6401045634026,940.953041187105" close="False" data-weight="2.060660171779821" stroke-width="6" fill="none" stroke="#984ea3" />
<path d="M862.3384181084706,873.6521266074554 L907.5978733925446,918.9115818915294" close="False" data-weight="2.060660171779821" stroke-width="6" fill="none" stroke="#984ea3" />
<path d="M849.125,800.2665898254845 L849.125,830.9834101745155" close="False" data-weight="1.75" stroke-width="6" fill="none" stroke="#984ea3" />
<path d="M849.125,725.2665898254845 L849.125,755.9834101745155" close="False" data-weight="1.75" stroke-width="6" fill="none" stroke="#984ea3" />
<path d="M800.2665898254845,1224.125 L830.9834101745155,1224.125" close="False" data-weight="1.75" stroke-width="6" fill="none" stroke="#984ea3" />
<path d="M790.953041187105,1171.6098954365973 L834.6401045634026,1215.2969588128951" close="False" data-weight="2.060660171779821" stroke-width="6" fill="none" stroke="#984ea3" />
<path d="M774.125,1100.2665898254845 L774.125,1130.9834101745155" close="False" data-weight="1.75" stroke-width="6" fill="none" stroke="#984ea3" />
<path d="M790.953041187105,1059.6401045634027 L834.6401045634026,1015.953041187105" close="False" data-weight="2.060660171779821" stroke-width="6" fill="none" stroke="#984ea3" />
<path d="M790.9530411871086,646.609895436601 L834.6401045634026,690.296958812895" close="False" data-weight="2.060660171779821" stroke-width="6" fill="none" stroke="#984ea3" />
<path d="M770.125,574.1547408448131 L770.125,607.0952591551869" close="False" data-weight="1.75" stroke-width="6" fill="none" stroke="#984ea3" />
<path d="M725.2665898254845,1224.125 L755.9834101745155,1224.125" close="False" data-weight="1.75" stroke-width="6" fill="none" stroke="#984ea3" />
<path d="M644.0349025766973,1169.0349025766973 L687.2150974233027,1212.2150974233027" close="False" data-weight="2.060660171779821" stroke-width="6" fill="none" stroke="#984ea3" />
<path d="M569.0349025766973,1212.2150974233027 L612.2150974233027,1169.0349025766973" close="False" data-weight="2.060660171779821" stroke-width="6" fill="none" stroke="#984ea3" />
<path d="M553.125,1175.625 L553.125,1205.625" close="False" data-weight="1.75" stroke-width="6" fill="none" stroke="#984ea3" />
<path d="M494.03490257669733,1094.0349025766973 L537.2150974233027,1137.2150974233027" close="False" data-weight="2.060660171779821" stroke-width="6" fill="none" stroke="#984ea3" />
<path d="M419.03490257669733,1019.0349025766973 L462.21509742330267,1062.2150974233027" close="False" data-weight="2.060660171779821" stroke-width="6" fill="none" stroke="#984ea3" />
<path d="M344.03490257669733,944.0349025766973 L387.21509742330267,987.2150974233027" close="False" data-weight="2.060660171779821" stroke-width="6" fill="none" stroke="#984ea3" />
<path d="M328.125,875.625 L328.125,905.625" close="False" data-weight="1.75" stroke-width="6" fill="none" stroke="#984ea3" />
<path d="M1228.125,755.625 C1228.125,766.875,1228.125,789.375,1228.125,800.625" close="False" data-weight="0.0" stroke-width="6" fill="none" stroke="#ff7f00" />
<path d="M1228.125,680.625 C1228.125,691.875,1228.125,714.375,1228.125,725.625" close="False" data-weight="0.0" stroke-width="6" fill="none" stroke="#ff7f00" />
<path d="M1228.125,605.625 C1228.125,616.875,1228.125,639.375,1228.125,650.625" close="False" data-weight="0.0" stroke-width="6" fill="none" stroke="#ff7f00" />
<path d="M1228.125,530.625 C1228.125,541.875,1228.125,564.375,1228.125,575.625" close="False" data-weight="0.0" stroke-width="6" fill="none" stroke="#ff7f00" />
<path d="M1175.2665898254845,849.125 C1164.1957949127423,849.125,1142.0542050872577,849.125,1130.9834101745155,849.125" close="False" data-weight="0.0" stroke-width="6" fill="none" stroke="#ff7f00" />
<path d="M1100.2665898254845,849.125 C1089.1957949127423,849.125,1067.0542050872577,849.125,1055.9834101745155,849.125" close="False" data-weight="0.0" stroke-width="6" fill="none" stroke="#ff7f00" />
<path d="M1094.0349025766973,344.03490257669733 C1086.0799512883486,336.0799512883487,1070.1700487116514,320.1700487116513,1062.2150974233027,312.21509742330267" close="False" data-weight="0.0" stroke-width="6" fill="none" stroke="#ff7f00" />
<path d="M1025.2665898254845,849.125 A57.45452644918623,57.45452644918623,0,0,0,1003.2796944389988,853.4984654126548 M1003.2796944389988,853.4984654126548 A57.45452644918757,57.45452644918757,0,0,0,984.6401045634026,865.953041187105 M984.6401045634026,865.953041187105" close="False" data-weight="1.0" stroke-width="6" fill="none" stroke="#ff7f00" />
<path d="M857.125,830.9834101745155 A93.83039863674185,93.83039863674185,0,0,0,859.4027538039628,851.5323014451633 M859.4027538039628,851.5323014451633 A35.858166261561124,35.858166261561124,0,0,0,869.0349025766973,869.0349025766973 M869.0349025766973,869.0349025766973" close="False" data-weight="1.0" stroke-width="6" fill="none" stroke="#ff7f00" />
<path d="M857.125,755.9834101745155 C857.125,767.0542050872577,857.125,789.1957949127423,857.125,800.2665898254845" close="False" data-weight="0.0" stroke-width="6" fill="none" stroke="#ff7f00" />
<path d="M1228.125,800.625 L1228.125,830.625" close="False" data-weight="1.75" stroke-width="6" fill="none" stroke="#ff7f00" />
<path d="M1228.125,725.625 L1228.125,755.625" close="False" data-weight="1.75" stroke-width="6" fill="none" stroke="#ff7f00" />
<path d="M1228.125,650.625 L1228.125,680.625" close="False" data-weight="1.75" stroke-width="6" fill="none" stroke="#ff7f00" />
<path d="M1228.125,575.625 L1228.125,605.625" close="False" data-weight="1.75" stroke-width="6" fill="none" stroke="#ff7f00" />
<path d="M1228.125,500.625 L1228.125,530.625" close="False" data-weight="1.75" stroke-width="6" fill="none" stroke="#ff7f00" />
<path d="M1228.125,425.625 L1228.125,455.625" close="False" data-weight="1.75" stroke-width="6" fill="none" stroke="#ff7f00" />
<path d="M1175.2665898254845,849.125 L1205.9834101745155,849.125" close="False" data-weight="1.75" stroke-width="6" fill="none" stroke="#ff7f00" />
<path d="M1175.625,403.125 L1205.625,403.125" close="False" data-weight="1.75" stroke-width="6" fill="none" stroke="#ff7f00" />
<path d="M1100.2665898254845,849.125 L1130.9834101745155,849.125" close="False" data-weight="1.75" stroke-width="6" fill="none" stroke="#ff7f00" />
<path d="M1094.0349025766973,344.03490257669733 L1137.2150974233027,387.21509742330267" close="False" data-weight="2.060660171779821" stroke-width="6" fill="none" stroke="#ff7f00" />
<path d="M1025.2665898254845,849.125 L1055.9834101745155,849.125" close="False" data-weight="1.75" stroke-width="6" fill="none" stroke="#ff7f00" />
<path d="M1019.0349025766973,269.03490257669733 L1062.2150974233027,312.21509742330267" close="False" data-weight="2.060660171779821" stroke-width="6" fill="none" stroke="#ff7f00" />
<path d="M940.953041187105,909.6401045634026 L984.6401045634026,865.953041187105" close="False" data-weight="2.060660171779821" stroke-width="6" fill="none" stroke="#ff7f00" />
<path d="M869.0349025766973,869.0349025766973 L912.2150974233027,912.2150974233027" close="False" data-weight="2.060660171779821" stroke-width="6" fill="none" stroke="#ff7f00" />
<path d="M857.125,800.2665898254845 L857.125,830.9834101745155" close="False" data-weight="1.75" stroke-width="6" fill="none" stroke="#ff7f00" />
<path d="M857.125,725.2665898254845 L857.125,755.9834101745155" close="False" data-weight="1.75" stroke-width="6" fill="none" stroke="#ff7f00" />
<path d="M796.6098954365937,640.9530411871012 L840.296958812895,684.6401045634026" close="False" data-weight="2.060660171779821" stroke-width="6" fill="none" stroke="#ff7f00" />
<path d="M778.125,575.625 L778.125,605.625" close="False" data-weight="1.75" stroke-width="6" fill="none" stroke="#ff7f00" />
<path d="M1175.2665898254845,857.125 C1164.1957949127423,857.125,1142.0542050872577,857.125,1130.9834101745155,857.125" close="False" data-weight="0.0" stroke-width="6" fill="none" stroke="#4daf4a" />
<path d="M1100.2665898254845,857.125 C1089.1957949127423,857.125,1067.0542050872577,857.125,1055.9834101745155,857.125" close="False" data-weight="0.0" stroke-width="6" fill="none" stroke="#4daf4a" />
<path d="M1025.2665898254845,857.125 A49.45452644918669,49.45452644918669,0,0,0,1006.3411618979196,860.889501672745 M1006.3411618979196,860.889501672745 A49.4545264491871,49.4545264491871,0,0,0,990.296958812895,871.6098954365974 M990.296958812895,871.6098954365974" close="False" data-weight="1.0" stroke-width="6" fill="none" stroke="#4daf4a" />
<path d="M871.6098954365974,990.296958812895 C863.7816612806718,998.1251929688207,848.1251929688207,1013.7816612806718,840.296958812895,1021.6098954365974" close="False" data-weight="0.0" stroke-width="6" fill="none" stroke="#4daf4a" />
<path d="M796.6098954365974,1065.2969588128951 A49.45452644918799,49.45452644918799,0,0,0,785.889501672745,1081.3411618979196 M785.889501672745,1081.3411618979196 A49.45452644918544,49.45452644918544,0,0,0,782.125,1100.2665898254845 M782.125,1100.2665898254845" close="False" data-weight="1.0" stroke-width="6" fill="none" stroke="#4daf4a" />
<path d="M1175.2665898254845,857.125 L1205.9834101745155,857.125" close="False" data-weight="1.75" stroke-width="6" fill="none" stroke="#4daf4a" />
<path d="M1100.2665898254845,857.125 L1130.9834101745155,857.125" close="False" data-weight="1.75" stroke-width="6" fill="none" stroke="#4daf4a" />
<path d="M1025.2665898254845,857.125 L1055.9834101745155,857.125" close="False" data-weight="1.75" stroke-width="6" fill="none" stroke="#4daf4a" />
<path d="M946.6098954365974,915.296958812895 L990.296958812895,871.6098954365974" close="False" data-weight="2.060660171779821" stroke-width="6" fill="none" stroke="#4daf4a" />
<path d="M871.6098954365974,990.296958812895 L915.296958812895,946.6098954365974" close="False" data-weight="2.060660171779821" stroke-width="6" fill="none" stroke="#4daf4a" />
<path d="M800.2665898254845,1232.125 L830.9834101745155,1232.125" close="False" data-weight="1.75" stroke-width="6" fill="none" stroke="#4daf4a" />
<path d="M796.6098954365974,1165.9530411871049 L840.296958812895,1209.6401045634027" close="False" data-weight="2.060660171779821" stroke-width="6" fill="none" stroke="#4daf4a" />
<path d="M782.125,1100.2665898254845 L782.125,1130.9834101745155" close="False" data-weight="1.75" stroke-width="6" fill="none" stroke="#4daf4a" />
<path d="M796.6098954365974,1065.2969588128951 L840.296958812895,1021.6098954365974" close="False" data-weight="2.060660171779821" stroke-width="6" fill="none" stroke="#4daf4a" />
<path d="M725.2665898254845,1232.125 L755.9834101745155,1232.125" close="False" data-weight="1.75" stroke-width="6" fill="none" stroke="#4daf4a" />
<path d="M928.125,830.625 C928.125,841.875,928.125,864.375,928.125,875.625" close="False" data-weight="0.0" stroke-width="6" fill="none" stroke="#377eb8" />
<path d="M928.125,755.625 C928.125,766.875,928.125,789.375,928.125,800.625" close="False" data-weight="0.0" stroke-width="6" fill="none" stroke="#377eb8" />
<path d="M928.125,680.625 C928.125,691.875,928.125,714.375,928.125,725.625" close="False" data-weight="0.0" stroke-width="6" fill="none" stroke="#377eb8" />
<path d="M928.125,605.625 C928.125,616.875,928.125,639.375,928.125,650.625" close="False" data-weight="0.0" stroke-width="6" fill="none" stroke="#377eb8" />
<path d="M928.125,530.625 C928.125,541.875,928.125,564.375,928.125,575.625" close="False" data-weight="0.0" stroke-width="6" fill="none" stroke="#377eb8" />
<path d="M928.125,455.625 C928.125,466.875,928.125,489.375,928.125,500.625" close="False" data-weight="0.0" stroke-width="6" fill="none" stroke="#377eb8" />
<path d="M928.125,380.625 C928.125,391.875,928.125,414.375,928.125,425.625" close="False" data-weight="0.0" stroke-width="6" fill="none" stroke="#377eb8" />
<path d="M944.0349025766973,312.21509742330267 A54.31980515339474,54.31980515339474,0,0,0,932.2598489621722,329.837710518496 M932.2598489621722,329.837710518496 A54.319805153394555,54.319805153394555,0,0,0,928.125,350.625 M928.125,350.625" close="False" data-weight="1.0" stroke-width="6" fill="none" stroke="#377eb8" />
<path d="M873.6521266074554,862.3384181084706 A29.84069980361706,29.84069980361706,0,0,0,853.8391737712991,853.6260721991109 M853.8391737712991,853.6260721991109 A537.99526115142,537.99526115142,0,0,0,830.6249999999999,853.125 M830.6249999999999,853.125" close="False" data-weight="1.0" stroke-width="6" fill="none" stroke="#377eb8" />
<path d="M800.625,853.125 C789.375,853.125,766.875,853.125,755.625,853.125" close="False" data-weight="0.0" stroke-width="6" fill="none" stroke="#377eb8" />
<path d="M725.625,853.125 C714.375,853.125,691.875,853.125,680.625,853.125" close="False" data-weight="0.0" stroke-width="6" fill="none" stroke="#377eb8" />
<path d="M650.625,853.125 C639.375,853.125,616.875,853.125,605.625,853.125" close="False" data-weight="0.0" stroke-width="6" fill="none" stroke="#377eb8" />
<path d="M575.625,853.125 C564.375,853.125,541.875,853.125,530.625,853.125" close="False" data-weight="0.0" stroke-width="6" fill="none" stroke="#377eb8" />
<path d="M500.625,853.125 C489.375,853.125,466.875,853.125,455.625,853.125" close="False" data-weight="0.0" stroke-width="6" fill="none" stroke="#377eb8" />
<path d="M425.625,853.125 C414.375,853.125,391.875,853.125,380.625,853.125" close="False" data-weight="0.0" stroke-width="6" fill="none" stroke="#377eb8" />
<path d="M928.125,875.625 L928.125,905.625" close="False" data-weight="1.75" stroke-width="6" fill="none" stroke="#377eb8" />
<path d="M928.125,800.625 L928.125,830.625" close="False" data-weight="1.75" stroke-width="6" fill="none" stroke="#377eb8" />
<path d="M928.125,725.625 L928.125,755.625" close="False" data-weight="1.75" stroke-width="6" fill="none" stroke="#377eb8" />
<path d="M928.125,650.625 L928.125,680.625" close="False" data-weight="1.75" stroke-width="6" fill="none" stroke="#377eb8" />
<path d="M928.125,575.625 L928.125,605.625" close="False" data-weight="1.75" stroke-width="6" fill="none" stroke="#377eb8" />
<path d="M928.125,500.625 L928.125,530.625" close="False" data-weight="1.75" stroke-width="6" fill="none" stroke="#377eb8" />
<path d="M928.125,425.625 L928.125,455.625" close="False" data-weight="1.75" stroke-width="6" fill="none" stroke="#377eb8" />
<path d="M928.125,350.625 L928.125,380.625" close="False" data-weight="1.75" stroke-width="6" fill="none" stroke="#377eb8" />
<path d="M944.0349025766973,312.21509742330267 L987.2150974233027,269.03490257669733" close="False" data-weight="2.060660171779821" stroke-width="6" fill="none" stroke="#377eb8" />
<path d="M873.6521266074554,862.3384181084706 L918.9115818915294,907.5978733925446" close="False" data-weight="2.060660171779821" stroke-width="6" fill="none" stroke="#377eb8" />
<path d="M800.625,853.125 L830.625,853.125" close="False" data-weight="1.75" stroke-width="6" fill="none" stroke="#377eb8" />
<path d="M725.625,853.125 L755.625,853.125" close="False" data-weight="1.75" stroke-width="6" fill="none" stroke="#377eb8" />
<path d="M650.625,853.125 L680.625,853.125" close="False" data-weight="1.75" stroke-width="6" fill="none" stroke="#377eb8" />
<path d="M575.625,853.125 L605.625,853.125" close="False" data-weight="1.75" stroke-width="6" fill="none" stroke="#377eb8" />
<path d="M500.625,853.125 L530.625,853.125" close="False" data-weight="1.75" stroke-width="6" fill="none" stroke="#377eb8" />
<path d="M425.625,853.125 L455.625,853.125" close="False" data-weight="1.75" stroke-width="6" fill="none" stroke="#377eb8" />
<path d="M350.625,853.125 L380.625,853.125" close="False" data-weight="1.75" stroke-width="6" fill="none" stroke="#377eb8" />
<path d="M778.125,500.625 A54.319805153394555,54.319805153394555,0,0,0,773.9901510378278,479.837710518496 M773.9901510378278,479.837710518496 A54.31980515339474,54.31980515339474,0,0,0,762.2150974233027,462.21509742330267 M762.2150974233027,462.21509742330267" close="False" data-weight="1.0" stroke-width="6" fill="none" stroke="#e41a1c" />
<path d="M719.0349025766973,419.03490257669733 C711.0799512883486,411.0799512883487,695.1700487116514,395.1700487116513,687.2150974233027,387.21509742330267" close="False" data-weight="0.0" stroke-width="6" fill="none" stroke="#e41a1c" />
<path d="M644.0349025766973,344.03490257669733 C636.0799512883486,336.0799512883487,620.1700487116514,320.1700487116513,612.2150974233027,312.21509742330267" close="False" data-weight="0.0" stroke-width="6" fill="none" stroke="#e41a1c" />
<path d="M569.0349025766973,269.03490257669733 C561.0799512883486,261.0799512883487,545.1700487116514,245.1700487116513,537.2150974233027,237.21509742330267" close="False" data-weight="0.0" stroke-width="6" fill="none" stroke="#e41a1c" />
<path d="M786.125,574.1547408448131 L786.125,607.0952591551869" close="False" data-weight="1.75" stroke-width="6" fill="none" stroke="#e41a1c" />
<path d="M778.125,500.625 L778.125,530.625" close="False" data-weight="1.75" stroke-width="6" fill="none" stroke="#e41a1c" />
<path d="M719.0349025766973,419.03490257669733 L762.2150974233027,462.21509742330267" close="False" data-weight="2.060660171779821" stroke-width="6" fill="none" stroke="#e41a1c" />
<path d="M644.0349025766973,344.03490257669733 L687.2150974233027,387.21509742330267" close="False" data-weight="2.060660171779821" stroke-width="6" fill="none" stroke="#e41a1c" />
<path d="M569.0349025766973,269.03490257669733 L612.2150974233027,312.21509742330267" close="False" data-weight="2.060660171779821" stroke-width="6" fill="none" stroke="#e41a1c" />
<path d="M494.03490257669733,194.03490257669733 L537.2150974233027,237.2150974233027" close="False" data-weight="2.060660171779821" stroke-width="6" fill="none" stroke="#e41a1c" />
<path d="M478.125,125.625 L478.125,155.625" close="False" data-weight="1.75" stroke-width="6" fill="none" stroke="#e41a1c" />
<image x="1195.625" y="820.625" width="65" height="65" xlink:href="designspace-test/./img/ds_dataset0_20_3_thumb.png">
<title>3</title>
</image>
<image x="1195.625" y="445.625" width="65" height="65" xlink:href="designspace-test/./img/ds_dataset0_20_16_thumb.png">
<title>16</title>
</image>
<image x="1195.625" y="370.625" width="65" height="65" xlink:href="designspace-test/./img/ds_dataset0_20_11_thumb.png">
<title>11</title>
</image>
<image x="1120.625" y="370.625" width="65" height="65" xlink:href="designspace-test/./img/ds_dataset0_20_13_thumb.png">
<title>13</title>
</image>
<image x="970.625" y="220.625" width="65" height="65" xlink:href="designspace-test/./img/ds_dataset0_20_2_thumb.png">
<title>2</title>
</image>
<image x="895.625" y="895.625" width="65" height="65" xlink:href="designspace-test/./img/ds_dataset0_20_19_thumb.png">
<title>19</title>
</image>
<image x="820.625" y="1195.625" width="65" height="65" xlink:href="designspace-test/./img/ds_dataset0_20_12_thumb.png">
<title>12</title>
</image>
<image x="820.625" y="670.625" width="65" height="65" xlink:href="designspace-test/./img/ds_dataset0_20_7_thumb.png">
<title>7</title>
</image>
<image x="745.625" y="1195.625" width="65" height="65" xlink:href="designspace-test/./img/ds_dataset0_20_0_thumb.png">
<title>0</title>
</image>
<image x="745.625" y="1120.625" width="65" height="65" xlink:href="designspace-test/./img/ds_dataset0_20_8_thumb.png">
<title>8</title>
</image>
<image x="745.625" y="595.625" width="65" height="65" xlink:href="designspace-test/./img/ds_dataset0_20_4_thumb.png">
<title>4</title>
</image>
<image x="745.625" y="520.625" width="65" height="65" xlink:href="designspace-test/./img/ds_dataset0_20_15_thumb.png">
<title>15</title>
</image>
<image x="670.625" y="1195.625" width="65" height="65" xlink:href="designspace-test/./img/ds_dataset0_20_14_thumb.png">
<title>14</title>
</image>
<image x="595.625" y="1120.625" width="65" height="65" xlink:href="designspace-test/./img/ds_dataset0_20_5_thumb.png">
<title>5</title>
</image>
<image x="520.625" y="1195.625" width="65" height="65" xlink:href="designspace-test/./img/ds_dataset0_20_17_thumb.png">
<title>17</title>
</image>
<image x="520.625" y="1120.625" width="65" height="65" xlink:href="designspace-test/./img/ds_dataset0_20_10_thumb.png">
<title>10</title>
</image>
<image x="445.625" y="145.625" width="65" height="65" xlink:href="designspace-test/./img/ds_dataset0_20_9_thumb.png">
<title>9</title>
</image>
<image x="445.625" y="70.625" width="65" height="65" xlink:href="designspace-test/./img/ds_dataset0_20_1_thumb.png">
<title>1</title>
</image>
<image x="295.625" y="820.625" width="65" height="65" xlink:href="designspace-test/./img/ds_dataset0_20_18_thumb.png">
<title>18</title>
</image>
<image x="70.625" y="595.625" width="65" height="65" xlink:href="designspace-test/./img/ds_dataset0_20_6_thumb.png">
<title>6</title>
</image>
</svg>