<?xml version="1.0" encoding="UTF-8"?>
<svg xmlns="http://www.w3.org/2000/svg" xmlns:xlink="http://www.w3.org/1999/xlink"
     width="1350" height="1350" viewBox="0 0 1350 1350">
<defs>
</defs>
<path d="M944.0349025766973,869.0349025766973 C936.0799512883486,861.0799512883486,920.1700487116514,845.1700487116514,912.2150974233027,837.2150974233027" close="False" data-weight="0.0" stroke-width="6" fill="none" stroke="#ffff33" />
<path d="M869.0349025766973,794.0349025766973 C861.0799512883486,786.0799512883486,845.1700487116514,770.1700487116514,837.2150974233027,762.2150974233027" close="False" data-weight="0.0" stroke-width="6" fill="none" stroke="#ffff33" />
<path d="M794.0349025766973,719.0349025766973 C786.0799512883486,711.0799512883486,770.1700487116514,695.1700487116514,762.2150974233027,687.2150974233027" close="False" data-weight="0.0" stroke-width="6" fill="none" stroke="#ffff33" />
<path d="M719.0349025766973,644.0349025766973 C711.0799512883486,636.0799512883486,695.1700487116514,620.1700487116514,687.2150974233027,612.2150974233027" close="False" data-weight="0.0" stroke-width="6" fill="none" stroke="#ffff33" />
<path d="M644.0349025766973,569.0349025766973 C636.0799512883486,561.0799512883486,620.1700487116514,545.1700487116514,612.2150974233027,537.2150974233027" close="False" data-weight="0.0" stroke-width="6" fill="none" stroke="#ffff33" />
<path d="M569.0349025766973,494.03490257669733 C561.0799512883486,486.0799512883487,545.1700487116514,470.1700487116513,537.2150974233027,462.21509742330267" close="False" data-weight="0.0" stroke-width="6" fill="none" stroke="#ffff33" />
<path d="M494.03490257669733,419.03490257669733 C486.07995128834864,411.07995128834864,470.17004871165136,395.17004871165136,462.21509742330267,387.21509742330267" close="False" data-weight="0.0" stroke-width="6" fill="none" stroke="#ffff33" />
<path d="M407.125,305.9834101745155 A93.83039863674418,93.83039863674418,0,0,0,409.40275380396275,326.5323014451633 M409.40275380396275,326.5323014451633 A35.85816626156088,35.85816626156088,0,0,0,419.03490257669733,344.03490257669733 M419.03490257669733,344.03490257669733" close="False" data-weight="1.0" stroke-width="6" fill="none" stroke="#ffff33" />
<path d="M944.0349025766973,869.0349025766973 L987.2150974233027,912.2150974233027" close="False" data-weight="2.060660171779821" stroke-width="6" fill="none" stroke="#ffff33" />
<path d="M869.0349025766973,794.0349025766973 L912.2150974233027,837.2150974233027" close="False" data-weight="2.060660171779821" stroke-width="6" fill="none" stroke="#ffff33" />
<path d="M794.0349025766973,719.0349025766973 L837.2150974233027,762.2150974233027" close="False" data-weight="2.060660171779821" stroke-width="6" fill="none" stroke="#ffff33" />
<path d="M719.0349025766973,644.0349025766973 L762.2150974233027,687.2150974233027" close="False" data-weight="2.060660171779821" stroke-width="6" fill="none" stroke="#ffff33" />
<path d="M644.0349025766973,569.0349025766973 L687.2150974233027,612.2150974233027" close="False" data-weight="2.060660171779821" stroke-width="6" fill="none" stroke="#ffff33" />
<path d="M569.0349025766973,494.03490257669733 L612.2150974233027,537.2150974233027" close="False" data-weight="2.060660171779821" stroke-width="6" fill="none" stroke="#ffff33" />
<path d="M494.03490257669733,419.03490257669733 L537.2150974233027,462.21509742330267" close="False" data-weight="2.060660171779821" stroke-width="6" fill="none" stroke="#ffff33" />
<path d="M419.03490257669733,344.03490257669733 L462.21509742330267,387.21509742330267" close="False" data-weight="2.060660171779821" stroke-width="6" fill="none" stroke="#ffff33" />
<path d="M407.125,275.2665898254845 L407.125,305.9834101745155" close="False" data-weight="1.75" stroke-width="6" fill="none" stroke="#ffff33" />
<path d="M1228.125,380.625 C1228.125,391.875,1228.125,414.375,1228.125,425.625" close="False" data-weight="0.0" stroke-width="6" fill="none" stroke="#984ea3" />
<path d="M1228.125,305.625 C1228.125,316.875,1228.125,339.375,1228.125,350.625" close="False" data-weight="0.0" stroke-width="6" fill="none" stroke="#984ea3" />
<path d="M1228.125,275.625 A54.3198051533966,54.3198051533966,0,0,0,1223.990151037828,254.8377105184959 M1223.990151037828,254.8377105184959 A54.31980515339265,54.31980515339265,0,0,0,1212.2150974233027,237.21509742330267 M1212.2150974233027,237.21509742330267" close="False" data-weight="1.0" stroke-width="6" fill="none" stroke="#984ea3" />
<path d="M1153.125,1130.625 C1153.125,1141.875,1153.125,1164.375,1153.125,1175.625" close="False" data-weight="0.0" stroke-width="6" fill="none" stroke="#984ea3" />
<path d="M1153.125,1055.625 C1153.125,1066.875,1153.125,1089.375,1153.125,1100.625" close="False" data-weight="0.0" stroke-width="6" fill="none" stroke="#984ea3" />
<path d="M1153.125,1025.625 A54.31980515339637,54.31980515339637,0,0,0,1148.990151037828,1004.837710518496 M1148.990151037828,1004.837710518496 A54.31980515339265,54.31980515339265,0,0,0,1137.2150974233027,987.2150974233027 M1137.2150974233027,987.2150974233027" close="False" data-weight="1.0" stroke-width="6" fill="none" stroke="#984ea3" />
<path d="M1094.0349025766973,944.0349025766973 C1086.0799512883486,936.0799512883486,1070.1700487116514,920.1700487116514,1062.2150974233027,912.2150974233027" close="False" data-weight="0.0" stroke-width="6" fill="none" stroke="#984ea3" />
<path d="M1094.0349025766973,237.2150974233027 C1086.0799512883486,245.17004871165133,1070.1700487116514,261.0799512883487,1062.2150974233027,269.03490257669733" close="False" data-weight="0.0" stroke-width="6" fill="none" stroke="#984ea3" />
<path d="M1019.0349025766973,312.21509742330267 A54.3198051533949,54.3198051533949,0,0,1,1001.4122894815039,323.9901510378278 M1001.4122894815039,323.9901510378278 A54.31980515339427,54.31980515339427,0,0,1,980.625,328.125 M980.625,328.125" close="False" data-weight="1.0" stroke-width="6" fill="none" stroke="#984ea3" />
<path d="M950.625,853.125 C939.375,853.125,916.875,853.125,905.625,853.125" close="False" data-weight="0.0" stroke-width="6" fill="none" stroke="#984ea3" />
<path d="M950.625,328.125 C939.375,328.125,916.875,328.125,905.625,328.125" close="False" data-weight="0.0" stroke-width="6" fill="none" stroke="#984ea3" />
<path d="M875.625,853.125 C864.375,853.125,841.875,853.125,830.625,853.125" close="False" data-weight="0.0" stroke-width="6" fill="none" stroke="#984ea3" />
<path d="M875.625,328.125 C864.375,328.125,841.875,328.125,830.625,328.125" close="False" data-weight="0.0" stroke-width="6" fill="none" stroke="#984ea3" />
<path d="M800.625,328.125 C789.375,328.125,766.875,328.125,755.625,328.125" close="False" data-weight="0.0" stroke-width="6" fill="none" stroke="#984ea3" />
<path d="M715.953041187105,909.6401045634026 A49.45452644918767,49.45452644918767,0,0,1,699.9088381020804,920.360498327255 M699.9088381020804,920.360498327255 A49.45452644918612,49.45452644918612,0,0,1,680.9834101745155,924.125 M680.9834101745155,924.125" close="False" data-weight="1.0" stroke-width="6" fill="none" stroke="#984ea3" />
<path d="M650.625,328.125 C639.375,328.125,616.875,328.125,605.625,328.125" close="False" data-weight="0.0" stroke-width="6" fill="none" stroke="#984ea3" />
<path d="M575.2665898254845,924.125 C564.1957949127423,924.125,542.0542050872577,924.125,530.9834101745155,924.125" close="False" data-weight="0.0" stroke-width="6" fill="none" stroke="#984ea3" />
<path d="M575.625,328.125 C564.375,328.125,541.875,328.125,530.625,328.125" close="False" data-weight="0.0" stroke-width="6" fill="none" stroke="#984ea3" />
<path d="M500.625,328.125 A54.319805153394555,54.319805153394555,0,0,1,479.837710518496,323.9901510378278 M479.837710518496,323.9901510378278 A54.319805153394825,54.319805153394825,0,0,1,462.21509742330267,312.21509742330267 M462.21509742330267,312.21509742330267" close="False" data-weight="1.0" stroke-width="6" fill="none" stroke="#984ea3" />
<path d="M425.625,928.125 C414.375,928.125,391.875,928.125,380.625,928.125" close="False" data-weight="0.0" stroke-width="6" fill="none" stroke="#984ea3" />
<path d="M350.625,928.125 A35.85816626156043,35.85816626156043,0,0,1,331.43783433689066,922.5597497660872 M331.43783433689066,922.5597497660872 A93.83039863674708,93.83039863674708,0,0,1,315.296958812895,909.6401045634026 M315.296958812895,909.6401045634026" close="False" data-weight="1.0" stroke-width="6" fill="none" stroke="#984ea3" />
<path d="M324.125,380.9834101745155 C324.125,392.05420508725774,324.125,414.19579491274226,324.125,425.2665898254845" close="False" data-weight="0.0" stroke-width="6" fill="none" stroke="#984ea3" />
<path d="M344.03490257669733,312.21509742330267 A101.0638173203623,101.0638173203623,0,0,0,330.1192773467233,329.6002787616347 M330.1192773467233,329.6002787616347 A38.62248500649923,38.62248500649923,0,0,0,324.125,350.2665898254845 M324.125,350.2665898254845" close="False" data-weight="1.0" stroke-width="6" fill="none" stroke="#984ea3" />
<path d="M271.60989543659366,865.9530411871012 C263.78166128066994,858.1248070311775,248.12519296882246,842.4683387193301,240.29695881289874,834.6401045634063" close="False" data-weight="0.0" stroke-width="6" fill="none" stroke="#984ea3" />
<path d="M253.125,680.625 C253.125,691.875,253.125,714.375,253.125,725.625" close="False" data-weight="0.0" stroke-width="6" fill="none" stroke="#984ea3" />
<path d="M253.125,605.625 C253.125,616.875,253.125,639.375,253.125,650.625" close="False" data-weight="0.0" stroke-width="6" fill="none" stroke="#984ea3" />
<path d="M269.03490257669733,537.2150974233027 A54.3198051533949,54.3198051533949,0,0,0,257.2598489621722,554.8377105184961 M257.2598489621722,554.8377105184961 A54.31980515339427,54.31980515339427,0,0,0,253.125,575.625 M253.125,575.625" close="False" data-weight="1.0" stroke-width="6" fill="none" stroke="#984ea3" />
<path d="M1228.125,425.625 L1228.125,455.625" close="False" data-weight="1.75" stroke-width="6" fill="none" stroke="#984ea3" />
<path d="M1228.125,350.625 L1228.125,380.625" close="False" data-weight="1.75" stroke-width="6" fill="none" stroke="#984ea3" />
<path d="M1228.125,275.625 L1228.125,305.625" close="False" data-weight="1.75" stroke-width="6" fill="none" stroke="#984ea3" />
<path d="M1153.125,1175.625 L1153.125,1205.625" close="False" data-weight="1.75" stroke-width="6" fill="none" stroke="#984ea3" />
<path d="M1153.125,1100.625 L1153.125,1130.625" close="False" data-weight="1.75" stroke-width="6" fill="none" stroke="#984ea3" />
<path d="M1153.125,1025.625 L1153.125,1055.625" close="False" data-weight="1.75" stroke-width="6" fill="none" stroke="#984ea3" />
<path d="M1169.0349025766973,194.03490257669733 L1212.2150974233027,237.2150974233027" close="False" data-weight="2.060660171779821" stroke-width="6" fill="none" stroke="#984ea3" />
<path d="M1094.0349025766973,944.0349025766973 L1137.2150974233027,987.2150974233027" close="False" data-weight="2.060660171779821" stroke-width="6" fill="none" stroke="#984ea3" />
<path d="M1094.0349025766973,237.21509742330267 L1137.2150974233027,194.0349025766973" close="False" data-weight="2.060660171779821" stroke-width="6" fill="none" stroke="#984ea3" />
<path d="M1019.0349025766973,869.0349025766973 L1062.2150974233027,912.2150974233027" close="False" data-weight="2.060660171779821" stroke-width="6" fill="none" stroke="#984ea3" />
<path d="M1019.0349025766973,312.21509742330267 L1062.2150974233027,269.03490257669733" close="False" data-weight="2.060660171779821" stroke-width="6" fill="none" stroke="#984ea3" />
<path d="M950.625,853.125 L980.625,853.125" close="False" data-weight="1.75" stroke-width="6" fill="none" stroke="#984ea3" />
<path d="M950.625,328.125 L980.625,328.125" close="False" data-weight="1.75" stroke-width="6" fill="none" stroke="#984ea3" />
<path d="M875.625,853.125 L905.625,853.125" close="False" data-weight="1.75" stroke-width="6" fill="none" stroke="#984ea3" />
<path d="M875.625,328.125 L905.625,328.125" close="False" data-weight="1.75" stroke-width="6" fill="none" stroke="#984ea3" />
<path d="M800.625,853.125 L830.625,853.125" close="False" data-weight="1.75" stroke-width="6" fill="none" stroke="#984ea3" />
<path d="M800.625,328.125 L830.625,328.125" close="False" data-weight="1.75" stroke-width="6" fill="none" stroke="#984ea3" />
<path d="M715.953041187105,909.6401045634026 L759.6401045634026,865.953041187105" close="False" data-weight="2.060660171779821" stroke-width="6" fill="none" stroke="#984ea3" />
<path d="M725.625,328.125 L755.625,328.125" close="False" data-weight="1.75" stroke-width="6" fill="none" stroke="#984ea3" />
<path d="M650.2665898254845,924.125 L680.9834101745155,924.125" close="False" data-weight="1.75" stroke-width="6" fill="none" stroke="#984ea3" />
<path d="M650.625,328.125 L680.625,328.125" close="False" data-weight="1.75" stroke-width="6" fill="none" stroke="#984ea3" />
<path d="M575.2665898254845,924.125 L605.9834101745155,924.125" close="False" data-weight="1.75" stroke-width="6" fill="none" stroke="#984ea3" />
<path d="M575.625,328.125 L605.625,328.125" close="False" data-weight="1.75" stroke-width="6" fill="none" stroke="#984ea3" />
<path d="M500.2665898254845,924.125 L530.9834101745155,924.125" close="False" data-weight="1.75" stroke-width="6" fill="none" stroke="#984ea3" />
<path d="M500.625,328.125 L530.625,328.125" close="False" data-weight="1.75" stroke-width="6" fill="none" stroke="#984ea3" />
<path d="M425.625,928.125 L455.625,928.125" close="False" data-weight="1.75" stroke-width="6" fill="none" stroke="#984ea3" />
<path d="M419.03490257669733,269.03490257669733 L462.21509742330267,312.21509742330267" close="False" data-weight="2.060660171779821" stroke-width="6" fill="none" stroke="#984ea3" />
<path d="M350.625,928.125 L380.625,928.125" close="False" data-weight="1.75" stroke-width="6" fill="none" stroke="#984ea3" />
<path d="M324.125,425.2665898254845 L324.125,455.9834101745155" close="False" data-weight="1.75" stroke-width="6" fill="none" stroke="#984ea3" />
<path d="M324.125,350.2665898254845 L324.125,380.9834101745155" close="False" data-weight="1.75" stroke-width="6" fill="none" stroke="#984ea3" />
<path d="M344.03490257669733,312.21509742330267 L387.21509742330267,269.03490257669733" close="False" data-weight="2.060660171779821" stroke-width="6" fill="none" stroke="#984ea3" />
<path d="M271.60989543659366,865.9530411871012 L315.296958812895,909.6401045634026" close="False" data-weight="2.060660171779821" stroke-width="6" fill="none" stroke="#984ea3" />
<path d="M253.125,725.625 L253.125,755.625" close="False" data-weight="1.75" stroke-width="6" fill="none" stroke="#984ea3" />
<path d="M253.125,650.625 L253.125,680.625" close="False" data-weight="1.75" stroke-width="6" fill="none" stroke="#984ea3" />
<path d="M253.125,575.625 L253.125,605.625" close="False" data-weight="1.75" stroke-width="6" fill="none" stroke="#984ea3" />
<path d="M269.03490257669733,537.2150974233027 L312.21509742330267,494.03490257669733" close="False" data-weight="2.060660171779821" stroke-width="6" fill="none" stroke="#984ea3" />
<path d="M196.60989543660108,790.9530411871087 L240.29695881289496,834.6401045634026" close="False" data-weight="2.060660171779821" stroke-width="6" fill="none" stroke="#984ea3" />
<path d="M200.625,778.125 L230.625,778.125" close="False" data-weight="1.75" stroke-width="6" fill="none" stroke="#984ea3" />
<path d="M1228.125,605.625 A54.31980515339637,54.31980515339637,0,0,1,1223.990151037828,626.412289481504 M1223.990151037828,626.412289481504 A54.31980515339273,54.31980515339273,0,0,1,1212.2150974233027,644.0349025766973 M1212.2150974233027,644.0349025766973" close="False" data-weight="1.0" stroke-width="6" fill="none" stroke="#ff7f00" />
<path d="M1228.125,530.625 C1228.125,541.875,1228.125,564.375,1228.125,575.625" close="False" data-weight="0.0" stroke-width="6" fill="none" stroke="#ff7f00" />
<path d="M1169.0349025766973,687.2150974233027 C1161.0799512883486,695.1700487116514,1145.1700487116514,711.0799512883486,1137.2150974233027,719.0349025766973" close="False" data-weight="0.0" stroke-width="6" fill="none" stroke="#ff7f00" />
<path d="M1169.0349025766973,419.03490257669733 C1161.0799512883486,411.0799512883487,1145.1700487116514,395.1700487116513,1137.2150974233027,387.21509742330267" close="False" data-weight="0.0" stroke-width="6" fill="none" stroke="#ff7f00" />
<path d="M1094.0349025766973,762.2150974233027 C1086.0799512883486,770.1700487116514,1070.1700487116514,786.0799512883486,1062.2150974233027,794.0349025766973" close="False" data-weight="0.0" stroke-width="6" fill="none" stroke="#ff7f00" />
<path d="M1094.0349025766973,344.03490257669733 C1086.0799512883486,336.0799512883487,1070.1700487116514,320.1700487116513,1062.2150974233027,312.21509742330267" close="False" data-weight="0.0" stroke-width="6" fill="none" stroke="#ff7f00" />
<path d="M1003.125,230.625 A54.319805153394555,54.319805153394555,0,0,0,1007.2598489621722,251.41228948150393 M1007.2598489621722,251.41228948150393 A54.31980515339486,54.31980515339486,0,0,0,1019.0349025766973,269.03490257669733 M1019.0349025766973,269.03490257669733" close="False" data-weight="1.0" stroke-width="6" fill="none" stroke="#ff7f00" />
<path d="M950.625,178.125 C939.375,178.125,916.875,178.125,905.625,178.125" close="False" data-weight="0.0" stroke-width="6" fill="none" stroke="#ff7f00" />
<path d="M875.625,178.125 C864.375,178.125,841.875,178.125,830.625,178.125" close="False" data-weight="0.0" stroke-width="6" fill="none" stroke="#ff7f00" />
<path d="M800.625,178.125 C789.375,178.125,766.875,178.125,755.625,178.125" close="False" data-weight="0.0" stroke-width="6" fill="none" stroke="#ff7f00" />
<path d="M725.625,178.125 C714.375,178.125,691.875,178.125,680.625,178.125" close="False" data-weight="0.0" stroke-width="6" fill="none" stroke="#ff7f00" />
<path d="M628.125,800.625 A54.31980515339478,54.31980515339478,0,0,0,623.9901510378278,779.8377105184961 M623.9901510378278,779.8377105184961 A54.319805153394256,54.319805153394256,0,0,0,612.2150974233027,762.2150974233027 M612.2150974233027,762.2150974233027" close="False" data-weight="1.0" stroke-width="6" fill="none" stroke="#ff7f00" />
<path d="M650.625,178.125 C639.375,178.125,616.875,178.125,605.625,178.125" close="False" data-weight="0.0" stroke-width="6" fill="none" stroke="#ff7f00" />
<path d="M569.0349025766973,987.2150974233027 C561.0799512883486,995.1700487116514,545.1700487116514,1011.0799512883486,537.2150974233027,1019.0349025766973" close="False" data-weight="0.0" stroke-width="6" fill="none" stroke="#ff7f00" />
<path d="M569.0349025766973,719.0349025766973 C561.0799512883486,711.0799512883486,545.1700487116514,695.1700487116514,537.2150974233027,687.2150974233027" close="False" data-weight="0.0" stroke-width="6" fill="none" stroke="#ff7f00" />
<path d="M575.625,178.125 C564.375,178.125,541.875,178.125,530.625,178.125" close="False" data-weight="0.0" stroke-width="6" fill="none" stroke="#ff7f00" />
<path d="M494.03490257669733,1062.2150974233027 C486.0799512883487,1070.1700487116514,470.1700487116513,1086.0799512883486,462.21509742330267,1094.0349025766973" close="False" data-weight="0.0" stroke-width="6" fill="none" stroke="#ff7f00" />
<path d="M494.03490257669733,644.0349025766973 C486.0799512883487,636.0799512883486,470.1700487116513,620.1700487116514,462.21509742330267,612.2150974233027" close="False" data-weight="0.0" stroke-width="6" fill="none" stroke="#ff7f00" />
<path d="M500.625,178.125 C489.375,178.125,466.875,178.125,455.625,178.125" close="False" data-weight="0.0" stroke-width="6" fill="none" stroke="#ff7f00" />
<path d="M419.03490257669733,1137.2150974233027 A54.31980515339551,54.31980515339551,0,0,1,401.41228948150405,1148.990151037828 M401.41228948150405,1148.990151037828 A54.31980515339387,54.31980515339387,0,0,1,380.625,1153.125 M380.625,1153.125" close="False" data-weight="1.0" stroke-width="6" fill="none" stroke="#ff7f00" />
<path d="M419.03490257669733,569.0349025766973 C411.0799512883487,561.0799512883486,395.1700487116513,545.1700487116514,387.21509742330267,537.2150974233027" close="False" data-weight="0.0" stroke-width="6" fill="none" stroke="#ff7f00" />
<path d="M332.125,380.9834101745155 C332.125,392.05420508725774,332.125,414.19579491274226,332.125,425.2665898254845" close="False" data-weight="0.0" stroke-width="6" fill="none" stroke="#ff7f00" />
<path d="M328.125,305.625 C328.125,316.83010916431317,332.125,339.06148066117134,332.125,350.2665898254845" close="False" data-weight="0.0" stroke-width="6" fill="none" stroke="#ff7f00" />
<path d="M328.125,275.625 A54.31980515339478,54.31980515339478,0,0,0,323.9901510378278,254.837710518496 M323.9901510378278,254.837710518496 A54.3198051533945,54.3198051533945,0,0,0,312.21509742330267,237.21509742330267 M312.21509742330267,237.21509742330267" close="False" data-weight="1.0" stroke-width="6" fill="none" stroke="#ff7f00" />
<path d="M344.03490257669733,119.0349025766973 A54.319805153394476,54.319805153394476,0,0,0,326.412289481504,107.25984896217221 M326.412289481504,107.25984896217221 A54.31980515339481,54.31980515339481,0,0,0,305.625,103.125 M305.625,103.125" close="False" data-weight="1.0" stroke-width="6" fill="none" stroke="#ff7f00" />
<path d="M269.03490257669733,194.0349025766973 C261.0799512883487,186.07995128834864,245.17004871165133,170.17004871165133,237.21509742330267,162.21509742330267" close="False" data-weight="0.0" stroke-width="6" fill="none" stroke="#ff7f00" />
<path d="M275.625,103.125 C264.375,103.125,241.875,103.125,230.625,103.125" close="False" data-weight="0.0" stroke-width="6" fill="none" stroke="#ff7f00" />
<path d="M1228.125,575.625 L1228.125,605.625" close="False" data-weight="1.75" stroke-width="6" fill="none" stroke="#ff7f00" />
<path d="M1228.125,500.625 L1228.125,530.625" close="False" data-weight="1.75" stroke-width="6" fill="none" stroke="#ff7f00" />
<path d="M1169.0349025766973,687.2150974233027 L1212.2150974233027,644.0349025766973" close="False" data-weight="2.060660171779821" stroke-width="6" fill="none" stroke="#ff7f00" />
<path d="M1169.0349025766973,419.03490257669733 L1212.2150974233027,462.21509742330267" close="False" data-weight="2.060660171779821" stroke-width="6" fill="none" stroke="#ff7f00" />
<path d="M1094.0349025766973,762.2150974233027 L1137.2150974233027,719.0349025766973" close="False" data-weight="2.060660171779821" stroke-width="6" fill="none" stroke="#ff7f00" />
<path d="M1094.0349025766973,344.03490257669733 L1137.2150974233027,387.21509742330267" close="False" data-weight="2.060660171779821" stroke-width="6" fill="none" stroke="#ff7f00" />
<path d="M1019.0349025766973,837.2150974233027 L1062.2150974233027,794.0349025766973" close="False" data-weight="2.060660171779821" stroke-width="6" fill="none" stroke="#ff7f00" />
<path d="M1019.0349025766973,269.03490257669733 L1062.2150974233027,312.21509742330267" close="False" data-weight="2.060660171779821" stroke-width="6" fill="none" stroke="#ff7f00" />
<path d="M1003.125,200.625 L1003.125,230.625" close="False" data-weight="1.75" stroke-width="6" fill="none" stroke="#ff7f00" />
<path d="M950.625,178.125 L980.625,178.125" close="False" data-weight="1.75" stroke-width="6" fill="none" stroke="#ff7f00" />
<path d="M875.625,178.125 L905.625,178.125" close="False" data-weight="1.75" stroke-width="6" fill="none" stroke="#ff7f00" />
<path d="M800.625,178.125 L830.625,178.125" close="False" data-weight="1.75" stroke-width="6" fill="none" stroke="#ff7f00" />
<path d="M725.625,178.125 L755.625,178.125" close="False" data-weight="1.75" stroke-width="6" fill="none" stroke="#ff7f00" />
<path d="M628.125,875.625 L628.125,905.625" close="False" data-weight="1.75" stroke-width="6" fill="none" stroke="#ff7f00" />
<path d="M628.125,800.625 L628.125,830.625" close="False" data-weight="1.75" stroke-width="6" fill="none" stroke="#ff7f00" />
<path d="M650.625,178.125 L680.625,178.125" close="False" data-weight="1.75" stroke-width="6" fill="none" stroke="#ff7f00" />
<path d="M569.0349025766973,987.2150974233027 L612.2150974233027,944.0349025766973" close="False" data-weight="2.060660171779821" stroke-width="6" fill="none" stroke="#ff7f00" />
<path d="M569.0349025766973,719.0349025766973 L612.2150974233027,762.2150974233027" close="False" data-weight="2.060660171779821" stroke-width="6" fill="none" stroke="#ff7f00" />
<path d="M575.625,178.125 L605.625,178.125" close="False" data-weight="1.75" stroke-width="6" fill="none" stroke="#ff7f00" />
<path d="M494.03490257669733,1062.2150974233027 L537.2150974233027,1019.0349025766973" close="False" data-weight="2.060660171779821" stroke-width="6" fill="none" stroke="#ff7f00" />
<path d="M494.03490257669733,644.0349025766973 L537.2150974233027,687.2150974233027" close="False" data-weight="2.060660171779821" stroke-width="6" fill="none" stroke="#ff7f00" />
<path d="M500.625,178.125 L530.625,178.125" close="False" data-weight="1.75" stroke-width="6" fill="none" stroke="#ff7f00" />
<path d="M419.03490257669733,1137.2150974233027 L462.21509742330267,1094.0349025766973" close="False" data-weight="2.060660171779821" stroke-width="6" fill="none" stroke="#ff7f00" />
<path d="M419.03490257669733,569.0349025766973 L462.21509742330267,612.2150974233027" close="False" data-weight="2.060660171779821" stroke-width="6" fill="none" stroke="#ff7f00" />
<path d="M425.625,178.125 L455.625,178.125" close="False" data-weight="1.75" stroke-width="6" fill="none" stroke="#ff7f00" />
<path d="M350.625,1153.125 L380.625,1153.125" close="False" data-weight="1.75" stroke-width="6" fill="none" stroke="#ff7f00" />
<path d="M344.03490257669733,494.03490257669733 L387.21509742330267,537.2150974233027" close="False" data-weight="2.060660171779821" stroke-width="6" fill="none" stroke="#ff7f00" />
<path d="M332.125,425.2665898254845 L332.125,455.9834101745155" close="False" data-weight="1.75" stroke-width="6" fill="none" stroke="#ff7f00" />
<path d="M332.125,350.2665898254845 L332.125,380.9834101745155" close="False" data-weight="1.75" stroke-width="6" fill="none" stroke="#ff7f00" />
<path d="M328.125,275.625 L328.125,305.625" close="False" data-weight="1.75" stroke-width="6" fill="none" stroke="#ff7f00" />
<path d="M344.03490257669733,119.03490257669732 L387.21509742330267,162.2150974233027" close="False" data-weight="2.060660171779821" stroke-width="6" fill="none" stroke="#ff7f00" />
<path d="M269.03490257669733,194.03490257669733 L312.21509742330267,237.2150974233027" close="False" data-weight="2.060660171779821" stroke-width="6" fill="none" stroke="#ff7f00" />
<path d="M275.625,103.125 L305.625,103.125" close="False" data-weight="1.75" stroke-width="6" fill="none" stroke="#ff7f00" />
<path d="M194.03490257669733,119.03490257669732 L237.2150974233027,162.2150974233027" close="False" data-weight="2.060660171779821" stroke-width="6" fill="none" stroke="#ff7f00" />
<path d="M200.625,103.125 L230.625,103.125" close="False" data-weight="1.75" stroke-width="6" fill="none" stroke="#ff7f00" />
<path d="M721.6098954365974,915.296958812895 A57.45452644918628,57.45452644918628,0,0,1,702.9703055610012,927.7515345873452 M702.9703055610012,927.7515345873452 A57.4545264491876,57.4545264491876,0,0,1,680.9834101745155,932.125 M680.9834101745155,932.125" close="False" data-weight="1.0" stroke-width="6" fill="none" stroke="#4daf4a" />
<path d="M703.125,755.625 A54.31980515339478,54.31980515339478,0,0,0,707.2598489621722,776.4122894815039 M707.2598489621722,776.4122894815039 A54.319805153394256,54.319805153394256,0,0,0,719.0349025766973,794.0349025766973 M719.0349025766973,794.0349025766973" close="False" data-weight="1.0" stroke-width="6" fill="none" stroke="#4daf4a" />
<path d="M703.125,680.625 C703.125,691.875,703.125,714.375,703.125,725.625" close="False" data-weight="0.0" stroke-width="6" fill="none" stroke="#4daf4a" />
<path d="M703.125,605.625 C703.125,616.875,703.125,639.375,703.125,650.625" close="False" data-weight="0.0" stroke-width="6" fill="none" stroke="#4daf4a" />
<path d="M703.125,530.625 C703.125,541.875,703.125,564.375,703.125,575.625" close="False" data-weight="0.0" stroke-width="6" fill="none" stroke="#4daf4a" />
<path d="M703.125,455.625 C703.125,466.875,703.125,489.375,703.125,500.625" close="False" data-weight="0.0" stroke-width="6" fill="none" stroke="#4daf4a" />
<path d="M703.125,380.625 C703.125,391.875,703.125,414.375,703.125,425.625" close="False" data-weight="0.0" stroke-width="6" fill="none" stroke="#4daf4a" />
<path d="M575.2665898254845,932.125 C564.1957949127423,932.125,542.0542050872577,932.125,530.9834101745155,932.125" close="False" data-weight="0.0" stroke-width="6" fill="none" stroke="#4daf4a" />
<path d="M478.125,980.625 A54.319805153393474,54.319805153393474,0,0,1,473.99015103782773,1001.4122894815039 M473.99015103782773,1001.4122894815039 A54.319805153395706,54.319805153395706,0,0,1,462.21509742330267,1019.0349025766973 M462.21509742330267,1019.0349025766973" close="False" data-weight="1.0" stroke-width="6" fill="none" stroke="#4daf4a" />
<path d="M419.03490257669733,1062.2150974233027 C411.0799512883487,1070.1700487116514,395.1700487116513,1086.0799512883486,387.21509742330267,1094.0349025766973" close="False" data-weight="0.0" stroke-width="6" fill="none" stroke="#4daf4a" />
<path d="M328.125,1055.625 C328.125,1066.875,328.125,1089.375,328.125,1100.625" close="False" data-weight="0.0" stroke-width="6" fill="none" stroke="#4daf4a" />
<path d="M328.125,980.625 C328.125,991.875,328.125,1014.375,328.125,1025.625" close="False" data-weight="0.0" stroke-width="6" fill="none" stroke="#4daf4a" />
<path d="M328.125,950.625 A35.8581662615606,35.8581662615606,0,0,0,322.5597497660871,931.4378343368905 M322.5597497660871,931.4378343368905 A93.8303986367466,93.8303986367466,0,0,0,309.6401045634026,915.296958812895 M309.6401045634026,915.296958812895" close="False" data-weight="1.0" stroke-width="6" fill="none" stroke="#4daf4a" />
<path d="M265.9530411871087,871.6098954366012 C258.1248070311812,863.7816612806737,242.4683387193264,848.1251929688187,234.64010456339892,840.2969588128913" close="False" data-weight="0.0" stroke-width="6" fill="none" stroke="#4daf4a" />
<path d="M721.6098954365974,915.296958812895 L765.296958812895,871.6098954365974" close="False" data-weight="2.060660171779821" stroke-width="6" fill="none" stroke="#4daf4a" />
<path d="M719.0349025766973,794.0349025766973 L762.2150974233027,837.2150974233027" close="False" data-weight="2.060660171779821" stroke-width="6" fill="none" stroke="#4daf4a" />
<path d="M703.125,725.625 L703.125,755.625" close="False" data-weight="1.75" stroke-width="6" fill="none" stroke="#4daf4a" />
<path d="M703.125,650.625 L703.125,680.625" close="False" data-weight="1.75" stroke-width="6" fill="none" stroke="#4daf4a" />
<path d="M703.125,575.625 L703.125,605.625" close="False" data-weight="1.75" stroke-width="6" fill="none" stroke="#4daf4a" />
<path d="M703.125,500.625 L703.125,530.625" close="False" data-weight="1.75" stroke-width="6" fill="none" stroke="#4daf4a" />
<path d="M703.125,425.625 L703.125,455.625" close="False" data-weight="1.75" stroke-width="6" fill="none" stroke="#4daf4a" />
<path d="M703.125,350.625 L703.125,380.625" close="False" data-weight="1.75" stroke-width="6" fill="none" stroke="#4daf4a" />
<path d="M650.2665898254845,932.125 L680.9834101745155,932.125" close="False" data-weight="1.75" stroke-width="6" fill="none" stroke="#4daf4a" />
<path d="M575.2665898254845,932.125 L605.9834101745155,932.125" close="False" data-weight="1.75" stroke-width="6" fill="none" stroke="#4daf4a" />
<path d="M478.125,950.625 L478.125,980.625" close="False" data-weight="1.75" stroke-width="6" fill="none" stroke="#4daf4a" />
<path d="M500.2665898254845,932.125 L530.9834101745155,932.125" close="False" data-weight="1.75" stroke-width="6" fill="none" stroke="#4daf4a" />
<path d="M419.03490257669733,1062.2150974233027 L462.21509742330267,1019.0349025766973" close="False" data-weight="2.060660171779821" stroke-width="6" fill="none" stroke="#4daf4a" />
<path d="M344.03490257669733,1137.2150974233027 L387.21509742330267,1094.0349025766973" close="False" data-weight="2.060660171779821" stroke-width="6" fill="none" stroke="#4daf4a" />
<path d="M328.125,1100.625 L328.125,1130.625" close="False" data-weight="1.75" stroke-width="6" fill="none" stroke="#4daf4a" />
<path d="M328.125,1025.625 L328.125,1055.625" close="False" data-weight="1.75" stroke-width="6" fill="none" stroke="#4daf4a" />
<path d="M328.125,950.625 L328.125,980.625" close="False" data-weight="1.75" stroke-width="6" fill="none" stroke="#4daf4a" />
<path d="M265.9530411871087,871.609895436601 L309.6401045634026,915.296958812895" close="False" data-weight="2.060660171779821" stroke-width="6" fill="none" stroke="#4daf4a" />
<path d="M190.95304118710126,796.6098954365937 L234.6401045634027,840.2969588128951" close="False" data-weight="2.060660171779821" stroke-width="6" fill="none" stroke="#4daf4a" />
<path d="M569.0349025766973,869.0349025766973 C561.0799512883486,861.0799512883486,545.1700487116514,845.1700487116514,537.2150974233027,837.2150974233027" close="False" data-weight="0.0" stroke-width="6" fill="none" stroke="#377eb8" />
<path d="M494.03490257669733,794.0349025766973 C486.0799512883487,786.0799512883486,470.1700487116513,770.1700487116514,462.21509742330267,762.2150974233027" close="False" data-weight="0.0" stroke-width="6" fill="none" stroke="#377eb8" />
<path d="M403.125,680.625 A54.319805153393474,54.319805153393474,0,0,0,407.25984896217227,701.4122894815039 M407.25984896217227,701.4122894815039 A54.319805153395706,54.319805153395706,0,0,0,419.03490257669733,719.0349025766973 M419.03490257669733,719.0349025766973" close="False" data-weight="1.0" stroke-width="6" fill="none" stroke="#377eb8" />
<path d="M403.125,605.625 C403.125,616.875,403.125,639.375,403.125,650.625" close="False" data-weight="0.0" stroke-width="6" fill="none" stroke="#377eb8" />
<path d="M403.125,530.625 C403.125,541.875,403.125,564.375,403.125,575.625" close="False" data-weight="0.0" stroke-width="6" fill="none" stroke="#377eb8" />
<path d="M403.125,455.625 C403.125,466.875,403.125,489.375,403.125,500.625" close="False" data-weight="0.0" stroke-width="6" fill="none" stroke="#377eb8" />
<path d="M403.125,380.625 C403.125,391.875,403.125,414.375,403.125,425.625" close="False" data-weight="0.0" stroke-width="6" fill="none" stroke="#377eb8" />
<path d="M399.125,305.9834101745155 C399.125,317.18851933882866,403.125,339.41989083568683,403.125,350.625" close="False" data-weight="0.0" stroke-width="6" fill="none" stroke="#377eb8" />
<path d="M569.0349025766973,869.0349025766973 L612.2150974233027,912.2150974233027" close="False" data-weight="2.060660171779821" stroke-width="6" fill="none" stroke="#377eb8" />
<path d="M494.03490257669733,794.0349025766973 L537.2150974233027,837.2150974233027" close="False" data-weight="2.060660171779821" stroke-width="6" fill="none" stroke="#377eb8" />
<path d="M419.03490257669733,719.0349025766973 L462.21509742330267,762.2150974233027" close="False" data-weight="2.060660171779821" stroke-width="6" fill="none" stroke="#377eb8" />
<path d="M403.125,650.625 L403.125,680.625" close="False" data-weight="1.75" stroke-width="6" fill="none" stroke="#377eb8" />
<path d="M403.125,575.625 L403.125,605.625" close="False" data-weight="1.75" stroke-width="6" fill="none" stroke="#377eb8" />
<path d="M403.125,500.625 L403.125,530.625" close="False" data-weight="1.75" stroke-width="6" fill="none" stroke="#377eb8" />
<path d="M403.125,425.625 L403.125,455.625" close="False" data-weight="1.75" stroke-width="6" fill="none" stroke="#377eb8" />
<path d="M403.125,350.625 L403.125,380.625" close="False" data-weight="1.75" stroke-width="6" fill="none" stroke="#377eb8" />
<path d="M399.125,275.2665898254845 L399.125,305.9834101745155" close="False" data-weight="1.75" stroke-width="6" fill="none" stroke="#377eb8" />
<path d="M403.125,200.625 L403.125,230.625" close="False" data-weight="1.75" stroke-width="6" fill="none" stroke="#377eb8" />
<path d="M1175.625,478.125 A54.31980515339285,54.31980515339285,0,0,1,1154.837710518496,473.9901510378276 M1154.837710518496,473.9901510378276 A54.31980515339627,54.31980515339627,0,0,1,1137.2150974233027,462.21509742330267 M1137.2150974233027,462.21509742330267" close="False" data-weight="1.0" stroke-width="6" fill="none" stroke="#e41a1c" />
<path d="M1094.0349025766973,419.03490257669733 C1086.0799512883486,411.0799512883487,1070.1700487116514,395.1700487116513,1062.2150974233027,387.21509742330267" close="False" data-weight="0.0" stroke-width="6" fill="none" stroke="#e41a1c" />
<path d="M1019.0349025766973,344.03490257669733 C1011.0799512883486,336.0799512883487,995.1700487116514,320.1700487116513,987.2150974233027,312.21509742330267" close="False" data-weight="0.0" stroke-width="6" fill="none" stroke="#e41a1c" />
<path d="M944.0349025766973,269.03490257669733 C936.0799512883486,261.0799512883487,920.1700487116514,245.1700487116513,912.2150974233027,237.21509742330267" close="False" data-weight="0.0" stroke-width="6" fill="none" stroke="#e41a1c" />
<path d="M869.0349025766973,194.0349025766973 C861.0799512883486,186.07995128834867,845.1700487116514,170.1700487116513,837.2150974233027,162.21509742330267" close="False" data-weight="0.0" stroke-width="6" fill="none" stroke="#e41a1c" />
<path d="M778.125,305.625 C778.125,316.875,778.125,339.375,778.125,350.625" close="False" data-weight="0.0" stroke-width="6" fill="none" stroke="#e41a1c" />
<path d="M778.125,230.625 C778.125,241.875,778.125,264.375,778.125,275.625" close="False" data-weight="0.0" stroke-width="6" fill="none" stroke="#e41a1c" />
<path d="M778.125,155.625 C778.125,166.875,778.125,189.375,778.125,200.625" close="False" data-weight="0.0" stroke-width="6" fill="none" stroke="#e41a1c" />
<path d="M725.625,403.125 C714.375,403.125,691.875,403.125,680.625,403.125" close="False" data-weight="0.0" stroke-width="6" fill="none" stroke="#e41a1c" />
<path d="M650.625,403.125 C639.375,403.125,616.875,403.125,605.625,403.125" close="False" data-weight="0.0" stroke-width="6" fill="none" stroke="#e41a1c" />
<path d="M575.625,403.125 C564.375,403.125,541.875,403.125,530.625,403.125" close="False" data-weight="0.0" stroke-width="6" fill="none" stroke="#e41a1c" />
<path d="M500.625,403.125 C489.375,403.125,466.875,403.125,455.625,403.125" close="False" data-weight="0.0" stroke-width="6" fill="none" stroke="#e41a1c" />
<path d="M425.625,403.125 A54.319805153394555,54.319805153394555,0,0,0,404.837710518496,407.2598489621722 M404.837710518496,407.2598489621722 A54.319805153394825,54.319805153394825,0,0,0,387.21509742330267,419.03490257669733 M387.21509742330267,419.03490257669733" close="False" data-weight="1.0" stroke-width="6" fill="none" stroke="#e41a1c" />
<path d="M1175.625,478.125 L1205.625,478.125" close="False" data-weight="1.75" stroke-width="6" fill="none" stroke="#e41a1c" />
<path d="M1094.0349025766973,419.03490257669733 L1137.2150974233027,462.21509742330267" close="False" data-weight="2.060660171779821" stroke-width="6" fill="none" stroke="#e41a1c" />
<path d="M1019.0349025766973,344.03490257669733 L1062.2150974233027,387.21509742330267" close="False" data-weight="2.060660171779821" stroke-width="6" fill="none" stroke="#e41a1c" />
<path d="M944.0349025766973,269.03490257669733 L987.2150974233027,312.21509742330267" close="False" data-weight="2.060660171779821" stroke-width="6" fill="none" stroke="#e41a1c" />
<path d="M869.0349025766973,194.03490257669733 L912.2150974233027,237.2150974233027" close="False" data-weight="2.060660171779821" stroke-width="6" fill="none" stroke="#e41a1c" />
<path d="M778.125,350.625 L778.125,380.625" close="False" data-weight="1.75" stroke-width="6" fill="none" stroke="#e41a1c" />
<path d="M778.125,275.625 L778.125,305.625" close="False" data-weight="1.75" stroke-width="6" fill="none" stroke="#e41a1c" />
<path d="M778.125,200.625 L778.125,230.625" close="False" data-weight="1.75" stroke-width="6" fill="none" stroke="#e41a1c" />
<path d="M778.125,125.625 L778.125,155.625" close="False" data-weight="1.75" stroke-width="6" fill="none" stroke="#e41a1c" />
<path d="M794.0349025766973,119.03490257669732 L837.2150974233027,162.2150974233027" close="False" data-weight="2.060660171779821" stroke-width="6" fill="none" stroke="#e41a1c" />
<path d="M725.625,403.125 L755.625,403.125" close="False" data-weight="1.75" stroke-width="6" fill="none" stroke="#e41a1c" />
<path d="M650.625,403.125 L680.625,403.125" close="False" data-weight="1.75" stroke-width="6" fill="none" stroke="#e41a1c" />
<path d="M575.625,403.125 L605.625,403.125" close="False" data-weight="1.75" stroke-width="6" fill="none" stroke="#e41a1c" />
<path d="M500.625,403.125 L530.625,403.125" close="False" data-weight="1.75" stroke-width="6" fill="none" stroke="#e41a1c" />
<path d="M425.625,403.125 L455.625,403.125" close="False" data-weight="1.75" stroke-width="6" fill="none" stroke="#e41a1c" />
<path d="M344.03490257669733,462.21509742330267 L387.21509742330267,419.03490257669733" close="False" data-weight="2.060660171779821" stroke-width="6" fill="none" stroke="#e41a1c" />
<image x="1195.625" y="445.625" width="65" height="65" xlink:href="designspace-test/./img/ds_dataset0_20_4_thumb.png">
<title>4</title>
</image>
<image x="1120.625" y="1195.625" width="65" height="65" xlink:href="designspace-test/./img/ds_dataset0_20_5_thumb.png">
<title>5</title>
</image>
<image x="1120.625" y="145.625" width="65" height="65" xlink:href="designspace-test/./img/ds_dataset0_20_10_thumb.png">
<title>10</title>
</image>
<image x="970.625" y="895.625" width="65" height="65" xlink:href="designspace-test/./img/ds_dataset0_20_6_thumb.png">
<title>6</title>
</image>
<image x="970.625" y="820.625" width="65" height="65" xlink:href="designspace-test/./img/ds_dataset0_20_7_thumb.png">
<title>7</title>
</image>
<image x="970.625" y="145.625" width="65" height="65" xlink:href="designspace-test/./img/ds_dataset0_20_11_thumb.png">
<title>11</title>
</image>
<image x="745.625" y="820.625" width="65" height="65" xlink:href="designspace-test/./img/ds_dataset0_20_8_thumb.png">
<title>8</title>
</image>
<image x="745.625" y="370.625" width="65" height="65" xlink:href="designspace-test/./img/ds_dataset0_20_1_thumb.png">
<title>1</title>
</image>
<image x="745.625" y="70.625" width="65" height="65" xlink:href="designspace-test/./img/ds_dataset0_20_9_thumb.png">
<title>9</title>
</image>
<image x="670.625" y="295.625" width="65" height="65" xlink:href="designspace-test/./img/ds_dataset0_20_0_thumb.png">
<title>0</title>
</image>
<image x="595.625" y="895.625" width="65" height="65" xlink:href="designspace-test/./img/ds_dataset0_20_19_thumb.png">
<title>19</title>
</image>
<image x="595.625" y="820.625" width="65" height="65" xlink:href="designspace-test/./img/ds_dataset0_20_16_thumb.png">
<title>16</title>
</image>
<image x="445.625" y="895.625" width="65" height="65" xlink:href="designspace-test/./img/ds_dataset0_20_12_thumb.png">
<title>12</title>
</image>
<image x="370.625" y="220.625" width="65" height="65" xlink:href="designspace-test/./img/ds_dataset0_20_18_thumb.png">
<title>18</title>
</image>
<image x="370.625" y="145.625" width="65" height="65" xlink:href="designspace-test/./img/ds_dataset0_20_2_thumb.png">
<title>2</title>
</image>
<image x="295.625" y="1120.625" width="65" height="65" xlink:href="designspace-test/./img/ds_dataset0_20_3_thumb.png">
<title>3</title>
</image>
<image x="295.625" y="445.625" width="65" height="65" xlink:href="designspace-test/./img/ds_dataset0_20_15_thumb.png">
<title>15</title>
</image>
<image x="220.625" y="745.625" width="65" height="65" xlink:href="designspace-test/./img/ds_dataset0_20_17_thumb.png">
<title>17</title>
</image>
<image x="145.625" y="745.625" width="65" height="65" xlink:href="designspace-test/./img/ds_dataset0_20_14_thumb.png">
<title>14</title>
</image>
<image x="145.625" y="70.625" width="65" height="65" xlink:href="designspace-test/./img/ds_dataset0_20_13_thumb.png">
<title>13</title>
</image>
</svg>