<?xml version="1.0" encoding="UTF-8"?>
<svg xmlns="http://www.w3.org/2000/svg" xmlns:xlink="http://www.w3.org/1999/xlink"
     width="1350" height="1350" viewBox="0 0 1350 1350">
<defs>
</defs>
<path d="M269.03490257669733,794.0349025766973 C261.0799512883487,786.0799512883486,245.1700487116513,770.1700487116514,237.21509742330267,762.2150974233027" close="False" data-weight="0.0" stroke-width="6" fill="none" stroke="#ffff33" />
<path d="M194.0349025766973,719.0349025766973 C186.07995128834867,711.0799512883486,170.1700487116513,695.1700487116514,162.21509742330267,687.2150974233027" close="False" data-weight="0.0" stroke-width="6" fill="none" stroke="#ffff33" />
<path d="M269.03490257669733,794.0349025766973 L312.21509742330267,837.2150974233027" close="False" data-weight="2.060660171779821" stroke-width="6" fill="none" stroke="#ffff33" />
<path d="M194.03490257669733,719.0349025766973 L237.2150974233027,762.2150974233027" close="False" data-weight="2.060660171779821" stroke-width="6" fill="none" stroke="#ffff33" />
<path d="M119.03490257669732,644.0349025766973 L162.2150974233027,687.2150974233027" close="False" data-weight="2.060660171779821" stroke-width="6" fill="none" stroke="#ffff33" />
<path d="M928.125,830.625 C928.125,841.875,928.125,864.375,928.125,875.625" close="False" data-weight="0.0" stroke-width="6" fill="none" stroke="#984ea3" />
<path d="M928.125,800.625 A35.858166261560655,35.858166261560655,0,0,0,922.5597497660872,781.4378343368905 M922.5597497660872,781.4378343368905 A93.8303986367466,93.8303986367466,0,0,0,909.6401045634026,765.296958812895 M909.6401045634026,765.296958812895" close="False" data-weight="1.0" stroke-width="6" fill="none" stroke="#984ea3" />
<path d="M865.953041187105,984.6401045634026 C858.1248070311793,992.4683387193282,842.4683387193282,1008.1248070311793,834.6401045634026,1015.953041187105" close="False" data-weight="0.0" stroke-width="6" fill="none" stroke="#984ea3" />
<path d="M790.953041187105,1059.6401045634027 A57.454526449186446,57.454526449186446,0,0,0,778.4984654126548,1078.2796944389988 M778.4984654126548,1078.2796944389988 A57.45452644918703,57.45452644918703,0,0,0,774.125,1100.2665898254845 M774.125,1100.2665898254845" close="False" data-weight="1.0" stroke-width="6" fill="none" stroke="#984ea3" />
<path d="M553.125,1100.625 A54.31980515339285,54.31980515339285,0,0,0,548.9901510378276,1079.837710518496 M548.9901510378276,1079.837710518496 A54.31980515339623,54.31980515339623,0,0,0,537.2150974233027,1062.2150974233027 M537.2150974233027,1062.2150974233027" close="False" data-weight="1.0" stroke-width="6" fill="none" stroke="#984ea3" />
<path d="M494.03490257669733,1019.0349025766973 C486.0799512883487,1011.0799512883486,470.1700487116513,995.1700487116514,462.21509742330267,987.2150974233027" close="False" data-weight="0.0" stroke-width="6" fill="none" stroke="#984ea3" />
<path d="M419.03490257669733,944.0349025766973 C411.1116939026769,936.1116939026768,392.56331323742677,923.2201674869192,384.64010456340634,915.2969588128988" close="False" data-weight="0.0" stroke-width="6" fill="none" stroke="#984ea3" />
<path d="M928.125,875.625 L928.125,905.625" close="False" data-weight="1.75" stroke-width="6" fill="none" stroke="#984ea3" />
<path d="M928.125,800.625 L928.125,830.625" close="False" data-weight="1.75" stroke-width="6" fill="none" stroke="#984ea3" />
<path d="M865.953041187105,984.6401045634026 L909.6401045634026,940.953041187105" close="False" data-weight="2.060660171779821" stroke-width="6" fill="none" stroke="#984ea3" />
<path d="M865.953041187105,721.6098954365974 L909.6401045634026,765.296958812895" close="False" data-weight="2.060660171779821" stroke-width="6" fill="none" stroke="#984ea3" />
<path d="M800.2665898254845,1232.125 L830.9834101745155,1232.125" close="False" data-weight="1.75" stroke-width="6" fill="none" stroke="#984ea3" />
<path d="M774.125,1175.2665898254845 L774.125,1205.9834101745155" close="False" data-weight="1.75" stroke-width="6" fill="none" stroke="#984ea3" />
<path d="M774.125,1100.2665898254845 L774.125,1130.9834101745155" close="False" data-weight="1.75" stroke-width="6" fill="none" stroke="#984ea3" />
<path d="M790.953041187105,1059.6401045634027 L834.6401045634026,1015.953041187105" close="False" data-weight="2.060660171779821" stroke-width="6" fill="none" stroke="#984ea3" />
<path d="M790.9530411871086,646.609895436601 L834.6401045634026,690.296958812895" close="False" data-weight="2.060660171779821" stroke-width="6" fill="none" stroke="#984ea3" />
<path d="M770.125,574.1547408448131 L770.125,607.0952591551869" close="False" data-weight="1.75" stroke-width="6" fill="none" stroke="#984ea3" />
<path d="M725.2665898254845,1232.125 L755.9834101745155,1232.125" close="False" data-weight="1.75" stroke-width="6" fill="none" stroke="#984ea3" />
<path d="M644.0349025766973,1169.0349025766973 L687.2150974233027,1212.2150974233027" close="False" data-weight="2.060660171779821" stroke-width="6" fill="none" stroke="#984ea3" />
<path d="M553.125,1175.625 L553.125,1205.625" close="False" data-weight="1.75" stroke-width="6" fill="none" stroke="#984ea3" />
<path d="M575.625,1153.125 L605.625,1153.125" close="False" data-weight="1.75" stroke-width="6" fill="none" stroke="#984ea3" />
<path d="M553.125,1100.625 L553.125,1130.625" close="False" data-weight="1.75" stroke-width="6" fill="none" stroke="#984ea3" />
<path d="M494.03490257669733,1019.0349025766973 L537.2150974233027,1062.2150974233027" close="False" data-weight="2.060660171779821" stroke-width="6" fill="none" stroke="#984ea3" />
<path d="M419.03490257669733,944.0349025766973 L462.21509742330267,987.2150974233027" close="False" data-weight="2.060660171779821" stroke-width="6" fill="none" stroke="#984ea3" />
<path d="M340.953041187105,871.6098954365974 L384.64010456340634,915.2969588128988" close="False" data-weight="2.060660171779821" stroke-width="6" fill="none" stroke="#984ea3" />
<path d="M1175.2665898254845,849.125 C1164.1957949127423,849.125,1142.0542050872577,849.125,1130.9834101745155,849.125" close="False" data-weight="0.0" stroke-width="6" fill="none" stroke="#ff7f00" />
<path d="M1100.2665898254845,849.125 C1089.1957949127423,849.125,1067.0542050872577,849.125,1055.9834101745155,849.125" close="False" data-weight="0.0" stroke-width="6" fill="none" stroke="#ff7f00" />
<path d="M1094.0349025766973,344.03490257669733 C1086.0799512883486,336.0799512883487,1070.1700487116514,320.1700487116513,1062.2150974233027,312.21509742330267" close="False" data-weight="0.0" stroke-width="6" fill="none" stroke="#ff7f00" />
<path d="M1025.2665898254845,849.125 A57.45452644918623,57.45452644918623,0,0,0,1003.2796944389988,853.4984654126548 M1003.2796944389988,853.4984654126548 A57.45452644918757,57.45452644918757,0,0,0,984.6401045634026,865.953041187105 M984.6401045634026,865.953041187105" close="False" data-weight="1.0" stroke-width="6" fill="none" stroke="#ff7f00" />
<path d="M936.125,832.0952591551869 C936.125,842.6101295775934,936.125,863.6398704224066,936.125,874.1547408448131" close="False" data-weight="0.0" stroke-width="6" fill="none" stroke="#ff7f00" />
<path d="M936.125,799.1547408448131 A39.74885064041973,39.74885064041973,0,0,0,929.8315392521207,777.6906309314601 M929.8315392521207,777.6906309314601 A108.01353532173906,108.01353532173906,0,0,0,915.296958812895,759.6401045634026 M915.296958812895,759.6401045634026" close="False" data-weight="1.0" stroke-width="6" fill="none" stroke="#ff7f00" />
<path d="M940.9530411871087,309.6401045633989 C933.0298325130865,317.5633132374212,920.1383060973251,336.11169390267503,912.2150974233027,344.03490257669733" close="False" data-weight="0.0" stroke-width="6" fill="none" stroke="#ff7f00" />
<path d="M869.0349025766973,387.21509742330267 C861.0799512883486,395.1700487116513,845.1700487116514,411.0799512883487,837.2150974233027,419.03490257669733" close="False" data-weight="0.0" stroke-width="6" fill="none" stroke="#ff7f00" />
<path d="M794.0349025766973,462.21509742330267 A101.06381732035848,101.06381732035848,0,0,0,780.1192773467234,479.60027876163474 M780.1192773467234,479.60027876163474 A38.62248500649969,38.62248500649969,0,0,0,774.125,500.2665898254845 M774.125,500.2665898254845" close="False" data-weight="1.0" stroke-width="6" fill="none" stroke="#ff7f00" />
<path d="M1228.125,425.625 L1228.125,455.625" close="False" data-weight="1.75" stroke-width="6" fill="none" stroke="#ff7f00" />
<path d="M1175.2665898254845,849.125 L1205.9834101745155,849.125" close="False" data-weight="1.75" stroke-width="6" fill="none" stroke="#ff7f00" />
<path d="M1175.625,403.125 L1205.625,403.125" close="False" data-weight="1.75" stroke-width="6" fill="none" stroke="#ff7f00" />
<path d="M1100.2665898254845,849.125 L1130.9834101745155,849.125" close="False" data-weight="1.75" stroke-width="6" fill="none" stroke="#ff7f00" />
<path d="M1094.0349025766973,344.03490257669733 L1137.2150974233027,387.21509742330267" close="False" data-weight="2.060660171779821" stroke-width="6" fill="none" stroke="#ff7f00" />
<path d="M1025.2665898254845,849.125 L1055.9834101745155,849.125" close="False" data-weight="1.75" stroke-width="6" fill="none" stroke="#ff7f00" />
<path d="M1019.0349025766973,269.03490257669733 L1062.2150974233027,312.21509742330267" close="False" data-weight="2.060660171779821" stroke-width="6" fill="none" stroke="#ff7f00" />
<path d="M940.953041187105,909.6401045634026 L984.6401045634026,865.953041187105" close="False" data-weight="2.060660171779821" stroke-width="6" fill="none" stroke="#ff7f00" />
<path d="M936.125,874.1547408448131 L936.125,907.0952591551869" close="False" data-weight="1.75" stroke-width="6" fill="none" stroke="#ff7f00" />
<path d="M936.125,799.1547408448131 L936.125,832.0952591551869" close="False" data-weight="1.75" stroke-width="6" fill="none" stroke="#ff7f00" />
<path d="M940.9530411871086,309.6401045633989 L984.6401045634026,265.953041187105" close="False" data-weight="2.060660171779821" stroke-width="6" fill="none" stroke="#ff7f00" />
<path d="M871.6098954365974,715.953041187105 L915.296958812895,759.6401045634026" close="False" data-weight="2.060660171779821" stroke-width="6" fill="none" stroke="#ff7f00" />
<path d="M869.0349025766973,387.21509742330267 L912.2150974233027,344.03490257669733" close="False" data-weight="2.060660171779821" stroke-width="6" fill="none" stroke="#ff7f00" />
<path d="M796.6098954365937,640.9530411871012 L840.296958812895,684.6401045634026" close="False" data-weight="2.060660171779821" stroke-width="6" fill="none" stroke="#ff7f00" />
<path d="M778.125,575.625 L778.125,605.625" close="False" data-weight="1.75" stroke-width="6" fill="none" stroke="#ff7f00" />
<path d="M774.125,500.2665898254845 L774.125,530.9834101745155" close="False" data-weight="1.75" stroke-width="6" fill="none" stroke="#ff7f00" />
<path d="M794.0349025766973,462.21509742330267 L837.2150974233027,419.03490257669733" close="False" data-weight="2.060660171779821" stroke-width="6" fill="none" stroke="#ff7f00" />
<path d="M1175.2665898254845,857.125 C1164.1957949127423,857.125,1142.0542050872577,857.125,1130.9834101745155,857.125" close="False" data-weight="0.0" stroke-width="6" fill="none" stroke="#4daf4a" />
<path d="M1100.2665898254845,857.125 C1089.1957949127423,857.125,1067.0542050872577,857.125,1055.9834101745155,857.125" close="False" data-weight="0.0" stroke-width="6" fill="none" stroke="#4daf4a" />
<path d="M1025.2665898254845,857.125 A49.45452644918669,49.45452644918669,0,0,0,1006.3411618979196,860.889501672745 M1006.3411618979196,860.889501672745 A49.4545264491871,49.4545264491871,0,0,0,990.296958812895,871.6098954365974 M990.296958812895,871.6098954365974" close="False" data-weight="1.0" stroke-width="6" fill="none" stroke="#4daf4a" />
<path d="M871.6098954365974,990.296958812895 C863.7816612806718,998.1251929688207,848.1251929688207,1013.7816612806718,840.296958812895,1021.6098954365974" close="False" data-weight="0.0" stroke-width="6" fill="none" stroke="#4daf4a" />
<path d="M796.6098954365974,1065.2969588128951 A49.45452644918799,49.45452644918799,0,0,0,785.889501672745,1081.3411618979196 M785.889501672745,1081.3411618979196 A49.45452644918544,49.45452644918544,0,0,0,782.125,1100.2665898254845 M782.125,1100.2665898254845" close="False" data-weight="1.0" stroke-width="6" fill="none" stroke="#4daf4a" />
<path d="M1175.2665898254845,857.125 L1205.9834101745155,857.125" close="False" data-weight="1.75" stroke-width="6" fill="none" stroke="#4daf4a" />
<path d="M1100.2665898254845,857.125 L1130.9834101745155,857.125" close="False" data-weight="1.75" stroke-width="6" fill="none" stroke="#4daf4a" />
<path d="M1025.2665898254845,857.125 L1055.9834101745155,857.125" close="False" data-weight="1.75" stroke-width="6" fill="none" stroke="#4daf4a" />
<path d="M946.6098954365974,915.296958812895 L990.296958812895,871.6098954365974" close="False" data-weight="2.060660171779821" stroke-width="6" fill="none" stroke="#4daf4a" />
<path d="M871.6098954365974,990.296958812895 L915.296958812895,946.6098954365974" close="False" data-weight="2.060660171779821" stroke-width="6" fill="none" stroke="#4daf4a" />
<path d="M800.2665898254845,1224.125 L830.9834101745155,1224.125" close="False" data-weight="1.75" stroke-width="6" fill="none" stroke="#4daf4a" />
<path d="M782.125,1175.2665898254845 L782.125,1205.9834101745155" close="False" data-weight="1.75" stroke-width="6" fill="none" stroke="#4daf4a" />
<path d="M782.125,1100.2665898254845 L782.125,1130.9834101745155" close="False" data-weight="1.75" stroke-width="6" fill="none" stroke="#4daf4a" />
<path d="M796.6098954365974,1065.2969588128951 L840.296958812895,1021.6098954365974" close="False" data-weight="2.060660171779821" stroke-width="6" fill="none" stroke="#4daf4a" />
<path d="M725.2665898254845,1224.125 L755.9834101745155,1224.125" close="False" data-weight="1.75" stroke-width="6" fill="none" stroke="#4daf4a" />
<path d="M920.125,832.0952591551869 C920.125,842.6101295775934,920.125,863.6398704224066,920.125,874.1547408448131" close="False" data-weight="0.0" stroke-width="6" fill="none" stroke="#377eb8" />
<path d="M928.125,755.625 C928.125,766.689691415762,920.125,788.0900494290511,920.125,799.1547408448131" close="False" data-weight="0.0" stroke-width="6" fill="none" stroke="#377eb8" />
<path d="M928.125,680.625 C928.125,691.875,928.125,714.375,928.125,725.625" close="False" data-weight="0.0" stroke-width="6" fill="none" stroke="#377eb8" />
<path d="M928.125,605.625 C928.125,616.875,928.125,639.375,928.125,650.625" close="False" data-weight="0.0" stroke-width="6" fill="none" stroke="#377eb8" />
<path d="M928.125,530.625 C928.125,541.875,928.125,564.375,928.125,575.625" close="False" data-weight="0.0" stroke-width="6" fill="none" stroke="#377eb8" />
<path d="M928.125,455.625 C928.125,466.875,928.125,489.375,928.125,500.625" close="False" data-weight="0.0" stroke-width="6" fill="none" stroke="#377eb8" />
<path d="M928.125,380.625 C928.125,391.875,928.125,414.375,928.125,425.625" close="False" data-weight="0.0" stroke-width="6" fill="none" stroke="#377eb8" />
<path d="M946.6098954365937,315.29695881289877 A93.83039863670223,93.83039863670223,0,0,0,933.6902502339113,331.4378343368927 M933.6902502339113,331.4378343368927 A35.85816626156088,35.85816626156088,0,0,0,928.125,350.625 M928.125,350.625" close="False" data-weight="1.0" stroke-width="6" fill="none" stroke="#377eb8" />
<path d="M875.625,928.125 C864.375,928.125,841.875,928.125,830.625,928.125" close="False" data-weight="0.0" stroke-width="6" fill="none" stroke="#377eb8" />
<path d="M800.625,928.125 C789.375,928.125,766.875,928.125,755.625,928.125" close="False" data-weight="0.0" stroke-width="6" fill="none" stroke="#377eb8" />
<path d="M725.625,928.125 C714.375,928.125,691.875,928.125,680.625,928.125" close="False" data-weight="0.0" stroke-width="6" fill="none" stroke="#377eb8" />
<path d="M650.625,928.125 C639.375,928.125,616.875,928.125,605.625,928.125" close="False" data-weight="0.0" stroke-width="6" fill="none" stroke="#377eb8" />
<path d="M575.625,928.125 C564.375,928.125,541.875,928.125,530.625,928.125" close="False" data-weight="0.0" stroke-width="6" fill="none" stroke="#377eb8" />
<path d="M500.625,928.125 C489.375,928.125,466.875,928.125,455.625,928.125" close="False" data-weight="0.0" stroke-width="6" fill="none" stroke="#377eb8" />
<path d="M425.625,928.125 A35.858166261560996,35.858166261560996,0,0,1,406.43783433688856,922.5597497660859 M406.43783433688856,922.5597497660859 A93.8303986367817,93.8303986367817,0,0,1,390.2969588128913,909.640104563399 M390.2969588128913,909.640104563399" close="False" data-weight="1.0" stroke-width="6" fill="none" stroke="#377eb8" />
<path d="M920.125,874.1547408448131 L920.125,907.0952591551869" close="False" data-weight="1.75" stroke-width="6" fill="none" stroke="#377eb8" />
<path d="M920.125,799.1547408448131 L920.125,832.0952591551869" close="False" data-weight="1.75" stroke-width="6" fill="none" stroke="#377eb8" />
<path d="M928.125,725.625 L928.125,755.625" close="False" data-weight="1.75" stroke-width="6" fill="none" stroke="#377eb8" />
<path d="M928.125,650.625 L928.125,680.625" close="False" data-weight="1.75" stroke-width="6" fill="none" stroke="#377eb8" />
<path d="M928.125,575.625 L928.125,605.625" close="False" data-weight="1.75" stroke-width="6" fill="none" stroke="#377eb8" />
<path d="M928.125,500.625 L928.125,530.625" close="False" data-weight="1.75" stroke-width="6" fill="none" stroke="#377eb8" />
<path d="M928.125,425.625 L928.125,455.625" close="False" data-weight="1.75" stroke-width="6" fill="none" stroke="#377eb8" />
<path d="M928.125,350.625 L928.125,380.625" close="False" data-weight="1.75" stroke-width="6" fill="none" stroke="#377eb8" />
<path d="M946.6098954365937,315.29695881289877 L990.296958812895,271.6098954365974" close="False" data-weight="2.060660171779821" stroke-width="6" fill="none" stroke="#377eb8" />
<path d="M875.625,928.125 L905.625,928.125" close="False" data-weight="1.75" stroke-width="6" fill="none" stroke="#377eb8" />
<path d="M800.625,928.125 L830.625,928.125" close="False" data-weight="1.75" stroke-width="6" fill="none" stroke="#377eb8" />
<path d="M725.625,928.125 L755.625,928.125" close="False" data-weight="1.75" stroke-width="6" fill="none" stroke="#377eb8" />
<path d="M650.625,928.125 L680.625,928.125" close="False" data-weight="1.75" stroke-width="6" fill="none" stroke="#377eb8" />
<path d="M575.625,928.125 L605.625,928.125" close="False" data-weight="1.75" stroke-width="6" fill="none" stroke="#377eb8" />
<path d="M500.625,928.125 L530.625,928.125" close="False" data-weight="1.75" stroke-width="6" fill="none" stroke="#377eb8" />
<path d="M425.625,928.125 L455.625,928.125" close="False" data-weight="1.75" stroke-width="6" fill="none" stroke="#377eb8" />
<path d="M346.6098954365974,865.953041187105 L390.2969588128913,909.6401045633988" close="False" data-weight="2.060660171779821" stroke-width="6" fill="none" stroke="#377eb8" />
<path d="M782.125,500.2665898254845 A38.62248500649912,38.62248500649912,0,0,0,776.1307226532766,479.60027876163474 M776.1307226532766,479.60027876163474 A101.06381732036242,101.06381732036242,0,0,0,762.2150974233027,462.2150974233026 M762.2150974233027,462.2150974233026" close="False" data-weight="1.0" stroke-width="6" fill="none" stroke="#e41a1c" />
<path d="M719.0349025766973,419.03490257669733 C711.0799512883486,411.0799512883487,695.1700487116514,395.1700487116513,687.2150974233027,387.21509742330267" close="False" data-weight="0.0" stroke-width="6" fill="none" stroke="#e41a1c" />
<path d="M644.0349025766973,344.03490257669733 C636.0799512883486,336.0799512883487,620.1700487116514,320.1700487116513,612.2150974233027,312.21509742330267" close="False" data-weight="0.0" stroke-width="6" fill="none" stroke="#e41a1c" />
<path d="M569.0349025766973,269.03490257669733 C561.0799512883486,261.0799512883487,545.1700487116514,245.1700487116513,537.2150974233027,237.21509742330267" close="False" data-weight="0.0" stroke-width="6" fill="none" stroke="#e41a1c" />
<path d="M786.125,574.1547408448131 L786.125,607.0952591551869" close="False" data-weight="1.75" stroke-width="6" fill="none" stroke="#e41a1c" />
<path d="M782.125,500.2665898254845 L782.125,530.9834101745155" close="False" data-weight="1.75" stroke-width="6" fill="none" stroke="#e41a1c" />
<path d="M719.0349025766973,419.03490257669733 L762.2150974233027,462.21509742330267" close="False" data-weight="2.060660171779821" stroke-width="6" fill="none" stroke="#e41a1c" />
<path d="M644.0349025766973,344.03490257669733 L687.2150974233027,387.21509742330267" close="False" data-weight="2.060660171779821" stroke-width="6" fill="none" stroke="#e41a1c" />
<path d="M569.0349025766973,269.03490257669733 L612.2150974233027,312.21509742330267" close="False" data-weight="2.060660171779821" stroke-width="6" fill="none" stroke="#e41a1c" />
<path d="M494.03490257669733,194.03490257669733 L537.2150974233027,237.2150974233027" close="False" data-weight="2.060660171779821" stroke-width="6" fill="none" stroke="#e41a1c" />
<path d="M478.125,125.625 L478.125,155.625" close="False" data-weight="1.75" stroke-width="6" fill="none" stroke="#e41a1c" />
<image x="1195.625" y="820.625" width="65" height="65" xlink:href="designspace-test/./img/ds_dataset0_20_3_thumb.png">
<title>3</title>
</image>
<image x="1195.625" y="445.625" width="65" height="65" xlink:href="designspace-test/./img/ds_dataset0_20_16_thumb.png">
<title>16</title>
</image>
<image x="1195.625" y="370.625" width="65" height="65" xlink:href="designspace-test/./img/ds_dataset0_20_11_thumb.png">
<title>11</title>
</image>
<image x="1120.625" y="370.625" width="65" height="65" xlink:href="designspace-test/./img/ds_dataset0_20_13_thumb.png">
<title>13</title>
</image>
<image x="970.625" y="220.625" width="65" height="65" xlink:href="designspace-test/./img/ds_dataset0_20_2_thumb.png">
<title>2</title>
</image>
<image x="895.625" y="895.625" width="65" height="65" xlink:href="designspace-test/./img/ds_dataset0_20_19_thumb.png">
<title>19</title>
</image>
<image x="820.625" y="1195.625" width="65" height="65" xlink:href="designspace-test/./img/ds_dataset0_20_12_thumb.png">
<title>12</title>
</image>
<image x="820.625" y="670.625" width="65" height="65" xlink:href="designspace-test/./img/ds_dataset0_20_7_thumb.png">
<title>7</title>
</image>
<image x="745.625" y="1195.625" width="65" height="65" xlink:href="designspace-test/./img/ds_dataset0_20_0_thumb.png">
<title>0</title>
</image>
<image x="745.625" y="1120.625" width="65" height="65" xlink:href="designspace-test/./img/ds_dataset0_20_8_thumb.png">
<title>8</title>
</image>
<image x="745.625" y="595.625" width="65" height="65" xlink:href="designspace-test/./img/ds_dataset0_20_4_thumb.png">
<title>4</title>
</image>
<image x="745.625" y="520.625" width="65" height="65" xlink:href="designspace-test/./img/ds_dataset0_20_15_thumb.png">
<title>15</title>
</image>
<image x="670.625" y="1195.625" width="65" height="65" xlink:href="designspace-test/./img/ds_dataset0_20_14_thumb.png">
<title>14</title>
</image>
<image x="595.625" y="1120.625" width="65" height="65" xlink:href="designspace-test/./img/ds_dataset0_20_5_thumb.png">
<title>5</title>
</image>
<image x="520.625" y="1195.625" width="65" height="65" xlink:href="designspace-test/./img/ds_dataset0_20_17_thumb.png">
<title>17</title>
</image>
<image x="520.625" y="1120.625" width="65" height="65" xlink:href="designspace-test/./img/ds_dataset0_20_10_thumb.png">
<title>10</title>
</image>
<image x="445.625" y="145.625" width="65" height="65" xlink:href="designspace-test/./img/ds_dataset0_20_9_thumb.png">
<title>9</title>
</image>
<image x="445.625" y="70.625" width="65" height="65" xlink:href="designspace-test/./img/ds_dataset0_20_1_thumb.png">
<title>1</title>
</image>
<image x="295.625" y="820.625" width="65" height="65" xlink:href="designspace-test/./img/ds_dataset0_20_18_thumb.png">
<title>18</title>
</image>
<image x="70.625" y="595.625" width="65" height="65" xlink:href="designspace-test/./img/ds_dataset0_20_6_thumb.png">
<title>6</title>
</image>
</svg>