<?xml version="1.0" encoding="UTF-8"?>
<svg xmlns="http://www.w3.org/2000/svg" xmlns:xlink="http://www.w3.org/1999/xlink"
     width="1350" height="1350" viewBox="0 0 1350 1350">
<defs>
</defs>
<path d="M553.125,605.625 A54.31980515339484,54.31980515339484,0,0,1,548.9901510378278,626.4122894815039 M548.9901510378278,626.4122894815039 A54.3198051533943,54.3198051533943,0,0,1,537.2150974233027,644.0349025766973 M537.2150974233027,644.0349025766973" close="False" data-weight="1.0" stroke-width="6" fill="none" stroke="#ffff33" />
<path d="M553.125,530.625 C553.125,541.875,553.125,564.375,553.125,575.625" close="False" data-weight="0.0" stroke-width="6" fill="none" stroke="#ffff33" />
<path d="M553.125,455.625 C553.125,466.875,553.125,489.375,553.125,500.625" close="False" data-weight="0.0" stroke-width="6" fill="none" stroke="#ffff33" />
<path d="M553.125,380.625 C553.125,391.875,553.125,414.375,553.125,425.625" close="False" data-weight="0.0" stroke-width="6" fill="none" stroke="#ffff33" />
<path d="M553.125,305.625 C553.125,316.875,553.125,339.375,553.125,350.625" close="False" data-weight="0.0" stroke-width="6" fill="none" stroke="#ffff33" />
<path d="M553.125,230.625 C553.125,241.875,553.125,264.375,553.125,275.625" close="False" data-weight="0.0" stroke-width="6" fill="none" stroke="#ffff33" />
<path d="M553.125,155.625 C553.125,166.875,553.125,189.375,553.125,200.625" close="False" data-weight="0.0" stroke-width="6" fill="none" stroke="#ffff33" />
<path d="M494.03490257669733,687.2150974233027 C486.0799512883487,695.1700487116514,470.1700487116513,711.0799512883486,462.21509742330267,719.0349025766973" close="False" data-weight="0.0" stroke-width="6" fill="none" stroke="#ffff33" />
<path d="M419.03490257669733,762.2150974233027 C411.0799512883487,770.1700487116514,395.1700487116513,786.0799512883486,387.21509742330267,794.0349025766973" close="False" data-weight="0.0" stroke-width="6" fill="none" stroke="#ffff33" />
<path d="M344.03490257669733,837.2150974233027 C336.0799512883487,845.1700487116514,320.1700487116513,861.0799512883486,312.21509742330267,869.0349025766973" close="False" data-weight="0.0" stroke-width="6" fill="none" stroke="#ffff33" />
<path d="M553.125,575.625 L553.125,605.625" close="False" data-weight="1.75" stroke-width="6" fill="none" stroke="#ffff33" />
<path d="M553.125,500.625 L553.125,530.625" close="False" data-weight="1.75" stroke-width="6" fill="none" stroke="#ffff33" />
<path d="M553.125,425.625 L553.125,455.625" close="False" data-weight="1.75" stroke-width="6" fill="none" stroke="#ffff33" />
<path d="M553.125,350.625 L553.125,380.625" close="False" data-weight="1.75" stroke-width="6" fill="none" stroke="#ffff33" />
<path d="M553.125,275.625 L553.125,305.625" close="False" data-weight="1.75" stroke-width="6" fill="none" stroke="#ffff33" />
<path d="M553.125,200.625 L553.125,230.625" close="False" data-weight="1.75" stroke-width="6" fill="none" stroke="#ffff33" />
<path d="M553.125,125.625 L553.125,155.625" close="False" data-weight="1.75" stroke-width="6" fill="none" stroke="#ffff33" />
<path d="M494.03490257669733,687.2150974233027 L537.2150974233027,644.0349025766973" close="False" data-weight="2.060660171779821" stroke-width="6" fill="none" stroke="#ffff33" />
<path d="M419.03490257669733,762.2150974233027 L462.21509742330267,719.0349025766973" close="False" data-weight="2.060660171779821" stroke-width="6" fill="none" stroke="#ffff33" />
<path d="M344.03490257669733,837.2150974233027 L387.21509742330267,794.0349025766973" close="False" data-weight="2.060660171779821" stroke-width="6" fill="none" stroke="#ffff33" />
<path d="M269.03490257669733,912.2150974233027 L312.21509742330267,869.0349025766973" close="False" data-weight="2.060660171779821" stroke-width="6" fill="none" stroke="#ffff33" />
<path d="M999.125,980.9834101745155 A49.45452644918669,49.45452644918669,0,0,1,995.360498327255,999.9088381020804 M995.360498327255,999.9088381020804 A49.45452644918702,49.45452644918702,0,0,1,984.6401045634026,1015.953041187105 M984.6401045634026,1015.953041187105" close="False" data-weight="1.0" stroke-width="6" fill="none" stroke="#984ea3" />
<path d="M940.953041187105,1059.6401045634027 C933.1248070311794,1067.4683387193284,917.4683387193281,1083.1248070311792,909.6401045634026,1090.9530411871049" close="False" data-weight="0.0" stroke-width="6" fill="none" stroke="#984ea3" />
<path d="M940.953041187105,984.6401045634026 A49.45452644918767,49.45452644918767,0,0,1,924.9088381020804,995.360498327255 M924.9088381020804,995.360498327255 A49.45452644918612,49.45452644918612,0,0,1,905.9834101745155,999.125 M905.9834101745155,999.125" close="False" data-weight="1.0" stroke-width="6" fill="none" stroke="#984ea3" />
<path d="M950.2665898254845,924.125 C939.1957949127423,924.125,917.0542050872577,924.125,905.9834101745155,924.125" close="False" data-weight="0.0" stroke-width="6" fill="none" stroke="#984ea3" />
<path d="M924.125,830.9834101745155 A57.45452644917327,57.45452644917327,0,0,0,928.4984654126575,852.9703055610053 M928.4984654126575,852.9703055610053 A57.45452644922584,57.45452644922584,0,0,0,940.9530411871124,871.6098954366048 M940.9530411871124,871.6098954366048" close="False" data-weight="1.0" stroke-width="6" fill="none" stroke="#984ea3" />
<path d="M924.125,755.9834101745155 C924.125,767.0542050872577,924.125,789.1957949127423,924.125,800.2665898254845" close="False" data-weight="0.0" stroke-width="6" fill="none" stroke="#984ea3" />
<path d="M924.125,680.9834101745155 C924.125,692.0542050872577,924.125,714.1957949127423,924.125,725.2665898254845" close="False" data-weight="0.0" stroke-width="6" fill="none" stroke="#984ea3" />
<path d="M875.2665898254845,999.125 C864.1957949127423,999.125,842.0542050872577,999.125,830.9834101745155,999.125" close="False" data-weight="0.0" stroke-width="6" fill="none" stroke="#984ea3" />
<path d="M875.2665898254845,924.125 C864.1957949127423,924.125,842.0542050872577,924.125,830.9834101745155,924.125" close="False" data-weight="0.0" stroke-width="6" fill="none" stroke="#984ea3" />
<path d="M800.2665898254845,999.125 C789.1957949127423,999.125,767.0542050872577,999.125,755.9834101745155,999.125" close="False" data-weight="0.0" stroke-width="6" fill="none" stroke="#984ea3" />
<path d="M719.0349025766973,1094.0349025766973 A54.31980515339554,54.31980515339554,0,0,0,701.412289481504,1082.259848962172 M701.412289481504,1082.259848962172 A54.319805153393645,54.319805153393645,0,0,0,680.625,1078.125 M680.625,1078.125" close="False" data-weight="1.0" stroke-width="6" fill="none" stroke="#984ea3" />
<path d="M725.2665898254845,999.125 A49.45452644917293,49.45452644917293,0,0,1,706.3411618979155,995.3604983272521 M706.3411618979155,995.3604983272521 A49.454526449226094,49.454526449226094,0,0,1,690.2969588128876,984.6401045633952 M690.2969588128876,984.6401045633952" close="False" data-weight="1.0" stroke-width="6" fill="none" stroke="#984ea3" />
<path d="M646.6098954366048,940.9530411871124 A57.45452644922519,57.45452644922519,0,0,0,627.9703055610053,928.4984654126575 M627.9703055610053,928.4984654126575 A57.45452644917384,57.45452644917384,0,0,0,605.9834101745155,924.125 M605.9834101745155,924.125" close="False" data-weight="1.0" stroke-width="6" fill="none" stroke="#984ea3" />
<path d="M575.2665898254845,924.125 C564.1957949127423,924.125,542.0542050872577,924.125,530.9834101745155,924.125" close="False" data-weight="0.0" stroke-width="6" fill="none" stroke="#984ea3" />
<path d="M500.2665898254845,924.125 C489.19579491274226,924.125,467.05420508725774,924.125,455.9834101745155,924.125" close="False" data-weight="0.0" stroke-width="6" fill="none" stroke="#984ea3" />
<path d="M425.2665898254845,924.125 C414.19579491274226,924.125,392.05420508725774,924.125,380.9834101745155,924.125" close="False" data-weight="0.0" stroke-width="6" fill="none" stroke="#984ea3" />
<path d="M350.2665898254845,924.125 C339.19579491274226,924.125,317.05420508725774,924.125,305.9834101745155,924.125" close="False" data-weight="0.0" stroke-width="6" fill="none" stroke="#984ea3" />
<path d="M999.125,950.2665898254845 L999.125,980.9834101745155" close="False" data-weight="1.75" stroke-width="6" fill="none" stroke="#984ea3" />
<path d="M940.953041187105,1059.6401045634027 L984.6401045634026,1015.953041187105" close="False" data-weight="2.060660171779821" stroke-width="6" fill="none" stroke="#984ea3" />
<path d="M940.953041187105,984.6401045634026 L984.6401045634026,940.953041187105" close="False" data-weight="2.060660171779821" stroke-width="6" fill="none" stroke="#984ea3" />
<path d="M950.2665898254845,924.125 L980.9834101745155,924.125" close="False" data-weight="1.75" stroke-width="6" fill="none" stroke="#984ea3" />
<path d="M940.9530411871124,871.6098954366048 L984.6401045634026,915.296958812895" close="False" data-weight="2.060660171779821" stroke-width="6" fill="none" stroke="#984ea3" />
<path d="M924.125,800.2665898254845 L924.125,830.9834101745155" close="False" data-weight="1.75" stroke-width="6" fill="none" stroke="#984ea3" />
<path d="M924.125,725.2665898254845 L924.125,755.9834101745155" close="False" data-weight="1.75" stroke-width="6" fill="none" stroke="#984ea3" />
<path d="M924.125,650.2665898254845 L924.125,680.9834101745155" close="False" data-weight="1.75" stroke-width="6" fill="none" stroke="#984ea3" />
<path d="M928.125,575.625 L928.125,605.625" close="False" data-weight="1.75" stroke-width="6" fill="none" stroke="#984ea3" />
<path d="M865.953041187105,1134.6401045634027 L909.6401045634026,1090.9530411871049" close="False" data-weight="2.060660171779821" stroke-width="6" fill="none" stroke="#984ea3" />
<path d="M875.2665898254845,999.125 L905.9834101745155,999.125" close="False" data-weight="1.75" stroke-width="6" fill="none" stroke="#984ea3" />
<path d="M875.2665898254845,924.125 L905.9834101745155,924.125" close="False" data-weight="1.75" stroke-width="6" fill="none" stroke="#984ea3" />
<path d="M774.125,1175.2665898254845 L774.125,1205.9834101745155" close="False" data-weight="1.75" stroke-width="6" fill="none" stroke="#984ea3" />
<path d="M800.2665898254845,1149.125 L830.9834101745155,1149.125" close="False" data-weight="1.75" stroke-width="6" fill="none" stroke="#984ea3" />
<path d="M800.2665898254845,999.125 L830.9834101745155,999.125" close="False" data-weight="1.75" stroke-width="6" fill="none" stroke="#984ea3" />
<path d="M800.2665898254845,924.125 L830.9834101745155,924.125" close="False" data-weight="1.75" stroke-width="6" fill="none" stroke="#984ea3" />
<path d="M725.2665898254845,1224.125 L755.9834101745155,1224.125" close="False" data-weight="1.75" stroke-width="6" fill="none" stroke="#984ea3" />
<path d="M719.0349025766973,1094.0349025766973 L762.2150974233027,1137.2150974233027" close="False" data-weight="2.060660171779821" stroke-width="6" fill="none" stroke="#984ea3" />
<path d="M725.2665898254845,999.125 L755.9834101745155,999.125" close="False" data-weight="1.75" stroke-width="6" fill="none" stroke="#984ea3" />
<path d="M650.625,1078.125 L680.625,1078.125" close="False" data-weight="1.75" stroke-width="6" fill="none" stroke="#984ea3" />
<path d="M646.6098954365974,940.953041187105 L690.296958812895,984.6401045634026" close="False" data-weight="2.060660171779821" stroke-width="6" fill="none" stroke="#984ea3" />
<path d="M575.625,1078.125 L605.625,1078.125" close="False" data-weight="1.75" stroke-width="6" fill="none" stroke="#984ea3" />
<path d="M553.125,1025.625 L553.125,1055.625" close="False" data-weight="1.75" stroke-width="6" fill="none" stroke="#984ea3" />
<path d="M575.2665898254845,924.125 L605.9834101745155,924.125" close="False" data-weight="1.75" stroke-width="6" fill="none" stroke="#984ea3" />
<path d="M500.2665898254845,924.125 L530.9834101745155,924.125" close="False" data-weight="1.75" stroke-width="6" fill="none" stroke="#984ea3" />
<path d="M425.2665898254845,924.125 L455.9834101745155,924.125" close="False" data-weight="1.75" stroke-width="6" fill="none" stroke="#984ea3" />
<path d="M350.2665898254845,924.125 L380.9834101745155,924.125" close="False" data-weight="1.75" stroke-width="6" fill="none" stroke="#984ea3" />
<path d="M275.2665898254845,924.125 L305.9834101745155,924.125" close="False" data-weight="1.75" stroke-width="6" fill="none" stroke="#984ea3" />
<path d="M1165.9530411871049,834.6401045634026 C1158.1248070311792,842.4683387193281,1142.4683387193284,858.1248070311794,1134.6401045634027,865.953041187105" close="False" data-weight="0.0" stroke-width="6" fill="none" stroke="#ff7f00" />
<path d="M1090.9530411871049,909.6401045634026 A49.45452644918799,49.45452644918799,0,0,1,1074.9088381020804,920.360498327255 M1074.9088381020804,920.360498327255 A49.45452644918544,49.45452644918544,0,0,1,1055.9834101745155,924.125 M1055.9834101745155,924.125" close="False" data-weight="1.0" stroke-width="6" fill="none" stroke="#ff7f00" />
<path d="M1074.125,830.9834101745155 A49.454526449200785,49.454526449200785,0,0,1,1070.3604983272578,849.9088381020764 M1070.3604983272578,849.9088381020764 A49.45452644914956,49.45452644914956,0,0,1,1059.64010456341,865.9530411870975 M1059.64010456341,865.9530411870975" close="False" data-weight="1.0" stroke-width="6" fill="none" stroke="#ff7f00" />
<path d="M1074.125,755.9834101745155 C1074.125,767.0542050872577,1074.125,789.1957949127423,1074.125,800.2665898254845" close="False" data-weight="0.0" stroke-width="6" fill="none" stroke="#ff7f00" />
<path d="M1074.125,680.9834101745155 C1074.125,692.0542050872577,1074.125,714.1957949127423,1074.125,725.2665898254845" close="False" data-weight="0.0" stroke-width="6" fill="none" stroke="#ff7f00" />
<path d="M1074.125,605.9834101745155 C1074.125,617.0542050872577,1074.125,639.1957949127423,1074.125,650.2665898254845" close="False" data-weight="0.0" stroke-width="6" fill="none" stroke="#ff7f00" />
<path d="M1074.125,530.9834101745155 C1074.125,542.0542050872577,1074.125,564.1957949127423,1074.125,575.2665898254845" close="False" data-weight="0.0" stroke-width="6" fill="none" stroke="#ff7f00" />
<path d="M1074.125,455.9834101745155 C1074.125,467.05420508725774,1074.125,489.19579491274226,1074.125,500.2665898254845" close="False" data-weight="0.0" stroke-width="6" fill="none" stroke="#ff7f00" />
<path d="M1074.125,380.9834101745155 C1074.125,392.05420508725774,1074.125,414.19579491274226,1074.125,425.2665898254845" close="False" data-weight="0.0" stroke-width="6" fill="none" stroke="#ff7f00" />
<path d="M1074.125,305.9834101745155 C1074.125,317.05420508725774,1074.125,339.19579491274226,1074.125,350.2665898254845" close="False" data-weight="0.0" stroke-width="6" fill="none" stroke="#ff7f00" />
<path d="M1074.125,230.98341017451548 C1074.125,242.05420508725774,1074.125,264.19579491274226,1074.125,275.2665898254845" close="False" data-weight="0.0" stroke-width="6" fill="none" stroke="#ff7f00" />
<path d="M1074.125,155.98341017451548 C1074.125,167.05420508725774,1074.125,189.19579491274226,1074.125,200.26658982548452" close="False" data-weight="0.0" stroke-width="6" fill="none" stroke="#ff7f00" />
<path d="M1025.625,103.125 C1014.375,103.125,991.875,103.125,980.625,103.125" close="False" data-weight="0.0" stroke-width="6" fill="none" stroke="#ff7f00" />
<path d="M950.2665898254845,932.125 C939.1957949127423,932.125,917.0542050872577,932.125,905.9834101745155,932.125" close="False" data-weight="0.0" stroke-width="6" fill="none" stroke="#ff7f00" />
<path d="M932.125,830.9834101745155 A49.45452644920044,49.45452644920044,0,0,0,935.8895016727422,849.9088381020763 M935.8895016727422,849.9088381020763 A49.454526449147636,49.454526449147636,0,0,0,946.6098954365899,865.9530411870975 M946.6098954365899,865.9530411870975" close="False" data-weight="1.0" stroke-width="6" fill="none" stroke="#ff7f00" />
<path d="M932.125,755.9834101745155 C932.125,767.0542050872577,932.125,789.1957949127423,932.125,800.2665898254845" close="False" data-weight="0.0" stroke-width="6" fill="none" stroke="#ff7f00" />
<path d="M932.125,680.9834101745155 C932.125,692.0542050872577,932.125,714.1957949127423,932.125,725.2665898254845" close="False" data-weight="0.0" stroke-width="6" fill="none" stroke="#ff7f00" />
<path d="M950.625,103.125 C939.375,103.125,916.875,103.125,905.625,103.125" close="False" data-weight="0.0" stroke-width="6" fill="none" stroke="#ff7f00" />
<path d="M875.2665898254845,932.125 C864.1957949127423,932.125,842.0542050872577,932.125,830.9834101745155,932.125" close="False" data-weight="0.0" stroke-width="6" fill="none" stroke="#ff7f00" />
<path d="M1165.9530411871049,834.6401045634026 L1209.6401045634027,790.953041187105" close="False" data-weight="2.060660171779821" stroke-width="6" fill="none" stroke="#ff7f00" />
<path d="M1090.9530411871049,909.6401045634026 L1134.6401045634027,865.953041187105" close="False" data-weight="2.060660171779821" stroke-width="6" fill="none" stroke="#ff7f00" />
<path d="M1074.125,800.2665898254845 L1074.125,830.9834101745155" close="False" data-weight="1.75" stroke-width="6" fill="none" stroke="#ff7f00" />
<path d="M1074.125,725.2665898254845 L1074.125,755.9834101745155" close="False" data-weight="1.75" stroke-width="6" fill="none" stroke="#ff7f00" />
<path d="M1074.125,650.2665898254845 L1074.125,680.9834101745155" close="False" data-weight="1.75" stroke-width="6" fill="none" stroke="#ff7f00" />
<path d="M1074.125,575.2665898254845 L1074.125,605.9834101745155" close="False" data-weight="1.75" stroke-width="6" fill="none" stroke="#ff7f00" />
<path d="M1074.125,500.2665898254845 L1074.125,530.9834101745155" close="False" data-weight="1.75" stroke-width="6" fill="none" stroke="#ff7f00" />
<path d="M1074.125,425.2665898254845 L1074.125,455.9834101745155" close="False" data-weight="1.75" stroke-width="6" fill="none" stroke="#ff7f00" />
<path d="M1074.125,350.2665898254845 L1074.125,380.9834101745155" close="False" data-weight="1.75" stroke-width="6" fill="none" stroke="#ff7f00" />
<path d="M1074.125,275.2665898254845 L1074.125,305.9834101745155" close="False" data-weight="1.75" stroke-width="6" fill="none" stroke="#ff7f00" />
<path d="M1074.125,200.26658982548452 L1074.125,230.98341017451548" close="False" data-weight="1.75" stroke-width="6" fill="none" stroke="#ff7f00" />
<path d="M1074.125,125.26658982548453 L1074.125,155.98341017451548" close="False" data-weight="1.75" stroke-width="6" fill="none" stroke="#ff7f00" />
<path d="M1025.2665898254845,924.125 L1055.9834101745155,924.125" close="False" data-weight="1.75" stroke-width="6" fill="none" stroke="#ff7f00" />
<path d="M1015.953041187105,909.6401045634026 L1059.64010456341,865.9530411870975" close="False" data-weight="2.060660171779821" stroke-width="6" fill="none" stroke="#ff7f00" />
<path d="M1025.625,103.125 L1055.625,103.125" close="False" data-weight="1.75" stroke-width="6" fill="none" stroke="#ff7f00" />
<path d="M950.2665898254845,932.125 L980.9834101745155,932.125" close="False" data-weight="1.75" stroke-width="6" fill="none" stroke="#ff7f00" />
<path d="M946.6098954365899,865.9530411870975 L990.296958812895,909.6401045634026" close="False" data-weight="2.060660171779821" stroke-width="6" fill="none" stroke="#ff7f00" />
<path d="M932.125,800.2665898254845 L932.125,830.9834101745155" close="False" data-weight="1.75" stroke-width="6" fill="none" stroke="#ff7f00" />
<path d="M932.125,725.2665898254845 L932.125,755.9834101745155" close="False" data-weight="1.75" stroke-width="6" fill="none" stroke="#ff7f00" />
<path d="M932.125,650.2665898254845 L932.125,680.9834101745155" close="False" data-weight="1.75" stroke-width="6" fill="none" stroke="#ff7f00" />
<path d="M936.125,574.1547408448131 L936.125,607.0952591551869" close="False" data-weight="1.75" stroke-width="6" fill="none" stroke="#ff7f00" />
<path d="M950.625,103.125 L980.625,103.125" close="False" data-weight="1.75" stroke-width="6" fill="none" stroke="#ff7f00" />
<path d="M875.2665898254845,932.125 L905.9834101745155,932.125" close="False" data-weight="1.75" stroke-width="6" fill="none" stroke="#ff7f00" />
<path d="M875.625,103.125 L905.625,103.125" close="False" data-weight="1.75" stroke-width="6" fill="none" stroke="#ff7f00" />
<path d="M800.2665898254845,932.125 L830.9834101745155,932.125" close="False" data-weight="1.75" stroke-width="6" fill="none" stroke="#ff7f00" />
<path d="M800.625,103.125 L830.625,103.125" close="False" data-weight="1.75" stroke-width="6" fill="none" stroke="#ff7f00" />
<path d="M1171.6098954365973,840.296958812895 C1163.7816612806716,848.1251929688206,1148.1251929688208,863.7816612806719,1140.2969588128951,871.6098954365974" close="False" data-weight="0.0" stroke-width="6" fill="none" stroke="#4daf4a" />
<path d="M1096.6098954365973,915.296958812895 A57.454526449186446,57.454526449186446,0,0,1,1077.9703055610012,927.7515345873452 M1077.9703055610012,927.7515345873452 A57.45452644918703,57.45452644918703,0,0,1,1055.9834101745155,932.125 M1055.9834101745155,932.125" close="False" data-weight="1.0" stroke-width="6" fill="none" stroke="#4daf4a" />
<path d="M1007.125,980.9834101745155 A57.45452644918623,57.45452644918623,0,0,1,1002.7515345873452,1002.9703055610012 M1002.7515345873452,1002.9703055610012 A57.45452644918757,57.45452644918757,0,0,1,990.296958812895,1021.6098954365974 M990.296958812895,1021.6098954365974" close="False" data-weight="1.0" stroke-width="6" fill="none" stroke="#4daf4a" />
<path d="M946.6098954365974,1065.2969588128951 C938.7816612806719,1073.1251929688208,923.1251929688206,1088.7816612806716,915.296958812895,1096.6098954365973" close="False" data-weight="0.0" stroke-width="6" fill="none" stroke="#4daf4a" />
<path d="M1171.6098954365973,840.296958812895 L1215.2969588128951,796.6098954365974" close="False" data-weight="2.060660171779821" stroke-width="6" fill="none" stroke="#4daf4a" />
<path d="M1096.6098954365973,915.296958812895 L1140.2969588128951,871.6098954365974" close="False" data-weight="2.060660171779821" stroke-width="6" fill="none" stroke="#4daf4a" />
<path d="M1007.125,950.2665898254845 L1007.125,980.9834101745155" close="False" data-weight="1.75" stroke-width="6" fill="none" stroke="#4daf4a" />
<path d="M1025.2665898254845,932.125 L1055.9834101745155,932.125" close="False" data-weight="1.75" stroke-width="6" fill="none" stroke="#4daf4a" />
<path d="M946.6098954365974,1065.2969588128951 L990.296958812895,1021.6098954365974" close="False" data-weight="2.060660171779821" stroke-width="6" fill="none" stroke="#4daf4a" />
<path d="M871.6098954365974,1140.2969588128951 L915.296958812895,1096.6098954365973" close="False" data-weight="2.060660171779821" stroke-width="6" fill="none" stroke="#4daf4a" />
<path d="M782.125,1175.2665898254845 L782.125,1205.9834101745155" close="False" data-weight="1.75" stroke-width="6" fill="none" stroke="#4daf4a" />
<path d="M800.2665898254845,1157.125 L830.9834101745155,1157.125" close="False" data-weight="1.75" stroke-width="6" fill="none" stroke="#4daf4a" />
<path d="M725.2665898254845,1232.125 L755.9834101745155,1232.125" close="False" data-weight="1.75" stroke-width="6" fill="none" stroke="#4daf4a" />
<path d="M1082.125,830.9834101745155 A57.45452644917168,57.45452644917168,0,0,1,1077.7515345873423,852.9703055610051 M1077.7515345873423,852.9703055610051 A57.45452644922728,57.45452644922728,0,0,1,1065.2969588128876,871.6098954366048 M1065.2969588128876,871.6098954366048" close="False" data-weight="1.0" stroke-width="6" fill="none" stroke="#377eb8" />
<path d="M1082.125,755.9834101745155 C1082.125,767.0542050872577,1082.125,789.1957949127423,1082.125,800.2665898254845" close="False" data-weight="0.0" stroke-width="6" fill="none" stroke="#377eb8" />
<path d="M1082.125,680.9834101745155 C1082.125,692.0542050872577,1082.125,714.1957949127423,1082.125,725.2665898254845" close="False" data-weight="0.0" stroke-width="6" fill="none" stroke="#377eb8" />
<path d="M1082.125,605.9834101745155 C1082.125,617.0542050872577,1082.125,639.1957949127423,1082.125,650.2665898254845" close="False" data-weight="0.0" stroke-width="6" fill="none" stroke="#377eb8" />
<path d="M1082.125,530.9834101745155 C1082.125,542.0542050872577,1082.125,564.1957949127423,1082.125,575.2665898254845" close="False" data-weight="0.0" stroke-width="6" fill="none" stroke="#377eb8" />
<path d="M1082.125,455.9834101745155 C1082.125,467.05420508725774,1082.125,489.19579491274226,1082.125,500.2665898254845" close="False" data-weight="0.0" stroke-width="6" fill="none" stroke="#377eb8" />
<path d="M1082.125,380.9834101745155 C1082.125,392.05420508725774,1082.125,414.19579491274226,1082.125,425.2665898254845" close="False" data-weight="0.0" stroke-width="6" fill="none" stroke="#377eb8" />
<path d="M1082.125,305.9834101745155 C1082.125,317.05420508725774,1082.125,339.19579491274226,1082.125,350.2665898254845" close="False" data-weight="0.0" stroke-width="6" fill="none" stroke="#377eb8" />
<path d="M1082.125,230.98341017451548 C1082.125,242.05420508725774,1082.125,264.19579491274226,1082.125,275.2665898254845" close="False" data-weight="0.0" stroke-width="6" fill="none" stroke="#377eb8" />
<path d="M1082.125,155.98341017451548 C1082.125,167.05420508725774,1082.125,189.19579491274226,1082.125,200.26658982548452" close="False" data-weight="0.0" stroke-width="6" fill="none" stroke="#377eb8" />
<path d="M946.6098954365974,990.296958812895 A57.45452644918628,57.45452644918628,0,0,1,927.9703055610012,1002.7515345873452 M927.9703055610012,1002.7515345873452 A57.4545264491876,57.4545264491876,0,0,1,905.9834101745155,1007.125 M905.9834101745155,1007.125" close="False" data-weight="1.0" stroke-width="6" fill="none" stroke="#377eb8" />
<path d="M875.2665898254845,1007.125 C864.1957949127423,1007.125,842.0542050872577,1007.125,830.9834101745155,1007.125" close="False" data-weight="0.0" stroke-width="6" fill="none" stroke="#377eb8" />
<path d="M800.2665898254845,1007.125 C789.1957949127423,1007.125,767.0542050872577,1007.125,755.9834101745155,1007.125" close="False" data-weight="0.0" stroke-width="6" fill="none" stroke="#377eb8" />
<path d="M725.2665898254845,1007.125 A57.45452644920147,57.45452644920147,0,0,1,703.2796944390029,1002.7515345873481 M703.2796944390029,1002.7515345873481 A57.454526449146734,57.454526449146734,0,0,1,684.6401045634101,990.2969588129025 M684.6401045634101,990.2969588129025" close="False" data-weight="1.0" stroke-width="6" fill="none" stroke="#377eb8" />
<path d="M640.9530411870975,946.6098954365899 A49.454526449147636,49.454526449147636,0,0,0,624.9088381020763,935.8895016727422 M624.9088381020763,935.8895016727422 A49.45452644920044,49.45452644920044,0,0,0,605.9834101745155,932.125 M605.9834101745155,932.125" close="False" data-weight="1.0" stroke-width="6" fill="none" stroke="#377eb8" />
<path d="M575.2665898254845,932.125 C564.1957949127423,932.125,542.0542050872577,932.125,530.9834101745155,932.125" close="False" data-weight="0.0" stroke-width="6" fill="none" stroke="#377eb8" />
<path d="M500.2665898254845,932.125 C489.19579491274226,932.125,467.05420508725774,932.125,455.9834101745155,932.125" close="False" data-weight="0.0" stroke-width="6" fill="none" stroke="#377eb8" />
<path d="M425.2665898254845,932.125 C414.19579491274226,932.125,392.05420508725774,932.125,380.9834101745155,932.125" close="False" data-weight="0.0" stroke-width="6" fill="none" stroke="#377eb8" />
<path d="M350.2665898254845,932.125 C339.19579491274226,932.125,317.05420508725774,932.125,305.9834101745155,932.125" close="False" data-weight="0.0" stroke-width="6" fill="none" stroke="#377eb8" />
<path d="M1082.125,800.2665898254845 L1082.125,830.9834101745155" close="False" data-weight="1.75" stroke-width="6" fill="none" stroke="#377eb8" />
<path d="M1082.125,725.2665898254845 L1082.125,755.9834101745155" close="False" data-weight="1.75" stroke-width="6" fill="none" stroke="#377eb8" />
<path d="M1082.125,650.2665898254845 L1082.125,680.9834101745155" close="False" data-weight="1.75" stroke-width="6" fill="none" stroke="#377eb8" />
<path d="M1082.125,575.2665898254845 L1082.125,605.9834101745155" close="False" data-weight="1.75" stroke-width="6" fill="none" stroke="#377eb8" />
<path d="M1082.125,500.2665898254845 L1082.125,530.9834101745155" close="False" data-weight="1.75" stroke-width="6" fill="none" stroke="#377eb8" />
<path d="M1082.125,425.2665898254845 L1082.125,455.9834101745155" close="False" data-weight="1.75" stroke-width="6" fill="none" stroke="#377eb8" />
<path d="M1082.125,350.2665898254845 L1082.125,380.9834101745155" close="False" data-weight="1.75" stroke-width="6" fill="none" stroke="#377eb8" />
<path d="M1082.125,275.2665898254845 L1082.125,305.9834101745155" close="False" data-weight="1.75" stroke-width="6" fill="none" stroke="#377eb8" />
<path d="M1082.125,200.26658982548452 L1082.125,230.98341017451548" close="False" data-weight="1.75" stroke-width="6" fill="none" stroke="#377eb8" />
<path d="M1082.125,125.26658982548453 L1082.125,155.98341017451548" close="False" data-weight="1.75" stroke-width="6" fill="none" stroke="#377eb8" />
<path d="M1021.6098954365974,915.296958812895 L1065.2969588128876,871.6098954366048" close="False" data-weight="2.060660171779821" stroke-width="6" fill="none" stroke="#377eb8" />
<path d="M946.6098954365974,990.296958812895 L990.296958812895,946.6098954365974" close="False" data-weight="2.060660171779821" stroke-width="6" fill="none" stroke="#377eb8" />
<path d="M875.2665898254845,1007.125 L905.9834101745155,1007.125" close="False" data-weight="1.75" stroke-width="6" fill="none" stroke="#377eb8" />
<path d="M800.2665898254845,1007.125 L830.9834101745155,1007.125" close="False" data-weight="1.75" stroke-width="6" fill="none" stroke="#377eb8" />
<path d="M725.2665898254845,1007.125 L755.9834101745155,1007.125" close="False" data-weight="1.75" stroke-width="6" fill="none" stroke="#377eb8" />
<path d="M640.953041187105,946.6098954365974 L684.6401045634026,990.296958812895" close="False" data-weight="2.060660171779821" stroke-width="6" fill="none" stroke="#377eb8" />
<path d="M575.2665898254845,932.125 L605.9834101745155,932.125" close="False" data-weight="1.75" stroke-width="6" fill="none" stroke="#377eb8" />
<path d="M500.2665898254845,932.125 L530.9834101745155,932.125" close="False" data-weight="1.75" stroke-width="6" fill="none" stroke="#377eb8" />
<path d="M425.2665898254845,932.125 L455.9834101745155,932.125" close="False" data-weight="1.75" stroke-width="6" fill="none" stroke="#377eb8" />
<path d="M350.2665898254845,932.125 L380.9834101745155,932.125" close="False" data-weight="1.75" stroke-width="6" fill="none" stroke="#377eb8" />
<path d="M275.2665898254845,932.125 L305.9834101745155,932.125" close="False" data-weight="1.75" stroke-width="6" fill="none" stroke="#377eb8" />
<path d="M875.625,628.125 C864.375,628.125,841.875,628.125,830.625,628.125" close="False" data-weight="0.0" stroke-width="6" fill="none" stroke="#e41a1c" />
<path d="M800.625,628.125 C789.375,628.125,766.875,628.125,755.625,628.125" close="False" data-weight="0.0" stroke-width="6" fill="none" stroke="#e41a1c" />
<path d="M725.625,628.125 C714.375,628.125,691.875,628.125,680.625,628.125" close="False" data-weight="0.0" stroke-width="6" fill="none" stroke="#e41a1c" />
<path d="M650.625,628.125 C639.375,628.125,616.875,628.125,605.625,628.125" close="False" data-weight="0.0" stroke-width="6" fill="none" stroke="#e41a1c" />
<path d="M575.625,628.125 C564.375,628.125,541.875,628.125,530.625,628.125" close="False" data-weight="0.0" stroke-width="6" fill="none" stroke="#e41a1c" />
<path d="M500.625,628.125 C489.375,628.125,466.875,628.125,455.625,628.125" close="False" data-weight="0.0" stroke-width="6" fill="none" stroke="#e41a1c" />
<path d="M425.625,628.125 C414.375,628.125,391.875,628.125,380.625,628.125" close="False" data-weight="0.0" stroke-width="6" fill="none" stroke="#e41a1c" />
<path d="M920.125,574.1547408448131 L920.125,607.0952591551869" close="False" data-weight="1.75" stroke-width="6" fill="none" stroke="#e41a1c" />
<path d="M875.625,628.125 L905.625,628.125" close="False" data-weight="1.75" stroke-width="6" fill="none" stroke="#e41a1c" />
<path d="M800.625,628.125 L830.625,628.125" close="False" data-weight="1.75" stroke-width="6" fill="none" stroke="#e41a1c" />
<path d="M725.625,628.125 L755.625,628.125" close="False" data-weight="1.75" stroke-width="6" fill="none" stroke="#e41a1c" />
<path d="M650.625,628.125 L680.625,628.125" close="False" data-weight="1.75" stroke-width="6" fill="none" stroke="#e41a1c" />
<path d="M575.625,628.125 L605.625,628.125" close="False" data-weight="1.75" stroke-width="6" fill="none" stroke="#e41a1c" />
<path d="M500.625,628.125 L530.625,628.125" close="False" data-weight="1.75" stroke-width="6" fill="none" stroke="#e41a1c" />
<path d="M425.625,628.125 L455.625,628.125" close="False" data-weight="1.75" stroke-width="6" fill="none" stroke="#e41a1c" />
<path d="M350.625,628.125 L380.625,628.125" close="False" data-weight="1.75" stroke-width="6" fill="none" stroke="#e41a1c" />
<path d="M275.625,628.125 L305.625,628.125" close="False" data-weight="1.75" stroke-width="6" fill="none" stroke="#e41a1c" />
<image x="1195.625" y="745.625" width="65" height="65" xlink:href="designspace-test/./img/ds_dataset0_20_3_thumb.png">
<title>3</title>
</image>
<image x="1045.625" y="70.625" width="65" height="65" xlink:href="designspace-test/./img/ds_dataset0_20_2_thumb.png">
<title>2</title>
</image>
<image x="970.625" y="895.625" width="65" height="65" xlink:href="designspace-test/./img/ds_dataset0_20_19_thumb.png">
<title>19</title>
</image>
<image x="895.625" y="595.625" width="65" height="65" xlink:href="designspace-test/./img/ds_dataset0_20_4_thumb.png">
<title>4</title>
</image>
<image x="895.625" y="520.625" width="65" height="65" xlink:href="designspace-test/./img/ds_dataset0_20_15_thumb.png">
<title>15</title>
</image>
<image x="820.625" y="1120.625" width="65" height="65" xlink:href="designspace-test/./img/ds_dataset0_20_8_thumb.png">
<title>8</title>
</image>
<image x="820.625" y="70.625" width="65" height="65" xlink:href="designspace-test/./img/ds_dataset0_20_13_thumb.png">
<title>13</title>
</image>
<image x="745.625" y="1195.625" width="65" height="65" xlink:href="designspace-test/./img/ds_dataset0_20_14_thumb.png">
<title>14</title>
</image>
<image x="745.625" y="1120.625" width="65" height="65" xlink:href="designspace-test/./img/ds_dataset0_20_12_thumb.png">
<title>12</title>
</image>
<image x="745.625" y="895.625" width="65" height="65" xlink:href="designspace-test/./img/ds_dataset0_20_7_thumb.png">
<title>7</title>
</image>
<image x="745.625" y="70.625" width="65" height="65" xlink:href="designspace-test/./img/ds_dataset0_20_16_thumb.png">
<title>16</title>
</image>
<image x="670.625" y="1195.625" width="65" height="65" xlink:href="designspace-test/./img/ds_dataset0_20_0_thumb.png">
<title>0</title>
</image>
<image x="595.625" y="1045.625" width="65" height="65" xlink:href="designspace-test/./img/ds_dataset0_20_10_thumb.png">
<title>10</title>
</image>
<image x="520.625" y="1045.625" width="65" height="65" xlink:href="designspace-test/./img/ds_dataset0_20_17_thumb.png">
<title>17</title>
</image>
<image x="520.625" y="970.625" width="65" height="65" xlink:href="designspace-test/./img/ds_dataset0_20_5_thumb.png">
<title>5</title>
</image>
<image x="520.625" y="70.625" width="65" height="65" xlink:href="designspace-test/./img/ds_dataset0_20_6_thumb.png">
<title>6</title>
</image>
<image x="295.625" y="595.625" width="65" height="65" xlink:href="designspace-test/./img/ds_dataset0_20_9_thumb.png">
<title>9</title>
</image>
<image x="220.625" y="895.625" width="65" height="65" xlink:href="designspace-test/./img/ds_dataset0_20_18_thumb.png">
<title>18</title>
</image>
<image x="220.625" y="595.625" width="65" height="65" xlink:href="designspace-test/./img/ds_dataset0_20_1_thumb.png">
<title>1</title>
</image>
</svg>