<?xml version="1.0" encoding="UTF-8"?>
<svg xmlns="http://www.w3.org/2000/svg" xmlns:xlink="http://www.w3.org/1999/xlink"
     viewBox="0 0 2550 2550" preserveAspectRatio="xMidYMid meet">
<defs>
</defs>
<path d="M2146.8954377834298,765.7185232472492 C2139.101209149385,773.5127518812943,2123.512751881294,789.1012091493843,2115.7185232472493,796.8954377834294" close="False" data-weight="0.0" stroke-width="7" fill="none" stroke="#1fa562" />
<path d="M2071.89543778346,840.7185232472193 C2064.1012091494,848.5127518812793,2048.5127518812797,864.1012091493993,2040.7185232472195,871.8954377834593" close="False" data-weight="0.0" stroke-width="7" fill="none" stroke="#1fa562" />
<path d="M1996.8954377834298,915.7185232472492 C1989.1012091493847,923.5127518812942,1973.5127518812947,939.1012091493843,1965.7185232472495,946.8954377834294" close="False" data-weight="0.0" stroke-width="7" fill="none" stroke="#1fa562" />
<path d="M1921.8954377834298,990.7185232472492 C1914.1012091493847,998.5127518812942,1898.5127518812947,1014.1012091493843,1890.7185232472495,1021.8954377834294" close="False" data-weight="0.0" stroke-width="7" fill="none" stroke="#1fa562" />
<path d="M1846.8954377834298,1065.7185232472493 C1839.1012091493847,1073.5127518812944,1823.5127518812947,1089.1012091493844,1815.7185232472495,1096.8954377834295" close="False" data-weight="0.0" stroke-width="7" fill="none" stroke="#1fa562" />
<path d="M1771.8954377834295,1140.7185232472495 C1764.1012091493844,1148.5127518812947,1748.5127518812947,1164.1012091493844,1740.7185232472495,1171.8954377834295" close="False" data-weight="0.0" stroke-width="7" fill="none" stroke="#1fa562" />
<path d="M1696.8954377834295,1215.7185232472495 C1689.1012091493844,1223.5127518812947,1673.5127518812947,1239.1012091493844,1665.7185232472495,1246.8954377834295" close="False" data-weight="0.0" stroke-width="7" fill="none" stroke="#1fa562" />
<path d="M1621.8954377834593,1290.7185232472198 C1614.1012091493994,1298.5127518812797,1598.5127518812797,1314.1012091493994,1590.7185232472198,1321.8954377834593" close="False" data-weight="0.0" stroke-width="7" fill="none" stroke="#1fa562" />
<path d="M1546.8954377834593,1365.7185232472198 C1539.1012091493994,1373.5127518812797,1523.5127518812797,1389.1012091493994,1515.7185232472198,1396.8954377834593" close="False" data-weight="0.0" stroke-width="7" fill="none" stroke="#1fa562" />
<path d="M1471.8954377834593,1440.7185232472198 C1463.9807691512865,1448.6331918793926,1445.1297660554756,1461.1202339445244,1437.2150974233027,1469.0349025766973" close="False" data-weight="0.0" stroke-width="7" fill="none" stroke="#1fa562" />
<path d="M1394.0349025766973,1512.2150974233027 C1386.0799512883486,1520.1700487116514,1370.1700487116514,1536.0799512883486,1362.2150974233027,1544.0349025766973" close="False" data-weight="0.0" stroke-width="7" fill="none" stroke="#1fa562" />
<path d="M1298.625,2181.0795923149512 C1298.625,2192.1022961574754,1298.625,2214.1477038425246,1298.625,2225.1704076850488" close="False" data-weight="0.0" stroke-width="7" fill="none" stroke="#1fa562" />
<path d="M1298.625,2106.0795923149512 C1298.625,2117.1022961574754,1298.625,2139.1477038425246,1298.625,2150.1704076850488" close="False" data-weight="0.0" stroke-width="7" fill="none" stroke="#1fa562" />
<path d="M1298.625,2031.0795923149515 C1298.625,2042.1022961574758,1298.625,2064.1477038425246,1298.625,2075.1704076850488" close="False" data-weight="0.0" stroke-width="7" fill="none" stroke="#1fa562" />
<path d="M1315.5314767527802,1959.3545622165407 A57.722322221287286,57.722322221287286,0,0,0,1303.0188501520186,1978.0810312933222 M1303.0188501520186,1978.0810312933222 A57.722322221289005,57.722322221289005,0,0,0,1298.625,2000.1704076850485 M1298.625,2000.1704076850485" close="False" data-weight="1.0" stroke-width="7" fill="none" stroke="#1fa562" />
<path d="M1298.625,1775.1704076850485 A48.72232222128764,48.72232222128764,0,0,0,1294.9162340553798,1756.5251821846082 M1294.9162340553798,1756.5251821846082 A48.72232222128834,48.72232222128834,0,0,0,1284.3545622165407,1740.7185232472198 M1284.3545622165407,1740.7185232472198" close="False" data-weight="1.0" stroke-width="7" fill="none" stroke="#1fa562" />
<path d="M1250.625,2278.125 C1239.375,2278.125,1216.875,2278.125,1205.625,2278.125" close="False" data-weight="0.0" stroke-width="7" fill="none" stroke="#1fa562" />
<path d="M1175.625,2278.125 C1164.375,2278.125,1141.875,2278.125,1130.625,2278.125" close="False" data-weight="0.0" stroke-width="7" fill="none" stroke="#1fa562" />
<path d="M1100.625,2278.125 C1089.375,2278.125,1066.875,2278.125,1055.625,2278.125" close="False" data-weight="0.0" stroke-width="7" fill="none" stroke="#1fa562" />
<path d="M1025.625,2278.125 C1014.375,2278.125,991.875,2278.125,980.625,2278.125" close="False" data-weight="0.0" stroke-width="7" fill="none" stroke="#1fa562" />
<path d="M950.625,2278.125 C939.375,2278.125,916.875,2278.125,905.625,2278.125" close="False" data-weight="0.0" stroke-width="7" fill="none" stroke="#1fa562" />
<path d="M875.625,2278.125 C864.375,2278.125,841.875,2278.125,830.625,2278.125" close="False" data-weight="0.0" stroke-width="7" fill="none" stroke="#1fa562" />
<path d="M719.0349025766973,2069.0349025766973 A54.319805153391684,54.319805153391684,0,0,0,701.4122894815041,2057.259848962172 M701.4122894815041,2057.259848962172 A54.319805153393645,54.319805153393645,0,0,0,680.625,2053.125 M680.625,2053.125" close="False" data-weight="1.0" stroke-width="7" fill="none" stroke="#1fa562" />
<path d="M628.125,1880.625 C628.125,1891.875,628.125,1914.375,628.125,1925.625" close="False" data-weight="0.0" stroke-width="7" fill="none" stroke="#1fa562" />
<path d="M628.125,1805.625 C628.125,1816.875,628.125,1839.375,628.125,1850.625" close="False" data-weight="0.0" stroke-width="7" fill="none" stroke="#1fa562" />
<path d="M628.125,1730.625 C628.125,1741.875,628.125,1764.375,628.125,1775.625" close="False" data-weight="0.0" stroke-width="7" fill="none" stroke="#1fa562" />
<path d="M628.125,1655.625 C628.125,1666.875,628.125,1689.375,628.125,1700.625" close="False" data-weight="0.0" stroke-width="7" fill="none" stroke="#1fa562" />
<path d="M628.125,1580.625 C628.125,1591.875,628.125,1614.375,628.125,1625.625" close="False" data-weight="0.0" stroke-width="7" fill="none" stroke="#1fa562" />
<path d="M623.625,1506.0795923149515 C623.625,1517.272624036259,628.125,1539.4319682786925,628.125,1550.625" close="False" data-weight="0.0" stroke-width="7" fill="none" stroke="#1fa562" />
<path d="M623.625,1431.0795923149515 C623.625,1442.1022961574758,623.625,1464.1477038425242,623.625,1475.1704076850485" close="False" data-weight="0.0" stroke-width="7" fill="none" stroke="#1fa562" />
<path d="M2146.8954377834298,765.7185232472494 L2190.7185232472198,721.8954377834591" close="False" data-weight="2.060660171779821" stroke-width="7" fill="none" stroke="#1fa562" />
<path d="M2071.8954377834593,840.7185232472195 L2115.71852324725,796.8954377834293" close="False" data-weight="2.060660171779821" stroke-width="7" fill="none" stroke="#1fa562" />
<path d="M1996.8954377834295,915.7185232472494 L2040.7185232472498,871.8954377834293" close="False" data-weight="2.060660171779821" stroke-width="7" fill="none" stroke="#1fa562" />
<path d="M1921.8954377834295,990.7185232472494 L1965.7185232472498,946.8954377834293" close="False" data-weight="2.060660171779821" stroke-width="7" fill="none" stroke="#1fa562" />
<path d="M1846.8954377834295,1065.7185232472495 L1890.7185232472495,1021.8954377834295" close="False" data-weight="2.060660171779821" stroke-width="7" fill="none" stroke="#1fa562" />
<path d="M1771.8954377834295,1140.7185232472495 L1815.7185232472495,1096.8954377834295" close="False" data-weight="2.060660171779821" stroke-width="7" fill="none" stroke="#1fa562" />
<path d="M1696.8954377834295,1215.7185232472495 L1740.7185232472495,1171.8954377834295" close="False" data-weight="2.060660171779821" stroke-width="7" fill="none" stroke="#1fa562" />
<path d="M1621.8954377834593,1290.7185232472198 L1665.7185232472495,1246.8954377834295" close="False" data-weight="2.060660171779821" stroke-width="7" fill="none" stroke="#1fa562" />
<path d="M1546.8954377834593,1365.7185232472198 L1590.7185232472198,1321.8954377834593" close="False" data-weight="2.060660171779821" stroke-width="7" fill="none" stroke="#1fa562" />
<path d="M1471.8954377834593,1440.7185232472198 L1515.7185232472198,1396.8954377834593" close="False" data-weight="2.060660171779821" stroke-width="7" fill="none" stroke="#1fa562" />
<path d="M1394.0349025766973,1512.2150974233027 L1437.2150974233027,1469.0349025766973" close="False" data-weight="2.060660171779821" stroke-width="7" fill="none" stroke="#1fa562" />
<path d="M1298.625,2225.1704076850488 L1298.625,2256.0795923149512" close="False" data-weight="1.75" stroke-width="7" fill="none" stroke="#1fa562" />
<path d="M1298.625,2150.1704076850488 L1298.625,2181.0795923149512" close="False" data-weight="1.75" stroke-width="7" fill="none" stroke="#1fa562" />
<path d="M1298.625,2075.1704076850488 L1298.625,2106.0795923149512" close="False" data-weight="1.75" stroke-width="7" fill="none" stroke="#1fa562" />
<path d="M1298.625,2000.1704076850485 L1298.625,2031.0795923149515" close="False" data-weight="1.75" stroke-width="7" fill="none" stroke="#1fa562" />
<path d="M1315.5314767527802,1959.3545622165407 L1359.3545622165407,1915.5314767527802" close="False" data-weight="2.060660171779821" stroke-width="7" fill="none" stroke="#1fa562" />
<path d="M1315.5314767527802,1846.8954377834593 L1359.3545622165407,1890.7185232472198" close="False" data-weight="2.060660171779821" stroke-width="7" fill="none" stroke="#1fa562" />
<path d="M1298.625,1775.1704076850485 L1298.625,1806.0795923149515" close="False" data-weight="1.75" stroke-width="7" fill="none" stroke="#1fa562" />
<path d="M1319.0349025766973,1587.2150974233027 L1362.2150974233027,1544.0349025766973" close="False" data-weight="2.060660171779821" stroke-width="7" fill="none" stroke="#1fa562" />
<path d="M1250.625,2278.125 L1280.625,2278.125" close="False" data-weight="1.75" stroke-width="7" fill="none" stroke="#1fa562" />
<path d="M1240.5314767527802,1696.8954377834593 L1284.3545622165407,1740.7185232472198" close="False" data-weight="2.060660171779821" stroke-width="7" fill="none" stroke="#1fa562" />
<path d="M1240.5314767528102,1659.3545622165107 L1284.3545622165407,1615.5314767527802" close="False" data-weight="2.060660171779821" stroke-width="7" fill="none" stroke="#1fa562" />
<path d="M1175.625,2278.125 L1205.625,2278.125" close="False" data-weight="1.75" stroke-width="7" fill="none" stroke="#1fa562" />
<path d="M1100.625,2278.125 L1130.625,2278.125" close="False" data-weight="1.75" stroke-width="7" fill="none" stroke="#1fa562" />
<path d="M1025.625,2278.125 L1055.625,2278.125" close="False" data-weight="1.75" stroke-width="7" fill="none" stroke="#1fa562" />
<path d="M950.625,2278.125 L980.625,2278.125" close="False" data-weight="1.75" stroke-width="7" fill="none" stroke="#1fa562" />
<path d="M875.625,2278.125 L905.625,2278.125" close="False" data-weight="1.75" stroke-width="7" fill="none" stroke="#1fa562" />
<path d="M800.625,2278.125 L830.625,2278.125" close="False" data-weight="1.75" stroke-width="7" fill="none" stroke="#1fa562" />
<path d="M719.0349025766973,2219.0349025766973 L762.2150974233027,2262.2150974233027" close="False" data-weight="2.060660171779821" stroke-width="7" fill="none" stroke="#1fa562" />
<path d="M719.0349025766973,2187.2150974233027 L762.2150974233027,2144.0349025766973" close="False" data-weight="2.060660171779821" stroke-width="7" fill="none" stroke="#1fa562" />
<path d="M719.0349025766973,2069.0349025766973 L762.2150974233027,2112.2150974233027" close="False" data-weight="2.060660171779821" stroke-width="7" fill="none" stroke="#1fa562" />
<path d="M650.625,2053.125 L680.625,2053.125" close="False" data-weight="1.75" stroke-width="7" fill="none" stroke="#1fa562" />
<path d="M628.125,2000.625 L628.125,2030.625" close="False" data-weight="1.75" stroke-width="7" fill="none" stroke="#1fa562" />
<path d="M628.125,1925.625 L628.125,1955.625" close="False" data-weight="1.75" stroke-width="7" fill="none" stroke="#1fa562" />
<path d="M628.125,1850.625 L628.125,1880.625" close="False" data-weight="1.75" stroke-width="7" fill="none" stroke="#1fa562" />
<path d="M628.125,1775.625 L628.125,1805.625" close="False" data-weight="1.75" stroke-width="7" fill="none" stroke="#1fa562" />
<path d="M628.125,1700.625 L628.125,1730.625" close="False" data-weight="1.75" stroke-width="7" fill="none" stroke="#1fa562" />
<path d="M628.125,1625.625 L628.125,1655.625" close="False" data-weight="1.75" stroke-width="7" fill="none" stroke="#1fa562" />
<path d="M628.125,1550.625 L628.125,1580.625" close="False" data-weight="1.75" stroke-width="7" fill="none" stroke="#1fa562" />
<path d="M623.625,1475.1704076850485 L623.625,1506.0795923149515" close="False" data-weight="1.75" stroke-width="7" fill="none" stroke="#1fa562" />
<path d="M623.625,1400.1704076850485 L623.625,1431.0795923149515" close="False" data-weight="1.75" stroke-width="7" fill="none" stroke="#1fa562" />
<path d="M2290.5314767527802,684.3545622165409 A48.72232222128834,48.72232222128834,0,0,1,2274.724817815392,694.9162340553801 M2274.724817815392,694.9162340553801 A48.722322221288096,48.722322221288096,0,0,1,2256.0795923149512,698.625 M2256.0795923149512,698.625" close="False" data-weight="1.0" stroke-width="7" fill="none" stroke="#ff1c5d" />
<path d="M2140.5314767528102,759.354562216511 C2132.7372481187354,767.1487908505859,2117.1487908505856,782.7372481187355,2109.3545622165107,790.5314767528104" close="False" data-weight="0.0" stroke-width="7" fill="none" stroke="#ff1c5d" />
<path d="M2065.5314767527802,834.3545622165409 C2057.737248118713,842.1487908506083,2042.148790850578,857.737248118743,2034.3545622165107,865.5314767528104" close="False" data-weight="0.0" stroke-width="7" fill="none" stroke="#ff1c5d" />
<path d="M1990.53147675281,909.354562216511 C1982.7372481187351,917.1487908505858,1967.1487908505856,932.7372481187356,1959.3545622165107,940.5314767528104" close="False" data-weight="0.0" stroke-width="7" fill="none" stroke="#ff1c5d" />
<path d="M1915.53147675281,984.354562216511 C1907.7372481187351,992.1487908505858,1892.1487908505856,1007.7372481187355,1884.3545622165107,1015.5314767528102" close="False" data-weight="0.0" stroke-width="7" fill="none" stroke="#ff1c5d" />
<path d="M1840.53147675281,1059.3545622165109 C1832.7372481187351,1067.1487908505858,1817.1487908505856,1082.7372481187354,1809.3545622165107,1090.5314767528102" close="False" data-weight="0.0" stroke-width="7" fill="none" stroke="#ff1c5d" />
<path d="M1765.5314767528102,1134.3545622165107 C1757.7372481187354,1142.1487908505856,1742.1487908505856,1157.7372481187354,1734.3545622165107,1165.5314767528102" close="False" data-weight="0.0" stroke-width="7" fill="none" stroke="#ff1c5d" />
<path d="M1690.5314767528102,1209.3545622165107 C1682.7372481187354,1217.1487908505856,1667.1487908505856,1232.7372481187354,1659.3545622165107,1240.5314767528102" close="False" data-weight="0.0" stroke-width="7" fill="none" stroke="#ff1c5d" />
<path d="M1615.5314767527802,1284.3545622165407 C1607.7372481187203,1292.1487908506006,1592.1487908506006,1307.7372481187203,1584.3545622165407,1315.5314767527802" close="False" data-weight="0.0" stroke-width="7" fill="none" stroke="#ff1c5d" />
<path d="M1540.5314767527802,1359.3545622165407 C1532.7372481187203,1367.1487908506006,1517.1487908506006,1382.7372481187203,1509.3545622165407,1390.5314767527802" close="False" data-weight="0.0" stroke-width="7" fill="none" stroke="#ff1c5d" />
<path d="M1465.5314767527802,1434.3545622165407 A103.64933488290592,103.64933488290592,0,0,1,1449.5937766731977,1447.398614218719 M1449.5937766731977,1447.398614218719 A34.28043425550368,34.28043425550368,0,0,1,1430.625,1453.125 M1430.625,1453.125" close="False" data-weight="1.0" stroke-width="7" fill="none" stroke="#ff1c5d" />
<path d="M1400.625,1453.125 C1389.375,1453.125,1366.875,1453.125,1355.625,1453.125" close="False" data-weight="0.0" stroke-width="7" fill="none" stroke="#ff1c5d" />
<path d="M1325.625,1453.125 C1314.375,1453.125,1291.875,1453.125,1280.625,1453.125" close="False" data-weight="0.0" stroke-width="7" fill="none" stroke="#ff1c5d" />
<path d="M1250.625,1453.125 C1239.375,1453.125,1216.875,1453.125,1205.625,1453.125" close="False" data-weight="0.0" stroke-width="7" fill="none" stroke="#ff1c5d" />
<path d="M1175.625,1453.125 C1164.375,1453.125,1141.875,1453.125,1130.625,1453.125" close="False" data-weight="0.0" stroke-width="7" fill="none" stroke="#ff1c5d" />
<path d="M1100.625,1453.125 C1089.375,1453.125,1066.875,1453.125,1055.625,1453.125" close="False" data-weight="0.0" stroke-width="7" fill="none" stroke="#ff1c5d" />
<path d="M1025.625,1453.125 C1014.375,1453.125,991.875,1453.125,980.625,1453.125" close="False" data-weight="0.0" stroke-width="7" fill="none" stroke="#ff1c5d" />
<path d="M950.625,1453.125 C939.375,1453.125,916.875,1453.125,905.625,1453.125" close="False" data-weight="0.0" stroke-width="7" fill="none" stroke="#ff1c5d" />
<path d="M875.625,1453.125 C864.375,1453.125,841.875,1453.125,830.625,1453.125" close="False" data-weight="0.0" stroke-width="7" fill="none" stroke="#ff1c5d" />
<path d="M800.625,1453.125 C789.375,1453.125,766.875,1453.125,755.625,1453.125" close="False" data-weight="0.0" stroke-width="7" fill="none" stroke="#ff1c5d" />
<path d="M725.625,1453.125 C714.375,1453.125,691.875,1453.125,680.625,1453.125" close="False" data-weight="0.0" stroke-width="7" fill="none" stroke="#ff1c5d" />
<path d="M650.625,1453.125 C639.375,1453.125,616.875,1453.125,605.625,1453.125" close="False" data-weight="0.0" stroke-width="7" fill="none" stroke="#ff1c5d" />
<path d="M575.625,1453.125 A54.31980515339637,54.31980515339637,0,0,0,554.837710518496,1457.259848962172 M554.837710518496,1457.259848962172 A54.31980515339273,54.31980515339273,0,0,0,537.2150974233027,1469.0349025766973 M537.2150974233027,1469.0349025766973" close="False" data-weight="1.0" stroke-width="7" fill="none" stroke="#ff1c5d" />
<path d="M494.03490257669733,1512.2150974233027 C486.0799512883487,1520.1700487116514,470.1700487116513,1536.0799512883486,462.21509742330267,1544.0349025766973" close="False" data-weight="0.0" stroke-width="7" fill="none" stroke="#ff1c5d" />
<path d="M350.625,1603.125 C339.375,1603.125,316.875,1603.125,305.625,1603.125" close="False" data-weight="0.0" stroke-width="7" fill="none" stroke="#ff1c5d" />
<path d="M275.625,1603.125 C264.375,1603.125,241.875,1603.125,230.625,1603.125" close="False" data-weight="0.0" stroke-width="7" fill="none" stroke="#ff1c5d" />
<path d="M200.625,1603.125 A54.3198051533966,54.3198051533966,0,0,1,179.83771051849592,1598.990151037828 M179.83771051849592,1598.990151037828 A54.31980515339265,54.31980515339265,0,0,1,162.21509742330267,1587.2150974233027 M162.21509742330267,1587.2150974233027" close="False" data-weight="1.0" stroke-width="7" fill="none" stroke="#ff1c5d" />
<path d="M2290.5314767527802,684.3545622165407 L2334.35456221654,640.5314767527807" close="False" data-weight="2.060660171779821" stroke-width="7" fill="none" stroke="#ff1c5d" />
<path d="M2225.1704076850488,698.625 L2256.0795923149512,698.625" close="False" data-weight="1.75" stroke-width="7" fill="none" stroke="#ff1c5d" />
<path d="M2140.5314767528102,759.3545622165108 L2184.35456221654,715.5314767527807" close="False" data-weight="2.060660171779821" stroke-width="7" fill="none" stroke="#ff1c5d" />
<path d="M2065.5314767527802,834.3545622165407 L2109.3545622165107,790.5314767528105" close="False" data-weight="2.060660171779821" stroke-width="7" fill="none" stroke="#ff1c5d" />
<path d="M1990.5314767528102,909.3545622165108 L2034.3545622165104,865.5314767528105" close="False" data-weight="2.060660171779821" stroke-width="7" fill="none" stroke="#ff1c5d" />
<path d="M1915.5314767528102,984.3545622165108 L1959.3545622165104,940.5314767528105" close="False" data-weight="2.060660171779821" stroke-width="7" fill="none" stroke="#ff1c5d" />
<path d="M1840.5314767528102,1059.3545622165107 L1884.3545622165107,1015.5314767528102" close="False" data-weight="2.060660171779821" stroke-width="7" fill="none" stroke="#ff1c5d" />
<path d="M1765.5314767528102,1134.3545622165107 L1809.3545622165107,1090.5314767528102" close="False" data-weight="2.060660171779821" stroke-width="7" fill="none" stroke="#ff1c5d" />
<path d="M1690.5314767528102,1209.3545622165107 L1734.3545622165107,1165.5314767528102" close="False" data-weight="2.060660171779821" stroke-width="7" fill="none" stroke="#ff1c5d" />
<path d="M1615.5314767527802,1284.3545622165407 L1659.3545622165107,1240.5314767528102" close="False" data-weight="2.060660171779821" stroke-width="7" fill="none" stroke="#ff1c5d" />
<path d="M1540.5314767527802,1359.3545622165407 L1584.3545622165407,1315.5314767527802" close="False" data-weight="2.060660171779821" stroke-width="7" fill="none" stroke="#ff1c5d" />
<path d="M1465.5314767527802,1434.3545622165407 L1509.3545622165407,1390.5314767527802" close="False" data-weight="2.060660171779821" stroke-width="7" fill="none" stroke="#ff1c5d" />
<path d="M1400.625,1453.125 L1430.625,1453.125" close="False" data-weight="1.75" stroke-width="7" fill="none" stroke="#ff1c5d" />
<path d="M1325.625,1453.125 L1355.625,1453.125" close="False" data-weight="1.75" stroke-width="7" fill="none" stroke="#ff1c5d" />
<path d="M1250.625,1453.125 L1280.625,1453.125" close="False" data-weight="1.75" stroke-width="7" fill="none" stroke="#ff1c5d" />
<path d="M1175.625,1453.125 L1205.625,1453.125" close="False" data-weight="1.75" stroke-width="7" fill="none" stroke="#ff1c5d" />
<path d="M1100.625,1453.125 L1130.625,1453.125" close="False" data-weight="1.75" stroke-width="7" fill="none" stroke="#ff1c5d" />
<path d="M1025.625,1453.125 L1055.625,1453.125" close="False" data-weight="1.75" stroke-width="7" fill="none" stroke="#ff1c5d" />
<path d="M950.625,1453.125 L980.625,1453.125" close="False" data-weight="1.75" stroke-width="7" fill="none" stroke="#ff1c5d" />
<path d="M875.625,1453.125 L905.625,1453.125" close="False" data-weight="1.75" stroke-width="7" fill="none" stroke="#ff1c5d" />
<path d="M800.625,1453.125 L830.625,1453.125" close="False" data-weight="1.75" stroke-width="7" fill="none" stroke="#ff1c5d" />
<path d="M725.625,1453.125 L755.625,1453.125" close="False" data-weight="1.75" stroke-width="7" fill="none" stroke="#ff1c5d" />
<path d="M650.625,1453.125 L680.625,1453.125" close="False" data-weight="1.75" stroke-width="7" fill="none" stroke="#ff1c5d" />
<path d="M575.625,1453.125 L605.625,1453.125" close="False" data-weight="1.75" stroke-width="7" fill="none" stroke="#ff1c5d" />
<path d="M494.03490257669733,1512.2150974233027 L537.2150974233027,1469.0349025766973" close="False" data-weight="2.060660171779821" stroke-width="7" fill="none" stroke="#ff1c5d" />
<path d="M419.03490257669733,1587.2150974233027 L462.21509742330267,1544.0349025766973" close="False" data-weight="2.060660171779821" stroke-width="7" fill="none" stroke="#ff1c5d" />
<path d="M350.625,1603.125 L380.625,1603.125" close="False" data-weight="1.75" stroke-width="7" fill="none" stroke="#ff1c5d" />
<path d="M275.625,1603.125 L305.625,1603.125" close="False" data-weight="1.75" stroke-width="7" fill="none" stroke="#ff1c5d" />
<path d="M200.625,1603.125 L230.625,1603.125" close="False" data-weight="1.75" stroke-width="7" fill="none" stroke="#ff1c5d" />
<path d="M119.03490257669732,1544.0349025766973 L162.2150974233027,1587.2150974233027" close="False" data-weight="2.060660171779821" stroke-width="7" fill="none" stroke="#ff1c5d" />
<path d="M1244.0349025766973,2219.0349025766973 C1236.0799512883486,2211.0799512883486,1220.1700487116514,2195.1700487116514,1212.2150974233027,2187.2150974233027" close="False" data-weight="0.0" stroke-width="7" fill="none" stroke="#7cd3eb" />
<path d="M1169.0349025766973,2144.0349025766973 C1161.0799512883486,2136.0799512883486,1145.1700487116514,2120.1700487116514,1137.2150974233027,2112.2150974233027" close="False" data-weight="0.0" stroke-width="7" fill="none" stroke="#7cd3eb" />
<path d="M1094.0349025766973,2069.0349025766973 C1086.0799512883486,2061.0799512883486,1070.1700487116514,2045.1700487116514,1062.2150974233027,2037.2150974233027" close="False" data-weight="0.0" stroke-width="7" fill="none" stroke="#7cd3eb" />
<path d="M1019.0349025766973,1994.0349025766973 C1011.0799512883486,1986.0799512883486,995.1700487116514,1970.1700487116514,987.2150974233027,1962.2150974233027" close="False" data-weight="0.0" stroke-width="7" fill="none" stroke="#7cd3eb" />
<path d="M944.0349025766973,1919.0349025766973 C936.0799512883486,1911.0799512883486,920.1700487116514,1895.1700487116514,912.2150974233027,1887.2150974233027" close="False" data-weight="0.0" stroke-width="7" fill="none" stroke="#7cd3eb" />
<path d="M869.0349025766973,1844.0349025766973 C861.0799512883486,1836.0799512883486,845.1700487116514,1820.1700487116514,837.2150974233027,1812.2150974233027" close="False" data-weight="0.0" stroke-width="7" fill="none" stroke="#7cd3eb" />
<path d="M794.0349025766973,1769.0349025766973 C786.0799512883486,1761.0799512883486,770.1700487116514,1745.1700487116514,762.2150974233027,1737.2150974233027" close="False" data-weight="0.0" stroke-width="7" fill="none" stroke="#7cd3eb" />
<path d="M719.0349025766973,1694.0349025766973 C711.0799512883486,1686.0799512883486,695.1700487116514,1670.1700487116514,687.2150974233027,1662.2150974233027" close="False" data-weight="0.0" stroke-width="7" fill="none" stroke="#7cd3eb" />
<path d="M644.0349025766973,1619.0349025766973 A34.2804342555045,34.2804342555045,0,0,0,626.572785742632,1609.6711181778999 M626.572785742632,1609.6711181778999 A103.64933488289944,103.64933488289944,0,0,0,606.0795923149514,1607.625 M606.0795923149514,1607.625" close="False" data-weight="1.0" stroke-width="7" fill="none" stroke="#7cd3eb" />
<path d="M575.1704076850486,1607.625 C564.1477038425244,1607.625,542.1022961574756,1607.625,531.0795923149514,1607.625" close="False" data-weight="0.0" stroke-width="7" fill="none" stroke="#7cd3eb" />
<path d="M500.1704076850486,1607.625 C489.14770384252427,1607.625,467.10229615747573,1607.625,456.0795923149514,1607.625" close="False" data-weight="0.0" stroke-width="7" fill="none" stroke="#7cd3eb" />
<path d="M328.125,1505.625 A54.31980515339285,54.31980515339285,0,0,0,332.2598489621724,1526.412289481504 M332.2598489621724,1526.412289481504 A54.31980515339627,54.31980515339627,0,0,0,344.03490257669733,1544.0349025766973 M344.03490257669733,1544.0349025766973" close="False" data-weight="1.0" stroke-width="7" fill="none" stroke="#7cd3eb" />
<path d="M328.125,1430.625 C328.125,1441.875,328.125,1464.375,328.125,1475.625" close="False" data-weight="0.0" stroke-width="7" fill="none" stroke="#7cd3eb" />
<path d="M328.125,1355.625 C328.125,1366.875,328.125,1389.375,328.125,1400.625" close="False" data-weight="0.0" stroke-width="7" fill="none" stroke="#7cd3eb" />
<path d="M328.125,1280.625 C328.125,1291.875,328.125,1314.375,328.125,1325.625" close="False" data-weight="0.0" stroke-width="7" fill="none" stroke="#7cd3eb" />
<path d="M328.125,1205.625 C328.125,1216.875,328.125,1239.375,328.125,1250.625" close="False" data-weight="0.0" stroke-width="7" fill="none" stroke="#7cd3eb" />
<path d="M1244.0349025766973,2219.0349025766973 L1287.2150974233027,2262.2150974233027" close="False" data-weight="2.060660171779821" stroke-width="7" fill="none" stroke="#7cd3eb" />
<path d="M1169.0349025766973,2144.0349025766973 L1212.2150974233027,2187.2150974233027" close="False" data-weight="2.060660171779821" stroke-width="7" fill="none" stroke="#7cd3eb" />
<path d="M1094.0349025766973,2069.0349025766973 L1137.2150974233027,2112.2150974233027" close="False" data-weight="2.060660171779821" stroke-width="7" fill="none" stroke="#7cd3eb" />
<path d="M1019.0349025766973,1994.0349025766973 L1062.2150974233027,2037.2150974233027" close="False" data-weight="2.060660171779821" stroke-width="7" fill="none" stroke="#7cd3eb" />
<path d="M944.0349025766973,1919.0349025766973 L987.2150974233027,1962.2150974233027" close="False" data-weight="2.060660171779821" stroke-width="7" fill="none" stroke="#7cd3eb" />
<path d="M869.0349025766973,1844.0349025766973 L912.2150974233027,1887.2150974233027" close="False" data-weight="2.060660171779821" stroke-width="7" fill="none" stroke="#7cd3eb" />
<path d="M794.0349025766973,1769.0349025766973 L837.2150974233027,1812.2150974233027" close="False" data-weight="2.060660171779821" stroke-width="7" fill="none" stroke="#7cd3eb" />
<path d="M719.0349025766973,1694.0349025766973 L762.2150974233027,1737.2150974233027" close="False" data-weight="2.060660171779821" stroke-width="7" fill="none" stroke="#7cd3eb" />
<path d="M644.0349025766973,1619.0349025766973 L687.2150974233027,1662.2150974233027" close="False" data-weight="2.060660171779821" stroke-width="7" fill="none" stroke="#7cd3eb" />
<path d="M575.1704076850486,1607.625 L606.0795923149514,1607.625" close="False" data-weight="1.75" stroke-width="7" fill="none" stroke="#7cd3eb" />
<path d="M500.1704076850486,1607.625 L531.0795923149514,1607.625" close="False" data-weight="1.75" stroke-width="7" fill="none" stroke="#7cd3eb" />
<path d="M425.1704076850486,1607.625 L456.0795923149514,1607.625" close="False" data-weight="1.75" stroke-width="7" fill="none" stroke="#7cd3eb" />
<path d="M344.03490257669733,1544.0349025766973 L387.21509742330267,1587.2150974233027" close="False" data-weight="2.060660171779821" stroke-width="7" fill="none" stroke="#7cd3eb" />
<path d="M328.125,1475.625 L328.125,1505.625" close="False" data-weight="1.75" stroke-width="7" fill="none" stroke="#7cd3eb" />
<path d="M328.125,1400.625 L328.125,1430.625" close="False" data-weight="1.75" stroke-width="7" fill="none" stroke="#7cd3eb" />
<path d="M328.125,1325.625 L328.125,1355.625" close="False" data-weight="1.75" stroke-width="7" fill="none" stroke="#7cd3eb" />
<path d="M328.125,1250.625 L328.125,1280.625" close="False" data-weight="1.75" stroke-width="7" fill="none" stroke="#7cd3eb" />
<path d="M328.125,1175.625 L328.125,1205.625" close="False" data-weight="1.75" stroke-width="7" fill="none" stroke="#7cd3eb" />
<path d="M328.125,1100.625 L328.125,1130.625" close="False" data-weight="1.75" stroke-width="7" fill="none" stroke="#7cd3eb" />
<path d="M2423.625,1056.0795923149515 C2423.625,1067.1022961574758,2423.625,1089.1477038425242,2423.625,1100.1704076850485" close="False" data-weight="0.0" stroke-width="7" fill="none" stroke="#8f0f12" />
<path d="M2423.625,1025.1704076850485 A48.72232222128832,48.72232222128832,0,0,0,2419.91623405538,1006.525182184608 M2419.91623405538,1006.525182184608 A48.72232222128834,48.72232222128834,0,0,0,2409.3545622165407,990.7185232472195 M2409.3545622165407,990.7185232472195" close="False" data-weight="1.0" stroke-width="7" fill="none" stroke="#8f0f12" />
<path d="M2348.625,875.1704076850486 A48.72232222128832,48.72232222128832,0,0,0,2344.91623405538,856.5251821846081 M2344.91623405538,856.5251821846081 A48.72232222128882,48.72232222128882,0,0,0,2334.3545622165407,840.7185232472195 M2334.3545622165407,840.7185232472195" close="False" data-weight="1.0" stroke-width="7" fill="none" stroke="#8f0f12" />
<path d="M2290.5314767527802,796.8954377834591 C2282.7372481187203,789.1012091493992,2267.1487908506006,773.5127518812794,2259.3545622165407,765.7185232472195" close="False" data-weight="0.0" stroke-width="7" fill="none" stroke="#8f0f12" />
<path d="M2207.625,756.0795923149514 A57.72232222129196,57.72232222129196,0,0,1,2203.2311498479817,778.1689687066778 M2203.2311498479817,778.1689687066778 A57.72232222128471,57.72232222128471,0,0,1,2190.7185232472198,796.8954377834593 M2190.7185232472198,796.8954377834593" close="False" data-weight="1.0" stroke-width="7" fill="none" stroke="#8f0f12" />
<path d="M2203.125,605.625 C2203.125,616.875,2203.125,639.375,2203.125,650.625" close="False" data-weight="0.0" stroke-width="7" fill="none" stroke="#8f0f12" />
<path d="M2203.125,530.625 C2203.125,541.875,2203.125,564.375,2203.125,575.625" close="False" data-weight="0.0" stroke-width="7" fill="none" stroke="#8f0f12" />
<path d="M2203.125,455.625 C2203.125,466.875,2203.125,489.375,2203.125,500.625" close="False" data-weight="0.0" stroke-width="7" fill="none" stroke="#8f0f12" />
<path d="M2203.125,425.625 A54.31980515339956,54.31980515339956,0,0,0,2198.990151037828,404.83771051849584 M2198.990151037828,404.83771051849584 A54.31980515339,54.31980515339,0,0,0,2187.2150974233027,387.21509742330267 M2187.2150974233027,387.21509742330267" close="False" data-weight="1.0" stroke-width="7" fill="none" stroke="#8f0f12" />
<path d="M2146.89543778346,840.7185232472193 C2139.1012091494,848.5127518812793,2123.5127518812797,864.1012091493993,2115.7185232472198,871.8954377834593" close="False" data-weight="0.0" stroke-width="7" fill="none" stroke="#8f0f12" />
<path d="M2144.0349025766973,344.03490257669733 C2136.0799512883486,336.0799512883487,2120.1700487116514,320.1700487116513,2112.2150974233027,312.21509742330267" close="False" data-weight="0.0" stroke-width="7" fill="none" stroke="#8f0f12" />
<path d="M1994.0349025766973,987.2150974233027 C1986.0799512883486,995.1700487116514,1970.1700487116514,1011.0799512883486,1962.2150974233027,1019.0349025766973" close="False" data-weight="0.0" stroke-width="7" fill="none" stroke="#8f0f12" />
<path d="M1994.0349025766973,194.0349025766973 A54.3198051533952,54.3198051533952,0,0,0,1976.412289481504,182.2598489621722 M1976.412289481504,182.2598489621722 A54.319805153393986,54.319805153393986,0,0,0,1955.625,178.125 M1955.625,178.125" close="False" data-weight="1.0" stroke-width="7" fill="none" stroke="#8f0f12" />
<path d="M1919.0349025766973,1062.2150974233027 C1911.0799512883486,1070.1700487116514,1895.1700487116514,1086.0799512883486,1887.2150974233027,1094.0349025766973" close="False" data-weight="0.0" stroke-width="7" fill="none" stroke="#8f0f12" />
<path d="M1844.0349025766973,1137.2150974233027 C1836.0799512883486,1145.1700487116514,1820.1700487116514,1161.0799512883486,1812.2150974233027,1169.0349025766973" close="False" data-weight="0.0" stroke-width="7" fill="none" stroke="#8f0f12" />
<path d="M1769.0349025766973,1212.2150974233027 C1761.0799512883486,1220.1700487116514,1745.1700487116514,1236.0799512883486,1737.2150974233027,1244.0349025766973" close="False" data-weight="0.0" stroke-width="7" fill="none" stroke="#8f0f12" />
<path d="M1694.0349025766973,1287.2150974233027 C1686.0799512883486,1295.1700487116514,1670.1700487116514,1311.0799512883486,1662.2150974233027,1319.0349025766973" close="False" data-weight="0.0" stroke-width="7" fill="none" stroke="#8f0f12" />
<path d="M1619.0349025766973,1362.2150974233027 A54.3198051533949,54.3198051533949,0,0,1,1601.412289481504,1373.9901510378277 M1601.412289481504,1373.9901510378277 A54.3198051533941,54.3198051533941,0,0,1,1580.625,1378.125 M1580.625,1378.125" close="False" data-weight="1.0" stroke-width="7" fill="none" stroke="#8f0f12" />
<path d="M1550.625,1378.125 C1539.375,1378.125,1516.875,1378.125,1505.625,1378.125" close="False" data-weight="0.0" stroke-width="7" fill="none" stroke="#8f0f12" />
<path d="M1469.0349025766973,2369.0349025766973 C1461.0799512883486,2361.0799512883486,1445.1700487116514,2345.1700487116514,1437.2150974233027,2337.2150974233027" close="False" data-weight="0.0" stroke-width="7" fill="none" stroke="#8f0f12" />
<path d="M1475.625,1378.125 C1464.375,1378.125,1441.875,1378.125,1430.625,1378.125" close="False" data-weight="0.0" stroke-width="7" fill="none" stroke="#8f0f12" />
<path d="M1394.0349025766973,2294.0349025766973 C1386.0799512883486,2286.0799512883486,1370.1700487116514,2270.1700487116514,1362.2150974233027,2262.2150974233027" close="False" data-weight="0.0" stroke-width="7" fill="none" stroke="#8f0f12" />
<path d="M1400.625,1378.125 C1389.375,1378.125,1366.875,1378.125,1355.625,1378.125" close="False" data-weight="0.0" stroke-width="7" fill="none" stroke="#8f0f12" />
<path d="M1319.0349025766973,2219.0349025766973 C1311.0799512883486,2211.0799512883486,1295.1700487116514,2195.1700487116514,1287.2150974233027,2187.2150974233027" close="False" data-weight="0.0" stroke-width="7" fill="none" stroke="#8f0f12" />
<path d="M1325.625,1378.125 C1314.375,1378.125,1291.875,1378.125,1280.625,1378.125" close="False" data-weight="0.0" stroke-width="7" fill="none" stroke="#8f0f12" />
<path d="M1244.0349025766973,2144.0349025766973 C1236.0799512883486,2136.0799512883486,1220.1700487116514,2120.1700487116514,1212.2150974233027,2112.2150974233027" close="False" data-weight="0.0" stroke-width="7" fill="none" stroke="#8f0f12" />
<path d="M1250.625,1378.125 C1239.375,1378.125,1216.875,1378.125,1205.625,1378.125" close="False" data-weight="0.0" stroke-width="7" fill="none" stroke="#8f0f12" />
<path d="M1169.0349025766973,2069.0349025766973 C1161.0799512883486,2061.0799512883486,1145.1700487116514,2045.1700487116514,1137.2150974233027,2037.2150974233027" close="False" data-weight="0.0" stroke-width="7" fill="none" stroke="#8f0f12" />
<path d="M1175.625,1378.125 C1164.375,1378.125,1141.875,1378.125,1130.625,1378.125" close="False" data-weight="0.0" stroke-width="7" fill="none" stroke="#8f0f12" />
<path d="M1094.0349025766973,1994.0349025766973 C1086.0799512883486,1986.0799512883486,1070.1700487116514,1970.1700487116514,1062.2150974233027,1962.2150974233027" close="False" data-weight="0.0" stroke-width="7" fill="none" stroke="#8f0f12" />
<path d="M1100.625,1378.125 C1089.375,1378.125,1066.875,1378.125,1055.625,1378.125" close="False" data-weight="0.0" stroke-width="7" fill="none" stroke="#8f0f12" />
<path d="M1019.0349025766973,1919.0349025766973 C1011.0799512883486,1911.0799512883486,995.1700487116514,1895.1700487116514,987.2150974233027,1887.2150974233027" close="False" data-weight="0.0" stroke-width="7" fill="none" stroke="#8f0f12" />
<path d="M1025.625,1378.125 C1014.375,1378.125,991.875,1378.125,980.625,1378.125" close="False" data-weight="0.0" stroke-width="7" fill="none" stroke="#8f0f12" />
<path d="M944.0349025766973,1844.0349025766973 C936.0799512883486,1836.0799512883486,920.1700487116514,1820.1700487116514,912.2150974233027,1812.2150974233027" close="False" data-weight="0.0" stroke-width="7" fill="none" stroke="#8f0f12" />
<path d="M950.625,1378.125 C939.375,1378.125,916.875,1378.125,905.625,1378.125" close="False" data-weight="0.0" stroke-width="7" fill="none" stroke="#8f0f12" />
<path d="M869.0349025766973,1769.0349025766973 C861.0799512883486,1761.0799512883486,845.1700487116514,1745.1700487116514,837.2150974233027,1737.2150974233027" close="False" data-weight="0.0" stroke-width="7" fill="none" stroke="#8f0f12" />
<path d="M875.625,1378.125 C864.375,1378.125,841.875,1378.125,830.625,1378.125" close="False" data-weight="0.0" stroke-width="7" fill="none" stroke="#8f0f12" />
<path d="M794.0349025766973,1694.0349025766973 C786.0799512883486,1686.0799512883486,770.1700487116514,1670.1700487116514,762.2150974233027,1662.2150974233027" close="False" data-weight="0.0" stroke-width="7" fill="none" stroke="#8f0f12" />
<path d="M800.625,1378.125 C789.375,1378.125,766.875,1378.125,755.625,1378.125" close="False" data-weight="0.0" stroke-width="7" fill="none" stroke="#8f0f12" />
<path d="M719.0349025766973,1619.0349025766973 C711.0799512883486,1611.0799512883486,695.1700487116514,1595.1700487116514,687.2150974233027,1587.2150974233027" close="False" data-weight="0.0" stroke-width="7" fill="none" stroke="#8f0f12" />
<path d="M725.625,1378.125 C714.375,1378.125,691.875,1378.125,680.625,1378.125" close="False" data-weight="0.0" stroke-width="7" fill="none" stroke="#8f0f12" />
<path d="M632.625,1506.0795923149515 A103.64933488289898,103.64933488289898,0,0,0,634.6711181778999,1526.572785742632 M634.6711181778999,1526.572785742632 A34.2804342555045,34.2804342555045,0,0,0,644.0349025766973,1544.0349025766973 M644.0349025766973,1544.0349025766973" close="False" data-weight="1.0" stroke-width="7" fill="none" stroke="#8f0f12" />
<path d="M632.625,1431.0795923149515 C632.625,1442.1022961574758,632.625,1464.1477038425242,632.625,1475.1704076850485" close="False" data-weight="0.0" stroke-width="7" fill="none" stroke="#8f0f12" />
<path d="M569.0349025766973,1319.0349025766973 C561.0799512883486,1311.0799512883486,545.1700487116514,1295.1700487116514,537.2150974233027,1287.2150974233027" close="False" data-weight="0.0" stroke-width="7" fill="none" stroke="#8f0f12" />
<path d="M494.03490257669733,1244.0349025766973 C486.0799512883487,1236.0799512883486,470.1700487116513,1220.1700487116514,462.21509742330267,1212.2150974233027" close="False" data-weight="0.0" stroke-width="7" fill="none" stroke="#8f0f12" />
<path d="M419.03490257669733,1169.0349025766973 A54.31980515339551,54.31980515339551,0,0,0,401.41228948150405,1157.259848962172 M401.41228948150405,1157.259848962172 A54.31980515339387,54.31980515339387,0,0,0,380.625,1153.125 M380.625,1153.125" close="False" data-weight="1.0" stroke-width="7" fill="none" stroke="#8f0f12" />
<path d="M2423.625,1100.1704076850485 L2423.625,1131.0795923149515" close="False" data-weight="1.75" stroke-width="7" fill="none" stroke="#8f0f12" />
<path d="M2423.625,1025.1704076850485 L2423.625,1056.0795923149515" close="False" data-weight="1.75" stroke-width="7" fill="none" stroke="#8f0f12" />
<path d="M2365.5314767527507,946.8954377834294 L2409.35456221654,990.7185232472193" close="False" data-weight="2.060660171779821" stroke-width="7" fill="none" stroke="#8f0f12" />
<path d="M2348.625,875.1704076850486 L2348.625,906.0795923149514" close="False" data-weight="1.75" stroke-width="7" fill="none" stroke="#8f0f12" />
<path d="M2290.5314767527802,796.8954377834593 L2334.35456221654,840.7185232472193" close="False" data-weight="2.060660171779821" stroke-width="7" fill="none" stroke="#8f0f12" />
<path d="M2207.625,725.1704076850486 L2207.625,756.0795923149514" close="False" data-weight="1.75" stroke-width="7" fill="none" stroke="#8f0f12" />
<path d="M2215.5314767527802,721.8954377834593 L2259.35456221654,765.7185232472193" close="False" data-weight="2.060660171779821" stroke-width="7" fill="none" stroke="#8f0f12" />
<path d="M2203.125,650.625 L2203.125,680.625" close="False" data-weight="1.75" stroke-width="7" fill="none" stroke="#8f0f12" />
<path d="M2203.125,575.625 L2203.125,605.625" close="False" data-weight="1.75" stroke-width="7" fill="none" stroke="#8f0f12" />
<path d="M2203.125,500.625 L2203.125,530.625" close="False" data-weight="1.75" stroke-width="7" fill="none" stroke="#8f0f12" />
<path d="M2203.125,425.625 L2203.125,455.625" close="False" data-weight="1.75" stroke-width="7" fill="none" stroke="#8f0f12" />
<path d="M2146.8954377834593,840.7185232472195 L2190.7185232472198,796.8954377834591" close="False" data-weight="2.060660171779821" stroke-width="7" fill="none" stroke="#8f0f12" />
<path d="M2144.0349025766973,344.03490257669733 L2187.2150974233027,387.21509742330267" close="False" data-weight="2.060660171779821" stroke-width="7" fill="none" stroke="#8f0f12" />
<path d="M2071.8954377834593,915.7185232472195 L2115.7185232472198,871.8954377834591" close="False" data-weight="2.060660171779821" stroke-width="7" fill="none" stroke="#8f0f12" />
<path d="M2069.0349025766973,269.03490257669733 L2112.2150974233027,312.21509742330267" close="False" data-weight="2.060660171779821" stroke-width="7" fill="none" stroke="#8f0f12" />
<path d="M1994.0349025766973,987.2150974233027 L2037.2150974233027,944.0349025766973" close="False" data-weight="2.060660171779821" stroke-width="7" fill="none" stroke="#8f0f12" />
<path d="M1994.0349025766973,194.03490257669733 L2037.2150974233027,237.2150974233027" close="False" data-weight="2.060660171779821" stroke-width="7" fill="none" stroke="#8f0f12" />
<path d="M1919.0349025766973,1062.2150974233027 L1962.2150974233027,1019.0349025766973" close="False" data-weight="2.060660171779821" stroke-width="7" fill="none" stroke="#8f0f12" />
<path d="M1925.625,178.125 L1955.625,178.125" close="False" data-weight="1.75" stroke-width="7" fill="none" stroke="#8f0f12" />
<path d="M1844.0349025766973,1137.2150974233027 L1887.2150974233027,1094.0349025766973" close="False" data-weight="2.060660171779821" stroke-width="7" fill="none" stroke="#8f0f12" />
<path d="M1769.0349025766973,1212.2150974233027 L1812.2150974233027,1169.0349025766973" close="False" data-weight="2.060660171779821" stroke-width="7" fill="none" stroke="#8f0f12" />
<path d="M1694.0349025766973,1287.2150974233027 L1737.2150974233027,1244.0349025766973" close="False" data-weight="2.060660171779821" stroke-width="7" fill="none" stroke="#8f0f12" />
<path d="M1619.0349025766973,1362.2150974233027 L1662.2150974233027,1319.0349025766973" close="False" data-weight="2.060660171779821" stroke-width="7" fill="none" stroke="#8f0f12" />
<path d="M1550.625,1378.125 L1580.625,1378.125" close="False" data-weight="1.75" stroke-width="7" fill="none" stroke="#8f0f12" />
<path d="M1469.0349025766973,2369.0349025766973 L1512.2150974233027,2412.2150974233027" close="False" data-weight="2.060660171779821" stroke-width="7" fill="none" stroke="#8f0f12" />
<path d="M1475.625,1378.125 L1505.625,1378.125" close="False" data-weight="1.75" stroke-width="7" fill="none" stroke="#8f0f12" />
<path d="M1394.0349025766973,2294.0349025766973 L1437.2150974233027,2337.2150974233027" close="False" data-weight="2.060660171779821" stroke-width="7" fill="none" stroke="#8f0f12" />
<path d="M1400.625,1378.125 L1430.625,1378.125" close="False" data-weight="1.75" stroke-width="7" fill="none" stroke="#8f0f12" />
<path d="M1319.0349025766973,2219.0349025766973 L1362.2150974233027,2262.2150974233027" close="False" data-weight="2.060660171779821" stroke-width="7" fill="none" stroke="#8f0f12" />
<path d="M1325.625,1378.125 L1355.625,1378.125" close="False" data-weight="1.75" stroke-width="7" fill="none" stroke="#8f0f12" />
<path d="M1244.0349025766973,2144.0349025766973 L1287.2150974233027,2187.2150974233027" close="False" data-weight="2.060660171779821" stroke-width="7" fill="none" stroke="#8f0f12" />
<path d="M1250.625,1378.125 L1280.625,1378.125" close="False" data-weight="1.75" stroke-width="7" fill="none" stroke="#8f0f12" />
<path d="M1169.0349025766973,2069.0349025766973 L1212.2150974233027,2112.2150974233027" close="False" data-weight="2.060660171779821" stroke-width="7" fill="none" stroke="#8f0f12" />
<path d="M1175.625,1378.125 L1205.625,1378.125" close="False" data-weight="1.75" stroke-width="7" fill="none" stroke="#8f0f12" />
<path d="M1094.0349025766973,1994.0349025766973 L1137.2150974233027,2037.2150974233027" close="False" data-weight="2.060660171779821" stroke-width="7" fill="none" stroke="#8f0f12" />
<path d="M1100.625,1378.125 L1130.625,1378.125" close="False" data-weight="1.75" stroke-width="7" fill="none" stroke="#8f0f12" />
<path d="M1019.0349025766973,1919.0349025766973 L1062.2150974233027,1962.2150974233027" close="False" data-weight="2.060660171779821" stroke-width="7" fill="none" stroke="#8f0f12" />
<path d="M1025.625,1378.125 L1055.625,1378.125" close="False" data-weight="1.75" stroke-width="7" fill="none" stroke="#8f0f12" />
<path d="M944.0349025766973,1844.0349025766973 L987.2150974233027,1887.2150974233027" close="False" data-weight="2.060660171779821" stroke-width="7" fill="none" stroke="#8f0f12" />
<path d="M950.625,1378.125 L980.625,1378.125" close="False" data-weight="1.75" stroke-width="7" fill="none" stroke="#8f0f12" />
<path d="M869.0349025766973,1769.0349025766973 L912.2150974233027,1812.2150974233027" close="False" data-weight="2.060660171779821" stroke-width="7" fill="none" stroke="#8f0f12" />
<path d="M875.625,1378.125 L905.625,1378.125" close="False" data-weight="1.75" stroke-width="7" fill="none" stroke="#8f0f12" />
<path d="M794.0349025766973,1694.0349025766973 L837.2150974233027,1737.2150974233027" close="False" data-weight="2.060660171779821" stroke-width="7" fill="none" stroke="#8f0f12" />
<path d="M800.625,1378.125 L830.625,1378.125" close="False" data-weight="1.75" stroke-width="7" fill="none" stroke="#8f0f12" />
<path d="M719.0349025766973,1619.0349025766973 L762.2150974233027,1662.2150974233027" close="False" data-weight="2.060660171779821" stroke-width="7" fill="none" stroke="#8f0f12" />
<path d="M725.625,1378.125 L755.625,1378.125" close="False" data-weight="1.75" stroke-width="7" fill="none" stroke="#8f0f12" />
<path d="M644.0349025766973,1544.0349025766973 L687.2150974233027,1587.2150974233027" close="False" data-weight="2.060660171779821" stroke-width="7" fill="none" stroke="#8f0f12" />
<path d="M632.625,1475.1704076850485 L632.625,1506.0795923149515" close="False" data-weight="1.75" stroke-width="7" fill="none" stroke="#8f0f12" />
<path d="M632.625,1400.1704076850485 L632.625,1431.0795923149515" close="False" data-weight="1.75" stroke-width="7" fill="none" stroke="#8f0f12" />
<path d="M650.625,1378.125 L680.625,1378.125" close="False" data-weight="1.75" stroke-width="7" fill="none" stroke="#8f0f12" />
<path d="M569.0349025766973,1319.0349025766973 L612.2150974233027,1362.2150974233027" close="False" data-weight="2.060660171779821" stroke-width="7" fill="none" stroke="#8f0f12" />
<path d="M494.03490257669733,1244.0349025766973 L537.2150974233027,1287.2150974233027" close="False" data-weight="2.060660171779821" stroke-width="7" fill="none" stroke="#8f0f12" />
<path d="M419.03490257669733,1169.0349025766973 L462.21509742330267,1212.2150974233027" close="False" data-weight="2.060660171779821" stroke-width="7" fill="none" stroke="#8f0f12" />
<path d="M350.625,1153.125 L380.625,1153.125" close="False" data-weight="1.75" stroke-width="7" fill="none" stroke="#8f0f12" />
<path d="M1546.8954377834596,840.7185232472193 A48.72232222128802,48.72232222128802,0,0,0,1536.3337659446204,856.5251821846081 M1536.3337659446204,856.5251821846081 A48.72232222128969,48.72232222128969,0,0,0,1532.625,875.1704076850486 M1532.625,875.1704076850486" close="False" data-weight="1.0" stroke-width="7" fill="none" stroke="#90ea66" />
<path d="M1546.8954377834596,715.5314767527807 A57.7223222212909,57.7223222212909,0,0,0,1528.1689687066778,703.0188501520187 M1528.1689687066778,703.0188501520187 A57.72232222128639,57.72232222128639,0,0,0,1506.0795923149515,698.625 M1506.0795923149515,698.625" close="False" data-weight="1.0" stroke-width="7" fill="none" stroke="#90ea66" />
<path d="M1475.1704076850485,932.625 C1464.1477038425242,932.625,1442.1022961574758,932.625,1431.0795923149515,932.625" close="False" data-weight="0.0" stroke-width="7" fill="none" stroke="#90ea66" />
<path d="M1465.5314767527652,609.3545622165558 A57.72232222120883,57.72232222120883,0,0,0,1453.0188501520129,628.0810312933306 M1453.0188501520129,628.0810312933306 A57.72232222131629,57.72232222131629,0,0,0,1448.625,650.1704076850486 M1448.625,650.1704076850486" close="False" data-weight="1.0" stroke-width="7" fill="none" stroke="#90ea66" />
<path d="M1400.1704076850485,932.625 A48.72232222128889,48.72232222128889,0,0,0,1381.5251821846082,936.33376594462 M1381.5251821846082,936.33376594462 A48.722322221287776,48.722322221287776,0,0,0,1365.7185232472195,946.8954377834593 M1365.7185232472195,946.8954377834593" close="False" data-weight="1.0" stroke-width="7" fill="none" stroke="#90ea66" />
<path d="M1307.625,1056.0795923149515 C1307.625,1067.1022961574758,1307.625,1089.1477038425242,1307.625,1100.1704076850485" close="False" data-weight="0.0" stroke-width="7" fill="none" stroke="#90ea66" />
<path d="M1319.0349025766973,644.0349025766973 C1311.0799512883486,636.0799512883486,1295.1700487116514,620.1700487116514,1287.2150974233027,612.2150974233027" close="False" data-weight="0.0" stroke-width="7" fill="none" stroke="#90ea66" />
<path d="M1244.0349025766973,1212.2150974233027 C1236.0799512883486,1220.1700487116514,1220.1700487116514,1236.0799512883486,1212.2150974233027,1244.0349025766973" close="False" data-weight="0.0" stroke-width="7" fill="none" stroke="#90ea66" />
<path d="M1244.0349025766973,569.0349025766973 C1236.0799512883486,561.0799512883486,1220.1700487116514,545.1700487116514,1212.2150974233027,537.2150974233027" close="False" data-weight="0.0" stroke-width="7" fill="none" stroke="#90ea66" />
<path d="M1169.0349025766973,1287.2150974233027 C1161.0799512883486,1295.1700487116514,1145.1700487116514,1311.0799512883486,1137.2150974233027,1319.0349025766973" close="False" data-weight="0.0" stroke-width="7" fill="none" stroke="#90ea66" />
<path d="M1169.0349025766973,494.03490257669733 C1161.0799512883486,486.0799512883487,1145.1700487116514,470.1700487116513,1137.2150974233027,462.21509742330267" close="False" data-weight="0.0" stroke-width="7" fill="none" stroke="#90ea66" />
<path d="M1094.0349025766973,1362.2150974233027 C1086.0799512883486,1370.1700487116514,1070.1700487116514,1386.0799512883486,1062.2150974233027,1394.0349025766973" close="False" data-weight="0.0" stroke-width="7" fill="none" stroke="#90ea66" />
<path d="M1094.0349025766973,419.03490257669733 C1086.0799512883486,411.0799512883487,1070.1700487116514,395.1700487116513,1062.2150974233027,387.21509742330267" close="False" data-weight="0.0" stroke-width="7" fill="none" stroke="#90ea66" />
<path d="M1019.0349025766973,1437.2150974233027 C1011.0799512883486,1445.1700487116514,995.1700487116514,1461.0799512883486,987.2150974233027,1469.0349025766973" close="False" data-weight="0.0" stroke-width="7" fill="none" stroke="#90ea66" />
<path d="M1003.125,230.625 C1003.125,241.875,1003.125,264.375,1003.125,275.625" close="False" data-weight="0.0" stroke-width="7" fill="none" stroke="#90ea66" />
<path d="M944.0349025766973,1512.2150974233027 C936.0799512883486,1520.1700487116514,920.1700487116514,1536.0799512883486,912.2150974233027,1544.0349025766973" close="False" data-weight="0.0" stroke-width="7" fill="none" stroke="#90ea66" />
<path d="M869.0349025766973,1587.2150974233027 A54.31980515339554,54.31980515339554,0,0,1,851.412289481504,1598.990151037828 M851.412289481504,1598.990151037828 A54.319805153393645,54.319805153393645,0,0,1,830.625,1603.125 M830.625,1603.125" close="False" data-weight="1.0" stroke-width="7" fill="none" stroke="#90ea66" />
<path d="M800.625,1603.125 C789.375,1603.125,766.875,1603.125,755.625,1603.125" close="False" data-weight="0.0" stroke-width="7" fill="none" stroke="#90ea66" />
<path d="M794.0349025766973,344.03490257669733 C786.0799512883486,336.0799512883487,770.1700487116514,320.1700487116513,762.2150974233027,312.21509742330267" close="False" data-weight="0.0" stroke-width="7" fill="none" stroke="#90ea66" />
<path d="M725.625,1603.125 C714.375,1603.125,691.875,1603.125,680.625,1603.125" close="False" data-weight="0.0" stroke-width="7" fill="none" stroke="#90ea66" />
<path d="M725.625,478.125 C714.375,478.125,691.875,478.125,680.625,478.125" close="False" data-weight="0.0" stroke-width="7" fill="none" stroke="#90ea66" />
<path d="M650.625,1603.125 C639.4319682786924,1603.125,617.272624036259,1598.625,606.0795923149514,1598.625" close="False" data-weight="0.0" stroke-width="7" fill="none" stroke="#90ea66" />
<path d="M650.625,478.125 A54.31980515339342,54.31980515339342,0,0,0,629.8377105184961,482.25984896217227 M629.8377105184961,482.25984896217227 A54.31980515339574,54.31980515339574,0,0,0,612.2150974233027,494.03490257669733 M612.2150974233027,494.03490257669733" close="False" data-weight="1.0" stroke-width="7" fill="none" stroke="#90ea66" />
<path d="M575.1704076850486,1598.625 C564.1477038425244,1598.625,542.1022961574756,1598.625,531.0795923149514,1598.625" close="False" data-weight="0.0" stroke-width="7" fill="none" stroke="#90ea66" />
<path d="M500.1704076850486,1598.625 C489.14770384252427,1598.625,467.10229615747573,1598.625,456.0795923149514,1598.625" close="False" data-weight="0.0" stroke-width="7" fill="none" stroke="#90ea66" />
<path d="M1532.625,875.1704076850486 L1532.625,906.0795923149514" close="False" data-weight="1.75" stroke-width="7" fill="none" stroke="#90ea66" />
<path d="M1546.8954377834593,840.7185232472195 L1590.718523247205,796.8954377834741" close="False" data-weight="2.060660171779821" stroke-width="7" fill="none" stroke="#90ea66" />
<path d="M1546.8954377834593,715.5314767527805 L1590.7185232472198,759.3545622165409" close="False" data-weight="2.060660171779821" stroke-width="7" fill="none" stroke="#90ea66" />
<path d="M1523.625,500.1704076850486 L1523.625,531.0795923149514" close="False" data-weight="1.75" stroke-width="7" fill="none" stroke="#90ea66" />
<path d="M1550.1704076850485,473.625 L1581.0795923149515,473.625" close="False" data-weight="1.75" stroke-width="7" fill="none" stroke="#90ea66" />
<path d="M1475.1704076850485,932.625 L1506.0795923149515,932.625" close="False" data-weight="1.75" stroke-width="7" fill="none" stroke="#90ea66" />
<path d="M1475.1704076850485,698.625 L1506.0795923149515,698.625" close="False" data-weight="1.75" stroke-width="7" fill="none" stroke="#90ea66" />
<path d="M1448.625,650.1704076850486 L1448.625,681.0795923149514" close="False" data-weight="1.75" stroke-width="7" fill="none" stroke="#90ea66" />
<path d="M1465.5314767527655,609.3545622165556 L1509.3545622165552,565.5314767527657" close="False" data-weight="2.060660171779821" stroke-width="7" fill="none" stroke="#90ea66" />
<path d="M1400.1704076850485,932.625 L1431.0795923149515,932.625" close="False" data-weight="1.75" stroke-width="7" fill="none" stroke="#90ea66" />
<path d="M1373.625,725.1704076850486 L1373.625,756.0795923149514" close="False" data-weight="1.75" stroke-width="7" fill="none" stroke="#90ea66" />
<path d="M1400.1704076850485,698.625 L1431.0795923149515,698.625" close="False" data-weight="1.75" stroke-width="7" fill="none" stroke="#90ea66" />
<path d="M1325.1704076850485,1148.625 L1356.0795923149515,1148.625" close="False" data-weight="1.75" stroke-width="7" fill="none" stroke="#90ea66" />
<path d="M1307.625,1100.1704076850485 L1307.625,1131.0795923149515" close="False" data-weight="1.75" stroke-width="7" fill="none" stroke="#90ea66" />
<path d="M1307.625,1025.1704076850485 L1307.625,1056.0795923149515" close="False" data-weight="1.75" stroke-width="7" fill="none" stroke="#90ea66" />
<path d="M1321.8954377834593,990.7185232472195 L1365.7185232472198,946.8954377834591" close="False" data-weight="2.060660171779821" stroke-width="7" fill="none" stroke="#90ea66" />
<path d="M1319.0349025766973,644.0349025766973 L1362.2150974233027,687.2150974233027" close="False" data-weight="2.060660171779821" stroke-width="7" fill="none" stroke="#90ea66" />
<path d="M1244.0349025766973,1212.2150974233027 L1287.2150974233027,1169.0349025766973" close="False" data-weight="2.060660171779821" stroke-width="7" fill="none" stroke="#90ea66" />
<path d="M1244.0349025766973,569.0349025766973 L1287.2150974233027,612.2150974233027" close="False" data-weight="2.060660171779821" stroke-width="7" fill="none" stroke="#90ea66" />
<path d="M1169.0349025766973,1287.2150974233027 L1212.2150974233027,1244.0349025766973" close="False" data-weight="2.060660171779821" stroke-width="7" fill="none" stroke="#90ea66" />
<path d="M1169.0349025766973,494.03490257669733 L1212.2150974233027,537.2150974233027" close="False" data-weight="2.060660171779821" stroke-width="7" fill="none" stroke="#90ea66" />
<path d="M1094.0349025766973,1362.2150974233027 L1137.2150974233027,1319.0349025766973" close="False" data-weight="2.060660171779821" stroke-width="7" fill="none" stroke="#90ea66" />
<path d="M1094.0349025766973,419.03490257669733 L1137.2150974233027,462.21509742330267" close="False" data-weight="2.060660171779821" stroke-width="7" fill="none" stroke="#90ea66" />
<path d="M1019.0349025766973,1437.2150974233027 L1062.2150974233027,1394.0349025766973" close="False" data-weight="2.060660171779821" stroke-width="7" fill="none" stroke="#90ea66" />
<path d="M1019.0349025766973,344.03490257669733 L1062.2150974233027,387.21509742330267" close="False" data-weight="2.060660171779821" stroke-width="7" fill="none" stroke="#90ea66" />
<path d="M1003.125,275.625 L1003.125,305.625" close="False" data-weight="1.75" stroke-width="7" fill="none" stroke="#90ea66" />
<path d="M1003.125,200.625 L1003.125,230.625" close="False" data-weight="1.75" stroke-width="7" fill="none" stroke="#90ea66" />
<path d="M1003.125,125.625 L1003.125,155.625" close="False" data-weight="1.75" stroke-width="7" fill="none" stroke="#90ea66" />
<path d="M944.0349025766973,1512.2150974233027 L987.2150974233027,1469.0349025766973" close="False" data-weight="2.060660171779821" stroke-width="7" fill="none" stroke="#90ea66" />
<path d="M950.625,328.125 L980.625,328.125" close="False" data-weight="1.75" stroke-width="7" fill="none" stroke="#90ea66" />
<path d="M869.0349025766973,1587.2150974233027 L912.2150974233027,1544.0349025766973" close="False" data-weight="2.060660171779821" stroke-width="7" fill="none" stroke="#90ea66" />
<path d="M869.0349025766973,387.21509742330267 L912.2150974233027,344.03490257669733" close="False" data-weight="2.060660171779821" stroke-width="7" fill="none" stroke="#90ea66" />
<path d="M800.625,1603.125 L830.625,1603.125" close="False" data-weight="1.75" stroke-width="7" fill="none" stroke="#90ea66" />
<path d="M794.0349025766973,462.21509742330267 L837.2150974233027,419.03490257669733" close="False" data-weight="2.060660171779821" stroke-width="7" fill="none" stroke="#90ea66" />
<path d="M794.0349025766973,344.03490257669733 L837.2150974233027,387.21509742330267" close="False" data-weight="2.060660171779821" stroke-width="7" fill="none" stroke="#90ea66" />
<path d="M725.625,1603.125 L755.625,1603.125" close="False" data-weight="1.75" stroke-width="7" fill="none" stroke="#90ea66" />
<path d="M725.625,478.125 L755.625,478.125" close="False" data-weight="1.75" stroke-width="7" fill="none" stroke="#90ea66" />
<path d="M719.0349025766973,269.03490257669733 L762.2150974233027,312.21509742330267" close="False" data-weight="2.060660171779821" stroke-width="7" fill="none" stroke="#90ea66" />
<path d="M650.625,1603.125 L680.625,1603.125" close="False" data-weight="1.75" stroke-width="7" fill="none" stroke="#90ea66" />
<path d="M650.625,478.125 L680.625,478.125" close="False" data-weight="1.75" stroke-width="7" fill="none" stroke="#90ea66" />
<path d="M575.1704076850486,1598.625 L606.0795923149514,1598.625" close="False" data-weight="1.75" stroke-width="7" fill="none" stroke="#90ea66" />
<path d="M569.0349025766973,537.2150974233027 L612.2150974233027,494.03490257669733" close="False" data-weight="2.060660171779821" stroke-width="7" fill="none" stroke="#90ea66" />
<path d="M500.1704076850486,1598.625 L531.0795923149514,1598.625" close="False" data-weight="1.75" stroke-width="7" fill="none" stroke="#90ea66" />
<path d="M425.1704076850486,1598.625 L456.0795923149514,1598.625" close="False" data-weight="1.75" stroke-width="7" fill="none" stroke="#90ea66" />
<path d="M2432.625,1056.0795923149515 C2432.625,1067.1022961574758,2432.625,1089.1477038425242,2432.625,1100.1704076850485" close="False" data-weight="0.0" stroke-width="7" fill="none" stroke="#35618f" />
<path d="M2432.625,1025.1704076850485 A57.72232222129196,57.72232222129196,0,0,0,2428.2311498479817,1003.081031293322 M2428.2311498479817,1003.081031293322 A57.72232222128422,57.72232222128422,0,0,0,2415.7185232472198,984.3545622165407 M2415.7185232472198,984.3545622165407" close="False" data-weight="1.0" stroke-width="7" fill="none" stroke="#35618f" />
<path d="M2369.0349025766973,1662.2150974233027 C2361.0799512883486,1670.1700487116514,2345.1700487116514,1686.0799512883486,2337.2150974233027,1694.0349025766973" close="False" data-weight="0.0" stroke-width="7" fill="none" stroke="#35618f" />
<path d="M2375.625,1153.125 A54.31980515339296,54.31980515339296,0,0,0,2354.8377105184964,1157.2598489621723 M2354.8377105184964,1157.2598489621723 A54.31980515340005,54.31980515340005,0,0,0,2337.2150974233027,1169.0349025766973 M2337.2150974233027,1169.0349025766973" close="False" data-weight="1.0" stroke-width="7" fill="none" stroke="#35618f" />
<path d="M2357.625,875.1704076850486 A57.72232222129196,57.72232222129196,0,0,0,2353.2311498479817,853.0810312933221 M2353.2311498479817,853.0810312933221 A57.72232222128471,57.72232222128471,0,0,0,2340.7185232472198,834.3545622165407 M2340.7185232472198,834.3545622165407" close="False" data-weight="1.0" stroke-width="7" fill="none" stroke="#35618f" />
<path d="M2294.0349025766973,1394.0349025766973 C2286.0799512883486,1386.0799512883486,2270.1700487116514,1370.1700487116514,2262.2150974233027,1362.2150974233027" close="False" data-weight="0.0" stroke-width="7" fill="none" stroke="#35618f" />
<path d="M2294.0349025766973,1212.2150974233027 C2286.0799512883486,1220.1700487116514,2270.1700487116514,1236.0799512883486,2262.2150974233027,1244.0349025766973" close="False" data-weight="0.0" stroke-width="7" fill="none" stroke="#35618f" />
<path d="M2296.89543778346,790.5314767527807 C2289.1012091494,782.7372481187207,2273.5127518812797,767.1487908506007,2265.7185232472198,759.3545622165407" close="False" data-weight="0.0" stroke-width="7" fill="none" stroke="#35618f" />
<path d="M2296.89543778346,690.7185232472193 A57.72232222128809,57.72232222128809,0,0,1,2278.1689687066782,703.2311498479811 M2278.1689687066782,703.2311498479811 A57.722322221290256,57.722322221290256,0,0,1,2256.0795923149512,707.625 M2256.0795923149512,707.625" close="False" data-weight="1.0" stroke-width="7" fill="none" stroke="#35618f" />
<path d="M2198.625,756.0795923149514 A48.72232222128832,48.72232222128832,0,0,1,2194.91623405538,774.7248178153919 M2194.91623405538,774.7248178153919 A48.72232222128882,48.72232222128882,0,0,1,2184.3545622165407,790.5314767527805 M2184.3545622165407,790.5314767527805" close="False" data-weight="1.0" stroke-width="7" fill="none" stroke="#35618f" />
<path d="M2140.5314767527802,834.3545622165409 C2132.7372481187203,842.1487908506008,2117.1487908506006,857.7372481187206,2109.3545622165407,865.5314767527805" close="False" data-weight="0.0" stroke-width="7" fill="none" stroke="#35618f" />
<path d="M1828.125,1505.625 C1828.125,1516.875,1828.125,1539.375,1828.125,1550.625" close="False" data-weight="0.0" stroke-width="7" fill="none" stroke="#35618f" />
<path d="M1775.625,1828.125 C1764.375,1828.125,1741.875,1828.125,1730.625,1828.125" close="False" data-weight="0.0" stroke-width="7" fill="none" stroke="#35618f" />
<path d="M1700.625,1828.125 C1689.375,1828.125,1666.875,1828.125,1655.625,1828.125" close="False" data-weight="0.0" stroke-width="7" fill="none" stroke="#35618f" />
<path d="M1625.625,1828.125 C1614.375,1828.125,1591.875,1828.125,1580.625,1828.125" close="False" data-weight="0.0" stroke-width="7" fill="none" stroke="#35618f" />
<path d="M1550.625,1828.125 C1539.375,1828.125,1516.875,1828.125,1505.625,1828.125" close="False" data-weight="0.0" stroke-width="7" fill="none" stroke="#35618f" />
<path d="M1540.5314767527802,834.3545622165409 A57.722322221287364,57.722322221287364,0,0,0,1528.0188501520186,853.0810312933224 M1528.0188501520186,853.0810312933224 A57.72232222128878,57.72232222128878,0,0,0,1523.625,875.1704076850486 M1523.625,875.1704076850486" close="False" data-weight="1.0" stroke-width="7" fill="none" stroke="#35618f" />
<path d="M1540.5314767527802,721.8954377834591 A48.72232222128625,48.72232222128625,0,0,0,1524.724817815392,711.3337659446199 M1524.724817815392,711.3337659446199 A48.722322221287754,48.722322221287754,0,0,0,1506.0795923149515,707.625 M1506.0795923149515,707.625" close="False" data-weight="1.0" stroke-width="7" fill="none" stroke="#35618f" />
<path d="M1475.625,1828.125 A54.31980515339569,54.31980515339569,0,0,0,1454.837710518496,1832.2598489621723 M1454.837710518496,1832.2598489621723 A54.3198051533933,54.3198051533933,0,0,0,1437.2150974233027,1844.0349025766973 M1437.2150974233027,1844.0349025766973" close="False" data-weight="1.0" stroke-width="7" fill="none" stroke="#35618f" />
<path d="M1475.1704076850485,923.625 C1464.1477038425242,923.625,1442.1022961574758,923.625,1431.0795923149515,923.625" close="False" data-weight="0.0" stroke-width="7" fill="none" stroke="#35618f" />
<path d="M1471.8954377834746,615.7185232472044 A48.722322221370256,48.722322221370256,0,0,0,1461.3337659446258,631.5251821845997 M1461.3337659446258,631.5251821845997 A48.72232222125854,48.72232222125854,0,0,0,1457.625,650.1704076850486 M1457.625,650.1704076850486" close="False" data-weight="1.0" stroke-width="7" fill="none" stroke="#35618f" />
<path d="M1400.1704076850485,923.625 A57.72232222128628,57.72232222128628,0,0,0,1378.0810312933222,928.0188501520188 M1378.0810312933222,928.0188501520188 A57.72232222129018,57.72232222129018,0,0,0,1359.3545622165407,940.5314767527805 M1359.3545622165407,940.5314767527805" close="False" data-weight="1.0" stroke-width="7" fill="none" stroke="#35618f" />
<path d="M1307.625,2181.0795923149512 C1307.625,2192.1022961574754,1307.625,2214.1477038425246,1307.625,2225.1704076850488" close="False" data-weight="0.0" stroke-width="7" fill="none" stroke="#35618f" />
<path d="M1307.625,2106.0795923149512 C1307.625,2117.1022961574754,1307.625,2139.1477038425246,1307.625,2150.1704076850488" close="False" data-weight="0.0" stroke-width="7" fill="none" stroke="#35618f" />
<path d="M1307.625,2031.0795923149515 C1307.625,2042.1022961574758,1307.625,2064.1477038425246,1307.625,2075.1704076850488" close="False" data-weight="0.0" stroke-width="7" fill="none" stroke="#35618f" />
<path d="M1321.8954377834593,1965.7185232472198 A48.72232222128834,48.72232222128834,0,0,0,1311.3337659446202,1981.5251821846082 M1311.3337659446202,1981.5251821846082 A48.72232222128764,48.72232222128764,0,0,0,1307.625,2000.1704076850485 M1307.625,2000.1704076850485" close="False" data-weight="1.0" stroke-width="7" fill="none" stroke="#35618f" />
<path d="M1307.625,1775.1704076850485 A57.722322221289005,57.722322221289005,0,0,0,1303.2311498479814,1753.0810312933222 M1303.2311498479814,1753.0810312933222 A57.722322221287286,57.722322221287286,0,0,0,1290.7185232472198,1734.3545622165407 M1290.7185232472198,1734.3545622165407" close="False" data-weight="1.0" stroke-width="7" fill="none" stroke="#35618f" />
<path d="M1303.125,1505.625 C1303.125,1516.875,1303.125,1539.375,1303.125,1550.625" close="False" data-weight="0.0" stroke-width="7" fill="none" stroke="#35618f" />
<path d="M1303.125,1430.625 C1303.125,1441.875,1303.125,1464.375,1303.125,1475.625" close="False" data-weight="0.0" stroke-width="7" fill="none" stroke="#35618f" />
<path d="M1303.125,1355.625 C1303.125,1366.875,1303.125,1389.375,1303.125,1400.625" close="False" data-weight="0.0" stroke-width="7" fill="none" stroke="#35618f" />
<path d="M1303.125,1280.625 C1303.125,1291.875,1303.125,1314.375,1303.125,1325.625" close="False" data-weight="0.0" stroke-width="7" fill="none" stroke="#35618f" />
<path d="M1303.125,1205.625 C1303.125,1216.875,1303.125,1239.375,1303.125,1250.625" close="False" data-weight="0.0" stroke-width="7" fill="none" stroke="#35618f" />
<path d="M1298.625,1056.0795923149515 C1298.625,1067.1022961574758,1298.625,1089.1477038425242,1298.625,1100.1704076850485" close="False" data-weight="0.0" stroke-width="7" fill="none" stroke="#35618f" />
<path d="M2432.625,1100.1704076850485 L2432.625,1131.0795923149515" close="False" data-weight="1.75" stroke-width="7" fill="none" stroke="#35618f" />
<path d="M2432.625,1025.1704076850485 L2432.625,1056.0795923149515" close="False" data-weight="1.75" stroke-width="7" fill="none" stroke="#35618f" />
<path d="M2369.0349025766973,1662.2150974233027 L2412.2150974233027,1619.0349025766973" close="False" data-weight="2.060660171779821" stroke-width="7" fill="none" stroke="#35618f" />
<path d="M2369.0349025766973,1544.0349025766973 L2412.2150974233027,1587.2150974233027" close="False" data-weight="2.060660171779821" stroke-width="7" fill="none" stroke="#35618f" />
<path d="M2353.125,1475.625 L2353.125,1505.625" close="False" data-weight="1.75" stroke-width="7" fill="none" stroke="#35618f" />
<path d="M2375.625,1153.125 L2405.625,1153.125" close="False" data-weight="1.75" stroke-width="7" fill="none" stroke="#35618f" />
<path d="M2371.8954377834893,940.5314767528104 L2415.7185232472198,984.3545622165409" close="False" data-weight="2.060660171779821" stroke-width="7" fill="none" stroke="#35618f" />
<path d="M2357.625,875.1704076850486 L2357.625,906.0795923149514" close="False" data-weight="1.75" stroke-width="7" fill="none" stroke="#35618f" />
<path d="M2294.0349025766973,1737.2150974233027 L2337.2150974233027,1694.0349025766973" close="False" data-weight="2.060660171779821" stroke-width="7" fill="none" stroke="#35618f" />
<path d="M2294.0349025766973,1394.0349025766973 L2337.2150974233027,1437.2150974233027" close="False" data-weight="2.060660171779821" stroke-width="7" fill="none" stroke="#35618f" />
<path d="M2294.0349025766973,1212.2150974233027 L2337.2150974233027,1169.0349025766973" close="False" data-weight="2.060660171779821" stroke-width="7" fill="none" stroke="#35618f" />
<path d="M2296.8954377834593,790.5314767527805 L2340.7185232472198,834.3545622165409" close="False" data-weight="2.060660171779821" stroke-width="7" fill="none" stroke="#35618f" />
<path d="M2296.8954377834593,690.7185232472195 L2340.7185232472198,646.8954377834591" close="False" data-weight="2.060660171779821" stroke-width="7" fill="none" stroke="#35618f" />
<path d="M2225.625,1753.125 L2255.625,1753.125" close="False" data-weight="1.75" stroke-width="7" fill="none" stroke="#35618f" />
<path d="M2219.0349025766973,1319.0349025766973 L2262.2150974233027,1362.2150974233027" close="False" data-weight="2.060660171779821" stroke-width="7" fill="none" stroke="#35618f" />
<path d="M2219.0349025766973,1287.2150974233027 L2262.2150974233027,1244.0349025766973" close="False" data-weight="2.060660171779821" stroke-width="7" fill="none" stroke="#35618f" />
<path d="M2198.625,725.1704076850486 L2198.625,756.0795923149514" close="False" data-weight="1.75" stroke-width="7" fill="none" stroke="#35618f" />
<path d="M2221.8954377834593,715.5314767527805 L2265.7185232472198,759.3545622165409" close="False" data-weight="2.060660171779821" stroke-width="7" fill="none" stroke="#35618f" />
<path d="M2225.1704076850488,707.625 L2256.0795923149512,707.625" close="False" data-weight="1.75" stroke-width="7" fill="none" stroke="#35618f" />
<path d="M2144.0349025766973,1812.2150974233027 L2187.2150974233027,1769.0349025766973" close="False" data-weight="2.060660171779821" stroke-width="7" fill="none" stroke="#35618f" />
<path d="M2140.5314767527802,834.3545622165407 L2184.35456221654,790.5314767527807" close="False" data-weight="2.060660171779821" stroke-width="7" fill="none" stroke="#35618f" />
<path d="M2069.0349025766973,1887.2150974233027 L2112.2150974233027,1844.0349025766973" close="False" data-weight="2.060660171779821" stroke-width="7" fill="none" stroke="#35618f" />
<path d="M2065.5314767527802,909.3545622165407 L2109.35456221654,865.5314767527807" close="False" data-weight="2.060660171779821" stroke-width="7" fill="none" stroke="#35618f" />
<path d="M1994.0349025766973,1844.0349025766973 L2037.2150974233027,1887.2150974233027" close="False" data-weight="2.060660171779821" stroke-width="7" fill="none" stroke="#35618f" />
<path d="M1994.0349025766973,1469.0349025766973 L2037.2150974233027,1512.2150974233027" close="False" data-weight="2.060660171779821" stroke-width="7" fill="none" stroke="#35618f" />
<path d="M1919.0349025766973,1769.0349025766973 L1962.2150974233027,1812.2150974233027" close="False" data-weight="2.060660171779821" stroke-width="7" fill="none" stroke="#35618f" />
<path d="M1903.125,1700.625 L1903.125,1730.625" close="False" data-weight="1.75" stroke-width="7" fill="none" stroke="#35618f" />
<path d="M1919.0349025766973,1394.0349025766973 L1962.2150974233027,1437.2150974233027" close="False" data-weight="2.060660171779821" stroke-width="7" fill="none" stroke="#35618f" />
<path d="M1828.125,1775.625 L1828.125,1805.625" close="False" data-weight="1.75" stroke-width="7" fill="none" stroke="#35618f" />
<path d="M1850.625,1753.125 L1880.625,1753.125" close="False" data-weight="1.75" stroke-width="7" fill="none" stroke="#35618f" />
<path d="M1844.0349025766973,1619.0349025766973 L1887.2150974233027,1662.2150974233027" close="False" data-weight="2.060660171779821" stroke-width="7" fill="none" stroke="#35618f" />
<path d="M1828.125,1550.625 L1828.125,1580.625" close="False" data-weight="1.75" stroke-width="7" fill="none" stroke="#35618f" />
<path d="M1828.125,1475.625 L1828.125,1505.625" close="False" data-weight="1.75" stroke-width="7" fill="none" stroke="#35618f" />
<path d="M1844.0349025766973,1437.2150974233027 L1887.2150974233027,1394.0349025766973" close="False" data-weight="2.060660171779821" stroke-width="7" fill="none" stroke="#35618f" />
<path d="M1775.625,1828.125 L1805.625,1828.125" close="False" data-weight="1.75" stroke-width="7" fill="none" stroke="#35618f" />
<path d="M1700.625,1828.125 L1730.625,1828.125" close="False" data-weight="1.75" stroke-width="7" fill="none" stroke="#35618f" />
<path d="M1625.625,1828.125 L1655.625,1828.125" close="False" data-weight="1.75" stroke-width="7" fill="none" stroke="#35618f" />
<path d="M1550.625,1828.125 L1580.625,1828.125" close="False" data-weight="1.75" stroke-width="7" fill="none" stroke="#35618f" />
<path d="M1523.625,875.1704076850486 L1523.625,906.0795923149514" close="False" data-weight="1.75" stroke-width="7" fill="none" stroke="#35618f" />
<path d="M1540.5314767527805,834.3545622165407 L1584.3545622165552,790.5314767527657" close="False" data-weight="2.060660171779821" stroke-width="7" fill="none" stroke="#35618f" />
<path d="M1540.5314767527805,721.8954377834593 L1584.3545622165404,765.7185232472193" close="False" data-weight="2.060660171779821" stroke-width="7" fill="none" stroke="#35618f" />
<path d="M1532.625,500.1704076850486 L1532.625,531.0795923149514" close="False" data-weight="1.75" stroke-width="7" fill="none" stroke="#35618f" />
<path d="M1550.1704076850485,482.625 L1581.0795923149515,482.625" close="False" data-weight="1.75" stroke-width="7" fill="none" stroke="#35618f" />
<path d="M1475.625,1828.125 L1505.625,1828.125" close="False" data-weight="1.75" stroke-width="7" fill="none" stroke="#35618f" />
<path d="M1475.1704076850485,923.625 L1506.0795923149515,923.625" close="False" data-weight="1.75" stroke-width="7" fill="none" stroke="#35618f" />
<path d="M1475.1704076850485,707.625 L1506.0795923149515,707.625" close="False" data-weight="1.75" stroke-width="7" fill="none" stroke="#35618f" />
<path d="M1457.625,650.1704076850486 L1457.625,681.0795923149514" close="False" data-weight="1.75" stroke-width="7" fill="none" stroke="#35618f" />
<path d="M1471.8954377834743,615.7185232472046 L1515.718523247205,571.8954377834741" close="False" data-weight="2.060660171779821" stroke-width="7" fill="none" stroke="#35618f" />
<path d="M1394.0349025766973,1887.2150974233027 L1437.2150974233027,1844.0349025766973" close="False" data-weight="2.060660171779821" stroke-width="7" fill="none" stroke="#35618f" />
<path d="M1400.1704076850485,923.625 L1431.0795923149515,923.625" close="False" data-weight="1.75" stroke-width="7" fill="none" stroke="#35618f" />
<path d="M1382.625,725.1704076850486 L1382.625,756.0795923149514" close="False" data-weight="1.75" stroke-width="7" fill="none" stroke="#35618f" />
<path d="M1400.1704076850485,707.625 L1431.0795923149515,707.625" close="False" data-weight="1.75" stroke-width="7" fill="none" stroke="#35618f" />
<path d="M1307.625,2225.1704076850488 L1307.625,2256.0795923149512" close="False" data-weight="1.75" stroke-width="7" fill="none" stroke="#35618f" />
<path d="M1307.625,2150.1704076850488 L1307.625,2181.0795923149512" close="False" data-weight="1.75" stroke-width="7" fill="none" stroke="#35618f" />
<path d="M1307.625,2075.1704076850488 L1307.625,2106.0795923149512" close="False" data-weight="1.75" stroke-width="7" fill="none" stroke="#35618f" />
<path d="M1307.625,2000.1704076850485 L1307.625,2031.0795923149515" close="False" data-weight="1.75" stroke-width="7" fill="none" stroke="#35618f" />
<path d="M1321.8954377834593,1965.7185232472198 L1365.7185232472198,1921.8954377834593" close="False" data-weight="2.060660171779821" stroke-width="7" fill="none" stroke="#35618f" />
<path d="M1321.8954377834593,1840.5314767527802 L1365.7185232472198,1884.3545622165407" close="False" data-weight="2.060660171779821" stroke-width="7" fill="none" stroke="#35618f" />
<path d="M1307.625,1775.1704076850485 L1307.625,1806.0795923149515" close="False" data-weight="1.75" stroke-width="7" fill="none" stroke="#35618f" />
<path d="M1303.125,1550.625 L1303.125,1580.625" close="False" data-weight="1.75" stroke-width="7" fill="none" stroke="#35618f" />
<path d="M1303.125,1475.625 L1303.125,1505.625" close="False" data-weight="1.75" stroke-width="7" fill="none" stroke="#35618f" />
<path d="M1303.125,1400.625 L1303.125,1430.625" close="False" data-weight="1.75" stroke-width="7" fill="none" stroke="#35618f" />
<path d="M1303.125,1325.625 L1303.125,1355.625" close="False" data-weight="1.75" stroke-width="7" fill="none" stroke="#35618f" />
<path d="M1303.125,1250.625 L1303.125,1280.625" close="False" data-weight="1.75" stroke-width="7" fill="none" stroke="#35618f" />
<path d="M1303.125,1175.625 L1303.125,1205.625" close="False" data-weight="1.75" stroke-width="7" fill="none" stroke="#35618f" />
<path d="M1325.1704076850485,1157.625 L1356.0795923149515,1157.625" close="False" data-weight="1.75" stroke-width="7" fill="none" stroke="#35618f" />
<path d="M1298.625,1100.1704076850485 L1298.625,1131.0795923149515" close="False" data-weight="1.75" stroke-width="7" fill="none" stroke="#35618f" />
<path d="M1298.625,1025.1704076850485 L1298.625,1056.0795923149515" close="False" data-weight="1.75" stroke-width="7" fill="none" stroke="#35618f" />
<path d="M1315.5314767527805,984.3545622165407 L1359.3545622165404,940.5314767527807" close="False" data-weight="2.060660171779821" stroke-width="7" fill="none" stroke="#35618f" />
<path d="M1246.8954377834593,1690.5314767527802 L1290.7185232472198,1734.3545622165407" close="False" data-weight="2.060660171779821" stroke-width="7" fill="none" stroke="#35618f" />
<path d="M1246.8954377834295,1665.7185232472495 L1290.7185232472198,1621.8954377834593" close="False" data-weight="2.060660171779821" stroke-width="7" fill="none" stroke="#35618f" />
<image x="2395.625" y="1570.625" width="65" height="65" xlink:href="designspace-test/./img/ds_dataset2_60_8_thumb.png" data-node="True" data-id="8" />
<image x="2395.625" y="1120.625" width="65" height="65" xlink:href="designspace-test/./img/ds_dataset2_60_50_thumb.png" data-node="True" data-id="50" />
<image x="2320.625" y="1495.625" width="65" height="65" xlink:href="designspace-test/./img/ds_dataset2_60_36_thumb.png" data-node="True" data-id="36" />
<image x="2320.625" y="1420.625" width="65" height="65" xlink:href="designspace-test/./img/ds_dataset2_60_41_thumb.png" data-node="True" data-id="41" />
<image x="2320.625" y="895.625" width="65" height="65" xlink:href="designspace-test/./img/ds_dataset2_60_29_thumb.png" data-node="True" data-id="29" />
<image x="2320.625" y="595.625" width="65" height="65" xlink:href="designspace-test/./img/ds_dataset2_60_31_thumb.png" data-node="True" data-id="31" />
<image x="2245.625" y="1720.625" width="65" height="65" xlink:href="designspace-test/./img/ds_dataset2_60_46_thumb.png" data-node="True" data-id="46" />
<image x="2170.625" y="1720.625" width="65" height="65" xlink:href="designspace-test/./img/ds_dataset2_60_17_thumb.png" data-node="True" data-id="17" />
<image x="2170.625" y="1270.625" width="65" height="65" xlink:href="designspace-test/./img/ds_dataset2_60_32_thumb.png" data-node="True" data-id="32" />
<image x="2170.625" y="670.625" width="65" height="65" xlink:href="designspace-test/./img/ds_dataset2_60_10_thumb.png" data-node="True" data-id="10" />
<image x="2095.625" y="1795.625" width="65" height="65" xlink:href="designspace-test/./img/ds_dataset2_60_1_thumb.png" data-node="True" data-id="1" />
<image x="2020.625" y="1870.625" width="65" height="65" xlink:href="designspace-test/./img/ds_dataset2_60_37_thumb.png" data-node="True" data-id="37" />
<image x="2020.625" y="1495.625" width="65" height="65" xlink:href="designspace-test/./img/ds_dataset2_60_43_thumb.png" data-node="True" data-id="43" />
<image x="2020.625" y="895.625" width="65" height="65" xlink:href="designspace-test/./img/ds_dataset2_60_12_thumb.png" data-node="True" data-id="12" />
<image x="2020.625" y="220.625" width="65" height="65" xlink:href="designspace-test/./img/ds_dataset2_60_21_thumb.png" data-node="True" data-id="21" />
<image x="1945.625" y="1795.625" width="65" height="65" xlink:href="designspace-test/./img/ds_dataset2_60_54_thumb.png" data-node="True" data-id="54" />
<image x="1945.625" y="1420.625" width="65" height="65" xlink:href="designspace-test/./img/ds_dataset2_60_44_thumb.png" data-node="True" data-id="44" />
<image x="1870.625" y="1720.625" width="65" height="65" xlink:href="designspace-test/./img/ds_dataset2_60_56_thumb.png" data-node="True" data-id="56" />
<image x="1870.625" y="1645.625" width="65" height="65" xlink:href="designspace-test/./img/ds_dataset2_60_49_thumb.png" data-node="True" data-id="49" />
<image x="1870.625" y="1345.625" width="65" height="65" xlink:href="designspace-test/./img/ds_dataset2_60_9_thumb.png" data-node="True" data-id="9" />
<image x="1870.625" y="145.625" width="65" height="65" xlink:href="designspace-test/./img/ds_dataset2_60_15_thumb.png" data-node="True" data-id="15" />
<image x="1795.625" y="1795.625" width="65" height="65" xlink:href="designspace-test/./img/ds_dataset2_60_53_thumb.png" data-node="True" data-id="53" />
<image x="1795.625" y="1720.625" width="65" height="65" xlink:href="designspace-test/./img/ds_dataset2_60_58_thumb.png" data-node="True" data-id="58" />
<image x="1795.625" y="1570.625" width="65" height="65" xlink:href="designspace-test/./img/ds_dataset2_60_30_thumb.png" data-node="True" data-id="30" />
<image x="1795.625" y="1420.625" width="65" height="65" xlink:href="designspace-test/./img/ds_dataset2_60_20_thumb.png" data-node="True" data-id="20" />
<image x="1570.625" y="745.625" width="65" height="65" xlink:href="designspace-test/./img/ds_dataset2_60_39_thumb.png" data-node="True" data-id="39" />
<image x="1570.625" y="445.625" width="65" height="65" xlink:href="designspace-test/./img/ds_dataset2_60_26_thumb.png" data-node="True" data-id="26" />
<image x="1495.625" y="2395.625" width="65" height="65" xlink:href="designspace-test/./img/ds_dataset2_60_5_thumb.png" data-node="True" data-id="5" />
<image x="1495.625" y="895.625" width="65" height="65" xlink:href="designspace-test/./img/ds_dataset2_60_11_thumb.png" data-node="True" data-id="11" />
<image x="1495.625" y="520.625" width="65" height="65" xlink:href="designspace-test/./img/ds_dataset2_60_24_thumb.png" data-node="True" data-id="24" />
<image x="1495.625" y="445.625" width="65" height="65" xlink:href="designspace-test/./img/ds_dataset2_60_38_thumb.png" data-node="True" data-id="38" />
<image x="1420.625" y="670.625" width="65" height="65" xlink:href="designspace-test/./img/ds_dataset2_60_18_thumb.png" data-node="True" data-id="18" />
<image x="1345.625" y="1870.625" width="65" height="65" xlink:href="designspace-test/./img/ds_dataset2_60_4_thumb.png" data-node="True" data-id="4" />
<image x="1345.625" y="1120.625" width="65" height="65" xlink:href="designspace-test/./img/ds_dataset2_60_51_thumb.png" data-node="True" data-id="51" />
<image x="1345.625" y="745.625" width="65" height="65" xlink:href="designspace-test/./img/ds_dataset2_60_16_thumb.png" data-node="True" data-id="16" />
<image x="1345.625" y="670.625" width="65" height="65" xlink:href="designspace-test/./img/ds_dataset2_60_19_thumb.png" data-node="True" data-id="19" />
<image x="1270.625" y="2245.625" width="65" height="65" xlink:href="designspace-test/./img/ds_dataset2_60_6_thumb.png" data-node="True" data-id="6" />
<image x="1270.625" y="1795.625" width="65" height="65" xlink:href="designspace-test/./img/ds_dataset2_60_34_thumb.png" data-node="True" data-id="34" />
<image x="1270.625" y="1570.625" width="65" height="65" xlink:href="designspace-test/./img/ds_dataset2_60_23_thumb.png" data-node="True" data-id="23" />
<image x="1270.625" y="1120.625" width="65" height="65" xlink:href="designspace-test/./img/ds_dataset2_60_55_thumb.png" data-node="True" data-id="55" />
<image x="1270.625" y="970.625" width="65" height="65" xlink:href="designspace-test/./img/ds_dataset2_60_13_thumb.png" data-node="True" data-id="13" />
<image x="1195.625" y="1645.625" width="65" height="65" xlink:href="designspace-test/./img/ds_dataset2_60_14_thumb.png" data-node="True" data-id="14" />
<image x="970.625" y="295.625" width="65" height="65" xlink:href="designspace-test/./img/ds_dataset2_60_22_thumb.png" data-node="True" data-id="22" />
<image x="970.625" y="145.625" width="65" height="65" xlink:href="designspace-test/./img/ds_dataset2_60_25_thumb.png" data-node="True" data-id="25" />
<image x="970.625" y="70.625" width="65" height="65" xlink:href="designspace-test/./img/ds_dataset2_60_40_thumb.png" data-node="True" data-id="40" />
<image x="895.625" y="295.625" width="65" height="65" xlink:href="designspace-test/./img/ds_dataset2_60_45_thumb.png" data-node="True" data-id="45" />
<image x="820.625" y="370.625" width="65" height="65" xlink:href="designspace-test/./img/ds_dataset2_60_7_thumb.png" data-node="True" data-id="7" />
<image x="745.625" y="2245.625" width="65" height="65" xlink:href="designspace-test/./img/ds_dataset2_60_47_thumb.png" data-node="True" data-id="47" />
<image x="745.625" y="2095.625" width="65" height="65" xlink:href="designspace-test/./img/ds_dataset2_60_52_thumb.png" data-node="True" data-id="52" />
<image x="745.625" y="445.625" width="65" height="65" xlink:href="designspace-test/./img/ds_dataset2_60_2_thumb.png" data-node="True" data-id="2" />
<image x="670.625" y="2170.625" width="65" height="65" xlink:href="designspace-test/./img/ds_dataset2_60_59_thumb.png" data-node="True" data-id="59" />
<image x="670.625" y="220.625" width="65" height="65" xlink:href="designspace-test/./img/ds_dataset2_60_0_thumb.png" data-node="True" data-id="0" />
<image x="595.625" y="2020.625" width="65" height="65" xlink:href="designspace-test/./img/ds_dataset2_60_42_thumb.png" data-node="True" data-id="42" />
<image x="595.625" y="1945.625" width="65" height="65" xlink:href="designspace-test/./img/ds_dataset2_60_35_thumb.png" data-node="True" data-id="35" />
<image x="595.625" y="1345.625" width="65" height="65" xlink:href="designspace-test/./img/ds_dataset2_60_48_thumb.png" data-node="True" data-id="48" />
<image x="520.625" y="520.625" width="65" height="65" xlink:href="designspace-test/./img/ds_dataset2_60_27_thumb.png" data-node="True" data-id="27" />
<image x="370.625" y="1570.625" width="65" height="65" xlink:href="designspace-test/./img/ds_dataset2_60_57_thumb.png" data-node="True" data-id="57" />
<image x="295.625" y="1120.625" width="65" height="65" xlink:href="designspace-test/./img/ds_dataset2_60_28_thumb.png" data-node="True" data-id="28" />
<image x="295.625" y="1045.625" width="65" height="65" xlink:href="designspace-test/./img/ds_dataset2_60_33_thumb.png" data-node="True" data-id="33" />
<image x="70.625" y="1495.625" width="65" height="65" xlink:href="designspace-test/./img/ds_dataset2_60_3_thumb.png" data-node="True" data-id="3" />
</svg>