<?xml version="1.0" encoding="UTF-8"?>
<svg xmlns="http://www.w3.org/2000/svg" xmlns:xlink="http://www.w3.org/1999/xlink"
     width="2550" height="2550" viewBox="0 0 2550 2550">
<defs>
</defs>
<path d="M2424.125,1505.9834101745155 A49.45452644918532,49.45452644918532,0,0,1,2420.360498327255,1524.9088381020804 M2420.360498327255,1524.9088381020804 A49.45452644918831,49.45452644918831,0,0,1,2409.6401045634025,1540.9530411871049 M2409.6401045634025,1540.9530411871049" close="False" data-weight="1.0" stroke-width="6" fill="none" stroke="#ffff33" />
<path d="M2424.125,1430.9834101745155 C2424.125,1442.0542050872577,2424.125,1464.1957949127423,2424.125,1475.2665898254845" close="False" data-weight="0.0" stroke-width="6" fill="none" stroke="#ffff33" />
<path d="M2424.125,1355.9834101745155 C2424.125,1367.0542050872577,2424.125,1389.1957949127423,2424.125,1400.2665898254845" close="False" data-weight="0.0" stroke-width="6" fill="none" stroke="#ffff33" />
<path d="M2424.125,1280.9834101745155 C2424.125,1292.0542050872577,2424.125,1314.1957949127423,2424.125,1325.2665898254845" close="False" data-weight="0.0" stroke-width="6" fill="none" stroke="#ffff33" />
<path d="M2424.125,1205.9834101745155 C2424.125,1217.0542050872577,2424.125,1239.1957949127423,2424.125,1250.2665898254845" close="False" data-weight="0.0" stroke-width="6" fill="none" stroke="#ffff33" />
<path d="M2424.125,1475.2665898254845 L2424.125,1505.9834101745155" close="False" data-weight="1.75" stroke-width="6" fill="none" stroke="#ffff33" />
<path d="M2424.125,1400.2665898254845 L2424.125,1430.9834101745155" close="False" data-weight="1.75" stroke-width="6" fill="none" stroke="#ffff33" />
<path d="M2424.125,1325.2665898254845 L2424.125,1355.9834101745155" close="False" data-weight="1.75" stroke-width="6" fill="none" stroke="#ffff33" />
<path d="M2424.125,1250.2665898254845 L2424.125,1280.9834101745155" close="False" data-weight="1.75" stroke-width="6" fill="none" stroke="#ffff33" />
<path d="M2424.125,1175.2665898254845 L2424.125,1205.9834101745155" close="False" data-weight="1.75" stroke-width="6" fill="none" stroke="#ffff33" />
<path d="M2365.953041187105,1621.6098954365973 L2409.6401045634025,1665.2969588128951" close="False" data-weight="2.060660171779821" stroke-width="6" fill="none" stroke="#ffff33" />
<path d="M2365.953041187105,1584.6401045634027 L2409.6401045634025,1540.9530411871049" close="False" data-weight="2.060660171779821" stroke-width="6" fill="none" stroke="#ffff33" />
<path d="M2371.6098954365675,1090.9530411870753 C2363.781661280657,1083.1248070311647,2348.1251929688356,1067.468338719343,2340.296958812925,1059.6401045634323" close="False" data-weight="0.0" stroke-width="6" fill="none" stroke="#984ea3" />
<path d="M2296.6098954365975,1015.953041187105 C2288.7816612806646,1008.1248070311719,2273.1251929687983,992.468338719306,2265.2969588128653,984.6401045633729" close="False" data-weight="0.0" stroke-width="6" fill="none" stroke="#984ea3" />
<path d="M2221.609895436627,940.9530411871347 C2213.781661280694,933.1248070312016,2198.125192968828,917.4683387193356,2190.296958812895,909.6401045634026" close="False" data-weight="0.0" stroke-width="6" fill="none" stroke="#984ea3" />
<path d="M2146.6098954365975,865.953041187105 C2138.781661280672,858.1248070311793,2123.1251929688206,842.4683387193282,2115.296958812895,834.6401045634026" close="False" data-weight="0.0" stroke-width="6" fill="none" stroke="#984ea3" />
<path d="M2071.6098954365675,790.9530411870752 A57.454526449028485,57.454526449028485,0,0,0,2052.970305560985,778.4984654126436 M2052.970305560985,778.4984654126436 A57.45452644924342,57.45452644924342,0,0,0,2030.9834101745155,774.125 M2030.9834101745155,774.125" close="False" data-weight="1.0" stroke-width="6" fill="none" stroke="#984ea3" />
<path d="M2000.2665898254845,774.125 C1989.1957949127423,774.125,1967.0542050872577,774.125,1955.9834101745155,774.125" close="False" data-weight="0.0" stroke-width="6" fill="none" stroke="#984ea3" />
<path d="M2371.6098954365675,1090.9530411870753 L2415.296958812925,1134.6401045634323" close="False" data-weight="2.060660171779821" stroke-width="6" fill="none" stroke="#984ea3" />
<path d="M2296.6098954365975,1015.953041187105 L2340.296958812925,1059.6401045634323" close="False" data-weight="2.060660171779821" stroke-width="6" fill="none" stroke="#984ea3" />
<path d="M2221.6098954365975,940.953041187105 L2265.296958812895,984.6401045634026" close="False" data-weight="2.060660171779821" stroke-width="6" fill="none" stroke="#984ea3" />
<path d="M2146.6098954365975,865.953041187105 L2190.296958812895,909.6401045634026" close="False" data-weight="2.060660171779821" stroke-width="6" fill="none" stroke="#984ea3" />
<path d="M2071.6098954365675,790.9530411870752 L2115.296958812895,834.6401045634026" close="False" data-weight="2.060660171779821" stroke-width="6" fill="none" stroke="#984ea3" />
<path d="M2000.2665898254845,774.125 L2030.9834101745155,774.125" close="False" data-weight="1.75" stroke-width="6" fill="none" stroke="#984ea3" />
<path d="M1925.2665898254845,774.125 L1955.9834101745155,774.125" close="False" data-weight="1.75" stroke-width="6" fill="none" stroke="#984ea3" />
<path d="M2432.125,1505.9834101745155 A57.454526449181685,57.454526449181685,0,0,1,2427.751534587345,1527.970305561001 M2427.751534587345,1527.970305561001 A57.45452644919593,57.45452644919593,0,0,1,2415.296958812895,1546.6098954365973 M2415.296958812895,1546.6098954365973" close="False" data-weight="1.0" stroke-width="6" fill="none" stroke="#ff7f00" />
<path d="M2432.125,1430.9834101745155 C2432.125,1442.0542050872577,2432.125,1464.1957949127423,2432.125,1475.2665898254845" close="False" data-weight="0.0" stroke-width="6" fill="none" stroke="#ff7f00" />
<path d="M2432.125,1355.9834101745155 C2432.125,1367.0542050872577,2432.125,1389.1957949127423,2432.125,1400.2665898254845" close="False" data-weight="0.0" stroke-width="6" fill="none" stroke="#ff7f00" />
<path d="M2432.125,1280.9834101745155 C2432.125,1292.0542050872577,2432.125,1314.1957949127423,2432.125,1325.2665898254845" close="False" data-weight="0.0" stroke-width="6" fill="none" stroke="#ff7f00" />
<path d="M2432.125,1205.9834101745155 C2432.125,1217.0542050872577,2432.125,1239.1957949127423,2432.125,1250.2665898254845" close="False" data-weight="0.0" stroke-width="6" fill="none" stroke="#ff7f00" />
<path d="M2369.0349025766973,1737.2150974233027 C2361.0799512883486,1745.1700487116514,2345.1700487116514,1761.0799512883486,2337.2150974233027,1769.0349025766973" close="False" data-weight="0.0" stroke-width="6" fill="none" stroke="#ff7f00" />
<path d="M2365.9530411871347,1096.609895436627 C2358.124807031194,1088.7816612806866,2342.4683387193136,1073.1251929688058,2334.640104563373,1065.2969588128653" close="False" data-weight="0.0" stroke-width="6" fill="none" stroke="#ff7f00" />
<path d="M2294.0349025766973,1812.2150974233027 C2286.0799512883486,1820.1700487116514,2270.1700487116514,1836.0799512883486,2262.2150974233027,1844.0349025766973" close="False" data-weight="0.0" stroke-width="6" fill="none" stroke="#ff7f00" />
<path d="M2290.953041187105,1021.6098954365974 C2283.124807031187,1013.7816612806793,2267.468338719351,998.125192968843,2259.6401045634325,990.2969588129248" close="False" data-weight="0.0" stroke-width="6" fill="none" stroke="#ff7f00" />
<path d="M2219.0349025766973,1887.2150974233027 C2211.0799512883486,1895.1700487116514,2195.1700487116514,1911.0799512883486,2187.2150974233027,1919.0349025766973" close="False" data-weight="0.0" stroke-width="6" fill="none" stroke="#ff7f00" />
<path d="M2215.953041187075,946.6098954365676 C2208.1248070311567,938.7816612806495,2192.4683387193204,923.1251929688132,2184.6401045634025,915.296958812895" close="False" data-weight="0.0" stroke-width="6" fill="none" stroke="#ff7f00" />
<path d="M2144.0349025766973,1962.2150974233027 A54.319805153391044,54.319805153391044,0,0,0,2132.259848962172,1979.8377105184957 M2132.259848962172,1979.8377105184957 A54.3198051533941,54.3198051533941,0,0,0,2128.125,2000.625 M2128.125,2000.625" close="False" data-weight="1.0" stroke-width="6" fill="none" stroke="#ff7f00" />
<path d="M2140.953041187105,871.6098954365974 C2133.1248070311794,863.7816612806718,2117.468338719328,848.1251929688207,2109.6401045634025,840.296958812895" close="False" data-weight="0.0" stroke-width="6" fill="none" stroke="#ff7f00" />
<path d="M2065.9530411871347,796.6098954366271 A49.45452644934498,49.45452644934498,0,0,0,2049.9088381020965,785.8895016727562 M2049.9088381020965,785.8895016727562 A49.45452644913007,49.45452644913007,0,0,0,2030.9834101745155,782.125 M2030.9834101745155,782.125" close="False" data-weight="1.0" stroke-width="6" fill="none" stroke="#ff7f00" />
<path d="M2000.2665898254845,782.125 C1989.1957949127423,782.125,1967.0542050872577,782.125,1955.9834101745155,782.125" close="False" data-weight="0.0" stroke-width="6" fill="none" stroke="#ff7f00" />
<path d="M1907.125,980.9834101745155 A57.45452644918714,57.45452644918714,0,0,1,1902.7515345873453,1002.9703055610012 M1902.7515345873453,1002.9703055610012 A57.45452644918669,57.45452644918669,0,0,1,1890.2969588128951,1021.6098954365974 M1890.2969588128951,1021.6098954365974" close="False" data-weight="1.0" stroke-width="6" fill="none" stroke="#ff7f00" />
<path d="M1907.125,905.9834101745155 C1907.125,917.0542050872577,1907.125,939.1957949127423,1907.125,950.2665898254845" close="False" data-weight="0.0" stroke-width="6" fill="none" stroke="#ff7f00" />
<path d="M1907.125,830.9834101745155 C1907.125,842.0542050872577,1907.125,864.1957949127423,1907.125,875.2665898254845" close="False" data-weight="0.0" stroke-width="6" fill="none" stroke="#ff7f00" />
<path d="M1694.0349025766973,1137.2150974233027 C1686.0799512883486,1145.1700487116514,1670.1700487116514,1161.0799512883486,1662.2150974233027,1169.0349025766973" close="False" data-weight="0.0" stroke-width="6" fill="none" stroke="#ff7f00" />
<path d="M1619.0349025766973,1212.2150974233027 C1611.0799512883486,1220.1700487116514,1595.1700487116514,1236.0799512883486,1587.2150974233027,1244.0349025766973" close="False" data-weight="0.0" stroke-width="6" fill="none" stroke="#ff7f00" />
<path d="M1544.0349025766973,1287.2150974233027 C1536.0799512883486,1295.1700487116514,1520.1700487116514,1311.0799512883486,1512.2150974233027,1319.0349025766973" close="False" data-weight="0.0" stroke-width="6" fill="none" stroke="#ff7f00" />
<path d="M1469.0349025766973,1362.2150974233027 C1461.0799512883486,1370.1700487116514,1445.1700487116514,1386.0799512883486,1437.2150974233027,1394.0349025766973" close="False" data-weight="0.0" stroke-width="6" fill="none" stroke="#ff7f00" />
<path d="M1394.0349025766973,1437.2150974233027 A54.3198051533949,54.3198051533949,0,0,1,1376.412289481504,1448.9901510378277 M1376.412289481504,1448.9901510378277 A54.3198051533941,54.3198051533941,0,0,1,1355.625,1453.125 M1355.625,1453.125" close="False" data-weight="1.0" stroke-width="6" fill="none" stroke="#ff7f00" />
<path d="M1244.0349025766973,1587.2150974233027 C1236.0799512883486,1595.1700487116514,1220.1700487116514,1611.0799512883486,1212.2150974233027,1619.0349025766973" close="False" data-weight="0.0" stroke-width="6" fill="none" stroke="#ff7f00" />
<path d="M1169.0349025766973,1662.2150974233027 C1161.0799512883486,1670.1700487116514,1145.1700487116514,1686.0799512883486,1137.2150974233027,1694.0349025766973" close="False" data-weight="0.0" stroke-width="6" fill="none" stroke="#ff7f00" />
<path d="M1090.9530411871049,2221.6098954365975 C1083.1248070311792,2213.781661280672,1067.4683387193284,2198.1251929688206,1059.6401045634027,2190.296958812895" close="False" data-weight="0.0" stroke-width="6" fill="none" stroke="#ff7f00" />
<path d="M1094.0349025766973,1737.2150974233027 C1086.0799512883486,1745.1700487116514,1070.1700487116514,1761.0799512883486,1062.2150974233027,1769.0349025766973" close="False" data-weight="0.0" stroke-width="6" fill="none" stroke="#ff7f00" />
<path d="M1015.9530411871347,2146.609895436627 C1008.1248070311942,2138.7816612806864,992.4683387193134,2123.125192968806,984.6401045633729,2115.2969588128653" close="False" data-weight="0.0" stroke-width="6" fill="none" stroke="#ff7f00" />
<path d="M1019.0349025766973,1812.2150974233027 C1011.0799512883486,1820.1700487116514,995.1700487116514,1836.0799512883486,987.2150974233027,1844.0349025766973" close="False" data-weight="0.0" stroke-width="6" fill="none" stroke="#ff7f00" />
<path d="M940.953041187105,2071.6098954365975 C933.0298325130835,2063.6866867625763,920.1383060973241,2045.1383060973242,912.2150974233027,2037.2150974233027" close="False" data-weight="0.0" stroke-width="6" fill="none" stroke="#ff7f00" />
<path d="M2432.125,1475.2665898254845 L2432.125,1505.9834101745155" close="False" data-weight="1.75" stroke-width="6" fill="none" stroke="#ff7f00" />
<path d="M2432.125,1400.2665898254845 L2432.125,1430.9834101745155" close="False" data-weight="1.75" stroke-width="6" fill="none" stroke="#ff7f00" />
<path d="M2432.125,1325.2665898254845 L2432.125,1355.9834101745155" close="False" data-weight="1.75" stroke-width="6" fill="none" stroke="#ff7f00" />
<path d="M2432.125,1250.2665898254845 L2432.125,1280.9834101745155" close="False" data-weight="1.75" stroke-width="6" fill="none" stroke="#ff7f00" />
<path d="M2432.125,1175.2665898254845 L2432.125,1205.9834101745155" close="False" data-weight="1.75" stroke-width="6" fill="none" stroke="#ff7f00" />
<path d="M2369.0349025766973,1737.2150974233027 L2412.2150974233027,1694.0349025766973" close="False" data-weight="2.060660171779821" stroke-width="6" fill="none" stroke="#ff7f00" />
<path d="M2371.6098954365975,1615.9530411871049 L2415.296958812895,1659.6401045634027" close="False" data-weight="2.060660171779821" stroke-width="6" fill="none" stroke="#ff7f00" />
<path d="M2371.6098954365975,1590.2969588128951 L2415.296958812895,1546.6098954365973" close="False" data-weight="2.060660171779821" stroke-width="6" fill="none" stroke="#ff7f00" />
<path d="M2365.9530411871347,1096.609895436627 L2409.640104563373,1140.2969588128653" close="False" data-weight="2.060660171779821" stroke-width="6" fill="none" stroke="#ff7f00" />
<path d="M2294.0349025766973,1812.2150974233027 L2337.2150974233027,1769.0349025766973" close="False" data-weight="2.060660171779821" stroke-width="6" fill="none" stroke="#ff7f00" />
<path d="M2290.953041187105,1021.6098954365974 L2334.640104563373,1065.2969588128653" close="False" data-weight="2.060660171779821" stroke-width="6" fill="none" stroke="#ff7f00" />
<path d="M2219.0349025766973,1887.2150974233027 L2262.2150974233027,1844.0349025766973" close="False" data-weight="2.060660171779821" stroke-width="6" fill="none" stroke="#ff7f00" />
<path d="M2215.953041187105,946.6098954365974 L2259.6401045634025,990.296958812895" close="False" data-weight="2.060660171779821" stroke-width="6" fill="none" stroke="#ff7f00" />
<path d="M2128.125,2300.625 L2128.125,2330.625" close="False" data-weight="1.75" stroke-width="6" fill="none" stroke="#ff7f00" />
<path d="M2128.125,2150.625 L2128.125,2180.625" close="False" data-weight="1.75" stroke-width="6" fill="none" stroke="#ff7f00" />
<path d="M2128.125,2000.625 L2128.125,2030.625" close="False" data-weight="1.75" stroke-width="6" fill="none" stroke="#ff7f00" />
<path d="M2144.0349025766973,1962.2150974233027 L2187.2150974233027,1919.0349025766973" close="False" data-weight="2.060660171779821" stroke-width="6" fill="none" stroke="#ff7f00" />
<path d="M2140.953041187105,871.6098954365974 L2184.6401045634025,915.296958812895" close="False" data-weight="2.060660171779821" stroke-width="6" fill="none" stroke="#ff7f00" />
<path d="M2053.125,2375.625 L2053.125,2405.625" close="False" data-weight="1.75" stroke-width="6" fill="none" stroke="#ff7f00" />
<path d="M2075.625,2353.125 L2105.625,2353.125" close="False" data-weight="1.75" stroke-width="6" fill="none" stroke="#ff7f00" />
<path d="M2075.625,2278.125 L2105.625,2278.125" close="False" data-weight="1.75" stroke-width="6" fill="none" stroke="#ff7f00" />
<path d="M2075.625,2203.125 L2105.625,2203.125" close="False" data-weight="1.75" stroke-width="6" fill="none" stroke="#ff7f00" />
<path d="M2075.625,2128.125 L2105.625,2128.125" close="False" data-weight="1.75" stroke-width="6" fill="none" stroke="#ff7f00" />
<path d="M2053.125,2075.625 L2053.125,2105.625" close="False" data-weight="1.75" stroke-width="6" fill="none" stroke="#ff7f00" />
<path d="M2075.625,2053.125 L2105.625,2053.125" close="False" data-weight="1.75" stroke-width="6" fill="none" stroke="#ff7f00" />
<path d="M2065.9530411871347,796.6098954366271 L2109.6401045634025,840.296958812895" close="False" data-weight="2.060660171779821" stroke-width="6" fill="none" stroke="#ff7f00" />
<path d="M2000.625,2278.125 L2030.625,2278.125" close="False" data-weight="1.75" stroke-width="6" fill="none" stroke="#ff7f00" />
<path d="M1978.125,2225.625 L1978.125,2255.625" close="False" data-weight="1.75" stroke-width="6" fill="none" stroke="#ff7f00" />
<path d="M2000.625,2203.125 L2030.625,2203.125" close="False" data-weight="1.75" stroke-width="6" fill="none" stroke="#ff7f00" />
<path d="M2000.2665898254845,782.125 L2030.9834101745155,782.125" close="False" data-weight="1.75" stroke-width="6" fill="none" stroke="#ff7f00" />
<path d="M1907.125,950.2665898254845 L1907.125,980.9834101745155" close="False" data-weight="1.75" stroke-width="6" fill="none" stroke="#ff7f00" />
<path d="M1907.125,875.2665898254845 L1907.125,905.9834101745155" close="False" data-weight="1.75" stroke-width="6" fill="none" stroke="#ff7f00" />
<path d="M1907.125,800.2665898254845 L1907.125,830.9834101745155" close="False" data-weight="1.75" stroke-width="6" fill="none" stroke="#ff7f00" />
<path d="M1925.2665898254845,782.125 L1955.9834101745155,782.125" close="False" data-weight="1.75" stroke-width="6" fill="none" stroke="#ff7f00" />
<path d="M1846.6098954365973,1065.2969588128951 L1890.2969588128951,1021.6098954365974" close="False" data-weight="2.060660171779821" stroke-width="6" fill="none" stroke="#ff7f00" />
<path d="M1775.2665898254845,1082.125 L1805.9834101745155,1082.125" close="False" data-weight="1.75" stroke-width="6" fill="none" stroke="#ff7f00" />
<path d="M1694.0349025766973,1137.2150974233027 L1737.2150974233027,1094.0349025766973" close="False" data-weight="2.060660171779821" stroke-width="6" fill="none" stroke="#ff7f00" />
<path d="M1619.0349025766973,1212.2150974233027 L1662.2150974233027,1169.0349025766973" close="False" data-weight="2.060660171779821" stroke-width="6" fill="none" stroke="#ff7f00" />
<path d="M1544.0349025766973,1287.2150974233027 L1587.2150974233027,1244.0349025766973" close="False" data-weight="2.060660171779821" stroke-width="6" fill="none" stroke="#ff7f00" />
<path d="M1469.0349025766973,1362.2150974233027 L1512.2150974233027,1319.0349025766973" close="False" data-weight="2.060660171779821" stroke-width="6" fill="none" stroke="#ff7f00" />
<path d="M1394.0349025766973,1437.2150974233027 L1437.2150974233027,1394.0349025766973" close="False" data-weight="2.060660171779821" stroke-width="6" fill="none" stroke="#ff7f00" />
<path d="M1307.125,1475.2665898254845 L1307.125,1505.9834101745155" close="False" data-weight="1.75" stroke-width="6" fill="none" stroke="#ff7f00" />
<path d="M1325.625,1453.125 L1355.625,1453.125" close="False" data-weight="1.75" stroke-width="6" fill="none" stroke="#ff7f00" />
<path d="M1224.125,2375.2665898254845 L1224.125,2405.9834101745155" close="False" data-weight="1.75" stroke-width="6" fill="none" stroke="#ff7f00" />
<path d="M1244.0349025766973,1587.2150974233027 L1287.2150974233027,1544.0349025766973" close="False" data-weight="2.060660171779821" stroke-width="6" fill="none" stroke="#ff7f00" />
<path d="M1175.2665898254845,2357.125 L1205.9834101745155,2357.125" close="False" data-weight="1.75" stroke-width="6" fill="none" stroke="#ff7f00" />
<path d="M1149.125,2300.2665898254845 L1149.125,2330.9834101745155" close="False" data-weight="1.75" stroke-width="6" fill="none" stroke="#ff7f00" />
<path d="M1169.0349025766973,1662.2150974233027 L1212.2150974233027,1619.0349025766973" close="False" data-weight="2.060660171779821" stroke-width="6" fill="none" stroke="#ff7f00" />
<path d="M1090.9530411871049,2221.6098954365975 L1134.6401045634027,2265.296958812895" close="False" data-weight="2.060660171779821" stroke-width="6" fill="none" stroke="#ff7f00" />
<path d="M1094.0349025766973,1737.2150974233027 L1137.2150974233027,1694.0349025766973" close="False" data-weight="2.060660171779821" stroke-width="6" fill="none" stroke="#ff7f00" />
<path d="M1015.9530411871347,2146.609895436627 L1059.6401045634027,2190.296958812895" close="False" data-weight="2.060660171779821" stroke-width="6" fill="none" stroke="#ff7f00" />
<path d="M1019.0349025766973,1812.2150974233027 L1062.2150974233027,1769.0349025766973" close="False" data-weight="2.060660171779821" stroke-width="6" fill="none" stroke="#ff7f00" />
<path d="M940.953041187105,2071.6098954365975 L984.6401045633729,2115.2969588128653" close="False" data-weight="2.060660171779821" stroke-width="6" fill="none" stroke="#ff7f00" />
<path d="M944.0349025766973,1887.2150974233027 L987.2150974233027,1844.0349025766973" close="False" data-weight="2.060660171779821" stroke-width="6" fill="none" stroke="#ff7f00" />
<path d="M869.0349025766973,1994.0349025766973 L912.2150974233027,2037.2150974233027" close="False" data-weight="2.060660171779821" stroke-width="6" fill="none" stroke="#ff7f00" />
<path d="M853.125,1925.625 L853.125,1955.625" close="False" data-weight="1.75" stroke-width="6" fill="none" stroke="#ff7f00" />
<path d="M875.2665898254845,1907.125 L905.9834101745155,1907.125" close="False" data-weight="1.75" stroke-width="6" fill="none" stroke="#ff7f00" />
<path d="M1244.0349025766973,1512.2150974233027 C1236.0799512883486,1520.1700487116514,1220.1700487116514,1536.0799512883486,1212.2150974233027,1544.0349025766973" close="False" data-weight="0.0" stroke-width="6" fill="none" stroke="#4daf4a" />
<path d="M1169.0349025766973,1587.2150974233027 C1161.0799512883486,1595.1700487116514,1145.1700487116514,1611.0799512883486,1137.2150974233027,1619.0349025766973" close="False" data-weight="0.0" stroke-width="6" fill="none" stroke="#4daf4a" />
<path d="M1094.0349025766973,1662.2150974233027 C1086.0799512883486,1670.1700487116514,1070.1700487116514,1686.0799512883486,1062.2150974233027,1694.0349025766973" close="False" data-weight="0.0" stroke-width="6" fill="none" stroke="#4daf4a" />
<path d="M1019.0349025766973,1737.2150974233027 C1011.0799512883486,1745.1700487116514,995.1700487116514,1761.0799512883486,987.2150974233027,1769.0349025766973" close="False" data-weight="0.0" stroke-width="6" fill="none" stroke="#4daf4a" />
<path d="M944.0349025766973,1812.2150974233027 A54.31980515339514,54.31980515339514,0,0,0,932.2598489621722,1829.837710518496 M932.2598489621722,1829.837710518496 A54.319805153393986,54.319805153393986,0,0,0,928.125,1850.625 M928.125,1850.625" close="False" data-weight="1.0" stroke-width="6" fill="none" stroke="#4daf4a" />
<path d="M794.0349025766973,1919.0349025766973 C786.0799512883486,1911.0799512883486,770.1700487116514,1895.1700487116514,762.2150974233027,1887.2150974233027" close="False" data-weight="0.0" stroke-width="6" fill="none" stroke="#4daf4a" />
<path d="M719.0349025766973,1844.0349025766973 C711.0799512883486,1836.0799512883486,695.1700487116514,1820.1700487116514,687.2150974233027,1812.2150974233027" close="False" data-weight="0.0" stroke-width="6" fill="none" stroke="#4daf4a" />
<path d="M725.625,478.125 C714.375,478.125,691.875,478.125,680.625,478.125" close="False" data-weight="0.0" stroke-width="6" fill="none" stroke="#4daf4a" />
<path d="M644.0349025766973,1769.0349025766973 C636.0799512883486,1761.0799512883486,620.1700487116514,1745.1700487116514,612.2150974233027,1737.2150974233027" close="False" data-weight="0.0" stroke-width="6" fill="none" stroke="#4daf4a" />
<path d="M650.625,478.125 C639.375,478.125,616.875,478.125,605.625,478.125" close="False" data-weight="0.0" stroke-width="6" fill="none" stroke="#4daf4a" />
<path d="M569.0349025766973,1694.0349025766973 A54.31980515339554,54.31980515339554,0,0,0,551.412289481504,1682.259848962172 M551.412289481504,1682.259848962172 A54.319805153393645,54.319805153393645,0,0,0,530.625,1678.125 M530.625,1678.125" close="False" data-weight="1.0" stroke-width="6" fill="none" stroke="#4daf4a" />
<path d="M575.625,478.125 A54.31980515339342,54.31980515339342,0,0,0,554.8377105184961,482.25984896217227 M554.8377105184961,482.25984896217227 A54.31980515339574,54.31980515339574,0,0,0,537.2150974233027,494.03490257669733 M537.2150974233027,494.03490257669733" close="False" data-weight="1.0" stroke-width="6" fill="none" stroke="#4daf4a" />
<path d="M500.625,1678.125 C489.375,1678.125,466.875,1678.125,455.625,1678.125" close="False" data-weight="0.0" stroke-width="6" fill="none" stroke="#4daf4a" />
<path d="M494.03490257669733,537.2150974233027 C486.0799512883487,545.1700487116514,470.1700487116513,561.0799512883486,462.21509742330267,569.0349025766973" close="False" data-weight="0.0" stroke-width="6" fill="none" stroke="#4daf4a" />
<path d="M425.625,1678.125 C414.375,1678.125,391.875,1678.125,380.625,1678.125" close="False" data-weight="0.0" stroke-width="6" fill="none" stroke="#4daf4a" />
<path d="M419.03490257669733,612.2150974233027 C411.0799512883487,620.1700487116514,395.1700487116513,636.0799512883486,387.21509742330267,644.0349025766973" close="False" data-weight="0.0" stroke-width="6" fill="none" stroke="#4daf4a" />
<path d="M350.625,1678.125 C339.375,1678.125,316.875,1678.125,305.625,1678.125" close="False" data-weight="0.0" stroke-width="6" fill="none" stroke="#4daf4a" />
<path d="M275.625,1678.125 C264.375,1678.125,241.875,1678.125,230.625,1678.125" close="False" data-weight="0.0" stroke-width="6" fill="none" stroke="#4daf4a" />
<path d="M269.03490257669733,837.2150974233027 C261.0799512883487,845.1700487116514,245.1700487116513,861.0799512883486,237.21509742330267,869.0349025766973" close="False" data-weight="0.0" stroke-width="6" fill="none" stroke="#4daf4a" />
<path d="M200.625,1678.125 C189.375,1678.125,166.875,1678.125,155.625,1678.125" close="False" data-weight="0.0" stroke-width="6" fill="none" stroke="#4daf4a" />
<path d="M194.0349025766973,912.2150974233027 C186.07995128834867,920.1700487116514,170.1700487116513,936.0799512883486,162.21509742330267,944.0349025766973" close="False" data-weight="0.0" stroke-width="6" fill="none" stroke="#4daf4a" />
<path d="M103.125,1580.625 C103.125,1591.875,103.125,1614.375,103.125,1625.625" close="False" data-weight="0.0" stroke-width="6" fill="none" stroke="#4daf4a" />
<path d="M103.125,1505.625 C103.125,1516.875,103.125,1539.375,103.125,1550.625" close="False" data-weight="0.0" stroke-width="6" fill="none" stroke="#4daf4a" />
<path d="M103.125,1430.625 C103.125,1441.875,103.125,1464.375,103.125,1475.625" close="False" data-weight="0.0" stroke-width="6" fill="none" stroke="#4daf4a" />
<path d="M103.125,1355.625 C103.125,1366.875,103.125,1389.375,103.125,1400.625" close="False" data-weight="0.0" stroke-width="6" fill="none" stroke="#4daf4a" />
<path d="M103.125,1280.625 C103.125,1291.875,103.125,1314.375,103.125,1325.625" close="False" data-weight="0.0" stroke-width="6" fill="none" stroke="#4daf4a" />
<path d="M103.125,1205.625 C103.125,1216.875,103.125,1239.375,103.125,1250.625" close="False" data-weight="0.0" stroke-width="6" fill="none" stroke="#4daf4a" />
<path d="M103.125,1130.625 C103.125,1141.875,103.125,1164.375,103.125,1175.625" close="False" data-weight="0.0" stroke-width="6" fill="none" stroke="#4daf4a" />
<path d="M103.125,1055.625 C103.125,1066.875,103.125,1089.375,103.125,1100.625" close="False" data-weight="0.0" stroke-width="6" fill="none" stroke="#4daf4a" />
<path d="M119.0349025766973,987.2150974233027 A54.3198051533949,54.3198051533949,0,0,0,107.25984896217216,1004.8377105184961 M107.25984896217216,1004.8377105184961 A54.31980515339427,54.31980515339427,0,0,0,103.125,1025.625 M103.125,1025.625" close="False" data-weight="1.0" stroke-width="6" fill="none" stroke="#4daf4a" />
<path d="M1299.125,1475.2665898254845 L1299.125,1505.9834101745155" close="False" data-weight="1.75" stroke-width="6" fill="none" stroke="#4daf4a" />
<path d="M1244.0349025766973,1512.2150974233027 L1287.2150974233027,1469.0349025766973" close="False" data-weight="2.060660171779821" stroke-width="6" fill="none" stroke="#4daf4a" />
<path d="M1169.0349025766973,1587.2150974233027 L1212.2150974233027,1544.0349025766973" close="False" data-weight="2.060660171779821" stroke-width="6" fill="none" stroke="#4daf4a" />
<path d="M1094.0349025766973,1662.2150974233027 L1137.2150974233027,1619.0349025766973" close="False" data-weight="2.060660171779821" stroke-width="6" fill="none" stroke="#4daf4a" />
<path d="M1019.0349025766973,1737.2150974233027 L1062.2150974233027,1694.0349025766973" close="False" data-weight="2.060660171779821" stroke-width="6" fill="none" stroke="#4daf4a" />
<path d="M928.125,1850.625 L928.125,1880.625" close="False" data-weight="1.75" stroke-width="6" fill="none" stroke="#4daf4a" />
<path d="M944.0349025766973,1812.2150974233027 L987.2150974233027,1769.0349025766973" close="False" data-weight="2.060660171779821" stroke-width="6" fill="none" stroke="#4daf4a" />
<path d="M845.125,1924.1547408448132 L845.125,1957.0952591551868" close="False" data-weight="1.75" stroke-width="6" fill="none" stroke="#4daf4a" />
<path d="M875.2665898254845,1899.125 L905.9834101745155,1899.125" close="False" data-weight="1.75" stroke-width="6" fill="none" stroke="#4daf4a" />
<path d="M794.0349025766973,1919.0349025766973 L837.2150974233027,1962.2150974233027" close="False" data-weight="2.060660171779821" stroke-width="6" fill="none" stroke="#4daf4a" />
<path d="M774.125,425.2665898254845 L774.125,455.9834101745155" close="False" data-weight="1.75" stroke-width="6" fill="none" stroke="#4daf4a" />
<path d="M719.0349025766973,1844.0349025766973 L762.2150974233027,1887.2150974233027" close="False" data-weight="2.060660171779821" stroke-width="6" fill="none" stroke="#4daf4a" />
<path d="M725.625,478.125 L755.625,478.125" close="False" data-weight="1.75" stroke-width="6" fill="none" stroke="#4daf4a" />
<path d="M644.0349025766973,1769.0349025766973 L687.2150974233027,1812.2150974233027" close="False" data-weight="2.060660171779821" stroke-width="6" fill="none" stroke="#4daf4a" />
<path d="M650.625,478.125 L680.625,478.125" close="False" data-weight="1.75" stroke-width="6" fill="none" stroke="#4daf4a" />
<path d="M569.0349025766973,1694.0349025766973 L612.2150974233027,1737.2150974233027" close="False" data-weight="2.060660171779821" stroke-width="6" fill="none" stroke="#4daf4a" />
<path d="M575.625,478.125 L605.625,478.125" close="False" data-weight="1.75" stroke-width="6" fill="none" stroke="#4daf4a" />
<path d="M500.625,1678.125 L530.625,1678.125" close="False" data-weight="1.75" stroke-width="6" fill="none" stroke="#4daf4a" />
<path d="M494.03490257669733,537.2150974233027 L537.2150974233027,494.03490257669733" close="False" data-weight="2.060660171779821" stroke-width="6" fill="none" stroke="#4daf4a" />
<path d="M425.625,1678.125 L455.625,1678.125" close="False" data-weight="1.75" stroke-width="6" fill="none" stroke="#4daf4a" />
<path d="M419.03490257669733,612.2150974233027 L462.21509742330267,569.0349025766973" close="False" data-weight="2.060660171779821" stroke-width="6" fill="none" stroke="#4daf4a" />
<path d="M350.625,1678.125 L380.625,1678.125" close="False" data-weight="1.75" stroke-width="6" fill="none" stroke="#4daf4a" />
<path d="M328.125,725.625 L328.125,755.625" close="False" data-weight="1.75" stroke-width="6" fill="none" stroke="#4daf4a" />
<path d="M344.03490257669733,687.2150974233027 L387.21509742330267,644.0349025766973" close="False" data-weight="2.060660171779821" stroke-width="6" fill="none" stroke="#4daf4a" />
<path d="M275.625,1678.125 L305.625,1678.125" close="False" data-weight="1.75" stroke-width="6" fill="none" stroke="#4daf4a" />
<path d="M269.03490257669733,837.2150974233027 L312.21509742330267,794.0349025766973" close="False" data-weight="2.060660171779821" stroke-width="6" fill="none" stroke="#4daf4a" />
<path d="M200.625,1678.125 L230.625,1678.125" close="False" data-weight="1.75" stroke-width="6" fill="none" stroke="#4daf4a" />
<path d="M194.03490257669733,912.2150974233027 L237.2150974233027,869.0349025766973" close="False" data-weight="2.060660171779821" stroke-width="6" fill="none" stroke="#4daf4a" />
<path d="M125.625,1678.125 L155.625,1678.125" close="False" data-weight="1.75" stroke-width="6" fill="none" stroke="#4daf4a" />
<path d="M103.125,1625.625 L103.125,1655.625" close="False" data-weight="1.75" stroke-width="6" fill="none" stroke="#4daf4a" />
<path d="M103.125,1550.625 L103.125,1580.625" close="False" data-weight="1.75" stroke-width="6" fill="none" stroke="#4daf4a" />
<path d="M103.125,1475.625 L103.125,1505.625" close="False" data-weight="1.75" stroke-width="6" fill="none" stroke="#4daf4a" />
<path d="M103.125,1400.625 L103.125,1430.625" close="False" data-weight="1.75" stroke-width="6" fill="none" stroke="#4daf4a" />
<path d="M103.125,1325.625 L103.125,1355.625" close="False" data-weight="1.75" stroke-width="6" fill="none" stroke="#4daf4a" />
<path d="M103.125,1250.625 L103.125,1280.625" close="False" data-weight="1.75" stroke-width="6" fill="none" stroke="#4daf4a" />
<path d="M103.125,1175.625 L103.125,1205.625" close="False" data-weight="1.75" stroke-width="6" fill="none" stroke="#4daf4a" />
<path d="M103.125,1100.625 L103.125,1130.625" close="False" data-weight="1.75" stroke-width="6" fill="none" stroke="#4daf4a" />
<path d="M103.125,1025.625 L103.125,1055.625" close="False" data-weight="1.75" stroke-width="6" fill="none" stroke="#4daf4a" />
<path d="M119.03490257669732,987.2150974233027 L162.2150974233027,944.0349025766973" close="False" data-weight="2.060660171779821" stroke-width="6" fill="none" stroke="#4daf4a" />
<path d="M1096.6098954365973,2215.953041187105 C1088.7816612806716,2208.1248070311794,1073.1251929688208,2192.468338719328,1065.2969588128951,2184.6401045634025" close="False" data-weight="0.0" stroke-width="6" fill="none" stroke="#377eb8" />
<path d="M1021.6098954365676,2140.953041187075 C1013.781661280657,2133.1248070311644,998.1251929688354,2117.468338719343,990.2969588129248,2109.6401045634325" close="False" data-weight="0.0" stroke-width="6" fill="none" stroke="#377eb8" />
<path d="M928.125,2030.625 A35.858166261562246,35.858166261562246,0,0,0,933.6902502339126,2049.812165663109 M933.6902502339126,2049.812165663109 A93.83039863673494,93.83039863673494,0,0,0,946.6098954365974,2065.953041187105 M946.6098954365974,2065.953041187105" close="False" data-weight="1.0" stroke-width="6" fill="none" stroke="#377eb8" />
<path d="M928.125,1955.625 C928.125,1966.875,928.125,1989.375,928.125,2000.625" close="False" data-weight="0.0" stroke-width="6" fill="none" stroke="#377eb8" />
<path d="M794.0349025766973,1844.0349025766973 C786.0799512883486,1836.0799512883486,770.1700487116514,1820.1700487116514,762.2150974233027,1812.2150974233027" close="False" data-weight="0.0" stroke-width="6" fill="none" stroke="#377eb8" />
<path d="M719.0349025766973,1769.0349025766973 C711.0799512883486,1761.0799512883486,695.1700487116514,1745.1700487116514,687.2150974233027,1737.2150974233027" close="False" data-weight="0.0" stroke-width="6" fill="none" stroke="#377eb8" />
<path d="M644.0349025766973,1694.0349025766973 C636.0799512883486,1686.0799512883486,620.1700487116514,1670.1700487116514,612.2150974233027,1662.2150974233027" close="False" data-weight="0.0" stroke-width="6" fill="none" stroke="#377eb8" />
<path d="M569.0349025766973,1619.0349025766973 C561.0799512883486,1611.0799512883486,545.1700487116514,1595.1700487116514,537.2150974233027,1587.2150974233027" close="False" data-weight="0.0" stroke-width="6" fill="none" stroke="#377eb8" />
<path d="M494.03490257669733,1544.0349025766973 C486.0799512883487,1536.0799512883486,470.1700487116513,1520.1700487116514,462.21509742330267,1512.2150974233027" close="False" data-weight="0.0" stroke-width="6" fill="none" stroke="#377eb8" />
<path d="M419.03490257669733,1469.0349025766973 C411.0799512883487,1461.0799512883486,395.1700487116513,1445.1700487116514,387.21509742330267,1437.2150974233027" close="False" data-weight="0.0" stroke-width="6" fill="none" stroke="#377eb8" />
<path d="M344.03490257669733,1394.0349025766973 A54.31980515339551,54.31980515339551,0,0,0,326.41228948150405,1382.259848962172 M326.41228948150405,1382.259848962172 A54.31980515339387,54.31980515339387,0,0,0,305.625,1378.125 M305.625,1378.125" close="False" data-weight="1.0" stroke-width="6" fill="none" stroke="#377eb8" />
<path d="M275.625,1378.125 C264.375,1378.125,241.875,1378.125,230.625,1378.125" close="False" data-weight="0.0" stroke-width="6" fill="none" stroke="#377eb8" />
<path d="M178.125,1580.625 A54.31980515339286,54.31980515339286,0,0,1,173.99015103782762,1601.412289481504 M173.99015103782762,1601.412289481504 A54.319805153396246,54.319805153396246,0,0,1,162.21509742330267,1619.0349025766973 M162.21509742330267,1619.0349025766973" close="False" data-weight="1.0" stroke-width="6" fill="none" stroke="#377eb8" />
<path d="M178.125,1505.625 C178.125,1516.875,178.125,1539.375,178.125,1550.625" close="False" data-weight="0.0" stroke-width="6" fill="none" stroke="#377eb8" />
<path d="M178.125,1430.625 C178.125,1441.875,178.125,1464.375,178.125,1475.625" close="False" data-weight="0.0" stroke-width="6" fill="none" stroke="#377eb8" />
<path d="M103.125,2255.625 C103.125,2266.875,103.125,2289.375,103.125,2300.625" close="False" data-weight="0.0" stroke-width="6" fill="none" stroke="#377eb8" />
<path d="M103.125,2180.625 C103.125,2191.875,103.125,2214.375,103.125,2225.625" close="False" data-weight="0.0" stroke-width="6" fill="none" stroke="#377eb8" />
<path d="M103.125,2105.625 C103.125,2116.875,103.125,2139.375,103.125,2150.625" close="False" data-weight="0.0" stroke-width="6" fill="none" stroke="#377eb8" />
<path d="M103.125,2030.625 C103.125,2041.875,103.125,2064.375,103.125,2075.625" close="False" data-weight="0.0" stroke-width="6" fill="none" stroke="#377eb8" />
<path d="M103.125,1955.625 C103.125,1966.875,103.125,1989.375,103.125,2000.625" close="False" data-weight="0.0" stroke-width="6" fill="none" stroke="#377eb8" />
<path d="M103.125,1880.625 C103.125,1891.875,103.125,1914.375,103.125,1925.625" close="False" data-weight="0.0" stroke-width="6" fill="none" stroke="#377eb8" />
<path d="M103.125,1805.625 C103.125,1816.875,103.125,1839.375,103.125,1850.625" close="False" data-weight="0.0" stroke-width="6" fill="none" stroke="#377eb8" />
<path d="M103.125,1730.625 C103.125,1741.875,103.125,1764.375,103.125,1775.625" close="False" data-weight="0.0" stroke-width="6" fill="none" stroke="#377eb8" />
<path d="M1232.125,2375.2665898254845 L1232.125,2405.9834101745155" close="False" data-weight="1.75" stroke-width="6" fill="none" stroke="#377eb8" />
<path d="M1175.2665898254845,2349.125 L1205.9834101745155,2349.125" close="False" data-weight="1.75" stroke-width="6" fill="none" stroke="#377eb8" />
<path d="M1157.125,2300.2665898254845 L1157.125,2330.9834101745155" close="False" data-weight="1.75" stroke-width="6" fill="none" stroke="#377eb8" />
<path d="M1096.6098954365973,2215.953041187105 L1140.2969588128951,2259.6401045634025" close="False" data-weight="2.060660171779821" stroke-width="6" fill="none" stroke="#377eb8" />
<path d="M1021.6098954365676,2140.953041187075 L1065.2969588128951,2184.6401045634025" close="False" data-weight="2.060660171779821" stroke-width="6" fill="none" stroke="#377eb8" />
<path d="M946.6098954365974,2065.953041187105 L990.2969588129248,2109.6401045634325" close="False" data-weight="2.060660171779821" stroke-width="6" fill="none" stroke="#377eb8" />
<path d="M928.125,2000.625 L928.125,2030.625" close="False" data-weight="1.75" stroke-width="6" fill="none" stroke="#377eb8" />
<path d="M928.125,1925.625 L928.125,1955.625" close="False" data-weight="1.75" stroke-width="6" fill="none" stroke="#377eb8" />
<path d="M869.0349025766973,1962.2150974233027 L912.2150974233027,1919.0349025766973" close="False" data-weight="2.060660171779821" stroke-width="6" fill="none" stroke="#377eb8" />
<path d="M861.125,1924.1547408448132 L861.125,1957.0952591551868" close="False" data-weight="1.75" stroke-width="6" fill="none" stroke="#377eb8" />
<path d="M794.0349025766973,1844.0349025766973 L837.2150974233027,1887.2150974233027" close="False" data-weight="2.060660171779821" stroke-width="6" fill="none" stroke="#377eb8" />
<path d="M719.0349025766973,1769.0349025766973 L762.2150974233027,1812.2150974233027" close="False" data-weight="2.060660171779821" stroke-width="6" fill="none" stroke="#377eb8" />
<path d="M644.0349025766973,1694.0349025766973 L687.2150974233027,1737.2150974233027" close="False" data-weight="2.060660171779821" stroke-width="6" fill="none" stroke="#377eb8" />
<path d="M569.0349025766973,1619.0349025766973 L612.2150974233027,1662.2150974233027" close="False" data-weight="2.060660171779821" stroke-width="6" fill="none" stroke="#377eb8" />
<path d="M494.03490257669733,1544.0349025766973 L537.2150974233027,1587.2150974233027" close="False" data-weight="2.060660171779821" stroke-width="6" fill="none" stroke="#377eb8" />
<path d="M419.03490257669733,1469.0349025766973 L462.21509742330267,1512.2150974233027" close="False" data-weight="2.060660171779821" stroke-width="6" fill="none" stroke="#377eb8" />
<path d="M344.03490257669733,1394.0349025766973 L387.21509742330267,1437.2150974233027" close="False" data-weight="2.060660171779821" stroke-width="6" fill="none" stroke="#377eb8" />
<path d="M275.625,1378.125 L305.625,1378.125" close="False" data-weight="1.75" stroke-width="6" fill="none" stroke="#377eb8" />
<path d="M178.125,2375.625 L178.125,2405.625" close="False" data-weight="1.75" stroke-width="6" fill="none" stroke="#377eb8" />
<path d="M178.125,2300.625 L178.125,2330.625" close="False" data-weight="1.75" stroke-width="6" fill="none" stroke="#377eb8" />
<path d="M178.125,1550.625 L178.125,1580.625" close="False" data-weight="1.75" stroke-width="6" fill="none" stroke="#377eb8" />
<path d="M178.125,1475.625 L178.125,1505.625" close="False" data-weight="1.75" stroke-width="6" fill="none" stroke="#377eb8" />
<path d="M178.125,1400.625 L178.125,1430.625" close="False" data-weight="1.75" stroke-width="6" fill="none" stroke="#377eb8" />
<path d="M200.625,1378.125 L230.625,1378.125" close="False" data-weight="1.75" stroke-width="6" fill="none" stroke="#377eb8" />
<path d="M119.03490257669732,2369.0349025766973 L162.2150974233027,2412.2150974233027" close="False" data-weight="2.060660171779821" stroke-width="6" fill="none" stroke="#377eb8" />
<path d="M103.125,2300.625 L103.125,2330.625" close="False" data-weight="1.75" stroke-width="6" fill="none" stroke="#377eb8" />
<path d="M103.125,2225.625 L103.125,2255.625" close="False" data-weight="1.75" stroke-width="6" fill="none" stroke="#377eb8" />
<path d="M103.125,2150.625 L103.125,2180.625" close="False" data-weight="1.75" stroke-width="6" fill="none" stroke="#377eb8" />
<path d="M103.125,2075.625 L103.125,2105.625" close="False" data-weight="1.75" stroke-width="6" fill="none" stroke="#377eb8" />
<path d="M103.125,2000.625 L103.125,2030.625" close="False" data-weight="1.75" stroke-width="6" fill="none" stroke="#377eb8" />
<path d="M103.125,1925.625 L103.125,1955.625" close="False" data-weight="1.75" stroke-width="6" fill="none" stroke="#377eb8" />
<path d="M103.125,1850.625 L103.125,1880.625" close="False" data-weight="1.75" stroke-width="6" fill="none" stroke="#377eb8" />
<path d="M103.125,1775.625 L103.125,1805.625" close="False" data-weight="1.75" stroke-width="6" fill="none" stroke="#377eb8" />
<path d="M103.125,1700.625 L103.125,1730.625" close="False" data-weight="1.75" stroke-width="6" fill="none" stroke="#377eb8" />
<path d="M119.03490257669732,1662.2150974233027 L162.2150974233027,1619.0349025766973" close="False" data-weight="2.060660171779821" stroke-width="6" fill="none" stroke="#377eb8" />
<path d="M1899.125,980.9834101745155 A49.45452644918828,49.45452644918828,0,0,1,1895.360498327255,999.9088381020805 M1895.360498327255,999.9088381020805 A49.454526449185416,49.454526449185416,0,0,1,1884.6401045634027,1015.953041187105 M1884.6401045634027,1015.953041187105" close="False" data-weight="1.0" stroke-width="6" fill="none" stroke="#e41a1c" />
<path d="M1899.125,905.9834101745155 C1899.125,917.0542050872577,1899.125,939.1957949127423,1899.125,950.2665898254845" close="False" data-weight="0.0" stroke-width="6" fill="none" stroke="#e41a1c" />
<path d="M1899.125,830.9834101745155 C1899.125,842.0542050872577,1899.125,864.1957949127423,1899.125,875.2665898254845" close="False" data-weight="0.0" stroke-width="6" fill="none" stroke="#e41a1c" />
<path d="M1903.125,725.625 A54.31980515339637,54.31980515339637,0,0,0,1898.990151037828,704.837710518496 M1898.990151037828,704.837710518496 A54.31980515339273,54.31980515339273,0,0,0,1887.2150974233027,687.2150974233027 M1887.2150974233027,687.2150974233027" close="False" data-weight="1.0" stroke-width="6" fill="none" stroke="#e41a1c" />
<path d="M1844.0349025766973,644.0349025766973 C1836.0799512883486,636.0799512883486,1820.1700487116514,620.1700487116514,1812.2150974233027,612.2150974233027" close="False" data-weight="0.0" stroke-width="6" fill="none" stroke="#e41a1c" />
<path d="M1769.0349025766973,569.0349025766973 C1761.0799512883486,561.0799512883486,1745.1700487116514,545.1700487116514,1737.2150974233027,537.2150974233027" close="False" data-weight="0.0" stroke-width="6" fill="none" stroke="#e41a1c" />
<path d="M1694.0349025766973,494.03490257669733 C1686.0799512883486,486.0799512883487,1670.1700487116514,470.1700487116513,1662.2150974233027,462.21509742330267" close="False" data-weight="0.0" stroke-width="6" fill="none" stroke="#e41a1c" />
<path d="M1619.0349025766973,419.03490257669733 C1611.0799512883486,411.0799512883487,1595.1700487116514,395.1700487116513,1587.2150974233027,387.21509742330267" close="False" data-weight="0.0" stroke-width="6" fill="none" stroke="#e41a1c" />
<path d="M1544.0349025766973,344.03490257669733 C1536.0799512883486,336.0799512883487,1520.1700487116514,320.1700487116513,1512.2150974233027,312.21509742330267" close="False" data-weight="0.0" stroke-width="6" fill="none" stroke="#e41a1c" />
<path d="M1469.0349025766973,269.03490257669733 C1461.0799512883486,261.0799512883487,1445.1700487116514,245.1700487116513,1437.2150974233027,237.21509742330267" close="False" data-weight="0.0" stroke-width="6" fill="none" stroke="#e41a1c" />
<path d="M1325.625,103.125 C1314.375,103.125,1291.875,103.125,1280.625,103.125" close="False" data-weight="0.0" stroke-width="6" fill="none" stroke="#e41a1c" />
<path d="M1250.625,103.125 C1239.375,103.125,1216.875,103.125,1205.625,103.125" close="False" data-weight="0.0" stroke-width="6" fill="none" stroke="#e41a1c" />
<path d="M1175.625,103.125 C1164.375,103.125,1141.875,103.125,1130.625,103.125" close="False" data-weight="0.0" stroke-width="6" fill="none" stroke="#e41a1c" />
<path d="M1100.625,103.125 A54.31980515339285,54.31980515339285,0,0,0,1079.837710518496,107.25984896217241 M1079.837710518496,107.25984896217241 A54.31980515339624,54.31980515339624,0,0,0,1062.2150974233027,119.03490257669733 M1062.2150974233027,119.03490257669733" close="False" data-weight="1.0" stroke-width="6" fill="none" stroke="#e41a1c" />
<path d="M1019.0349025766973,162.2150974233027 C1011.0799512883486,170.17004871165133,995.1700487116514,186.0799512883487,987.2150974233027,194.03490257669733" close="False" data-weight="0.0" stroke-width="6" fill="none" stroke="#e41a1c" />
<path d="M944.0349025766973,237.2150974233027 C936.0799512883486,245.17004871165133,920.1700487116514,261.0799512883487,912.2150974233027,269.03490257669733" close="False" data-weight="0.0" stroke-width="6" fill="none" stroke="#e41a1c" />
<path d="M869.0349025766973,312.21509742330267 C861.0799512883486,320.1700487116513,845.1700487116514,336.0799512883487,837.2150974233027,344.03490257669733" close="False" data-weight="0.0" stroke-width="6" fill="none" stroke="#e41a1c" />
<path d="M778.125,755.625 A54.31980515339478,54.31980515339478,0,0,1,773.9901510378278,776.4122894815039 M773.9901510378278,776.4122894815039 A54.319805153394256,54.319805153394256,0,0,1,762.2150974233027,794.0349025766973 M762.2150974233027,794.0349025766973" close="False" data-weight="1.0" stroke-width="6" fill="none" stroke="#e41a1c" />
<path d="M778.125,680.625 C778.125,691.875,778.125,714.375,778.125,725.625" close="False" data-weight="0.0" stroke-width="6" fill="none" stroke="#e41a1c" />
<path d="M778.125,605.625 C778.125,616.875,778.125,639.375,778.125,650.625" close="False" data-weight="0.0" stroke-width="6" fill="none" stroke="#e41a1c" />
<path d="M778.125,530.625 C778.125,541.875,778.125,564.375,778.125,575.625" close="False" data-weight="0.0" stroke-width="6" fill="none" stroke="#e41a1c" />
<path d="M719.0349025766973,837.2150974233027 C711.0799512883486,845.1700487116514,695.1700487116514,861.0799512883486,687.2150974233027,869.0349025766973" close="False" data-weight="0.0" stroke-width="6" fill="none" stroke="#e41a1c" />
<path d="M644.0349025766973,912.2150974233027 C636.0799512883486,920.1700487116514,620.1700487116514,936.0799512883486,612.2150974233027,944.0349025766973" close="False" data-weight="0.0" stroke-width="6" fill="none" stroke="#e41a1c" />
<path d="M569.0349025766973,987.2150974233027 C561.0799512883486,995.1700487116514,545.1700487116514,1011.0799512883486,537.2150974233027,1019.0349025766973" close="False" data-weight="0.0" stroke-width="6" fill="none" stroke="#e41a1c" />
<path d="M494.03490257669733,1062.2150974233027 C486.0799512883487,1070.1700487116514,470.1700487116513,1086.0799512883486,462.21509742330267,1094.0349025766973" close="False" data-weight="0.0" stroke-width="6" fill="none" stroke="#e41a1c" />
<path d="M419.03490257669733,1137.2150974233027 C411.0799512883487,1145.1700487116514,395.1700487116513,1161.0799512883486,387.21509742330267,1169.0349025766973" close="False" data-weight="0.0" stroke-width="6" fill="none" stroke="#e41a1c" />
<path d="M344.03490257669733,1212.2150974233027 C336.0799512883487,1220.1700487116514,320.1700487116513,1236.0799512883486,312.21509742330267,1244.0349025766973" close="False" data-weight="0.0" stroke-width="6" fill="none" stroke="#e41a1c" />
<path d="M269.03490257669733,1287.2150974233027 C261.0799512883487,1295.1700487116514,245.1700487116513,1311.0799512883486,237.21509742330267,1319.0349025766973" close="False" data-weight="0.0" stroke-width="6" fill="none" stroke="#e41a1c" />
<path d="M1899.125,950.2665898254845 L1899.125,980.9834101745155" close="False" data-weight="1.75" stroke-width="6" fill="none" stroke="#e41a1c" />
<path d="M1899.125,875.2665898254845 L1899.125,905.9834101745155" close="False" data-weight="1.75" stroke-width="6" fill="none" stroke="#e41a1c" />
<path d="M1899.125,800.2665898254845 L1899.125,830.9834101745155" close="False" data-weight="1.75" stroke-width="6" fill="none" stroke="#e41a1c" />
<path d="M1903.125,725.625 L1903.125,755.625" close="False" data-weight="1.75" stroke-width="6" fill="none" stroke="#e41a1c" />
<path d="M1840.9530411871049,1059.6401045634027 L1884.6401045634027,1015.953041187105" close="False" data-weight="2.060660171779821" stroke-width="6" fill="none" stroke="#e41a1c" />
<path d="M1844.0349025766973,644.0349025766973 L1887.2150974233027,687.2150974233027" close="False" data-weight="2.060660171779821" stroke-width="6" fill="none" stroke="#e41a1c" />
<path d="M1775.2665898254845,1074.125 L1805.9834101745155,1074.125" close="False" data-weight="1.75" stroke-width="6" fill="none" stroke="#e41a1c" />
<path d="M1769.0349025766973,569.0349025766973 L1812.2150974233027,612.2150974233027" close="False" data-weight="2.060660171779821" stroke-width="6" fill="none" stroke="#e41a1c" />
<path d="M1694.0349025766973,494.03490257669733 L1737.2150974233027,537.2150974233027" close="False" data-weight="2.060660171779821" stroke-width="6" fill="none" stroke="#e41a1c" />
<path d="M1619.0349025766973,419.03490257669733 L1662.2150974233027,462.21509742330267" close="False" data-weight="2.060660171779821" stroke-width="6" fill="none" stroke="#e41a1c" />
<path d="M1544.0349025766973,344.03490257669733 L1587.2150974233027,387.21509742330267" close="False" data-weight="2.060660171779821" stroke-width="6" fill="none" stroke="#e41a1c" />
<path d="M1469.0349025766973,269.03490257669733 L1512.2150974233027,312.21509742330267" close="False" data-weight="2.060660171779821" stroke-width="6" fill="none" stroke="#e41a1c" />
<path d="M1394.0349025766973,194.03490257669733 L1437.2150974233027,237.2150974233027" close="False" data-weight="2.060660171779821" stroke-width="6" fill="none" stroke="#e41a1c" />
<path d="M1378.125,125.625 L1378.125,155.625" close="False" data-weight="1.75" stroke-width="6" fill="none" stroke="#e41a1c" />
<path d="M1325.625,103.125 L1355.625,103.125" close="False" data-weight="1.75" stroke-width="6" fill="none" stroke="#e41a1c" />
<path d="M1250.625,103.125 L1280.625,103.125" close="False" data-weight="1.75" stroke-width="6" fill="none" stroke="#e41a1c" />
<path d="M1175.625,103.125 L1205.625,103.125" close="False" data-weight="1.75" stroke-width="6" fill="none" stroke="#e41a1c" />
<path d="M1100.625,103.125 L1130.625,103.125" close="False" data-weight="1.75" stroke-width="6" fill="none" stroke="#e41a1c" />
<path d="M1019.0349025766973,162.21509742330267 L1062.2150974233027,119.0349025766973" close="False" data-weight="2.060660171779821" stroke-width="6" fill="none" stroke="#e41a1c" />
<path d="M944.0349025766973,237.21509742330267 L987.2150974233027,194.0349025766973" close="False" data-weight="2.060660171779821" stroke-width="6" fill="none" stroke="#e41a1c" />
<path d="M869.0349025766973,312.21509742330267 L912.2150974233027,269.03490257669733" close="False" data-weight="2.060660171779821" stroke-width="6" fill="none" stroke="#e41a1c" />
<path d="M778.125,725.625 L778.125,755.625" close="False" data-weight="1.75" stroke-width="6" fill="none" stroke="#e41a1c" />
<path d="M778.125,650.625 L778.125,680.625" close="False" data-weight="1.75" stroke-width="6" fill="none" stroke="#e41a1c" />
<path d="M778.125,575.625 L778.125,605.625" close="False" data-weight="1.75" stroke-width="6" fill="none" stroke="#e41a1c" />
<path d="M778.125,500.625 L778.125,530.625" close="False" data-weight="1.75" stroke-width="6" fill="none" stroke="#e41a1c" />
<path d="M782.125,425.2665898254845 L782.125,455.9834101745155" close="False" data-weight="1.75" stroke-width="6" fill="none" stroke="#e41a1c" />
<path d="M794.0349025766973,387.21509742330267 L837.2150974233027,344.03490257669733" close="False" data-weight="2.060660171779821" stroke-width="6" fill="none" stroke="#e41a1c" />
<path d="M719.0349025766973,837.2150974233027 L762.2150974233027,794.0349025766973" close="False" data-weight="2.060660171779821" stroke-width="6" fill="none" stroke="#e41a1c" />
<path d="M644.0349025766973,912.2150974233027 L687.2150974233027,869.0349025766973" close="False" data-weight="2.060660171779821" stroke-width="6" fill="none" stroke="#e41a1c" />
<path d="M569.0349025766973,987.2150974233027 L612.2150974233027,944.0349025766973" close="False" data-weight="2.060660171779821" stroke-width="6" fill="none" stroke="#e41a1c" />
<path d="M494.03490257669733,1062.2150974233027 L537.2150974233027,1019.0349025766973" close="False" data-weight="2.060660171779821" stroke-width="6" fill="none" stroke="#e41a1c" />
<path d="M419.03490257669733,1137.2150974233027 L462.21509742330267,1094.0349025766973" close="False" data-weight="2.060660171779821" stroke-width="6" fill="none" stroke="#e41a1c" />
<path d="M344.03490257669733,1212.2150974233027 L387.21509742330267,1169.0349025766973" close="False" data-weight="2.060660171779821" stroke-width="6" fill="none" stroke="#e41a1c" />
<path d="M269.03490257669733,1287.2150974233027 L312.21509742330267,1244.0349025766973" close="False" data-weight="2.060660171779821" stroke-width="6" fill="none" stroke="#e41a1c" />
<path d="M194.03490257669733,1362.2150974233027 L237.2150974233027,1319.0349025766973" close="False" data-weight="2.060660171779821" stroke-width="6" fill="none" stroke="#e41a1c" />
<image x="2395.625" y="1645.625" width="65" height="65" xlink:href="designspace-test/./img/ds_dataset1_40_21_thumb.png">
<title>21</title>
</image>
<image x="2395.625" y="1120.625" width="65" height="65" xlink:href="designspace-test/./img/ds_dataset1_40_37_thumb.png">
<title>37</title>
</image>
<image x="2320.625" y="1570.625" width="65" height="65" xlink:href="designspace-test/./img/ds_dataset1_40_27_thumb.png">
<title>27</title>
</image>
<image x="2095.625" y="2320.625" width="65" height="65" xlink:href="designspace-test/./img/ds_dataset1_40_39_thumb.png">
<title>39</title>
</image>
<image x="2095.625" y="2245.625" width="65" height="65" xlink:href="designspace-test/./img/ds_dataset1_40_30_thumb.png">
<title>30</title>
</image>
<image x="2095.625" y="2170.625" width="65" height="65" xlink:href="designspace-test/./img/ds_dataset1_40_25_thumb.png">
<title>25</title>
</image>
<image x="2095.625" y="2095.625" width="65" height="65" xlink:href="designspace-test/./img/ds_dataset1_40_13_thumb.png">
<title>13</title>
</image>
<image x="2095.625" y="2020.625" width="65" height="65" xlink:href="designspace-test/./img/ds_dataset1_40_11_thumb.png">
<title>11</title>
</image>
<image x="2020.625" y="2395.625" width="65" height="65" xlink:href="designspace-test/./img/ds_dataset1_40_33_thumb.png">
<title>33</title>
</image>
<image x="2020.625" y="2320.625" width="65" height="65" xlink:href="designspace-test/./img/ds_dataset1_40_31_thumb.png">
<title>31</title>
</image>
<image x="2020.625" y="2245.625" width="65" height="65" xlink:href="designspace-test/./img/ds_dataset1_40_24_thumb.png">
<title>24</title>
</image>
<image x="2020.625" y="2170.625" width="65" height="65" xlink:href="designspace-test/./img/ds_dataset1_40_17_thumb.png">
<title>17</title>
</image>
<image x="2020.625" y="2095.625" width="65" height="65" xlink:href="designspace-test/./img/ds_dataset1_40_10_thumb.png">
<title>10</title>
</image>
<image x="2020.625" y="2020.625" width="65" height="65" xlink:href="designspace-test/./img/ds_dataset1_40_9_thumb.png">
<title>9</title>
</image>
<image x="1945.625" y="2245.625" width="65" height="65" xlink:href="designspace-test/./img/ds_dataset1_40_16_thumb.png">
<title>16</title>
</image>
<image x="1945.625" y="2170.625" width="65" height="65" xlink:href="designspace-test/./img/ds_dataset1_40_14_thumb.png">
<title>14</title>
</image>
<image x="1870.625" y="745.625" width="65" height="65" xlink:href="designspace-test/./img/ds_dataset1_40_19_thumb.png">
<title>19</title>
</image>
<image x="1795.625" y="1045.625" width="65" height="65" xlink:href="designspace-test/./img/ds_dataset1_40_32_thumb.png">
<title>32</title>
</image>
<image x="1720.625" y="1045.625" width="65" height="65" xlink:href="designspace-test/./img/ds_dataset1_40_4_thumb.png">
<title>4</title>
</image>
<image x="1345.625" y="145.625" width="65" height="65" xlink:href="designspace-test/./img/ds_dataset1_40_2_thumb.png">
<title>2</title>
</image>
<image x="1345.625" y="70.625" width="65" height="65" xlink:href="designspace-test/./img/ds_dataset1_40_12_thumb.png">
<title>12</title>
</image>
<image x="1270.625" y="1495.625" width="65" height="65" xlink:href="designspace-test/./img/ds_dataset1_40_1_thumb.png">
<title>1</title>
</image>
<image x="1270.625" y="1420.625" width="65" height="65" xlink:href="designspace-test/./img/ds_dataset1_40_36_thumb.png">
<title>36</title>
</image>
<image x="1195.625" y="2395.625" width="65" height="65" xlink:href="designspace-test/./img/ds_dataset1_40_6_thumb.png">
<title>6</title>
</image>
<image x="1195.625" y="2320.625" width="65" height="65" xlink:href="designspace-test/./img/ds_dataset1_40_8_thumb.png">
<title>8</title>
</image>
<image x="1120.625" y="2320.625" width="65" height="65" xlink:href="designspace-test/./img/ds_dataset1_40_15_thumb.png">
<title>15</title>
</image>
<image x="1120.625" y="2245.625" width="65" height="65" xlink:href="designspace-test/./img/ds_dataset1_40_26_thumb.png">
<title>26</title>
</image>
<image x="895.625" y="1870.625" width="65" height="65" xlink:href="designspace-test/./img/ds_dataset1_40_29_thumb.png">
<title>29</title>
</image>
<image x="820.625" y="1945.625" width="65" height="65" xlink:href="designspace-test/./img/ds_dataset1_40_28_thumb.png">
<title>28</title>
</image>
<image x="820.625" y="1870.625" width="65" height="65" xlink:href="designspace-test/./img/ds_dataset1_40_3_thumb.png">
<title>3</title>
</image>
<image x="745.625" y="445.625" width="65" height="65" xlink:href="designspace-test/./img/ds_dataset1_40_38_thumb.png">
<title>38</title>
</image>
<image x="745.625" y="370.625" width="65" height="65" xlink:href="designspace-test/./img/ds_dataset1_40_22_thumb.png">
<title>22</title>
</image>
<image x="295.625" y="745.625" width="65" height="65" xlink:href="designspace-test/./img/ds_dataset1_40_23_thumb.png">
<title>23</title>
</image>
<image x="295.625" y="670.625" width="65" height="65" xlink:href="designspace-test/./img/ds_dataset1_40_35_thumb.png">
<title>35</title>
</image>
<image x="145.625" y="2395.625" width="65" height="65" xlink:href="designspace-test/./img/ds_dataset1_40_34_thumb.png">
<title>34</title>
</image>
<image x="145.625" y="2320.625" width="65" height="65" xlink:href="designspace-test/./img/ds_dataset1_40_7_thumb.png">
<title>7</title>
</image>
<image x="145.625" y="2245.625" width="65" height="65" xlink:href="designspace-test/./img/ds_dataset1_40_0_thumb.png">
<title>0</title>
</image>
<image x="145.625" y="1345.625" width="65" height="65" xlink:href="designspace-test/./img/ds_dataset1_40_18_thumb.png">
<title>18</title>
</image>
<image x="70.625" y="2320.625" width="65" height="65" xlink:href="designspace-test/./img/ds_dataset1_40_5_thumb.png">
<title>5</title>
</image>
<image x="70.625" y="1645.625" width="65" height="65" xlink:href="designspace-test/./img/ds_dataset1_40_20_thumb.png">
<title>20</title>
</image>
</svg>