<?xml version="1.0" encoding="UTF-8"?>
<svg xmlns="http://www.w3.org/2000/svg" xmlns:xlink="http://www.w3.org/1999/xlink"
     viewBox="0 0 1350 1350" preserveAspectRatio="xMidYMid meet">
<defs>
</defs>
<circle cx="103.125" cy="703.125" r="22.5" fill="white">
<title>3</title>
</circle>
<circle cx="178.125" cy="1153.125" r="22.5" fill="white">
<title>6</title>
</circle>
<circle cx="253.125" cy="178.125" r="22.5" fill="white">
<title>13</title>
</circle>
<circle cx="328.125" cy="628.125" r="22.5" fill="white">
<title>11</title>
</circle>
<circle cx="403.125" cy="328.125" r="22.5" fill="white">
<title>16</title>
</circle>
<circle cx="478.125" cy="103.125" r="22.5" fill="white">
<title>2</title>
</circle>
<circle cx="478.125" cy="928.125" r="22.5" fill="white">
<title>7</title>
</circle>
<circle cx="553.125" cy="703.125" r="22.5" fill="white">
<title>19</title>
</circle>
<circle cx="553.125" cy="1003.125" r="22.5" fill="white">
<title>14</title>
</circle>
<circle cx="703.125" cy="328.125" r="22.5" fill="white">
<title>18</title>
</circle>
<circle cx="703.125" cy="1003.125" r="22.5" fill="white">
<title>8</title>
</circle>
<circle cx="778.125" cy="1003.125" r="22.5" fill="white">
<title>12</title>
</circle>
<circle cx="853.125" cy="628.125" r="22.5" fill="white">
<title>4</title>
</circle>
<circle cx="928.125" cy="778.125" r="22.5" fill="white">
<title>0</title>
</circle>
<circle cx="1003.125" cy="1003.125" r="22.5" fill="white">
<title>17</title>
</circle>
<circle cx="1003.125" cy="1228.125" r="22.5" fill="white">
<title>5</title>
</circle>
<circle cx="1078.125" cy="178.125" r="22.5" fill="white">
<title>1</title>
</circle>
<circle cx="1078.125" cy="703.125" r="22.5" fill="white">
<title>10</title>
</circle>
<circle cx="1153.125" cy="178.125" r="22.5" fill="white">
<title>9</title>
</circle>
<circle cx="1153.125" cy="403.125" r="22.5" fill="white">
<title>15</title>
</circle>
<path d="M103.125,703.125 L178.125,628.125" data-sets="{'S3'}" stroke-width="7" stroke="white" />
<path d="M103.125,703.125 L178.125,703.125" data-sets="{'S2', 'S3'}" stroke-width="7" stroke="white" />
<path d="M178.125,628.125 L253.125,628.125" data-sets="{'S3'}" stroke-width="7" stroke="white" />
<path d="M178.125,703.125 L253.125,703.125" data-sets="{'S2', 'S3'}" stroke-width="7" stroke="white" />
<path d="M178.125,1153.125 L253.125,1078.125" data-sets="{'S5'}" stroke-width="7" stroke="white" />
<path d="M253.125,178.125 L328.125,103.125" data-sets="{'S3'}" stroke-width="7" stroke="white" />
<path d="M253.125,178.125 L328.125,253.125" data-sets="{'S3'}" stroke-width="7" stroke="white" />
<path d="M253.125,628.125 L328.125,628.125" data-sets="{'S3'}" stroke-width="7" stroke="white" />
<path d="M253.125,703.125 L328.125,703.125" data-sets="{'S2', 'S3'}" stroke-width="7" stroke="white" />
<path d="M253.125,1078.125 L328.125,1003.125" data-sets="{'S5'}" stroke-width="7" stroke="white" />
<path d="M328.125,103.125 L403.125,103.125" data-sets="{'S3'}" stroke-width="7" stroke="white" />
<path d="M328.125,253.125 L403.125,328.125" data-sets="{'S3'}" stroke-width="7" stroke="white" />
<path d="M328.125,403.125 L403.125,328.125" data-sets="{'S3'}" stroke-width="7" stroke="white" />
<path d="M328.125,403.125 L328.125,478.125" data-sets="{'S3'}" stroke-width="7" stroke="white" />
<path d="M328.125,478.125 L328.125,553.125" data-sets="{'S3'}" stroke-width="7" stroke="white" />
<path d="M328.125,553.125 L328.125,628.125" data-sets="{'S3'}" stroke-width="7" stroke="white" />
<path d="M328.125,703.125 L403.125,703.125" data-sets="{'S2', 'S3'}" stroke-width="7" stroke="white" />
<path d="M328.125,1003.125 L403.125,928.125" data-sets="{'S5'}" stroke-width="7" stroke="white" />
<path d="M403.125,103.125 L478.125,103.125" data-sets="{'S3'}" stroke-width="7" stroke="white" />
<path d="M403.125,703.125 L478.125,703.125" data-sets="{'S2', 'S3'}" stroke-width="7" stroke="white" />
<path d="M403.125,928.125 L478.125,853.125" data-sets="{'S5'}" stroke-width="7" stroke="white" />
<path d="M478.125,103.125 L553.125,178.125" data-sets="{'S1'}" stroke-width="7" stroke="white" />
<path d="M478.125,703.125 L553.125,703.125" data-sets="{'S2', 'S3'}" stroke-width="7" stroke="white" />
<path d="M478.125,853.125 L553.125,778.125" data-sets="{'S5'}" stroke-width="7" stroke="white" />
<path d="M478.125,928.125 L553.125,853.125" data-sets="{'S4', 'S3'}" stroke-width="7" stroke="white" />
<path d="M478.125,928.125 L553.125,928.125" data-sets="{'S3'}" stroke-width="7" stroke="white" />
<path d="M478.125,928.125 L553.125,1003.125" data-sets="{'S4'}" stroke-width="7" stroke="white" />
<path d="M553.125,178.125 L628.125,253.125" data-sets="{'S1'}" stroke-width="7" stroke="white" />
<path d="M553.125,478.125 L628.125,403.125" data-sets="{'S4', 'S1'}" stroke-width="7" stroke="white" />
<path d="M553.125,478.125 L553.125,553.125" data-sets="{'S4', 'S1'}" stroke-width="7" stroke="white" />
<path d="M553.125,553.125 L553.125,628.125" data-sets="{'S4', 'S1'}" stroke-width="7" stroke="white" />
<path d="M553.125,628.125 L553.125,703.125" data-sets="{'S4', 'S1'}" stroke-width="7" stroke="white" />
<path d="M553.125,703.125 L553.125,778.125" data-sets="{'S2', 'S4', 'S3'}" stroke-width="7" stroke="white" />
<path d="M553.125,778.125 L628.125,703.125" data-sets="{'S5'}" stroke-width="7" stroke="white" />
<path d="M553.125,778.125 L553.125,853.125" data-sets="{'S2', 'S4', 'S3'}" stroke-width="7" stroke="white" />
<path d="M553.125,853.125 L553.125,928.125" data-sets="{'S2'}" stroke-width="7" stroke="white" />
<path d="M553.125,928.125 L628.125,853.125" data-sets="{'S3'}" stroke-width="7" stroke="white" />
<path d="M553.125,928.125 L553.125,1003.125" data-sets="{'S2'}" stroke-width="7" stroke="white" />
<path d="M553.125,1003.125 L628.125,1003.125" data-sets="{'S2', 'S4'}" stroke-width="7" stroke="white" />
<path d="M628.125,253.125 L703.125,328.125" data-sets="{'S1'}" stroke-width="7" stroke="white" />
<path d="M628.125,403.125 L703.125,328.125" data-sets="{'S4', 'S1'}" stroke-width="7" stroke="white" />
<path d="M628.125,703.125 L703.125,628.125" data-sets="{'S5'}" stroke-width="7" stroke="white" />
<path d="M628.125,853.125 L703.125,778.125" data-sets="{'S3'}" stroke-width="7" stroke="white" />
<path d="M628.125,1003.125 L703.125,1003.125" data-sets="{'S2', 'S4'}" stroke-width="7" stroke="white" />
<path d="M703.125,328.125 L703.125,403.125" data-sets="{'S5'}" stroke-width="7" stroke="white" />
<path d="M703.125,403.125 L703.125,478.125" data-sets="{'S5'}" stroke-width="7" stroke="white" />
<path d="M703.125,478.125 L703.125,553.125" data-sets="{'S5'}" stroke-width="7" stroke="white" />
<path d="M703.125,553.125 L703.125,628.125" data-sets="{'S5'}" stroke-width="7" stroke="white" />
<path d="M703.125,778.125 L778.125,703.125" data-sets="{'S3'}" stroke-width="7" stroke="white" />
<path d="M703.125,1003.125 L778.125,1003.125" data-sets="{'S2', 'S4'}" stroke-width="7" stroke="white" />
<path d="M778.125,703.125 L853.125,628.125" data-sets="{'S3'}" stroke-width="7" stroke="white" />
<path d="M778.125,928.125 L853.125,853.125" data-sets="{'S2', 'S4'}" stroke-width="7" stroke="white" />
<path d="M778.125,928.125 L778.125,1003.125" data-sets="{'S2', 'S4'}" stroke-width="7" stroke="white" />
<path d="M853.125,628.125 L928.125,628.125" data-sets="{'S4', 'S0', 'S3'}" stroke-width="7" stroke="white" />
<path d="M853.125,628.125 L853.125,703.125" data-sets="{'S4'}" stroke-width="7" stroke="white" />
<path d="M853.125,703.125 L928.125,778.125" data-sets="{'S4'}" stroke-width="7" stroke="white" />
<path d="M853.125,853.125 L928.125,778.125" data-sets="{'S2', 'S4'}" stroke-width="7" stroke="white" />
<path d="M928.125,628.125 L1003.125,553.125" data-sets="{'S4', 'S0', 'S3'}" stroke-width="7" stroke="white" />
<path d="M1003.125,553.125 L1078.125,478.125" data-sets="{'S4', 'S0', 'S3'}" stroke-width="7" stroke="white" />
<path d="M1003.125,778.125 L1078.125,703.125" data-sets="{'S4'}" stroke-width="7" stroke="white" />
<path d="M1003.125,778.125 L1003.125,853.125" data-sets="{'S4'}" stroke-width="7" stroke="white" />
<path d="M1003.125,853.125 L1003.125,928.125" data-sets="{'S4'}" stroke-width="7" stroke="white" />
<path d="M1003.125,928.125 L1003.125,1003.125" data-sets="{'S4'}" stroke-width="7" stroke="white" />
<path d="M1003.125,1003.125 L1003.125,1078.125" data-sets="{'S4'}" stroke-width="7" stroke="white" />
<path d="M1003.125,1078.125 L1003.125,1153.125" data-sets="{'S4'}" stroke-width="7" stroke="white" />
<path d="M1003.125,1153.125 L1003.125,1228.125" data-sets="{'S4'}" stroke-width="7" stroke="white" />
<path d="M1078.125,178.125 L1153.125,178.125" data-sets="{'S0'}" stroke-width="7" stroke="white" />
<path d="M1078.125,478.125 L1153.125,403.125" data-sets="{'S4', 'S0', 'S3'}" stroke-width="7" stroke="white" />
<path d="M1078.125,703.125 L1153.125,628.125" data-sets="{'S4'}" stroke-width="7" stroke="white" />
<path d="M1153.125,178.125 L1153.125,253.125" data-sets="{'S0'}" stroke-width="7" stroke="white" />
<path d="M1153.125,253.125 L1153.125,328.125" data-sets="{'S0'}" stroke-width="7" stroke="white" />
<path d="M1153.125,328.125 L1153.125,403.125" data-sets="{'S0'}" stroke-width="7" stroke="white" />
<path d="M1153.125,403.125 L1153.125,478.125" data-sets="{'S4'}" stroke-width="7" stroke="white" />
<path d="M1153.125,478.125 L1153.125,553.125" data-sets="{'S4'}" stroke-width="7" stroke="white" />
<path d="M1153.125,553.125 L1153.125,628.125" data-sets="{'S4'}" stroke-width="7" stroke="white" />
</svg>