<?xml version="1.0" encoding="UTF-8"?>
<svg xmlns="http://www.w3.org/2000/svg" xmlns:xlink="http://www.w3.org/1999/xlink"
     width="2550" height="2550" viewBox="0 0 2550 2550">
<defs>
</defs>
<path d="M1153.125,830.625 C1153.125,841.875,1153.125,864.375,1153.125,875.625" close="False" data-weight="0.0" stroke-width="6" fill="none" stroke="#ffff33" />
<path d="M1157.125,755.9834101745155 C1157.125,767.1885193388287,1153.125,789.4198908356868,1153.125,800.625" close="False" data-weight="0.0" stroke-width="6" fill="none" stroke="#ffff33" />
<path d="M1157.125,680.9834101745155 C1157.125,692.0542050872577,1157.125,714.1957949127423,1157.125,725.2665898254845" close="False" data-weight="0.0" stroke-width="6" fill="none" stroke="#ffff33" />
<path d="M1149.125,455.9834101745155 A93.83039863674753,93.83039863674753,0,0,1,1146.8472461960373,476.5323014451633 M1146.8472461960373,476.5323014451633 A35.85816626156032,35.85816626156032,0,0,1,1137.2150974233027,494.03490257669733 M1137.2150974233027,494.03490257669733" close="False" data-weight="1.0" stroke-width="6" fill="none" stroke="#ffff33" />
<path d="M1149.125,380.9834101745155 C1149.125,392.05420508725774,1149.125,414.19579491274226,1149.125,425.2665898254845" close="False" data-weight="0.0" stroke-width="6" fill="none" stroke="#ffff33" />
<path d="M1153.125,305.625 C1153.125,316.83010916431317,1149.125,339.06148066117134,1149.125,350.2665898254845" close="False" data-weight="0.0" stroke-width="6" fill="none" stroke="#ffff33" />
<path d="M1153.125,230.625 C1153.125,241.875,1153.125,264.375,1153.125,275.625" close="False" data-weight="0.0" stroke-width="6" fill="none" stroke="#ffff33" />
<path d="M1153.125,200.625 A54.3198051533966,54.3198051533966,0,0,0,1148.990151037828,179.8377105184959 M1148.990151037828,179.8377105184959 A54.31980515339265,54.31980515339265,0,0,0,1137.2150974233027,162.21509742330267 M1137.2150974233027,162.21509742330267" close="False" data-weight="1.0" stroke-width="6" fill="none" stroke="#ffff33" />
<path d="M1078.125,755.625 C1078.125,766.875,1078.125,789.375,1078.125,800.625" close="False" data-weight="0.0" stroke-width="6" fill="none" stroke="#ffff33" />
<path d="M1090.9530411871049,684.6401045634026 A49.45452644918799,49.45452644918799,0,0,1,1074.9088381020804,695.360498327255 M1074.9088381020804,695.360498327255 A49.45452644918544,49.45452644918544,0,0,1,1055.9834101745155,699.125 M1055.9834101745155,699.125" close="False" data-weight="1.0" stroke-width="6" fill="none" stroke="#ffff33" />
<path d="M1078.125,680.625 C1078.125,691.875,1078.125,714.375,1078.125,725.625" close="False" data-weight="0.0" stroke-width="6" fill="none" stroke="#ffff33" />
<path d="M1078.125,605.625 C1078.125,616.875,1078.125,639.375,1078.125,650.625" close="False" data-weight="0.0" stroke-width="6" fill="none" stroke="#ffff33" />
<path d="M1094.0349025766973,537.2150974233027 A54.31980515339554,54.31980515339554,0,0,0,1082.259848962172,554.837710518496 M1082.259848962172,554.837710518496 A54.319805153393645,54.319805153393645,0,0,0,1078.125,575.625 M1078.125,575.625" close="False" data-weight="1.0" stroke-width="6" fill="none" stroke="#ffff33" />
<path d="M1025.2665898254845,699.125 C1014.1957949127423,699.125,992.0542050872577,699.125,980.9834101745155,699.125" close="False" data-weight="0.0" stroke-width="6" fill="none" stroke="#ffff33" />
<path d="M950.2665898254845,699.125 C939.1957949127423,699.125,917.0542050872577,699.125,905.9834101745155,699.125" close="False" data-weight="0.0" stroke-width="6" fill="none" stroke="#ffff33" />
<path d="M875.2665898254845,699.125 C864.1957949127423,699.125,842.0542050872577,699.125,830.9834101745155,699.125" close="False" data-weight="0.0" stroke-width="6" fill="none" stroke="#ffff33" />
<path d="M800.2665898254845,699.125 C789.1957949127423,699.125,767.0542050872577,699.125,755.9834101745155,699.125" close="False" data-weight="0.0" stroke-width="6" fill="none" stroke="#ffff33" />
<path d="M646.6098954365974,640.953041187105 A57.45452644918628,57.45452644918628,0,0,0,627.970305561001,628.4984654126548 M627.970305561001,628.4984654126548 A57.4545264491876,57.4545264491876,0,0,0,605.9834101745155,624.125 M605.9834101745155,624.125" close="False" data-weight="1.0" stroke-width="6" fill="none" stroke="#ffff33" />
<path d="M575.2665898254845,624.125 C564.1957949127423,624.125,542.0542050872577,624.125,530.9834101745155,624.125" close="False" data-weight="0.0" stroke-width="6" fill="none" stroke="#ffff33" />
<path d="M500.2665898254845,624.125 C489.19579491274226,624.125,467.05420508725774,624.125,455.9834101745155,624.125" close="False" data-weight="0.0" stroke-width="6" fill="none" stroke="#ffff33" />
<path d="M425.2665898254845,624.125 C414.19579491274226,624.125,392.05420508725774,624.125,380.9834101745155,624.125" close="False" data-weight="0.0" stroke-width="6" fill="none" stroke="#ffff33" />
<path d="M1153.125,875.625 L1153.125,905.625" close="False" data-weight="1.75" stroke-width="6" fill="none" stroke="#ffff33" />
<path d="M1153.125,800.625 L1153.125,830.625" close="False" data-weight="1.75" stroke-width="6" fill="none" stroke="#ffff33" />
<path d="M1157.125,725.2665898254845 L1157.125,755.9834101745155" close="False" data-weight="1.75" stroke-width="6" fill="none" stroke="#ffff33" />
<path d="M1157.125,650.2665898254845 L1157.125,680.9834101745155" close="False" data-weight="1.75" stroke-width="6" fill="none" stroke="#ffff33" />
<path d="M1149.125,425.2665898254845 L1149.125,455.9834101745155" close="False" data-weight="1.75" stroke-width="6" fill="none" stroke="#ffff33" />
<path d="M1149.125,350.2665898254845 L1149.125,380.9834101745155" close="False" data-weight="1.75" stroke-width="6" fill="none" stroke="#ffff33" />
<path d="M1153.125,275.625 L1153.125,305.625" close="False" data-weight="1.75" stroke-width="6" fill="none" stroke="#ffff33" />
<path d="M1153.125,200.625 L1153.125,230.625" close="False" data-weight="1.75" stroke-width="6" fill="none" stroke="#ffff33" />
<path d="M1100.2665898254845,924.125 L1130.9834101745155,924.125" close="False" data-weight="1.75" stroke-width="6" fill="none" stroke="#ffff33" />
<path d="M1082.125,875.2665898254845 L1082.125,905.9834101745155" close="False" data-weight="1.75" stroke-width="6" fill="none" stroke="#ffff33" />
<path d="M1078.125,800.625 L1078.125,830.625" close="False" data-weight="1.75" stroke-width="6" fill="none" stroke="#ffff33" />
<path d="M1078.125,725.625 L1078.125,755.625" close="False" data-weight="1.75" stroke-width="6" fill="none" stroke="#ffff33" />
<path d="M1090.9530411871049,684.6401045634026 L1134.6401045634027,640.953041187105" close="False" data-weight="2.060660171779821" stroke-width="6" fill="none" stroke="#ffff33" />
<path d="M1078.125,650.625 L1078.125,680.625" close="False" data-weight="1.75" stroke-width="6" fill="none" stroke="#ffff33" />
<path d="M1078.125,575.625 L1078.125,605.625" close="False" data-weight="1.75" stroke-width="6" fill="none" stroke="#ffff33" />
<path d="M1094.0349025766973,537.2150974233027 L1137.2150974233027,494.03490257669733" close="False" data-weight="2.060660171779821" stroke-width="6" fill="none" stroke="#ffff33" />
<path d="M1078.125,125.625 L1078.125,155.625" close="False" data-weight="1.75" stroke-width="6" fill="none" stroke="#ffff33" />
<path d="M1094.0349025766973,119.03490257669732 L1137.2150974233027,162.2150974233027" close="False" data-weight="2.060660171779821" stroke-width="6" fill="none" stroke="#ffff33" />
<path d="M1025.2665898254845,699.125 L1055.9834101745155,699.125" close="False" data-weight="1.75" stroke-width="6" fill="none" stroke="#ffff33" />
<path d="M1025.625,178.125 L1055.625,178.125" close="False" data-weight="1.75" stroke-width="6" fill="none" stroke="#ffff33" />
<path d="M1003.125,125.625 L1003.125,155.625" close="False" data-weight="1.75" stroke-width="6" fill="none" stroke="#ffff33" />
<path d="M950.2665898254845,699.125 L980.9834101745155,699.125" close="False" data-weight="1.75" stroke-width="6" fill="none" stroke="#ffff33" />
<path d="M950.625,103.125 L980.625,103.125" close="False" data-weight="1.75" stroke-width="6" fill="none" stroke="#ffff33" />
<path d="M875.2665898254845,699.125 L905.9834101745155,699.125" close="False" data-weight="1.75" stroke-width="6" fill="none" stroke="#ffff33" />
<path d="M800.2665898254845,699.125 L830.9834101745155,699.125" close="False" data-weight="1.75" stroke-width="6" fill="none" stroke="#ffff33" />
<path d="M725.2665898254845,699.125 L755.9834101745155,699.125" close="False" data-weight="1.75" stroke-width="6" fill="none" stroke="#ffff33" />
<path d="M646.6098954365974,640.953041187105 L690.296958812895,684.6401045634026" close="False" data-weight="2.060660171779821" stroke-width="6" fill="none" stroke="#ffff33" />
<path d="M575.2665898254845,624.125 L605.9834101745155,624.125" close="False" data-weight="1.75" stroke-width="6" fill="none" stroke="#ffff33" />
<path d="M500.2665898254845,624.125 L530.9834101745155,624.125" close="False" data-weight="1.75" stroke-width="6" fill="none" stroke="#ffff33" />
<path d="M425.2665898254845,624.125 L455.9834101745155,624.125" close="False" data-weight="1.75" stroke-width="6" fill="none" stroke="#ffff33" />
<path d="M350.2665898254845,624.125 L380.9834101745155,624.125" close="False" data-weight="1.75" stroke-width="6" fill="none" stroke="#ffff33" />
<path d="M2375.625,1753.125 C2364.375,1753.125,2341.875,1753.125,2330.625,1753.125" close="False" data-weight="0.0" stroke-width="6" fill="none" stroke="#984ea3" />
<path d="M2371.6098954365975,1690.9530411871049 C2363.781661280672,1683.1248070311792,2348.1251929688206,1667.4683387193284,2340.296958812895,1659.6401045634027" close="False" data-weight="0.0" stroke-width="6" fill="none" stroke="#984ea3" />
<path d="M2300.625,1753.125 A54.31980515339296,54.31980515339296,0,0,0,2279.8377105184964,1757.2598489621723 M2279.8377105184964,1757.2598489621723 A54.31980515340005,54.31980515340005,0,0,0,2262.2150974233027,1769.0349025766973 M2262.2150974233027,1769.0349025766973" close="False" data-weight="1.0" stroke-width="6" fill="none" stroke="#984ea3" />
<path d="M2296.6098954365975,1615.9530411871049 C2288.781661280672,1608.1248070311792,2273.1251929688206,1592.4683387193284,2265.296958812895,1584.6401045634027" close="False" data-weight="0.0" stroke-width="6" fill="none" stroke="#984ea3" />
<path d="M2219.0349025766973,1812.2150974233027 C2211.0799512883486,1820.1700487116514,2195.1700487116514,1836.0799512883486,2187.2150974233027,1844.0349025766973" close="False" data-weight="0.0" stroke-width="6" fill="none" stroke="#984ea3" />
<path d="M2221.6098954365975,1540.9530411871049 C2213.781661280672,1533.1248070311792,2198.1251929688206,1517.4683387193284,2190.296958812895,1509.6401045634027" close="False" data-weight="0.0" stroke-width="6" fill="none" stroke="#984ea3" />
<path d="M2144.0349025766973,1887.2150974233027 C2136.0799512883486,1895.1700487116514,2120.1700487116514,1911.0799512883486,2112.2150974233027,1919.0349025766973" close="False" data-weight="0.0" stroke-width="6" fill="none" stroke="#984ea3" />
<path d="M2146.6098954365975,1465.9530411871049 C2138.6866867625763,1458.0298325130834,2120.138306097324,1445.1383060973242,2112.2150974233027,1437.2150974233027" close="False" data-weight="0.0" stroke-width="6" fill="none" stroke="#984ea3" />
<path d="M2069.0349025766973,1962.2150974233027 C2061.0799512883486,1970.1700487116514,2045.1700487116514,1986.0799512883486,2037.2150974233027,1994.0349025766973" close="False" data-weight="0.0" stroke-width="6" fill="none" stroke="#984ea3" />
<path d="M2069.0349025766973,1394.0349025766973 C2061.0799512883486,1386.0799512883486,2045.1700487116514,1370.1700487116514,2037.2150974233027,1362.2150974233027" close="False" data-weight="0.0" stroke-width="6" fill="none" stroke="#984ea3" />
<path d="M1994.0349025766973,2037.2150974233027 C1986.0799512883486,2045.1700487116514,1970.1700487116514,2061.0799512883486,1962.2150974233027,2069.0349025766973" close="False" data-weight="0.0" stroke-width="6" fill="none" stroke="#984ea3" />
<path d="M1994.0349025766973,1319.0349025766973 A54.3198051533949,54.3198051533949,0,0,0,1976.412289481504,1307.2598489621723 M1976.412289481504,1307.2598489621723 A54.3198051533941,54.3198051533941,0,0,0,1955.625,1303.125 M1955.625,1303.125" close="False" data-weight="1.0" stroke-width="6" fill="none" stroke="#984ea3" />
<path d="M1919.0349025766973,2112.2150974233027 C1911.0799512883486,2120.1700487116514,1895.1700487116514,2136.0799512883486,1887.2150974233027,2144.0349025766973" close="False" data-weight="0.0" stroke-width="6" fill="none" stroke="#984ea3" />
<path d="M1925.625,1303.125 C1914.375,1303.125,1891.875,1303.125,1880.625,1303.125" close="False" data-weight="0.0" stroke-width="6" fill="none" stroke="#984ea3" />
<path d="M1844.0349025766973,2187.2150974233027 C1836.0799512883486,2195.1700487116514,1820.1700487116514,2211.0799512883486,1812.2150974233027,2219.0349025766973" close="False" data-weight="0.0" stroke-width="6" fill="none" stroke="#984ea3" />
<path d="M1850.625,1303.125 C1839.375,1303.125,1816.875,1303.125,1805.625,1303.125" close="False" data-weight="0.0" stroke-width="6" fill="none" stroke="#984ea3" />
<path d="M1769.0349025766973,2262.2150974233027 C1761.0799512883486,2270.1700487116514,1745.1700487116514,2286.0799512883486,1737.2150974233027,2294.0349025766973" close="False" data-weight="0.0" stroke-width="6" fill="none" stroke="#984ea3" />
<path d="M1775.625,1303.125 C1764.375,1303.125,1741.875,1303.125,1730.625,1303.125" close="False" data-weight="0.0" stroke-width="6" fill="none" stroke="#984ea3" />
<path d="M1694.0349025766973,2337.2150974233027 C1686.0799512883486,2345.1700487116514,1670.1700487116514,2361.0799512883486,1662.2150974233027,2369.0349025766973" close="False" data-weight="0.0" stroke-width="6" fill="none" stroke="#984ea3" />
<path d="M1700.625,1303.125 C1689.375,1303.125,1666.875,1303.125,1655.625,1303.125" close="False" data-weight="0.0" stroke-width="6" fill="none" stroke="#984ea3" />
<path d="M1625.625,1303.125 C1614.375,1303.125,1591.875,1303.125,1580.625,1303.125" close="False" data-weight="0.0" stroke-width="6" fill="none" stroke="#984ea3" />
<path d="M1550.625,1303.125 C1539.375,1303.125,1516.875,1303.125,1505.625,1303.125" close="False" data-weight="0.0" stroke-width="6" fill="none" stroke="#984ea3" />
<path d="M1475.625,1303.125 C1464.375,1303.125,1441.875,1303.125,1430.625,1303.125" close="False" data-weight="0.0" stroke-width="6" fill="none" stroke="#984ea3" />
<path d="M1400.625,1303.125 C1389.375,1303.125,1366.875,1303.125,1355.625,1303.125" close="False" data-weight="0.0" stroke-width="6" fill="none" stroke="#984ea3" />
<path d="M1325.625,1303.125 C1314.375,1303.125,1291.875,1303.125,1280.625,1303.125" close="False" data-weight="0.0" stroke-width="6" fill="none" stroke="#984ea3" />
<path d="M1250.625,1303.125 C1239.375,1303.125,1216.875,1303.125,1205.625,1303.125" close="False" data-weight="0.0" stroke-width="6" fill="none" stroke="#984ea3" />
<path d="M1175.625,1303.125 C1164.375,1303.125,1141.875,1303.125,1130.625,1303.125" close="False" data-weight="0.0" stroke-width="6" fill="none" stroke="#984ea3" />
<path d="M1100.625,1303.125 C1089.375,1303.125,1066.875,1303.125,1055.625,1303.125" close="False" data-weight="0.0" stroke-width="6" fill="none" stroke="#984ea3" />
<path d="M1025.625,1303.125 C1014.375,1303.125,991.875,1303.125,980.625,1303.125" close="False" data-weight="0.0" stroke-width="6" fill="none" stroke="#984ea3" />
<path d="M950.625,1303.125 C939.375,1303.125,916.875,1303.125,905.625,1303.125" close="False" data-weight="0.0" stroke-width="6" fill="none" stroke="#984ea3" />
<path d="M875.625,1303.125 C864.375,1303.125,841.875,1303.125,830.625,1303.125" close="False" data-weight="0.0" stroke-width="6" fill="none" stroke="#984ea3" />
<path d="M800.625,1303.125 C789.375,1303.125,766.875,1303.125,755.625,1303.125" close="False" data-weight="0.0" stroke-width="6" fill="none" stroke="#984ea3" />
<path d="M725.625,1303.125 C714.375,1303.125,691.875,1303.125,680.625,1303.125" close="False" data-weight="0.0" stroke-width="6" fill="none" stroke="#984ea3" />
<path d="M644.0349025766973,762.2150974233027 C636.0799512883486,770.1700487116514,620.1700487116514,786.0799512883486,612.2150974233027,794.0349025766973" close="False" data-weight="0.0" stroke-width="6" fill="none" stroke="#984ea3" />
<path d="M553.125,1205.625 A54.31980515339285,54.31980515339285,0,0,0,557.2598489621724,1226.412289481504 M557.2598489621724,1226.412289481504 A54.31980515339619,54.31980515339619,0,0,0,569.0349025766973,1244.0349025766973 M569.0349025766973,1244.0349025766973" close="False" data-weight="1.0" stroke-width="6" fill="none" stroke="#984ea3" />
<path d="M553.125,1130.625 C553.125,1141.875,553.125,1164.375,553.125,1175.625" close="False" data-weight="0.0" stroke-width="6" fill="none" stroke="#984ea3" />
<path d="M553.125,1055.625 C553.125,1066.875,553.125,1089.375,553.125,1100.625" close="False" data-weight="0.0" stroke-width="6" fill="none" stroke="#984ea3" />
<path d="M553.125,980.625 C553.125,991.875,553.125,1014.375,553.125,1025.625" close="False" data-weight="0.0" stroke-width="6" fill="none" stroke="#984ea3" />
<path d="M553.125,905.625 C553.125,916.875,553.125,939.375,553.125,950.625" close="False" data-weight="0.0" stroke-width="6" fill="none" stroke="#984ea3" />
<path d="M569.0349025766973,837.2150974233027 A54.3198051533949,54.3198051533949,0,0,0,557.2598489621721,854.8377105184961 M557.2598489621721,854.8377105184961 A54.31980515339421,54.31980515339421,0,0,0,553.125,875.625 M553.125,875.625" close="False" data-weight="1.0" stroke-width="6" fill="none" stroke="#984ea3" />
<path d="M2375.625,1753.125 L2405.625,1753.125" close="False" data-weight="1.75" stroke-width="6" fill="none" stroke="#984ea3" />
<path d="M2371.6098954365975,1690.9530411871049 L2415.296958812895,1734.6401045634027" close="False" data-weight="2.060660171779821" stroke-width="6" fill="none" stroke="#984ea3" />
<path d="M2300.625,1753.125 L2330.625,1753.125" close="False" data-weight="1.75" stroke-width="6" fill="none" stroke="#984ea3" />
<path d="M2296.6098954365975,1615.9530411871049 L2340.296958812895,1659.6401045634027" close="False" data-weight="2.060660171779821" stroke-width="6" fill="none" stroke="#984ea3" />
<path d="M2219.0349025766973,1812.2150974233027 L2262.2150974233027,1769.0349025766973" close="False" data-weight="2.060660171779821" stroke-width="6" fill="none" stroke="#984ea3" />
<path d="M2221.6098954365975,1540.9530411871049 L2265.296958812895,1584.6401045634027" close="False" data-weight="2.060660171779821" stroke-width="6" fill="none" stroke="#984ea3" />
<path d="M2144.0349025766973,1887.2150974233027 L2187.2150974233027,1844.0349025766973" close="False" data-weight="2.060660171779821" stroke-width="6" fill="none" stroke="#984ea3" />
<path d="M2146.6098954365975,1465.9530411871049 L2190.296958812895,1509.6401045634027" close="False" data-weight="2.060660171779821" stroke-width="6" fill="none" stroke="#984ea3" />
<path d="M2069.0349025766973,1962.2150974233027 L2112.2150974233027,1919.0349025766973" close="False" data-weight="2.060660171779821" stroke-width="6" fill="none" stroke="#984ea3" />
<path d="M2069.0349025766973,1394.0349025766973 L2112.2150974233027,1437.2150974233027" close="False" data-weight="2.060660171779821" stroke-width="6" fill="none" stroke="#984ea3" />
<path d="M1994.0349025766973,2037.2150974233027 L2037.2150974233027,1994.0349025766973" close="False" data-weight="2.060660171779821" stroke-width="6" fill="none" stroke="#984ea3" />
<path d="M1994.0349025766973,1319.0349025766973 L2037.2150974233027,1362.2150974233027" close="False" data-weight="2.060660171779821" stroke-width="6" fill="none" stroke="#984ea3" />
<path d="M1919.0349025766973,2112.2150974233027 L1962.2150974233027,2069.0349025766973" close="False" data-weight="2.060660171779821" stroke-width="6" fill="none" stroke="#984ea3" />
<path d="M1925.625,1303.125 L1955.625,1303.125" close="False" data-weight="1.75" stroke-width="6" fill="none" stroke="#984ea3" />
<path d="M1844.0349025766973,2187.2150974233027 L1887.2150974233027,2144.0349025766973" close="False" data-weight="2.060660171779821" stroke-width="6" fill="none" stroke="#984ea3" />
<path d="M1850.625,1303.125 L1880.625,1303.125" close="False" data-weight="1.75" stroke-width="6" fill="none" stroke="#984ea3" />
<path d="M1769.0349025766973,2262.2150974233027 L1812.2150974233027,2219.0349025766973" close="False" data-weight="2.060660171779821" stroke-width="6" fill="none" stroke="#984ea3" />
<path d="M1775.625,1303.125 L1805.625,1303.125" close="False" data-weight="1.75" stroke-width="6" fill="none" stroke="#984ea3" />
<path d="M1694.0349025766973,2337.2150974233027 L1737.2150974233027,2294.0349025766973" close="False" data-weight="2.060660171779821" stroke-width="6" fill="none" stroke="#984ea3" />
<path d="M1700.625,1303.125 L1730.625,1303.125" close="False" data-weight="1.75" stroke-width="6" fill="none" stroke="#984ea3" />
<path d="M1619.0349025766973,2412.2150974233027 L1662.2150974233027,2369.0349025766973" close="False" data-weight="2.060660171779821" stroke-width="6" fill="none" stroke="#984ea3" />
<path d="M1625.625,1303.125 L1655.625,1303.125" close="False" data-weight="1.75" stroke-width="6" fill="none" stroke="#984ea3" />
<path d="M1550.625,1303.125 L1580.625,1303.125" close="False" data-weight="1.75" stroke-width="6" fill="none" stroke="#984ea3" />
<path d="M1475.625,1303.125 L1505.625,1303.125" close="False" data-weight="1.75" stroke-width="6" fill="none" stroke="#984ea3" />
<path d="M1400.625,1303.125 L1430.625,1303.125" close="False" data-weight="1.75" stroke-width="6" fill="none" stroke="#984ea3" />
<path d="M1325.625,1303.125 L1355.625,1303.125" close="False" data-weight="1.75" stroke-width="6" fill="none" stroke="#984ea3" />
<path d="M1250.625,1303.125 L1280.625,1303.125" close="False" data-weight="1.75" stroke-width="6" fill="none" stroke="#984ea3" />
<path d="M1175.625,1303.125 L1205.625,1303.125" close="False" data-weight="1.75" stroke-width="6" fill="none" stroke="#984ea3" />
<path d="M1100.625,1303.125 L1130.625,1303.125" close="False" data-weight="1.75" stroke-width="6" fill="none" stroke="#984ea3" />
<path d="M1025.625,1303.125 L1055.625,1303.125" close="False" data-weight="1.75" stroke-width="6" fill="none" stroke="#984ea3" />
<path d="M950.625,1303.125 L980.625,1303.125" close="False" data-weight="1.75" stroke-width="6" fill="none" stroke="#984ea3" />
<path d="M875.625,1303.125 L905.625,1303.125" close="False" data-weight="1.75" stroke-width="6" fill="none" stroke="#984ea3" />
<path d="M800.625,1303.125 L830.625,1303.125" close="False" data-weight="1.75" stroke-width="6" fill="none" stroke="#984ea3" />
<path d="M725.625,1303.125 L755.625,1303.125" close="False" data-weight="1.75" stroke-width="6" fill="none" stroke="#984ea3" />
<path d="M650.625,1303.125 L680.625,1303.125" close="False" data-weight="1.75" stroke-width="6" fill="none" stroke="#984ea3" />
<path d="M644.0349025766973,762.2150974233027 L687.2150974233027,719.0349025766973" close="False" data-weight="2.060660171779821" stroke-width="6" fill="none" stroke="#984ea3" />
<path d="M569.0349025766973,1244.0349025766973 L612.2150974233027,1287.2150974233027" close="False" data-weight="2.060660171779821" stroke-width="6" fill="none" stroke="#984ea3" />
<path d="M553.125,1175.625 L553.125,1205.625" close="False" data-weight="1.75" stroke-width="6" fill="none" stroke="#984ea3" />
<path d="M553.125,1100.625 L553.125,1130.625" close="False" data-weight="1.75" stroke-width="6" fill="none" stroke="#984ea3" />
<path d="M553.125,1025.625 L553.125,1055.625" close="False" data-weight="1.75" stroke-width="6" fill="none" stroke="#984ea3" />
<path d="M553.125,950.625 L553.125,980.625" close="False" data-weight="1.75" stroke-width="6" fill="none" stroke="#984ea3" />
<path d="M553.125,875.625 L553.125,905.625" close="False" data-weight="1.75" stroke-width="6" fill="none" stroke="#984ea3" />
<path d="M569.0349025766973,837.2150974233027 L612.2150974233027,794.0349025766973" close="False" data-weight="2.060660171779821" stroke-width="6" fill="none" stroke="#984ea3" />
<path d="M1550.625,2428.125 C1539.375,2428.125,1516.875,2428.125,1505.625,2428.125" close="False" data-weight="0.0" stroke-width="6" fill="none" stroke="#ff7f00" />
<path d="M1544.0349025766973,2369.0349025766973 C1536.0799512883486,2361.0799512883486,1520.1700487116514,2345.1700487116514,1512.2150974233027,2337.2150974233027" close="False" data-weight="0.0" stroke-width="6" fill="none" stroke="#ff7f00" />
<path d="M1475.625,2428.125 C1464.375,2428.125,1441.875,2428.125,1430.625,2428.125" close="False" data-weight="0.0" stroke-width="6" fill="none" stroke="#ff7f00" />
<path d="M1469.0349025766973,2294.0349025766973 C1461.0799512883486,2286.0799512883486,1445.1700487116514,2270.1700487116514,1437.2150974233027,2262.2150974233027" close="False" data-weight="0.0" stroke-width="6" fill="none" stroke="#ff7f00" />
<path d="M1400.625,2428.125 A54.31980515339728,54.31980515339728,0,0,1,1379.837710518496,2423.9901510378277 M1379.837710518496,2423.9901510378277 A54.319805153387826,54.319805153387826,0,0,1,1362.2150974233027,2412.2150974233027 M1362.2150974233027,2412.2150974233027" close="False" data-weight="1.0" stroke-width="6" fill="none" stroke="#ff7f00" />
<path d="M1394.0349025766973,2219.0349025766973 C1386.0799512883486,2211.0799512883486,1370.1700487116514,2195.1700487116514,1362.2150974233027,2187.2150974233027" close="False" data-weight="0.0" stroke-width="6" fill="none" stroke="#ff7f00" />
<path d="M1319.0349025766973,2369.0349025766973 C1311.0799512883486,2361.0799512883486,1295.1700487116514,2345.1700487116514,1287.2150974233027,2337.2150974233027" close="False" data-weight="0.0" stroke-width="6" fill="none" stroke="#ff7f00" />
<path d="M1319.0349025766973,2144.0349025766973 C1311.0799512883486,2136.0799512883486,1295.1700487116514,2120.1700487116514,1287.2150974233027,2112.2150974233027" close="False" data-weight="0.0" stroke-width="6" fill="none" stroke="#ff7f00" />
<path d="M1321.6098954365975,165.29695881289496 C1313.7816612806719,173.12519296882058,1298.1251929688208,188.78166128067178,1290.2969588128951,196.60989543659736" close="False" data-weight="0.0" stroke-width="6" fill="none" stroke="#ff7f00" />
<path d="M1244.0349025766973,2294.0349025766973 C1236.0799512883486,2286.0799512883486,1220.1700487116514,2270.1700487116514,1212.2150974233027,2262.2150974233027" close="False" data-weight="0.0" stroke-width="6" fill="none" stroke="#ff7f00" />
<path d="M1228.125,2030.625 A54.31980515339569,54.31980515339569,0,0,0,1232.259848962172,2051.4122894815036 M1232.259848962172,2051.4122894815036 A54.319805153397155,54.319805153397155,0,0,0,1244.0349025766973,2069.0349025766973 M1244.0349025766973,2069.0349025766973" close="False" data-weight="1.0" stroke-width="6" fill="none" stroke="#ff7f00" />
<path d="M1228.125,1955.625 C1228.125,1966.875,1228.125,1989.375,1228.125,2000.625" close="False" data-weight="0.0" stroke-width="6" fill="none" stroke="#ff7f00" />
<path d="M1228.125,1880.625 C1228.125,1891.875,1228.125,1914.375,1228.125,1925.625" close="False" data-weight="0.0" stroke-width="6" fill="none" stroke="#ff7f00" />
<path d="M1228.125,1805.625 C1228.125,1816.875,1228.125,1839.375,1228.125,1850.625" close="False" data-weight="0.0" stroke-width="6" fill="none" stroke="#ff7f00" />
<path d="M1228.125,1730.625 C1228.125,1741.875,1228.125,1764.375,1228.125,1775.625" close="False" data-weight="0.0" stroke-width="6" fill="none" stroke="#ff7f00" />
<path d="M1228.125,1655.625 C1228.125,1666.875,1228.125,1689.375,1228.125,1700.625" close="False" data-weight="0.0" stroke-width="6" fill="none" stroke="#ff7f00" />
<path d="M1228.125,1580.625 C1228.125,1591.875,1228.125,1614.375,1228.125,1625.625" close="False" data-weight="0.0" stroke-width="6" fill="none" stroke="#ff7f00" />
<path d="M1228.125,1505.625 C1228.125,1516.875,1228.125,1539.375,1228.125,1550.625" close="False" data-weight="0.0" stroke-width="6" fill="none" stroke="#ff7f00" />
<path d="M1228.125,1430.625 C1228.125,1441.875,1228.125,1464.375,1228.125,1475.625" close="False" data-weight="0.0" stroke-width="6" fill="none" stroke="#ff7f00" />
<path d="M1228.125,1355.625 C1228.125,1366.875,1228.125,1389.375,1228.125,1400.625" close="False" data-weight="0.0" stroke-width="6" fill="none" stroke="#ff7f00" />
<path d="M1228.125,1280.625 C1228.125,1291.875,1228.125,1314.375,1228.125,1325.625" close="False" data-weight="0.0" stroke-width="6" fill="none" stroke="#ff7f00" />
<path d="M1228.125,1205.625 C1228.125,1216.875,1228.125,1239.375,1228.125,1250.625" close="False" data-weight="0.0" stroke-width="6" fill="none" stroke="#ff7f00" />
<path d="M1228.125,1130.625 C1228.125,1141.875,1228.125,1164.375,1228.125,1175.625" close="False" data-weight="0.0" stroke-width="6" fill="none" stroke="#ff7f00" />
<path d="M1228.125,1055.625 C1228.125,1066.875,1228.125,1089.375,1228.125,1100.625" close="False" data-weight="0.0" stroke-width="6" fill="none" stroke="#ff7f00" />
<path d="M1228.125,980.625 C1228.125,991.875,1228.125,1014.375,1228.125,1025.625" close="False" data-weight="0.0" stroke-width="6" fill="none" stroke="#ff7f00" />
<path d="M1228.125,905.625 C1228.125,916.875,1228.125,939.375,1228.125,950.625" close="False" data-weight="0.0" stroke-width="6" fill="none" stroke="#ff7f00" />
<path d="M1228.125,830.625 C1228.125,841.875,1228.125,864.375,1228.125,875.625" close="False" data-weight="0.0" stroke-width="6" fill="none" stroke="#ff7f00" />
<path d="M1228.125,755.625 C1228.125,766.875,1228.125,789.375,1228.125,800.625" close="False" data-weight="0.0" stroke-width="6" fill="none" stroke="#ff7f00" />
<path d="M1228.125,725.625 A54.31980515339637,54.31980515339637,0,0,0,1223.990151037828,704.837710518496 M1223.990151037828,704.837710518496 A54.31980515339273,54.31980515339273,0,0,0,1212.2150974233027,687.2150974233027 M1212.2150974233027,687.2150974233027" close="False" data-weight="1.0" stroke-width="6" fill="none" stroke="#ff7f00" />
<path d="M1246.6098954365975,240.29695881289496 C1238.7816612806719,248.12519296882058,1223.1251929688208,263.7816612806718,1215.2969588128951,271.6098954365974" close="False" data-weight="0.0" stroke-width="6" fill="none" stroke="#ff7f00" />
<path d="M1169.0349025766973,2219.0349025766973 C1161.0799512883486,2211.0799512883486,1145.1700487116514,2195.1700487116514,1137.2150974233027,2187.2150974233027" close="False" data-weight="0.0" stroke-width="6" fill="none" stroke="#ff7f00" />
<path d="M1153.125,530.625 C1153.125,541.875,1153.125,564.375,1153.125,575.625" close="False" data-weight="0.0" stroke-width="6" fill="none" stroke="#ff7f00" />
<path d="M1157.125,455.9834101745155 C1157.125,467.18851933882866,1153.125,489.41989083568683,1153.125,500.625" close="False" data-weight="0.0" stroke-width="6" fill="none" stroke="#ff7f00" />
<path d="M1157.125,380.9834101745155 C1157.125,392.05420508725774,1157.125,414.19579491274226,1157.125,425.2665898254845" close="False" data-weight="0.0" stroke-width="6" fill="none" stroke="#ff7f00" />
<path d="M1171.6098954366048,315.29695881288757 A49.454526449226215,49.454526449226215,0,0,0,1160.8895016727479,331.3411618979155 M1160.8895016727479,331.3411618979155 A49.454526449173045,49.454526449173045,0,0,0,1157.125,350.2665898254845 M1157.125,350.2665898254845" close="False" data-weight="1.0" stroke-width="6" fill="none" stroke="#ff7f00" />
<path d="M1094.0349025766973,2144.0349025766973 C1086.0799512883486,2136.0799512883486,1070.1700487116514,2120.1700487116514,1062.2150974233027,2112.2150974233027" close="False" data-weight="0.0" stroke-width="6" fill="none" stroke="#ff7f00" />
<path d="M1019.0349025766973,2069.0349025766973 C1011.0799512883486,2061.0799512883486,995.1700487116514,2045.1700487116514,987.2150974233027,2037.2150974233027" close="False" data-weight="0.0" stroke-width="6" fill="none" stroke="#ff7f00" />
<path d="M944.0349025766973,1994.0349025766973 A54.31980515339554,54.31980515339554,0,0,0,926.412289481504,1982.259848962172 M926.412289481504,1982.259848962172 A54.319805153393645,54.319805153393645,0,0,0,905.625,1978.125 M905.625,1978.125" close="False" data-weight="1.0" stroke-width="6" fill="none" stroke="#ff7f00" />
<path d="M875.625,1978.125 C864.375,1978.125,841.875,1978.125,830.625,1978.125" close="False" data-weight="0.0" stroke-width="6" fill="none" stroke="#ff7f00" />
<path d="M800.625,1978.125 C789.375,1978.125,766.875,1978.125,755.625,1978.125" close="False" data-weight="0.0" stroke-width="6" fill="none" stroke="#ff7f00" />
<path d="M725.625,1978.125 C714.375,1978.125,691.875,1978.125,680.625,1978.125" close="False" data-weight="0.0" stroke-width="6" fill="none" stroke="#ff7f00" />
<path d="M650.625,1978.125 C639.375,1978.125,616.875,1978.125,605.625,1978.125" close="False" data-weight="0.0" stroke-width="6" fill="none" stroke="#ff7f00" />
<path d="M575.625,1978.125 C564.375,1978.125,541.875,1978.125,530.625,1978.125" close="False" data-weight="0.0" stroke-width="6" fill="none" stroke="#ff7f00" />
<path d="M500.625,1978.125 C489.375,1978.125,466.875,1978.125,455.625,1978.125" close="False" data-weight="0.0" stroke-width="6" fill="none" stroke="#ff7f00" />
<path d="M425.625,1978.125 C414.375,1978.125,391.875,1978.125,380.625,1978.125" close="False" data-weight="0.0" stroke-width="6" fill="none" stroke="#ff7f00" />
<path d="M350.625,1978.125 C339.375,1978.125,316.875,1978.125,305.625,1978.125" close="False" data-weight="0.0" stroke-width="6" fill="none" stroke="#ff7f00" />
<path d="M275.625,1978.125 C264.375,1978.125,241.875,1978.125,230.625,1978.125" close="False" data-weight="0.0" stroke-width="6" fill="none" stroke="#ff7f00" />
<path d="M1550.625,2428.125 L1580.625,2428.125" close="False" data-weight="1.75" stroke-width="6" fill="none" stroke="#ff7f00" />
<path d="M1544.0349025766973,2369.0349025766973 L1587.2150974233027,2412.2150974233027" close="False" data-weight="2.060660171779821" stroke-width="6" fill="none" stroke="#ff7f00" />
<path d="M1475.625,2428.125 L1505.625,2428.125" close="False" data-weight="1.75" stroke-width="6" fill="none" stroke="#ff7f00" />
<path d="M1469.0349025766973,2294.0349025766973 L1512.2150974233027,2337.2150974233027" close="False" data-weight="2.060660171779821" stroke-width="6" fill="none" stroke="#ff7f00" />
<path d="M1400.625,2428.125 L1430.625,2428.125" close="False" data-weight="1.75" stroke-width="6" fill="none" stroke="#ff7f00" />
<path d="M1394.0349025766973,2219.0349025766973 L1437.2150974233027,2262.2150974233027" close="False" data-weight="2.060660171779821" stroke-width="6" fill="none" stroke="#ff7f00" />
<path d="M1319.0349025766973,2369.0349025766973 L1362.2150974233027,2412.2150974233027" close="False" data-weight="2.060660171779821" stroke-width="6" fill="none" stroke="#ff7f00" />
<path d="M1319.0349025766973,2144.0349025766973 L1362.2150974233027,2187.2150974233027" close="False" data-weight="2.060660171779821" stroke-width="6" fill="none" stroke="#ff7f00" />
<path d="M1321.6098954365973,165.296958812895 L1365.2969588128951,121.6098954365973" close="False" data-weight="2.060660171779821" stroke-width="6" fill="none" stroke="#ff7f00" />
<path d="M1244.0349025766973,2294.0349025766973 L1287.2150974233027,2337.2150974233027" close="False" data-weight="2.060660171779821" stroke-width="6" fill="none" stroke="#ff7f00" />
<path d="M1244.0349025766973,2069.0349025766973 L1287.2150974233027,2112.2150974233027" close="False" data-weight="2.060660171779821" stroke-width="6" fill="none" stroke="#ff7f00" />
<path d="M1228.125,2000.625 L1228.125,2030.625" close="False" data-weight="1.75" stroke-width="6" fill="none" stroke="#ff7f00" />
<path d="M1228.125,1925.625 L1228.125,1955.625" close="False" data-weight="1.75" stroke-width="6" fill="none" stroke="#ff7f00" />
<path d="M1228.125,1850.625 L1228.125,1880.625" close="False" data-weight="1.75" stroke-width="6" fill="none" stroke="#ff7f00" />
<path d="M1228.125,1775.625 L1228.125,1805.625" close="False" data-weight="1.75" stroke-width="6" fill="none" stroke="#ff7f00" />
<path d="M1228.125,1700.625 L1228.125,1730.625" close="False" data-weight="1.75" stroke-width="6" fill="none" stroke="#ff7f00" />
<path d="M1228.125,1625.625 L1228.125,1655.625" close="False" data-weight="1.75" stroke-width="6" fill="none" stroke="#ff7f00" />
<path d="M1228.125,1550.625 L1228.125,1580.625" close="False" data-weight="1.75" stroke-width="6" fill="none" stroke="#ff7f00" />
<path d="M1228.125,1475.625 L1228.125,1505.625" close="False" data-weight="1.75" stroke-width="6" fill="none" stroke="#ff7f00" />
<path d="M1228.125,1400.625 L1228.125,1430.625" close="False" data-weight="1.75" stroke-width="6" fill="none" stroke="#ff7f00" />
<path d="M1228.125,1325.625 L1228.125,1355.625" close="False" data-weight="1.75" stroke-width="6" fill="none" stroke="#ff7f00" />
<path d="M1228.125,1250.625 L1228.125,1280.625" close="False" data-weight="1.75" stroke-width="6" fill="none" stroke="#ff7f00" />
<path d="M1228.125,1175.625 L1228.125,1205.625" close="False" data-weight="1.75" stroke-width="6" fill="none" stroke="#ff7f00" />
<path d="M1228.125,1100.625 L1228.125,1130.625" close="False" data-weight="1.75" stroke-width="6" fill="none" stroke="#ff7f00" />
<path d="M1228.125,1025.625 L1228.125,1055.625" close="False" data-weight="1.75" stroke-width="6" fill="none" stroke="#ff7f00" />
<path d="M1228.125,950.625 L1228.125,980.625" close="False" data-weight="1.75" stroke-width="6" fill="none" stroke="#ff7f00" />
<path d="M1228.125,875.625 L1228.125,905.625" close="False" data-weight="1.75" stroke-width="6" fill="none" stroke="#ff7f00" />
<path d="M1228.125,800.625 L1228.125,830.625" close="False" data-weight="1.75" stroke-width="6" fill="none" stroke="#ff7f00" />
<path d="M1228.125,725.625 L1228.125,755.625" close="False" data-weight="1.75" stroke-width="6" fill="none" stroke="#ff7f00" />
<path d="M1246.6098954365973,240.296958812895 L1290.2969588128951,196.6098954365973" close="False" data-weight="2.060660171779821" stroke-width="6" fill="none" stroke="#ff7f00" />
<path d="M1169.0349025766973,2219.0349025766973 L1212.2150974233027,2262.2150974233027" close="False" data-weight="2.060660171779821" stroke-width="6" fill="none" stroke="#ff7f00" />
<path d="M1169.0349025766973,644.0349025766973 L1212.2150974233027,687.2150974233027" close="False" data-weight="2.060660171779821" stroke-width="6" fill="none" stroke="#ff7f00" />
<path d="M1153.125,575.625 L1153.125,605.625" close="False" data-weight="1.75" stroke-width="6" fill="none" stroke="#ff7f00" />
<path d="M1153.125,500.625 L1153.125,530.625" close="False" data-weight="1.75" stroke-width="6" fill="none" stroke="#ff7f00" />
<path d="M1157.125,425.2665898254845 L1157.125,455.9834101745155" close="False" data-weight="1.75" stroke-width="6" fill="none" stroke="#ff7f00" />
<path d="M1157.125,350.2665898254845 L1157.125,380.9834101745155" close="False" data-weight="1.75" stroke-width="6" fill="none" stroke="#ff7f00" />
<path d="M1171.6098954366048,315.2969588128876 L1215.2969588128951,271.6098954365974" close="False" data-weight="2.060660171779821" stroke-width="6" fill="none" stroke="#ff7f00" />
<path d="M1094.0349025766973,2144.0349025766973 L1137.2150974233027,2187.2150974233027" close="False" data-weight="2.060660171779821" stroke-width="6" fill="none" stroke="#ff7f00" />
<path d="M1019.0349025766973,2069.0349025766973 L1062.2150974233027,2112.2150974233027" close="False" data-weight="2.060660171779821" stroke-width="6" fill="none" stroke="#ff7f00" />
<path d="M944.0349025766973,1994.0349025766973 L987.2150974233027,2037.2150974233027" close="False" data-weight="2.060660171779821" stroke-width="6" fill="none" stroke="#ff7f00" />
<path d="M875.625,1978.125 L905.625,1978.125" close="False" data-weight="1.75" stroke-width="6" fill="none" stroke="#ff7f00" />
<path d="M800.625,1978.125 L830.625,1978.125" close="False" data-weight="1.75" stroke-width="6" fill="none" stroke="#ff7f00" />
<path d="M725.625,1978.125 L755.625,1978.125" close="False" data-weight="1.75" stroke-width="6" fill="none" stroke="#ff7f00" />
<path d="M650.625,1978.125 L680.625,1978.125" close="False" data-weight="1.75" stroke-width="6" fill="none" stroke="#ff7f00" />
<path d="M575.625,1978.125 L605.625,1978.125" close="False" data-weight="1.75" stroke-width="6" fill="none" stroke="#ff7f00" />
<path d="M500.625,1978.125 L530.625,1978.125" close="False" data-weight="1.75" stroke-width="6" fill="none" stroke="#ff7f00" />
<path d="M425.625,1978.125 L455.625,1978.125" close="False" data-weight="1.75" stroke-width="6" fill="none" stroke="#ff7f00" />
<path d="M350.625,1978.125 L380.625,1978.125" close="False" data-weight="1.75" stroke-width="6" fill="none" stroke="#ff7f00" />
<path d="M275.625,1978.125 L305.625,1978.125" close="False" data-weight="1.75" stroke-width="6" fill="none" stroke="#ff7f00" />
<path d="M200.625,1978.125 L230.625,1978.125" close="False" data-weight="1.75" stroke-width="6" fill="none" stroke="#ff7f00" />
<path d="M2294.0349025766973,794.0349025766973 C2286.0799512883486,786.0799512883486,2270.1700487116514,770.1700487116514,2262.2150974233027,762.2150974233027" close="False" data-weight="0.0" stroke-width="6" fill="none" stroke="#4daf4a" />
<path d="M2219.0349025766973,719.0349025766973 C2211.0799512883486,711.0799512883486,2195.1700487116514,695.1700487116514,2187.2150974233027,687.2150974233027" close="False" data-weight="0.0" stroke-width="6" fill="none" stroke="#4daf4a" />
<path d="M2144.0349025766973,644.0349025766973 C2136.0799512883486,636.0799512883486,2120.1700487116514,620.1700487116514,2112.2150974233027,612.2150974233027" close="False" data-weight="0.0" stroke-width="6" fill="none" stroke="#4daf4a" />
<path d="M2069.0349025766973,569.0349025766973 C2061.0799512883486,561.0799512883486,2045.1700487116514,545.1700487116514,2037.2150974233027,537.2150974233027" close="False" data-weight="0.0" stroke-width="6" fill="none" stroke="#4daf4a" />
<path d="M1994.0349025766973,494.03490257669733 C1986.0799512883486,486.0799512883487,1970.1700487116514,470.1700487116513,1962.2150974233027,462.21509742330267" close="False" data-weight="0.0" stroke-width="6" fill="none" stroke="#4daf4a" />
<path d="M1919.0349025766973,419.03490257669733 C1911.0799512883486,411.0799512883487,1895.1700487116514,395.1700487116513,1887.2150974233027,387.21509742330267" close="False" data-weight="0.0" stroke-width="6" fill="none" stroke="#4daf4a" />
<path d="M1844.0349025766973,344.03490257669733 C1836.0799512883486,336.0799512883487,1820.1700487116514,320.1700487116513,1812.2150974233027,312.21509742330267" close="False" data-weight="0.0" stroke-width="6" fill="none" stroke="#4daf4a" />
<path d="M1769.0349025766973,269.03490257669733 C1761.0799512883486,261.0799512883487,1745.1700487116514,245.1700487116513,1737.2150974233027,237.21509742330267" close="False" data-weight="0.0" stroke-width="6" fill="none" stroke="#4daf4a" />
<path d="M1694.0349025766973,194.0349025766973 C1686.0799512883486,186.07995128834867,1670.1700487116514,170.1700487116513,1662.2150974233027,162.21509742330267" close="False" data-weight="0.0" stroke-width="6" fill="none" stroke="#4daf4a" />
<path d="M1619.0349025766973,119.0349025766973 A54.3198051533952,54.3198051533952,0,0,0,1601.412289481504,107.25984896217221 M1601.412289481504,107.25984896217221 A54.319805153393986,54.319805153393986,0,0,0,1580.625,103.125 M1580.625,103.125" close="False" data-weight="1.0" stroke-width="6" fill="none" stroke="#4daf4a" />
<path d="M1550.625,103.125 C1539.375,103.125,1516.875,103.125,1505.625,103.125" close="False" data-weight="0.0" stroke-width="6" fill="none" stroke="#4daf4a" />
<path d="M1475.625,103.125 C1464.375,103.125,1441.875,103.125,1430.625,103.125" close="False" data-weight="0.0" stroke-width="6" fill="none" stroke="#4daf4a" />
<path d="M1315.9530411871049,159.6401045634027 C1308.1248070311792,167.46833871932824,1292.4683387193284,183.12480703117944,1284.6401045634027,190.953041187105" close="False" data-weight="0.0" stroke-width="6" fill="none" stroke="#4daf4a" />
<path d="M1240.9530411871049,234.6401045634027 C1233.1248070311792,242.46833871932824,1217.4683387193284,258.12480703117944,1209.6401045634027,265.953041187105" close="False" data-weight="0.0" stroke-width="6" fill="none" stroke="#4daf4a" />
<path d="M1165.9530411870976,309.64010456341003 C1158.029832513078,317.56331323742955,1145.1383060973224,336.1116939026778,1137.2150974233027,344.03490257669733" close="False" data-weight="0.0" stroke-width="6" fill="none" stroke="#4daf4a" />
<path d="M1094.0349025766973,387.21509742330267 C1086.0799512883486,395.1700487116513,1070.1700487116514,411.0799512883487,1062.2150974233027,419.03490257669733" close="False" data-weight="0.0" stroke-width="6" fill="none" stroke="#4daf4a" />
<path d="M1019.0349025766973,462.21509742330267 C1011.0799512883486,470.1700487116513,995.1700487116514,486.0799512883487,987.2150974233027,494.03490257669733" close="False" data-weight="0.0" stroke-width="6" fill="none" stroke="#4daf4a" />
<path d="M944.0349025766973,537.2150974233027 A54.3198051533949,54.3198051533949,0,0,1,926.4122894815039,548.9901510378279 M926.4122894815039,548.9901510378279 A54.31980515339427,54.31980515339427,0,0,1,905.625,553.125 M905.625,553.125" close="False" data-weight="1.0" stroke-width="6" fill="none" stroke="#4daf4a" />
<path d="M875.625,553.125 C864.375,553.125,841.875,553.125,830.625,553.125" close="False" data-weight="0.0" stroke-width="6" fill="none" stroke="#4daf4a" />
<path d="M800.625,553.125 C789.375,553.125,766.875,553.125,755.625,553.125" close="False" data-weight="0.0" stroke-width="6" fill="none" stroke="#4daf4a" />
<path d="M703.125,1130.625 C703.125,1141.875,703.125,1164.375,703.125,1175.625" close="False" data-weight="0.0" stroke-width="6" fill="none" stroke="#4daf4a" />
<path d="M703.125,1055.625 C703.125,1066.875,703.125,1089.375,703.125,1100.625" close="False" data-weight="0.0" stroke-width="6" fill="none" stroke="#4daf4a" />
<path d="M703.125,980.625 C703.125,991.875,703.125,1014.375,703.125,1025.625" close="False" data-weight="0.0" stroke-width="6" fill="none" stroke="#4daf4a" />
<path d="M703.125,905.625 C703.125,916.875,703.125,939.375,703.125,950.625" close="False" data-weight="0.0" stroke-width="6" fill="none" stroke="#4daf4a" />
<path d="M703.125,830.625 C703.125,841.875,703.125,864.375,703.125,875.625" close="False" data-weight="0.0" stroke-width="6" fill="none" stroke="#4daf4a" />
<path d="M703.125,755.625 C703.125,766.875,703.125,789.375,703.125,800.625" close="False" data-weight="0.0" stroke-width="6" fill="none" stroke="#4daf4a" />
<path d="M725.625,553.125 C714.375,553.125,691.875,553.125,680.625,553.125" close="False" data-weight="0.0" stroke-width="6" fill="none" stroke="#4daf4a" />
<path d="M640.953041187105,646.6098954365974 A49.45452644918767,49.45452644918767,0,0,0,624.9088381020804,635.889501672745 M624.9088381020804,635.889501672745 A49.45452644918612,49.45452644918612,0,0,0,605.9834101745155,632.125 M605.9834101745155,632.125" close="False" data-weight="1.0" stroke-width="6" fill="none" stroke="#4daf4a" />
<path d="M650.625,553.125 C639.375,553.125,616.875,553.125,605.625,553.125" close="False" data-weight="0.0" stroke-width="6" fill="none" stroke="#4daf4a" />
<path d="M575.2665898254845,632.125 C564.1957949127423,632.125,542.0542050872577,632.125,530.9834101745155,632.125" close="False" data-weight="0.0" stroke-width="6" fill="none" stroke="#4daf4a" />
<path d="M575.625,553.125 C564.375,553.125,541.875,553.125,530.625,553.125" close="False" data-weight="0.0" stroke-width="6" fill="none" stroke="#4daf4a" />
<path d="M500.2665898254845,632.125 C489.19579491274226,632.125,467.05420508725774,632.125,455.9834101745155,632.125" close="False" data-weight="0.0" stroke-width="6" fill="none" stroke="#4daf4a" />
<path d="M500.625,553.125 C489.375,553.125,466.875,553.125,455.625,553.125" close="False" data-weight="0.0" stroke-width="6" fill="none" stroke="#4daf4a" />
<path d="M425.2665898254845,632.125 C414.19579491274226,632.125,392.05420508725774,632.125,380.9834101745155,632.125" close="False" data-weight="0.0" stroke-width="6" fill="none" stroke="#4daf4a" />
<path d="M425.625,553.125 A54.319805153394555,54.319805153394555,0,0,0,404.837710518496,557.2598489621722 M404.837710518496,557.2598489621722 A54.31980515339474,54.31980515339474,0,0,0,387.21509742330267,569.0349025766973 M387.21509742330267,569.0349025766973" close="False" data-weight="1.0" stroke-width="6" fill="none" stroke="#4daf4a" />
<path d="M2375.2665898254845,924.125 L2405.9834101745155,924.125" close="False" data-weight="1.75" stroke-width="6" fill="none" stroke="#4daf4a" />
<path d="M2357.125,875.2665898254845 L2357.125,905.9834101745155" close="False" data-weight="1.75" stroke-width="6" fill="none" stroke="#4daf4a" />
<path d="M2294.0349025766973,794.0349025766973 L2337.2150974233027,837.2150974233027" close="False" data-weight="2.060660171779821" stroke-width="6" fill="none" stroke="#4daf4a" />
<path d="M2219.0349025766973,719.0349025766973 L2262.2150974233027,762.2150974233027" close="False" data-weight="2.060660171779821" stroke-width="6" fill="none" stroke="#4daf4a" />
<path d="M2144.0349025766973,644.0349025766973 L2187.2150974233027,687.2150974233027" close="False" data-weight="2.060660171779821" stroke-width="6" fill="none" stroke="#4daf4a" />
<path d="M2069.0349025766973,569.0349025766973 L2112.2150974233027,612.2150974233027" close="False" data-weight="2.060660171779821" stroke-width="6" fill="none" stroke="#4daf4a" />
<path d="M1994.0349025766973,494.03490257669733 L2037.2150974233027,537.2150974233027" close="False" data-weight="2.060660171779821" stroke-width="6" fill="none" stroke="#4daf4a" />
<path d="M1919.0349025766973,419.03490257669733 L1962.2150974233027,462.21509742330267" close="False" data-weight="2.060660171779821" stroke-width="6" fill="none" stroke="#4daf4a" />
<path d="M1844.0349025766973,344.03490257669733 L1887.2150974233027,387.21509742330267" close="False" data-weight="2.060660171779821" stroke-width="6" fill="none" stroke="#4daf4a" />
<path d="M1769.0349025766973,269.03490257669733 L1812.2150974233027,312.21509742330267" close="False" data-weight="2.060660171779821" stroke-width="6" fill="none" stroke="#4daf4a" />
<path d="M1694.0349025766973,194.03490257669733 L1737.2150974233027,237.2150974233027" close="False" data-weight="2.060660171779821" stroke-width="6" fill="none" stroke="#4daf4a" />
<path d="M1619.0349025766973,119.03490257669732 L1662.2150974233027,162.2150974233027" close="False" data-weight="2.060660171779821" stroke-width="6" fill="none" stroke="#4daf4a" />
<path d="M1550.625,103.125 L1580.625,103.125" close="False" data-weight="1.75" stroke-width="6" fill="none" stroke="#4daf4a" />
<path d="M1475.625,103.125 L1505.625,103.125" close="False" data-weight="1.75" stroke-width="6" fill="none" stroke="#4daf4a" />
<path d="M1400.625,103.125 L1430.625,103.125" close="False" data-weight="1.75" stroke-width="6" fill="none" stroke="#4daf4a" />
<path d="M1315.9530411871049,159.64010456340264 L1359.6401045634025,115.95304118710504" close="False" data-weight="2.060660171779821" stroke-width="6" fill="none" stroke="#4daf4a" />
<path d="M1240.9530411871049,234.64010456340264 L1284.6401045634025,190.95304118710504" close="False" data-weight="2.060660171779821" stroke-width="6" fill="none" stroke="#4daf4a" />
<path d="M1165.9530411870976,309.64010456341003 L1209.6401045634027,265.953041187105" close="False" data-weight="2.060660171779821" stroke-width="6" fill="none" stroke="#4daf4a" />
<path d="M1094.0349025766973,387.21509742330267 L1137.2150974233027,344.03490257669733" close="False" data-weight="2.060660171779821" stroke-width="6" fill="none" stroke="#4daf4a" />
<path d="M1019.0349025766973,462.21509742330267 L1062.2150974233027,419.03490257669733" close="False" data-weight="2.060660171779821" stroke-width="6" fill="none" stroke="#4daf4a" />
<path d="M944.0349025766973,537.2150974233027 L987.2150974233027,494.03490257669733" close="False" data-weight="2.060660171779821" stroke-width="6" fill="none" stroke="#4daf4a" />
<path d="M875.625,553.125 L905.625,553.125" close="False" data-weight="1.75" stroke-width="6" fill="none" stroke="#4daf4a" />
<path d="M800.625,553.125 L830.625,553.125" close="False" data-weight="1.75" stroke-width="6" fill="none" stroke="#4daf4a" />
<path d="M703.125,1175.625 L703.125,1205.625" close="False" data-weight="1.75" stroke-width="6" fill="none" stroke="#4daf4a" />
<path d="M703.125,1100.625 L703.125,1130.625" close="False" data-weight="1.75" stroke-width="6" fill="none" stroke="#4daf4a" />
<path d="M703.125,1025.625 L703.125,1055.625" close="False" data-weight="1.75" stroke-width="6" fill="none" stroke="#4daf4a" />
<path d="M703.125,950.625 L703.125,980.625" close="False" data-weight="1.75" stroke-width="6" fill="none" stroke="#4daf4a" />
<path d="M703.125,875.625 L703.125,905.625" close="False" data-weight="1.75" stroke-width="6" fill="none" stroke="#4daf4a" />
<path d="M703.125,800.625 L703.125,830.625" close="False" data-weight="1.75" stroke-width="6" fill="none" stroke="#4daf4a" />
<path d="M703.125,725.625 L703.125,755.625" close="False" data-weight="1.75" stroke-width="6" fill="none" stroke="#4daf4a" />
<path d="M725.625,553.125 L755.625,553.125" close="False" data-weight="1.75" stroke-width="6" fill="none" stroke="#4daf4a" />
<path d="M628.125,1175.625 L628.125,1205.625" close="False" data-weight="1.75" stroke-width="6" fill="none" stroke="#4daf4a" />
<path d="M644.0349025766973,1169.0349025766973 L687.2150974233027,1212.2150974233027" close="False" data-weight="2.060660171779821" stroke-width="6" fill="none" stroke="#4daf4a" />
<path d="M640.953041187105,646.6098954365974 L684.6401045634026,690.296958812895" close="False" data-weight="2.060660171779821" stroke-width="6" fill="none" stroke="#4daf4a" />
<path d="M650.625,553.125 L680.625,553.125" close="False" data-weight="1.75" stroke-width="6" fill="none" stroke="#4daf4a" />
<path d="M575.2665898254845,632.125 L605.9834101745155,632.125" close="False" data-weight="1.75" stroke-width="6" fill="none" stroke="#4daf4a" />
<path d="M575.625,553.125 L605.625,553.125" close="False" data-weight="1.75" stroke-width="6" fill="none" stroke="#4daf4a" />
<path d="M500.2665898254845,632.125 L530.9834101745155,632.125" close="False" data-weight="1.75" stroke-width="6" fill="none" stroke="#4daf4a" />
<path d="M500.625,553.125 L530.625,553.125" close="False" data-weight="1.75" stroke-width="6" fill="none" stroke="#4daf4a" />
<path d="M425.2665898254845,632.125 L455.9834101745155,632.125" close="False" data-weight="1.75" stroke-width="6" fill="none" stroke="#4daf4a" />
<path d="M425.625,553.125 L455.625,553.125" close="False" data-weight="1.75" stroke-width="6" fill="none" stroke="#4daf4a" />
<path d="M350.2665898254845,632.125 L380.9834101745155,632.125" close="False" data-weight="1.75" stroke-width="6" fill="none" stroke="#4daf4a" />
<path d="M344.03490257669733,612.2150974233027 L387.21509742330267,569.0349025766973" close="False" data-weight="2.060660171779821" stroke-width="6" fill="none" stroke="#4daf4a" />
<path d="M1903.125,1505.625 A54.31980515339569,54.31980515339569,0,0,1,1898.9901510378277,1526.412289481504 M1898.9901510378277,1526.412289481504 A54.3198051533933,54.3198051533933,0,0,1,1887.2150974233027,1544.0349025766973 M1887.2150974233027,1544.0349025766973" close="False" data-weight="1.0" stroke-width="6" fill="none" stroke="#377eb8" />
<path d="M1903.125,1475.625 A54.31980515339569,54.31980515339569,0,0,0,1898.9901510378277,1454.837710518496 M1898.9901510378277,1454.837710518496 A54.3198051533933,54.3198051533933,0,0,0,1887.2150974233027,1437.2150974233027 M1887.2150974233027,1437.2150974233027" close="False" data-weight="1.0" stroke-width="6" fill="none" stroke="#377eb8" />
<path d="M1844.0349025766973,1587.2150974233027 C1836.0799512883486,1595.1700487116514,1820.1700487116514,1611.0799512883486,1812.2150974233027,1619.0349025766973" close="False" data-weight="0.0" stroke-width="6" fill="none" stroke="#377eb8" />
<path d="M1844.0349025766973,1394.0349025766973 A22.49999999999994,22.49999999999994,0,0,0,1828.125,1387.4448051533946 M1828.125,1387.4448051533946 A22.49999999999994,22.49999999999994,0,0,0,1812.2150974233027,1394.0349025766973 M1812.2150974233027,1394.0349025766973" close="False" data-weight="2.0" stroke-width="6" fill="none" stroke="#377eb8" />
<path d="M1769.0349025766973,1662.2150974233027 A54.3198051533949,54.3198051533949,0,0,1,1751.412289481504,1673.9901510378277 M1751.412289481504,1673.9901510378277 A54.3198051533941,54.3198051533941,0,0,1,1730.625,1678.125 M1730.625,1678.125" close="False" data-weight="1.0" stroke-width="6" fill="none" stroke="#377eb8" />
<path d="M1603.125,2330.625 C1603.125,2341.875,1603.125,2364.375,1603.125,2375.625" close="False" data-weight="0.0" stroke-width="6" fill="none" stroke="#377eb8" />
<path d="M1603.125,2255.625 C1603.125,2266.875,1603.125,2289.375,1603.125,2300.625" close="False" data-weight="0.0" stroke-width="6" fill="none" stroke="#377eb8" />
<path d="M1603.125,2180.625 C1603.125,2191.875,1603.125,2214.375,1603.125,2225.625" close="False" data-weight="0.0" stroke-width="6" fill="none" stroke="#377eb8" />
<path d="M1603.125,2105.625 C1603.125,2116.875,1603.125,2139.375,1603.125,2150.625" close="False" data-weight="0.0" stroke-width="6" fill="none" stroke="#377eb8" />
<path d="M1603.125,2030.625 C1603.125,2041.875,1603.125,2064.375,1603.125,2075.625" close="False" data-weight="0.0" stroke-width="6" fill="none" stroke="#377eb8" />
<path d="M1603.125,1955.625 C1603.125,1966.875,1603.125,1989.375,1603.125,2000.625" close="False" data-weight="0.0" stroke-width="6" fill="none" stroke="#377eb8" />
<path d="M1603.125,1880.625 C1603.125,1891.875,1603.125,1914.375,1603.125,1925.625" close="False" data-weight="0.0" stroke-width="6" fill="none" stroke="#377eb8" />
<path d="M1603.125,1805.625 C1603.125,1816.875,1603.125,1839.375,1603.125,1850.625" close="False" data-weight="0.0" stroke-width="6" fill="none" stroke="#377eb8" />
<path d="M1603.125,1730.625 C1603.125,1741.875,1603.125,1764.375,1603.125,1775.625" close="False" data-weight="0.0" stroke-width="6" fill="none" stroke="#377eb8" />
<path d="M1544.0349025766973,2487.2150974233027 A54.319805153391044,54.319805153391044,0,0,1,1526.4122894815043,2498.990151037828 M1526.4122894815043,2498.990151037828 A54.3198051533941,54.3198051533941,0,0,1,1505.625,2503.125 M1505.625,2503.125" close="False" data-weight="1.0" stroke-width="6" fill="none" stroke="#377eb8" />
<path d="M1475.625,2503.125 C1464.375,2503.125,1441.875,2503.125,1430.625,2503.125" close="False" data-weight="0.0" stroke-width="6" fill="none" stroke="#377eb8" />
<path d="M1400.625,2503.125 C1389.375,2503.125,1366.875,2503.125,1355.625,2503.125" close="False" data-weight="0.0" stroke-width="6" fill="none" stroke="#377eb8" />
<path d="M1325.625,2503.125 C1314.375,2503.125,1291.875,2503.125,1280.625,2503.125" close="False" data-weight="0.0" stroke-width="6" fill="none" stroke="#377eb8" />
<path d="M1250.625,2503.125 C1239.375,2503.125,1216.875,2503.125,1205.625,2503.125" close="False" data-weight="0.0" stroke-width="6" fill="none" stroke="#377eb8" />
<path d="M1175.625,2503.125 C1164.375,2503.125,1141.875,2503.125,1130.625,2503.125" close="False" data-weight="0.0" stroke-width="6" fill="none" stroke="#377eb8" />
<path d="M1100.625,2503.125 C1089.375,2503.125,1066.875,2503.125,1055.625,2503.125" close="False" data-weight="0.0" stroke-width="6" fill="none" stroke="#377eb8" />
<path d="M1025.625,2503.125 A54.3198051533991,54.3198051533991,0,0,1,1004.8377105184959,2498.990151037828 M1004.8377105184959,2498.990151037828 A54.319805153386056,54.319805153386056,0,0,1,987.2150974233027,2487.2150974233027 M987.2150974233027,2487.2150974233027" close="False" data-weight="1.0" stroke-width="6" fill="none" stroke="#377eb8" />
<path d="M944.0349025766973,2412.2150974233027 A22.49999999999994,22.49999999999994,0,0,0,937.4448051533947,2428.125 M937.4448051533947,2428.125 A22.49999999999994,22.49999999999994,0,0,0,944.0349025766973,2444.0349025766973 M944.0349025766973,2444.0349025766973" close="False" data-weight="2.0" stroke-width="6" fill="none" stroke="#377eb8" />
<path d="M1903.125,1475.625 L1903.125,1505.625" close="False" data-weight="1.75" stroke-width="6" fill="none" stroke="#377eb8" />
<path d="M1844.0349025766973,1587.2150974233027 L1887.2150974233027,1544.0349025766973" close="False" data-weight="2.060660171779821" stroke-width="6" fill="none" stroke="#377eb8" />
<path d="M1824.125,1475.2665898254845 L1824.125,1505.9834101745155" close="False" data-weight="1.75" stroke-width="6" fill="none" stroke="#377eb8" />
<path d="M1844.0349025766973,1394.0349025766973 L1887.2150974233027,1437.2150974233027" close="False" data-weight="2.060660171779821" stroke-width="6" fill="none" stroke="#377eb8" />
<path d="M1769.0349025766973,1662.2150974233027 L1812.2150974233027,1619.0349025766973" close="False" data-weight="2.060660171779821" stroke-width="6" fill="none" stroke="#377eb8" />
<path d="M1775.2665898254845,1524.125 L1805.9834101745155,1524.125" close="False" data-weight="1.75" stroke-width="6" fill="none" stroke="#377eb8" />
<path d="M1775.625,1453.125 L1805.625,1453.125" close="False" data-weight="1.75" stroke-width="6" fill="none" stroke="#377eb8" />
<path d="M1769.0349025766973,1437.2150974233027 L1812.2150974233027,1394.0349025766973" close="False" data-weight="2.060660171779821" stroke-width="6" fill="none" stroke="#377eb8" />
<path d="M1700.625,1678.125 L1730.625,1678.125" close="False" data-weight="1.75" stroke-width="6" fill="none" stroke="#377eb8" />
<path d="M1700.625,1528.125 L1730.625,1528.125" close="False" data-weight="1.75" stroke-width="6" fill="none" stroke="#377eb8" />
<path d="M1682.125,1475.2665898254845 L1682.125,1505.9834101745155" close="False" data-weight="1.75" stroke-width="6" fill="none" stroke="#377eb8" />
<path d="M1603.125,2375.625 L1603.125,2405.625" close="False" data-weight="1.75" stroke-width="6" fill="none" stroke="#377eb8" />
<path d="M1603.125,2300.625 L1603.125,2330.625" close="False" data-weight="1.75" stroke-width="6" fill="none" stroke="#377eb8" />
<path d="M1603.125,2225.625 L1603.125,2255.625" close="False" data-weight="1.75" stroke-width="6" fill="none" stroke="#377eb8" />
<path d="M1603.125,2150.625 L1603.125,2180.625" close="False" data-weight="1.75" stroke-width="6" fill="none" stroke="#377eb8" />
<path d="M1603.125,2075.625 L1603.125,2105.625" close="False" data-weight="1.75" stroke-width="6" fill="none" stroke="#377eb8" />
<path d="M1603.125,2000.625 L1603.125,2030.625" close="False" data-weight="1.75" stroke-width="6" fill="none" stroke="#377eb8" />
<path d="M1603.125,1925.625 L1603.125,1955.625" close="False" data-weight="1.75" stroke-width="6" fill="none" stroke="#377eb8" />
<path d="M1603.125,1850.625 L1603.125,1880.625" close="False" data-weight="1.75" stroke-width="6" fill="none" stroke="#377eb8" />
<path d="M1603.125,1775.625 L1603.125,1805.625" close="False" data-weight="1.75" stroke-width="6" fill="none" stroke="#377eb8" />
<path d="M1603.125,1700.625 L1603.125,1730.625" close="False" data-weight="1.75" stroke-width="6" fill="none" stroke="#377eb8" />
<path d="M1599.125,1625.2665898254845 L1599.125,1655.9834101745155" close="False" data-weight="1.75" stroke-width="6" fill="none" stroke="#377eb8" />
<path d="M1599.125,1550.2665898254845 L1599.125,1580.9834101745155" close="False" data-weight="1.75" stroke-width="6" fill="none" stroke="#377eb8" />
<path d="M1599.125,1475.2665898254845 L1599.125,1505.9834101745155" close="False" data-weight="1.75" stroke-width="6" fill="none" stroke="#377eb8" />
<path d="M1625.625,1453.125 L1655.625,1453.125" close="False" data-weight="1.75" stroke-width="6" fill="none" stroke="#377eb8" />
<path d="M1544.0349025766973,2487.2150974233027 L1587.2150974233027,2444.0349025766973" close="False" data-weight="2.060660171779821" stroke-width="6" fill="none" stroke="#377eb8" />
<path d="M1475.625,2503.125 L1505.625,2503.125" close="False" data-weight="1.75" stroke-width="6" fill="none" stroke="#377eb8" />
<path d="M1400.625,2503.125 L1430.625,2503.125" close="False" data-weight="1.75" stroke-width="6" fill="none" stroke="#377eb8" />
<path d="M1325.625,2503.125 L1355.625,2503.125" close="False" data-weight="1.75" stroke-width="6" fill="none" stroke="#377eb8" />
<path d="M1250.625,2503.125 L1280.625,2503.125" close="False" data-weight="1.75" stroke-width="6" fill="none" stroke="#377eb8" />
<path d="M1175.625,2503.125 L1205.625,2503.125" close="False" data-weight="1.75" stroke-width="6" fill="none" stroke="#377eb8" />
<path d="M1100.625,2503.125 L1130.625,2503.125" close="False" data-weight="1.75" stroke-width="6" fill="none" stroke="#377eb8" />
<path d="M1078.125,2375.625 L1078.125,2405.625" close="False" data-weight="1.75" stroke-width="6" fill="none" stroke="#377eb8" />
<path d="M1078.125,2300.625 L1078.125,2330.625" close="False" data-weight="1.75" stroke-width="6" fill="none" stroke="#377eb8" />
<path d="M1078.125,2225.625 L1078.125,2255.625" close="False" data-weight="1.75" stroke-width="6" fill="none" stroke="#377eb8" />
<path d="M1025.625,2503.125 L1055.625,2503.125" close="False" data-weight="1.75" stroke-width="6" fill="none" stroke="#377eb8" />
<path d="M1025.625,2428.125 L1055.625,2428.125" close="False" data-weight="1.75" stroke-width="6" fill="none" stroke="#377eb8" />
<path d="M1003.125,2375.625 L1003.125,2405.625" close="False" data-weight="1.75" stroke-width="6" fill="none" stroke="#377eb8" />
<path d="M1003.125,2225.625 L1003.125,2255.625" close="False" data-weight="1.75" stroke-width="6" fill="none" stroke="#377eb8" />
<path d="M1025.625,2203.125 L1055.625,2203.125" close="False" data-weight="1.75" stroke-width="6" fill="none" stroke="#377eb8" />
<path d="M944.0349025766973,2444.0349025766973 L987.2150974233027,2487.2150974233027" close="False" data-weight="2.060660171779821" stroke-width="6" fill="none" stroke="#377eb8" />
<path d="M944.0349025766973,2412.2150974233027 L987.2150974233027,2369.0349025766973" close="False" data-weight="2.060660171779821" stroke-width="6" fill="none" stroke="#377eb8" />
<path d="M2428.125,1655.625 C2428.125,1666.875,2428.125,1689.375,2428.125,1700.625" close="False" data-weight="0.0" stroke-width="6" fill="none" stroke="#e41a1c" />
<path d="M2428.125,1580.625 C2428.125,1591.875,2428.125,1614.375,2428.125,1625.625" close="False" data-weight="0.0" stroke-width="6" fill="none" stroke="#e41a1c" />
<path d="M2428.125,1505.625 C2428.125,1516.875,2428.125,1539.375,2428.125,1550.625" close="False" data-weight="0.0" stroke-width="6" fill="none" stroke="#e41a1c" />
<path d="M2428.125,1430.625 C2428.125,1441.875,2428.125,1464.375,2428.125,1475.625" close="False" data-weight="0.0" stroke-width="6" fill="none" stroke="#e41a1c" />
<path d="M2428.125,1355.625 C2428.125,1366.875,2428.125,1389.375,2428.125,1400.625" close="False" data-weight="0.0" stroke-width="6" fill="none" stroke="#e41a1c" />
<path d="M2428.125,1280.625 C2428.125,1291.875,2428.125,1314.375,2428.125,1325.625" close="False" data-weight="0.0" stroke-width="6" fill="none" stroke="#e41a1c" />
<path d="M2428.125,1205.625 C2428.125,1216.875,2428.125,1239.375,2428.125,1250.625" close="False" data-weight="0.0" stroke-width="6" fill="none" stroke="#e41a1c" />
<path d="M2428.125,1130.625 C2428.125,1141.875,2428.125,1164.375,2428.125,1175.625" close="False" data-weight="0.0" stroke-width="6" fill="none" stroke="#e41a1c" />
<path d="M2428.125,1055.625 C2428.125,1066.875,2428.125,1089.375,2428.125,1100.625" close="False" data-weight="0.0" stroke-width="6" fill="none" stroke="#e41a1c" />
<path d="M2428.125,980.625 C2428.125,991.875,2428.125,1014.375,2428.125,1025.625" close="False" data-weight="0.0" stroke-width="6" fill="none" stroke="#e41a1c" />
<path d="M2365.953041187105,1696.6098954365973 C2358.1248070311794,1688.7816612806716,2342.468338719328,1673.1251929688208,2334.6401045634025,1665.2969588128951" close="False" data-weight="0.0" stroke-width="6" fill="none" stroke="#e41a1c" />
<path d="M2290.953041187105,1621.6098954365973 C2283.1248070311794,1613.7816612806716,2267.468338719328,1598.1251929688208,2259.6401045634025,1590.2969588128951" close="False" data-weight="0.0" stroke-width="6" fill="none" stroke="#e41a1c" />
<path d="M2294.0349025766973,912.2150974233027 C2286.0799512883486,920.1700487116514,2270.1700487116514,936.0799512883486,2262.2150974233027,944.0349025766973" close="False" data-weight="0.0" stroke-width="6" fill="none" stroke="#e41a1c" />
<path d="M2215.953041187105,1546.6098954365973 C2208.1248070311794,1538.7816612806716,2192.468338719328,1523.1251929688208,2184.6401045634025,1515.2969588128951" close="False" data-weight="0.0" stroke-width="6" fill="none" stroke="#e41a1c" />
<path d="M2219.0349025766973,987.2150974233027 C2211.0799512883486,995.1700487116514,2195.1700487116514,1011.0799512883486,2187.2150974233027,1019.0349025766973" close="False" data-weight="0.0" stroke-width="6" fill="none" stroke="#e41a1c" />
<path d="M2140.953041187105,1471.6098954365973 A93.8303986367453,93.8303986367453,0,0,0,2124.812165663109,1458.6902502339126 M2124.812165663109,1458.6902502339126 A35.85816626156043,35.85816626156043,0,0,0,2105.625,1453.125 M2105.625,1453.125" close="False" data-weight="1.0" stroke-width="6" fill="none" stroke="#e41a1c" />
<path d="M2144.0349025766973,1062.2150974233027 C2136.0799512883486,1070.1700487116514,2120.1700487116514,1086.0799512883486,2112.2150974233027,1094.0349025766973" close="False" data-weight="0.0" stroke-width="6" fill="none" stroke="#e41a1c" />
<path d="M2075.625,1453.125 C2064.375,1453.125,2041.875,1453.125,2030.625,1453.125" close="False" data-weight="0.0" stroke-width="6" fill="none" stroke="#e41a1c" />
<path d="M2069.0349025766973,1137.2150974233027 C2061.0799512883486,1145.1700487116514,2045.1700487116514,1161.0799512883486,2037.2150974233027,1169.0349025766973" close="False" data-weight="0.0" stroke-width="6" fill="none" stroke="#e41a1c" />
<path d="M2000.625,1453.125 C1989.375,1453.125,1966.875,1453.125,1955.625,1453.125" close="False" data-weight="0.0" stroke-width="6" fill="none" stroke="#e41a1c" />
<path d="M1994.0349025766973,1212.2150974233027 A54.3198051533949,54.3198051533949,0,0,1,1976.412289481504,1223.9901510378277 M1976.412289481504,1223.9901510378277 A54.3198051533941,54.3198051533941,0,0,1,1955.625,1228.125 M1955.625,1228.125" close="False" data-weight="1.0" stroke-width="6" fill="none" stroke="#e41a1c" />
<path d="M1925.625,1453.125 C1914.375,1453.125,1891.875,1453.125,1880.625,1453.125" close="False" data-weight="0.0" stroke-width="6" fill="none" stroke="#e41a1c" />
<path d="M1925.625,1228.125 C1914.375,1228.125,1891.875,1228.125,1880.625,1228.125" close="False" data-weight="0.0" stroke-width="6" fill="none" stroke="#e41a1c" />
<path d="M1850.625,1228.125 C1839.375,1228.125,1816.875,1228.125,1805.625,1228.125" close="False" data-weight="0.0" stroke-width="6" fill="none" stroke="#e41a1c" />
<path d="M1775.625,1228.125 C1764.375,1228.125,1741.875,1228.125,1730.625,1228.125" close="False" data-weight="0.0" stroke-width="6" fill="none" stroke="#e41a1c" />
<path d="M1678.125,1580.625 C1678.125,1591.875,1678.125,1614.375,1678.125,1625.625" close="False" data-weight="0.0" stroke-width="6" fill="none" stroke="#e41a1c" />
<path d="M1700.625,1228.125 C1689.375,1228.125,1666.875,1228.125,1655.625,1228.125" close="False" data-weight="0.0" stroke-width="6" fill="none" stroke="#e41a1c" />
<path d="M1625.625,1228.125 C1614.375,1228.125,1591.875,1228.125,1580.625,1228.125" close="False" data-weight="0.0" stroke-width="6" fill="none" stroke="#e41a1c" />
<path d="M1550.625,1228.125 C1539.375,1228.125,1516.875,1228.125,1505.625,1228.125" close="False" data-weight="0.0" stroke-width="6" fill="none" stroke="#e41a1c" />
<path d="M1475.625,1228.125 C1464.375,1228.125,1441.875,1228.125,1430.625,1228.125" close="False" data-weight="0.0" stroke-width="6" fill="none" stroke="#e41a1c" />
<path d="M1453.125,905.625 C1453.125,916.875,1453.125,939.375,1453.125,950.625" close="False" data-weight="0.0" stroke-width="6" fill="none" stroke="#e41a1c" />
<path d="M1453.125,830.625 C1453.125,841.875,1453.125,864.375,1453.125,875.625" close="False" data-weight="0.0" stroke-width="6" fill="none" stroke="#e41a1c" />
<path d="M1453.125,800.625 A22.5,22.5,0,0,0,1446.5349025766973,784.7150974233027 M1446.5349025766973,784.7150974233027 A22.5,22.5,0,0,0,1430.625,778.125 M1430.625,778.125" close="False" data-weight="2.0" stroke-width="6" fill="none" stroke="#e41a1c" />
<path d="M1400.625,1228.125 A54.31980515339569,54.31980515339569,0,0,1,1379.837710518496,1223.9901510378277 M1379.837710518496,1223.9901510378277 A54.3198051533933,54.3198051533933,0,0,1,1362.2150974233027,1212.2150974233027 M1362.2150974233027,1212.2150974233027" close="False" data-weight="1.0" stroke-width="6" fill="none" stroke="#e41a1c" />
<path d="M1394.0349025766973,1062.2150974233027 A54.31980515339498,54.31980515339498,0,0,1,1376.412289481504,1073.9901510378277 M1376.412289481504,1073.9901510378277 A54.3198051533941,54.3198051533941,0,0,1,1355.625,1078.125 M1355.625,1078.125" close="False" data-weight="1.0" stroke-width="6" fill="none" stroke="#e41a1c" />
<path d="M1319.0349025766973,1169.0349025766973 C1311.0799512883486,1161.0799512883486,1295.1700487116514,1145.1700487116514,1287.2150974233027,1137.2150974233027" close="False" data-weight="0.0" stroke-width="6" fill="none" stroke="#e41a1c" />
<path d="M1325.625,1078.125 A54.31980515339569,54.31980515339569,0,0,1,1304.837710518496,1073.9901510378277 M1304.837710518496,1073.9901510378277 A54.319805153393375,54.319805153393375,0,0,1,1287.2150974233027,1062.2150974233027 M1287.2150974233027,1062.2150974233027" close="False" data-weight="1.0" stroke-width="6" fill="none" stroke="#e41a1c" />
<path d="M1303.125,980.625 C1303.125,991.875,1303.125,1014.375,1303.125,1025.625" close="False" data-weight="0.0" stroke-width="6" fill="none" stroke="#e41a1c" />
<path d="M1244.0349025766973,1062.2150974233027 A22.49999999999994,22.49999999999994,0,0,0,1237.4448051533946,1078.125 M1237.4448051533946,1078.125 A22.49999999999994,22.49999999999994,0,0,0,1244.0349025766973,1094.0349025766973 M1244.0349025766973,1094.0349025766973" close="False" data-weight="2.0" stroke-width="6" fill="none" stroke="#e41a1c" />
<path d="M1244.0349025766973,1019.0349025766973 C1236.0799512883486,1011.0799512883486,1220.1700487116514,995.1700487116514,1212.2150974233027,987.2150974233027" close="False" data-weight="0.0" stroke-width="6" fill="none" stroke="#e41a1c" />
<path d="M1149.125,755.9834101745155 A93.83039863674549,93.83039863674549,0,0,1,1146.8472461960373,776.5323014451633 M1146.8472461960373,776.5323014451633 A35.85816626156056,35.85816626156056,0,0,1,1137.2150974233027,794.0349025766973 M1137.2150974233027,794.0349025766973" close="False" data-weight="1.0" stroke-width="6" fill="none" stroke="#e41a1c" />
<path d="M1149.125,680.9834101745155 C1149.125,692.0542050872577,1149.125,714.1957949127423,1149.125,725.2665898254845" close="False" data-weight="0.0" stroke-width="6" fill="none" stroke="#e41a1c" />
<path d="M1096.6098954365973,690.296958812895 A57.454526449186446,57.454526449186446,0,0,1,1077.9703055610012,702.7515345873452 M1077.9703055610012,702.7515345873452 A57.45452644918703,57.45452644918703,0,0,1,1055.9834101745155,707.125 M1055.9834101745155,707.125" close="False" data-weight="1.0" stroke-width="6" fill="none" stroke="#e41a1c" />
<path d="M1025.2665898254845,707.125 C1014.1957949127423,707.125,992.0542050872577,707.125,980.9834101745155,707.125" close="False" data-weight="0.0" stroke-width="6" fill="none" stroke="#e41a1c" />
<path d="M950.2665898254845,707.125 C939.1957949127423,707.125,917.0542050872577,707.125,905.9834101745155,707.125" close="False" data-weight="0.0" stroke-width="6" fill="none" stroke="#e41a1c" />
<path d="M875.2665898254845,707.125 C864.1957949127423,707.125,842.0542050872577,707.125,830.9834101745155,707.125" close="False" data-weight="0.0" stroke-width="6" fill="none" stroke="#e41a1c" />
<path d="M800.2665898254845,707.125 C789.1957949127423,707.125,767.0542050872577,707.125,755.9834101745155,707.125" close="False" data-weight="0.0" stroke-width="6" fill="none" stroke="#e41a1c" />
<path d="M2428.125,1700.625 L2428.125,1730.625" close="False" data-weight="1.75" stroke-width="6" fill="none" stroke="#e41a1c" />
<path d="M2428.125,1625.625 L2428.125,1655.625" close="False" data-weight="1.75" stroke-width="6" fill="none" stroke="#e41a1c" />
<path d="M2428.125,1550.625 L2428.125,1580.625" close="False" data-weight="1.75" stroke-width="6" fill="none" stroke="#e41a1c" />
<path d="M2428.125,1475.625 L2428.125,1505.625" close="False" data-weight="1.75" stroke-width="6" fill="none" stroke="#e41a1c" />
<path d="M2428.125,1400.625 L2428.125,1430.625" close="False" data-weight="1.75" stroke-width="6" fill="none" stroke="#e41a1c" />
<path d="M2428.125,1325.625 L2428.125,1355.625" close="False" data-weight="1.75" stroke-width="6" fill="none" stroke="#e41a1c" />
<path d="M2428.125,1250.625 L2428.125,1280.625" close="False" data-weight="1.75" stroke-width="6" fill="none" stroke="#e41a1c" />
<path d="M2428.125,1175.625 L2428.125,1205.625" close="False" data-weight="1.75" stroke-width="6" fill="none" stroke="#e41a1c" />
<path d="M2428.125,1100.625 L2428.125,1130.625" close="False" data-weight="1.75" stroke-width="6" fill="none" stroke="#e41a1c" />
<path d="M2428.125,1025.625 L2428.125,1055.625" close="False" data-weight="1.75" stroke-width="6" fill="none" stroke="#e41a1c" />
<path d="M2428.125,950.625 L2428.125,980.625" close="False" data-weight="1.75" stroke-width="6" fill="none" stroke="#e41a1c" />
<path d="M2365.953041187105,1696.6098954365973 L2409.6401045634025,1740.2969588128951" close="False" data-weight="2.060660171779821" stroke-width="6" fill="none" stroke="#e41a1c" />
<path d="M2375.2665898254845,932.125 L2405.9834101745155,932.125" close="False" data-weight="1.75" stroke-width="6" fill="none" stroke="#e41a1c" />
<path d="M2349.125,875.2665898254845 L2349.125,905.9834101745155" close="False" data-weight="1.75" stroke-width="6" fill="none" stroke="#e41a1c" />
<path d="M2290.953041187105,1621.6098954365973 L2334.6401045634025,1665.2969588128951" close="False" data-weight="2.060660171779821" stroke-width="6" fill="none" stroke="#e41a1c" />
<path d="M2294.0349025766973,912.2150974233027 L2337.2150974233027,869.0349025766973" close="False" data-weight="2.060660171779821" stroke-width="6" fill="none" stroke="#e41a1c" />
<path d="M2215.953041187105,1546.6098954365973 L2259.6401045634025,1590.2969588128951" close="False" data-weight="2.060660171779821" stroke-width="6" fill="none" stroke="#e41a1c" />
<path d="M2219.0349025766973,987.2150974233027 L2262.2150974233027,944.0349025766973" close="False" data-weight="2.060660171779821" stroke-width="6" fill="none" stroke="#e41a1c" />
<path d="M2140.953041187105,1471.6098954365973 L2184.6401045634025,1515.2969588128951" close="False" data-weight="2.060660171779821" stroke-width="6" fill="none" stroke="#e41a1c" />
<path d="M2144.0349025766973,1062.2150974233027 L2187.2150974233027,1019.0349025766973" close="False" data-weight="2.060660171779821" stroke-width="6" fill="none" stroke="#e41a1c" />
<path d="M2075.625,1453.125 L2105.625,1453.125" close="False" data-weight="1.75" stroke-width="6" fill="none" stroke="#e41a1c" />
<path d="M2069.0349025766973,1137.2150974233027 L2112.2150974233027,1094.0349025766973" close="False" data-weight="2.060660171779821" stroke-width="6" fill="none" stroke="#e41a1c" />
<path d="M2000.625,1453.125 L2030.625,1453.125" close="False" data-weight="1.75" stroke-width="6" fill="none" stroke="#e41a1c" />
<path d="M1994.0349025766973,1212.2150974233027 L2037.2150974233027,1169.0349025766973" close="False" data-weight="2.060660171779821" stroke-width="6" fill="none" stroke="#e41a1c" />
<path d="M1925.625,1453.125 L1955.625,1453.125" close="False" data-weight="1.75" stroke-width="6" fill="none" stroke="#e41a1c" />
<path d="M1925.625,1228.125 L1955.625,1228.125" close="False" data-weight="1.75" stroke-width="6" fill="none" stroke="#e41a1c" />
<path d="M1832.125,1475.2665898254845 L1832.125,1505.9834101745155" close="False" data-weight="1.75" stroke-width="6" fill="none" stroke="#e41a1c" />
<path d="M1850.625,1453.125 L1880.625,1453.125" close="False" data-weight="1.75" stroke-width="6" fill="none" stroke="#e41a1c" />
<path d="M1850.625,1228.125 L1880.625,1228.125" close="False" data-weight="1.75" stroke-width="6" fill="none" stroke="#e41a1c" />
<path d="M1775.2665898254845,1532.125 L1805.9834101745155,1532.125" close="False" data-weight="1.75" stroke-width="6" fill="none" stroke="#e41a1c" />
<path d="M1753.125,1475.625 L1753.125,1505.625" close="False" data-weight="1.75" stroke-width="6" fill="none" stroke="#e41a1c" />
<path d="M1775.625,1228.125 L1805.625,1228.125" close="False" data-weight="1.75" stroke-width="6" fill="none" stroke="#e41a1c" />
<path d="M1678.125,1625.625 L1678.125,1655.625" close="False" data-weight="1.75" stroke-width="6" fill="none" stroke="#e41a1c" />
<path d="M1678.125,1550.625 L1678.125,1580.625" close="False" data-weight="1.75" stroke-width="6" fill="none" stroke="#e41a1c" />
<path d="M1674.125,1475.2665898254845 L1674.125,1505.9834101745155" close="False" data-weight="1.75" stroke-width="6" fill="none" stroke="#e41a1c" />
<path d="M1700.625,1453.125 L1730.625,1453.125" close="False" data-weight="1.75" stroke-width="6" fill="none" stroke="#e41a1c" />
<path d="M1700.625,1228.125 L1730.625,1228.125" close="False" data-weight="1.75" stroke-width="6" fill="none" stroke="#e41a1c" />
<path d="M1625.625,1678.125 L1655.625,1678.125" close="False" data-weight="1.75" stroke-width="6" fill="none" stroke="#e41a1c" />
<path d="M1607.125,1625.2665898254845 L1607.125,1655.9834101745155" close="False" data-weight="1.75" stroke-width="6" fill="none" stroke="#e41a1c" />
<path d="M1607.125,1550.2665898254845 L1607.125,1580.9834101745155" close="False" data-weight="1.75" stroke-width="6" fill="none" stroke="#e41a1c" />
<path d="M1607.125,1475.2665898254845 L1607.125,1505.9834101745155" close="False" data-weight="1.75" stroke-width="6" fill="none" stroke="#e41a1c" />
<path d="M1625.625,1228.125 L1655.625,1228.125" close="False" data-weight="1.75" stroke-width="6" fill="none" stroke="#e41a1c" />
<path d="M1550.625,1228.125 L1580.625,1228.125" close="False" data-weight="1.75" stroke-width="6" fill="none" stroke="#e41a1c" />
<path d="M1528.125,1025.625 L1528.125,1055.625" close="False" data-weight="1.75" stroke-width="6" fill="none" stroke="#e41a1c" />
<path d="M1528.125,950.625 L1528.125,980.625" close="False" data-weight="1.75" stroke-width="6" fill="none" stroke="#e41a1c" />
<path d="M1528.125,875.625 L1528.125,905.625" close="False" data-weight="1.75" stroke-width="6" fill="none" stroke="#e41a1c" />
<path d="M1475.625,1228.125 L1505.625,1228.125" close="False" data-weight="1.75" stroke-width="6" fill="none" stroke="#e41a1c" />
<path d="M1475.625,1078.125 L1505.625,1078.125" close="False" data-weight="1.75" stroke-width="6" fill="none" stroke="#e41a1c" />
<path d="M1453.125,950.625 L1453.125,980.625" close="False" data-weight="1.75" stroke-width="6" fill="none" stroke="#e41a1c" />
<path d="M1453.125,875.625 L1453.125,905.625" close="False" data-weight="1.75" stroke-width="6" fill="none" stroke="#e41a1c" />
<path d="M1475.625,853.125 L1505.625,853.125" close="False" data-weight="1.75" stroke-width="6" fill="none" stroke="#e41a1c" />
<path d="M1453.125,800.625 L1453.125,830.625" close="False" data-weight="1.75" stroke-width="6" fill="none" stroke="#e41a1c" />
<path d="M1400.625,1228.125 L1430.625,1228.125" close="False" data-weight="1.75" stroke-width="6" fill="none" stroke="#e41a1c" />
<path d="M1378.125,1100.625 L1378.125,1130.625" close="False" data-weight="1.75" stroke-width="6" fill="none" stroke="#e41a1c" />
<path d="M1400.625,1078.125 L1430.625,1078.125" close="False" data-weight="1.75" stroke-width="6" fill="none" stroke="#e41a1c" />
<path d="M1394.0349025766973,1062.2150974233027 L1437.2150974233027,1019.0349025766973" close="False" data-weight="2.060660171779821" stroke-width="6" fill="none" stroke="#e41a1c" />
<path d="M1378.125,950.625 L1378.125,980.625" close="False" data-weight="1.75" stroke-width="6" fill="none" stroke="#e41a1c" />
<path d="M1400.625,928.125 L1430.625,928.125" close="False" data-weight="1.75" stroke-width="6" fill="none" stroke="#e41a1c" />
<path d="M1378.125,800.625 L1378.125,830.625" close="False" data-weight="1.75" stroke-width="6" fill="none" stroke="#e41a1c" />
<path d="M1400.625,778.125 L1430.625,778.125" close="False" data-weight="1.75" stroke-width="6" fill="none" stroke="#e41a1c" />
<path d="M1319.0349025766973,1169.0349025766973 L1362.2150974233027,1212.2150974233027" close="False" data-weight="2.060660171779821" stroke-width="6" fill="none" stroke="#e41a1c" />
<path d="M1319.0349025766973,1094.0349025766973 L1362.2150974233027,1137.2150974233027" close="False" data-weight="2.060660171779821" stroke-width="6" fill="none" stroke="#e41a1c" />
<path d="M1325.625,1078.125 L1355.625,1078.125" close="False" data-weight="1.75" stroke-width="6" fill="none" stroke="#e41a1c" />
<path d="M1303.125,1025.625 L1303.125,1055.625" close="False" data-weight="1.75" stroke-width="6" fill="none" stroke="#e41a1c" />
<path d="M1325.625,1003.125 L1355.625,1003.125" close="False" data-weight="1.75" stroke-width="6" fill="none" stroke="#e41a1c" />
<path d="M1303.125,950.625 L1303.125,980.625" close="False" data-weight="1.75" stroke-width="6" fill="none" stroke="#e41a1c" />
<path d="M1303.125,875.625 L1303.125,905.625" close="False" data-weight="1.75" stroke-width="6" fill="none" stroke="#e41a1c" />
<path d="M1325.625,853.125 L1355.625,853.125" close="False" data-weight="1.75" stroke-width="6" fill="none" stroke="#e41a1c" />
<path d="M1244.0349025766973,1094.0349025766973 L1287.2150974233027,1137.2150974233027" close="False" data-weight="2.060660171779821" stroke-width="6" fill="none" stroke="#e41a1c" />
<path d="M1244.0349025766973,1062.2150974233027 L1287.2150974233027,1019.0349025766973" close="False" data-weight="2.060660171779821" stroke-width="6" fill="none" stroke="#e41a1c" />
<path d="M1244.0349025766973,1019.0349025766973 L1287.2150974233027,1062.2150974233027" close="False" data-weight="2.060660171779821" stroke-width="6" fill="none" stroke="#e41a1c" />
<path d="M1169.0349025766973,944.0349025766973 L1212.2150974233027,987.2150974233027" close="False" data-weight="2.060660171779821" stroke-width="6" fill="none" stroke="#e41a1c" />
<path d="M1149.125,725.2665898254845 L1149.125,755.9834101745155" close="False" data-weight="1.75" stroke-width="6" fill="none" stroke="#e41a1c" />
<path d="M1149.125,650.2665898254845 L1149.125,680.9834101745155" close="False" data-weight="1.75" stroke-width="6" fill="none" stroke="#e41a1c" />
<path d="M1100.2665898254845,932.125 L1130.9834101745155,932.125" close="False" data-weight="1.75" stroke-width="6" fill="none" stroke="#e41a1c" />
<path d="M1074.125,875.2665898254845 L1074.125,905.9834101745155" close="False" data-weight="1.75" stroke-width="6" fill="none" stroke="#e41a1c" />
<path d="M1094.0349025766973,837.2150974233027 L1137.2150974233027,794.0349025766973" close="False" data-weight="2.060660171779821" stroke-width="6" fill="none" stroke="#e41a1c" />
<path d="M1096.6098954365973,690.296958812895 L1140.2969588128951,646.6098954365974" close="False" data-weight="2.060660171779821" stroke-width="6" fill="none" stroke="#e41a1c" />
<path d="M1025.2665898254845,707.125 L1055.9834101745155,707.125" close="False" data-weight="1.75" stroke-width="6" fill="none" stroke="#e41a1c" />
<path d="M950.2665898254845,707.125 L980.9834101745155,707.125" close="False" data-weight="1.75" stroke-width="6" fill="none" stroke="#e41a1c" />
<path d="M875.2665898254845,707.125 L905.9834101745155,707.125" close="False" data-weight="1.75" stroke-width="6" fill="none" stroke="#e41a1c" />
<path d="M800.2665898254845,707.125 L830.9834101745155,707.125" close="False" data-weight="1.75" stroke-width="6" fill="none" stroke="#e41a1c" />
<path d="M725.2665898254845,707.125 L755.9834101745155,707.125" close="False" data-weight="1.75" stroke-width="6" fill="none" stroke="#e41a1c" />
<image x="2395.625" y="1720.625" width="65" height="65" xlink:href="designspace-test/./img/ds_dataset2_60_31_thumb.png">
<title>31</title>
</image>
<image x="2395.625" y="895.625" width="65" height="65" xlink:href="designspace-test/./img/ds_dataset2_60_50_thumb.png">
<title>50</title>
</image>
<image x="2320.625" y="895.625" width="65" height="65" xlink:href="designspace-test/./img/ds_dataset2_60_29_thumb.png">
<title>29</title>
</image>
<image x="2320.625" y="820.625" width="65" height="65" xlink:href="designspace-test/./img/ds_dataset2_60_12_thumb.png">
<title>12</title>
</image>
<image x="1795.625" y="1495.625" width="65" height="65" xlink:href="designspace-test/./img/ds_dataset2_60_19_thumb.png">
<title>19</title>
</image>
<image x="1795.625" y="1420.625" width="65" height="65" xlink:href="designspace-test/./img/ds_dataset2_60_55_thumb.png">
<title>55</title>
</image>
<image x="1720.625" y="1495.625" width="65" height="65" xlink:href="designspace-test/./img/ds_dataset2_60_51_thumb.png">
<title>51</title>
</image>
<image x="1720.625" y="1420.625" width="65" height="65" xlink:href="designspace-test/./img/ds_dataset2_60_39_thumb.png">
<title>39</title>
</image>
<image x="1645.625" y="1645.625" width="65" height="65" xlink:href="designspace-test/./img/ds_dataset2_60_38_thumb.png">
<title>38</title>
</image>
<image x="1645.625" y="1495.625" width="65" height="65" xlink:href="designspace-test/./img/ds_dataset2_60_26_thumb.png">
<title>26</title>
</image>
<image x="1645.625" y="1420.625" width="65" height="65" xlink:href="designspace-test/./img/ds_dataset2_60_24_thumb.png">
<title>24</title>
</image>
<image x="1570.625" y="2395.625" width="65" height="65" xlink:href="designspace-test/./img/ds_dataset2_60_57_thumb.png">
<title>57</title>
</image>
<image x="1570.625" y="1645.625" width="65" height="65" xlink:href="designspace-test/./img/ds_dataset2_60_13_thumb.png">
<title>13</title>
</image>
<image x="1570.625" y="1570.625" width="65" height="65" xlink:href="designspace-test/./img/ds_dataset2_60_18_thumb.png">
<title>18</title>
</image>
<image x="1570.625" y="1495.625" width="65" height="65" xlink:href="designspace-test/./img/ds_dataset2_60_16_thumb.png">
<title>16</title>
</image>
<image x="1570.625" y="1420.625" width="65" height="65" xlink:href="designspace-test/./img/ds_dataset2_60_11_thumb.png">
<title>11</title>
</image>
<image x="1495.625" y="1045.625" width="65" height="65" xlink:href="designspace-test/./img/ds_dataset2_60_56_thumb.png">
<title>56</title>
</image>
<image x="1495.625" y="970.625" width="65" height="65" xlink:href="designspace-test/./img/ds_dataset2_60_41_thumb.png">
<title>41</title>
</image>
<image x="1495.625" y="895.625" width="65" height="65" xlink:href="designspace-test/./img/ds_dataset2_60_46_thumb.png">
<title>46</title>
</image>
<image x="1495.625" y="820.625" width="65" height="65" xlink:href="designspace-test/./img/ds_dataset2_60_36_thumb.png">
<title>36</title>
</image>
<image x="1420.625" y="1045.625" width="65" height="65" xlink:href="designspace-test/./img/ds_dataset2_60_54_thumb.png">
<title>54</title>
</image>
<image x="1420.625" y="970.625" width="65" height="65" xlink:href="designspace-test/./img/ds_dataset2_60_58_thumb.png">
<title>58</title>
</image>
<image x="1420.625" y="895.625" width="65" height="65" xlink:href="designspace-test/./img/ds_dataset2_60_8_thumb.png">
<title>8</title>
</image>
<image x="1420.625" y="820.625" width="65" height="65" xlink:href="designspace-test/./img/ds_dataset2_60_17_thumb.png">
<title>17</title>
</image>
<image x="1345.625" y="1120.625" width="65" height="65" xlink:href="designspace-test/./img/ds_dataset2_60_32_thumb.png">
<title>32</title>
</image>
<image x="1345.625" y="1045.625" width="65" height="65" xlink:href="designspace-test/./img/ds_dataset2_60_49_thumb.png">
<title>49</title>
</image>
<image x="1345.625" y="970.625" width="65" height="65" xlink:href="designspace-test/./img/ds_dataset2_60_20_thumb.png">
<title>20</title>
</image>
<image x="1345.625" y="895.625" width="65" height="65" xlink:href="designspace-test/./img/ds_dataset2_60_9_thumb.png">
<title>9</title>
</image>
<image x="1345.625" y="820.625" width="65" height="65" xlink:href="designspace-test/./img/ds_dataset2_60_43_thumb.png">
<title>43</title>
</image>
<image x="1345.625" y="745.625" width="65" height="65" xlink:href="designspace-test/./img/ds_dataset2_60_53_thumb.png">
<title>53</title>
</image>
<image x="1345.625" y="70.625" width="65" height="65" xlink:href="designspace-test/./img/ds_dataset2_60_28_thumb.png">
<title>28</title>
</image>
<image x="1270.625" y="1045.625" width="65" height="65" xlink:href="designspace-test/./img/ds_dataset2_60_37_thumb.png">
<title>37</title>
</image>
<image x="1270.625" y="970.625" width="65" height="65" xlink:href="designspace-test/./img/ds_dataset2_60_1_thumb.png">
<title>1</title>
</image>
<image x="1270.625" y="895.625" width="65" height="65" xlink:href="designspace-test/./img/ds_dataset2_60_44_thumb.png">
<title>44</title>
</image>
<image x="1270.625" y="820.625" width="65" height="65" xlink:href="designspace-test/./img/ds_dataset2_60_30_thumb.png">
<title>30</title>
</image>
<image x="1120.625" y="895.625" width="65" height="65" xlink:href="designspace-test/./img/ds_dataset2_60_14_thumb.png">
<title>14</title>
</image>
<image x="1120.625" y="595.625" width="65" height="65" xlink:href="designspace-test/./img/ds_dataset2_60_6_thumb.png">
<title>6</title>
</image>
<image x="1045.625" y="2395.625" width="65" height="65" xlink:href="designspace-test/./img/ds_dataset2_60_22_thumb.png">
<title>22</title>
</image>
<image x="1045.625" y="2320.625" width="65" height="65" xlink:href="designspace-test/./img/ds_dataset2_60_2_thumb.png">
<title>2</title>
</image>
<image x="1045.625" y="2245.625" width="65" height="65" xlink:href="designspace-test/./img/ds_dataset2_60_40_thumb.png">
<title>40</title>
</image>
<image x="1045.625" y="2170.625" width="65" height="65" xlink:href="designspace-test/./img/ds_dataset2_60_7_thumb.png">
<title>7</title>
</image>
<image x="1045.625" y="895.625" width="65" height="65" xlink:href="designspace-test/./img/ds_dataset2_60_34_thumb.png">
<title>34</title>
</image>
<image x="1045.625" y="820.625" width="65" height="65" xlink:href="designspace-test/./img/ds_dataset2_60_23_thumb.png">
<title>23</title>
</image>
<image x="1045.625" y="145.625" width="65" height="65" xlink:href="designspace-test/./img/ds_dataset2_60_47_thumb.png">
<title>47</title>
</image>
<image x="1045.625" y="70.625" width="65" height="65" xlink:href="designspace-test/./img/ds_dataset2_60_59_thumb.png">
<title>59</title>
</image>
<image x="970.625" y="2395.625" width="65" height="65" xlink:href="designspace-test/./img/ds_dataset2_60_45_thumb.png">
<title>45</title>
</image>
<image x="970.625" y="2320.625" width="65" height="65" xlink:href="designspace-test/./img/ds_dataset2_60_27_thumb.png">
<title>27</title>
</image>
<image x="970.625" y="2245.625" width="65" height="65" xlink:href="designspace-test/./img/ds_dataset2_60_0_thumb.png">
<title>0</title>
</image>
<image x="970.625" y="2170.625" width="65" height="65" xlink:href="designspace-test/./img/ds_dataset2_60_25_thumb.png">
<title>25</title>
</image>
<image x="970.625" y="145.625" width="65" height="65" xlink:href="designspace-test/./img/ds_dataset2_60_42_thumb.png">
<title>42</title>
</image>
<image x="970.625" y="70.625" width="65" height="65" xlink:href="designspace-test/./img/ds_dataset2_60_35_thumb.png">
<title>35</title>
</image>
<image x="895.625" y="70.625" width="65" height="65" xlink:href="designspace-test/./img/ds_dataset2_60_52_thumb.png">
<title>52</title>
</image>
<image x="670.625" y="1195.625" width="65" height="65" xlink:href="designspace-test/./img/ds_dataset2_60_21_thumb.png">
<title>21</title>
</image>
<image x="670.625" y="670.625" width="65" height="65" xlink:href="designspace-test/./img/ds_dataset2_60_10_thumb.png">
<title>10</title>
</image>
<image x="595.625" y="1270.625" width="65" height="65" xlink:href="designspace-test/./img/ds_dataset2_60_3_thumb.png">
<title>3</title>
</image>
<image x="595.625" y="1195.625" width="65" height="65" xlink:href="designspace-test/./img/ds_dataset2_60_5_thumb.png">
<title>5</title>
</image>
<image x="595.625" y="1120.625" width="65" height="65" xlink:href="designspace-test/./img/ds_dataset2_60_15_thumb.png">
<title>15</title>
</image>
<image x="295.625" y="595.625" width="65" height="65" xlink:href="designspace-test/./img/ds_dataset2_60_48_thumb.png">
<title>48</title>
</image>
<image x="145.625" y="1945.625" width="65" height="65" xlink:href="designspace-test/./img/ds_dataset2_60_33_thumb.png">
<title>33</title>
</image>
</svg>