<?xml version="1.0" encoding="UTF-8"?>
<svg xmlns="http://www.w3.org/2000/svg" xmlns:xlink="http://www.w3.org/1999/xlink"
     width="2550" height="2550" viewBox="0 0 2550 2550">
<defs>
</defs>
<path d="M987.2150974233027,1094.0349025766973 A22.49999999999994,22.49999999999994,0,0,0,993.8051948466053,1078.125 M993.8051948466053,1078.125 A22.49999999999994,22.49999999999994,0,0,0,987.2150974233027,1062.2150974233027 M987.2150974233027,1062.2150974233027" close="False" data-weight="2.0" stroke-width="6" fill="none" stroke="#ffff33" />
<path d="M944.0349025766973,1137.2150974233027 C936.0799512883486,1145.1700487116514,920.1700487116514,1161.0799512883486,912.2150974233027,1169.0349025766973" close="False" data-weight="0.0" stroke-width="6" fill="none" stroke="#ffff33" />
<path d="M869.0349025766973,1212.2150974233027 A54.31980515339554,54.31980515339554,0,0,1,851.412289481504,1223.990151037828 M851.412289481504,1223.990151037828 A54.319805153393645,54.319805153393645,0,0,1,830.625,1228.125 M830.625,1228.125" close="False" data-weight="1.0" stroke-width="6" fill="none" stroke="#ffff33" />
<path d="M869.0349025766973,869.0349025766973 C861.0799512883486,861.0799512883486,845.1700487116514,845.1700487116514,837.2150974233027,837.2150974233027" close="False" data-weight="0.0" stroke-width="6" fill="none" stroke="#ffff33" />
<path d="M794.0349025766973,794.0349025766973 C786.1116939026759,786.1116939026759,773.2201674869164,767.5633132374239,765.296958812895,759.6401045634026" close="False" data-weight="0.0" stroke-width="6" fill="none" stroke="#ffff33" />
<path d="M640.953041187105,646.6098954365974 A49.45452644918767,49.45452644918767,0,0,0,624.9088381020804,635.889501672745 M624.9088381020804,635.889501672745 A49.45452644918612,49.45452644918612,0,0,0,605.9834101745155,632.125 M605.9834101745155,632.125" close="False" data-weight="1.0" stroke-width="6" fill="none" stroke="#ffff33" />
<path d="M575.2665898254845,632.125 C564.1957949127423,632.125,542.0542050872577,632.125,530.9834101745155,632.125" close="False" data-weight="0.0" stroke-width="6" fill="none" stroke="#ffff33" />
<path d="M500.2665898254845,632.125 C489.19579491274226,632.125,467.05420508725774,632.125,455.9834101745155,632.125" close="False" data-weight="0.0" stroke-width="6" fill="none" stroke="#ffff33" />
<path d="M425.2665898254845,632.125 C414.19579491274226,632.125,392.05420508725774,632.125,380.9834101745155,632.125" close="False" data-weight="0.0" stroke-width="6" fill="none" stroke="#ffff33" />
<path d="M328.125,830.625 A54.319805153393474,54.319805153393474,0,0,1,323.99015103782773,851.4122894815039 M323.99015103782773,851.4122894815039 A54.319805153395706,54.319805153395706,0,0,1,312.21509742330267,869.0349025766973 M312.21509742330267,869.0349025766973" close="False" data-weight="1.0" stroke-width="6" fill="none" stroke="#ffff33" />
<path d="M328.125,755.625 C328.125,766.875,328.125,789.375,328.125,800.625" close="False" data-weight="0.0" stroke-width="6" fill="none" stroke="#ffff33" />
<path d="M328.125,680.625 C328.125,691.875,328.125,714.375,328.125,725.625" close="False" data-weight="0.0" stroke-width="6" fill="none" stroke="#ffff33" />
<path d="M269.03490257669733,912.2150974233027 C261.0799512883487,920.1700487116514,245.1700487116513,936.0799512883486,237.21509742330267,944.0349025766973" close="False" data-weight="0.0" stroke-width="6" fill="none" stroke="#ffff33" />
<path d="M944.0349025766973,1137.2150974233027 L987.2150974233027,1094.0349025766973" close="False" data-weight="2.060660171779821" stroke-width="6" fill="none" stroke="#ffff33" />
<path d="M928.125,1025.625 L928.125,1055.625" close="False" data-weight="1.75" stroke-width="6" fill="none" stroke="#ffff33" />
<path d="M944.0349025766973,1019.0349025766973 L987.2150974233027,1062.2150974233027" close="False" data-weight="2.060660171779821" stroke-width="6" fill="none" stroke="#ffff33" />
<path d="M869.0349025766973,1212.2150974233027 L912.2150974233027,1169.0349025766973" close="False" data-weight="2.060660171779821" stroke-width="6" fill="none" stroke="#ffff33" />
<path d="M871.6098954365974,1015.953041187105 L915.296958812895,1059.6401045634027" close="False" data-weight="2.060660171779821" stroke-width="6" fill="none" stroke="#ffff33" />
<path d="M869.0349025766973,987.2150974233027 L912.2150974233027,944.0349025766973" close="False" data-weight="2.060660171779821" stroke-width="6" fill="none" stroke="#ffff33" />
<path d="M869.0349025766973,869.0349025766973 L912.2150974233027,912.2150974233027" close="False" data-weight="2.060660171779821" stroke-width="6" fill="none" stroke="#ffff33" />
<path d="M800.625,1228.125 L830.625,1228.125" close="False" data-weight="1.75" stroke-width="6" fill="none" stroke="#ffff33" />
<path d="M794.0349025766973,794.0349025766973 L837.2150974233027,837.2150974233027" close="False" data-weight="2.060660171779821" stroke-width="6" fill="none" stroke="#ffff33" />
<path d="M721.6098954365974,715.953041187105 L765.296958812895,759.6401045634026" close="False" data-weight="2.060660171779821" stroke-width="6" fill="none" stroke="#ffff33" />
<path d="M640.953041187105,646.6098954365974 L684.6401045634026,690.296958812895" close="False" data-weight="2.060660171779821" stroke-width="6" fill="none" stroke="#ffff33" />
<path d="M575.2665898254845,632.125 L605.9834101745155,632.125" close="False" data-weight="1.75" stroke-width="6" fill="none" stroke="#ffff33" />
<path d="M500.2665898254845,632.125 L530.9834101745155,632.125" close="False" data-weight="1.75" stroke-width="6" fill="none" stroke="#ffff33" />
<path d="M425.2665898254845,632.125 L455.9834101745155,632.125" close="False" data-weight="1.75" stroke-width="6" fill="none" stroke="#ffff33" />
<path d="M328.125,800.625 L328.125,830.625" close="False" data-weight="1.75" stroke-width="6" fill="none" stroke="#ffff33" />
<path d="M328.125,725.625 L328.125,755.625" close="False" data-weight="1.75" stroke-width="6" fill="none" stroke="#ffff33" />
<path d="M328.125,650.625 L328.125,680.625" close="False" data-weight="1.75" stroke-width="6" fill="none" stroke="#ffff33" />
<path d="M350.2665898254845,632.125 L380.9834101745155,632.125" close="False" data-weight="1.75" stroke-width="6" fill="none" stroke="#ffff33" />
<path d="M269.03490257669733,912.2150974233027 L312.21509742330267,869.0349025766973" close="False" data-weight="2.060660171779821" stroke-width="6" fill="none" stroke="#ffff33" />
<path d="M194.03490257669733,1212.2150974233027 L237.2150974233027,1169.0349025766973" close="False" data-weight="2.060660171779821" stroke-width="6" fill="none" stroke="#ffff33" />
<path d="M200.625,1153.125 L230.625,1153.125" close="False" data-weight="1.75" stroke-width="6" fill="none" stroke="#ffff33" />
<path d="M178.125,1100.625 L178.125,1130.625" close="False" data-weight="1.75" stroke-width="6" fill="none" stroke="#ffff33" />
<path d="M178.125,1025.625 L178.125,1055.625" close="False" data-weight="1.75" stroke-width="6" fill="none" stroke="#ffff33" />
<path d="M194.03490257669733,987.2150974233027 L237.2150974233027,944.0349025766973" close="False" data-weight="2.060660171779821" stroke-width="6" fill="none" stroke="#ffff33" />
<path d="M1978.125,2105.625 A35.85816626156202,35.85816626156202,0,0,1,1972.5597497660874,2124.812165663109 M1972.5597497660874,2124.812165663109 A93.83039863673518,93.83039863673518,0,0,1,1959.6401045634027,2140.953041187105 M1959.6401045634027,2140.953041187105" close="False" data-weight="1.0" stroke-width="6" fill="none" stroke="#984ea3" />
<path d="M1978.125,2030.625 C1978.125,2041.875,1978.125,2064.375,1978.125,2075.625" close="False" data-weight="0.0" stroke-width="6" fill="none" stroke="#984ea3" />
<path d="M1978.125,1955.625 C1978.125,1966.875,1978.125,1989.375,1978.125,2000.625" close="False" data-weight="0.0" stroke-width="6" fill="none" stroke="#984ea3" />
<path d="M1978.125,1880.625 C1978.125,1891.875,1978.125,1914.375,1978.125,1925.625" close="False" data-weight="0.0" stroke-width="6" fill="none" stroke="#984ea3" />
<path d="M1978.125,1805.625 C1978.125,1816.875,1978.125,1839.375,1978.125,1850.625" close="False" data-weight="0.0" stroke-width="6" fill="none" stroke="#984ea3" />
<path d="M1978.125,1730.625 C1978.125,1741.875,1978.125,1764.375,1978.125,1775.625" close="False" data-weight="0.0" stroke-width="6" fill="none" stroke="#984ea3" />
<path d="M1978.125,1655.625 C1978.125,1666.875,1978.125,1689.375,1978.125,1700.625" close="False" data-weight="0.0" stroke-width="6" fill="none" stroke="#984ea3" />
<path d="M1978.125,1580.625 C1978.125,1591.875,1978.125,1614.375,1978.125,1625.625" close="False" data-weight="0.0" stroke-width="6" fill="none" stroke="#984ea3" />
<path d="M1978.125,1505.625 C1978.125,1516.875,1978.125,1539.375,1978.125,1550.625" close="False" data-weight="0.0" stroke-width="6" fill="none" stroke="#984ea3" />
<path d="M1978.125,1430.625 C1978.125,1441.875,1978.125,1464.375,1978.125,1475.625" close="False" data-weight="0.0" stroke-width="6" fill="none" stroke="#984ea3" />
<path d="M1978.125,1355.625 C1978.125,1366.875,1978.125,1389.375,1978.125,1400.625" close="False" data-weight="0.0" stroke-width="6" fill="none" stroke="#984ea3" />
<path d="M1978.125,1280.625 C1978.125,1291.875,1978.125,1314.375,1978.125,1325.625" close="False" data-weight="0.0" stroke-width="6" fill="none" stroke="#984ea3" />
<path d="M1978.125,1205.625 C1978.125,1216.875,1978.125,1239.375,1978.125,1250.625" close="False" data-weight="0.0" stroke-width="6" fill="none" stroke="#984ea3" />
<path d="M1915.9530411871049,2184.6401045634025 C1908.1248070311792,2192.468338719328,1892.4683387193284,2208.1248070311794,1884.6401045634027,2215.953041187105" close="False" data-weight="0.0" stroke-width="6" fill="none" stroke="#984ea3" />
<path d="M1919.0349025766973,1212.2150974233027 C1911.0799512883486,1220.1700487116514,1895.1700487116514,1236.0799512883486,1887.2150974233027,1244.0349025766973" close="False" data-weight="0.0" stroke-width="6" fill="none" stroke="#984ea3" />
<path d="M1840.9530411871049,2259.6401045634025 C1833.1248070311792,2267.468338719328,1817.4683387193284,2283.1248070311794,1809.6401045634027,2290.953041187105" close="False" data-weight="0.0" stroke-width="6" fill="none" stroke="#984ea3" />
<path d="M1844.0349025766973,1287.2150974233027 A54.3198051533949,54.3198051533949,0,0,1,1826.412289481504,1298.9901510378277 M1826.412289481504,1298.9901510378277 A54.3198051533941,54.3198051533941,0,0,1,1805.625,1303.125 M1805.625,1303.125" close="False" data-weight="1.0" stroke-width="6" fill="none" stroke="#984ea3" />
<path d="M1765.9530411871644,2334.640104563343 C1758.124807031209,2342.468338719298,1742.4683387192986,2358.1248070312095,1734.6401045633431,2365.9530411871647" close="False" data-weight="0.0" stroke-width="6" fill="none" stroke="#984ea3" />
<path d="M1775.625,1303.125 C1764.375,1303.125,1741.875,1303.125,1730.625,1303.125" close="False" data-weight="0.0" stroke-width="6" fill="none" stroke="#984ea3" />
<path d="M1700.625,1303.125 A54.31980515339569,54.31980515339569,0,0,1,1679.837710518496,1298.9901510378277 M1679.837710518496,1298.9901510378277 A54.3198051533933,54.3198051533933,0,0,1,1662.2150974233027,1287.2150974233027 M1662.2150974233027,1287.2150974233027" close="False" data-weight="1.0" stroke-width="6" fill="none" stroke="#984ea3" />
<path d="M1619.0349025766973,1244.0349025766973 C1611.0799512883486,1236.0799512883486,1595.1700487116514,1220.1700487116514,1587.2150974233027,1212.2150974233027" close="False" data-weight="0.0" stroke-width="6" fill="none" stroke="#984ea3" />
<path d="M1544.0349025766973,1169.0349025766973 C1536.0799512883486,1161.0799512883486,1520.1700487116514,1145.1700487116514,1512.2150974233027,1137.2150974233027" close="False" data-weight="0.0" stroke-width="6" fill="none" stroke="#984ea3" />
<path d="M1469.0349025766973,1094.0349025766973 C1461.0799512883486,1086.0799512883486,1445.1700487116514,1070.1700487116514,1437.2150974233027,1062.2150974233027" close="False" data-weight="0.0" stroke-width="6" fill="none" stroke="#984ea3" />
<path d="M1394.0349025766973,1019.0349025766973 C1386.0799512883486,1011.0799512883486,1370.1700487116514,995.1700487116514,1362.2150974233027,987.2150974233027" close="False" data-weight="0.0" stroke-width="6" fill="none" stroke="#984ea3" />
<path d="M1319.0349025766973,944.0349025766973 C1311.0799512883486,936.0799512883486,1295.1700487116514,920.1700487116514,1287.2150974233027,912.2150974233027" close="False" data-weight="0.0" stroke-width="6" fill="none" stroke="#984ea3" />
<path d="M1244.0349025766973,869.0349025766973 C1236.0799512883486,861.0799512883486,1220.1700487116514,845.1700487116514,1212.2150974233027,837.2150974233027" close="False" data-weight="0.0" stroke-width="6" fill="none" stroke="#984ea3" />
<path d="M1169.0349025766973,794.0349025766973 C1161.0799512883486,786.0799512883486,1145.1700487116514,770.1700487116514,1137.2150974233027,762.2150974233027" close="False" data-weight="0.0" stroke-width="6" fill="none" stroke="#984ea3" />
<path d="M1094.0349025766973,719.0349025766973 A54.31980515339514,54.31980515339514,0,0,0,1076.412289481504,707.2598489621722 M1076.412289481504,707.2598489621722 A54.319805153393986,54.319805153393986,0,0,0,1055.625,703.125 M1055.625,703.125" close="False" data-weight="1.0" stroke-width="6" fill="none" stroke="#984ea3" />
<path d="M1025.625,703.125 C1014.375,703.125,991.875,703.125,980.625,703.125" close="False" data-weight="0.0" stroke-width="6" fill="none" stroke="#984ea3" />
<path d="M950.625,703.125 C939.375,703.125,916.875,703.125,905.625,703.125" close="False" data-weight="0.0" stroke-width="6" fill="none" stroke="#984ea3" />
<path d="M875.625,703.125 C864.375,703.125,841.875,703.125,830.625,703.125" close="False" data-weight="0.0" stroke-width="6" fill="none" stroke="#984ea3" />
<path d="M800.625,703.125 C789.375,703.125,766.875,703.125,755.625,703.125" close="False" data-weight="0.0" stroke-width="6" fill="none" stroke="#984ea3" />
<path d="M703.125,1205.625 A54.31980515339285,54.31980515339285,0,0,1,698.9901510378276,1226.412289481504 M698.9901510378276,1226.412289481504 A54.31980515339619,54.31980515339619,0,0,1,687.2150974233027,1244.0349025766973 M687.2150974233027,1244.0349025766973" close="False" data-weight="1.0" stroke-width="6" fill="none" stroke="#984ea3" />
<path d="M703.125,1130.625 C703.125,1141.875,703.125,1164.375,703.125,1175.625" close="False" data-weight="0.0" stroke-width="6" fill="none" stroke="#984ea3" />
<path d="M703.125,1055.625 C703.125,1066.875,703.125,1089.375,703.125,1100.625" close="False" data-weight="0.0" stroke-width="6" fill="none" stroke="#984ea3" />
<path d="M703.125,980.625 C703.125,991.875,703.125,1014.375,703.125,1025.625" close="False" data-weight="0.0" stroke-width="6" fill="none" stroke="#984ea3" />
<path d="M703.125,905.625 C703.125,916.875,703.125,939.375,703.125,950.625" close="False" data-weight="0.0" stroke-width="6" fill="none" stroke="#984ea3" />
<path d="M703.125,830.625 C703.125,841.875,703.125,864.375,703.125,875.625" close="False" data-weight="0.0" stroke-width="6" fill="none" stroke="#984ea3" />
<path d="M703.125,755.625 C703.125,766.875,703.125,789.375,703.125,800.625" close="False" data-weight="0.0" stroke-width="6" fill="none" stroke="#984ea3" />
<path d="M644.0349025766973,1287.2150974233027 C636.0799512883486,1295.1700487116514,620.1700487116514,1311.0799512883486,612.2150974233027,1319.0349025766973" close="False" data-weight="0.0" stroke-width="6" fill="none" stroke="#984ea3" />
<path d="M569.0349025766973,1362.2150974233027 C561.0799512883486,1370.1700487116514,545.1700487116514,1386.0799512883486,537.2150974233027,1394.0349025766973" close="False" data-weight="0.0" stroke-width="6" fill="none" stroke="#984ea3" />
<path d="M494.03490257669733,1437.2150974233027 C486.0799512883487,1445.1700487116514,470.1700487116513,1461.0799512883486,462.21509742330267,1469.0349025766973" close="False" data-weight="0.0" stroke-width="6" fill="none" stroke="#984ea3" />
<path d="M419.03490257669733,1512.2150974233027 C411.0799512883487,1520.1700487116514,395.1700487116513,1536.0799512883486,387.21509742330267,1544.0349025766973" close="False" data-weight="0.0" stroke-width="6" fill="none" stroke="#984ea3" />
<path d="M344.03490257669733,1587.2150974233027 C336.0799512883487,1595.1700487116514,320.1700487116513,1611.0799512883486,312.21509742330267,1619.0349025766973" close="False" data-weight="0.0" stroke-width="6" fill="none" stroke="#984ea3" />
<path d="M269.03490257669733,1662.2150974233027 C261.0799512883487,1670.1700487116514,245.1700487116513,1686.0799512883486,237.21509742330267,1694.0349025766973" close="False" data-weight="0.0" stroke-width="6" fill="none" stroke="#984ea3" />
<path d="M194.0349025766973,1737.2150974233027 C186.07995128834867,1745.1700487116514,170.1700487116513,1761.0799512883486,162.21509742330267,1769.0349025766973" close="False" data-weight="0.0" stroke-width="6" fill="none" stroke="#984ea3" />
<path d="M1978.125,2075.625 L1978.125,2105.625" close="False" data-weight="1.75" stroke-width="6" fill="none" stroke="#984ea3" />
<path d="M1978.125,2000.625 L1978.125,2030.625" close="False" data-weight="1.75" stroke-width="6" fill="none" stroke="#984ea3" />
<path d="M1978.125,1925.625 L1978.125,1955.625" close="False" data-weight="1.75" stroke-width="6" fill="none" stroke="#984ea3" />
<path d="M1978.125,1850.625 L1978.125,1880.625" close="False" data-weight="1.75" stroke-width="6" fill="none" stroke="#984ea3" />
<path d="M1978.125,1775.625 L1978.125,1805.625" close="False" data-weight="1.75" stroke-width="6" fill="none" stroke="#984ea3" />
<path d="M1978.125,1700.625 L1978.125,1730.625" close="False" data-weight="1.75" stroke-width="6" fill="none" stroke="#984ea3" />
<path d="M1978.125,1625.625 L1978.125,1655.625" close="False" data-weight="1.75" stroke-width="6" fill="none" stroke="#984ea3" />
<path d="M1978.125,1550.625 L1978.125,1580.625" close="False" data-weight="1.75" stroke-width="6" fill="none" stroke="#984ea3" />
<path d="M1978.125,1475.625 L1978.125,1505.625" close="False" data-weight="1.75" stroke-width="6" fill="none" stroke="#984ea3" />
<path d="M1978.125,1400.625 L1978.125,1430.625" close="False" data-weight="1.75" stroke-width="6" fill="none" stroke="#984ea3" />
<path d="M1978.125,1325.625 L1978.125,1355.625" close="False" data-weight="1.75" stroke-width="6" fill="none" stroke="#984ea3" />
<path d="M1978.125,1250.625 L1978.125,1280.625" close="False" data-weight="1.75" stroke-width="6" fill="none" stroke="#984ea3" />
<path d="M1978.125,1175.625 L1978.125,1205.625" close="False" data-weight="1.75" stroke-width="6" fill="none" stroke="#984ea3" />
<path d="M1915.9530411871049,2184.6401045634025 L1959.6401045634027,2140.953041187105" close="False" data-weight="2.060660171779821" stroke-width="6" fill="none" stroke="#984ea3" />
<path d="M1919.0349025766973,1212.2150974233027 L1962.2150974233027,1169.0349025766973" close="False" data-weight="2.060660171779821" stroke-width="6" fill="none" stroke="#984ea3" />
<path d="M1840.9530411870455,2259.640104563462 L1884.640104563462,2215.9530411870455" close="False" data-weight="2.060660171779821" stroke-width="6" fill="none" stroke="#984ea3" />
<path d="M1844.0349025766973,1287.2150974233027 L1887.2150974233027,1244.0349025766973" close="False" data-weight="2.060660171779821" stroke-width="6" fill="none" stroke="#984ea3" />
<path d="M1765.9530411871644,2334.640104563343 L1809.6401045634027,2290.953041187105" close="False" data-weight="2.060660171779821" stroke-width="6" fill="none" stroke="#984ea3" />
<path d="M1775.625,1303.125 L1805.625,1303.125" close="False" data-weight="1.75" stroke-width="6" fill="none" stroke="#984ea3" />
<path d="M1690.9530411871644,2409.640104563343 L1734.6401045633431,2365.9530411871647" close="False" data-weight="2.060660171779821" stroke-width="6" fill="none" stroke="#984ea3" />
<path d="M1700.625,1303.125 L1730.625,1303.125" close="False" data-weight="1.75" stroke-width="6" fill="none" stroke="#984ea3" />
<path d="M1619.0349025766973,1244.0349025766973 L1662.2150974233027,1287.2150974233027" close="False" data-weight="2.060660171779821" stroke-width="6" fill="none" stroke="#984ea3" />
<path d="M1544.0349025766973,1169.0349025766973 L1587.2150974233027,1212.2150974233027" close="False" data-weight="2.060660171779821" stroke-width="6" fill="none" stroke="#984ea3" />
<path d="M1469.0349025766973,1094.0349025766973 L1512.2150974233027,1137.2150974233027" close="False" data-weight="2.060660171779821" stroke-width="6" fill="none" stroke="#984ea3" />
<path d="M1394.0349025766973,1019.0349025766973 L1437.2150974233027,1062.2150974233027" close="False" data-weight="2.060660171779821" stroke-width="6" fill="none" stroke="#984ea3" />
<path d="M1319.0349025766973,944.0349025766973 L1362.2150974233027,987.2150974233027" close="False" data-weight="2.060660171779821" stroke-width="6" fill="none" stroke="#984ea3" />
<path d="M1244.0349025766973,869.0349025766973 L1287.2150974233027,912.2150974233027" close="False" data-weight="2.060660171779821" stroke-width="6" fill="none" stroke="#984ea3" />
<path d="M1169.0349025766973,794.0349025766973 L1212.2150974233027,837.2150974233027" close="False" data-weight="2.060660171779821" stroke-width="6" fill="none" stroke="#984ea3" />
<path d="M1094.0349025766973,719.0349025766973 L1137.2150974233027,762.2150974233027" close="False" data-weight="2.060660171779821" stroke-width="6" fill="none" stroke="#984ea3" />
<path d="M1025.625,703.125 L1055.625,703.125" close="False" data-weight="1.75" stroke-width="6" fill="none" stroke="#984ea3" />
<path d="M950.625,703.125 L980.625,703.125" close="False" data-weight="1.75" stroke-width="6" fill="none" stroke="#984ea3" />
<path d="M875.625,703.125 L905.625,703.125" close="False" data-weight="1.75" stroke-width="6" fill="none" stroke="#984ea3" />
<path d="M800.625,703.125 L830.625,703.125" close="False" data-weight="1.75" stroke-width="6" fill="none" stroke="#984ea3" />
<path d="M703.125,1175.625 L703.125,1205.625" close="False" data-weight="1.75" stroke-width="6" fill="none" stroke="#984ea3" />
<path d="M703.125,1100.625 L703.125,1130.625" close="False" data-weight="1.75" stroke-width="6" fill="none" stroke="#984ea3" />
<path d="M703.125,1025.625 L703.125,1055.625" close="False" data-weight="1.75" stroke-width="6" fill="none" stroke="#984ea3" />
<path d="M703.125,950.625 L703.125,980.625" close="False" data-weight="1.75" stroke-width="6" fill="none" stroke="#984ea3" />
<path d="M703.125,875.625 L703.125,905.625" close="False" data-weight="1.75" stroke-width="6" fill="none" stroke="#984ea3" />
<path d="M703.125,800.625 L703.125,830.625" close="False" data-weight="1.75" stroke-width="6" fill="none" stroke="#984ea3" />
<path d="M703.125,725.625 L703.125,755.625" close="False" data-weight="1.75" stroke-width="6" fill="none" stroke="#984ea3" />
<path d="M725.625,703.125 L755.625,703.125" close="False" data-weight="1.75" stroke-width="6" fill="none" stroke="#984ea3" />
<path d="M644.0349025766973,1287.2150974233027 L687.2150974233027,1244.0349025766973" close="False" data-weight="2.060660171779821" stroke-width="6" fill="none" stroke="#984ea3" />
<path d="M569.0349025766973,1362.2150974233027 L612.2150974233027,1319.0349025766973" close="False" data-weight="2.060660171779821" stroke-width="6" fill="none" stroke="#984ea3" />
<path d="M494.03490257669733,1437.2150974233027 L537.2150974233027,1394.0349025766973" close="False" data-weight="2.060660171779821" stroke-width="6" fill="none" stroke="#984ea3" />
<path d="M419.03490257669733,1512.2150974233027 L462.21509742330267,1469.0349025766973" close="False" data-weight="2.060660171779821" stroke-width="6" fill="none" stroke="#984ea3" />
<path d="M344.03490257669733,1587.2150974233027 L387.21509742330267,1544.0349025766973" close="False" data-weight="2.060660171779821" stroke-width="6" fill="none" stroke="#984ea3" />
<path d="M269.03490257669733,1662.2150974233027 L312.21509742330267,1619.0349025766973" close="False" data-weight="2.060660171779821" stroke-width="6" fill="none" stroke="#984ea3" />
<path d="M194.03490257669733,1737.2150974233027 L237.2150974233027,1694.0349025766973" close="False" data-weight="2.060660171779821" stroke-width="6" fill="none" stroke="#984ea3" />
<path d="M119.03490257669732,1812.2150974233027 L162.2150974233027,1769.0349025766973" close="False" data-weight="2.060660171779821" stroke-width="6" fill="none" stroke="#984ea3" />
<path d="M2428.125,1655.625 A54.31980515339728,54.31980515339728,0,0,1,2423.9901510378277,1676.412289481504 M2423.9901510378277,1676.412289481504 A54.319805153387826,54.319805153387826,0,0,1,2412.2150974233027,1694.0349025766973 M2412.2150974233027,1694.0349025766973" close="False" data-weight="1.0" stroke-width="6" fill="none" stroke="#ff7f00" />
<path d="M2428.125,1580.625 C2428.125,1591.875,2428.125,1614.375,2428.125,1625.625" close="False" data-weight="0.0" stroke-width="6" fill="none" stroke="#ff7f00" />
<path d="M2428.125,1505.625 C2428.125,1516.875,2428.125,1539.375,2428.125,1550.625" close="False" data-weight="0.0" stroke-width="6" fill="none" stroke="#ff7f00" />
<path d="M2428.125,1430.625 C2428.125,1441.875,2428.125,1464.375,2428.125,1475.625" close="False" data-weight="0.0" stroke-width="6" fill="none" stroke="#ff7f00" />
<path d="M2428.125,1355.625 C2428.125,1366.875,2428.125,1389.375,2428.125,1400.625" close="False" data-weight="0.0" stroke-width="6" fill="none" stroke="#ff7f00" />
<path d="M2428.125,1280.625 C2428.125,1291.875,2428.125,1314.375,2428.125,1325.625" close="False" data-weight="0.0" stroke-width="6" fill="none" stroke="#ff7f00" />
<path d="M2428.125,1205.625 C2428.125,1216.875,2428.125,1239.375,2428.125,1250.625" close="False" data-weight="0.0" stroke-width="6" fill="none" stroke="#ff7f00" />
<path d="M2369.0349025766973,1737.2150974233027 C2361.0799512883486,1745.1700487116514,2345.1700487116514,1761.0799512883486,2337.2150974233027,1769.0349025766973" close="False" data-weight="0.0" stroke-width="6" fill="none" stroke="#ff7f00" />
<path d="M2294.0349025766973,1812.2150974233027 C2286.0799512883486,1820.1700487116514,2270.1700487116514,1836.0799512883486,2262.2150974233027,1844.0349025766973" close="False" data-weight="0.0" stroke-width="6" fill="none" stroke="#ff7f00" />
<path d="M2219.0349025766973,1887.2150974233027 C2211.0799512883486,1895.1700487116514,2195.1700487116514,1911.0799512883486,2187.2150974233027,1919.0349025766973" close="False" data-weight="0.0" stroke-width="6" fill="none" stroke="#ff7f00" />
<path d="M2144.0349025766973,1962.2150974233027 C2136.0799512883486,1970.1700487116514,2120.1700487116514,1986.0799512883486,2112.2150974233027,1994.0349025766973" close="False" data-weight="0.0" stroke-width="6" fill="none" stroke="#ff7f00" />
<path d="M2069.0349025766973,2037.2150974233027 C2061.0799512883486,2045.1700487116514,2045.1700487116514,2061.0799512883486,2037.2150974233027,2069.0349025766973" close="False" data-weight="0.0" stroke-width="6" fill="none" stroke="#ff7f00" />
<path d="M1994.0349025766973,2112.2150974233027 C1986.1116939026758,2120.138306097324,1973.2201674869166,2138.6866867625763,1965.2969588128951,2146.6098954365975" close="False" data-weight="0.0" stroke-width="6" fill="none" stroke="#ff7f00" />
<path d="M1921.6098954365973,2190.296958812895 C1913.7816612806716,2198.1251929688206,1898.1251929688208,2213.781661280672,1890.2969588128951,2221.6098954365975" close="False" data-weight="0.0" stroke-width="6" fill="none" stroke="#ff7f00" />
<path d="M1846.6098954365973,2265.296958812895 C1838.7816612806716,2273.1251929688206,1823.1251929688208,2288.781661280672,1815.2969588128951,2296.6098954365975" close="False" data-weight="0.0" stroke-width="6" fill="none" stroke="#ff7f00" />
<path d="M1771.609895436538,2340.2969588129545 C1763.781661280642,2348.1251929688506,1748.1251929688503,2363.781661280642,1740.2969588129545,2371.609895436538" close="False" data-weight="0.0" stroke-width="6" fill="none" stroke="#ff7f00" />
<path d="M1619.0349025766973,2369.0349025766973 C1611.0799512883486,2361.0799512883486,1595.1700487116514,2345.1700487116514,1587.2150974233027,2337.2150974233027" close="False" data-weight="0.0" stroke-width="6" fill="none" stroke="#ff7f00" />
<path d="M1544.0349025766973,2294.0349025766973 C1536.0799512883486,2286.0799512883486,1520.1700487116514,2270.1700487116514,1512.2150974233027,2262.2150974233027" close="False" data-weight="0.0" stroke-width="6" fill="none" stroke="#ff7f00" />
<path d="M1469.0349025766973,2219.0349025766973 C1461.0799512883486,2211.0799512883486,1445.1700487116514,2195.1700487116514,1437.2150974233027,2187.2150974233027" close="False" data-weight="0.0" stroke-width="6" fill="none" stroke="#ff7f00" />
<path d="M1394.0349025766973,2144.0349025766973 C1386.0799512883486,2136.0799512883486,1370.1700487116514,2120.1700487116514,1362.2150974233027,2112.2150974233027" close="False" data-weight="0.0" stroke-width="6" fill="none" stroke="#ff7f00" />
<path d="M1319.0349025766973,2069.0349025766973 A54.319805153391044,54.319805153391044,0,0,0,1301.4122894815043,2057.259848962172 M1301.4122894815043,2057.259848962172 A54.3198051533941,54.3198051533941,0,0,0,1280.625,2053.125 M1280.625,2053.125" close="False" data-weight="1.0" stroke-width="6" fill="none" stroke="#ff7f00" />
<path d="M1250.625,2053.125 C1239.375,2053.125,1216.875,2053.125,1205.625,2053.125" close="False" data-weight="0.0" stroke-width="6" fill="none" stroke="#ff7f00" />
<path d="M1175.625,2053.125 C1164.375,2053.125,1141.875,2053.125,1130.625,2053.125" close="False" data-weight="0.0" stroke-width="6" fill="none" stroke="#ff7f00" />
<path d="M1100.625,2053.125 C1089.375,2053.125,1066.875,2053.125,1055.625,2053.125" close="False" data-weight="0.0" stroke-width="6" fill="none" stroke="#ff7f00" />
<path d="M1025.625,2053.125 C1014.375,2053.125,991.875,2053.125,980.625,2053.125" close="False" data-weight="0.0" stroke-width="6" fill="none" stroke="#ff7f00" />
<path d="M950.625,2053.125 C939.375,2053.125,916.875,2053.125,905.625,2053.125" close="False" data-weight="0.0" stroke-width="6" fill="none" stroke="#ff7f00" />
<path d="M875.625,2053.125 C864.375,2053.125,841.875,2053.125,830.625,2053.125" close="False" data-weight="0.0" stroke-width="6" fill="none" stroke="#ff7f00" />
<path d="M800.625,2053.125 C789.375,2053.125,766.875,2053.125,755.625,2053.125" close="False" data-weight="0.0" stroke-width="6" fill="none" stroke="#ff7f00" />
<path d="M725.625,2053.125 C714.375,2053.125,691.875,2053.125,680.625,2053.125" close="False" data-weight="0.0" stroke-width="6" fill="none" stroke="#ff7f00" />
<path d="M719.0349025766973,1287.2150974233027 C711.0799512883486,1295.1700487116514,695.1700487116514,1311.0799512883486,687.2150974233027,1319.0349025766973" close="False" data-weight="0.0" stroke-width="6" fill="none" stroke="#ff7f00" />
<path d="M650.625,2053.125 C639.375,2053.125,616.875,2053.125,605.625,2053.125" close="False" data-weight="0.0" stroke-width="6" fill="none" stroke="#ff7f00" />
<path d="M644.0349025766973,1362.2150974233027 C636.0799512883486,1370.1700487116514,620.1700487116514,1386.0799512883486,612.2150974233027,1394.0349025766973" close="False" data-weight="0.0" stroke-width="6" fill="none" stroke="#ff7f00" />
<path d="M575.625,2053.125 C564.375,2053.125,541.875,2053.125,530.625,2053.125" close="False" data-weight="0.0" stroke-width="6" fill="none" stroke="#ff7f00" />
<path d="M569.0349025766973,1437.2150974233027 C561.0799512883486,1445.1700487116514,545.1700487116514,1461.0799512883486,537.2150974233027,1469.0349025766973" close="False" data-weight="0.0" stroke-width="6" fill="none" stroke="#ff7f00" />
<path d="M500.625,2053.125 C489.375,2053.125,466.875,2053.125,455.625,2053.125" close="False" data-weight="0.0" stroke-width="6" fill="none" stroke="#ff7f00" />
<path d="M494.03490257669733,1512.2150974233027 C486.0799512883487,1520.1700487116514,470.1700487116513,1536.0799512883486,462.21509742330267,1544.0349025766973" close="False" data-weight="0.0" stroke-width="6" fill="none" stroke="#ff7f00" />
<path d="M425.625,2053.125 C414.375,2053.125,391.875,2053.125,380.625,2053.125" close="False" data-weight="0.0" stroke-width="6" fill="none" stroke="#ff7f00" />
<path d="M419.03490257669733,1587.2150974233027 C411.0799512883487,1595.1700487116514,395.1700487116513,1611.0799512883486,387.21509742330267,1619.0349025766973" close="False" data-weight="0.0" stroke-width="6" fill="none" stroke="#ff7f00" />
<path d="M350.625,2053.125 C339.375,2053.125,316.875,2053.125,305.625,2053.125" close="False" data-weight="0.0" stroke-width="6" fill="none" stroke="#ff7f00" />
<path d="M344.03490257669733,1662.2150974233027 C336.0799512883487,1670.1700487116514,320.1700487116513,1686.0799512883486,312.21509742330267,1694.0349025766973" close="False" data-weight="0.0" stroke-width="6" fill="none" stroke="#ff7f00" />
<path d="M253.125,1955.625 C253.125,1966.875,253.125,1989.375,253.125,2000.625" close="False" data-weight="0.0" stroke-width="6" fill="none" stroke="#ff7f00" />
<path d="M253.125,1880.625 C253.125,1891.875,253.125,1914.375,253.125,1925.625" close="False" data-weight="0.0" stroke-width="6" fill="none" stroke="#ff7f00" />
<path d="M253.125,1805.625 C253.125,1816.875,253.125,1839.375,253.125,1850.625" close="False" data-weight="0.0" stroke-width="6" fill="none" stroke="#ff7f00" />
<path d="M269.03490257669733,1737.2150974233027 A54.31980515339522,54.31980515339522,0,0,0,257.25984896217227,1754.837710518496 M257.25984896217227,1754.837710518496 A54.319805153393986,54.319805153393986,0,0,0,253.125,1775.625 M253.125,1775.625" close="False" data-weight="1.0" stroke-width="6" fill="none" stroke="#ff7f00" />
<path d="M2428.125,1625.625 L2428.125,1655.625" close="False" data-weight="1.75" stroke-width="6" fill="none" stroke="#ff7f00" />
<path d="M2428.125,1550.625 L2428.125,1580.625" close="False" data-weight="1.75" stroke-width="6" fill="none" stroke="#ff7f00" />
<path d="M2428.125,1475.625 L2428.125,1505.625" close="False" data-weight="1.75" stroke-width="6" fill="none" stroke="#ff7f00" />
<path d="M2428.125,1400.625 L2428.125,1430.625" close="False" data-weight="1.75" stroke-width="6" fill="none" stroke="#ff7f00" />
<path d="M2428.125,1325.625 L2428.125,1355.625" close="False" data-weight="1.75" stroke-width="6" fill="none" stroke="#ff7f00" />
<path d="M2428.125,1250.625 L2428.125,1280.625" close="False" data-weight="1.75" stroke-width="6" fill="none" stroke="#ff7f00" />
<path d="M2428.125,1175.625 L2428.125,1205.625" close="False" data-weight="1.75" stroke-width="6" fill="none" stroke="#ff7f00" />
<path d="M2369.0349025766973,1737.2150974233027 L2412.2150974233027,1694.0349025766973" close="False" data-weight="2.060660171779821" stroke-width="6" fill="none" stroke="#ff7f00" />
<path d="M2294.0349025766973,1812.2150974233027 L2337.2150974233027,1769.0349025766973" close="False" data-weight="2.060660171779821" stroke-width="6" fill="none" stroke="#ff7f00" />
<path d="M2219.0349025766973,1887.2150974233027 L2262.2150974233027,1844.0349025766973" close="False" data-weight="2.060660171779821" stroke-width="6" fill="none" stroke="#ff7f00" />
<path d="M2144.0349025766973,1962.2150974233027 L2187.2150974233027,1919.0349025766973" close="False" data-weight="2.060660171779821" stroke-width="6" fill="none" stroke="#ff7f00" />
<path d="M2069.0349025766973,2037.2150974233027 L2112.2150974233027,1994.0349025766973" close="False" data-weight="2.060660171779821" stroke-width="6" fill="none" stroke="#ff7f00" />
<path d="M1994.0349025766973,2112.2150974233027 L2037.2150974233027,2069.0349025766973" close="False" data-weight="2.060660171779821" stroke-width="6" fill="none" stroke="#ff7f00" />
<path d="M1921.6098954365973,2190.296958812895 L1965.2969588128951,2146.6098954365975" close="False" data-weight="2.060660171779821" stroke-width="6" fill="none" stroke="#ff7f00" />
<path d="M1846.6098954366569,2265.2969588128353 L1890.2969588128356,2221.609895436657" close="False" data-weight="2.060660171779821" stroke-width="6" fill="none" stroke="#ff7f00" />
<path d="M1771.609895436538,2340.2969588129545 L1815.2969588128951,2296.6098954365975" close="False" data-weight="2.060660171779821" stroke-width="6" fill="none" stroke="#ff7f00" />
<path d="M1696.609895436538,2415.2969588129545 L1740.2969588129545,2371.609895436538" close="False" data-weight="2.060660171779821" stroke-width="6" fill="none" stroke="#ff7f00" />
<path d="M1619.0349025766973,2369.0349025766973 L1662.2150974233027,2412.2150974233027" close="False" data-weight="2.060660171779821" stroke-width="6" fill="none" stroke="#ff7f00" />
<path d="M1544.0349025766973,2294.0349025766973 L1587.2150974233027,2337.2150974233027" close="False" data-weight="2.060660171779821" stroke-width="6" fill="none" stroke="#ff7f00" />
<path d="M1469.0349025766973,2219.0349025766973 L1512.2150974233027,2262.2150974233027" close="False" data-weight="2.060660171779821" stroke-width="6" fill="none" stroke="#ff7f00" />
<path d="M1394.0349025766973,2144.0349025766973 L1437.2150974233027,2187.2150974233027" close="False" data-weight="2.060660171779821" stroke-width="6" fill="none" stroke="#ff7f00" />
<path d="M1319.0349025766973,2069.0349025766973 L1362.2150974233027,2112.2150974233027" close="False" data-weight="2.060660171779821" stroke-width="6" fill="none" stroke="#ff7f00" />
<path d="M1250.625,2053.125 L1280.625,2053.125" close="False" data-weight="1.75" stroke-width="6" fill="none" stroke="#ff7f00" />
<path d="M1175.625,2053.125 L1205.625,2053.125" close="False" data-weight="1.75" stroke-width="6" fill="none" stroke="#ff7f00" />
<path d="M1100.625,2053.125 L1130.625,2053.125" close="False" data-weight="1.75" stroke-width="6" fill="none" stroke="#ff7f00" />
<path d="M1025.625,2053.125 L1055.625,2053.125" close="False" data-weight="1.75" stroke-width="6" fill="none" stroke="#ff7f00" />
<path d="M950.625,2053.125 L980.625,2053.125" close="False" data-weight="1.75" stroke-width="6" fill="none" stroke="#ff7f00" />
<path d="M875.625,2053.125 L905.625,2053.125" close="False" data-weight="1.75" stroke-width="6" fill="none" stroke="#ff7f00" />
<path d="M800.625,2053.125 L830.625,2053.125" close="False" data-weight="1.75" stroke-width="6" fill="none" stroke="#ff7f00" />
<path d="M725.625,2053.125 L755.625,2053.125" close="False" data-weight="1.75" stroke-width="6" fill="none" stroke="#ff7f00" />
<path d="M719.0349025766973,1287.2150974233027 L762.2150974233027,1244.0349025766973" close="False" data-weight="2.060660171779821" stroke-width="6" fill="none" stroke="#ff7f00" />
<path d="M650.625,2053.125 L680.625,2053.125" close="False" data-weight="1.75" stroke-width="6" fill="none" stroke="#ff7f00" />
<path d="M644.0349025766973,1362.2150974233027 L687.2150974233027,1319.0349025766973" close="False" data-weight="2.060660171779821" stroke-width="6" fill="none" stroke="#ff7f00" />
<path d="M575.625,2053.125 L605.625,2053.125" close="False" data-weight="1.75" stroke-width="6" fill="none" stroke="#ff7f00" />
<path d="M569.0349025766973,1437.2150974233027 L612.2150974233027,1394.0349025766973" close="False" data-weight="2.060660171779821" stroke-width="6" fill="none" stroke="#ff7f00" />
<path d="M500.625,2053.125 L530.625,2053.125" close="False" data-weight="1.75" stroke-width="6" fill="none" stroke="#ff7f00" />
<path d="M494.03490257669733,1512.2150974233027 L537.2150974233027,1469.0349025766973" close="False" data-weight="2.060660171779821" stroke-width="6" fill="none" stroke="#ff7f00" />
<path d="M425.625,2053.125 L455.625,2053.125" close="False" data-weight="1.75" stroke-width="6" fill="none" stroke="#ff7f00" />
<path d="M419.03490257669733,1587.2150974233027 L462.21509742330267,1544.0349025766973" close="False" data-weight="2.060660171779821" stroke-width="6" fill="none" stroke="#ff7f00" />
<path d="M350.625,2053.125 L380.625,2053.125" close="False" data-weight="1.75" stroke-width="6" fill="none" stroke="#ff7f00" />
<path d="M344.03490257669733,1662.2150974233027 L387.21509742330267,1619.0349025766973" close="False" data-weight="2.060660171779821" stroke-width="6" fill="none" stroke="#ff7f00" />
<path d="M275.625,2053.125 L305.625,2053.125" close="False" data-weight="1.75" stroke-width="6" fill="none" stroke="#ff7f00" />
<path d="M253.125,2000.625 L253.125,2030.625" close="False" data-weight="1.75" stroke-width="6" fill="none" stroke="#ff7f00" />
<path d="M253.125,1925.625 L253.125,1955.625" close="False" data-weight="1.75" stroke-width="6" fill="none" stroke="#ff7f00" />
<path d="M253.125,1850.625 L253.125,1880.625" close="False" data-weight="1.75" stroke-width="6" fill="none" stroke="#ff7f00" />
<path d="M253.125,1775.625 L253.125,1805.625" close="False" data-weight="1.75" stroke-width="6" fill="none" stroke="#ff7f00" />
<path d="M269.03490257669733,1737.2150974233027 L312.21509742330267,1694.0349025766973" close="False" data-weight="2.060660171779821" stroke-width="6" fill="none" stroke="#ff7f00" />
<path d="M2369.0349025766973,1094.0349025766973 C2361.0799512883486,1086.0799512883486,2345.1700487116514,1070.1700487116514,2337.2150974233027,1062.2150974233027" close="False" data-weight="0.0" stroke-width="6" fill="none" stroke="#4daf4a" />
<path d="M2294.0349025766973,1019.0349025766973 C2286.0799512883486,1011.0799512883486,2270.1700487116514,995.1700487116514,2262.2150974233027,987.2150974233027" close="False" data-weight="0.0" stroke-width="6" fill="none" stroke="#4daf4a" />
<path d="M2219.0349025766973,944.0349025766973 C2211.0799512883486,936.0799512883486,2195.1700487116514,920.1700487116514,2187.2150974233027,912.2150974233027" close="False" data-weight="0.0" stroke-width="6" fill="none" stroke="#4daf4a" />
<path d="M2144.0349025766973,869.0349025766973 C2136.0799512883486,861.0799512883486,2120.1700487116514,845.1700487116514,2112.2150974233027,837.2150974233027" close="False" data-weight="0.0" stroke-width="6" fill="none" stroke="#4daf4a" />
<path d="M2069.0349025766973,794.0349025766973 C2061.0799512883486,786.0799512883486,2045.1700487116514,770.1700487116514,2037.2150974233027,762.2150974233027" close="False" data-weight="0.0" stroke-width="6" fill="none" stroke="#4daf4a" />
<path d="M1994.0349025766973,719.0349025766973 C1986.0799512883486,711.0799512883486,1970.1700487116514,695.1700487116514,1962.2150974233027,687.2150974233027" close="False" data-weight="0.0" stroke-width="6" fill="none" stroke="#4daf4a" />
<path d="M1919.0349025766973,644.0349025766973 C1911.0799512883486,636.0799512883486,1895.1700487116514,620.1700487116514,1887.2150974233027,612.2150974233027" close="False" data-weight="0.0" stroke-width="6" fill="none" stroke="#4daf4a" />
<path d="M1844.0349025766973,569.0349025766973 A54.31980515339514,54.31980515339514,0,0,0,1826.412289481504,557.2598489621722 M1826.412289481504,557.2598489621722 A54.319805153393986,54.319805153393986,0,0,0,1805.625,553.125 M1805.625,553.125" close="False" data-weight="1.0" stroke-width="6" fill="none" stroke="#4daf4a" />
<path d="M1775.625,553.125 C1764.375,553.125,1741.875,553.125,1730.625,553.125" close="False" data-weight="0.0" stroke-width="6" fill="none" stroke="#4daf4a" />
<path d="M1700.625,553.125 C1689.375,553.125,1666.875,553.125,1655.625,553.125" close="False" data-weight="0.0" stroke-width="6" fill="none" stroke="#4daf4a" />
<path d="M1625.625,553.125 C1614.375,553.125,1591.875,553.125,1580.625,553.125" close="False" data-weight="0.0" stroke-width="6" fill="none" stroke="#4daf4a" />
<path d="M1550.625,553.125 C1539.375,553.125,1516.875,553.125,1505.625,553.125" close="False" data-weight="0.0" stroke-width="6" fill="none" stroke="#4daf4a" />
<path d="M1475.625,553.125 C1464.375,553.125,1441.875,553.125,1430.625,553.125" close="False" data-weight="0.0" stroke-width="6" fill="none" stroke="#4daf4a" />
<path d="M1240.9530411871049,684.6401045634026 C1233.1248070311792,692.4683387193281,1217.4683387193284,708.1248070311794,1209.6401045634027,715.953041187105" close="False" data-weight="0.0" stroke-width="6" fill="none" stroke="#4daf4a" />
<path d="M1165.9530411870976,759.6401045634101 A93.8303986366576,93.8303986366576,0,0,1,1149.8121656631054,772.55974976609 M1149.8121656631054,772.55974976609 A35.85816626156145,35.85816626156145,0,0,1,1130.625,778.125 M1130.625,778.125" close="False" data-weight="1.0" stroke-width="6" fill="none" stroke="#4daf4a" />
<path d="M1100.625,778.125 C1089.375,778.125,1066.875,778.125,1055.625,778.125" close="False" data-weight="0.0" stroke-width="6" fill="none" stroke="#4daf4a" />
<path d="M1025.625,778.125 C1014.375,778.125,991.875,778.125,980.625,778.125" close="False" data-weight="0.0" stroke-width="6" fill="none" stroke="#4daf4a" />
<path d="M950.625,778.125 C939.375,778.125,916.875,778.125,905.625,778.125" close="False" data-weight="0.0" stroke-width="6" fill="none" stroke="#4daf4a" />
<path d="M875.625,778.125 C864.375,778.125,841.875,778.125,830.625,778.125" close="False" data-weight="0.0" stroke-width="6" fill="none" stroke="#4daf4a" />
<path d="M853.125,530.625 A54.31980515339478,54.31980515339478,0,0,1,848.9901510378278,551.4122894815039 M848.9901510378278,551.4122894815039 A54.319805153394256,54.319805153394256,0,0,1,837.2150974233027,569.0349025766973 M837.2150974233027,569.0349025766973" close="False" data-weight="1.0" stroke-width="6" fill="none" stroke="#4daf4a" />
<path d="M853.125,455.625 C853.125,466.875,853.125,489.375,853.125,500.625" close="False" data-weight="0.0" stroke-width="6" fill="none" stroke="#4daf4a" />
<path d="M853.125,380.625 C853.125,391.875,853.125,414.375,853.125,425.625" close="False" data-weight="0.0" stroke-width="6" fill="none" stroke="#4daf4a" />
<path d="M853.125,305.625 C853.125,316.875,853.125,339.375,853.125,350.625" close="False" data-weight="0.0" stroke-width="6" fill="none" stroke="#4daf4a" />
<path d="M853.125,230.625 C853.125,241.875,853.125,264.375,853.125,275.625" close="False" data-weight="0.0" stroke-width="6" fill="none" stroke="#4daf4a" />
<path d="M853.125,200.625 A54.319805153394555,54.319805153394555,0,0,0,848.9901510378278,179.837710518496 M848.9901510378278,179.837710518496 A54.31980515339474,54.31980515339474,0,0,0,837.2150974233027,162.21509742330267 M837.2150974233027,162.21509742330267" close="False" data-weight="1.0" stroke-width="6" fill="none" stroke="#4daf4a" />
<path d="M800.625,778.125 C789.375,778.125,766.875,778.125,755.625,778.125" close="False" data-weight="0.0" stroke-width="6" fill="none" stroke="#4daf4a" />
<path d="M794.0349025766973,612.2150974233027 C786.0799512883486,620.1700487116514,770.1700487116514,636.0799512883486,762.2150974233027,644.0349025766973" close="False" data-weight="0.0" stroke-width="6" fill="none" stroke="#4daf4a" />
<path d="M725.625,778.125 C714.375,778.125,691.875,778.125,680.625,778.125" close="False" data-weight="0.0" stroke-width="6" fill="none" stroke="#4daf4a" />
<path d="M650.625,778.125 C639.375,778.125,616.875,778.125,605.625,778.125" close="False" data-weight="0.0" stroke-width="6" fill="none" stroke="#4daf4a" />
<path d="M646.6098954365974,640.953041187105 A57.45452644918628,57.45452644918628,0,0,0,627.970305561001,628.4984654126548 M627.970305561001,628.4984654126548 A57.4545264491876,57.4545264491876,0,0,0,605.9834101745155,624.125 M605.9834101745155,624.125" close="False" data-weight="1.0" stroke-width="6" fill="none" stroke="#4daf4a" />
<path d="M575.625,778.125 C564.375,778.125,541.875,778.125,530.625,778.125" close="False" data-weight="0.0" stroke-width="6" fill="none" stroke="#4daf4a" />
<path d="M575.2665898254845,624.125 C564.1957949127423,624.125,542.0542050872577,624.125,530.9834101745155,624.125" close="False" data-weight="0.0" stroke-width="6" fill="none" stroke="#4daf4a" />
<path d="M500.625,778.125 A54.319805153394555,54.319805153394555,0,0,1,479.837710518496,773.9901510378278 M479.837710518496,773.9901510378278 A54.31980515339474,54.31980515339474,0,0,1,462.21509742330267,762.2150974233027 M462.21509742330267,762.2150974233027" close="False" data-weight="1.0" stroke-width="6" fill="none" stroke="#4daf4a" />
<path d="M500.2665898254845,624.125 C489.19579491274226,624.125,467.05420508725774,624.125,455.9834101745155,624.125" close="False" data-weight="0.0" stroke-width="6" fill="none" stroke="#4daf4a" />
<path d="M419.03490257669733,719.0349025766973 C411.0799512883487,711.0799512883486,395.1700487116513,695.1700487116514,387.21509742330267,687.2150974233027" close="False" data-weight="0.0" stroke-width="6" fill="none" stroke="#4daf4a" />
<path d="M425.2665898254845,624.125 C414.19579491274226,624.125,392.05420508725774,624.125,380.9834101745155,624.125" close="False" data-weight="0.0" stroke-width="6" fill="none" stroke="#4daf4a" />
<path d="M2369.0349025766973,1094.0349025766973 L2412.2150974233027,1137.2150974233027" close="False" data-weight="2.060660171779821" stroke-width="6" fill="none" stroke="#4daf4a" />
<path d="M2294.0349025766973,1019.0349025766973 L2337.2150974233027,1062.2150974233027" close="False" data-weight="2.060660171779821" stroke-width="6" fill="none" stroke="#4daf4a" />
<path d="M2219.0349025766973,944.0349025766973 L2262.2150974233027,987.2150974233027" close="False" data-weight="2.060660171779821" stroke-width="6" fill="none" stroke="#4daf4a" />
<path d="M2144.0349025766973,869.0349025766973 L2187.2150974233027,912.2150974233027" close="False" data-weight="2.060660171779821" stroke-width="6" fill="none" stroke="#4daf4a" />
<path d="M2069.0349025766973,794.0349025766973 L2112.2150974233027,837.2150974233027" close="False" data-weight="2.060660171779821" stroke-width="6" fill="none" stroke="#4daf4a" />
<path d="M1994.0349025766973,719.0349025766973 L2037.2150974233027,762.2150974233027" close="False" data-weight="2.060660171779821" stroke-width="6" fill="none" stroke="#4daf4a" />
<path d="M1919.0349025766973,644.0349025766973 L1962.2150974233027,687.2150974233027" close="False" data-weight="2.060660171779821" stroke-width="6" fill="none" stroke="#4daf4a" />
<path d="M1844.0349025766973,569.0349025766973 L1887.2150974233027,612.2150974233027" close="False" data-weight="2.060660171779821" stroke-width="6" fill="none" stroke="#4daf4a" />
<path d="M1775.625,553.125 L1805.625,553.125" close="False" data-weight="1.75" stroke-width="6" fill="none" stroke="#4daf4a" />
<path d="M1700.625,553.125 L1730.625,553.125" close="False" data-weight="1.75" stroke-width="6" fill="none" stroke="#4daf4a" />
<path d="M1625.625,553.125 L1655.625,553.125" close="False" data-weight="1.75" stroke-width="6" fill="none" stroke="#4daf4a" />
<path d="M1550.625,553.125 L1580.625,553.125" close="False" data-weight="1.75" stroke-width="6" fill="none" stroke="#4daf4a" />
<path d="M1475.625,553.125 L1505.625,553.125" close="False" data-weight="1.75" stroke-width="6" fill="none" stroke="#4daf4a" />
<path d="M1400.625,553.125 L1430.625,553.125" close="False" data-weight="1.75" stroke-width="6" fill="none" stroke="#4daf4a" />
<path d="M1299.125,575.2665898254845 L1299.125,605.9834101745155" close="False" data-weight="1.75" stroke-width="6" fill="none" stroke="#4daf4a" />
<path d="M1325.2665898254845,549.125 L1355.9834101745155,549.125" close="False" data-weight="1.75" stroke-width="6" fill="none" stroke="#4daf4a" />
<path d="M1240.9530411871049,684.6401045634026 L1284.6401045634027,640.953041187105" close="False" data-weight="2.060660171779821" stroke-width="6" fill="none" stroke="#4daf4a" />
<path d="M1165.9530411870976,759.6401045634101 L1209.6401045633952,715.9530411871124" close="False" data-weight="2.060660171779821" stroke-width="6" fill="none" stroke="#4daf4a" />
<path d="M1100.625,778.125 L1130.625,778.125" close="False" data-weight="1.75" stroke-width="6" fill="none" stroke="#4daf4a" />
<path d="M1025.625,778.125 L1055.625,778.125" close="False" data-weight="1.75" stroke-width="6" fill="none" stroke="#4daf4a" />
<path d="M950.625,778.125 L980.625,778.125" close="False" data-weight="1.75" stroke-width="6" fill="none" stroke="#4daf4a" />
<path d="M875.625,778.125 L905.625,778.125" close="False" data-weight="1.75" stroke-width="6" fill="none" stroke="#4daf4a" />
<path d="M853.125,500.625 L853.125,530.625" close="False" data-weight="1.75" stroke-width="6" fill="none" stroke="#4daf4a" />
<path d="M853.125,425.625 L853.125,455.625" close="False" data-weight="1.75" stroke-width="6" fill="none" stroke="#4daf4a" />
<path d="M853.125,350.625 L853.125,380.625" close="False" data-weight="1.75" stroke-width="6" fill="none" stroke="#4daf4a" />
<path d="M853.125,275.625 L853.125,305.625" close="False" data-weight="1.75" stroke-width="6" fill="none" stroke="#4daf4a" />
<path d="M853.125,200.625 L853.125,230.625" close="False" data-weight="1.75" stroke-width="6" fill="none" stroke="#4daf4a" />
<path d="M800.625,778.125 L830.625,778.125" close="False" data-weight="1.75" stroke-width="6" fill="none" stroke="#4daf4a" />
<path d="M794.0349025766973,612.2150974233027 L837.2150974233027,569.0349025766973" close="False" data-weight="2.060660171779821" stroke-width="6" fill="none" stroke="#4daf4a" />
<path d="M778.125,125.625 L778.125,155.625" close="False" data-weight="1.75" stroke-width="6" fill="none" stroke="#4daf4a" />
<path d="M794.0349025766973,119.03490257669732 L837.2150974233027,162.2150974233027" close="False" data-weight="2.060660171779821" stroke-width="6" fill="none" stroke="#4daf4a" />
<path d="M725.625,778.125 L755.625,778.125" close="False" data-weight="1.75" stroke-width="6" fill="none" stroke="#4daf4a" />
<path d="M719.0349025766973,687.2150974233027 L762.2150974233027,644.0349025766973" close="False" data-weight="2.060660171779821" stroke-width="6" fill="none" stroke="#4daf4a" />
<path d="M725.625,178.125 L755.625,178.125" close="False" data-weight="1.75" stroke-width="6" fill="none" stroke="#4daf4a" />
<path d="M650.625,778.125 L680.625,778.125" close="False" data-weight="1.75" stroke-width="6" fill="none" stroke="#4daf4a" />
<path d="M646.6098954365974,640.953041187105 L690.296958812895,684.6401045634026" close="False" data-weight="2.060660171779821" stroke-width="6" fill="none" stroke="#4daf4a" />
<path d="M575.625,778.125 L605.625,778.125" close="False" data-weight="1.75" stroke-width="6" fill="none" stroke="#4daf4a" />
<path d="M575.2665898254845,624.125 L605.9834101745155,624.125" close="False" data-weight="1.75" stroke-width="6" fill="none" stroke="#4daf4a" />
<path d="M500.625,778.125 L530.625,778.125" close="False" data-weight="1.75" stroke-width="6" fill="none" stroke="#4daf4a" />
<path d="M500.2665898254845,624.125 L530.9834101745155,624.125" close="False" data-weight="1.75" stroke-width="6" fill="none" stroke="#4daf4a" />
<path d="M419.03490257669733,719.0349025766973 L462.21509742330267,762.2150974233027" close="False" data-weight="2.060660171779821" stroke-width="6" fill="none" stroke="#4daf4a" />
<path d="M425.2665898254845,624.125 L455.9834101745155,624.125" close="False" data-weight="1.75" stroke-width="6" fill="none" stroke="#4daf4a" />
<path d="M344.03490257669733,644.0349025766973 L387.21509742330267,687.2150974233027" close="False" data-weight="2.060660171779821" stroke-width="6" fill="none" stroke="#4daf4a" />
<path d="M350.2665898254845,624.125 L380.9834101745155,624.125" close="False" data-weight="1.75" stroke-width="6" fill="none" stroke="#4daf4a" />
<path d="M1625.625,2428.125 C1614.375,2428.125,1591.875,2428.125,1580.625,2428.125" close="False" data-weight="0.0" stroke-width="6" fill="none" stroke="#377eb8" />
<path d="M1587.2150974233027,1619.0349025766973 A22.49999999999994,22.49999999999994,0,0,0,1593.8051948466054,1603.125 M1593.8051948466054,1603.125 A22.49999999999994,22.49999999999994,0,0,0,1587.2150974233027,1587.2150974233027 M1587.2150974233027,1587.2150974233027" close="False" data-weight="2.0" stroke-width="6" fill="none" stroke="#377eb8" />
<path d="M1550.625,2428.125 C1539.375,2428.125,1516.875,2428.125,1505.625,2428.125" close="False" data-weight="0.0" stroke-width="6" fill="none" stroke="#377eb8" />
<path d="M1544.0349025766973,1544.0349025766973 A54.3198051533949,54.3198051533949,0,0,0,1526.412289481504,1532.2598489621723 M1526.412289481504,1532.2598489621723 A54.3198051533941,54.3198051533941,0,0,0,1505.625,1528.125 M1505.625,1528.125" close="False" data-weight="1.0" stroke-width="6" fill="none" stroke="#377eb8" />
<path d="M1475.625,2428.125 C1464.375,2428.125,1441.875,2428.125,1430.625,2428.125" close="False" data-weight="0.0" stroke-width="6" fill="none" stroke="#377eb8" />
<path d="M1475.625,1528.125 C1464.375,1528.125,1441.875,1528.125,1430.625,1528.125" close="False" data-weight="0.0" stroke-width="6" fill="none" stroke="#377eb8" />
<path d="M1400.625,2428.125 C1389.375,2428.125,1366.875,2428.125,1355.625,2428.125" close="False" data-weight="0.0" stroke-width="6" fill="none" stroke="#377eb8" />
<path d="M1396.6098954365973,1740.2969588128951 A25.881378668797677,25.881378668797677,0,0,0,1389.329829862809,1754.6659306947963 M1389.329829862809,1754.6659306947963 A16.72701534596113,16.72701534596113,0,0,0,1394.0349025766973,1769.0349025766973 M1394.0349025766973,1769.0349025766973" close="False" data-weight="2.0" stroke-width="6" fill="none" stroke="#377eb8" />
<path d="M1400.625,1528.125 A54.31980515339569,54.31980515339569,0,0,0,1379.837710518496,1532.2598489621723 M1379.837710518496,1532.2598489621723 A54.3198051533933,54.3198051533933,0,0,0,1362.2150974233027,1544.0349025766973 M1362.2150974233027,1544.0349025766973" close="False" data-weight="1.0" stroke-width="6" fill="none" stroke="#377eb8" />
<path d="M1325.625,2428.125 C1314.375,2428.125,1291.875,2428.125,1280.625,2428.125" close="False" data-weight="0.0" stroke-width="6" fill="none" stroke="#377eb8" />
<path d="M1303.125,2030.625 A54.31980515339296,54.31980515339296,0,0,1,1298.9901510378277,2051.4122894815036 M1298.9901510378277,2051.4122894815036 A54.31980515340005,54.31980515340005,0,0,1,1287.2150974233027,2069.0349025766973 M1287.2150974233027,2069.0349025766973" close="False" data-weight="1.0" stroke-width="6" fill="none" stroke="#377eb8" />
<path d="M1303.125,1955.625 C1303.125,1966.875,1303.125,1989.375,1303.125,2000.625" close="False" data-weight="0.0" stroke-width="6" fill="none" stroke="#377eb8" />
<path d="M1303.125,1880.625 C1303.125,1891.875,1303.125,1914.375,1303.125,1925.625" close="False" data-weight="0.0" stroke-width="6" fill="none" stroke="#377eb8" />
<path d="M1303.125,1805.625 C1303.125,1816.875,1303.125,1839.375,1303.125,1850.625" close="False" data-weight="0.0" stroke-width="6" fill="none" stroke="#377eb8" />
<path d="M1303.125,1730.625 C1303.125,1741.875,1303.125,1764.375,1303.125,1775.625" close="False" data-weight="0.0" stroke-width="6" fill="none" stroke="#377eb8" />
<path d="M1319.0349025766973,1587.2150974233027 A54.3198051533949,54.3198051533949,0,0,0,1307.2598489621723,1604.837710518496 M1307.2598489621723,1604.837710518496 A54.3198051533941,54.3198051533941,0,0,0,1303.125,1625.625 M1303.125,1625.625" close="False" data-weight="1.0" stroke-width="6" fill="none" stroke="#377eb8" />
<path d="M1250.625,2428.125 A54.31980515339728,54.31980515339728,0,0,1,1229.837710518496,2423.9901510378277 M1229.837710518496,2423.9901510378277 A54.319805153387826,54.319805153387826,0,0,1,1212.2150974233027,2412.2150974233027 M1212.2150974233027,2412.2150974233027" close="False" data-weight="1.0" stroke-width="6" fill="none" stroke="#377eb8" />
<path d="M1244.0349025766973,2112.2150974233027 C1236.0799512883486,2120.1700487116514,1220.1700487116514,2136.0799512883486,1212.2150974233027,2144.0349025766973" close="False" data-weight="0.0" stroke-width="6" fill="none" stroke="#377eb8" />
<path d="M1025.625,2353.125 A54.3198051533991,54.3198051533991,0,0,1,1004.8377105184959,2348.990151037828 M1004.8377105184959,2348.990151037828 A54.319805153386056,54.319805153386056,0,0,1,987.2150974233027,2337.2150974233027 M987.2150974233027,2337.2150974233027" close="False" data-weight="1.0" stroke-width="6" fill="none" stroke="#377eb8" />
<path d="M1025.625,2203.125 A54.3198051533991,54.3198051533991,0,0,0,1004.8377105184959,2207.259848962172 M1004.8377105184959,2207.259848962172 A54.319805153386056,54.319805153386056,0,0,0,987.2150974233027,2219.0349025766973 M987.2150974233027,2219.0349025766973" close="False" data-weight="1.0" stroke-width="6" fill="none" stroke="#377eb8" />
<path d="M944.0349025766973,2262.2150974233027 A22.49999999999994,22.49999999999994,0,0,0,937.4448051533947,2278.125 M937.4448051533947,2278.125 A22.49999999999994,22.49999999999994,0,0,0,944.0349025766973,2294.0349025766973 M944.0349025766973,2294.0349025766973" close="False" data-weight="2.0" stroke-width="6" fill="none" stroke="#377eb8" />
<path d="M1625.625,2428.125 L1655.625,2428.125" close="False" data-weight="1.75" stroke-width="6" fill="none" stroke="#377eb8" />
<path d="M1550.625,2428.125 L1580.625,2428.125" close="False" data-weight="1.75" stroke-width="6" fill="none" stroke="#377eb8" />
<path d="M1524.125,1775.2665898254845 L1524.125,1805.9834101745155" close="False" data-weight="1.75" stroke-width="6" fill="none" stroke="#377eb8" />
<path d="M1544.0349025766973,1662.2150974233027 L1587.2150974233027,1619.0349025766973" close="False" data-weight="2.060660171779821" stroke-width="6" fill="none" stroke="#377eb8" />
<path d="M1532.125,1625.2665898254845 L1532.125,1655.9834101745155" close="False" data-weight="1.75" stroke-width="6" fill="none" stroke="#377eb8" />
<path d="M1544.0349025766973,1544.0349025766973 L1587.2150974233027,1587.2150974233027" close="False" data-weight="2.060660171779821" stroke-width="6" fill="none" stroke="#377eb8" />
<path d="M1475.625,2428.125 L1505.625,2428.125" close="False" data-weight="1.75" stroke-width="6" fill="none" stroke="#377eb8" />
<path d="M1449.125,1775.2665898254845 L1449.125,1805.9834101745155" close="False" data-weight="1.75" stroke-width="6" fill="none" stroke="#377eb8" />
<path d="M1475.625,1753.125 L1505.625,1753.125" close="False" data-weight="1.75" stroke-width="6" fill="none" stroke="#377eb8" />
<path d="M1475.2665898254845,1599.125 L1505.9834101745155,1599.125" close="False" data-weight="1.75" stroke-width="6" fill="none" stroke="#377eb8" />
<path d="M1475.625,1528.125 L1505.625,1528.125" close="False" data-weight="1.75" stroke-width="6" fill="none" stroke="#377eb8" />
<path d="M1400.625,2428.125 L1430.625,2428.125" close="False" data-weight="1.75" stroke-width="6" fill="none" stroke="#377eb8" />
<path d="M1394.0349025766973,1769.0349025766973 L1437.2150974233027,1812.2150974233027" close="False" data-weight="2.060660171779821" stroke-width="6" fill="none" stroke="#377eb8" />
<path d="M1396.6098954365973,1740.2969588128951 L1440.2969588128951,1696.6098954365973" close="False" data-weight="2.060660171779821" stroke-width="6" fill="none" stroke="#377eb8" />
<path d="M1400.625,1678.125 L1430.625,1678.125" close="False" data-weight="1.75" stroke-width="6" fill="none" stroke="#377eb8" />
<path d="M1382.125,1625.2665898254845 L1382.125,1655.9834101745155" close="False" data-weight="1.75" stroke-width="6" fill="none" stroke="#377eb8" />
<path d="M1400.625,1603.125 L1430.625,1603.125" close="False" data-weight="1.75" stroke-width="6" fill="none" stroke="#377eb8" />
<path d="M1400.625,1528.125 L1430.625,1528.125" close="False" data-weight="1.75" stroke-width="6" fill="none" stroke="#377eb8" />
<path d="M1325.625,2428.125 L1355.625,2428.125" close="False" data-weight="1.75" stroke-width="6" fill="none" stroke="#377eb8" />
<path d="M1303.125,2000.625 L1303.125,2030.625" close="False" data-weight="1.75" stroke-width="6" fill="none" stroke="#377eb8" />
<path d="M1303.125,1925.625 L1303.125,1955.625" close="False" data-weight="1.75" stroke-width="6" fill="none" stroke="#377eb8" />
<path d="M1303.125,1850.625 L1303.125,1880.625" close="False" data-weight="1.75" stroke-width="6" fill="none" stroke="#377eb8" />
<path d="M1303.125,1775.625 L1303.125,1805.625" close="False" data-weight="1.75" stroke-width="6" fill="none" stroke="#377eb8" />
<path d="M1303.125,1700.625 L1303.125,1730.625" close="False" data-weight="1.75" stroke-width="6" fill="none" stroke="#377eb8" />
<path d="M1303.125,1625.625 L1303.125,1655.625" close="False" data-weight="1.75" stroke-width="6" fill="none" stroke="#377eb8" />
<path d="M1319.0349025766973,1587.2150974233027 L1362.2150974233027,1544.0349025766973" close="False" data-weight="2.060660171779821" stroke-width="6" fill="none" stroke="#377eb8" />
<path d="M1250.625,2428.125 L1280.625,2428.125" close="False" data-weight="1.75" stroke-width="6" fill="none" stroke="#377eb8" />
<path d="M1244.0349025766973,2112.2150974233027 L1287.2150974233027,2069.0349025766973" close="False" data-weight="2.060660171779821" stroke-width="6" fill="none" stroke="#377eb8" />
<path d="M1169.0349025766973,2369.0349025766973 L1212.2150974233027,2412.2150974233027" close="False" data-weight="2.060660171779821" stroke-width="6" fill="none" stroke="#377eb8" />
<path d="M1153.125,2225.625 L1153.125,2255.625" close="False" data-weight="1.75" stroke-width="6" fill="none" stroke="#377eb8" />
<path d="M1169.0349025766973,2187.2150974233027 L1212.2150974233027,2144.0349025766973" close="False" data-weight="2.060660171779821" stroke-width="6" fill="none" stroke="#377eb8" />
<path d="M1094.0349025766973,2412.2150974233027 L1137.2150974233027,2369.0349025766973" close="False" data-weight="2.060660171779821" stroke-width="6" fill="none" stroke="#377eb8" />
<path d="M1078.125,2375.625 L1078.125,2405.625" close="False" data-weight="1.75" stroke-width="6" fill="none" stroke="#377eb8" />
<path d="M1100.625,2278.125 L1130.625,2278.125" close="False" data-weight="1.75" stroke-width="6" fill="none" stroke="#377eb8" />
<path d="M1025.625,2353.125 L1055.625,2353.125" close="False" data-weight="1.75" stroke-width="6" fill="none" stroke="#377eb8" />
<path d="M1025.625,2278.125 L1055.625,2278.125" close="False" data-weight="1.75" stroke-width="6" fill="none" stroke="#377eb8" />
<path d="M1019.0349025766973,2262.2150974233027 L1062.2150974233027,2219.0349025766973" close="False" data-weight="2.060660171779821" stroke-width="6" fill="none" stroke="#377eb8" />
<path d="M1025.625,2203.125 L1055.625,2203.125" close="False" data-weight="1.75" stroke-width="6" fill="none" stroke="#377eb8" />
<path d="M944.0349025766973,2294.0349025766973 L987.2150974233027,2337.2150974233027" close="False" data-weight="2.060660171779821" stroke-width="6" fill="none" stroke="#377eb8" />
<path d="M944.0349025766973,2262.2150974233027 L987.2150974233027,2219.0349025766973" close="False" data-weight="2.060660171779821" stroke-width="6" fill="none" stroke="#377eb8" />
<path d="M1978.125,1100.625 A54.31980515339569,54.31980515339569,0,0,0,1973.9901510378277,1079.837710518496 M1973.9901510378277,1079.837710518496 A54.3198051533933,54.3198051533933,0,0,0,1962.2150974233027,1062.2150974233027 M1962.2150974233027,1062.2150974233027" close="False" data-weight="1.0" stroke-width="6" fill="none" stroke="#e41a1c" />
<path d="M1925.625,1153.125 A54.31980515339569,54.31980515339569,0,0,1,1904.837710518496,1148.9901510378277 M1904.837710518496,1148.9901510378277 A54.3198051533933,54.3198051533933,0,0,1,1887.2150974233027,1137.2150974233027 M1887.2150974233027,1137.2150974233027" close="False" data-weight="1.0" stroke-width="6" fill="none" stroke="#e41a1c" />
<path d="M1919.0349025766973,1019.0349025766973 C1911.0799512883486,1011.0799512883486,1895.1700487116514,995.1700487116514,1887.2150974233027,987.2150974233027" close="False" data-weight="0.0" stroke-width="6" fill="none" stroke="#e41a1c" />
<path d="M1844.0349025766973,944.0349025766973 A54.31980515339514,54.31980515339514,0,0,0,1826.412289481504,932.2598489621722 M1826.412289481504,932.2598489621722 A54.319805153393986,54.319805153393986,0,0,0,1805.625,928.125 M1805.625,928.125" close="False" data-weight="1.0" stroke-width="6" fill="none" stroke="#e41a1c" />
<path d="M1753.125,1130.625 A54.31980515339569,54.31980515339569,0,0,1,1748.9901510378277,1151.412289481504 M1748.9901510378277,1151.412289481504 A54.3198051533933,54.3198051533933,0,0,1,1737.2150974233027,1169.0349025766973 M1737.2150974233027,1169.0349025766973" close="False" data-weight="1.0" stroke-width="6" fill="none" stroke="#e41a1c" />
<path d="M1625.625,703.125 C1614.375,703.125,1591.875,703.125,1580.625,703.125" close="False" data-weight="0.0" stroke-width="6" fill="none" stroke="#e41a1c" />
<path d="M1544.0349025766973,1137.2150974233027 C1536.0799512883486,1145.1700487116514,1520.1700487116514,1161.0799512883486,1512.2150974233027,1169.0349025766973" close="False" data-weight="0.0" stroke-width="6" fill="none" stroke="#e41a1c" />
<path d="M1550.625,703.125 A54.31980515339285,54.31980515339285,0,0,1,1529.837710518496,698.9901510378276 M1529.837710518496,698.9901510378276 A54.31980515339619,54.31980515339619,0,0,1,1512.2150974233027,687.2150974233027 M1512.2150974233027,687.2150974233027" close="False" data-weight="1.0" stroke-width="6" fill="none" stroke="#e41a1c" />
<path d="M1469.0349025766973,1212.2150974233027 C1461.0799512883486,1220.1700487116514,1445.1700487116514,1236.0799512883486,1437.2150974233027,1244.0349025766973" close="False" data-weight="0.0" stroke-width="6" fill="none" stroke="#e41a1c" />
<path d="M1469.0349025766973,644.0349025766973 C1461.0799512883486,636.0799512883486,1445.1700487116514,620.1700487116514,1437.2150974233027,612.2150974233027" close="False" data-weight="0.0" stroke-width="6" fill="none" stroke="#e41a1c" />
<path d="M1394.0349025766973,1812.2150974233027 A22.49999999999994,22.49999999999994,0,0,1,1378.125,1818.8051948466054 M1378.125,1818.8051948466054 A22.49999999999994,22.49999999999994,0,0,1,1362.2150974233027,1812.2150974233027 M1362.2150974233027,1812.2150974233027" close="False" data-weight="2.0" stroke-width="6" fill="none" stroke="#e41a1c" />
<path d="M1390.9530411871049,1734.6401045634027 A25.881378668797677,25.881378668797677,0,0,1,1376.5840693052037,1741.920170137191 M1376.5840693052037,1741.920170137191 A16.72701534596113,16.72701534596113,0,0,1,1362.2150974233027,1737.2150974233027 M1362.2150974233027,1737.2150974233027" close="False" data-weight="2.0" stroke-width="6" fill="none" stroke="#e41a1c" />
<path d="M1394.0349025766973,1287.2150974233027 C1386.0799512883486,1295.1700487116514,1370.1700487116514,1311.0799512883486,1362.2150974233027,1319.0349025766973" close="False" data-weight="0.0" stroke-width="6" fill="none" stroke="#e41a1c" />
<path d="M1319.0349025766973,1769.0349025766973 C1311.0799512883486,1761.0799512883486,1295.1700487116514,1745.1700487116514,1287.2150974233027,1737.2150974233027" close="False" data-weight="0.0" stroke-width="6" fill="none" stroke="#e41a1c" />
<path d="M1319.0349025766973,1362.2150974233027 C1311.0799512883486,1370.1700487116514,1295.1700487116514,1386.0799512883486,1287.2150974233027,1394.0349025766973" close="False" data-weight="0.0" stroke-width="6" fill="none" stroke="#e41a1c" />
<path d="M1228.125,1655.625 A54.31980515339569,54.31980515339569,0,0,0,1232.2598489621723,1676.412289481504 M1232.2598489621723,1676.412289481504 A54.3198051533933,54.3198051533933,0,0,0,1244.0349025766973,1694.0349025766973 M1244.0349025766973,1694.0349025766973" close="False" data-weight="1.0" stroke-width="6" fill="none" stroke="#e41a1c" />
<path d="M1228.125,1580.625 C1228.125,1591.875,1228.125,1614.375,1228.125,1625.625" close="False" data-weight="0.0" stroke-width="6" fill="none" stroke="#e41a1c" />
<path d="M1228.125,1505.625 C1228.125,1516.875,1228.125,1539.375,1228.125,1550.625" close="False" data-weight="0.0" stroke-width="6" fill="none" stroke="#e41a1c" />
<path d="M1244.0349025766973,1437.2150974233027 A54.3198051533949,54.3198051533949,0,0,0,1232.2598489621723,1454.837710518496 M1232.2598489621723,1454.837710518496 A54.3198051533941,54.3198051533941,0,0,0,1228.125,1475.625 M1228.125,1475.625" close="False" data-weight="1.0" stroke-width="6" fill="none" stroke="#e41a1c" />
<path d="M1246.6098954365973,690.296958812895 C1238.7816612806716,698.1251929688206,1223.1251929688208,713.7816612806719,1215.2969588128951,721.6098954365974" close="False" data-weight="0.0" stroke-width="6" fill="none" stroke="#e41a1c" />
<path d="M1171.6098954366048,765.2969588128876 C1163.6866867625815,773.2201674869109,1145.138306097326,786.111693902674,1137.2150974233027,794.0349025766973" close="False" data-weight="0.0" stroke-width="6" fill="none" stroke="#e41a1c" />
<path d="M1094.0349025766973,837.2150974233027 C1086.0799512883486,845.1700487116514,1070.1700487116514,861.0799512883486,1062.2150974233027,869.0349025766973" close="False" data-weight="0.0" stroke-width="6" fill="none" stroke="#e41a1c" />
<path d="M1019.0349025766973,912.2150974233027 A54.3198051533949,54.3198051533949,0,0,1,1001.4122894815039,923.9901510378279 M1001.4122894815039,923.9901510378279 A54.31980515339421,54.31980515339421,0,0,1,980.625,928.125 M980.625,928.125" close="False" data-weight="1.0" stroke-width="6" fill="none" stroke="#e41a1c" />
<path d="M869.0349025766973,1137.2150974233027 C861.0799512883486,1145.1700487116514,845.1700487116514,1161.0799512883486,837.2150974233027,1169.0349025766973" close="False" data-weight="0.0" stroke-width="6" fill="none" stroke="#e41a1c" />
<path d="M778.125,1130.625 C778.125,1141.875,778.125,1164.375,778.125,1175.625" close="False" data-weight="0.0" stroke-width="6" fill="none" stroke="#e41a1c" />
<path d="M778.125,1055.625 C778.125,1066.875,778.125,1089.375,778.125,1100.625" close="False" data-weight="0.0" stroke-width="6" fill="none" stroke="#e41a1c" />
<path d="M778.125,980.625 C778.125,991.875,778.125,1014.375,778.125,1025.625" close="False" data-weight="0.0" stroke-width="6" fill="none" stroke="#e41a1c" />
<path d="M778.125,905.625 C778.125,916.875,778.125,939.375,778.125,950.625" close="False" data-weight="0.0" stroke-width="6" fill="none" stroke="#e41a1c" />
<path d="M778.125,830.625 C778.125,841.875,778.125,864.375,778.125,875.625" close="False" data-weight="0.0" stroke-width="6" fill="none" stroke="#e41a1c" />
<path d="M778.125,800.625 A35.858166261560655,35.858166261560655,0,0,0,772.5597497660872,781.4378343368905 M772.5597497660872,781.4378343368905 A93.8303986367466,93.8303986367466,0,0,0,759.6401045634026,765.296958812895 M759.6401045634026,765.296958812895" close="False" data-weight="1.0" stroke-width="6" fill="none" stroke="#e41a1c" />
<path d="M1978.125,1100.625 L1978.125,1130.625" close="False" data-weight="1.75" stroke-width="6" fill="none" stroke="#e41a1c" />
<path d="M1925.625,1153.125 L1955.625,1153.125" close="False" data-weight="1.75" stroke-width="6" fill="none" stroke="#e41a1c" />
<path d="M1919.0349025766973,1019.0349025766973 L1962.2150974233027,1062.2150974233027" close="False" data-weight="2.060660171779821" stroke-width="6" fill="none" stroke="#e41a1c" />
<path d="M1844.0349025766973,1094.0349025766973 L1887.2150974233027,1137.2150974233027" close="False" data-weight="2.060660171779821" stroke-width="6" fill="none" stroke="#e41a1c" />
<path d="M1828.125,1025.625 L1828.125,1055.625" close="False" data-weight="1.75" stroke-width="6" fill="none" stroke="#e41a1c" />
<path d="M1844.0349025766973,944.0349025766973 L1887.2150974233027,987.2150974233027" close="False" data-weight="2.060660171779821" stroke-width="6" fill="none" stroke="#e41a1c" />
<path d="M1753.125,1100.625 L1753.125,1130.625" close="False" data-weight="1.75" stroke-width="6" fill="none" stroke="#e41a1c" />
<path d="M1753.125,1025.625 L1753.125,1055.625" close="False" data-weight="1.75" stroke-width="6" fill="none" stroke="#e41a1c" />
<path d="M1775.625,1003.125 L1805.625,1003.125" close="False" data-weight="1.75" stroke-width="6" fill="none" stroke="#e41a1c" />
<path d="M1775.625,928.125 L1805.625,928.125" close="False" data-weight="1.75" stroke-width="6" fill="none" stroke="#e41a1c" />
<path d="M1694.0349025766973,1212.2150974233027 L1737.2150974233027,1169.0349025766973" close="False" data-weight="2.060660171779821" stroke-width="6" fill="none" stroke="#e41a1c" />
<path d="M1678.125,1100.625 L1678.125,1130.625" close="False" data-weight="1.75" stroke-width="6" fill="none" stroke="#e41a1c" />
<path d="M1678.125,1025.625 L1678.125,1055.625" close="False" data-weight="1.75" stroke-width="6" fill="none" stroke="#e41a1c" />
<path d="M1700.625,928.125 L1730.625,928.125" close="False" data-weight="1.75" stroke-width="6" fill="none" stroke="#e41a1c" />
<path d="M1678.125,800.625 L1678.125,830.625" close="False" data-weight="1.75" stroke-width="6" fill="none" stroke="#e41a1c" />
<path d="M1678.125,725.625 L1678.125,755.625" close="False" data-weight="1.75" stroke-width="6" fill="none" stroke="#e41a1c" />
<path d="M1619.0349025766973,1169.0349025766973 L1662.2150974233027,1212.2150974233027" close="False" data-weight="2.060660171779821" stroke-width="6" fill="none" stroke="#e41a1c" />
<path d="M1625.625,1153.125 L1655.625,1153.125" close="False" data-weight="1.75" stroke-width="6" fill="none" stroke="#e41a1c" />
<path d="M1603.125,1025.625 L1603.125,1055.625" close="False" data-weight="1.75" stroke-width="6" fill="none" stroke="#e41a1c" />
<path d="M1625.625,1003.125 L1655.625,1003.125" close="False" data-weight="1.75" stroke-width="6" fill="none" stroke="#e41a1c" />
<path d="M1625.625,928.125 L1655.625,928.125" close="False" data-weight="1.75" stroke-width="6" fill="none" stroke="#e41a1c" />
<path d="M1603.125,875.625 L1603.125,905.625" close="False" data-weight="1.75" stroke-width="6" fill="none" stroke="#e41a1c" />
<path d="M1625.625,853.125 L1655.625,853.125" close="False" data-weight="1.75" stroke-width="6" fill="none" stroke="#e41a1c" />
<path d="M1625.625,703.125 L1655.625,703.125" close="False" data-weight="1.75" stroke-width="6" fill="none" stroke="#e41a1c" />
<path d="M1532.125,1775.2665898254845 L1532.125,1805.9834101745155" close="False" data-weight="1.75" stroke-width="6" fill="none" stroke="#e41a1c" />
<path d="M1528.125,1700.625 L1528.125,1730.625" close="False" data-weight="1.75" stroke-width="6" fill="none" stroke="#e41a1c" />
<path d="M1524.125,1625.2665898254845 L1524.125,1655.9834101745155" close="False" data-weight="1.75" stroke-width="6" fill="none" stroke="#e41a1c" />
<path d="M1544.0349025766973,1137.2150974233027 L1587.2150974233027,1094.0349025766973" close="False" data-weight="2.060660171779821" stroke-width="6" fill="none" stroke="#e41a1c" />
<path d="M1550.625,703.125 L1580.625,703.125" close="False" data-weight="1.75" stroke-width="6" fill="none" stroke="#e41a1c" />
<path d="M1475.625,1828.125 L1505.625,1828.125" close="False" data-weight="1.75" stroke-width="6" fill="none" stroke="#e41a1c" />
<path d="M1457.125,1775.2665898254845 L1457.125,1805.9834101745155" close="False" data-weight="1.75" stroke-width="6" fill="none" stroke="#e41a1c" />
<path d="M1453.125,1625.625 L1453.125,1655.625" close="False" data-weight="1.75" stroke-width="6" fill="none" stroke="#e41a1c" />
<path d="M1475.2665898254845,1607.125 L1505.9834101745155,1607.125" close="False" data-weight="1.75" stroke-width="6" fill="none" stroke="#e41a1c" />
<path d="M1469.0349025766973,1212.2150974233027 L1512.2150974233027,1169.0349025766973" close="False" data-weight="2.060660171779821" stroke-width="6" fill="none" stroke="#e41a1c" />
<path d="M1469.0349025766973,644.0349025766973 L1512.2150974233027,687.2150974233027" close="False" data-weight="2.060660171779821" stroke-width="6" fill="none" stroke="#e41a1c" />
<path d="M1394.0349025766973,1812.2150974233027 L1437.2150974233027,1769.0349025766973" close="False" data-weight="2.060660171779821" stroke-width="6" fill="none" stroke="#e41a1c" />
<path d="M1390.9530411871049,1734.6401045634027 L1434.6401045634027,1690.9530411871049" close="False" data-weight="2.060660171779821" stroke-width="6" fill="none" stroke="#e41a1c" />
<path d="M1374.125,1625.2665898254845 L1374.125,1655.9834101745155" close="False" data-weight="1.75" stroke-width="6" fill="none" stroke="#e41a1c" />
<path d="M1394.0349025766973,1287.2150974233027 L1437.2150974233027,1244.0349025766973" close="False" data-weight="2.060660171779821" stroke-width="6" fill="none" stroke="#e41a1c" />
<path d="M1394.0349025766973,569.0349025766973 L1437.2150974233027,612.2150974233027" close="False" data-weight="2.060660171779821" stroke-width="6" fill="none" stroke="#e41a1c" />
<path d="M1319.0349025766973,1769.0349025766973 L1362.2150974233027,1812.2150974233027" close="False" data-weight="2.060660171779821" stroke-width="6" fill="none" stroke="#e41a1c" />
<path d="M1319.0349025766973,1694.0349025766973 L1362.2150974233027,1737.2150974233027" close="False" data-weight="2.060660171779821" stroke-width="6" fill="none" stroke="#e41a1c" />
<path d="M1325.625,1678.125 L1355.625,1678.125" close="False" data-weight="1.75" stroke-width="6" fill="none" stroke="#e41a1c" />
<path d="M1319.0349025766973,1362.2150974233027 L1362.2150974233027,1319.0349025766973" close="False" data-weight="2.060660171779821" stroke-width="6" fill="none" stroke="#e41a1c" />
<path d="M1307.125,575.2665898254845 L1307.125,605.9834101745155" close="False" data-weight="1.75" stroke-width="6" fill="none" stroke="#e41a1c" />
<path d="M1325.2665898254845,557.125 L1355.9834101745155,557.125" close="False" data-weight="1.75" stroke-width="6" fill="none" stroke="#e41a1c" />
<path d="M1244.0349025766973,1694.0349025766973 L1287.2150974233027,1737.2150974233027" close="False" data-weight="2.060660171779821" stroke-width="6" fill="none" stroke="#e41a1c" />
<path d="M1228.125,1625.625 L1228.125,1655.625" close="False" data-weight="1.75" stroke-width="6" fill="none" stroke="#e41a1c" />
<path d="M1228.125,1550.625 L1228.125,1580.625" close="False" data-weight="1.75" stroke-width="6" fill="none" stroke="#e41a1c" />
<path d="M1228.125,1475.625 L1228.125,1505.625" close="False" data-weight="1.75" stroke-width="6" fill="none" stroke="#e41a1c" />
<path d="M1244.0349025766973,1437.2150974233027 L1287.2150974233027,1394.0349025766973" close="False" data-weight="2.060660171779821" stroke-width="6" fill="none" stroke="#e41a1c" />
<path d="M1246.6098954365973,690.296958812895 L1290.2969588128951,646.6098954365974" close="False" data-weight="2.060660171779821" stroke-width="6" fill="none" stroke="#e41a1c" />
<path d="M1171.6098954366048,765.2969588128876 L1215.2969588129024,721.6098954365899" close="False" data-weight="2.060660171779821" stroke-width="6" fill="none" stroke="#e41a1c" />
<path d="M1094.0349025766973,837.2150974233027 L1137.2150974233027,794.0349025766973" close="False" data-weight="2.060660171779821" stroke-width="6" fill="none" stroke="#e41a1c" />
<path d="M1019.0349025766973,912.2150974233027 L1062.2150974233027,869.0349025766973" close="False" data-weight="2.060660171779821" stroke-width="6" fill="none" stroke="#e41a1c" />
<path d="M928.125,950.625 L928.125,980.625" close="False" data-weight="1.75" stroke-width="6" fill="none" stroke="#e41a1c" />
<path d="M950.625,928.125 L980.625,928.125" close="False" data-weight="1.75" stroke-width="6" fill="none" stroke="#e41a1c" />
<path d="M869.0349025766973,1137.2150974233027 L912.2150974233027,1094.0349025766973" close="False" data-weight="2.060660171779821" stroke-width="6" fill="none" stroke="#e41a1c" />
<path d="M865.953041187105,1021.6098954365974 L909.6401045634026,1065.2969588128951" close="False" data-weight="2.060660171779821" stroke-width="6" fill="none" stroke="#e41a1c" />
<path d="M875.625,1003.125 L905.625,1003.125" close="False" data-weight="1.75" stroke-width="6" fill="none" stroke="#e41a1c" />
<path d="M794.0349025766973,1212.2150974233027 L837.2150974233027,1169.0349025766973" close="False" data-weight="2.060660171779821" stroke-width="6" fill="none" stroke="#e41a1c" />
<path d="M778.125,1175.625 L778.125,1205.625" close="False" data-weight="1.75" stroke-width="6" fill="none" stroke="#e41a1c" />
<path d="M778.125,1100.625 L778.125,1130.625" close="False" data-weight="1.75" stroke-width="6" fill="none" stroke="#e41a1c" />
<path d="M778.125,1025.625 L778.125,1055.625" close="False" data-weight="1.75" stroke-width="6" fill="none" stroke="#e41a1c" />
<path d="M778.125,950.625 L778.125,980.625" close="False" data-weight="1.75" stroke-width="6" fill="none" stroke="#e41a1c" />
<path d="M778.125,875.625 L778.125,905.625" close="False" data-weight="1.75" stroke-width="6" fill="none" stroke="#e41a1c" />
<path d="M778.125,800.625 L778.125,830.625" close="False" data-weight="1.75" stroke-width="6" fill="none" stroke="#e41a1c" />
<path d="M715.953041187105,721.6098954365974 L759.6401045634026,765.296958812895" close="False" data-weight="2.060660171779821" stroke-width="6" fill="none" stroke="#e41a1c" />
<image x="2395.625" y="1120.625" width="65" height="65" xlink:href="designspace-test/./img/ds_dataset2_60_28_thumb.png">
<title>28</title>
</image>
<image x="1945.625" y="1120.625" width="65" height="65" xlink:href="designspace-test/./img/ds_dataset2_60_31_thumb.png">
<title>31</title>
</image>
<image x="1795.625" y="1045.625" width="65" height="65" xlink:href="designspace-test/./img/ds_dataset2_60_58_thumb.png">
<title>58</title>
</image>
<image x="1795.625" y="970.625" width="65" height="65" xlink:href="designspace-test/./img/ds_dataset2_60_54_thumb.png">
<title>54</title>
</image>
<image x="1720.625" y="1045.625" width="65" height="65" xlink:href="designspace-test/./img/ds_dataset2_60_46_thumb.png">
<title>46</title>
</image>
<image x="1720.625" y="970.625" width="65" height="65" xlink:href="designspace-test/./img/ds_dataset2_60_44_thumb.png">
<title>44</title>
</image>
<image x="1720.625" y="895.625" width="65" height="65" xlink:href="designspace-test/./img/ds_dataset2_60_56_thumb.png">
<title>56</title>
</image>
<image x="1645.625" y="2395.625" width="65" height="65" xlink:href="designspace-test/./img/ds_dataset2_60_57_thumb.png">
<title>57</title>
</image>
<image x="1645.625" y="1195.625" width="65" height="65" xlink:href="designspace-test/./img/ds_dataset2_60_43_thumb.png">
<title>43</title>
</image>
<image x="1645.625" y="1120.625" width="65" height="65" xlink:href="designspace-test/./img/ds_dataset2_60_32_thumb.png">
<title>32</title>
</image>
<image x="1645.625" y="1045.625" width="65" height="65" xlink:href="designspace-test/./img/ds_dataset2_60_20_thumb.png">
<title>20</title>
</image>
<image x="1645.625" y="970.625" width="65" height="65" xlink:href="designspace-test/./img/ds_dataset2_60_8_thumb.png">
<title>8</title>
</image>
<image x="1645.625" y="895.625" width="65" height="65" xlink:href="designspace-test/./img/ds_dataset2_60_53_thumb.png">
<title>53</title>
</image>
<image x="1645.625" y="820.625" width="65" height="65" xlink:href="designspace-test/./img/ds_dataset2_60_49_thumb.png">
<title>49</title>
</image>
<image x="1645.625" y="745.625" width="65" height="65" xlink:href="designspace-test/./img/ds_dataset2_60_36_thumb.png">
<title>36</title>
</image>
<image x="1645.625" y="670.625" width="65" height="65" xlink:href="designspace-test/./img/ds_dataset2_60_17_thumb.png">
<title>17</title>
</image>
<image x="1570.625" y="1120.625" width="65" height="65" xlink:href="designspace-test/./img/ds_dataset2_60_30_thumb.png">
<title>30</title>
</image>
<image x="1570.625" y="1045.625" width="65" height="65" xlink:href="designspace-test/./img/ds_dataset2_60_1_thumb.png">
<title>1</title>
</image>
<image x="1570.625" y="970.625" width="65" height="65" xlink:href="designspace-test/./img/ds_dataset2_60_9_thumb.png">
<title>9</title>
</image>
<image x="1570.625" y="895.625" width="65" height="65" xlink:href="designspace-test/./img/ds_dataset2_60_41_thumb.png">
<title>41</title>
</image>
<image x="1570.625" y="820.625" width="65" height="65" xlink:href="designspace-test/./img/ds_dataset2_60_37_thumb.png">
<title>37</title>
</image>
<image x="1495.625" y="1795.625" width="65" height="65" xlink:href="designspace-test/./img/ds_dataset2_60_13_thumb.png">
<title>13</title>
</image>
<image x="1495.625" y="1720.625" width="65" height="65" xlink:href="designspace-test/./img/ds_dataset2_60_11_thumb.png">
<title>11</title>
</image>
<image x="1495.625" y="1645.625" width="65" height="65" xlink:href="designspace-test/./img/ds_dataset2_60_39_thumb.png">
<title>39</title>
</image>
<image x="1495.625" y="1570.625" width="65" height="65" xlink:href="designspace-test/./img/ds_dataset2_60_51_thumb.png">
<title>51</title>
</image>
<image x="1420.625" y="1795.625" width="65" height="65" xlink:href="designspace-test/./img/ds_dataset2_60_19_thumb.png">
<title>19</title>
</image>
<image x="1420.625" y="1720.625" width="65" height="65" xlink:href="designspace-test/./img/ds_dataset2_60_38_thumb.png">
<title>38</title>
</image>
<image x="1420.625" y="1645.625" width="65" height="65" xlink:href="designspace-test/./img/ds_dataset2_60_55_thumb.png">
<title>55</title>
</image>
<image x="1420.625" y="1570.625" width="65" height="65" xlink:href="designspace-test/./img/ds_dataset2_60_24_thumb.png">
<title>24</title>
</image>
<image x="1345.625" y="1645.625" width="65" height="65" xlink:href="designspace-test/./img/ds_dataset2_60_16_thumb.png">
<title>16</title>
</image>
<image x="1345.625" y="1570.625" width="65" height="65" xlink:href="designspace-test/./img/ds_dataset2_60_18_thumb.png">
<title>18</title>
</image>
<image x="1345.625" y="520.625" width="65" height="65" xlink:href="designspace-test/./img/ds_dataset2_60_12_thumb.png">
<title>12</title>
</image>
<image x="1270.625" y="1645.625" width="65" height="65" xlink:href="designspace-test/./img/ds_dataset2_60_26_thumb.png">
<title>26</title>
</image>
<image x="1270.625" y="595.625" width="65" height="65" xlink:href="designspace-test/./img/ds_dataset2_60_29_thumb.png">
<title>29</title>
</image>
<image x="1270.625" y="520.625" width="65" height="65" xlink:href="designspace-test/./img/ds_dataset2_60_50_thumb.png">
<title>50</title>
</image>
<image x="1120.625" y="2320.625" width="65" height="65" xlink:href="designspace-test/./img/ds_dataset2_60_45_thumb.png">
<title>45</title>
</image>
<image x="1120.625" y="2245.625" width="65" height="65" xlink:href="designspace-test/./img/ds_dataset2_60_22_thumb.png">
<title>22</title>
</image>
<image x="1120.625" y="2170.625" width="65" height="65" xlink:href="designspace-test/./img/ds_dataset2_60_0_thumb.png">
<title>0</title>
</image>
<image x="1045.625" y="2395.625" width="65" height="65" xlink:href="designspace-test/./img/ds_dataset2_60_25_thumb.png">
<title>25</title>
</image>
<image x="1045.625" y="2320.625" width="65" height="65" xlink:href="designspace-test/./img/ds_dataset2_60_40_thumb.png">
<title>40</title>
</image>
<image x="1045.625" y="2245.625" width="65" height="65" xlink:href="designspace-test/./img/ds_dataset2_60_7_thumb.png">
<title>7</title>
</image>
<image x="1045.625" y="2170.625" width="65" height="65" xlink:href="designspace-test/./img/ds_dataset2_60_27_thumb.png">
<title>27</title>
</image>
<image x="970.625" y="2245.625" width="65" height="65" xlink:href="designspace-test/./img/ds_dataset2_60_2_thumb.png">
<title>2</title>
</image>
<image x="895.625" y="1045.625" width="65" height="65" xlink:href="designspace-test/./img/ds_dataset2_60_34_thumb.png">
<title>34</title>
</image>
<image x="895.625" y="970.625" width="65" height="65" xlink:href="designspace-test/./img/ds_dataset2_60_4_thumb.png">
<title>4</title>
</image>
<image x="895.625" y="895.625" width="65" height="65" xlink:href="designspace-test/./img/ds_dataset2_60_23_thumb.png">
<title>23</title>
</image>
<image x="820.625" y="970.625" width="65" height="65" xlink:href="designspace-test/./img/ds_dataset2_60_14_thumb.png">
<title>14</title>
</image>
<image x="745.625" y="1195.625" width="65" height="65" xlink:href="designspace-test/./img/ds_dataset2_60_6_thumb.png">
<title>6</title>
</image>
<image x="745.625" y="145.625" width="65" height="65" xlink:href="designspace-test/./img/ds_dataset2_60_15_thumb.png">
<title>15</title>
</image>
<image x="745.625" y="70.625" width="65" height="65" xlink:href="designspace-test/./img/ds_dataset2_60_21_thumb.png">
<title>21</title>
</image>
<image x="670.625" y="670.625" width="65" height="65" xlink:href="designspace-test/./img/ds_dataset2_60_10_thumb.png">
<title>10</title>
</image>
<image x="670.625" y="145.625" width="65" height="65" xlink:href="designspace-test/./img/ds_dataset2_60_5_thumb.png">
<title>5</title>
</image>
<image x="295.625" y="595.625" width="65" height="65" xlink:href="designspace-test/./img/ds_dataset2_60_48_thumb.png">
<title>48</title>
</image>
<image x="220.625" y="2020.625" width="65" height="65" xlink:href="designspace-test/./img/ds_dataset2_60_33_thumb.png">
<title>33</title>
</image>
<image x="220.625" y="1120.625" width="65" height="65" xlink:href="designspace-test/./img/ds_dataset2_60_35_thumb.png">
<title>35</title>
</image>
<image x="145.625" y="1195.625" width="65" height="65" xlink:href="designspace-test/./img/ds_dataset2_60_59_thumb.png">
<title>59</title>
</image>
<image x="145.625" y="1120.625" width="65" height="65" xlink:href="designspace-test/./img/ds_dataset2_60_47_thumb.png">
<title>47</title>
</image>
<image x="145.625" y="1045.625" width="65" height="65" xlink:href="designspace-test/./img/ds_dataset2_60_42_thumb.png">
<title>42</title>
</image>
<image x="145.625" y="970.625" width="65" height="65" xlink:href="designspace-test/./img/ds_dataset2_60_52_thumb.png">
<title>52</title>
</image>
<image x="70.625" y="1795.625" width="65" height="65" xlink:href="designspace-test/./img/ds_dataset2_60_3_thumb.png">
<title>3</title>
</image>
</svg>