<?xml version="1.0" encoding="UTF-8"?>
<svg xmlns="http://www.w3.org/2000/svg" xmlns:xlink="http://www.w3.org/1999/xlink"
     width="1350" height="1350" viewBox="0 0 1350 1350">
<defs>
</defs>
<path d="M950.625,628.125 C939.375,628.125,916.875,628.125,905.625,628.125" close="False" data-weight="0.0" stroke-width="6" fill="none" stroke="#ffff33" />
<path d="M875.625,628.125 A54.31980515339478,54.31980515339478,0,0,0,854.8377105184961,632.2598489621722 M854.8377105184961,632.2598489621722 A54.319805153394256,54.319805153394256,0,0,0,837.2150974233027,644.0349025766973 M837.2150974233027,644.0349025766973" close="False" data-weight="1.0" stroke-width="6" fill="none" stroke="#ffff33" />
<path d="M794.0349025766973,687.2150974233027 C786.0799512883486,695.1700487116514,770.1700487116514,711.0799512883486,762.2150974233027,719.0349025766973" close="False" data-weight="0.0" stroke-width="6" fill="none" stroke="#ffff33" />
<path d="M719.0349025766973,762.2150974233027 C711.0799512883486,770.1700487116514,695.1700487116514,786.0799512883486,687.2150974233027,794.0349025766973" close="False" data-weight="0.0" stroke-width="6" fill="none" stroke="#ffff33" />
<path d="M644.0349025766973,837.2150974233027 C636.0799512883486,845.1700487116514,620.1700487116514,861.0799512883486,612.2150974233027,869.0349025766973" close="False" data-weight="0.0" stroke-width="6" fill="none" stroke="#ffff33" />
<path d="M569.0349025766973,912.2150974233027 C561.0799512883486,920.1700487116514,545.1700487116514,936.0799512883486,537.2150974233027,944.0349025766973" close="False" data-weight="0.0" stroke-width="6" fill="none" stroke="#ffff33" />
<path d="M494.03490257669733,987.2150974233027 C486.0799512883487,995.1700487116514,470.1700487116513,1011.0799512883486,462.21509742330267,1019.0349025766973" close="False" data-weight="0.0" stroke-width="6" fill="none" stroke="#ffff33" />
<path d="M419.03490257669733,1062.2150974233027 C411.0799512883487,1070.1700487116514,395.1700487116513,1086.0799512883486,387.21509742330267,1094.0349025766973" close="False" data-weight="0.0" stroke-width="6" fill="none" stroke="#ffff33" />
<path d="M344.03490257669733,1137.2150974233027 C336.0799512883487,1145.1700487116514,320.1700487116513,1161.0799512883486,312.21509742330267,1169.0349025766973" close="False" data-weight="0.0" stroke-width="6" fill="none" stroke="#ffff33" />
<path d="M950.625,628.125 L980.625,628.125" close="False" data-weight="1.75" stroke-width="6" fill="none" stroke="#ffff33" />
<path d="M875.625,628.125 L905.625,628.125" close="False" data-weight="1.75" stroke-width="6" fill="none" stroke="#ffff33" />
<path d="M794.0349025766973,687.2150974233027 L837.2150974233027,644.0349025766973" close="False" data-weight="2.060660171779821" stroke-width="6" fill="none" stroke="#ffff33" />
<path d="M719.0349025766973,762.2150974233027 L762.2150974233027,719.0349025766973" close="False" data-weight="2.060660171779821" stroke-width="6" fill="none" stroke="#ffff33" />
<path d="M644.0349025766973,837.2150974233027 L687.2150974233027,794.0349025766973" close="False" data-weight="2.060660171779821" stroke-width="6" fill="none" stroke="#ffff33" />
<path d="M569.0349025766973,912.2150974233027 L612.2150974233027,869.0349025766973" close="False" data-weight="2.060660171779821" stroke-width="6" fill="none" stroke="#ffff33" />
<path d="M494.03490257669733,987.2150974233027 L537.2150974233027,944.0349025766973" close="False" data-weight="2.060660171779821" stroke-width="6" fill="none" stroke="#ffff33" />
<path d="M419.03490257669733,1062.2150974233027 L462.21509742330267,1019.0349025766973" close="False" data-weight="2.060660171779821" stroke-width="6" fill="none" stroke="#ffff33" />
<path d="M344.03490257669733,1137.2150974233027 L387.21509742330267,1094.0349025766973" close="False" data-weight="2.060660171779821" stroke-width="6" fill="none" stroke="#ffff33" />
<path d="M269.03490257669733,1212.2150974233027 L312.21509742330267,1169.0349025766973" close="False" data-weight="2.060660171779821" stroke-width="6" fill="none" stroke="#ffff33" />
<path d="M1169.0349025766973,912.2150974233027 C1161.0799512883486,920.1700487116514,1145.1700487116514,936.0799512883486,1137.2150974233027,944.0349025766973" close="False" data-weight="0.0" stroke-width="6" fill="none" stroke="#984ea3" />
<path d="M1078.125,1130.625 C1078.125,1141.875,1078.125,1164.375,1078.125,1175.625" close="False" data-weight="0.0" stroke-width="6" fill="none" stroke="#984ea3" />
<path d="M1078.125,1055.625 C1078.125,1066.875,1078.125,1089.375,1078.125,1100.625" close="False" data-weight="0.0" stroke-width="6" fill="none" stroke="#984ea3" />
<path d="M1025.625,1003.125 C1014.375,1003.125,991.875,1003.125,980.625,1003.125" close="False" data-weight="0.0" stroke-width="6" fill="none" stroke="#984ea3" />
<path d="M950.625,1003.125 C939.375,1003.125,916.875,1003.125,905.625,1003.125" close="False" data-weight="0.0" stroke-width="6" fill="none" stroke="#984ea3" />
<path d="M946.6098954365974,690.296958812895 A57.45452644918628,57.45452644918628,0,0,1,927.9703055610012,702.7515345873452 M927.9703055610012,702.7515345873452 A57.4545264491876,57.4545264491876,0,0,1,905.9834101745155,707.125 M905.9834101745155,707.125" close="False" data-weight="1.0" stroke-width="6" fill="none" stroke="#984ea3" />
<path d="M875.2665898254845,707.125 C864.1957949127423,707.125,842.0542050872577,707.125,830.9834101745155,707.125" close="False" data-weight="0.0" stroke-width="6" fill="none" stroke="#984ea3" />
<path d="M782.125,950.2665898254845 A57.45452644918623,57.45452644918623,0,0,0,777.7515345873452,928.2796944389988 M777.7515345873452,928.2796944389988 A57.45452644918757,57.45452644918757,0,0,0,765.296958812895,909.6401045634026 M765.296958812895,909.6401045634026" close="False" data-weight="1.0" stroke-width="6" fill="none" stroke="#984ea3" />
<path d="M800.2665898254845,707.125 C789.1957949127423,707.125,767.0542050872577,707.125,755.9834101745155,707.125" close="False" data-weight="0.0" stroke-width="6" fill="none" stroke="#984ea3" />
<path d="M796.6098954365974,465.296958812895 C788.7816612806718,473.1251929688206,773.1251929688207,488.7816612806718,765.296958812895,496.6098954365974" close="False" data-weight="0.0" stroke-width="6" fill="none" stroke="#984ea3" />
<path d="M721.6098954365974,865.953041187105 C713.7816612806718,858.1248070311793,698.1251929688207,842.4683387193282,690.296958812895,834.6401045634026" close="False" data-weight="0.0" stroke-width="6" fill="none" stroke="#984ea3" />
<path d="M725.2665898254845,707.125 C714.1957949127423,707.125,692.0542050872577,707.125,680.9834101745155,707.125" close="False" data-weight="0.0" stroke-width="6" fill="none" stroke="#984ea3" />
<path d="M721.6098954365937,540.2969588128988 C713.781661280669,548.1251929688234,698.1251929688196,563.7816612806728,690.296958812895,571.6098954365974" close="False" data-weight="0.0" stroke-width="6" fill="none" stroke="#984ea3" />
<path d="M646.6098954365974,790.953041187105 C638.781661280671,783.1248070311785,623.1251929688178,767.4683387193254,615.2969588128914,759.640104563399" close="False" data-weight="0.0" stroke-width="6" fill="none" stroke="#984ea3" />
<path d="M650.2665898254845,707.125 C639.1957949127423,707.125,617.0542050872577,707.125,605.9834101745155,707.125" close="False" data-weight="0.0" stroke-width="6" fill="none" stroke="#984ea3" />
<path d="M646.6098954365974,615.296958812895 C638.7816612806718,623.1251929688207,623.1251929688207,638.7816612806718,615.296958812895,646.6098954365974" close="False" data-weight="0.0" stroke-width="6" fill="none" stroke="#984ea3" />
<path d="M557.125,755.9834101745155 A57.45452644919385,57.45452644919385,0,0,1,552.7515345873467,777.9703055609991 M552.7515345873467,777.9703055609991 A57.454526449167155,57.454526449167155,0,0,1,540.2969588128988,796.6098954365937 M540.2969588128988,796.6098954365937" close="False" data-weight="1.0" stroke-width="6" fill="none" stroke="#984ea3" />
<path d="M1169.0349025766973,912.2150974233027 L1212.2150974233027,869.0349025766973" close="False" data-weight="2.060660171779821" stroke-width="6" fill="none" stroke="#984ea3" />
<path d="M1078.125,1175.625 L1078.125,1205.625" close="False" data-weight="1.75" stroke-width="6" fill="none" stroke="#984ea3" />
<path d="M1078.125,1100.625 L1078.125,1130.625" close="False" data-weight="1.75" stroke-width="6" fill="none" stroke="#984ea3" />
<path d="M1078.125,1025.625 L1078.125,1055.625" close="False" data-weight="1.75" stroke-width="6" fill="none" stroke="#984ea3" />
<path d="M1094.0349025766973,987.2150974233027 L1137.2150974233027,944.0349025766973" close="False" data-weight="2.060660171779821" stroke-width="6" fill="none" stroke="#984ea3" />
<path d="M1025.625,1003.125 L1055.625,1003.125" close="False" data-weight="1.75" stroke-width="6" fill="none" stroke="#984ea3" />
<path d="M950.625,1003.125 L980.625,1003.125" close="False" data-weight="1.75" stroke-width="6" fill="none" stroke="#984ea3" />
<path d="M946.6098954365974,690.296958812895 L990.296958812895,646.6098954365974" close="False" data-weight="2.060660171779821" stroke-width="6" fill="none" stroke="#984ea3" />
<path d="M875.625,1003.125 L905.625,1003.125" close="False" data-weight="1.75" stroke-width="6" fill="none" stroke="#984ea3" />
<path d="M875.2665898254845,707.125 L905.9834101745155,707.125" close="False" data-weight="1.75" stroke-width="6" fill="none" stroke="#984ea3" />
<path d="M774.125,1025.2665898254845 L774.125,1055.9834101745155" close="False" data-weight="1.75" stroke-width="6" fill="none" stroke="#984ea3" />
<path d="M800.2665898254845,999.125 L830.9834101745155,999.125" close="False" data-weight="1.75" stroke-width="6" fill="none" stroke="#984ea3" />
<path d="M782.125,950.2665898254845 L782.125,980.9834101745155" close="False" data-weight="1.75" stroke-width="6" fill="none" stroke="#984ea3" />
<path d="M800.2665898254845,707.125 L830.9834101745155,707.125" close="False" data-weight="1.75" stroke-width="6" fill="none" stroke="#984ea3" />
<path d="M796.6098954365974,465.296958812895 L840.296958812895,421.6098954365974" close="False" data-weight="2.060660171779821" stroke-width="6" fill="none" stroke="#984ea3" />
<path d="M794.0349025766973,344.03490257669733 L837.2150974233027,387.21509742330267" close="False" data-weight="2.060660171779821" stroke-width="6" fill="none" stroke="#984ea3" />
<path d="M715.9530411870975,1134.64010456341 L759.6401045634026,1090.9530411871049" close="False" data-weight="2.060660171779821" stroke-width="6" fill="none" stroke="#984ea3" />
<path d="M721.6098954365974,865.953041187105 L765.296958812895,909.6401045634026" close="False" data-weight="2.060660171779821" stroke-width="6" fill="none" stroke="#984ea3" />
<path d="M725.2665898254845,707.125 L755.9834101745155,707.125" close="False" data-weight="1.75" stroke-width="6" fill="none" stroke="#984ea3" />
<path d="M721.6098954365974,540.296958812895 L765.296958812895,496.6098954365974" close="False" data-weight="2.060660171779821" stroke-width="6" fill="none" stroke="#984ea3" />
<path d="M646.609895436601,790.9530411871086 L690.296958812895,834.6401045634026" close="False" data-weight="2.060660171779821" stroke-width="6" fill="none" stroke="#984ea3" />
<path d="M650.2665898254845,707.125 L680.9834101745155,707.125" close="False" data-weight="1.75" stroke-width="6" fill="none" stroke="#984ea3" />
<path d="M646.6098954365974,615.296958812895 L690.296958812895,571.6098954365974" close="False" data-weight="2.060660171779821" stroke-width="6" fill="none" stroke="#984ea3" />
<path d="M557.125,725.2665898254845 L557.125,755.9834101745155" close="False" data-weight="1.75" stroke-width="6" fill="none" stroke="#984ea3" />
<path d="M571.6098954365937,715.9530411871012 L615.296958812895,759.6401045634026" close="False" data-weight="2.060660171779821" stroke-width="6" fill="none" stroke="#984ea3" />
<path d="M575.2665898254845,707.125 L605.9834101745155,707.125" close="False" data-weight="1.75" stroke-width="6" fill="none" stroke="#984ea3" />
<path d="M571.6098954365974,690.296958812895 L615.296958812895,646.6098954365974" close="False" data-weight="2.060660171779821" stroke-width="6" fill="none" stroke="#984ea3" />
<path d="M496.6098954366011,840.2969588128914 L540.296958812895,796.6098954365974" close="False" data-weight="2.060660171779821" stroke-width="6" fill="none" stroke="#984ea3" />
<path d="M790.953041187105,459.6401045634026 C783.1248070311793,467.4683387193282,767.4683387193282,483.1248070311794,759.6401045634026,490.953041187105" close="False" data-weight="0.0" stroke-width="6" fill="none" stroke="#ff7f00" />
<path d="M715.9530411871087,534.6401045633988 C708.1248070311822,542.4683387193254,692.4683387193292,558.1248070311784,684.6401045634026,565.953041187105" close="False" data-weight="0.0" stroke-width="6" fill="none" stroke="#ff7f00" />
<path d="M640.953041187105,609.6401045634026 C633.1248070311793,617.4683387193282,617.4683387193282,633.1248070311793,609.6401045634026,640.953041187105" close="False" data-weight="0.0" stroke-width="6" fill="none" stroke="#ff7f00" />
<path d="M549.125,755.9834101745155 A49.454526449180605,49.454526449180605,0,0,1,545.3604983272536,774.9088381020824 M545.3604983272536,774.9088381020824 A49.45452644920564,49.45452644920564,0,0,1,534.640104563399,790.9530411871086 M534.640104563399,790.9530411871086" close="False" data-weight="1.0" stroke-width="6" fill="none" stroke="#ff7f00" />
<path d="M500.2665898254845,699.125 C489.19579491274226,699.125,467.05420508725774,699.125,455.9834101745155,699.125" close="False" data-weight="0.0" stroke-width="6" fill="none" stroke="#ff7f00" />
<path d="M490.9530411871087,646.6098954366012 C483.1248070311812,638.7816612806737,467.4683387193263,623.1251929688189,459.6401045633989,615.2969588128914" close="False" data-weight="0.0" stroke-width="6" fill="none" stroke="#ff7f00" />
<path d="M425.2665898254845,699.125 C414.19579491274226,699.125,392.05420508725774,699.125,380.9834101745155,699.125" close="False" data-weight="0.0" stroke-width="6" fill="none" stroke="#ff7f00" />
<path d="M415.953041187105,571.6098954365974 C408.12480703117984,563.7816612806723,392.46833871932955,548.125192968822,384.64010456340446,540.296958812897" close="False" data-weight="0.0" stroke-width="6" fill="none" stroke="#ff7f00" />
<path d="M350.2665898254845,699.125 C339.19579491274226,699.125,317.05420508725774,699.125,305.9834101745155,699.125" close="False" data-weight="0.0" stroke-width="6" fill="none" stroke="#ff7f00" />
<path d="M340.9530411871031,496.60989543659554 A49.45452644917742,49.45452644917742,0,0,0,324.90883810207936,485.88950167274436 M324.90883810207936,485.88950167274436 A49.454526449189984,49.454526449189984,0,0,0,305.9834101745155,482.125 M305.9834101745155,482.125" close="False" data-weight="1.0" stroke-width="6" fill="none" stroke="#ff7f00" />
<path d="M328.125,305.625 C328.125,316.875,328.125,339.375,328.125,350.625" close="False" data-weight="0.0" stroke-width="6" fill="none" stroke="#ff7f00" />
<path d="M328.125,230.625 C328.125,241.875,328.125,264.375,328.125,275.625" close="False" data-weight="0.0" stroke-width="6" fill="none" stroke="#ff7f00" />
<path d="M275.2665898254845,699.125 C264.19579491274226,699.125,242.05420508725774,699.125,230.98341017451548,699.125" close="False" data-weight="0.0" stroke-width="6" fill="none" stroke="#ff7f00" />
<path d="M275.2665898254845,482.125 C264.19579491274226,482.125,242.05420508725774,482.125,230.98341017451548,482.125" close="False" data-weight="0.0" stroke-width="6" fill="none" stroke="#ff7f00" />
<path d="M275.625,403.125 A54.31980515339478,54.31980515339478,0,0,0,254.83771051849607,407.2598489621722 M254.83771051849607,407.2598489621722 A54.3198051533945,54.3198051533945,0,0,0,237.21509742330267,419.03490257669733 M237.21509742330267,419.03490257669733" close="False" data-weight="1.0" stroke-width="6" fill="none" stroke="#ff7f00" />
<path d="M200.26658982548452,699.125 A57.45452644918623,57.45452644918623,0,0,0,178.2796944389989,703.4984654126548 M178.2796944389989,703.4984654126548 A57.45452644918755,57.45452644918755,0,0,0,159.64010456340264,715.953041187105 M159.64010456340264,715.953041187105" close="False" data-weight="1.0" stroke-width="6" fill="none" stroke="#ff7f00" />
<path d="M790.953041187105,459.6401045634026 L834.6401045634026,415.953041187105" close="False" data-weight="2.060660171779821" stroke-width="6" fill="none" stroke="#ff7f00" />
<path d="M787.3384181084706,348.65212660745544 L832.5978733925444,393.9115818915292" close="False" data-weight="2.060660171779821" stroke-width="6" fill="none" stroke="#ff7f00" />
<path d="M715.953041187105,534.6401045634026 L759.6401045634026,490.953041187105" close="False" data-weight="2.060660171779821" stroke-width="6" fill="none" stroke="#ff7f00" />
<path d="M640.953041187105,609.6401045634026 L684.6401045634026,565.953041187105" close="False" data-weight="2.060660171779821" stroke-width="6" fill="none" stroke="#ff7f00" />
<path d="M549.125,725.2665898254845 L549.125,755.9834101745155" close="False" data-weight="1.75" stroke-width="6" fill="none" stroke="#ff7f00" />
<path d="M565.953041187105,684.6401045634026 L609.6401045634026,640.953041187105" close="False" data-weight="2.060660171779821" stroke-width="6" fill="none" stroke="#ff7f00" />
<path d="M490.95304118710123,834.6401045634063 L534.6401045634026,790.953041187105" close="False" data-weight="2.060660171779821" stroke-width="6" fill="none" stroke="#ff7f00" />
<path d="M500.2665898254845,699.125 L530.9834101745155,699.125" close="False" data-weight="1.75" stroke-width="6" fill="none" stroke="#ff7f00" />
<path d="M490.9530411871087,646.609895436601 L534.6401045633988,690.2969588128913" close="False" data-weight="2.060660171779821" stroke-width="6" fill="none" stroke="#ff7f00" />
<path d="M425.2665898254845,699.125 L455.9834101745155,699.125" close="False" data-weight="1.75" stroke-width="6" fill="none" stroke="#ff7f00" />
<path d="M415.953041187105,571.6098954365974 L459.6401045633989,615.2969588128913" close="False" data-weight="2.060660171779821" stroke-width="6" fill="none" stroke="#ff7f00" />
<path d="M350.2665898254845,699.125 L380.9834101745155,699.125" close="False" data-weight="1.75" stroke-width="6" fill="none" stroke="#ff7f00" />
<path d="M340.9530411871031,496.60989543659554 L384.64010456340446,540.296958812897" close="False" data-weight="2.060660171779821" stroke-width="6" fill="none" stroke="#ff7f00" />
<path d="M328.125,350.625 L328.125,380.625" close="False" data-weight="1.75" stroke-width="6" fill="none" stroke="#ff7f00" />
<path d="M328.125,275.625 L328.125,305.625" close="False" data-weight="1.75" stroke-width="6" fill="none" stroke="#ff7f00" />
<path d="M328.125,200.625 L328.125,230.625" close="False" data-weight="1.75" stroke-width="6" fill="none" stroke="#ff7f00" />
<path d="M344.03490257669733,162.21509742330267 L387.21509742330267,119.0349025766973" close="False" data-weight="2.060660171779821" stroke-width="6" fill="none" stroke="#ff7f00" />
<path d="M275.2665898254845,699.125 L305.9834101745155,699.125" close="False" data-weight="1.75" stroke-width="6" fill="none" stroke="#ff7f00" />
<path d="M275.2665898254845,482.125 L305.9834101745155,482.125" close="False" data-weight="1.75" stroke-width="6" fill="none" stroke="#ff7f00" />
<path d="M275.625,403.125 L305.625,403.125" close="False" data-weight="1.75" stroke-width="6" fill="none" stroke="#ff7f00" />
<path d="M200.26658982548452,699.125 L230.98341017451548,699.125" close="False" data-weight="1.75" stroke-width="6" fill="none" stroke="#ff7f00" />
<path d="M200.26658982548452,482.125 L230.98341017451548,482.125" close="False" data-weight="1.75" stroke-width="6" fill="none" stroke="#ff7f00" />
<path d="M194.03490257669733,462.21509742330267 L237.2150974233027,419.03490257669733" close="False" data-weight="2.060660171779821" stroke-width="6" fill="none" stroke="#ff7f00" />
<path d="M115.95304118710871,759.640104563399 L159.64010456339898,715.9530411871086" close="False" data-weight="2.060660171779821" stroke-width="6" fill="none" stroke="#ff7f00" />
<path d="M774.125,950.2665898254845 A49.45452644918669,49.45452644918669,0,0,0,770.360498327255,931.3411618979196 M770.360498327255,931.3411618979196 A49.45452644918702,49.45452644918702,0,0,0,759.6401045634026,915.296958812895 M759.6401045634026,915.296958812895" close="False" data-weight="1.0" stroke-width="6" fill="none" stroke="#4daf4a" />
<path d="M715.953041187105,871.6098954365974 C708.1248070311793,863.7816612806718,692.4683387193282,848.1251929688207,684.6401045634026,840.296958812895" close="False" data-weight="0.0" stroke-width="6" fill="none" stroke="#4daf4a" />
<path d="M640.953041187105,796.6098954365974 C633.1248070311804,788.7816612806728,617.468338719331,773.1251929688234,609.6401045634063,765.2969588128988" close="False" data-weight="0.0" stroke-width="6" fill="none" stroke="#4daf4a" />
<path d="M500.2665898254845,707.125 C489.19579491274226,707.125,467.05420508725774,707.125,455.9834101745155,707.125" close="False" data-weight="0.0" stroke-width="6" fill="none" stroke="#4daf4a" />
<path d="M425.2665898254845,707.125 C414.19579491274226,707.125,392.05420508725774,707.125,380.9834101745155,707.125" close="False" data-weight="0.0" stroke-width="6" fill="none" stroke="#4daf4a" />
<path d="M350.2665898254845,707.125 C339.19579491274226,707.125,317.05420508725774,707.125,305.9834101745155,707.125" close="False" data-weight="0.0" stroke-width="6" fill="none" stroke="#4daf4a" />
<path d="M275.2665898254845,707.125 C264.19579491274226,707.125,242.05420508725774,707.125,230.98341017451548,707.125" close="False" data-weight="0.0" stroke-width="6" fill="none" stroke="#4daf4a" />
<path d="M200.26658982548452,707.125 A49.454526449186915,49.454526449186915,0,0,0,181.34116189791956,710.889501672745 M181.34116189791956,710.889501672745 A49.45452644918688,49.45452644918688,0,0,0,165.296958812895,721.6098954365974 M165.296958812895,721.6098954365974" close="False" data-weight="1.0" stroke-width="6" fill="none" stroke="#4daf4a" />
<path d="M782.125,1025.2665898254845 L782.125,1055.9834101745155" close="False" data-weight="1.75" stroke-width="6" fill="none" stroke="#4daf4a" />
<path d="M800.2665898254845,1007.125 L830.9834101745155,1007.125" close="False" data-weight="1.75" stroke-width="6" fill="none" stroke="#4daf4a" />
<path d="M774.125,950.2665898254845 L774.125,980.9834101745155" close="False" data-weight="1.75" stroke-width="6" fill="none" stroke="#4daf4a" />
<path d="M721.6098954366048,1140.2969588128876 L765.296958812895,1096.6098954365973" close="False" data-weight="2.060660171779821" stroke-width="6" fill="none" stroke="#4daf4a" />
<path d="M715.953041187105,871.6098954365974 L759.6401045634026,915.296958812895" close="False" data-weight="2.060660171779821" stroke-width="6" fill="none" stroke="#4daf4a" />
<path d="M640.9530411871012,796.6098954365937 L684.6401045634026,840.296958812895" close="False" data-weight="2.060660171779821" stroke-width="6" fill="none" stroke="#4daf4a" />
<path d="M565.9530411871086,721.609895436601 L609.6401045634026,765.296958812895" close="False" data-weight="2.060660171779821" stroke-width="6" fill="none" stroke="#4daf4a" />
<path d="M500.2665898254845,707.125 L530.9834101745155,707.125" close="False" data-weight="1.75" stroke-width="6" fill="none" stroke="#4daf4a" />
<path d="M425.2665898254845,707.125 L455.9834101745155,707.125" close="False" data-weight="1.75" stroke-width="6" fill="none" stroke="#4daf4a" />
<path d="M350.2665898254845,707.125 L380.9834101745155,707.125" close="False" data-weight="1.75" stroke-width="6" fill="none" stroke="#4daf4a" />
<path d="M275.2665898254845,707.125 L305.9834101745155,707.125" close="False" data-weight="1.75" stroke-width="6" fill="none" stroke="#4daf4a" />
<path d="M200.26658982548452,707.125 L230.98341017451548,707.125" close="False" data-weight="1.75" stroke-width="6" fill="none" stroke="#4daf4a" />
<path d="M121.60989543659365,765.2969588128988 L165.29695881289868,721.6098954365937" close="False" data-weight="2.060660171779821" stroke-width="6" fill="none" stroke="#4daf4a" />
<path d="M940.953041187105,684.6401045634026 A49.45452644918767,49.45452644918767,0,0,1,924.9088381020804,695.360498327255 M924.9088381020804,695.360498327255 A49.45452644918612,49.45452644918612,0,0,1,905.9834101745155,699.125 M905.9834101745155,699.125" close="False" data-weight="1.0" stroke-width="6" fill="none" stroke="#377eb8" />
<path d="M875.2665898254845,699.125 C864.1957949127423,699.125,842.0542050872577,699.125,830.9834101745155,699.125" close="False" data-weight="0.0" stroke-width="6" fill="none" stroke="#377eb8" />
<path d="M800.2665898254845,699.125 C789.1957949127423,699.125,767.0542050872577,699.125,755.9834101745155,699.125" close="False" data-weight="0.0" stroke-width="6" fill="none" stroke="#377eb8" />
<path d="M725.2665898254845,699.125 C714.1957949127423,699.125,692.0542050872577,699.125,680.9834101745155,699.125" close="False" data-weight="0.0" stroke-width="6" fill="none" stroke="#377eb8" />
<path d="M650.2665898254845,699.125 C639.1957949127423,699.125,617.0542050872577,699.125,605.9834101745155,699.125" close="False" data-weight="0.0" stroke-width="6" fill="none" stroke="#377eb8" />
<path d="M496.60989543659366,640.9530411871012 C488.78166128066994,633.1248070311775,473.1251929688225,617.4683387193301,465.29695881289877,609.6401045634063" close="False" data-weight="0.0" stroke-width="6" fill="none" stroke="#377eb8" />
<path d="M421.6098954365974,565.953041187105 C413.78166128067136,558.1248070311789,398.12519296881925,542.4683387193269,390.2969588128932,534.6401045634008" close="False" data-weight="0.0" stroke-width="6" fill="none" stroke="#377eb8" />
<path d="M346.60989543659923,490.9530411871068 A57.454526449196216,57.454526449196216,0,0,0,327.9703055610022,478.4984654126555 M327.9703055610022,478.4984654126555 A57.454526449183845,57.454526449183845,0,0,0,305.9834101745155,474.125 M305.9834101745155,474.125" close="False" data-weight="1.0" stroke-width="6" fill="none" stroke="#377eb8" />
<path d="M275.2665898254845,474.125 C264.19579491274226,474.125,242.05420508725774,474.125,230.98341017451548,474.125" close="False" data-weight="0.0" stroke-width="6" fill="none" stroke="#377eb8" />
<path d="M940.953041187105,684.6401045634026 L984.6401045634026,640.953041187105" close="False" data-weight="2.060660171779821" stroke-width="6" fill="none" stroke="#377eb8" />
<path d="M875.2665898254845,699.125 L905.9834101745155,699.125" close="False" data-weight="1.75" stroke-width="6" fill="none" stroke="#377eb8" />
<path d="M800.2665898254845,699.125 L830.9834101745155,699.125" close="False" data-weight="1.75" stroke-width="6" fill="none" stroke="#377eb8" />
<path d="M725.2665898254845,699.125 L755.9834101745155,699.125" close="False" data-weight="1.75" stroke-width="6" fill="none" stroke="#377eb8" />
<path d="M650.2665898254845,699.125 L680.9834101745155,699.125" close="False" data-weight="1.75" stroke-width="6" fill="none" stroke="#377eb8" />
<path d="M575.2665898254845,699.125 L605.9834101745155,699.125" close="False" data-weight="1.75" stroke-width="6" fill="none" stroke="#377eb8" />
<path d="M496.60989543659366,640.9530411871012 L540.2969588128988,684.6401045634063" close="False" data-weight="2.060660171779821" stroke-width="6" fill="none" stroke="#377eb8" />
<path d="M421.6098954365974,565.953041187105 L465.29695881289877,609.6401045634063" close="False" data-weight="2.060660171779821" stroke-width="6" fill="none" stroke="#377eb8" />
<path d="M346.60989543659923,490.9530411871068 L390.2969588128932,534.6401045634008" close="False" data-weight="2.060660171779821" stroke-width="6" fill="none" stroke="#377eb8" />
<path d="M275.2665898254845,474.125 L305.9834101745155,474.125" close="False" data-weight="1.75" stroke-width="6" fill="none" stroke="#377eb8" />
<path d="M200.26658982548452,474.125 L230.98341017451548,474.125" close="False" data-weight="1.75" stroke-width="6" fill="none" stroke="#377eb8" />
<path d="M1100.625,253.125 C1089.375,253.125,1066.875,253.125,1055.625,253.125" close="False" data-weight="0.0" stroke-width="6" fill="none" stroke="#e41a1c" />
<path d="M1025.625,253.125 A54.319805153393474,54.319805153393474,0,0,0,1004.8377105184961,257.25984896217227 M1004.8377105184961,257.25984896217227 A54.319805153395784,54.319805153395784,0,0,0,987.2150974233027,269.03490257669733 M987.2150974233027,269.03490257669733" close="False" data-weight="1.0" stroke-width="6" fill="none" stroke="#e41a1c" />
<path d="M944.0349025766973,312.21509742330267 C936.0799512883486,320.1700487116513,920.1700487116514,336.0799512883487,912.2150974233027,344.03490257669733" close="False" data-weight="0.0" stroke-width="6" fill="none" stroke="#e41a1c" />
<path d="M1175.625,253.125 L1205.625,253.125" close="False" data-weight="1.75" stroke-width="6" fill="none" stroke="#e41a1c" />
<path d="M1100.625,253.125 L1130.625,253.125" close="False" data-weight="1.75" stroke-width="6" fill="none" stroke="#e41a1c" />
<path d="M1025.625,253.125 L1055.625,253.125" close="False" data-weight="1.75" stroke-width="6" fill="none" stroke="#e41a1c" />
<path d="M944.0349025766973,312.21509742330267 L987.2150974233027,269.03490257669733" close="False" data-weight="2.060660171779821" stroke-width="6" fill="none" stroke="#e41a1c" />
<path d="M869.0349025766973,387.21509742330267 L912.2150974233027,344.03490257669733" close="False" data-weight="2.060660171779821" stroke-width="6" fill="none" stroke="#e41a1c" />
<path d="M798.6521266074554,337.33841810847065 L843.9115818915295,382.59787339254467" close="False" data-weight="2.060660171779821" stroke-width="6" fill="none" stroke="#e41a1c" />
<image x="1195.625" y="820.625" width="65" height="65" xlink:href="designspace-test/./img/ds_dataset0_20_10_thumb.png">
<title>10</title>
</image>
<image x="1195.625" y="220.625" width="65" height="65" xlink:href="designspace-test/./img/ds_dataset0_20_9_thumb.png">
<title>9</title>
</image>
<image x="1120.625" y="220.625" width="65" height="65" xlink:href="designspace-test/./img/ds_dataset0_20_1_thumb.png">
<title>1</title>
</image>
<image x="1045.625" y="1195.625" width="65" height="65" xlink:href="designspace-test/./img/ds_dataset0_20_5_thumb.png">
<title>5</title>
</image>
<image x="1045.625" y="970.625" width="65" height="65" xlink:href="designspace-test/./img/ds_dataset0_20_17_thumb.png">
<title>17</title>
</image>
<image x="970.625" y="595.625" width="65" height="65" xlink:href="designspace-test/./img/ds_dataset0_20_18_thumb.png">
<title>18</title>
</image>
<image x="820.625" y="970.625" width="65" height="65" xlink:href="designspace-test/./img/ds_dataset0_20_0_thumb.png">
<title>0</title>
</image>
<image x="820.625" y="370.625" width="65" height="65" xlink:href="designspace-test/./img/ds_dataset0_20_4_thumb.png">
<title>4</title>
</image>
<image x="745.625" y="1045.625" width="65" height="65" xlink:href="designspace-test/./img/ds_dataset0_20_12_thumb.png">
<title>12</title>
</image>
<image x="745.625" y="970.625" width="65" height="65" xlink:href="designspace-test/./img/ds_dataset0_20_8_thumb.png">
<title>8</title>
</image>
<image x="745.625" y="295.625" width="65" height="65" xlink:href="designspace-test/./img/ds_dataset0_20_15_thumb.png">
<title>15</title>
</image>
<image x="670.625" y="1120.625" width="65" height="65" xlink:href="designspace-test/./img/ds_dataset0_20_14_thumb.png">
<title>14</title>
</image>
<image x="520.625" y="670.625" width="65" height="65" xlink:href="designspace-test/./img/ds_dataset0_20_19_thumb.png">
<title>19</title>
</image>
<image x="445.625" y="820.625" width="65" height="65" xlink:href="designspace-test/./img/ds_dataset0_20_7_thumb.png">
<title>7</title>
</image>
<image x="370.625" y="70.625" width="65" height="65" xlink:href="designspace-test/./img/ds_dataset0_20_11_thumb.png">
<title>11</title>
</image>
<image x="295.625" y="370.625" width="65" height="65" xlink:href="designspace-test/./img/ds_dataset0_20_16_thumb.png">
<title>16</title>
</image>
<image x="295.625" y="145.625" width="65" height="65" xlink:href="designspace-test/./img/ds_dataset0_20_13_thumb.png">
<title>13</title>
</image>
<image x="220.625" y="1195.625" width="65" height="65" xlink:href="designspace-test/./img/ds_dataset0_20_6_thumb.png">
<title>6</title>
</image>
<image x="145.625" y="445.625" width="65" height="65" xlink:href="designspace-test/./img/ds_dataset0_20_2_thumb.png">
<title>2</title>
</image>
<image x="70.625" y="745.625" width="65" height="65" xlink:href="designspace-test/./img/ds_dataset0_20_3_thumb.png">
<title>3</title>
</image>
</svg>