<?xml version="1.0" encoding="UTF-8"?>
<svg xmlns="http://www.w3.org/2000/svg" xmlns:xlink="http://www.w3.org/1999/xlink"
     width="2550" height="2550" viewBox="0 0 2550 2550">
<defs>
</defs>
<path d="M2365.953041187105,759.6401045634026 C2358.1248070311794,767.4683387193282,2342.468338719328,783.1248070311793,2334.6401045634025,790.953041187105" close="False" data-weight="0.0" stroke-width="6" fill="none" stroke="#ffff33" />
<path d="M2274.125,1280.9834101745155 A49.45452644918532,49.45452644918532,0,0,1,2270.360498327255,1299.9088381020804 M2270.360498327255,1299.9088381020804 A49.45452644918831,49.45452644918831,0,0,1,2259.6401045634025,1315.9530411871049 M2259.6401045634025,1315.9530411871049" close="False" data-weight="1.0" stroke-width="6" fill="none" stroke="#ffff33" />
<path d="M2274.125,1205.9834101745155 C2274.125,1217.0542050872577,2274.125,1239.1957949127423,2274.125,1250.2665898254845" close="False" data-weight="0.0" stroke-width="6" fill="none" stroke="#ffff33" />
<path d="M2274.125,1130.9834101745155 C2274.125,1142.0542050872577,2274.125,1164.1957949127423,2274.125,1175.2665898254845" close="False" data-weight="0.0" stroke-width="6" fill="none" stroke="#ffff33" />
<path d="M2274.125,1055.9834101745155 C2274.125,1067.0542050872577,2274.125,1089.1957949127423,2274.125,1100.2665898254845" close="False" data-weight="0.0" stroke-width="6" fill="none" stroke="#ffff33" />
<path d="M2274.125,905.9834101745155 C2274.125,917.0542050872577,2274.125,939.1957949127423,2274.125,950.2665898254845" close="False" data-weight="0.0" stroke-width="6" fill="none" stroke="#ffff33" />
<path d="M2290.953041187105,834.6401045634026 A57.45452644918701,57.45452644918701,0,0,0,2278.4984654126547,853.279694438999 M2278.4984654126547,853.279694438999 A57.45452644918714,57.45452644918714,0,0,0,2274.125,875.2665898254845 M2274.125,875.2665898254845" close="False" data-weight="1.0" stroke-width="6" fill="none" stroke="#ffff33" />
<path d="M2365.953041187105,759.6401045634026 L2409.6401045634025,715.953041187105" close="False" data-weight="2.060660171779821" stroke-width="6" fill="none" stroke="#ffff33" />
<path d="M2274.125,1250.2665898254845 L2274.125,1280.9834101745155" close="False" data-weight="1.75" stroke-width="6" fill="none" stroke="#ffff33" />
<path d="M2274.125,1175.2665898254845 L2274.125,1205.9834101745155" close="False" data-weight="1.75" stroke-width="6" fill="none" stroke="#ffff33" />
<path d="M2274.125,1100.2665898254845 L2274.125,1130.9834101745155" close="False" data-weight="1.75" stroke-width="6" fill="none" stroke="#ffff33" />
<path d="M2274.125,1025.2665898254845 L2274.125,1055.9834101745155" close="False" data-weight="1.75" stroke-width="6" fill="none" stroke="#ffff33" />
<path d="M2274.125,950.2665898254845 L2274.125,980.9834101745155" close="False" data-weight="1.75" stroke-width="6" fill="none" stroke="#ffff33" />
<path d="M2274.125,875.2665898254845 L2274.125,905.9834101745155" close="False" data-weight="1.75" stroke-width="6" fill="none" stroke="#ffff33" />
<path d="M2290.953041187105,834.6401045634026 L2334.6401045634025,790.953041187105" close="False" data-weight="2.060660171779821" stroke-width="6" fill="none" stroke="#ffff33" />
<path d="M2215.953041187075,1359.6401045634323 L2259.6401045634025,1315.9530411871049" close="False" data-weight="2.060660171779821" stroke-width="6" fill="none" stroke="#ffff33" />
<path d="M2207.125,1655.9834101745155 C2207.125,1667.0542050872577,2207.125,1689.1957949127423,2207.125,1700.2665898254845" close="False" data-weight="0.0" stroke-width="6" fill="none" stroke="#984ea3" />
<path d="M2207.125,1580.9834101745155 C2207.125,1592.0542050872577,2207.125,1614.1957949127423,2207.125,1625.2665898254845" close="False" data-weight="0.0" stroke-width="6" fill="none" stroke="#984ea3" />
<path d="M2207.125,1505.9834101745155 C2207.125,1517.0542050872577,2207.125,1539.1957949127423,2207.125,1550.2665898254845" close="False" data-weight="0.0" stroke-width="6" fill="none" stroke="#984ea3" />
<path d="M2207.125,1430.9834101745155 C2207.125,1442.0542050872577,2207.125,1464.1957949127423,2207.125,1475.2665898254845" close="False" data-weight="0.0" stroke-width="6" fill="none" stroke="#984ea3" />
<path d="M2207.125,1700.2665898254845 L2207.125,1730.9834101745155" close="False" data-weight="1.75" stroke-width="6" fill="none" stroke="#984ea3" />
<path d="M2207.125,1625.2665898254845 L2207.125,1655.9834101745155" close="False" data-weight="1.75" stroke-width="6" fill="none" stroke="#984ea3" />
<path d="M2207.125,1550.2665898254845 L2207.125,1580.9834101745155" close="False" data-weight="1.75" stroke-width="6" fill="none" stroke="#984ea3" />
<path d="M2207.125,1475.2665898254845 L2207.125,1505.9834101745155" close="False" data-weight="1.75" stroke-width="6" fill="none" stroke="#984ea3" />
<path d="M2207.125,1400.2665898254845 L2207.125,1430.9834101745155" close="False" data-weight="1.75" stroke-width="6" fill="none" stroke="#984ea3" />
<path d="M2371.6098954365975,765.296958812895 C2363.781661280672,773.1251929688207,2348.1251929688206,788.7816612806718,2340.296958812895,796.6098954365974" close="False" data-weight="0.0" stroke-width="6" fill="none" stroke="#ff7f00" />
<path d="M2369.0349025766973,644.0349025766973 A54.31980515340254,54.31980515340254,0,0,0,2351.4122894815036,632.2598489621721 M2351.4122894815036,632.2598489621721 A54.319805153390575,54.319805153390575,0,0,0,2330.625,628.125 M2330.625,628.125" close="False" data-weight="1.0" stroke-width="6" fill="none" stroke="#ff7f00" />
<path d="M2282.125,1280.9834101745155 A57.454526449181685,57.454526449181685,0,0,1,2277.751534587345,1302.970305561001 M2277.751534587345,1302.970305561001 A57.45452644919593,57.45452644919593,0,0,1,2265.296958812895,1321.6098954365973 M2265.296958812895,1321.6098954365973" close="False" data-weight="1.0" stroke-width="6" fill="none" stroke="#ff7f00" />
<path d="M2282.125,1205.9834101745155 C2282.125,1217.0542050872577,2282.125,1239.1957949127423,2282.125,1250.2665898254845" close="False" data-weight="0.0" stroke-width="6" fill="none" stroke="#ff7f00" />
<path d="M2282.125,1130.9834101745155 C2282.125,1142.0542050872577,2282.125,1164.1957949127423,2282.125,1175.2665898254845" close="False" data-weight="0.0" stroke-width="6" fill="none" stroke="#ff7f00" />
<path d="M2282.125,1055.9834101745155 C2282.125,1067.0542050872577,2282.125,1089.1957949127423,2282.125,1100.2665898254845" close="False" data-weight="0.0" stroke-width="6" fill="none" stroke="#ff7f00" />
<path d="M2282.125,905.9834101745155 C2282.125,917.0542050872577,2282.125,939.1957949127423,2282.125,950.2665898254845" close="False" data-weight="0.0" stroke-width="6" fill="none" stroke="#ff7f00" />
<path d="M2296.6098954365975,840.296958812895 A49.454526449188386,49.454526449188386,0,0,0,2285.889501672745,856.3411618979196 M2285.889501672745,856.3411618979196 A49.45452644918532,49.45452644918532,0,0,0,2282.125,875.2665898254845 M2282.125,875.2665898254845" close="False" data-weight="1.0" stroke-width="6" fill="none" stroke="#ff7f00" />
<path d="M2300.625,628.125 C2289.375,628.125,2266.875,628.125,2255.625,628.125" close="False" data-weight="0.0" stroke-width="6" fill="none" stroke="#ff7f00" />
<path d="M2199.125,1655.9834101745155 C2199.125,1667.0542050872577,2199.125,1689.1957949127423,2199.125,1700.2665898254845" close="False" data-weight="0.0" stroke-width="6" fill="none" stroke="#ff7f00" />
<path d="M2199.125,1580.9834101745155 C2199.125,1592.0542050872577,2199.125,1614.1957949127423,2199.125,1625.2665898254845" close="False" data-weight="0.0" stroke-width="6" fill="none" stroke="#ff7f00" />
<path d="M2199.125,1505.9834101745155 C2199.125,1517.0542050872577,2199.125,1539.1957949127423,2199.125,1550.2665898254845" close="False" data-weight="0.0" stroke-width="6" fill="none" stroke="#ff7f00" />
<path d="M2199.125,1430.9834101745155 C2199.125,1442.0542050872577,2199.125,1464.1957949127423,2199.125,1475.2665898254845" close="False" data-weight="0.0" stroke-width="6" fill="none" stroke="#ff7f00" />
<path d="M2225.625,628.125 C2214.375,628.125,2191.875,628.125,2180.625,628.125" close="False" data-weight="0.0" stroke-width="6" fill="none" stroke="#ff7f00" />
<path d="M2150.2665898254845,1749.125 C2139.1957949127423,1749.125,2117.0542050872577,1749.125,2105.9834101745155,1749.125" close="False" data-weight="0.0" stroke-width="6" fill="none" stroke="#ff7f00" />
<path d="M2150.625,628.125 C2139.375,628.125,2116.875,628.125,2105.625,628.125" close="False" data-weight="0.0" stroke-width="6" fill="none" stroke="#ff7f00" />
<path d="M2075.2665898254845,1749.125 A49.45452644924217,49.45452644924217,0,0,1,2056.341161897936,1745.3604983272664 M2056.341161897936,1745.3604983272664 A49.45452644903027,49.45452644903027,0,0,1,2040.2969588129247,1734.6401045634323 M2040.2969588129247,1734.6401045634323" close="False" data-weight="1.0" stroke-width="6" fill="none" stroke="#ff7f00" />
<path d="M2075.625,628.125 C2064.375,628.125,2041.875,628.125,2030.625,628.125" close="False" data-weight="0.0" stroke-width="6" fill="none" stroke="#ff7f00" />
<path d="M1982.125,1580.9834101745155 C1982.125,1592.0542050872577,1982.125,1614.1957949127423,1982.125,1625.2665898254845" close="False" data-weight="0.0" stroke-width="6" fill="none" stroke="#ff7f00" />
<path d="M1982.125,1550.2665898254845 A57.45452644918714,57.45452644918714,0,0,0,1977.7515345873453,1528.2796944389988 M1977.7515345873453,1528.2796944389988 A57.454526449186446,57.454526449186446,0,0,0,1965.2969588128951,1509.6401045634027 M1965.2969588128951,1509.6401045634027" close="False" data-weight="1.0" stroke-width="6" fill="none" stroke="#ff7f00" />
<path d="M2000.625,628.125 C1989.375,628.125,1966.875,628.125,1955.625,628.125" close="False" data-weight="0.0" stroke-width="6" fill="none" stroke="#ff7f00" />
<path d="M1850.625,1453.125 C1839.375,1453.125,1816.875,1453.125,1805.625,1453.125" close="False" data-weight="0.0" stroke-width="6" fill="none" stroke="#ff7f00" />
<path d="M1775.625,1453.125 C1764.375,1453.125,1741.875,1453.125,1730.625,1453.125" close="False" data-weight="0.0" stroke-width="6" fill="none" stroke="#ff7f00" />
<path d="M1775.625,778.125 C1764.375,778.125,1741.875,778.125,1730.625,778.125" close="False" data-weight="0.0" stroke-width="6" fill="none" stroke="#ff7f00" />
<path d="M1700.625,1453.125 A54.31980515339569,54.31980515339569,0,0,1,1679.837710518496,1448.9901510378277 M1679.837710518496,1448.9901510378277 A54.3198051533933,54.3198051533933,0,0,1,1662.2150974233027,1437.2150974233027 M1662.2150974233027,1437.2150974233027" close="False" data-weight="1.0" stroke-width="6" fill="none" stroke="#ff7f00" />
<path d="M1700.625,778.125 C1689.375,778.125,1666.875,778.125,1655.625,778.125" close="False" data-weight="0.0" stroke-width="6" fill="none" stroke="#ff7f00" />
<path d="M1678.125,305.625 C1678.125,316.875,1678.125,339.375,1678.125,350.625" close="False" data-weight="0.0" stroke-width="6" fill="none" stroke="#ff7f00" />
<path d="M1678.125,275.625 A54.3198051533966,54.3198051533966,0,0,0,1673.990151037828,254.8377105184959 M1673.990151037828,254.8377105184959 A54.31980515339265,54.31980515339265,0,0,0,1662.2150974233027,237.21509742330267 M1662.2150974233027,237.21509742330267" close="False" data-weight="1.0" stroke-width="6" fill="none" stroke="#ff7f00" />
<path d="M1619.0349025766973,1394.0349025766973 C1611.0799512883486,1386.0799512883486,1595.1700487116514,1370.1700487116514,1587.2150974233027,1362.2150974233027" close="False" data-weight="0.0" stroke-width="6" fill="none" stroke="#ff7f00" />
<path d="M1625.625,778.125 A54.31980515339285,54.31980515339285,0,0,1,1604.837710518496,773.9901510378276 M1604.837710518496,773.9901510378276 A54.31980515339619,54.31980515339619,0,0,1,1587.2150974233027,762.2150974233027 M1587.2150974233027,762.2150974233027" close="False" data-weight="1.0" stroke-width="6" fill="none" stroke="#ff7f00" />
<path d="M1528.125,605.625 C1528.125,616.875,1528.125,639.375,1528.125,650.625" close="False" data-weight="0.0" stroke-width="6" fill="none" stroke="#ff7f00" />
<path d="M1544.0349025766973,119.0349025766973 A54.3198051533952,54.3198051533952,0,0,0,1526.412289481504,107.25984896217221 M1526.412289481504,107.25984896217221 A54.319805153393986,54.319805153393986,0,0,0,1505.625,103.125 M1505.625,103.125" close="False" data-weight="1.0" stroke-width="6" fill="none" stroke="#ff7f00" />
<path d="M1475.2665898254845,1307.125 C1464.1957949127423,1307.125,1442.0542050872577,1307.125,1430.9834101745155,1307.125" close="False" data-weight="0.0" stroke-width="6" fill="none" stroke="#ff7f00" />
<path d="M1325.2665898254845,1307.125 C1314.1957949127423,1307.125,1292.0542050872577,1307.125,1280.9834101745155,1307.125" close="False" data-weight="0.0" stroke-width="6" fill="none" stroke="#ff7f00" />
<path d="M1250.2665898254845,1307.125 C1239.1957949127423,1307.125,1217.0542050872577,1307.125,1205.9834101745155,1307.125" close="False" data-weight="0.0" stroke-width="6" fill="none" stroke="#ff7f00" />
<path d="M1175.2665898254845,1307.125 A57.45452644921602,57.45452644921602,0,0,1,1153.279694439007,1302.751534587351 M1153.279694439007,1302.751534587351 A57.45452644910702,57.45452644910702,0,0,1,1134.6401045634175,1290.29695881291 M1134.6401045634175,1290.29695881291" close="False" data-weight="1.0" stroke-width="6" fill="none" stroke="#ff7f00" />
<path d="M1082.125,1355.9834101745155 A57.45452644918714,57.45452644918714,0,0,1,1077.7515345873453,1377.9703055610012 M1077.7515345873453,1377.9703055610012 A57.454526449186446,57.454526449186446,0,0,1,1065.2969588128951,1396.6098954365973 M1065.2969588128951,1396.6098954365973" close="False" data-weight="1.0" stroke-width="6" fill="none" stroke="#ff7f00" />
<path d="M1082.125,1280.9834101745155 C1082.125,1292.0542050872577,1082.125,1314.1957949127423,1082.125,1325.2665898254845" close="False" data-weight="0.0" stroke-width="6" fill="none" stroke="#ff7f00" />
<path d="M1021.6098954365974,1440.2969588128951 C1013.7816612806719,1448.1251929688208,998.1251929688206,1463.7816612806716,990.296958812895,1471.6098954365973" close="False" data-weight="0.0" stroke-width="6" fill="none" stroke="#ff7f00" />
<path d="M932.125,1430.9834101745155 C932.125,1442.0542050872577,932.125,1464.1957949127423,932.125,1475.2665898254845" close="False" data-weight="0.0" stroke-width="6" fill="none" stroke="#ff7f00" />
<path d="M932.125,1355.9834101745155 C932.125,1367.0542050872577,932.125,1389.1957949127423,932.125,1400.2665898254845" close="False" data-weight="0.0" stroke-width="6" fill="none" stroke="#ff7f00" />
<path d="M932.125,1280.9834101745155 C932.125,1292.0542050872577,932.125,1314.1957949127423,932.125,1325.2665898254845" close="False" data-weight="0.0" stroke-width="6" fill="none" stroke="#ff7f00" />
<path d="M924.125,1130.9834101745155 C924.125,1142.0542050872577,924.125,1164.1957949127423,924.125,1175.2665898254845" close="False" data-weight="0.0" stroke-width="6" fill="none" stroke="#ff7f00" />
<path d="M924.125,1055.9834101745155 C924.125,1067.0542050872577,924.125,1089.1957949127423,924.125,1100.2665898254845" close="False" data-weight="0.0" stroke-width="6" fill="none" stroke="#ff7f00" />
<path d="M924.125,980.9834101745155 C924.125,992.0542050872577,924.125,1014.1957949127423,924.125,1025.2665898254845" close="False" data-weight="0.0" stroke-width="6" fill="none" stroke="#ff7f00" />
<path d="M924.125,950.2665898254845 A49.45452644918669,49.45452644918669,0,0,0,920.360498327255,931.3411618979196 M920.360498327255,931.3411618979196 A49.45452644918702,49.45452644918702,0,0,0,909.6401045634026,915.296958812895 M909.6401045634026,915.296958812895" close="False" data-weight="1.0" stroke-width="6" fill="none" stroke="#ff7f00" />
<path d="M849.125,755.9834101745155 C849.125,767.0542050872577,849.125,789.1957949127423,849.125,800.2665898254845" close="False" data-weight="0.0" stroke-width="6" fill="none" stroke="#ff7f00" />
<path d="M849.125,650.2665898254845 A49.45452644918669,49.45452644918669,0,0,0,845.360498327255,631.3411618979196 M845.360498327255,631.3411618979196 A49.45452644918702,49.45452644918702,0,0,0,834.6401045634026,615.296958812895 M834.6401045634026,615.296958812895" close="False" data-weight="1.0" stroke-width="6" fill="none" stroke="#ff7f00" />
<path d="M790.953041187105,459.6401045634026 A57.454526449186766,57.454526449186766,0,0,0,778.4984654126547,478.27969443899883 M778.4984654126547,478.27969443899883 A57.45452644918703,57.45452644918703,0,0,0,774.125,500.2665898254845 M774.125,500.2665898254845" close="False" data-weight="1.0" stroke-width="6" fill="none" stroke="#ff7f00" />
<path d="M2371.6098954365975,765.296958812895 L2415.296958812895,721.6098954365974" close="False" data-weight="2.060660171779821" stroke-width="6" fill="none" stroke="#ff7f00" />
<path d="M2369.0349025766973,644.0349025766973 L2412.2150974233027,687.2150974233027" close="False" data-weight="2.060660171779821" stroke-width="6" fill="none" stroke="#ff7f00" />
<path d="M2282.125,1250.2665898254845 L2282.125,1280.9834101745155" close="False" data-weight="1.75" stroke-width="6" fill="none" stroke="#ff7f00" />
<path d="M2282.125,1175.2665898254845 L2282.125,1205.9834101745155" close="False" data-weight="1.75" stroke-width="6" fill="none" stroke="#ff7f00" />
<path d="M2282.125,1100.2665898254845 L2282.125,1130.9834101745155" close="False" data-weight="1.75" stroke-width="6" fill="none" stroke="#ff7f00" />
<path d="M2282.125,1025.2665898254845 L2282.125,1055.9834101745155" close="False" data-weight="1.75" stroke-width="6" fill="none" stroke="#ff7f00" />
<path d="M2282.125,950.2665898254845 L2282.125,980.9834101745155" close="False" data-weight="1.75" stroke-width="6" fill="none" stroke="#ff7f00" />
<path d="M2282.125,875.2665898254845 L2282.125,905.9834101745155" close="False" data-weight="1.75" stroke-width="6" fill="none" stroke="#ff7f00" />
<path d="M2296.6098954365975,840.296958812895 L2340.296958812895,796.6098954365974" close="False" data-weight="2.060660171779821" stroke-width="6" fill="none" stroke="#ff7f00" />
<path d="M2300.625,628.125 L2330.625,628.125" close="False" data-weight="1.75" stroke-width="6" fill="none" stroke="#ff7f00" />
<path d="M2199.125,1700.2665898254845 L2199.125,1730.9834101745155" close="False" data-weight="1.75" stroke-width="6" fill="none" stroke="#ff7f00" />
<path d="M2199.125,1625.2665898254845 L2199.125,1655.9834101745155" close="False" data-weight="1.75" stroke-width="6" fill="none" stroke="#ff7f00" />
<path d="M2199.125,1550.2665898254845 L2199.125,1580.9834101745155" close="False" data-weight="1.75" stroke-width="6" fill="none" stroke="#ff7f00" />
<path d="M2199.125,1475.2665898254845 L2199.125,1505.9834101745155" close="False" data-weight="1.75" stroke-width="6" fill="none" stroke="#ff7f00" />
<path d="M2199.125,1400.2665898254845 L2199.125,1430.9834101745155" close="False" data-weight="1.75" stroke-width="6" fill="none" stroke="#ff7f00" />
<path d="M2221.609895436627,1365.2969588128653 L2265.296958812895,1321.6098954365973" close="False" data-weight="2.060660171779821" stroke-width="6" fill="none" stroke="#ff7f00" />
<path d="M2225.625,628.125 L2255.625,628.125" close="False" data-weight="1.75" stroke-width="6" fill="none" stroke="#ff7f00" />
<path d="M2150.2665898254845,1749.125 L2180.9834101745155,1749.125" close="False" data-weight="1.75" stroke-width="6" fill="none" stroke="#ff7f00" />
<path d="M2150.625,628.125 L2180.625,628.125" close="False" data-weight="1.75" stroke-width="6" fill="none" stroke="#ff7f00" />
<path d="M2075.2665898254845,1749.125 L2105.9834101745155,1749.125" close="False" data-weight="1.75" stroke-width="6" fill="none" stroke="#ff7f00" />
<path d="M2075.625,628.125 L2105.625,628.125" close="False" data-weight="1.75" stroke-width="6" fill="none" stroke="#ff7f00" />
<path d="M1996.6098954365677,1690.9530411870753 L2040.2969588128951,1734.6401045634027" close="False" data-weight="2.060660171779821" stroke-width="6" fill="none" stroke="#ff7f00" />
<path d="M1982.125,1625.2665898254845 L1982.125,1655.9834101745155" close="False" data-weight="1.75" stroke-width="6" fill="none" stroke="#ff7f00" />
<path d="M1982.125,1550.2665898254845 L1982.125,1580.9834101745155" close="False" data-weight="1.75" stroke-width="6" fill="none" stroke="#ff7f00" />
<path d="M2000.625,628.125 L2030.625,628.125" close="False" data-weight="1.75" stroke-width="6" fill="none" stroke="#ff7f00" />
<path d="M1921.609895436627,1465.9530411871347 L1965.2969588128951,1509.6401045634027" close="False" data-weight="2.060660171779821" stroke-width="6" fill="none" stroke="#ff7f00" />
<path d="M1925.625,628.125 L1955.625,628.125" close="False" data-weight="1.75" stroke-width="6" fill="none" stroke="#ff7f00" />
<path d="M1850.625,1453.125 L1880.625,1453.125" close="False" data-weight="1.75" stroke-width="6" fill="none" stroke="#ff7f00" />
<path d="M1844.0349025766973,569.0349025766973 L1887.2150974233027,612.2150974233027" close="False" data-weight="2.060660171779821" stroke-width="6" fill="none" stroke="#ff7f00" />
<path d="M1775.625,1453.125 L1805.625,1453.125" close="False" data-weight="1.75" stroke-width="6" fill="none" stroke="#ff7f00" />
<path d="M1775.625,778.125 L1805.625,778.125" close="False" data-weight="1.75" stroke-width="6" fill="none" stroke="#ff7f00" />
<path d="M1769.0349025766973,719.0349025766973 L1812.2150974233027,762.2150974233027" close="False" data-weight="2.060660171779821" stroke-width="6" fill="none" stroke="#ff7f00" />
<path d="M1753.125,650.625 L1753.125,680.625" close="False" data-weight="1.75" stroke-width="6" fill="none" stroke="#ff7f00" />
<path d="M1769.0349025766973,612.2150974233027 L1812.2150974233027,569.0349025766973" close="False" data-weight="2.060660171779821" stroke-width="6" fill="none" stroke="#ff7f00" />
<path d="M1700.625,1453.125 L1730.625,1453.125" close="False" data-weight="1.75" stroke-width="6" fill="none" stroke="#ff7f00" />
<path d="M1700.625,778.125 L1730.625,778.125" close="False" data-weight="1.75" stroke-width="6" fill="none" stroke="#ff7f00" />
<path d="M1678.125,350.625 L1678.125,380.625" close="False" data-weight="1.75" stroke-width="6" fill="none" stroke="#ff7f00" />
<path d="M1678.125,275.625 L1678.125,305.625" close="False" data-weight="1.75" stroke-width="6" fill="none" stroke="#ff7f00" />
<path d="M1619.0349025766973,1394.0349025766973 L1662.2150974233027,1437.2150974233027" close="False" data-weight="2.060660171779821" stroke-width="6" fill="none" stroke="#ff7f00" />
<path d="M1625.625,778.125 L1655.625,778.125" close="False" data-weight="1.75" stroke-width="6" fill="none" stroke="#ff7f00" />
<path d="M1625.625,403.125 L1655.625,403.125" close="False" data-weight="1.75" stroke-width="6" fill="none" stroke="#ff7f00" />
<path d="M1619.0349025766973,194.03490257669733 L1662.2150974233027,237.2150974233027" close="False" data-weight="2.060660171779821" stroke-width="6" fill="none" stroke="#ff7f00" />
<path d="M1544.0349025766973,1319.0349025766973 L1587.2150974233027,1362.2150974233027" close="False" data-weight="2.060660171779821" stroke-width="6" fill="none" stroke="#ff7f00" />
<path d="M1544.0349025766973,719.0349025766973 L1587.2150974233027,762.2150974233027" close="False" data-weight="2.060660171779821" stroke-width="6" fill="none" stroke="#ff7f00" />
<path d="M1528.125,650.625 L1528.125,680.625" close="False" data-weight="1.75" stroke-width="6" fill="none" stroke="#ff7f00" />
<path d="M1528.125,575.625 L1528.125,605.625" close="False" data-weight="1.75" stroke-width="6" fill="none" stroke="#ff7f00" />
<path d="M1528.125,500.625 L1528.125,530.625" close="False" data-weight="1.75" stroke-width="6" fill="none" stroke="#ff7f00" />
<path d="M1528.125,425.625 L1528.125,455.625" close="False" data-weight="1.75" stroke-width="6" fill="none" stroke="#ff7f00" />
<path d="M1550.625,403.125 L1580.625,403.125" close="False" data-weight="1.75" stroke-width="6" fill="none" stroke="#ff7f00" />
<path d="M1544.0349025766973,119.03490257669732 L1587.2150974233027,162.2150974233027" close="False" data-weight="2.060660171779821" stroke-width="6" fill="none" stroke="#ff7f00" />
<path d="M1475.2665898254845,1307.125 L1505.9834101745155,1307.125" close="False" data-weight="1.75" stroke-width="6" fill="none" stroke="#ff7f00" />
<path d="M1475.625,103.125 L1505.625,103.125" close="False" data-weight="1.75" stroke-width="6" fill="none" stroke="#ff7f00" />
<path d="M1400.2665898254845,1307.125 L1430.9834101745155,1307.125" close="False" data-weight="1.75" stroke-width="6" fill="none" stroke="#ff7f00" />
<path d="M1325.2665898254845,1307.125 L1355.9834101745155,1307.125" close="False" data-weight="1.75" stroke-width="6" fill="none" stroke="#ff7f00" />
<path d="M1250.2665898254845,1307.125 L1280.9834101745155,1307.125" close="False" data-weight="1.75" stroke-width="6" fill="none" stroke="#ff7f00" />
<path d="M1175.2665898254845,1307.125 L1205.9834101745155,1307.125" close="False" data-weight="1.75" stroke-width="6" fill="none" stroke="#ff7f00" />
<path d="M1082.125,1325.2665898254845 L1082.125,1355.9834101745155" close="False" data-weight="1.75" stroke-width="6" fill="none" stroke="#ff7f00" />
<path d="M1082.125,1250.2665898254845 L1082.125,1280.9834101745155" close="False" data-weight="1.75" stroke-width="6" fill="none" stroke="#ff7f00" />
<path d="M1090.95304118709,1246.6098954365825 L1134.6401045634175,1290.29695881291" close="False" data-weight="2.060660171779821" stroke-width="6" fill="none" stroke="#ff7f00" />
<path d="M1021.6098954365974,1440.2969588128951 L1065.2969588128951,1396.6098954365973" close="False" data-weight="2.060660171779821" stroke-width="6" fill="none" stroke="#ff7f00" />
<path d="M946.6098954365974,1515.2969588128951 L990.296958812895,1471.6098954365973" close="False" data-weight="2.060660171779821" stroke-width="6" fill="none" stroke="#ff7f00" />
<path d="M932.125,1475.2665898254845 L932.125,1505.9834101745155" close="False" data-weight="1.75" stroke-width="6" fill="none" stroke="#ff7f00" />
<path d="M932.125,1400.2665898254845 L932.125,1430.9834101745155" close="False" data-weight="1.75" stroke-width="6" fill="none" stroke="#ff7f00" />
<path d="M932.125,1325.2665898254845 L932.125,1355.9834101745155" close="False" data-weight="1.75" stroke-width="6" fill="none" stroke="#ff7f00" />
<path d="M932.125,1250.2665898254845 L932.125,1280.9834101745155" close="False" data-weight="1.75" stroke-width="6" fill="none" stroke="#ff7f00" />
<path d="M924.125,1175.2665898254845 L924.125,1205.9834101745155" close="False" data-weight="1.75" stroke-width="6" fill="none" stroke="#ff7f00" />
<path d="M924.125,1100.2665898254845 L924.125,1130.9834101745155" close="False" data-weight="1.75" stroke-width="6" fill="none" stroke="#ff7f00" />
<path d="M924.125,1025.2665898254845 L924.125,1055.9834101745155" close="False" data-weight="1.75" stroke-width="6" fill="none" stroke="#ff7f00" />
<path d="M924.125,950.2665898254845 L924.125,980.9834101745155" close="False" data-weight="1.75" stroke-width="6" fill="none" stroke="#ff7f00" />
<path d="M865.953041187105,871.6098954365974 L909.6401045634026,915.296958812895" close="False" data-weight="2.060660171779821" stroke-width="6" fill="none" stroke="#ff7f00" />
<path d="M849.125,800.2665898254845 L849.125,830.9834101745155" close="False" data-weight="1.75" stroke-width="6" fill="none" stroke="#ff7f00" />
<path d="M849.125,725.2665898254845 L849.125,755.9834101745155" close="False" data-weight="1.75" stroke-width="6" fill="none" stroke="#ff7f00" />
<path d="M849.125,650.2665898254845 L849.125,680.9834101745155" close="False" data-weight="1.75" stroke-width="6" fill="none" stroke="#ff7f00" />
<path d="M790.953041187105,571.6098954365974 L834.6401045634026,615.296958812895" close="False" data-weight="2.060660171779821" stroke-width="6" fill="none" stroke="#ff7f00" />
<path d="M774.125,500.2665898254845 L774.125,530.9834101745155" close="False" data-weight="1.75" stroke-width="6" fill="none" stroke="#ff7f00" />
<path d="M790.953041187105,459.6401045634026 L834.6401045634026,415.953041187105" close="False" data-weight="2.060660171779821" stroke-width="6" fill="none" stroke="#ff7f00" />
<path d="M1599.125,2375.2665898254845 A49.45452644918578,49.45452644918578,0,0,0,1595.3604983272548,2356.3411618979194 M1595.3604983272548,2356.3411618979194 A49.45452644918831,49.45452644918831,0,0,0,1584.6401045634027,2340.296958812895 M1584.6401045634027,2340.296958812895" close="False" data-weight="1.0" stroke-width="6" fill="none" stroke="#4daf4a" />
<path d="M1540.9530411871049,2296.6098954365975 C1533.1248070311792,2288.781661280672,1517.4683387193284,2273.1251929688206,1509.6401045634027,2265.296958812895" close="False" data-weight="0.0" stroke-width="6" fill="none" stroke="#4daf4a" />
<path d="M1475.2665898254845,1299.125 C1464.1957949127423,1299.125,1442.0542050872577,1299.125,1430.9834101745155,1299.125" close="False" data-weight="0.0" stroke-width="6" fill="none" stroke="#4daf4a" />
<path d="M1400.625,2203.125 C1389.375,2203.125,1366.875,2203.125,1355.625,2203.125" close="False" data-weight="0.0" stroke-width="6" fill="none" stroke="#4daf4a" />
<path d="M1325.625,2203.125 C1314.375,2203.125,1291.875,2203.125,1280.625,2203.125" close="False" data-weight="0.0" stroke-width="6" fill="none" stroke="#4daf4a" />
<path d="M1325.2665898254845,1299.125 C1314.1957949127423,1299.125,1292.0542050872577,1299.125,1280.9834101745155,1299.125" close="False" data-weight="0.0" stroke-width="6" fill="none" stroke="#4daf4a" />
<path d="M1250.2665898254845,1299.125 C1239.1957949127423,1299.125,1217.0542050872577,1299.125,1205.9834101745155,1299.125" close="False" data-weight="0.0" stroke-width="6" fill="none" stroke="#4daf4a" />
<path d="M1175.625,2203.125 C1164.375,2203.125,1141.875,2203.125,1130.625,2203.125" close="False" data-weight="0.0" stroke-width="6" fill="none" stroke="#4daf4a" />
<path d="M1175.2665898254845,1299.125 A49.454526449157584,49.454526449157584,0,0,1,1156.3411618979114,1295.3604983272492 M1156.3411618979114,1295.3604983272492 A49.45452644926709,49.45452644926709,0,0,1,1140.2969588128801,1284.6401045633877 M1140.2969588128801,1284.6401045633877" close="False" data-weight="1.0" stroke-width="6" fill="none" stroke="#4daf4a" />
<path d="M1100.625,2203.125 A54.31980515339728,54.31980515339728,0,0,0,1079.837710518496,2207.2598489621723 M1079.837710518496,2207.2598489621723 A54.319805153387826,54.319805153387826,0,0,0,1062.2150974233027,2219.0349025766973 M1062.2150974233027,2219.0349025766973" close="False" data-weight="1.0" stroke-width="6" fill="none" stroke="#4daf4a" />
<path d="M1025.2665898254845,1232.125 C1014.1957949127423,1232.125,992.0542050872577,1232.125,980.9834101745155,1232.125" close="False" data-weight="0.0" stroke-width="6" fill="none" stroke="#4daf4a" />
<path d="M950.625,2278.125 A54.3198051533991,54.3198051533991,0,0,1,929.8377105184959,2273.990151037828 M929.8377105184959,2273.990151037828 A54.319805153386056,54.319805153386056,0,0,1,912.2150974233027,2262.2150974233027 M912.2150974233027,2262.2150974233027" close="False" data-weight="1.0" stroke-width="6" fill="none" stroke="#4daf4a" />
<path d="M924.125,1430.9834101745155 C924.125,1442.0542050872577,924.125,1464.1957949127423,924.125,1475.2665898254845" close="False" data-weight="0.0" stroke-width="6" fill="none" stroke="#4daf4a" />
<path d="M924.125,1355.9834101745155 C924.125,1367.0542050872577,924.125,1389.1957949127423,924.125,1400.2665898254845" close="False" data-weight="0.0" stroke-width="6" fill="none" stroke="#4daf4a" />
<path d="M924.125,1280.9834101745155 C924.125,1292.0542050872577,924.125,1314.1957949127423,924.125,1325.2665898254845" close="False" data-weight="0.0" stroke-width="6" fill="none" stroke="#4daf4a" />
<path d="M869.0349025766973,2219.0349025766973 C861.0799512883486,2211.0799512883486,845.1700487116514,2195.1700487116514,837.2150974233027,2187.2150974233027" close="False" data-weight="0.0" stroke-width="6" fill="none" stroke="#4daf4a" />
<path d="M865.953041187105,1584.6401045634027 C858.0298325130836,1592.5633132374242,845.1383060973241,1611.1116939026758,837.2150974233027,1619.0349025766973" close="False" data-weight="0.0" stroke-width="6" fill="none" stroke="#4daf4a" />
<path d="M794.0349025766973,2144.0349025766973 C786.0799512883486,2136.0799512883486,770.1700487116514,2120.1700487116514,762.2150974233027,2112.2150974233027" close="False" data-weight="0.0" stroke-width="6" fill="none" stroke="#4daf4a" />
<path d="M794.0349025766973,1662.2150974233027 C786.0799512883486,1670.1700487116514,770.1700487116514,1686.0799512883486,762.2150974233027,1694.0349025766973" close="False" data-weight="0.0" stroke-width="6" fill="none" stroke="#4daf4a" />
<path d="M719.0349025766973,2069.0349025766973 C711.0799512883486,2061.0799512883486,695.1700487116514,2045.1700487116514,687.2150974233027,2037.2150974233027" close="False" data-weight="0.0" stroke-width="6" fill="none" stroke="#4daf4a" />
<path d="M719.0349025766973,1737.2150974233027 C711.0799512883486,1745.1700487116514,695.1700487116514,1761.0799512883486,687.2150974233027,1769.0349025766973" close="False" data-weight="0.0" stroke-width="6" fill="none" stroke="#4daf4a" />
<path d="M644.0349025766973,1994.0349025766973 C636.0799512883486,1986.0799512883486,620.1700487116514,1970.1700487116514,612.2150974233027,1962.2150974233027" close="False" data-weight="0.0" stroke-width="6" fill="none" stroke="#4daf4a" />
<path d="M644.0349025766973,1812.2150974233027 C636.0799512883486,1820.1700487116514,620.1700487116514,1836.0799512883486,612.2150974233027,1844.0349025766973" close="False" data-weight="0.0" stroke-width="6" fill="none" stroke="#4daf4a" />
<path d="M1599.125,2375.2665898254845 L1599.125,2405.9834101745155" close="False" data-weight="1.75" stroke-width="6" fill="none" stroke="#4daf4a" />
<path d="M1540.9530411871049,2296.6098954365975 L1584.6401045634027,2340.296958812895" close="False" data-weight="2.060660171779821" stroke-width="6" fill="none" stroke="#4daf4a" />
<path d="M1465.9530411871049,2221.6098954365975 L1509.6401045634027,2265.296958812895" close="False" data-weight="2.060660171779821" stroke-width="6" fill="none" stroke="#4daf4a" />
<path d="M1475.2665898254845,1299.125 L1505.9834101745155,1299.125" close="False" data-weight="1.75" stroke-width="6" fill="none" stroke="#4daf4a" />
<path d="M1400.625,2203.125 L1430.625,2203.125" close="False" data-weight="1.75" stroke-width="6" fill="none" stroke="#4daf4a" />
<path d="M1400.2665898254845,1299.125 L1430.9834101745155,1299.125" close="False" data-weight="1.75" stroke-width="6" fill="none" stroke="#4daf4a" />
<path d="M1325.625,2203.125 L1355.625,2203.125" close="False" data-weight="1.75" stroke-width="6" fill="none" stroke="#4daf4a" />
<path d="M1325.2665898254845,1299.125 L1355.9834101745155,1299.125" close="False" data-weight="1.75" stroke-width="6" fill="none" stroke="#4daf4a" />
<path d="M1250.625,2203.125 L1280.625,2203.125" close="False" data-weight="1.75" stroke-width="6" fill="none" stroke="#4daf4a" />
<path d="M1250.2665898254845,1299.125 L1280.9834101745155,1299.125" close="False" data-weight="1.75" stroke-width="6" fill="none" stroke="#4daf4a" />
<path d="M1175.625,2203.125 L1205.625,2203.125" close="False" data-weight="1.75" stroke-width="6" fill="none" stroke="#4daf4a" />
<path d="M1175.2665898254845,1299.125 L1205.9834101745155,1299.125" close="False" data-weight="1.75" stroke-width="6" fill="none" stroke="#4daf4a" />
<path d="M1100.625,2203.125 L1130.625,2203.125" close="False" data-weight="1.75" stroke-width="6" fill="none" stroke="#4daf4a" />
<path d="M1096.6098954366123,1240.9530411871199 L1140.2969588128801,1284.6401045633877" close="False" data-weight="2.060660171779821" stroke-width="6" fill="none" stroke="#4daf4a" />
<path d="M1019.0349025766973,2262.2150974233027 L1062.2150974233027,2219.0349025766973" close="False" data-weight="2.060660171779821" stroke-width="6" fill="none" stroke="#4daf4a" />
<path d="M1025.2665898254845,1232.125 L1055.9834101745155,1232.125" close="False" data-weight="1.75" stroke-width="6" fill="none" stroke="#4daf4a" />
<path d="M950.625,2278.125 L980.625,2278.125" close="False" data-weight="1.75" stroke-width="6" fill="none" stroke="#4daf4a" />
<path d="M924.125,1475.2665898254845 L924.125,1505.9834101745155" close="False" data-weight="1.75" stroke-width="6" fill="none" stroke="#4daf4a" />
<path d="M924.125,1400.2665898254845 L924.125,1430.9834101745155" close="False" data-weight="1.75" stroke-width="6" fill="none" stroke="#4daf4a" />
<path d="M924.125,1325.2665898254845 L924.125,1355.9834101745155" close="False" data-weight="1.75" stroke-width="6" fill="none" stroke="#4daf4a" />
<path d="M924.125,1250.2665898254845 L924.125,1280.9834101745155" close="False" data-weight="1.75" stroke-width="6" fill="none" stroke="#4daf4a" />
<path d="M950.2665898254845,1232.125 L980.9834101745155,1232.125" close="False" data-weight="1.75" stroke-width="6" fill="none" stroke="#4daf4a" />
<path d="M869.0349025766973,2219.0349025766973 L912.2150974233027,2262.2150974233027" close="False" data-weight="2.060660171779821" stroke-width="6" fill="none" stroke="#4daf4a" />
<path d="M865.953041187105,1584.6401045634027 L909.6401045634026,1540.9530411871049" close="False" data-weight="2.060660171779821" stroke-width="6" fill="none" stroke="#4daf4a" />
<path d="M794.0349025766973,2144.0349025766973 L837.2150974233027,2187.2150974233027" close="False" data-weight="2.060660171779821" stroke-width="6" fill="none" stroke="#4daf4a" />
<path d="M794.0349025766973,1662.2150974233027 L837.2150974233027,1619.0349025766973" close="False" data-weight="2.060660171779821" stroke-width="6" fill="none" stroke="#4daf4a" />
<path d="M719.0349025766973,2069.0349025766973 L762.2150974233027,2112.2150974233027" close="False" data-weight="2.060660171779821" stroke-width="6" fill="none" stroke="#4daf4a" />
<path d="M719.0349025766973,1737.2150974233027 L762.2150974233027,1694.0349025766973" close="False" data-weight="2.060660171779821" stroke-width="6" fill="none" stroke="#4daf4a" />
<path d="M644.0349025766973,1994.0349025766973 L687.2150974233027,2037.2150974233027" close="False" data-weight="2.060660171779821" stroke-width="6" fill="none" stroke="#4daf4a" />
<path d="M644.0349025766973,1812.2150974233027 L687.2150974233027,1769.0349025766973" close="False" data-weight="2.060660171779821" stroke-width="6" fill="none" stroke="#4daf4a" />
<path d="M569.0349025766973,1919.0349025766973 L612.2150974233027,1962.2150974233027" close="False" data-weight="2.060660171779821" stroke-width="6" fill="none" stroke="#4daf4a" />
<path d="M569.0349025766973,1887.2150974233027 L612.2150974233027,1844.0349025766973" close="False" data-weight="2.060660171779821" stroke-width="6" fill="none" stroke="#4daf4a" />
<path d="M1074.125,1355.9834101745155 A49.45452644918828,49.45452644918828,0,0,1,1070.360498327255,1374.9088381020804 M1070.360498327255,1374.9088381020804 A49.454526449185096,49.454526449185096,0,0,1,1059.6401045634027,1390.9530411871049 M1059.6401045634027,1390.9530411871049" close="False" data-weight="1.0" stroke-width="6" fill="none" stroke="#377eb8" />
<path d="M1074.125,1280.9834101745155 C1074.125,1292.0542050872577,1074.125,1314.1957949127423,1074.125,1325.2665898254845" close="False" data-weight="0.0" stroke-width="6" fill="none" stroke="#377eb8" />
<path d="M1015.953041187105,1434.6401045634027 C1008.1248070311794,1442.4683387193284,992.4683387193281,1458.1248070311792,984.6401045634026,1465.9530411871049" close="False" data-weight="0.0" stroke-width="6" fill="none" stroke="#377eb8" />
<path d="M1025.2665898254845,1224.125 C1014.1957949127423,1224.125,992.0542050872577,1224.125,980.9834101745155,1224.125" close="False" data-weight="0.0" stroke-width="6" fill="none" stroke="#377eb8" />
<path d="M932.125,1130.9834101745155 C932.125,1142.0542050872577,932.125,1164.1957949127423,932.125,1175.2665898254845" close="False" data-weight="0.0" stroke-width="6" fill="none" stroke="#377eb8" />
<path d="M932.125,1055.9834101745155 C932.125,1067.0542050872577,932.125,1089.1957949127423,932.125,1100.2665898254845" close="False" data-weight="0.0" stroke-width="6" fill="none" stroke="#377eb8" />
<path d="M932.125,980.9834101745155 C932.125,992.0542050872577,932.125,1014.1957949127423,932.125,1025.2665898254845" close="False" data-weight="0.0" stroke-width="6" fill="none" stroke="#377eb8" />
<path d="M932.125,950.2665898254845 A57.45452644918623,57.45452644918623,0,0,0,927.7515345873452,928.2796944389988 M927.7515345873452,928.2796944389988 A57.45452644918757,57.45452644918757,0,0,0,915.296958812895,909.6401045634026 M915.296958812895,909.6401045634026" close="False" data-weight="1.0" stroke-width="6" fill="none" stroke="#377eb8" />
<path d="M853.125,1805.625 C853.125,1816.875,853.125,1839.375,853.125,1850.625" close="False" data-weight="0.0" stroke-width="6" fill="none" stroke="#377eb8" />
<path d="M853.125,1730.625 C853.125,1741.875,853.125,1764.375,853.125,1775.625" close="False" data-weight="0.0" stroke-width="6" fill="none" stroke="#377eb8" />
<path d="M853.125,1655.625 C853.125,1666.875,853.125,1689.375,853.125,1700.625" close="False" data-weight="0.0" stroke-width="6" fill="none" stroke="#377eb8" />
<path d="M871.6098954365974,1590.2969588128951 A93.8303986367536,93.8303986367536,0,0,0,858.6902502339128,1606.4378343368908 M858.6902502339128,1606.4378343368908 A35.8581662615602,35.8581662615602,0,0,0,853.125,1625.625 M853.125,1625.625" close="False" data-weight="1.0" stroke-width="6" fill="none" stroke="#377eb8" />
<path d="M857.125,755.9834101745155 C857.125,767.0542050872577,857.125,789.1957949127423,857.125,800.2665898254845" close="False" data-weight="0.0" stroke-width="6" fill="none" stroke="#377eb8" />
<path d="M857.125,650.2665898254845 A57.45452644918623,57.45452644918623,0,0,0,852.7515345873452,628.2796944389988 M852.7515345873452,628.2796944389988 A57.45452644918757,57.45452644918757,0,0,0,840.296958812895,609.6401045634026 M840.296958812895,609.6401045634026" close="False" data-weight="1.0" stroke-width="6" fill="none" stroke="#377eb8" />
<path d="M800.625,1903.125 C789.375,1903.125,766.875,1903.125,755.625,1903.125" close="False" data-weight="0.0" stroke-width="6" fill="none" stroke="#377eb8" />
<path d="M796.6098954365974,465.296958812895 A49.4545264491869,49.4545264491869,0,0,0,785.889501672745,481.34116189791956 M785.889501672745,481.34116189791956 A49.454526449186915,49.454526449186915,0,0,0,782.125,500.2665898254845 M782.125,500.2665898254845" close="False" data-weight="1.0" stroke-width="6" fill="none" stroke="#377eb8" />
<path d="M725.625,1903.125 C714.375,1903.125,691.875,1903.125,680.625,1903.125" close="False" data-weight="0.0" stroke-width="6" fill="none" stroke="#377eb8" />
<path d="M650.625,1903.125 C639.375,1903.125,616.875,1903.125,605.625,1903.125" close="False" data-weight="0.0" stroke-width="6" fill="none" stroke="#377eb8" />
<path d="M494.03490257669733,1844.0349025766973 C486.0799512883487,1836.0799512883486,470.1700487116513,1820.1700487116514,462.21509742330267,1812.2150974233027" close="False" data-weight="0.0" stroke-width="6" fill="none" stroke="#377eb8" />
<path d="M403.125,1730.625 A54.31980515339285,54.31980515339285,0,0,0,407.2598489621724,1751.412289481504 M407.2598489621724,1751.412289481504 A54.31980515339627,54.31980515339627,0,0,0,419.03490257669733,1769.0349025766973 M419.03490257669733,1769.0349025766973" close="False" data-weight="1.0" stroke-width="6" fill="none" stroke="#377eb8" />
<path d="M403.125,1655.625 C403.125,1666.875,403.125,1689.375,403.125,1700.625" close="False" data-weight="0.0" stroke-width="6" fill="none" stroke="#377eb8" />
<path d="M403.125,1580.625 C403.125,1591.875,403.125,1614.375,403.125,1625.625" close="False" data-weight="0.0" stroke-width="6" fill="none" stroke="#377eb8" />
<path d="M403.125,1505.625 C403.125,1516.875,403.125,1539.375,403.125,1550.625" close="False" data-weight="0.0" stroke-width="6" fill="none" stroke="#377eb8" />
<path d="M350.625,1453.125 C339.375,1453.125,316.875,1453.125,305.625,1453.125" close="False" data-weight="0.0" stroke-width="6" fill="none" stroke="#377eb8" />
<path d="M275.625,1453.125 C264.375,1453.125,241.875,1453.125,230.625,1453.125" close="False" data-weight="0.0" stroke-width="6" fill="none" stroke="#377eb8" />
<path d="M253.125,1205.625 A54.31980515339285,54.31980515339285,0,0,1,248.99015103782762,1226.412289481504 M248.99015103782762,1226.412289481504 A54.319805153396246,54.319805153396246,0,0,1,237.21509742330267,1244.0349025766973 M237.21509742330267,1244.0349025766973" close="False" data-weight="1.0" stroke-width="6" fill="none" stroke="#377eb8" />
<path d="M194.0349025766973,1287.2150974233027 C186.07995128834867,1295.1700487116514,170.1700487116513,1311.0799512883486,162.21509742330267,1319.0349025766973" close="False" data-weight="0.0" stroke-width="6" fill="none" stroke="#377eb8" />
<path d="M1074.125,1325.2665898254845 L1074.125,1355.9834101745155" close="False" data-weight="1.75" stroke-width="6" fill="none" stroke="#377eb8" />
<path d="M1074.125,1250.2665898254845 L1074.125,1280.9834101745155" close="False" data-weight="1.75" stroke-width="6" fill="none" stroke="#377eb8" />
<path d="M1015.953041187105,1434.6401045634027 L1059.6401045634027,1390.9530411871049" close="False" data-weight="2.060660171779821" stroke-width="6" fill="none" stroke="#377eb8" />
<path d="M1025.2665898254845,1224.125 L1055.9834101745155,1224.125" close="False" data-weight="1.75" stroke-width="6" fill="none" stroke="#377eb8" />
<path d="M940.953041187105,1509.6401045634027 L984.6401045634026,1465.9530411871049" close="False" data-weight="2.060660171779821" stroke-width="6" fill="none" stroke="#377eb8" />
<path d="M950.2665898254845,1224.125 L980.9834101745155,1224.125" close="False" data-weight="1.75" stroke-width="6" fill="none" stroke="#377eb8" />
<path d="M932.125,1175.2665898254845 L932.125,1205.9834101745155" close="False" data-weight="1.75" stroke-width="6" fill="none" stroke="#377eb8" />
<path d="M932.125,1100.2665898254845 L932.125,1130.9834101745155" close="False" data-weight="1.75" stroke-width="6" fill="none" stroke="#377eb8" />
<path d="M932.125,1025.2665898254845 L932.125,1055.9834101745155" close="False" data-weight="1.75" stroke-width="6" fill="none" stroke="#377eb8" />
<path d="M932.125,950.2665898254845 L932.125,980.9834101745155" close="False" data-weight="1.75" stroke-width="6" fill="none" stroke="#377eb8" />
<path d="M853.125,1850.625 L853.125,1880.625" close="False" data-weight="1.75" stroke-width="6" fill="none" stroke="#377eb8" />
<path d="M853.125,1775.625 L853.125,1805.625" close="False" data-weight="1.75" stroke-width="6" fill="none" stroke="#377eb8" />
<path d="M853.125,1700.625 L853.125,1730.625" close="False" data-weight="1.75" stroke-width="6" fill="none" stroke="#377eb8" />
<path d="M853.125,1625.625 L853.125,1655.625" close="False" data-weight="1.75" stroke-width="6" fill="none" stroke="#377eb8" />
<path d="M871.6098954365974,1590.2969588128951 L915.296958812895,1546.6098954365973" close="False" data-weight="2.060660171779821" stroke-width="6" fill="none" stroke="#377eb8" />
<path d="M871.6098954365974,865.953041187105 L915.296958812895,909.6401045634026" close="False" data-weight="2.060660171779821" stroke-width="6" fill="none" stroke="#377eb8" />
<path d="M857.125,800.2665898254845 L857.125,830.9834101745155" close="False" data-weight="1.75" stroke-width="6" fill="none" stroke="#377eb8" />
<path d="M857.125,725.2665898254845 L857.125,755.9834101745155" close="False" data-weight="1.75" stroke-width="6" fill="none" stroke="#377eb8" />
<path d="M857.125,650.2665898254845 L857.125,680.9834101745155" close="False" data-weight="1.75" stroke-width="6" fill="none" stroke="#377eb8" />
<path d="M800.625,1903.125 L830.625,1903.125" close="False" data-weight="1.75" stroke-width="6" fill="none" stroke="#377eb8" />
<path d="M796.6098954365974,565.953041187105 L840.296958812895,609.6401045634026" close="False" data-weight="2.060660171779821" stroke-width="6" fill="none" stroke="#377eb8" />
<path d="M782.125,500.2665898254845 L782.125,530.9834101745155" close="False" data-weight="1.75" stroke-width="6" fill="none" stroke="#377eb8" />
<path d="M796.6098954365974,465.296958812895 L840.296958812895,421.6098954365974" close="False" data-weight="2.060660171779821" stroke-width="6" fill="none" stroke="#377eb8" />
<path d="M725.625,1903.125 L755.625,1903.125" close="False" data-weight="1.75" stroke-width="6" fill="none" stroke="#377eb8" />
<path d="M650.625,1903.125 L680.625,1903.125" close="False" data-weight="1.75" stroke-width="6" fill="none" stroke="#377eb8" />
<path d="M575.625,1903.125 L605.625,1903.125" close="False" data-weight="1.75" stroke-width="6" fill="none" stroke="#377eb8" />
<path d="M494.03490257669733,1844.0349025766973 L537.2150974233027,1887.2150974233027" close="False" data-weight="2.060660171779821" stroke-width="6" fill="none" stroke="#377eb8" />
<path d="M419.03490257669733,1769.0349025766973 L462.21509742330267,1812.2150974233027" close="False" data-weight="2.060660171779821" stroke-width="6" fill="none" stroke="#377eb8" />
<path d="M403.125,1700.625 L403.125,1730.625" close="False" data-weight="1.75" stroke-width="6" fill="none" stroke="#377eb8" />
<path d="M403.125,1625.625 L403.125,1655.625" close="False" data-weight="1.75" stroke-width="6" fill="none" stroke="#377eb8" />
<path d="M403.125,1550.625 L403.125,1580.625" close="False" data-weight="1.75" stroke-width="6" fill="none" stroke="#377eb8" />
<path d="M403.125,1475.625 L403.125,1505.625" close="False" data-weight="1.75" stroke-width="6" fill="none" stroke="#377eb8" />
<path d="M350.625,1453.125 L380.625,1453.125" close="False" data-weight="1.75" stroke-width="6" fill="none" stroke="#377eb8" />
<path d="M275.625,1453.125 L305.625,1453.125" close="False" data-weight="1.75" stroke-width="6" fill="none" stroke="#377eb8" />
<path d="M253.125,1175.625 L253.125,1205.625" close="False" data-weight="1.75" stroke-width="6" fill="none" stroke="#377eb8" />
<path d="M200.625,1453.125 L230.625,1453.125" close="False" data-weight="1.75" stroke-width="6" fill="none" stroke="#377eb8" />
<path d="M194.03490257669733,1287.2150974233027 L237.2150974233027,1244.0349025766973" close="False" data-weight="2.060660171779821" stroke-width="6" fill="none" stroke="#377eb8" />
<path d="M119.03490257669732,1394.0349025766973 L162.2150974233027,1437.2150974233027" close="False" data-weight="2.060660171779821" stroke-width="6" fill="none" stroke="#377eb8" />
<path d="M119.03490257669732,1362.2150974233027 L162.2150974233027,1319.0349025766973" close="False" data-weight="2.060660171779821" stroke-width="6" fill="none" stroke="#377eb8" />
<path d="M2203.125,2030.625 A54.31980515339865,54.31980515339865,0,0,1,2198.990151037828,2051.4122894815036 M2198.990151037828,2051.4122894815036 A54.31980515339072,54.31980515339072,0,0,1,2187.2150974233027,2069.0349025766973 M2187.2150974233027,2069.0349025766973" close="False" data-weight="1.0" stroke-width="6" fill="none" stroke="#e41a1c" />
<path d="M2203.125,1955.625 C2203.125,1966.875,2203.125,1989.375,2203.125,2000.625" close="False" data-weight="0.0" stroke-width="6" fill="none" stroke="#e41a1c" />
<path d="M2203.125,1880.625 C2203.125,1891.875,2203.125,1914.375,2203.125,1925.625" close="False" data-weight="0.0" stroke-width="6" fill="none" stroke="#e41a1c" />
<path d="M2203.125,1805.625 C2203.125,1816.875,2203.125,1839.375,2203.125,1850.625" close="False" data-weight="0.0" stroke-width="6" fill="none" stroke="#e41a1c" />
<path d="M2144.0349025766973,2112.2150974233027 C2136.0799512883486,2120.1700487116514,2120.1700487116514,2136.0799512883486,2112.2150974233027,2144.0349025766973" close="False" data-weight="0.0" stroke-width="6" fill="none" stroke="#e41a1c" />
<path d="M2150.2665898254845,1757.125 C2139.1957949127423,1757.125,2117.0542050872577,1757.125,2105.9834101745155,1757.125" close="False" data-weight="0.0" stroke-width="6" fill="none" stroke="#e41a1c" />
<path d="M2069.0349025766973,2187.2150974233027 C2061.0799512883486,2195.1700487116514,2045.1700487116514,2211.0799512883486,2037.2150974233027,2219.0349025766973" close="False" data-weight="0.0" stroke-width="6" fill="none" stroke="#e41a1c" />
<path d="M2075.2665898254845,1757.125 A57.45452644918714,57.45452644918714,0,0,1,2053.279694438999,1752.7515345873453 M2053.279694438999,1752.7515345873453 A57.45452644918628,57.45452644918628,0,0,1,2034.6401045634027,1740.2969588128951 M2034.6401045634027,1740.2969588128951" close="False" data-weight="1.0" stroke-width="6" fill="none" stroke="#e41a1c" />
<path d="M1974.125,1580.9834101745155 C1974.125,1592.0542050872577,1974.125,1614.1957949127423,1974.125,1625.2665898254845" close="False" data-weight="0.0" stroke-width="6" fill="none" stroke="#e41a1c" />
<path d="M1974.125,1550.2665898254845 A49.45452644918828,49.45452644918828,0,0,0,1970.360498327255,1531.3411618979196 M1970.360498327255,1531.3411618979196 A49.454526449185096,49.454526449185096,0,0,0,1959.6401045634027,1515.2969588128951 M1959.6401045634027,1515.2969588128951" close="False" data-weight="1.0" stroke-width="6" fill="none" stroke="#e41a1c" />
<path d="M1844.0349025766973,2337.2150974233027 C1836.0799512883486,2345.1700487116514,1820.1700487116514,2361.0799512883486,1812.2150974233027,2369.0349025766973" close="False" data-weight="0.0" stroke-width="6" fill="none" stroke="#e41a1c" />
<path d="M1769.0349025766973,2412.2150974233027 A54.319805153391044,54.319805153391044,0,0,1,1751.4122894815043,2423.990151037828 M1751.4122894815043,2423.990151037828 A54.3198051533941,54.3198051533941,0,0,1,1730.625,2428.125 M1730.625,2428.125" close="False" data-weight="1.0" stroke-width="6" fill="none" stroke="#e41a1c" />
<path d="M1700.625,2428.125 C1689.375,2428.125,1666.875,2428.125,1655.625,2428.125" close="False" data-weight="0.0" stroke-width="6" fill="none" stroke="#e41a1c" />
<path d="M1607.125,2375.2665898254845 A57.45452644918805,57.45452644918805,0,0,0,1602.751534587345,2353.2796944389984 M1602.751534587345,2353.2796944389984 A57.454526449182104,57.454526449182104,0,0,0,1590.2969588128951,2334.6401045634025 M1590.2969588128951,2334.6401045634025" close="False" data-weight="1.0" stroke-width="6" fill="none" stroke="#e41a1c" />
<path d="M1546.6098954365973,2290.953041187105 C1538.7816612806716,2283.1248070311794,1523.1251929688208,2267.468338719328,1515.2969588128951,2259.6401045634025" close="False" data-weight="0.0" stroke-width="6" fill="none" stroke="#e41a1c" />
<path d="M1394.0349025766973,2144.0349025766973 C1386.0799512883486,2136.0799512883486,1370.1700487116514,2120.1700487116514,1362.2150974233027,2112.2150974233027" close="False" data-weight="0.0" stroke-width="6" fill="none" stroke="#e41a1c" />
<path d="M1319.0349025766973,2069.0349025766973 C1311.0799512883486,2061.0799512883486,1295.1700487116514,2045.1700487116514,1287.2150974233027,2037.2150974233027" close="False" data-weight="0.0" stroke-width="6" fill="none" stroke="#e41a1c" />
<path d="M1244.0349025766973,1994.0349025766973 C1236.0799512883486,1986.0799512883486,1220.1700487116514,1970.1700487116514,1212.2150974233027,1962.2150974233027" close="False" data-weight="0.0" stroke-width="6" fill="none" stroke="#e41a1c" />
<path d="M1169.0349025766973,1919.0349025766973 A54.3198051533949,54.3198051533949,0,0,0,1151.412289481504,1907.2598489621723 M1151.412289481504,1907.2598489621723 A54.3198051533941,54.3198051533941,0,0,0,1130.625,1903.125 M1130.625,1903.125" close="False" data-weight="1.0" stroke-width="6" fill="none" stroke="#e41a1c" />
<path d="M1100.625,1903.125 C1089.375,1903.125,1066.875,1903.125,1055.625,1903.125" close="False" data-weight="0.0" stroke-width="6" fill="none" stroke="#e41a1c" />
<path d="M1025.625,1903.125 C1014.375,1903.125,991.875,1903.125,980.625,1903.125" close="False" data-weight="0.0" stroke-width="6" fill="none" stroke="#e41a1c" />
<path d="M950.625,1903.125 C939.375,1903.125,916.875,1903.125,905.625,1903.125" close="False" data-weight="0.0" stroke-width="6" fill="none" stroke="#e41a1c" />
<path d="M2203.125,2000.625 L2203.125,2030.625" close="False" data-weight="1.75" stroke-width="6" fill="none" stroke="#e41a1c" />
<path d="M2203.125,1925.625 L2203.125,1955.625" close="False" data-weight="1.75" stroke-width="6" fill="none" stroke="#e41a1c" />
<path d="M2203.125,1850.625 L2203.125,1880.625" close="False" data-weight="1.75" stroke-width="6" fill="none" stroke="#e41a1c" />
<path d="M2203.125,1775.625 L2203.125,1805.625" close="False" data-weight="1.75" stroke-width="6" fill="none" stroke="#e41a1c" />
<path d="M2144.0349025766973,2112.2150974233027 L2187.2150974233027,2069.0349025766973" close="False" data-weight="2.060660171779821" stroke-width="6" fill="none" stroke="#e41a1c" />
<path d="M2150.2665898254845,1757.125 L2180.9834101745155,1757.125" close="False" data-weight="1.75" stroke-width="6" fill="none" stroke="#e41a1c" />
<path d="M2069.0349025766973,2187.2150974233027 L2112.2150974233027,2144.0349025766973" close="False" data-weight="2.060660171779821" stroke-width="6" fill="none" stroke="#e41a1c" />
<path d="M2075.2665898254845,1757.125 L2105.9834101745155,1757.125" close="False" data-weight="1.75" stroke-width="6" fill="none" stroke="#e41a1c" />
<path d="M1994.0349025766973,2262.2150974233027 L2037.2150974233027,2219.0349025766973" close="False" data-weight="2.060660171779821" stroke-width="6" fill="none" stroke="#e41a1c" />
<path d="M1990.9530411871347,1696.609895436627 L2034.6401045634027,1740.2969588128951" close="False" data-weight="2.060660171779821" stroke-width="6" fill="none" stroke="#e41a1c" />
<path d="M1974.125,1625.2665898254845 L1974.125,1655.9834101745155" close="False" data-weight="1.75" stroke-width="6" fill="none" stroke="#e41a1c" />
<path d="M1974.125,1550.2665898254845 L1974.125,1580.9834101745155" close="False" data-weight="1.75" stroke-width="6" fill="none" stroke="#e41a1c" />
<path d="M1925.625,2278.125 L1955.625,2278.125" close="False" data-weight="1.75" stroke-width="6" fill="none" stroke="#e41a1c" />
<path d="M1915.9530411870753,1471.6098954365677 L1959.6401045634027,1515.2969588128951" close="False" data-weight="2.060660171779821" stroke-width="6" fill="none" stroke="#e41a1c" />
<path d="M1844.0349025766973,2337.2150974233027 L1887.2150974233027,2294.0349025766973" close="False" data-weight="2.060660171779821" stroke-width="6" fill="none" stroke="#e41a1c" />
<path d="M1769.0349025766973,2412.2150974233027 L1812.2150974233027,2369.0349025766973" close="False" data-weight="2.060660171779821" stroke-width="6" fill="none" stroke="#e41a1c" />
<path d="M1700.625,2428.125 L1730.625,2428.125" close="False" data-weight="1.75" stroke-width="6" fill="none" stroke="#e41a1c" />
<path d="M1625.625,2428.125 L1655.625,2428.125" close="False" data-weight="1.75" stroke-width="6" fill="none" stroke="#e41a1c" />
<path d="M1607.125,2375.2665898254845 L1607.125,2405.9834101745155" close="False" data-weight="1.75" stroke-width="6" fill="none" stroke="#e41a1c" />
<path d="M1546.6098954365973,2290.953041187105 L1590.2969588128951,2334.6401045634025" close="False" data-weight="2.060660171779821" stroke-width="6" fill="none" stroke="#e41a1c" />
<path d="M1471.6098954365973,2215.953041187105 L1515.2969588128951,2259.6401045634025" close="False" data-weight="2.060660171779821" stroke-width="6" fill="none" stroke="#e41a1c" />
<path d="M1394.0349025766973,2144.0349025766973 L1437.2150974233027,2187.2150974233027" close="False" data-weight="2.060660171779821" stroke-width="6" fill="none" stroke="#e41a1c" />
<path d="M1319.0349025766973,2069.0349025766973 L1362.2150974233027,2112.2150974233027" close="False" data-weight="2.060660171779821" stroke-width="6" fill="none" stroke="#e41a1c" />
<path d="M1244.0349025766973,1994.0349025766973 L1287.2150974233027,2037.2150974233027" close="False" data-weight="2.060660171779821" stroke-width="6" fill="none" stroke="#e41a1c" />
<path d="M1169.0349025766973,1919.0349025766973 L1212.2150974233027,1962.2150974233027" close="False" data-weight="2.060660171779821" stroke-width="6" fill="none" stroke="#e41a1c" />
<path d="M1100.625,1903.125 L1130.625,1903.125" close="False" data-weight="1.75" stroke-width="6" fill="none" stroke="#e41a1c" />
<path d="M1025.625,1903.125 L1055.625,1903.125" close="False" data-weight="1.75" stroke-width="6" fill="none" stroke="#e41a1c" />
<path d="M950.625,1903.125 L980.625,1903.125" close="False" data-weight="1.75" stroke-width="6" fill="none" stroke="#e41a1c" />
<path d="M875.625,1903.125 L905.625,1903.125" close="False" data-weight="1.75" stroke-width="6" fill="none" stroke="#e41a1c" />
<image x="2395.625" y="670.625" width="65" height="65" xlink:href="designspace-test/./img/ds_dataset1_40_21_thumb.png">
<title>21</title>
</image>
<image x="2245.625" y="970.625" width="65" height="65" xlink:href="designspace-test/./img/ds_dataset1_40_27_thumb.png">
<title>27</title>
</image>
<image x="2170.625" y="1720.625" width="65" height="65" xlink:href="designspace-test/./img/ds_dataset1_40_19_thumb.png">
<title>19</title>
</image>
<image x="2170.625" y="1345.625" width="65" height="65" xlink:href="designspace-test/./img/ds_dataset1_40_37_thumb.png">
<title>37</title>
</image>
<image x="1945.625" y="2245.625" width="65" height="65" xlink:href="designspace-test/./img/ds_dataset1_40_12_thumb.png">
<title>12</title>
</image>
<image x="1945.625" y="1645.625" width="65" height="65" xlink:href="designspace-test/./img/ds_dataset1_40_32_thumb.png">
<title>32</title>
</image>
<image x="1870.625" y="2245.625" width="65" height="65" xlink:href="designspace-test/./img/ds_dataset1_40_2_thumb.png">
<title>2</title>
</image>
<image x="1870.625" y="1420.625" width="65" height="65" xlink:href="designspace-test/./img/ds_dataset1_40_4_thumb.png">
<title>4</title>
</image>
<image x="1870.625" y="595.625" width="65" height="65" xlink:href="designspace-test/./img/ds_dataset1_40_10_thumb.png">
<title>10</title>
</image>
<image x="1795.625" y="745.625" width="65" height="65" xlink:href="designspace-test/./img/ds_dataset1_40_9_thumb.png">
<title>9</title>
</image>
<image x="1795.625" y="520.625" width="65" height="65" xlink:href="designspace-test/./img/ds_dataset1_40_25_thumb.png">
<title>25</title>
</image>
<image x="1720.625" y="670.625" width="65" height="65" xlink:href="designspace-test/./img/ds_dataset1_40_16_thumb.png">
<title>16</title>
</image>
<image x="1720.625" y="595.625" width="65" height="65" xlink:href="designspace-test/./img/ds_dataset1_40_11_thumb.png">
<title>11</title>
</image>
<image x="1645.625" y="370.625" width="65" height="65" xlink:href="designspace-test/./img/ds_dataset1_40_24_thumb.png">
<title>24</title>
</image>
<image x="1570.625" y="2395.625" width="65" height="65" xlink:href="designspace-test/./img/ds_dataset1_40_22_thumb.png">
<title>22</title>
</image>
<image x="1570.625" y="370.625" width="65" height="65" xlink:href="designspace-test/./img/ds_dataset1_40_13_thumb.png">
<title>13</title>
</image>
<image x="1570.625" y="145.625" width="65" height="65" xlink:href="designspace-test/./img/ds_dataset1_40_14_thumb.png">
<title>14</title>
</image>
<image x="1495.625" y="1270.625" width="65" height="65" xlink:href="designspace-test/./img/ds_dataset1_40_1_thumb.png">
<title>1</title>
</image>
<image x="1495.625" y="670.625" width="65" height="65" xlink:href="designspace-test/./img/ds_dataset1_40_39_thumb.png">
<title>39</title>
</image>
<image x="1495.625" y="520.625" width="65" height="65" xlink:href="designspace-test/./img/ds_dataset1_40_33_thumb.png">
<title>33</title>
</image>
<image x="1495.625" y="445.625" width="65" height="65" xlink:href="designspace-test/./img/ds_dataset1_40_31_thumb.png">
<title>31</title>
</image>
<image x="1495.625" y="370.625" width="65" height="65" xlink:href="designspace-test/./img/ds_dataset1_40_30_thumb.png">
<title>30</title>
</image>
<image x="1420.625" y="2170.625" width="65" height="65" xlink:href="designspace-test/./img/ds_dataset1_40_38_thumb.png">
<title>38</title>
</image>
<image x="1420.625" y="70.625" width="65" height="65" xlink:href="designspace-test/./img/ds_dataset1_40_17_thumb.png">
<title>17</title>
</image>
<image x="1345.625" y="1270.625" width="65" height="65" xlink:href="designspace-test/./img/ds_dataset1_40_36_thumb.png">
<title>36</title>
</image>
<image x="1195.625" y="2170.625" width="65" height="65" xlink:href="designspace-test/./img/ds_dataset1_40_35_thumb.png">
<title>35</title>
</image>
<image x="1045.625" y="1195.625" width="65" height="65" xlink:href="designspace-test/./img/ds_dataset1_40_29_thumb.png">
<title>29</title>
</image>
<image x="970.625" y="2245.625" width="65" height="65" xlink:href="designspace-test/./img/ds_dataset1_40_23_thumb.png">
<title>23</title>
</image>
<image x="895.625" y="1495.625" width="65" height="65" xlink:href="designspace-test/./img/ds_dataset1_40_28_thumb.png">
<title>28</title>
</image>
<image x="895.625" y="1195.625" width="65" height="65" xlink:href="designspace-test/./img/ds_dataset1_40_3_thumb.png">
<title>3</title>
</image>
<image x="820.625" y="1870.625" width="65" height="65" xlink:href="designspace-test/./img/ds_dataset1_40_18_thumb.png">
<title>18</title>
</image>
<image x="820.625" y="820.625" width="65" height="65" xlink:href="designspace-test/./img/ds_dataset1_40_6_thumb.png">
<title>6</title>
</image>
<image x="820.625" y="670.625" width="65" height="65" xlink:href="designspace-test/./img/ds_dataset1_40_15_thumb.png">
<title>15</title>
</image>
<image x="820.625" y="370.625" width="65" height="65" xlink:href="designspace-test/./img/ds_dataset1_40_26_thumb.png">
<title>26</title>
</image>
<image x="745.625" y="520.625" width="65" height="65" xlink:href="designspace-test/./img/ds_dataset1_40_8_thumb.png">
<title>8</title>
</image>
<image x="520.625" y="1870.625" width="65" height="65" xlink:href="designspace-test/./img/ds_dataset1_40_20_thumb.png">
<title>20</title>
</image>
<image x="370.625" y="1420.625" width="65" height="65" xlink:href="designspace-test/./img/ds_dataset1_40_34_thumb.png">
<title>34</title>
</image>
<image x="220.625" y="1120.625" width="65" height="65" xlink:href="designspace-test/./img/ds_dataset1_40_0_thumb.png">
<title>0</title>
</image>
<image x="145.625" y="1420.625" width="65" height="65" xlink:href="designspace-test/./img/ds_dataset1_40_5_thumb.png">
<title>5</title>
</image>
<image x="70.625" y="1345.625" width="65" height="65" xlink:href="designspace-test/./img/ds_dataset1_40_7_thumb.png">
<title>7</title>
</image>
</svg>