<?xml version="1.0" encoding="UTF-8"?>
<svg xmlns="http://www.w3.org/2000/svg" xmlns:xlink="http://www.w3.org/1999/xlink"
     viewBox="0 0 2550 2550" preserveAspectRatio="xMidYMid meet">
<defs>
</defs>
<path d="M2423.625,1506.0795923149515 A48.72232222128787,48.72232222128787,0,0,1,2419.91623405538,1524.7248178153918 M2419.91623405538,1524.7248178153918 A48.72232222128834,48.72232222128834,0,0,1,2409.3545622165407,1540.5314767527802 M2409.3545622165407,1540.5314767527802" close="False" data-weight="1.0" stroke-width="7" fill="none" stroke="#1fa562" />
<path d="M2423.625,1431.0795923149515 C2423.625,1442.1022961574758,2423.625,1464.1477038425242,2423.625,1475.1704076850485" close="False" data-weight="0.0" stroke-width="7" fill="none" stroke="#1fa562" />
<path d="M2423.625,1356.0795923149515 C2423.625,1367.1022961574758,2423.625,1389.1477038425242,2423.625,1400.1704076850485" close="False" data-weight="0.0" stroke-width="7" fill="none" stroke="#1fa562" />
<path d="M2423.625,1281.0795923149515 C2423.625,1292.1022961574758,2423.625,1314.1477038425242,2423.625,1325.1704076850485" close="False" data-weight="0.0" stroke-width="7" fill="none" stroke="#1fa562" />
<path d="M2423.625,1206.0795923149515 C2423.625,1217.1022961574758,2423.625,1239.1477038425242,2423.625,1250.1704076850485" close="False" data-weight="0.0" stroke-width="7" fill="none" stroke="#1fa562" />
<path d="M2423.625,1475.1704076850485 L2423.625,1506.0795923149515" close="False" data-weight="1.75" stroke-width="7" fill="none" stroke="#1fa562" />
<path d="M2423.625,1400.1704076850485 L2423.625,1431.0795923149515" close="False" data-weight="1.75" stroke-width="7" fill="none" stroke="#1fa562" />
<path d="M2423.625,1325.1704076850485 L2423.625,1356.0795923149515" close="False" data-weight="1.75" stroke-width="7" fill="none" stroke="#1fa562" />
<path d="M2423.625,1250.1704076850485 L2423.625,1281.0795923149515" close="False" data-weight="1.75" stroke-width="7" fill="none" stroke="#1fa562" />
<path d="M2423.625,1175.1704076850485 L2423.625,1206.0795923149515" close="False" data-weight="1.75" stroke-width="7" fill="none" stroke="#1fa562" />
<path d="M2365.5314767527802,1621.8954377834593 L2409.3545622165407,1665.7185232472198" close="False" data-weight="2.060660171779821" stroke-width="7" fill="none" stroke="#1fa562" />
<path d="M2365.5314767527507,1584.3545622165705 L2409.3545622165407,1540.5314767527802" close="False" data-weight="2.060660171779821" stroke-width="7" fill="none" stroke="#1fa562" />
<path d="M2375.1704076850488,1148.625 C2364.1477038425246,1148.625,2342.1022961574754,1148.625,2331.0795923149512,1148.625" close="False" data-weight="0.0" stroke-width="7" fill="none" stroke="#ff1c5d" />
<path d="M2300.1704076850488,1148.625 A48.72232222128832,48.72232222128832,0,0,1,2281.525182184608,1144.9162340553798 M2281.525182184608,1144.9162340553798 A48.72232222128834,48.72232222128834,0,0,1,2265.7185232472198,1134.3545622165407 M2265.7185232472198,1134.3545622165407" close="False" data-weight="1.0" stroke-width="7" fill="none" stroke="#ff1c5d" />
<path d="M2221.8954377834893,1090.5314767528102 C2214.1012091494144,1082.7372481187354,2198.5127518812646,1067.1487908505856,2190.7185232471898,1059.3545622165107" close="False" data-weight="0.0" stroke-width="7" fill="none" stroke="#ff1c5d" />
<path d="M2146.8954377834593,1015.5314767527805 C2139.1012091493994,1007.7372481187206,2123.5127518812797,992.1487908506006,2115.7185232472198,984.3545622165407" close="False" data-weight="0.0" stroke-width="7" fill="none" stroke="#ff1c5d" />
<path d="M2071.8954377834893,940.5314767528105 C2064.1012091494144,932.7372481187356,2048.5127518812646,917.1487908505857,2040.7185232471898,909.3545622165108" close="False" data-weight="0.0" stroke-width="7" fill="none" stroke="#ff1c5d" />
<path d="M1996.8954377834596,865.5314767527807 C1989.1012091493994,857.7372481187207,1973.5127518812794,842.1487908506007,1965.7185232472195,834.3545622165407" close="False" data-weight="0.0" stroke-width="7" fill="none" stroke="#ff1c5d" />
<path d="M2375.1704076850488,1148.625 L2406.0795923149512,1148.625" close="False" data-weight="1.75" stroke-width="7" fill="none" stroke="#ff1c5d" />
<path d="M2300.1704076850488,1148.625 L2331.0795923149512,1148.625" close="False" data-weight="1.75" stroke-width="7" fill="none" stroke="#ff1c5d" />
<path d="M2221.8954377834893,1090.5314767528102 L2265.7185232472198,1134.3545622165407" close="False" data-weight="2.060660171779821" stroke-width="7" fill="none" stroke="#ff1c5d" />
<path d="M2146.8954377834593,1015.5314767527805 L2190.71852324719,1059.3545622165109" close="False" data-weight="2.060660171779821" stroke-width="7" fill="none" stroke="#ff1c5d" />
<path d="M2071.8954377834893,940.5314767528104 L2115.7185232472198,984.3545622165409" close="False" data-weight="2.060660171779821" stroke-width="7" fill="none" stroke="#ff1c5d" />
<path d="M1996.8954377834593,865.5314767527805 L2040.7185232472198,909.3545622165409" close="False" data-weight="2.060660171779821" stroke-width="7" fill="none" stroke="#ff1c5d" />
<path d="M1921.8954377834593,790.5314767527805 L1965.7185232472198,834.3545622165409" close="False" data-weight="2.060660171779821" stroke-width="7" fill="none" stroke="#ff1c5d" />
<path d="M2432.625,1506.0795923149515 A57.72232222129196,57.72232222129196,0,0,1,2428.2311498479817,1528.168968706678 M2428.2311498479817,1528.168968706678 A57.72232222128422,57.72232222128422,0,0,1,2415.7185232472198,1546.8954377834593 M2415.7185232472198,1546.8954377834593" close="False" data-weight="1.0" stroke-width="7" fill="none" stroke="#7cd3eb" />
<path d="M2432.625,1431.0795923149515 C2432.625,1442.1022961574758,2432.625,1464.1477038425242,2432.625,1475.1704076850485" close="False" data-weight="0.0" stroke-width="7" fill="none" stroke="#7cd3eb" />
<path d="M2432.625,1356.0795923149515 C2432.625,1367.1022961574758,2432.625,1389.1477038425242,2432.625,1400.1704076850485" close="False" data-weight="0.0" stroke-width="7" fill="none" stroke="#7cd3eb" />
<path d="M2432.625,1281.0795923149515 C2432.625,1292.1022961574758,2432.625,1314.1477038425242,2432.625,1325.1704076850485" close="False" data-weight="0.0" stroke-width="7" fill="none" stroke="#7cd3eb" />
<path d="M2432.625,1206.0795923149515 C2432.625,1217.1022961574758,2432.625,1239.1477038425242,2432.625,1250.1704076850485" close="False" data-weight="0.0" stroke-width="7" fill="none" stroke="#7cd3eb" />
<path d="M2369.0349025766973,1737.2150974233027 C2361.0799512883486,1745.1700487116514,2345.1700487116514,1761.0799512883486,2337.2150974233027,1769.0349025766973" close="False" data-weight="0.0" stroke-width="7" fill="none" stroke="#7cd3eb" />
<path d="M2375.1704076850488,1157.625 C2364.1477038425246,1157.625,2342.1022961574754,1157.625,2331.0795923149512,1157.625" close="False" data-weight="0.0" stroke-width="7" fill="none" stroke="#7cd3eb" />
<path d="M2294.0349025766973,1812.2150974233027 C2286.0799512883486,1820.1700487116514,2270.1700487116514,1836.0799512883486,2262.2150974233027,1844.0349025766973" close="False" data-weight="0.0" stroke-width="7" fill="none" stroke="#7cd3eb" />
<path d="M2300.1704076850488,1157.625 A57.72232222129219,57.72232222129219,0,0,1,2278.081031293322,1153.2311498479817 M2278.081031293322,1153.2311498479817 A57.72232222128471,57.72232222128471,0,0,1,2259.3545622165407,1140.7185232472198 M2259.3545622165407,1140.7185232472198" close="False" data-weight="1.0" stroke-width="7" fill="none" stroke="#7cd3eb" />
<path d="M2219.0349025766973,1887.2150974233027 C2211.0799512883486,1895.1700487116514,2195.1700487116514,1911.0799512883486,2187.2150974233027,1919.0349025766973" close="False" data-weight="0.0" stroke-width="7" fill="none" stroke="#7cd3eb" />
<path d="M2215.5314767527507,1096.8954377834295 C2207.737248118706,1089.1012091493844,2192.148790850615,1073.5127518812947,2184.3545622165702,1065.7185232472495" close="False" data-weight="0.0" stroke-width="7" fill="none" stroke="#7cd3eb" />
<path d="M2144.0349025766973,1962.2150974233027 A54.319805153391044,54.319805153391044,0,0,0,2132.259848962172,1979.8377105184957 M2132.259848962172,1979.8377105184957 A54.3198051533941,54.3198051533941,0,0,0,2128.125,2000.625 M2128.125,2000.625" close="False" data-weight="1.0" stroke-width="7" fill="none" stroke="#7cd3eb" />
<path d="M2140.5314767527802,1021.8954377834593 C2132.7372481187203,1014.1012091493994,2117.1487908506006,998.5127518812794,2109.3545622165407,990.7185232472195" close="False" data-weight="0.0" stroke-width="7" fill="none" stroke="#7cd3eb" />
<path d="M2065.53147675275,946.8954377834293 C2057.7372481186976,939.1012091493769,2042.148790850593,923.5127518812719,2034.3545622165407,915.7185232472195" close="False" data-weight="0.0" stroke-width="7" fill="none" stroke="#7cd3eb" />
<path d="M1990.5314767527802,871.8954377834591 C1982.7372481187203,864.1012091493992,1967.1487908506006,848.5127518812794,1959.3545622165407,840.7185232472195" close="False" data-weight="0.0" stroke-width="7" fill="none" stroke="#7cd3eb" />
<path d="M1832.625,981.0795923149514 C1832.625,992.1022961574756,1832.625,1014.1477038425243,1832.625,1025.1704076850485" close="False" data-weight="0.0" stroke-width="7" fill="none" stroke="#7cd3eb" />
<path d="M1832.625,906.0795923149514 C1832.625,917.1022961574756,1832.625,939.1477038425244,1832.625,950.1704076850486" close="False" data-weight="0.0" stroke-width="7" fill="none" stroke="#7cd3eb" />
<path d="M1846.8954377834596,840.7185232472193 A48.72232222128802,48.72232222128802,0,0,0,1836.3337659446204,856.5251821846081 M1836.3337659446204,856.5251821846081 A48.72232222128969,48.72232222128969,0,0,0,1832.625,875.1704076850486 M1832.625,875.1704076850486" close="False" data-weight="1.0" stroke-width="7" fill="none" stroke="#7cd3eb" />
<path d="M1694.0349025766973,1137.2150974233027 C1686.0799512883486,1145.1700487116514,1670.1700487116514,1161.0799512883486,1662.2150974233027,1169.0349025766973" close="False" data-weight="0.0" stroke-width="7" fill="none" stroke="#7cd3eb" />
<path d="M1619.0349025766973,1212.2150974233027 C1611.0799512883486,1220.1700487116514,1595.1700487116514,1236.0799512883486,1587.2150974233027,1244.0349025766973" close="False" data-weight="0.0" stroke-width="7" fill="none" stroke="#7cd3eb" />
<path d="M1544.0349025766973,1287.2150974233027 C1536.0799512883486,1295.1700487116514,1520.1700487116514,1311.0799512883486,1512.2150974233027,1319.0349025766973" close="False" data-weight="0.0" stroke-width="7" fill="none" stroke="#7cd3eb" />
<path d="M1469.0349025766973,1362.2150974233027 C1461.0799512883486,1370.1700487116514,1445.1700487116514,1386.0799512883486,1437.2150974233027,1394.0349025766973" close="False" data-weight="0.0" stroke-width="7" fill="none" stroke="#7cd3eb" />
<path d="M1394.0349025766973,1437.2150974233027 A54.3198051533949,54.3198051533949,0,0,1,1376.412289481504,1448.9901510378277 M1376.412289481504,1448.9901510378277 A54.3198051533941,54.3198051533941,0,0,1,1355.625,1453.125 M1355.625,1453.125" close="False" data-weight="1.0" stroke-width="7" fill="none" stroke="#7cd3eb" />
<path d="M1244.0349025766973,1587.2150974233027 C1236.0799512883486,1595.1700487116514,1220.1700487116514,1611.0799512883486,1212.2150974233027,1619.0349025766973" close="False" data-weight="0.0" stroke-width="7" fill="none" stroke="#7cd3eb" />
<path d="M1169.0349025766973,1662.2150974233027 C1161.0799512883486,1670.1700487116514,1145.1700487116514,1686.0799512883486,1137.2150974233027,1694.0349025766973" close="False" data-weight="0.0" stroke-width="7" fill="none" stroke="#7cd3eb" />
<path d="M1094.0349025766973,2219.0349025766973 C1086.0799512883486,2211.0799512883486,1070.1700487116514,2195.1700487116514,1062.2150974233027,2187.2150974233027" close="False" data-weight="0.0" stroke-width="7" fill="none" stroke="#7cd3eb" />
<path d="M1094.0349025766973,1737.2150974233027 C1086.0799512883486,1745.1700487116514,1070.1700487116514,1761.0799512883486,1062.2150974233027,1769.0349025766973" close="False" data-weight="0.0" stroke-width="7" fill="none" stroke="#7cd3eb" />
<path d="M1019.0349025766973,2144.0349025766973 C1011.0799512883486,2136.0799512883486,995.1700487116514,2120.1700487116514,987.2150974233027,2112.2150974233027" close="False" data-weight="0.0" stroke-width="7" fill="none" stroke="#7cd3eb" />
<path d="M1019.0349025766973,1812.2150974233027 C1011.0799512883486,1820.1700487116514,995.1700487116514,1836.0799512883486,987.2150974233027,1844.0349025766973" close="False" data-weight="0.0" stroke-width="7" fill="none" stroke="#7cd3eb" />
<path d="M944.0349025766973,2069.0349025766973 C936.0799512883486,2061.0799512883486,920.1700487116514,2045.1700487116514,912.2150974233027,2037.2150974233027" close="False" data-weight="0.0" stroke-width="7" fill="none" stroke="#7cd3eb" />
<path d="M2432.625,1475.1704076850485 L2432.625,1506.0795923149515" close="False" data-weight="1.75" stroke-width="7" fill="none" stroke="#7cd3eb" />
<path d="M2432.625,1400.1704076850485 L2432.625,1431.0795923149515" close="False" data-weight="1.75" stroke-width="7" fill="none" stroke="#7cd3eb" />
<path d="M2432.625,1325.1704076850485 L2432.625,1356.0795923149515" close="False" data-weight="1.75" stroke-width="7" fill="none" stroke="#7cd3eb" />
<path d="M2432.625,1250.1704076850485 L2432.625,1281.0795923149515" close="False" data-weight="1.75" stroke-width="7" fill="none" stroke="#7cd3eb" />
<path d="M2432.625,1175.1704076850485 L2432.625,1206.0795923149515" close="False" data-weight="1.75" stroke-width="7" fill="none" stroke="#7cd3eb" />
<path d="M2369.0349025766973,1737.2150974233027 L2412.2150974233027,1694.0349025766973" close="False" data-weight="2.060660171779821" stroke-width="7" fill="none" stroke="#7cd3eb" />
<path d="M2371.8954377834593,1615.5314767527802 L2415.7185232472198,1659.3545622165407" close="False" data-weight="2.060660171779821" stroke-width="7" fill="none" stroke="#7cd3eb" />
<path d="M2371.8954377834893,1590.7185232471898 L2415.7185232472198,1546.8954377834593" close="False" data-weight="2.060660171779821" stroke-width="7" fill="none" stroke="#7cd3eb" />
<path d="M2375.1704076850488,1157.625 L2406.0795923149512,1157.625" close="False" data-weight="1.75" stroke-width="7" fill="none" stroke="#7cd3eb" />
<path d="M2294.0349025766973,1812.2150974233027 L2337.2150974233027,1769.0349025766973" close="False" data-weight="2.060660171779821" stroke-width="7" fill="none" stroke="#7cd3eb" />
<path d="M2300.1704076850488,1157.625 L2331.0795923149512,1157.625" close="False" data-weight="1.75" stroke-width="7" fill="none" stroke="#7cd3eb" />
<path d="M2219.0349025766973,1887.2150974233027 L2262.2150974233027,1844.0349025766973" close="False" data-weight="2.060660171779821" stroke-width="7" fill="none" stroke="#7cd3eb" />
<path d="M2215.5314767527507,1096.8954377834295 L2259.3545622165407,1140.7185232472198" close="False" data-weight="2.060660171779821" stroke-width="7" fill="none" stroke="#7cd3eb" />
<path d="M2128.125,2300.625 L2128.125,2330.625" close="False" data-weight="1.75" stroke-width="7" fill="none" stroke="#7cd3eb" />
<path d="M2128.125,2150.625 L2128.125,2180.625" close="False" data-weight="1.75" stroke-width="7" fill="none" stroke="#7cd3eb" />
<path d="M2128.125,2000.625 L2128.125,2030.625" close="False" data-weight="1.75" stroke-width="7" fill="none" stroke="#7cd3eb" />
<path d="M2144.0349025766973,1962.2150974233027 L2187.2150974233027,1919.0349025766973" close="False" data-weight="2.060660171779821" stroke-width="7" fill="none" stroke="#7cd3eb" />
<path d="M2140.5314767527802,1021.8954377834593 L2184.3545622165702,1065.7185232472493" close="False" data-weight="2.060660171779821" stroke-width="7" fill="none" stroke="#7cd3eb" />
<path d="M2053.125,2375.625 L2053.125,2405.625" close="False" data-weight="1.75" stroke-width="7" fill="none" stroke="#7cd3eb" />
<path d="M2075.625,2353.125 L2105.625,2353.125" close="False" data-weight="1.75" stroke-width="7" fill="none" stroke="#7cd3eb" />
<path d="M2075.625,2278.125 L2105.625,2278.125" close="False" data-weight="1.75" stroke-width="7" fill="none" stroke="#7cd3eb" />
<path d="M2075.625,2203.125 L2105.625,2203.125" close="False" data-weight="1.75" stroke-width="7" fill="none" stroke="#7cd3eb" />
<path d="M2075.625,2128.125 L2105.625,2128.125" close="False" data-weight="1.75" stroke-width="7" fill="none" stroke="#7cd3eb" />
<path d="M2053.125,2075.625 L2053.125,2105.625" close="False" data-weight="1.75" stroke-width="7" fill="none" stroke="#7cd3eb" />
<path d="M2075.625,2053.125 L2105.625,2053.125" close="False" data-weight="1.75" stroke-width="7" fill="none" stroke="#7cd3eb" />
<path d="M2065.5314767527507,946.8954377834294 L2109.35456221654,990.7185232472193" close="False" data-weight="2.060660171779821" stroke-width="7" fill="none" stroke="#7cd3eb" />
<path d="M2000.625,2278.125 L2030.625,2278.125" close="False" data-weight="1.75" stroke-width="7" fill="none" stroke="#7cd3eb" />
<path d="M1978.125,2225.625 L1978.125,2255.625" close="False" data-weight="1.75" stroke-width="7" fill="none" stroke="#7cd3eb" />
<path d="M2000.625,2203.125 L2030.625,2203.125" close="False" data-weight="1.75" stroke-width="7" fill="none" stroke="#7cd3eb" />
<path d="M1990.5314767527805,871.8954377834593 L2034.3545622165404,915.7185232472193" close="False" data-weight="2.060660171779821" stroke-width="7" fill="none" stroke="#7cd3eb" />
<path d="M1915.5314767527805,796.8954377834593 L1959.3545622165404,840.7185232472193" close="False" data-weight="2.060660171779821" stroke-width="7" fill="none" stroke="#7cd3eb" />
<path d="M1832.625,1025.1704076850485 L1832.625,1056.0795923149515" close="False" data-weight="1.75" stroke-width="7" fill="none" stroke="#7cd3eb" />
<path d="M1832.625,950.1704076850486 L1832.625,981.0795923149514" close="False" data-weight="1.75" stroke-width="7" fill="none" stroke="#7cd3eb" />
<path d="M1832.625,875.1704076850486 L1832.625,906.0795923149514" close="False" data-weight="1.75" stroke-width="7" fill="none" stroke="#7cd3eb" />
<path d="M1846.8954377834593,840.7185232472195 L1890.7185232472198,796.8954377834591" close="False" data-weight="2.060660171779821" stroke-width="7" fill="none" stroke="#7cd3eb" />
<path d="M1775.1704076850485,1082.625 L1806.0795923149515,1082.625" close="False" data-weight="1.75" stroke-width="7" fill="none" stroke="#7cd3eb" />
<path d="M1694.0349025766973,1137.2150974233027 L1737.2150974233027,1094.0349025766973" close="False" data-weight="2.060660171779821" stroke-width="7" fill="none" stroke="#7cd3eb" />
<path d="M1619.0349025766973,1212.2150974233027 L1662.2150974233027,1169.0349025766973" close="False" data-weight="2.060660171779821" stroke-width="7" fill="none" stroke="#7cd3eb" />
<path d="M1544.0349025766973,1287.2150974233027 L1587.2150974233027,1244.0349025766973" close="False" data-weight="2.060660171779821" stroke-width="7" fill="none" stroke="#7cd3eb" />
<path d="M1469.0349025766973,1362.2150974233027 L1512.2150974233027,1319.0349025766973" close="False" data-weight="2.060660171779821" stroke-width="7" fill="none" stroke="#7cd3eb" />
<path d="M1394.0349025766973,1437.2150974233027 L1437.2150974233027,1394.0349025766973" close="False" data-weight="2.060660171779821" stroke-width="7" fill="none" stroke="#7cd3eb" />
<path d="M1307.625,1475.1704076850485 L1307.625,1506.0795923149515" close="False" data-weight="1.75" stroke-width="7" fill="none" stroke="#7cd3eb" />
<path d="M1325.625,1453.125 L1355.625,1453.125" close="False" data-weight="1.75" stroke-width="7" fill="none" stroke="#7cd3eb" />
<path d="M1223.625,2375.1704076850488 L1223.625,2406.0795923149512" close="False" data-weight="1.75" stroke-width="7" fill="none" stroke="#7cd3eb" />
<path d="M1244.0349025766973,1587.2150974233027 L1287.2150974233027,1544.0349025766973" close="False" data-weight="2.060660171779821" stroke-width="7" fill="none" stroke="#7cd3eb" />
<path d="M1175.1704076850485,2357.625 L1206.0795923149515,2357.625" close="False" data-weight="1.75" stroke-width="7" fill="none" stroke="#7cd3eb" />
<path d="M1148.625,2300.1704076850488 L1148.625,2331.0795923149512" close="False" data-weight="1.75" stroke-width="7" fill="none" stroke="#7cd3eb" />
<path d="M1169.0349025766973,1662.2150974233027 L1212.2150974233027,1619.0349025766973" close="False" data-weight="2.060660171779821" stroke-width="7" fill="none" stroke="#7cd3eb" />
<path d="M1094.0349025766973,2219.0349025766973 L1137.2150974233027,2262.2150974233027" close="False" data-weight="2.060660171779821" stroke-width="7" fill="none" stroke="#7cd3eb" />
<path d="M1094.0349025766973,1737.2150974233027 L1137.2150974233027,1694.0349025766973" close="False" data-weight="2.060660171779821" stroke-width="7" fill="none" stroke="#7cd3eb" />
<path d="M1019.0349025766973,2144.0349025766973 L1062.2150974233027,2187.2150974233027" close="False" data-weight="2.060660171779821" stroke-width="7" fill="none" stroke="#7cd3eb" />
<path d="M1019.0349025766973,1812.2150974233027 L1062.2150974233027,1769.0349025766973" close="False" data-weight="2.060660171779821" stroke-width="7" fill="none" stroke="#7cd3eb" />
<path d="M944.0349025766973,2069.0349025766973 L987.2150974233027,2112.2150974233027" close="False" data-weight="2.060660171779821" stroke-width="7" fill="none" stroke="#7cd3eb" />
<path d="M944.0349025766973,1887.2150974233027 L987.2150974233027,1844.0349025766973" close="False" data-weight="2.060660171779821" stroke-width="7" fill="none" stroke="#7cd3eb" />
<path d="M869.0349025766973,1994.0349025766973 L912.2150974233027,2037.2150974233027" close="False" data-weight="2.060660171779821" stroke-width="7" fill="none" stroke="#7cd3eb" />
<path d="M853.125,1925.625 L853.125,1955.625" close="False" data-weight="1.75" stroke-width="7" fill="none" stroke="#7cd3eb" />
<path d="M875.1704076850486,1907.625 L906.0795923149514,1907.625" close="False" data-weight="1.75" stroke-width="7" fill="none" stroke="#7cd3eb" />
<path d="M1244.0349025766973,1512.2150974233027 C1236.0799512883486,1520.1700487116514,1220.1700487116514,1536.0799512883486,1212.2150974233027,1544.0349025766973" close="False" data-weight="0.0" stroke-width="7" fill="none" stroke="#8f0f12" />
<path d="M1169.0349025766973,1587.2150974233027 C1161.0799512883486,1595.1700487116514,1145.1700487116514,1611.0799512883486,1137.2150974233027,1619.0349025766973" close="False" data-weight="0.0" stroke-width="7" fill="none" stroke="#8f0f12" />
<path d="M1094.0349025766973,1662.2150974233027 C1086.0799512883486,1670.1700487116514,1070.1700487116514,1686.0799512883486,1062.2150974233027,1694.0349025766973" close="False" data-weight="0.0" stroke-width="7" fill="none" stroke="#8f0f12" />
<path d="M1019.0349025766973,1737.2150974233027 C1011.0799512883486,1745.1700487116514,995.1700487116514,1761.0799512883486,987.2150974233027,1769.0349025766973" close="False" data-weight="0.0" stroke-width="7" fill="none" stroke="#8f0f12" />
<path d="M944.0349025766973,1812.2150974233027 A54.31980515339514,54.31980515339514,0,0,0,932.2598489621722,1829.837710518496 M932.2598489621722,1829.837710518496 A54.319805153393986,54.319805153393986,0,0,0,928.125,1850.625 M928.125,1850.625" close="False" data-weight="1.0" stroke-width="7" fill="none" stroke="#8f0f12" />
<path d="M794.0349025766973,1919.0349025766973 C786.0799512883486,1911.0799512883486,770.1700487116514,1895.1700487116514,762.2150974233027,1887.2150974233027" close="False" data-weight="0.0" stroke-width="7" fill="none" stroke="#8f0f12" />
<path d="M719.0349025766973,1844.0349025766973 C711.0799512883486,1836.0799512883486,695.1700487116514,1820.1700487116514,687.2150974233027,1812.2150974233027" close="False" data-weight="0.0" stroke-width="7" fill="none" stroke="#8f0f12" />
<path d="M715.5314767527806,534.3545622165406 C707.7372481187206,542.1487908506006,692.1487908506007,557.7372481187205,684.3545622165407,565.5314767527805" close="False" data-weight="0.0" stroke-width="7" fill="none" stroke="#8f0f12" />
<path d="M644.0349025766973,1769.0349025766973 C636.0799512883486,1761.0799512883486,620.1700487116514,1745.1700487116514,612.2150974233027,1737.2150974233027" close="False" data-weight="0.0" stroke-width="7" fill="none" stroke="#8f0f12" />
<path d="M640.5314767527805,609.3545622165407 C632.7372481187206,617.1487908506006,617.1487908506006,632.7372481187206,609.3545622165407,640.5314767527805" close="False" data-weight="0.0" stroke-width="7" fill="none" stroke="#8f0f12" />
<path d="M569.0349025766973,1694.0349025766973 A54.31980515339554,54.31980515339554,0,0,0,551.412289481504,1682.259848962172 M551.412289481504,1682.259848962172 A54.319805153393645,54.319805153393645,0,0,0,530.625,1678.125 M530.625,1678.125" close="False" data-weight="1.0" stroke-width="7" fill="none" stroke="#8f0f12" />
<path d="M565.5314767527805,684.3545622165407 A103.64933488289945,103.64933488289945,0,0,1,549.5937766731979,697.3986142187191 M549.5937766731979,697.3986142187191 A34.2804342555047,34.2804342555047,0,0,1,530.625,703.125 M530.625,703.125" close="False" data-weight="1.0" stroke-width="7" fill="none" stroke="#8f0f12" />
<path d="M500.625,1678.125 C489.375,1678.125,466.875,1678.125,455.625,1678.125" close="False" data-weight="0.0" stroke-width="7" fill="none" stroke="#8f0f12" />
<path d="M500.625,703.125 C489.375,703.125,466.875,703.125,455.625,703.125" close="False" data-weight="0.0" stroke-width="7" fill="none" stroke="#8f0f12" />
<path d="M425.625,1678.125 C414.375,1678.125,391.875,1678.125,380.625,1678.125" close="False" data-weight="0.0" stroke-width="7" fill="none" stroke="#8f0f12" />
<path d="M425.625,703.125 C414.375,703.125,391.875,703.125,380.625,703.125" close="False" data-weight="0.0" stroke-width="7" fill="none" stroke="#8f0f12" />
<path d="M350.625,1678.125 C339.375,1678.125,316.875,1678.125,305.625,1678.125" close="False" data-weight="0.0" stroke-width="7" fill="none" stroke="#8f0f12" />
<path d="M275.625,1678.125 C264.375,1678.125,241.875,1678.125,230.625,1678.125" close="False" data-weight="0.0" stroke-width="7" fill="none" stroke="#8f0f12" />
<path d="M269.03490257669733,837.2150974233027 C261.0799512883487,845.1700487116514,245.1700487116513,861.0799512883486,237.21509742330267,869.0349025766973" close="False" data-weight="0.0" stroke-width="7" fill="none" stroke="#8f0f12" />
<path d="M200.625,1678.125 C189.375,1678.125,166.875,1678.125,155.625,1678.125" close="False" data-weight="0.0" stroke-width="7" fill="none" stroke="#8f0f12" />
<path d="M194.0349025766973,912.2150974233027 C186.07995128834867,920.1700487116514,170.1700487116513,936.0799512883486,162.21509742330267,944.0349025766973" close="False" data-weight="0.0" stroke-width="7" fill="none" stroke="#8f0f12" />
<path d="M98.625,1581.0795923149515 C98.625,1592.1022961574758,98.625,1614.1477038425242,98.625,1625.1704076850485" close="False" data-weight="0.0" stroke-width="7" fill="none" stroke="#8f0f12" />
<path d="M98.625,1506.0795923149515 C98.625,1517.1022961574758,98.625,1539.1477038425242,98.625,1550.1704076850485" close="False" data-weight="0.0" stroke-width="7" fill="none" stroke="#8f0f12" />
<path d="M103.125,1430.625 C103.125,1441.8180317213075,98.625,1463.977375963741,98.625,1475.1704076850485" close="False" data-weight="0.0" stroke-width="7" fill="none" stroke="#8f0f12" />
<path d="M103.125,1355.625 C103.125,1366.875,103.125,1389.375,103.125,1400.625" close="False" data-weight="0.0" stroke-width="7" fill="none" stroke="#8f0f12" />
<path d="M103.125,1280.625 C103.125,1291.875,103.125,1314.375,103.125,1325.625" close="False" data-weight="0.0" stroke-width="7" fill="none" stroke="#8f0f12" />
<path d="M103.125,1205.625 C103.125,1216.875,103.125,1239.375,103.125,1250.625" close="False" data-weight="0.0" stroke-width="7" fill="none" stroke="#8f0f12" />
<path d="M103.125,1130.625 C103.125,1141.875,103.125,1164.375,103.125,1175.625" close="False" data-weight="0.0" stroke-width="7" fill="none" stroke="#8f0f12" />
<path d="M103.125,1055.625 C103.125,1066.875,103.125,1089.375,103.125,1100.625" close="False" data-weight="0.0" stroke-width="7" fill="none" stroke="#8f0f12" />
<path d="M119.0349025766973,987.2150974233027 A54.3198051533949,54.3198051533949,0,0,0,107.25984896217216,1004.8377105184961 M107.25984896217216,1004.8377105184961 A54.31980515339427,54.31980515339427,0,0,0,103.125,1025.625 M103.125,1025.625" close="False" data-weight="1.0" stroke-width="7" fill="none" stroke="#8f0f12" />
<path d="M1298.625,1475.1704076850485 L1298.625,1506.0795923149515" close="False" data-weight="1.75" stroke-width="7" fill="none" stroke="#8f0f12" />
<path d="M1244.0349025766973,1512.2150974233027 L1287.2150974233027,1469.0349025766973" close="False" data-weight="2.060660171779821" stroke-width="7" fill="none" stroke="#8f0f12" />
<path d="M1169.0349025766973,1587.2150974233027 L1212.2150974233027,1544.0349025766973" close="False" data-weight="2.060660171779821" stroke-width="7" fill="none" stroke="#8f0f12" />
<path d="M1094.0349025766973,1662.2150974233027 L1137.2150974233027,1619.0349025766973" close="False" data-weight="2.060660171779821" stroke-width="7" fill="none" stroke="#8f0f12" />
<path d="M1019.0349025766973,1737.2150974233027 L1062.2150974233027,1694.0349025766973" close="False" data-weight="2.060660171779821" stroke-width="7" fill="none" stroke="#8f0f12" />
<path d="M928.125,1850.625 L928.125,1880.625" close="False" data-weight="1.75" stroke-width="7" fill="none" stroke="#8f0f12" />
<path d="M944.0349025766973,1812.2150974233027 L987.2150974233027,1769.0349025766973" close="False" data-weight="2.060660171779821" stroke-width="7" fill="none" stroke="#8f0f12" />
<path d="M844.125,1923.7465906273012 L844.125,1957.5034093726988" close="False" data-weight="1.75" stroke-width="7" fill="none" stroke="#8f0f12" />
<path d="M875.1704076850486,1898.625 L906.0795923149514,1898.625" close="False" data-weight="1.75" stroke-width="7" fill="none" stroke="#8f0f12" />
<path d="M794.0349025766973,1919.0349025766973 L837.2150974233027,1962.2150974233027" close="False" data-weight="2.060660171779821" stroke-width="7" fill="none" stroke="#8f0f12" />
<path d="M773.625,425.1704076850486 L773.625,456.0795923149514" close="False" data-weight="1.75" stroke-width="7" fill="none" stroke="#8f0f12" />
<path d="M719.0349025766973,1844.0349025766973 L762.2150974233027,1887.2150974233027" close="False" data-weight="2.060660171779821" stroke-width="7" fill="none" stroke="#8f0f12" />
<path d="M715.5314767527805,534.3545622165407 L759.3545622165407,490.53147675278046" close="False" data-weight="2.060660171779821" stroke-width="7" fill="none" stroke="#8f0f12" />
<path d="M644.0349025766973,1769.0349025766973 L687.2150974233027,1812.2150974233027" close="False" data-weight="2.060660171779821" stroke-width="7" fill="none" stroke="#8f0f12" />
<path d="M640.5314767527805,609.3545622165407 L684.3545622165407,565.5314767527805" close="False" data-weight="2.060660171779821" stroke-width="7" fill="none" stroke="#8f0f12" />
<path d="M569.0349025766973,1694.0349025766973 L612.2150974233027,1737.2150974233027" close="False" data-weight="2.060660171779821" stroke-width="7" fill="none" stroke="#8f0f12" />
<path d="M565.5314767527805,684.3545622165407 L609.3545622165407,640.5314767527805" close="False" data-weight="2.060660171779821" stroke-width="7" fill="none" stroke="#8f0f12" />
<path d="M500.625,1678.125 L530.625,1678.125" close="False" data-weight="1.75" stroke-width="7" fill="none" stroke="#8f0f12" />
<path d="M500.625,703.125 L530.625,703.125" close="False" data-weight="1.75" stroke-width="7" fill="none" stroke="#8f0f12" />
<path d="M425.625,1678.125 L455.625,1678.125" close="False" data-weight="1.75" stroke-width="7" fill="none" stroke="#8f0f12" />
<path d="M425.625,703.125 L455.625,703.125" close="False" data-weight="1.75" stroke-width="7" fill="none" stroke="#8f0f12" />
<path d="M350.625,1678.125 L380.625,1678.125" close="False" data-weight="1.75" stroke-width="7" fill="none" stroke="#8f0f12" />
<path d="M328.125,725.625 L328.125,755.625" close="False" data-weight="1.75" stroke-width="7" fill="none" stroke="#8f0f12" />
<path d="M350.625,703.125 L380.625,703.125" close="False" data-weight="1.75" stroke-width="7" fill="none" stroke="#8f0f12" />
<path d="M275.625,1678.125 L305.625,1678.125" close="False" data-weight="1.75" stroke-width="7" fill="none" stroke="#8f0f12" />
<path d="M269.03490257669733,837.2150974233027 L312.21509742330267,794.0349025766973" close="False" data-weight="2.060660171779821" stroke-width="7" fill="none" stroke="#8f0f12" />
<path d="M200.625,1678.125 L230.625,1678.125" close="False" data-weight="1.75" stroke-width="7" fill="none" stroke="#8f0f12" />
<path d="M194.03490257669733,912.2150974233027 L237.2150974233027,869.0349025766973" close="False" data-weight="2.060660171779821" stroke-width="7" fill="none" stroke="#8f0f12" />
<path d="M125.625,1678.125 L155.625,1678.125" close="False" data-weight="1.75" stroke-width="7" fill="none" stroke="#8f0f12" />
<path d="M98.625,1625.1704076850485 L98.625,1656.0795923149515" close="False" data-weight="1.75" stroke-width="7" fill="none" stroke="#8f0f12" />
<path d="M98.625,1550.1704076850485 L98.625,1581.0795923149515" close="False" data-weight="1.75" stroke-width="7" fill="none" stroke="#8f0f12" />
<path d="M98.625,1475.1704076850485 L98.625,1506.0795923149515" close="False" data-weight="1.75" stroke-width="7" fill="none" stroke="#8f0f12" />
<path d="M103.125,1400.625 L103.125,1430.625" close="False" data-weight="1.75" stroke-width="7" fill="none" stroke="#8f0f12" />
<path d="M103.125,1325.625 L103.125,1355.625" close="False" data-weight="1.75" stroke-width="7" fill="none" stroke="#8f0f12" />
<path d="M103.125,1250.625 L103.125,1280.625" close="False" data-weight="1.75" stroke-width="7" fill="none" stroke="#8f0f12" />
<path d="M103.125,1175.625 L103.125,1205.625" close="False" data-weight="1.75" stroke-width="7" fill="none" stroke="#8f0f12" />
<path d="M103.125,1100.625 L103.125,1130.625" close="False" data-weight="1.75" stroke-width="7" fill="none" stroke="#8f0f12" />
<path d="M103.125,1025.625 L103.125,1055.625" close="False" data-weight="1.75" stroke-width="7" fill="none" stroke="#8f0f12" />
<path d="M119.03490257669732,987.2150974233027 L162.2150974233027,944.0349025766973" close="False" data-weight="2.060660171779821" stroke-width="7" fill="none" stroke="#8f0f12" />
<path d="M1153.125,2180.625 C1153.125,2191.875,1153.125,2214.375,1153.125,2225.625" close="False" data-weight="0.0" stroke-width="7" fill="none" stroke="#90ea66" />
<path d="M1153.125,2150.625 A54.31980515339296,54.31980515339296,0,0,0,1148.9901510378277,2129.8377105184964 M1148.9901510378277,2129.8377105184964 A54.31980515340005,54.31980515340005,0,0,0,1137.2150974233027,2112.2150974233027 M1137.2150974233027,2112.2150974233027" close="False" data-weight="1.0" stroke-width="7" fill="none" stroke="#90ea66" />
<path d="M1094.0349025766973,2069.0349025766973 C1086.0799512883486,2061.0799512883486,1070.1700487116514,2045.1700487116514,1062.2150974233027,2037.2150974233027" close="False" data-weight="0.0" stroke-width="7" fill="none" stroke="#90ea66" />
<path d="M1019.0349025766973,1994.0349025766973 C1011.0799512883486,1986.0799512883486,995.1700487116514,1970.1700487116514,987.2150974233027,1962.2150974233027" close="False" data-weight="0.0" stroke-width="7" fill="none" stroke="#90ea66" />
<path d="M800.625,1903.125 C789.375,1903.125,766.875,1903.125,755.625,1903.125" close="False" data-weight="0.0" stroke-width="7" fill="none" stroke="#90ea66" />
<path d="M725.625,1903.125 A54.31980515339637,54.31980515339637,0,0,1,704.837710518496,1898.990151037828 M704.837710518496,1898.990151037828 A54.31980515339273,54.31980515339273,0,0,1,687.2150974233027,1887.2150974233027 M687.2150974233027,1887.2150974233027" close="False" data-weight="1.0" stroke-width="7" fill="none" stroke="#90ea66" />
<path d="M644.0349025766973,1844.0349025766973 C636.0799512883486,1836.0799512883486,620.1700487116514,1820.1700487116514,612.2150974233027,1812.2150974233027" close="False" data-weight="0.0" stroke-width="7" fill="none" stroke="#90ea66" />
<path d="M569.0349025766973,1769.0349025766973 C561.0799512883486,1761.0799512883486,545.1700487116514,1745.1700487116514,537.2150974233027,1737.2150974233027" close="False" data-weight="0.0" stroke-width="7" fill="none" stroke="#90ea66" />
<path d="M494.03490257669733,1694.0349025766973 C486.0799512883487,1686.0799512883486,470.1700487116513,1670.1700487116514,462.21509742330267,1662.2150974233027" close="False" data-weight="0.0" stroke-width="7" fill="none" stroke="#90ea66" />
<path d="M419.03490257669733,1619.0349025766973 C411.0799512883487,1611.0799512883486,395.1700487116513,1595.1700487116514,387.21509742330267,1587.2150974233027" close="False" data-weight="0.0" stroke-width="7" fill="none" stroke="#90ea66" />
<path d="M344.03490257669733,1544.0349025766973 C336.0799512883487,1536.0799512883486,320.1700487116513,1520.1700487116514,312.21509742330267,1512.2150974233027" close="False" data-weight="0.0" stroke-width="7" fill="none" stroke="#90ea66" />
<path d="M269.03490257669733,1469.0349025766973 C261.0799512883487,1461.0799512883486,245.1700487116513,1445.1700487116514,237.21509742330267,1437.2150974233027" close="False" data-weight="0.0" stroke-width="7" fill="none" stroke="#90ea66" />
<path d="M103.125,2255.625 C103.125,2266.875,103.125,2289.375,103.125,2300.625" close="False" data-weight="0.0" stroke-width="7" fill="none" stroke="#90ea66" />
<path d="M103.125,2180.625 C103.125,2191.875,103.125,2214.375,103.125,2225.625" close="False" data-weight="0.0" stroke-width="7" fill="none" stroke="#90ea66" />
<path d="M103.125,2105.625 C103.125,2116.875,103.125,2139.375,103.125,2150.625" close="False" data-weight="0.0" stroke-width="7" fill="none" stroke="#90ea66" />
<path d="M103.125,2030.625 C103.125,2041.875,103.125,2064.375,103.125,2075.625" close="False" data-weight="0.0" stroke-width="7" fill="none" stroke="#90ea66" />
<path d="M103.125,1955.625 C103.125,1966.875,103.125,1989.375,103.125,2000.625" close="False" data-weight="0.0" stroke-width="7" fill="none" stroke="#90ea66" />
<path d="M103.125,1880.625 C103.125,1891.875,103.125,1914.375,103.125,1925.625" close="False" data-weight="0.0" stroke-width="7" fill="none" stroke="#90ea66" />
<path d="M103.125,1805.625 C103.125,1816.875,103.125,1839.375,103.125,1850.625" close="False" data-weight="0.0" stroke-width="7" fill="none" stroke="#90ea66" />
<path d="M103.125,1730.625 C103.125,1741.875,103.125,1764.375,103.125,1775.625" close="False" data-weight="0.0" stroke-width="7" fill="none" stroke="#90ea66" />
<path d="M107.625,1581.0795923149515 C107.625,1592.1022961574758,107.625,1614.1477038425242,107.625,1625.1704076850485" close="False" data-weight="0.0" stroke-width="7" fill="none" stroke="#90ea66" />
<path d="M107.625,1506.0795923149515 C107.625,1517.1022961574758,107.625,1539.1477038425242,107.625,1550.1704076850485" close="False" data-weight="0.0" stroke-width="7" fill="none" stroke="#90ea66" />
<path d="M119.0349025766973,1437.2150974233027 A34.28043425550448,34.28043425550448,0,0,0,109.67111817789987,1454.677214257368 M109.67111817789987,1454.677214257368 A103.64933488289893,103.64933488289893,0,0,0,107.625,1475.1704076850485 M107.625,1475.1704076850485" close="False" data-weight="1.0" stroke-width="7" fill="none" stroke="#90ea66" />
<path d="M1232.625,2375.1704076850488 L1232.625,2406.0795923149512" close="False" data-weight="1.75" stroke-width="7" fill="none" stroke="#90ea66" />
<path d="M1175.1704076850485,2348.625 L1206.0795923149515,2348.625" close="False" data-weight="1.75" stroke-width="7" fill="none" stroke="#90ea66" />
<path d="M1157.625,2300.1704076850488 L1157.625,2331.0795923149512" close="False" data-weight="1.75" stroke-width="7" fill="none" stroke="#90ea66" />
<path d="M1153.125,2225.625 L1153.125,2255.625" close="False" data-weight="1.75" stroke-width="7" fill="none" stroke="#90ea66" />
<path d="M1153.125,2150.625 L1153.125,2180.625" close="False" data-weight="1.75" stroke-width="7" fill="none" stroke="#90ea66" />
<path d="M1094.0349025766973,2069.0349025766973 L1137.2150974233027,2112.2150974233027" close="False" data-weight="2.060660171779821" stroke-width="7" fill="none" stroke="#90ea66" />
<path d="M1019.0349025766973,1994.0349025766973 L1062.2150974233027,2037.2150974233027" close="False" data-weight="2.060660171779821" stroke-width="7" fill="none" stroke="#90ea66" />
<path d="M944.0349025766973,1919.0349025766973 L987.2150974233027,1962.2150974233027" close="False" data-weight="2.060660171779821" stroke-width="7" fill="none" stroke="#90ea66" />
<path d="M869.0349025766973,1962.2150974233027 L912.2150974233027,1919.0349025766973" close="False" data-weight="2.060660171779821" stroke-width="7" fill="none" stroke="#90ea66" />
<path d="M862.125,1923.7465906273012 L862.125,1957.5034093726988" close="False" data-weight="1.75" stroke-width="7" fill="none" stroke="#90ea66" />
<path d="M800.625,1903.125 L830.625,1903.125" close="False" data-weight="1.75" stroke-width="7" fill="none" stroke="#90ea66" />
<path d="M725.625,1903.125 L755.625,1903.125" close="False" data-weight="1.75" stroke-width="7" fill="none" stroke="#90ea66" />
<path d="M644.0349025766973,1844.0349025766973 L687.2150974233027,1887.2150974233027" close="False" data-weight="2.060660171779821" stroke-width="7" fill="none" stroke="#90ea66" />
<path d="M569.0349025766973,1769.0349025766973 L612.2150974233027,1812.2150974233027" close="False" data-weight="2.060660171779821" stroke-width="7" fill="none" stroke="#90ea66" />
<path d="M494.03490257669733,1694.0349025766973 L537.2150974233027,1737.2150974233027" close="False" data-weight="2.060660171779821" stroke-width="7" fill="none" stroke="#90ea66" />
<path d="M419.03490257669733,1619.0349025766973 L462.21509742330267,1662.2150974233027" close="False" data-weight="2.060660171779821" stroke-width="7" fill="none" stroke="#90ea66" />
<path d="M344.03490257669733,1544.0349025766973 L387.21509742330267,1587.2150974233027" close="False" data-weight="2.060660171779821" stroke-width="7" fill="none" stroke="#90ea66" />
<path d="M269.03490257669733,1469.0349025766973 L312.21509742330267,1512.2150974233027" close="False" data-weight="2.060660171779821" stroke-width="7" fill="none" stroke="#90ea66" />
<path d="M178.125,2375.625 L178.125,2405.625" close="False" data-weight="1.75" stroke-width="7" fill="none" stroke="#90ea66" />
<path d="M178.125,2300.625 L178.125,2330.625" close="False" data-weight="1.75" stroke-width="7" fill="none" stroke="#90ea66" />
<path d="M194.03490257669733,1394.0349025766973 L237.2150974233027,1437.2150974233027" close="False" data-weight="2.060660171779821" stroke-width="7" fill="none" stroke="#90ea66" />
<path d="M119.03490257669732,2369.0349025766973 L162.2150974233027,2412.2150974233027" close="False" data-weight="2.060660171779821" stroke-width="7" fill="none" stroke="#90ea66" />
<path d="M103.125,2300.625 L103.125,2330.625" close="False" data-weight="1.75" stroke-width="7" fill="none" stroke="#90ea66" />
<path d="M103.125,2225.625 L103.125,2255.625" close="False" data-weight="1.75" stroke-width="7" fill="none" stroke="#90ea66" />
<path d="M103.125,2150.625 L103.125,2180.625" close="False" data-weight="1.75" stroke-width="7" fill="none" stroke="#90ea66" />
<path d="M103.125,2075.625 L103.125,2105.625" close="False" data-weight="1.75" stroke-width="7" fill="none" stroke="#90ea66" />
<path d="M103.125,2000.625 L103.125,2030.625" close="False" data-weight="1.75" stroke-width="7" fill="none" stroke="#90ea66" />
<path d="M103.125,1925.625 L103.125,1955.625" close="False" data-weight="1.75" stroke-width="7" fill="none" stroke="#90ea66" />
<path d="M103.125,1850.625 L103.125,1880.625" close="False" data-weight="1.75" stroke-width="7" fill="none" stroke="#90ea66" />
<path d="M103.125,1775.625 L103.125,1805.625" close="False" data-weight="1.75" stroke-width="7" fill="none" stroke="#90ea66" />
<path d="M103.125,1700.625 L103.125,1730.625" close="False" data-weight="1.75" stroke-width="7" fill="none" stroke="#90ea66" />
<path d="M107.625,1625.1704076850485 L107.625,1656.0795923149515" close="False" data-weight="1.75" stroke-width="7" fill="none" stroke="#90ea66" />
<path d="M107.625,1550.1704076850485 L107.625,1581.0795923149515" close="False" data-weight="1.75" stroke-width="7" fill="none" stroke="#90ea66" />
<path d="M107.625,1475.1704076850485 L107.625,1506.0795923149515" close="False" data-weight="1.75" stroke-width="7" fill="none" stroke="#90ea66" />
<path d="M119.03490257669732,1437.2150974233027 L162.2150974233027,1394.0349025766973" close="False" data-weight="2.060660171779821" stroke-width="7" fill="none" stroke="#90ea66" />
<path d="M1903.125,725.625 A54.31980515339637,54.31980515339637,0,0,0,1898.990151037828,704.837710518496 M1898.990151037828,704.837710518496 A54.31980515339273,54.31980515339273,0,0,0,1887.2150974233027,687.2150974233027 M1887.2150974233027,687.2150974233027" close="False" data-weight="1.0" stroke-width="7" fill="none" stroke="#35618f" />
<path d="M1823.625,981.0795923149514 C1823.625,992.1022961574756,1823.625,1014.1477038425243,1823.625,1025.1704076850485" close="False" data-weight="0.0" stroke-width="7" fill="none" stroke="#35618f" />
<path d="M1823.625,906.0795923149514 C1823.625,917.1022961574756,1823.625,939.1477038425244,1823.625,950.1704076850486" close="False" data-weight="0.0" stroke-width="7" fill="none" stroke="#35618f" />
<path d="M1840.5314767527802,834.3545622165409 A57.722322221287364,57.722322221287364,0,0,0,1828.0188501520186,853.0810312933224 M1828.0188501520186,853.0810312933224 A57.72232222128878,57.72232222128878,0,0,0,1823.625,875.1704076850486 M1823.625,875.1704076850486" close="False" data-weight="1.0" stroke-width="7" fill="none" stroke="#35618f" />
<path d="M1844.0349025766973,644.0349025766973 C1836.0799512883486,636.0799512883486,1820.1700487116514,620.1700487116514,1812.2150974233027,612.2150974233027" close="False" data-weight="0.0" stroke-width="7" fill="none" stroke="#35618f" />
<path d="M1769.0349025766973,569.0349025766973 C1761.0799512883486,561.0799512883486,1745.1700487116514,545.1700487116514,1737.2150974233027,537.2150974233027" close="False" data-weight="0.0" stroke-width="7" fill="none" stroke="#35618f" />
<path d="M1694.0349025766973,494.03490257669733 C1686.0799512883486,486.0799512883487,1670.1700487116514,470.1700487116513,1662.2150974233027,462.21509742330267" close="False" data-weight="0.0" stroke-width="7" fill="none" stroke="#35618f" />
<path d="M1619.0349025766973,419.03490257669733 C1611.0799512883486,411.0799512883487,1595.1700487116514,395.1700487116513,1587.2150974233027,387.21509742330267" close="False" data-weight="0.0" stroke-width="7" fill="none" stroke="#35618f" />
<path d="M1544.0349025766973,344.03490257669733 C1536.0799512883486,336.0799512883487,1520.1700487116514,320.1700487116513,1512.2150974233027,312.21509742330267" close="False" data-weight="0.0" stroke-width="7" fill="none" stroke="#35618f" />
<path d="M1469.0349025766973,269.03490257669733 C1461.0799512883486,261.0799512883487,1445.1700487116514,245.1700487116513,1437.2150974233027,237.21509742330267" close="False" data-weight="0.0" stroke-width="7" fill="none" stroke="#35618f" />
<path d="M1325.625,103.125 C1314.375,103.125,1291.875,103.125,1280.625,103.125" close="False" data-weight="0.0" stroke-width="7" fill="none" stroke="#35618f" />
<path d="M1250.625,103.125 C1239.375,103.125,1216.875,103.125,1205.625,103.125" close="False" data-weight="0.0" stroke-width="7" fill="none" stroke="#35618f" />
<path d="M1175.625,103.125 C1164.375,103.125,1141.875,103.125,1130.625,103.125" close="False" data-weight="0.0" stroke-width="7" fill="none" stroke="#35618f" />
<path d="M1100.625,103.125 A54.31980515339285,54.31980515339285,0,0,0,1079.837710518496,107.25984896217241 M1079.837710518496,107.25984896217241 A54.31980515339624,54.31980515339624,0,0,0,1062.2150974233027,119.03490257669733 M1062.2150974233027,119.03490257669733" close="False" data-weight="1.0" stroke-width="7" fill="none" stroke="#35618f" />
<path d="M1019.0349025766973,162.2150974233027 C1011.0799512883486,170.17004871165133,995.1700487116514,186.0799512883487,987.2150974233027,194.03490257669733" close="False" data-weight="0.0" stroke-width="7" fill="none" stroke="#35618f" />
<path d="M944.0349025766973,237.2150974233027 C936.0799512883486,245.17004871165133,920.1700487116514,261.0799512883487,912.2150974233027,269.03490257669733" close="False" data-weight="0.0" stroke-width="7" fill="none" stroke="#35618f" />
<path d="M869.0349025766973,312.21509742330267 C861.0799512883486,320.1700487116513,845.1700487116514,336.0799512883487,837.2150974233027,344.03490257669733" close="False" data-weight="0.0" stroke-width="7" fill="none" stroke="#35618f" />
<path d="M721.8954377834592,540.7185232472197 C714.1012091493993,548.5127518812795,698.5127518812794,564.1012091493994,690.7185232472195,571.8954377834593" close="False" data-weight="0.0" stroke-width="7" fill="none" stroke="#35618f" />
<path d="M646.8954377834593,615.7185232472195 C639.1012091493994,623.5127518812794,623.5127518812794,639.1012091493994,615.7185232472195,646.8954377834593" close="False" data-weight="0.0" stroke-width="7" fill="none" stroke="#35618f" />
<path d="M571.8954377834593,690.7185232472195 C563.9807691512866,698.6331918793923,545.1297660554754,711.1202339445246,537.2150974233027,719.0349025766973" close="False" data-weight="0.0" stroke-width="7" fill="none" stroke="#35618f" />
<path d="M494.03490257669733,762.2150974233027 C486.0799512883487,770.1700487116514,470.1700487116513,786.0799512883486,462.21509742330267,794.0349025766973" close="False" data-weight="0.0" stroke-width="7" fill="none" stroke="#35618f" />
<path d="M419.03490257669733,837.2150974233027 C411.0799512883487,845.1700487116514,395.1700487116513,861.0799512883486,387.21509742330267,869.0349025766973" close="False" data-weight="0.0" stroke-width="7" fill="none" stroke="#35618f" />
<path d="M344.03490257669733,912.2150974233027 C336.0799512883487,920.1700487116514,320.1700487116513,936.0799512883486,312.21509742330267,944.0349025766973" close="False" data-weight="0.0" stroke-width="7" fill="none" stroke="#35618f" />
<path d="M269.03490257669733,987.2150974233027 C261.0799512883487,995.1700487116514,245.1700487116513,1011.0799512883486,237.21509742330267,1019.0349025766973" close="False" data-weight="0.0" stroke-width="7" fill="none" stroke="#35618f" />
<path d="M178.125,1280.625 C178.125,1291.875,178.125,1314.375,178.125,1325.625" close="False" data-weight="0.0" stroke-width="7" fill="none" stroke="#35618f" />
<path d="M178.125,1205.625 C178.125,1216.875,178.125,1239.375,178.125,1250.625" close="False" data-weight="0.0" stroke-width="7" fill="none" stroke="#35618f" />
<path d="M178.125,1130.625 C178.125,1141.875,178.125,1164.375,178.125,1175.625" close="False" data-weight="0.0" stroke-width="7" fill="none" stroke="#35618f" />
<path d="M194.0349025766973,1062.2150974233027 A54.3198051533952,54.3198051533952,0,0,0,182.2598489621722,1079.837710518496 M182.2598489621722,1079.837710518496 A54.319805153393986,54.319805153393986,0,0,0,178.125,1100.625 M178.125,1100.625" close="False" data-weight="1.0" stroke-width="7" fill="none" stroke="#35618f" />
<path d="M1903.125,725.625 L1903.125,755.625" close="False" data-weight="1.75" stroke-width="7" fill="none" stroke="#35618f" />
<path d="M1823.625,1025.1704076850485 L1823.625,1056.0795923149515" close="False" data-weight="1.75" stroke-width="7" fill="none" stroke="#35618f" />
<path d="M1823.625,950.1704076850486 L1823.625,981.0795923149514" close="False" data-weight="1.75" stroke-width="7" fill="none" stroke="#35618f" />
<path d="M1823.625,875.1704076850486 L1823.625,906.0795923149514" close="False" data-weight="1.75" stroke-width="7" fill="none" stroke="#35618f" />
<path d="M1840.5314767527805,834.3545622165407 L1884.3545622165404,790.5314767527807" close="False" data-weight="2.060660171779821" stroke-width="7" fill="none" stroke="#35618f" />
<path d="M1844.0349025766973,644.0349025766973 L1887.2150974233027,687.2150974233027" close="False" data-weight="2.060660171779821" stroke-width="7" fill="none" stroke="#35618f" />
<path d="M1775.1704076850485,1073.625 L1806.0795923149515,1073.625" close="False" data-weight="1.75" stroke-width="7" fill="none" stroke="#35618f" />
<path d="M1769.0349025766973,569.0349025766973 L1812.2150974233027,612.2150974233027" close="False" data-weight="2.060660171779821" stroke-width="7" fill="none" stroke="#35618f" />
<path d="M1694.0349025766973,494.03490257669733 L1737.2150974233027,537.2150974233027" close="False" data-weight="2.060660171779821" stroke-width="7" fill="none" stroke="#35618f" />
<path d="M1619.0349025766973,419.03490257669733 L1662.2150974233027,462.21509742330267" close="False" data-weight="2.060660171779821" stroke-width="7" fill="none" stroke="#35618f" />
<path d="M1544.0349025766973,344.03490257669733 L1587.2150974233027,387.21509742330267" close="False" data-weight="2.060660171779821" stroke-width="7" fill="none" stroke="#35618f" />
<path d="M1469.0349025766973,269.03490257669733 L1512.2150974233027,312.21509742330267" close="False" data-weight="2.060660171779821" stroke-width="7" fill="none" stroke="#35618f" />
<path d="M1394.0349025766973,194.03490257669733 L1437.2150974233027,237.2150974233027" close="False" data-weight="2.060660171779821" stroke-width="7" fill="none" stroke="#35618f" />
<path d="M1378.125,125.625 L1378.125,155.625" close="False" data-weight="1.75" stroke-width="7" fill="none" stroke="#35618f" />
<path d="M1325.625,103.125 L1355.625,103.125" close="False" data-weight="1.75" stroke-width="7" fill="none" stroke="#35618f" />
<path d="M1250.625,103.125 L1280.625,103.125" close="False" data-weight="1.75" stroke-width="7" fill="none" stroke="#35618f" />
<path d="M1175.625,103.125 L1205.625,103.125" close="False" data-weight="1.75" stroke-width="7" fill="none" stroke="#35618f" />
<path d="M1100.625,103.125 L1130.625,103.125" close="False" data-weight="1.75" stroke-width="7" fill="none" stroke="#35618f" />
<path d="M1019.0349025766973,162.21509742330267 L1062.2150974233027,119.0349025766973" close="False" data-weight="2.060660171779821" stroke-width="7" fill="none" stroke="#35618f" />
<path d="M944.0349025766973,237.21509742330267 L987.2150974233027,194.0349025766973" close="False" data-weight="2.060660171779821" stroke-width="7" fill="none" stroke="#35618f" />
<path d="M869.0349025766973,312.21509742330267 L912.2150974233027,269.03490257669733" close="False" data-weight="2.060660171779821" stroke-width="7" fill="none" stroke="#35618f" />
<path d="M782.625,425.1704076850486 L782.625,456.0795923149514" close="False" data-weight="1.75" stroke-width="7" fill="none" stroke="#35618f" />
<path d="M794.0349025766973,387.21509742330267 L837.2150974233027,344.03490257669733" close="False" data-weight="2.060660171779821" stroke-width="7" fill="none" stroke="#35618f" />
<path d="M721.8954377834593,540.7185232472195 L765.7185232472195,496.8954377834594" close="False" data-weight="2.060660171779821" stroke-width="7" fill="none" stroke="#35618f" />
<path d="M646.8954377834593,615.7185232472195 L690.7185232472195,571.8954377834593" close="False" data-weight="2.060660171779821" stroke-width="7" fill="none" stroke="#35618f" />
<path d="M571.8954377834593,690.7185232472195 L615.7185232472195,646.8954377834593" close="False" data-weight="2.060660171779821" stroke-width="7" fill="none" stroke="#35618f" />
<path d="M494.03490257669733,762.2150974233027 L537.2150974233027,719.0349025766973" close="False" data-weight="2.060660171779821" stroke-width="7" fill="none" stroke="#35618f" />
<path d="M419.03490257669733,837.2150974233027 L462.21509742330267,794.0349025766973" close="False" data-weight="2.060660171779821" stroke-width="7" fill="none" stroke="#35618f" />
<path d="M344.03490257669733,912.2150974233027 L387.21509742330267,869.0349025766973" close="False" data-weight="2.060660171779821" stroke-width="7" fill="none" stroke="#35618f" />
<path d="M269.03490257669733,987.2150974233027 L312.21509742330267,944.0349025766973" close="False" data-weight="2.060660171779821" stroke-width="7" fill="none" stroke="#35618f" />
<path d="M178.125,1325.625 L178.125,1355.625" close="False" data-weight="1.75" stroke-width="7" fill="none" stroke="#35618f" />
<path d="M178.125,1250.625 L178.125,1280.625" close="False" data-weight="1.75" stroke-width="7" fill="none" stroke="#35618f" />
<path d="M178.125,1175.625 L178.125,1205.625" close="False" data-weight="1.75" stroke-width="7" fill="none" stroke="#35618f" />
<path d="M178.125,1100.625 L178.125,1130.625" close="False" data-weight="1.75" stroke-width="7" fill="none" stroke="#35618f" />
<path d="M194.03490257669733,1062.2150974233027 L237.2150974233027,1019.0349025766973" close="False" data-weight="2.060660171779821" stroke-width="7" fill="none" stroke="#35618f" />
<image x="2395.625" y="1645.625" width="65" height="65" xlink:href="designspace-test/./img/ds_dataset1_40_21_thumb.png" data-node="True" data-id="21" />
<image x="2395.625" y="1120.625" width="65" height="65" xlink:href="designspace-test/./img/ds_dataset1_40_37_thumb.png" data-node="True" data-id="37" />
<image x="2320.625" y="1570.625" width="65" height="65" xlink:href="designspace-test/./img/ds_dataset1_40_27_thumb.png" data-node="True" data-id="27" />
<image x="2095.625" y="2320.625" width="65" height="65" xlink:href="designspace-test/./img/ds_dataset1_40_39_thumb.png" data-node="True" data-id="39" />
<image x="2095.625" y="2245.625" width="65" height="65" xlink:href="designspace-test/./img/ds_dataset1_40_30_thumb.png" data-node="True" data-id="30" />
<image x="2095.625" y="2170.625" width="65" height="65" xlink:href="designspace-test/./img/ds_dataset1_40_25_thumb.png" data-node="True" data-id="25" />
<image x="2095.625" y="2095.625" width="65" height="65" xlink:href="designspace-test/./img/ds_dataset1_40_13_thumb.png" data-node="True" data-id="13" />
<image x="2095.625" y="2020.625" width="65" height="65" xlink:href="designspace-test/./img/ds_dataset1_40_11_thumb.png" data-node="True" data-id="11" />
<image x="2020.625" y="2395.625" width="65" height="65" xlink:href="designspace-test/./img/ds_dataset1_40_33_thumb.png" data-node="True" data-id="33" />
<image x="2020.625" y="2320.625" width="65" height="65" xlink:href="designspace-test/./img/ds_dataset1_40_31_thumb.png" data-node="True" data-id="31" />
<image x="2020.625" y="2245.625" width="65" height="65" xlink:href="designspace-test/./img/ds_dataset1_40_24_thumb.png" data-node="True" data-id="24" />
<image x="2020.625" y="2170.625" width="65" height="65" xlink:href="designspace-test/./img/ds_dataset1_40_17_thumb.png" data-node="True" data-id="17" />
<image x="2020.625" y="2095.625" width="65" height="65" xlink:href="designspace-test/./img/ds_dataset1_40_10_thumb.png" data-node="True" data-id="10" />
<image x="2020.625" y="2020.625" width="65" height="65" xlink:href="designspace-test/./img/ds_dataset1_40_9_thumb.png" data-node="True" data-id="9" />
<image x="1945.625" y="2245.625" width="65" height="65" xlink:href="designspace-test/./img/ds_dataset1_40_16_thumb.png" data-node="True" data-id="16" />
<image x="1945.625" y="2170.625" width="65" height="65" xlink:href="designspace-test/./img/ds_dataset1_40_14_thumb.png" data-node="True" data-id="14" />
<image x="1870.625" y="745.625" width="65" height="65" xlink:href="designspace-test/./img/ds_dataset1_40_19_thumb.png" data-node="True" data-id="19" />
<image x="1795.625" y="1045.625" width="65" height="65" xlink:href="designspace-test/./img/ds_dataset1_40_32_thumb.png" data-node="True" data-id="32" />
<image x="1720.625" y="1045.625" width="65" height="65" xlink:href="designspace-test/./img/ds_dataset1_40_4_thumb.png" data-node="True" data-id="4" />
<image x="1345.625" y="145.625" width="65" height="65" xlink:href="designspace-test/./img/ds_dataset1_40_2_thumb.png" data-node="True" data-id="2" />
<image x="1345.625" y="70.625" width="65" height="65" xlink:href="designspace-test/./img/ds_dataset1_40_12_thumb.png" data-node="True" data-id="12" />
<image x="1270.625" y="1495.625" width="65" height="65" xlink:href="designspace-test/./img/ds_dataset1_40_1_thumb.png" data-node="True" data-id="1" />
<image x="1270.625" y="1420.625" width="65" height="65" xlink:href="designspace-test/./img/ds_dataset1_40_36_thumb.png" data-node="True" data-id="36" />
<image x="1195.625" y="2395.625" width="65" height="65" xlink:href="designspace-test/./img/ds_dataset1_40_6_thumb.png" data-node="True" data-id="6" />
<image x="1195.625" y="2320.625" width="65" height="65" xlink:href="designspace-test/./img/ds_dataset1_40_8_thumb.png" data-node="True" data-id="8" />
<image x="1120.625" y="2320.625" width="65" height="65" xlink:href="designspace-test/./img/ds_dataset1_40_15_thumb.png" data-node="True" data-id="15" />
<image x="1120.625" y="2245.625" width="65" height="65" xlink:href="designspace-test/./img/ds_dataset1_40_26_thumb.png" data-node="True" data-id="26" />
<image x="895.625" y="1870.625" width="65" height="65" xlink:href="designspace-test/./img/ds_dataset1_40_29_thumb.png" data-node="True" data-id="29" />
<image x="820.625" y="1945.625" width="65" height="65" xlink:href="designspace-test/./img/ds_dataset1_40_28_thumb.png" data-node="True" data-id="28" />
<image x="820.625" y="1870.625" width="65" height="65" xlink:href="designspace-test/./img/ds_dataset1_40_3_thumb.png" data-node="True" data-id="3" />
<image x="745.625" y="445.625" width="65" height="65" xlink:href="designspace-test/./img/ds_dataset1_40_38_thumb.png" data-node="True" data-id="38" />
<image x="745.625" y="370.625" width="65" height="65" xlink:href="designspace-test/./img/ds_dataset1_40_22_thumb.png" data-node="True" data-id="22" />
<image x="295.625" y="745.625" width="65" height="65" xlink:href="designspace-test/./img/ds_dataset1_40_23_thumb.png" data-node="True" data-id="23" />
<image x="295.625" y="670.625" width="65" height="65" xlink:href="designspace-test/./img/ds_dataset1_40_35_thumb.png" data-node="True" data-id="35" />
<image x="145.625" y="2395.625" width="65" height="65" xlink:href="designspace-test/./img/ds_dataset1_40_34_thumb.png" data-node="True" data-id="34" />
<image x="145.625" y="2320.625" width="65" height="65" xlink:href="designspace-test/./img/ds_dataset1_40_7_thumb.png" data-node="True" data-id="7" />
<image x="145.625" y="2245.625" width="65" height="65" xlink:href="designspace-test/./img/ds_dataset1_40_0_thumb.png" data-node="True" data-id="0" />
<image x="145.625" y="1345.625" width="65" height="65" xlink:href="designspace-test/./img/ds_dataset1_40_18_thumb.png" data-node="True" data-id="18" />
<image x="70.625" y="2320.625" width="65" height="65" xlink:href="designspace-test/./img/ds_dataset1_40_5_thumb.png" data-node="True" data-id="5" />
<image x="70.625" y="1645.625" width="65" height="65" xlink:href="designspace-test/./img/ds_dataset1_40_20_thumb.png" data-node="True" data-id="20" />
</svg>