<?xml version="1.0" encoding="UTF-8"?>
<svg xmlns="http://www.w3.org/2000/svg" xmlns:xlink="http://www.w3.org/1999/xlink"
     viewBox="0 0 2550 2550" preserveAspectRatio="xMidYMid meet">
<defs>
</defs>
<path d="M2423.625,1506.0795923149515 A48.72232222128787,48.72232222128787,0,0,1,2419.91623405538,1524.7248178153918 M2419.91623405538,1524.7248178153918 A48.72232222128834,48.72232222128834,0,0,1,2409.3545622165407,1540.5314767527802 M2409.3545622165407,1540.5314767527802" close="False" data-weight="1.0" stroke-width="7" fill="none" stroke="#1fa562" />
<path d="M2423.625,1431.0795923149515 C2423.625,1442.1022961574758,2423.625,1464.1477038425242,2423.625,1475.1704076850485" close="False" data-weight="0.0" stroke-width="7" fill="none" stroke="#1fa562" />
<path d="M2423.625,1356.0795923149515 C2423.625,1367.1022961574758,2423.625,1389.1477038425242,2423.625,1400.1704076850485" close="False" data-weight="0.0" stroke-width="7" fill="none" stroke="#1fa562" />
<path d="M2423.625,1281.0795923149515 C2423.625,1292.1022961574758,2423.625,1314.1477038425242,2423.625,1325.1704076850485" close="False" data-weight="0.0" stroke-width="7" fill="none" stroke="#1fa562" />
<path d="M2423.625,1206.0795923149515 C2423.625,1217.1022961574758,2423.625,1239.1477038425242,2423.625,1250.1704076850485" close="False" data-weight="0.0" stroke-width="7" fill="none" stroke="#1fa562" />
<path d="M2423.625,1475.1704076850485 L2423.625,1506.0795923149515" close="False" data-weight="1.75" stroke-width="7" fill="none" stroke="#1fa562" />
<path d="M2423.625,1400.1704076850485 L2423.625,1431.0795923149515" close="False" data-weight="1.75" stroke-width="7" fill="none" stroke="#1fa562" />
<path d="M2423.625,1325.1704076850485 L2423.625,1356.0795923149515" close="False" data-weight="1.75" stroke-width="7" fill="none" stroke="#1fa562" />
<path d="M2423.625,1250.1704076850485 L2423.625,1281.0795923149515" close="False" data-weight="1.75" stroke-width="7" fill="none" stroke="#1fa562" />
<path d="M2423.625,1175.1704076850485 L2423.625,1206.0795923149515" close="False" data-weight="1.75" stroke-width="7" fill="none" stroke="#1fa562" />
<path d="M2365.5314767527802,1621.8954377834593 L2409.3545622165407,1665.7185232472198" close="False" data-weight="2.060660171779821" stroke-width="7" fill="none" stroke="#1fa562" />
<path d="M2365.5314767527507,1584.3545622165705 L2409.3545622165407,1540.5314767527802" close="False" data-weight="2.060660171779821" stroke-width="7" fill="none" stroke="#1fa562" />
<path d="M2371.8954377834593,1090.5314767527802 C2364.1012091493994,1082.7372481187203,2348.5127518812797,1067.1487908506006,2340.7185232472198,1059.3545622165407" close="False" data-weight="0.0" stroke-width="7" fill="none" stroke="#ff1c5d" />
<path d="M2296.8954377834293,1015.5314767527506 C2289.1012091493844,1007.7372481187057,2273.512751881294,992.1487908506156,2265.7185232472493,984.3545622165706" close="False" data-weight="0.0" stroke-width="7" fill="none" stroke="#ff1c5d" />
<path d="M2221.89543778346,940.5314767527807 C2214.1012091494,932.7372481187207,2198.5127518812797,917.1487908506007,2190.7185232472198,909.3545622165407" close="False" data-weight="0.0" stroke-width="7" fill="none" stroke="#ff1c5d" />
<path d="M2146.8954377834298,865.5314767527508 C2139.101209149385,857.7372481187057,2123.512751881294,842.1487908506157,2115.7185232472493,834.3545622165706" close="False" data-weight="0.0" stroke-width="7" fill="none" stroke="#ff1c5d" />
<path d="M2071.89543778346,790.5314767527807 A57.72232222128929,57.72232222128929,0,0,0,2053.1689687066782,778.0188501520188 M2053.1689687066782,778.0188501520188 A57.72232222128855,57.72232222128855,0,0,0,2031.0795923149515,773.625 M2031.0795923149515,773.625" close="False" data-weight="1.0" stroke-width="7" fill="none" stroke="#ff1c5d" />
<path d="M2000.1704076850485,773.625 C1989.1477038425242,773.625,1967.1022961574758,773.625,1956.0795923149515,773.625" close="False" data-weight="0.0" stroke-width="7" fill="none" stroke="#ff1c5d" />
<path d="M2371.8954377834593,1090.5314767527802 L2415.7185232472493,1134.3545622165705" close="False" data-weight="2.060660171779821" stroke-width="7" fill="none" stroke="#ff1c5d" />
<path d="M2296.8954377834298,1015.5314767527506 L2340.7185232472198,1059.354562216541" close="False" data-weight="2.060660171779821" stroke-width="7" fill="none" stroke="#ff1c5d" />
<path d="M2221.8954377834593,940.5314767527805 L2265.71852324725,984.3545622165707" close="False" data-weight="2.060660171779821" stroke-width="7" fill="none" stroke="#ff1c5d" />
<path d="M2146.8954377834298,865.5314767527506 L2190.7185232472198,909.3545622165409" close="False" data-weight="2.060660171779821" stroke-width="7" fill="none" stroke="#ff1c5d" />
<path d="M2071.8954377834593,790.5314767527805 L2115.71852324725,834.3545622165707" close="False" data-weight="2.060660171779821" stroke-width="7" fill="none" stroke="#ff1c5d" />
<path d="M2000.1704076850485,773.625 L2031.0795923149515,773.625" close="False" data-weight="1.75" stroke-width="7" fill="none" stroke="#ff1c5d" />
<path d="M1925.1704076850485,773.625 L1956.0795923149515,773.625" close="False" data-weight="1.75" stroke-width="7" fill="none" stroke="#ff1c5d" />
<path d="M2432.625,1506.0795923149515 A57.72232222129196,57.72232222129196,0,0,1,2428.2311498479817,1528.168968706678 M2428.2311498479817,1528.168968706678 A57.72232222128422,57.72232222128422,0,0,1,2415.7185232472198,1546.8954377834593 M2415.7185232472198,1546.8954377834593" close="False" data-weight="1.0" stroke-width="7" fill="none" stroke="#7cd3eb" />
<path d="M2432.625,1431.0795923149515 C2432.625,1442.1022961574758,2432.625,1464.1477038425242,2432.625,1475.1704076850485" close="False" data-weight="0.0" stroke-width="7" fill="none" stroke="#7cd3eb" />
<path d="M2432.625,1356.0795923149515 C2432.625,1367.1022961574758,2432.625,1389.1477038425242,2432.625,1400.1704076850485" close="False" data-weight="0.0" stroke-width="7" fill="none" stroke="#7cd3eb" />
<path d="M2432.625,1281.0795923149515 C2432.625,1292.1022961574758,2432.625,1314.1477038425242,2432.625,1325.1704076850485" close="False" data-weight="0.0" stroke-width="7" fill="none" stroke="#7cd3eb" />
<path d="M2432.625,1206.0795923149515 C2432.625,1217.1022961574758,2432.625,1239.1477038425242,2432.625,1250.1704076850485" close="False" data-weight="0.0" stroke-width="7" fill="none" stroke="#7cd3eb" />
<path d="M2369.0349025766973,1737.2150974233027 C2361.0799512883486,1745.1700487116514,2345.1700487116514,1761.0799512883486,2337.2150974233027,1769.0349025766973" close="False" data-weight="0.0" stroke-width="7" fill="none" stroke="#7cd3eb" />
<path d="M2365.5314767527802,1096.8954377834593 C2357.7372481187203,1089.1012091493994,2342.1487908506006,1073.5127518812794,2334.3545622165407,1065.7185232472195" close="False" data-weight="0.0" stroke-width="7" fill="none" stroke="#7cd3eb" />
<path d="M2294.0349025766973,1812.2150974233027 C2286.0799512883486,1820.1700487116514,2270.1700487116514,1836.0799512883486,2262.2150974233027,1844.0349025766973" close="False" data-weight="0.0" stroke-width="7" fill="none" stroke="#7cd3eb" />
<path d="M2290.5314767528102,1021.8954377834892 C2282.7372481187354,1014.1012091494143,2267.1487908505856,998.5127518812645,2259.3545622165107,990.7185232471896" close="False" data-weight="0.0" stroke-width="7" fill="none" stroke="#7cd3eb" />
<path d="M2219.0349025766973,1887.2150974233027 C2211.0799512883486,1895.1700487116514,2195.1700487116514,1911.0799512883486,2187.2150974233027,1919.0349025766973" close="False" data-weight="0.0" stroke-width="7" fill="none" stroke="#7cd3eb" />
<path d="M2215.5314767527802,946.8954377834591 C2207.7372481187203,939.1012091493992,2192.1487908506006,923.5127518812794,2184.3545622165407,915.7185232472195" close="False" data-weight="0.0" stroke-width="7" fill="none" stroke="#7cd3eb" />
<path d="M2144.0349025766973,1962.2150974233027 A54.319805153391044,54.319805153391044,0,0,0,2132.259848962172,1979.8377105184957 M2132.259848962172,1979.8377105184957 A54.3198051533941,54.3198051533941,0,0,0,2128.125,2000.625 M2128.125,2000.625" close="False" data-weight="1.0" stroke-width="7" fill="none" stroke="#7cd3eb" />
<path d="M2140.5314767528102,871.895437783489 C2132.7372481187354,864.1012091494141,2117.1487908505856,848.5127518812645,2109.3545622165107,840.7185232471896" close="False" data-weight="0.0" stroke-width="7" fill="none" stroke="#7cd3eb" />
<path d="M2065.5314767527802,796.8954377834591 A48.722322221288096,48.722322221288096,0,0,0,2049.724817815392,786.33376594462 M2049.724817815392,786.33376594462 A48.722322221287754,48.722322221287754,0,0,0,2031.0795923149515,782.625 M2031.0795923149515,782.625" close="False" data-weight="1.0" stroke-width="7" fill="none" stroke="#7cd3eb" />
<path d="M2000.1704076850485,782.625 C1989.1477038425242,782.625,1967.1022961574758,782.625,1956.0795923149515,782.625" close="False" data-weight="0.0" stroke-width="7" fill="none" stroke="#7cd3eb" />
<path d="M1907.625,981.0795923149514 A57.72232222134494,57.72232222134494,0,0,1,1903.2311498479928,1003.1689687066612 M1903.2311498479928,1003.1689687066612 A57.72232222112972,57.72232222112972,0,0,1,1890.7185232472495,1021.8954377834294 M1890.7185232472495,1021.8954377834294" close="False" data-weight="1.0" stroke-width="7" fill="none" stroke="#7cd3eb" />
<path d="M1907.625,906.0795923149514 C1907.625,917.1022961574756,1907.625,939.1477038425244,1907.625,950.1704076850486" close="False" data-weight="0.0" stroke-width="7" fill="none" stroke="#7cd3eb" />
<path d="M1907.625,831.0795923149514 C1907.625,842.1022961574756,1907.625,864.1477038425244,1907.625,875.1704076850486" close="False" data-weight="0.0" stroke-width="7" fill="none" stroke="#7cd3eb" />
<path d="M1694.0349025766973,1137.2150974233027 C1686.0799512883486,1145.1700487116514,1670.1700487116514,1161.0799512883486,1662.2150974233027,1169.0349025766973" close="False" data-weight="0.0" stroke-width="7" fill="none" stroke="#7cd3eb" />
<path d="M1619.0349025766973,1212.2150974233027 C1611.0799512883486,1220.1700487116514,1595.1700487116514,1236.0799512883486,1587.2150974233027,1244.0349025766973" close="False" data-weight="0.0" stroke-width="7" fill="none" stroke="#7cd3eb" />
<path d="M1544.0349025766973,1287.2150974233027 C1536.0799512883486,1295.1700487116514,1520.1700487116514,1311.0799512883486,1512.2150974233027,1319.0349025766973" close="False" data-weight="0.0" stroke-width="7" fill="none" stroke="#7cd3eb" />
<path d="M1469.0349025766973,1362.2150974233027 C1461.0799512883486,1370.1700487116514,1445.1700487116514,1386.0799512883486,1437.2150974233027,1394.0349025766973" close="False" data-weight="0.0" stroke-width="7" fill="none" stroke="#7cd3eb" />
<path d="M1394.0349025766973,1437.2150974233027 A54.3198051533949,54.3198051533949,0,0,1,1376.412289481504,1448.9901510378277 M1376.412289481504,1448.9901510378277 A54.3198051533941,54.3198051533941,0,0,1,1355.625,1453.125 M1355.625,1453.125" close="False" data-weight="1.0" stroke-width="7" fill="none" stroke="#7cd3eb" />
<path d="M1240.5314767527802,1584.3545622165407 C1232.7372481187203,1592.1487908506006,1217.1487908506006,1607.7372481187203,1209.3545622165407,1615.5314767527802" close="False" data-weight="0.0" stroke-width="7" fill="none" stroke="#7cd3eb" />
<path d="M1165.5314767527802,1659.3545622165407 C1157.7372481187203,1667.1487908506006,1142.1487908506006,1682.7372481187203,1134.3545622165407,1690.5314767527802" close="False" data-weight="0.0" stroke-width="7" fill="none" stroke="#7cd3eb" />
<path d="M1090.5314767528102,2221.8954377834893 C1082.7372481187354,2214.1012091494144,1067.1487908505856,2198.5127518812646,1059.3545622165107,2190.7185232471898" close="False" data-weight="0.0" stroke-width="7" fill="none" stroke="#7cd3eb" />
<path d="M1090.5314767527802,1734.3545622165407 C1082.7372481187203,1742.1487908506006,1067.1487908506006,1757.7372481187206,1059.3545622165407,1765.5314767527805" close="False" data-weight="0.0" stroke-width="7" fill="none" stroke="#7cd3eb" />
<path d="M1015.5314767527805,2146.8954377834593 C1007.7372481187206,2139.1012091493994,992.1487908506006,2123.5127518812797,984.3545622165407,2115.7185232472198" close="False" data-weight="0.0" stroke-width="7" fill="none" stroke="#7cd3eb" />
<path d="M1015.5314767527805,1809.3545622165407 C1007.7372481187206,1817.1487908506006,992.1487908506007,1832.7372481187206,984.3545622165407,1840.5314767527805" close="False" data-weight="0.0" stroke-width="7" fill="none" stroke="#7cd3eb" />
<path d="M940.5314767528105,2071.8954377834893 C932.7372481187356,2064.1012091494144,917.1487908505857,2048.5127518812646,909.3545622165108,2040.7185232471898" close="False" data-weight="0.0" stroke-width="7" fill="none" stroke="#7cd3eb" />
<path d="M2432.625,1475.1704076850485 L2432.625,1506.0795923149515" close="False" data-weight="1.75" stroke-width="7" fill="none" stroke="#7cd3eb" />
<path d="M2432.625,1400.1704076850485 L2432.625,1431.0795923149515" close="False" data-weight="1.75" stroke-width="7" fill="none" stroke="#7cd3eb" />
<path d="M2432.625,1325.1704076850485 L2432.625,1356.0795923149515" close="False" data-weight="1.75" stroke-width="7" fill="none" stroke="#7cd3eb" />
<path d="M2432.625,1250.1704076850485 L2432.625,1281.0795923149515" close="False" data-weight="1.75" stroke-width="7" fill="none" stroke="#7cd3eb" />
<path d="M2432.625,1175.1704076850485 L2432.625,1206.0795923149515" close="False" data-weight="1.75" stroke-width="7" fill="none" stroke="#7cd3eb" />
<path d="M2369.0349025766973,1737.2150974233027 L2412.2150974233027,1694.0349025766973" close="False" data-weight="2.060660171779821" stroke-width="7" fill="none" stroke="#7cd3eb" />
<path d="M2371.8954377834593,1615.5314767527802 L2415.7185232472198,1659.3545622165407" close="False" data-weight="2.060660171779821" stroke-width="7" fill="none" stroke="#7cd3eb" />
<path d="M2371.8954377834893,1590.7185232471898 L2415.7185232472198,1546.8954377834593" close="False" data-weight="2.060660171779821" stroke-width="7" fill="none" stroke="#7cd3eb" />
<path d="M2365.5314767527802,1096.8954377834593 L2409.3545622165107,1140.7185232471898" close="False" data-weight="2.060660171779821" stroke-width="7" fill="none" stroke="#7cd3eb" />
<path d="M2294.0349025766973,1812.2150974233027 L2337.2150974233027,1769.0349025766973" close="False" data-weight="2.060660171779821" stroke-width="7" fill="none" stroke="#7cd3eb" />
<path d="M2290.5314767528102,1021.8954377834892 L2334.35456221654,1065.7185232472195" close="False" data-weight="2.060660171779821" stroke-width="7" fill="none" stroke="#7cd3eb" />
<path d="M2219.0349025766973,1887.2150974233027 L2262.2150974233027,1844.0349025766973" close="False" data-weight="2.060660171779821" stroke-width="7" fill="none" stroke="#7cd3eb" />
<path d="M2215.5314767527802,946.8954377834593 L2259.3545622165107,990.7185232471895" close="False" data-weight="2.060660171779821" stroke-width="7" fill="none" stroke="#7cd3eb" />
<path d="M2128.125,2300.625 L2128.125,2330.625" close="False" data-weight="1.75" stroke-width="7" fill="none" stroke="#7cd3eb" />
<path d="M2128.125,2150.625 L2128.125,2180.625" close="False" data-weight="1.75" stroke-width="7" fill="none" stroke="#7cd3eb" />
<path d="M2128.125,2000.625 L2128.125,2030.625" close="False" data-weight="1.75" stroke-width="7" fill="none" stroke="#7cd3eb" />
<path d="M2144.0349025766973,1962.2150974233027 L2187.2150974233027,1919.0349025766973" close="False" data-weight="2.060660171779821" stroke-width="7" fill="none" stroke="#7cd3eb" />
<path d="M2140.5314767528102,871.8954377834892 L2184.35456221654,915.7185232472193" close="False" data-weight="2.060660171779821" stroke-width="7" fill="none" stroke="#7cd3eb" />
<path d="M2053.125,2375.625 L2053.125,2405.625" close="False" data-weight="1.75" stroke-width="7" fill="none" stroke="#7cd3eb" />
<path d="M2075.625,2353.125 L2105.625,2353.125" close="False" data-weight="1.75" stroke-width="7" fill="none" stroke="#7cd3eb" />
<path d="M2075.625,2278.125 L2105.625,2278.125" close="False" data-weight="1.75" stroke-width="7" fill="none" stroke="#7cd3eb" />
<path d="M2075.625,2203.125 L2105.625,2203.125" close="False" data-weight="1.75" stroke-width="7" fill="none" stroke="#7cd3eb" />
<path d="M2075.625,2128.125 L2105.625,2128.125" close="False" data-weight="1.75" stroke-width="7" fill="none" stroke="#7cd3eb" />
<path d="M2053.125,2075.625 L2053.125,2105.625" close="False" data-weight="1.75" stroke-width="7" fill="none" stroke="#7cd3eb" />
<path d="M2075.625,2053.125 L2105.625,2053.125" close="False" data-weight="1.75" stroke-width="7" fill="none" stroke="#7cd3eb" />
<path d="M2065.5314767527802,796.8954377834593 L2109.3545622165107,840.7185232471895" close="False" data-weight="2.060660171779821" stroke-width="7" fill="none" stroke="#7cd3eb" />
<path d="M2000.625,2278.125 L2030.625,2278.125" close="False" data-weight="1.75" stroke-width="7" fill="none" stroke="#7cd3eb" />
<path d="M1978.125,2225.625 L1978.125,2255.625" close="False" data-weight="1.75" stroke-width="7" fill="none" stroke="#7cd3eb" />
<path d="M2000.625,2203.125 L2030.625,2203.125" close="False" data-weight="1.75" stroke-width="7" fill="none" stroke="#7cd3eb" />
<path d="M2000.1704076850485,782.625 L2031.0795923149515,782.625" close="False" data-weight="1.75" stroke-width="7" fill="none" stroke="#7cd3eb" />
<path d="M1907.625,950.1704076850486 L1907.625,981.0795923149514" close="False" data-weight="1.75" stroke-width="7" fill="none" stroke="#7cd3eb" />
<path d="M1907.625,875.1704076850486 L1907.625,906.0795923149514" close="False" data-weight="1.75" stroke-width="7" fill="none" stroke="#7cd3eb" />
<path d="M1907.625,800.1704076850486 L1907.625,831.0795923149514" close="False" data-weight="1.75" stroke-width="7" fill="none" stroke="#7cd3eb" />
<path d="M1925.1704076850485,782.625 L1956.0795923149515,782.625" close="False" data-weight="1.75" stroke-width="7" fill="none" stroke="#7cd3eb" />
<path d="M1846.8954377834295,1065.7185232472495 L1890.7185232472495,1021.8954377834295" close="False" data-weight="2.060660171779821" stroke-width="7" fill="none" stroke="#7cd3eb" />
<path d="M1775.1704076850485,1082.625 L1806.0795923149515,1082.625" close="False" data-weight="1.75" stroke-width="7" fill="none" stroke="#7cd3eb" />
<path d="M1694.0349025766973,1137.2150974233027 L1737.2150974233027,1094.0349025766973" close="False" data-weight="2.060660171779821" stroke-width="7" fill="none" stroke="#7cd3eb" />
<path d="M1619.0349025766973,1212.2150974233027 L1662.2150974233027,1169.0349025766973" close="False" data-weight="2.060660171779821" stroke-width="7" fill="none" stroke="#7cd3eb" />
<path d="M1544.0349025766973,1287.2150974233027 L1587.2150974233027,1244.0349025766973" close="False" data-weight="2.060660171779821" stroke-width="7" fill="none" stroke="#7cd3eb" />
<path d="M1469.0349025766973,1362.2150974233027 L1512.2150974233027,1319.0349025766973" close="False" data-weight="2.060660171779821" stroke-width="7" fill="none" stroke="#7cd3eb" />
<path d="M1394.0349025766973,1437.2150974233027 L1437.2150974233027,1394.0349025766973" close="False" data-weight="2.060660171779821" stroke-width="7" fill="none" stroke="#7cd3eb" />
<path d="M1298.625,1475.1704076850485 L1298.625,1506.0795923149515" close="False" data-weight="1.75" stroke-width="7" fill="none" stroke="#7cd3eb" />
<path d="M1325.625,1453.125 L1355.625,1453.125" close="False" data-weight="1.75" stroke-width="7" fill="none" stroke="#7cd3eb" />
<path d="M1223.625,2375.1704076850488 L1223.625,2406.0795923149512" close="False" data-weight="1.75" stroke-width="7" fill="none" stroke="#7cd3eb" />
<path d="M1240.5314767527802,1584.3545622165407 L1284.3545622165407,1540.5314767527802" close="False" data-weight="2.060660171779821" stroke-width="7" fill="none" stroke="#7cd3eb" />
<path d="M1171.8954377834593,2365.5314767527802 L1215.7185232472198,2409.3545622165407" close="False" data-weight="2.060660171779821" stroke-width="7" fill="none" stroke="#7cd3eb" />
<path d="M1165.5314767527802,2296.8954377834593 L1209.3545622165107,2340.7185232471898" close="False" data-weight="2.060660171779821" stroke-width="7" fill="none" stroke="#7cd3eb" />
<path d="M1165.5314767527802,1659.3545622165407 L1209.3545622165407,1615.5314767527802" close="False" data-weight="2.060660171779821" stroke-width="7" fill="none" stroke="#7cd3eb" />
<path d="M1090.5314767528102,2221.8954377834893 L1134.3545622165407,2265.7185232472198" close="False" data-weight="2.060660171779821" stroke-width="7" fill="none" stroke="#7cd3eb" />
<path d="M1090.5314767527802,1734.3545622165407 L1134.3545622165407,1690.5314767527802" close="False" data-weight="2.060660171779821" stroke-width="7" fill="none" stroke="#7cd3eb" />
<path d="M1015.5314767527805,2146.8954377834593 L1059.3545622165109,2190.71852324719" close="False" data-weight="2.060660171779821" stroke-width="7" fill="none" stroke="#7cd3eb" />
<path d="M1015.5314767527805,1809.3545622165407 L1059.354562216541,1765.53147675278" close="False" data-weight="2.060660171779821" stroke-width="7" fill="none" stroke="#7cd3eb" />
<path d="M940.5314767528104,2071.8954377834893 L984.3545622165409,2115.7185232472198" close="False" data-weight="2.060660171779821" stroke-width="7" fill="none" stroke="#7cd3eb" />
<path d="M940.5314767527805,1884.3545622165407 L984.3545622165409,1840.5314767527802" close="False" data-weight="2.060660171779821" stroke-width="7" fill="none" stroke="#7cd3eb" />
<path d="M865.5314767527805,1996.8954377834593 L909.3545622165409,2040.7185232472198" close="False" data-weight="2.060660171779821" stroke-width="7" fill="none" stroke="#7cd3eb" />
<path d="M848.625,1925.1704076850485 L848.625,1956.0795923149515" close="False" data-weight="1.75" stroke-width="7" fill="none" stroke="#7cd3eb" />
<path d="M875.1704076850486,1907.625 L906.0795923149514,1907.625" close="False" data-weight="1.75" stroke-width="7" fill="none" stroke="#7cd3eb" />
<path d="M1246.8954377834593,1590.7185232472198 C1239.1012091493994,1598.5127518812797,1223.5127518812797,1614.1012091493994,1215.7185232472198,1621.8954377834593" close="False" data-weight="0.0" stroke-width="7" fill="none" stroke="#8f0f12" />
<path d="M1171.8954377834593,1665.7185232472198 C1164.1012091493994,1673.5127518812797,1148.5127518812797,1689.1012091493994,1140.7185232472198,1696.8954377834593" close="False" data-weight="0.0" stroke-width="7" fill="none" stroke="#8f0f12" />
<path d="M1096.8954377834593,1740.7185232472198 C1089.1012091493994,1748.5127518812797,1073.5127518812794,1764.1012091493994,1065.7185232472195,1771.8954377834593" close="False" data-weight="0.0" stroke-width="7" fill="none" stroke="#8f0f12" />
<path d="M1021.8954377834593,1815.7185232472195 C1014.1012091493993,1823.5127518812794,998.5127518812794,1839.1012091493994,990.7185232472195,1846.8954377834593" close="False" data-weight="0.0" stroke-width="7" fill="none" stroke="#8f0f12" />
<path d="M790.5314767527657,1846.8954377834448 C782.7372481187131,1839.1012091493922,767.1487908506081,1823.5127518812872,759.3545622165556,1815.7185232472345" close="False" data-weight="0.0" stroke-width="7" fill="none" stroke="#8f0f12" />
<path d="M715.5314767527657,1771.8954377834448 C707.7372481187131,1764.1012091493922,692.1487908506081,1748.5127518812872,684.3545622165556,1740.7185232472345" close="False" data-weight="0.0" stroke-width="7" fill="none" stroke="#8f0f12" />
<path d="M725.625,478.125 C714.375,478.125,691.875,478.125,680.625,478.125" close="False" data-weight="0.0" stroke-width="7" fill="none" stroke="#8f0f12" />
<path d="M640.5314767527657,1696.8954377834448 A48.72232222121205,48.72232222121205,0,0,0,624.7248178153839,1686.3337659446147 M624.7248178153839,1686.3337659446147 A48.7223222213147,48.7223222213147,0,0,0,606.0795923149514,1682.625 M606.0795923149514,1682.625" close="False" data-weight="1.0" stroke-width="7" fill="none" stroke="#8f0f12" />
<path d="M650.625,478.125 C639.375,478.125,616.875,478.125,605.625,478.125" close="False" data-weight="0.0" stroke-width="7" fill="none" stroke="#8f0f12" />
<path d="M575.1704076850486,1682.625 C564.1477038425244,1682.625,542.1022961574756,1682.625,531.0795923149514,1682.625" close="False" data-weight="0.0" stroke-width="7" fill="none" stroke="#8f0f12" />
<path d="M575.625,478.125 A54.31980515339342,54.31980515339342,0,0,0,554.8377105184961,482.25984896217227 M554.8377105184961,482.25984896217227 A54.31980515339574,54.31980515339574,0,0,0,537.2150974233027,494.03490257669733 M537.2150974233027,494.03490257669733" close="False" data-weight="1.0" stroke-width="7" fill="none" stroke="#8f0f12" />
<path d="M500.1704076850486,1682.625 C489.14770384252427,1682.625,467.10229615747573,1682.625,456.0795923149514,1682.625" close="False" data-weight="0.0" stroke-width="7" fill="none" stroke="#8f0f12" />
<path d="M494.03490257669733,537.2150974233027 C486.0799512883487,545.1700487116514,470.1700487116513,561.0799512883486,462.21509742330267,569.0349025766973" close="False" data-weight="0.0" stroke-width="7" fill="none" stroke="#8f0f12" />
<path d="M425.1704076850486,1682.625 C414.14770384252427,1682.625,392.10229615747573,1682.625,381.0795923149514,1682.625" close="False" data-weight="0.0" stroke-width="7" fill="none" stroke="#8f0f12" />
<path d="M419.03490257669733,612.2150974233027 C411.0799512883487,620.1700487116514,395.1700487116513,636.0799512883486,387.21509742330267,644.0349025766973" close="False" data-weight="0.0" stroke-width="7" fill="none" stroke="#8f0f12" />
<path d="M350.1704076850486,1682.625 C339.14770384252427,1682.625,317.10229615747573,1682.625,306.0795923149514,1682.625" close="False" data-weight="0.0" stroke-width="7" fill="none" stroke="#8f0f12" />
<path d="M275.1704076850486,1682.625 C264.14770384252427,1682.625,242.10229615747568,1682.625,231.07959231495138,1682.625" close="False" data-weight="0.0" stroke-width="7" fill="none" stroke="#8f0f12" />
<path d="M269.03490257669733,837.2150974233027 C261.0799512883487,845.1700487116514,245.1700487116513,861.0799512883486,237.21509742330267,869.0349025766973" close="False" data-weight="0.0" stroke-width="7" fill="none" stroke="#8f0f12" />
<path d="M200.17040768504862,1682.625 C189.14770384252432,1682.625,167.10229615747568,1682.625,156.07959231495138,1682.625" close="False" data-weight="0.0" stroke-width="7" fill="none" stroke="#8f0f12" />
<path d="M194.0349025766973,912.2150974233027 C186.07995128834867,920.1700487116514,170.1700487116513,936.0799512883486,162.21509742330267,944.0349025766973" close="False" data-weight="0.0" stroke-width="7" fill="none" stroke="#8f0f12" />
<path d="M103.125,1580.625 C103.125,1591.875,103.125,1614.375,103.125,1625.625" close="False" data-weight="0.0" stroke-width="7" fill="none" stroke="#8f0f12" />
<path d="M103.125,1505.625 C103.125,1516.875,103.125,1539.375,103.125,1550.625" close="False" data-weight="0.0" stroke-width="7" fill="none" stroke="#8f0f12" />
<path d="M103.125,1430.625 C103.125,1441.875,103.125,1464.375,103.125,1475.625" close="False" data-weight="0.0" stroke-width="7" fill="none" stroke="#8f0f12" />
<path d="M103.125,1355.625 C103.125,1366.875,103.125,1389.375,103.125,1400.625" close="False" data-weight="0.0" stroke-width="7" fill="none" stroke="#8f0f12" />
<path d="M103.125,1280.625 C103.125,1291.875,103.125,1314.375,103.125,1325.625" close="False" data-weight="0.0" stroke-width="7" fill="none" stroke="#8f0f12" />
<path d="M103.125,1205.625 C103.125,1216.875,103.125,1239.375,103.125,1250.625" close="False" data-weight="0.0" stroke-width="7" fill="none" stroke="#8f0f12" />
<path d="M103.125,1130.625 C103.125,1141.875,103.125,1164.375,103.125,1175.625" close="False" data-weight="0.0" stroke-width="7" fill="none" stroke="#8f0f12" />
<path d="M103.125,1055.625 C103.125,1066.875,103.125,1089.375,103.125,1100.625" close="False" data-weight="0.0" stroke-width="7" fill="none" stroke="#8f0f12" />
<path d="M119.0349025766973,987.2150974233027 A54.3198051533949,54.3198051533949,0,0,0,107.25984896217216,1004.8377105184961 M107.25984896217216,1004.8377105184961 A54.31980515339427,54.31980515339427,0,0,0,103.125,1025.625 M103.125,1025.625" close="False" data-weight="1.0" stroke-width="7" fill="none" stroke="#8f0f12" />
<path d="M1307.625,1475.1704076850485 L1307.625,1506.0795923149515" close="False" data-weight="1.75" stroke-width="7" fill="none" stroke="#8f0f12" />
<path d="M1246.8954377834593,1590.7185232472198 L1290.7185232472198,1546.8954377834593" close="False" data-weight="2.060660171779821" stroke-width="7" fill="none" stroke="#8f0f12" />
<path d="M1171.8954377834593,1665.7185232472198 L1215.7185232472198,1621.8954377834593" close="False" data-weight="2.060660171779821" stroke-width="7" fill="none" stroke="#8f0f12" />
<path d="M1096.8954377834593,1740.7185232472198 L1140.7185232472198,1696.8954377834593" close="False" data-weight="2.060660171779821" stroke-width="7" fill="none" stroke="#8f0f12" />
<path d="M1021.8954377834593,1815.7185232472195 L1065.7185232472195,1771.8954377834596" close="False" data-weight="2.060660171779821" stroke-width="7" fill="none" stroke="#8f0f12" />
<path d="M946.8954377834593,1890.7185232472195 L990.7185232472193,1846.8954377834596" close="False" data-weight="2.060660171779821" stroke-width="7" fill="none" stroke="#8f0f12" />
<path d="M865.5314767527805,1959.3545622165407 L909.3545622165409,1915.5314767527802" close="False" data-weight="2.060660171779821" stroke-width="7" fill="none" stroke="#8f0f12" />
<path d="M857.625,1925.1704076850485 L857.625,1956.0795923149515" close="False" data-weight="1.75" stroke-width="7" fill="none" stroke="#8f0f12" />
<path d="M790.5314767527655,1846.8954377834445 L834.3545622165409,1890.7185232472198" close="False" data-weight="2.060660171779821" stroke-width="7" fill="none" stroke="#8f0f12" />
<path d="M773.625,425.1704076850486 L773.625,456.0795923149514" close="False" data-weight="1.75" stroke-width="7" fill="none" stroke="#8f0f12" />
<path d="M715.5314767527655,1771.8954377834445 L759.3545622165558,1815.7185232472348" close="False" data-weight="2.060660171779821" stroke-width="7" fill="none" stroke="#8f0f12" />
<path d="M725.625,478.125 L755.625,478.125" close="False" data-weight="1.75" stroke-width="7" fill="none" stroke="#8f0f12" />
<path d="M640.5314767527655,1696.8954377834445 L684.3545622165558,1740.7185232472348" close="False" data-weight="2.060660171779821" stroke-width="7" fill="none" stroke="#8f0f12" />
<path d="M650.625,478.125 L680.625,478.125" close="False" data-weight="1.75" stroke-width="7" fill="none" stroke="#8f0f12" />
<path d="M575.1704076850486,1682.625 L606.0795923149514,1682.625" close="False" data-weight="1.75" stroke-width="7" fill="none" stroke="#8f0f12" />
<path d="M575.625,478.125 L605.625,478.125" close="False" data-weight="1.75" stroke-width="7" fill="none" stroke="#8f0f12" />
<path d="M500.1704076850486,1682.625 L531.0795923149514,1682.625" close="False" data-weight="1.75" stroke-width="7" fill="none" stroke="#8f0f12" />
<path d="M494.03490257669733,537.2150974233027 L537.2150974233027,494.03490257669733" close="False" data-weight="2.060660171779821" stroke-width="7" fill="none" stroke="#8f0f12" />
<path d="M425.1704076850486,1682.625 L456.0795923149514,1682.625" close="False" data-weight="1.75" stroke-width="7" fill="none" stroke="#8f0f12" />
<path d="M419.03490257669733,612.2150974233027 L462.21509742330267,569.0349025766973" close="False" data-weight="2.060660171779821" stroke-width="7" fill="none" stroke="#8f0f12" />
<path d="M350.1704076850486,1682.625 L381.0795923149514,1682.625" close="False" data-weight="1.75" stroke-width="7" fill="none" stroke="#8f0f12" />
<path d="M328.125,725.625 L328.125,755.625" close="False" data-weight="1.75" stroke-width="7" fill="none" stroke="#8f0f12" />
<path d="M344.03490257669733,687.2150974233027 L387.21509742330267,644.0349025766973" close="False" data-weight="2.060660171779821" stroke-width="7" fill="none" stroke="#8f0f12" />
<path d="M275.1704076850486,1682.625 L306.0795923149514,1682.625" close="False" data-weight="1.75" stroke-width="7" fill="none" stroke="#8f0f12" />
<path d="M269.03490257669733,837.2150974233027 L312.21509742330267,794.0349025766973" close="False" data-weight="2.060660171779821" stroke-width="7" fill="none" stroke="#8f0f12" />
<path d="M200.17040768504862,1682.625 L231.07959231495138,1682.625" close="False" data-weight="1.75" stroke-width="7" fill="none" stroke="#8f0f12" />
<path d="M194.03490257669733,912.2150974233027 L237.2150974233027,869.0349025766973" close="False" data-weight="2.060660171779821" stroke-width="7" fill="none" stroke="#8f0f12" />
<path d="M125.1704076850486,1682.625 L156.07959231495138,1682.625" close="False" data-weight="1.75" stroke-width="7" fill="none" stroke="#8f0f12" />
<path d="M103.125,1625.625 L103.125,1655.625" close="False" data-weight="1.75" stroke-width="7" fill="none" stroke="#8f0f12" />
<path d="M103.125,1550.625 L103.125,1580.625" close="False" data-weight="1.75" stroke-width="7" fill="none" stroke="#8f0f12" />
<path d="M103.125,1475.625 L103.125,1505.625" close="False" data-weight="1.75" stroke-width="7" fill="none" stroke="#8f0f12" />
<path d="M103.125,1400.625 L103.125,1430.625" close="False" data-weight="1.75" stroke-width="7" fill="none" stroke="#8f0f12" />
<path d="M103.125,1325.625 L103.125,1355.625" close="False" data-weight="1.75" stroke-width="7" fill="none" stroke="#8f0f12" />
<path d="M103.125,1250.625 L103.125,1280.625" close="False" data-weight="1.75" stroke-width="7" fill="none" stroke="#8f0f12" />
<path d="M103.125,1175.625 L103.125,1205.625" close="False" data-weight="1.75" stroke-width="7" fill="none" stroke="#8f0f12" />
<path d="M103.125,1100.625 L103.125,1130.625" close="False" data-weight="1.75" stroke-width="7" fill="none" stroke="#8f0f12" />
<path d="M103.125,1025.625 L103.125,1055.625" close="False" data-weight="1.75" stroke-width="7" fill="none" stroke="#8f0f12" />
<path d="M119.03490257669732,987.2150974233027 L162.2150974233027,944.0349025766973" close="False" data-weight="2.060660171779821" stroke-width="7" fill="none" stroke="#8f0f12" />
<path d="M1100.625,2353.125 C1089.375,2353.125,1066.875,2353.125,1055.625,2353.125" close="False" data-weight="0.0" stroke-width="7" fill="none" stroke="#90ea66" />
<path d="M1096.8954377834295,2215.5314767527507 C1089.1012091493844,2207.737248118706,1073.5127518812947,2192.148790850615,1065.7185232472495,2184.3545622165702" close="False" data-weight="0.0" stroke-width="7" fill="none" stroke="#90ea66" />
<path d="M1025.625,2353.125 C1014.375,2353.125,991.875,2353.125,980.625,2353.125" close="False" data-weight="0.0" stroke-width="7" fill="none" stroke="#90ea66" />
<path d="M1021.8954377834593,2140.5314767527802 C1014.1012091493994,2132.7372481187203,998.5127518812794,2117.1487908506006,990.7185232472195,2109.3545622165407" close="False" data-weight="0.0" stroke-width="7" fill="none" stroke="#90ea66" />
<path d="M950.625,2353.125 C939.375,2353.125,916.875,2353.125,905.625,2353.125" close="False" data-weight="0.0" stroke-width="7" fill="none" stroke="#90ea66" />
<path d="M946.8954377834293,2065.53147675275 C939.1012091493769,2057.7372481186976,923.5127518812719,2042.148790850593,915.7185232472195,2034.3545622165407" close="False" data-weight="0.0" stroke-width="7" fill="none" stroke="#90ea66" />
<path d="M875.625,2353.125 C864.375,2353.125,841.875,2353.125,830.625,2353.125" close="False" data-weight="0.0" stroke-width="7" fill="none" stroke="#90ea66" />
<path d="M800.625,2353.125 C789.375,2353.125,766.875,2353.125,755.625,2353.125" close="False" data-weight="0.0" stroke-width="7" fill="none" stroke="#90ea66" />
<path d="M796.8954377834741,1840.531476752795 C789.1012091494068,1832.7372481187276,773.512751881272,1817.148790850593,765.7185232472046,1809.3545622165257" close="False" data-weight="0.0" stroke-width="7" fill="none" stroke="#90ea66" />
<path d="M725.625,2353.125 C714.375,2353.125,691.875,2353.125,680.625,2353.125" close="False" data-weight="0.0" stroke-width="7" fill="none" stroke="#90ea66" />
<path d="M721.8954377834741,1765.531476752795 C714.1012091494068,1757.7372481187276,698.512751881272,1742.148790850593,690.7185232472046,1734.3545622165257" close="False" data-weight="0.0" stroke-width="7" fill="none" stroke="#90ea66" />
<path d="M650.625,2353.125 C639.375,2353.125,616.875,2353.125,605.625,2353.125" close="False" data-weight="0.0" stroke-width="7" fill="none" stroke="#90ea66" />
<path d="M646.8954377834741,1690.531476752795 A57.722322221365985,57.722322221365985,0,0,0,628.1689687066857,1678.018850152024 M628.1689687066857,1678.018850152024 A57.72232222126104,57.72232222126104,0,0,0,606.0795923149514,1673.625 M606.0795923149514,1673.625" close="False" data-weight="1.0" stroke-width="7" fill="none" stroke="#90ea66" />
<path d="M575.625,2353.125 C564.375,2353.125,541.875,2353.125,530.625,2353.125" close="False" data-weight="0.0" stroke-width="7" fill="none" stroke="#90ea66" />
<path d="M575.1704076850486,1673.625 C564.1477038425244,1673.625,542.1022961574756,1673.625,531.0795923149514,1673.625" close="False" data-weight="0.0" stroke-width="7" fill="none" stroke="#90ea66" />
<path d="M500.625,2353.125 C489.375,2353.125,466.875,2353.125,455.625,2353.125" close="False" data-weight="0.0" stroke-width="7" fill="none" stroke="#90ea66" />
<path d="M500.1704076850486,1673.625 C489.14770384252427,1673.625,467.10229615747573,1673.625,456.0795923149514,1673.625" close="False" data-weight="0.0" stroke-width="7" fill="none" stroke="#90ea66" />
<path d="M425.625,2353.125 C414.375,2353.125,391.875,2353.125,380.625,2353.125" close="False" data-weight="0.0" stroke-width="7" fill="none" stroke="#90ea66" />
<path d="M425.1704076850486,1673.625 C414.14770384252427,1673.625,392.10229615747573,1673.625,381.0795923149514,1673.625" close="False" data-weight="0.0" stroke-width="7" fill="none" stroke="#90ea66" />
<path d="M350.625,2353.125 C339.375,2353.125,316.875,2353.125,305.625,2353.125" close="False" data-weight="0.0" stroke-width="7" fill="none" stroke="#90ea66" />
<path d="M350.1704076850486,1673.625 C339.14770384252427,1673.625,317.10229615747573,1673.625,306.0795923149514,1673.625" close="False" data-weight="0.0" stroke-width="7" fill="none" stroke="#90ea66" />
<path d="M275.625,2353.125 A54.31980515339956,54.31980515339956,0,0,1,254.83771051849584,2348.990151037828 M254.83771051849584,2348.990151037828 A54.31980515339,54.31980515339,0,0,1,237.21509742330267,2337.2150974233027 M237.21509742330267,2337.2150974233027" close="False" data-weight="1.0" stroke-width="7" fill="none" stroke="#90ea66" />
<path d="M275.1704076850486,1673.625 C264.14770384252427,1673.625,242.10229615747568,1673.625,231.07959231495138,1673.625" close="False" data-weight="0.0" stroke-width="7" fill="none" stroke="#90ea66" />
<path d="M200.17040768504862,1673.625 C189.14770384252432,1673.625,167.10229615747568,1673.625,156.07959231495138,1673.625" close="False" data-weight="0.0" stroke-width="7" fill="none" stroke="#90ea66" />
<path d="M178.125,1580.625 A54.31980515339286,54.31980515339286,0,0,1,173.99015103782762,1601.412289481504 M173.99015103782762,1601.412289481504 A54.319805153396246,54.319805153396246,0,0,1,162.21509742330267,1619.0349025766973 M162.21509742330267,1619.0349025766973" close="False" data-weight="1.0" stroke-width="7" fill="none" stroke="#90ea66" />
<path d="M178.125,1505.625 C178.125,1516.875,178.125,1539.375,178.125,1550.625" close="False" data-weight="0.0" stroke-width="7" fill="none" stroke="#90ea66" />
<path d="M178.125,1430.625 C178.125,1441.875,178.125,1464.375,178.125,1475.625" close="False" data-weight="0.0" stroke-width="7" fill="none" stroke="#90ea66" />
<path d="M1232.625,2375.1704076850488 L1232.625,2406.0795923149512" close="False" data-weight="1.75" stroke-width="7" fill="none" stroke="#90ea66" />
<path d="M1165.5314767527802,2371.8954377834593 L1209.3545622165407,2415.7185232472198" close="False" data-weight="2.060660171779821" stroke-width="7" fill="none" stroke="#90ea66" />
<path d="M1171.8954377834593,2290.5314767527802 L1215.7185232472495,2334.3545622165702" close="False" data-weight="2.060660171779821" stroke-width="7" fill="none" stroke="#90ea66" />
<path d="M1100.625,2353.125 L1130.625,2353.125" close="False" data-weight="1.75" stroke-width="7" fill="none" stroke="#90ea66" />
<path d="M1096.8954377834295,2215.5314767527507 L1140.7185232472198,2259.3545622165407" close="False" data-weight="2.060660171779821" stroke-width="7" fill="none" stroke="#90ea66" />
<path d="M1025.625,2353.125 L1055.625,2353.125" close="False" data-weight="1.75" stroke-width="7" fill="none" stroke="#90ea66" />
<path d="M1021.8954377834593,2140.5314767527802 L1065.7185232472493,2184.3545622165702" close="False" data-weight="2.060660171779821" stroke-width="7" fill="none" stroke="#90ea66" />
<path d="M950.625,2353.125 L980.625,2353.125" close="False" data-weight="1.75" stroke-width="7" fill="none" stroke="#90ea66" />
<path d="M946.8954377834294,2065.5314767527507 L990.7185232472193,2109.35456221654" close="False" data-weight="2.060660171779821" stroke-width="7" fill="none" stroke="#90ea66" />
<path d="M875.625,2353.125 L905.625,2353.125" close="False" data-weight="1.75" stroke-width="7" fill="none" stroke="#90ea66" />
<path d="M871.8954377834593,1990.5314767527805 L915.7185232472193,2034.3545622165404" close="False" data-weight="2.060660171779821" stroke-width="7" fill="none" stroke="#90ea66" />
<path d="M871.8954377834593,1965.7185232472195 L915.7185232472193,1921.8954377834596" close="False" data-weight="2.060660171779821" stroke-width="7" fill="none" stroke="#90ea66" />
<path d="M875.1704076850486,1898.625 L906.0795923149514,1898.625" close="False" data-weight="1.75" stroke-width="7" fill="none" stroke="#90ea66" />
<path d="M800.625,2353.125 L830.625,2353.125" close="False" data-weight="1.75" stroke-width="7" fill="none" stroke="#90ea66" />
<path d="M796.8954377834743,1840.5314767527952 L840.7185232472193,1884.3545622165404" close="False" data-weight="2.060660171779821" stroke-width="7" fill="none" stroke="#90ea66" />
<path d="M725.625,2353.125 L755.625,2353.125" close="False" data-weight="1.75" stroke-width="7" fill="none" stroke="#90ea66" />
<path d="M721.8954377834743,1765.5314767527952 L765.7185232472044,1809.3545622165254" close="False" data-weight="2.060660171779821" stroke-width="7" fill="none" stroke="#90ea66" />
<path d="M650.625,2353.125 L680.625,2353.125" close="False" data-weight="1.75" stroke-width="7" fill="none" stroke="#90ea66" />
<path d="M646.8954377834743,1690.5314767527952 L690.7185232472044,1734.3545622165254" close="False" data-weight="2.060660171779821" stroke-width="7" fill="none" stroke="#90ea66" />
<path d="M575.625,2353.125 L605.625,2353.125" close="False" data-weight="1.75" stroke-width="7" fill="none" stroke="#90ea66" />
<path d="M575.1704076850486,1673.625 L606.0795923149514,1673.625" close="False" data-weight="1.75" stroke-width="7" fill="none" stroke="#90ea66" />
<path d="M500.625,2353.125 L530.625,2353.125" close="False" data-weight="1.75" stroke-width="7" fill="none" stroke="#90ea66" />
<path d="M500.1704076850486,1673.625 L531.0795923149514,1673.625" close="False" data-weight="1.75" stroke-width="7" fill="none" stroke="#90ea66" />
<path d="M425.625,2353.125 L455.625,2353.125" close="False" data-weight="1.75" stroke-width="7" fill="none" stroke="#90ea66" />
<path d="M425.1704076850486,1673.625 L456.0795923149514,1673.625" close="False" data-weight="1.75" stroke-width="7" fill="none" stroke="#90ea66" />
<path d="M350.625,2353.125 L380.625,2353.125" close="False" data-weight="1.75" stroke-width="7" fill="none" stroke="#90ea66" />
<path d="M350.1704076850486,1673.625 L381.0795923149514,1673.625" close="False" data-weight="1.75" stroke-width="7" fill="none" stroke="#90ea66" />
<path d="M275.625,2353.125 L305.625,2353.125" close="False" data-weight="1.75" stroke-width="7" fill="none" stroke="#90ea66" />
<path d="M275.1704076850486,1673.625 L306.0795923149514,1673.625" close="False" data-weight="1.75" stroke-width="7" fill="none" stroke="#90ea66" />
<path d="M178.125,2375.625 L178.125,2405.625" close="False" data-weight="1.75" stroke-width="7" fill="none" stroke="#90ea66" />
<path d="M178.125,2300.625 L178.125,2330.625" close="False" data-weight="1.75" stroke-width="7" fill="none" stroke="#90ea66" />
<path d="M194.03490257669733,2294.0349025766973 L237.2150974233027,2337.2150974233027" close="False" data-weight="2.060660171779821" stroke-width="7" fill="none" stroke="#90ea66" />
<path d="M200.17040768504862,1673.625 L231.07959231495138,1673.625" close="False" data-weight="1.75" stroke-width="7" fill="none" stroke="#90ea66" />
<path d="M178.125,1550.625 L178.125,1580.625" close="False" data-weight="1.75" stroke-width="7" fill="none" stroke="#90ea66" />
<path d="M178.125,1475.625 L178.125,1505.625" close="False" data-weight="1.75" stroke-width="7" fill="none" stroke="#90ea66" />
<path d="M178.125,1400.625 L178.125,1430.625" close="False" data-weight="1.75" stroke-width="7" fill="none" stroke="#90ea66" />
<path d="M119.03490257669732,2369.0349025766973 L162.2150974233027,2412.2150974233027" close="False" data-weight="2.060660171779821" stroke-width="7" fill="none" stroke="#90ea66" />
<path d="M125.1704076850486,1673.625 L156.07959231495138,1673.625" close="False" data-weight="1.75" stroke-width="7" fill="none" stroke="#90ea66" />
<path d="M119.03490257669732,1662.2150974233027 L162.2150974233027,1619.0349025766973" close="False" data-weight="2.060660171779821" stroke-width="7" fill="none" stroke="#90ea66" />
<path d="M1898.625,981.0795923149514 A48.72232222123034,48.72232222123034,0,0,1,1894.9162340553682,999.7248178154082 M1894.9162340553682,999.7248178154082 A48.72232222145032,48.72232222145032,0,0,1,1884.3545622165107,1015.5314767528102 M1884.3545622165107,1015.5314767528102" close="False" data-weight="1.0" stroke-width="7" fill="none" stroke="#35618f" />
<path d="M1898.625,906.0795923149514 C1898.625,917.1022961574756,1898.625,939.1477038425244,1898.625,950.1704076850486" close="False" data-weight="0.0" stroke-width="7" fill="none" stroke="#35618f" />
<path d="M1898.625,831.0795923149514 C1898.625,842.1022961574756,1898.625,864.1477038425244,1898.625,875.1704076850486" close="False" data-weight="0.0" stroke-width="7" fill="none" stroke="#35618f" />
<path d="M1903.125,725.625 A54.31980515339637,54.31980515339637,0,0,0,1898.990151037828,704.837710518496 M1898.990151037828,704.837710518496 A54.31980515339273,54.31980515339273,0,0,0,1887.2150974233027,687.2150974233027 M1887.2150974233027,687.2150974233027" close="False" data-weight="1.0" stroke-width="7" fill="none" stroke="#35618f" />
<path d="M1844.0349025766973,644.0349025766973 C1836.0799512883486,636.0799512883486,1820.1700487116514,620.1700487116514,1812.2150974233027,612.2150974233027" close="False" data-weight="0.0" stroke-width="7" fill="none" stroke="#35618f" />
<path d="M1769.0349025766973,569.0349025766973 C1761.0799512883486,561.0799512883486,1745.1700487116514,545.1700487116514,1737.2150974233027,537.2150974233027" close="False" data-weight="0.0" stroke-width="7" fill="none" stroke="#35618f" />
<path d="M1694.0349025766973,494.03490257669733 C1686.0799512883486,486.0799512883487,1670.1700487116514,470.1700487116513,1662.2150974233027,462.21509742330267" close="False" data-weight="0.0" stroke-width="7" fill="none" stroke="#35618f" />
<path d="M1619.0349025766973,419.03490257669733 C1611.0799512883486,411.0799512883487,1595.1700487116514,395.1700487116513,1587.2150974233027,387.21509742330267" close="False" data-weight="0.0" stroke-width="7" fill="none" stroke="#35618f" />
<path d="M1544.0349025766973,344.03490257669733 C1536.0799512883486,336.0799512883487,1520.1700487116514,320.1700487116513,1512.2150974233027,312.21509742330267" close="False" data-weight="0.0" stroke-width="7" fill="none" stroke="#35618f" />
<path d="M1469.0349025766973,269.03490257669733 C1461.0799512883486,261.0799512883487,1445.1700487116514,245.1700487116513,1437.2150974233027,237.21509742330267" close="False" data-weight="0.0" stroke-width="7" fill="none" stroke="#35618f" />
<path d="M1319.0349025766973,162.2150974233027 C1311.0799512883486,170.17004871165133,1295.1700487116514,186.0799512883487,1287.2150974233027,194.03490257669733" close="False" data-weight="0.0" stroke-width="7" fill="none" stroke="#35618f" />
<path d="M1244.0349025766973,237.2150974233027 C1236.0799512883486,245.17004871165133,1220.1700487116514,261.0799512883487,1212.2150974233027,269.03490257669733" close="False" data-weight="0.0" stroke-width="7" fill="none" stroke="#35618f" />
<path d="M1169.0349025766973,312.21509742330267 C1161.0799512883486,320.1700487116513,1145.1700487116514,336.0799512883487,1137.2150974233027,344.03490257669733" close="False" data-weight="0.0" stroke-width="7" fill="none" stroke="#35618f" />
<path d="M1094.0349025766973,387.21509742330267 A54.31980515339522,54.31980515339522,0,0,1,1076.412289481504,398.99015103782773 M1076.412289481504,398.99015103782773 A54.319805153393986,54.319805153393986,0,0,1,1055.625,403.125 M1055.625,403.125" close="False" data-weight="1.0" stroke-width="7" fill="none" stroke="#35618f" />
<path d="M1025.625,403.125 C1014.375,403.125,991.875,403.125,980.625,403.125" close="False" data-weight="0.0" stroke-width="7" fill="none" stroke="#35618f" />
<path d="M950.625,403.125 C939.375,403.125,916.875,403.125,905.625,403.125" close="False" data-weight="0.0" stroke-width="7" fill="none" stroke="#35618f" />
<path d="M875.625,403.125 C864.375,403.125,841.875,403.125,830.625,403.125" close="False" data-weight="0.0" stroke-width="7" fill="none" stroke="#35618f" />
<path d="M719.0349025766973,537.2150974233027 C711.0799512883486,545.1700487116514,695.1700487116514,561.0799512883486,687.2150974233027,569.0349025766973" close="False" data-weight="0.0" stroke-width="7" fill="none" stroke="#35618f" />
<path d="M644.0349025766973,612.2150974233027 C636.0799512883486,620.1700487116514,620.1700487116514,636.0799512883486,612.2150974233027,644.0349025766973" close="False" data-weight="0.0" stroke-width="7" fill="none" stroke="#35618f" />
<path d="M569.0349025766973,687.2150974233027 C561.0799512883486,695.1700487116514,545.1700487116514,711.0799512883486,537.2150974233027,719.0349025766973" close="False" data-weight="0.0" stroke-width="7" fill="none" stroke="#35618f" />
<path d="M494.03490257669733,762.2150974233027 C486.0799512883487,770.1700487116514,470.1700487116513,786.0799512883486,462.21509742330267,794.0349025766973" close="False" data-weight="0.0" stroke-width="7" fill="none" stroke="#35618f" />
<path d="M419.03490257669733,837.2150974233027 C411.0799512883487,845.1700487116514,395.1700487116513,861.0799512883486,387.21509742330267,869.0349025766973" close="False" data-weight="0.0" stroke-width="7" fill="none" stroke="#35618f" />
<path d="M344.03490257669733,912.2150974233027 C336.0799512883487,920.1700487116514,320.1700487116513,936.0799512883486,312.21509742330267,944.0349025766973" close="False" data-weight="0.0" stroke-width="7" fill="none" stroke="#35618f" />
<path d="M269.03490257669733,987.2150974233027 C261.0799512883487,995.1700487116514,245.1700487116513,1011.0799512883486,237.21509742330267,1019.0349025766973" close="False" data-weight="0.0" stroke-width="7" fill="none" stroke="#35618f" />
<path d="M178.125,1280.625 C178.125,1291.875,178.125,1314.375,178.125,1325.625" close="False" data-weight="0.0" stroke-width="7" fill="none" stroke="#35618f" />
<path d="M178.125,1205.625 C178.125,1216.875,178.125,1239.375,178.125,1250.625" close="False" data-weight="0.0" stroke-width="7" fill="none" stroke="#35618f" />
<path d="M178.125,1130.625 C178.125,1141.875,178.125,1164.375,178.125,1175.625" close="False" data-weight="0.0" stroke-width="7" fill="none" stroke="#35618f" />
<path d="M194.0349025766973,1062.2150974233027 A54.3198051533952,54.3198051533952,0,0,0,182.2598489621722,1079.837710518496 M182.2598489621722,1079.837710518496 A54.319805153393986,54.319805153393986,0,0,0,178.125,1100.625 M178.125,1100.625" close="False" data-weight="1.0" stroke-width="7" fill="none" stroke="#35618f" />
<path d="M1898.625,950.1704076850486 L1898.625,981.0795923149514" close="False" data-weight="1.75" stroke-width="7" fill="none" stroke="#35618f" />
<path d="M1898.625,875.1704076850486 L1898.625,906.0795923149514" close="False" data-weight="1.75" stroke-width="7" fill="none" stroke="#35618f" />
<path d="M1898.625,800.1704076850486 L1898.625,831.0795923149514" close="False" data-weight="1.75" stroke-width="7" fill="none" stroke="#35618f" />
<path d="M1903.125,725.625 L1903.125,755.625" close="False" data-weight="1.75" stroke-width="7" fill="none" stroke="#35618f" />
<path d="M1840.5314767528102,1059.3545622165107 L1884.3545622165107,1015.5314767528102" close="False" data-weight="2.060660171779821" stroke-width="7" fill="none" stroke="#35618f" />
<path d="M1844.0349025766973,644.0349025766973 L1887.2150974233027,687.2150974233027" close="False" data-weight="2.060660171779821" stroke-width="7" fill="none" stroke="#35618f" />
<path d="M1775.1704076850485,1073.625 L1806.0795923149515,1073.625" close="False" data-weight="1.75" stroke-width="7" fill="none" stroke="#35618f" />
<path d="M1769.0349025766973,569.0349025766973 L1812.2150974233027,612.2150974233027" close="False" data-weight="2.060660171779821" stroke-width="7" fill="none" stroke="#35618f" />
<path d="M1694.0349025766973,494.03490257669733 L1737.2150974233027,537.2150974233027" close="False" data-weight="2.060660171779821" stroke-width="7" fill="none" stroke="#35618f" />
<path d="M1619.0349025766973,419.03490257669733 L1662.2150974233027,462.21509742330267" close="False" data-weight="2.060660171779821" stroke-width="7" fill="none" stroke="#35618f" />
<path d="M1544.0349025766973,344.03490257669733 L1587.2150974233027,387.21509742330267" close="False" data-weight="2.060660171779821" stroke-width="7" fill="none" stroke="#35618f" />
<path d="M1469.0349025766973,269.03490257669733 L1512.2150974233027,312.21509742330267" close="False" data-weight="2.060660171779821" stroke-width="7" fill="none" stroke="#35618f" />
<path d="M1394.0349025766973,194.03490257669733 L1437.2150974233027,237.2150974233027" close="False" data-weight="2.060660171779821" stroke-width="7" fill="none" stroke="#35618f" />
<path d="M1378.125,125.625 L1378.125,155.625" close="False" data-weight="1.75" stroke-width="7" fill="none" stroke="#35618f" />
<path d="M1319.0349025766973,162.21509742330267 L1362.2150974233027,119.0349025766973" close="False" data-weight="2.060660171779821" stroke-width="7" fill="none" stroke="#35618f" />
<path d="M1244.0349025766973,237.21509742330267 L1287.2150974233027,194.0349025766973" close="False" data-weight="2.060660171779821" stroke-width="7" fill="none" stroke="#35618f" />
<path d="M1169.0349025766973,312.21509742330267 L1212.2150974233027,269.03490257669733" close="False" data-weight="2.060660171779821" stroke-width="7" fill="none" stroke="#35618f" />
<path d="M1094.0349025766973,387.21509742330267 L1137.2150974233027,344.03490257669733" close="False" data-weight="2.060660171779821" stroke-width="7" fill="none" stroke="#35618f" />
<path d="M1025.625,403.125 L1055.625,403.125" close="False" data-weight="1.75" stroke-width="7" fill="none" stroke="#35618f" />
<path d="M950.625,403.125 L980.625,403.125" close="False" data-weight="1.75" stroke-width="7" fill="none" stroke="#35618f" />
<path d="M875.625,403.125 L905.625,403.125" close="False" data-weight="1.75" stroke-width="7" fill="none" stroke="#35618f" />
<path d="M782.625,425.1704076850486 L782.625,456.0795923149514" close="False" data-weight="1.75" stroke-width="7" fill="none" stroke="#35618f" />
<path d="M800.625,403.125 L830.625,403.125" close="False" data-weight="1.75" stroke-width="7" fill="none" stroke="#35618f" />
<path d="M719.0349025766973,537.2150974233027 L762.2150974233027,494.03490257669733" close="False" data-weight="2.060660171779821" stroke-width="7" fill="none" stroke="#35618f" />
<path d="M644.0349025766973,612.2150974233027 L687.2150974233027,569.0349025766973" close="False" data-weight="2.060660171779821" stroke-width="7" fill="none" stroke="#35618f" />
<path d="M569.0349025766973,687.2150974233027 L612.2150974233027,644.0349025766973" close="False" data-weight="2.060660171779821" stroke-width="7" fill="none" stroke="#35618f" />
<path d="M494.03490257669733,762.2150974233027 L537.2150974233027,719.0349025766973" close="False" data-weight="2.060660171779821" stroke-width="7" fill="none" stroke="#35618f" />
<path d="M419.03490257669733,837.2150974233027 L462.21509742330267,794.0349025766973" close="False" data-weight="2.060660171779821" stroke-width="7" fill="none" stroke="#35618f" />
<path d="M344.03490257669733,912.2150974233027 L387.21509742330267,869.0349025766973" close="False" data-weight="2.060660171779821" stroke-width="7" fill="none" stroke="#35618f" />
<path d="M269.03490257669733,987.2150974233027 L312.21509742330267,944.0349025766973" close="False" data-weight="2.060660171779821" stroke-width="7" fill="none" stroke="#35618f" />
<path d="M178.125,1325.625 L178.125,1355.625" close="False" data-weight="1.75" stroke-width="7" fill="none" stroke="#35618f" />
<path d="M178.125,1250.625 L178.125,1280.625" close="False" data-weight="1.75" stroke-width="7" fill="none" stroke="#35618f" />
<path d="M178.125,1175.625 L178.125,1205.625" close="False" data-weight="1.75" stroke-width="7" fill="none" stroke="#35618f" />
<path d="M178.125,1100.625 L178.125,1130.625" close="False" data-weight="1.75" stroke-width="7" fill="none" stroke="#35618f" />
<path d="M194.03490257669733,1062.2150974233027 L237.2150974233027,1019.0349025766973" close="False" data-weight="2.060660171779821" stroke-width="7" fill="none" stroke="#35618f" />
<image x="2395.625" y="1645.625" width="65" height="65" xlink:href="designspace-test/./img/ds_dataset1_40_21_thumb.png" data-node="True" data-id="21" />
<image x="2395.625" y="1120.625" width="65" height="65" xlink:href="designspace-test/./img/ds_dataset1_40_37_thumb.png" data-node="True" data-id="37" />
<image x="2320.625" y="1570.625" width="65" height="65" xlink:href="designspace-test/./img/ds_dataset1_40_27_thumb.png" data-node="True" data-id="27" />
<image x="2095.625" y="2320.625" width="65" height="65" xlink:href="designspace-test/./img/ds_dataset1_40_39_thumb.png" data-node="True" data-id="39" />
<image x="2095.625" y="2245.625" width="65" height="65" xlink:href="designspace-test/./img/ds_dataset1_40_30_thumb.png" data-node="True" data-id="30" />
<image x="2095.625" y="2170.625" width="65" height="65" xlink:href="designspace-test/./img/ds_dataset1_40_25_thumb.png" data-node="True" data-id="25" />
<image x="2095.625" y="2095.625" width="65" height="65" xlink:href="designspace-test/./img/ds_dataset1_40_13_thumb.png" data-node="True" data-id="13" />
<image x="2095.625" y="2020.625" width="65" height="65" xlink:href="designspace-test/./img/ds_dataset1_40_11_thumb.png" data-node="True" data-id="11" />
<image x="2020.625" y="2395.625" width="65" height="65" xlink:href="designspace-test/./img/ds_dataset1_40_33_thumb.png" data-node="True" data-id="33" />
<image x="2020.625" y="2320.625" width="65" height="65" xlink:href="designspace-test/./img/ds_dataset1_40_31_thumb.png" data-node="True" data-id="31" />
<image x="2020.625" y="2245.625" width="65" height="65" xlink:href="designspace-test/./img/ds_dataset1_40_24_thumb.png" data-node="True" data-id="24" />
<image x="2020.625" y="2170.625" width="65" height="65" xlink:href="designspace-test/./img/ds_dataset1_40_17_thumb.png" data-node="True" data-id="17" />
<image x="2020.625" y="2095.625" width="65" height="65" xlink:href="designspace-test/./img/ds_dataset1_40_10_thumb.png" data-node="True" data-id="10" />
<image x="2020.625" y="2020.625" width="65" height="65" xlink:href="designspace-test/./img/ds_dataset1_40_9_thumb.png" data-node="True" data-id="9" />
<image x="1945.625" y="2245.625" width="65" height="65" xlink:href="designspace-test/./img/ds_dataset1_40_16_thumb.png" data-node="True" data-id="16" />
<image x="1945.625" y="2170.625" width="65" height="65" xlink:href="designspace-test/./img/ds_dataset1_40_14_thumb.png" data-node="True" data-id="14" />
<image x="1870.625" y="745.625" width="65" height="65" xlink:href="designspace-test/./img/ds_dataset1_40_19_thumb.png" data-node="True" data-id="19" />
<image x="1795.625" y="1045.625" width="65" height="65" xlink:href="designspace-test/./img/ds_dataset1_40_32_thumb.png" data-node="True" data-id="32" />
<image x="1720.625" y="1045.625" width="65" height="65" xlink:href="designspace-test/./img/ds_dataset1_40_4_thumb.png" data-node="True" data-id="4" />
<image x="1345.625" y="145.625" width="65" height="65" xlink:href="designspace-test/./img/ds_dataset1_40_2_thumb.png" data-node="True" data-id="2" />
<image x="1345.625" y="70.625" width="65" height="65" xlink:href="designspace-test/./img/ds_dataset1_40_12_thumb.png" data-node="True" data-id="12" />
<image x="1270.625" y="1495.625" width="65" height="65" xlink:href="designspace-test/./img/ds_dataset1_40_1_thumb.png" data-node="True" data-id="1" />
<image x="1270.625" y="1420.625" width="65" height="65" xlink:href="designspace-test/./img/ds_dataset1_40_36_thumb.png" data-node="True" data-id="36" />
<image x="1195.625" y="2395.625" width="65" height="65" xlink:href="designspace-test/./img/ds_dataset1_40_6_thumb.png" data-node="True" data-id="6" />
<image x="1195.625" y="2320.625" width="65" height="65" xlink:href="designspace-test/./img/ds_dataset1_40_8_thumb.png" data-node="True" data-id="8" />
<image x="1120.625" y="2320.625" width="65" height="65" xlink:href="designspace-test/./img/ds_dataset1_40_15_thumb.png" data-node="True" data-id="15" />
<image x="1120.625" y="2245.625" width="65" height="65" xlink:href="designspace-test/./img/ds_dataset1_40_26_thumb.png" data-node="True" data-id="26" />
<image x="895.625" y="1870.625" width="65" height="65" xlink:href="designspace-test/./img/ds_dataset1_40_29_thumb.png" data-node="True" data-id="29" />
<image x="820.625" y="1945.625" width="65" height="65" xlink:href="designspace-test/./img/ds_dataset1_40_28_thumb.png" data-node="True" data-id="28" />
<image x="820.625" y="1870.625" width="65" height="65" xlink:href="designspace-test/./img/ds_dataset1_40_3_thumb.png" data-node="True" data-id="3" />
<image x="745.625" y="445.625" width="65" height="65" xlink:href="designspace-test/./img/ds_dataset1_40_38_thumb.png" data-node="True" data-id="38" />
<image x="745.625" y="370.625" width="65" height="65" xlink:href="designspace-test/./img/ds_dataset1_40_22_thumb.png" data-node="True" data-id="22" />
<image x="295.625" y="745.625" width="65" height="65" xlink:href="designspace-test/./img/ds_dataset1_40_23_thumb.png" data-node="True" data-id="23" />
<image x="295.625" y="670.625" width="65" height="65" xlink:href="designspace-test/./img/ds_dataset1_40_35_thumb.png" data-node="True" data-id="35" />
<image x="145.625" y="2395.625" width="65" height="65" xlink:href="designspace-test/./img/ds_dataset1_40_34_thumb.png" data-node="True" data-id="34" />
<image x="145.625" y="2320.625" width="65" height="65" xlink:href="designspace-test/./img/ds_dataset1_40_7_thumb.png" data-node="True" data-id="7" />
<image x="145.625" y="2245.625" width="65" height="65" xlink:href="designspace-test/./img/ds_dataset1_40_0_thumb.png" data-node="True" data-id="0" />
<image x="145.625" y="1345.625" width="65" height="65" xlink:href="designspace-test/./img/ds_dataset1_40_18_thumb.png" data-node="True" data-id="18" />
<image x="70.625" y="2320.625" width="65" height="65" xlink:href="designspace-test/./img/ds_dataset1_40_5_thumb.png" data-node="True" data-id="5" />
<image x="70.625" y="1645.625" width="65" height="65" xlink:href="designspace-test/./img/ds_dataset1_40_20_thumb.png" data-node="True" data-id="20" />
</svg>