<?xml version="1.0" encoding="UTF-8"?>
<svg xmlns="http://www.w3.org/2000/svg" xmlns:xlink="http://www.w3.org/1999/xlink"
     viewBox="0 0 2550 2550" preserveAspectRatio="xMidYMid meet">
<defs>
</defs>
<path d="M2371.89543778346,765.7185232472193 C2364.1012091494,773.5127518812793,2348.5127518812797,789.1012091493993,2340.7185232472198,796.8954377834593" close="False" data-weight="0.0" stroke-width="7" fill="none" stroke="#1fa562" />
<path d="M2282.625,1281.0795923149515 A57.72232222129196,57.72232222129196,0,0,1,2278.2311498479817,1303.168968706678 M2278.2311498479817,1303.168968706678 A57.72232222128422,57.72232222128422,0,0,1,2265.7185232472198,1321.8954377834593 M2265.7185232472198,1321.8954377834593" close="False" data-weight="1.0" stroke-width="7" fill="none" stroke="#1fa562" />
<path d="M2282.625,1206.0795923149515 C2282.625,1217.1022961574758,2282.625,1239.1477038425242,2282.625,1250.1704076850485" close="False" data-weight="0.0" stroke-width="7" fill="none" stroke="#1fa562" />
<path d="M2282.625,1131.0795923149515 C2282.625,1142.1022961574758,2282.625,1164.1477038425242,2282.625,1175.1704076850485" close="False" data-weight="0.0" stroke-width="7" fill="none" stroke="#1fa562" />
<path d="M2282.625,1056.0795923149515 C2282.625,1067.1022961574758,2282.625,1089.1477038425242,2282.625,1100.1704076850485" close="False" data-weight="0.0" stroke-width="7" fill="none" stroke="#1fa562" />
<path d="M2282.625,906.0795923149514 C2282.625,917.1022961574756,2282.625,939.1477038425244,2282.625,950.1704076850486" close="False" data-weight="0.0" stroke-width="7" fill="none" stroke="#1fa562" />
<path d="M2296.89543778346,840.7185232472193 A48.722322221292195,48.722322221292195,0,0,0,2286.33376594462,856.5251821846078 M2286.33376594462,856.5251821846078 A48.722322221285594,48.722322221285594,0,0,0,2282.625,875.1704076850486 M2282.625,875.1704076850486" close="False" data-weight="1.0" stroke-width="7" fill="none" stroke="#1fa562" />
<path d="M2371.8954377834593,765.7185232472195 L2415.7185232472198,721.8954377834591" close="False" data-weight="2.060660171779821" stroke-width="7" fill="none" stroke="#1fa562" />
<path d="M2282.625,1250.1704076850485 L2282.625,1281.0795923149515" close="False" data-weight="1.75" stroke-width="7" fill="none" stroke="#1fa562" />
<path d="M2282.625,1175.1704076850485 L2282.625,1206.0795923149515" close="False" data-weight="1.75" stroke-width="7" fill="none" stroke="#1fa562" />
<path d="M2282.625,1100.1704076850485 L2282.625,1131.0795923149515" close="False" data-weight="1.75" stroke-width="7" fill="none" stroke="#1fa562" />
<path d="M2282.625,1025.1704076850485 L2282.625,1056.0795923149515" close="False" data-weight="1.75" stroke-width="7" fill="none" stroke="#1fa562" />
<path d="M2282.625,950.1704076850486 L2282.625,981.0795923149514" close="False" data-weight="1.75" stroke-width="7" fill="none" stroke="#1fa562" />
<path d="M2282.625,875.1704076850486 L2282.625,906.0795923149514" close="False" data-weight="1.75" stroke-width="7" fill="none" stroke="#1fa562" />
<path d="M2296.8954377834593,840.7185232472195 L2340.7185232472198,796.8954377834591" close="False" data-weight="2.060660171779821" stroke-width="7" fill="none" stroke="#1fa562" />
<path d="M2221.8954377834593,1365.7185232472198 L2265.7185232472198,1321.8954377834593" close="False" data-weight="2.060660171779821" stroke-width="7" fill="none" stroke="#1fa562" />
<path d="M2203.125,1655.625 C2203.125,1666.875,2203.125,1689.375,2203.125,1700.625" close="False" data-weight="0.0" stroke-width="7" fill="none" stroke="#ff1c5d" />
<path d="M2203.125,1580.625 C2203.125,1591.875,2203.125,1614.375,2203.125,1625.625" close="False" data-weight="0.0" stroke-width="7" fill="none" stroke="#ff1c5d" />
<path d="M2203.125,1505.625 C2203.125,1516.875,2203.125,1539.375,2203.125,1550.625" close="False" data-weight="0.0" stroke-width="7" fill="none" stroke="#ff1c5d" />
<path d="M2203.125,1430.625 C2203.125,1441.875,2203.125,1464.375,2203.125,1475.625" close="False" data-weight="0.0" stroke-width="7" fill="none" stroke="#ff1c5d" />
<path d="M2203.125,1700.625 L2203.125,1730.625" close="False" data-weight="1.75" stroke-width="7" fill="none" stroke="#ff1c5d" />
<path d="M2203.125,1625.625 L2203.125,1655.625" close="False" data-weight="1.75" stroke-width="7" fill="none" stroke="#ff1c5d" />
<path d="M2203.125,1550.625 L2203.125,1580.625" close="False" data-weight="1.75" stroke-width="7" fill="none" stroke="#ff1c5d" />
<path d="M2203.125,1475.625 L2203.125,1505.625" close="False" data-weight="1.75" stroke-width="7" fill="none" stroke="#ff1c5d" />
<path d="M2203.125,1400.625 L2203.125,1430.625" close="False" data-weight="1.75" stroke-width="7" fill="none" stroke="#ff1c5d" />
<path d="M2365.5314767527802,759.3545622165409 C2357.7372481187203,767.1487908506008,2342.1487908506006,782.7372481187206,2334.3545622165407,790.5314767527805" close="False" data-weight="0.0" stroke-width="7" fill="none" stroke="#7cd3eb" />
<path d="M2273.625,1281.0795923149515 A48.72232222128787,48.72232222128787,0,0,1,2269.91623405538,1299.7248178153918 M2269.91623405538,1299.7248178153918 A48.72232222128834,48.72232222128834,0,0,1,2259.3545622165407,1315.5314767527802 M2259.3545622165407,1315.5314767527802" close="False" data-weight="1.0" stroke-width="7" fill="none" stroke="#7cd3eb" />
<path d="M2273.625,1206.0795923149515 C2273.625,1217.1022961574758,2273.625,1239.1477038425242,2273.625,1250.1704076850485" close="False" data-weight="0.0" stroke-width="7" fill="none" stroke="#7cd3eb" />
<path d="M2273.625,1131.0795923149515 C2273.625,1142.1022961574758,2273.625,1164.1477038425242,2273.625,1175.1704076850485" close="False" data-weight="0.0" stroke-width="7" fill="none" stroke="#7cd3eb" />
<path d="M2273.625,1056.0795923149515 C2273.625,1067.1022961574758,2273.625,1089.1477038425242,2273.625,1100.1704076850485" close="False" data-weight="0.0" stroke-width="7" fill="none" stroke="#7cd3eb" />
<path d="M2273.625,906.0795923149514 C2273.625,917.1022961574756,2273.625,939.1477038425244,2273.625,950.1704076850486" close="False" data-weight="0.0" stroke-width="7" fill="none" stroke="#7cd3eb" />
<path d="M2290.5314767527802,834.3545622165409 A57.72232222128986,57.72232222128986,0,0,0,2278.0188501520183,853.0810312933223 M2278.0188501520183,853.0810312933223 A57.72232222128605,57.72232222128605,0,0,0,2273.625,875.1704076850486 M2273.625,875.1704076850486" close="False" data-weight="1.0" stroke-width="7" fill="none" stroke="#7cd3eb" />
<path d="M2225.625,1003.125 C2214.375,1003.125,2191.875,1003.125,2180.625,1003.125" close="False" data-weight="0.0" stroke-width="7" fill="none" stroke="#7cd3eb" />
<path d="M2150.1704076850488,1757.625 C2139.1477038425246,1757.625,2117.1022961574754,1757.625,2106.0795923149512,1757.625" close="False" data-weight="0.0" stroke-width="7" fill="none" stroke="#7cd3eb" />
<path d="M2144.0349025766973,1437.2150974233027 A54.319805153402136,54.319805153402136,0,0,1,2126.4122894815036,1448.990151037828 M2126.4122894815036,1448.990151037828 A54.31980515339069,54.31980515339069,0,0,1,2105.625,1453.125 M2105.625,1453.125" close="False" data-weight="1.0" stroke-width="7" fill="none" stroke="#7cd3eb" />
<path d="M2150.625,1003.125 C2139.375,1003.125,2116.875,1003.125,2105.625,1003.125" close="False" data-weight="0.0" stroke-width="7" fill="none" stroke="#7cd3eb" />
<path d="M2075.1704076850488,1757.625 A57.72232222129219,57.72232222129219,0,0,1,2053.081031293322,1753.2311498479817 M2053.081031293322,1753.2311498479817 A57.72232222128471,57.72232222128471,0,0,1,2034.3545622165407,1740.7185232472198 M2034.3545622165407,1740.7185232472198" close="False" data-weight="1.0" stroke-width="7" fill="none" stroke="#7cd3eb" />
<path d="M2075.625,1453.125 C2064.375,1453.125,2041.875,1453.125,2030.625,1453.125" close="False" data-weight="0.0" stroke-width="7" fill="none" stroke="#7cd3eb" />
<path d="M2075.625,1003.125 A54.31980515339285,54.31980515339285,0,0,1,2054.837710518496,998.9901510378276 M2054.837710518496,998.9901510378276 A54.319805153396345,54.319805153396345,0,0,1,2037.2150974233027,987.2150974233027 M2037.2150974233027,987.2150974233027" close="False" data-weight="1.0" stroke-width="7" fill="none" stroke="#7cd3eb" />
<path d="M1973.625,1581.0795923149515 C1973.625,1592.1022961574758,1973.625,1614.1477038425242,1973.625,1625.1704076850485" close="False" data-weight="0.0" stroke-width="7" fill="none" stroke="#7cd3eb" />
<path d="M1973.625,1550.1704076850485 A48.72232222123034,48.72232222123034,0,0,0,1969.9162340553682,1531.5251821845916 M1969.9162340553682,1531.5251821845916 A48.72232222144815,48.72232222144815,0,0,0,1959.3545622165107,1515.7185232471898 M1959.3545622165107,1515.7185232471898" close="False" data-weight="1.0" stroke-width="7" fill="none" stroke="#7cd3eb" />
<path d="M2000.625,1453.125 C1989.375,1453.125,1966.875,1453.125,1955.625,1453.125" close="False" data-weight="0.0" stroke-width="7" fill="none" stroke="#7cd3eb" />
<path d="M1994.0349025766973,944.0349025766973 C1986.0799512883486,936.0799512883486,1970.1700487116514,920.1700487116514,1962.2150974233027,912.2150974233027" close="False" data-weight="0.0" stroke-width="7" fill="none" stroke="#7cd3eb" />
<path d="M1919.0349025766973,869.0349025766973 C1911.0799512883486,861.0799512883486,1895.1700487116514,845.1700487116514,1887.2150974233027,837.2150974233027" close="False" data-weight="0.0" stroke-width="7" fill="none" stroke="#7cd3eb" />
<path d="M1850.625,1453.125 C1839.375,1453.125,1816.875,1453.125,1805.625,1453.125" close="False" data-weight="0.0" stroke-width="7" fill="none" stroke="#7cd3eb" />
<path d="M1775.625,1453.125 C1764.375,1453.125,1741.875,1453.125,1730.625,1453.125" close="False" data-weight="0.0" stroke-width="7" fill="none" stroke="#7cd3eb" />
<path d="M1769.0349025766973,494.03490257669733 C1761.0799512883486,486.0799512883487,1745.1700487116514,470.1700487116513,1737.2150974233027,462.21509742330267" close="False" data-weight="0.0" stroke-width="7" fill="none" stroke="#7cd3eb" />
<path d="M1700.625,1453.125 A54.31980515339569,54.31980515339569,0,0,1,1679.837710518496,1448.9901510378277 M1679.837710518496,1448.9901510378277 A54.3198051533933,54.3198051533933,0,0,1,1662.2150974233027,1437.2150974233027 M1662.2150974233027,1437.2150974233027" close="False" data-weight="1.0" stroke-width="7" fill="none" stroke="#7cd3eb" />
<path d="M1619.0349025766973,1394.0349025766973 C1611.0799512883486,1386.0799512883486,1595.1700487116514,1370.1700487116514,1587.2150974233027,1362.2150974233027" close="False" data-weight="0.0" stroke-width="7" fill="none" stroke="#7cd3eb" />
<path d="M1603.125,305.625 C1603.125,316.875,1603.125,339.375,1603.125,350.625" close="False" data-weight="0.0" stroke-width="7" fill="none" stroke="#7cd3eb" />
<path d="M1603.125,230.625 C1603.125,241.875,1603.125,264.375,1603.125,275.625" close="False" data-weight="0.0" stroke-width="7" fill="none" stroke="#7cd3eb" />
<path d="M1528.125,605.625 C1528.125,616.875,1528.125,639.375,1528.125,650.625" close="False" data-weight="0.0" stroke-width="7" fill="none" stroke="#7cd3eb" />
<path d="M1544.0349025766973,119.0349025766973 A54.3198051533952,54.3198051533952,0,0,0,1526.412289481504,107.25984896217221 M1526.412289481504,107.25984896217221 A54.319805153393986,54.319805153393986,0,0,0,1505.625,103.125 M1505.625,103.125" close="False" data-weight="1.0" stroke-width="7" fill="none" stroke="#7cd3eb" />
<path d="M1475.1704076850485,1298.625 C1464.1477038425242,1298.625,1442.1022961574758,1298.625,1431.0795923149515,1298.625" close="False" data-weight="0.0" stroke-width="7" fill="none" stroke="#7cd3eb" />
<path d="M1321.8954377834593,1240.5314767527802 A57.722322221287286,57.722322221287286,0,0,0,1303.1689687066778,1228.0188501520186 M1303.1689687066778,1228.0188501520186 A57.722322221289005,57.722322221289005,0,0,0,1281.0795923149515,1223.625 M1281.0795923149515,1223.625" close="False" data-weight="1.0" stroke-width="7" fill="none" stroke="#7cd3eb" />
<path d="M1250.1704076850485,1223.625 C1239.1477038425242,1223.625,1217.1022961574758,1223.625,1206.0795923149515,1223.625" close="False" data-weight="0.0" stroke-width="7" fill="none" stroke="#7cd3eb" />
<path d="M1175.1704076850485,1223.625 C1164.1477038425242,1223.625,1142.1022961574758,1223.625,1131.0795923149515,1223.625" close="False" data-weight="0.0" stroke-width="7" fill="none" stroke="#7cd3eb" />
<path d="M1025.625,1228.125 C1014.375,1228.125,991.875,1228.125,980.625,1228.125" close="False" data-weight="0.0" stroke-width="7" fill="none" stroke="#7cd3eb" />
<path d="M928.125,1430.625 C928.125,1441.875,928.125,1464.375,928.125,1475.625" close="False" data-weight="0.0" stroke-width="7" fill="none" stroke="#7cd3eb" />
<path d="M928.125,1355.625 C928.125,1366.875,928.125,1389.375,928.125,1400.625" close="False" data-weight="0.0" stroke-width="7" fill="none" stroke="#7cd3eb" />
<path d="M928.125,1280.625 C928.125,1291.875,928.125,1314.375,928.125,1325.625" close="False" data-weight="0.0" stroke-width="7" fill="none" stroke="#7cd3eb" />
<path d="M857.625,1131.0795923149515 A48.72232222128889,48.72232222128889,0,0,0,861.33376594462,1149.7248178153918 M861.33376594462,1149.7248178153918 A48.722322221287776,48.722322221287776,0,0,0,871.8954377834593,1165.5314767527805 M871.8954377834593,1165.5314767527805" close="False" data-weight="1.0" stroke-width="7" fill="none" stroke="#7cd3eb" />
<path d="M857.625,1056.0795923149515 C857.625,1067.1022961574758,857.625,1089.1477038425242,857.625,1100.1704076850485" close="False" data-weight="0.0" stroke-width="7" fill="none" stroke="#7cd3eb" />
<path d="M857.625,981.0795923149514 C857.625,992.1022961574756,857.625,1014.1477038425243,857.625,1025.1704076850485" close="False" data-weight="0.0" stroke-width="7" fill="none" stroke="#7cd3eb" />
<path d="M857.625,906.0795923149514 C857.625,917.1022961574756,857.625,939.1477038425244,857.625,950.1704076850486" close="False" data-weight="0.0" stroke-width="7" fill="none" stroke="#7cd3eb" />
<path d="M857.625,756.0795923149514 C857.625,767.1022961574756,857.625,789.1477038425244,857.625,800.1704076850486" close="False" data-weight="0.0" stroke-width="7" fill="none" stroke="#7cd3eb" />
<path d="M857.625,650.1704076850486 A57.72232222128764,57.72232222128764,0,0,0,853.2311498479813,628.0810312933223 M853.2311498479813,628.0810312933223 A57.72232222128921,57.72232222128921,0,0,0,840.7185232472195,609.3545622165407 M840.7185232472195,609.3545622165407" close="False" data-weight="1.0" stroke-width="7" fill="none" stroke="#7cd3eb" />
<path d="M796.8954377834592,465.7185232472197 A48.72232222128845,48.72232222128845,0,0,0,786.33376594462,481.5251821846082 M786.33376594462,481.5251821846082 A48.72232222128787,48.72232222128787,0,0,0,782.625,500.1704076850486 M782.625,500.1704076850486" close="False" data-weight="1.0" stroke-width="7" fill="none" stroke="#7cd3eb" />
<path d="M2365.5314767527802,759.3545622165407 L2409.35456221654,715.5314767527807" close="False" data-weight="2.060660171779821" stroke-width="7" fill="none" stroke="#7cd3eb" />
<path d="M2273.625,1250.1704076850485 L2273.625,1281.0795923149515" close="False" data-weight="1.75" stroke-width="7" fill="none" stroke="#7cd3eb" />
<path d="M2273.625,1175.1704076850485 L2273.625,1206.0795923149515" close="False" data-weight="1.75" stroke-width="7" fill="none" stroke="#7cd3eb" />
<path d="M2273.625,1100.1704076850485 L2273.625,1131.0795923149515" close="False" data-weight="1.75" stroke-width="7" fill="none" stroke="#7cd3eb" />
<path d="M2273.625,1025.1704076850485 L2273.625,1056.0795923149515" close="False" data-weight="1.75" stroke-width="7" fill="none" stroke="#7cd3eb" />
<path d="M2273.625,950.1704076850486 L2273.625,981.0795923149514" close="False" data-weight="1.75" stroke-width="7" fill="none" stroke="#7cd3eb" />
<path d="M2273.625,875.1704076850486 L2273.625,906.0795923149514" close="False" data-weight="1.75" stroke-width="7" fill="none" stroke="#7cd3eb" />
<path d="M2290.5314767527802,834.3545622165407 L2334.35456221654,790.5314767527807" close="False" data-weight="2.060660171779821" stroke-width="7" fill="none" stroke="#7cd3eb" />
<path d="M2215.5314767527802,1359.3545622165407 L2259.3545622165407,1315.5314767527802" close="False" data-weight="2.060660171779821" stroke-width="7" fill="none" stroke="#7cd3eb" />
<path d="M2225.625,1003.125 L2255.625,1003.125" close="False" data-weight="1.75" stroke-width="7" fill="none" stroke="#7cd3eb" />
<path d="M2150.1704076850488,1757.625 L2181.0795923149512,1757.625" close="False" data-weight="1.75" stroke-width="7" fill="none" stroke="#7cd3eb" />
<path d="M2144.0349025766973,1437.2150974233027 L2187.2150974233027,1394.0349025766973" close="False" data-weight="2.060660171779821" stroke-width="7" fill="none" stroke="#7cd3eb" />
<path d="M2150.625,1003.125 L2180.625,1003.125" close="False" data-weight="1.75" stroke-width="7" fill="none" stroke="#7cd3eb" />
<path d="M2075.1704076850488,1757.625 L2106.0795923149512,1757.625" close="False" data-weight="1.75" stroke-width="7" fill="none" stroke="#7cd3eb" />
<path d="M2075.625,1453.125 L2105.625,1453.125" close="False" data-weight="1.75" stroke-width="7" fill="none" stroke="#7cd3eb" />
<path d="M2075.625,1003.125 L2105.625,1003.125" close="False" data-weight="1.75" stroke-width="7" fill="none" stroke="#7cd3eb" />
<path d="M1990.5314767527802,1696.8954377834593 L2034.3545622165407,1740.7185232472198" close="False" data-weight="2.060660171779821" stroke-width="7" fill="none" stroke="#7cd3eb" />
<path d="M1973.625,1625.1704076850485 L1973.625,1656.0795923149515" close="False" data-weight="1.75" stroke-width="7" fill="none" stroke="#7cd3eb" />
<path d="M1973.625,1550.1704076850485 L1973.625,1581.0795923149515" close="False" data-weight="1.75" stroke-width="7" fill="none" stroke="#7cd3eb" />
<path d="M2000.625,1453.125 L2030.625,1453.125" close="False" data-weight="1.75" stroke-width="7" fill="none" stroke="#7cd3eb" />
<path d="M1994.0349025766973,944.0349025766973 L2037.2150974233027,987.2150974233027" close="False" data-weight="2.060660171779821" stroke-width="7" fill="none" stroke="#7cd3eb" />
<path d="M1915.5314767528102,1471.8954377834893 L1959.3545622165107,1515.7185232471898" close="False" data-weight="2.060660171779821" stroke-width="7" fill="none" stroke="#7cd3eb" />
<path d="M1925.625,1453.125 L1955.625,1453.125" close="False" data-weight="1.75" stroke-width="7" fill="none" stroke="#7cd3eb" />
<path d="M1919.0349025766973,869.0349025766973 L1962.2150974233027,912.2150974233027" close="False" data-weight="2.060660171779821" stroke-width="7" fill="none" stroke="#7cd3eb" />
<path d="M1850.625,1453.125 L1880.625,1453.125" close="False" data-weight="1.75" stroke-width="7" fill="none" stroke="#7cd3eb" />
<path d="M1844.0349025766973,794.0349025766973 L1887.2150974233027,837.2150974233027" close="False" data-weight="2.060660171779821" stroke-width="7" fill="none" stroke="#7cd3eb" />
<path d="M1844.0349025766973,569.0349025766973 L1887.2150974233027,612.2150974233027" close="False" data-weight="2.060660171779821" stroke-width="7" fill="none" stroke="#7cd3eb" />
<path d="M1775.625,1453.125 L1805.625,1453.125" close="False" data-weight="1.75" stroke-width="7" fill="none" stroke="#7cd3eb" />
<path d="M1769.0349025766973,719.0349025766973 L1812.2150974233027,762.2150974233027" close="False" data-weight="2.060660171779821" stroke-width="7" fill="none" stroke="#7cd3eb" />
<path d="M1753.125,650.625 L1753.125,680.625" close="False" data-weight="1.75" stroke-width="7" fill="none" stroke="#7cd3eb" />
<path d="M1769.0349025766973,612.2150974233027 L1812.2150974233027,569.0349025766973" close="False" data-weight="2.060660171779821" stroke-width="7" fill="none" stroke="#7cd3eb" />
<path d="M1769.0349025766973,494.03490257669733 L1812.2150974233027,537.2150974233027" close="False" data-weight="2.060660171779821" stroke-width="7" fill="none" stroke="#7cd3eb" />
<path d="M1700.625,1453.125 L1730.625,1453.125" close="False" data-weight="1.75" stroke-width="7" fill="none" stroke="#7cd3eb" />
<path d="M1694.0349025766973,419.03490257669733 L1737.2150974233027,462.21509742330267" close="False" data-weight="2.060660171779821" stroke-width="7" fill="none" stroke="#7cd3eb" />
<path d="M1619.0349025766973,1394.0349025766973 L1662.2150974233027,1437.2150974233027" close="False" data-weight="2.060660171779821" stroke-width="7" fill="none" stroke="#7cd3eb" />
<path d="M1625.625,403.125 L1655.625,403.125" close="False" data-weight="1.75" stroke-width="7" fill="none" stroke="#7cd3eb" />
<path d="M1603.125,350.625 L1603.125,380.625" close="False" data-weight="1.75" stroke-width="7" fill="none" stroke="#7cd3eb" />
<path d="M1603.125,275.625 L1603.125,305.625" close="False" data-weight="1.75" stroke-width="7" fill="none" stroke="#7cd3eb" />
<path d="M1603.125,200.625 L1603.125,230.625" close="False" data-weight="1.75" stroke-width="7" fill="none" stroke="#7cd3eb" />
<path d="M1544.0349025766973,1319.0349025766973 L1587.2150974233027,1362.2150974233027" close="False" data-weight="2.060660171779821" stroke-width="7" fill="none" stroke="#7cd3eb" />
<path d="M1528.125,650.625 L1528.125,680.625" close="False" data-weight="1.75" stroke-width="7" fill="none" stroke="#7cd3eb" />
<path d="M1528.125,575.625 L1528.125,605.625" close="False" data-weight="1.75" stroke-width="7" fill="none" stroke="#7cd3eb" />
<path d="M1528.125,500.625 L1528.125,530.625" close="False" data-weight="1.75" stroke-width="7" fill="none" stroke="#7cd3eb" />
<path d="M1528.125,425.625 L1528.125,455.625" close="False" data-weight="1.75" stroke-width="7" fill="none" stroke="#7cd3eb" />
<path d="M1550.625,403.125 L1580.625,403.125" close="False" data-weight="1.75" stroke-width="7" fill="none" stroke="#7cd3eb" />
<path d="M1544.0349025766973,119.03490257669732 L1587.2150974233027,162.2150974233027" close="False" data-weight="2.060660171779821" stroke-width="7" fill="none" stroke="#7cd3eb" />
<path d="M1475.1704076850485,1298.625 L1506.0795923149515,1298.625" close="False" data-weight="1.75" stroke-width="7" fill="none" stroke="#7cd3eb" />
<path d="M1475.625,103.125 L1505.625,103.125" close="False" data-weight="1.75" stroke-width="7" fill="none" stroke="#7cd3eb" />
<path d="M1400.1704076850485,1298.625 L1431.0795923149515,1298.625" close="False" data-weight="1.75" stroke-width="7" fill="none" stroke="#7cd3eb" />
<path d="M1321.8954377834593,1240.5314767527802 L1365.7185232472198,1284.3545622165407" close="False" data-weight="2.060660171779821" stroke-width="7" fill="none" stroke="#7cd3eb" />
<path d="M1250.1704076850485,1223.625 L1281.0795923149515,1223.625" close="False" data-weight="1.75" stroke-width="7" fill="none" stroke="#7cd3eb" />
<path d="M1175.1704076850485,1223.625 L1206.0795923149515,1223.625" close="False" data-weight="1.75" stroke-width="7" fill="none" stroke="#7cd3eb" />
<path d="M1100.1704076850485,1223.625 L1131.0795923149515,1223.625" close="False" data-weight="1.75" stroke-width="7" fill="none" stroke="#7cd3eb" />
<path d="M1025.625,1228.125 L1055.625,1228.125" close="False" data-weight="1.75" stroke-width="7" fill="none" stroke="#7cd3eb" />
<path d="M928.125,1475.625 L928.125,1505.625" close="False" data-weight="1.75" stroke-width="7" fill="none" stroke="#7cd3eb" />
<path d="M928.125,1400.625 L928.125,1430.625" close="False" data-weight="1.75" stroke-width="7" fill="none" stroke="#7cd3eb" />
<path d="M928.125,1325.625 L928.125,1355.625" close="False" data-weight="1.75" stroke-width="7" fill="none" stroke="#7cd3eb" />
<path d="M928.125,1250.625 L928.125,1280.625" close="False" data-weight="1.75" stroke-width="7" fill="none" stroke="#7cd3eb" />
<path d="M950.625,1228.125 L980.625,1228.125" close="False" data-weight="1.75" stroke-width="7" fill="none" stroke="#7cd3eb" />
<path d="M871.8954377834593,1165.5314767527805 L915.7185232472193,1209.3545622165404" close="False" data-weight="2.060660171779821" stroke-width="7" fill="none" stroke="#7cd3eb" />
<path d="M857.625,1100.1704076850485 L857.625,1131.0795923149515" close="False" data-weight="1.75" stroke-width="7" fill="none" stroke="#7cd3eb" />
<path d="M857.625,1025.1704076850485 L857.625,1056.0795923149515" close="False" data-weight="1.75" stroke-width="7" fill="none" stroke="#7cd3eb" />
<path d="M857.625,950.1704076850486 L857.625,981.0795923149514" close="False" data-weight="1.75" stroke-width="7" fill="none" stroke="#7cd3eb" />
<path d="M857.625,875.1704076850486 L857.625,906.0795923149514" close="False" data-weight="1.75" stroke-width="7" fill="none" stroke="#7cd3eb" />
<path d="M857.625,800.1704076850486 L857.625,831.0795923149514" close="False" data-weight="1.75" stroke-width="7" fill="none" stroke="#7cd3eb" />
<path d="M857.625,725.1704076850486 L857.625,756.0795923149514" close="False" data-weight="1.75" stroke-width="7" fill="none" stroke="#7cd3eb" />
<path d="M857.625,650.1704076850486 L857.625,681.0795923149514" close="False" data-weight="1.75" stroke-width="7" fill="none" stroke="#7cd3eb" />
<path d="M796.8954377834593,565.5314767527805 L840.7185232472233,609.3545622165444" close="False" data-weight="2.060660171779821" stroke-width="7" fill="none" stroke="#7cd3eb" />
<path d="M782.625,500.1704076850486 L782.625,531.0795923149514" close="False" data-weight="1.75" stroke-width="7" fill="none" stroke="#7cd3eb" />
<path d="M796.8954377834593,465.7185232472196 L840.7185232472194,421.8954377834595" close="False" data-weight="2.060660171779821" stroke-width="7" fill="none" stroke="#7cd3eb" />
<path d="M1598.625,2375.1704076850488 A48.72232222128832,48.72232222128832,0,0,0,1594.9162340553798,2356.525182184608 M1594.9162340553798,2356.525182184608 A48.72232222128834,48.72232222128834,0,0,0,1584.3545622165407,2340.7185232472198 M1584.3545622165407,2340.7185232472198" close="False" data-weight="1.0" stroke-width="7" fill="none" stroke="#8f0f12" />
<path d="M1540.5314767527505,2296.8954377834298 C1532.7372481187053,2289.101209149385,1517.1487908506156,2273.512751881294,1509.3545622165705,2265.7185232472493" close="False" data-weight="0.0" stroke-width="7" fill="none" stroke="#8f0f12" />
<path d="M1475.1704076850485,1307.625 C1464.1477038425242,1307.625,1442.1022961574758,1307.625,1431.0795923149515,1307.625" close="False" data-weight="0.0" stroke-width="7" fill="none" stroke="#8f0f12" />
<path d="M1400.625,2203.125 C1389.375,2203.125,1366.875,2203.125,1355.625,2203.125" close="False" data-weight="0.0" stroke-width="7" fill="none" stroke="#8f0f12" />
<path d="M1325.625,2203.125 C1314.375,2203.125,1291.875,2203.125,1280.625,2203.125" close="False" data-weight="0.0" stroke-width="7" fill="none" stroke="#8f0f12" />
<path d="M1315.5314767527802,1246.8954377834593 A48.72232222128834,48.72232222128834,0,0,0,1299.7248178153918,1236.3337659446202 M1299.7248178153918,1236.3337659446202 A48.72232222128764,48.72232222128764,0,0,0,1281.0795923149515,1232.625 M1281.0795923149515,1232.625" close="False" data-weight="1.0" stroke-width="7" fill="none" stroke="#8f0f12" />
<path d="M1250.1704076850485,1232.625 C1239.1477038425242,1232.625,1217.1022961574758,1232.625,1206.0795923149515,1232.625" close="False" data-weight="0.0" stroke-width="7" fill="none" stroke="#8f0f12" />
<path d="M1175.625,2203.125 C1164.375,2203.125,1141.875,2203.125,1130.625,2203.125" close="False" data-weight="0.0" stroke-width="7" fill="none" stroke="#8f0f12" />
<path d="M1175.1704076850485,1232.625 C1164.1477038425242,1232.625,1142.1022961574758,1232.625,1131.0795923149515,1232.625" close="False" data-weight="0.0" stroke-width="7" fill="none" stroke="#8f0f12" />
<path d="M1100.625,2203.125 A54.31980515339728,54.31980515339728,0,0,0,1079.837710518496,2207.2598489621723 M1079.837710518496,2207.2598489621723 A54.319805153387826,54.319805153387826,0,0,0,1062.2150974233027,2219.0349025766973 M1062.2150974233027,2219.0349025766973" close="False" data-weight="1.0" stroke-width="7" fill="none" stroke="#8f0f12" />
<path d="M1023.7465906273013,1237.125 C1013.4357953136507,1237.125,992.8142046863493,1237.125,982.5034093726987,1237.125" close="False" data-weight="0.0" stroke-width="7" fill="none" stroke="#8f0f12" />
<path d="M950.625,2278.125 A54.3198051533991,54.3198051533991,0,0,1,929.8377105184959,2273.990151037828 M929.8377105184959,2273.990151037828 A54.319805153386056,54.319805153386056,0,0,1,912.2150974233027,2262.2150974233027 M912.2150974233027,2262.2150974233027" close="False" data-weight="1.0" stroke-width="7" fill="none" stroke="#8f0f12" />
<path d="M937.125,1432.5034093726988 C937.125,1442.8142046863495,937.125,1463.4357953136505,937.125,1473.7465906273012" close="False" data-weight="0.0" stroke-width="7" fill="none" stroke="#8f0f12" />
<path d="M937.125,1357.5034093726988 C937.125,1367.8142046863495,937.125,1388.4357953136505,937.125,1398.7465906273012" close="False" data-weight="0.0" stroke-width="7" fill="none" stroke="#8f0f12" />
<path d="M937.125,1282.5034093726988 C937.125,1292.8142046863495,937.125,1313.4357953136505,937.125,1323.7465906273012" close="False" data-weight="0.0" stroke-width="7" fill="none" stroke="#8f0f12" />
<path d="M869.0349025766973,2219.0349025766973 C861.0799512883486,2211.0799512883486,845.1700487116514,2195.1700487116514,837.2150974233027,2187.2150974233027" close="False" data-weight="0.0" stroke-width="7" fill="none" stroke="#8f0f12" />
<path d="M871.8954377834741,1590.718523247205 C863.9807691512977,1598.6331918793815,845.1297660554791,1611.1202339445208,837.2150974233027,1619.0349025766973" close="False" data-weight="0.0" stroke-width="7" fill="none" stroke="#8f0f12" />
<path d="M794.0349025766973,2144.0349025766973 C786.0799512883486,2136.0799512883486,770.1700487116514,2120.1700487116514,762.2150974233027,2112.2150974233027" close="False" data-weight="0.0" stroke-width="7" fill="none" stroke="#8f0f12" />
<path d="M794.0349025766973,1662.2150974233027 C786.0799512883486,1670.1700487116514,770.1700487116514,1686.0799512883486,762.2150974233027,1694.0349025766973" close="False" data-weight="0.0" stroke-width="7" fill="none" stroke="#8f0f12" />
<path d="M719.0349025766973,2069.0349025766973 C711.0799512883486,2061.0799512883486,695.1700487116514,2045.1700487116514,687.2150974233027,2037.2150974233027" close="False" data-weight="0.0" stroke-width="7" fill="none" stroke="#8f0f12" />
<path d="M719.0349025766973,1737.2150974233027 C711.0799512883486,1745.1700487116514,695.1700487116514,1761.0799512883486,687.2150974233027,1769.0349025766973" close="False" data-weight="0.0" stroke-width="7" fill="none" stroke="#8f0f12" />
<path d="M644.0349025766973,1994.0349025766973 C636.0799512883486,1986.0799512883486,620.1700487116514,1970.1700487116514,612.2150974233027,1962.2150974233027" close="False" data-weight="0.0" stroke-width="7" fill="none" stroke="#8f0f12" />
<path d="M644.0349025766973,1812.2150974233027 C636.0799512883486,1820.1700487116514,620.1700487116514,1836.0799512883486,612.2150974233027,1844.0349025766973" close="False" data-weight="0.0" stroke-width="7" fill="none" stroke="#8f0f12" />
<path d="M1598.625,2375.1704076850488 L1598.625,2406.0795923149512" close="False" data-weight="1.75" stroke-width="7" fill="none" stroke="#8f0f12" />
<path d="M1540.5314767527505,2296.8954377834298 L1584.3545622165407,2340.7185232472198" close="False" data-weight="2.060660171779821" stroke-width="7" fill="none" stroke="#8f0f12" />
<path d="M1465.5314767527802,2221.8954377834593 L1509.3545622165705,2265.7185232472493" close="False" data-weight="2.060660171779821" stroke-width="7" fill="none" stroke="#8f0f12" />
<path d="M1475.1704076850485,1307.625 L1506.0795923149515,1307.625" close="False" data-weight="1.75" stroke-width="7" fill="none" stroke="#8f0f12" />
<path d="M1400.625,2203.125 L1430.625,2203.125" close="False" data-weight="1.75" stroke-width="7" fill="none" stroke="#8f0f12" />
<path d="M1400.1704076850485,1307.625 L1431.0795923149515,1307.625" close="False" data-weight="1.75" stroke-width="7" fill="none" stroke="#8f0f12" />
<path d="M1325.625,2203.125 L1355.625,2203.125" close="False" data-weight="1.75" stroke-width="7" fill="none" stroke="#8f0f12" />
<path d="M1315.5314767527802,1246.8954377834593 L1359.3545622165407,1290.7185232472198" close="False" data-weight="2.060660171779821" stroke-width="7" fill="none" stroke="#8f0f12" />
<path d="M1250.625,2203.125 L1280.625,2203.125" close="False" data-weight="1.75" stroke-width="7" fill="none" stroke="#8f0f12" />
<path d="M1250.1704076850485,1232.625 L1281.0795923149515,1232.625" close="False" data-weight="1.75" stroke-width="7" fill="none" stroke="#8f0f12" />
<path d="M1175.625,2203.125 L1205.625,2203.125" close="False" data-weight="1.75" stroke-width="7" fill="none" stroke="#8f0f12" />
<path d="M1175.1704076850485,1232.625 L1206.0795923149515,1232.625" close="False" data-weight="1.75" stroke-width="7" fill="none" stroke="#8f0f12" />
<path d="M1100.625,2203.125 L1130.625,2203.125" close="False" data-weight="1.75" stroke-width="7" fill="none" stroke="#8f0f12" />
<path d="M1100.1704076850485,1232.625 L1131.0795923149515,1232.625" close="False" data-weight="1.75" stroke-width="7" fill="none" stroke="#8f0f12" />
<path d="M1019.0349025766973,2262.2150974233027 L1062.2150974233027,2219.0349025766973" close="False" data-weight="2.060660171779821" stroke-width="7" fill="none" stroke="#8f0f12" />
<path d="M1023.7465906273013,1237.125 L1057.5034093726988,1237.125" close="False" data-weight="1.75" stroke-width="7" fill="none" stroke="#8f0f12" />
<path d="M950.625,2278.125 L980.625,2278.125" close="False" data-weight="1.75" stroke-width="7" fill="none" stroke="#8f0f12" />
<path d="M937.125,1473.7465906273012 L937.125,1507.5034093726988" close="False" data-weight="1.75" stroke-width="7" fill="none" stroke="#8f0f12" />
<path d="M937.125,1398.7465906273012 L937.125,1432.5034093726988" close="False" data-weight="1.75" stroke-width="7" fill="none" stroke="#8f0f12" />
<path d="M937.125,1323.7465906273012 L937.125,1357.5034093726988" close="False" data-weight="1.75" stroke-width="7" fill="none" stroke="#8f0f12" />
<path d="M937.125,1248.7465906273012 L937.125,1282.5034093726988" close="False" data-weight="1.75" stroke-width="7" fill="none" stroke="#8f0f12" />
<path d="M948.7465906273013,1237.125 L982.5034093726987,1237.125" close="False" data-weight="1.75" stroke-width="7" fill="none" stroke="#8f0f12" />
<path d="M869.0349025766973,2219.0349025766973 L912.2150974233027,2262.2150974233027" close="False" data-weight="2.060660171779821" stroke-width="7" fill="none" stroke="#8f0f12" />
<path d="M871.8954377834743,1590.7185232472048 L915.7185232472044,1546.8954377834746" close="False" data-weight="2.060660171779821" stroke-width="7" fill="none" stroke="#8f0f12" />
<path d="M794.0349025766973,2144.0349025766973 L837.2150974233027,2187.2150974233027" close="False" data-weight="2.060660171779821" stroke-width="7" fill="none" stroke="#8f0f12" />
<path d="M794.0349025766973,1662.2150974233027 L837.2150974233027,1619.0349025766973" close="False" data-weight="2.060660171779821" stroke-width="7" fill="none" stroke="#8f0f12" />
<path d="M719.0349025766973,2069.0349025766973 L762.2150974233027,2112.2150974233027" close="False" data-weight="2.060660171779821" stroke-width="7" fill="none" stroke="#8f0f12" />
<path d="M719.0349025766973,1737.2150974233027 L762.2150974233027,1694.0349025766973" close="False" data-weight="2.060660171779821" stroke-width="7" fill="none" stroke="#8f0f12" />
<path d="M644.0349025766973,1994.0349025766973 L687.2150974233027,2037.2150974233027" close="False" data-weight="2.060660171779821" stroke-width="7" fill="none" stroke="#8f0f12" />
<path d="M644.0349025766973,1812.2150974233027 L687.2150974233027,1769.0349025766973" close="False" data-weight="2.060660171779821" stroke-width="7" fill="none" stroke="#8f0f12" />
<path d="M569.0349025766973,1919.0349025766973 L612.2150974233027,1962.2150974233027" close="False" data-weight="2.060660171779821" stroke-width="7" fill="none" stroke="#8f0f12" />
<path d="M569.0349025766973,1887.2150974233027 L612.2150974233027,1844.0349025766973" close="False" data-weight="2.060660171779821" stroke-width="7" fill="none" stroke="#8f0f12" />
<path d="M1023.7465906273013,1219.125 C1013.4357953136507,1219.125,992.8142046863493,1219.125,982.5034093726987,1219.125" close="False" data-weight="0.0" stroke-width="7" fill="none" stroke="#90ea66" />
<path d="M919.125,1432.5034093726988 C919.125,1442.8142046863495,919.125,1463.4357953136505,919.125,1473.7465906273012" close="False" data-weight="0.0" stroke-width="7" fill="none" stroke="#90ea66" />
<path d="M919.125,1357.5034093726988 C919.125,1367.8142046863495,919.125,1388.4357953136505,919.125,1398.7465906273012" close="False" data-weight="0.0" stroke-width="7" fill="none" stroke="#90ea66" />
<path d="M919.125,1282.5034093726988 C919.125,1292.8142046863495,919.125,1313.4357953136505,919.125,1323.7465906273012" close="False" data-weight="0.0" stroke-width="7" fill="none" stroke="#90ea66" />
<path d="M853.125,1805.625 C853.125,1816.875,853.125,1839.375,853.125,1850.625" close="False" data-weight="0.0" stroke-width="7" fill="none" stroke="#90ea66" />
<path d="M853.125,1730.625 C853.125,1741.875,853.125,1764.375,853.125,1775.625" close="False" data-weight="0.0" stroke-width="7" fill="none" stroke="#90ea66" />
<path d="M853.125,1655.625 C853.125,1666.875,853.125,1689.375,853.125,1700.625" close="False" data-weight="0.0" stroke-width="7" fill="none" stroke="#90ea66" />
<path d="M865.5314767527657,1584.3545622165552 A37.27458738641864,37.27458738641864,0,0,0,855.3498321084998,1603.3418712754901 M855.3498321084998,1603.3418712754901 A112.70237015821954,112.70237015821954,0,0,0,853.125,1625.625 M853.125,1625.625" close="False" data-weight="1.0" stroke-width="7" fill="none" stroke="#90ea66" />
<path d="M848.625,1131.0795923149515 A57.72232222128628,57.72232222128628,0,0,0,853.0188501520188,1153.1689687066778 M853.0188501520188,1153.1689687066778 A57.72232222129018,57.72232222129018,0,0,0,865.5314767527805,1171.8954377834593 M865.5314767527805,1171.8954377834593" close="False" data-weight="1.0" stroke-width="7" fill="none" stroke="#90ea66" />
<path d="M848.625,1056.0795923149515 C848.625,1067.1022961574758,848.625,1089.1477038425242,848.625,1100.1704076850485" close="False" data-weight="0.0" stroke-width="7" fill="none" stroke="#90ea66" />
<path d="M848.625,981.0795923149514 C848.625,992.1022961574756,848.625,1014.1477038425243,848.625,1025.1704076850485" close="False" data-weight="0.0" stroke-width="7" fill="none" stroke="#90ea66" />
<path d="M848.625,906.0795923149514 C848.625,917.1022961574756,848.625,939.1477038425244,848.625,950.1704076850486" close="False" data-weight="0.0" stroke-width="7" fill="none" stroke="#90ea66" />
<path d="M848.625,756.0795923149514 C848.625,767.1022961574756,848.625,789.1477038425244,848.625,800.1704076850486" close="False" data-weight="0.0" stroke-width="7" fill="none" stroke="#90ea66" />
<path d="M848.625,650.1704076850486 A48.72232222128889,48.72232222128889,0,0,0,844.9162340553798,631.5251821846081 M844.9162340553798,631.5251821846081 A48.72232222128802,48.72232222128802,0,0,0,834.3545622165407,615.7185232472195 M834.3545622165407,615.7185232472195" close="False" data-weight="1.0" stroke-width="7" fill="none" stroke="#90ea66" />
<path d="M800.625,1903.125 C789.375,1903.125,766.875,1903.125,755.625,1903.125" close="False" data-weight="0.0" stroke-width="7" fill="none" stroke="#90ea66" />
<path d="M790.5314767527806,459.3545622165405 A57.722322221289375,57.722322221289375,0,0,0,778.0188501520187,478.0810312933222 M778.0188501520187,478.0810312933222 A57.72232222128787,57.72232222128787,0,0,0,773.625,500.1704076850486 M773.625,500.1704076850486" close="False" data-weight="1.0" stroke-width="7" fill="none" stroke="#90ea66" />
<path d="M725.625,1903.125 C714.375,1903.125,691.875,1903.125,680.625,1903.125" close="False" data-weight="0.0" stroke-width="7" fill="none" stroke="#90ea66" />
<path d="M650.625,1903.125 C639.375,1903.125,616.875,1903.125,605.625,1903.125" close="False" data-weight="0.0" stroke-width="7" fill="none" stroke="#90ea66" />
<path d="M494.03490257669733,1844.0349025766973 C486.0799512883487,1836.0799512883486,470.1700487116513,1820.1700487116514,462.21509742330267,1812.2150974233027" close="False" data-weight="0.0" stroke-width="7" fill="none" stroke="#90ea66" />
<path d="M403.125,1730.625 A54.31980515339285,54.31980515339285,0,0,0,407.2598489621724,1751.412289481504 M407.2598489621724,1751.412289481504 A54.31980515339627,54.31980515339627,0,0,0,419.03490257669733,1769.0349025766973 M419.03490257669733,1769.0349025766973" close="False" data-weight="1.0" stroke-width="7" fill="none" stroke="#90ea66" />
<path d="M403.125,1655.625 C403.125,1666.875,403.125,1689.375,403.125,1700.625" close="False" data-weight="0.0" stroke-width="7" fill="none" stroke="#90ea66" />
<path d="M403.125,1580.625 C403.125,1591.875,403.125,1614.375,403.125,1625.625" close="False" data-weight="0.0" stroke-width="7" fill="none" stroke="#90ea66" />
<path d="M403.125,1505.625 C403.125,1516.875,403.125,1539.375,403.125,1550.625" close="False" data-weight="0.0" stroke-width="7" fill="none" stroke="#90ea66" />
<path d="M350.625,1453.125 C339.375,1453.125,316.875,1453.125,305.625,1453.125" close="False" data-weight="0.0" stroke-width="7" fill="none" stroke="#90ea66" />
<path d="M275.625,1453.125 C264.375,1453.125,241.875,1453.125,230.625,1453.125" close="False" data-weight="0.0" stroke-width="7" fill="none" stroke="#90ea66" />
<path d="M253.125,1205.625 A54.31980515339285,54.31980515339285,0,0,1,248.99015103782762,1226.412289481504 M248.99015103782762,1226.412289481504 A54.319805153396246,54.319805153396246,0,0,1,237.21509742330267,1244.0349025766973 M237.21509742330267,1244.0349025766973" close="False" data-weight="1.0" stroke-width="7" fill="none" stroke="#90ea66" />
<path d="M194.0349025766973,1287.2150974233027 C186.07995128834867,1295.1700487116514,170.1700487116513,1311.0799512883486,162.21509742330267,1319.0349025766973" close="False" data-weight="0.0" stroke-width="7" fill="none" stroke="#90ea66" />
<path d="M1023.7465906273013,1219.125 L1057.5034093726988,1219.125" close="False" data-weight="1.75" stroke-width="7" fill="none" stroke="#90ea66" />
<path d="M919.125,1473.7465906273012 L919.125,1507.5034093726988" close="False" data-weight="1.75" stroke-width="7" fill="none" stroke="#90ea66" />
<path d="M919.125,1398.7465906273012 L919.125,1432.5034093726988" close="False" data-weight="1.75" stroke-width="7" fill="none" stroke="#90ea66" />
<path d="M919.125,1323.7465906273012 L919.125,1357.5034093726988" close="False" data-weight="1.75" stroke-width="7" fill="none" stroke="#90ea66" />
<path d="M919.125,1248.7465906273012 L919.125,1282.5034093726988" close="False" data-weight="1.75" stroke-width="7" fill="none" stroke="#90ea66" />
<path d="M948.7465906273013,1219.125 L982.5034093726987,1219.125" close="False" data-weight="1.75" stroke-width="7" fill="none" stroke="#90ea66" />
<path d="M853.125,1850.625 L853.125,1880.625" close="False" data-weight="1.75" stroke-width="7" fill="none" stroke="#90ea66" />
<path d="M853.125,1775.625 L853.125,1805.625" close="False" data-weight="1.75" stroke-width="7" fill="none" stroke="#90ea66" />
<path d="M853.125,1700.625 L853.125,1730.625" close="False" data-weight="1.75" stroke-width="7" fill="none" stroke="#90ea66" />
<path d="M853.125,1625.625 L853.125,1655.625" close="False" data-weight="1.75" stroke-width="7" fill="none" stroke="#90ea66" />
<path d="M865.5314767527655,1584.3545622165555 L909.3545622165558,1540.5314767527652" close="False" data-weight="2.060660171779821" stroke-width="7" fill="none" stroke="#90ea66" />
<path d="M865.5314767527805,1171.8954377834593 L909.3545622165409,1215.7185232472198" close="False" data-weight="2.060660171779821" stroke-width="7" fill="none" stroke="#90ea66" />
<path d="M848.625,1100.1704076850485 L848.625,1131.0795923149515" close="False" data-weight="1.75" stroke-width="7" fill="none" stroke="#90ea66" />
<path d="M848.625,1025.1704076850485 L848.625,1056.0795923149515" close="False" data-weight="1.75" stroke-width="7" fill="none" stroke="#90ea66" />
<path d="M848.625,950.1704076850486 L848.625,981.0795923149514" close="False" data-weight="1.75" stroke-width="7" fill="none" stroke="#90ea66" />
<path d="M848.625,875.1704076850486 L848.625,906.0795923149514" close="False" data-weight="1.75" stroke-width="7" fill="none" stroke="#90ea66" />
<path d="M848.625,800.1704076850486 L848.625,831.0795923149514" close="False" data-weight="1.75" stroke-width="7" fill="none" stroke="#90ea66" />
<path d="M848.625,725.1704076850486 L848.625,756.0795923149514" close="False" data-weight="1.75" stroke-width="7" fill="none" stroke="#90ea66" />
<path d="M848.625,650.1704076850486 L848.625,681.0795923149514" close="False" data-weight="1.75" stroke-width="7" fill="none" stroke="#90ea66" />
<path d="M800.625,1903.125 L830.625,1903.125" close="False" data-weight="1.75" stroke-width="7" fill="none" stroke="#90ea66" />
<path d="M790.5314767527805,571.8954377834593 L834.3545622165369,615.7185232472158" close="False" data-weight="2.060660171779821" stroke-width="7" fill="none" stroke="#90ea66" />
<path d="M773.625,500.1704076850486 L773.625,531.0795923149514" close="False" data-weight="1.75" stroke-width="7" fill="none" stroke="#90ea66" />
<path d="M790.5314767527805,459.3545622165406 L834.3545622165408,415.5314767527803" close="False" data-weight="2.060660171779821" stroke-width="7" fill="none" stroke="#90ea66" />
<path d="M725.625,1903.125 L755.625,1903.125" close="False" data-weight="1.75" stroke-width="7" fill="none" stroke="#90ea66" />
<path d="M650.625,1903.125 L680.625,1903.125" close="False" data-weight="1.75" stroke-width="7" fill="none" stroke="#90ea66" />
<path d="M575.625,1903.125 L605.625,1903.125" close="False" data-weight="1.75" stroke-width="7" fill="none" stroke="#90ea66" />
<path d="M494.03490257669733,1844.0349025766973 L537.2150974233027,1887.2150974233027" close="False" data-weight="2.060660171779821" stroke-width="7" fill="none" stroke="#90ea66" />
<path d="M419.03490257669733,1769.0349025766973 L462.21509742330267,1812.2150974233027" close="False" data-weight="2.060660171779821" stroke-width="7" fill="none" stroke="#90ea66" />
<path d="M403.125,1700.625 L403.125,1730.625" close="False" data-weight="1.75" stroke-width="7" fill="none" stroke="#90ea66" />
<path d="M403.125,1625.625 L403.125,1655.625" close="False" data-weight="1.75" stroke-width="7" fill="none" stroke="#90ea66" />
<path d="M403.125,1550.625 L403.125,1580.625" close="False" data-weight="1.75" stroke-width="7" fill="none" stroke="#90ea66" />
<path d="M403.125,1475.625 L403.125,1505.625" close="False" data-weight="1.75" stroke-width="7" fill="none" stroke="#90ea66" />
<path d="M350.625,1453.125 L380.625,1453.125" close="False" data-weight="1.75" stroke-width="7" fill="none" stroke="#90ea66" />
<path d="M275.625,1453.125 L305.625,1453.125" close="False" data-weight="1.75" stroke-width="7" fill="none" stroke="#90ea66" />
<path d="M253.125,1175.625 L253.125,1205.625" close="False" data-weight="1.75" stroke-width="7" fill="none" stroke="#90ea66" />
<path d="M200.625,1453.125 L230.625,1453.125" close="False" data-weight="1.75" stroke-width="7" fill="none" stroke="#90ea66" />
<path d="M194.03490257669733,1287.2150974233027 L237.2150974233027,1244.0349025766973" close="False" data-weight="2.060660171779821" stroke-width="7" fill="none" stroke="#90ea66" />
<path d="M119.03490257669732,1394.0349025766973 L162.2150974233027,1437.2150974233027" close="False" data-weight="2.060660171779821" stroke-width="7" fill="none" stroke="#90ea66" />
<path d="M119.03490257669732,1362.2150974233027 L162.2150974233027,1319.0349025766973" close="False" data-weight="2.060660171779821" stroke-width="7" fill="none" stroke="#90ea66" />
<path d="M2144.0349025766973,1812.2150974233027 C2136.0799512883486,1820.1700487116514,2120.1700487116514,1836.0799512883486,2112.2150974233027,1844.0349025766973" close="False" data-weight="0.0" stroke-width="7" fill="none" stroke="#35618f" />
<path d="M2150.1704076850488,1748.625 C2139.1477038425246,1748.625,2117.1022961574754,1748.625,2106.0795923149512,1748.625" close="False" data-weight="0.0" stroke-width="7" fill="none" stroke="#35618f" />
<path d="M2069.0349025766973,1887.2150974233027 C2061.0799512883486,1895.1700487116514,2045.1700487116514,1911.0799512883486,2037.2150974233027,1919.0349025766973" close="False" data-weight="0.0" stroke-width="7" fill="none" stroke="#35618f" />
<path d="M2075.1704076850488,1748.625 A48.72232222128832,48.72232222128832,0,0,1,2056.525182184608,1744.9162340553798 M2056.525182184608,1744.9162340553798 A48.72232222128834,48.72232222128834,0,0,1,2040.7185232472198,1734.3545622165407 M2040.7185232472198,1734.3545622165407" close="False" data-weight="1.0" stroke-width="7" fill="none" stroke="#35618f" />
<path d="M1978.125,2180.625 C1978.125,2191.875,1978.125,2214.375,1978.125,2225.625" close="False" data-weight="0.0" stroke-width="7" fill="none" stroke="#35618f" />
<path d="M1978.125,2105.625 C1978.125,2116.875,1978.125,2139.375,1978.125,2150.625" close="False" data-weight="0.0" stroke-width="7" fill="none" stroke="#35618f" />
<path d="M1978.125,2030.625 C1978.125,2041.875,1978.125,2064.375,1978.125,2075.625" close="False" data-weight="0.0" stroke-width="7" fill="none" stroke="#35618f" />
<path d="M1994.0349025766973,1962.2150974233027 A54.3198051533949,54.3198051533949,0,0,0,1982.2598489621723,1979.837710518496 M1982.2598489621723,1979.837710518496 A54.3198051533941,54.3198051533941,0,0,0,1978.125,2000.625 M1978.125,2000.625" close="False" data-weight="1.0" stroke-width="7" fill="none" stroke="#35618f" />
<path d="M1982.625,1581.0795923149515 C1982.625,1592.1022961574758,1982.625,1614.1477038425242,1982.625,1625.1704076850485" close="False" data-weight="0.0" stroke-width="7" fill="none" stroke="#35618f" />
<path d="M1982.625,1550.1704076850485 A57.72232222134403,57.72232222134403,0,0,0,1978.2311498479928,1528.0810312933386 M1978.2311498479928,1528.0810312933386 A57.72232222113069,57.72232222113069,0,0,0,1965.7185232472495,1509.3545622165705 M1965.7185232472495,1509.3545622165705" close="False" data-weight="1.0" stroke-width="7" fill="none" stroke="#35618f" />
<path d="M1850.625,2278.125 C1839.375,2278.125,1816.875,2278.125,1805.625,2278.125" close="False" data-weight="0.0" stroke-width="7" fill="none" stroke="#35618f" />
<path d="M1775.625,2278.125 A54.31980515339728,54.31980515339728,0,0,0,1754.837710518496,2282.2598489621723 M1754.837710518496,2282.2598489621723 A54.319805153387826,54.319805153387826,0,0,0,1737.2150974233027,2294.0349025766973 M1737.2150974233027,2294.0349025766973" close="False" data-weight="1.0" stroke-width="7" fill="none" stroke="#35618f" />
<path d="M1694.0349025766973,2337.2150974233027 C1686.0799512883486,2345.1700487116514,1670.1700487116514,2361.0799512883486,1662.2150974233027,2369.0349025766973" close="False" data-weight="0.0" stroke-width="7" fill="none" stroke="#35618f" />
<path d="M1607.625,2375.1704076850488 A57.72232222129219,57.72232222129219,0,0,0,1603.2311498479817,2353.081031293322 M1603.2311498479817,2353.081031293322 A57.72232222128471,57.72232222128471,0,0,0,1590.7185232472198,2334.3545622165407 M1590.7185232472198,2334.3545622165407" close="False" data-weight="1.0" stroke-width="7" fill="none" stroke="#35618f" />
<path d="M1546.8954377834893,2290.5314767528102 C1539.1012091494144,2282.7372481187354,1523.5127518812646,2267.1487908505856,1515.7185232471898,2259.3545622165107" close="False" data-weight="0.0" stroke-width="7" fill="none" stroke="#35618f" />
<path d="M1394.0349025766973,2144.0349025766973 C1386.0799512883486,2136.0799512883486,1370.1700487116514,2120.1700487116514,1362.2150974233027,2112.2150974233027" close="False" data-weight="0.0" stroke-width="7" fill="none" stroke="#35618f" />
<path d="M1319.0349025766973,2069.0349025766973 C1311.0799512883486,2061.0799512883486,1295.1700487116514,2045.1700487116514,1287.2150974233027,2037.2150974233027" close="False" data-weight="0.0" stroke-width="7" fill="none" stroke="#35618f" />
<path d="M1244.0349025766973,1994.0349025766973 C1236.0799512883486,1986.0799512883486,1220.1700487116514,1970.1700487116514,1212.2150974233027,1962.2150974233027" close="False" data-weight="0.0" stroke-width="7" fill="none" stroke="#35618f" />
<path d="M1169.0349025766973,1919.0349025766973 A54.3198051533949,54.3198051533949,0,0,0,1151.412289481504,1907.2598489621723 M1151.412289481504,1907.2598489621723 A54.3198051533941,54.3198051533941,0,0,0,1130.625,1903.125 M1130.625,1903.125" close="False" data-weight="1.0" stroke-width="7" fill="none" stroke="#35618f" />
<path d="M1100.625,1903.125 C1089.375,1903.125,1066.875,1903.125,1055.625,1903.125" close="False" data-weight="0.0" stroke-width="7" fill="none" stroke="#35618f" />
<path d="M1025.625,1903.125 C1014.375,1903.125,991.875,1903.125,980.625,1903.125" close="False" data-weight="0.0" stroke-width="7" fill="none" stroke="#35618f" />
<path d="M950.625,1903.125 C939.375,1903.125,916.875,1903.125,905.625,1903.125" close="False" data-weight="0.0" stroke-width="7" fill="none" stroke="#35618f" />
<path d="M2144.0349025766973,1812.2150974233027 L2187.2150974233027,1769.0349025766973" close="False" data-weight="2.060660171779821" stroke-width="7" fill="none" stroke="#35618f" />
<path d="M2150.1704076850488,1748.625 L2181.0795923149512,1748.625" close="False" data-weight="1.75" stroke-width="7" fill="none" stroke="#35618f" />
<path d="M2069.0349025766973,1887.2150974233027 L2112.2150974233027,1844.0349025766973" close="False" data-weight="2.060660171779821" stroke-width="7" fill="none" stroke="#35618f" />
<path d="M2075.1704076850488,1748.625 L2106.0795923149512,1748.625" close="False" data-weight="1.75" stroke-width="7" fill="none" stroke="#35618f" />
<path d="M1978.125,2225.625 L1978.125,2255.625" close="False" data-weight="1.75" stroke-width="7" fill="none" stroke="#35618f" />
<path d="M1978.125,2150.625 L1978.125,2180.625" close="False" data-weight="1.75" stroke-width="7" fill="none" stroke="#35618f" />
<path d="M1978.125,2075.625 L1978.125,2105.625" close="False" data-weight="1.75" stroke-width="7" fill="none" stroke="#35618f" />
<path d="M1978.125,2000.625 L1978.125,2030.625" close="False" data-weight="1.75" stroke-width="7" fill="none" stroke="#35618f" />
<path d="M1994.0349025766973,1962.2150974233027 L2037.2150974233027,1919.0349025766973" close="False" data-weight="2.060660171779821" stroke-width="7" fill="none" stroke="#35618f" />
<path d="M1996.8954377834593,1690.5314767527802 L2040.7185232472198,1734.3545622165407" close="False" data-weight="2.060660171779821" stroke-width="7" fill="none" stroke="#35618f" />
<path d="M1982.625,1625.1704076850485 L1982.625,1656.0795923149515" close="False" data-weight="1.75" stroke-width="7" fill="none" stroke="#35618f" />
<path d="M1982.625,1550.1704076850485 L1982.625,1581.0795923149515" close="False" data-weight="1.75" stroke-width="7" fill="none" stroke="#35618f" />
<path d="M1925.625,2278.125 L1955.625,2278.125" close="False" data-weight="1.75" stroke-width="7" fill="none" stroke="#35618f" />
<path d="M1921.8954377834295,1465.5314767527505 L1965.7185232472495,1509.3545622165705" close="False" data-weight="2.060660171779821" stroke-width="7" fill="none" stroke="#35618f" />
<path d="M1850.625,2278.125 L1880.625,2278.125" close="False" data-weight="1.75" stroke-width="7" fill="none" stroke="#35618f" />
<path d="M1775.625,2278.125 L1805.625,2278.125" close="False" data-weight="1.75" stroke-width="7" fill="none" stroke="#35618f" />
<path d="M1694.0349025766973,2337.2150974233027 L1737.2150974233027,2294.0349025766973" close="False" data-weight="2.060660171779821" stroke-width="7" fill="none" stroke="#35618f" />
<path d="M1619.0349025766973,2412.2150974233027 L1662.2150974233027,2369.0349025766973" close="False" data-weight="2.060660171779821" stroke-width="7" fill="none" stroke="#35618f" />
<path d="M1607.625,2375.1704076850488 L1607.625,2406.0795923149512" close="False" data-weight="1.75" stroke-width="7" fill="none" stroke="#35618f" />
<path d="M1546.8954377834893,2290.5314767528102 L1590.7185232472198,2334.3545622165407" close="False" data-weight="2.060660171779821" stroke-width="7" fill="none" stroke="#35618f" />
<path d="M1471.8954377834593,2215.5314767527802 L1515.7185232471898,2259.3545622165107" close="False" data-weight="2.060660171779821" stroke-width="7" fill="none" stroke="#35618f" />
<path d="M1394.0349025766973,2144.0349025766973 L1437.2150974233027,2187.2150974233027" close="False" data-weight="2.060660171779821" stroke-width="7" fill="none" stroke="#35618f" />
<path d="M1319.0349025766973,2069.0349025766973 L1362.2150974233027,2112.2150974233027" close="False" data-weight="2.060660171779821" stroke-width="7" fill="none" stroke="#35618f" />
<path d="M1244.0349025766973,1994.0349025766973 L1287.2150974233027,2037.2150974233027" close="False" data-weight="2.060660171779821" stroke-width="7" fill="none" stroke="#35618f" />
<path d="M1169.0349025766973,1919.0349025766973 L1212.2150974233027,1962.2150974233027" close="False" data-weight="2.060660171779821" stroke-width="7" fill="none" stroke="#35618f" />
<path d="M1100.625,1903.125 L1130.625,1903.125" close="False" data-weight="1.75" stroke-width="7" fill="none" stroke="#35618f" />
<path d="M1025.625,1903.125 L1055.625,1903.125" close="False" data-weight="1.75" stroke-width="7" fill="none" stroke="#35618f" />
<path d="M950.625,1903.125 L980.625,1903.125" close="False" data-weight="1.75" stroke-width="7" fill="none" stroke="#35618f" />
<path d="M875.625,1903.125 L905.625,1903.125" close="False" data-weight="1.75" stroke-width="7" fill="none" stroke="#35618f" />
<image x="2395.625" y="670.625" width="65" height="65" xlink:href="designspace-test/./img/ds_dataset1_40_21_thumb.png" data-node="True" data-id="21" />
<image x="2245.625" y="970.625" width="65" height="65" xlink:href="designspace-test/./img/ds_dataset1_40_27_thumb.png" data-node="True" data-id="27" />
<image x="2170.625" y="1720.625" width="65" height="65" xlink:href="designspace-test/./img/ds_dataset1_40_19_thumb.png" data-node="True" data-id="19" />
<image x="2170.625" y="1345.625" width="65" height="65" xlink:href="designspace-test/./img/ds_dataset1_40_37_thumb.png" data-node="True" data-id="37" />
<image x="1945.625" y="2245.625" width="65" height="65" xlink:href="designspace-test/./img/ds_dataset1_40_12_thumb.png" data-node="True" data-id="12" />
<image x="1945.625" y="1645.625" width="65" height="65" xlink:href="designspace-test/./img/ds_dataset1_40_32_thumb.png" data-node="True" data-id="32" />
<image x="1870.625" y="2245.625" width="65" height="65" xlink:href="designspace-test/./img/ds_dataset1_40_2_thumb.png" data-node="True" data-id="2" />
<image x="1870.625" y="1420.625" width="65" height="65" xlink:href="designspace-test/./img/ds_dataset1_40_4_thumb.png" data-node="True" data-id="4" />
<image x="1870.625" y="595.625" width="65" height="65" xlink:href="designspace-test/./img/ds_dataset1_40_10_thumb.png" data-node="True" data-id="10" />
<image x="1795.625" y="745.625" width="65" height="65" xlink:href="designspace-test/./img/ds_dataset1_40_9_thumb.png" data-node="True" data-id="9" />
<image x="1795.625" y="520.625" width="65" height="65" xlink:href="designspace-test/./img/ds_dataset1_40_25_thumb.png" data-node="True" data-id="25" />
<image x="1720.625" y="670.625" width="65" height="65" xlink:href="designspace-test/./img/ds_dataset1_40_16_thumb.png" data-node="True" data-id="16" />
<image x="1720.625" y="595.625" width="65" height="65" xlink:href="designspace-test/./img/ds_dataset1_40_11_thumb.png" data-node="True" data-id="11" />
<image x="1645.625" y="370.625" width="65" height="65" xlink:href="designspace-test/./img/ds_dataset1_40_24_thumb.png" data-node="True" data-id="24" />
<image x="1570.625" y="2395.625" width="65" height="65" xlink:href="designspace-test/./img/ds_dataset1_40_22_thumb.png" data-node="True" data-id="22" />
<image x="1570.625" y="370.625" width="65" height="65" xlink:href="designspace-test/./img/ds_dataset1_40_13_thumb.png" data-node="True" data-id="13" />
<image x="1570.625" y="145.625" width="65" height="65" xlink:href="designspace-test/./img/ds_dataset1_40_14_thumb.png" data-node="True" data-id="14" />
<image x="1495.625" y="1270.625" width="65" height="65" xlink:href="designspace-test/./img/ds_dataset1_40_1_thumb.png" data-node="True" data-id="1" />
<image x="1495.625" y="670.625" width="65" height="65" xlink:href="designspace-test/./img/ds_dataset1_40_39_thumb.png" data-node="True" data-id="39" />
<image x="1495.625" y="520.625" width="65" height="65" xlink:href="designspace-test/./img/ds_dataset1_40_33_thumb.png" data-node="True" data-id="33" />
<image x="1495.625" y="445.625" width="65" height="65" xlink:href="designspace-test/./img/ds_dataset1_40_31_thumb.png" data-node="True" data-id="31" />
<image x="1495.625" y="370.625" width="65" height="65" xlink:href="designspace-test/./img/ds_dataset1_40_30_thumb.png" data-node="True" data-id="30" />
<image x="1420.625" y="2170.625" width="65" height="65" xlink:href="designspace-test/./img/ds_dataset1_40_38_thumb.png" data-node="True" data-id="38" />
<image x="1420.625" y="70.625" width="65" height="65" xlink:href="designspace-test/./img/ds_dataset1_40_17_thumb.png" data-node="True" data-id="17" />
<image x="1345.625" y="1270.625" width="65" height="65" xlink:href="designspace-test/./img/ds_dataset1_40_36_thumb.png" data-node="True" data-id="36" />
<image x="1195.625" y="2170.625" width="65" height="65" xlink:href="designspace-test/./img/ds_dataset1_40_35_thumb.png" data-node="True" data-id="35" />
<image x="1045.625" y="1195.625" width="65" height="65" xlink:href="designspace-test/./img/ds_dataset1_40_29_thumb.png" data-node="True" data-id="29" />
<image x="970.625" y="2245.625" width="65" height="65" xlink:href="designspace-test/./img/ds_dataset1_40_23_thumb.png" data-node="True" data-id="23" />
<image x="895.625" y="1495.625" width="65" height="65" xlink:href="designspace-test/./img/ds_dataset1_40_28_thumb.png" data-node="True" data-id="28" />
<image x="895.625" y="1195.625" width="65" height="65" xlink:href="designspace-test/./img/ds_dataset1_40_3_thumb.png" data-node="True" data-id="3" />
<image x="820.625" y="1870.625" width="65" height="65" xlink:href="designspace-test/./img/ds_dataset1_40_18_thumb.png" data-node="True" data-id="18" />
<image x="820.625" y="820.625" width="65" height="65" xlink:href="designspace-test/./img/ds_dataset1_40_6_thumb.png" data-node="True" data-id="6" />
<image x="820.625" y="670.625" width="65" height="65" xlink:href="designspace-test/./img/ds_dataset1_40_15_thumb.png" data-node="True" data-id="15" />
<image x="820.625" y="370.625" width="65" height="65" xlink:href="designspace-test/./img/ds_dataset1_40_26_thumb.png" data-node="True" data-id="26" />
<image x="745.625" y="520.625" width="65" height="65" xlink:href="designspace-test/./img/ds_dataset1_40_8_thumb.png" data-node="True" data-id="8" />
<image x="520.625" y="1870.625" width="65" height="65" xlink:href="designspace-test/./img/ds_dataset1_40_20_thumb.png" data-node="True" data-id="20" />
<image x="370.625" y="1420.625" width="65" height="65" xlink:href="designspace-test/./img/ds_dataset1_40_34_thumb.png" data-node="True" data-id="34" />
<image x="220.625" y="1120.625" width="65" height="65" xlink:href="designspace-test/./img/ds_dataset1_40_0_thumb.png" data-node="True" data-id="0" />
<image x="145.625" y="1420.625" width="65" height="65" xlink:href="designspace-test/./img/ds_dataset1_40_5_thumb.png" data-node="True" data-id="5" />
<image x="70.625" y="1345.625" width="65" height="65" xlink:href="designspace-test/./img/ds_dataset1_40_7_thumb.png" data-node="True" data-id="7" />
</svg>